<?xml version="1.0" encoding="UTF-8" standalone="no"?>
<!DOCTYPE svg PUBLIC "-//W3C//DTD SVG 1.1//EN"
 "http://www.w3.org/Graphics/SVG/1.1/DTD/svg11.dtd">
<!-- Generated by graphviz version 2.40.1 (20161225.0304)
 -->
<!-- Title: /Users/oskryp/Projects/freesee&#45;native&#45;client/libs/fcc_sdk/engine/meetingclient/src/headers/MeetingClient/proxies/ActiveSpeakerManagerImpl.hxx Pages: 1 -->
<!--zoomable 597 -->
<svg id="main" version="1.1" xmlns="http://www.w3.org/2000/svg" xmlns:xlink="http://www.w3.org/1999/xlink" xml:space="preserve" onload="init(evt)">
<style type="text/css"><![CDATA[
.edge:hover path { stroke: red; }
.edge:hover polygon { stroke: red; fill: red; }
]]></style>
<script type="text/javascript"><![CDATA[
var edges = document.getElementsByTagName('g');
if (edges && edges.length) {
  for (var i=0;i<edges.length;i++) {
    if (edges[i].id.substr(0,4)=='edge') {
      edges[i].setAttribute('class','edge');
    }
  }
}
]]></script>
        <defs>
                <circle id="rim" cx="0" cy="0" r="7"/>
                <circle id="rim2" cx="0" cy="0" r="3.5"/>
                <g id="zoomPlus">
                        <use xlink:href="#rim" fill="#404040">
                                <set attributeName="fill" to="#808080" begin="zoomplus.mouseover" end="zoomplus.mouseout"/>
                        </use>
                        <path d="M-4,0h8M0,-4v8" fill="none" stroke="white" stroke-width="1.5" pointer-events="none"/>
                </g>
                <g id="zoomMin">
                        <use xlink:href="#rim" fill="#404040">
                                <set attributeName="fill" to="#808080" begin="zoomminus.mouseover" end="zoomminus.mouseout"/>
                        </use>
                        <path d="M-4,0h8" fill="none" stroke="white" stroke-width="1.5" pointer-events="none"/>
                </g>
                <g id="dirArrow">
                        <path fill="none" stroke="white" stroke-width="1.5" d="M0,-3.0v7 M-2.5,-0.5L0,-3.0L2.5,-0.5"/>
                </g>
               <g id="resetDef">
                       <use xlink:href="#rim2" fill="#404040">
                               <set attributeName="fill" to="#808080" begin="reset.mouseover" end="reset.mouseout"/>
                       </use>
               </g>
        </defs>

<script type="text/javascript">
var viewWidth = 1985;
var viewHeight = 597;
var sectionId = 'dynsection-0';
</script>
<script xlink:href="svgpan.js"/>
<svg id="graph" class="graph">
<g id="viewport">
<title>/Users/oskryp/Projects/freesee&#45;native&#45;client/libs/fcc_sdk/engine/meetingclient/src/headers/MeetingClient/proxies/ActiveSpeakerManagerImpl.hxx</title>
<!-- Node0 -->
<g id="node1" class="node">
<title>Node0</title>
<g id="a_node1"><a xlink:title=" ">
<polygon fill="#bfbfbf" stroke="#000000" points="494.7466,-530.5 494.7466,-588.5 664.7065,-588.5 664.7065,-530.5 494.7466,-530.5"/>
<text text-anchor="start" x="502.7466" y="-576.5" font-family="Helvetica,sans-Serif" font-size="10.00" fill="#000000">/Users/oskryp/Projects</text>
<text text-anchor="start" x="502.7466" y="-566.5" font-family="Helvetica,sans-Serif" font-size="10.00" fill="#000000">/freesee&#45;native&#45;client</text>
<text text-anchor="start" x="502.7466" y="-556.5" font-family="Helvetica,sans-Serif" font-size="10.00" fill="#000000">/libs/fcc_sdk/engine/meetingclient</text>
<text text-anchor="start" x="502.7466" y="-546.5" font-family="Helvetica,sans-Serif" font-size="10.00" fill="#000000">/src/headers/MeetingClient/proxies</text>
<text text-anchor="middle" x="579.7266" y="-536.5" font-family="Helvetica,sans-Serif" font-size="10.00" fill="#000000">/ActiveSpeakerManagerImpl.hxx</text>
</a>
</g>
</g>
<!-- Node1 -->
<g id="node2" class="node">
<title>Node1</title>
<g id="a_node2"><a xlink:title=" ">
<polygon fill="none" stroke="#bfbfbf" points="366.8623,-335.5 366.8623,-353.5 464.5908,-353.5 464.5908,-335.5 366.8623,-335.5"/>
<text text-anchor="middle" x="415.7266" y="-341.5" font-family="Helvetica,sans-Serif" font-size="10.00" fill="#000000">boost/function.hpp</text>
</a>
</g>
</g>
<!-- Node0&#45;&gt;Node1 -->
<g id="edge1" class="edge">
<title>Node0&#45;&gt;Node1</title>
<path fill="none" stroke="#191970" d="M545.2266,-530.4755C533.3185,-519.6392 520.32,-506.8367 509.7266,-494 473.7667,-450.4254 440.871,-392.1207 425.2603,-362.8696"/>
<polygon fill="#191970" stroke="#191970" points="428.2422,-361.0206 420.4828,-353.8065 422.0499,-364.2848 428.2422,-361.0206"/>
</g>
<!-- Node2 -->
<g id="node3" class="node">
<title>Node2</title>
<g id="a_node3"><a xlink:title=" ">
<polygon fill="none" stroke="#bfbfbf" points="786.1108,-200.5 786.1108,-218.5 829.3423,-218.5 829.3423,-200.5 786.1108,-200.5"/>
<text text-anchor="middle" x="807.7266" y="-206.5" font-family="Helvetica,sans-Serif" font-size="10.00" fill="#000000">vector</text>
</a>
</g>
</g>
<!-- Node0&#45;&gt;Node2 -->
<g id="edge2" class="edge">
<title>Node0&#45;&gt;Node2</title>
<path fill="none" stroke="#191970" d="M639.0934,-530.42C679.8913,-505.8201 726.7266,-466.2992 726.7266,-414.5 726.7266,-414.5 726.7266,-414.5 726.7266,-344.5 726.7266,-295.6323 766.2347,-249.1755 790.0665,-225.5976"/>
<polygon fill="#191970" stroke="#191970" points="792.6672,-227.9531 797.4679,-218.5083 787.8251,-222.8979 792.6672,-227.9531"/>
</g>
<!-- Node3 -->
<g id="node4" class="node">
<title>Node3</title>
<g id="a_node4"><a xlink:href="_active_speaker_manager_abstract_8hxx.html" target="_top" xlink:title=" ">
<polygon fill="none" stroke="#000000" points="507.5273,-400.5 507.5273,-428.5 651.9258,-428.5 651.9258,-400.5 507.5273,-400.5"/>
<text text-anchor="start" x="515.5273" y="-416.5" font-family="Helvetica,sans-Serif" font-size="10.00" fill="#000000">MeetingClient/ActiveSpeaker</text>
<text text-anchor="middle" x="579.7266" y="-406.5" font-family="Helvetica,sans-Serif" font-size="10.00" fill="#000000">ManagerAbstract.hxx</text>
</a>
</g>
</g>
<!-- Node0&#45;&gt;Node3 -->
<g id="edge3" class="edge">
<title>Node0&#45;&gt;Node3</title>
<path fill="none" stroke="#191970" d="M579.7266,-530.1571C579.7266,-503.3413 579.7266,-464.1407 579.7266,-438.9736"/>
<polygon fill="#191970" stroke="#191970" points="583.2267,-438.8083 579.7266,-428.8083 576.2267,-438.8083 583.2267,-438.8083"/>
</g>
<!-- Node4 -->
<g id="node5" class="node">
<title>Node4</title>
<g id="a_node5"><a xlink:href="_i_active_speaker_notifications_delegate_8hxx.html" target="_top" xlink:title=" ">
<polygon fill="none" stroke="#000000" points="482.4756,-325.5 482.4756,-363.5 622.9775,-363.5 622.9775,-325.5 482.4756,-325.5"/>
<text text-anchor="start" x="490.4756" y="-351.5" font-family="Helvetica,sans-Serif" font-size="10.00" fill="#000000">MeetingClient/Delegates</text>
<text text-anchor="start" x="490.4756" y="-341.5" font-family="Helvetica,sans-Serif" font-size="10.00" fill="#000000">/IActiveSpeakerNotifications</text>
<text text-anchor="middle" x="552.7266" y="-331.5" font-family="Helvetica,sans-Serif" font-size="10.00" fill="#000000">Delegate.hxx</text>
</a>
</g>
</g>
<!-- Node0&#45;&gt;Node4 -->
<g id="edge38" class="edge">
<title>Node0&#45;&gt;Node4</title>
<path fill="none" stroke="#191970" d="M555.01,-530.4404C535.4452,-505.4034 509.6572,-467.3374 498.7266,-429 495.1926,-416.6051 493.8759,-411.9413 498.7266,-400 503.1876,-389.018 510.9815,-379.0171 519.2832,-370.6242"/>
<polygon fill="#191970" stroke="#191970" points="521.771,-373.089 526.6384,-363.6784 516.9648,-367.9996 521.771,-373.089"/>
</g>
<!-- Node28 -->
<g id="node29" class="node">
<title>Node28</title>
<g id="a_node29"><a xlink:href="_meeting_client_a_p_i_8hxx.html" target="_top" xlink:title=" ">
<polygon fill="none" stroke="#000000" points="1046.1948,-465.5 1046.1948,-493.5 1187.2583,-493.5 1187.2583,-465.5 1046.1948,-465.5"/>
<text text-anchor="start" x="1054.1948" y="-481.5" font-family="Helvetica,sans-Serif" font-size="10.00" fill="#000000">MeetingClient/MeetingClient</text>
<text text-anchor="middle" x="1116.7266" y="-471.5" font-family="Helvetica,sans-Serif" font-size="10.00" fill="#000000">API.hxx</text>
</a>
</g>
</g>
<!-- Node0&#45;&gt;Node28 -->
<g id="edge39" class="edge">
<title>Node0&#45;&gt;Node28</title>
<path fill="none" stroke="#191970" d="M664.8158,-546.8238C766.7469,-531.6385 936.231,-506.3895 1036.1279,-491.5072"/>
<polygon fill="#191970" stroke="#191970" points="1036.7935,-494.9468 1046.1685,-490.0114 1035.762,-488.0232 1036.7935,-494.9468"/>
</g>
<!-- Node3&#45;&gt;Node1 -->
<g id="edge4" class="edge">
<title>Node3&#45;&gt;Node1</title>
<path fill="none" stroke="#191970" d="M546.5387,-400.3345C517.235,-387.8268 474.8553,-369.7379 446.3488,-357.5705"/>
<polygon fill="#191970" stroke="#191970" points="447.4598,-354.2392 436.8885,-353.5325 444.7118,-360.6773 447.4598,-354.2392"/>
</g>
<!-- Node3&#45;&gt;Node2 -->
<g id="edge5" class="edge">
<title>Node3&#45;&gt;Node2</title>
<path fill="none" stroke="#191970" d="M595.297,-400.445C605.9292,-390.5955 620.1341,-376.931 631.7266,-364 670.8347,-320.3761 667.8726,-297.6911 712.7266,-260 718.4896,-255.1573 754.6642,-236.3891 780.665,-223.1535"/>
<polygon fill="#191970" stroke="#191970" points="782.3754,-226.2104 789.7087,-218.5635 779.2074,-219.9683 782.3754,-226.2104"/>
</g>
<!-- Node3&#45;&gt;Node4 -->
<g id="edge6" class="edge">
<title>Node3&#45;&gt;Node4</title>
<path fill="none" stroke="#191970" d="M574.2627,-400.3345C571.2435,-392.5068 567.3811,-382.4932 563.7631,-373.1132"/>
<polygon fill="#191970" stroke="#191970" points="566.991,-371.7561 560.1267,-363.6857 560.46,-374.2753 566.991,-371.7561"/>
</g>
<!-- Node22 -->
<g id="node23" class="node">
<title>Node22</title>
<g id="a_node23"><a xlink:href="_meeting_attendee_struct_8hxx.html" target="_top" xlink:title=" ">
<polygon fill="none" stroke="#000000" points="931.9609,-330.5 931.9609,-358.5 1087.4922,-358.5 1087.4922,-330.5 931.9609,-330.5"/>
<text text-anchor="start" x="939.9609" y="-346.5" font-family="Helvetica,sans-Serif" font-size="10.00" fill="#000000">MeetingClient/MeetingAttendee</text>
<text text-anchor="middle" x="1009.7266" y="-336.5" font-family="Helvetica,sans-Serif" font-size="10.00" fill="#000000">Struct.hxx</text>
</a>
</g>
</g>
<!-- Node3&#45;&gt;Node22 -->
<g id="edge28" class="edge">
<title>Node3&#45;&gt;Node22</title>
<path fill="none" stroke="#191970" d="M652.184,-402.7046C726.5523,-390.5981 842.333,-371.7501 921.8752,-358.8014"/>
<polygon fill="#191970" stroke="#191970" points="922.5686,-362.2347 931.8763,-357.1733 921.4438,-355.3256 922.5686,-362.2347"/>
</g>
<!-- Node4&#45;&gt;Node2 -->
<g id="edge27" class="edge">
<title>Node4&#45;&gt;Node2</title>
<path fill="none" stroke="#191970" d="M576.2764,-325.3052C599.9998,-306.6839 638.221,-278.5895 674.7266,-260 717.9397,-237.9948 732.9345,-242.5816 777.7266,-224 778.5915,-223.6412 779.467,-223.2698 780.3483,-222.8888"/>
<polygon fill="#191970" stroke="#191970" points="782.1487,-225.9145 789.793,-218.5785 779.2424,-219.5463 782.1487,-225.9145"/>
</g>
<!-- Node5 -->
<g id="node6" class="node">
<title>Node5</title>
<g id="a_node6"><a xlink:href="_notifications_8hxx.html" target="_top" xlink:title=" ">
<polygon fill="none" stroke="#000000" points="460.2515,-260.5 460.2515,-288.5 585.2017,-288.5 585.2017,-260.5 460.2515,-260.5"/>
<text text-anchor="start" x="468.2515" y="-276.5" font-family="Helvetica,sans-Serif" font-size="10.00" fill="#000000">MeetingClient/Delegates</text>
<text text-anchor="middle" x="522.7266" y="-266.5" font-family="Helvetica,sans-Serif" font-size="10.00" fill="#000000">/Notifications.hxx</text>
</a>
</g>
</g>
<!-- Node4&#45;&gt;Node5 -->
<g id="edge7" class="edge">
<title>Node4&#45;&gt;Node5</title>
<path fill="none" stroke="#191970" d="M544.5289,-325.3722C540.9492,-317.0194 536.7136,-307.1365 532.9323,-298.3135"/>
<polygon fill="#191970" stroke="#191970" points="536.0716,-296.7531 528.9153,-288.9404 529.6375,-299.5106 536.0716,-296.7531"/>
</g>
<!-- Node7 -->
<g id="node8" class="node">
<title>Node7</title>
<g id="a_node8"><a xlink:title=" ">
<polygon fill="none" stroke="#bfbfbf" points="0,-200.5 0,-218.5 35.4531,-218.5 35.4531,-200.5 0,-200.5"/>
<text text-anchor="middle" x="17.7266" y="-206.5" font-family="Helvetica,sans-Serif" font-size="10.00" fill="#000000">map</text>
</a>
</g>
</g>
<!-- Node4&#45;&gt;Node7 -->
<g id="edge26" class="edge">
<title>Node4&#45;&gt;Node7</title>
<path fill="none" stroke="#191970" d="M482.101,-327.0252C479.2732,-326.3388 476.4734,-325.6616 473.7266,-325 282.872,-279.0324 226.7739,-294.9375 43.7266,-224 43.0037,-223.7199 42.2763,-223.4228 41.5473,-223.1117"/>
<polygon fill="#191970" stroke="#191970" points="42.7465,-219.8007 32.2295,-218.5184 39.6514,-226.0793 42.7465,-219.8007"/>
</g>
<!-- Node5&#45;&gt;Node2 -->
<g id="edge10" class="edge">
<title>Node5&#45;&gt;Node2</title>
<path fill="none" stroke="#191970" d="M585.4465,-266.6285C637.7801,-258.9885 713.8495,-245.3717 777.7266,-224 778.9609,-223.587 780.21,-223.1346 781.4617,-222.6529"/>
<polygon fill="#191970" stroke="#191970" points="783.1268,-225.7458 790.9076,-218.5549 780.3407,-219.3241 783.1268,-225.7458"/>
</g>
<!-- Node6 -->
<g id="node7" class="node">
<title>Node6</title>
<g id="a_node7"><a xlink:title=" ">
<polygon fill="none" stroke="#bfbfbf" points="655.0864,-195.5 655.0864,-223.5 768.3667,-223.5 768.3667,-195.5 655.0864,-195.5"/>
<text text-anchor="start" x="663.0864" y="-211.5" font-family="Helvetica,sans-Serif" font-size="10.00" fill="#000000">boost/date_time/posix</text>
<text text-anchor="middle" x="711.7266" y="-201.5" font-family="Helvetica,sans-Serif" font-size="10.00" fill="#000000">_time/posix_time.hpp</text>
</a>
</g>
</g>
<!-- Node5&#45;&gt;Node6 -->
<g id="edge8" class="edge">
<title>Node5&#45;&gt;Node6</title>
<path fill="none" stroke="#191970" d="M563.7367,-260.396C592.3425,-250.558 630.6986,-237.3668 661.1939,-226.879"/>
<polygon fill="#191970" stroke="#191970" points="662.4783,-230.1385 670.7964,-223.5765 660.2017,-223.519 662.4783,-230.1385"/>
</g>
<!-- Node5&#45;&gt;Node7 -->
<g id="edge9" class="edge">
<title>Node5&#45;&gt;Node7</title>
<path fill="none" stroke="#191970" d="M460.0519,-271.0257C348.4231,-264.3192 119.7536,-248.0927 43.7266,-224 42.6919,-223.6721 41.652,-223.3005 40.6148,-222.8944"/>
<polygon fill="#191970" stroke="#191970" points="42.0925,-219.7215 31.561,-218.5649 39.0726,-226.0366 42.0925,-219.7215"/>
</g>
<!-- Node8 -->
<g id="node9" class="node">
<title>Node8</title>
<g id="a_node9"><a xlink:title=" ">
<polygon fill="none" stroke="#bfbfbf" points="340.0396,-200.5 340.0396,-218.5 429.4136,-218.5 429.4136,-200.5 340.0396,-200.5"/>
<text text-anchor="middle" x="384.7266" y="-206.5" font-family="Helvetica,sans-Serif" font-size="10.00" fill="#000000">FSSnapshot.hxx</text>
</a>
</g>
</g>
<!-- Node5&#45;&gt;Node8 -->
<g id="edge11" class="edge">
<title>Node5&#45;&gt;Node8</title>
<path fill="none" stroke="#191970" d="M492.7826,-260.396C469.1994,-249.2879 436.5401,-233.9049 413.3144,-222.9653"/>
<polygon fill="#191970" stroke="#191970" points="414.5301,-219.6691 403.992,-218.5743 411.5473,-226.0018 414.5301,-219.6691"/>
</g>
<!-- Node9 -->
<g id="node10" class="node">
<title>Node9</title>
<g id="a_node10"><a xlink:href="macros_8hxx.html" target="_top" xlink:title=" ">
<polygon fill="none" stroke="#000000" points="847.2046,-200.5 847.2046,-218.5 978.2485,-218.5 978.2485,-200.5 847.2046,-200.5"/>
<text text-anchor="middle" x="912.7266" y="-206.5" font-family="Helvetica,sans-Serif" font-size="10.00" fill="#000000">MeetingClient/macros.hxx</text>
</a>
</g>
</g>
<!-- Node5&#45;&gt;Node9 -->
<g id="edge12" class="edge">
<title>Node5&#45;&gt;Node9</title>
<path fill="none" stroke="#191970" d="M585.4899,-265.1324C649.3327,-255.4481 751.0711,-239.587 838.7266,-224 844.9014,-222.902 851.3565,-221.7071 857.7709,-220.4902"/>
<polygon fill="#191970" stroke="#191970" points="858.6102,-223.893 867.771,-218.5703 857.2904,-217.0186 858.6102,-223.893"/>
</g>
<!-- Node10 -->
<g id="node11" class="node">
<title>Node10</title>
<g id="a_node11"><a xlink:href="_f_s_base_8hxx.html" target="_top" xlink:title=" ">
<polygon fill="none" stroke="#000000" points="53.0347,-195.5 53.0347,-223.5 172.4185,-223.5 172.4185,-195.5 53.0347,-195.5"/>
<text text-anchor="start" x="61.0347" y="-211.5" font-family="Helvetica,sans-Serif" font-size="10.00" fill="#000000">MeetingClient/transport</text>
<text text-anchor="middle" x="112.7266" y="-201.5" font-family="Helvetica,sans-Serif" font-size="10.00" fill="#000000">/FSBase.hxx</text>
</a>
</g>
</g>
<!-- Node5&#45;&gt;Node10 -->
<g id="edge13" class="edge">
<title>Node5&#45;&gt;Node10</title>
<path fill="none" stroke="#191970" d="M460.0063,-266.3621C393.6007,-257.4866 285.5055,-242.302 182.476,-224.0693"/>
<polygon fill="#191970" stroke="#191970" points="182.9818,-220.6043 172.5228,-222.2954 181.7535,-227.4957 182.9818,-220.6043"/>
</g>
<!-- Node11 -->
<g id="node12" class="node">
<title>Node11</title>
<g id="a_node12"><a xlink:href="_meeting_types_8hxx.html" target="_top" xlink:title=" ">
<polygon fill="none" stroke="#000000" points="815.8154,-130.5 815.8154,-158.5 919.6377,-158.5 919.6377,-130.5 815.8154,-130.5"/>
<text text-anchor="start" x="823.8154" y="-146.5" font-family="Helvetica,sans-Serif" font-size="10.00" fill="#000000">MeetingClient/types</text>
<text text-anchor="middle" x="867.7266" y="-136.5" font-family="Helvetica,sans-Serif" font-size="10.00" fill="#000000">/MeetingTypes.hxx</text>
</a>
</g>
</g>
<!-- Node5&#45;&gt;Node11 -->
<g id="edge14" class="edge">
<title>Node5&#45;&gt;Node11</title>
<path fill="none" stroke="#191970" d="M548.1185,-260.4401C565.2653,-250.6984 588.2384,-237.1609 607.7266,-224 625.3329,-212.1099 626.4848,-204.0063 645.7266,-195 696.6477,-171.1659 759.5196,-158.227 805.341,-151.4342"/>
<polygon fill="#191970" stroke="#191970" points="806.026,-154.872 815.4323,-149.9964 805.0386,-147.942 806.026,-154.872"/>
</g>
<!-- Node17 -->
<g id="node18" class="node">
<title>Node17</title>
<g id="a_node18"><a xlink:href="_conference_attribute_definitions_8hxx.html" target="_top" xlink:title=" ">
<polygon fill="none" stroke="#000000" points="190.9165,-195.5 190.9165,-223.5 322.5366,-223.5 322.5366,-195.5 190.9165,-195.5"/>
<text text-anchor="start" x="198.9165" y="-211.5" font-family="Helvetica,sans-Serif" font-size="10.00" fill="#000000">MeetingClient/Conference</text>
<text text-anchor="middle" x="256.7266" y="-201.5" font-family="Helvetica,sans-Serif" font-size="10.00" fill="#000000">AttributeDefinitions.hxx</text>
</a>
</g>
</g>
<!-- Node5&#45;&gt;Node17 -->
<g id="edge20" class="edge">
<title>Node5&#45;&gt;Node17</title>
<path fill="none" stroke="#191970" d="M465.336,-260.476C423.9623,-250.3659 367.9709,-236.6838 324.4126,-226.0398"/>
<polygon fill="#191970" stroke="#191970" points="325.0178,-222.5848 314.4728,-223.6109 323.3561,-229.3847 325.0178,-222.5848"/>
</g>
<!-- Node18 -->
<g id="node19" class="node">
<title>Node18</title>
<g id="a_node19"><a xlink:href="_meeting_session_parameters_8hxx.html" target="_top" xlink:title=" ">
<polygon fill="none" stroke="#000000" points="447.1899,-195.5 447.1899,-223.5 598.2632,-223.5 598.2632,-195.5 447.1899,-195.5"/>
<text text-anchor="start" x="455.1899" y="-211.5" font-family="Helvetica,sans-Serif" font-size="10.00" fill="#000000">MeetingClient/MeetingSession</text>
<text text-anchor="middle" x="522.7266" y="-201.5" font-family="Helvetica,sans-Serif" font-size="10.00" fill="#000000">Parameters.hxx</text>
</a>
</g>
</g>
<!-- Node5&#45;&gt;Node18 -->
<g id="edge21" class="edge">
<title>Node5&#45;&gt;Node18</title>
<path fill="none" stroke="#191970" d="M522.7266,-260.396C522.7266,-252.6448 522.7266,-242.8122 522.7266,-233.8601"/>
<polygon fill="#191970" stroke="#191970" points="526.2267,-233.5765 522.7266,-223.5765 519.2267,-233.5765 526.2267,-233.5765"/>
</g>
<!-- Node12 -->
<g id="node13" class="node">
<title>Node12</title>
<g id="a_node13"><a xlink:href="_common_data_types_8hxx.html" target="_top" xlink:title=" ">
<polygon fill="none" stroke="#000000" points="1528.9805,-65.5 1528.9805,-93.5 1654.4727,-93.5 1654.4727,-65.5 1528.9805,-65.5"/>
<text text-anchor="start" x="1536.9805" y="-81.5" font-family="Helvetica,sans-Serif" font-size="10.00" fill="#000000">MeetingClient/types</text>
<text text-anchor="middle" x="1591.7266" y="-71.5" font-family="Helvetica,sans-Serif" font-size="10.00" fill="#000000">/CommonDataTypes.hxx</text>
</a>
</g>
</g>
<!-- Node11&#45;&gt;Node12 -->
<g id="edge15" class="edge">
<title>Node11&#45;&gt;Node12</title>
<path fill="none" stroke="#191970" d="M919.7949,-139.8254C1046.6854,-128.4333 1372.1771,-99.2109 1518.5232,-86.0721"/>
<polygon fill="#191970" stroke="#191970" points="1519.0984,-89.5347 1528.7453,-85.1544 1518.4724,-82.5627 1519.0984,-89.5347"/>
</g>
<!-- Node15 -->
<g id="node16" class="node">
<title>Node15</title>
<g id="a_node16"><a xlink:href="strong__identity_8hxx.html" target="_top" xlink:title=" ">
<polygon fill="none" stroke="#000000" points="817.0166,-65.5 817.0166,-93.5 918.4365,-93.5 918.4365,-65.5 817.0166,-65.5"/>
<text text-anchor="start" x="825.0166" y="-81.5" font-family="Helvetica,sans-Serif" font-size="10.00" fill="#000000">MeetingClient/utils</text>
<text text-anchor="middle" x="867.7266" y="-71.5" font-family="Helvetica,sans-Serif" font-size="10.00" fill="#000000">/strong_identity.hxx</text>
</a>
</g>
</g>
<!-- Node11&#45;&gt;Node15 -->
<g id="edge18" class="edge">
<title>Node11&#45;&gt;Node15</title>
<path fill="none" stroke="#191970" d="M867.7266,-130.396C867.7266,-122.6448 867.7266,-112.8122 867.7266,-103.8601"/>
<polygon fill="#191970" stroke="#191970" points="871.2267,-103.5765 867.7266,-93.5765 864.2267,-103.5765 871.2267,-103.5765"/>
</g>
<!-- Node13 -->
<g id="node14" class="node">
<title>Node13</title>
<g id="a_node14"><a xlink:title=" ">
<polygon fill="none" stroke="#bfbfbf" points="1481.5,-5.5 1481.5,-23.5 1521.9531,-23.5 1521.9531,-5.5 1481.5,-5.5"/>
<text text-anchor="middle" x="1501.7266" y="-11.5" font-family="Helvetica,sans-Serif" font-size="10.00" fill="#000000">string</text>
</a>
</g>
</g>
<!-- Node12&#45;&gt;Node13 -->
<g id="edge16" class="edge">
<title>Node12&#45;&gt;Node13</title>
<path fill="none" stroke="#191970" d="M1572.1979,-65.396C1557.5042,-54.7838 1537.4079,-40.2699 1522.4351,-29.4562"/>
<polygon fill="#191970" stroke="#191970" points="1524.447,-26.5919 1514.291,-23.5743 1520.3486,-32.2666 1524.447,-26.5919"/>
</g>
<!-- Node14 -->
<g id="node15" class="node">
<title>Node14</title>
<g id="a_node15"><a xlink:title=" ">
<polygon fill="none" stroke="#bfbfbf" points="1540.9312,-5.5 1540.9312,-23.5 1642.522,-23.5 1642.522,-5.5 1540.9312,-5.5"/>
<text text-anchor="middle" x="1591.7266" y="-11.5" font-family="Helvetica,sans-Serif" font-size="10.00" fill="#000000">CommonTypes.hxx</text>
</a>
</g>
</g>
<!-- Node12&#45;&gt;Node14 -->
<g id="edge17" class="edge">
<title>Node12&#45;&gt;Node14</title>
<path fill="none" stroke="#191970" d="M1591.7266,-65.396C1591.7266,-56.1723 1591.7266,-44.0011 1591.7266,-33.8738"/>
<polygon fill="#191970" stroke="#191970" points="1595.2267,-33.5743 1591.7266,-23.5743 1588.2267,-33.5743 1595.2267,-33.5743"/>
</g>
<!-- Node16 -->
<g id="node17" class="node">
<title>Node16</title>
<g id="a_node17"><a xlink:title=" ">
<polygon fill="none" stroke="#bfbfbf" points="815.5273,-.5 815.5273,-28.5 919.9258,-28.5 919.9258,-.5 815.5273,-.5"/>
<text text-anchor="start" x="823.5273" y="-16.5" font-family="Helvetica,sans-Serif" font-size="10.00" fill="#000000">boost/serialization</text>
<text text-anchor="middle" x="867.7266" y="-6.5" font-family="Helvetica,sans-Serif" font-size="10.00" fill="#000000">/strong_typedef.hpp</text>
</a>
</g>
</g>
<!-- Node15&#45;&gt;Node16 -->
<g id="edge19" class="edge">
<title>Node15&#45;&gt;Node16</title>
<path fill="none" stroke="#191970" d="M867.7266,-65.396C867.7266,-57.6448 867.7266,-47.8122 867.7266,-38.8601"/>
<polygon fill="#191970" stroke="#191970" points="871.2267,-38.5765 867.7266,-28.5765 864.2267,-38.5765 871.2267,-38.5765"/>
</g>
<!-- Node18&#45;&gt;Node11 -->
<g id="edge22" class="edge">
<title>Node18&#45;&gt;Node11</title>
<path fill="none" stroke="#191970" d="M597.1617,-195.476C659.4237,-183.7455 747.2089,-167.2062 805.7151,-156.1833"/>
<polygon fill="#191970" stroke="#191970" points="806.3855,-159.6187 815.5645,-154.3276 805.0894,-152.7397 806.3855,-159.6187"/>
</g>
<!-- Node19 -->
<g id="node20" class="node">
<title>Node19</title>
<g id="a_node20"><a xlink:title=" ">
<polygon fill="none" stroke="#bfbfbf" points="411.1626,-135.5 411.1626,-153.5 468.2905,-153.5 468.2905,-135.5 411.1626,-135.5"/>
<text text-anchor="middle" x="439.7266" y="-141.5" font-family="Helvetica,sans-Serif" font-size="10.00" fill="#000000">algorithm</text>
</a>
</g>
</g>
<!-- Node18&#45;&gt;Node19 -->
<g id="edge23" class="edge">
<title>Node18&#45;&gt;Node19</title>
<path fill="none" stroke="#191970" d="M504.7168,-195.396C491.2926,-184.883 472.9787,-170.5408 459.2128,-159.7603"/>
<polygon fill="#191970" stroke="#191970" points="461.3448,-156.9844 451.3138,-153.5743 457.0288,-162.4956 461.3448,-156.9844"/>
</g>
<!-- Node20 -->
<g id="node21" class="node">
<title>Node20</title>
<g id="a_node21"><a xlink:title=" ">
<polygon fill="none" stroke="#bfbfbf" points="485.8228,-135.5 485.8228,-153.5 559.6304,-153.5 559.6304,-135.5 485.8228,-135.5"/>
<text text-anchor="middle" x="522.7266" y="-141.5" font-family="Helvetica,sans-Serif" font-size="10.00" fill="#000000">Printable.hxx</text>
</a>
</g>
</g>
<!-- Node18&#45;&gt;Node20 -->
<g id="edge24" class="edge">
<title>Node18&#45;&gt;Node20</title>
<path fill="none" stroke="#191970" d="M522.7266,-195.396C522.7266,-186.1723 522.7266,-174.0011 522.7266,-163.8738"/>
<polygon fill="#191970" stroke="#191970" points="526.2267,-163.5743 522.7266,-153.5743 519.2267,-163.5743 526.2267,-163.5743"/>
</g>
<!-- Node21 -->
<g id="node22" class="node">
<title>Node21</title>
<g id="a_node22"><a xlink:title=" ">
<polygon fill="none" stroke="#bfbfbf" points="577.207,-135.5 577.207,-153.5 658.2461,-153.5 658.2461,-135.5 577.207,-135.5"/>
<text text-anchor="middle" x="617.7266" y="-141.5" font-family="Helvetica,sans-Serif" font-size="10.00" fill="#000000">VoIPClient.hxx</text>
</a>
</g>
</g>
<!-- Node18&#45;&gt;Node21 -->
<g id="edge25" class="edge">
<title>Node18&#45;&gt;Node21</title>
<path fill="none" stroke="#191970" d="M543.3401,-195.396C558.8502,-184.7838 580.0629,-170.2699 595.8675,-159.4562"/>
<polygon fill="#191970" stroke="#191970" points="598.1874,-162.1098 604.4641,-153.5743 594.2346,-156.3326 598.1874,-162.1098"/>
</g>
<!-- Node23 -->
<g id="node24" class="node">
<title>Node23</title>
<g id="a_node24"><a xlink:href="_meeting_attendee_readonly_8hxx.html" target="_top" xlink:title=" ">
<polygon fill="none" stroke="#000000" points="1078.9609,-260.5 1078.9609,-288.5 1234.4922,-288.5 1234.4922,-260.5 1078.9609,-260.5"/>
<text text-anchor="start" x="1086.9609" y="-276.5" font-family="Helvetica,sans-Serif" font-size="10.00" fill="#000000">MeetingClient/MeetingAttendee</text>
<text text-anchor="middle" x="1156.7266" y="-266.5" font-family="Helvetica,sans-Serif" font-size="10.00" fill="#000000">Readonly.hxx</text>
</a>
</g>
</g>
<!-- Node22&#45;&gt;Node23 -->
<g id="edge29" class="edge">
<title>Node22&#45;&gt;Node23</title>
<path fill="none" stroke="#191970" d="M1039.4742,-330.3345C1062.0889,-319.5655 1093.3921,-304.6593 1117.9664,-292.9572"/>
<polygon fill="#191970" stroke="#191970" points="1119.4993,-296.1039 1127.0232,-288.6445 1116.4898,-289.7839 1119.4993,-296.1039"/>
</g>
<!-- Node23&#45;&gt;Node2 -->
<g id="edge35" class="edge">
<title>Node23&#45;&gt;Node2</title>
<path fill="none" stroke="#191970" d="M1078.8964,-268.5968C1013.3932,-262.1182 917.8533,-249.1038 837.7266,-224 836.312,-223.5568 834.8801,-223.0571 833.4484,-222.5165"/>
<polygon fill="#191970" stroke="#191970" points="834.7595,-219.2704 824.1909,-218.5245 831.9876,-225.6982 834.7595,-219.2704"/>
</g>
<!-- Node23&#45;&gt;Node9 -->
<g id="edge37" class="edge">
<title>Node23&#45;&gt;Node9</title>
<path fill="none" stroke="#191970" d="M1104.0826,-260.476C1059.9487,-248.719 997.6821,-232.1316 956.3042,-221.1088"/>
<polygon fill="#191970" stroke="#191970" points="957.081,-217.6937 946.517,-218.5016 955.2791,-224.4578 957.081,-217.6937"/>
</g>
<!-- Node23&#45;&gt;Node11 -->
<g id="edge36" class="edge">
<title>Node23&#45;&gt;Node11</title>
<path fill="none" stroke="#191970" d="M1111.0401,-260.4638C1085.1956,-251.6558 1052.7443,-239.1092 1025.7266,-224 1007.184,-213.6303 1006.1094,-205.6503 987.7266,-195 965.6641,-182.218 939.7446,-170.895 917.6511,-162.2272"/>
<polygon fill="#191970" stroke="#191970" points="918.7089,-158.884 908.1191,-158.5574 916.1938,-165.4166 918.7089,-158.884"/>
</g>
<!-- Node23&#45;&gt;Node13 -->
<g id="edge34" class="edge">
<title>Node23&#45;&gt;Node13</title>
<path fill="none" stroke="#191970" d="M1234.8842,-267.3696C1325.598,-258.3275 1464.9821,-241.7623 1481.7266,-224 1531.5447,-171.1536 1516.0566,-74.0666 1506.6431,-33.3027"/>
<polygon fill="#191970" stroke="#191970" points="1510.0421,-32.4676 1504.2621,-23.5883 1503.2434,-34.1341 1510.0421,-32.4676"/>
</g>
<!-- Node24 -->
<g id="node25" class="node">
<title>Node24</title>
<g id="a_node25"><a xlink:title=" ">
<polygon fill="none" stroke="#bfbfbf" points="1362.7441,-200.5 1362.7441,-218.5 1472.709,-218.5 1472.709,-200.5 1362.7441,-200.5"/>
<text text-anchor="middle" x="1417.7266" y="-206.5" font-family="Helvetica,sans-Serif" font-size="10.00" fill="#000000">boost/shared_ptr.hpp</text>
</a>
</g>
</g>
<!-- Node23&#45;&gt;Node24 -->
<g id="edge30" class="edge">
<title>Node23&#45;&gt;Node24</title>
<path fill="none" stroke="#191970" d="M1213.0383,-260.476C1260.4468,-248.6693 1327.4156,-231.9912 1371.673,-220.9693"/>
<polygon fill="#191970" stroke="#191970" points="1372.7241,-224.3145 1381.5818,-218.5016 1371.0324,-217.522 1372.7241,-224.3145"/>
</g>
<!-- Node25 -->
<g id="node26" class="node">
<title>Node25</title>
<g id="a_node26"><a xlink:title=" ">
<polygon fill="none" stroke="#bfbfbf" points="1034.4165,-200.5 1034.4165,-218.5 1151.0366,-218.5 1151.0366,-200.5 1034.4165,-200.5"/>
<text text-anchor="middle" x="1092.7266" y="-206.5" font-family="Helvetica,sans-Serif" font-size="10.00" fill="#000000">boost/thread/locks.hpp</text>
</a>
</g>
</g>
<!-- Node23&#45;&gt;Node25 -->
<g id="edge31" class="edge">
<title>Node23&#45;&gt;Node25</title>
<path fill="none" stroke="#191970" d="M1142.8395,-260.396C1132.8789,-250.2797 1119.4272,-236.6178 1108.9684,-225.9956"/>
<polygon fill="#191970" stroke="#191970" points="1111.1713,-223.2444 1101.6613,-218.5743 1106.1833,-228.1556 1111.1713,-223.2444"/>
</g>
<!-- Node26 -->
<g id="node27" class="node">
<title>Node26</title>
<g id="a_node27"><a xlink:title=" ">
<polygon fill="none" stroke="#bfbfbf" points="1169.2515,-195.5 1169.2515,-223.5 1274.2017,-223.5 1274.2017,-195.5 1169.2515,-195.5"/>
<text text-anchor="start" x="1177.2515" y="-211.5" font-family="Helvetica,sans-Serif" font-size="10.00" fill="#000000">boost/thread/shared</text>
<text text-anchor="middle" x="1221.7266" y="-201.5" font-family="Helvetica,sans-Serif" font-size="10.00" fill="#000000">_mutex.hpp</text>
</a>
</g>
</g>
<!-- Node23&#45;&gt;Node26 -->
<g id="edge32" class="edge">
<title>Node23&#45;&gt;Node26</title>
<path fill="none" stroke="#191970" d="M1170.8306,-260.396C1179.5187,-251.7079 1190.8219,-240.4046 1200.5689,-230.6576"/>
<polygon fill="#191970" stroke="#191970" points="1203.0538,-233.1225 1207.6501,-223.5765 1198.1041,-228.1727 1203.0538,-233.1225"/>
</g>
<!-- Node27 -->
<g id="node28" class="node">
<title>Node27</title>
<g id="a_node28"><a xlink:title=" ">
<polygon fill="none" stroke="#bfbfbf" points="1292.665,-200.5 1292.665,-218.5 1344.7881,-218.5 1344.7881,-200.5 1292.665,-200.5"/>
<text text-anchor="middle" x="1318.7266" y="-206.5" font-family="Helvetica,sans-Serif" font-size="10.00" fill="#000000">ostream</text>
</a>
</g>
</g>
<!-- Node23&#45;&gt;Node27 -->
<g id="edge33" class="edge">
<title>Node23&#45;&gt;Node27</title>
<path fill="none" stroke="#191970" d="M1191.7653,-260.4753C1217.0503,-250.3501 1252.0027,-236.3444 1282.7266,-224 1284.0942,-223.4505 1285.491,-222.889 1286.9019,-222.3217"/>
<polygon fill="#191970" stroke="#191970" points="1288.2901,-225.5359 1296.2605,-218.5557 1285.6768,-219.042 1288.2901,-225.5359"/>
</g>
<!-- Node28&#45;&gt;Node3 -->
<g id="edge41" class="edge">
<title>Node28&#45;&gt;Node3</title>
<path fill="none" stroke="#191970" d="M1045.8796,-472.7952C956.9283,-464.0947 799.7346,-447.7851 665.7266,-429 664.4614,-428.8226 663.1862,-428.6412 661.903,-428.4562"/>
<polygon fill="#191970" stroke="#191970" points="662.3488,-424.9841 651.9427,-426.9749 661.319,-431.908 662.3488,-424.9841"/>
</g>
<!-- Node28&#45;&gt;Node6 -->
<g id="edge40" class="edge">
<title>Node28&#45;&gt;Node6</title>
<path fill="none" stroke="#191970" d="M1045.8444,-477.2834C960.0405,-473.1785 822.2295,-461.5738 783.7266,-429 724.6091,-378.9862 713.7097,-279.5533 711.9232,-233.6972"/>
<polygon fill="#191970" stroke="#191970" points="715.4166,-233.4056 711.6452,-223.5048 708.4192,-233.5965 715.4166,-233.4056"/>
</g>
<!-- Node28&#45;&gt;Node9 -->
<g id="edge54" class="edge">
<title>Node28&#45;&gt;Node9</title>
<path fill="none" stroke="#191970" d="M1064.9405,-465.4974C1017.7813,-449.6032 951.2856,-418.5125 922.7266,-364 899.7203,-320.0865 904.6736,-259.2538 909.2406,-228.6749"/>
<polygon fill="#191970" stroke="#191970" points="912.739,-228.9712 910.913,-218.5349 905.8323,-227.832 912.739,-228.9712"/>
</g>
<!-- Node28&#45;&gt;Node12 -->
<g id="edge55" class="edge">
<title>Node28&#45;&gt;Node12</title>
<path fill="none" stroke="#191970" d="M1187.5383,-477.5369C1384.5601,-471.7722 1926.6541,-453.7304 1955.7266,-429 1985.0467,-404.0589 1974.7266,-382.9932 1974.7266,-344.5 1974.7266,-344.5 1974.7266,-344.5 1974.7266,-209.5 1974.7266,-144.7263 1775.8119,-105.7963 1664.6846,-89.1015"/>
<polygon fill="#191970" stroke="#191970" points="1664.9466,-85.6022 1654.5423,-87.6028 1663.9233,-92.527 1664.9466,-85.6022"/>
</g>
<!-- Node28&#45;&gt;Node18 -->
<g id="edge50" class="edge">
<title>Node28&#45;&gt;Node18</title>
<path fill="none" stroke="#191970" d="M1045.956,-475.2143C955.1127,-468.7673 803.2956,-454.5226 753.7266,-429 661.7671,-381.6509 671.7947,-327.8516 593.7266,-260 581.2037,-249.1159 566.3776,-238.2878 553.5211,-229.4658"/>
<polygon fill="#191970" stroke="#191970" points="555.2336,-226.399 544.9875,-223.7028 551.3159,-232.2 555.2336,-226.399"/>
</g>
<!-- Node28&#45;&gt;Node22 -->
<g id="edge49" class="edge">
<title>Node28&#45;&gt;Node22</title>
<path fill="none" stroke="#191970" d="M1068.8859,-465.407C1050.6381,-457.6053 1031.4309,-445.9515 1019.7266,-429 1007.6449,-411.502 1005.9881,-386.9666 1006.8526,-368.8397"/>
<polygon fill="#191970" stroke="#191970" points="1010.351,-368.9922 1007.6193,-358.7556 1003.3711,-368.4614 1010.351,-368.9922"/>
</g>
<!-- Node29 -->
<g id="node30" class="node">
<title>Node29</title>
<g id="a_node30"><a xlink:href="_delegates_configuration_8hxx.html" target="_top" xlink:title=" ">
<polygon fill="none" stroke="#000000" points="792.9116,-400.5 792.9116,-428.5 934.5415,-428.5 934.5415,-400.5 792.9116,-400.5"/>
<text text-anchor="start" x="800.9116" y="-416.5" font-family="Helvetica,sans-Serif" font-size="10.00" fill="#000000">MeetingClient/Delegates</text>
<text text-anchor="middle" x="863.7266" y="-406.5" font-family="Helvetica,sans-Serif" font-size="10.00" fill="#000000">/DelegatesConfiguration.hxx</text>
</a>
</g>
</g>
<!-- Node28&#45;&gt;Node29 -->
<g id="edge42" class="edge">
<title>Node28&#45;&gt;Node29</title>
<path fill="none" stroke="#191970" d="M1062.1408,-465.476C1022.8719,-455.3871 969.7583,-441.7413 928.3664,-431.1071"/>
<polygon fill="#191970" stroke="#191970" points="929.207,-427.7094 918.6506,-428.6109 927.4651,-434.4893 929.207,-427.7094"/>
</g>
<!-- Node30 -->
<g id="node31" class="node">
<title>Node30</title>
<g id="a_node31"><a xlink:href="_i_meeting_attendee_8hxx.html" target="_top" xlink:title=" ">
<polygon fill="none" stroke="#000000" points="1028.4019,-405.5 1028.4019,-423.5 1205.0513,-423.5 1205.0513,-405.5 1028.4019,-405.5"/>
<text text-anchor="middle" x="1116.7266" y="-411.5" font-family="Helvetica,sans-Serif" font-size="10.00" fill="#000000">MeetingClient/IMeetingAttendee.hxx</text>
</a>
</g>
</g>
<!-- Node28&#45;&gt;Node30 -->
<g id="edge43" class="edge">
<title>Node28&#45;&gt;Node30</title>
<path fill="none" stroke="#191970" d="M1116.7266,-465.396C1116.7266,-456.1723 1116.7266,-444.0011 1116.7266,-433.8738"/>
<polygon fill="#191970" stroke="#191970" points="1120.2267,-433.5743 1116.7266,-423.5743 1113.2267,-433.5743 1120.2267,-433.5743"/>
</g>
<!-- Node33 -->
<g id="node34" class="node">
<title>Node33</title>
<g id="a_node34"><a xlink:href="_i_o_service_provider_8hxx.html" target="_top" xlink:title=" ">
<polygon fill="none" stroke="#000000" points="1622.3008,-405.5 1622.3008,-423.5 1801.1523,-423.5 1801.1523,-405.5 1622.3008,-405.5"/>
<text text-anchor="middle" x="1711.7266" y="-411.5" font-family="Helvetica,sans-Serif" font-size="10.00" fill="#000000">MeetingClient/IOServiceProvider.hxx</text>
</a>
</g>
</g>
<!-- Node28&#45;&gt;Node33 -->
<g id="edge47" class="edge">
<title>Node28&#45;&gt;Node33</title>
<path fill="none" stroke="#191970" d="M1187.4747,-473.2829C1283.8017,-464.593 1461.5468,-447.7582 1612.7266,-429 1622.5526,-427.7808 1632.911,-426.3857 1643.0775,-424.9534"/>
<polygon fill="#191970" stroke="#191970" points="1643.7489,-428.3931 1653.1533,-423.5139 1642.7588,-421.4635 1643.7489,-428.3931"/>
</g>
<!-- Node35 -->
<g id="node36" class="node">
<title>Node35</title>
<g id="a_node36"><a xlink:href="_module_version_8hxx.html" target="_top" xlink:title=" ">
<polygon fill="none" stroke="#000000" points="1223.5176,-405.5 1223.5176,-423.5 1387.9355,-423.5 1387.9355,-405.5 1223.5176,-405.5"/>
<text text-anchor="middle" x="1305.7266" y="-411.5" font-family="Helvetica,sans-Serif" font-size="10.00" fill="#000000">MeetingClient/ModuleVersion.hxx</text>
</a>
</g>
</g>
<!-- Node28&#45;&gt;Node35 -->
<g id="edge51" class="edge">
<title>Node28&#45;&gt;Node35</title>
<path fill="none" stroke="#191970" d="M1157.7367,-465.396C1191.0448,-453.9408 1237.5723,-437.9393 1269.5172,-426.953"/>
<polygon fill="#191970" stroke="#191970" points="1271.0232,-430.1363 1279.3413,-423.5743 1268.7466,-423.5168 1271.0232,-430.1363"/>
</g>
<!-- Node37 -->
<g id="node38" class="node">
<title>Node37</title>
<g id="a_node38"><a xlink:href="_group_state_8hxx.html" target="_top" xlink:title=" ">
<polygon fill="none" stroke="#000000" points="1726.8154,-260.5 1726.8154,-288.5 1830.6377,-288.5 1830.6377,-260.5 1726.8154,-260.5"/>
<text text-anchor="start" x="1734.8154" y="-276.5" font-family="Helvetica,sans-Serif" font-size="10.00" fill="#000000">MeetingClient/types</text>
<text text-anchor="middle" x="1778.7266" y="-266.5" font-family="Helvetica,sans-Serif" font-size="10.00" fill="#000000">/GroupState.hxx</text>
</a>
</g>
</g>
<!-- Node28&#45;&gt;Node37 -->
<g id="edge56" class="edge">
<title>Node28&#45;&gt;Node37</title>
<path fill="none" stroke="#191970" d="M1187.3463,-476.9207C1359.582,-470.2887 1788.7421,-451.5693 1809.7266,-429 1843.4412,-392.7392 1813.9913,-330.5288 1793.837,-297.1835"/>
<polygon fill="#191970" stroke="#191970" points="1796.7308,-295.2098 1788.4592,-288.5893 1790.7968,-298.9231 1796.7308,-295.2098"/>
</g>
<!-- Node38 -->
<g id="node39" class="node">
<title>Node38</title>
<g id="a_node39"><a xlink:href="enum2int_8hxx.html" target="_top" xlink:title=" ">
<polygon fill="none" stroke="#000000" points="1405.8745,-400.5 1405.8745,-428.5 1503.5786,-428.5 1503.5786,-400.5 1405.8745,-400.5"/>
<text text-anchor="start" x="1413.8745" y="-416.5" font-family="Helvetica,sans-Serif" font-size="10.00" fill="#000000">MeetingClient/utils</text>
<text text-anchor="middle" x="1454.7266" y="-406.5" font-family="Helvetica,sans-Serif" font-size="10.00" fill="#000000">/enum2int.hxx</text>
</a>
</g>
</g>
<!-- Node28&#45;&gt;Node38 -->
<g id="edge58" class="edge">
<title>Node28&#45;&gt;Node38</title>
<path fill="none" stroke="#191970" d="M1187.4642,-468.0806C1241.9004,-458.9844 1319.2029,-445.402 1395.8969,-429.0987"/>
<polygon fill="#191970" stroke="#191970" points="1396.6872,-432.5089 1405.7323,-426.992 1395.221,-425.6641 1396.6872,-432.5089"/>
</g>
<!-- Node39 -->
<g id="node40" class="node">
<title>Node39</title>
<g id="a_node40"><a xlink:title=" ">
<polygon fill="none" stroke="#bfbfbf" points="1521.6479,-405.5 1521.6479,-423.5 1603.8052,-423.5 1603.8052,-405.5 1521.6479,-405.5"/>
<text text-anchor="middle" x="1562.7266" y="-411.5" font-family="Helvetica,sans-Serif" font-size="10.00" fill="#000000">VoE/Types.hxx</text>
</a>
</g>
</g>
<!-- Node28&#45;&gt;Node39 -->
<g id="edge59" class="edge">
<title>Node28&#45;&gt;Node39</title>
<path fill="none" stroke="#191970" d="M1187.3754,-473.8289C1267.0124,-466.6654 1400.0758,-452.3694 1512.7266,-429 1516.5983,-428.1968 1520.6071,-427.2446 1524.5929,-426.2179"/>
<polygon fill="#191970" stroke="#191970" points="1525.635,-429.5616 1534.3622,-423.5544 1523.7937,-422.8081 1525.635,-429.5616"/>
</g>
<!-- Node40 -->
<g id="node41" class="node">
<title>Node40</title>
<g id="a_node41"><a xlink:title=" ">
<polygon fill="none" stroke="#bfbfbf" points="1856.2876,-405.5 1856.2876,-423.5 1947.1655,-423.5 1947.1655,-405.5 1856.2876,-405.5"/>
<text text-anchor="middle" x="1901.7266" y="-411.5" font-family="Helvetica,sans-Serif" font-size="10.00" fill="#000000">VideoEngine.hxx</text>
</a>
</g>
</g>
<!-- Node28&#45;&gt;Node40 -->
<g id="edge60" class="edge">
<title>Node28&#45;&gt;Node40</title>
<path fill="none" stroke="#191970" d="M1187.2593,-478.6017C1317.5217,-476.0561 1604.3064,-466.3069 1842.7266,-429 1848.1325,-428.1541 1853.7702,-427.0556 1859.3237,-425.8417"/>
<polygon fill="#191970" stroke="#191970" points="1860.2096,-429.2292 1869.161,-423.5615 1858.6289,-422.41 1860.2096,-429.2292"/>
</g>
<!-- Node31 -->
<g id="node32" class="node">
<title>Node31</title>
<g id="a_node32"><a xlink:title=" ">
<polygon fill="none" stroke="#bfbfbf" points="1105.3599,-335.5 1105.3599,-353.5 1208.0933,-353.5 1208.0933,-335.5 1105.3599,-335.5"/>
<text text-anchor="middle" x="1156.7266" y="-341.5" font-family="Helvetica,sans-Serif" font-size="10.00" fill="#000000">boost/weak_ptr.hpp</text>
</a>
</g>
</g>
<!-- Node30&#45;&gt;Node31 -->
<g id="edge44" class="edge">
<title>Node30&#45;&gt;Node31</title>
<path fill="none" stroke="#191970" d="M1121.9559,-405.3487C1128.0905,-394.6131 1138.4142,-376.5466 1146.2228,-362.8816"/>
<polygon fill="#191970" stroke="#191970" points="1149.4457,-364.2959 1151.3683,-353.8769 1143.368,-360.8229 1149.4457,-364.2959"/>
</g>
<!-- Node32 -->
<g id="node33" class="node">
<title>Node32</title>
<g id="a_node33"><a xlink:href="_meeting_attendee_a_p_i_8hxx.html" target="_top" xlink:title=" ">
<polygon fill="none" stroke="#000000" points="1225.9609,-330.5 1225.9609,-358.5 1381.4922,-358.5 1381.4922,-330.5 1225.9609,-330.5"/>
<text text-anchor="start" x="1233.9609" y="-346.5" font-family="Helvetica,sans-Serif" font-size="10.00" fill="#000000">MeetingClient/MeetingAttendee</text>
<text text-anchor="middle" x="1303.7266" y="-336.5" font-family="Helvetica,sans-Serif" font-size="10.00" fill="#000000">API.hxx</text>
</a>
</g>
</g>
<!-- Node30&#45;&gt;Node32 -->
<g id="edge45" class="edge">
<title>Node30&#45;&gt;Node32</title>
<path fill="none" stroke="#191970" d="M1140.7907,-405.492C1169.9485,-394.5774 1219.7453,-375.9368 1256.6325,-362.1288"/>
<polygon fill="#191970" stroke="#191970" points="1258.0499,-365.3355 1266.1882,-358.5518 1255.5959,-358.7797 1258.0499,-365.3355"/>
</g>
<!-- Node32&#45;&gt;Node23 -->
<g id="edge46" class="edge">
<title>Node32&#45;&gt;Node23</title>
<path fill="none" stroke="#191970" d="M1273.9789,-330.3345C1251.3642,-319.5655 1220.061,-304.6593 1195.4867,-292.9572"/>
<polygon fill="#191970" stroke="#191970" points="1196.9634,-289.7839 1186.43,-288.6445 1193.9538,-296.1039 1196.9634,-289.7839"/>
</g>
<!-- Node34 -->
<g id="node35" class="node">
<title>Node34</title>
<g id="a_node35"><a xlink:title=" ">
<polygon fill="none" stroke="#bfbfbf" points="1647.3032,-335.5 1647.3032,-353.5 1776.1499,-353.5 1776.1499,-335.5 1647.3032,-335.5"/>
<text text-anchor="middle" x="1711.7266" y="-341.5" font-family="Helvetica,sans-Serif" font-size="10.00" fill="#000000">boost/asio/io_service.hpp</text>
</a>
</g>
</g>
<!-- Node33&#45;&gt;Node34 -->
<g id="edge48" class="edge">
<title>Node33&#45;&gt;Node34</title>
<path fill="none" stroke="#191970" d="M1711.7266,-405.3487C1711.7266,-394.9258 1711.7266,-377.5928 1711.7266,-364.0865"/>
<polygon fill="#191970" stroke="#191970" points="1715.2267,-363.8769 1711.7266,-353.8769 1708.2267,-363.877 1715.2267,-363.8769"/>
</g>
<!-- Node35&#45;&gt;Node12 -->
<g id="edge52" class="edge">
<title>Node35&#45;&gt;Node12</title>
<path fill="none" stroke="#191970" d="M1354.8118,-405.4961C1403.9042,-395.8195 1475.3753,-379.7045 1498.7266,-364 1539.9582,-336.2702 1565.7266,-324.1889 1565.7266,-274.5 1565.7266,-274.5 1565.7266,-274.5 1565.7266,-209.5 1565.7266,-171.8736 1576.329,-129.2901 1583.9928,-103.424"/>
<polygon fill="#191970" stroke="#191970" points="1587.3764,-104.328 1586.9578,-93.7414 1580.6831,-102.2784 1587.3764,-104.328"/>
</g>
<!-- Node36 -->
<g id="node37" class="node">
<title>Node36</title>
<g id="a_node37"><a xlink:title=" ">
<polygon fill="none" stroke="#bfbfbf" points="1399.7661,-335.5 1399.7661,-353.5 1489.687,-353.5 1489.687,-335.5 1399.7661,-335.5"/>
<text text-anchor="middle" x="1444.7266" y="-341.5" font-family="Helvetica,sans-Serif" font-size="10.00" fill="#000000">Utils/Version.hxx</text>
</a>
</g>
</g>
<!-- Node35&#45;&gt;Node36 -->
<g id="edge53" class="edge">
<title>Node35&#45;&gt;Node36</title>
<path fill="none" stroke="#191970" d="M1323.6138,-405.492C1347.3575,-393.5348 1389.5133,-372.3053 1417.2936,-358.3152"/>
<polygon fill="#191970" stroke="#191970" points="1419.1094,-361.3195 1426.4666,-353.6957 1415.9609,-355.0676 1419.1094,-361.3195"/>
</g>
<!-- Node37&#45;&gt;Node12 -->
<g id="edge57" class="edge">
<title>Node37&#45;&gt;Node12</title>
<path fill="none" stroke="#191970" d="M1765.278,-260.4761C1733.01,-226.8277 1651.0183,-141.3283 1612.4184,-101.077"/>
<polygon fill="#191970" stroke="#191970" points="1614.7522,-98.4539 1605.3045,-93.6589 1609.6999,-103.299 1614.7522,-98.4539"/>
</g>
</g>
</svg>
        <g id="navigator" transform="translate(0 0)" fill="#404254">
                <rect fill="#f2f5e9" fill-opacity="0.5" stroke="#606060" stroke-width=".5" x="0" y="0" width="60" height="60"/>
                <use id="zoomplus" xlink:href="#zoomPlus" x="17" y="9" onmousedown="handleZoom(evt,'in')"/>
                <use id="zoomminus" xlink:href="#zoomMin" x="42" y="9" onmousedown="handleZoom(evt,'out')"/>
                <use id="reset" xlink:href="#resetDef" x="30" y="36" onmousedown="handleReset()"/>
                <g id="arrowUp" xlink:href="#dirArrow" transform="translate(30 24)" onmousedown="handlePan(0,-1)">
                  <use xlink:href="#rim" fill="#404040">
                        <set attributeName="fill" to="#808080" begin="arrowUp.mouseover" end="arrowUp.mouseout"/>
                  </use>
                  <path fill="none" stroke="white" stroke-width="1.5" d="M0,-3.0v7 M-2.5,-0.5L0,-3.0L2.5,-0.5"/>
                </g>
                <g id="arrowRight" xlink:href="#dirArrow" transform="rotate(90) translate(36 -43)" onmousedown="handlePan(1,0)">
                  <use xlink:href="#rim" fill="#404040">
                        <set attributeName="fill" to="#808080" begin="arrowRight.mouseover" end="arrowRight.mouseout"/>
                  </use>
                  <path fill="none" stroke="white" stroke-width="1.5" d="M0,-3.0v7 M-2.5,-0.5L0,-3.0L2.5,-0.5"/>
                </g>
                <g id="arrowDown" xlink:href="#dirArrow" transform="rotate(180) translate(-30 -48)" onmousedown="handlePan(0,1)">
                  <use xlink:href="#rim" fill="#404040">
                        <set attributeName="fill" to="#808080" begin="arrowDown.mouseover" end="arrowDown.mouseout"/>
                  </use>
                  <path fill="none" stroke="white" stroke-width="1.5" d="M0,-3.0v7 M-2.5,-0.5L0,-3.0L2.5,-0.5"/>
                </g>
                <g id="arrowLeft" xlink:href="#dirArrow" transform="rotate(270) translate(-36 17)" onmousedown="handlePan(-1,0)">
                  <use xlink:href="#rim" fill="#404040">
                        <set attributeName="fill" to="#808080" begin="arrowLeft.mouseover" end="arrowLeft.mouseout"/>
                  </use>
                  <path fill="none" stroke="white" stroke-width="1.5" d="M0,-3.0v7 M-2.5,-0.5L0,-3.0L2.5,-0.5"/>
                </g>
        </g>
        <svg viewBox="0 0 15 15" width="100%" height="30px" preserveAspectRatio="xMaxYMin meet">
         <g id="arrow_out" transform="scale(0.3 0.3)">
          <a xlink:href="_active_speaker_manager_impl_8hxx__incl_org.svg" target="_base">
           <rect id="button" ry="5" rx="5" y="6" x="6" height="38" width="38"
                fill="#f2f5e9" fill-opacity="0.5" stroke="#606060" stroke-width="1.0"/>
           <path id="arrow"
             d="M 11.500037,31.436501 C 11.940474,20.09759 22.043105,11.32322 32.158766,21.979434 L 37.068811,17.246167 C 37.068811,17.246167 37.088388,32 37.088388,32 L 22.160133,31.978069 C 22.160133,31.978069 26.997745,27.140456 26.997745,27.140456 C 18.528582,18.264221 13.291696,25.230495 11.500037,31.436501 z"
             style="fill:#404040;"/>
          </a>
         </g>
        </svg>
</svg>
