<?xml version="1.0" encoding="UTF-8" standalone="no"?>
<!DOCTYPE svg PUBLIC "-//W3C//DTD SVG 1.1//EN"
 "http://www.w3.org/Graphics/SVG/1.1/DTD/svg11.dtd">
<!-- Generated by graphviz version 2.40.1 (20161225.0304)
 -->
<!-- Title: /Users/oskryp/Projects/freesee&#45;native&#45;client/libs/fcc_sdk/engine/meetingclient/src/headers/MeetingClient/AttendeesManager.hxx Pages: 1 -->
<!--zoomable 502 -->
<svg id="main" version="1.1" xmlns="http://www.w3.org/2000/svg" xmlns:xlink="http://www.w3.org/1999/xlink" xml:space="preserve" onload="init(evt)">
<style type="text/css"><![CDATA[
.edge:hover path { stroke: red; }
.edge:hover polygon { stroke: red; fill: red; }
]]></style>
<script type="text/javascript"><![CDATA[
var edges = document.getElementsByTagName('g');
if (edges && edges.length) {
  for (var i=0;i<edges.length;i++) {
    if (edges[i].id.substr(0,4)=='edge') {
      edges[i].setAttribute('class','edge');
    }
  }
}
]]></script>
        <defs>
                <circle id="rim" cx="0" cy="0" r="7"/>
                <circle id="rim2" cx="0" cy="0" r="3.5"/>
                <g id="zoomPlus">
                        <use xlink:href="#rim" fill="#404040">
                                <set attributeName="fill" to="#808080" begin="zoomplus.mouseover" end="zoomplus.mouseout"/>
                        </use>
                        <path d="M-4,0h8M0,-4v8" fill="none" stroke="white" stroke-width="1.5" pointer-events="none"/>
                </g>
                <g id="zoomMin">
                        <use xlink:href="#rim" fill="#404040">
                                <set attributeName="fill" to="#808080" begin="zoomminus.mouseover" end="zoomminus.mouseout"/>
                        </use>
                        <path d="M-4,0h8" fill="none" stroke="white" stroke-width="1.5" pointer-events="none"/>
                </g>
                <g id="dirArrow">
                        <path fill="none" stroke="white" stroke-width="1.5" d="M0,-3.0v7 M-2.5,-0.5L0,-3.0L2.5,-0.5"/>
                </g>
               <g id="resetDef">
                       <use xlink:href="#rim2" fill="#404040">
                               <set attributeName="fill" to="#808080" begin="reset.mouseover" end="reset.mouseout"/>
                       </use>
               </g>
        </defs>

<script type="text/javascript">
var viewWidth = 1582;
var viewHeight = 502;
var sectionId = 'dynsection-0';
</script>
<script xlink:href="svgpan.js"/>
<svg id="graph" class="graph">
<g id="viewport">
<title>/Users/oskryp/Projects/freesee&#45;native&#45;client/libs/fcc_sdk/engine/meetingclient/src/headers/MeetingClient/AttendeesManager.hxx</title>
<!-- Node0 -->
<g id="node1" class="node">
<title>Node0</title>
<g id="a_node1"><a xlink:title=" ">
<polygon fill="#bfbfbf" stroke="#000000" points="345.9731,-445.5 345.9731,-493.5 585.9917,-493.5 585.9917,-445.5 345.9731,-445.5"/>
<text text-anchor="start" x="353.9731" y="-481.5" font-family="Helvetica,sans-Serif" font-size="10.00" fill="#000000">/Users/oskryp/Projects</text>
<text text-anchor="start" x="353.9731" y="-471.5" font-family="Helvetica,sans-Serif" font-size="10.00" fill="#000000">/freesee&#45;native&#45;client</text>
<text text-anchor="start" x="353.9731" y="-461.5" font-family="Helvetica,sans-Serif" font-size="10.00" fill="#000000">/libs/fcc_sdk/engine/meetingclient</text>
<text text-anchor="middle" x="465.9824" y="-451.5" font-family="Helvetica,sans-Serif" font-size="10.00" fill="#000000">/src/headers/MeetingClient/AttendeesManager.hxx</text>
</a>
</g>
</g>
<!-- Node1 -->
<g id="node2" class="node">
<title>Node1</title>
<g id="a_node2"><a xlink:title=" ">
<polygon fill="none" stroke="#bfbfbf" points="24.1182,-390.5 24.1182,-408.5 121.8467,-408.5 121.8467,-390.5 24.1182,-390.5"/>
<text text-anchor="middle" x="72.9824" y="-396.5" font-family="Helvetica,sans-Serif" font-size="10.00" fill="#000000">boost/function.hpp</text>
</a>
</g>
</g>
<!-- Node0&#45;&gt;Node1 -->
<g id="edge1" class="edge">
<title>Node0&#45;&gt;Node1</title>
<path fill="none" stroke="#191970" d="M345.934,-448.1173C275.0639,-435.4941 188.475,-420.0712 132.0931,-410.0286"/>
<polygon fill="#191970" stroke="#191970" points="132.3863,-406.5258 121.9275,-408.218 131.1588,-413.4174 132.3863,-406.5258"/>
</g>
<!-- Node2 -->
<g id="node3" class="node">
<title>Node2</title>
<g id="a_node3"><a xlink:title=" ">
<polygon fill="none" stroke="#bfbfbf" points="0,-135.5 0,-153.5 109.9648,-153.5 109.9648,-135.5 0,-135.5"/>
<text text-anchor="middle" x="54.9824" y="-141.5" font-family="Helvetica,sans-Serif" font-size="10.00" fill="#000000">boost/shared_ptr.hpp</text>
</a>
</g>
</g>
<!-- Node0&#45;&gt;Node2 -->
<g id="edge2" class="edge">
<title>Node0&#45;&gt;Node2</title>
<path fill="none" stroke="#191970" d="M345.8541,-456.2695C301.4987,-447.537 252.2697,-433.0455 211.9824,-409 176.4384,-387.7855 149.9824,-380.8936 149.9824,-339.5 149.9824,-339.5 149.9824,-339.5 149.9824,-274.5 149.9824,-224.8475 104.2471,-181.5124 76.2431,-159.6319"/>
<polygon fill="#191970" stroke="#191970" points="78.28,-156.7842 68.1918,-153.547 74.0594,-162.3687 78.28,-156.7842"/>
</g>
<!-- Node3 -->
<g id="node4" class="node">
<title>Node3</title>
<g id="a_node4"><a xlink:title=" ">
<polygon fill="none" stroke="#bfbfbf" points="127.6724,-135.5 127.6724,-153.5 244.2925,-153.5 244.2925,-135.5 127.6724,-135.5"/>
<text text-anchor="middle" x="185.9824" y="-141.5" font-family="Helvetica,sans-Serif" font-size="10.00" fill="#000000">boost/thread/locks.hpp</text>
</a>
</g>
</g>
<!-- Node0&#45;&gt;Node3 -->
<g id="edge3" class="edge">
<title>Node0&#45;&gt;Node3</title>
<path fill="none" stroke="#191970" d="M345.7477,-451.6241C310.6436,-442.6298 273.5379,-429.1561 242.9824,-409 210.1011,-387.3097 187.9824,-378.891 187.9824,-339.5 187.9824,-339.5 187.9824,-339.5 187.9824,-274.5 187.9824,-235.1557 187.0552,-189.1215 186.4635,-163.7471"/>
<polygon fill="#191970" stroke="#191970" points="189.9599,-163.5533 186.2197,-153.6407 182.9619,-163.7222 189.9599,-163.5533"/>
</g>
<!-- Node4 -->
<g id="node5" class="node">
<title>Node4</title>
<g id="a_node5"><a xlink:title=" ">
<polygon fill="none" stroke="#bfbfbf" points="262.5073,-130.5 262.5073,-158.5 367.4575,-158.5 367.4575,-130.5 262.5073,-130.5"/>
<text text-anchor="start" x="270.5073" y="-146.5" font-family="Helvetica,sans-Serif" font-size="10.00" fill="#000000">boost/thread/shared</text>
<text text-anchor="middle" x="314.9824" y="-136.5" font-family="Helvetica,sans-Serif" font-size="10.00" fill="#000000">_mutex.hpp</text>
</a>
</g>
</g>
<!-- Node0&#45;&gt;Node4 -->
<g id="edge4" class="edge">
<title>Node0&#45;&gt;Node4</title>
<path fill="none" stroke="#191970" d="M345.6309,-449.8894C285.7483,-432.5278 225.9824,-400.0364 225.9824,-339.5 225.9824,-339.5 225.9824,-339.5 225.9824,-274.5 225.9824,-229.6344 262.522,-188.8914 288.7759,-165.4078"/>
<polygon fill="#191970" stroke="#191970" points="291.2695,-167.8785 296.5416,-158.6885 286.6892,-162.585 291.2695,-167.8785"/>
</g>
<!-- Node5 -->
<g id="node6" class="node">
<title>Node5</title>
<g id="a_node6"><a xlink:title=" ">
<polygon fill="none" stroke="#bfbfbf" points="542.2559,-200.5 542.2559,-218.5 577.709,-218.5 577.709,-200.5 542.2559,-200.5"/>
<text text-anchor="middle" x="559.9824" y="-206.5" font-family="Helvetica,sans-Serif" font-size="10.00" fill="#000000">map</text>
</a>
</g>
</g>
<!-- Node0&#45;&gt;Node5 -->
<g id="edge5" class="edge">
<title>Node0&#45;&gt;Node5</title>
<path fill="none" stroke="#191970" d="M558.6534,-445.4946C579.1994,-436.7019 599.4531,-424.8584 614.9824,-409 633.2894,-390.3051 631.2371,-379.7318 635.9824,-354 643.5592,-312.915 655.7236,-296.8194 635.9824,-260 634.4774,-257.193 604.8636,-237.979 583.0554,-224.0824"/>
<polygon fill="#191970" stroke="#191970" points="584.8974,-221.1061 574.5799,-218.6981 581.1439,-227.0146 584.8974,-221.1061"/>
</g>
<!-- Node6 -->
<g id="node7" class="node">
<title>Node6</title>
<g id="a_node7"><a xlink:title=" ">
<polygon fill="none" stroke="#bfbfbf" points="385.9209,-135.5 385.9209,-153.5 438.0439,-153.5 438.0439,-135.5 385.9209,-135.5"/>
<text text-anchor="middle" x="411.9824" y="-141.5" font-family="Helvetica,sans-Serif" font-size="10.00" fill="#000000">ostream</text>
</a>
</g>
</g>
<!-- Node0&#45;&gt;Node6 -->
<g id="edge6" class="edge">
<title>Node0&#45;&gt;Node6</title>
<path fill="none" stroke="#191970" d="M367.3494,-445.4242C316.0729,-426.392 263.9824,-393.7155 263.9824,-339.5 263.9824,-339.5 263.9824,-339.5 263.9824,-274.5 263.9824,-238.1716 259.0819,-222.3591 282.9824,-195 312.1419,-161.6209 334.7586,-175.28 375.9824,-159 377.3533,-158.4586 378.7528,-157.9039 380.1659,-157.342"/>
<polygon fill="#191970" stroke="#191970" points="381.5469,-160.5593 389.5327,-153.5968 378.948,-154.0596 381.5469,-160.5593"/>
</g>
<!-- Node7 -->
<g id="node8" class="node">
<title>Node7</title>
<g id="a_node8"><a xlink:title=" ">
<polygon fill="none" stroke="#bfbfbf" points="494.3667,-135.5 494.3667,-153.5 537.5981,-153.5 537.5981,-135.5 494.3667,-135.5"/>
<text text-anchor="middle" x="515.9824" y="-141.5" font-family="Helvetica,sans-Serif" font-size="10.00" fill="#000000">vector</text>
</a>
</g>
</g>
<!-- Node0&#45;&gt;Node7 -->
<g id="edge7" class="edge">
<title>Node0&#45;&gt;Node7</title>
<path fill="none" stroke="#191970" d="M468.8818,-445.2367C473.6571,-406.1374 483.7715,-326.8113 494.9824,-260 500.6664,-226.1263 507.9676,-186.7969 512.2934,-163.8748"/>
<polygon fill="#191970" stroke="#191970" points="515.7857,-164.2441 514.209,-153.7672 508.9081,-162.9406 515.7857,-164.2441"/>
</g>
<!-- Node8 -->
<g id="node9" class="node">
<title>Node8</title>
<g id="a_node9"><a xlink:href="_bundled_attendee_8hxx.html" target="_top" xlink:title=" ">
<polygon fill="none" stroke="#000000" points="494.4458,-390.5 494.4458,-408.5 605.519,-408.5 605.519,-390.5 494.4458,-390.5"/>
<text text-anchor="middle" x="549.9824" y="-396.5" font-family="Helvetica,sans-Serif" font-size="10.00" fill="#000000">BundledAttendee.hxx</text>
</a>
</g>
</g>
<!-- Node0&#45;&gt;Node8 -->
<g id="edge8" class="edge">
<title>Node0&#45;&gt;Node8</title>
<path fill="none" stroke="#191970" d="M494.8905,-445.41C506.8735,-435.4241 520.4362,-424.1218 531.1062,-415.2301"/>
<polygon fill="#191970" stroke="#191970" points="533.5162,-417.7779 538.9577,-408.6872 529.0348,-412.4003 533.5162,-417.7779"/>
</g>
<!-- Node15 -->
<g id="node16" class="node">
<title>Node15</title>
<g id="a_node16"><a xlink:href="_common_data_types_8hxx.html" target="_top" xlink:title=" ">
<polygon fill="none" stroke="#000000" points="1311.2363,-65.5 1311.2363,-93.5 1436.7285,-93.5 1436.7285,-65.5 1311.2363,-65.5"/>
<text text-anchor="start" x="1319.2363" y="-81.5" font-family="Helvetica,sans-Serif" font-size="10.00" fill="#000000">MeetingClient/types</text>
<text text-anchor="middle" x="1373.9824" y="-71.5" font-family="Helvetica,sans-Serif" font-size="10.00" fill="#000000">/CommonDataTypes.hxx</text>
</a>
</g>
</g>
<!-- Node0&#45;&gt;Node15 -->
<g id="edge27" class="edge">
<title>Node0&#45;&gt;Node15</title>
<path fill="none" stroke="#191970" d="M586.1429,-466.0121C849.4466,-456.7674 1453.9824,-426.1112 1453.9824,-339.5 1453.9824,-339.5 1453.9824,-339.5 1453.9824,-209.5 1453.9824,-165.979 1421.0596,-124.7968 1397.4546,-100.863"/>
<polygon fill="#191970" stroke="#191970" points="1399.7609,-98.2225 1390.1716,-93.7173 1394.8584,-103.2191 1399.7609,-98.2225"/>
</g>
<!-- Node20 -->
<g id="node21" class="node">
<title>Node20</title>
<g id="a_node21"><a xlink:href="_i_attendee_notifications_delegate_8hxx.html" target="_top" xlink:title=" ">
<polygon fill="none" stroke="#000000" points="864.4385,-325.5 864.4385,-353.5 1025.5264,-353.5 1025.5264,-325.5 864.4385,-325.5"/>
<text text-anchor="start" x="872.4385" y="-341.5" font-family="Helvetica,sans-Serif" font-size="10.00" fill="#000000">Delegates/IAttendeeNotifications</text>
<text text-anchor="middle" x="944.9824" y="-331.5" font-family="Helvetica,sans-Serif" font-size="10.00" fill="#000000">Delegate.hxx</text>
</a>
</g>
</g>
<!-- Node0&#45;&gt;Node20 -->
<g id="edge28" class="edge">
<title>Node0&#45;&gt;Node20</title>
<path fill="none" stroke="#191970" d="M554.6762,-445.4286C650.3097,-419.4738 800.028,-378.8405 883.5011,-356.186"/>
<polygon fill="#191970" stroke="#191970" points="884.6101,-359.5117 893.3443,-353.5145 882.7766,-352.756 884.6101,-359.5117"/>
</g>
<!-- Node30 -->
<g id="node31" class="node">
<title>Node30</title>
<g id="a_node31"><a xlink:title=" ">
<polygon fill="none" stroke="#bfbfbf" points="1482.4556,-390.5 1482.4556,-408.5 1573.5093,-408.5 1573.5093,-390.5 1482.4556,-390.5"/>
<text text-anchor="middle" x="1527.9824" y="-396.5" font-family="Helvetica,sans-Serif" font-size="10.00" fill="#000000">AudioEngine.hxx</text>
</a>
</g>
</g>
<!-- Node0&#45;&gt;Node30 -->
<g id="edge44" class="edge">
<title>Node0&#45;&gt;Node30</title>
<path fill="none" stroke="#191970" d="M586.2193,-465.9977C774.6322,-459.6638 1150.7235,-443.6122 1467.9824,-409 1469.2798,-408.8585 1470.592,-408.7084 1471.9145,-408.551"/>
<polygon fill="#191970" stroke="#191970" points="1472.7147,-411.9766 1482.1813,-407.2191 1471.8141,-405.0348 1472.7147,-411.9766"/>
</g>
<!-- Node8&#45;&gt;Node7 -->
<g id="edge26" class="edge">
<title>Node8&#45;&gt;Node7</title>
<path fill="none" stroke="#191970" d="M572.4398,-390.476C587.4718,-383.1093 606.0766,-371.1051 614.9824,-354 634.2758,-316.944 637.8271,-294.9786 614.9824,-260 593.2182,-226.6756 558.1297,-254.8515 532.9824,-224 519.1569,-207.0384 515.8422,-181.4627 515.3781,-163.9277"/>
<polygon fill="#191970" stroke="#191970" points="518.8785,-163.7457 515.4029,-153.7372 511.8785,-163.7286 518.8785,-163.7457"/>
</g>
<!-- Node9 -->
<g id="node10" class="node">
<title>Node9</title>
<g id="a_node10"><a xlink:href="_i_meeting_attendee_8hxx.html" target="_top" xlink:title=" ">
<polygon fill="none" stroke="#000000" points="493.6182,-330.5 493.6182,-348.5 606.3467,-348.5 606.3467,-330.5 493.6182,-330.5"/>
<text text-anchor="middle" x="549.9824" y="-336.5" font-family="Helvetica,sans-Serif" font-size="10.00" fill="#000000">IMeetingAttendee.hxx</text>
</a>
</g>
</g>
<!-- Node8&#45;&gt;Node9 -->
<g id="edge9" class="edge">
<title>Node8&#45;&gt;Node9</title>
<path fill="none" stroke="#191970" d="M549.9824,-390.3873C549.9824,-382.0174 549.9824,-369.3414 549.9824,-358.735"/>
<polygon fill="#191970" stroke="#191970" points="553.4825,-358.6984 549.9824,-348.6985 546.4825,-358.6985 553.4825,-358.6984"/>
</g>
<!-- Node10 -->
<g id="node11" class="node">
<title>Node10</title>
<g id="a_node11"><a xlink:title=" ">
<polygon fill="none" stroke="#bfbfbf" points="503.6157,-265.5 503.6157,-283.5 606.3491,-283.5 606.3491,-265.5 503.6157,-265.5"/>
<text text-anchor="middle" x="554.9824" y="-271.5" font-family="Helvetica,sans-Serif" font-size="10.00" fill="#000000">boost/weak_ptr.hpp</text>
</a>
</g>
</g>
<!-- Node9&#45;&gt;Node10 -->
<g id="edge10" class="edge">
<title>Node9&#45;&gt;Node10</title>
<path fill="none" stroke="#191970" d="M550.6777,-330.462C551.4008,-321.061 552.5554,-306.0518 553.4868,-293.943"/>
<polygon fill="#191970" stroke="#191970" points="556.9834,-294.1212 554.2607,-283.8821 550.004,-293.5842 556.9834,-294.1212"/>
</g>
<!-- Node11 -->
<g id="node12" class="node">
<title>Node11</title>
<g id="a_node12"><a xlink:href="_meeting_attendee_a_p_i_8hxx.html" target="_top" xlink:title=" ">
<polygon fill="none" stroke="#000000" points="292.2168,-260.5 292.2168,-288.5 447.748,-288.5 447.748,-260.5 292.2168,-260.5"/>
<text text-anchor="start" x="300.2168" y="-276.5" font-family="Helvetica,sans-Serif" font-size="10.00" fill="#000000">MeetingClient/MeetingAttendee</text>
<text text-anchor="middle" x="369.9824" y="-266.5" font-family="Helvetica,sans-Serif" font-size="10.00" fill="#000000">API.hxx</text>
</a>
</g>
</g>
<!-- Node9&#45;&gt;Node11 -->
<g id="edge11" class="edge">
<title>Node9&#45;&gt;Node11</title>
<path fill="none" stroke="#191970" d="M524.9542,-330.462C497.6108,-320.588 453.1351,-304.5273 418.8275,-292.1385"/>
<polygon fill="#191970" stroke="#191970" points="419.5856,-288.6911 408.9912,-288.5865 417.208,-295.275 419.5856,-288.6911"/>
</g>
<!-- Node12 -->
<g id="node13" class="node">
<title>Node12</title>
<g id="a_node13"><a xlink:href="_meeting_attendee_readonly_8hxx.html" target="_top" xlink:title=" ">
<polygon fill="none" stroke="#000000" points="292.2168,-195.5 292.2168,-223.5 447.748,-223.5 447.748,-195.5 292.2168,-195.5"/>
<text text-anchor="start" x="300.2168" y="-211.5" font-family="Helvetica,sans-Serif" font-size="10.00" fill="#000000">MeetingClient/MeetingAttendee</text>
<text text-anchor="middle" x="369.9824" y="-201.5" font-family="Helvetica,sans-Serif" font-size="10.00" fill="#000000">Readonly.hxx</text>
</a>
</g>
</g>
<!-- Node11&#45;&gt;Node12 -->
<g id="edge12" class="edge">
<title>Node11&#45;&gt;Node12</title>
<path fill="none" stroke="#191970" d="M369.9824,-260.396C369.9824,-252.6448 369.9824,-242.8122 369.9824,-233.8601"/>
<polygon fill="#191970" stroke="#191970" points="373.4825,-233.5765 369.9824,-223.5765 366.4825,-233.5765 373.4825,-233.5765"/>
</g>
<!-- Node12&#45;&gt;Node2 -->
<g id="edge13" class="edge">
<title>Node12&#45;&gt;Node2</title>
<path fill="none" stroke="#191970" d="M297.9376,-195.4862C247.7128,-185.5991 179.184,-171.8739 118.9824,-159 114.2197,-157.9815 109.263,-156.8988 104.3098,-155.8018"/>
<polygon fill="#191970" stroke="#191970" points="104.7335,-152.3103 94.211,-153.5458 103.2073,-159.1419 104.7335,-152.3103"/>
</g>
<!-- Node12&#45;&gt;Node3 -->
<g id="edge14" class="edge">
<title>Node12&#45;&gt;Node3</title>
<path fill="none" stroke="#191970" d="M330.0572,-195.396C297.6302,-183.9408 252.3337,-167.9393 221.2339,-156.953"/>
<polygon fill="#191970" stroke="#191970" points="222.2645,-153.6051 211.6697,-153.5743 219.9328,-160.2054 222.2645,-153.6051"/>
</g>
<!-- Node12&#45;&gt;Node4 -->
<g id="edge15" class="edge">
<title>Node12&#45;&gt;Node4</title>
<path fill="none" stroke="#191970" d="M358.0482,-195.396C350.8409,-186.8783 341.5067,-175.8469 333.3717,-166.2328"/>
<polygon fill="#191970" stroke="#191970" points="336.0246,-163.9496 326.8933,-158.5765 330.6809,-168.4712 336.0246,-163.9496"/>
</g>
<!-- Node12&#45;&gt;Node6 -->
<g id="edge16" class="edge">
<title>Node12&#45;&gt;Node6</title>
<path fill="none" stroke="#191970" d="M379.0958,-195.396C385.3761,-185.6764 393.7713,-172.6839 400.5074,-162.2589"/>
<polygon fill="#191970" stroke="#191970" points="403.6315,-163.873 406.119,-153.5743 397.7521,-160.074 403.6315,-163.873"/>
</g>
<!-- Node12&#45;&gt;Node7 -->
<g id="edge18" class="edge">
<title>Node12&#45;&gt;Node7</title>
<path fill="none" stroke="#191970" d="M401.6622,-195.396C426.8354,-184.1888 461.783,-168.6299 486.3931,-157.6733"/>
<polygon fill="#191970" stroke="#191970" points="487.8881,-160.839 495.6001,-153.5743 485.0411,-154.4441 487.8881,-160.839"/>
</g>
<!-- Node13 -->
<g id="node14" class="node">
<title>Node13</title>
<g id="a_node14"><a xlink:title=" ">
<polygon fill="none" stroke="#bfbfbf" points="1222.7559,-5.5 1222.7559,-23.5 1263.209,-23.5 1263.209,-5.5 1222.7559,-5.5"/>
<text text-anchor="middle" x="1242.9824" y="-11.5" font-family="Helvetica,sans-Serif" font-size="10.00" fill="#000000">string</text>
</a>
</g>
</g>
<!-- Node12&#45;&gt;Node13 -->
<g id="edge17" class="edge">
<title>Node12&#45;&gt;Node13</title>
<path fill="none" stroke="#191970" d="M392.5041,-195.3295C408.0094,-185.4283 428.9781,-171.7497 446.9824,-159 464.3206,-146.7221 465.4271,-138.3034 484.9824,-130 519.3177,-115.4209 1074.7896,-37.8046 1212.3505,-18.7343"/>
<polygon fill="#191970" stroke="#191970" points="1213.1632,-22.1552 1222.5883,-17.3161 1212.2027,-15.2214 1213.1632,-22.1552"/>
</g>
<!-- Node14 -->
<g id="node15" class="node">
<title>Node14</title>
<g id="a_node15"><a xlink:href="_meeting_types_8hxx.html" target="_top" xlink:title=" ">
<polygon fill="none" stroke="#000000" points="1018.0713,-130.5 1018.0713,-158.5 1121.8936,-158.5 1121.8936,-130.5 1018.0713,-130.5"/>
<text text-anchor="start" x="1026.0713" y="-146.5" font-family="Helvetica,sans-Serif" font-size="10.00" fill="#000000">MeetingClient/types</text>
<text text-anchor="middle" x="1069.9824" y="-136.5" font-family="Helvetica,sans-Serif" font-size="10.00" fill="#000000">/MeetingTypes.hxx</text>
</a>
</g>
</g>
<!-- Node12&#45;&gt;Node14 -->
<g id="edge19" class="edge">
<title>Node12&#45;&gt;Node14</title>
<path fill="none" stroke="#191970" d="M447.9062,-202.2642C588.0813,-189.248 880.0366,-162.1378 1007.8256,-150.2717"/>
<polygon fill="#191970" stroke="#191970" points="1008.2067,-153.7515 1017.8402,-149.3418 1007.5594,-146.7815 1008.2067,-153.7515"/>
</g>
<!-- Node19 -->
<g id="node20" class="node">
<title>Node19</title>
<g id="a_node20"><a xlink:href="macros_8hxx.html" target="_top" xlink:title=" ">
<polygon fill="none" stroke="#000000" points="745.4209,-135.5 745.4209,-153.5 812.5439,-153.5 812.5439,-135.5 745.4209,-135.5"/>
<text text-anchor="middle" x="778.9824" y="-141.5" font-family="Helvetica,sans-Serif" font-size="10.00" fill="#000000">macros.hxx</text>
</a>
</g>
</g>
<!-- Node12&#45;&gt;Node19 -->
<g id="edge25" class="edge">
<title>Node12&#45;&gt;Node19</title>
<path fill="none" stroke="#191970" d="M447.8749,-197.121C533.081,-183.5797 666.6321,-162.3552 735.1739,-151.4622"/>
<polygon fill="#191970" stroke="#191970" points="735.8737,-154.895 745.2004,-149.8688 734.7749,-147.9818 735.8737,-154.895"/>
</g>
<!-- Node14&#45;&gt;Node15 -->
<g id="edge20" class="edge">
<title>Node14&#45;&gt;Node15</title>
<path fill="none" stroke="#191970" d="M1122.2033,-131.9836C1125.1715,-131.3044 1128.1137,-130.6389 1130.9824,-130 1188.0155,-117.2979 1252.8099,-103.8829 1301.1405,-94.0742"/>
<polygon fill="#191970" stroke="#191970" points="1302.089,-97.4533 1311.1951,-92.0375 1300.6992,-90.5926 1302.089,-97.4533"/>
</g>
<!-- Node17 -->
<g id="node18" class="node">
<title>Node17</title>
<g id="a_node18"><a xlink:href="strong__identity_8hxx.html" target="_top" xlink:title=" ">
<polygon fill="none" stroke="#000000" points="1019.2725,-65.5 1019.2725,-93.5 1120.6924,-93.5 1120.6924,-65.5 1019.2725,-65.5"/>
<text text-anchor="start" x="1027.2725" y="-81.5" font-family="Helvetica,sans-Serif" font-size="10.00" fill="#000000">MeetingClient/utils</text>
<text text-anchor="middle" x="1069.9824" y="-71.5" font-family="Helvetica,sans-Serif" font-size="10.00" fill="#000000">/strong_identity.hxx</text>
</a>
</g>
</g>
<!-- Node14&#45;&gt;Node17 -->
<g id="edge23" class="edge">
<title>Node14&#45;&gt;Node17</title>
<path fill="none" stroke="#191970" d="M1069.9824,-130.396C1069.9824,-122.6448 1069.9824,-112.8122 1069.9824,-103.8601"/>
<polygon fill="#191970" stroke="#191970" points="1073.4825,-103.5765 1069.9824,-93.5765 1066.4825,-103.5765 1073.4825,-103.5765"/>
</g>
<!-- Node15&#45;&gt;Node13 -->
<g id="edge21" class="edge">
<title>Node15&#45;&gt;Node13</title>
<path fill="none" stroke="#191970" d="M1345.5574,-65.396C1323.2704,-54.3375 1292.4444,-39.0422 1270.4159,-28.112"/>
<polygon fill="#191970" stroke="#191970" points="1271.7842,-24.8839 1261.2706,-23.5743 1268.6729,-31.1544 1271.7842,-24.8839"/>
</g>
<!-- Node16 -->
<g id="node17" class="node">
<title>Node16</title>
<g id="a_node17"><a xlink:title=" ">
<polygon fill="none" stroke="#bfbfbf" points="1323.187,-5.5 1323.187,-23.5 1424.7778,-23.5 1424.7778,-5.5 1323.187,-5.5"/>
<text text-anchor="middle" x="1373.9824" y="-11.5" font-family="Helvetica,sans-Serif" font-size="10.00" fill="#000000">CommonTypes.hxx</text>
</a>
</g>
</g>
<!-- Node15&#45;&gt;Node16 -->
<g id="edge22" class="edge">
<title>Node15&#45;&gt;Node16</title>
<path fill="none" stroke="#191970" d="M1373.9824,-65.396C1373.9824,-56.1723 1373.9824,-44.0011 1373.9824,-33.8738"/>
<polygon fill="#191970" stroke="#191970" points="1377.4825,-33.5743 1373.9824,-23.5743 1370.4825,-33.5743 1377.4825,-33.5743"/>
</g>
<!-- Node18 -->
<g id="node19" class="node">
<title>Node18</title>
<g id="a_node19"><a xlink:title=" ">
<polygon fill="none" stroke="#bfbfbf" points="1017.7832,-.5 1017.7832,-28.5 1122.1816,-28.5 1122.1816,-.5 1017.7832,-.5"/>
<text text-anchor="start" x="1025.7832" y="-16.5" font-family="Helvetica,sans-Serif" font-size="10.00" fill="#000000">boost/serialization</text>
<text text-anchor="middle" x="1069.9824" y="-6.5" font-family="Helvetica,sans-Serif" font-size="10.00" fill="#000000">/strong_typedef.hpp</text>
</a>
</g>
</g>
<!-- Node17&#45;&gt;Node18 -->
<g id="edge24" class="edge">
<title>Node17&#45;&gt;Node18</title>
<path fill="none" stroke="#191970" d="M1069.9824,-65.396C1069.9824,-57.6448 1069.9824,-47.8122 1069.9824,-38.8601"/>
<polygon fill="#191970" stroke="#191970" points="1073.4825,-38.5765 1069.9824,-28.5765 1066.4825,-38.5765 1073.4825,-38.5765"/>
</g>
<!-- Node20&#45;&gt;Node15 -->
<g id="edge43" class="edge">
<title>Node20&#45;&gt;Node15</title>
<path fill="none" stroke="#191970" d="M1025.603,-330.6582C1142.9665,-315.9381 1351.8372,-282.1318 1396.9824,-224 1424.3982,-188.6977 1403.2607,-133.6587 1387.3625,-102.6921"/>
<polygon fill="#191970" stroke="#191970" points="1390.2642,-100.6972 1382.453,-93.5394 1384.0956,-104.0061 1390.2642,-100.6972"/>
</g>
<!-- Node21 -->
<g id="node22" class="node">
<title>Node21</title>
<g id="a_node22"><a xlink:href="_notifications_8hxx.html" target="_top" xlink:title=" ">
<polygon fill="none" stroke="#000000" points="882.5073,-260.5 882.5073,-288.5 1007.4575,-288.5 1007.4575,-260.5 882.5073,-260.5"/>
<text text-anchor="start" x="890.5073" y="-276.5" font-family="Helvetica,sans-Serif" font-size="10.00" fill="#000000">MeetingClient/Delegates</text>
<text text-anchor="middle" x="944.9824" y="-266.5" font-family="Helvetica,sans-Serif" font-size="10.00" fill="#000000">/Notifications.hxx</text>
</a>
</g>
</g>
<!-- Node20&#45;&gt;Node21 -->
<g id="edge29" class="edge">
<title>Node20&#45;&gt;Node21</title>
<path fill="none" stroke="#191970" d="M944.9824,-325.396C944.9824,-317.6448 944.9824,-307.8122 944.9824,-298.8601"/>
<polygon fill="#191970" stroke="#191970" points="948.4825,-298.5765 944.9824,-288.5765 941.4825,-298.5765 948.4825,-298.5765"/>
</g>
<!-- Node21&#45;&gt;Node5 -->
<g id="edge31" class="edge">
<title>Node21&#45;&gt;Node5</title>
<path fill="none" stroke="#191970" d="M882.3196,-270.9048C810.8548,-265.5792 691.0865,-252.903 591.9824,-224 590.3319,-223.5186 588.657,-222.9675 586.9829,-222.3678"/>
<polygon fill="#191970" stroke="#191970" points="588.1638,-219.0698 577.5817,-218.5493 585.5295,-225.5552 588.1638,-219.0698"/>
</g>
<!-- Node21&#45;&gt;Node7 -->
<g id="edge32" class="edge">
<title>Node21&#45;&gt;Node7</title>
<path fill="none" stroke="#191970" d="M882.3949,-268.3086C802.7719,-259.7992 670.1649,-243.3267 624.9824,-224 605.4492,-215.6447 604.0856,-207.6032 586.9824,-195 570.6002,-182.9281 551.8285,-169.5978 537.7029,-159.6655"/>
<polygon fill="#191970" stroke="#191970" points="539.3601,-156.5528 529.1631,-153.6767 535.3409,-162.284 539.3601,-156.5528"/>
</g>
<!-- Node21&#45;&gt;Node14 -->
<g id="edge36" class="edge">
<title>Node21&#45;&gt;Node14</title>
<path fill="none" stroke="#191970" d="M998.6982,-260.4885C1018.4586,-252.7788 1039.3227,-241.1696 1052.9824,-224 1065.3085,-208.5067 1069.2307,-186.1231 1070.2579,-169.0519"/>
<polygon fill="#191970" stroke="#191970" points="1073.7663,-168.8291 1070.5741,-158.7266 1066.7696,-168.6148 1073.7663,-168.8291"/>
</g>
<!-- Node21&#45;&gt;Node19 -->
<g id="edge34" class="edge">
<title>Node21&#45;&gt;Node19</title>
<path fill="none" stroke="#191970" d="M974.6804,-260.4364C1003.3031,-244.9885 1039.6008,-219.1554 1019.9824,-195 995.6018,-164.981 885.305,-152.1694 822.7124,-147.2368"/>
<polygon fill="#191970" stroke="#191970" points="822.96,-143.7456 812.7254,-146.4847 822.4343,-150.7259 822.96,-143.7456"/>
</g>
<!-- Node22 -->
<g id="node23" class="node">
<title>Node22</title>
<g id="a_node23"><a xlink:title=" ">
<polygon fill="none" stroke="#bfbfbf" points="1105.3423,-195.5 1105.3423,-223.5 1218.6226,-223.5 1218.6226,-195.5 1105.3423,-195.5"/>
<text text-anchor="start" x="1113.3423" y="-211.5" font-family="Helvetica,sans-Serif" font-size="10.00" fill="#000000">boost/date_time/posix</text>
<text text-anchor="middle" x="1161.9824" y="-201.5" font-family="Helvetica,sans-Serif" font-size="10.00" fill="#000000">_time/posix_time.hpp</text>
</a>
</g>
</g>
<!-- Node21&#45;&gt;Node22 -->
<g id="edge30" class="edge">
<title>Node21&#45;&gt;Node22</title>
<path fill="none" stroke="#191970" d="M991.801,-260.476C1025.0559,-250.5149 1069.8868,-237.0862 1105.1874,-226.5123"/>
<polygon fill="#191970" stroke="#191970" points="1106.2985,-229.8332 1114.8737,-223.6109 1104.2899,-223.1276 1106.2985,-229.8332"/>
</g>
<!-- Node23 -->
<g id="node24" class="node">
<title>Node23</title>
<g id="a_node24"><a xlink:title=" ">
<polygon fill="none" stroke="#bfbfbf" points="634.2954,-200.5 634.2954,-218.5 723.6694,-218.5 723.6694,-200.5 634.2954,-200.5"/>
<text text-anchor="middle" x="678.9824" y="-206.5" font-family="Helvetica,sans-Serif" font-size="10.00" fill="#000000">FSSnapshot.hxx</text>
</a>
</g>
</g>
<!-- Node21&#45;&gt;Node23 -->
<g id="edge33" class="edge">
<title>Node21&#45;&gt;Node23</title>
<path fill="none" stroke="#191970" d="M883.3274,-260.4707C840.7242,-250.6326 782.7989,-236.9713 731.9824,-224 728.4469,-223.0975 724.7847,-222.141 721.1126,-221.1668"/>
<polygon fill="#191970" stroke="#191970" points="722.015,-217.7852 711.4494,-218.5715 720.1993,-224.5456 722.015,-217.7852"/>
</g>
<!-- Node24 -->
<g id="node25" class="node">
<title>Node24</title>
<g id="a_node25"><a xlink:href="_f_s_base_8hxx.html" target="_top" xlink:title=" ">
<polygon fill="none" stroke="#000000" points="741.2905,-195.5 741.2905,-223.5 860.6743,-223.5 860.6743,-195.5 741.2905,-195.5"/>
<text text-anchor="start" x="749.2905" y="-211.5" font-family="Helvetica,sans-Serif" font-size="10.00" fill="#000000">MeetingClient/transport</text>
<text text-anchor="middle" x="800.9824" y="-201.5" font-family="Helvetica,sans-Serif" font-size="10.00" fill="#000000">/FSBase.hxx</text>
</a>
</g>
</g>
<!-- Node21&#45;&gt;Node24 -->
<g id="edge35" class="edge">
<title>Node21&#45;&gt;Node24</title>
<path fill="none" stroke="#191970" d="M913.7366,-260.396C892.5078,-250.8135 864.2311,-238.0498 841.3059,-227.7016"/>
<polygon fill="#191970" stroke="#191970" points="842.7218,-224.5007 832.1673,-223.5765 839.8418,-230.8808 842.7218,-224.5007"/>
</g>
<!-- Node25 -->
<g id="node26" class="node">
<title>Node25</title>
<g id="a_node26"><a xlink:href="_conference_attribute_definitions_8hxx.html" target="_top" xlink:title=" ">
<polygon fill="none" stroke="#000000" points="879.1724,-195.5 879.1724,-223.5 1010.7925,-223.5 1010.7925,-195.5 879.1724,-195.5"/>
<text text-anchor="start" x="887.1724" y="-211.5" font-family="Helvetica,sans-Serif" font-size="10.00" fill="#000000">MeetingClient/Conference</text>
<text text-anchor="middle" x="944.9824" y="-201.5" font-family="Helvetica,sans-Serif" font-size="10.00" fill="#000000">AttributeDefinitions.hxx</text>
</a>
</g>
</g>
<!-- Node21&#45;&gt;Node25 -->
<g id="edge37" class="edge">
<title>Node21&#45;&gt;Node25</title>
<path fill="none" stroke="#191970" d="M944.9824,-260.396C944.9824,-252.6448 944.9824,-242.8122 944.9824,-233.8601"/>
<polygon fill="#191970" stroke="#191970" points="948.4825,-233.5765 944.9824,-223.5765 941.4825,-233.5765 948.4825,-233.5765"/>
</g>
<!-- Node26 -->
<g id="node27" class="node">
<title>Node26</title>
<g id="a_node27"><a xlink:href="_meeting_session_parameters_8hxx.html" target="_top" xlink:title=" ">
<polygon fill="none" stroke="#000000" points="1236.4458,-195.5 1236.4458,-223.5 1387.519,-223.5 1387.519,-195.5 1236.4458,-195.5"/>
<text text-anchor="start" x="1244.4458" y="-211.5" font-family="Helvetica,sans-Serif" font-size="10.00" fill="#000000">MeetingClient/MeetingSession</text>
<text text-anchor="middle" x="1311.9824" y="-201.5" font-family="Helvetica,sans-Serif" font-size="10.00" fill="#000000">Parameters.hxx</text>
</a>
</g>
</g>
<!-- Node21&#45;&gt;Node26 -->
<g id="edge38" class="edge">
<title>Node21&#45;&gt;Node26</title>
<path fill="none" stroke="#191970" d="M1007.655,-263.4C1067.8263,-252.7429 1159.2004,-236.5595 1226.1252,-224.7063"/>
<polygon fill="#191970" stroke="#191970" points="1226.9947,-228.1069 1236.231,-222.9165 1225.7739,-221.2141 1226.9947,-228.1069"/>
</g>
<!-- Node26&#45;&gt;Node14 -->
<g id="edge39" class="edge">
<title>Node26&#45;&gt;Node14</title>
<path fill="none" stroke="#191970" d="M1259.77,-195.476C1222.2388,-185.3953 1171.4863,-171.7634 1131.908,-161.1329"/>
<polygon fill="#191970" stroke="#191970" points="1132.6669,-157.7128 1122.1013,-158.4989 1130.8511,-164.4732 1132.6669,-157.7128"/>
</g>
<!-- Node27 -->
<g id="node28" class="node">
<title>Node27</title>
<g id="a_node28"><a xlink:title=" ">
<polygon fill="none" stroke="#bfbfbf" points="1330.4185,-135.5 1330.4185,-153.5 1387.5464,-153.5 1387.5464,-135.5 1330.4185,-135.5"/>
<text text-anchor="middle" x="1358.9824" y="-141.5" font-family="Helvetica,sans-Serif" font-size="10.00" fill="#000000">algorithm</text>
</a>
</g>
</g>
<!-- Node26&#45;&gt;Node27 -->
<g id="edge40" class="edge">
<title>Node26&#45;&gt;Node27</title>
<path fill="none" stroke="#191970" d="M1322.1807,-195.396C1329.2804,-185.5773 1338.7953,-172.4184 1346.3715,-161.9406"/>
<polygon fill="#191970" stroke="#191970" points="1349.3977,-163.7287 1352.421,-153.5743 1343.7253,-159.627 1349.3977,-163.7287"/>
</g>
<!-- Node28 -->
<g id="node29" class="node">
<title>Node28</title>
<g id="a_node29"><a xlink:title=" ">
<polygon fill="none" stroke="#bfbfbf" points="1140.0786,-135.5 1140.0786,-153.5 1213.8862,-153.5 1213.8862,-135.5 1140.0786,-135.5"/>
<text text-anchor="middle" x="1176.9824" y="-141.5" font-family="Helvetica,sans-Serif" font-size="10.00" fill="#000000">Printable.hxx</text>
</a>
</g>
</g>
<!-- Node26&#45;&gt;Node28 -->
<g id="edge41" class="edge">
<title>Node26&#45;&gt;Node28</title>
<path fill="none" stroke="#191970" d="M1282.6894,-195.396C1259.6189,-184.2879 1227.6696,-168.9049 1204.9487,-157.9653"/>
<polygon fill="#191970" stroke="#191970" points="1206.3575,-154.759 1195.8291,-153.5743 1203.3207,-161.066 1206.3575,-154.759"/>
</g>
<!-- Node29 -->
<g id="node30" class="node">
<title>Node29</title>
<g id="a_node30"><a xlink:title=" ">
<polygon fill="none" stroke="#bfbfbf" points="1231.4629,-135.5 1231.4629,-153.5 1312.502,-153.5 1312.502,-135.5 1231.4629,-135.5"/>
<text text-anchor="middle" x="1271.9824" y="-141.5" font-family="Helvetica,sans-Serif" font-size="10.00" fill="#000000">VoIPClient.hxx</text>
</a>
</g>
</g>
<!-- Node26&#45;&gt;Node29 -->
<g id="edge42" class="edge">
<title>Node26&#45;&gt;Node29</title>
<path fill="none" stroke="#191970" d="M1303.303,-195.396C1297.3218,-185.6764 1289.3263,-172.6839 1282.911,-162.2589"/>
<polygon fill="#191970" stroke="#191970" points="1285.7884,-160.2565 1277.5666,-153.5743 1279.8268,-163.9253 1285.7884,-160.2565"/>
</g>
</g>
</svg>
        <g id="navigator" transform="translate(0 0)" fill="#404254">
                <rect fill="#f2f5e9" fill-opacity="0.5" stroke="#606060" stroke-width=".5" x="0" y="0" width="60" height="60"/>
                <use id="zoomplus" xlink:href="#zoomPlus" x="17" y="9" onmousedown="handleZoom(evt,'in')"/>
                <use id="zoomminus" xlink:href="#zoomMin" x="42" y="9" onmousedown="handleZoom(evt,'out')"/>
                <use id="reset" xlink:href="#resetDef" x="30" y="36" onmousedown="handleReset()"/>
                <g id="arrowUp" xlink:href="#dirArrow" transform="translate(30 24)" onmousedown="handlePan(0,-1)">
                  <use xlink:href="#rim" fill="#404040">
                        <set attributeName="fill" to="#808080" begin="arrowUp.mouseover" end="arrowUp.mouseout"/>
                  </use>
                  <path fill="none" stroke="white" stroke-width="1.5" d="M0,-3.0v7 M-2.5,-0.5L0,-3.0L2.5,-0.5"/>
                </g>
                <g id="arrowRight" xlink:href="#dirArrow" transform="rotate(90) translate(36 -43)" onmousedown="handlePan(1,0)">
                  <use xlink:href="#rim" fill="#404040">
                        <set attributeName="fill" to="#808080" begin="arrowRight.mouseover" end="arrowRight.mouseout"/>
                  </use>
                  <path fill="none" stroke="white" stroke-width="1.5" d="M0,-3.0v7 M-2.5,-0.5L0,-3.0L2.5,-0.5"/>
                </g>
                <g id="arrowDown" xlink:href="#dirArrow" transform="rotate(180) translate(-30 -48)" onmousedown="handlePan(0,1)">
                  <use xlink:href="#rim" fill="#404040">
                        <set attributeName="fill" to="#808080" begin="arrowDown.mouseover" end="arrowDown.mouseout"/>
                  </use>
                  <path fill="none" stroke="white" stroke-width="1.5" d="M0,-3.0v7 M-2.5,-0.5L0,-3.0L2.5,-0.5"/>
                </g>
                <g id="arrowLeft" xlink:href="#dirArrow" transform="rotate(270) translate(-36 17)" onmousedown="handlePan(-1,0)">
                  <use xlink:href="#rim" fill="#404040">
                        <set attributeName="fill" to="#808080" begin="arrowLeft.mouseover" end="arrowLeft.mouseout"/>
                  </use>
                  <path fill="none" stroke="white" stroke-width="1.5" d="M0,-3.0v7 M-2.5,-0.5L0,-3.0L2.5,-0.5"/>
                </g>
        </g>
        <svg viewBox="0 0 15 15" width="100%" height="30px" preserveAspectRatio="xMaxYMin meet">
         <g id="arrow_out" transform="scale(0.3 0.3)">
          <a xlink:href="_attendees_manager_8hxx__incl_org.svg" target="_base">
           <rect id="button" ry="5" rx="5" y="6" x="6" height="38" width="38"
                fill="#f2f5e9" fill-opacity="0.5" stroke="#606060" stroke-width="1.0"/>
           <path id="arrow"
             d="M 11.500037,31.436501 C 11.940474,20.09759 22.043105,11.32322 32.158766,21.979434 L 37.068811,17.246167 C 37.068811,17.246167 37.088388,32 37.088388,32 L 22.160133,31.978069 C 22.160133,31.978069 26.997745,27.140456 26.997745,27.140456 C 18.528582,18.264221 13.291696,25.230495 11.500037,31.436501 z"
             style="fill:#404040;"/>
          </a>
         </g>
        </svg>
</svg>
