<?xml version="1.0" encoding="UTF-8" standalone="no"?>
<!DOCTYPE svg PUBLIC "-//W3C//DTD SVG 1.1//EN"
 "http://www.w3.org/Graphics/SVG/1.1/DTD/svg11.dtd">
<!-- Generated by graphviz version 2.40.1 (20161225.0304)
 -->
<!-- Title: /Users/oskryp/Projects/freesee&#45;native&#45;client/libs/fcc_sdk/engine/meetingclient/src/headers/MeetingClient/AttendeeDecorator.hxx Pages: 1 -->
<svg width="912pt" height="492pt"
 viewBox="0.00 0.00 911.90 492.00" xmlns="http://www.w3.org/2000/svg" xmlns:xlink="http://www.w3.org/1999/xlink">
<g id="graph0" class="graph" transform="scale(1 1) rotate(0) translate(4 488)">
<title>/Users/oskryp/Projects/freesee&#45;native&#45;client/libs/fcc_sdk/engine/meetingclient/src/headers/MeetingClient/AttendeeDecorator.hxx</title>
<!-- Node0 -->
<g id="node1" class="node">
<title>Node0</title>
<g id="a_node1"><a xlink:title=" ">
<polygon fill="#bfbfbf" stroke="#000000" points="489.2715,-435.5 489.2715,-483.5 728.7285,-483.5 728.7285,-435.5 489.2715,-435.5"/>
<text text-anchor="start" x="497.2715" y="-471.5" font-family="Helvetica,sans-Serif" font-size="10.00" fill="#000000">/Users/oskryp/Projects</text>
<text text-anchor="start" x="497.2715" y="-461.5" font-family="Helvetica,sans-Serif" font-size="10.00" fill="#000000">/freesee&#45;native&#45;client</text>
<text text-anchor="start" x="497.2715" y="-451.5" font-family="Helvetica,sans-Serif" font-size="10.00" fill="#000000">/libs/fcc_sdk/engine/meetingclient</text>
<text text-anchor="middle" x="609" y="-441.5" font-family="Helvetica,sans-Serif" font-size="10.00" fill="#000000">/src/headers/MeetingClient/AttendeeDecorator.hxx</text>
</a>
</g>
</g>
<!-- Node1 -->
<g id="node2" class="node">
<title>Node1</title>
<g id="a_node2"><a xlink:href="_meeting_attendee_8hxx.html" target="_top" xlink:title=" ">
<polygon fill="none" stroke="#000000" points="554.0249,-380.5 554.0249,-398.5 663.9751,-398.5 663.9751,-380.5 554.0249,-380.5"/>
<text text-anchor="middle" x="609" y="-386.5" font-family="Helvetica,sans-Serif" font-size="10.00" fill="#000000">MeetingAttendee.hxx</text>
</a>
</g>
</g>
<!-- Node0&#45;&gt;Node1 -->
<g id="edge1" class="edge">
<title>Node0&#45;&gt;Node1</title>
<path fill="none" stroke="#191970" d="M609,-435.41C609,-426.7094 609,-417.0095 609,-408.7754"/>
<polygon fill="#191970" stroke="#191970" points="612.5001,-408.6872 609,-398.6872 605.5001,-408.6873 612.5001,-408.6872"/>
</g>
<!-- Node2 -->
<g id="node3" class="node">
<title>Node2</title>
<g id="a_node3"><a xlink:title=" ">
<polygon fill="none" stroke="#bfbfbf" points="28.0176,-135.5 28.0176,-153.5 137.9824,-153.5 137.9824,-135.5 28.0176,-135.5"/>
<text text-anchor="middle" x="83" y="-141.5" font-family="Helvetica,sans-Serif" font-size="10.00" fill="#000000">boost/shared_ptr.hpp</text>
</a>
</g>
</g>
<!-- Node1&#45;&gt;Node2 -->
<g id="edge2" class="edge">
<title>Node1&#45;&gt;Node2</title>
<path fill="none" stroke="#191970" d="M553.9885,-381.8706C481.8763,-370.1282 353.1551,-343.0781 256,-289 190.9897,-252.8142 127.1214,-190.6756 98.5564,-161.0921"/>
<polygon fill="#191970" stroke="#191970" points="100.9,-158.4782 91.4641,-153.6599 95.8358,-163.3108 100.9,-158.4782"/>
</g>
<!-- Node3 -->
<g id="node4" class="node">
<title>Node3</title>
<g id="a_node4"><a xlink:title=" ">
<polygon fill="none" stroke="#bfbfbf" points="377.6899,-135.5 377.6899,-153.5 494.3101,-153.5 494.3101,-135.5 377.6899,-135.5"/>
<text text-anchor="middle" x="436" y="-141.5" font-family="Helvetica,sans-Serif" font-size="10.00" fill="#000000">boost/thread/locks.hpp</text>
</a>
</g>
</g>
<!-- Node1&#45;&gt;Node3 -->
<g id="edge3" class="edge">
<title>Node1&#45;&gt;Node3</title>
<path fill="none" stroke="#191970" d="M606.1188,-380.4574C598.8793,-358.5316 578.4502,-301.303 550,-260 522.2644,-219.7344 479.7455,-180.9841 455.2315,-160.1979"/>
<polygon fill="#191970" stroke="#191970" points="457.2822,-157.3504 447.3652,-153.6217 452.7925,-162.7209 457.2822,-157.3504"/>
</g>
<!-- Node4 -->
<g id="node5" class="node">
<title>Node4</title>
<g id="a_node5"><a xlink:title=" ">
<polygon fill="none" stroke="#bfbfbf" points="512.5249,-130.5 512.5249,-158.5 617.4751,-158.5 617.4751,-130.5 512.5249,-130.5"/>
<text text-anchor="start" x="520.5249" y="-146.5" font-family="Helvetica,sans-Serif" font-size="10.00" fill="#000000">boost/thread/shared</text>
<text text-anchor="middle" x="565" y="-136.5" font-family="Helvetica,sans-Serif" font-size="10.00" fill="#000000">_mutex.hpp</text>
</a>
</g>
</g>
<!-- Node1&#45;&gt;Node4 -->
<g id="edge4" class="edge">
<title>Node1&#45;&gt;Node4</title>
<path fill="none" stroke="#191970" d="M608.6978,-380.4317C607.5916,-352.4106 602.8403,-264.8886 585,-195 582.7117,-186.0358 579.2399,-176.5255 575.8278,-168.2041"/>
<polygon fill="#191970" stroke="#191970" points="578.9363,-166.572 571.779,-158.7602 572.5026,-169.3303 578.9363,-166.572"/>
</g>
<!-- Node5 -->
<g id="node6" class="node">
<title>Node5</title>
<g id="a_node6"><a xlink:title=" ">
<polygon fill="none" stroke="#bfbfbf" points="635.9385,-135.5 635.9385,-153.5 688.0615,-153.5 688.0615,-135.5 635.9385,-135.5"/>
<text text-anchor="middle" x="662" y="-141.5" font-family="Helvetica,sans-Serif" font-size="10.00" fill="#000000">ostream</text>
</a>
</g>
</g>
<!-- Node1&#45;&gt;Node5 -->
<g id="edge5" class="edge">
<title>Node1&#45;&gt;Node5</title>
<path fill="none" stroke="#191970" d="M611.003,-380.4379C613.0296,-371.2568 616.2478,-356.6445 619,-344 633.415,-277.7726 650.2973,-199.1242 657.9104,-163.5986"/>
<polygon fill="#191970" stroke="#191970" points="661.3692,-164.1613 660.0416,-153.65 654.5245,-162.6949 661.3692,-164.1613"/>
</g>
<!-- Node6 -->
<g id="node7" class="node">
<title>Node6</title>
<g id="a_node7"><a xlink:title=" ">
<polygon fill="none" stroke="#bfbfbf" points="272.7734,-5.5 272.7734,-23.5 313.2266,-23.5 313.2266,-5.5 272.7734,-5.5"/>
<text text-anchor="middle" x="293" y="-11.5" font-family="Helvetica,sans-Serif" font-size="10.00" fill="#000000">string</text>
</a>
</g>
</g>
<!-- Node1&#45;&gt;Node6 -->
<g id="edge6" class="edge">
<title>Node1&#45;&gt;Node6</title>
<path fill="none" stroke="#191970" d="M664.0478,-380.8042C721.0933,-368.2916 802,-339.1495 802,-274.5 802,-274.5 802,-274.5 802,-144.5 802,-45.091 432.9248,-20.7181 323.3296,-15.6721"/>
<polygon fill="#191970" stroke="#191970" points="323.4115,-12.1724 313.2675,-15.2302 323.1043,-19.1657 323.4115,-12.1724"/>
</g>
<!-- Node7 -->
<g id="node8" class="node">
<title>Node7</title>
<g id="a_node8"><a xlink:href="_i_meeting_attendee_8hxx.html" target="_top" xlink:title=" ">
<polygon fill="none" stroke="#000000" points="430.6357,-325.5 430.6357,-343.5 543.3643,-343.5 543.3643,-325.5 430.6357,-325.5"/>
<text text-anchor="middle" x="487" y="-331.5" font-family="Helvetica,sans-Serif" font-size="10.00" fill="#000000">IMeetingAttendee.hxx</text>
</a>
</g>
</g>
<!-- Node1&#45;&gt;Node7 -->
<g id="edge7" class="edge">
<title>Node1&#45;&gt;Node7</title>
<path fill="none" stroke="#191970" d="M588.8542,-380.4179C569.1634,-371.5409 538.9615,-357.9253 516.5527,-347.823"/>
<polygon fill="#191970" stroke="#191970" points="517.7306,-344.5148 507.1757,-343.5956 514.8537,-350.8963 517.7306,-344.5148"/>
</g>
<!-- Node13 -->
<g id="node14" class="node">
<title>Node13</title>
<g id="a_node14"><a xlink:href="_common_data_types_8hxx.html" target="_top" xlink:title=" ">
<polygon fill="none" stroke="#000000" points="14.2539,-65.5 14.2539,-93.5 139.7461,-93.5 139.7461,-65.5 14.2539,-65.5"/>
<text text-anchor="start" x="22.2539" y="-81.5" font-family="Helvetica,sans-Serif" font-size="10.00" fill="#000000">MeetingClient/types</text>
<text text-anchor="middle" x="77" y="-71.5" font-family="Helvetica,sans-Serif" font-size="10.00" fill="#000000">/CommonDataTypes.hxx</text>
</a>
</g>
</g>
<!-- Node1&#45;&gt;Node13 -->
<g id="edge24" class="edge">
<title>Node1&#45;&gt;Node13</title>
<path fill="none" stroke="#191970" d="M553.8812,-384.8843C403.9703,-371.5963 0,-330.5853 0,-274.5 0,-274.5 0,-274.5 0,-209.5 0,-173.1716 .1821,-161.0748 19,-130 26.0397,-118.3751 36.6508,-108.0107 46.8803,-99.7424"/>
<polygon fill="#191970" stroke="#191970" points="49.118,-102.4371 54.9269,-93.5767 44.8604,-96.8808 49.118,-102.4371"/>
</g>
<!-- Node17 -->
<g id="node18" class="node">
<title>Node17</title>
<g id="a_node18"><a xlink:href="macros_8hxx.html" target="_top" xlink:title=" ">
<polygon fill="none" stroke="#000000" points="706.4385,-135.5 706.4385,-153.5 773.5615,-153.5 773.5615,-135.5 706.4385,-135.5"/>
<text text-anchor="middle" x="740" y="-141.5" font-family="Helvetica,sans-Serif" font-size="10.00" fill="#000000">macros.hxx</text>
</a>
</g>
</g>
<!-- Node1&#45;&gt;Node17 -->
<g id="edge26" class="edge">
<title>Node1&#45;&gt;Node17</title>
<path fill="none" stroke="#191970" d="M614.0179,-380.456C619.0926,-371.2889 627.1444,-356.6873 634,-344 669.9765,-277.4205 711.9388,-197.8704 730.4254,-162.7258"/>
<polygon fill="#191970" stroke="#191970" points="733.6301,-164.1516 735.1854,-153.6715 727.4341,-160.8942 733.6301,-164.1516"/>
</g>
<!-- Node18 -->
<g id="node19" class="node">
<title>Node18</title>
<g id="a_node19"><a xlink:title=" ">
<polygon fill="none" stroke="#bfbfbf" points="830.0962,-325.5 830.0962,-343.5 903.9038,-343.5 903.9038,-325.5 830.0962,-325.5"/>
<text text-anchor="middle" x="867" y="-331.5" font-family="Helvetica,sans-Serif" font-size="10.00" fill="#000000">Printable.hxx</text>
</a>
</g>
</g>
<!-- Node1&#45;&gt;Node18 -->
<g id="edge25" class="edge">
<title>Node1&#45;&gt;Node18</title>
<path fill="none" stroke="#191970" d="M651.3146,-380.4795C697.6264,-370.6068 771.6813,-354.8199 819.8308,-344.5554"/>
<polygon fill="#191970" stroke="#191970" points="820.6424,-347.9612 829.6929,-342.4531 819.1829,-341.115 820.6424,-347.9612"/>
</g>
<!-- Node8 -->
<g id="node9" class="node">
<title>Node8</title>
<g id="a_node9"><a xlink:title=" ">
<polygon fill="none" stroke="#bfbfbf" points="438.6333,-265.5 438.6333,-283.5 541.3667,-283.5 541.3667,-265.5 438.6333,-265.5"/>
<text text-anchor="middle" x="490" y="-271.5" font-family="Helvetica,sans-Serif" font-size="10.00" fill="#000000">boost/weak_ptr.hpp</text>
</a>
</g>
</g>
<!-- Node7&#45;&gt;Node8 -->
<g id="edge8" class="edge">
<title>Node7&#45;&gt;Node8</title>
<path fill="none" stroke="#191970" d="M487.4556,-325.3873C487.8741,-317.0174 488.5079,-304.3414 489.0383,-293.735"/>
<polygon fill="#191970" stroke="#191970" points="492.5362,-293.8608 489.5401,-283.6985 485.545,-293.5112 492.5362,-293.8608"/>
</g>
<!-- Node9 -->
<g id="node10" class="node">
<title>Node9</title>
<g id="a_node10"><a xlink:href="_meeting_attendee_a_p_i_8hxx.html" target="_top" xlink:title=" ">
<polygon fill="none" stroke="#000000" points="265.2344,-260.5 265.2344,-288.5 420.7656,-288.5 420.7656,-260.5 265.2344,-260.5"/>
<text text-anchor="start" x="273.2344" y="-276.5" font-family="Helvetica,sans-Serif" font-size="10.00" fill="#000000">MeetingClient/MeetingAttendee</text>
<text text-anchor="middle" x="343" y="-266.5" font-family="Helvetica,sans-Serif" font-size="10.00" fill="#000000">API.hxx</text>
</a>
</g>
</g>
<!-- Node7&#45;&gt;Node9 -->
<g id="edge9" class="edge">
<title>Node7&#45;&gt;Node9</title>
<path fill="none" stroke="#191970" d="M465.1295,-325.3873C444.1776,-316.6573 411.9824,-303.2427 385.9072,-292.378"/>
<polygon fill="#191970" stroke="#191970" points="387.1866,-289.1195 376.6097,-288.504 384.4943,-295.581 387.1866,-289.1195"/>
</g>
<!-- Node10 -->
<g id="node11" class="node">
<title>Node10</title>
<g id="a_node11"><a xlink:href="_meeting_attendee_readonly_8hxx.html" target="_top" xlink:title=" ">
<polygon fill="none" stroke="#000000" points="265.2344,-195.5 265.2344,-223.5 420.7656,-223.5 420.7656,-195.5 265.2344,-195.5"/>
<text text-anchor="start" x="273.2344" y="-211.5" font-family="Helvetica,sans-Serif" font-size="10.00" fill="#000000">MeetingClient/MeetingAttendee</text>
<text text-anchor="middle" x="343" y="-201.5" font-family="Helvetica,sans-Serif" font-size="10.00" fill="#000000">Readonly.hxx</text>
</a>
</g>
</g>
<!-- Node9&#45;&gt;Node10 -->
<g id="edge10" class="edge">
<title>Node9&#45;&gt;Node10</title>
<path fill="none" stroke="#191970" d="M343,-260.396C343,-252.6448 343,-242.8122 343,-233.8601"/>
<polygon fill="#191970" stroke="#191970" points="346.5001,-233.5765 343,-223.5765 339.5001,-233.5765 346.5001,-233.5765"/>
</g>
<!-- Node10&#45;&gt;Node2 -->
<g id="edge11" class="edge">
<title>Node10&#45;&gt;Node2</title>
<path fill="none" stroke="#191970" d="M286.904,-195.476C239.6772,-183.6693 172.9649,-166.9912 128.8771,-155.9693"/>
<polygon fill="#191970" stroke="#191970" points="129.5566,-152.5315 119.0062,-153.5016 127.8588,-159.3225 129.5566,-152.5315"/>
</g>
<!-- Node10&#45;&gt;Node3 -->
<g id="edge12" class="edge">
<title>Node10&#45;&gt;Node3</title>
<path fill="none" stroke="#191970" d="M363.1796,-195.396C378.3631,-184.7838 399.1292,-170.2699 414.6011,-159.4562"/>
<polygon fill="#191970" stroke="#191970" points="416.8253,-162.1718 423.0168,-153.5743 412.8152,-156.4343 416.8253,-162.1718"/>
</g>
<!-- Node10&#45;&gt;Node4 -->
<g id="edge13" class="edge">
<title>Node10&#45;&gt;Node4</title>
<path fill="none" stroke="#191970" d="M390.8974,-195.476C424.9185,-185.5149 470.7824,-172.0862 506.8963,-161.5123"/>
<polygon fill="#191970" stroke="#191970" points="508.1922,-164.7799 516.8058,-158.6109 506.2252,-158.062 508.1922,-164.7799"/>
</g>
<!-- Node10&#45;&gt;Node5 -->
<g id="edge14" class="edge">
<title>Node10&#45;&gt;Node5</title>
<path fill="none" stroke="#191970" d="M420.8558,-200.017C478.2626,-191.9652 557.8855,-178.5676 626,-159 627.9428,-158.4419 629.9246,-157.8154 631.9097,-157.1444"/>
<polygon fill="#191970" stroke="#191970" points="633.5299,-160.277 641.6958,-153.5266 631.1026,-153.7113 633.5299,-160.277"/>
</g>
<!-- Node10&#45;&gt;Node6 -->
<g id="edge15" class="edge">
<title>Node10&#45;&gt;Node6</title>
<path fill="none" stroke="#191970" d="M329.7087,-195.2312C321.6814,-185.7163 312.0548,-172.5134 307,-159 291.0898,-116.4663 290.6402,-62.2258 291.7697,-33.8264"/>
<polygon fill="#191970" stroke="#191970" points="295.2743,-33.8237 292.2902,-23.6578 288.2835,-33.4658 295.2743,-33.8237"/>
</g>
<!-- Node11 -->
<g id="node12" class="node">
<title>Node11</title>
<g id="a_node12"><a xlink:title=" ">
<polygon fill="none" stroke="#bfbfbf" points="316.3843,-135.5 316.3843,-153.5 359.6157,-153.5 359.6157,-135.5 316.3843,-135.5"/>
<text text-anchor="middle" x="338" y="-141.5" font-family="Helvetica,sans-Serif" font-size="10.00" fill="#000000">vector</text>
</a>
</g>
</g>
<!-- Node10&#45;&gt;Node11 -->
<g id="edge16" class="edge">
<title>Node10&#45;&gt;Node11</title>
<path fill="none" stroke="#191970" d="M341.9151,-195.396C341.1979,-186.0732 340.2492,-173.739 339.4652,-163.5479"/>
<polygon fill="#191970" stroke="#191970" points="342.9548,-163.2764 338.698,-153.5743 335.9754,-163.8133 342.9548,-163.2764"/>
</g>
<!-- Node12 -->
<g id="node13" class="node">
<title>Node12</title>
<g id="a_node13"><a xlink:href="_meeting_types_8hxx.html" target="_top" xlink:title=" ">
<polygon fill="none" stroke="#000000" points="156.0889,-130.5 156.0889,-158.5 259.9111,-158.5 259.9111,-130.5 156.0889,-130.5"/>
<text text-anchor="start" x="164.0889" y="-146.5" font-family="Helvetica,sans-Serif" font-size="10.00" fill="#000000">MeetingClient/types</text>
<text text-anchor="middle" x="208" y="-136.5" font-family="Helvetica,sans-Serif" font-size="10.00" fill="#000000">/MeetingTypes.hxx</text>
</a>
</g>
</g>
<!-- Node10&#45;&gt;Node12 -->
<g id="edge17" class="edge">
<title>Node10&#45;&gt;Node12</title>
<path fill="none" stroke="#191970" d="M313.707,-195.396C293.9819,-185.8987 267.7664,-173.2764 246.3776,-162.9781"/>
<polygon fill="#191970" stroke="#191970" points="247.7642,-159.7612 237.2358,-158.5765 244.7275,-166.0682 247.7642,-159.7612"/>
</g>
<!-- Node10&#45;&gt;Node17 -->
<g id="edge23" class="edge">
<title>Node10&#45;&gt;Node17</title>
<path fill="none" stroke="#191970" d="M421.1122,-202.5162C493.3588,-195.0789 603.3857,-181.2618 697,-159 699.97,-158.2937 703.0261,-157.469 706.0742,-156.578"/>
<polygon fill="#191970" stroke="#191970" points="707.1732,-159.9015 715.6676,-153.5694 705.0785,-153.2222 707.1732,-159.9015"/>
</g>
<!-- Node12&#45;&gt;Node13 -->
<g id="edge18" class="edge">
<title>Node12&#45;&gt;Node13</title>
<path fill="none" stroke="#191970" d="M179.575,-130.396C160.5202,-120.9413 135.2236,-108.3896 114.5199,-98.1168"/>
<polygon fill="#191970" stroke="#191970" points="115.8832,-94.8861 105.3696,-93.5765 112.7718,-101.1566 115.8832,-94.8861"/>
</g>
<!-- Node15 -->
<g id="node16" class="node">
<title>Node15</title>
<g id="a_node16"><a xlink:href="strong__identity_8hxx.html" target="_top" xlink:title=" ">
<polygon fill="none" stroke="#000000" points="157.29,-65.5 157.29,-93.5 258.71,-93.5 258.71,-65.5 157.29,-65.5"/>
<text text-anchor="start" x="165.29" y="-81.5" font-family="Helvetica,sans-Serif" font-size="10.00" fill="#000000">MeetingClient/utils</text>
<text text-anchor="middle" x="208" y="-71.5" font-family="Helvetica,sans-Serif" font-size="10.00" fill="#000000">/strong_identity.hxx</text>
</a>
</g>
</g>
<!-- Node12&#45;&gt;Node15 -->
<g id="edge21" class="edge">
<title>Node12&#45;&gt;Node15</title>
<path fill="none" stroke="#191970" d="M208,-130.396C208,-122.6448 208,-112.8122 208,-103.8601"/>
<polygon fill="#191970" stroke="#191970" points="211.5001,-103.5765 208,-93.5765 204.5001,-103.5765 211.5001,-103.5765"/>
</g>
<!-- Node13&#45;&gt;Node6 -->
<g id="edge19" class="edge">
<title>Node13&#45;&gt;Node6</title>
<path fill="none" stroke="#191970" d="M139.8991,-65.8373C176.6562,-57.0361 223.6144,-44.3723 264,-29 265.0259,-28.6095 266.0637,-28.1944 267.1057,-27.7607"/>
<polygon fill="#191970" stroke="#191970" points="268.7486,-30.8581 276.3875,-23.5166 265.8377,-24.492 268.7486,-30.8581"/>
</g>
<!-- Node14 -->
<g id="node15" class="node">
<title>Node14</title>
<g id="a_node15"><a xlink:title=" ">
<polygon fill="none" stroke="#bfbfbf" points="26.2046,-5.5 26.2046,-23.5 127.7954,-23.5 127.7954,-5.5 26.2046,-5.5"/>
<text text-anchor="middle" x="77" y="-11.5" font-family="Helvetica,sans-Serif" font-size="10.00" fill="#000000">CommonTypes.hxx</text>
</a>
</g>
</g>
<!-- Node13&#45;&gt;Node14 -->
<g id="edge20" class="edge">
<title>Node13&#45;&gt;Node14</title>
<path fill="none" stroke="#191970" d="M77,-65.396C77,-56.1723 77,-44.0011 77,-33.8738"/>
<polygon fill="#191970" stroke="#191970" points="80.5001,-33.5743 77,-23.5743 73.5001,-33.5743 80.5001,-33.5743"/>
</g>
<!-- Node16 -->
<g id="node17" class="node">
<title>Node16</title>
<g id="a_node17"><a xlink:title=" ">
<polygon fill="none" stroke="#bfbfbf" points="150.8008,-.5 150.8008,-28.5 255.1992,-28.5 255.1992,-.5 150.8008,-.5"/>
<text text-anchor="start" x="158.8008" y="-16.5" font-family="Helvetica,sans-Serif" font-size="10.00" fill="#000000">boost/serialization</text>
<text text-anchor="middle" x="203" y="-6.5" font-family="Helvetica,sans-Serif" font-size="10.00" fill="#000000">/strong_typedef.hpp</text>
</a>
</g>
</g>
<!-- Node15&#45;&gt;Node16 -->
<g id="edge22" class="edge">
<title>Node15&#45;&gt;Node16</title>
<path fill="none" stroke="#191970" d="M206.9151,-65.396C206.3123,-57.5597 205.5458,-47.5958 204.8512,-38.5653"/>
<polygon fill="#191970" stroke="#191970" points="208.3396,-38.2786 204.0828,-28.5765 201.3602,-38.8155 208.3396,-38.2786"/>
</g>
</g>
</svg>
