<?xml version="1.0" encoding="UTF-8" standalone="no"?>
<!DOCTYPE svg PUBLIC "-//W3C//DTD SVG 1.1//EN"
 "http://www.w3.org/Graphics/SVG/1.1/DTD/svg11.dtd">
<!-- Generated by graphviz version 2.40.1 (20161225.0304)
 -->
<!-- Title: /Users/oskryp/Projects/freesee&#45;native&#45;client/libs/fcc_sdk/engine/meetingclient/src/BroadcastHandler.cxx Pages: 1 -->
<svg width="3413pt" height="557pt"
 viewBox="0.00 0.00 3413.44 557.00" xmlns="http://www.w3.org/2000/svg" xmlns:xlink="http://www.w3.org/1999/xlink">
<g id="graph0" class="graph" transform="scale(1 1) rotate(0) translate(4 553)">
<title>/Users/oskryp/Projects/freesee&#45;native&#45;client/libs/fcc_sdk/engine/meetingclient/src/BroadcastHandler.cxx</title>
<!-- Node0 -->
<g id="node1" class="node">
<title>Node0</title>
<g id="a_node1"><a xlink:title=" ">
<polygon fill="#bfbfbf" stroke="#000000" points="2595.9541,-500.5 2595.9541,-548.5 2760.9238,-548.5 2760.9238,-500.5 2595.9541,-500.5"/>
<text text-anchor="start" x="2603.9541" y="-536.5" font-family="Helvetica,sans-Serif" font-size="10.00" fill="#000000">/Users/oskryp/Projects</text>
<text text-anchor="start" x="2603.9541" y="-526.5" font-family="Helvetica,sans-Serif" font-size="10.00" fill="#000000">/freesee&#45;native&#45;client</text>
<text text-anchor="start" x="2603.9541" y="-516.5" font-family="Helvetica,sans-Serif" font-size="10.00" fill="#000000">/libs/fcc_sdk/engine/meetingclient</text>
<text text-anchor="middle" x="2678.439" y="-506.5" font-family="Helvetica,sans-Serif" font-size="10.00" fill="#000000">/src/BroadcastHandler.cxx</text>
</a>
</g>
</g>
<!-- Node1 -->
<g id="node2" class="node">
<title>Node1</title>
<g id="a_node2"><a xlink:href="_broadcast_handler_8hxx.html" target="_top" xlink:title=" ">
<polygon fill="none" stroke="#000000" points="2255.5205,-320.5 2255.5205,-338.5 2369.3574,-338.5 2369.3574,-320.5 2255.5205,-320.5"/>
<text text-anchor="middle" x="2312.439" y="-326.5" font-family="Helvetica,sans-Serif" font-size="10.00" fill="#000000">BroadcastHandler.hxx</text>
</a>
</g>
</g>
<!-- Node0&#45;&gt;Node1 -->
<g id="edge1" class="edge">
<title>Node0&#45;&gt;Node1</title>
<path fill="none" stroke="#191970" d="M2633.1931,-500.3936C2555.855,-459.1889 2400.606,-376.4743 2338.7508,-343.5186"/>
<polygon fill="#191970" stroke="#191970" points="2340.1228,-340.2839 2329.6515,-338.6706 2336.8313,-346.4617 2340.1228,-340.2839"/>
</g>
<!-- Node2 -->
<g id="node3" class="node">
<title>Node2</title>
<g id="a_node3"><a xlink:title=" ">
<polygon fill="none" stroke="#bfbfbf" points="3102.4565,-190.5 3102.4565,-208.5 3212.4214,-208.5 3212.4214,-190.5 3102.4565,-190.5"/>
<text text-anchor="middle" x="3157.439" y="-196.5" font-family="Helvetica,sans-Serif" font-size="10.00" fill="#000000">boost/shared_ptr.hpp</text>
</a>
</g>
</g>
<!-- Node0&#45;&gt;Node2 -->
<g id="edge116" class="edge">
<title>Node0&#45;&gt;Node2</title>
<path fill="none" stroke="#191970" d="M2761.206,-517.4537C2944.2743,-500.7556 3367.439,-455.5545 3367.439,-394.5 3367.439,-394.5 3367.439,-394.5 3367.439,-329.5 3367.439,-259.7393 3282.6232,-226.1421 3220.7958,-210.9185"/>
<polygon fill="#191970" stroke="#191970" points="3221.2381,-207.4271 3210.7023,-208.5438 3219.6349,-214.241 3221.2381,-207.4271"/>
</g>
<!-- Node4 -->
<g id="node5" class="node">
<title>Node4</title>
<g id="a_node5"><a xlink:title=" ">
<polygon fill="none" stroke="#bfbfbf" points="2210.8232,-190.5 2210.8232,-208.5 2254.0547,-208.5 2254.0547,-190.5 2210.8232,-190.5"/>
<text text-anchor="middle" x="2232.439" y="-196.5" font-family="Helvetica,sans-Serif" font-size="10.00" fill="#000000">vector</text>
</a>
</g>
</g>
<!-- Node0&#45;&gt;Node4 -->
<g id="edge117" class="edge">
<title>Node0&#45;&gt;Node4</title>
<path fill="none" stroke="#191970" d="M2595.7612,-504.6696C2503.1809,-479.3317 2352.2749,-428.3494 2246.439,-344 2218.5601,-321.781 2210.4169,-312.9175 2199.439,-279 2195.47,-266.7374 2195.7607,-262.3529 2199.439,-250 2203.063,-237.8292 2210.6569,-225.8588 2217.6472,-216.6293"/>
<polygon fill="#191970" stroke="#191970" points="2220.4805,-218.6909 2224.0151,-208.703 2215.0235,-214.3068 2220.4805,-218.6909"/>
</g>
<!-- Node5 -->
<g id="node6" class="node">
<title>Node5</title>
<g id="a_node6"><a xlink:title=" ">
<polygon fill="none" stroke="#bfbfbf" points="2377.2124,-.5 2377.2124,-18.5 2417.6655,-18.5 2417.6655,-.5 2377.2124,-.5"/>
<text text-anchor="middle" x="2397.439" y="-6.5" font-family="Helvetica,sans-Serif" font-size="10.00" fill="#000000">string</text>
</a>
</g>
</g>
<!-- Node0&#45;&gt;Node5 -->
<g id="edge118" class="edge">
<title>Node0&#45;&gt;Node5</title>
<path fill="none" stroke="#191970" d="M2761.2546,-522.4892C2871.619,-518.2443 3072.3048,-505.0432 3238.439,-464 3316.4857,-444.7187 3405.439,-474.8932 3405.439,-394.5 3405.439,-394.5 3405.439,-394.5 3405.439,-134.5 3405.439,-28.8603 3284.9833,-75.9363 3181.439,-55 3033.2463,-25.036 2553.385,-12.84 2427.7662,-10.1153"/>
<polygon fill="#191970" stroke="#191970" points="2427.7745,-6.6148 2417.7022,-9.901 2427.6254,-13.6132 2427.7745,-6.6148"/>
</g>
<!-- Node14 -->
<g id="node14" class="node">
<title>Node14</title>
<g id="a_node14"><a xlink:href="_meeting_client_8hxx.html" target="_top" xlink:title=" ">
<polygon fill="none" stroke="#000000" points="1174.6978,-445.5 1174.6978,-463.5 1270.1802,-463.5 1270.1802,-445.5 1174.6978,-445.5"/>
<text text-anchor="middle" x="1222.439" y="-451.5" font-family="Helvetica,sans-Serif" font-size="10.00" fill="#000000">MeetingClient.hxx</text>
</a>
</g>
</g>
<!-- Node0&#45;&gt;Node14 -->
<g id="edge16" class="edge">
<title>Node0&#45;&gt;Node14</title>
<path fill="none" stroke="#191970" d="M2595.7225,-520.5232C2330.5918,-507.7766 1506.1134,-468.1382 1280.1912,-457.2766"/>
<polygon fill="#191970" stroke="#191970" points="1280.3593,-453.7807 1270.2028,-456.7963 1280.0231,-460.7726 1280.3593,-453.7807"/>
</g>
<!-- Node46 -->
<g id="node43" class="node">
<title>Node46</title>
<g id="a_node43"><a xlink:href="_r_t_notifications_definitions_8hxx.html" target="_top" xlink:title=" ">
<polygon fill="none" stroke="#000000" points="2725.1133,-445.5 2725.1133,-463.5 2873.7646,-463.5 2873.7646,-445.5 2725.1133,-445.5"/>
<text text-anchor="middle" x="2799.439" y="-451.5" font-family="Helvetica,sans-Serif" font-size="10.00" fill="#000000">RTNotificationsDefinitions.hxx</text>
</a>
</g>
</g>
<!-- Node0&#45;&gt;Node46 -->
<g id="edge80" class="edge">
<title>Node0&#45;&gt;Node46</title>
<path fill="none" stroke="#191970" d="M2720.0803,-500.41C2738.3093,-489.8643 2759.0762,-477.8504 2774.793,-468.758"/>
<polygon fill="#191970" stroke="#191970" points="2776.9551,-471.5507 2783.8584,-463.5136 2773.4498,-465.4916 2776.9551,-471.5507"/>
</g>
<!-- Node47 -->
<g id="node44" class="node">
<title>Node47</title>
<g id="a_node44"><a xlink:href="_recording_controller_8hxx.html" target="_top" xlink:title=" ">
<polygon fill="none" stroke="#000000" points="2598.0771,-385.5 2598.0771,-403.5 2720.8008,-403.5 2720.8008,-385.5 2598.0771,-385.5"/>
<text text-anchor="middle" x="2659.439" y="-391.5" font-family="Helvetica,sans-Serif" font-size="10.00" fill="#000000">RecordingController.hxx</text>
</a>
</g>
</g>
<!-- Node0&#45;&gt;Node47 -->
<g id="edge81" class="edge">
<title>Node0&#45;&gt;Node47</title>
<path fill="none" stroke="#191970" d="M2674.9097,-500.3527C2671.2558,-475.3522 2665.6201,-436.7923 2662.2542,-413.7624"/>
<polygon fill="#191970" stroke="#191970" points="2665.6726,-412.9486 2660.7631,-403.5599 2658.7461,-413.9609 2665.6726,-412.9486"/>
</g>
<!-- Node53 -->
<g id="node50" class="node">
<title>Node53</title>
<g id="a_node50"><a xlink:href="_presentation_controller_8hxx.html" target="_top" xlink:title=" ">
<polygon fill="none" stroke="#000000" points="2944.7939,-385.5 2944.7939,-403.5 3078.084,-403.5 3078.084,-385.5 2944.7939,-385.5"/>
<text text-anchor="middle" x="3011.439" y="-391.5" font-family="Helvetica,sans-Serif" font-size="10.00" fill="#000000">PresentationController.hxx</text>
</a>
</g>
</g>
<!-- Node0&#45;&gt;Node53 -->
<g id="edge107" class="edge">
<title>Node0&#45;&gt;Node53</title>
<path fill="none" stroke="#191970" d="M2683.6955,-500.1661C2688.9025,-482.1036 2698.7433,-458.3751 2716.439,-445 2749.9606,-419.663 2858.8768,-406.1838 2934.54,-399.6926"/>
<polygon fill="#191970" stroke="#191970" points="2934.8461,-403.1793 2944.5205,-398.8601 2934.2641,-396.2036 2934.8461,-403.1793"/>
</g>
<!-- Node1&#45;&gt;Node2 -->
<g id="edge2" class="edge">
<title>Node1&#45;&gt;Node2</title>
<path fill="none" stroke="#191970" d="M2330.9193,-320.3743C2369.8978,-301.2871 2459.6353,-258.2312 2492.439,-250 2604.7824,-221.8103 2947.7061,-206.8378 3092.1772,-201.6413"/>
<polygon fill="#191970" stroke="#191970" points="3092.3609,-205.1371 3102.2302,-201.284 3092.1122,-198.1415 3092.3609,-205.1371"/>
</g>
<!-- Node3 -->
<g id="node4" class="node">
<title>Node3</title>
<g id="a_node4"><a xlink:title=" ">
<polygon fill="none" stroke="#bfbfbf" points="1871.7124,-190.5 1871.7124,-208.5 1907.1655,-208.5 1907.1655,-190.5 1871.7124,-190.5"/>
<text text-anchor="middle" x="1889.439" y="-196.5" font-family="Helvetica,sans-Serif" font-size="10.00" fill="#000000">map</text>
</a>
</g>
</g>
<!-- Node1&#45;&gt;Node3 -->
<g id="edge3" class="edge">
<title>Node1&#45;&gt;Node3</title>
<path fill="none" stroke="#191970" d="M2264.9467,-320.4399C2220.641,-311.5201 2152.9274,-296.6876 2095.439,-279 2030.0499,-258.8816 1955.7165,-228.1774 1916.6877,-211.424"/>
<polygon fill="#191970" stroke="#191970" points="1917.8954,-208.1332 1907.3272,-207.3822 1915.1205,-214.5597 1917.8954,-208.1332"/>
</g>
<!-- Node1&#45;&gt;Node4 -->
<g id="edge4" class="edge">
<title>Node1&#45;&gt;Node4</title>
<path fill="none" stroke="#191970" d="M2271.0537,-320.4743C2248.6753,-313.2573 2222.9253,-300.6323 2209.439,-279 2197.5096,-259.8651 2208.8503,-234.3138 2219.4134,-217.4042"/>
<polygon fill="#191970" stroke="#191970" points="2222.3895,-219.2503 2225.0491,-208.9947 2216.5745,-215.3533 2222.3895,-219.2503"/>
</g>
<!-- Node1&#45;&gt;Node5 -->
<g id="edge5" class="edge">
<title>Node1&#45;&gt;Node5</title>
<path fill="none" stroke="#191970" d="M2330.3512,-320.3736C2345.4643,-311.7452 2366.4918,-297.3901 2378.439,-279 2398.2301,-248.5358 2397.439,-235.8284 2397.439,-199.5 2397.439,-199.5 2397.439,-199.5 2397.439,-134.5 2397.439,-97.0312 2397.439,-53.2448 2397.439,-28.7058"/>
<polygon fill="#191970" stroke="#191970" points="2400.9391,-28.5967 2397.439,-18.5968 2393.9391,-28.5968 2400.9391,-28.5967"/>
</g>
<!-- Node6 -->
<g id="node7" class="node">
<title>Node6</title>
<g id="a_node7"><a xlink:href="_notification_handler_8hxx.html" target="_top" xlink:title=" ">
<polygon fill="none" stroke="#000000" points="2251.2988,-255.5 2251.2988,-273.5 2369.5791,-273.5 2369.5791,-255.5 2251.2988,-255.5"/>
<text text-anchor="middle" x="2310.439" y="-261.5" font-family="Helvetica,sans-Serif" font-size="10.00" fill="#000000">NotificationHandler.hxx</text>
</a>
</g>
</g>
<!-- Node1&#45;&gt;Node6 -->
<g id="edge6" class="edge">
<title>Node1&#45;&gt;Node6</title>
<path fill="none" stroke="#191970" d="M2312.1609,-320.462C2311.8716,-311.061 2311.4098,-296.0518 2311.0372,-283.943"/>
<polygon fill="#191970" stroke="#191970" points="2314.5336,-283.7697 2310.7276,-273.8821 2307.5369,-283.9851 2314.5336,-283.7697"/>
</g>
<!-- Node9 -->
<g id="node10" class="node">
<title>Node9</title>
<g id="a_node10"><a xlink:href="_common_data_types_8hxx.html" target="_top" xlink:title=" ">
<polygon fill="none" stroke="#000000" points="1830.6929,-55.5 1830.6929,-83.5 1956.1851,-83.5 1956.1851,-55.5 1830.6929,-55.5"/>
<text text-anchor="start" x="1838.6929" y="-71.5" font-family="Helvetica,sans-Serif" font-size="10.00" fill="#000000">MeetingClient/types</text>
<text text-anchor="middle" x="1893.439" y="-61.5" font-family="Helvetica,sans-Serif" font-size="10.00" fill="#000000">/CommonDataTypes.hxx</text>
</a>
</g>
</g>
<!-- Node1&#45;&gt;Node9 -->
<g id="edge15" class="edge">
<title>Node1&#45;&gt;Node9</title>
<path fill="none" stroke="#191970" d="M2280.8798,-320.475C2229.4675,-304.7325 2125.995,-268.6283 2052.439,-214 2008.1648,-181.1187 2013.0069,-156.2421 1971.439,-120 1958.1729,-108.4336 1942.0472,-97.5537 1927.9089,-88.8759"/>
<polygon fill="#191970" stroke="#191970" points="1929.3312,-85.6477 1918.955,-83.5063 1925.731,-91.651 1929.3312,-85.6477"/>
</g>
<!-- Node6&#45;&gt;Node4 -->
<g id="edge7" class="edge">
<title>Node6&#45;&gt;Node4</title>
<path fill="none" stroke="#191970" d="M2299.5934,-255.462C2287.161,-245.1017 2266.5553,-227.9303 2251.442,-215.3358"/>
<polygon fill="#191970" stroke="#191970" points="2253.6204,-212.5952 2243.6975,-208.8821 2249.1391,-217.9728 2253.6204,-212.5952"/>
</g>
<!-- Node7 -->
<g id="node8" class="node">
<title>Node7</title>
<g id="a_node8"><a xlink:title=" ">
<polygon fill="none" stroke="#bfbfbf" points="2425.5747,-190.5 2425.5747,-208.5 2523.3032,-208.5 2523.3032,-190.5 2425.5747,-190.5"/>
<text text-anchor="middle" x="2474.439" y="-196.5" font-family="Helvetica,sans-Serif" font-size="10.00" fill="#000000">boost/function.hpp</text>
</a>
</g>
</g>
<!-- Node6&#45;&gt;Node7 -->
<g id="edge8" class="edge">
<title>Node6&#45;&gt;Node7</title>
<path fill="none" stroke="#191970" d="M2333.2425,-255.462C2361.5579,-244.2394 2410.0379,-225.0248 2442.1615,-212.2929"/>
<polygon fill="#191970" stroke="#191970" points="2443.5585,-215.5041 2451.5654,-208.5658 2440.9793,-208.9966 2443.5585,-215.5041"/>
</g>
<!-- Node8 -->
<g id="node9" class="node">
<title>Node8</title>
<g id="a_node9"><a xlink:href="_meeting_types_8hxx.html" target="_top" xlink:title=" ">
<polygon fill="none" stroke="#000000" points="2023.5278,-120.5 2023.5278,-148.5 2127.3501,-148.5 2127.3501,-120.5 2023.5278,-120.5"/>
<text text-anchor="start" x="2031.5278" y="-136.5" font-family="Helvetica,sans-Serif" font-size="10.00" fill="#000000">MeetingClient/types</text>
<text text-anchor="middle" x="2075.439" y="-126.5" font-family="Helvetica,sans-Serif" font-size="10.00" fill="#000000">/MeetingTypes.hxx</text>
</a>
</g>
</g>
<!-- Node6&#45;&gt;Node8 -->
<g id="edge9" class="edge">
<title>Node6&#45;&gt;Node8</title>
<path fill="none" stroke="#191970" d="M2307.604,-255.3098C2301.9853,-238.6613 2287.825,-203.5249 2263.439,-185 2243.6322,-169.9537 2184.4462,-155.5142 2137.7155,-145.9583"/>
<polygon fill="#191970" stroke="#191970" points="2138.1441,-142.4745 2127.6505,-143.9353 2136.7647,-149.3373 2138.1441,-142.4745"/>
</g>
<!-- Node13 -->
<g id="node13" class="node">
<title>Node13</title>
<g id="a_node13"><a xlink:href="macros_8hxx.html" target="_top" xlink:title=" ">
<polygon fill="none" stroke="#000000" points="2061.917,-190.5 2061.917,-208.5 2192.9609,-208.5 2192.9609,-190.5 2061.917,-190.5"/>
<text text-anchor="middle" x="2127.439" y="-196.5" font-family="Helvetica,sans-Serif" font-size="10.00" fill="#000000">MeetingClient/macros.hxx</text>
</a>
</g>
</g>
<!-- Node6&#45;&gt;Node13 -->
<g id="edge14" class="edge">
<title>Node6&#45;&gt;Node13</title>
<path fill="none" stroke="#191970" d="M2284.9936,-255.462C2253.1253,-244.1427 2198.3667,-224.6929 2162.5329,-211.9651"/>
<polygon fill="#191970" stroke="#191970" points="2163.5573,-208.6147 2152.9625,-208.5658 2161.2143,-215.211 2163.5573,-208.6147"/>
</g>
<!-- Node8&#45;&gt;Node9 -->
<g id="edge10" class="edge">
<title>Node8&#45;&gt;Node9</title>
<path fill="none" stroke="#191970" d="M2035.9477,-120.396C2008.5206,-110.6006 1971.7855,-97.4809 1942.4819,-87.0153"/>
<polygon fill="#191970" stroke="#191970" points="1943.4478,-83.6438 1932.8532,-83.5765 1941.0934,-90.236 1943.4478,-83.6438"/>
</g>
<!-- Node11 -->
<g id="node12" class="node">
<title>Node11</title>
<g id="a_node12"><a xlink:href="strong__identity_8hxx.html" target="_top" xlink:title=" ">
<polygon fill="none" stroke="#ff0000" points="2024.729,-55.5 2024.729,-83.5 2126.1489,-83.5 2126.1489,-55.5 2024.729,-55.5"/>
<text text-anchor="start" x="2032.729" y="-71.5" font-family="Helvetica,sans-Serif" font-size="10.00" fill="#000000">MeetingClient/utils</text>
<text text-anchor="middle" x="2075.439" y="-61.5" font-family="Helvetica,sans-Serif" font-size="10.00" fill="#000000">/strong_identity.hxx</text>
</a>
</g>
</g>
<!-- Node8&#45;&gt;Node11 -->
<g id="edge13" class="edge">
<title>Node8&#45;&gt;Node11</title>
<path fill="none" stroke="#191970" d="M2075.439,-120.396C2075.439,-112.6448 2075.439,-102.8122 2075.439,-93.8601"/>
<polygon fill="#191970" stroke="#191970" points="2078.9391,-93.5765 2075.439,-83.5765 2071.9391,-93.5765 2078.9391,-93.5765"/>
</g>
<!-- Node9&#45;&gt;Node5 -->
<g id="edge11" class="edge">
<title>Node9&#45;&gt;Node5</title>
<path fill="none" stroke="#191970" d="M1956.2519,-62.0223C2065.3494,-49.0345 2285.9308,-22.7748 2366.8138,-13.1458"/>
<polygon fill="#191970" stroke="#191970" points="2367.3246,-16.6098 2376.8407,-11.9522 2366.4971,-9.6589 2367.3246,-16.6098"/>
</g>
<!-- Node10 -->
<g id="node11" class="node">
<title>Node10</title>
<g id="a_node11"><a xlink:title=" ">
<polygon fill="none" stroke="#bfbfbf" points="1842.6436,-.5 1842.6436,-18.5 1944.2344,-18.5 1944.2344,-.5 1842.6436,-.5"/>
<text text-anchor="middle" x="1893.439" y="-6.5" font-family="Helvetica,sans-Serif" font-size="10.00" fill="#000000">CommonTypes.hxx</text>
</a>
</g>
</g>
<!-- Node9&#45;&gt;Node10 -->
<g id="edge12" class="edge">
<title>Node9&#45;&gt;Node10</title>
<path fill="none" stroke="#191970" d="M1893.439,-55.2808C1893.439,-47.3776 1893.439,-37.4316 1893.439,-28.8308"/>
<polygon fill="#191970" stroke="#191970" points="1896.9391,-28.5842 1893.439,-18.5842 1889.9391,-28.5842 1896.9391,-28.5842"/>
</g>
<!-- Node14&#45;&gt;Node2 -->
<g id="edge19" class="edge">
<title>Node14&#45;&gt;Node2</title>
<path fill="none" stroke="#191970" d="M1270.5849,-453.9247C1557.1519,-450.4283 3028.894,-431.4312 3121.439,-409 3185.7687,-393.4077 3220.302,-400.0966 3255.439,-344 3262.9801,-331.9605 3269.8118,-274.901 3254.439,-250 3243.1766,-231.7573 3222.9766,-219.7825 3203.9151,-212.0956"/>
<polygon fill="#191970" stroke="#191970" points="3204.9928,-208.7622 3194.3999,-208.5572 3202.5528,-215.3233 3204.9928,-208.7622"/>
</g>
<!-- Node14&#45;&gt;Node5 -->
<g id="edge24" class="edge">
<title>Node14&#45;&gt;Node5</title>
<path fill="none" stroke="#191970" d="M1174.5387,-453.3085C1076.2489,-450.2849 844.9033,-440.1909 653.439,-409 531.3364,-389.1086 328.3825,-421.4358 391.439,-315 483.3912,-159.7899 581.228,-190.1378 747.439,-120 838.2373,-81.6849 862.219,-71.1453 959.439,-55 1031.2683,-43.0714 2165.5855,-15.1169 2366.9847,-10.234"/>
<polygon fill="#191970" stroke="#191970" points="2367.229,-13.7292 2377.1413,-9.9882 2367.0595,-6.7313 2367.229,-13.7292"/>
</g>
<!-- Node15 -->
<g id="node15" class="node">
<title>Node15</title>
<g id="a_node15"><a xlink:title=" ">
<polygon fill="none" stroke="#bfbfbf" points="1181.9146,-385.5 1181.9146,-403.5 1262.9634,-403.5 1262.9634,-385.5 1181.9146,-385.5"/>
<text text-anchor="middle" x="1222.439" y="-391.5" font-family="Helvetica,sans-Serif" font-size="10.00" fill="#000000">boost/asio.hpp</text>
</a>
</g>
</g>
<!-- Node14&#45;&gt;Node15 -->
<g id="edge17" class="edge">
<title>Node14&#45;&gt;Node15</title>
<path fill="none" stroke="#191970" d="M1222.439,-445.3873C1222.439,-437.0174 1222.439,-424.3414 1222.439,-413.735"/>
<polygon fill="#191970" stroke="#191970" points="1225.9391,-413.6984 1222.439,-403.6985 1218.9391,-413.6985 1225.9391,-413.6984"/>
</g>
<!-- Node16 -->
<g id="node16" class="node">
<title>Node16</title>
<g id="a_node16"><a xlink:title=" ">
<polygon fill="none" stroke="#bfbfbf" points="3115.7349,-315.5 3115.7349,-343.5 3225.1431,-343.5 3225.1431,-315.5 3115.7349,-315.5"/>
<text text-anchor="start" x="3123.7349" y="-331.5" font-family="Helvetica,sans-Serif" font-size="10.00" fill="#000000">boost/enable_shared</text>
<text text-anchor="middle" x="3170.439" y="-321.5" font-family="Helvetica,sans-Serif" font-size="10.00" fill="#000000">_from_this.hpp</text>
</a>
</g>
</g>
<!-- Node14&#45;&gt;Node16 -->
<g id="edge18" class="edge">
<title>Node14&#45;&gt;Node16</title>
<path fill="none" stroke="#191970" d="M1270.3118,-454.3084C1553.6132,-453.0525 3001.1351,-444.8928 3087.439,-409 3115.7177,-397.2392 3139.9239,-371.0016 3154.775,-351.8751"/>
<polygon fill="#191970" stroke="#191970" points="3157.7301,-353.7681 3160.9213,-343.6652 3152.1264,-349.5729 3157.7301,-353.7681"/>
</g>
<!-- Node17 -->
<g id="node17" class="node">
<title>Node17</title>
<g id="a_node17"><a xlink:title=" ">
<polygon fill="none" stroke="#bfbfbf" points="2501.1289,-255.5 2501.1289,-273.5 2617.749,-273.5 2617.749,-255.5 2501.1289,-255.5"/>
<text text-anchor="middle" x="2559.439" y="-261.5" font-family="Helvetica,sans-Serif" font-size="10.00" fill="#000000">boost/thread/locks.hpp</text>
</a>
</g>
</g>
<!-- Node14&#45;&gt;Node17 -->
<g id="edge20" class="edge">
<title>Node14&#45;&gt;Node17</title>
<path fill="none" stroke="#191970" d="M1270.2531,-452.0505C1460.4761,-441.9791 2163.6165,-401.56 2378.439,-344 2436.6203,-328.4108 2500.0949,-296.8329 2534.2615,-278.5148"/>
<polygon fill="#191970" stroke="#191970" points="2535.9715,-281.5691 2543.0923,-273.7241 2532.6335,-275.4162 2535.9715,-281.5691"/>
</g>
<!-- Node18 -->
<g id="node18" class="node">
<title>Node18</title>
<g id="a_node18"><a xlink:title=" ">
<polygon fill="none" stroke="#bfbfbf" points="1280.9639,-380.5 1280.9639,-408.5 1385.9141,-408.5 1385.9141,-380.5 1280.9639,-380.5"/>
<text text-anchor="start" x="1288.9639" y="-396.5" font-family="Helvetica,sans-Serif" font-size="10.00" fill="#000000">boost/thread/shared</text>
<text text-anchor="middle" x="1333.439" y="-386.5" font-family="Helvetica,sans-Serif" font-size="10.00" fill="#000000">_mutex.hpp</text>
</a>
</g>
</g>
<!-- Node14&#45;&gt;Node18 -->
<g id="edge21" class="edge">
<title>Node14&#45;&gt;Node18</title>
<path fill="none" stroke="#191970" d="M1239.2975,-445.3873C1254.8997,-436.9537 1278.5903,-424.1479 1298.3021,-413.4929"/>
<polygon fill="#191970" stroke="#191970" points="1300.1874,-416.4525 1307.3201,-408.6183 1296.8587,-410.2945 1300.1874,-416.4525"/>
</g>
<!-- Node19 -->
<g id="node19" class="node">
<title>Node19</title>
<g id="a_node19"><a xlink:title=" ">
<polygon fill="none" stroke="#bfbfbf" points="1441.3774,-385.5 1441.3774,-403.5 1493.5005,-403.5 1493.5005,-385.5 1441.3774,-385.5"/>
<text text-anchor="middle" x="1467.439" y="-391.5" font-family="Helvetica,sans-Serif" font-size="10.00" fill="#000000">ostream</text>
</a>
</g>
</g>
<!-- Node14&#45;&gt;Node19 -->
<g id="edge22" class="edge">
<title>Node14&#45;&gt;Node19</title>
<path fill="none" stroke="#191970" d="M1270.5179,-445.6567C1312.3466,-437.5302 1374.4059,-424.4274 1427.439,-409 1429.713,-408.3385 1432.0449,-407.6152 1434.3845,-406.856"/>
<polygon fill="#191970" stroke="#191970" points="1435.5854,-410.1444 1443.9167,-403.5992 1433.3222,-403.5204 1435.5854,-410.1444"/>
</g>
<!-- Node20 -->
<g id="node20" class="node">
<title>Node20</title>
<g id="a_node20"><a xlink:title=" ">
<polygon fill="none" stroke="#bfbfbf" points="1549.5352,-385.5 1549.5352,-403.5 1593.3428,-403.5 1593.3428,-385.5 1549.5352,-385.5"/>
<text text-anchor="middle" x="1571.439" y="-391.5" font-family="Helvetica,sans-Serif" font-size="10.00" fill="#000000">queue</text>
</a>
</g>
</g>
<!-- Node14&#45;&gt;Node20 -->
<g id="edge23" class="edge">
<title>Node14&#45;&gt;Node20</title>
<path fill="none" stroke="#191970" d="M1270.3497,-451.1044C1332.3867,-445.9005 1443.4592,-433.8262 1535.439,-409 1537.3905,-408.4733 1539.379,-407.8708 1541.3691,-407.2177"/>
<polygon fill="#191970" stroke="#191970" points="1542.9717,-410.3589 1551.1678,-403.6452 1540.5739,-403.7823 1542.9717,-410.3589"/>
</g>
<!-- Node21 -->
<g id="node21" class="node">
<title>Node21</title>
<g id="a_node21"><a xlink:title=" ">
<polygon fill="none" stroke="#bfbfbf" points="1687.9121,-385.5 1687.9121,-403.5 1778.9658,-403.5 1778.9658,-385.5 1687.9121,-385.5"/>
<text text-anchor="middle" x="1733.439" y="-391.5" font-family="Helvetica,sans-Serif" font-size="10.00" fill="#000000">AudioEngine.hxx</text>
</a>
</g>
</g>
<!-- Node14&#45;&gt;Node21 -->
<g id="edge25" class="edge">
<title>Node14&#45;&gt;Node21</title>
<path fill="none" stroke="#191970" d="M1270.4562,-451.8163C1353.1965,-446.7111 1527.7879,-433.8271 1673.439,-409 1678.7871,-408.0884 1684.3664,-406.9703 1689.8762,-405.763"/>
<polygon fill="#191970" stroke="#191970" points="1690.6905,-409.1672 1699.6542,-403.5189 1689.1246,-402.3446 1690.6905,-409.1672"/>
</g>
<!-- Node22 -->
<g id="node22" class="node">
<title>Node22</title>
<g id="a_node22"><a xlink:href="_i_video_notifications_delegate_8hxx.html" target="_top" xlink:title=" ">
<polygon fill="none" stroke="#000000" points="1286.2119,-315.5 1286.2119,-343.5 1432.666,-343.5 1432.666,-315.5 1286.2119,-315.5"/>
<text text-anchor="start" x="1294.2119" y="-331.5" font-family="Helvetica,sans-Serif" font-size="10.00" fill="#000000">Delegates/IVideoNotifications</text>
<text text-anchor="middle" x="1359.439" y="-321.5" font-family="Helvetica,sans-Serif" font-size="10.00" fill="#000000">Delegate.hxx</text>
</a>
</g>
</g>
<!-- Node14&#45;&gt;Node22 -->
<g id="edge26" class="edge">
<title>Node14&#45;&gt;Node22</title>
<path fill="none" stroke="#191970" d="M1270.5015,-448.3639C1315.9459,-441.4586 1379.3649,-428.5802 1394.439,-409 1407.8788,-391.5426 1394.5804,-368.1192 1380.6846,-351.2246"/>
<polygon fill="#191970" stroke="#191970" points="1383.1506,-348.7279 1373.9296,-343.5101 1377.8841,-353.3393 1383.1506,-348.7279"/>
</g>
<!-- Node28 -->
<g id="node25" class="node">
<title>Node28</title>
<g id="a_node25"><a xlink:href="_meeting_session_parameters_8hxx.html" target="_top" xlink:title=" ">
<polygon fill="none" stroke="#000000" points="266.9023,-185.5 266.9023,-213.5 417.9756,-213.5 417.9756,-185.5 266.9023,-185.5"/>
<text text-anchor="start" x="274.9023" y="-201.5" font-family="Helvetica,sans-Serif" font-size="10.00" fill="#000000">MeetingClient/MeetingSession</text>
<text text-anchor="middle" x="342.439" y="-191.5" font-family="Helvetica,sans-Serif" font-size="10.00" fill="#000000">Parameters.hxx</text>
</a>
</g>
</g>
<!-- Node14&#45;&gt;Node28 -->
<g id="edge44" class="edge">
<title>Node14&#45;&gt;Node28</title>
<path fill="none" stroke="#191970" d="M1174.446,-453.7077C997.1486,-450.5589 387.8056,-437.6813 358.439,-409 308.4141,-360.1426 324.3357,-266.9858 335.491,-223.2678"/>
<polygon fill="#191970" stroke="#191970" points="338.8967,-224.0805 338.1135,-213.5146 332.1369,-222.2628 338.8967,-224.0805"/>
</g>
<!-- Node32 -->
<g id="node29" class="node">
<title>Node32</title>
<g id="a_node29"><a xlink:title=" ">
<polygon fill="none" stroke="#bfbfbf" points="0,-385.5 0,-403.5 90.8779,-403.5 90.8779,-385.5 0,-385.5"/>
<text text-anchor="middle" x="45.439" y="-391.5" font-family="Helvetica,sans-Serif" font-size="10.00" fill="#000000">VideoEngine.hxx</text>
</a>
</g>
</g>
<!-- Node14&#45;&gt;Node32 -->
<g id="edge38" class="edge">
<title>Node14&#45;&gt;Node32</title>
<path fill="none" stroke="#191970" d="M1174.5657,-453.8284C988.8486,-451.025 315.8869,-438.9769 104.439,-409 98.8256,-408.2042 92.9685,-407.1034 87.2175,-405.8607"/>
<polygon fill="#191970" stroke="#191970" points="87.5877,-402.3538 77.0556,-403.5058 86.0073,-409.1731 87.5877,-402.3538"/>
</g>
<!-- Node33 -->
<g id="node30" class="node">
<title>Node33</title>
<g id="a_node30"><a xlink:href="_vo_i_p_client_delegate_8hxx.html" target="_top" xlink:title=" ">
<polygon fill="none" stroke="#000000" points="184.9048,-320.5 184.9048,-338.5 305.9731,-338.5 305.9731,-320.5 184.9048,-320.5"/>
<text text-anchor="middle" x="245.439" y="-326.5" font-family="Helvetica,sans-Serif" font-size="10.00" fill="#000000">VoIPClientDelegate.hxx</text>
</a>
</g>
</g>
<!-- Node14&#45;&gt;Node33 -->
<g id="edge39" class="edge">
<title>Node14&#45;&gt;Node33</title>
<path fill="none" stroke="#191970" d="M1174.4494,-454.1626C998.9415,-452.6449 398.1149,-444.8552 320.439,-409 291.8474,-395.8022 268.8063,-366.3045 256.1354,-347.1876"/>
<polygon fill="#191970" stroke="#191970" points="258.942,-345.0784 250.6244,-338.5158 253.0341,-348.833 258.942,-345.0784"/>
</g>
<!-- Node34 -->
<g id="node31" class="node">
<title>Node34</title>
<g id="a_node31"><a xlink:href="_vo_i_p_client_proxy_8hxx.html" target="_top" xlink:title=" ">
<polygon fill="none" stroke="#000000" points="162.5073,-385.5 162.5073,-403.5 268.3706,-403.5 268.3706,-385.5 162.5073,-385.5"/>
<text text-anchor="middle" x="215.439" y="-391.5" font-family="Helvetica,sans-Serif" font-size="10.00" fill="#000000">VoIPClientProxy.hxx</text>
</a>
</g>
</g>
<!-- Node14&#45;&gt;Node34 -->
<g id="edge41" class="edge">
<title>Node14&#45;&gt;Node34</title>
<path fill="none" stroke="#191970" d="M1174.4444,-453.2236C1008.2172,-448.6389 457.6929,-432.0457 282.439,-409 275.7003,-408.1139 268.6338,-406.9015 261.7212,-405.5525"/>
<polygon fill="#191970" stroke="#191970" points="262.2601,-402.0901 251.7596,-403.5005 260.8478,-408.9462 262.2601,-402.0901"/>
</g>
<!-- Node35 -->
<g id="node32" class="node">
<title>Node35</title>
<g id="a_node32"><a xlink:href="_i_active_speaker_notifications_delegate_8hxx.html" target="_top" xlink:title=" ">
<polygon fill="none" stroke="#000000" points="1610.9072,-315.5 1610.9072,-343.5 1741.9707,-343.5 1741.9707,-315.5 1610.9072,-315.5"/>
<text text-anchor="start" x="1618.9072" y="-331.5" font-family="Helvetica,sans-Serif" font-size="10.00" fill="#000000">Delegates/IActiveSpeaker</text>
<text text-anchor="middle" x="1676.439" y="-321.5" font-family="Helvetica,sans-Serif" font-size="10.00" fill="#000000">NotificationsDelegate.hxx</text>
</a>
</g>
</g>
<!-- Node14&#45;&gt;Node35 -->
<g id="edge45" class="edge">
<title>Node14&#45;&gt;Node35</title>
<path fill="none" stroke="#191970" d="M1270.4578,-452.8384C1359.291,-449.101 1545.4271,-437.9738 1602.439,-409 1627.8637,-396.079 1649.0767,-370.675 1662.1796,-352.0488"/>
<polygon fill="#191970" stroke="#191970" points="1665.2362,-353.777 1667.9434,-343.5338 1659.4394,-349.853 1665.2362,-353.777"/>
</g>
<!-- Node36 -->
<g id="node33" class="node">
<title>Node36</title>
<g id="a_node33"><a xlink:href="_i_attendee_notifications_delegate_8hxx.html" target="_top" xlink:title=" ">
<polygon fill="none" stroke="#000000" points="574.895,-315.5 574.895,-343.5 735.9829,-343.5 735.9829,-315.5 574.895,-315.5"/>
<text text-anchor="start" x="582.895" y="-331.5" font-family="Helvetica,sans-Serif" font-size="10.00" fill="#000000">Delegates/IAttendeeNotifications</text>
<text text-anchor="middle" x="655.439" y="-321.5" font-family="Helvetica,sans-Serif" font-size="10.00" fill="#000000">Delegate.hxx</text>
</a>
</g>
</g>
<!-- Node14&#45;&gt;Node36 -->
<g id="edge49" class="edge">
<title>Node14&#45;&gt;Node36</title>
<path fill="none" stroke="#191970" d="M1174.6009,-451.0029C1108.9414,-445.5299 987.5288,-432.9927 886.439,-409 819.5963,-393.1355 744.8603,-365.5194 698.9799,-347.3741"/>
<polygon fill="#191970" stroke="#191970" points="700.226,-344.1031 689.6407,-343.6535 697.6353,-350.606 700.226,-344.1031"/>
</g>
<!-- Node37 -->
<g id="node34" class="node">
<title>Node37</title>
<g id="a_node34"><a xlink:href="_i_broadcaster_notifications_delegate_8hxx.html" target="_top" xlink:title=" ">
<polygon fill="none" stroke="#000000" points="1910.9541,-315.5 1910.9541,-343.5 2085.9238,-343.5 2085.9238,-315.5 1910.9541,-315.5"/>
<text text-anchor="start" x="1918.9541" y="-331.5" font-family="Helvetica,sans-Serif" font-size="10.00" fill="#000000">Delegates/IBroadcasterNotifications</text>
<text text-anchor="middle" x="1998.439" y="-321.5" font-family="Helvetica,sans-Serif" font-size="10.00" fill="#000000">Delegate.hxx</text>
</a>
</g>
</g>
<!-- Node14&#45;&gt;Node37 -->
<g id="edge52" class="edge">
<title>Node14&#45;&gt;Node37</title>
<path fill="none" stroke="#191970" d="M1208.4496,-445.3038C1187.53,-430.4845 1152.5709,-400.8734 1172.439,-380 1199.1398,-351.9481 1803.0054,-348.2923 1900.4435,-343.6716"/>
<polygon fill="#191970" stroke="#191970" points="1900.964,-347.1455 1910.7186,-343.0106 1900.5145,-340.1599 1900.964,-347.1455"/>
</g>
<!-- Node38 -->
<g id="node35" class="node">
<title>Node38</title>
<g id="a_node35"><a xlink:href="_i_chat_notifications_delegate_8hxx.html" target="_top" xlink:title=" ">
<polygon fill="none" stroke="#000000" points="754.3506,-315.5 754.3506,-343.5 896.5273,-343.5 896.5273,-315.5 754.3506,-315.5"/>
<text text-anchor="start" x="762.3506" y="-331.5" font-family="Helvetica,sans-Serif" font-size="10.00" fill="#000000">Delegates/IChatNotifications</text>
<text text-anchor="middle" x="825.439" y="-321.5" font-family="Helvetica,sans-Serif" font-size="10.00" fill="#000000">Delegate.hxx</text>
</a>
</g>
</g>
<!-- Node14&#45;&gt;Node38 -->
<g id="edge55" class="edge">
<title>Node14&#45;&gt;Node38</title>
<path fill="none" stroke="#191970" d="M1174.5168,-449.2524C1105.9935,-441.3186 983.7325,-425.4433 942.439,-409 907.0347,-394.9018 871.5627,-368.6848 849.1136,-350.2207"/>
<polygon fill="#191970" stroke="#191970" points="851.0865,-347.3075 841.1746,-343.5652 846.5894,-352.6719 851.0865,-347.3075"/>
</g>
<!-- Node39 -->
<g id="node36" class="node">
<title>Node39</title>
<g id="a_node36"><a xlink:href="_i_raw_r_t_message_notifications_delegate_8hxx.html" target="_top" xlink:title=" ">
<polygon fill="none" stroke="#000000" points="914.0444,-315.5 914.0444,-343.5 1108.8335,-343.5 1108.8335,-315.5 914.0444,-315.5"/>
<text text-anchor="start" x="922.0444" y="-331.5" font-family="Helvetica,sans-Serif" font-size="10.00" fill="#000000">Delegates/IRawRTMessageNotifications</text>
<text text-anchor="middle" x="1011.439" y="-321.5" font-family="Helvetica,sans-Serif" font-size="10.00" fill="#000000">Delegate.hxx</text>
</a>
</g>
</g>
<!-- Node14&#45;&gt;Node39 -->
<g id="edge57" class="edge">
<title>Node14&#45;&gt;Node39</title>
<path fill="none" stroke="#191970" d="M1174.631,-449.7844C1100.952,-442.0297 966.6155,-425.7654 952.439,-409 936.005,-389.5649 958.3247,-366.0134 980.0631,-349.6108"/>
<polygon fill="#191970" stroke="#191970" points="982.2095,-352.3783 988.284,-343.6978 978.1221,-346.6955 982.2095,-352.3783"/>
</g>
<!-- Node40 -->
<g id="node37" class="node">
<title>Node40</title>
<g id="a_node37"><a xlink:href="_i_screen_sharing_notifications_delegate_8hxx.html" target="_top" xlink:title=" ">
<polygon fill="none" stroke="#000000" points="1760.0698,-315.5 1760.0698,-343.5 1892.8081,-343.5 1892.8081,-315.5 1760.0698,-315.5"/>
<text text-anchor="start" x="1768.0698" y="-331.5" font-family="Helvetica,sans-Serif" font-size="10.00" fill="#000000">Delegates/IScreenSharing</text>
<text text-anchor="middle" x="1826.439" y="-321.5" font-family="Helvetica,sans-Serif" font-size="10.00" fill="#000000">NotificationsDelegate.hxx</text>
</a>
</g>
</g>
<!-- Node14&#45;&gt;Node40 -->
<g id="edge59" class="edge">
<title>Node14&#45;&gt;Node40</title>
<path fill="none" stroke="#191970" d="M1270.227,-452.0382C1363.9386,-446.7511 1568.4422,-432.8192 1634.439,-409 1656.4691,-401.049 1657.4089,-390.3091 1678.439,-380 1705.9037,-366.5365 1737.8594,-355.1425 1765.0336,-346.604"/>
<polygon fill="#191970" stroke="#191970" points="1766.287,-349.8802 1774.8117,-343.5889 1764.2244,-343.191 1766.287,-349.8802"/>
</g>
<!-- Node41 -->
<g id="node38" class="node">
<title>Node41</title>
<g id="a_node38"><a xlink:href="_i_session_notifications_delegate_8hxx.html" target="_top" xlink:title=" ">
<polygon fill="none" stroke="#000000" points="400.124,-315.5 400.124,-343.5 556.7539,-343.5 556.7539,-315.5 400.124,-315.5"/>
<text text-anchor="start" x="408.124" y="-331.5" font-family="Helvetica,sans-Serif" font-size="10.00" fill="#000000">Delegates/ISessionNotifications</text>
<text text-anchor="middle" x="478.439" y="-321.5" font-family="Helvetica,sans-Serif" font-size="10.00" fill="#000000">Delegate.hxx</text>
</a>
</g>
</g>
<!-- Node14&#45;&gt;Node41 -->
<g id="edge62" class="edge">
<title>Node14&#45;&gt;Node41</title>
<path fill="none" stroke="#191970" d="M1174.5812,-451.8673C1093.8343,-446.902 925.6234,-434.302 785.439,-409 696.1352,-392.8815 594.5644,-364.563 533.5423,-346.436"/>
<polygon fill="#191970" stroke="#191970" points="534.3205,-343.0157 523.7371,-343.5073 532.3171,-349.7229 534.3205,-343.0157"/>
</g>
<!-- Node42 -->
<g id="node39" class="node">
<title>Node42</title>
<g id="a_node39"><a xlink:href="_i_vo_i_p_notifications_delegate_8hxx.html" target="_top" xlink:title=" ">
<polygon fill="none" stroke="#000000" points="1450.3457,-315.5 1450.3457,-343.5 1592.5322,-343.5 1592.5322,-315.5 1450.3457,-315.5"/>
<text text-anchor="start" x="1458.3457" y="-331.5" font-family="Helvetica,sans-Serif" font-size="10.00" fill="#000000">Delegates/IVoIPNotifications</text>
<text text-anchor="middle" x="1521.439" y="-321.5" font-family="Helvetica,sans-Serif" font-size="10.00" fill="#000000">Delegate.hxx</text>
</a>
</g>
</g>
<!-- Node14&#45;&gt;Node42 -->
<g id="edge65" class="edge">
<title>Node14&#45;&gt;Node42</title>
<path fill="none" stroke="#191970" d="M1270.2864,-452.966C1341.2342,-449.6879 1469.5158,-439.588 1502.439,-409 1517.4194,-395.0821 1521.5554,-371.645 1522.3089,-353.8142"/>
<polygon fill="#191970" stroke="#191970" points="1525.8109,-353.605 1522.4076,-343.5717 1518.8113,-353.5374 1525.8109,-353.605"/>
</g>
<!-- Node43 -->
<g id="node40" class="node">
<title>Node43</title>
<g id="a_node40"><a xlink:href="_delegates_provider_8hxx.html" target="_top" xlink:title=" ">
<polygon fill="none" stroke="#000000" points="961.5059,-385.5 961.5059,-403.5 1125.3721,-403.5 1125.3721,-385.5 961.5059,-385.5"/>
<text text-anchor="middle" x="1043.439" y="-391.5" font-family="Helvetica,sans-Serif" font-size="10.00" fill="#000000">Delegates/DelegatesProvider.hxx</text>
</a>
</g>
</g>
<!-- Node14&#45;&gt;Node43 -->
<g id="edge67" class="edge">
<title>Node14&#45;&gt;Node43</title>
<path fill="none" stroke="#191970" d="M1195.2527,-445.3873C1164.4534,-435.0635 1114.1092,-418.1883 1079.9145,-406.7264"/>
<polygon fill="#191970" stroke="#191970" points="1080.8885,-403.3616 1070.2946,-403.5019 1078.6637,-409.9986 1080.8885,-403.3616"/>
</g>
<!-- Node45 -->
<g id="node42" class="node">
<title>Node45</title>
<g id="a_node42"><a xlink:href="_group_state_8hxx.html" target="_top" xlink:title=" ">
<polygon fill="none" stroke="#000000" points="51.3579,-125.5 51.3579,-143.5 163.52,-143.5 163.52,-125.5 51.3579,-125.5"/>
<text text-anchor="middle" x="107.439" y="-131.5" font-family="Helvetica,sans-Serif" font-size="10.00" fill="#000000">types/GroupState.hxx</text>
</a>
</g>
</g>
<!-- Node14&#45;&gt;Node45 -->
<g id="edge78" class="edge">
<title>Node14&#45;&gt;Node45</title>
<path fill="none" stroke="#191970" d="M1174.5043,-453.8636C972.1324,-450.998 196.0993,-438.1422 153.439,-409 121.561,-387.2235 118.439,-368.106 118.439,-329.5 118.439,-329.5 118.439,-329.5 118.439,-264.5 118.439,-225.0198 113.3394,-179.0347 110.0847,-153.7056"/>
<polygon fill="#191970" stroke="#191970" points="113.5311,-153.0706 108.744,-143.619 106.5922,-153.993 113.5311,-153.0706"/>
</g>
<!-- Node23 -->
<g id="node23" class="node">
<title>Node23</title>
<g id="a_node23"><a xlink:href="_notifications_8hxx.html" target="_top" xlink:title=" ">
<polygon fill="none" stroke="#ff0000" points="1503.9639,-250.5 1503.9639,-278.5 1628.9141,-278.5 1628.9141,-250.5 1503.9639,-250.5"/>
<text text-anchor="start" x="1511.9639" y="-266.5" font-family="Helvetica,sans-Serif" font-size="10.00" fill="#000000">MeetingClient/Delegates</text>
<text text-anchor="middle" x="1566.439" y="-256.5" font-family="Helvetica,sans-Serif" font-size="10.00" fill="#000000">/Notifications.hxx</text>
</a>
</g>
</g>
<!-- Node22&#45;&gt;Node23 -->
<g id="edge27" class="edge">
<title>Node22&#45;&gt;Node23</title>
<path fill="none" stroke="#191970" d="M1404.1,-315.476C1435.6869,-305.5574 1478.2221,-292.201 1511.829,-281.6481"/>
<polygon fill="#191970" stroke="#191970" points="1513.009,-284.9461 1521.5011,-278.6109 1510.9119,-278.2676 1513.009,-284.9461"/>
</g>
<!-- Node23&#45;&gt;Node3 -->
<g id="edge29" class="edge">
<title>Node23&#45;&gt;Node3</title>
<path fill="none" stroke="#191970" d="M1629.1074,-252.1221C1680.3209,-241.9752 1754.5891,-227.1886 1819.439,-214 1833.311,-211.1788 1848.718,-207.9931 1861.5381,-205.3277"/>
<polygon fill="#191970" stroke="#191970" points="1862.5318,-208.6959 1871.6082,-203.2306 1861.1046,-201.843 1862.5318,-208.6959"/>
</g>
<!-- Node23&#45;&gt;Node4 -->
<g id="edge30" class="edge">
<title>Node23&#45;&gt;Node4</title>
<path fill="none" stroke="#191970" d="M1629.0783,-262.4681C1767.4842,-257.5021 2095.5335,-242.9814 2202.439,-214 2203.9046,-213.6027 2205.385,-213.1344 2206.8619,-212.6139"/>
<polygon fill="#191970" stroke="#191970" points="2208.4994,-215.7222 2216.3606,-208.6192 2205.7857,-209.2696 2208.4994,-215.7222"/>
</g>
<!-- Node23&#45;&gt;Node8 -->
<g id="edge32" class="edge">
<title>Node23&#45;&gt;Node8</title>
<path fill="none" stroke="#191970" d="M1616.8622,-250.4697C1675.6776,-234.2176 1775.9009,-206.8748 1862.439,-185 1913.0934,-172.1958 1970.7708,-158.5799 2013.3196,-148.7169"/>
<polygon fill="#191970" stroke="#191970" points="2014.2961,-152.0835 2023.2498,-146.4194 2012.7182,-145.2636 2014.2961,-152.0835"/>
</g>
<!-- Node23&#45;&gt;Node13 -->
<g id="edge31" class="edge">
<title>Node23&#45;&gt;Node13</title>
<path fill="none" stroke="#191970" d="M1629.1598,-257.2329C1732.8566,-245.2181 1939.665,-221.2563 2051.4742,-208.3016"/>
<polygon fill="#191970" stroke="#191970" points="2052.1313,-211.749 2061.662,-207.1212 2051.3256,-204.7955 2052.1313,-211.749"/>
</g>
<!-- Node24 -->
<g id="node24" class="node">
<title>Node24</title>
<g id="a_node24"><a xlink:title=" ">
<polygon fill="none" stroke="#bfbfbf" points="1509.7988,-185.5 1509.7988,-213.5 1623.0791,-213.5 1623.0791,-185.5 1509.7988,-185.5"/>
<text text-anchor="start" x="1517.7988" y="-201.5" font-family="Helvetica,sans-Serif" font-size="10.00" fill="#000000">boost/date_time/posix</text>
<text text-anchor="middle" x="1566.439" y="-191.5" font-family="Helvetica,sans-Serif" font-size="10.00" fill="#000000">_time/posix_time.hpp</text>
</a>
</g>
</g>
<!-- Node23&#45;&gt;Node24 -->
<g id="edge28" class="edge">
<title>Node23&#45;&gt;Node24</title>
<path fill="none" stroke="#191970" d="M1566.439,-250.396C1566.439,-242.6448 1566.439,-232.8122 1566.439,-223.8601"/>
<polygon fill="#191970" stroke="#191970" points="1569.9391,-223.5765 1566.439,-213.5765 1562.9391,-223.5765 1569.9391,-223.5765"/>
</g>
<!-- Node23&#45;&gt;Node28 -->
<g id="edge33" class="edge">
<title>Node23&#45;&gt;Node28</title>
<path fill="none" stroke="#191970" d="M1503.634,-261.1648C1300.5692,-250.3811 661.4397,-216.4404 428.4787,-204.0691"/>
<polygon fill="#191970" stroke="#191970" points="428.5326,-200.5671 418.3611,-203.5318 428.1614,-207.5573 428.5326,-200.5671"/>
</g>
<!-- Node28&#45;&gt;Node8 -->
<g id="edge34" class="edge">
<title>Node28&#45;&gt;Node8</title>
<path fill="none" stroke="#191970" d="M418.0182,-196.6652C708.1184,-185.7844 1747.3203,-146.8068 2013.1542,-136.8361"/>
<polygon fill="#191970" stroke="#191970" points="2013.5291,-140.3246 2023.3909,-136.4522 2013.2667,-133.3295 2013.5291,-140.3246"/>
</g>
<!-- Node29 -->
<g id="node26" class="node">
<title>Node29</title>
<g id="a_node26"><a xlink:title=" ">
<polygon fill="none" stroke="#bfbfbf" points="371.875,-125.5 371.875,-143.5 429.0029,-143.5 429.0029,-125.5 371.875,-125.5"/>
<text text-anchor="middle" x="400.439" y="-131.5" font-family="Helvetica,sans-Serif" font-size="10.00" fill="#000000">algorithm</text>
</a>
</g>
</g>
<!-- Node28&#45;&gt;Node29 -->
<g id="edge35" class="edge">
<title>Node28&#45;&gt;Node29</title>
<path fill="none" stroke="#191970" d="M355.0241,-185.396C363.9624,-175.3789 376.0028,-161.8853 385.4403,-151.3089"/>
<polygon fill="#191970" stroke="#191970" points="388.2955,-153.366 392.3419,-143.5743 383.0725,-148.7055 388.2955,-153.366"/>
</g>
<!-- Node30 -->
<g id="node27" class="node">
<title>Node30</title>
<g id="a_node27"><a xlink:title=" ">
<polygon fill="none" stroke="#bfbfbf" points="280.5352,-125.5 280.5352,-143.5 354.3428,-143.5 354.3428,-125.5 280.5352,-125.5"/>
<text text-anchor="middle" x="317.439" y="-131.5" font-family="Helvetica,sans-Serif" font-size="10.00" fill="#000000">Printable.hxx</text>
</a>
</g>
</g>
<!-- Node28&#45;&gt;Node30 -->
<g id="edge36" class="edge">
<title>Node28&#45;&gt;Node30</title>
<path fill="none" stroke="#191970" d="M337.0143,-185.396C333.3905,-175.974 328.5837,-163.4763 324.6402,-153.2233"/>
<polygon fill="#191970" stroke="#191970" points="327.7856,-151.6513 320.9291,-143.5743 321.2522,-154.1642 327.7856,-151.6513"/>
</g>
<!-- Node31 -->
<g id="node28" class="node">
<title>Node31</title>
<g id="a_node28"><a xlink:title=" ">
<polygon fill="none" stroke="#bfbfbf" points="181.9194,-125.5 181.9194,-143.5 262.9585,-143.5 262.9585,-125.5 181.9194,-125.5"/>
<text text-anchor="middle" x="222.439" y="-131.5" font-family="Helvetica,sans-Serif" font-size="10.00" fill="#000000">VoIPClient.hxx</text>
</a>
</g>
</g>
<!-- Node28&#45;&gt;Node31 -->
<g id="edge37" class="edge">
<title>Node28&#45;&gt;Node31</title>
<path fill="none" stroke="#191970" d="M316.4008,-185.396C296.1683,-174.4367 268.2535,-159.3162 248.1138,-148.4072"/>
<polygon fill="#191970" stroke="#191970" points="249.6515,-145.2597 239.1915,-143.5743 246.3175,-151.4147 249.6515,-145.2597"/>
</g>
<!-- Node33&#45;&gt;Node31 -->
<g id="edge40" class="edge">
<title>Node33&#45;&gt;Node31</title>
<path fill="none" stroke="#191970" d="M244.3605,-320.3563C240.8373,-290.4856 229.6135,-195.3277 224.7372,-153.9854"/>
<polygon fill="#191970" stroke="#191970" points="228.1892,-153.372 223.5419,-143.8508 221.2374,-154.192 228.1892,-153.372"/>
</g>
<!-- Node34&#45;&gt;Node31 -->
<g id="edge42" class="edge">
<title>Node34&#45;&gt;Node31</title>
<path fill="none" stroke="#191970" d="M204.8953,-385.3017C195.1232,-376.0143 181.2479,-360.6894 175.439,-344 151.5826,-275.4593 191.1981,-189.9973 211.5397,-152.9965"/>
<polygon fill="#191970" stroke="#191970" points="214.8098,-154.3252 216.6973,-143.8998 208.7204,-150.8727 214.8098,-154.3252"/>
</g>
<!-- Node34&#45;&gt;Node33 -->
<g id="edge43" class="edge">
<title>Node34&#45;&gt;Node33</title>
<path fill="none" stroke="#191970" d="M219.6103,-385.462C224.0378,-375.8691 231.1604,-360.4368 236.8057,-348.2053"/>
<polygon fill="#191970" stroke="#191970" points="240.096,-349.4285 241.1087,-338.8821 233.7402,-346.495 240.096,-349.4285"/>
</g>
<!-- Node35&#45;&gt;Node3 -->
<g id="edge47" class="edge">
<title>Node35&#45;&gt;Node3</title>
<path fill="none" stroke="#191970" d="M1699.6392,-315.3402C1740.4515,-290.4313 1824.6542,-239.04 1865.7855,-213.9364"/>
<polygon fill="#191970" stroke="#191970" points="1867.8599,-216.7708 1874.5723,-208.5736 1864.2131,-210.7957 1867.8599,-216.7708"/>
</g>
<!-- Node35&#45;&gt;Node4 -->
<g id="edge48" class="edge">
<title>Node35&#45;&gt;Node4</title>
<path fill="none" stroke="#191970" d="M1742.1914,-315.9614C1873.4497,-288.8037 2159.1183,-228.9929 2202.439,-214 2203.6382,-213.585 2204.8522,-213.1346 2206.0697,-212.6579"/>
<polygon fill="#191970" stroke="#191970" points="2207.5136,-215.8467 2215.2813,-208.6416 2204.7159,-209.43 2207.5136,-215.8467"/>
</g>
<!-- Node35&#45;&gt;Node23 -->
<g id="edge46" class="edge">
<title>Node35&#45;&gt;Node23</title>
<path fill="none" stroke="#191970" d="M1652.5706,-315.396C1636.8587,-306.1117 1616.0928,-293.8409 1598.8877,-283.6742"/>
<polygon fill="#191970" stroke="#191970" points="1600.6506,-280.6506 1590.2607,-278.5765 1597.0895,-286.6771 1600.6506,-280.6506"/>
</g>
<!-- Node36&#45;&gt;Node9 -->
<g id="edge51" class="edge">
<title>Node36&#45;&gt;Node9</title>
<path fill="none" stroke="#191970" d="M722.4382,-315.4291C935.875,-270.6039 1598.8206,-131.3746 1820.443,-84.8303"/>
<polygon fill="#191970" stroke="#191970" points="1821.2785,-88.2313 1830.3456,-82.7506 1819.8397,-81.3807 1821.2785,-88.2313"/>
</g>
<!-- Node36&#45;&gt;Node23 -->
<g id="edge50" class="edge">
<title>Node36&#45;&gt;Node23</title>
<path fill="none" stroke="#191970" d="M736.3408,-316.081C739.4095,-315.6943 742.4503,-315.3319 745.439,-315 889.4693,-299.0071 1321.1507,-276.6316 1493.8552,-268.0459"/>
<polygon fill="#191970" stroke="#191970" points="1494.0493,-271.5407 1503.8636,-267.5494 1493.7024,-264.5493 1494.0493,-271.5407"/>
</g>
<!-- Node37&#45;&gt;Node9 -->
<g id="edge54" class="edge">
<title>Node37&#45;&gt;Node9</title>
<path fill="none" stroke="#191970" d="M1919.9501,-315.42C1881.4326,-306.7486 1840.8719,-294.3488 1829.439,-279 1787.2251,-222.3275 1798.6136,-183.5891 1829.439,-120 1835.4903,-107.5167 1846.2898,-97.1896 1857.3144,-89.1974"/>
<polygon fill="#191970" stroke="#191970" points="1859.3724,-92.0313 1865.714,-83.5439 1855.4637,-86.2241 1859.3724,-92.0313"/>
</g>
<!-- Node37&#45;&gt;Node23 -->
<g id="edge53" class="edge">
<title>Node37&#45;&gt;Node23</title>
<path fill="none" stroke="#191970" d="M1910.7571,-316.3071C1830.9074,-304.2927 1714.3579,-286.7563 1639.4548,-275.4862"/>
<polygon fill="#191970" stroke="#191970" points="1639.5797,-271.9657 1629.1702,-273.9387 1638.5381,-278.8877 1639.5797,-271.9657"/>
</g>
<!-- Node38&#45;&gt;Node23 -->
<g id="edge56" class="edge">
<title>Node38&#45;&gt;Node23</title>
<path fill="none" stroke="#191970" d="M896.9116,-316.1689C899.7881,-315.7518 902.6389,-315.3597 905.439,-315 1118.1285,-287.6742 1371.36,-273.3741 1493.4561,-267.614"/>
<polygon fill="#191970" stroke="#191970" points="1493.9673,-271.094 1503.7934,-267.132 1493.6412,-264.1016 1493.9673,-271.094"/>
</g>
<!-- Node39&#45;&gt;Node23 -->
<g id="edge58" class="edge">
<title>Node39&#45;&gt;Node23</title>
<path fill="none" stroke="#191970" d="M1109.0391,-316.0595C1111.8696,-315.6985 1114.6742,-315.3445 1117.439,-315 1250.1044,-298.468 1405.1325,-281.5656 1493.9473,-272.1134"/>
<polygon fill="#191970" stroke="#191970" points="1494.3417,-275.5913 1503.9158,-271.0542 1493.602,-268.6305 1494.3417,-275.5913"/>
</g>
<!-- Node40&#45;&gt;Node5 -->
<g id="edge60" class="edge">
<title>Node40&#45;&gt;Node5</title>
<path fill="none" stroke="#191970" d="M1846.0323,-315.406C1884.432,-288.1431 1972.7965,-227.162 2052.439,-185 2088.3365,-165.9962 2099.8276,-166.5893 2136.439,-149 2224.8564,-106.5214 2326.5591,-49.8138 2372.5545,-23.7269"/>
<polygon fill="#191970" stroke="#191970" points="2374.536,-26.6265 2381.499,-18.6411 2371.076,-20.5413 2374.536,-26.6265"/>
</g>
<!-- Node40&#45;&gt;Node23 -->
<g id="edge61" class="edge">
<title>Node40&#45;&gt;Node23</title>
<path fill="none" stroke="#191970" d="M1770.3429,-315.476C1729.9024,-305.3659 1675.174,-291.6838 1632.5982,-281.0398"/>
<polygon fill="#191970" stroke="#191970" points="1633.433,-277.6408 1622.8826,-278.6109 1631.7352,-284.4318 1633.433,-277.6408"/>
</g>
<!-- Node41&#45;&gt;Node5 -->
<g id="edge64" class="edge">
<title>Node41&#45;&gt;Node5</title>
<path fill="none" stroke="#191970" d="M536.0493,-315.4357C618.7944,-293.5274 761.439,-248.6341 761.439,-199.5 761.439,-199.5 761.439,-199.5 761.439,-134.5 761.439,-50.7268 2143.2337,-15.3567 2366.999,-10.1781"/>
<polygon fill="#191970" stroke="#191970" points="2367.1328,-13.6761 2377.05,-9.9479 2366.9725,-6.6779 2367.1328,-13.6761"/>
</g>
<!-- Node41&#45;&gt;Node23 -->
<g id="edge63" class="edge">
<title>Node41&#45;&gt;Node23</title>
<path fill="none" stroke="#191970" d="M557.1037,-315.9738C559.9137,-315.623 562.6987,-315.2965 565.439,-315 911.749,-277.5303 1328.5374,-267.7814 1493.8212,-265.3115"/>
<polygon fill="#191970" stroke="#191970" points="1493.9211,-268.8105 1503.8692,-265.1657 1493.8195,-261.8112 1493.9211,-268.8105"/>
</g>
<!-- Node42&#45;&gt;Node23 -->
<g id="edge66" class="edge">
<title>Node42&#45;&gt;Node23</title>
<path fill="none" stroke="#191970" d="M1531.2033,-315.396C1536.9822,-307.0486 1544.4325,-296.2871 1550.9927,-286.8113"/>
<polygon fill="#191970" stroke="#191970" points="1553.8792,-288.7907 1556.6937,-278.5765 1548.1239,-284.8062 1553.8792,-288.7907"/>
</g>
<!-- Node43&#45;&gt;Node22 -->
<g id="edge75" class="edge">
<title>Node43&#45;&gt;Node22</title>
<path fill="none" stroke="#191970" d="M1087.3774,-385.462C1137.4178,-375.1689 1220.1423,-358.1528 1281.258,-345.5815"/>
<polygon fill="#191970" stroke="#191970" points="1282.1649,-348.9683 1291.2546,-343.5253 1280.7545,-342.1119 1282.1649,-348.9683"/>
</g>
<!-- Node43&#45;&gt;Node35 -->
<g id="edge68" class="edge">
<title>Node43&#45;&gt;Node35</title>
<path fill="none" stroke="#191970" d="M1098.429,-385.4972C1111.8226,-383.4973 1126.1254,-381.5222 1139.439,-380 1340.7646,-356.9822 1395.5835,-371.1183 1600.4699,-344.0193"/>
<polygon fill="#191970" stroke="#191970" points="1601.2117,-347.4513 1610.6584,-342.6544 1600.2821,-340.5133 1601.2117,-347.4513"/>
</g>
<!-- Node43&#45;&gt;Node36 -->
<g id="edge69" class="edge">
<title>Node43&#45;&gt;Node36</title>
<path fill="none" stroke="#191970" d="M989.4892,-385.462C926.6167,-374.9293 821.7225,-357.3568 746.2359,-344.7108"/>
<polygon fill="#191970" stroke="#191970" points="746.6935,-341.2388 736.2526,-343.0384 745.5368,-348.1426 746.6935,-341.2388"/>
</g>
<!-- Node43&#45;&gt;Node37 -->
<g id="edge70" class="edge">
<title>Node43&#45;&gt;Node37</title>
<path fill="none" stroke="#191970" d="M1096.6344,-385.4703C1110.5307,-383.3848 1125.5166,-381.3766 1139.439,-380 1473.5431,-346.9641 1562.2881,-376.5159 1900.6359,-343.9993"/>
<polygon fill="#191970" stroke="#191970" points="1901.105,-347.4703 1910.7194,-343.019 1900.4277,-340.5031 1901.105,-347.4703"/>
</g>
<!-- Node43&#45;&gt;Node38 -->
<g id="edge71" class="edge">
<title>Node43&#45;&gt;Node38</title>
<path fill="none" stroke="#191970" d="M1013.127,-385.462C979.4426,-375.4185 924.2905,-358.9741 882.4669,-346.5037"/>
<polygon fill="#191970" stroke="#191970" points="883.2662,-343.0898 872.683,-343.5865 881.266,-349.798 883.2662,-343.0898"/>
</g>
<!-- Node43&#45;&gt;Node39 -->
<g id="edge72" class="edge">
<title>Node43&#45;&gt;Node39</title>
<path fill="none" stroke="#191970" d="M1038.9895,-385.462C1034.8985,-377.1522 1028.6503,-364.4605 1023.1378,-353.2634"/>
<polygon fill="#191970" stroke="#191970" points="1026.1127,-351.3817 1018.5557,-343.9559 1019.8325,-354.4735 1026.1127,-351.3817"/>
</g>
<!-- Node43&#45;&gt;Node40 -->
<g id="edge73" class="edge">
<title>Node43&#45;&gt;Node40</title>
<path fill="none" stroke="#191970" d="M1097.4001,-385.4673C1111.083,-383.42 1125.7763,-381.4307 1139.439,-380 1407.1196,-351.9705 1479.3351,-377.2999 1749.7395,-344.1042"/>
<polygon fill="#191970" stroke="#191970" points="1750.3641,-347.5535 1759.8559,-342.8465 1749.5005,-340.607 1750.3641,-347.5535"/>
</g>
<!-- Node43&#45;&gt;Node41 -->
<g id="edge74" class="edge">
<title>Node43&#45;&gt;Node41</title>
<path fill="none" stroke="#191970" d="M961.2146,-387.3219C867.9748,-378.8406 711.1777,-363.547 567.0419,-344.1735"/>
<polygon fill="#191970" stroke="#191970" points="567.5066,-340.7046 557.1275,-342.8317 566.5677,-347.6414 567.5066,-340.7046"/>
</g>
<!-- Node43&#45;&gt;Node42 -->
<g id="edge76" class="edge">
<title>Node43&#45;&gt;Node42</title>
<path fill="none" stroke="#191970" d="M1101.2691,-385.4663C1113.8418,-383.5859 1127.078,-381.6698 1139.439,-380 1270.1243,-362.3457 1306.0261,-363.9695 1439.7214,-344.2047"/>
<polygon fill="#191970" stroke="#191970" points="1440.5709,-347.6168 1449.9453,-342.68 1439.5384,-340.6934 1440.5709,-347.6168"/>
</g>
<!-- Node44 -->
<g id="node41" class="node">
<title>Node44</title>
<g id="a_node41"><a xlink:href="_delegates_configuration_8hxx.html" target="_top" xlink:title=" ">
<polygon fill="none" stroke="#000000" points="1126.624,-315.5 1126.624,-343.5 1268.2539,-343.5 1268.2539,-315.5 1126.624,-315.5"/>
<text text-anchor="start" x="1134.624" y="-331.5" font-family="Helvetica,sans-Serif" font-size="10.00" fill="#000000">MeetingClient/Delegates</text>
<text text-anchor="middle" x="1197.439" y="-321.5" font-family="Helvetica,sans-Serif" font-size="10.00" fill="#000000">/DelegatesConfiguration.hxx</text>
</a>
</g>
</g>
<!-- Node43&#45;&gt;Node44 -->
<g id="edge77" class="edge">
<title>Node43&#45;&gt;Node44</title>
<path fill="none" stroke="#191970" d="M1064.852,-385.462C1087.9446,-375.7152 1125.3198,-359.9399 1154.5112,-347.6188"/>
<polygon fill="#191970" stroke="#191970" points="1156.2128,-350.6997 1164.0648,-343.5865 1153.4908,-344.2506 1156.2128,-350.6997"/>
</g>
<!-- Node45&#45;&gt;Node9 -->
<g id="edge79" class="edge">
<title>Node45&#45;&gt;Node9</title>
<path fill="none" stroke="#191970" d="M142.3082,-125.442C151.9994,-123.2751 162.5724,-121.2339 172.439,-120 498.7481,-79.1934 1535.4938,-71.227 1820.3865,-69.7939"/>
<polygon fill="#191970" stroke="#191970" points="1820.6186,-73.2929 1830.6013,-69.7438 1820.5842,-66.293 1820.6186,-73.2929"/>
</g>
<!-- Node47&#45;&gt;Node2 -->
<g id="edge83" class="edge">
<title>Node47&#45;&gt;Node2</title>
<path fill="none" stroke="#191970" d="M2721.2076,-386.9409C2765.2307,-379.9039 2824.9554,-366.9321 2873.439,-344 2892.6442,-334.9161 2892.4504,-324.5284 2911.439,-315 2963.4937,-288.8791 2984.6423,-303.5869 3037.439,-279 3058.3354,-269.2687 3061.2453,-262.7656 3080.439,-250 3098.6276,-237.9029 3119.3365,-224.3324 3134.6934,-214.3079"/>
<polygon fill="#191970" stroke="#191970" points="3137.0288,-216.9634 3143.4932,-208.5692 3133.2051,-211.1 3137.0288,-216.9634"/>
</g>
<!-- Node47&#45;&gt;Node3 -->
<g id="edge105" class="edge">
<title>Node47&#45;&gt;Node3</title>
<path fill="none" stroke="#191970" d="M2597.6885,-390.7825C2492.4697,-383.9042 2283.0577,-367.6995 2213.439,-344 2189.8441,-335.9679 2188.5311,-324.3802 2165.439,-315 2099.9159,-288.3841 2075.4471,-306.8501 2010.439,-279 1971.3085,-262.2361 1930.994,-232.8577 1908.1889,-214.8929"/>
<polygon fill="#191970" stroke="#191970" points="1910.3397,-212.1314 1900.3448,-208.6166 1905.9664,-217.5971 1910.3397,-212.1314"/>
</g>
<!-- Node47&#45;&gt;Node4 -->
<g id="edge106" class="edge">
<title>Node47&#45;&gt;Node4</title>
<path fill="none" stroke="#191970" d="M2627.8817,-385.3835C2575.9414,-370.421 2469.1483,-339.8354 2378.439,-315 2318.1322,-298.4886 2283.6009,-326.0662 2242.439,-279 2228.0979,-262.6018 2227.5603,-236.5165 2229.3049,-218.7321"/>
<polygon fill="#191970" stroke="#191970" points="2232.7957,-219.0298 2230.6207,-208.6606 2225.8546,-218.1229 2232.7957,-219.0298"/>
</g>
<!-- Node47&#45;&gt;Node5 -->
<g id="edge84" class="edge">
<title>Node47&#45;&gt;Node5</title>
<path fill="none" stroke="#191970" d="M2716.1597,-385.4638C2753.1412,-377.9723 2801.5719,-365.0583 2840.439,-344 2857.6064,-334.6986 2857.0978,-325.6865 2873.439,-315 2943.858,-268.9487 3023.439,-283.6401 3023.439,-199.5 3023.439,-199.5 3023.439,-199.5 3023.439,-134.5 3023.439,-27.1832 2900.0587,-78.908 2795.439,-55 2660.8894,-24.2524 2495.7721,-13.8333 2428.3358,-10.7027"/>
<polygon fill="#191970" stroke="#191970" points="2428.1485,-7.1911 2418.0035,-10.2454 2427.8389,-14.1843 2428.1485,-7.1911"/>
</g>
<!-- Node47&#45;&gt;Node7 -->
<g id="edge102" class="edge">
<title>Node47&#45;&gt;Node7</title>
<path fill="none" stroke="#191970" d="M2636.7482,-385.3739C2600.2873,-369.4878 2529.0478,-333.1839 2492.439,-279 2480.3373,-261.0887 2476.2688,-236.2479 2474.9555,-219.1239"/>
<polygon fill="#191970" stroke="#191970" points="2478.4278,-218.4899 2474.4216,-208.6816 2471.4369,-218.8473 2478.4278,-218.4899"/>
</g>
<!-- Node47&#45;&gt;Node9 -->
<g id="edge87" class="edge">
<title>Node47&#45;&gt;Node9</title>
<path fill="none" stroke="#191970" d="M2597.7508,-390.4016C2484.0806,-382.4842 2245.838,-364.0863 2165.439,-344 2132.3691,-335.7381 2126.8069,-325.686 2094.439,-315 2033.0224,-294.7239 2012.0895,-306.2622 1953.439,-279 1908.3678,-258.0498 1885.1818,-258.1937 1862.439,-214 1842.0986,-174.4749 1863.4873,-122.2665 1879.44,-92.6443"/>
<polygon fill="#191970" stroke="#191970" points="1882.5252,-94.2984 1884.3687,-83.8651 1876.4213,-90.8716 1882.5252,-94.2984"/>
</g>
<!-- Node47&#45;&gt;Node16 -->
<g id="edge82" class="edge">
<title>Node47&#45;&gt;Node16</title>
<path fill="none" stroke="#191970" d="M2720.8069,-387.2789C2800.8491,-377.7787 2945.2094,-360.3652 3068.439,-344 3080.421,-342.4087 3093.1849,-340.6472 3105.4828,-338.9161"/>
<polygon fill="#191970" stroke="#191970" points="3106.2652,-342.3404 3115.6761,-337.4736 3105.2843,-335.4094 3106.2652,-342.3404"/>
</g>
<!-- Node47&#45;&gt;Node17 -->
<g id="edge103" class="edge">
<title>Node47&#45;&gt;Node17</title>
<path fill="none" stroke="#191970" d="M2652.2472,-385.1507C2635.5983,-363.5071 2594.196,-309.6841 2572.7652,-281.8241"/>
<polygon fill="#191970" stroke="#191970" points="2575.4369,-279.5568 2566.5656,-273.7646 2569.8885,-283.8248 2575.4369,-279.5568"/>
</g>
<!-- Node47&#45;&gt;Node37 -->
<g id="edge86" class="edge">
<title>Node47&#45;&gt;Node37</title>
<path fill="none" stroke="#191970" d="M2597.9502,-388.7019C2500.3326,-379.4632 2303.9008,-360.7342 2137.439,-344 2124.0349,-342.6525 2109.9066,-341.2074 2095.9987,-339.7705"/>
<polygon fill="#191970" stroke="#191970" points="2096.2315,-336.276 2085.9241,-338.7272 2095.5103,-343.2387 2096.2315,-336.276"/>
</g>
<!-- Node48 -->
<g id="node45" class="node">
<title>Node48</title>
<g id="a_node45"><a xlink:title=" ">
<polygon fill="none" stroke="#bfbfbf" points="2963.4341,-320.5 2963.4341,-338.5 3059.4438,-338.5 3059.4438,-320.5 2963.4341,-320.5"/>
<text text-anchor="middle" x="3011.439" y="-326.5" font-family="Helvetica,sans-Serif" font-size="10.00" fill="#000000">Utils/HRClock.hxx</text>
</a>
</g>
</g>
<!-- Node47&#45;&gt;Node48 -->
<g id="edge85" class="edge">
<title>Node47&#45;&gt;Node48</title>
<path fill="none" stroke="#191970" d="M2716.847,-385.4994C2775.4845,-376.0725 2869.0682,-360.382 2949.439,-344 2954.3894,-342.991 2959.5483,-341.8801 2964.6834,-340.7358"/>
<polygon fill="#191970" stroke="#191970" points="2965.4925,-344.1413 2974.4684,-338.5123 2963.9414,-337.3153 2965.4925,-344.1413"/>
</g>
<!-- Node49 -->
<g id="node46" class="node">
<title>Node49</title>
<g id="a_node46"><a xlink:href="_meeting_controller_base_8hxx.html" target="_top" xlink:title=" ">
<polygon fill="none" stroke="#000000" points="3089.4097,-255.5 3089.4097,-273.5 3225.4683,-273.5 3225.4683,-255.5 3089.4097,-255.5"/>
<text text-anchor="middle" x="3157.439" y="-261.5" font-family="Helvetica,sans-Serif" font-size="10.00" fill="#000000">MeetingControllerBase.hxx</text>
</a>
</g>
</g>
<!-- Node47&#45;&gt;Node49 -->
<g id="edge88" class="edge">
<title>Node47&#45;&gt;Node49</title>
<path fill="none" stroke="#191970" d="M2720.986,-389.023C2773.2693,-382.781 2849.4717,-369.8759 2911.439,-344 2932.7101,-335.1177 2933.3779,-324.3696 2954.439,-315 2980.8807,-303.2367 3053.0779,-286.5473 3103.8115,-275.6247"/>
<polygon fill="#191970" stroke="#191970" points="3104.6052,-279.0341 3113.6521,-273.5202 3103.1412,-272.1889 3104.6052,-279.0341"/>
</g>
<!-- Node50 -->
<g id="node47" class="node">
<title>Node50</title>
<g id="a_node47"><a xlink:href="_r_t_notifications_controller_8hxx.html" target="_top" xlink:title=" ">
<polygon fill="none" stroke="#000000" points="2687.0566,-320.5 2687.0566,-338.5 2831.8213,-338.5 2831.8213,-320.5 2687.0566,-320.5"/>
<text text-anchor="middle" x="2759.439" y="-326.5" font-family="Helvetica,sans-Serif" font-size="10.00" fill="#000000">RTNotificationsController.hxx</text>
</a>
</g>
</g>
<!-- Node47&#45;&gt;Node50 -->
<g id="edge90" class="edge">
<title>Node47&#45;&gt;Node50</title>
<path fill="none" stroke="#191970" d="M2673.3435,-385.462C2689.7441,-374.8017 2717.2391,-356.9299 2736.7415,-344.2534"/>
<polygon fill="#191970" stroke="#191970" points="2738.8531,-347.0552 2745.3301,-338.6708 2735.0382,-341.1861 2738.8531,-347.0552"/>
</g>
<!-- Node51 -->
<g id="node48" class="node">
<title>Node51</title>
<g id="a_node48"><a xlink:title=" ">
<polygon fill="none" stroke="#bfbfbf" points="2635.9048,-255.5 2635.9048,-273.5 2756.9731,-273.5 2756.9731,-255.5 2635.9048,-255.5"/>
<text text-anchor="middle" x="2696.439" y="-261.5" font-family="Helvetica,sans-Serif" font-size="10.00" fill="#000000">boost/thread/mutex.hpp</text>
</a>
</g>
</g>
<!-- Node47&#45;&gt;Node51 -->
<g id="edge104" class="edge">
<title>Node47&#45;&gt;Node51</title>
<path fill="none" stroke="#191970" d="M2661.3395,-385.1118C2664.4448,-370.1503 2671.0101,-340.032 2678.439,-315 2681.5944,-304.3677 2685.712,-292.6924 2689.2126,-283.2485"/>
<polygon fill="#191970" stroke="#191970" points="2692.5566,-284.3003 2692.8184,-273.7087 2686.0088,-281.8253 2692.5566,-284.3003"/>
</g>
<!-- Node49&#45;&gt;Node2 -->
<g id="edge89" class="edge">
<title>Node49&#45;&gt;Node2</title>
<path fill="none" stroke="#191970" d="M3157.439,-255.462C3157.439,-246.061 3157.439,-231.0518 3157.439,-218.943"/>
<polygon fill="#191970" stroke="#191970" points="3160.9391,-218.8821 3157.439,-208.8821 3153.9391,-218.8822 3160.9391,-218.8821"/>
</g>
<!-- Node50&#45;&gt;Node2 -->
<g id="edge92" class="edge">
<title>Node50&#45;&gt;Node2</title>
<path fill="none" stroke="#191970" d="M2802.8881,-320.4908C2844.1365,-311.5042 2907.6525,-296.5356 2961.439,-279 3022.0096,-259.2526 3090.5039,-229.757 3128.3616,-212.7963"/>
<polygon fill="#191970" stroke="#191970" points="3130.0703,-215.8653 3137.7492,-208.5656 3127.1942,-209.4834 3130.0703,-215.8653"/>
</g>
<!-- Node50&#45;&gt;Node3 -->
<g id="edge96" class="edge">
<title>Node50&#45;&gt;Node3</title>
<path fill="none" stroke="#191970" d="M2686.7233,-325.2536C2586.3288,-318.7421 2399.8175,-304.3078 2242.439,-279 2119.8608,-259.2884 1976.1589,-222.6302 1917.0045,-206.9392"/>
<polygon fill="#191970" stroke="#191970" points="1917.8508,-203.5426 1907.2866,-204.3478 1916.0472,-210.3063 1917.8508,-203.5426"/>
</g>
<!-- Node50&#45;&gt;Node4 -->
<g id="edge98" class="edge">
<title>Node50&#45;&gt;Node4</title>
<path fill="none" stroke="#191970" d="M2764.1277,-320.2548C2771.7184,-303.8319 2784.1559,-269.4715 2766.439,-250 2757.9203,-240.6377 2378.4706,-210.7354 2264.4857,-201.9496"/>
<polygon fill="#191970" stroke="#191970" points="2264.544,-198.4438 2254.305,-201.1667 2264.0072,-205.4232 2264.544,-198.4438"/>
</g>
<!-- Node50&#45;&gt;Node5 -->
<g id="edge97" class="edge">
<title>Node50&#45;&gt;Node5</title>
<path fill="none" stroke="#191970" d="M2808.722,-320.4337C2852.4813,-311.4061 2911.9744,-296.4095 2928.439,-279 2953.4007,-252.6056 2947.439,-235.8284 2947.439,-199.5 2947.439,-199.5 2947.439,-199.5 2947.439,-134.5 2947.439,-80.7849 2543.382,-27.3189 2427.916,-13.1367"/>
<polygon fill="#191970" stroke="#191970" points="2428.0159,-9.6231 2417.666,-11.8882 2427.1694,-16.5717 2428.0159,-9.6231"/>
</g>
<!-- Node50&#45;&gt;Node6 -->
<g id="edge101" class="edge">
<title>Node50&#45;&gt;Node6</title>
<path fill="none" stroke="#191970" d="M2697.0074,-320.462C2613.6806,-308.3991 2466.5703,-287.1025 2379.8476,-274.548"/>
<polygon fill="#191970" stroke="#191970" points="2380.2365,-271.0679 2369.8382,-273.099 2379.2336,-277.9957 2380.2365,-271.0679"/>
</g>
<!-- Node50&#45;&gt;Node7 -->
<g id="edge91" class="edge">
<title>Node50&#45;&gt;Node7</title>
<path fill="none" stroke="#191970" d="M2770.4064,-320.3216C2787.9057,-304.5943 2818.3359,-272.0601 2799.439,-250 2782.3816,-230.0875 2622.5041,-212.7528 2533.5241,-204.5471"/>
<polygon fill="#191970" stroke="#191970" points="2533.8409,-201.0615 2523.5645,-203.6394 2533.2056,-208.0327 2533.8409,-201.0615"/>
</g>
<!-- Node50&#45;&gt;Node8 -->
<g id="edge99" class="edge">
<title>Node50&#45;&gt;Node8</title>
<path fill="none" stroke="#191970" d="M2774.098,-320.4283C2796.5748,-305.401 2835.0007,-274.564 2815.439,-250 2773.1692,-196.921 2307.8526,-153.612 2137.4747,-139.4294"/>
<polygon fill="#191970" stroke="#191970" points="2137.6629,-135.9331 2127.4084,-138.5969 2137.0859,-142.9093 2137.6629,-135.9331"/>
</g>
<!-- Node50&#45;&gt;Node17 -->
<g id="edge93" class="edge">
<title>Node50&#45;&gt;Node17</title>
<path fill="none" stroke="#191970" d="M2731.6298,-320.462C2696.5778,-309.0701 2636.1874,-289.4432 2597.0425,-276.7211"/>
<polygon fill="#191970" stroke="#191970" points="2597.9258,-273.3281 2587.3336,-273.5658 2595.7621,-279.9853 2597.9258,-273.3281"/>
</g>
<!-- Node50&#45;&gt;Node49 -->
<g id="edge100" class="edge">
<title>Node50&#45;&gt;Node49</title>
<path fill="none" stroke="#191970" d="M2814.7792,-320.462C2887.4487,-308.5939 3014.8457,-287.7878 3092.1492,-275.1629"/>
<polygon fill="#191970" stroke="#191970" points="3092.944,-278.5796 3102.2491,-273.5134 3091.8157,-271.6711 3092.944,-278.5796"/>
</g>
<!-- Node50&#45;&gt;Node51 -->
<g id="edge94" class="edge">
<title>Node50&#45;&gt;Node51</title>
<path fill="none" stroke="#191970" d="M2750.6791,-320.462C2740.9165,-310.3895 2724.914,-293.879 2712.8148,-281.3957"/>
<polygon fill="#191970" stroke="#191970" points="2715.0054,-278.6269 2705.5324,-273.8821 2709.9789,-283.4988 2715.0054,-278.6269"/>
</g>
<!-- Node52 -->
<g id="node49" class="node">
<title>Node52</title>
<g id="a_node49"><a xlink:title=" ">
<polygon fill="none" stroke="#bfbfbf" points="2889.939,-255.5 2889.939,-273.5 2918.939,-273.5 2918.939,-255.5 2889.939,-255.5"/>
<text text-anchor="middle" x="2904.0498" y="-261.5" font-family="Helvetica,sans-Serif" font-size="10.00" fill="#000000">list</text>
</a>
</g>
</g>
<!-- Node50&#45;&gt;Node52 -->
<g id="edge95" class="edge">
<title>Node50&#45;&gt;Node52</title>
<path fill="none" stroke="#191970" d="M2781.4008,-320.349C2804.8446,-310.4853 2843.0031,-294.1563 2875.439,-279 2877.0517,-278.2464 2878.7086,-277.4577 2880.3741,-276.6541"/>
<polygon fill="#191970" stroke="#191970" points="2882.3368,-279.5888 2889.7595,-272.0288 2879.2424,-273.3099 2882.3368,-279.5888"/>
</g>
<!-- Node53&#45;&gt;Node2 -->
<g id="edge109" class="edge">
<title>Node53&#45;&gt;Node2</title>
<path fill="none" stroke="#191970" d="M3078.0901,-388.4768C3136.5327,-381.6519 3215.1136,-368.1911 3234.439,-344 3260.5147,-311.3589 3254.2907,-286.7599 3234.439,-250 3225.3583,-233.1851 3207.9688,-221.0625 3192.0101,-212.9164"/>
<polygon fill="#191970" stroke="#191970" points="3193.3881,-209.6963 3182.8528,-208.5742 3190.3889,-216.0213 3193.3881,-209.6963"/>
</g>
<!-- Node53&#45;&gt;Node5 -->
<g id="edge110" class="edge">
<title>Node53&#45;&gt;Node5</title>
<path fill="none" stroke="#191970" d="M3078.2004,-387.2172C3140.5794,-379.2695 3228.0776,-364.8346 3255.439,-344 3312.8447,-300.2878 3329.439,-271.6538 3329.439,-199.5 3329.439,-199.5 3329.439,-199.5 3329.439,-134.5 3329.439,-41.3408 2588.5076,-14.9334 2427.9071,-10.3037"/>
<polygon fill="#191970" stroke="#191970" points="2427.8664,-6.8013 2417.7719,-10.0185 2427.6694,-13.7985 2427.8664,-6.8013"/>
</g>
<!-- Node53&#45;&gt;Node9 -->
<g id="edge113" class="edge">
<title>Node53&#45;&gt;Node9</title>
<path fill="none" stroke="#191970" d="M2944.6194,-391.0381C2764.3198,-381.5703 2279.2019,-355.2087 2246.439,-344 2224.6288,-336.5384 2223.9449,-325.5292 2203.439,-315 2162.532,-293.9956 2146.8867,-300.8757 2106.439,-279 2063.6699,-255.8688 2054.1185,-247.0335 2018.439,-214 1975.6825,-174.4144 1932.7486,-121.1186 1910.0119,-91.5659"/>
<polygon fill="#191970" stroke="#191970" points="1912.7385,-89.3695 1903.8887,-83.5443 1907.1743,-93.6168 1912.7385,-89.3695"/>
</g>
<!-- Node53&#45;&gt;Node16 -->
<g id="edge108" class="edge">
<title>Node53&#45;&gt;Node16</title>
<path fill="none" stroke="#191970" d="M3033.5472,-385.462C3057.4932,-375.6728 3096.3141,-359.8026 3126.5101,-347.4583"/>
<polygon fill="#191970" stroke="#191970" points="3128.0492,-350.6104 3135.9812,-343.5865 3125.4003,-344.1309 3128.0492,-350.6104"/>
</g>
<!-- Node53&#45;&gt;Node37 -->
<g id="edge112" class="edge">
<title>Node53&#45;&gt;Node37</title>
<path fill="none" stroke="#191970" d="M2944.699,-390.3702C2807.6549,-381.8692 2484.5982,-361.7236 2213.439,-344 2175.1355,-341.4964 2132.9988,-338.6704 2096.2546,-336.1827"/>
<polygon fill="#191970" stroke="#191970" points="2096.2553,-332.6748 2086.0415,-335.4905 2095.7819,-339.6588 2096.2553,-332.6748"/>
</g>
<!-- Node53&#45;&gt;Node48 -->
<g id="edge111" class="edge">
<title>Node53&#45;&gt;Node48</title>
<path fill="none" stroke="#191970" d="M3011.439,-385.462C3011.439,-376.061 3011.439,-361.0518 3011.439,-348.943"/>
<polygon fill="#191970" stroke="#191970" points="3014.9391,-348.8821 3011.439,-338.8821 3007.9391,-348.8822 3014.9391,-348.8821"/>
</g>
<!-- Node53&#45;&gt;Node49 -->
<g id="edge114" class="edge">
<title>Node53&#45;&gt;Node49</title>
<path fill="none" stroke="#191970" d="M3021.9559,-385.2052C3033.4025,-375.0835 3052.2391,-358.4115 3068.439,-344 3093.0489,-322.1069 3121.4173,-296.7448 3139.3844,-280.6661"/>
<polygon fill="#191970" stroke="#191970" points="3142.1902,-282.852 3147.307,-273.5746 3137.5216,-277.6362 3142.1902,-282.852"/>
</g>
<!-- Node53&#45;&gt;Node50 -->
<g id="edge115" class="edge">
<title>Node53&#45;&gt;Node50</title>
<path fill="none" stroke="#191970" d="M2976.3994,-385.462C2931.4838,-373.8766 2853.5479,-353.7741 2804.3296,-341.0789"/>
<polygon fill="#191970" stroke="#191970" points="2805.1435,-337.6744 2794.5862,-338.5658 2803.3951,-344.4525 2805.1435,-337.6744"/>
</g>
</g>
</svg>
