<?xml version="1.0" encoding="UTF-8" standalone="no"?>
<!DOCTYPE svg PUBLIC "-//W3C//DTD SVG 1.1//EN"
 "http://www.w3.org/Graphics/SVG/1.1/DTD/svg11.dtd">
<!-- Generated by graphviz version 2.40.1 (20161225.0304)
 -->
<!-- Title: /Users/oskryp/Projects/freesee&#45;native&#45;client/libs/fcc_sdk/engine/meetingclient/src/headers/MeetingClient/BroadcastHandler.hxx Pages: 1 -->
<!--zoomable 307 -->
<svg id="main" version="1.1" xmlns="http://www.w3.org/2000/svg" xmlns:xlink="http://www.w3.org/1999/xlink" xml:space="preserve" onload="init(evt)">
<style type="text/css"><![CDATA[
.edge:hover path { stroke: red; }
.edge:hover polygon { stroke: red; fill: red; }
]]></style>
<script type="text/javascript"><![CDATA[
var edges = document.getElementsByTagName('g');
if (edges && edges.length) {
  for (var i=0;i<edges.length;i++) {
    if (edges[i].id.substr(0,4)=='edge') {
      edges[i].setAttribute('class','edge');
    }
  }
}
]]></script>
        <defs>
                <circle id="rim" cx="0" cy="0" r="7"/>
                <circle id="rim2" cx="0" cy="0" r="3.5"/>
                <g id="zoomPlus">
                        <use xlink:href="#rim" fill="#404040">
                                <set attributeName="fill" to="#808080" begin="zoomplus.mouseover" end="zoomplus.mouseout"/>
                        </use>
                        <path d="M-4,0h8M0,-4v8" fill="none" stroke="white" stroke-width="1.5" pointer-events="none"/>
                </g>
                <g id="zoomMin">
                        <use xlink:href="#rim" fill="#404040">
                                <set attributeName="fill" to="#808080" begin="zoomminus.mouseover" end="zoomminus.mouseout"/>
                        </use>
                        <path d="M-4,0h8" fill="none" stroke="white" stroke-width="1.5" pointer-events="none"/>
                </g>
                <g id="dirArrow">
                        <path fill="none" stroke="white" stroke-width="1.5" d="M0,-3.0v7 M-2.5,-0.5L0,-3.0L2.5,-0.5"/>
                </g>
               <g id="resetDef">
                       <use xlink:href="#rim2" fill="#404040">
                               <set attributeName="fill" to="#808080" begin="reset.mouseover" end="reset.mouseout"/>
                       </use>
               </g>
        </defs>

<script type="text/javascript">
var viewWidth = 695;
var viewHeight = 307;
var sectionId = 'dynsection-0';
</script>
<script xlink:href="svgpan.js"/>
<svg id="graph" class="graph">
<g id="viewport">
<title>/Users/oskryp/Projects/freesee&#45;native&#45;client/libs/fcc_sdk/engine/meetingclient/src/headers/MeetingClient/BroadcastHandler.hxx</title>
<!-- Node0 -->
<g id="node1" class="node">
<title>Node0</title>
<g id="a_node1"><a xlink:title=" ">
<polygon fill="#bfbfbf" stroke="#000000" points="93.2021,-250.5 93.2021,-298.5 328.7627,-298.5 328.7627,-250.5 93.2021,-250.5"/>
<text text-anchor="start" x="101.2021" y="-286.5" font-family="Helvetica,sans-Serif" font-size="10.00" fill="#000000">/Users/oskryp/Projects</text>
<text text-anchor="start" x="101.2021" y="-276.5" font-family="Helvetica,sans-Serif" font-size="10.00" fill="#000000">/freesee&#45;native&#45;client</text>
<text text-anchor="start" x="101.2021" y="-266.5" font-family="Helvetica,sans-Serif" font-size="10.00" fill="#000000">/libs/fcc_sdk/engine/meetingclient</text>
<text text-anchor="middle" x="210.9824" y="-256.5" font-family="Helvetica,sans-Serif" font-size="10.00" fill="#000000">/src/headers/MeetingClient/BroadcastHandler.hxx</text>
</a>
</g>
</g>
<!-- Node1 -->
<g id="node2" class="node">
<title>Node1</title>
<g id="a_node2"><a xlink:title=" ">
<polygon fill="none" stroke="#bfbfbf" points="0,-195.5 0,-213.5 109.9648,-213.5 109.9648,-195.5 0,-195.5"/>
<text text-anchor="middle" x="54.9824" y="-201.5" font-family="Helvetica,sans-Serif" font-size="10.00" fill="#000000">boost/shared_ptr.hpp</text>
</a>
</g>
</g>
<!-- Node0&#45;&gt;Node1 -->
<g id="edge1" class="edge">
<title>Node0&#45;&gt;Node1</title>
<path fill="none" stroke="#191970" d="M157.2961,-250.41C132.7965,-239.4166 104.7412,-226.8277 84.2127,-217.6162"/>
<polygon fill="#191970" stroke="#191970" points="85.6263,-214.4143 75.0698,-213.5136 82.7605,-220.8008 85.6263,-214.4143"/>
</g>
<!-- Node2 -->
<g id="node3" class="node">
<title>Node2</title>
<g id="a_node3"><a xlink:title=" ">
<polygon fill="none" stroke="#bfbfbf" points="128.2559,-195.5 128.2559,-213.5 163.709,-213.5 163.709,-195.5 128.2559,-195.5"/>
<text text-anchor="middle" x="145.9824" y="-201.5" font-family="Helvetica,sans-Serif" font-size="10.00" fill="#000000">map</text>
</a>
</g>
</g>
<!-- Node0&#45;&gt;Node2 -->
<g id="edge2" class="edge">
<title>Node0&#45;&gt;Node2</title>
<path fill="none" stroke="#191970" d="M188.6131,-250.41C179.616,-240.7207 169.4679,-229.7921 161.3306,-221.0288"/>
<polygon fill="#191970" stroke="#191970" points="163.8828,-218.6336 154.5134,-213.6872 158.7532,-223.3968 163.8828,-218.6336"/>
</g>
<!-- Node3 -->
<g id="node4" class="node">
<title>Node3</title>
<g id="a_node4"><a xlink:title=" ">
<polygon fill="none" stroke="#bfbfbf" points="258.3667,-135.5 258.3667,-153.5 301.5981,-153.5 301.5981,-135.5 258.3667,-135.5"/>
<text text-anchor="middle" x="279.9824" y="-141.5" font-family="Helvetica,sans-Serif" font-size="10.00" fill="#000000">vector</text>
</a>
</g>
</g>
<!-- Node0&#45;&gt;Node3 -->
<g id="edge3" class="edge">
<title>Node0&#45;&gt;Node3</title>
<path fill="none" stroke="#191970" d="M224.2688,-250.4232C230.3355,-239.3578 237.5798,-226.0432 243.9824,-214 253.2218,-196.6211 263.5304,-176.6594 270.7407,-162.6009"/>
<polygon fill="#191970" stroke="#191970" points="273.9434,-164.0253 275.3836,-153.5288 267.712,-160.8362 273.9434,-164.0253"/>
</g>
<!-- Node4 -->
<g id="node5" class="node">
<title>Node4</title>
<g id="a_node5"><a xlink:title=" ">
<polygon fill="none" stroke="#bfbfbf" points="172.7559,-5.5 172.7559,-23.5 213.209,-23.5 213.209,-5.5 172.7559,-5.5"/>
<text text-anchor="middle" x="192.9824" y="-11.5" font-family="Helvetica,sans-Serif" font-size="10.00" fill="#000000">string</text>
</a>
</g>
</g>
<!-- Node0&#45;&gt;Node4 -->
<g id="edge4" class="edge">
<title>Node0&#45;&gt;Node4</title>
<path fill="none" stroke="#191970" d="M209.289,-250.0398C205.7316,-198.655 197.5447,-80.3996 194.3214,-33.8406"/>
<polygon fill="#191970" stroke="#191970" points="197.8131,-33.5982 193.6307,-23.8638 190.8298,-34.0817 197.8131,-33.5982"/>
</g>
<!-- Node5 -->
<g id="node6" class="node">
<title>Node5</title>
<g id="a_node6"><a xlink:href="_notification_handler_8hxx.html" target="_top" xlink:title=" ">
<polygon fill="none" stroke="#000000" points="308.8423,-195.5 308.8423,-213.5 427.1226,-213.5 427.1226,-195.5 308.8423,-195.5"/>
<text text-anchor="middle" x="367.9824" y="-201.5" font-family="Helvetica,sans-Serif" font-size="10.00" fill="#000000">NotificationHandler.hxx</text>
</a>
</g>
</g>
<!-- Node0&#45;&gt;Node5 -->
<g id="edge5" class="edge">
<title>Node0&#45;&gt;Node5</title>
<path fill="none" stroke="#191970" d="M265.0129,-250.41C289.6695,-239.4166 317.9047,-226.8277 338.5647,-217.6162"/>
<polygon fill="#191970" stroke="#191970" points="340.0583,-220.7825 347.7663,-213.5136 337.2077,-214.3891 340.0583,-220.7825"/>
</g>
<!-- Node8 -->
<g id="node9" class="node">
<title>Node8</title>
<g id="a_node9"><a xlink:href="_common_data_types_8hxx.html" target="_top" xlink:title=" ">
<polygon fill="none" stroke="#000000" points="220.2363,-65.5 220.2363,-93.5 345.7285,-93.5 345.7285,-65.5 220.2363,-65.5"/>
<text text-anchor="start" x="228.2363" y="-81.5" font-family="Helvetica,sans-Serif" font-size="10.00" fill="#000000">MeetingClient/types</text>
<text text-anchor="middle" x="282.9824" y="-71.5" font-family="Helvetica,sans-Serif" font-size="10.00" fill="#000000">/CommonDataTypes.hxx</text>
</a>
</g>
</g>
<!-- Node0&#45;&gt;Node8 -->
<g id="edge15" class="edge">
<title>Node0&#45;&gt;Node8</title>
<path fill="none" stroke="#191970" d="M214.7668,-250.3959C219.9494,-221.0129 230.7524,-170.2954 248.9824,-130 253.3798,-120.2801 259.5952,-110.3742 265.5114,-101.9401"/>
<polygon fill="#191970" stroke="#191970" points="268.4171,-103.8956 271.4797,-93.7531 262.7606,-99.7721 268.4171,-103.8956"/>
</g>
<!-- Node5&#45;&gt;Node3 -->
<g id="edge6" class="edge">
<title>Node5&#45;&gt;Node3</title>
<path fill="none" stroke="#191970" d="M354.6171,-195.3873C340.5803,-185.8168 318.2858,-170.6159 301.7141,-159.3171"/>
<polygon fill="#191970" stroke="#191970" points="303.4192,-156.2435 293.1852,-153.5019 299.4758,-162.0271 303.4192,-156.2435"/>
</g>
<!-- Node6 -->
<g id="node7" class="node">
<title>Node6</title>
<g id="a_node7"><a xlink:title=" ">
<polygon fill="none" stroke="#bfbfbf" points="319.1182,-135.5 319.1182,-153.5 416.8467,-153.5 416.8467,-135.5 319.1182,-135.5"/>
<text text-anchor="middle" x="367.9824" y="-141.5" font-family="Helvetica,sans-Serif" font-size="10.00" fill="#000000">boost/function.hpp</text>
</a>
</g>
</g>
<!-- Node5&#45;&gt;Node6 -->
<g id="edge7" class="edge">
<title>Node5&#45;&gt;Node6</title>
<path fill="none" stroke="#191970" d="M367.9824,-195.3873C367.9824,-187.0174 367.9824,-174.3414 367.9824,-163.735"/>
<polygon fill="#191970" stroke="#191970" points="371.4825,-163.6984 367.9824,-153.6985 364.4825,-163.6985 371.4825,-163.6984"/>
</g>
<!-- Node7 -->
<g id="node8" class="node">
<title>Node7</title>
<g id="a_node8"><a xlink:href="_meeting_types_8hxx.html" target="_top" xlink:title=" ">
<polygon fill="none" stroke="#000000" points="583.0713,-130.5 583.0713,-158.5 686.8936,-158.5 686.8936,-130.5 583.0713,-130.5"/>
<text text-anchor="start" x="591.0713" y="-146.5" font-family="Helvetica,sans-Serif" font-size="10.00" fill="#000000">MeetingClient/types</text>
<text text-anchor="middle" x="634.9824" y="-136.5" font-family="Helvetica,sans-Serif" font-size="10.00" fill="#000000">/MeetingTypes.hxx</text>
</a>
</g>
</g>
<!-- Node5&#45;&gt;Node7 -->
<g id="edge8" class="edge">
<title>Node5&#45;&gt;Node7</title>
<path fill="none" stroke="#191970" d="M410.4601,-195.4328C450.2182,-186.8857 511.5324,-173.5512 573.0862,-159.4159"/>
<polygon fill="#191970" stroke="#191970" points="574.0046,-162.7961 582.964,-157.141 572.4336,-155.9746 574.0046,-162.7961"/>
</g>
<!-- Node12 -->
<g id="node13" class="node">
<title>Node12</title>
<g id="a_node13"><a xlink:href="macros_8hxx.html" target="_top" xlink:title=" ">
<polygon fill="none" stroke="#000000" points="434.4604,-135.5 434.4604,-153.5 565.5044,-153.5 565.5044,-135.5 434.4604,-135.5"/>
<text text-anchor="middle" x="499.9824" y="-141.5" font-family="Helvetica,sans-Serif" font-size="10.00" fill="#000000">MeetingClient/macros.hxx</text>
</a>
</g>
</g>
<!-- Node5&#45;&gt;Node12 -->
<g id="edge14" class="edge">
<title>Node5&#45;&gt;Node12</title>
<path fill="none" stroke="#191970" d="M388.0304,-195.3873C410.0603,-185.3737 445.6504,-169.1964 470.78,-157.7738"/>
<polygon fill="#191970" stroke="#191970" points="472.523,-160.8262 480.1783,-153.5019 469.6263,-154.4537 472.523,-160.8262"/>
</g>
<!-- Node7&#45;&gt;Node8 -->
<g id="edge9" class="edge">
<title>Node7&#45;&gt;Node8</title>
<path fill="none" stroke="#191970" d="M582.9956,-131.7148C580.2892,-131.1187 577.6059,-130.5432 574.9824,-130 500.6902,-114.6162 415.0947,-100.1985 355.871,-90.7387"/>
<polygon fill="#191970" stroke="#191970" points="356.2902,-87.2615 345.8646,-89.1475 355.1908,-94.1746 356.2902,-87.2615"/>
</g>
<!-- Node10 -->
<g id="node11" class="node">
<title>Node10</title>
<g id="a_node11"><a xlink:href="strong__identity_8hxx.html" target="_top" xlink:title=" ">
<polygon fill="none" stroke="#000000" points="584.2725,-65.5 584.2725,-93.5 685.6924,-93.5 685.6924,-65.5 584.2725,-65.5"/>
<text text-anchor="start" x="592.2725" y="-81.5" font-family="Helvetica,sans-Serif" font-size="10.00" fill="#000000">MeetingClient/utils</text>
<text text-anchor="middle" x="634.9824" y="-71.5" font-family="Helvetica,sans-Serif" font-size="10.00" fill="#000000">/strong_identity.hxx</text>
</a>
</g>
</g>
<!-- Node7&#45;&gt;Node10 -->
<g id="edge12" class="edge">
<title>Node7&#45;&gt;Node10</title>
<path fill="none" stroke="#191970" d="M634.9824,-130.396C634.9824,-122.6448 634.9824,-112.8122 634.9824,-103.8601"/>
<polygon fill="#191970" stroke="#191970" points="638.4825,-103.5765 634.9824,-93.5765 631.4825,-103.5765 638.4825,-103.5765"/>
</g>
<!-- Node8&#45;&gt;Node4 -->
<g id="edge10" class="edge">
<title>Node8&#45;&gt;Node4</title>
<path fill="none" stroke="#191970" d="M263.4538,-65.396C248.76,-54.7838 228.6638,-40.2699 213.691,-29.4562"/>
<polygon fill="#191970" stroke="#191970" points="215.7029,-26.5919 205.5468,-23.5743 211.6044,-32.2666 215.7029,-26.5919"/>
</g>
<!-- Node9 -->
<g id="node10" class="node">
<title>Node9</title>
<g id="a_node10"><a xlink:title=" ">
<polygon fill="none" stroke="#bfbfbf" points="232.187,-5.5 232.187,-23.5 333.7778,-23.5 333.7778,-5.5 232.187,-5.5"/>
<text text-anchor="middle" x="282.9824" y="-11.5" font-family="Helvetica,sans-Serif" font-size="10.00" fill="#000000">CommonTypes.hxx</text>
</a>
</g>
</g>
<!-- Node8&#45;&gt;Node9 -->
<g id="edge11" class="edge">
<title>Node8&#45;&gt;Node9</title>
<path fill="none" stroke="#191970" d="M282.9824,-65.396C282.9824,-56.1723 282.9824,-44.0011 282.9824,-33.8738"/>
<polygon fill="#191970" stroke="#191970" points="286.4825,-33.5743 282.9824,-23.5743 279.4825,-33.5743 286.4825,-33.5743"/>
</g>
<!-- Node11 -->
<g id="node12" class="node">
<title>Node11</title>
<g id="a_node12"><a xlink:title=" ">
<polygon fill="none" stroke="#bfbfbf" points="582.7832,-.5 582.7832,-28.5 687.1816,-28.5 687.1816,-.5 582.7832,-.5"/>
<text text-anchor="start" x="590.7832" y="-16.5" font-family="Helvetica,sans-Serif" font-size="10.00" fill="#000000">boost/serialization</text>
<text text-anchor="middle" x="634.9824" y="-6.5" font-family="Helvetica,sans-Serif" font-size="10.00" fill="#000000">/strong_typedef.hpp</text>
</a>
</g>
</g>
<!-- Node10&#45;&gt;Node11 -->
<g id="edge13" class="edge">
<title>Node10&#45;&gt;Node11</title>
<path fill="none" stroke="#191970" d="M634.9824,-65.396C634.9824,-57.6448 634.9824,-47.8122 634.9824,-38.8601"/>
<polygon fill="#191970" stroke="#191970" points="638.4825,-38.5765 634.9824,-28.5765 631.4825,-38.5765 638.4825,-38.5765"/>
</g>
</g>
</svg>
        <g id="navigator" transform="translate(0 0)" fill="#404254">
                <rect fill="#f2f5e9" fill-opacity="0.5" stroke="#606060" stroke-width=".5" x="0" y="0" width="60" height="60"/>
                <use id="zoomplus" xlink:href="#zoomPlus" x="17" y="9" onmousedown="handleZoom(evt,'in')"/>
                <use id="zoomminus" xlink:href="#zoomMin" x="42" y="9" onmousedown="handleZoom(evt,'out')"/>
                <use id="reset" xlink:href="#resetDef" x="30" y="36" onmousedown="handleReset()"/>
                <g id="arrowUp" xlink:href="#dirArrow" transform="translate(30 24)" onmousedown="handlePan(0,-1)">
                  <use xlink:href="#rim" fill="#404040">
                        <set attributeName="fill" to="#808080" begin="arrowUp.mouseover" end="arrowUp.mouseout"/>
                  </use>
                  <path fill="none" stroke="white" stroke-width="1.5" d="M0,-3.0v7 M-2.5,-0.5L0,-3.0L2.5,-0.5"/>
                </g>
                <g id="arrowRight" xlink:href="#dirArrow" transform="rotate(90) translate(36 -43)" onmousedown="handlePan(1,0)">
                  <use xlink:href="#rim" fill="#404040">
                        <set attributeName="fill" to="#808080" begin="arrowRight.mouseover" end="arrowRight.mouseout"/>
                  </use>
                  <path fill="none" stroke="white" stroke-width="1.5" d="M0,-3.0v7 M-2.5,-0.5L0,-3.0L2.5,-0.5"/>
                </g>
                <g id="arrowDown" xlink:href="#dirArrow" transform="rotate(180) translate(-30 -48)" onmousedown="handlePan(0,1)">
                  <use xlink:href="#rim" fill="#404040">
                        <set attributeName="fill" to="#808080" begin="arrowDown.mouseover" end="arrowDown.mouseout"/>
                  </use>
                  <path fill="none" stroke="white" stroke-width="1.5" d="M0,-3.0v7 M-2.5,-0.5L0,-3.0L2.5,-0.5"/>
                </g>
                <g id="arrowLeft" xlink:href="#dirArrow" transform="rotate(270) translate(-36 17)" onmousedown="handlePan(-1,0)">
                  <use xlink:href="#rim" fill="#404040">
                        <set attributeName="fill" to="#808080" begin="arrowLeft.mouseover" end="arrowLeft.mouseout"/>
                  </use>
                  <path fill="none" stroke="white" stroke-width="1.5" d="M0,-3.0v7 M-2.5,-0.5L0,-3.0L2.5,-0.5"/>
                </g>
        </g>
        <svg viewBox="0 0 15 15" width="100%" height="30px" preserveAspectRatio="xMaxYMin meet">
         <g id="arrow_out" transform="scale(0.3 0.3)">
          <a xlink:href="_broadcast_handler_8hxx__incl_org.svg" target="_base">
           <rect id="button" ry="5" rx="5" y="6" x="6" height="38" width="38"
                fill="#f2f5e9" fill-opacity="0.5" stroke="#606060" stroke-width="1.0"/>
           <path id="arrow"
             d="M 11.500037,31.436501 C 11.940474,20.09759 22.043105,11.32322 32.158766,21.979434 L 37.068811,17.246167 C 37.068811,17.246167 37.088388,32 37.088388,32 L 22.160133,31.978069 C 22.160133,31.978069 26.997745,27.140456 26.997745,27.140456 C 18.528582,18.264221 13.291696,25.230495 11.500037,31.436501 z"
             style="fill:#404040;"/>
          </a>
         </g>
        </svg>
</svg>
