<?xml version="1.0" encoding="UTF-8" standalone="no"?>
<!DOCTYPE svg PUBLIC "-//W3C//DTD SVG 1.1//EN"
 "http://www.w3.org/Graphics/SVG/1.1/DTD/svg11.dtd">
<!-- Generated by graphviz version 2.40.1 (20161225.0304)
 -->
<!-- Title: /Users/oskryp/Projects/freesee&#45;native&#45;client/libs/fcc_sdk/engine/meetingclient/src/headers/MeetingClient/ChatController.hxx Pages: 1 -->
<svg width="905pt" height="142pt"
 viewBox="0.00 0.00 904.97 142.00" xmlns="http://www.w3.org/2000/svg" xmlns:xlink="http://www.w3.org/1999/xlink">
<g id="graph0" class="graph" transform="scale(1 1) rotate(0) translate(4 138)">
<title>/Users/oskryp/Projects/freesee&#45;native&#45;client/libs/fcc_sdk/engine/meetingclient/src/headers/MeetingClient/ChatController.hxx</title>
<!-- Node23 -->
<g id="node1" class="node">
<title>Node23</title>
<g id="a_node1"><a xlink:title=" ">
<polygon fill="#bfbfbf" stroke="#000000" points="338.4902,-85.5 338.4902,-133.5 558.4795,-133.5 558.4795,-85.5 338.4902,-85.5"/>
<text text-anchor="start" x="346.4902" y="-121.5" font-family="Helvetica,sans-Serif" font-size="10.00" fill="#000000">/Users/oskryp/Projects</text>
<text text-anchor="start" x="346.4902" y="-111.5" font-family="Helvetica,sans-Serif" font-size="10.00" fill="#000000">/freesee&#45;native&#45;client</text>
<text text-anchor="start" x="346.4902" y="-101.5" font-family="Helvetica,sans-Serif" font-size="10.00" fill="#000000">/libs/fcc_sdk/engine/meetingclient</text>
<text text-anchor="middle" x="448.4849" y="-91.5" font-family="Helvetica,sans-Serif" font-size="10.00" fill="#000000">/src/headers/MeetingClient/ChatController.hxx</text>
</a>
</g>
</g>
<!-- Node24 -->
<g id="node2" class="node">
<title>Node24</title>
<g id="a_node2"><a xlink:href="_basic_handler_8cxx.html" target="_top" xlink:title=" ">
<polygon fill="none" stroke="#000000" points="0,-.5 0,-48.5 164.9697,-48.5 164.9697,-.5 0,-.5"/>
<text text-anchor="start" x="8" y="-36.5" font-family="Helvetica,sans-Serif" font-size="10.00" fill="#000000">/Users/oskryp/Projects</text>
<text text-anchor="start" x="8" y="-26.5" font-family="Helvetica,sans-Serif" font-size="10.00" fill="#000000">/freesee&#45;native&#45;client</text>
<text text-anchor="start" x="8" y="-16.5" font-family="Helvetica,sans-Serif" font-size="10.00" fill="#000000">/libs/fcc_sdk/engine/meetingclient</text>
<text text-anchor="middle" x="82.4849" y="-6.5" font-family="Helvetica,sans-Serif" font-size="10.00" fill="#000000">/src/BasicHandler.cxx</text>
</a>
</g>
</g>
<!-- Node23&#45;&gt;Node24 -->
<g id="edge1" class="edge">
<title>Node23&#45;&gt;Node24</title>
<path fill="none" stroke="#191970" d="M328.4392,-84.1622C280.4516,-73.7291 224.7451,-61.2351 174.4849,-49 171.4335,-48.2572 168.3283,-47.4897 165.194,-46.7052"/>
<polygon fill="#191970" stroke="#191970" points="327.7284,-87.5894 338.2431,-86.2885 329.2121,-80.7484 327.7284,-87.5894"/>
</g>
<!-- Node25 -->
<g id="node3" class="node">
<title>Node25</title>
<g id="a_node3"><a xlink:href="_chat_controller_8cxx.html" target="_top" xlink:title=" ">
<polygon fill="none" stroke="#000000" points="183,-.5 183,-48.5 347.9697,-48.5 347.9697,-.5 183,-.5"/>
<text text-anchor="start" x="191" y="-36.5" font-family="Helvetica,sans-Serif" font-size="10.00" fill="#000000">/Users/oskryp/Projects</text>
<text text-anchor="start" x="191" y="-26.5" font-family="Helvetica,sans-Serif" font-size="10.00" fill="#000000">/freesee&#45;native&#45;client</text>
<text text-anchor="start" x="191" y="-16.5" font-family="Helvetica,sans-Serif" font-size="10.00" fill="#000000">/libs/fcc_sdk/engine/meetingclient</text>
<text text-anchor="middle" x="265.4849" y="-6.5" font-family="Helvetica,sans-Serif" font-size="10.00" fill="#000000">/src/ChatController.cxx</text>
</a>
</g>
</g>
<!-- Node23&#45;&gt;Node25 -->
<g id="edge2" class="edge">
<title>Node23&#45;&gt;Node25</title>
<path fill="none" stroke="#191970" d="M387.3182,-81.0893C364.5929,-70.5338 339.0528,-58.6709 317.2488,-48.5433"/>
<polygon fill="#191970" stroke="#191970" points="385.9901,-84.3314 396.5339,-85.3698 388.9389,-77.9829 385.9901,-84.3314"/>
</g>
<!-- Node26 -->
<g id="node4" class="node">
<title>Node26</title>
<g id="a_node4"><a xlink:href="_meeting_client_8cxx.html" target="_top" xlink:title=" ">
<polygon fill="none" stroke="#000000" points="366,-.5 366,-48.5 530.9697,-48.5 530.9697,-.5 366,-.5"/>
<text text-anchor="start" x="374" y="-36.5" font-family="Helvetica,sans-Serif" font-size="10.00" fill="#000000">/Users/oskryp/Projects</text>
<text text-anchor="start" x="374" y="-26.5" font-family="Helvetica,sans-Serif" font-size="10.00" fill="#000000">/freesee&#45;native&#45;client</text>
<text text-anchor="start" x="374" y="-16.5" font-family="Helvetica,sans-Serif" font-size="10.00" fill="#000000">/libs/fcc_sdk/engine/meetingclient</text>
<text text-anchor="middle" x="448.4849" y="-6.5" font-family="Helvetica,sans-Serif" font-size="10.00" fill="#000000">/src/MeetingClient.cxx</text>
</a>
</g>
</g>
<!-- Node23&#45;&gt;Node26 -->
<g id="edge3" class="edge">
<title>Node23&#45;&gt;Node26</title>
<path fill="none" stroke="#191970" d="M448.4849,-75.2518C448.4849,-66.3524 448.4849,-56.951 448.4849,-48.6906"/>
<polygon fill="#191970" stroke="#191970" points="444.985,-75.3697 448.4849,-85.3698 451.985,-75.3698 444.985,-75.3697"/>
</g>
<!-- Node27 -->
<g id="node5" class="node">
<title>Node27</title>
<g id="a_node5"><a xlink:href="_meeting_client_session_8cxx.html" target="_top" xlink:title=" ">
<polygon fill="none" stroke="#000000" points="549,-.5 549,-48.5 713.9697,-48.5 713.9697,-.5 549,-.5"/>
<text text-anchor="start" x="557" y="-36.5" font-family="Helvetica,sans-Serif" font-size="10.00" fill="#000000">/Users/oskryp/Projects</text>
<text text-anchor="start" x="557" y="-26.5" font-family="Helvetica,sans-Serif" font-size="10.00" fill="#000000">/freesee&#45;native&#45;client</text>
<text text-anchor="start" x="557" y="-16.5" font-family="Helvetica,sans-Serif" font-size="10.00" fill="#000000">/libs/fcc_sdk/engine/meetingclient</text>
<text text-anchor="middle" x="631.4849" y="-6.5" font-family="Helvetica,sans-Serif" font-size="10.00" fill="#000000">/src/MeetingClientSession.cxx</text>
</a>
</g>
</g>
<!-- Node23&#45;&gt;Node27 -->
<g id="edge4" class="edge">
<title>Node23&#45;&gt;Node27</title>
<path fill="none" stroke="#191970" d="M509.6515,-81.0893C532.3768,-70.5338 557.917,-58.6709 579.721,-48.5433"/>
<polygon fill="#191970" stroke="#191970" points="508.0308,-77.9829 500.4358,-85.3698 510.9797,-84.3314 508.0308,-77.9829"/>
</g>
<!-- Node28 -->
<g id="node6" class="node">
<title>Node28</title>
<g id="a_node6"><a xlink:href="_r_t_notifications_controller_8cxx.html" target="_top" xlink:title=" ">
<polygon fill="none" stroke="#000000" points="732,-.5 732,-48.5 896.9697,-48.5 896.9697,-.5 732,-.5"/>
<text text-anchor="start" x="740" y="-36.5" font-family="Helvetica,sans-Serif" font-size="10.00" fill="#000000">/Users/oskryp/Projects</text>
<text text-anchor="start" x="740" y="-26.5" font-family="Helvetica,sans-Serif" font-size="10.00" fill="#000000">/freesee&#45;native&#45;client</text>
<text text-anchor="start" x="740" y="-16.5" font-family="Helvetica,sans-Serif" font-size="10.00" fill="#000000">/libs/fcc_sdk/engine/meetingclient</text>
<text text-anchor="middle" x="814.4849" y="-6.5" font-family="Helvetica,sans-Serif" font-size="10.00" fill="#000000">/src/RTNotificationsController.cxx</text>
</a>
</g>
</g>
<!-- Node23&#45;&gt;Node28 -->
<g id="edge5" class="edge">
<title>Node23&#45;&gt;Node28</title>
<path fill="none" stroke="#191970" d="M568.5306,-84.1622C616.5181,-73.7291 672.2246,-61.2351 722.4849,-49 725.5362,-48.2572 728.6415,-47.4897 731.7757,-46.7052"/>
<polygon fill="#191970" stroke="#191970" points="567.7576,-80.7484 558.7267,-86.2885 569.2413,-87.5894 567.7576,-80.7484"/>
</g>
</g>
</svg>
