<?xml version="1.0" encoding="UTF-8" standalone="no"?>
<!DOCTYPE svg PUBLIC "-//W3C//DTD SVG 1.1//EN"
 "http://www.w3.org/Graphics/SVG/1.1/DTD/svg11.dtd">
<!-- Generated by graphviz version 2.40.1 (20161225.0304)
 -->
<!-- Title: /Users/oskryp/Projects/freesee&#45;native&#45;client/libs/fcc_sdk/engine/meetingclient/src/headers/MeetingClient/ChatController.hxx Pages: 1 -->
<svg width="1360pt" height="447pt"
 viewBox="0.00 0.00 1359.91 447.00" xmlns="http://www.w3.org/2000/svg" xmlns:xlink="http://www.w3.org/1999/xlink">
<g id="graph0" class="graph" transform="scale(1 1) rotate(0) translate(4 443)">
<title>/Users/oskryp/Projects/freesee&#45;native&#45;client/libs/fcc_sdk/engine/meetingclient/src/headers/MeetingClient/ChatController.hxx</title>
<!-- Node0 -->
<g id="node1" class="node">
<title>Node0</title>
<g id="a_node1"><a xlink:title=" ">
<polygon fill="#bfbfbf" stroke="#000000" points="171.7095,-390.5 171.7095,-438.5 391.6987,-438.5 391.6987,-390.5 171.7095,-390.5"/>
<text text-anchor="start" x="179.7095" y="-426.5" font-family="Helvetica,sans-Serif" font-size="10.00" fill="#000000">/Users/oskryp/Projects</text>
<text text-anchor="start" x="179.7095" y="-416.5" font-family="Helvetica,sans-Serif" font-size="10.00" fill="#000000">/freesee&#45;native&#45;client</text>
<text text-anchor="start" x="179.7095" y="-406.5" font-family="Helvetica,sans-Serif" font-size="10.00" fill="#000000">/libs/fcc_sdk/engine/meetingclient</text>
<text text-anchor="middle" x="281.7041" y="-396.5" font-family="Helvetica,sans-Serif" font-size="10.00" fill="#000000">/src/headers/MeetingClient/ChatController.hxx</text>
</a>
</g>
</g>
<!-- Node1 -->
<g id="node2" class="node">
<title>Node1</title>
<g id="a_node2"><a xlink:title=" ">
<polygon fill="none" stroke="#bfbfbf" points="0,-325.5 0,-353.5 109.4082,-353.5 109.4082,-325.5 0,-325.5"/>
<text text-anchor="start" x="8" y="-341.5" font-family="Helvetica,sans-Serif" font-size="10.00" fill="#000000">boost/enable_shared</text>
<text text-anchor="middle" x="54.7041" y="-331.5" font-family="Helvetica,sans-Serif" font-size="10.00" fill="#000000">_from_this.hpp</text>
</a>
</g>
</g>
<!-- Node0&#45;&gt;Node1 -->
<g id="edge1" class="edge">
<title>Node0&#45;&gt;Node1</title>
<path fill="none" stroke="#191970" d="M208.9432,-390.4601C175.7105,-379.4801 137.1051,-366.725 106.8308,-356.7225"/>
<polygon fill="#191970" stroke="#191970" points="107.9047,-353.3913 97.3115,-353.5773 105.7087,-360.0379 107.9047,-353.3913"/>
</g>
<!-- Node2 -->
<g id="node3" class="node">
<title>Node2</title>
<g id="a_node3"><a xlink:title=" ">
<polygon fill="none" stroke="#bfbfbf" points="130.7217,-265.5 130.7217,-283.5 240.6865,-283.5 240.6865,-265.5 130.7217,-265.5"/>
<text text-anchor="middle" x="185.7041" y="-271.5" font-family="Helvetica,sans-Serif" font-size="10.00" fill="#000000">boost/shared_ptr.hpp</text>
</a>
</g>
</g>
<!-- Node0&#45;&gt;Node2 -->
<g id="edge2" class="edge">
<title>Node0&#45;&gt;Node2</title>
<path fill="none" stroke="#191970" d="M198.6125,-390.3668C182.0014,-381.6212 166.6295,-369.8308 156.7041,-354 144.343,-334.2843 158.3792,-308.5323 170.8799,-291.7607"/>
<polygon fill="#191970" stroke="#191970" points="173.653,-293.8967 177.1291,-283.8884 168.1704,-289.5446 173.653,-293.8967"/>
</g>
<!-- Node3 -->
<g id="node4" class="node">
<title>Node3</title>
<g id="a_node4"><a xlink:title=" ">
<polygon fill="none" stroke="#bfbfbf" points="310.4775,-5.5 310.4775,-23.5 350.9307,-23.5 350.9307,-5.5 310.4775,-5.5"/>
<text text-anchor="middle" x="330.7041" y="-11.5" font-family="Helvetica,sans-Serif" font-size="10.00" fill="#000000">string</text>
</a>
</g>
</g>
<!-- Node0&#45;&gt;Node3 -->
<g id="edge3" class="edge">
<title>Node0&#45;&gt;Node3</title>
<path fill="none" stroke="#191970" d="M295.5877,-390.0774C309.7639,-362.7997 329.7041,-316.8958 329.7041,-274.5 329.7041,-274.5 329.7041,-274.5 329.7041,-144.5 329.7041,-105.1592 330.1677,-59.1237 330.4636,-33.7482"/>
<polygon fill="#191970" stroke="#191970" points="333.9645,-33.6827 330.5855,-23.6412 326.965,-33.5983 333.9645,-33.6827"/>
</g>
<!-- Node4 -->
<g id="node5" class="node">
<title>Node4</title>
<g id="a_node5"><a xlink:href="_i_chat_notifications_delegate_8hxx.html" target="_top" xlink:title=" ">
<polygon fill="none" stroke="#000000" points="620.6157,-325.5 620.6157,-353.5 762.7925,-353.5 762.7925,-325.5 620.6157,-325.5"/>
<text text-anchor="start" x="628.6157" y="-341.5" font-family="Helvetica,sans-Serif" font-size="10.00" fill="#000000">Delegates/IChatNotifications</text>
<text text-anchor="middle" x="691.7041" y="-331.5" font-family="Helvetica,sans-Serif" font-size="10.00" fill="#000000">Delegate.hxx</text>
</a>
</g>
</g>
<!-- Node0&#45;&gt;Node4 -->
<g id="edge4" class="edge">
<title>Node0&#45;&gt;Node4</title>
<path fill="none" stroke="#191970" d="M391.8462,-394.3521C460.599,-381.7753 547.613,-365.8581 610.1753,-354.4138"/>
<polygon fill="#191970" stroke="#191970" points="611.1822,-357.7878 620.3891,-352.5454 609.9225,-350.902 611.1822,-357.7878"/>
</g>
<!-- Node13 -->
<g id="node14" class="node">
<title>Node13</title>
<g id="a_node14"><a xlink:href="_common_data_types_8hxx.html" target="_top" xlink:title=" ">
<polygon fill="none" stroke="#000000" points="357.958,-65.5 357.958,-93.5 483.4502,-93.5 483.4502,-65.5 357.958,-65.5"/>
<text text-anchor="start" x="365.958" y="-81.5" font-family="Helvetica,sans-Serif" font-size="10.00" fill="#000000">MeetingClient/types</text>
<text text-anchor="middle" x="420.7041" y="-71.5" font-family="Helvetica,sans-Serif" font-size="10.00" fill="#000000">/CommonDataTypes.hxx</text>
</a>
</g>
</g>
<!-- Node0&#45;&gt;Node13 -->
<g id="edge24" class="edge">
<title>Node0&#45;&gt;Node13</title>
<path fill="none" stroke="#191970" d="M312.4191,-390.2753C323.6098,-380.1039 335.512,-367.5003 343.7041,-354 362.8511,-322.4466 367.7041,-311.4083 367.7041,-274.5 367.7041,-274.5 367.7041,-274.5 367.7041,-209.5 367.7041,-169.3416 389.6589,-127.025 405.3076,-101.9636"/>
<polygon fill="#191970" stroke="#191970" points="408.257,-103.848 410.7352,-93.5471 402.3741,-100.0542 408.257,-103.848"/>
</g>
<!-- Node22 -->
<g id="node23" class="node">
<title>Node22</title>
<g id="a_node23"><a xlink:href="_meeting_controller_base_8hxx.html" target="_top" xlink:title=" ">
<polygon fill="none" stroke="#000000" points="165.6748,-330.5 165.6748,-348.5 301.7334,-348.5 301.7334,-330.5 165.6748,-330.5"/>
<text text-anchor="middle" x="233.7041" y="-336.5" font-family="Helvetica,sans-Serif" font-size="10.00" fill="#000000">MeetingControllerBase.hxx</text>
</a>
</g>
</g>
<!-- Node0&#45;&gt;Node22 -->
<g id="edge25" class="edge">
<title>Node0&#45;&gt;Node22</title>
<path fill="none" stroke="#191970" d="M266.2524,-390.3567C259.3572,-379.5829 251.3791,-367.1172 245.0474,-357.2239"/>
<polygon fill="#191970" stroke="#191970" points="247.9089,-355.202 239.5703,-348.666 242.013,-358.9754 247.9089,-355.202"/>
</g>
<!-- Node5 -->
<g id="node6" class="node">
<title>Node5</title>
<g id="a_node6"><a xlink:href="_notifications_8hxx.html" target="_top" xlink:title=" ">
<polygon fill="none" stroke="#000000" points="782.229,-260.5 782.229,-288.5 907.1792,-288.5 907.1792,-260.5 782.229,-260.5"/>
<text text-anchor="start" x="790.229" y="-276.5" font-family="Helvetica,sans-Serif" font-size="10.00" fill="#000000">MeetingClient/Delegates</text>
<text text-anchor="middle" x="844.7041" y="-266.5" font-family="Helvetica,sans-Serif" font-size="10.00" fill="#000000">/Notifications.hxx</text>
</a>
</g>
</g>
<!-- Node4&#45;&gt;Node5 -->
<g id="edge5" class="edge">
<title>Node4&#45;&gt;Node5</title>
<path fill="none" stroke="#191970" d="M724.9028,-325.396C747.5586,-315.7709 777.7696,-302.9362 802.1849,-292.5637"/>
<polygon fill="#191970" stroke="#191970" points="803.7349,-295.708 811.5702,-288.5765 800.9977,-289.2653 803.7349,-295.708"/>
</g>
<!-- Node6 -->
<g id="node7" class="node">
<title>Node6</title>
<g id="a_node7"><a xlink:title=" ">
<polygon fill="none" stroke="#bfbfbf" points="1169.064,-195.5 1169.064,-223.5 1282.3442,-223.5 1282.3442,-195.5 1169.064,-195.5"/>
<text text-anchor="start" x="1177.064" y="-211.5" font-family="Helvetica,sans-Serif" font-size="10.00" fill="#000000">boost/date_time/posix</text>
<text text-anchor="middle" x="1225.7041" y="-201.5" font-family="Helvetica,sans-Serif" font-size="10.00" fill="#000000">_time/posix_time.hpp</text>
</a>
</g>
</g>
<!-- Node5&#45;&gt;Node6 -->
<g id="edge6" class="edge">
<title>Node5&#45;&gt;Node6</title>
<path fill="none" stroke="#191970" d="M907.2567,-265.6534C968.9658,-256.6658 1066.1959,-241.8097 1159.1727,-224.2333"/>
<polygon fill="#191970" stroke="#191970" points="1159.8573,-227.666 1169.0261,-222.3572 1158.5479,-220.7895 1159.8573,-227.666"/>
</g>
<!-- Node7 -->
<g id="node8" class="node">
<title>Node7</title>
<g id="a_node8"><a xlink:title=" ">
<polygon fill="none" stroke="#bfbfbf" points="1299.9775,-200.5 1299.9775,-218.5 1335.4307,-218.5 1335.4307,-200.5 1299.9775,-200.5"/>
<text text-anchor="middle" x="1317.7041" y="-206.5" font-family="Helvetica,sans-Serif" font-size="10.00" fill="#000000">map</text>
</a>
</g>
</g>
<!-- Node5&#45;&gt;Node7 -->
<g id="edge7" class="edge">
<title>Node5&#45;&gt;Node7</title>
<path fill="none" stroke="#191970" d="M907.3488,-270.4821C1012.946,-263.1996 1221.7122,-246.4677 1291.7041,-224 1292.7375,-223.6683 1293.7764,-223.2934 1294.8128,-222.8847"/>
<polygon fill="#191970" stroke="#191970" points="1296.36,-226.0244 1303.863,-218.544 1293.3329,-219.7128 1296.36,-226.0244"/>
</g>
<!-- Node8 -->
<g id="node9" class="node">
<title>Node8</title>
<g id="a_node9"><a xlink:title=" ">
<polygon fill="none" stroke="#bfbfbf" points="396.0884,-200.5 396.0884,-218.5 439.3198,-218.5 439.3198,-200.5 396.0884,-200.5"/>
<text text-anchor="middle" x="417.7041" y="-206.5" font-family="Helvetica,sans-Serif" font-size="10.00" fill="#000000">vector</text>
</a>
</g>
</g>
<!-- Node5&#45;&gt;Node8 -->
<g id="edge8" class="edge">
<title>Node5&#45;&gt;Node8</title>
<path fill="none" stroke="#191970" d="M781.921,-269.0053C686.2976,-260.2153 508.8188,-242.1293 447.7041,-224 446.283,-223.5784 444.8457,-223.096 443.4099,-222.569"/>
<polygon fill="#191970" stroke="#191970" points="444.711,-219.319 434.1392,-218.6203 441.9679,-225.7591 444.711,-219.319"/>
</g>
<!-- Node9 -->
<g id="node10" class="node">
<title>Node9</title>
<g id="a_node10"><a xlink:title=" ">
<polygon fill="none" stroke="#bfbfbf" points="457.0171,-200.5 457.0171,-218.5 546.3911,-218.5 546.3911,-200.5 457.0171,-200.5"/>
<text text-anchor="middle" x="501.7041" y="-206.5" font-family="Helvetica,sans-Serif" font-size="10.00" fill="#000000">FSSnapshot.hxx</text>
</a>
</g>
</g>
<!-- Node5&#45;&gt;Node9 -->
<g id="edge9" class="edge">
<title>Node5&#45;&gt;Node9</title>
<path fill="none" stroke="#191970" d="M782.1404,-265.3576C723.1786,-256.3284 632.5109,-241.377 554.7041,-224 550.7836,-223.1244 546.7189,-222.1446 542.6635,-221.1184"/>
<polygon fill="#191970" stroke="#191970" points="543.2498,-217.654 532.6892,-218.5054 541.4758,-224.4255 543.2498,-217.654"/>
</g>
<!-- Node10 -->
<g id="node11" class="node">
<title>Node10</title>
<g id="a_node11"><a xlink:href="macros_8hxx.html" target="_top" xlink:title=" ">
<polygon fill="none" stroke="#000000" points="564.1821,-200.5 564.1821,-218.5 695.2261,-218.5 695.2261,-200.5 564.1821,-200.5"/>
<text text-anchor="middle" x="629.7041" y="-206.5" font-family="Helvetica,sans-Serif" font-size="10.00" fill="#000000">MeetingClient/macros.hxx</text>
</a>
</g>
</g>
<!-- Node5&#45;&gt;Node10 -->
<g id="edge10" class="edge">
<title>Node5&#45;&gt;Node10</title>
<path fill="none" stroke="#191970" d="M798.317,-260.476C759.8396,-248.8433 705.7206,-232.4817 669.2648,-221.4602"/>
<polygon fill="#191970" stroke="#191970" points="670.0635,-218.0453 659.4785,-218.5016 668.0377,-224.7458 670.0635,-218.0453"/>
</g>
<!-- Node11 -->
<g id="node12" class="node">
<title>Node11</title>
<g id="a_node12"><a xlink:href="_f_s_base_8hxx.html" target="_top" xlink:title=" ">
<polygon fill="none" stroke="#000000" points="713.0122,-195.5 713.0122,-223.5 832.396,-223.5 832.396,-195.5 713.0122,-195.5"/>
<text text-anchor="start" x="721.0122" y="-211.5" font-family="Helvetica,sans-Serif" font-size="10.00" fill="#000000">MeetingClient/transport</text>
<text text-anchor="middle" x="772.7041" y="-201.5" font-family="Helvetica,sans-Serif" font-size="10.00" fill="#000000">/FSBase.hxx</text>
</a>
</g>
</g>
<!-- Node5&#45;&gt;Node11 -->
<g id="edge11" class="edge">
<title>Node5&#45;&gt;Node11</title>
<path fill="none" stroke="#191970" d="M829.0812,-260.396C819.3631,-251.6227 806.6911,-240.1827 795.8232,-230.3714"/>
<polygon fill="#191970" stroke="#191970" points="798.0646,-227.6796 788.2965,-223.5765 793.3739,-232.8755 798.0646,-227.6796"/>
</g>
<!-- Node12 -->
<g id="node13" class="node">
<title>Node12</title>
<g id="a_node13"><a xlink:href="_meeting_types_8hxx.html" target="_top" xlink:title=" ">
<polygon fill="none" stroke="#000000" points="1180.793,-130.5 1180.793,-158.5 1284.6152,-158.5 1284.6152,-130.5 1180.793,-130.5"/>
<text text-anchor="start" x="1188.793" y="-146.5" font-family="Helvetica,sans-Serif" font-size="10.00" fill="#000000">MeetingClient/types</text>
<text text-anchor="middle" x="1232.7041" y="-136.5" font-family="Helvetica,sans-Serif" font-size="10.00" fill="#000000">/MeetingTypes.hxx</text>
</a>
</g>
</g>
<!-- Node5&#45;&gt;Node12 -->
<g id="edge12" class="edge">
<title>Node5&#45;&gt;Node12</title>
<path fill="none" stroke="#191970" d="M907.5444,-272.7684C1035.3322,-268.5969 1315.8873,-255.8739 1344.7041,-224 1367.8491,-198.3996 1329.0233,-176.335 1290.9013,-161.9911"/>
<polygon fill="#191970" stroke="#191970" points="1291.8569,-158.6151 1281.2626,-158.5133 1289.4811,-165.1996 1291.8569,-158.6151"/>
</g>
<!-- Node17 -->
<g id="node18" class="node">
<title>Node17</title>
<g id="a_node18"><a xlink:href="_conference_attribute_definitions_8hxx.html" target="_top" xlink:title=" ">
<polygon fill="none" stroke="#000000" points="850.894,-195.5 850.894,-223.5 982.5142,-223.5 982.5142,-195.5 850.894,-195.5"/>
<text text-anchor="start" x="858.894" y="-211.5" font-family="Helvetica,sans-Serif" font-size="10.00" fill="#000000">MeetingClient/Conference</text>
<text text-anchor="middle" x="916.7041" y="-201.5" font-family="Helvetica,sans-Serif" font-size="10.00" fill="#000000">AttributeDefinitions.hxx</text>
</a>
</g>
</g>
<!-- Node5&#45;&gt;Node17 -->
<g id="edge18" class="edge">
<title>Node5&#45;&gt;Node17</title>
<path fill="none" stroke="#191970" d="M860.327,-260.396C870.0451,-251.6227 882.7171,-240.1827 893.585,-230.3714"/>
<polygon fill="#191970" stroke="#191970" points="896.0343,-232.8755 901.1117,-223.5765 891.3436,-227.6796 896.0343,-232.8755"/>
</g>
<!-- Node18 -->
<g id="node19" class="node">
<title>Node18</title>
<g id="a_node19"><a xlink:href="_meeting_session_parameters_8hxx.html" target="_top" xlink:title=" ">
<polygon fill="none" stroke="#000000" points="1000.1675,-195.5 1000.1675,-223.5 1151.2407,-223.5 1151.2407,-195.5 1000.1675,-195.5"/>
<text text-anchor="start" x="1008.1675" y="-211.5" font-family="Helvetica,sans-Serif" font-size="10.00" fill="#000000">MeetingClient/MeetingSession</text>
<text text-anchor="middle" x="1075.7041" y="-201.5" font-family="Helvetica,sans-Serif" font-size="10.00" fill="#000000">Parameters.hxx</text>
</a>
</g>
</g>
<!-- Node5&#45;&gt;Node18 -->
<g id="edge19" class="edge">
<title>Node5&#45;&gt;Node18</title>
<path fill="none" stroke="#191970" d="M894.5433,-260.476C930.0949,-250.4723 978.075,-236.9714 1015.7261,-226.3769"/>
<polygon fill="#191970" stroke="#191970" points="1016.878,-229.6888 1025.5561,-223.6109 1014.9818,-222.9505 1016.878,-229.6888"/>
</g>
<!-- Node12&#45;&gt;Node13 -->
<g id="edge13" class="edge">
<title>Node12&#45;&gt;Node13</title>
<path fill="none" stroke="#191970" d="M1180.7777,-131.3793C1178.0555,-130.8708 1175.3523,-130.4059 1172.7041,-130 1043.296,-110.1656 656.7226,-90.4834 494.0871,-82.8343"/>
<polygon fill="#191970" stroke="#191970" points="493.8563,-79.3197 483.7035,-82.348 493.5288,-86.312 493.8563,-79.3197"/>
</g>
<!-- Node15 -->
<g id="node16" class="node">
<title>Node15</title>
<g id="a_node16"><a xlink:href="strong__identity_8hxx.html" target="_top" xlink:title=" ">
<polygon fill="none" stroke="#000000" points="1181.9941,-65.5 1181.9941,-93.5 1283.4141,-93.5 1283.4141,-65.5 1181.9941,-65.5"/>
<text text-anchor="start" x="1189.9941" y="-81.5" font-family="Helvetica,sans-Serif" font-size="10.00" fill="#000000">MeetingClient/utils</text>
<text text-anchor="middle" x="1232.7041" y="-71.5" font-family="Helvetica,sans-Serif" font-size="10.00" fill="#000000">/strong_identity.hxx</text>
</a>
</g>
</g>
<!-- Node12&#45;&gt;Node15 -->
<g id="edge16" class="edge">
<title>Node12&#45;&gt;Node15</title>
<path fill="none" stroke="#191970" d="M1232.7041,-130.396C1232.7041,-122.6448 1232.7041,-112.8122 1232.7041,-103.8601"/>
<polygon fill="#191970" stroke="#191970" points="1236.2042,-103.5765 1232.7041,-93.5765 1229.2042,-103.5765 1236.2042,-103.5765"/>
</g>
<!-- Node13&#45;&gt;Node3 -->
<g id="edge14" class="edge">
<title>Node13&#45;&gt;Node3</title>
<path fill="none" stroke="#191970" d="M401.1754,-65.396C386.4817,-54.7838 366.3855,-40.2699 351.4127,-29.4562"/>
<polygon fill="#191970" stroke="#191970" points="353.4246,-26.5919 343.2685,-23.5743 349.3261,-32.2666 353.4246,-26.5919"/>
</g>
<!-- Node14 -->
<g id="node15" class="node">
<title>Node14</title>
<g id="a_node15"><a xlink:title=" ">
<polygon fill="none" stroke="#bfbfbf" points="369.9087,-5.5 369.9087,-23.5 471.4995,-23.5 471.4995,-5.5 369.9087,-5.5"/>
<text text-anchor="middle" x="420.7041" y="-11.5" font-family="Helvetica,sans-Serif" font-size="10.00" fill="#000000">CommonTypes.hxx</text>
</a>
</g>
</g>
<!-- Node13&#45;&gt;Node14 -->
<g id="edge15" class="edge">
<title>Node13&#45;&gt;Node14</title>
<path fill="none" stroke="#191970" d="M420.7041,-65.396C420.7041,-56.1723 420.7041,-44.0011 420.7041,-33.8738"/>
<polygon fill="#191970" stroke="#191970" points="424.2042,-33.5743 420.7041,-23.5743 417.2042,-33.5743 424.2042,-33.5743"/>
</g>
<!-- Node16 -->
<g id="node17" class="node">
<title>Node16</title>
<g id="a_node17"><a xlink:title=" ">
<polygon fill="none" stroke="#bfbfbf" points="1180.5049,-.5 1180.5049,-28.5 1284.9033,-28.5 1284.9033,-.5 1180.5049,-.5"/>
<text text-anchor="start" x="1188.5049" y="-16.5" font-family="Helvetica,sans-Serif" font-size="10.00" fill="#000000">boost/serialization</text>
<text text-anchor="middle" x="1232.7041" y="-6.5" font-family="Helvetica,sans-Serif" font-size="10.00" fill="#000000">/strong_typedef.hpp</text>
</a>
</g>
</g>
<!-- Node15&#45;&gt;Node16 -->
<g id="edge17" class="edge">
<title>Node15&#45;&gt;Node16</title>
<path fill="none" stroke="#191970" d="M1232.7041,-65.396C1232.7041,-57.6448 1232.7041,-47.8122 1232.7041,-38.8601"/>
<polygon fill="#191970" stroke="#191970" points="1236.2042,-38.5765 1232.7041,-28.5765 1229.2042,-38.5765 1236.2042,-38.5765"/>
</g>
<!-- Node18&#45;&gt;Node12 -->
<g id="edge20" class="edge">
<title>Node18&#45;&gt;Node12</title>
<path fill="none" stroke="#191970" d="M1109.7708,-195.396C1133.1218,-185.7284 1164.2941,-172.8226 1189.4055,-162.4262"/>
<polygon fill="#191970" stroke="#191970" points="1190.8033,-165.6356 1198.7039,-158.5765 1188.1256,-159.168 1190.8033,-165.6356"/>
</g>
<!-- Node19 -->
<g id="node20" class="node">
<title>Node19</title>
<g id="a_node20"><a xlink:title=" ">
<polygon fill="none" stroke="#bfbfbf" points="916.1401,-135.5 916.1401,-153.5 973.2681,-153.5 973.2681,-135.5 916.1401,-135.5"/>
<text text-anchor="middle" x="944.7041" y="-141.5" font-family="Helvetica,sans-Serif" font-size="10.00" fill="#000000">algorithm</text>
</a>
</g>
</g>
<!-- Node18&#45;&gt;Node19 -->
<g id="edge21" class="edge">
<title>Node18&#45;&gt;Node19</title>
<path fill="none" stroke="#191970" d="M1047.2791,-195.396C1024.992,-184.3375 994.166,-169.0422 972.1376,-158.112"/>
<polygon fill="#191970" stroke="#191970" points="973.5059,-154.8839 962.9923,-153.5743 970.3945,-161.1544 973.5059,-154.8839"/>
</g>
<!-- Node20 -->
<g id="node21" class="node">
<title>Node20</title>
<g id="a_node21"><a xlink:title=" ">
<polygon fill="none" stroke="#bfbfbf" points="990.8003,-135.5 990.8003,-153.5 1064.6079,-153.5 1064.6079,-135.5 990.8003,-135.5"/>
<text text-anchor="middle" x="1027.7041" y="-141.5" font-family="Helvetica,sans-Serif" font-size="10.00" fill="#000000">Printable.hxx</text>
</a>
</g>
</g>
<!-- Node18&#45;&gt;Node20 -->
<g id="edge22" class="edge">
<title>Node18&#45;&gt;Node20</title>
<path fill="none" stroke="#191970" d="M1065.2888,-195.396C1057.9648,-185.4781 1048.1242,-172.1522 1040.3494,-161.6239"/>
<polygon fill="#191970" stroke="#191970" points="1043.1611,-159.5395 1034.4051,-153.5743 1037.5301,-163.6978 1043.1611,-159.5395"/>
</g>
<!-- Node21 -->
<g id="node22" class="node">
<title>Node21</title>
<g id="a_node22"><a xlink:title=" ">
<polygon fill="none" stroke="#bfbfbf" points="1082.1846,-135.5 1082.1846,-153.5 1163.2236,-153.5 1163.2236,-135.5 1082.1846,-135.5"/>
<text text-anchor="middle" x="1122.7041" y="-141.5" font-family="Helvetica,sans-Serif" font-size="10.00" fill="#000000">VoIPClient.hxx</text>
</a>
</g>
</g>
<!-- Node18&#45;&gt;Node21 -->
<g id="edge23" class="edge">
<title>Node18&#45;&gt;Node21</title>
<path fill="none" stroke="#191970" d="M1085.9024,-195.396C1093.0021,-185.5773 1102.517,-172.4184 1110.0932,-161.9406"/>
<polygon fill="#191970" stroke="#191970" points="1113.1194,-163.7287 1116.1427,-153.5743 1107.447,-159.627 1113.1194,-163.7287"/>
</g>
<!-- Node22&#45;&gt;Node2 -->
<g id="edge26" class="edge">
<title>Node22&#45;&gt;Node2</title>
<path fill="none" stroke="#191970" d="M227.0299,-330.462C219.7334,-320.5813 207.8621,-304.5056 198.7109,-292.1134"/>
<polygon fill="#191970" stroke="#191970" points="201.3884,-289.8473 192.6325,-283.8821 195.7574,-294.0057 201.3884,-289.8473"/>
</g>
</g>
</svg>
