<?xml version="1.0" encoding="UTF-8" standalone="no"?>
<!DOCTYPE svg PUBLIC "-//W3C//DTD SVG 1.1//EN"
 "http://www.w3.org/Graphics/SVG/1.1/DTD/svg11.dtd">
<!-- Generated by graphviz version 2.40.1 (20161225.0304)
 -->
<!-- Title: /Users/oskryp/Projects/freesee&#45;native&#45;client/libs/fcc_sdk/engine/meetingclient/include/MeetingClient/types/ConferenceState.hxx Pages: 1 -->
<svg width="204pt" height="187pt"
 viewBox="0.00 0.00 203.55 187.00" xmlns="http://www.w3.org/2000/svg" xmlns:xlink="http://www.w3.org/1999/xlink">
<g id="graph0" class="graph" transform="scale(1 1) rotate(0) translate(4 183)">
<title>/Users/oskryp/Projects/freesee&#45;native&#45;client/libs/fcc_sdk/engine/meetingclient/include/MeetingClient/types/ConferenceState.hxx</title>
<!-- Node0 -->
<g id="node1" class="node">
<title>Node0</title>
<g id="a_node1"><a xlink:title=" ">
<polygon fill="#bfbfbf" stroke="#000000" points="0,-120.5 0,-178.5 195.5459,-178.5 195.5459,-120.5 0,-120.5"/>
<text text-anchor="start" x="8" y="-166.5" font-family="Helvetica,sans-Serif" font-size="10.00" fill="#000000">/Users/oskryp/Projects</text>
<text text-anchor="start" x="8" y="-156.5" font-family="Helvetica,sans-Serif" font-size="10.00" fill="#000000">/freesee&#45;native&#45;client</text>
<text text-anchor="start" x="8" y="-146.5" font-family="Helvetica,sans-Serif" font-size="10.00" fill="#000000">/libs/fcc_sdk/engine/meetingclient</text>
<text text-anchor="start" x="8" y="-136.5" font-family="Helvetica,sans-Serif" font-size="10.00" fill="#000000">/include/MeetingClient/types/Conference</text>
<text text-anchor="middle" x="97.7729" y="-126.5" font-family="Helvetica,sans-Serif" font-size="10.00" fill="#000000">State.hxx</text>
</a>
</g>
</g>
<!-- Node1 -->
<g id="node2" class="node">
<title>Node1</title>
<g id="a_node2"><a xlink:href="_common_data_types_8hxx.html" target="_top" xlink:title=" ">
<polygon fill="none" stroke="#000000" points="35.0269,-55.5 35.0269,-83.5 160.519,-83.5 160.519,-55.5 35.0269,-55.5"/>
<text text-anchor="start" x="43.0269" y="-71.5" font-family="Helvetica,sans-Serif" font-size="10.00" fill="#000000">MeetingClient/types</text>
<text text-anchor="middle" x="97.7729" y="-61.5" font-family="Helvetica,sans-Serif" font-size="10.00" fill="#000000">/CommonDataTypes.hxx</text>
</a>
</g>
</g>
<!-- Node0&#45;&gt;Node1 -->
<g id="edge1" class="edge">
<title>Node0&#45;&gt;Node1</title>
<path fill="none" stroke="#191970" d="M97.7729,-120.1652C97.7729,-111.4834 97.7729,-102.0784 97.7729,-93.7556"/>
<polygon fill="#191970" stroke="#191970" points="101.273,-93.5895 97.7729,-83.5895 94.273,-93.5896 101.273,-93.5895"/>
</g>
<!-- Node2 -->
<g id="node3" class="node">
<title>Node2</title>
<g id="a_node3"><a xlink:title=" ">
<polygon fill="none" stroke="#bfbfbf" points="33.5464,-.5 33.5464,-18.5 73.9995,-18.5 73.9995,-.5 33.5464,-.5"/>
<text text-anchor="middle" x="53.7729" y="-6.5" font-family="Helvetica,sans-Serif" font-size="10.00" fill="#000000">string</text>
</a>
</g>
</g>
<!-- Node1&#45;&gt;Node2 -->
<g id="edge2" class="edge">
<title>Node1&#45;&gt;Node2</title>
<path fill="none" stroke="#191970" d="M87.3456,-55.2808C81.094,-46.756 73.0995,-35.8545 66.4802,-26.8281"/>
<polygon fill="#191970" stroke="#191970" points="69.1708,-24.5785 60.4347,-18.5842 63.5259,-28.718 69.1708,-24.5785"/>
</g>
<!-- Node3 -->
<g id="node4" class="node">
<title>Node3</title>
<g id="a_node4"><a xlink:title=" ">
<polygon fill="none" stroke="#bfbfbf" points="91.9775,-.5 91.9775,-18.5 193.5684,-18.5 193.5684,-.5 91.9775,-.5"/>
<text text-anchor="middle" x="142.7729" y="-6.5" font-family="Helvetica,sans-Serif" font-size="10.00" fill="#000000">CommonTypes.hxx</text>
</a>
</g>
</g>
<!-- Node1&#45;&gt;Node3 -->
<g id="edge3" class="edge">
<title>Node1&#45;&gt;Node3</title>
<path fill="none" stroke="#191970" d="M108.4373,-55.2808C114.831,-46.756 123.0071,-35.8545 129.7769,-26.8281"/>
<polygon fill="#191970" stroke="#191970" points="132.7598,-28.6842 135.9598,-18.5842 127.1598,-24.4842 132.7598,-28.6842"/>
</g>
</g>
</svg>
