<?xml version="1.0" encoding="UTF-8" standalone="no"?>
<!DOCTYPE svg PUBLIC "-//W3C//DTD SVG 1.1//EN"
 "http://www.w3.org/Graphics/SVG/1.1/DTD/svg11.dtd">
<!-- Generated by graphviz version 2.40.1 (20161225.0304)
 -->
<!-- Title: /Users/oskryp/Projects/freesee&#45;native&#45;client/libs/fcc_sdk/engine/meetingclient/include/MeetingClient/Delegates/DelegatesProvider.hxx Pages: 1 -->
<!--zoomable 467 -->
<svg id="main" version="1.1" xmlns="http://www.w3.org/2000/svg" xmlns:xlink="http://www.w3.org/1999/xlink" xml:space="preserve" onload="init(evt)">
<style type="text/css"><![CDATA[
.edge:hover path { stroke: red; }
.edge:hover polygon { stroke: red; fill: red; }
]]></style>
<script type="text/javascript"><![CDATA[
var edges = document.getElementsByTagName('g');
if (edges && edges.length) {
  for (var i=0;i<edges.length;i++) {
    if (edges[i].id.substr(0,4)=='edge') {
      edges[i].setAttribute('class','edge');
    }
  }
}
]]></script>
        <defs>
                <circle id="rim" cx="0" cy="0" r="7"/>
                <circle id="rim2" cx="0" cy="0" r="3.5"/>
                <g id="zoomPlus">
                        <use xlink:href="#rim" fill="#404040">
                                <set attributeName="fill" to="#808080" begin="zoomplus.mouseover" end="zoomplus.mouseout"/>
                        </use>
                        <path d="M-4,0h8M0,-4v8" fill="none" stroke="white" stroke-width="1.5" pointer-events="none"/>
                </g>
                <g id="zoomMin">
                        <use xlink:href="#rim" fill="#404040">
                                <set attributeName="fill" to="#808080" begin="zoomminus.mouseover" end="zoomminus.mouseout"/>
                        </use>
                        <path d="M-4,0h8" fill="none" stroke="white" stroke-width="1.5" pointer-events="none"/>
                </g>
                <g id="dirArrow">
                        <path fill="none" stroke="white" stroke-width="1.5" d="M0,-3.0v7 M-2.5,-0.5L0,-3.0L2.5,-0.5"/>
                </g>
               <g id="resetDef">
                       <use xlink:href="#rim2" fill="#404040">
                               <set attributeName="fill" to="#808080" begin="reset.mouseover" end="reset.mouseout"/>
                       </use>
               </g>
        </defs>

<script type="text/javascript">
var viewWidth = 1806;
var viewHeight = 467;
var sectionId = 'dynsection-0';
</script>
<script xlink:href="svgpan.js"/>
<svg id="graph" class="graph">
<g id="viewport">
<title>/Users/oskryp/Projects/freesee&#45;native&#45;client/libs/fcc_sdk/engine/meetingclient/include/MeetingClient/Delegates/DelegatesProvider.hxx</title>
<!-- Node0 -->
<g id="node1" class="node">
<title>Node0</title>
<g id="a_node1"><a xlink:title=" ">
<polygon fill="#bfbfbf" stroke="#000000" points="809.7661,-400.5 809.7661,-458.5 974.7358,-458.5 974.7358,-400.5 809.7661,-400.5"/>
<text text-anchor="start" x="817.7661" y="-446.5" font-family="Helvetica,sans-Serif" font-size="10.00" fill="#000000">/Users/oskryp/Projects</text>
<text text-anchor="start" x="817.7661" y="-436.5" font-family="Helvetica,sans-Serif" font-size="10.00" fill="#000000">/freesee&#45;native&#45;client</text>
<text text-anchor="start" x="817.7661" y="-426.5" font-family="Helvetica,sans-Serif" font-size="10.00" fill="#000000">/libs/fcc_sdk/engine/meetingclient</text>
<text text-anchor="start" x="817.7661" y="-416.5" font-family="Helvetica,sans-Serif" font-size="10.00" fill="#000000">/include/MeetingClient/Delegates</text>
<text text-anchor="middle" x="892.251" y="-406.5" font-family="Helvetica,sans-Serif" font-size="10.00" fill="#000000">/DelegatesProvider.hxx</text>
</a>
</g>
</g>
<!-- Node1 -->
<g id="node2" class="node">
<title>Node1</title>
<g id="a_node2"><a xlink:href="_i_active_speaker_notifications_delegate_8hxx.html" target="_top" xlink:title=" ">
<polygon fill="none" stroke="#000000" points="0,-325.5 0,-363.5 140.502,-363.5 140.502,-325.5 0,-325.5"/>
<text text-anchor="start" x="8" y="-351.5" font-family="Helvetica,sans-Serif" font-size="10.00" fill="#000000">MeetingClient/Delegates</text>
<text text-anchor="start" x="8" y="-341.5" font-family="Helvetica,sans-Serif" font-size="10.00" fill="#000000">/IActiveSpeakerNotifications</text>
<text text-anchor="middle" x="70.251" y="-331.5" font-family="Helvetica,sans-Serif" font-size="10.00" fill="#000000">Delegate.hxx</text>
</a>
</g>
</g>
<!-- Node0&#45;&gt;Node1 -->
<g id="edge1" class="edge">
<title>Node0&#45;&gt;Node1</title>
<path fill="none" stroke="#191970" d="M809.543,-426.3705C673.6722,-420.3137 394.7582,-404.0326 150.8943,-364.1507"/>
<polygon fill="#191970" stroke="#191970" points="151.2109,-360.6556 140.7741,-362.4786 150.0698,-367.562 151.2109,-360.6556"/>
</g>
<!-- Node20 -->
<g id="node21" class="node">
<title>Node20</title>
<g id="a_node21"><a xlink:href="_i_attendee_notifications_delegate_8hxx.html" target="_top" xlink:title=" ">
<polygon fill="none" stroke="#000000" points="910.0371,-330.5 910.0371,-358.5 1084.4648,-358.5 1084.4648,-330.5 910.0371,-330.5"/>
<text text-anchor="start" x="918.0371" y="-346.5" font-family="Helvetica,sans-Serif" font-size="10.00" fill="#000000">MeetingClient/Delegates</text>
<text text-anchor="middle" x="997.251" y="-336.5" font-family="Helvetica,sans-Serif" font-size="10.00" fill="#000000">/IAttendeeNotificationsDelegate.hxx</text>
</a>
</g>
</g>
<!-- Node0&#45;&gt;Node20 -->
<g id="edge23" class="edge">
<title>Node0&#45;&gt;Node20</title>
<path fill="none" stroke="#191970" d="M928.0923,-400.4856C942.4203,-388.8868 958.5949,-375.793 971.6975,-365.1862"/>
<polygon fill="#191970" stroke="#191970" points="974.2436,-367.6281 979.8139,-358.6158 969.8392,-362.1874 974.2436,-367.6281"/>
</g>
<!-- Node21 -->
<g id="node22" class="node">
<title>Node21</title>
<g id="a_node22"><a xlink:href="_i_broadcaster_notifications_delegate_8hxx.html" target="_top" xlink:title=" ">
<polygon fill="none" stroke="#000000" points="1102.0962,-330.5 1102.0962,-358.5 1290.4058,-358.5 1290.4058,-330.5 1102.0962,-330.5"/>
<text text-anchor="start" x="1110.0962" y="-346.5" font-family="Helvetica,sans-Serif" font-size="10.00" fill="#000000">MeetingClient/Delegates</text>
<text text-anchor="middle" x="1196.251" y="-336.5" font-family="Helvetica,sans-Serif" font-size="10.00" fill="#000000">/IBroadcasterNotificationsDelegate.hxx</text>
</a>
</g>
</g>
<!-- Node0&#45;&gt;Node21 -->
<g id="edge26" class="edge">
<title>Node0&#45;&gt;Node21</title>
<path fill="none" stroke="#191970" d="M974.9188,-406.3857C1025.8612,-392.1419 1090.0269,-374.2008 1136.1359,-361.3085"/>
<polygon fill="#191970" stroke="#191970" points="1137.2935,-364.6191 1145.9816,-358.5556 1135.4085,-357.8777 1137.2935,-364.6191"/>
</g>
<!-- Node22 -->
<g id="node23" class="node">
<title>Node22</title>
<g id="a_node23"><a xlink:href="_i_chat_notifications_delegate_8hxx.html" target="_top" xlink:title=" ">
<polygon fill="none" stroke="#000000" points="510.4927,-330.5 510.4927,-358.5 666.0093,-358.5 666.0093,-330.5 510.4927,-330.5"/>
<text text-anchor="start" x="518.4927" y="-346.5" font-family="Helvetica,sans-Serif" font-size="10.00" fill="#000000">MeetingClient/Delegates</text>
<text text-anchor="middle" x="588.251" y="-336.5" font-family="Helvetica,sans-Serif" font-size="10.00" fill="#000000">/IChatNotificationsDelegate.hxx</text>
</a>
</g>
</g>
<!-- Node0&#45;&gt;Node22 -->
<g id="edge29" class="edge">
<title>Node0&#45;&gt;Node22</title>
<path fill="none" stroke="#191970" d="M809.5832,-406.3857C758.6407,-392.1419 694.4751,-374.2008 648.3661,-361.3085"/>
<polygon fill="#191970" stroke="#191970" points="649.0934,-357.8777 638.5203,-358.5556 647.2084,-364.6191 649.0934,-357.8777"/>
</g>
<!-- Node23 -->
<g id="node24" class="node">
<title>Node23</title>
<g id="a_node24"><a xlink:href="_i_raw_r_t_message_notifications_delegate_8hxx.html" target="_top" xlink:title=" ">
<polygon fill="none" stroke="#000000" points="684.1865,-330.5 684.1865,-358.5 892.3154,-358.5 892.3154,-330.5 684.1865,-330.5"/>
<text text-anchor="start" x="692.1865" y="-346.5" font-family="Helvetica,sans-Serif" font-size="10.00" fill="#000000">MeetingClient/Delegates</text>
<text text-anchor="middle" x="788.251" y="-336.5" font-family="Helvetica,sans-Serif" font-size="10.00" fill="#000000">/IRawRTMessageNotificationsDelegate.hxx</text>
</a>
</g>
</g>
<!-- Node0&#45;&gt;Node23 -->
<g id="edge31" class="edge">
<title>Node0&#45;&gt;Node23</title>
<path fill="none" stroke="#191970" d="M856.751,-400.4856C842.5595,-388.8868 826.5389,-375.793 813.5611,-365.1862"/>
<polygon fill="#191970" stroke="#191970" points="815.4799,-362.2341 805.522,-358.6158 811.05,-367.6541 815.4799,-362.2341"/>
</g>
<!-- Node24 -->
<g id="node25" class="node">
<title>Node24</title>
<g id="a_node25"><a xlink:href="_i_screen_sharing_notifications_delegate_8hxx.html" target="_top" xlink:title=" ">
<polygon fill="none" stroke="#000000" points="1308.1626,-325.5 1308.1626,-363.5 1450.3394,-363.5 1450.3394,-325.5 1308.1626,-325.5"/>
<text text-anchor="start" x="1316.1626" y="-351.5" font-family="Helvetica,sans-Serif" font-size="10.00" fill="#000000">MeetingClient/Delegates</text>
<text text-anchor="start" x="1316.1626" y="-341.5" font-family="Helvetica,sans-Serif" font-size="10.00" fill="#000000">/IScreenSharingNotifications</text>
<text text-anchor="middle" x="1379.251" y="-331.5" font-family="Helvetica,sans-Serif" font-size="10.00" fill="#000000">Delegate.hxx</text>
</a>
</g>
</g>
<!-- Node0&#45;&gt;Node24 -->
<g id="edge33" class="edge">
<title>Node0&#45;&gt;Node24</title>
<path fill="none" stroke="#191970" d="M974.8379,-418.1753C1055.0562,-406.7266 1180.4483,-387.6466 1297.8992,-364.2054"/>
<polygon fill="#191970" stroke="#191970" points="1298.6706,-367.6204 1307.7847,-362.2182 1297.291,-360.7577 1298.6706,-367.6204"/>
</g>
<!-- Node25 -->
<g id="node26" class="node">
<title>Node25</title>
<g id="a_node26"><a xlink:href="_i_session_notifications_delegate_8hxx.html" target="_top" xlink:title=" ">
<polygon fill="none" stroke="#000000" points="1468.2661,-330.5 1468.2661,-358.5 1638.2358,-358.5 1638.2358,-330.5 1468.2661,-330.5"/>
<text text-anchor="start" x="1476.2661" y="-346.5" font-family="Helvetica,sans-Serif" font-size="10.00" fill="#000000">MeetingClient/Delegates</text>
<text text-anchor="middle" x="1553.251" y="-336.5" font-family="Helvetica,sans-Serif" font-size="10.00" fill="#000000">/ISessionNotificationsDelegate.hxx</text>
</a>
</g>
</g>
<!-- Node0&#45;&gt;Node25 -->
<g id="edge36" class="edge">
<title>Node0&#45;&gt;Node25</title>
<path fill="none" stroke="#191970" d="M975.2033,-422.2636C1085.9526,-412.0672 1288.0485,-391.5896 1459.251,-364 1465.829,-362.9399 1472.6448,-361.7354 1479.4637,-360.4575"/>
<polygon fill="#191970" stroke="#191970" points="1480.2702,-363.8666 1489.4291,-358.5408 1478.948,-356.9926 1480.2702,-363.8666"/>
</g>
<!-- Node26 -->
<g id="node27" class="node">
<title>Node26</title>
<g id="a_node27"><a xlink:href="_i_video_notifications_delegate_8hxx.html" target="_top" xlink:title=" ">
<polygon fill="none" stroke="#000000" points="158.354,-330.5 158.354,-358.5 318.1479,-358.5 318.1479,-330.5 158.354,-330.5"/>
<text text-anchor="start" x="166.354" y="-346.5" font-family="Helvetica,sans-Serif" font-size="10.00" fill="#000000">MeetingClient/Delegates</text>
<text text-anchor="middle" x="238.251" y="-336.5" font-family="Helvetica,sans-Serif" font-size="10.00" fill="#000000">/IVideoNotificationsDelegate.hxx</text>
</a>
</g>
</g>
<!-- Node0&#45;&gt;Node26 -->
<g id="edge39" class="edge">
<title>Node0&#45;&gt;Node26</title>
<path fill="none" stroke="#191970" d="M809.5451,-422.5306C699.1354,-412.6297 497.6959,-392.4784 327.251,-364 321.1078,-362.9736 314.7489,-361.8016 308.386,-360.5531"/>
<polygon fill="#191970" stroke="#191970" points="308.9093,-357.0882 298.4142,-358.5381 307.5228,-363.9495 308.9093,-357.0882"/>
</g>
<!-- Node27 -->
<g id="node28" class="node">
<title>Node27</title>
<g id="a_node28"><a xlink:href="_i_vo_i_p_notifications_delegate_8hxx.html" target="_top" xlink:title=" ">
<polygon fill="none" stroke="#000000" points="336.4878,-330.5 336.4878,-358.5 492.0142,-358.5 492.0142,-330.5 336.4878,-330.5"/>
<text text-anchor="start" x="344.4878" y="-346.5" font-family="Helvetica,sans-Serif" font-size="10.00" fill="#000000">MeetingClient/Delegates</text>
<text text-anchor="middle" x="414.251" y="-336.5" font-family="Helvetica,sans-Serif" font-size="10.00" fill="#000000">/IVoIPNotificationsDelegate.hxx</text>
</a>
</g>
</g>
<!-- Node0&#45;&gt;Node27 -->
<g id="edge41" class="edge">
<title>Node0&#45;&gt;Node27</title>
<path fill="none" stroke="#191970" d="M809.6327,-416.9996C730.3334,-404.6853 607.2995,-384.7513 501.251,-364 495.9342,-362.9596 490.445,-361.8392 484.9299,-360.6801"/>
<polygon fill="#191970" stroke="#191970" points="485.517,-357.2267 475.0065,-358.5609 484.055,-364.0723 485.517,-357.2267"/>
</g>
<!-- Node28 -->
<g id="node29" class="node">
<title>Node28</title>
<g id="a_node29"><a xlink:href="_delegates_configuration_8hxx.html" target="_top" xlink:title=" ">
<polygon fill="none" stroke="#000000" points="1656.436,-330.5 1656.436,-358.5 1798.0659,-358.5 1798.0659,-330.5 1656.436,-330.5"/>
<text text-anchor="start" x="1664.436" y="-346.5" font-family="Helvetica,sans-Serif" font-size="10.00" fill="#000000">MeetingClient/Delegates</text>
<text text-anchor="middle" x="1727.251" y="-336.5" font-family="Helvetica,sans-Serif" font-size="10.00" fill="#000000">/DelegatesConfiguration.hxx</text>
</a>
</g>
</g>
<!-- Node0&#45;&gt;Node28 -->
<g id="edge43" class="edge">
<title>Node0&#45;&gt;Node28</title>
<path fill="none" stroke="#191970" d="M974.8772,-426.4573C1114.299,-420.4037 1404.7958,-403.8274 1647.251,-364 1652.9443,-363.0648 1658.8308,-361.9398 1664.7081,-360.7081"/>
<polygon fill="#191970" stroke="#191970" points="1665.5365,-364.1097 1674.5548,-358.5491 1664.0372,-357.2721 1665.5365,-364.1097"/>
</g>
<!-- Node2 -->
<g id="node3" class="node">
<title>Node2</title>
<g id="a_node3"><a xlink:href="_notifications_8hxx.html" target="_top" xlink:title=" ">
<polygon fill="none" stroke="#000000" points="526.7759,-260.5 526.7759,-288.5 651.7261,-288.5 651.7261,-260.5 526.7759,-260.5"/>
<text text-anchor="start" x="534.7759" y="-276.5" font-family="Helvetica,sans-Serif" font-size="10.00" fill="#000000">MeetingClient/Delegates</text>
<text text-anchor="middle" x="589.251" y="-266.5" font-family="Helvetica,sans-Serif" font-size="10.00" fill="#000000">/Notifications.hxx</text>
</a>
</g>
</g>
<!-- Node1&#45;&gt;Node2 -->
<g id="edge2" class="edge">
<title>Node1&#45;&gt;Node2</title>
<path fill="none" stroke="#191970" d="M140.7903,-326.6149C143.6419,-326.0421 146.4703,-325.5006 149.251,-325 277.5461,-301.9013 428.8891,-287.2487 516.4848,-279.9859"/>
<polygon fill="#191970" stroke="#191970" points="516.9039,-283.4634 526.5844,-279.1579 516.3319,-276.4868 516.9039,-283.4634"/>
</g>
<!-- Node4 -->
<g id="node5" class="node">
<title>Node4</title>
<g id="a_node5"><a xlink:title=" ">
<polygon fill="none" stroke="#bfbfbf" points="186.5244,-200.5 186.5244,-218.5 221.9775,-218.5 221.9775,-200.5 186.5244,-200.5"/>
<text text-anchor="middle" x="204.251" y="-206.5" font-family="Helvetica,sans-Serif" font-size="10.00" fill="#000000">map</text>
</a>
</g>
</g>
<!-- Node1&#45;&gt;Node4 -->
<g id="edge21" class="edge">
<title>Node1&#45;&gt;Node4</title>
<path fill="none" stroke="#191970" d="M89.1657,-325.4441C115.5954,-298.8172 163.1244,-250.9335 188.0267,-225.8453"/>
<polygon fill="#191970" stroke="#191970" points="190.7007,-228.1197 195.2614,-218.5567 185.7326,-223.1883 190.7007,-228.1197"/>
</g>
<!-- Node5 -->
<g id="node6" class="node">
<title>Node5</title>
<g id="a_node6"><a xlink:title=" ">
<polygon fill="none" stroke="#bfbfbf" points="104.6353,-200.5 104.6353,-218.5 147.8667,-218.5 147.8667,-200.5 104.6353,-200.5"/>
<text text-anchor="middle" x="126.251" y="-206.5" font-family="Helvetica,sans-Serif" font-size="10.00" fill="#000000">vector</text>
</a>
</g>
</g>
<!-- Node1&#45;&gt;Node5 -->
<g id="edge22" class="edge">
<title>Node1&#45;&gt;Node5</title>
<path fill="none" stroke="#191970" d="M78.1556,-325.4441C88.914,-299.5088 108.0378,-253.4066 118.6409,-227.8456"/>
<polygon fill="#191970" stroke="#191970" points="121.8954,-229.1346 122.4941,-218.5567 115.4296,-226.4524 121.8954,-229.1346"/>
</g>
<!-- Node3 -->
<g id="node4" class="node">
<title>Node3</title>
<g id="a_node4"><a xlink:title=" ">
<polygon fill="none" stroke="#bfbfbf" points="288.6108,-195.5 288.6108,-223.5 401.8911,-223.5 401.8911,-195.5 288.6108,-195.5"/>
<text text-anchor="start" x="296.6108" y="-211.5" font-family="Helvetica,sans-Serif" font-size="10.00" fill="#000000">boost/date_time/posix</text>
<text text-anchor="middle" x="345.251" y="-201.5" font-family="Helvetica,sans-Serif" font-size="10.00" fill="#000000">_time/posix_time.hpp</text>
</a>
</g>
</g>
<!-- Node2&#45;&gt;Node3 -->
<g id="edge3" class="edge">
<title>Node2&#45;&gt;Node3</title>
<path fill="none" stroke="#191970" d="M536.607,-260.476C498.8948,-250.4297 447.9428,-236.8564 408.0973,-226.2418"/>
<polygon fill="#191970" stroke="#191970" points="408.7852,-222.8031 398.2212,-223.6109 406.9832,-229.5672 408.7852,-222.8031"/>
</g>
<!-- Node2&#45;&gt;Node4 -->
<g id="edge4" class="edge">
<title>Node2&#45;&gt;Node4</title>
<path fill="none" stroke="#191970" d="M526.6159,-268.8167C457.3345,-261.7143 342.7353,-247.5401 246.251,-224 241.4453,-222.8275 236.412,-221.3326 231.5664,-219.7504"/>
<polygon fill="#191970" stroke="#191970" points="232.6121,-216.4088 222.0174,-216.4554 230.3287,-223.0259 232.6121,-216.4088"/>
</g>
<!-- Node2&#45;&gt;Node5 -->
<g id="edge5" class="edge">
<title>Node2&#45;&gt;Node5</title>
<path fill="none" stroke="#191970" d="M526.6468,-269.8658C445.4797,-263.165 299.801,-248.7763 177.251,-224 170.8563,-222.7072 164.0933,-221.0188 157.6561,-219.2529"/>
<polygon fill="#191970" stroke="#191970" points="158.4857,-215.8499 147.9084,-216.4601 156.5576,-222.5791 158.4857,-215.8499"/>
</g>
<!-- Node6 -->
<g id="node7" class="node">
<title>Node6</title>
<g id="a_node7"><a xlink:title=" ">
<polygon fill="none" stroke="#bfbfbf" points="419.564,-200.5 419.564,-218.5 508.938,-218.5 508.938,-200.5 419.564,-200.5"/>
<text text-anchor="middle" x="464.251" y="-206.5" font-family="Helvetica,sans-Serif" font-size="10.00" fill="#000000">FSSnapshot.hxx</text>
</a>
</g>
</g>
<!-- Node2&#45;&gt;Node6 -->
<g id="edge6" class="edge">
<title>Node2&#45;&gt;Node6</title>
<path fill="none" stroke="#191970" d="M562.1278,-260.396C540.957,-249.3871 511.7111,-234.1793 490.7113,-223.2594"/>
<polygon fill="#191970" stroke="#191970" points="492.1885,-220.0826 481.7016,-218.5743 488.959,-226.2931 492.1885,-220.0826"/>
</g>
<!-- Node7 -->
<g id="node8" class="node">
<title>Node7</title>
<g id="a_node8"><a xlink:href="macros_8hxx.html" target="_top" xlink:title=" ">
<polygon fill="none" stroke="#000000" points="526.729,-200.5 526.729,-218.5 657.7729,-218.5 657.7729,-200.5 526.729,-200.5"/>
<text text-anchor="middle" x="592.251" y="-206.5" font-family="Helvetica,sans-Serif" font-size="10.00" fill="#000000">MeetingClient/macros.hxx</text>
</a>
</g>
</g>
<!-- Node2&#45;&gt;Node7 -->
<g id="edge7" class="edge">
<title>Node2&#45;&gt;Node7</title>
<path fill="none" stroke="#191970" d="M589.9019,-260.396C590.3276,-251.1723 590.8894,-239.0011 591.3568,-228.8738"/>
<polygon fill="#191970" stroke="#191970" points="594.8673,-228.7251 591.8322,-218.5743 587.8747,-228.4023 594.8673,-228.7251"/>
</g>
<!-- Node8 -->
<g id="node9" class="node">
<title>Node8</title>
<g id="a_node9"><a xlink:href="_f_s_base_8hxx.html" target="_top" xlink:title=" ">
<polygon fill="none" stroke="#000000" points="675.5591,-195.5 675.5591,-223.5 794.9429,-223.5 794.9429,-195.5 675.5591,-195.5"/>
<text text-anchor="start" x="683.5591" y="-211.5" font-family="Helvetica,sans-Serif" font-size="10.00" fill="#000000">MeetingClient/transport</text>
<text text-anchor="middle" x="735.251" y="-201.5" font-family="Helvetica,sans-Serif" font-size="10.00" fill="#000000">/FSBase.hxx</text>
</a>
</g>
</g>
<!-- Node2&#45;&gt;Node8 -->
<g id="edge8" class="edge">
<title>Node2&#45;&gt;Node8</title>
<path fill="none" stroke="#191970" d="M620.9308,-260.396C642.4544,-250.8135 671.1238,-238.0498 694.3675,-227.7016"/>
<polygon fill="#191970" stroke="#191970" points="695.921,-230.8412 703.633,-223.5765 693.0739,-224.4463 695.921,-230.8412"/>
</g>
<!-- Node9 -->
<g id="node10" class="node">
<title>Node9</title>
<g id="a_node10"><a xlink:href="_meeting_types_8hxx.html" target="_top" xlink:title=" ">
<polygon fill="none" stroke="#000000" points="682.3398,-130.5 682.3398,-158.5 786.1621,-158.5 786.1621,-130.5 682.3398,-130.5"/>
<text text-anchor="start" x="690.3398" y="-146.5" font-family="Helvetica,sans-Serif" font-size="10.00" fill="#000000">MeetingClient/types</text>
<text text-anchor="middle" x="734.251" y="-136.5" font-family="Helvetica,sans-Serif" font-size="10.00" fill="#000000">/MeetingTypes.hxx</text>
</a>
</g>
</g>
<!-- Node2&#45;&gt;Node9 -->
<g id="edge9" class="edge">
<title>Node2&#45;&gt;Node9</title>
<path fill="none" stroke="#191970" d="M526.6355,-268.6242C440.7268,-259.9211 295.0798,-242.616 279.251,-224 270.9019,-214.1808 270.6545,-204.6034 279.251,-195 305.005,-166.2295 553.861,-152.0381 672.2533,-146.8707"/>
<polygon fill="#191970" stroke="#191970" points="672.4229,-150.3668 682.2639,-146.4418 672.1232,-143.3732 672.4229,-150.3668"/>
</g>
<!-- Node15 -->
<g id="node16" class="node">
<title>Node15</title>
<g id="a_node16"><a xlink:href="_conference_attribute_definitions_8hxx.html" target="_top" xlink:title=" ">
<polygon fill="none" stroke="#000000" points="981.4409,-195.5 981.4409,-223.5 1113.061,-223.5 1113.061,-195.5 981.4409,-195.5"/>
<text text-anchor="start" x="989.4409" y="-211.5" font-family="Helvetica,sans-Serif" font-size="10.00" fill="#000000">MeetingClient/Conference</text>
<text text-anchor="middle" x="1047.251" y="-201.5" font-family="Helvetica,sans-Serif" font-size="10.00" fill="#000000">AttributeDefinitions.hxx</text>
</a>
</g>
</g>
<!-- Node2&#45;&gt;Node15 -->
<g id="edge15" class="edge">
<title>Node2&#45;&gt;Node15</title>
<path fill="none" stroke="#191970" d="M651.9492,-267.4787C726.0379,-258.9075 853.2466,-243.3328 971.1989,-224.2853"/>
<polygon fill="#191970" stroke="#191970" points="971.8152,-227.7312 981.1234,-222.6708 970.6911,-220.822 971.8152,-227.7312"/>
</g>
<!-- Node16 -->
<g id="node17" class="node">
<title>Node16</title>
<g id="a_node17"><a xlink:href="_meeting_session_parameters_8hxx.html" target="_top" xlink:title=" ">
<polygon fill="none" stroke="#000000" points="812.7144,-195.5 812.7144,-223.5 963.7876,-223.5 963.7876,-195.5 812.7144,-195.5"/>
<text text-anchor="start" x="820.7144" y="-211.5" font-family="Helvetica,sans-Serif" font-size="10.00" fill="#000000">MeetingClient/MeetingSession</text>
<text text-anchor="middle" x="888.251" y="-201.5" font-family="Helvetica,sans-Serif" font-size="10.00" fill="#000000">Parameters.hxx</text>
</a>
</g>
</g>
<!-- Node2&#45;&gt;Node16 -->
<g id="edge16" class="edge">
<title>Node2&#45;&gt;Node16</title>
<path fill="none" stroke="#191970" d="M651.9312,-260.8739C699.1118,-250.6172 763.9469,-236.5226 813.7737,-225.6907"/>
<polygon fill="#191970" stroke="#191970" points="814.8193,-229.0452 823.8475,-223.5007 813.3322,-222.205 814.8193,-229.0452"/>
</g>
<!-- Node10 -->
<g id="node11" class="node">
<title>Node10</title>
<g id="a_node11"><a xlink:href="_common_data_types_8hxx.html" target="_top" xlink:title=" ">
<polygon fill="none" stroke="#000000" points="1103.5049,-65.5 1103.5049,-93.5 1228.9971,-93.5 1228.9971,-65.5 1103.5049,-65.5"/>
<text text-anchor="start" x="1111.5049" y="-81.5" font-family="Helvetica,sans-Serif" font-size="10.00" fill="#000000">MeetingClient/types</text>
<text text-anchor="middle" x="1166.251" y="-71.5" font-family="Helvetica,sans-Serif" font-size="10.00" fill="#000000">/CommonDataTypes.hxx</text>
</a>
</g>
</g>
<!-- Node9&#45;&gt;Node10 -->
<g id="edge10" class="edge">
<title>Node9&#45;&gt;Node10</title>
<path fill="none" stroke="#191970" d="M786.4226,-131.743C789.4034,-131.125 792.3617,-130.5387 795.251,-130 897.9371,-110.8545 1017.8884,-95.8468 1092.9708,-87.3259"/>
<polygon fill="#191970" stroke="#191970" points="1093.7156,-90.7642 1103.261,-86.1668 1092.932,-83.8082 1093.7156,-90.7642"/>
</g>
<!-- Node13 -->
<g id="node14" class="node">
<title>Node13</title>
<g id="a_node14"><a xlink:href="strong__identity_8hxx.html" target="_top" xlink:title=" ">
<polygon fill="none" stroke="#000000" points="683.541,-65.5 683.541,-93.5 784.9609,-93.5 784.9609,-65.5 683.541,-65.5"/>
<text text-anchor="start" x="691.541" y="-81.5" font-family="Helvetica,sans-Serif" font-size="10.00" fill="#000000">MeetingClient/utils</text>
<text text-anchor="middle" x="734.251" y="-71.5" font-family="Helvetica,sans-Serif" font-size="10.00" fill="#000000">/strong_identity.hxx</text>
</a>
</g>
</g>
<!-- Node9&#45;&gt;Node13 -->
<g id="edge13" class="edge">
<title>Node9&#45;&gt;Node13</title>
<path fill="none" stroke="#191970" d="M734.251,-130.396C734.251,-122.6448 734.251,-112.8122 734.251,-103.8601"/>
<polygon fill="#191970" stroke="#191970" points="737.7511,-103.5765 734.251,-93.5765 730.7511,-103.5765 737.7511,-103.5765"/>
</g>
<!-- Node11 -->
<g id="node12" class="node">
<title>Node11</title>
<g id="a_node12"><a xlink:title=" ">
<polygon fill="none" stroke="#bfbfbf" points="1359.0244,-5.5 1359.0244,-23.5 1399.4775,-23.5 1399.4775,-5.5 1359.0244,-5.5"/>
<text text-anchor="middle" x="1379.251" y="-11.5" font-family="Helvetica,sans-Serif" font-size="10.00" fill="#000000">string</text>
</a>
</g>
</g>
<!-- Node10&#45;&gt;Node11 -->
<g id="edge11" class="edge">
<title>Node10&#45;&gt;Node11</title>
<path fill="none" stroke="#191970" d="M1212.2066,-65.476C1253.6137,-52.84 1313.3052,-34.6243 1348.9915,-23.7341"/>
<polygon fill="#191970" stroke="#191970" points="1350.2741,-27.0021 1358.8171,-20.7357 1348.2309,-20.3069 1350.2741,-27.0021"/>
</g>
<!-- Node12 -->
<g id="node13" class="node">
<title>Node12</title>
<g id="a_node13"><a xlink:title=" ">
<polygon fill="none" stroke="#bfbfbf" points="1115.4556,-5.5 1115.4556,-23.5 1217.0464,-23.5 1217.0464,-5.5 1115.4556,-5.5"/>
<text text-anchor="middle" x="1166.251" y="-11.5" font-family="Helvetica,sans-Serif" font-size="10.00" fill="#000000">CommonTypes.hxx</text>
</a>
</g>
</g>
<!-- Node10&#45;&gt;Node12 -->
<g id="edge12" class="edge">
<title>Node10&#45;&gt;Node12</title>
<path fill="none" stroke="#191970" d="M1166.251,-65.396C1166.251,-56.1723 1166.251,-44.0011 1166.251,-33.8738"/>
<polygon fill="#191970" stroke="#191970" points="1169.7511,-33.5743 1166.251,-23.5743 1162.7511,-33.5743 1169.7511,-33.5743"/>
</g>
<!-- Node14 -->
<g id="node15" class="node">
<title>Node14</title>
<g id="a_node15"><a xlink:title=" ">
<polygon fill="none" stroke="#bfbfbf" points="682.0518,-.5 682.0518,-28.5 786.4502,-28.5 786.4502,-.5 682.0518,-.5"/>
<text text-anchor="start" x="690.0518" y="-16.5" font-family="Helvetica,sans-Serif" font-size="10.00" fill="#000000">boost/serialization</text>
<text text-anchor="middle" x="734.251" y="-6.5" font-family="Helvetica,sans-Serif" font-size="10.00" fill="#000000">/strong_typedef.hpp</text>
</a>
</g>
</g>
<!-- Node13&#45;&gt;Node14 -->
<g id="edge14" class="edge">
<title>Node13&#45;&gt;Node14</title>
<path fill="none" stroke="#191970" d="M734.251,-65.396C734.251,-57.6448 734.251,-47.8122 734.251,-38.8601"/>
<polygon fill="#191970" stroke="#191970" points="737.7511,-38.5765 734.251,-28.5765 730.7511,-38.5765 737.7511,-38.5765"/>
</g>
<!-- Node16&#45;&gt;Node9 -->
<g id="edge17" class="edge">
<title>Node16&#45;&gt;Node9</title>
<path fill="none" stroke="#191970" d="M854.8353,-195.396C832.0314,-185.7709 801.623,-172.9362 777.0481,-162.5637"/>
<polygon fill="#191970" stroke="#191970" points="778.1755,-159.2406 767.6015,-158.5765 775.4534,-165.6897 778.1755,-159.2406"/>
</g>
<!-- Node17 -->
<g id="node18" class="node">
<title>Node17</title>
<g id="a_node18"><a xlink:title=" ">
<polygon fill="none" stroke="#bfbfbf" points="994.687,-135.5 994.687,-153.5 1051.8149,-153.5 1051.8149,-135.5 994.687,-135.5"/>
<text text-anchor="middle" x="1023.251" y="-141.5" font-family="Helvetica,sans-Serif" font-size="10.00" fill="#000000">algorithm</text>
</a>
</g>
</g>
<!-- Node16&#45;&gt;Node17 -->
<g id="edge18" class="edge">
<title>Node16&#45;&gt;Node17</title>
<path fill="none" stroke="#191970" d="M917.544,-195.396C940.6145,-184.2879 972.5638,-168.9049 995.2846,-157.9653"/>
<polygon fill="#191970" stroke="#191970" points="996.9127,-161.066 1004.4043,-153.5743 993.8759,-154.759 996.9127,-161.066"/>
</g>
<!-- Node18 -->
<g id="node19" class="node">
<title>Node18</title>
<g id="a_node19"><a xlink:title=" ">
<polygon fill="none" stroke="#bfbfbf" points="804.3472,-135.5 804.3472,-153.5 878.1548,-153.5 878.1548,-135.5 804.3472,-135.5"/>
<text text-anchor="middle" x="841.251" y="-141.5" font-family="Helvetica,sans-Serif" font-size="10.00" fill="#000000">Printable.hxx</text>
</a>
</g>
</g>
<!-- Node16&#45;&gt;Node18 -->
<g id="edge19" class="edge">
<title>Node16&#45;&gt;Node18</title>
<path fill="none" stroke="#191970" d="M878.0527,-195.396C870.953,-185.5773 861.4381,-172.4184 853.8618,-161.9406"/>
<polygon fill="#191970" stroke="#191970" points="856.5081,-159.627 847.8124,-153.5743 850.8357,-163.7287 856.5081,-159.627"/>
</g>
<!-- Node19 -->
<g id="node20" class="node">
<title>Node19</title>
<g id="a_node20"><a xlink:title=" ">
<polygon fill="none" stroke="#bfbfbf" points="895.7314,-135.5 895.7314,-153.5 976.7705,-153.5 976.7705,-135.5 895.7314,-135.5"/>
<text text-anchor="middle" x="936.251" y="-141.5" font-family="Helvetica,sans-Serif" font-size="10.00" fill="#000000">VoIPClient.hxx</text>
</a>
</g>
</g>
<!-- Node16&#45;&gt;Node19 -->
<g id="edge20" class="edge">
<title>Node16&#45;&gt;Node19</title>
<path fill="none" stroke="#191970" d="M898.6663,-195.396C905.9902,-185.4781 915.8309,-172.1522 923.6056,-161.6239"/>
<polygon fill="#191970" stroke="#191970" points="926.425,-163.6978 929.55,-153.5743 920.794,-159.5395 926.425,-163.6978"/>
</g>
<!-- Node20&#45;&gt;Node2 -->
<g id="edge24" class="edge">
<title>Node20&#45;&gt;Node2</title>
<path fill="none" stroke="#191970" d="M929.9185,-330.4692C920.3082,-328.5698 910.5366,-326.6939 901.251,-325 819.3957,-310.0682 725.0434,-295.1072 661.7187,-285.3906"/>
<polygon fill="#191970" stroke="#191970" points="662.243,-281.9301 651.8286,-283.8769 661.1839,-288.8496 662.243,-281.9301"/>
</g>
<!-- Node20&#45;&gt;Node10 -->
<g id="edge25" class="edge">
<title>Node20&#45;&gt;Node10</title>
<path fill="none" stroke="#191970" d="M1017.1864,-330.4991C1044.7386,-310.1368 1094.2223,-269.7516 1122.251,-224 1145.7986,-185.5628 1157.5613,-133.5961 1162.7487,-103.5977"/>
<polygon fill="#191970" stroke="#191970" points="1166.2231,-104.0372 1164.372,-93.6053 1159.3137,-102.9146 1166.2231,-104.0372"/>
</g>
<!-- Node21&#45;&gt;Node2 -->
<g id="edge27" class="edge">
<title>Node21&#45;&gt;Node2</title>
<path fill="none" stroke="#191970" d="M1126.5782,-330.4573C1115.458,-328.4621 1104.0585,-326.5615 1093.251,-325 940.4726,-302.9268 760.2435,-287.3806 662.0423,-279.7887"/>
<polygon fill="#191970" stroke="#191970" points="662.1681,-276.2881 651.9295,-279.0126 661.6324,-283.2676 662.1681,-276.2881"/>
</g>
<!-- Node21&#45;&gt;Node10 -->
<g id="edge28" class="edge">
<title>Node21&#45;&gt;Node10</title>
<path fill="none" stroke="#191970" d="M1194.638,-330.2524C1189.7648,-287.2054 1175.1519,-158.1248 1169.0139,-103.9055"/>
<polygon fill="#191970" stroke="#191970" points="1172.4746,-103.3608 1167.8719,-93.818 1165.5191,-104.1483 1172.4746,-103.3608"/>
</g>
<!-- Node22&#45;&gt;Node2 -->
<g id="edge30" class="edge">
<title>Node22&#45;&gt;Node2</title>
<path fill="none" stroke="#191970" d="M588.4533,-330.3345C588.5821,-321.3208 588.7523,-309.4086 588.9024,-298.9029"/>
<polygon fill="#191970" stroke="#191970" points="592.4056,-298.6935 589.0489,-288.6445 585.4063,-298.5934 592.4056,-298.6935"/>
</g>
<!-- Node23&#45;&gt;Node2 -->
<g id="edge32" class="edge">
<title>Node23&#45;&gt;Node2</title>
<path fill="none" stroke="#191970" d="M747.9804,-330.3345C716.4533,-319.2445 672.4526,-303.7669 638.7721,-291.9195"/>
<polygon fill="#191970" stroke="#191970" points="639.7165,-288.5415 629.1217,-288.5249 637.3936,-295.1449 639.7165,-288.5415"/>
</g>
<!-- Node24&#45;&gt;Node2 -->
<g id="edge35" class="edge">
<title>Node24&#45;&gt;Node2</title>
<path fill="none" stroke="#191970" d="M1307.8415,-326.4641C1304.9475,-325.9331 1302.0758,-325.4415 1299.251,-325 1068.3389,-288.908 791.0971,-278.5814 662.0122,-275.6491"/>
<polygon fill="#191970" stroke="#191970" points="661.9289,-272.1466 651.8547,-275.4268 661.7756,-279.1449 661.9289,-272.1466"/>
</g>
<!-- Node24&#45;&gt;Node11 -->
<g id="edge34" class="edge">
<title>Node24&#45;&gt;Node11</title>
<path fill="none" stroke="#191970" d="M1379.251,-325.2739C1379.251,-299.0898 1379.251,-250.75 1379.251,-209.5 1379.251,-209.5 1379.251,-209.5 1379.251,-144.5 1379.251,-105.1604 1379.251,-59.1244 1379.251,-33.7485"/>
<polygon fill="#191970" stroke="#191970" points="1382.7511,-33.6414 1379.251,-23.6414 1375.7511,-33.6414 1382.7511,-33.6414"/>
</g>
<!-- Node25&#45;&gt;Node2 -->
<g id="edge37" class="edge">
<title>Node25&#45;&gt;Node2</title>
<path fill="none" stroke="#191970" d="M1492.0368,-330.4519C1481.163,-328.3429 1469.9086,-326.4071 1459.251,-325 1305.8596,-304.7489 842.24,-284.6221 662.0131,-277.3474"/>
<polygon fill="#191970" stroke="#191970" points="661.9744,-273.8432 651.8418,-276.9384 661.6931,-280.8375 661.9744,-273.8432"/>
</g>
<!-- Node25&#45;&gt;Node11 -->
<g id="edge38" class="edge">
<title>Node25&#45;&gt;Node11</title>
<path fill="none" stroke="#191970" d="M1540.4607,-330.3107C1520.7628,-306.931 1485.251,-258.0493 1485.251,-209.5 1485.251,-209.5 1485.251,-209.5 1485.251,-144.5 1485.251,-93.0807 1434.8242,-50.7478 1403.5321,-29.4285"/>
<polygon fill="#191970" stroke="#191970" points="1405.1688,-26.3157 1394.8916,-23.7408 1401.32,-32.1627 1405.1688,-26.3157"/>
</g>
<!-- Node26&#45;&gt;Node2 -->
<g id="edge40" class="edge">
<title>Node26&#45;&gt;Node2</title>
<path fill="none" stroke="#191970" d="M301.4147,-330.4543C310.0881,-328.586 318.8848,-326.7225 327.251,-325 391.1878,-311.836 464.1231,-297.8627 516.7769,-287.9598"/>
<polygon fill="#191970" stroke="#191970" points="517.5145,-291.3826 526.6968,-286.0972 516.2226,-284.5028 517.5145,-291.3826"/>
</g>
<!-- Node27&#45;&gt;Node2 -->
<g id="edge42" class="edge">
<title>Node27&#45;&gt;Node2</title>
<path fill="none" stroke="#191970" d="M449.6648,-330.3345C477.0327,-319.3873 515.0891,-304.1648 544.5537,-292.3789"/>
<polygon fill="#191970" stroke="#191970" points="546.2039,-295.4885 554.1888,-288.5249 543.6042,-288.9892 546.2039,-295.4885"/>
</g>
</g>
</svg>
        <g id="navigator" transform="translate(0 0)" fill="#404254">
                <rect fill="#f2f5e9" fill-opacity="0.5" stroke="#606060" stroke-width=".5" x="0" y="0" width="60" height="60"/>
                <use id="zoomplus" xlink:href="#zoomPlus" x="17" y="9" onmousedown="handleZoom(evt,'in')"/>
                <use id="zoomminus" xlink:href="#zoomMin" x="42" y="9" onmousedown="handleZoom(evt,'out')"/>
                <use id="reset" xlink:href="#resetDef" x="30" y="36" onmousedown="handleReset()"/>
                <g id="arrowUp" xlink:href="#dirArrow" transform="translate(30 24)" onmousedown="handlePan(0,-1)">
                  <use xlink:href="#rim" fill="#404040">
                        <set attributeName="fill" to="#808080" begin="arrowUp.mouseover" end="arrowUp.mouseout"/>
                  </use>
                  <path fill="none" stroke="white" stroke-width="1.5" d="M0,-3.0v7 M-2.5,-0.5L0,-3.0L2.5,-0.5"/>
                </g>
                <g id="arrowRight" xlink:href="#dirArrow" transform="rotate(90) translate(36 -43)" onmousedown="handlePan(1,0)">
                  <use xlink:href="#rim" fill="#404040">
                        <set attributeName="fill" to="#808080" begin="arrowRight.mouseover" end="arrowRight.mouseout"/>
                  </use>
                  <path fill="none" stroke="white" stroke-width="1.5" d="M0,-3.0v7 M-2.5,-0.5L0,-3.0L2.5,-0.5"/>
                </g>
                <g id="arrowDown" xlink:href="#dirArrow" transform="rotate(180) translate(-30 -48)" onmousedown="handlePan(0,1)">
                  <use xlink:href="#rim" fill="#404040">
                        <set attributeName="fill" to="#808080" begin="arrowDown.mouseover" end="arrowDown.mouseout"/>
                  </use>
                  <path fill="none" stroke="white" stroke-width="1.5" d="M0,-3.0v7 M-2.5,-0.5L0,-3.0L2.5,-0.5"/>
                </g>
                <g id="arrowLeft" xlink:href="#dirArrow" transform="rotate(270) translate(-36 17)" onmousedown="handlePan(-1,0)">
                  <use xlink:href="#rim" fill="#404040">
                        <set attributeName="fill" to="#808080" begin="arrowLeft.mouseover" end="arrowLeft.mouseout"/>
                  </use>
                  <path fill="none" stroke="white" stroke-width="1.5" d="M0,-3.0v7 M-2.5,-0.5L0,-3.0L2.5,-0.5"/>
                </g>
        </g>
        <svg viewBox="0 0 15 15" width="100%" height="30px" preserveAspectRatio="xMaxYMin meet">
         <g id="arrow_out" transform="scale(0.3 0.3)">
          <a xlink:href="_delegates_provider_8hxx__incl_org.svg" target="_base">
           <rect id="button" ry="5" rx="5" y="6" x="6" height="38" width="38"
                fill="#f2f5e9" fill-opacity="0.5" stroke="#606060" stroke-width="1.0"/>
           <path id="arrow"
             d="M 11.500037,31.436501 C 11.940474,20.09759 22.043105,11.32322 32.158766,21.979434 L 37.068811,17.246167 C 37.068811,17.246167 37.088388,32 37.088388,32 L 22.160133,31.978069 C 22.160133,31.978069 26.997745,27.140456 26.997745,27.140456 C 18.528582,18.264221 13.291696,25.230495 11.500037,31.436501 z"
             style="fill:#404040;"/>
          </a>
         </g>
        </svg>
</svg>
