<?xml version="1.0" encoding="UTF-8" standalone="no"?>
<!DOCTYPE svg PUBLIC "-//W3C//DTD SVG 1.1//EN"
 "http://www.w3.org/Graphics/SVG/1.1/DTD/svg11.dtd">
<!-- Generated by graphviz version 2.40.1 (20161225.0304)
 -->
<!-- Title: /Users/oskryp/Projects/freesee&#45;native&#45;client/libs/fcc_sdk/engine/meetingclient/src/headers/MeetingClient/DesktopCaptureThreadAdaptor.hxx Pages: 1 -->
<svg width="308pt" height="187pt"
 viewBox="0.00 0.00 308.05 187.00" xmlns="http://www.w3.org/2000/svg" xmlns:xlink="http://www.w3.org/1999/xlink">
<g id="graph0" class="graph" transform="scale(1 1) rotate(0) translate(4 183)">
<title>/Users/oskryp/Projects/freesee&#45;native&#45;client/libs/fcc_sdk/engine/meetingclient/src/headers/MeetingClient/DesktopCaptureThreadAdaptor.hxx</title>
<!-- Node0 -->
<g id="node1" class="node">
<title>Node0</title>
<g id="a_node1"><a xlink:title=" ">
<polygon fill="#bfbfbf" stroke="#000000" points="49.5396,-120.5 49.5396,-178.5 259.5239,-178.5 259.5239,-120.5 49.5396,-120.5"/>
<text text-anchor="start" x="57.5396" y="-166.5" font-family="Helvetica,sans-Serif" font-size="10.00" fill="#000000">/Users/oskryp/Projects</text>
<text text-anchor="start" x="57.5396" y="-156.5" font-family="Helvetica,sans-Serif" font-size="10.00" fill="#000000">/freesee&#45;native&#45;client</text>
<text text-anchor="start" x="57.5396" y="-146.5" font-family="Helvetica,sans-Serif" font-size="10.00" fill="#000000">/libs/fcc_sdk/engine/meetingclient</text>
<text text-anchor="start" x="57.5396" y="-136.5" font-family="Helvetica,sans-Serif" font-size="10.00" fill="#000000">/src/headers/MeetingClient/DesktopCapture</text>
<text text-anchor="middle" x="154.5317" y="-126.5" font-family="Helvetica,sans-Serif" font-size="10.00" fill="#000000">ThreadAdaptor.hxx</text>
</a>
</g>
</g>
<!-- Node1 -->
<g id="node2" class="node">
<title>Node1</title>
<g id="a_node2"><a xlink:href="_screen_capture_manager_8hxx.html" target="_top" xlink:title=" ">
<polygon fill="none" stroke="#000000" points="80.9409,-55.5 80.9409,-83.5 228.1226,-83.5 228.1226,-55.5 80.9409,-55.5"/>
<text text-anchor="start" x="88.9409" y="-71.5" font-family="Helvetica,sans-Serif" font-size="10.00" fill="#000000">MeetingClient/ScreenCapture</text>
<text text-anchor="middle" x="154.5317" y="-61.5" font-family="Helvetica,sans-Serif" font-size="10.00" fill="#000000">Manager.hxx</text>
</a>
</g>
</g>
<!-- Node0&#45;&gt;Node1 -->
<g id="edge1" class="edge">
<title>Node0&#45;&gt;Node1</title>
<path fill="none" stroke="#191970" d="M154.5317,-120.1652C154.5317,-111.4834 154.5317,-102.0784 154.5317,-93.7556"/>
<polygon fill="#191970" stroke="#191970" points="158.0318,-93.5895 154.5317,-83.5895 151.0318,-93.5896 158.0318,-93.5895"/>
</g>
<!-- Node2 -->
<g id="node3" class="node">
<title>Node2</title>
<g id="a_node3"><a xlink:title=" ">
<polygon fill="none" stroke="#bfbfbf" points="0,-.5 0,-18.5 151.0635,-18.5 151.0635,-.5 0,-.5"/>
<text text-anchor="middle" x="75.5317" y="-6.5" font-family="Helvetica,sans-Serif" font-size="10.00" fill="#000000">FSDesktopCaptureThread.hxx</text>
</a>
</g>
</g>
<!-- Node1&#45;&gt;Node2 -->
<g id="edge2" class="edge">
<title>Node1&#45;&gt;Node2</title>
<path fill="none" stroke="#191970" d="M135.8098,-55.2808C123.767,-46.1344 108.1219,-34.252 95.7888,-24.8851"/>
<polygon fill="#191970" stroke="#191970" points="97.5731,-21.8452 87.4926,-18.5842 93.3393,-27.4198 97.5731,-21.8452"/>
</g>
<!-- Node3 -->
<g id="node4" class="node">
<title>Node3</title>
<g id="a_node4"><a xlink:href="macros_8hxx.html" target="_top" xlink:title=" ">
<polygon fill="none" stroke="#000000" points="169.0098,-.5 169.0098,-18.5 300.0537,-18.5 300.0537,-.5 169.0098,-.5"/>
<text text-anchor="middle" x="234.5317" y="-6.5" font-family="Helvetica,sans-Serif" font-size="10.00" fill="#000000">MeetingClient/macros.hxx</text>
</a>
</g>
</g>
<!-- Node1&#45;&gt;Node3 -->
<g id="edge3" class="edge">
<title>Node1&#45;&gt;Node3</title>
<path fill="none" stroke="#191970" d="M173.4906,-55.2808C185.8043,-46.0456 201.837,-34.021 214.3811,-24.613"/>
<polygon fill="#191970" stroke="#191970" points="216.5195,-27.3842 222.4195,-18.5842 212.3195,-21.7842 216.5195,-27.3842"/>
</g>
</g>
</svg>
