<?xml version="1.0" encoding="UTF-8" standalone="no"?>
<!DOCTYPE svg PUBLIC "-//W3C//DTD SVG 1.1//EN"
 "http://www.w3.org/Graphics/SVG/1.1/DTD/svg11.dtd">
<!-- Generated by graphviz version 2.40.1 (20161225.0304)
 -->
<!-- Title: /Users/oskryp/Projects/freesee&#45;native&#45;client/libs/fcc_sdk/engine/meetingclient/include/MeetingClient/webservices/Entities.hxx Pages: 1 -->
<svg width="326pt" height="122pt"
 viewBox="0.00 0.00 325.89 122.00" xmlns="http://www.w3.org/2000/svg" xmlns:xlink="http://www.w3.org/1999/xlink">
<g id="graph0" class="graph" transform="scale(1 1) rotate(0) translate(4 118)">
<title>/Users/oskryp/Projects/freesee&#45;native&#45;client/libs/fcc_sdk/engine/meetingclient/include/MeetingClient/webservices/Entities.hxx</title>
<!-- Node0 -->
<g id="node1" class="node">
<title>Node0</title>
<g id="a_node1"><a xlink:title=" ">
<polygon fill="#bfbfbf" stroke="#000000" points="54.8105,-55.5 54.8105,-113.5 226.9971,-113.5 226.9971,-55.5 54.8105,-55.5"/>
<text text-anchor="start" x="62.8105" y="-101.5" font-family="Helvetica,sans-Serif" font-size="10.00" fill="#000000">/Users/oskryp/Projects</text>
<text text-anchor="start" x="62.8105" y="-91.5" font-family="Helvetica,sans-Serif" font-size="10.00" fill="#000000">/freesee&#45;native&#45;client</text>
<text text-anchor="start" x="62.8105" y="-81.5" font-family="Helvetica,sans-Serif" font-size="10.00" fill="#000000">/libs/fcc_sdk/engine/meetingclient</text>
<text text-anchor="start" x="62.8105" y="-71.5" font-family="Helvetica,sans-Serif" font-size="10.00" fill="#000000">/include/MeetingClient/webservices</text>
<text text-anchor="middle" x="140.9038" y="-61.5" font-family="Helvetica,sans-Serif" font-size="10.00" fill="#000000">/Entities.hxx</text>
</a>
</g>
</g>
<!-- Node1 -->
<g id="node2" class="node">
<title>Node1</title>
<g id="a_node2"><a xlink:title=" ">
<polygon fill="none" stroke="#bfbfbf" points="0,-.5 0,-18.5 73.8076,-18.5 73.8076,-.5 0,-.5"/>
<text text-anchor="middle" x="36.9038" y="-6.5" font-family="Helvetica,sans-Serif" font-size="10.00" fill="#000000">Printable.hxx</text>
</a>
</g>
</g>
<!-- Node0&#45;&gt;Node1 -->
<g id="edge1" class="edge">
<title>Node0&#45;&gt;Node1</title>
<path fill="none" stroke="#191970" d="M100.3969,-55.2883C85.8942,-44.8296 70.136,-33.4655 57.9465,-24.675"/>
<polygon fill="#191970" stroke="#191970" points="59.9285,-21.7892 49.7704,-18.7788 55.834,-27.4668 59.9285,-21.7892"/>
</g>
<!-- Node2 -->
<g id="node3" class="node">
<title>Node2</title>
<g id="a_node3"><a xlink:title=" ">
<polygon fill="none" stroke="#bfbfbf" points="92.0396,-.5 92.0396,-18.5 189.7681,-18.5 189.7681,-.5 92.0396,-.5"/>
<text text-anchor="middle" x="140.9038" y="-6.5" font-family="Helvetica,sans-Serif" font-size="10.00" fill="#000000">boost/function.hpp</text>
</a>
</g>
</g>
<!-- Node0&#45;&gt;Node2 -->
<g id="edge2" class="edge">
<title>Node0&#45;&gt;Node2</title>
<path fill="none" stroke="#191970" d="M140.9038,-55.2883C140.9038,-46.4543 140.9038,-36.9743 140.9038,-28.9448"/>
<polygon fill="#191970" stroke="#191970" points="144.4039,-28.7787 140.9038,-18.7788 137.4039,-28.7788 144.4039,-28.7787"/>
</g>
<!-- Node3 -->
<g id="node4" class="node">
<title>Node3</title>
<g id="a_node4"><a xlink:title=" ">
<polygon fill="none" stroke="#bfbfbf" points="207.9214,-.5 207.9214,-18.5 317.8862,-18.5 317.8862,-.5 207.9214,-.5"/>
<text text-anchor="middle" x="262.9038" y="-6.5" font-family="Helvetica,sans-Serif" font-size="10.00" fill="#000000">boost/shared_ptr.hpp</text>
</a>
</g>
</g>
<!-- Node0&#45;&gt;Node3 -->
<g id="edge3" class="edge">
<title>Node0&#45;&gt;Node3</title>
<path fill="none" stroke="#191970" d="M188.4215,-55.2883C205.8744,-44.559 224.8773,-32.8769 239.3204,-23.998"/>
<polygon fill="#191970" stroke="#191970" points="241.4049,-26.8251 248.0909,-18.6063 237.7389,-20.8618 241.4049,-26.8251"/>
</g>
</g>
</svg>
