<?xml version="1.0" encoding="UTF-8" standalone="no"?>
<!DOCTYPE svg PUBLIC "-//W3C//DTD SVG 1.1//EN"
 "http://www.w3.org/Graphics/SVG/1.1/DTD/svg11.dtd">
<!-- Generated by graphviz version 2.40.1 (20161225.0304)
 -->
<!-- Title: /Users/oskryp/Projects/freesee&#45;native&#45;client/libs/fcc_sdk/engine/meetingclient/include/MeetingClient/types/GroupState.hxx Pages: 1 -->
<svg width="221pt" height="177pt"
 viewBox="0.00 0.00 221.33 177.00" xmlns="http://www.w3.org/2000/svg" xmlns:xlink="http://www.w3.org/1999/xlink">
<g id="graph0" class="graph" transform="scale(1 1) rotate(0) translate(4 173)">
<title>/Users/oskryp/Projects/freesee&#45;native&#45;client/libs/fcc_sdk/engine/meetingclient/include/MeetingClient/types/GroupState.hxx</title>
<!-- Node0 -->
<g id="node1" class="node">
<title>Node0</title>
<g id="a_node1"><a xlink:title=" ">
<polygon fill="#bfbfbf" stroke="#000000" points="0,-120.5 0,-168.5 213.3291,-168.5 213.3291,-120.5 0,-120.5"/>
<text text-anchor="start" x="8" y="-156.5" font-family="Helvetica,sans-Serif" font-size="10.00" fill="#000000">/Users/oskryp/Projects</text>
<text text-anchor="start" x="8" y="-146.5" font-family="Helvetica,sans-Serif" font-size="10.00" fill="#000000">/freesee&#45;native&#45;client</text>
<text text-anchor="start" x="8" y="-136.5" font-family="Helvetica,sans-Serif" font-size="10.00" fill="#000000">/libs/fcc_sdk/engine/meetingclient</text>
<text text-anchor="middle" x="106.6646" y="-126.5" font-family="Helvetica,sans-Serif" font-size="10.00" fill="#000000">/include/MeetingClient/types/GroupState.hxx</text>
</a>
</g>
</g>
<!-- Node1 -->
<g id="node2" class="node">
<title>Node1</title>
<g id="a_node2"><a xlink:href="_common_data_types_8hxx.html" target="_top" xlink:title=" ">
<polygon fill="none" stroke="#000000" points="43.9185,-55.5 43.9185,-83.5 169.4106,-83.5 169.4106,-55.5 43.9185,-55.5"/>
<text text-anchor="start" x="51.9185" y="-71.5" font-family="Helvetica,sans-Serif" font-size="10.00" fill="#000000">MeetingClient/types</text>
<text text-anchor="middle" x="106.6646" y="-61.5" font-family="Helvetica,sans-Serif" font-size="10.00" fill="#000000">/CommonDataTypes.hxx</text>
</a>
</g>
</g>
<!-- Node0&#45;&gt;Node1 -->
<g id="edge1" class="edge">
<title>Node0&#45;&gt;Node1</title>
<path fill="none" stroke="#191970" d="M106.6646,-120.3567C106.6646,-111.8057 106.6646,-102.1888 106.6646,-93.6382"/>
<polygon fill="#191970" stroke="#191970" points="110.1646,-93.5381 106.6646,-83.5382 103.1646,-93.5382 110.1646,-93.5381"/>
</g>
<!-- Node2 -->
<g id="node3" class="node">
<title>Node2</title>
<g id="a_node3"><a xlink:title=" ">
<polygon fill="none" stroke="#bfbfbf" points="42.438,-.5 42.438,-18.5 82.8911,-18.5 82.8911,-.5 42.438,-.5"/>
<text text-anchor="middle" x="62.6646" y="-6.5" font-family="Helvetica,sans-Serif" font-size="10.00" fill="#000000">string</text>
</a>
</g>
</g>
<!-- Node1&#45;&gt;Node2 -->
<g id="edge2" class="edge">
<title>Node1&#45;&gt;Node2</title>
<path fill="none" stroke="#191970" d="M96.2372,-55.2808C89.9856,-46.756 81.9911,-35.8545 75.3718,-26.8281"/>
<polygon fill="#191970" stroke="#191970" points="78.0624,-24.5785 69.3263,-18.5842 72.4175,-28.718 78.0624,-24.5785"/>
</g>
<!-- Node3 -->
<g id="node4" class="node">
<title>Node3</title>
<g id="a_node4"><a xlink:title=" ">
<polygon fill="none" stroke="#bfbfbf" points="100.8691,-.5 100.8691,-18.5 202.46,-18.5 202.46,-.5 100.8691,-.5"/>
<text text-anchor="middle" x="151.6646" y="-6.5" font-family="Helvetica,sans-Serif" font-size="10.00" fill="#000000">CommonTypes.hxx</text>
</a>
</g>
</g>
<!-- Node1&#45;&gt;Node3 -->
<g id="edge3" class="edge">
<title>Node1&#45;&gt;Node3</title>
<path fill="none" stroke="#191970" d="M117.3289,-55.2808C123.7226,-46.756 131.8987,-35.8545 138.6685,-26.8281"/>
<polygon fill="#191970" stroke="#191970" points="141.6514,-28.6842 144.8514,-18.5842 136.0514,-24.4842 141.6514,-28.6842"/>
</g>
</g>
</svg>
