<?xml version="1.0" encoding="UTF-8" standalone="no"?>
<!DOCTYPE svg PUBLIC "-//W3C//DTD SVG 1.1//EN"
 "http://www.w3.org/Graphics/SVG/1.1/DTD/svg11.dtd">
<!-- Generated by graphviz version 2.40.1 (20161225.0304)
 -->
<!-- Title: /Users/oskryp/Projects/freesee&#45;native&#45;client/libs/fcc_sdk/engine/meetingclient/src/GroupDescriptor.cxx Pages: 1 -->
<!--zoomable 297 -->
<svg id="main" version="1.1" xmlns="http://www.w3.org/2000/svg" xmlns:xlink="http://www.w3.org/1999/xlink" xml:space="preserve" onload="init(evt)">
<style type="text/css"><![CDATA[
.edge:hover path { stroke: red; }
.edge:hover polygon { stroke: red; fill: red; }
]]></style>
<script type="text/javascript"><![CDATA[
var edges = document.getElementsByTagName('g');
if (edges && edges.length) {
  for (var i=0;i<edges.length;i++) {
    if (edges[i].id.substr(0,4)=='edge') {
      edges[i].setAttribute('class','edge');
    }
  }
}
]]></script>
        <defs>
                <circle id="rim" cx="0" cy="0" r="7"/>
                <circle id="rim2" cx="0" cy="0" r="3.5"/>
                <g id="zoomPlus">
                        <use xlink:href="#rim" fill="#404040">
                                <set attributeName="fill" to="#808080" begin="zoomplus.mouseover" end="zoomplus.mouseout"/>
                        </use>
                        <path d="M-4,0h8M0,-4v8" fill="none" stroke="white" stroke-width="1.5" pointer-events="none"/>
                </g>
                <g id="zoomMin">
                        <use xlink:href="#rim" fill="#404040">
                                <set attributeName="fill" to="#808080" begin="zoomminus.mouseover" end="zoomminus.mouseout"/>
                        </use>
                        <path d="M-4,0h8" fill="none" stroke="white" stroke-width="1.5" pointer-events="none"/>
                </g>
                <g id="dirArrow">
                        <path fill="none" stroke="white" stroke-width="1.5" d="M0,-3.0v7 M-2.5,-0.5L0,-3.0L2.5,-0.5"/>
                </g>
               <g id="resetDef">
                       <use xlink:href="#rim2" fill="#404040">
                               <set attributeName="fill" to="#808080" begin="reset.mouseover" end="reset.mouseout"/>
                       </use>
               </g>
        </defs>

<script type="text/javascript">
var viewWidth = 581;
var viewHeight = 297;
var sectionId = 'dynsection-0';
</script>
<script xlink:href="svgpan.js"/>
<svg id="graph" class="graph">
<g id="viewport">
<title>/Users/oskryp/Projects/freesee&#45;native&#45;client/libs/fcc_sdk/engine/meetingclient/src/GroupDescriptor.cxx</title>
<!-- Node0 -->
<g id="node1" class="node">
<title>Node0</title>
<g id="a_node1"><a xlink:title=" ">
<polygon fill="#bfbfbf" stroke="#000000" points="330.4976,-240.5 330.4976,-288.5 495.4673,-288.5 495.4673,-240.5 330.4976,-240.5"/>
<text text-anchor="start" x="338.4976" y="-276.5" font-family="Helvetica,sans-Serif" font-size="10.00" fill="#000000">/Users/oskryp/Projects</text>
<text text-anchor="start" x="338.4976" y="-266.5" font-family="Helvetica,sans-Serif" font-size="10.00" fill="#000000">/freesee&#45;native&#45;client</text>
<text text-anchor="start" x="338.4976" y="-256.5" font-family="Helvetica,sans-Serif" font-size="10.00" fill="#000000">/libs/fcc_sdk/engine/meetingclient</text>
<text text-anchor="middle" x="412.9824" y="-246.5" font-family="Helvetica,sans-Serif" font-size="10.00" fill="#000000">/src/GroupDescriptor.cxx</text>
</a>
</g>
</g>
<!-- Node1 -->
<g id="node2" class="node">
<title>Node1</title>
<g id="a_node2"><a xlink:href="_group_descriptor_8hxx.html" target="_top" xlink:title=" ">
<polygon fill="none" stroke="#000000" points="288.0664,-185.5 288.0664,-203.5 421.8984,-203.5 421.8984,-185.5 288.0664,-185.5"/>
<text text-anchor="middle" x="354.9824" y="-191.5" font-family="Helvetica,sans-Serif" font-size="10.00" fill="#000000">types/GroupDescriptor.hxx</text>
</a>
</g>
</g>
<!-- Node0&#45;&gt;Node1 -->
<g id="edge1" class="edge">
<title>Node0&#45;&gt;Node1</title>
<path fill="none" stroke="#191970" d="M393.0221,-240.41C385.1577,-230.9185 376.3079,-220.2376 369.1245,-211.568"/>
<polygon fill="#191970" stroke="#191970" points="371.67,-209.1544 362.5947,-203.6872 366.2798,-213.6206 371.67,-209.1544"/>
</g>
<!-- Node9 -->
<g id="node10" class="node">
<title>Node9</title>
<g id="a_node10"><a xlink:title=" ">
<polygon fill="none" stroke="#bfbfbf" points="439.5171,-185.5 439.5171,-203.5 504.4478,-203.5 504.4478,-185.5 439.5171,-185.5"/>
<text text-anchor="middle" x="471.9824" y="-191.5" font-family="Helvetica,sans-Serif" font-size="10.00" fill="#000000">Logger.hxx</text>
</a>
</g>
</g>
<!-- Node0&#45;&gt;Node9 -->
<g id="edge11" class="edge">
<title>Node0&#45;&gt;Node9</title>
<path fill="none" stroke="#191970" d="M433.2869,-240.41C441.2868,-230.9185 450.2893,-220.2376 457.5966,-211.568"/>
<polygon fill="#191970" stroke="#191970" points="460.4703,-213.5892 464.2389,-203.6872 455.1179,-209.0779 460.4703,-213.5892"/>
</g>
<!-- Node2 -->
<g id="node3" class="node">
<title>Node2</title>
<g id="a_node3"><a xlink:title=" ">
<polygon fill="none" stroke="#bfbfbf" points="0,-125.5 0,-143.5 109.9648,-143.5 109.9648,-125.5 0,-125.5"/>
<text text-anchor="middle" x="54.9824" y="-131.5" font-family="Helvetica,sans-Serif" font-size="10.00" fill="#000000">boost/shared_ptr.hpp</text>
</a>
</g>
</g>
<!-- Node1&#45;&gt;Node2 -->
<g id="edge2" class="edge">
<title>Node1&#45;&gt;Node2</title>
<path fill="none" stroke="#191970" d="M305.6205,-185.4639C257.8091,-176.5981 183.3041,-162.4833 118.9824,-149 114.0223,-147.9602 108.8534,-146.844 103.6982,-145.7093"/>
<polygon fill="#191970" stroke="#191970" points="104.3813,-142.2757 93.8598,-143.5195 102.8605,-149.1085 104.3813,-142.2757"/>
</g>
<!-- Node3 -->
<g id="node4" class="node">
<title>Node3</title>
<g id="a_node4"><a xlink:title=" ">
<polygon fill="none" stroke="#bfbfbf" points="127.6724,-125.5 127.6724,-143.5 244.2925,-143.5 244.2925,-125.5 127.6724,-125.5"/>
<text text-anchor="middle" x="185.9824" y="-131.5" font-family="Helvetica,sans-Serif" font-size="10.00" fill="#000000">boost/thread/locks.hpp</text>
</a>
</g>
</g>
<!-- Node1&#45;&gt;Node3 -->
<g id="edge3" class="edge">
<title>Node1&#45;&gt;Node3</title>
<path fill="none" stroke="#191970" d="M329.315,-185.3873C300.3611,-175.1078 253.1123,-158.3331 220.8367,-146.8743"/>
<polygon fill="#191970" stroke="#191970" points="221.9324,-143.5493 211.3377,-143.5019 219.5904,-150.1459 221.9324,-143.5493"/>
</g>
<!-- Node4 -->
<g id="node5" class="node">
<title>Node4</title>
<g id="a_node5"><a xlink:title=" ">
<polygon fill="none" stroke="#bfbfbf" points="262.5073,-120.5 262.5073,-148.5 367.4575,-148.5 367.4575,-120.5 262.5073,-120.5"/>
<text text-anchor="start" x="270.5073" y="-136.5" font-family="Helvetica,sans-Serif" font-size="10.00" fill="#000000">boost/thread/shared</text>
<text text-anchor="middle" x="314.9824" y="-126.5" font-family="Helvetica,sans-Serif" font-size="10.00" fill="#000000">_mutex.hpp</text>
</a>
</g>
</g>
<!-- Node1&#45;&gt;Node4 -->
<g id="edge4" class="edge">
<title>Node1&#45;&gt;Node4</title>
<path fill="none" stroke="#191970" d="M348.9073,-185.3873C343.9543,-177.9579 336.7395,-167.1356 330.2355,-157.3796"/>
<polygon fill="#191970" stroke="#191970" points="333.0068,-155.2267 324.5475,-148.8477 327.1824,-159.1096 333.0068,-155.2267"/>
</g>
<!-- Node5 -->
<g id="node6" class="node">
<title>Node5</title>
<g id="a_node6"><a xlink:title=" ">
<polygon fill="none" stroke="#bfbfbf" points="375.7559,-.5 375.7559,-18.5 416.209,-18.5 416.209,-.5 375.7559,-.5"/>
<text text-anchor="middle" x="395.9824" y="-6.5" font-family="Helvetica,sans-Serif" font-size="10.00" fill="#000000">string</text>
</a>
</g>
</g>
<!-- Node1&#45;&gt;Node5 -->
<g id="edge5" class="edge">
<title>Node1&#45;&gt;Node5</title>
<path fill="none" stroke="#191970" d="M360.1456,-185.397C364.9998,-176.4246 372.0859,-162.1823 375.9824,-149 388.362,-107.1188 393.2014,-55.8202 394.997,-28.5989"/>
<polygon fill="#191970" stroke="#191970" points="398.4974,-28.6934 395.5933,-18.5043 391.5096,-28.2805 398.4974,-28.6934"/>
</g>
<!-- Node6 -->
<g id="node7" class="node">
<title>Node6</title>
<g id="a_node7"><a xlink:href="_common_data_types_8hxx.html" target="_top" xlink:title=" ">
<polygon fill="none" stroke="#000000" points="423.2363,-55.5 423.2363,-83.5 548.7285,-83.5 548.7285,-55.5 423.2363,-55.5"/>
<text text-anchor="start" x="431.2363" y="-71.5" font-family="Helvetica,sans-Serif" font-size="10.00" fill="#000000">MeetingClient/types</text>
<text text-anchor="middle" x="485.9824" y="-61.5" font-family="Helvetica,sans-Serif" font-size="10.00" fill="#000000">/CommonDataTypes.hxx</text>
</a>
</g>
</g>
<!-- Node1&#45;&gt;Node6 -->
<g id="edge6" class="edge">
<title>Node1&#45;&gt;Node6</title>
<path fill="none" stroke="#191970" d="M366.4378,-185.411C377.5697,-176.4489 394.8201,-162.2141 408.9824,-149 429.1449,-130.1875 450.9006,-107.4825 466.1264,-91.1618"/>
<polygon fill="#191970" stroke="#191970" points="468.8061,-93.4194 473.0408,-83.7077 463.674,-88.659 468.8061,-93.4194"/>
</g>
<!-- Node8 -->
<g id="node9" class="node">
<title>Node8</title>
<g id="a_node9"><a xlink:href="_group_state_8hxx.html" target="_top" xlink:title=" ">
<polygon fill="none" stroke="#000000" points="460.9014,-125.5 460.9014,-143.5 573.0635,-143.5 573.0635,-125.5 460.9014,-125.5"/>
<text text-anchor="middle" x="516.9824" y="-131.5" font-family="Helvetica,sans-Serif" font-size="10.00" fill="#000000">types/GroupState.hxx</text>
</a>
</g>
</g>
<!-- Node1&#45;&gt;Node8 -->
<g id="edge9" class="edge">
<title>Node1&#45;&gt;Node8</title>
<path fill="none" stroke="#191970" d="M379.5867,-185.3873C407.2217,-175.1521 452.243,-158.4776 483.1709,-147.0228"/>
<polygon fill="#191970" stroke="#191970" points="484.5155,-150.2572 492.6774,-143.5019 482.0842,-143.693 484.5155,-150.2572"/>
</g>
<!-- Node6&#45;&gt;Node5 -->
<g id="edge7" class="edge">
<title>Node6&#45;&gt;Node5</title>
<path fill="none" stroke="#191970" d="M464.6537,-55.2808C450.6676,-45.9568 432.4167,-33.7895 418.2459,-24.3423"/>
<polygon fill="#191970" stroke="#191970" points="419.8707,-21.2191 409.6087,-18.5842 415.9878,-27.0434 419.8707,-21.2191"/>
</g>
<!-- Node7 -->
<g id="node8" class="node">
<title>Node7</title>
<g id="a_node8"><a xlink:title=" ">
<polygon fill="none" stroke="#bfbfbf" points="435.187,-.5 435.187,-18.5 536.7778,-18.5 536.7778,-.5 435.187,-.5"/>
<text text-anchor="middle" x="485.9824" y="-6.5" font-family="Helvetica,sans-Serif" font-size="10.00" fill="#000000">CommonTypes.hxx</text>
</a>
</g>
</g>
<!-- Node6&#45;&gt;Node7 -->
<g id="edge8" class="edge">
<title>Node6&#45;&gt;Node7</title>
<path fill="none" stroke="#191970" d="M485.9824,-55.2808C485.9824,-47.3776 485.9824,-37.4316 485.9824,-28.8308"/>
<polygon fill="#191970" stroke="#191970" points="489.4825,-28.5842 485.9824,-18.5842 482.4825,-28.5842 489.4825,-28.5842"/>
</g>
<!-- Node8&#45;&gt;Node6 -->
<g id="edge10" class="edge">
<title>Node8&#45;&gt;Node6</title>
<path fill="none" stroke="#191970" d="M512.672,-125.462C508.7088,-117.1522 502.6559,-104.4605 497.3157,-93.2634"/>
<polygon fill="#191970" stroke="#191970" points="500.3407,-91.4752 492.8768,-83.9559 494.0224,-94.4886 500.3407,-91.4752"/>
</g>
</g>
</svg>
        <g id="navigator" transform="translate(0 0)" fill="#404254">
                <rect fill="#f2f5e9" fill-opacity="0.5" stroke="#606060" stroke-width=".5" x="0" y="0" width="60" height="60"/>
                <use id="zoomplus" xlink:href="#zoomPlus" x="17" y="9" onmousedown="handleZoom(evt,'in')"/>
                <use id="zoomminus" xlink:href="#zoomMin" x="42" y="9" onmousedown="handleZoom(evt,'out')"/>
                <use id="reset" xlink:href="#resetDef" x="30" y="36" onmousedown="handleReset()"/>
                <g id="arrowUp" xlink:href="#dirArrow" transform="translate(30 24)" onmousedown="handlePan(0,-1)">
                  <use xlink:href="#rim" fill="#404040">
                        <set attributeName="fill" to="#808080" begin="arrowUp.mouseover" end="arrowUp.mouseout"/>
                  </use>
                  <path fill="none" stroke="white" stroke-width="1.5" d="M0,-3.0v7 M-2.5,-0.5L0,-3.0L2.5,-0.5"/>
                </g>
                <g id="arrowRight" xlink:href="#dirArrow" transform="rotate(90) translate(36 -43)" onmousedown="handlePan(1,0)">
                  <use xlink:href="#rim" fill="#404040">
                        <set attributeName="fill" to="#808080" begin="arrowRight.mouseover" end="arrowRight.mouseout"/>
                  </use>
                  <path fill="none" stroke="white" stroke-width="1.5" d="M0,-3.0v7 M-2.5,-0.5L0,-3.0L2.5,-0.5"/>
                </g>
                <g id="arrowDown" xlink:href="#dirArrow" transform="rotate(180) translate(-30 -48)" onmousedown="handlePan(0,1)">
                  <use xlink:href="#rim" fill="#404040">
                        <set attributeName="fill" to="#808080" begin="arrowDown.mouseover" end="arrowDown.mouseout"/>
                  </use>
                  <path fill="none" stroke="white" stroke-width="1.5" d="M0,-3.0v7 M-2.5,-0.5L0,-3.0L2.5,-0.5"/>
                </g>
                <g id="arrowLeft" xlink:href="#dirArrow" transform="rotate(270) translate(-36 17)" onmousedown="handlePan(-1,0)">
                  <use xlink:href="#rim" fill="#404040">
                        <set attributeName="fill" to="#808080" begin="arrowLeft.mouseover" end="arrowLeft.mouseout"/>
                  </use>
                  <path fill="none" stroke="white" stroke-width="1.5" d="M0,-3.0v7 M-2.5,-0.5L0,-3.0L2.5,-0.5"/>
                </g>
        </g>
        <svg viewBox="0 0 15 15" width="100%" height="30px" preserveAspectRatio="xMaxYMin meet">
         <g id="arrow_out" transform="scale(0.3 0.3)">
          <a xlink:href="_group_descriptor_8cxx__incl_org.svg" target="_base">
           <rect id="button" ry="5" rx="5" y="6" x="6" height="38" width="38"
                fill="#f2f5e9" fill-opacity="0.5" stroke="#606060" stroke-width="1.0"/>
           <path id="arrow"
             d="M 11.500037,31.436501 C 11.940474,20.09759 22.043105,11.32322 32.158766,21.979434 L 37.068811,17.246167 C 37.068811,17.246167 37.088388,32 37.088388,32 L 22.160133,31.978069 C 22.160133,31.978069 26.997745,27.140456 26.997745,27.140456 C 18.528582,18.264221 13.291696,25.230495 11.500037,31.436501 z"
             style="fill:#404040;"/>
          </a>
         </g>
        </svg>
</svg>
