<?xml version="1.0" encoding="UTF-8" standalone="no"?>
<!DOCTYPE svg PUBLIC "-//W3C//DTD SVG 1.1//EN"
 "http://www.w3.org/Graphics/SVG/1.1/DTD/svg11.dtd">
<!-- Generated by graphviz version 2.40.1 (20161225.0304)
 -->
<!-- Title: /Users/oskryp/Projects/freesee&#45;native&#45;client/libs/fcc_sdk/engine/meetingclient/src/headers/MeetingClient/HTTPRequest.hxx Pages: 1 -->
<!--zoomable 177 -->
<svg id="main" version="1.1" xmlns="http://www.w3.org/2000/svg" xmlns:xlink="http://www.w3.org/1999/xlink" xml:space="preserve" onload="init(evt)">
<style type="text/css"><![CDATA[
.edge:hover path { stroke: red; }
.edge:hover polygon { stroke: red; fill: red; }
]]></style>
<script type="text/javascript"><![CDATA[
var edges = document.getElementsByTagName('g');
if (edges && edges.length) {
  for (var i=0;i<edges.length;i++) {
    if (edges[i].id.substr(0,4)=='edge') {
      edges[i].setAttribute('class','edge');
    }
  }
}
]]></script>
        <defs>
                <circle id="rim" cx="0" cy="0" r="7"/>
                <circle id="rim2" cx="0" cy="0" r="3.5"/>
                <g id="zoomPlus">
                        <use xlink:href="#rim" fill="#404040">
                                <set attributeName="fill" to="#808080" begin="zoomplus.mouseover" end="zoomplus.mouseout"/>
                        </use>
                        <path d="M-4,0h8M0,-4v8" fill="none" stroke="white" stroke-width="1.5" pointer-events="none"/>
                </g>
                <g id="zoomMin">
                        <use xlink:href="#rim" fill="#404040">
                                <set attributeName="fill" to="#808080" begin="zoomminus.mouseover" end="zoomminus.mouseout"/>
                        </use>
                        <path d="M-4,0h8" fill="none" stroke="white" stroke-width="1.5" pointer-events="none"/>
                </g>
                <g id="dirArrow">
                        <path fill="none" stroke="white" stroke-width="1.5" d="M0,-3.0v7 M-2.5,-0.5L0,-3.0L2.5,-0.5"/>
                </g>
               <g id="resetDef">
                       <use xlink:href="#rim2" fill="#404040">
                               <set attributeName="fill" to="#808080" begin="reset.mouseover" end="reset.mouseout"/>
                       </use>
               </g>
        </defs>

<script type="text/javascript">
var viewWidth = 780;
var viewHeight = 177;
var sectionId = 'dynsection-0';
</script>
<script xlink:href="svgpan.js"/>
<svg id="graph" class="graph">
<g id="viewport">
<title>/Users/oskryp/Projects/freesee&#45;native&#45;client/libs/fcc_sdk/engine/meetingclient/src/headers/MeetingClient/HTTPRequest.hxx</title>
<!-- Node0 -->
<g id="node1" class="node">
<title>Node0</title>
<g id="a_node1"><a xlink:title=" ">
<polygon fill="#bfbfbf" stroke="#000000" points="239.1479,-120.5 239.1479,-168.5 458.5659,-168.5 458.5659,-120.5 239.1479,-120.5"/>
<text text-anchor="start" x="247.1479" y="-156.5" font-family="Helvetica,sans-Serif" font-size="10.00" fill="#000000">/Users/oskryp/Projects</text>
<text text-anchor="start" x="247.1479" y="-146.5" font-family="Helvetica,sans-Serif" font-size="10.00" fill="#000000">/freesee&#45;native&#45;client</text>
<text text-anchor="start" x="247.1479" y="-136.5" font-family="Helvetica,sans-Serif" font-size="10.00" fill="#000000">/libs/fcc_sdk/engine/meetingclient</text>
<text text-anchor="middle" x="348.8569" y="-126.5" font-family="Helvetica,sans-Serif" font-size="10.00" fill="#000000">/src/headers/MeetingClient/HTTPRequest.hxx</text>
</a>
</g>
</g>
<!-- Node1 -->
<g id="node2" class="node">
<title>Node1</title>
<g id="a_node2"><a xlink:title=" ">
<polygon fill="none" stroke="#bfbfbf" points="0,-60.5 0,-78.5 117.7139,-78.5 117.7139,-60.5 0,-60.5"/>
<text text-anchor="middle" x="58.8569" y="-66.5" font-family="Helvetica,sans-Serif" font-size="10.00" fill="#000000">ASIO/HTTPLoader.hxx</text>
</a>
</g>
</g>
<!-- Node0&#45;&gt;Node1 -->
<g id="edge1" class="edge">
<title>Node0&#45;&gt;Node1</title>
<path fill="none" stroke="#191970" d="M255.9025,-120.4601C204.8912,-107.2675 143.9712,-91.5123 103.509,-81.0479"/>
<polygon fill="#191970" stroke="#191970" points="104.239,-77.6217 93.6812,-78.5063 102.4863,-84.3987 104.239,-77.6217"/>
</g>
<!-- Node2 -->
<g id="node3" class="node">
<title>Node2</title>
<g id="a_node3"><a xlink:title=" ">
<polygon fill="none" stroke="#bfbfbf" points="135.3916,-60.5 135.3916,-78.5 200.3223,-78.5 200.3223,-60.5 135.3916,-60.5"/>
<text text-anchor="middle" x="167.8569" y="-66.5" font-family="Helvetica,sans-Serif" font-size="10.00" fill="#000000">Logger.hxx</text>
</a>
</g>
</g>
<!-- Node0&#45;&gt;Node2 -->
<g id="edge2" class="edge">
<title>Node0&#45;&gt;Node2</title>
<path fill="none" stroke="#191970" d="M290.5911,-120.3567C260.3016,-107.8058 224.4708,-92.9588 199.3687,-82.5574"/>
<polygon fill="#191970" stroke="#191970" points="200.5556,-79.2607 189.9775,-78.666 197.876,-85.7275 200.5556,-79.2607"/>
</g>
<!-- Node3 -->
<g id="node4" class="node">
<title>Node3</title>
<g id="a_node4"><a xlink:href="uri__string_8hxx.html" target="_top" xlink:title=" ">
<polygon fill="none" stroke="#000000" points="218.3867,-55.5 218.3867,-83.5 353.3271,-83.5 353.3271,-55.5 218.3867,-55.5"/>
<text text-anchor="start" x="226.3867" y="-71.5" font-family="Helvetica,sans-Serif" font-size="10.00" fill="#000000">MeetingClient/webservices</text>
<text text-anchor="middle" x="285.8569" y="-61.5" font-family="Helvetica,sans-Serif" font-size="10.00" fill="#000000">/uri_string.hxx</text>
</a>
</g>
</g>
<!-- Node0&#45;&gt;Node3 -->
<g id="edge3" class="edge">
<title>Node0&#45;&gt;Node3</title>
<path fill="none" stroke="#191970" d="M328.5766,-120.3567C320.7552,-111.0456 311.8723,-100.4707 304.2402,-91.3848"/>
<polygon fill="#191970" stroke="#191970" points="306.7609,-88.9441 297.649,-83.5382 301.401,-93.4464 306.7609,-88.9441"/>
</g>
<!-- Node6 -->
<g id="node7" class="node">
<title>Node6</title>
<g id="a_node7"><a xlink:title=" ">
<polygon fill="none" stroke="#bfbfbf" points="371.3325,-60.5 371.3325,-78.5 452.3813,-78.5 452.3813,-60.5 371.3325,-60.5"/>
<text text-anchor="middle" x="411.8569" y="-66.5" font-family="Helvetica,sans-Serif" font-size="10.00" fill="#000000">boost/asio.hpp</text>
</a>
</g>
</g>
<!-- Node0&#45;&gt;Node6 -->
<g id="edge6" class="edge">
<title>Node0&#45;&gt;Node6</title>
<path fill="none" stroke="#191970" d="M369.1373,-120.3567C378.3739,-109.3608 389.0909,-96.6025 397.4801,-86.6153"/>
<polygon fill="#191970" stroke="#191970" points="400.4055,-88.5742 404.1575,-78.666 395.0456,-84.0719 400.4055,-88.5742"/>
</g>
<!-- Node7 -->
<g id="node8" class="node">
<title>Node7</title>
<g id="a_node8"><a xlink:title=" ">
<polygon fill="none" stroke="#bfbfbf" points="470.7783,-60.5 470.7783,-78.5 562.9355,-78.5 562.9355,-60.5 470.7783,-60.5"/>
<text text-anchor="middle" x="516.8569" y="-66.5" font-family="Helvetica,sans-Serif" font-size="10.00" fill="#000000">boost/atomic.hpp</text>
</a>
</g>
</g>
<!-- Node0&#45;&gt;Node7 -->
<g id="edge7" class="edge">
<title>Node0&#45;&gt;Node7</title>
<path fill="none" stroke="#191970" d="M402.9379,-120.3567C430.8031,-107.9169 463.721,-93.2214 486.9875,-82.8346"/>
<polygon fill="#191970" stroke="#191970" points="488.6205,-85.9385 496.3251,-78.666 485.7669,-79.5466 488.6205,-85.9385"/>
</g>
<!-- Node8 -->
<g id="node9" class="node">
<title>Node8</title>
<g id="a_node9"><a xlink:href="_s_c_upload_data_8hxx.html" target="_top" xlink:title=" ">
<polygon fill="none" stroke="#000000" points="581.3745,-60.5 581.3745,-78.5 746.3394,-78.5 746.3394,-60.5 581.3745,-60.5"/>
<text text-anchor="middle" x="663.8569" y="-66.5" font-family="Helvetica,sans-Serif" font-size="10.00" fill="#000000">MeetingClient/SCUploadData.hxx</text>
</a>
</g>
</g>
<!-- Node0&#45;&gt;Node8 -->
<g id="edge8" class="edge">
<title>Node0&#45;&gt;Node8</title>
<path fill="none" stroke="#191970" d="M449.8247,-120.4601C505.5857,-107.1836 572.2468,-91.3119 616.1909,-80.849"/>
<polygon fill="#191970" stroke="#191970" points="617.1132,-84.2274 626.0306,-78.5063 615.4918,-77.4177 617.1132,-84.2274"/>
</g>
<!-- Node4 -->
<g id="node5" class="node">
<title>Node4</title>
<g id="a_node5"><a xlink:title=" ">
<polygon fill="none" stroke="#bfbfbf" points="226.0762,-.5 226.0762,-18.5 277.6377,-18.5 277.6377,-.5 226.0762,-.5"/>
<text text-anchor="middle" x="251.8569" y="-6.5" font-family="Helvetica,sans-Serif" font-size="10.00" fill="#000000">sstream</text>
</a>
</g>
</g>
<!-- Node3&#45;&gt;Node4 -->
<g id="edge4" class="edge">
<title>Node3&#45;&gt;Node4</title>
<path fill="none" stroke="#191970" d="M277.7994,-55.2808C273.0693,-46.9336 267.0479,-36.3076 261.9972,-27.3946"/>
<polygon fill="#191970" stroke="#191970" points="264.9799,-25.5589 257.0046,-18.5842 258.8897,-29.01 264.9799,-25.5589"/>
</g>
<!-- Node5 -->
<g id="node6" class="node">
<title>Node5</title>
<g id="a_node6"><a xlink:title=" ">
<polygon fill="none" stroke="#bfbfbf" points="295.3472,-.5 295.3472,-18.5 346.3667,-18.5 346.3667,-.5 295.3472,-.5"/>
<text text-anchor="middle" x="320.8569" y="-6.5" font-family="Helvetica,sans-Serif" font-size="10.00" fill="#000000">iomanip</text>
</a>
</g>
</g>
<!-- Node3&#45;&gt;Node5 -->
<g id="edge5" class="edge">
<title>Node3&#45;&gt;Node5</title>
<path fill="none" stroke="#191970" d="M294.1514,-55.2808C299.0207,-46.9336 305.2191,-36.3076 310.4184,-27.3946"/>
<polygon fill="#191970" stroke="#191970" points="313.5423,-28.9856 315.5578,-18.5842 307.4958,-25.4584 313.5423,-28.9856"/>
</g>
<!-- Node9 -->
<g id="node10" class="node">
<title>Node9</title>
<g id="a_node10"><a xlink:title=" ">
<polygon fill="none" stroke="#bfbfbf" points="518.5977,-.5 518.5977,-18.5 601.1162,-18.5 601.1162,-.5 518.5977,-.5"/>
<text text-anchor="middle" x="559.8569" y="-6.5" font-family="Helvetica,sans-Serif" font-size="10.00" fill="#000000">Utils/Buffer.hxx</text>
</a>
</g>
</g>
<!-- Node8&#45;&gt;Node9 -->
<g id="edge9" class="edge">
<title>Node8&#45;&gt;Node9</title>
<path fill="none" stroke="#191970" d="M648.0616,-60.3873C631.0886,-50.5952 603.8995,-34.9092 584.1909,-23.5388"/>
<polygon fill="#191970" stroke="#191970" points="585.8711,-20.4675 575.4602,-18.5019 582.373,-26.5308 585.8711,-20.4675"/>
</g>
<!-- Node10 -->
<g id="node11" class="node">
<title>Node10</title>
<g id="a_node11"><a xlink:title=" ">
<polygon fill="none" stroke="#bfbfbf" points="619.1797,-.5 619.1797,-18.5 708.5342,-18.5 708.5342,-.5 619.1797,-.5"/>
<text text-anchor="middle" x="663.8569" y="-6.5" font-family="Helvetica,sans-Serif" font-size="10.00" fill="#000000">Utils/EString.hxx</text>
</a>
</g>
</g>
<!-- Node8&#45;&gt;Node10 -->
<g id="edge10" class="edge">
<title>Node8&#45;&gt;Node10</title>
<path fill="none" stroke="#191970" d="M663.8569,-60.3873C663.8569,-52.0174 663.8569,-39.3414 663.8569,-28.735"/>
<polygon fill="#191970" stroke="#191970" points="667.357,-28.6984 663.8569,-18.6985 660.357,-28.6985 667.357,-28.6984"/>
</g>
<!-- Node11 -->
<g id="node12" class="node">
<title>Node11</title>
<g id="a_node12"><a xlink:title=" ">
<polygon fill="none" stroke="#bfbfbf" points="726.1255,-.5 726.1255,-18.5 771.5884,-18.5 771.5884,-.5 726.1255,-.5"/>
<text text-anchor="middle" x="748.8569" y="-6.5" font-family="Helvetica,sans-Serif" font-size="10.00" fill="#000000">stdio.h</text>
</a>
</g>
</g>
<!-- Node8&#45;&gt;Node11 -->
<g id="edge11" class="edge">
<title>Node8&#45;&gt;Node11</title>
<path fill="none" stroke="#191970" d="M676.7666,-60.3873C690.3249,-50.8168 711.8593,-35.6159 727.8661,-24.3171"/>
<polygon fill="#191970" stroke="#191970" points="729.953,-27.1281 736.1043,-18.5019 725.9162,-21.4094 729.953,-27.1281"/>
</g>
</g>
</svg>
        <g id="navigator" transform="translate(0 0)" fill="#404254">
                <rect fill="#f2f5e9" fill-opacity="0.5" stroke="#606060" stroke-width=".5" x="0" y="0" width="60" height="60"/>
                <use id="zoomplus" xlink:href="#zoomPlus" x="17" y="9" onmousedown="handleZoom(evt,'in')"/>
                <use id="zoomminus" xlink:href="#zoomMin" x="42" y="9" onmousedown="handleZoom(evt,'out')"/>
                <use id="reset" xlink:href="#resetDef" x="30" y="36" onmousedown="handleReset()"/>
                <g id="arrowUp" xlink:href="#dirArrow" transform="translate(30 24)" onmousedown="handlePan(0,-1)">
                  <use xlink:href="#rim" fill="#404040">
                        <set attributeName="fill" to="#808080" begin="arrowUp.mouseover" end="arrowUp.mouseout"/>
                  </use>
                  <path fill="none" stroke="white" stroke-width="1.5" d="M0,-3.0v7 M-2.5,-0.5L0,-3.0L2.5,-0.5"/>
                </g>
                <g id="arrowRight" xlink:href="#dirArrow" transform="rotate(90) translate(36 -43)" onmousedown="handlePan(1,0)">
                  <use xlink:href="#rim" fill="#404040">
                        <set attributeName="fill" to="#808080" begin="arrowRight.mouseover" end="arrowRight.mouseout"/>
                  </use>
                  <path fill="none" stroke="white" stroke-width="1.5" d="M0,-3.0v7 M-2.5,-0.5L0,-3.0L2.5,-0.5"/>
                </g>
                <g id="arrowDown" xlink:href="#dirArrow" transform="rotate(180) translate(-30 -48)" onmousedown="handlePan(0,1)">
                  <use xlink:href="#rim" fill="#404040">
                        <set attributeName="fill" to="#808080" begin="arrowDown.mouseover" end="arrowDown.mouseout"/>
                  </use>
                  <path fill="none" stroke="white" stroke-width="1.5" d="M0,-3.0v7 M-2.5,-0.5L0,-3.0L2.5,-0.5"/>
                </g>
                <g id="arrowLeft" xlink:href="#dirArrow" transform="rotate(270) translate(-36 17)" onmousedown="handlePan(-1,0)">
                  <use xlink:href="#rim" fill="#404040">
                        <set attributeName="fill" to="#808080" begin="arrowLeft.mouseover" end="arrowLeft.mouseout"/>
                  </use>
                  <path fill="none" stroke="white" stroke-width="1.5" d="M0,-3.0v7 M-2.5,-0.5L0,-3.0L2.5,-0.5"/>
                </g>
        </g>
        <svg viewBox="0 0 15 15" width="100%" height="30px" preserveAspectRatio="xMaxYMin meet">
         <g id="arrow_out" transform="scale(0.3 0.3)">
          <a xlink:href="_h_t_t_p_request_8hxx__incl_org.svg" target="_base">
           <rect id="button" ry="5" rx="5" y="6" x="6" height="38" width="38"
                fill="#f2f5e9" fill-opacity="0.5" stroke="#606060" stroke-width="1.0"/>
           <path id="arrow"
             d="M 11.500037,31.436501 C 11.940474,20.09759 22.043105,11.32322 32.158766,21.979434 L 37.068811,17.246167 C 37.068811,17.246167 37.088388,32 37.088388,32 L 22.160133,31.978069 C 22.160133,31.978069 26.997745,27.140456 26.997745,27.140456 C 18.528582,18.264221 13.291696,25.230495 11.500037,31.436501 z"
             style="fill:#404040;"/>
          </a>
         </g>
        </svg>
</svg>
