<?xml version="1.0" encoding="UTF-8" standalone="no"?>
<!DOCTYPE svg PUBLIC "-//W3C//DTD SVG 1.1//EN"
 "http://www.w3.org/Graphics/SVG/1.1/DTD/svg11.dtd">
<!-- Generated by graphviz version 2.40.1 (20161225.0304)
 -->
<!-- Title: /Users/oskryp/Projects/freesee&#45;native&#45;client/libs/fcc_sdk/engine/meetingclient/include/MeetingClient/Delegates/IActiveSpeakerNotificationsDelegate.hxx Pages: 1 -->
<!--zoomable 392 -->
<svg id="main" version="1.1" xmlns="http://www.w3.org/2000/svg" xmlns:xlink="http://www.w3.org/1999/xlink" xml:space="preserve" onload="init(evt)">
<style type="text/css"><![CDATA[
.edge:hover path { stroke: red; }
.edge:hover polygon { stroke: red; fill: red; }
]]></style>
<script type="text/javascript"><![CDATA[
var edges = document.getElementsByTagName('g');
if (edges && edges.length) {
  for (var i=0;i<edges.length;i++) {
    if (edges[i].id.substr(0,4)=='edge') {
      edges[i].setAttribute('class','edge');
    }
  }
}
]]></script>
        <defs>
                <circle id="rim" cx="0" cy="0" r="7"/>
                <circle id="rim2" cx="0" cy="0" r="3.5"/>
                <g id="zoomPlus">
                        <use xlink:href="#rim" fill="#404040">
                                <set attributeName="fill" to="#808080" begin="zoomplus.mouseover" end="zoomplus.mouseout"/>
                        </use>
                        <path d="M-4,0h8M0,-4v8" fill="none" stroke="white" stroke-width="1.5" pointer-events="none"/>
                </g>
                <g id="zoomMin">
                        <use xlink:href="#rim" fill="#404040">
                                <set attributeName="fill" to="#808080" begin="zoomminus.mouseover" end="zoomminus.mouseout"/>
                        </use>
                        <path d="M-4,0h8" fill="none" stroke="white" stroke-width="1.5" pointer-events="none"/>
                </g>
                <g id="dirArrow">
                        <path fill="none" stroke="white" stroke-width="1.5" d="M0,-3.0v7 M-2.5,-0.5L0,-3.0L2.5,-0.5"/>
                </g>
               <g id="resetDef">
                       <use xlink:href="#rim2" fill="#404040">
                               <set attributeName="fill" to="#808080" begin="reset.mouseover" end="reset.mouseout"/>
                       </use>
               </g>
        </defs>

<script type="text/javascript">
var viewWidth = 1147;
var viewHeight = 392;
var sectionId = 'dynsection-0';
</script>
<script xlink:href="svgpan.js"/>
<svg id="graph" class="graph">
<g id="viewport">
<title>/Users/oskryp/Projects/freesee&#45;native&#45;client/libs/fcc_sdk/engine/meetingclient/include/MeetingClient/Delegates/IActiveSpeakerNotificationsDelegate.hxx</title>
<!-- Node0 -->
<g id="node1" class="node">
<title>Node0</title>
<g id="a_node1"><a xlink:title=" ">
<polygon fill="#bfbfbf" stroke="#000000" points="0,-325.5 0,-383.5 198.8711,-383.5 198.8711,-325.5 0,-325.5"/>
<text text-anchor="start" x="8" y="-371.5" font-family="Helvetica,sans-Serif" font-size="10.00" fill="#000000">/Users/oskryp/Projects</text>
<text text-anchor="start" x="8" y="-361.5" font-family="Helvetica,sans-Serif" font-size="10.00" fill="#000000">/freesee&#45;native&#45;client</text>
<text text-anchor="start" x="8" y="-351.5" font-family="Helvetica,sans-Serif" font-size="10.00" fill="#000000">/libs/fcc_sdk/engine/meetingclient</text>
<text text-anchor="start" x="8" y="-341.5" font-family="Helvetica,sans-Serif" font-size="10.00" fill="#000000">/include/MeetingClient/Delegates</text>
<text text-anchor="middle" x="99.4355" y="-331.5" font-family="Helvetica,sans-Serif" font-size="10.00" fill="#000000">/IActiveSpeakerNotificationsDelegate.hxx</text>
</a>
</g>
</g>
<!-- Node1 -->
<g id="node2" class="node">
<title>Node1</title>
<g id="a_node2"><a xlink:href="_notifications_8hxx.html" target="_top" xlink:title=" ">
<polygon fill="none" stroke="#000000" points="340.9604,-260.5 340.9604,-288.5 465.9106,-288.5 465.9106,-260.5 340.9604,-260.5"/>
<text text-anchor="start" x="348.9604" y="-276.5" font-family="Helvetica,sans-Serif" font-size="10.00" fill="#000000">MeetingClient/Delegates</text>
<text text-anchor="middle" x="403.4355" y="-266.5" font-family="Helvetica,sans-Serif" font-size="10.00" fill="#000000">/Notifications.hxx</text>
</a>
</g>
</g>
<!-- Node0&#45;&gt;Node1 -->
<g id="edge1" class="edge">
<title>Node0&#45;&gt;Node1</title>
<path fill="none" stroke="#191970" d="M198.9765,-328.305C245.5285,-316.0545 299.563,-301.8349 340.3882,-291.0914"/>
<polygon fill="#191970" stroke="#191970" points="341.4256,-294.4376 350.2056,-288.5079 339.6441,-287.6681 341.4256,-294.4376"/>
</g>
<!-- Node3 -->
<g id="node4" class="node">
<title>Node3</title>
<g id="a_node4"><a xlink:title=" ">
<polygon fill="none" stroke="#bfbfbf" points="24.709,-200.5 24.709,-218.5 60.1621,-218.5 60.1621,-200.5 24.709,-200.5"/>
<text text-anchor="middle" x="42.4355" y="-206.5" font-family="Helvetica,sans-Serif" font-size="10.00" fill="#000000">map</text>
</a>
</g>
</g>
<!-- Node0&#45;&gt;Node3 -->
<g id="edge20" class="edge">
<title>Node0&#45;&gt;Node3</title>
<path fill="none" stroke="#191970" d="M87.9007,-325.1571C76.5093,-296.1787 59.4323,-252.7375 49.7757,-228.1724"/>
<polygon fill="#191970" stroke="#191970" points="52.9346,-226.6413 46.0187,-218.615 46.4199,-229.2023 52.9346,-226.6413"/>
</g>
<!-- Node4 -->
<g id="node5" class="node">
<title>Node4</title>
<g id="a_node5"><a xlink:title=" ">
<polygon fill="none" stroke="#bfbfbf" points="77.8198,-200.5 77.8198,-218.5 121.0513,-218.5 121.0513,-200.5 77.8198,-200.5"/>
<text text-anchor="middle" x="99.4355" y="-206.5" font-family="Helvetica,sans-Serif" font-size="10.00" fill="#000000">vector</text>
</a>
</g>
</g>
<!-- Node0&#45;&gt;Node4 -->
<g id="edge21" class="edge">
<title>Node0&#45;&gt;Node4</title>
<path fill="none" stroke="#191970" d="M99.4355,-325.1571C99.4355,-296.4386 99.4355,-253.5155 99.4355,-228.8379"/>
<polygon fill="#191970" stroke="#191970" points="102.9356,-228.615 99.4355,-218.615 95.9356,-228.6151 102.9356,-228.615"/>
</g>
<!-- Node2 -->
<g id="node3" class="node">
<title>Node2</title>
<g id="a_node3"><a xlink:title=" ">
<polygon fill="none" stroke="#bfbfbf" points="287.7954,-195.5 287.7954,-223.5 401.0757,-223.5 401.0757,-195.5 287.7954,-195.5"/>
<text text-anchor="start" x="295.7954" y="-211.5" font-family="Helvetica,sans-Serif" font-size="10.00" fill="#000000">boost/date_time/posix</text>
<text text-anchor="middle" x="344.4355" y="-201.5" font-family="Helvetica,sans-Serif" font-size="10.00" fill="#000000">_time/posix_time.hpp</text>
</a>
</g>
</g>
<!-- Node1&#45;&gt;Node2 -->
<g id="edge2" class="edge">
<title>Node1&#45;&gt;Node2</title>
<path fill="none" stroke="#191970" d="M390.6334,-260.396C382.902,-251.8783 372.8889,-240.8469 364.1622,-231.2328"/>
<polygon fill="#191970" stroke="#191970" points="366.5254,-228.6287 357.2127,-223.5765 361.3422,-233.3335 366.5254,-228.6287"/>
</g>
<!-- Node1&#45;&gt;Node3 -->
<g id="edge3" class="edge">
<title>Node1&#45;&gt;Node3</title>
<path fill="none" stroke="#191970" d="M340.7292,-271.7444C272.2096,-267.2098 159.9945,-255.2768 68.4355,-224 67.5582,-223.7003 66.6762,-223.3714 65.7945,-223.0189"/>
<polygon fill="#191970" stroke="#191970" points="67.1125,-219.7692 56.5834,-218.5912 64.0798,-226.0781 67.1125,-219.7692"/>
</g>
<!-- Node1&#45;&gt;Node4 -->
<g id="edge4" class="edge">
<title>Node1&#45;&gt;Node4</title>
<path fill="none" stroke="#191970" d="M340.7717,-267.8011C284.4558,-260.6474 200.0025,-247.0913 129.4355,-224 128.1985,-223.5952 126.9472,-223.1496 125.6936,-222.6734"/>
<polygon fill="#191970" stroke="#191970" points="126.8093,-219.343 116.2408,-218.5962 124.0369,-225.7705 126.8093,-219.343"/>
</g>
<!-- Node5 -->
<g id="node6" class="node">
<title>Node5</title>
<g id="a_node6"><a xlink:title=" ">
<polygon fill="none" stroke="#bfbfbf" points="418.7485,-200.5 418.7485,-218.5 508.1226,-218.5 508.1226,-200.5 418.7485,-200.5"/>
<text text-anchor="middle" x="463.4355" y="-206.5" font-family="Helvetica,sans-Serif" font-size="10.00" fill="#000000">FSSnapshot.hxx</text>
</a>
</g>
</g>
<!-- Node1&#45;&gt;Node5 -->
<g id="edge5" class="edge">
<title>Node1&#45;&gt;Node5</title>
<path fill="none" stroke="#191970" d="M416.4547,-260.396C425.7927,-250.2797 438.4037,-236.6178 448.2088,-225.9956"/>
<polygon fill="#191970" stroke="#191970" points="450.8483,-228.2964 455.0593,-218.5743 445.7046,-223.5484 450.8483,-228.2964"/>
</g>
<!-- Node6 -->
<g id="node7" class="node">
<title>Node6</title>
<g id="a_node7"><a xlink:href="macros_8hxx.html" target="_top" xlink:title=" ">
<polygon fill="none" stroke="#000000" points="525.9136,-200.5 525.9136,-218.5 656.9575,-218.5 656.9575,-200.5 525.9136,-200.5"/>
<text text-anchor="middle" x="591.4355" y="-206.5" font-family="Helvetica,sans-Serif" font-size="10.00" fill="#000000">MeetingClient/macros.hxx</text>
</a>
</g>
</g>
<!-- Node1&#45;&gt;Node6 -->
<g id="edge6" class="edge">
<title>Node1&#45;&gt;Node6</title>
<path fill="none" stroke="#191970" d="M444.2287,-260.396C477.3606,-248.9408 523.6419,-232.9393 555.4178,-221.953"/>
<polygon fill="#191970" stroke="#191970" points="556.8825,-225.1499 565.1899,-218.5743 554.5951,-218.5342 556.8825,-225.1499"/>
</g>
<!-- Node7 -->
<g id="node8" class="node">
<title>Node7</title>
<g id="a_node8"><a xlink:href="_f_s_base_8hxx.html" target="_top" xlink:title=" ">
<polygon fill="none" stroke="#000000" points="674.7437,-195.5 674.7437,-223.5 794.1274,-223.5 794.1274,-195.5 674.7437,-195.5"/>
<text text-anchor="start" x="682.7437" y="-211.5" font-family="Helvetica,sans-Serif" font-size="10.00" fill="#000000">MeetingClient/transport</text>
<text text-anchor="middle" x="734.4355" y="-201.5" font-family="Helvetica,sans-Serif" font-size="10.00" fill="#000000">/FSBase.hxx</text>
</a>
</g>
</g>
<!-- Node1&#45;&gt;Node7 -->
<g id="edge7" class="edge">
<title>Node1&#45;&gt;Node7</title>
<path fill="none" stroke="#191970" d="M465.9442,-262.8685C516.9842,-253.2861 591.2537,-239.15 664.5195,-224.3697"/>
<polygon fill="#191970" stroke="#191970" points="665.272,-227.7885 674.3796,-222.3754 663.8842,-220.9274 665.272,-227.7885"/>
</g>
<!-- Node8 -->
<g id="node9" class="node">
<title>Node8</title>
<g id="a_node9"><a xlink:href="_meeting_types_8hxx.html" target="_top" xlink:title=" ">
<polygon fill="none" stroke="#000000" points="770.5244,-130.5 770.5244,-158.5 874.3467,-158.5 874.3467,-130.5 770.5244,-130.5"/>
<text text-anchor="start" x="778.5244" y="-146.5" font-family="Helvetica,sans-Serif" font-size="10.00" fill="#000000">MeetingClient/types</text>
<text text-anchor="middle" x="822.4355" y="-136.5" font-family="Helvetica,sans-Serif" font-size="10.00" fill="#000000">/MeetingTypes.hxx</text>
</a>
</g>
</g>
<!-- Node1&#45;&gt;Node8 -->
<g id="edge8" class="edge">
<title>Node1&#45;&gt;Node8</title>
<path fill="none" stroke="#191970" d="M466.2298,-270.47C572.522,-263.0816 778.8102,-246.0774 803.4355,-224 818.7325,-210.2858 822.8044,-186.6577 823.4551,-168.7148"/>
<polygon fill="#191970" stroke="#191970" points="826.9552,-168.6852 823.4951,-158.6713 819.9552,-168.6573 826.9552,-168.6852"/>
</g>
<!-- Node14 -->
<g id="node15" class="node">
<title>Node14</title>
<g id="a_node15"><a xlink:href="_conference_attribute_definitions_8hxx.html" target="_top" xlink:title=" ">
<polygon fill="none" stroke="#000000" points="138.6255,-195.5 138.6255,-223.5 270.2456,-223.5 270.2456,-195.5 138.6255,-195.5"/>
<text text-anchor="start" x="146.6255" y="-211.5" font-family="Helvetica,sans-Serif" font-size="10.00" fill="#000000">MeetingClient/Conference</text>
<text text-anchor="middle" x="204.4355" y="-201.5" font-family="Helvetica,sans-Serif" font-size="10.00" fill="#000000">AttributeDefinitions.hxx</text>
</a>
</g>
</g>
<!-- Node1&#45;&gt;Node14 -->
<g id="edge14" class="edge">
<title>Node1&#45;&gt;Node14</title>
<path fill="none" stroke="#191970" d="M360.2555,-260.396C330.0058,-250.5154 289.4009,-237.2525 257.2254,-226.7429"/>
<polygon fill="#191970" stroke="#191970" points="258.1238,-223.3545 247.5313,-223.5765 255.9503,-230.0085 258.1238,-223.3545"/>
</g>
<!-- Node15 -->
<g id="node16" class="node">
<title>Node15</title>
<g id="a_node16"><a xlink:href="_meeting_session_parameters_8hxx.html" target="_top" xlink:title=" ">
<polygon fill="none" stroke="#000000" points="850.8989,-195.5 850.8989,-223.5 1001.9722,-223.5 1001.9722,-195.5 850.8989,-195.5"/>
<text text-anchor="start" x="858.8989" y="-211.5" font-family="Helvetica,sans-Serif" font-size="10.00" fill="#000000">MeetingClient/MeetingSession</text>
<text text-anchor="middle" x="926.4355" y="-201.5" font-family="Helvetica,sans-Serif" font-size="10.00" fill="#000000">Parameters.hxx</text>
</a>
</g>
</g>
<!-- Node1&#45;&gt;Node15 -->
<g id="edge15" class="edge">
<title>Node1&#45;&gt;Node15</title>
<path fill="none" stroke="#191970" d="M465.9278,-268.077C550.196,-259.2183 704.8729,-242.2612 836.4355,-224 837.9052,-223.796 839.3879,-223.5875 840.8807,-223.3751"/>
<polygon fill="#191970" stroke="#191970" points="841.4583,-226.828 850.8494,-221.9231 840.4493,-219.9011 841.4583,-226.828"/>
</g>
<!-- Node9 -->
<g id="node10" class="node">
<title>Node9</title>
<g id="a_node10"><a xlink:href="_common_data_types_8hxx.html" target="_top" xlink:title=" ">
<polygon fill="none" stroke="#000000" points="694.6895,-65.5 694.6895,-93.5 820.1816,-93.5 820.1816,-65.5 694.6895,-65.5"/>
<text text-anchor="start" x="702.6895" y="-81.5" font-family="Helvetica,sans-Serif" font-size="10.00" fill="#000000">MeetingClient/types</text>
<text text-anchor="middle" x="757.4355" y="-71.5" font-family="Helvetica,sans-Serif" font-size="10.00" fill="#000000">/CommonDataTypes.hxx</text>
</a>
</g>
</g>
<!-- Node8&#45;&gt;Node9 -->
<g id="edge9" class="edge">
<title>Node8&#45;&gt;Node9</title>
<path fill="none" stroke="#191970" d="M808.3315,-130.396C799.6434,-121.7079 788.3402,-110.4046 778.5932,-100.6576"/>
<polygon fill="#191970" stroke="#191970" points="781.058,-98.1727 771.5121,-93.5765 776.1083,-103.1225 781.058,-98.1727"/>
</g>
<!-- Node12 -->
<g id="node13" class="node">
<title>Node12</title>
<g id="a_node13"><a xlink:href="strong__identity_8hxx.html" target="_top" xlink:title=" ">
<polygon fill="none" stroke="#000000" points="837.7256,-65.5 837.7256,-93.5 939.1455,-93.5 939.1455,-65.5 837.7256,-65.5"/>
<text text-anchor="start" x="845.7256" y="-81.5" font-family="Helvetica,sans-Serif" font-size="10.00" fill="#000000">MeetingClient/utils</text>
<text text-anchor="middle" x="888.4355" y="-71.5" font-family="Helvetica,sans-Serif" font-size="10.00" fill="#000000">/strong_identity.hxx</text>
</a>
</g>
</g>
<!-- Node8&#45;&gt;Node12 -->
<g id="edge12" class="edge">
<title>Node8&#45;&gt;Node12</title>
<path fill="none" stroke="#191970" d="M836.7566,-130.396C845.5783,-121.7079 857.0555,-110.4046 866.9524,-100.6576"/>
<polygon fill="#191970" stroke="#191970" points="869.4735,-103.0871 874.1425,-93.5765 864.5617,-98.0997 869.4735,-103.0871"/>
</g>
<!-- Node10 -->
<g id="node11" class="node">
<title>Node10</title>
<g id="a_node11"><a xlink:title=" ">
<polygon fill="none" stroke="#bfbfbf" points="758.209,-5.5 758.209,-23.5 798.6621,-23.5 798.6621,-5.5 758.209,-5.5"/>
<text text-anchor="middle" x="778.4355" y="-11.5" font-family="Helvetica,sans-Serif" font-size="10.00" fill="#000000">string</text>
</a>
</g>
</g>
<!-- Node9&#45;&gt;Node10 -->
<g id="edge10" class="edge">
<title>Node9&#45;&gt;Node10</title>
<path fill="none" stroke="#191970" d="M761.9922,-65.396C765.0363,-55.974 769.074,-43.4763 772.3865,-33.2233"/>
<polygon fill="#191970" stroke="#191970" points="775.76,-34.166 775.5038,-23.5743 769.099,-32.014 775.76,-34.166"/>
</g>
<!-- Node11 -->
<g id="node12" class="node">
<title>Node11</title>
<g id="a_node12"><a xlink:title=" ">
<polygon fill="none" stroke="#bfbfbf" points="638.6401,-5.5 638.6401,-23.5 740.231,-23.5 740.231,-5.5 638.6401,-5.5"/>
<text text-anchor="middle" x="689.4355" y="-11.5" font-family="Helvetica,sans-Serif" font-size="10.00" fill="#000000">CommonTypes.hxx</text>
</a>
</g>
</g>
<!-- Node9&#45;&gt;Node11 -->
<g id="edge11" class="edge">
<title>Node9&#45;&gt;Node11</title>
<path fill="none" stroke="#191970" d="M742.6806,-65.396C731.9937,-55.1805 717.5243,-41.3496 706.3666,-30.6841"/>
<polygon fill="#191970" stroke="#191970" points="708.5759,-27.9541 698.9287,-23.5743 703.739,-33.0142 708.5759,-27.9541"/>
</g>
<!-- Node13 -->
<g id="node14" class="node">
<title>Node13</title>
<g id="a_node14"><a xlink:title=" ">
<polygon fill="none" stroke="#bfbfbf" points="836.2363,-.5 836.2363,-28.5 940.6348,-28.5 940.6348,-.5 836.2363,-.5"/>
<text text-anchor="start" x="844.2363" y="-16.5" font-family="Helvetica,sans-Serif" font-size="10.00" fill="#000000">boost/serialization</text>
<text text-anchor="middle" x="888.4355" y="-6.5" font-family="Helvetica,sans-Serif" font-size="10.00" fill="#000000">/strong_typedef.hpp</text>
</a>
</g>
</g>
<!-- Node12&#45;&gt;Node13 -->
<g id="edge13" class="edge">
<title>Node12&#45;&gt;Node13</title>
<path fill="none" stroke="#191970" d="M888.4355,-65.396C888.4355,-57.6448 888.4355,-47.8122 888.4355,-38.8601"/>
<polygon fill="#191970" stroke="#191970" points="891.9356,-38.5765 888.4355,-28.5765 884.9356,-38.5765 891.9356,-38.5765"/>
</g>
<!-- Node15&#45;&gt;Node8 -->
<g id="edge16" class="edge">
<title>Node15&#45;&gt;Node8</title>
<path fill="none" stroke="#191970" d="M903.8691,-195.396C889.1505,-186.1968 869.7408,-174.0658 853.5629,-163.9546"/>
<polygon fill="#191970" stroke="#191970" points="855.293,-160.9085 844.958,-158.5765 851.5829,-166.8445 855.293,-160.9085"/>
</g>
<!-- Node16 -->
<g id="node17" class="node">
<title>Node16</title>
<g id="a_node17"><a xlink:title=" ">
<polygon fill="none" stroke="#bfbfbf" points="891.8716,-135.5 891.8716,-153.5 948.9995,-153.5 948.9995,-135.5 891.8716,-135.5"/>
<text text-anchor="middle" x="920.4355" y="-141.5" font-family="Helvetica,sans-Serif" font-size="10.00" fill="#000000">algorithm</text>
</a>
</g>
</g>
<!-- Node15&#45;&gt;Node16 -->
<g id="edge17" class="edge">
<title>Node15&#45;&gt;Node16</title>
<path fill="none" stroke="#191970" d="M925.1336,-195.396C924.2731,-186.0732 923.1345,-173.739 922.1938,-163.5479"/>
<polygon fill="#191970" stroke="#191970" points="925.6776,-163.2102 921.2732,-153.5743 918.7073,-163.8537 925.6776,-163.2102"/>
</g>
<!-- Node17 -->
<g id="node18" class="node">
<title>Node17</title>
<g id="a_node18"><a xlink:title=" ">
<polygon fill="none" stroke="#bfbfbf" points="966.5317,-135.5 966.5317,-153.5 1040.3394,-153.5 1040.3394,-135.5 966.5317,-135.5"/>
<text text-anchor="middle" x="1003.4355" y="-141.5" font-family="Helvetica,sans-Serif" font-size="10.00" fill="#000000">Printable.hxx</text>
</a>
</g>
</g>
<!-- Node15&#45;&gt;Node17 -->
<g id="edge18" class="edge">
<title>Node15&#45;&gt;Node17</title>
<path fill="none" stroke="#191970" d="M943.1434,-195.396C955.4797,-184.9822 972.267,-170.8111 984.9954,-160.0664"/>
<polygon fill="#191970" stroke="#191970" points="987.3023,-162.6994 992.686,-153.5743 982.7869,-157.3504 987.3023,-162.6994"/>
</g>
<!-- Node18 -->
<g id="node19" class="node">
<title>Node18</title>
<g id="a_node19"><a xlink:title=" ">
<polygon fill="none" stroke="#bfbfbf" points="1057.916,-135.5 1057.916,-153.5 1138.9551,-153.5 1138.9551,-135.5 1057.916,-135.5"/>
<text text-anchor="middle" x="1098.4355" y="-141.5" font-family="Helvetica,sans-Serif" font-size="10.00" fill="#000000">VoIPClient.hxx</text>
</a>
</g>
</g>
<!-- Node15&#45;&gt;Node18 -->
<g id="edge19" class="edge">
<title>Node15&#45;&gt;Node18</title>
<path fill="none" stroke="#191970" d="M963.757,-195.396C993.8067,-184.04 1035.6792,-168.216 1064.725,-157.2394"/>
<polygon fill="#191970" stroke="#191970" points="1066.3065,-160.3834 1074.4235,-153.5743 1063.8319,-153.8354 1066.3065,-160.3834"/>
</g>
</g>
</svg>
        <g id="navigator" transform="translate(0 0)" fill="#404254">
                <rect fill="#f2f5e9" fill-opacity="0.5" stroke="#606060" stroke-width=".5" x="0" y="0" width="60" height="60"/>
                <use id="zoomplus" xlink:href="#zoomPlus" x="17" y="9" onmousedown="handleZoom(evt,'in')"/>
                <use id="zoomminus" xlink:href="#zoomMin" x="42" y="9" onmousedown="handleZoom(evt,'out')"/>
                <use id="reset" xlink:href="#resetDef" x="30" y="36" onmousedown="handleReset()"/>
                <g id="arrowUp" xlink:href="#dirArrow" transform="translate(30 24)" onmousedown="handlePan(0,-1)">
                  <use xlink:href="#rim" fill="#404040">
                        <set attributeName="fill" to="#808080" begin="arrowUp.mouseover" end="arrowUp.mouseout"/>
                  </use>
                  <path fill="none" stroke="white" stroke-width="1.5" d="M0,-3.0v7 M-2.5,-0.5L0,-3.0L2.5,-0.5"/>
                </g>
                <g id="arrowRight" xlink:href="#dirArrow" transform="rotate(90) translate(36 -43)" onmousedown="handlePan(1,0)">
                  <use xlink:href="#rim" fill="#404040">
                        <set attributeName="fill" to="#808080" begin="arrowRight.mouseover" end="arrowRight.mouseout"/>
                  </use>
                  <path fill="none" stroke="white" stroke-width="1.5" d="M0,-3.0v7 M-2.5,-0.5L0,-3.0L2.5,-0.5"/>
                </g>
                <g id="arrowDown" xlink:href="#dirArrow" transform="rotate(180) translate(-30 -48)" onmousedown="handlePan(0,1)">
                  <use xlink:href="#rim" fill="#404040">
                        <set attributeName="fill" to="#808080" begin="arrowDown.mouseover" end="arrowDown.mouseout"/>
                  </use>
                  <path fill="none" stroke="white" stroke-width="1.5" d="M0,-3.0v7 M-2.5,-0.5L0,-3.0L2.5,-0.5"/>
                </g>
                <g id="arrowLeft" xlink:href="#dirArrow" transform="rotate(270) translate(-36 17)" onmousedown="handlePan(-1,0)">
                  <use xlink:href="#rim" fill="#404040">
                        <set attributeName="fill" to="#808080" begin="arrowLeft.mouseover" end="arrowLeft.mouseout"/>
                  </use>
                  <path fill="none" stroke="white" stroke-width="1.5" d="M0,-3.0v7 M-2.5,-0.5L0,-3.0L2.5,-0.5"/>
                </g>
        </g>
        <svg viewBox="0 0 15 15" width="100%" height="30px" preserveAspectRatio="xMaxYMin meet">
         <g id="arrow_out" transform="scale(0.3 0.3)">
          <a xlink:href="_i_active_speaker_notifications_delegate_8hxx__incl_org.svg" target="_base">
           <rect id="button" ry="5" rx="5" y="6" x="6" height="38" width="38"
                fill="#f2f5e9" fill-opacity="0.5" stroke="#606060" stroke-width="1.0"/>
           <path id="arrow"
             d="M 11.500037,31.436501 C 11.940474,20.09759 22.043105,11.32322 32.158766,21.979434 L 37.068811,17.246167 C 37.068811,17.246167 37.088388,32 37.088388,32 L 22.160133,31.978069 C 22.160133,31.978069 26.997745,27.140456 26.997745,27.140456 C 18.528582,18.264221 13.291696,25.230495 11.500037,31.436501 z"
             style="fill:#404040;"/>
          </a>
         </g>
        </svg>
</svg>
