<?xml version="1.0" encoding="UTF-8" standalone="no"?>
<!DOCTYPE svg PUBLIC "-//W3C//DTD SVG 1.1//EN"
 "http://www.w3.org/Graphics/SVG/1.1/DTD/svg11.dtd">
<!-- Generated by graphviz version 2.40.1 (20161225.0304)
 -->
<!-- Title: /Users/oskryp/Projects/freesee&#45;native&#45;client/libs/fcc_sdk/engine/meetingclient/include/MeetingClient/IOServiceProvider.hxx Pages: 1 -->
<svg width="2070pt" height="607pt"
 viewBox="0.00 0.00 2070.31 607.00" xmlns="http://www.w3.org/2000/svg" xmlns:xlink="http://www.w3.org/1999/xlink">
<g id="graph0" class="graph" transform="scale(1 1) rotate(0) translate(4 603)">
<title>/Users/oskryp/Projects/freesee&#45;native&#45;client/libs/fcc_sdk/engine/meetingclient/include/MeetingClient/IOServiceProvider.hxx</title>
<!-- Node2 -->
<g id="node1" class="node">
<title>Node2</title>
<g id="a_node1"><a xlink:title=" ">
<polygon fill="#bfbfbf" stroke="#000000" points="1236.9927,-550.5 1236.9927,-598.5 1453.0903,-598.5 1453.0903,-550.5 1236.9927,-550.5"/>
<text text-anchor="start" x="1244.9927" y="-586.5" font-family="Helvetica,sans-Serif" font-size="10.00" fill="#000000">/Users/oskryp/Projects</text>
<text text-anchor="start" x="1244.9927" y="-576.5" font-family="Helvetica,sans-Serif" font-size="10.00" fill="#000000">/freesee&#45;native&#45;client</text>
<text text-anchor="start" x="1244.9927" y="-566.5" font-family="Helvetica,sans-Serif" font-size="10.00" fill="#000000">/libs/fcc_sdk/engine/meetingclient</text>
<text text-anchor="middle" x="1345.0415" y="-556.5" font-family="Helvetica,sans-Serif" font-size="10.00" fill="#000000">/include/MeetingClient/IOServiceProvider.hxx</text>
</a>
</g>
</g>
<!-- Node3 -->
<g id="node2" class="node">
<title>Node3</title>
<g id="a_node2"><a xlink:href="_meeting_client_a_p_i_8hxx.html" target="_top" xlink:title=" ">
<polygon fill="none" stroke="#000000" points="821.6577,-465.5 821.6577,-513.5 1034.4253,-513.5 1034.4253,-465.5 821.6577,-465.5"/>
<text text-anchor="start" x="829.6577" y="-501.5" font-family="Helvetica,sans-Serif" font-size="10.00" fill="#000000">/Users/oskryp/Projects</text>
<text text-anchor="start" x="829.6577" y="-491.5" font-family="Helvetica,sans-Serif" font-size="10.00" fill="#000000">/freesee&#45;native&#45;client</text>
<text text-anchor="start" x="829.6577" y="-481.5" font-family="Helvetica,sans-Serif" font-size="10.00" fill="#000000">/libs/fcc_sdk/engine/meetingclient</text>
<text text-anchor="middle" x="928.0415" y="-471.5" font-family="Helvetica,sans-Serif" font-size="10.00" fill="#000000">/include/MeetingClient/MeetingClientAPI.hxx</text>
</a>
</g>
</g>
<!-- Node2&#45;&gt;Node3 -->
<g id="edge1" class="edge">
<title>Node2&#45;&gt;Node3</title>
<path fill="none" stroke="#191970" d="M1226.8641,-550.4111C1166.4052,-538.0873 1093.3862,-523.2034 1034.6628,-511.2334"/>
<polygon fill="#191970" stroke="#191970" points="1226.3423,-553.8766 1236.8399,-552.4445 1227.7405,-547.0177 1226.3423,-553.8766"/>
</g>
<!-- Node7 -->
<g id="node6" class="node">
<title>Node7</title>
<g id="a_node6"><a xlink:href="_free_see_a_p_i2_impl_8cxx.html" target="_top" xlink:title=" ">
<polygon fill="none" stroke="#000000" points="223.7388,-185.5 223.7388,-233.5 390.3442,-233.5 390.3442,-185.5 223.7388,-185.5"/>
<text text-anchor="start" x="231.7388" y="-221.5" font-family="Helvetica,sans-Serif" font-size="10.00" fill="#000000">/Users/oskryp/Projects</text>
<text text-anchor="start" x="231.7388" y="-211.5" font-family="Helvetica,sans-Serif" font-size="10.00" fill="#000000">/freesee&#45;native&#45;client</text>
<text text-anchor="start" x="231.7388" y="-201.5" font-family="Helvetica,sans-Serif" font-size="10.00" fill="#000000">/libs/fcc_sdk/engine/meetingclient</text>
<text text-anchor="middle" x="307.0415" y="-191.5" font-family="Helvetica,sans-Serif" font-size="10.00" fill="#000000">/src/proxies/FreeSeeAPI2Impl.cxx</text>
</a>
</g>
</g>
<!-- Node2&#45;&gt;Node7 -->
<g id="edge44" class="edge">
<title>Node2&#45;&gt;Node7</title>
<path fill="none" stroke="#191970" d="M1226.4629,-570.4215C995.3068,-560.3494 495.0584,-527.5015 358.0415,-429 299.2684,-386.748 303.9368,-347.376 305.0415,-275 305.2499,-261.3494 305.7023,-246.1041 306.1243,-233.7586"/>
<polygon fill="#191970" stroke="#191970" points="1226.4509,-573.9241 1236.5917,-570.8557 1226.7508,-566.9305 1226.4509,-573.9241"/>
</g>
<!-- Node23 -->
<g id="node22" class="node">
<title>Node23</title>
<g id="a_node22"><a xlink:href="_meeting_lobby_8hxx.html" target="_top" xlink:title=" ">
<polygon fill="none" stroke="#000000" points="1235.9673,-465.5 1235.9673,-513.5 1454.1157,-513.5 1454.1157,-465.5 1235.9673,-465.5"/>
<text text-anchor="start" x="1243.9673" y="-501.5" font-family="Helvetica,sans-Serif" font-size="10.00" fill="#000000">/Users/oskryp/Projects</text>
<text text-anchor="start" x="1243.9673" y="-491.5" font-family="Helvetica,sans-Serif" font-size="10.00" fill="#000000">/freesee&#45;native&#45;client</text>
<text text-anchor="start" x="1243.9673" y="-481.5" font-family="Helvetica,sans-Serif" font-size="10.00" fill="#000000">/libs/fcc_sdk/engine/meetingclient</text>
<text text-anchor="middle" x="1345.0415" y="-471.5" font-family="Helvetica,sans-Serif" font-size="10.00" fill="#000000">/src/headers/MeetingClient/MeetingLobby.hxx</text>
</a>
</g>
</g>
<!-- Node2&#45;&gt;Node23 -->
<g id="edge38" class="edge">
<title>Node2&#45;&gt;Node23</title>
<path fill="none" stroke="#191970" d="M1345.0415,-540.2518C1345.0415,-531.3524 1345.0415,-521.951 1345.0415,-513.6906"/>
<polygon fill="#191970" stroke="#191970" points="1341.5416,-540.3697 1345.0415,-550.3698 1348.5416,-540.3698 1341.5416,-540.3697"/>
</g>
<!-- Node24 -->
<g id="node23" class="node">
<title>Node24</title>
<g id="a_node23"><a xlink:href="_meeting_lobby_impl_8hxx.html" target="_top" xlink:title=" ">
<polygon fill="none" stroke="#000000" points="1861.7686,-370.5 1861.7686,-428.5 2062.3145,-428.5 2062.3145,-370.5 1861.7686,-370.5"/>
<text text-anchor="start" x="1869.7686" y="-416.5" font-family="Helvetica,sans-Serif" font-size="10.00" fill="#000000">/Users/oskryp/Projects</text>
<text text-anchor="start" x="1869.7686" y="-406.5" font-family="Helvetica,sans-Serif" font-size="10.00" fill="#000000">/freesee&#45;native&#45;client</text>
<text text-anchor="start" x="1869.7686" y="-396.5" font-family="Helvetica,sans-Serif" font-size="10.00" fill="#000000">/libs/fcc_sdk/engine/meetingclient</text>
<text text-anchor="start" x="1869.7686" y="-386.5" font-family="Helvetica,sans-Serif" font-size="10.00" fill="#000000">/src/headers/MeetingClient/MeetingLobby</text>
<text text-anchor="middle" x="1962.0415" y="-376.5" font-family="Helvetica,sans-Serif" font-size="10.00" fill="#000000">Impl.hxx</text>
</a>
</g>
</g>
<!-- Node2&#45;&gt;Node24 -->
<g id="edge42" class="edge">
<title>Node2&#45;&gt;Node24</title>
<path fill="none" stroke="#191970" d="M1413.6564,-545.7035C1430.7138,-536.8758 1448.3151,-526.2154 1463.0415,-514 1484.253,-496.4052 1476.9528,-478.3881 1501.0415,-465 1568.804,-427.3388 1771.7455,-442.7494 1848.0415,-429 1852.4678,-428.2023 1856.9752,-427.3239 1861.5172,-426.3845"/>
<polygon fill="#191970" stroke="#191970" points="1411.6273,-542.8056 1404.2577,-550.4174 1414.7656,-549.0627 1411.6273,-542.8056"/>
</g>
<!-- Node26 -->
<g id="node25" class="node">
<title>Node26</title>
<g id="a_node25"><a xlink:href="_i_o_service_provider_8cxx.html" target="_top" xlink:title=" ">
<polygon fill="none" stroke="#000000" points="1509.5566,-465.5 1509.5566,-513.5 1674.5264,-513.5 1674.5264,-465.5 1509.5566,-465.5"/>
<text text-anchor="start" x="1517.5566" y="-501.5" font-family="Helvetica,sans-Serif" font-size="10.00" fill="#000000">/Users/oskryp/Projects</text>
<text text-anchor="start" x="1517.5566" y="-491.5" font-family="Helvetica,sans-Serif" font-size="10.00" fill="#000000">/freesee&#45;native&#45;client</text>
<text text-anchor="start" x="1517.5566" y="-481.5" font-family="Helvetica,sans-Serif" font-size="10.00" fill="#000000">/libs/fcc_sdk/engine/meetingclient</text>
<text text-anchor="middle" x="1592.0415" y="-471.5" font-family="Helvetica,sans-Serif" font-size="10.00" fill="#000000">/src/IOServiceProvider.cxx</text>
</a>
</g>
</g>
<!-- Node2&#45;&gt;Node26 -->
<g id="edge43" class="edge">
<title>Node2&#45;&gt;Node26</title>
<path fill="none" stroke="#191970" d="M1424.4223,-547.1827C1455.814,-536.3799 1491.5843,-524.0703 1521.996,-513.6047"/>
<polygon fill="#191970" stroke="#191970" points="1423.1482,-543.9196 1414.8314,-550.4832 1425.4261,-550.5387 1423.1482,-543.9196"/>
</g>
<!-- Node4 -->
<g id="node3" class="node">
<title>Node4</title>
<g id="a_node3"><a xlink:href="_services_8hxx.html" target="_top" xlink:title=" ">
<polygon fill="none" stroke="#000000" points="367.1157,-375.5 367.1157,-423.5 540.9673,-423.5 540.9673,-375.5 367.1157,-375.5"/>
<text text-anchor="start" x="375.1157" y="-411.5" font-family="Helvetica,sans-Serif" font-size="10.00" fill="#000000">/Users/oskryp/Projects</text>
<text text-anchor="start" x="375.1157" y="-401.5" font-family="Helvetica,sans-Serif" font-size="10.00" fill="#000000">/freesee&#45;native&#45;client</text>
<text text-anchor="start" x="375.1157" y="-391.5" font-family="Helvetica,sans-Serif" font-size="10.00" fill="#000000">/libs/fcc_sdk/engine/meetingclient</text>
<text text-anchor="middle" x="454.0415" y="-381.5" font-family="Helvetica,sans-Serif" font-size="10.00" fill="#000000">/include/MeetingClient/Services.hxx</text>
</a>
</g>
</g>
<!-- Node3&#45;&gt;Node4 -->
<g id="edge2" class="edge">
<title>Node3&#45;&gt;Node4</title>
<path fill="none" stroke="#191970" d="M811.396,-475.1115C736.2627,-464.7932 636.7749,-449.1635 550.0415,-429 543.0785,-427.3813 535.8834,-425.5243 528.7092,-423.5471"/>
<polygon fill="#191970" stroke="#191970" points="810.9845,-478.5877 821.3653,-476.4692 811.9291,-471.6517 810.9845,-478.5877"/>
</g>
<!-- Node8 -->
<g id="node7" class="node">
<title>Node8</title>
<g id="a_node7"><a xlink:href="_bundled_attendee_8cxx.html" target="_top" xlink:title=" ">
<polygon fill="none" stroke="#000000" points="558.5566,-375.5 558.5566,-423.5 723.5264,-423.5 723.5264,-375.5 558.5566,-375.5"/>
<text text-anchor="start" x="566.5566" y="-411.5" font-family="Helvetica,sans-Serif" font-size="10.00" fill="#000000">/Users/oskryp/Projects</text>
<text text-anchor="start" x="566.5566" y="-401.5" font-family="Helvetica,sans-Serif" font-size="10.00" fill="#000000">/freesee&#45;native&#45;client</text>
<text text-anchor="start" x="566.5566" y="-391.5" font-family="Helvetica,sans-Serif" font-size="10.00" fill="#000000">/libs/fcc_sdk/engine/meetingclient</text>
<text text-anchor="middle" x="641.0415" y="-381.5" font-family="Helvetica,sans-Serif" font-size="10.00" fill="#000000">/src/BundledAttendee.cxx</text>
</a>
</g>
</g>
<!-- Node3&#45;&gt;Node8 -->
<g id="edge6" class="edge">
<title>Node3&#45;&gt;Node8</title>
<path fill="none" stroke="#191970" d="M841.651,-462.4089C802.2639,-450.0576 756.0177,-435.5552 717.8601,-423.5895"/>
<polygon fill="#191970" stroke="#191970" points="840.9186,-465.8472 851.5078,-465.4999 843.0132,-459.168 840.9186,-465.8472"/>
</g>
<!-- Node9 -->
<g id="node8" class="node">
<title>Node9</title>
<g id="a_node8"><a xlink:href="_active_speaker_manager_impl_8hxx.html" target="_top" xlink:title=" ">
<polygon fill="none" stroke="#000000" points="907.0615,-370.5 907.0615,-428.5 1077.0215,-428.5 1077.0215,-370.5 907.0615,-370.5"/>
<text text-anchor="start" x="915.0615" y="-416.5" font-family="Helvetica,sans-Serif" font-size="10.00" fill="#000000">/Users/oskryp/Projects</text>
<text text-anchor="start" x="915.0615" y="-406.5" font-family="Helvetica,sans-Serif" font-size="10.00" fill="#000000">/freesee&#45;native&#45;client</text>
<text text-anchor="start" x="915.0615" y="-396.5" font-family="Helvetica,sans-Serif" font-size="10.00" fill="#000000">/libs/fcc_sdk/engine/meetingclient</text>
<text text-anchor="start" x="915.0615" y="-386.5" font-family="Helvetica,sans-Serif" font-size="10.00" fill="#000000">/src/headers/MeetingClient/proxies</text>
<text text-anchor="middle" x="992.0415" y="-376.5" font-family="Helvetica,sans-Serif" font-size="10.00" fill="#000000">/ActiveSpeakerManagerImpl.hxx</text>
</a>
</g>
</g>
<!-- Node3&#45;&gt;Node9 -->
<g id="edge7" class="edge">
<title>Node3&#45;&gt;Node9</title>
<path fill="none" stroke="#191970" d="M951.0422,-457.1553C957.6198,-447.9055 964.7496,-437.8792 971.1907,-428.8215"/>
<polygon fill="#191970" stroke="#191970" points="948.1353,-455.2037 945.1923,-465.3817 953.84,-459.2604 948.1353,-455.2037"/>
</g>
<!-- Node10 -->
<g id="node9" class="node">
<title>Node10</title>
<g id="a_node9"><a xlink:href="_meeting_client_impl_8hxx.html" target="_top" xlink:title=" ">
<polygon fill="none" stroke="#000000" points="1109.0615,-275.5 1109.0615,-333.5 1279.0215,-333.5 1279.0215,-275.5 1109.0615,-275.5"/>
<text text-anchor="start" x="1117.0615" y="-321.5" font-family="Helvetica,sans-Serif" font-size="10.00" fill="#000000">/Users/oskryp/Projects</text>
<text text-anchor="start" x="1117.0615" y="-311.5" font-family="Helvetica,sans-Serif" font-size="10.00" fill="#000000">/freesee&#45;native&#45;client</text>
<text text-anchor="start" x="1117.0615" y="-301.5" font-family="Helvetica,sans-Serif" font-size="10.00" fill="#000000">/libs/fcc_sdk/engine/meetingclient</text>
<text text-anchor="start" x="1117.0615" y="-291.5" font-family="Helvetica,sans-Serif" font-size="10.00" fill="#000000">/src/headers/MeetingClient/proxies</text>
<text text-anchor="middle" x="1194.0415" y="-281.5" font-family="Helvetica,sans-Serif" font-size="10.00" fill="#000000">/MeetingClientImpl.hxx</text>
</a>
</g>
</g>
<!-- Node3&#45;&gt;Node10 -->
<g id="edge31" class="edge">
<title>Node3&#45;&gt;Node10</title>
<path fill="none" stroke="#191970" d="M1023.0683,-461.7642C1044.8064,-453.1231 1067.0748,-442.2835 1086.0415,-429 1123.1898,-402.9828 1155.7383,-361.457 1175.1425,-333.5999"/>
<polygon fill="#191970" stroke="#191970" points="1021.5426,-458.6009 1013.465,-465.4568 1024.0549,-465.1346 1021.5426,-458.6009"/>
</g>
<!-- Node12 -->
<g id="node11" class="node">
<title>Node12</title>
<g id="a_node11"><a xlink:href="_meeting_attendee_feature_impl_8hxx.html" target="_top" xlink:title=" ">
<polygon fill="none" stroke="#000000" points="1685.0615,-85.5 1685.0615,-143.5 1855.0215,-143.5 1855.0215,-85.5 1685.0615,-85.5"/>
<text text-anchor="start" x="1693.0615" y="-131.5" font-family="Helvetica,sans-Serif" font-size="10.00" fill="#000000">/Users/oskryp/Projects</text>
<text text-anchor="start" x="1693.0615" y="-121.5" font-family="Helvetica,sans-Serif" font-size="10.00" fill="#000000">/freesee&#45;native&#45;client</text>
<text text-anchor="start" x="1693.0615" y="-111.5" font-family="Helvetica,sans-Serif" font-size="10.00" fill="#000000">/libs/fcc_sdk/engine/meetingclient</text>
<text text-anchor="start" x="1693.0615" y="-101.5" font-family="Helvetica,sans-Serif" font-size="10.00" fill="#000000">/src/headers/MeetingClient/proxies</text>
<text text-anchor="middle" x="1770.0415" y="-91.5" font-family="Helvetica,sans-Serif" font-size="10.00" fill="#000000">/MeetingAttendeeFeatureImpl.hxx</text>
</a>
</g>
</g>
<!-- Node3&#45;&gt;Node12 -->
<g id="edge30" class="edge">
<title>Node3&#45;&gt;Node12</title>
<path fill="none" stroke="#191970" d="M1044.4597,-478.5511C1123.437,-469.4319 1229.6915,-453.844 1321.0415,-429 1541.6408,-369.0047 1670.67,-428.1673 1799.0415,-239 1818.4823,-210.3522 1803.4608,-170.3873 1788.7589,-143.5361"/>
<polygon fill="#191970" stroke="#191970" points="1044.0196,-475.0785 1034.4791,-479.6859 1044.8105,-482.0337 1044.0196,-475.0785"/>
</g>
<!-- Node16 -->
<g id="node15" class="node">
<title>Node16</title>
<g id="a_node15"><a xlink:href="_meeting_broadcast_feature_impl_8hxx.html" target="_top" xlink:title=" ">
<polygon fill="none" stroke="#000000" points="972.5049,-180.5 972.5049,-238.5 1143.5781,-238.5 1143.5781,-180.5 972.5049,-180.5"/>
<text text-anchor="start" x="980.5049" y="-226.5" font-family="Helvetica,sans-Serif" font-size="10.00" fill="#000000">/Users/oskryp/Projects</text>
<text text-anchor="start" x="980.5049" y="-216.5" font-family="Helvetica,sans-Serif" font-size="10.00" fill="#000000">/freesee&#45;native&#45;client</text>
<text text-anchor="start" x="980.5049" y="-206.5" font-family="Helvetica,sans-Serif" font-size="10.00" fill="#000000">/libs/fcc_sdk/engine/meetingclient</text>
<text text-anchor="start" x="980.5049" y="-196.5" font-family="Helvetica,sans-Serif" font-size="10.00" fill="#000000">/src/headers/MeetingClient/proxies</text>
<text text-anchor="middle" x="1058.0415" y="-186.5" font-family="Helvetica,sans-Serif" font-size="10.00" fill="#000000">/MeetingBroadcastFeatureImpl.hxx</text>
</a>
</g>
</g>
<!-- Node3&#45;&gt;Node16 -->
<g id="edge32" class="edge">
<title>Node3&#45;&gt;Node16</title>
<path fill="none" stroke="#191970" d="M907.0387,-456.495C881.3693,-411.5213 845.7896,-330.2719 884.0415,-275 889.7817,-266.7058 931.401,-250.895 972.4928,-236.8855"/>
<polygon fill="#191970" stroke="#191970" points="904.0973,-458.3982 912.1756,-465.2533 910.1354,-454.8567 904.0973,-458.3982"/>
</g>
<!-- Node17 -->
<g id="node16" class="node">
<title>Node17</title>
<g id="a_node16"><a xlink:href="_meeting_chat_feature_impl_8hxx.html" target="_top" xlink:title=" ">
<polygon fill="none" stroke="#000000" points="1200.0615,-180.5 1200.0615,-238.5 1370.0215,-238.5 1370.0215,-180.5 1200.0615,-180.5"/>
<text text-anchor="start" x="1208.0615" y="-226.5" font-family="Helvetica,sans-Serif" font-size="10.00" fill="#000000">/Users/oskryp/Projects</text>
<text text-anchor="start" x="1208.0615" y="-216.5" font-family="Helvetica,sans-Serif" font-size="10.00" fill="#000000">/freesee&#45;native&#45;client</text>
<text text-anchor="start" x="1208.0615" y="-206.5" font-family="Helvetica,sans-Serif" font-size="10.00" fill="#000000">/libs/fcc_sdk/engine/meetingclient</text>
<text text-anchor="start" x="1208.0615" y="-196.5" font-family="Helvetica,sans-Serif" font-size="10.00" fill="#000000">/src/headers/MeetingClient/proxies</text>
<text text-anchor="middle" x="1285.0415" y="-186.5" font-family="Helvetica,sans-Serif" font-size="10.00" fill="#000000">/MeetingChatFeatureImpl.hxx</text>
</a>
</g>
</g>
<!-- Node3&#45;&gt;Node17 -->
<g id="edge33" class="edge">
<title>Node3&#45;&gt;Node17</title>
<path fill="none" stroke="#191970" d="M1044.611,-475.7387C1130.1339,-458.5927 1239.4807,-420.1427 1288.0415,-334 1304.4985,-304.8068 1299.9273,-265.324 1293.7587,-238.7136"/>
<polygon fill="#191970" stroke="#191970" points="1043.7253,-472.345 1034.5698,-477.6768 1045.0519,-479.2181 1043.7253,-472.345"/>
</g>
<!-- Node18 -->
<g id="node17" class="node">
<title>Node18</title>
<g id="a_node17"><a xlink:href="_meeting_screen_sharing_feature_impl_8hxx.html" target="_top" xlink:title=" ">
<polygon fill="none" stroke="#000000" points="1575.9409,-180.5 1575.9409,-238.5 1768.1421,-238.5 1768.1421,-180.5 1575.9409,-180.5"/>
<text text-anchor="start" x="1583.9409" y="-226.5" font-family="Helvetica,sans-Serif" font-size="10.00" fill="#000000">/Users/oskryp/Projects</text>
<text text-anchor="start" x="1583.9409" y="-216.5" font-family="Helvetica,sans-Serif" font-size="10.00" fill="#000000">/freesee&#45;native&#45;client</text>
<text text-anchor="start" x="1583.9409" y="-206.5" font-family="Helvetica,sans-Serif" font-size="10.00" fill="#000000">/libs/fcc_sdk/engine/meetingclient</text>
<text text-anchor="start" x="1583.9409" y="-196.5" font-family="Helvetica,sans-Serif" font-size="10.00" fill="#000000">/src/headers/MeetingClient/proxies</text>
<text text-anchor="middle" x="1672.0415" y="-186.5" font-family="Helvetica,sans-Serif" font-size="10.00" fill="#000000">/MeetingScreenSharingFeatureImpl.hxx</text>
</a>
</g>
</g>
<!-- Node3&#45;&gt;Node18 -->
<g id="edge34" class="edge">
<title>Node3&#45;&gt;Node18</title>
<path fill="none" stroke="#191970" d="M1044.6964,-474.2683C1103.137,-464.7177 1174.3963,-450.1272 1236.0415,-429 1384.7535,-378.0329 1546.8749,-285.6779 1624.89,-238.6758"/>
<polygon fill="#191970" stroke="#191970" points="1044.0054,-470.8343 1034.6868,-475.8756 1045.1153,-477.7458 1044.0054,-470.8343"/>
</g>
<!-- Node19 -->
<g id="node18" class="node">
<title>Node19</title>
<g id="a_node18"><a xlink:href="_meeting_video_feature_impl_8hxx.html" target="_top" xlink:title=" ">
<polygon fill="none" stroke="#000000" points="408.0615,-180.5 408.0615,-238.5 578.0215,-238.5 578.0215,-180.5 408.0615,-180.5"/>
<text text-anchor="start" x="416.0615" y="-226.5" font-family="Helvetica,sans-Serif" font-size="10.00" fill="#000000">/Users/oskryp/Projects</text>
<text text-anchor="start" x="416.0615" y="-216.5" font-family="Helvetica,sans-Serif" font-size="10.00" fill="#000000">/freesee&#45;native&#45;client</text>
<text text-anchor="start" x="416.0615" y="-206.5" font-family="Helvetica,sans-Serif" font-size="10.00" fill="#000000">/libs/fcc_sdk/engine/meetingclient</text>
<text text-anchor="start" x="416.0615" y="-196.5" font-family="Helvetica,sans-Serif" font-size="10.00" fill="#000000">/src/headers/MeetingClient/proxies</text>
<text text-anchor="middle" x="493.0415" y="-186.5" font-family="Helvetica,sans-Serif" font-size="10.00" fill="#000000">/MeetingVideoFeatureImpl.hxx</text>
</a>
</g>
</g>
<!-- Node3&#45;&gt;Node19 -->
<g id="edge35" class="edge">
<title>Node3&#45;&gt;Node19</title>
<path fill="none" stroke="#191970" d="M858.4262,-461.2363C838.6159,-452.0395 817.4365,-441.0588 799.0415,-429 765.8583,-407.2469 763.4671,-394.223 732.0415,-370 667.912,-320.5688 589.2385,-269.4265 540.1089,-238.5335"/>
<polygon fill="#191970" stroke="#191970" points="857.1675,-464.5089 867.7188,-465.4687 860.069,-458.1385 857.1675,-464.5089"/>
</g>
<!-- Node20 -->
<g id="node19" class="node">
<title>Node20</title>
<g id="a_node19"><a xlink:href="_meeting_vo_i_p_feature_impl_8hxx.html" target="_top" xlink:title=" ">
<polygon fill="none" stroke="#000000" points="596.0615,-180.5 596.0615,-238.5 766.0215,-238.5 766.0215,-180.5 596.0615,-180.5"/>
<text text-anchor="start" x="604.0615" y="-226.5" font-family="Helvetica,sans-Serif" font-size="10.00" fill="#000000">/Users/oskryp/Projects</text>
<text text-anchor="start" x="604.0615" y="-216.5" font-family="Helvetica,sans-Serif" font-size="10.00" fill="#000000">/freesee&#45;native&#45;client</text>
<text text-anchor="start" x="604.0615" y="-206.5" font-family="Helvetica,sans-Serif" font-size="10.00" fill="#000000">/libs/fcc_sdk/engine/meetingclient</text>
<text text-anchor="start" x="604.0615" y="-196.5" font-family="Helvetica,sans-Serif" font-size="10.00" fill="#000000">/src/headers/MeetingClient/proxies</text>
<text text-anchor="middle" x="681.0415" y="-186.5" font-family="Helvetica,sans-Serif" font-size="10.00" fill="#000000">/MeetingVoIPFeatureImpl.hxx</text>
</a>
</g>
</g>
<!-- Node3&#45;&gt;Node20 -->
<g id="edge36" class="edge">
<title>Node3&#45;&gt;Node20</title>
<path fill="none" stroke="#191970" d="M869.723,-459.983C856.4634,-451.3241 843.2851,-440.9233 833.0415,-429 784.2844,-372.2481 811.0427,-334.0077 765.0415,-275 754.3538,-261.2905 740.1895,-248.8177 726.5426,-238.5219"/>
<polygon fill="#191970" stroke="#191970" points="868.0837,-463.0858 878.4182,-465.42 871.795,-457.1506 868.0837,-463.0858"/>
</g>
<!-- Node21 -->
<g id="node20" class="node">
<title>Node21</title>
<g id="a_node20"><a xlink:href="_raw_r_t_messages_feature_impl_8hxx.html" target="_top" xlink:title=" ">
<polygon fill="none" stroke="#000000" points="784.0615,-180.5 784.0615,-238.5 954.0215,-238.5 954.0215,-180.5 784.0615,-180.5"/>
<text text-anchor="start" x="792.0615" y="-226.5" font-family="Helvetica,sans-Serif" font-size="10.00" fill="#000000">/Users/oskryp/Projects</text>
<text text-anchor="start" x="792.0615" y="-216.5" font-family="Helvetica,sans-Serif" font-size="10.00" fill="#000000">/freesee&#45;native&#45;client</text>
<text text-anchor="start" x="792.0615" y="-206.5" font-family="Helvetica,sans-Serif" font-size="10.00" fill="#000000">/libs/fcc_sdk/engine/meetingclient</text>
<text text-anchor="start" x="792.0615" y="-196.5" font-family="Helvetica,sans-Serif" font-size="10.00" fill="#000000">/src/headers/MeetingClient/proxies</text>
<text text-anchor="middle" x="869.0415" y="-186.5" font-family="Helvetica,sans-Serif" font-size="10.00" fill="#000000">/RawRTMessagesFeatureImpl.hxx</text>
</a>
</g>
</g>
<!-- Node3&#45;&gt;Node21 -->
<g id="edge37" class="edge">
<title>Node3&#45;&gt;Node21</title>
<path fill="none" stroke="#191970" d="M875.6498,-458.983C865.7108,-450.6077 856.671,-440.5825 851.0415,-429 820.7052,-366.5842 842.4327,-282.3385 857.648,-238.5908"/>
<polygon fill="#191970" stroke="#191970" points="873.7359,-461.9299 883.7654,-465.3443 878.0543,-456.4206 873.7359,-461.9299"/>
</g>
<!-- Node5 -->
<g id="node4" class="node">
<title>Node5</title>
<g id="a_node4"><a xlink:href="_meeting_session_parameters_builder_8hxx.html" target="_top" xlink:title=" ">
<polygon fill="none" stroke="#000000" points="314.0396,-275.5 314.0396,-333.5 554.0435,-333.5 554.0435,-275.5 314.0396,-275.5"/>
<text text-anchor="start" x="322.0396" y="-321.5" font-family="Helvetica,sans-Serif" font-size="10.00" fill="#000000">/Users/oskryp/Projects</text>
<text text-anchor="start" x="322.0396" y="-311.5" font-family="Helvetica,sans-Serif" font-size="10.00" fill="#000000">/freesee&#45;native&#45;client</text>
<text text-anchor="start" x="322.0396" y="-301.5" font-family="Helvetica,sans-Serif" font-size="10.00" fill="#000000">/libs/fcc_sdk/engine/meetingclient</text>
<text text-anchor="start" x="322.0396" y="-291.5" font-family="Helvetica,sans-Serif" font-size="10.00" fill="#000000">/include/MeetingClient/MeetingSessionParameters</text>
<text text-anchor="middle" x="434.0415" y="-281.5" font-family="Helvetica,sans-Serif" font-size="10.00" fill="#000000">Builder.hxx</text>
</a>
</g>
</g>
<!-- Node4&#45;&gt;Node5 -->
<g id="edge3" class="edge">
<title>Node4&#45;&gt;Node5</title>
<path fill="none" stroke="#191970" d="M446.798,-365.0932C444.6253,-354.7728 442.2642,-343.558 440.1708,-333.6144"/>
<polygon fill="#191970" stroke="#191970" points="443.4059,-365.9707 448.891,-375.0351 450.2557,-364.5286 443.4059,-365.9707"/>
</g>
<!-- Node4&#45;&gt;Node7 -->
<g id="edge5" class="edge">
<title>Node4&#45;&gt;Node7</title>
<path fill="none" stroke="#191970" d="M526.697,-370.1821C541.2196,-360.8445 554.5901,-348.9385 563.0415,-334 575.9535,-311.1771 579.4759,-295.4332 563.0415,-275 516.2719,-216.8503 471.0961,-258.4144 399.0415,-239 392.8062,-237.32 386.3655,-235.478 379.9223,-233.5609"/>
<polygon fill="#191970" stroke="#191970" points="524.808,-367.2339 518.0417,-375.3867 528.4153,-373.2329 524.808,-367.2339"/>
</g>
<!-- Node6 -->
<g id="node5" class="node">
<title>Node6</title>
<g id="a_node5"><a xlink:href="_meeting_session_parameters_builder_8cxx.html" target="_top" xlink:title=" ">
<polygon fill="none" stroke="#000000" points="0,-185.5 0,-233.5 206.083,-233.5 206.083,-185.5 0,-185.5"/>
<text text-anchor="start" x="8" y="-221.5" font-family="Helvetica,sans-Serif" font-size="10.00" fill="#000000">/Users/oskryp/Projects</text>
<text text-anchor="start" x="8" y="-211.5" font-family="Helvetica,sans-Serif" font-size="10.00" fill="#000000">/freesee&#45;native&#45;client</text>
<text text-anchor="start" x="8" y="-201.5" font-family="Helvetica,sans-Serif" font-size="10.00" fill="#000000">/libs/fcc_sdk/engine/meetingclient</text>
<text text-anchor="middle" x="103.0415" y="-191.5" font-family="Helvetica,sans-Serif" font-size="10.00" fill="#000000">/src/MeetingSessionParametersBuilder.cxx</text>
</a>
</g>
</g>
<!-- Node5&#45;&gt;Node6 -->
<g id="edge4" class="edge">
<title>Node5&#45;&gt;Node6</title>
<path fill="none" stroke="#191970" d="M323.2327,-272.6969C278.7062,-259.9174 228.2291,-245.43 186.8475,-233.5531"/>
<polygon fill="#191970" stroke="#191970" points="322.3545,-276.0861 332.932,-275.4807 324.2857,-269.3577 322.3545,-276.0861"/>
</g>
<!-- Node9&#45;&gt;Node10 -->
<g id="edge8" class="edge">
<title>Node9&#45;&gt;Node10</title>
<path fill="none" stroke="#191970" d="M1062.9611,-366.1467C1085.5945,-355.5023 1110.4455,-343.815 1132.3673,-333.5052"/>
<polygon fill="#191970" stroke="#191970" points="1061.3054,-363.0576 1053.7458,-370.4807 1064.2845,-369.392 1061.3054,-363.0576"/>
</g>
<!-- Node22 -->
<g id="node21" class="node">
<title>Node22</title>
<g id="a_node21"><a xlink:href="_active_speaker_manager2_8cxx.html" target="_top" xlink:title=" ">
<polygon fill="none" stroke="#000000" points="893.4482,-280.5 893.4482,-328.5 1090.6348,-328.5 1090.6348,-280.5 893.4482,-280.5"/>
<text text-anchor="start" x="901.4482" y="-316.5" font-family="Helvetica,sans-Serif" font-size="10.00" fill="#000000">/Users/oskryp/Projects</text>
<text text-anchor="start" x="901.4482" y="-306.5" font-family="Helvetica,sans-Serif" font-size="10.00" fill="#000000">/freesee&#45;native&#45;client</text>
<text text-anchor="start" x="901.4482" y="-296.5" font-family="Helvetica,sans-Serif" font-size="10.00" fill="#000000">/libs/fcc_sdk/engine/meetingclient</text>
<text text-anchor="middle" x="992.0415" y="-286.5" font-family="Helvetica,sans-Serif" font-size="10.00" fill="#000000">/src/proxies/ActiveSpeakerManager2.cxx</text>
</a>
</g>
</g>
<!-- Node9&#45;&gt;Node22 -->
<g id="edge29" class="edge">
<title>Node9&#45;&gt;Node22</title>
<path fill="none" stroke="#191970" d="M992.0415,-360.3932C992.0415,-349.602 992.0415,-338.214 992.0415,-328.5531"/>
<polygon fill="#191970" stroke="#191970" points="988.5416,-360.4806 992.0415,-370.4807 995.5416,-360.4807 988.5416,-360.4806"/>
</g>
<!-- Node10&#45;&gt;Node7 -->
<g id="edge27" class="edge">
<title>Node10&#45;&gt;Node7</title>
<path fill="none" stroke="#191970" d="M1098.8661,-274.9836C791.0922,-221.4554 702.6259,-294.4948 399.0415,-239 391.2866,-237.5824 383.2782,-235.691 375.3707,-233.5475"/>
<polygon fill="#191970" stroke="#191970" points="1098.5134,-278.4755 1108.9705,-276.7724 1099.7338,-271.5827 1098.5134,-278.4755"/>
</g>
<!-- Node11 -->
<g id="node10" class="node">
<title>Node11</title>
<g id="a_node10"><a xlink:href="_meeting_attendee_impl_8hxx.html" target="_top" xlink:title=" ">
<polygon fill="none" stroke="#000000" points="1388.0615,-180.5 1388.0615,-238.5 1558.0215,-238.5 1558.0215,-180.5 1388.0615,-180.5"/>
<text text-anchor="start" x="1396.0615" y="-226.5" font-family="Helvetica,sans-Serif" font-size="10.00" fill="#000000">/Users/oskryp/Projects</text>
<text text-anchor="start" x="1396.0615" y="-216.5" font-family="Helvetica,sans-Serif" font-size="10.00" fill="#000000">/freesee&#45;native&#45;client</text>
<text text-anchor="start" x="1396.0615" y="-206.5" font-family="Helvetica,sans-Serif" font-size="10.00" fill="#000000">/libs/fcc_sdk/engine/meetingclient</text>
<text text-anchor="start" x="1396.0615" y="-196.5" font-family="Helvetica,sans-Serif" font-size="10.00" fill="#000000">/src/headers/MeetingClient/proxies</text>
<text text-anchor="middle" x="1473.0415" y="-186.5" font-family="Helvetica,sans-Serif" font-size="10.00" fill="#000000">/MeetingAttendeeImpl.hxx</text>
</a>
</g>
</g>
<!-- Node10&#45;&gt;Node11 -->
<g id="edge9" class="edge">
<title>Node10&#45;&gt;Node11</title>
<path fill="none" stroke="#191970" d="M1289.0863,-272.1371C1321.1161,-261.2309 1356.6377,-249.1357 1387.8579,-238.5052"/>
<polygon fill="#191970" stroke="#191970" points="1287.6048,-268.9441 1279.2667,-275.4807 1289.8612,-275.5705 1287.6048,-268.9441"/>
</g>
<!-- Node10&#45;&gt;Node12 -->
<g id="edge14" class="edge">
<title>Node10&#45;&gt;Node12</title>
<path fill="none" stroke="#191970" d="M1289.1523,-300.6304C1446.0748,-293.2597 1745.1587,-274.6654 1777.0415,-239 1799.9822,-213.3376 1791.726,-171.5259 1782.1757,-143.5248"/>
<polygon fill="#191970" stroke="#191970" points="1288.8532,-297.1404 1279.026,-301.0997 1289.1773,-304.1329 1288.8532,-297.1404"/>
</g>
<!-- Node14 -->
<g id="node13" class="node">
<title>Node14</title>
<g id="a_node13"><a xlink:href="_meeting_client_impl_8cxx.html" target="_top" xlink:title=" ">
<polygon fill="none" stroke="#000000" points="1069.1846,-.5 1069.1846,-48.5 1236.8984,-48.5 1236.8984,-.5 1069.1846,-.5"/>
<text text-anchor="start" x="1077.1846" y="-36.5" font-family="Helvetica,sans-Serif" font-size="10.00" fill="#000000">/Users/oskryp/Projects</text>
<text text-anchor="start" x="1077.1846" y="-26.5" font-family="Helvetica,sans-Serif" font-size="10.00" fill="#000000">/freesee&#45;native&#45;client</text>
<text text-anchor="start" x="1077.1846" y="-16.5" font-family="Helvetica,sans-Serif" font-size="10.00" fill="#000000">/libs/fcc_sdk/engine/meetingclient</text>
<text text-anchor="middle" x="1153.0415" y="-6.5" font-family="Helvetica,sans-Serif" font-size="10.00" fill="#000000">/src/proxies/MeetingClientImpl.cxx</text>
</a>
</g>
</g>
<!-- Node10&#45;&gt;Node14 -->
<g id="edge28" class="edge">
<title>Node10&#45;&gt;Node14</title>
<path fill="none" stroke="#191970" d="M1188.3027,-265.3082C1179.6942,-206.5184 1163.6922,-97.2364 1156.5924,-48.7498"/>
<polygon fill="#191970" stroke="#191970" points="1184.8578,-265.9401 1189.7698,-275.3275 1191.784,-264.9259 1184.8578,-265.9401"/>
</g>
<!-- Node10&#45;&gt;Node16 -->
<g id="edge15" class="edge">
<title>Node10&#45;&gt;Node16</title>
<path fill="none" stroke="#191970" d="M1144.0884,-269.6063C1129.5344,-259.4399 1113.7913,-248.4429 1099.7992,-238.669"/>
<polygon fill="#191970" stroke="#191970" points="1142.2957,-272.6234 1152.498,-275.4807 1146.3043,-266.8848 1142.2957,-272.6234"/>
</g>
<!-- Node10&#45;&gt;Node17 -->
<g id="edge17" class="edge">
<title>Node10&#45;&gt;Node17</title>
<path fill="none" stroke="#191970" d="M1228.8362,-268.1759C1238.1863,-258.4148 1248.1758,-247.9861 1257.1007,-238.669"/>
<polygon fill="#191970" stroke="#191970" points="1226.2289,-265.8381 1221.839,-275.4807 1231.2839,-270.6803 1226.2289,-265.8381"/>
</g>
<!-- Node10&#45;&gt;Node18 -->
<g id="edge19" class="edge">
<title>Node10&#45;&gt;Node18</title>
<path fill="none" stroke="#191970" d="M1289.3286,-290.4612C1365.01,-278.6642 1473.3254,-260.337 1567.0415,-239 1569.9032,-238.3485 1572.8033,-237.6677 1575.7266,-236.9636"/>
<polygon fill="#191970" stroke="#191970" points="1288.682,-287.0196 1279.3364,-292.0104 1289.7546,-293.9369 1288.682,-287.0196"/>
</g>
<!-- Node10&#45;&gt;Node19 -->
<g id="edge21" class="edge">
<title>Node10&#45;&gt;Node19</title>
<path fill="none" stroke="#191970" d="M1098.8047,-274.9547C873.5635,-233.9067 808.3246,-280.8871 587.0415,-239 584.1005,-238.4433 581.1223,-237.8248 578.1258,-237.1557"/>
<polygon fill="#191970" stroke="#191970" points="1098.4856,-278.4553 1108.9572,-276.8443 1099.7665,-271.5735 1098.4856,-278.4553"/>
</g>
<!-- Node10&#45;&gt;Node20 -->
<g id="edge23" class="edge">
<title>Node10&#45;&gt;Node20</title>
<path fill="none" stroke="#191970" d="M1098.9096,-274.9319C955.9489,-246.1438 914.0663,-268.2265 775.0415,-239 772.1123,-238.3842 769.1443,-237.7148 766.1565,-237.0018"/>
<polygon fill="#191970" stroke="#191970" points="1098.4256,-278.4057 1108.9265,-276.9982 1099.8398,-271.5501 1098.4256,-278.4057"/>
</g>
<!-- Node10&#45;&gt;Node21 -->
<g id="edge25" class="edge">
<title>Node10&#45;&gt;Node21</title>
<path fill="none" stroke="#191970" d="M1099.2326,-274.8204C1037.877,-257.4196 1020.5826,-255.5792 963.0415,-239 960.0831,-238.1476 957.076,-237.2692 954.0417,-236.3727"/>
<polygon fill="#191970" stroke="#191970" points="1098.4643,-278.2409 1109.0413,-277.6273 1100.3902,-271.5111 1098.4643,-278.2409"/>
</g>
<!-- Node11&#45;&gt;Node12 -->
<g id="edge10" class="edge">
<title>Node11&#45;&gt;Node12</title>
<path fill="none" stroke="#191970" d="M1568.0788,-179.1009C1605.6165,-167.0939 1648.414,-153.4044 1684.9208,-141.7272"/>
<polygon fill="#191970" stroke="#191970" points="1566.6081,-175.8965 1558.1498,-182.2768 1568.7407,-182.5638 1566.6081,-175.8965"/>
</g>
<!-- Node15 -->
<g id="node14" class="node">
<title>Node15</title>
<g id="a_node14"><a xlink:href="_meeting_attendee_impl_8cxx.html" target="_top" xlink:title=" ">
<polygon fill="none" stroke="#000000" points="1381.9507,-90.5 1381.9507,-138.5 1564.1323,-138.5 1564.1323,-90.5 1381.9507,-90.5"/>
<text text-anchor="start" x="1389.9507" y="-126.5" font-family="Helvetica,sans-Serif" font-size="10.00" fill="#000000">/Users/oskryp/Projects</text>
<text text-anchor="start" x="1389.9507" y="-116.5" font-family="Helvetica,sans-Serif" font-size="10.00" fill="#000000">/freesee&#45;native&#45;client</text>
<text text-anchor="start" x="1389.9507" y="-106.5" font-family="Helvetica,sans-Serif" font-size="10.00" fill="#000000">/libs/fcc_sdk/engine/meetingclient</text>
<text text-anchor="middle" x="1473.0415" y="-96.5" font-family="Helvetica,sans-Serif" font-size="10.00" fill="#000000">/src/proxies/MeetingAttendeeImpl.cxx</text>
</a>
</g>
</g>
<!-- Node11&#45;&gt;Node15 -->
<g id="edge13" class="edge">
<title>Node11&#45;&gt;Node15</title>
<path fill="none" stroke="#191970" d="M1473.0415,-170.3932C1473.0415,-159.602 1473.0415,-148.214 1473.0415,-138.5531"/>
<polygon fill="#191970" stroke="#191970" points="1469.5416,-170.4806 1473.0415,-180.4807 1476.5416,-170.4807 1469.5416,-170.4806"/>
</g>
<!-- Node13 -->
<g id="node12" class="node">
<title>Node13</title>
<g id="a_node12"><a xlink:href="_meeting_attendee_feature_impl_8cxx.html" target="_top" xlink:title=" ">
<polygon fill="none" stroke="#000000" points="1661.7192,-.5 1661.7192,-48.5 1878.3638,-48.5 1878.3638,-.5 1661.7192,-.5"/>
<text text-anchor="start" x="1669.7192" y="-36.5" font-family="Helvetica,sans-Serif" font-size="10.00" fill="#000000">/Users/oskryp/Projects</text>
<text text-anchor="start" x="1669.7192" y="-26.5" font-family="Helvetica,sans-Serif" font-size="10.00" fill="#000000">/freesee&#45;native&#45;client</text>
<text text-anchor="start" x="1669.7192" y="-16.5" font-family="Helvetica,sans-Serif" font-size="10.00" fill="#000000">/libs/fcc_sdk/engine/meetingclient</text>
<text text-anchor="middle" x="1770.0415" y="-6.5" font-family="Helvetica,sans-Serif" font-size="10.00" fill="#000000">/src/proxies/MeetingAttendeeFeatureImpl.cxx</text>
</a>
</g>
</g>
<!-- Node12&#45;&gt;Node13 -->
<g id="edge11" class="edge">
<title>Node12&#45;&gt;Node13</title>
<path fill="none" stroke="#191970" d="M1770.0415,-74.7825C1770.0415,-65.8703 1770.0415,-56.6778 1770.0415,-48.6294"/>
<polygon fill="#191970" stroke="#191970" points="1766.5416,-75.0306 1770.0415,-85.0306 1773.5416,-75.0307 1766.5416,-75.0306"/>
</g>
<!-- Node12&#45;&gt;Node14 -->
<g id="edge12" class="edge">
<title>Node12&#45;&gt;Node14</title>
<path fill="none" stroke="#191970" d="M1675.1496,-90.7857C1665.3504,-88.6787 1655.5156,-86.7028 1646.0415,-85 1503.4559,-59.3726 1335.6965,-41.326 1237.2104,-31.9472"/>
<polygon fill="#191970" stroke="#191970" points="1674.4043,-94.2054 1684.9223,-92.9311 1675.9054,-87.3682 1674.4043,-94.2054"/>
</g>
<!-- Node16&#45;&gt;Node14 -->
<g id="edge16" class="edge">
<title>Node16&#45;&gt;Node14</title>
<path fill="none" stroke="#191970" d="M1077.6941,-171.2292C1096.608,-134.3968 1124.6283,-79.831 1140.6322,-48.6655"/>
<polygon fill="#191970" stroke="#191970" points="1074.5491,-169.6917 1073.0945,-180.1862 1080.7761,-172.8894 1074.5491,-169.6917"/>
</g>
<!-- Node17&#45;&gt;Node14 -->
<g id="edge18" class="edge">
<title>Node17&#45;&gt;Node14</title>
<path fill="none" stroke="#191970" d="M1258.0681,-171.6964C1231.7846,-134.8597 1192.6152,-79.9631 1170.2839,-48.6655"/>
<polygon fill="#191970" stroke="#191970" points="1255.4683,-174.0788 1264.1257,-180.1862 1261.1666,-170.013 1255.4683,-174.0788"/>
</g>
<!-- Node18&#45;&gt;Node14 -->
<g id="edge20" class="edge">
<title>Node18&#45;&gt;Node14</title>
<path fill="none" stroke="#191970" d="M1652.3455,-171.5165C1635.3598,-142.8343 1608.0528,-105.0941 1573.0415,-85 1517.374,-53.0506 1342.9008,-36.5649 1237.1463,-29.2941"/>
<polygon fill="#191970" stroke="#191970" points="1649.4773,-173.55 1657.4943,-180.4767 1655.5466,-170.0624 1649.4773,-173.55"/>
</g>
<!-- Node19&#45;&gt;Node14 -->
<g id="edge22" class="edge">
<title>Node19&#45;&gt;Node14</title>
<path fill="none" stroke="#191970" d="M571.3408,-176.6535C639.4949,-149.0768 741.4483,-110.2442 833.0415,-85 911.941,-63.2544 1003.9237,-46.7575 1068.9693,-36.5261"/>
<polygon fill="#191970" stroke="#191970" points="569.9002,-173.4608 561.9529,-180.4674 572.5349,-179.9461 569.9002,-173.4608"/>
</g>
<!-- Node20&#45;&gt;Node14 -->
<g id="edge24" class="edge">
<title>Node20&#45;&gt;Node14</title>
<path fill="none" stroke="#191970" d="M754.8561,-176.2972C813.7269,-150.2638 898.538,-113.7535 974.0415,-85 1007.7628,-72.1581 1045.5539,-59.1821 1077.6912,-48.5581"/>
<polygon fill="#191970" stroke="#191970" points="753.3607,-173.1315 745.6359,-180.3826 756.1965,-179.5314 753.3607,-173.1315"/>
</g>
<!-- Node21&#45;&gt;Node14 -->
<g id="edge26" class="edge">
<title>Node21&#45;&gt;Node14</title>
<path fill="none" stroke="#191970" d="M922.1643,-174.8953C978.6077,-138.1276 1066.3821,-80.9506 1115.8559,-48.723"/>
<polygon fill="#191970" stroke="#191970" points="920.1976,-171.9993 913.7289,-180.3902 924.0184,-177.8647 920.1976,-171.9993"/>
</g>
<!-- Node23&#45;&gt;Node10 -->
<g id="edge41" class="edge">
<title>Node23&#45;&gt;Node10</title>
<path fill="none" stroke="#191970" d="M1318.7871,-457.334C1290.2998,-422.4323 1245.2205,-367.2027 1217.765,-333.5652"/>
<polygon fill="#191970" stroke="#191970" points="1316.2661,-459.7806 1325.3009,-465.3145 1321.6891,-455.3543 1316.2661,-459.7806"/>
</g>
<!-- Node23&#45;&gt;Node24 -->
<g id="edge39" class="edge">
<title>Node23&#45;&gt;Node24</title>
<path fill="none" stroke="#191970" d="M1464.205,-465.5725C1465.4899,-465.3774 1466.7691,-465.1865 1468.0415,-465 1635.8932,-440.3979 1680.9532,-458.3421 1848.0415,-429 1852.4713,-428.2221 1856.9817,-427.36 1861.526,-426.434"/>
<polygon fill="#191970" stroke="#191970" points="1463.5886,-462.1264 1454.2572,-467.1439 1464.6809,-469.0406 1463.5886,-462.1264"/>
</g>
<!-- Node25 -->
<g id="node24" class="node">
<title>Node25</title>
<g id="a_node24"><a xlink:href="_meeting_lobby_imp_8cxx.html" target="_top" xlink:title=" ">
<polygon fill="none" stroke="#000000" points="1879.5566,-280.5 1879.5566,-328.5 2044.5264,-328.5 2044.5264,-280.5 1879.5566,-280.5"/>
<text text-anchor="start" x="1887.5566" y="-316.5" font-family="Helvetica,sans-Serif" font-size="10.00" fill="#000000">/Users/oskryp/Projects</text>
<text text-anchor="start" x="1887.5566" y="-306.5" font-family="Helvetica,sans-Serif" font-size="10.00" fill="#000000">/freesee&#45;native&#45;client</text>
<text text-anchor="start" x="1887.5566" y="-296.5" font-family="Helvetica,sans-Serif" font-size="10.00" fill="#000000">/libs/fcc_sdk/engine/meetingclient</text>
<text text-anchor="middle" x="1962.0415" y="-286.5" font-family="Helvetica,sans-Serif" font-size="10.00" fill="#000000">/src/MeetingLobbyImp.cxx</text>
</a>
</g>
</g>
<!-- Node24&#45;&gt;Node25 -->
<g id="edge40" class="edge">
<title>Node24&#45;&gt;Node25</title>
<path fill="none" stroke="#191970" d="M1962.0415,-360.3932C1962.0415,-349.602 1962.0415,-338.214 1962.0415,-328.5531"/>
<polygon fill="#191970" stroke="#191970" points="1958.5416,-360.4806 1962.0415,-370.4807 1965.5416,-360.4807 1958.5416,-360.4806"/>
</g>
</g>
</svg>
