<?xml version="1.0" encoding="UTF-8" standalone="no"?>
<!DOCTYPE svg PUBLIC "-//W3C//DTD SVG 1.1//EN"
 "http://www.w3.org/Graphics/SVG/1.1/DTD/svg11.dtd">
<!-- Generated by graphviz version 2.40.1 (20161225.0304)
 -->
<!-- Title: /Users/oskryp/Projects/freesee&#45;native&#45;client/libs/fcc_sdk/engine/meetingclient/src/IOServiceProvider.cxx Pages: 1 -->
<svg width="883pt" height="242pt"
 viewBox="0.00 0.00 882.68 242.00" xmlns="http://www.w3.org/2000/svg" xmlns:xlink="http://www.w3.org/1999/xlink">
<g id="graph0" class="graph" transform="scale(1 1) rotate(0) translate(4 238)">
<title>/Users/oskryp/Projects/freesee&#45;native&#45;client/libs/fcc_sdk/engine/meetingclient/src/IOServiceProvider.cxx</title>
<!-- Node0 -->
<g id="node1" class="node">
<title>Node0</title>
<g id="a_node1"><a xlink:title=" ">
<polygon fill="#bfbfbf" stroke="#000000" points="217.9409,-185.5 217.9409,-233.5 382.9106,-233.5 382.9106,-185.5 217.9409,-185.5"/>
<text text-anchor="start" x="225.9409" y="-221.5" font-family="Helvetica,sans-Serif" font-size="10.00" fill="#000000">/Users/oskryp/Projects</text>
<text text-anchor="start" x="225.9409" y="-211.5" font-family="Helvetica,sans-Serif" font-size="10.00" fill="#000000">/freesee&#45;native&#45;client</text>
<text text-anchor="start" x="225.9409" y="-201.5" font-family="Helvetica,sans-Serif" font-size="10.00" fill="#000000">/libs/fcc_sdk/engine/meetingclient</text>
<text text-anchor="middle" x="300.4258" y="-191.5" font-family="Helvetica,sans-Serif" font-size="10.00" fill="#000000">/src/IOServiceProvider.cxx</text>
</a>
</g>
</g>
<!-- Node1 -->
<g id="node2" class="node">
<title>Node1</title>
<g id="a_node2"><a xlink:href="_i_o_service_provider_8hxx.html" target="_top" xlink:title=" ">
<polygon fill="none" stroke="#000000" points="0,-130.5 0,-148.5 178.8516,-148.5 178.8516,-130.5 0,-130.5"/>
<text text-anchor="middle" x="89.4258" y="-136.5" font-family="Helvetica,sans-Serif" font-size="10.00" fill="#000000">MeetingClient/IOServiceProvider.hxx</text>
</a>
</g>
</g>
<!-- Node0&#45;&gt;Node1 -->
<g id="edge1" class="edge">
<title>Node0&#45;&gt;Node1</title>
<path fill="none" stroke="#191970" d="M227.8116,-185.41C193.6248,-174.0684 154.319,-161.0286 126.3544,-151.7512"/>
<polygon fill="#191970" stroke="#191970" points="127.1886,-148.3404 116.5952,-148.5136 124.9844,-154.9844 127.1886,-148.3404"/>
</g>
<!-- Node3 -->
<g id="node4" class="node">
<title>Node3</title>
<g id="a_node4"><a xlink:title=" ">
<polygon fill="none" stroke="#bfbfbf" points="196.6846,-130.5 196.6846,-148.5 302.167,-148.5 302.167,-130.5 196.6846,-130.5"/>
<text text-anchor="middle" x="249.4258" y="-136.5" font-family="Helvetica,sans-Serif" font-size="10.00" fill="#000000">ASIO/Processor.hxx</text>
</a>
</g>
</g>
<!-- Node0&#45;&gt;Node3 -->
<g id="edge3" class="edge">
<title>Node0&#45;&gt;Node3</title>
<path fill="none" stroke="#191970" d="M282.8745,-185.41C276.0313,-176.0174 268.3395,-165.46 262.0589,-156.8395"/>
<polygon fill="#191970" stroke="#191970" points="264.8368,-154.7086 256.1193,-148.6872 259.1791,-158.8306 264.8368,-154.7086"/>
</g>
<!-- Node4 -->
<g id="node5" class="node">
<title>Node4</title>
<g id="a_node5"><a xlink:title=" ">
<polygon fill="none" stroke="#bfbfbf" points="319.9604,-130.5 319.9604,-148.5 384.8911,-148.5 384.8911,-130.5 319.9604,-130.5"/>
<text text-anchor="middle" x="352.4258" y="-136.5" font-family="Helvetica,sans-Serif" font-size="10.00" fill="#000000">Logger.hxx</text>
</a>
</g>
</g>
<!-- Node0&#45;&gt;Node4 -->
<g id="edge4" class="edge">
<title>Node0&#45;&gt;Node4</title>
<path fill="none" stroke="#191970" d="M318.3212,-185.41C325.2986,-176.0174 333.1412,-165.46 339.545,-156.8395"/>
<polygon fill="#191970" stroke="#191970" points="342.4473,-158.8018 345.601,-148.6872 336.8281,-154.6276 342.4473,-158.8018"/>
</g>
<!-- Node5 -->
<g id="node6" class="node">
<title>Node5</title>
<g id="a_node6"><a xlink:href="_thread_descriptor_8hxx.html" target="_top" xlink:title=" ">
<polygon fill="none" stroke="#000000" points="402.9038,-130.5 402.9038,-148.5 513.9478,-148.5 513.9478,-130.5 402.9038,-130.5"/>
<text text-anchor="middle" x="458.4258" y="-136.5" font-family="Helvetica,sans-Serif" font-size="10.00" fill="#000000">ThreadDescriptor.hxx</text>
</a>
</g>
</g>
<!-- Node0&#45;&gt;Node5 -->
<g id="edge5" class="edge">
<title>Node0&#45;&gt;Node5</title>
<path fill="none" stroke="#191970" d="M354.8004,-185.41C379.614,-174.4166 408.0291,-161.8277 428.8207,-152.6162"/>
<polygon fill="#191970" stroke="#191970" points="430.3558,-155.7643 438.0809,-148.5136 427.5203,-149.3642 430.3558,-155.7643"/>
</g>
<!-- Node2 -->
<g id="node3" class="node">
<title>Node2</title>
<g id="a_node3"><a xlink:title=" ">
<polygon fill="none" stroke="#bfbfbf" points="25.0024,-70.5 25.0024,-88.5 153.8491,-88.5 153.8491,-70.5 25.0024,-70.5"/>
<text text-anchor="middle" x="89.4258" y="-76.5" font-family="Helvetica,sans-Serif" font-size="10.00" fill="#000000">boost/asio/io_service.hpp</text>
</a>
</g>
</g>
<!-- Node1&#45;&gt;Node2 -->
<g id="edge2" class="edge">
<title>Node1&#45;&gt;Node2</title>
<path fill="none" stroke="#191970" d="M89.4258,-130.3873C89.4258,-122.0174 89.4258,-109.3414 89.4258,-98.735"/>
<polygon fill="#191970" stroke="#191970" points="92.9259,-98.6984 89.4258,-88.6985 85.9259,-98.6985 92.9259,-98.6984"/>
</g>
<!-- Node6 -->
<g id="node7" class="node">
<title>Node6</title>
<g id="a_node7"><a xlink:title=" ">
<polygon fill="none" stroke="#bfbfbf" points="198.1157,-70.5 198.1157,-88.5 314.7358,-88.5 314.7358,-70.5 198.1157,-70.5"/>
<text text-anchor="middle" x="256.4258" y="-76.5" font-family="Helvetica,sans-Serif" font-size="10.00" fill="#000000">boost/thread/locks.hpp</text>
</a>
</g>
</g>
<!-- Node5&#45;&gt;Node6 -->
<g id="edge6" class="edge">
<title>Node5&#45;&gt;Node6</title>
<path fill="none" stroke="#191970" d="M427.7463,-130.3873C392.6913,-119.9749 335.1996,-102.8982 296.5984,-91.4325"/>
<polygon fill="#191970" stroke="#191970" points="297.3148,-87.9942 286.7321,-88.5019 295.3216,-94.7044 297.3148,-87.9942"/>
</g>
<!-- Node7 -->
<g id="node8" class="node">
<title>Node7</title>
<g id="a_node8"><a xlink:title=" ">
<polygon fill="none" stroke="#bfbfbf" points="470.9507,-.5 470.9507,-28.5 575.9009,-28.5 575.9009,-.5 470.9507,-.5"/>
<text text-anchor="start" x="478.9507" y="-16.5" font-family="Helvetica,sans-Serif" font-size="10.00" fill="#000000">boost/thread/shared</text>
<text text-anchor="middle" x="523.4258" y="-6.5" font-family="Helvetica,sans-Serif" font-size="10.00" fill="#000000">_mutex.hpp</text>
</a>
</g>
</g>
<!-- Node5&#45;&gt;Node7 -->
<g id="edge7" class="edge">
<title>Node5&#45;&gt;Node7</title>
<path fill="none" stroke="#191970" d="M415.2702,-130.4884C395.2756,-123.9208 373.3477,-112.7605 361.4258,-94 354.5129,-83.1218 353.7876,-75.3818 361.4258,-65 373.6029,-48.449 420.612,-34.9407 460.8763,-26.0736"/>
<polygon fill="#191970" stroke="#191970" points="461.6295,-29.4918 470.6752,-23.9758 460.164,-22.6469 461.6295,-29.4918"/>
</g>
<!-- Node8 -->
<g id="node9" class="node">
<title>Node8</title>
<g id="a_node9"><a xlink:title=" ">
<polygon fill="none" stroke="#bfbfbf" points="370.3301,-70.5 370.3301,-88.5 492.5215,-88.5 492.5215,-70.5 370.3301,-70.5"/>
<text text-anchor="middle" x="431.4258" y="-76.5" font-family="Helvetica,sans-Serif" font-size="10.00" fill="#000000">boost/thread/thread.hpp</text>
</a>
</g>
</g>
<!-- Node5&#45;&gt;Node8 -->
<g id="edge8" class="edge">
<title>Node5&#45;&gt;Node8</title>
<path fill="none" stroke="#191970" d="M454.3251,-130.3873C450.4793,-121.8412 444.6134,-108.8057 439.7813,-98.0679"/>
<polygon fill="#191970" stroke="#191970" points="442.8605,-96.3814 435.5651,-88.6985 436.4771,-99.254 442.8605,-96.3814"/>
</g>
<!-- Node9 -->
<g id="node10" class="node">
<title>Node9</title>
<g id="a_node10"><a xlink:title=" ">
<polygon fill="none" stroke="#bfbfbf" points="510.1182,-70.5 510.1182,-88.5 616.7334,-88.5 616.7334,-70.5 510.1182,-70.5"/>
<text text-anchor="middle" x="563.4258" y="-76.5" font-family="Helvetica,sans-Serif" font-size="10.00" fill="#000000">boost/thread/tss.hpp</text>
</a>
</g>
</g>
<!-- Node5&#45;&gt;Node9 -->
<g id="edge9" class="edge">
<title>Node5&#45;&gt;Node9</title>
<path fill="none" stroke="#191970" d="M474.373,-130.3873C491.5092,-120.5952 518.9597,-104.9092 538.8579,-93.5388"/>
<polygon fill="#191970" stroke="#191970" points="540.7266,-96.5022 547.6725,-88.5019 537.2536,-90.4245 540.7266,-96.5022"/>
</g>
<!-- Node10 -->
<g id="node11" class="node">
<title>Node10</title>
<g id="a_node11"><a xlink:href="_invalid_execution_thead_exception_8hxx.html" target="_top" xlink:title=" ">
<polygon fill="none" stroke="#000000" points="734.1675,-65.5 734.1675,-93.5 874.6841,-93.5 874.6841,-65.5 734.1675,-65.5"/>
<text text-anchor="start" x="742.1675" y="-81.5" font-family="Helvetica,sans-Serif" font-size="10.00" fill="#000000">Exceptions/InvalidExecution</text>
<text text-anchor="middle" x="804.4258" y="-71.5" font-family="Helvetica,sans-Serif" font-size="10.00" fill="#000000">TheadException.hxx</text>
</a>
</g>
</g>
<!-- Node5&#45;&gt;Node10 -->
<g id="edge10" class="edge">
<title>Node5&#45;&gt;Node10</title>
<path fill="none" stroke="#191970" d="M512.6664,-130.4647C564.4235,-121.7962 644.8702,-108.2008 723.6958,-94.2949"/>
<polygon fill="#191970" stroke="#191970" points="724.5604,-97.6964 733.7986,-92.5092 723.342,-90.8032 724.5604,-97.6964"/>
</g>
<!-- Node12 -->
<g id="node13" class="node">
<title>Node12</title>
<g id="a_node13"><a xlink:href="_t_singleton_8hxx.html" target="_top" xlink:title=" ">
<polygon fill="none" stroke="#000000" points="634.3521,-70.5 634.3521,-88.5 716.4995,-88.5 716.4995,-70.5 634.3521,-70.5"/>
<text text-anchor="middle" x="675.4258" y="-76.5" font-family="Helvetica,sans-Serif" font-size="10.00" fill="#000000">TSingleton.hxx</text>
</a>
</g>
</g>
<!-- Node5&#45;&gt;Node12 -->
<g id="edge12" class="edge">
<title>Node5&#45;&gt;Node12</title>
<path fill="none" stroke="#191970" d="M492.3742,-130.424C526.1485,-121.3537 579.4304,-106.9342 625.4258,-94 628.418,-93.1586 631.5086,-92.2815 634.6172,-91.3936"/>
<polygon fill="#191970" stroke="#191970" points="635.8644,-94.677 644.5087,-88.5511 633.931,-87.9492 635.8644,-94.677"/>
</g>
<!-- Node11 -->
<g id="node12" class="node">
<title>Node11</title>
<g id="a_node12"><a xlink:title=" ">
<polygon fill="none" stroke="#bfbfbf" points="710.022,-5.5 710.022,-23.5 768.8296,-23.5 768.8296,-5.5 710.022,-5.5"/>
<text text-anchor="middle" x="739.4258" y="-11.5" font-family="Helvetica,sans-Serif" font-size="10.00" fill="#000000">exception</text>
</a>
</g>
</g>
<!-- Node10&#45;&gt;Node11 -->
<g id="edge11" class="edge">
<title>Node10&#45;&gt;Node11</title>
<path fill="none" stroke="#191970" d="M790.3217,-65.396C780.1063,-55.1805 766.2754,-41.3496 755.6098,-30.6841"/>
<polygon fill="#191970" stroke="#191970" points="758.0461,-28.1705 748.5001,-23.5743 753.0963,-33.1203 758.0461,-28.1705"/>
</g>
<!-- Node12&#45;&gt;Node7 -->
<g id="edge13" class="edge">
<title>Node12&#45;&gt;Node7</title>
<path fill="none" stroke="#191970" d="M654.2908,-70.462C631.4982,-60.7152 594.6083,-44.9399 565.796,-32.6188"/>
<polygon fill="#191970" stroke="#191970" points="566.9373,-29.3004 556.3666,-28.5865 564.185,-35.7366 566.9373,-29.3004"/>
</g>
<!-- Node12&#45;&gt;Node11 -->
<g id="edge14" class="edge">
<title>Node12&#45;&gt;Node11</title>
<path fill="none" stroke="#191970" d="M684.3247,-70.462C694.3367,-60.2936 710.809,-43.5639 723.1401,-31.0402"/>
<polygon fill="#191970" stroke="#191970" points="725.6659,-33.4635 730.188,-23.8821 720.6779,-28.5522 725.6659,-33.4635"/>
</g>
</g>
</svg>
