<?xml version="1.0" encoding="UTF-8" standalone="no"?>
<!DOCTYPE svg PUBLIC "-//W3C//DTD SVG 1.1//EN"
 "http://www.w3.org/Graphics/SVG/1.1/DTD/svg11.dtd">
<!-- Generated by graphviz version 2.40.1 (20161225.0304)
 -->
<!-- Title: /Users/oskryp/Projects/freesee&#45;native&#45;client/libs/fcc_sdk/engine/meetingclient/include/MeetingClient/Delegates/IRawRTMessageNotificationsDelegate.hxx Pages: 1 -->
<!--zoomable 392 -->
<svg id="main" version="1.1" xmlns="http://www.w3.org/2000/svg" xmlns:xlink="http://www.w3.org/1999/xlink" xml:space="preserve" onload="init(evt)">
<style type="text/css"><![CDATA[
.edge:hover path { stroke: red; }
.edge:hover polygon { stroke: red; fill: red; }
]]></style>
<script type="text/javascript"><![CDATA[
var edges = document.getElementsByTagName('g');
if (edges && edges.length) {
  for (var i=0;i<edges.length;i++) {
    if (edges[i].id.substr(0,4)=='edge') {
      edges[i].setAttribute('class','edge');
    }
  }
}
]]></script>
        <defs>
                <circle id="rim" cx="0" cy="0" r="7"/>
                <circle id="rim2" cx="0" cy="0" r="3.5"/>
                <g id="zoomPlus">
                        <use xlink:href="#rim" fill="#404040">
                                <set attributeName="fill" to="#808080" begin="zoomplus.mouseover" end="zoomplus.mouseout"/>
                        </use>
                        <path d="M-4,0h8M0,-4v8" fill="none" stroke="white" stroke-width="1.5" pointer-events="none"/>
                </g>
                <g id="zoomMin">
                        <use xlink:href="#rim" fill="#404040">
                                <set attributeName="fill" to="#808080" begin="zoomminus.mouseover" end="zoomminus.mouseout"/>
                        </use>
                        <path d="M-4,0h8" fill="none" stroke="white" stroke-width="1.5" pointer-events="none"/>
                </g>
                <g id="dirArrow">
                        <path fill="none" stroke="white" stroke-width="1.5" d="M0,-3.0v7 M-2.5,-0.5L0,-3.0L2.5,-0.5"/>
                </g>
               <g id="resetDef">
                       <use xlink:href="#rim2" fill="#404040">
                               <set attributeName="fill" to="#808080" begin="reset.mouseover" end="reset.mouseout"/>
                       </use>
               </g>
        </defs>

<script type="text/javascript">
var viewWidth = 1045;
var viewHeight = 392;
var sectionId = 'dynsection-0';
</script>
<script xlink:href="svgpan.js"/>
<svg id="graph" class="graph">
<g id="viewport">
<title>/Users/oskryp/Projects/freesee&#45;native&#45;client/libs/fcc_sdk/engine/meetingclient/include/MeetingClient/Delegates/IRawRTMessageNotificationsDelegate.hxx</title>
<!-- Node0 -->
<g id="node1" class="node">
<title>Node0</title>
<g id="a_node1"><a xlink:title=" ">
<polygon fill="#bfbfbf" stroke="#000000" points="313.5757,-325.5 313.5757,-383.5 521.7046,-383.5 521.7046,-325.5 313.5757,-325.5"/>
<text text-anchor="start" x="321.5757" y="-371.5" font-family="Helvetica,sans-Serif" font-size="10.00" fill="#000000">/Users/oskryp/Projects</text>
<text text-anchor="start" x="321.5757" y="-361.5" font-family="Helvetica,sans-Serif" font-size="10.00" fill="#000000">/freesee&#45;native&#45;client</text>
<text text-anchor="start" x="321.5757" y="-351.5" font-family="Helvetica,sans-Serif" font-size="10.00" fill="#000000">/libs/fcc_sdk/engine/meetingclient</text>
<text text-anchor="start" x="321.5757" y="-341.5" font-family="Helvetica,sans-Serif" font-size="10.00" fill="#000000">/include/MeetingClient/Delegates</text>
<text text-anchor="middle" x="417.6401" y="-331.5" font-family="Helvetica,sans-Serif" font-size="10.00" fill="#000000">/IRawRTMessageNotificationsDelegate.hxx</text>
</a>
</g>
</g>
<!-- Node1 -->
<g id="node2" class="node">
<title>Node1</title>
<g id="a_node2"><a xlink:href="_notifications_8hxx.html" target="_top" xlink:title=" ">
<polygon fill="none" stroke="#000000" points="355.165,-260.5 355.165,-288.5 480.1152,-288.5 480.1152,-260.5 355.165,-260.5"/>
<text text-anchor="start" x="363.165" y="-276.5" font-family="Helvetica,sans-Serif" font-size="10.00" fill="#000000">MeetingClient/Delegates</text>
<text text-anchor="middle" x="417.6401" y="-266.5" font-family="Helvetica,sans-Serif" font-size="10.00" fill="#000000">/Notifications.hxx</text>
</a>
</g>
</g>
<!-- Node0&#45;&gt;Node1 -->
<g id="edge1" class="edge">
<title>Node0&#45;&gt;Node1</title>
<path fill="none" stroke="#191970" d="M417.6401,-325.1652C417.6401,-316.4834 417.6401,-307.0784 417.6401,-298.7556"/>
<polygon fill="#191970" stroke="#191970" points="421.1402,-298.5895 417.6401,-288.5895 414.1402,-298.5896 421.1402,-298.5895"/>
</g>
<!-- Node2 -->
<g id="node3" class="node">
<title>Node2</title>
<g id="a_node3"><a xlink:title=" ">
<polygon fill="none" stroke="#bfbfbf" points="0,-195.5 0,-223.5 113.2803,-223.5 113.2803,-195.5 0,-195.5"/>
<text text-anchor="start" x="8" y="-211.5" font-family="Helvetica,sans-Serif" font-size="10.00" fill="#000000">boost/date_time/posix</text>
<text text-anchor="middle" x="56.6401" y="-201.5" font-family="Helvetica,sans-Serif" font-size="10.00" fill="#000000">_time/posix_time.hpp</text>
</a>
</g>
</g>
<!-- Node1&#45;&gt;Node2 -->
<g id="edge2" class="edge">
<title>Node1&#45;&gt;Node2</title>
<path fill="none" stroke="#191970" d="M355.1066,-264.7718C297.31,-255.5668 208.8142,-240.9334 123.2079,-224.2587"/>
<polygon fill="#191970" stroke="#191970" points="123.8114,-220.8105 113.325,-222.3219 122.4651,-227.6799 123.8114,-220.8105"/>
</g>
<!-- Node3 -->
<g id="node4" class="node">
<title>Node3</title>
<g id="a_node4"><a xlink:title=" ">
<polygon fill="none" stroke="#bfbfbf" points="130.9136,-200.5 130.9136,-218.5 166.3667,-218.5 166.3667,-200.5 130.9136,-200.5"/>
<text text-anchor="middle" x="148.6401" y="-206.5" font-family="Helvetica,sans-Serif" font-size="10.00" fill="#000000">map</text>
</a>
</g>
</g>
<!-- Node1&#45;&gt;Node3 -->
<g id="edge3" class="edge">
<title>Node1&#45;&gt;Node3</title>
<path fill="none" stroke="#191970" d="M355.0183,-266.8259C305.0624,-259.4461 233.8903,-246.0868 174.6401,-224 173.9137,-223.7292 173.1831,-223.4404 172.4514,-223.1365"/>
<polygon fill="#191970" stroke="#191970" points="173.6391,-219.8219 163.1162,-218.5891 170.5736,-226.115 173.6391,-219.8219"/>
</g>
<!-- Node4 -->
<g id="node5" class="node">
<title>Node4</title>
<g id="a_node5"><a xlink:title=" ">
<polygon fill="none" stroke="#bfbfbf" points="184.0244,-200.5 184.0244,-218.5 227.2559,-218.5 227.2559,-200.5 184.0244,-200.5"/>
<text text-anchor="middle" x="205.6401" y="-206.5" font-family="Helvetica,sans-Serif" font-size="10.00" fill="#000000">vector</text>
</a>
</g>
</g>
<!-- Node1&#45;&gt;Node4 -->
<g id="edge4" class="edge">
<title>Node1&#45;&gt;Node4</title>
<path fill="none" stroke="#191970" d="M356.5143,-260.4569C320.7711,-251.5269 275.0689,-238.8611 235.6401,-224 234.6117,-223.6124 233.5706,-223.2024 232.5245,-222.7755"/>
<polygon fill="#191970" stroke="#191970" points="233.7363,-219.4841 223.1763,-218.6252 230.8958,-225.8819 233.7363,-219.4841"/>
</g>
<!-- Node5 -->
<g id="node6" class="node">
<title>Node5</title>
<g id="a_node6"><a xlink:title=" ">
<polygon fill="none" stroke="#bfbfbf" points="244.9531,-200.5 244.9531,-218.5 334.3271,-218.5 334.3271,-200.5 244.9531,-200.5"/>
<text text-anchor="middle" x="289.6401" y="-206.5" font-family="Helvetica,sans-Serif" font-size="10.00" fill="#000000">FSSnapshot.hxx</text>
</a>
</g>
</g>
<!-- Node1&#45;&gt;Node5 -->
<g id="edge5" class="edge">
<title>Node1&#45;&gt;Node5</title>
<path fill="none" stroke="#191970" d="M389.866,-260.396C368.0894,-249.3375 337.9694,-234.0422 316.4454,-223.112"/>
<polygon fill="#191970" stroke="#191970" points="318.0105,-219.9815 307.5095,-218.5743 314.841,-226.2228 318.0105,-219.9815"/>
</g>
<!-- Node6 -->
<g id="node7" class="node">
<title>Node6</title>
<g id="a_node7"><a xlink:href="macros_8hxx.html" target="_top" xlink:title=" ">
<polygon fill="none" stroke="#000000" points="352.1182,-200.5 352.1182,-218.5 483.1621,-218.5 483.1621,-200.5 352.1182,-200.5"/>
<text text-anchor="middle" x="417.6401" y="-206.5" font-family="Helvetica,sans-Serif" font-size="10.00" fill="#000000">MeetingClient/macros.hxx</text>
</a>
</g>
</g>
<!-- Node1&#45;&gt;Node6 -->
<g id="edge6" class="edge">
<title>Node1&#45;&gt;Node6</title>
<path fill="none" stroke="#191970" d="M417.6401,-260.396C417.6401,-251.1723 417.6401,-239.0011 417.6401,-228.8738"/>
<polygon fill="#191970" stroke="#191970" points="421.1402,-228.5743 417.6401,-218.5743 414.1402,-228.5743 421.1402,-228.5743"/>
</g>
<!-- Node7 -->
<g id="node8" class="node">
<title>Node7</title>
<g id="a_node8"><a xlink:href="_f_s_base_8hxx.html" target="_top" xlink:title=" ">
<polygon fill="none" stroke="#000000" points="500.9482,-195.5 500.9482,-223.5 620.332,-223.5 620.332,-195.5 500.9482,-195.5"/>
<text text-anchor="start" x="508.9482" y="-211.5" font-family="Helvetica,sans-Serif" font-size="10.00" fill="#000000">MeetingClient/transport</text>
<text text-anchor="middle" x="560.6401" y="-201.5" font-family="Helvetica,sans-Serif" font-size="10.00" fill="#000000">/FSBase.hxx</text>
</a>
</g>
</g>
<!-- Node1&#45;&gt;Node7 -->
<g id="edge7" class="edge">
<title>Node1&#45;&gt;Node7</title>
<path fill="none" stroke="#191970" d="M448.669,-260.396C469.6567,-250.8561 497.5812,-238.1632 520.2928,-227.8397"/>
<polygon fill="#191970" stroke="#191970" points="522.0165,-230.9009 529.6718,-223.5765 519.1198,-224.5283 522.0165,-230.9009"/>
</g>
<!-- Node8 -->
<g id="node9" class="node">
<title>Node8</title>
<g id="a_node9"><a xlink:href="_meeting_types_8hxx.html" target="_top" xlink:title=" ">
<polygon fill="none" stroke="#000000" points="632.729,-130.5 632.729,-158.5 736.5513,-158.5 736.5513,-130.5 632.729,-130.5"/>
<text text-anchor="start" x="640.729" y="-146.5" font-family="Helvetica,sans-Serif" font-size="10.00" fill="#000000">MeetingClient/types</text>
<text text-anchor="middle" x="684.6401" y="-136.5" font-family="Helvetica,sans-Serif" font-size="10.00" fill="#000000">/MeetingTypes.hxx</text>
</a>
</g>
</g>
<!-- Node1&#45;&gt;Node8 -->
<g id="edge8" class="edge">
<title>Node1&#45;&gt;Node8</title>
<path fill="none" stroke="#191970" d="M480.3337,-264.6686C533.7578,-255.3778 605.5907,-240.443 629.6401,-224 649.9802,-210.0932 665.0795,-185.9906 674.2595,-167.9603"/>
<polygon fill="#191970" stroke="#191970" points="677.5483,-169.1984 678.7462,-158.6715 671.2451,-166.1538 677.5483,-169.1984"/>
</g>
<!-- Node14 -->
<g id="node15" class="node">
<title>Node14</title>
<g id="a_node15"><a xlink:href="_conference_attribute_definitions_8hxx.html" target="_top" xlink:title=" ">
<polygon fill="none" stroke="#000000" points="676.8301,-195.5 676.8301,-223.5 808.4502,-223.5 808.4502,-195.5 676.8301,-195.5"/>
<text text-anchor="start" x="684.8301" y="-211.5" font-family="Helvetica,sans-Serif" font-size="10.00" fill="#000000">MeetingClient/Conference</text>
<text text-anchor="middle" x="742.6401" y="-201.5" font-family="Helvetica,sans-Serif" font-size="10.00" fill="#000000">AttributeDefinitions.hxx</text>
</a>
</g>
</g>
<!-- Node1&#45;&gt;Node14 -->
<g id="edge14" class="edge">
<title>Node1&#45;&gt;Node14</title>
<path fill="none" stroke="#191970" d="M480.3034,-261.9673C533.5498,-251.3181 610.1455,-235.9989 666.8359,-224.6608"/>
<polygon fill="#191970" stroke="#191970" points="667.7032,-228.0568 676.8226,-222.6635 666.3304,-221.1927 667.7032,-228.0568"/>
</g>
<!-- Node15 -->
<g id="node16" class="node">
<title>Node15</title>
<g id="a_node16"><a xlink:href="_meeting_session_parameters_8hxx.html" target="_top" xlink:title=" ">
<polygon fill="none" stroke="#000000" points="826.1035,-195.5 826.1035,-223.5 977.1768,-223.5 977.1768,-195.5 826.1035,-195.5"/>
<text text-anchor="start" x="834.1035" y="-211.5" font-family="Helvetica,sans-Serif" font-size="10.00" fill="#000000">MeetingClient/MeetingSession</text>
<text text-anchor="middle" x="901.6401" y="-201.5" font-family="Helvetica,sans-Serif" font-size="10.00" fill="#000000">Parameters.hxx</text>
</a>
</g>
</g>
<!-- Node1&#45;&gt;Node15 -->
<g id="edge15" class="edge">
<title>Node1&#45;&gt;Node15</title>
<path fill="none" stroke="#191970" d="M480.1171,-267.5009C556.8547,-258.7055 691.247,-242.6586 815.5811,-224.2734"/>
<polygon fill="#191970" stroke="#191970" points="816.2826,-227.7077 825.659,-222.7747 815.2529,-220.7838 816.2826,-227.7077"/>
</g>
<!-- Node9 -->
<g id="node10" class="node">
<title>Node9</title>
<g id="a_node10"><a xlink:href="_common_data_types_8hxx.html" target="_top" xlink:title=" ">
<polygon fill="none" stroke="#000000" points="556.894,-65.5 556.894,-93.5 682.3862,-93.5 682.3862,-65.5 556.894,-65.5"/>
<text text-anchor="start" x="564.894" y="-81.5" font-family="Helvetica,sans-Serif" font-size="10.00" fill="#000000">MeetingClient/types</text>
<text text-anchor="middle" x="619.6401" y="-71.5" font-family="Helvetica,sans-Serif" font-size="10.00" fill="#000000">/CommonDataTypes.hxx</text>
</a>
</g>
</g>
<!-- Node8&#45;&gt;Node9 -->
<g id="edge9" class="edge">
<title>Node8&#45;&gt;Node9</title>
<path fill="none" stroke="#191970" d="M670.5361,-130.396C661.848,-121.7079 650.5448,-110.4046 640.7978,-100.6576"/>
<polygon fill="#191970" stroke="#191970" points="643.2626,-98.1727 633.7166,-93.5765 638.3129,-103.1225 643.2626,-98.1727"/>
</g>
<!-- Node12 -->
<g id="node13" class="node">
<title>Node12</title>
<g id="a_node13"><a xlink:href="strong__identity_8hxx.html" target="_top" xlink:title=" ">
<polygon fill="none" stroke="#000000" points="699.9302,-65.5 699.9302,-93.5 801.3501,-93.5 801.3501,-65.5 699.9302,-65.5"/>
<text text-anchor="start" x="707.9302" y="-81.5" font-family="Helvetica,sans-Serif" font-size="10.00" fill="#000000">MeetingClient/utils</text>
<text text-anchor="middle" x="750.6401" y="-71.5" font-family="Helvetica,sans-Serif" font-size="10.00" fill="#000000">/strong_identity.hxx</text>
</a>
</g>
</g>
<!-- Node8&#45;&gt;Node12 -->
<g id="edge12" class="edge">
<title>Node8&#45;&gt;Node12</title>
<path fill="none" stroke="#191970" d="M698.9612,-130.396C707.7829,-121.7079 719.2601,-110.4046 729.157,-100.6576"/>
<polygon fill="#191970" stroke="#191970" points="731.6781,-103.0871 736.3471,-93.5765 726.7663,-98.0997 731.6781,-103.0871"/>
</g>
<!-- Node10 -->
<g id="node11" class="node">
<title>Node10</title>
<g id="a_node11"><a xlink:title=" ">
<polygon fill="none" stroke="#bfbfbf" points="515.4136,-5.5 515.4136,-23.5 555.8667,-23.5 555.8667,-5.5 515.4136,-5.5"/>
<text text-anchor="middle" x="535.6401" y="-11.5" font-family="Helvetica,sans-Serif" font-size="10.00" fill="#000000">string</text>
</a>
</g>
</g>
<!-- Node9&#45;&gt;Node10 -->
<g id="edge10" class="edge">
<title>Node9&#45;&gt;Node10</title>
<path fill="none" stroke="#191970" d="M601.4134,-65.396C587.8274,-54.883 569.2929,-40.5408 555.3612,-29.7603"/>
<polygon fill="#191970" stroke="#191970" points="557.4176,-26.9261 547.3669,-23.5743 553.1337,-32.4622 557.4176,-26.9261"/>
</g>
<!-- Node11 -->
<g id="node12" class="node">
<title>Node11</title>
<g id="a_node12"><a xlink:title=" ">
<polygon fill="none" stroke="#bfbfbf" points="573.8447,-5.5 573.8447,-23.5 675.4355,-23.5 675.4355,-5.5 573.8447,-5.5"/>
<text text-anchor="middle" x="624.6401" y="-11.5" font-family="Helvetica,sans-Serif" font-size="10.00" fill="#000000">CommonTypes.hxx</text>
</a>
</g>
</g>
<!-- Node9&#45;&gt;Node11 -->
<g id="edge11" class="edge">
<title>Node9&#45;&gt;Node11</title>
<path fill="none" stroke="#191970" d="M620.7251,-65.396C621.4422,-56.0732 622.391,-43.739 623.1749,-33.5479"/>
<polygon fill="#191970" stroke="#191970" points="626.6647,-33.8133 623.9421,-23.5743 619.6854,-33.2764 626.6647,-33.8133"/>
</g>
<!-- Node13 -->
<g id="node14" class="node">
<title>Node13</title>
<g id="a_node14"><a xlink:title=" ">
<polygon fill="none" stroke="#bfbfbf" points="698.4409,-.5 698.4409,-28.5 802.8394,-28.5 802.8394,-.5 698.4409,-.5"/>
<text text-anchor="start" x="706.4409" y="-16.5" font-family="Helvetica,sans-Serif" font-size="10.00" fill="#000000">boost/serialization</text>
<text text-anchor="middle" x="750.6401" y="-6.5" font-family="Helvetica,sans-Serif" font-size="10.00" fill="#000000">/strong_typedef.hpp</text>
</a>
</g>
</g>
<!-- Node12&#45;&gt;Node13 -->
<g id="edge13" class="edge">
<title>Node12&#45;&gt;Node13</title>
<path fill="none" stroke="#191970" d="M750.6401,-65.396C750.6401,-57.6448 750.6401,-47.8122 750.6401,-38.8601"/>
<polygon fill="#191970" stroke="#191970" points="754.1402,-38.5765 750.6401,-28.5765 747.1402,-38.5765 754.1402,-38.5765"/>
</g>
<!-- Node15&#45;&gt;Node8 -->
<g id="edge16" class="edge">
<title>Node15&#45;&gt;Node8</title>
<path fill="none" stroke="#191970" d="M854.8215,-195.476C821.5667,-185.5149 776.7357,-172.0862 741.4352,-161.5123"/>
<polygon fill="#191970" stroke="#191970" points="742.3327,-158.1276 731.7489,-158.6109 740.324,-164.8332 742.3327,-158.1276"/>
</g>
<!-- Node16 -->
<g id="node17" class="node">
<title>Node16</title>
<g id="a_node17"><a xlink:title=" ">
<polygon fill="none" stroke="#bfbfbf" points="790.0762,-135.5 790.0762,-153.5 847.2041,-153.5 847.2041,-135.5 790.0762,-135.5"/>
<text text-anchor="middle" x="818.6401" y="-141.5" font-family="Helvetica,sans-Serif" font-size="10.00" fill="#000000">algorithm</text>
</a>
</g>
</g>
<!-- Node15&#45;&gt;Node16 -->
<g id="edge17" class="edge">
<title>Node15&#45;&gt;Node16</title>
<path fill="none" stroke="#191970" d="M883.6304,-195.396C870.2061,-184.883 851.8923,-170.5408 838.1264,-159.7603"/>
<polygon fill="#191970" stroke="#191970" points="840.2584,-156.9844 830.2273,-153.5743 835.9424,-162.4956 840.2584,-156.9844"/>
</g>
<!-- Node17 -->
<g id="node18" class="node">
<title>Node17</title>
<g id="a_node18"><a xlink:title=" ">
<polygon fill="none" stroke="#bfbfbf" points="864.7363,-135.5 864.7363,-153.5 938.5439,-153.5 938.5439,-135.5 864.7363,-135.5"/>
<text text-anchor="middle" x="901.6401" y="-141.5" font-family="Helvetica,sans-Serif" font-size="10.00" fill="#000000">Printable.hxx</text>
</a>
</g>
</g>
<!-- Node15&#45;&gt;Node17 -->
<g id="edge18" class="edge">
<title>Node15&#45;&gt;Node17</title>
<path fill="none" stroke="#191970" d="M901.6401,-195.396C901.6401,-186.1723 901.6401,-174.0011 901.6401,-163.8738"/>
<polygon fill="#191970" stroke="#191970" points="905.1402,-163.5743 901.6401,-153.5743 898.1402,-163.5743 905.1402,-163.5743"/>
</g>
<!-- Node18 -->
<g id="node19" class="node">
<title>Node18</title>
<g id="a_node19"><a xlink:title=" ">
<polygon fill="none" stroke="#bfbfbf" points="956.1206,-135.5 956.1206,-153.5 1037.1597,-153.5 1037.1597,-135.5 956.1206,-135.5"/>
<text text-anchor="middle" x="996.6401" y="-141.5" font-family="Helvetica,sans-Serif" font-size="10.00" fill="#000000">VoIPClient.hxx</text>
</a>
</g>
</g>
<!-- Node15&#45;&gt;Node18 -->
<g id="edge19" class="edge">
<title>Node15&#45;&gt;Node18</title>
<path fill="none" stroke="#191970" d="M922.2537,-195.396C937.7638,-184.7838 958.9765,-170.2699 974.7811,-159.4562"/>
<polygon fill="#191970" stroke="#191970" points="977.101,-162.1098 983.3777,-153.5743 973.1482,-156.3326 977.101,-162.1098"/>
</g>
</g>
</svg>
        <g id="navigator" transform="translate(0 0)" fill="#404254">
                <rect fill="#f2f5e9" fill-opacity="0.5" stroke="#606060" stroke-width=".5" x="0" y="0" width="60" height="60"/>
                <use id="zoomplus" xlink:href="#zoomPlus" x="17" y="9" onmousedown="handleZoom(evt,'in')"/>
                <use id="zoomminus" xlink:href="#zoomMin" x="42" y="9" onmousedown="handleZoom(evt,'out')"/>
                <use id="reset" xlink:href="#resetDef" x="30" y="36" onmousedown="handleReset()"/>
                <g id="arrowUp" xlink:href="#dirArrow" transform="translate(30 24)" onmousedown="handlePan(0,-1)">
                  <use xlink:href="#rim" fill="#404040">
                        <set attributeName="fill" to="#808080" begin="arrowUp.mouseover" end="arrowUp.mouseout"/>
                  </use>
                  <path fill="none" stroke="white" stroke-width="1.5" d="M0,-3.0v7 M-2.5,-0.5L0,-3.0L2.5,-0.5"/>
                </g>
                <g id="arrowRight" xlink:href="#dirArrow" transform="rotate(90) translate(36 -43)" onmousedown="handlePan(1,0)">
                  <use xlink:href="#rim" fill="#404040">
                        <set attributeName="fill" to="#808080" begin="arrowRight.mouseover" end="arrowRight.mouseout"/>
                  </use>
                  <path fill="none" stroke="white" stroke-width="1.5" d="M0,-3.0v7 M-2.5,-0.5L0,-3.0L2.5,-0.5"/>
                </g>
                <g id="arrowDown" xlink:href="#dirArrow" transform="rotate(180) translate(-30 -48)" onmousedown="handlePan(0,1)">
                  <use xlink:href="#rim" fill="#404040">
                        <set attributeName="fill" to="#808080" begin="arrowDown.mouseover" end="arrowDown.mouseout"/>
                  </use>
                  <path fill="none" stroke="white" stroke-width="1.5" d="M0,-3.0v7 M-2.5,-0.5L0,-3.0L2.5,-0.5"/>
                </g>
                <g id="arrowLeft" xlink:href="#dirArrow" transform="rotate(270) translate(-36 17)" onmousedown="handlePan(-1,0)">
                  <use xlink:href="#rim" fill="#404040">
                        <set attributeName="fill" to="#808080" begin="arrowLeft.mouseover" end="arrowLeft.mouseout"/>
                  </use>
                  <path fill="none" stroke="white" stroke-width="1.5" d="M0,-3.0v7 M-2.5,-0.5L0,-3.0L2.5,-0.5"/>
                </g>
        </g>
        <svg viewBox="0 0 15 15" width="100%" height="30px" preserveAspectRatio="xMaxYMin meet">
         <g id="arrow_out" transform="scale(0.3 0.3)">
          <a xlink:href="_i_raw_r_t_message_notifications_delegate_8hxx__incl_org.svg" target="_base">
           <rect id="button" ry="5" rx="5" y="6" x="6" height="38" width="38"
                fill="#f2f5e9" fill-opacity="0.5" stroke="#606060" stroke-width="1.0"/>
           <path id="arrow"
             d="M 11.500037,31.436501 C 11.940474,20.09759 22.043105,11.32322 32.158766,21.979434 L 37.068811,17.246167 C 37.068811,17.246167 37.088388,32 37.088388,32 L 22.160133,31.978069 C 22.160133,31.978069 26.997745,27.140456 26.997745,27.140456 C 18.528582,18.264221 13.291696,25.230495 11.500037,31.436501 z"
             style="fill:#404040;"/>
          </a>
         </g>
        </svg>
</svg>
