<?xml version="1.0" encoding="UTF-8" standalone="no"?>
<!DOCTYPE svg PUBLIC "-//W3C//DTD SVG 1.1//EN"
 "http://www.w3.org/Graphics/SVG/1.1/DTD/svg11.dtd">
<!-- Generated by graphviz version 2.40.1 (20161225.0304)
 -->
<!-- Title: /Users/oskryp/Projects/freesee&#45;native&#45;client/libs/fcc_sdk/engine/meetingclient/include/MeetingClient/Delegates/ISessionNotificationsDelegate.hxx Pages: 1 -->
<svg width="1014pt" height="392pt"
 viewBox="0.00 0.00 1013.73 392.00" xmlns="http://www.w3.org/2000/svg" xmlns:xlink="http://www.w3.org/1999/xlink">
<g id="graph0" class="graph" transform="scale(1 1) rotate(0) translate(4 388)">
<title>/Users/oskryp/Projects/freesee&#45;native&#45;client/libs/fcc_sdk/engine/meetingclient/include/MeetingClient/Delegates/ISessionNotificationsDelegate.hxx</title>
<!-- Node0 -->
<g id="node1" class="node">
<title>Node0</title>
<g id="a_node1"><a xlink:title=" ">
<polygon fill="#bfbfbf" stroke="#000000" points="632.7417,-325.5 632.7417,-383.5 802.7114,-383.5 802.7114,-325.5 632.7417,-325.5"/>
<text text-anchor="start" x="640.7417" y="-371.5" font-family="Helvetica,sans-Serif" font-size="10.00" fill="#000000">/Users/oskryp/Projects</text>
<text text-anchor="start" x="640.7417" y="-361.5" font-family="Helvetica,sans-Serif" font-size="10.00" fill="#000000">/freesee&#45;native&#45;client</text>
<text text-anchor="start" x="640.7417" y="-351.5" font-family="Helvetica,sans-Serif" font-size="10.00" fill="#000000">/libs/fcc_sdk/engine/meetingclient</text>
<text text-anchor="start" x="640.7417" y="-341.5" font-family="Helvetica,sans-Serif" font-size="10.00" fill="#000000">/include/MeetingClient/Delegates</text>
<text text-anchor="middle" x="717.7266" y="-331.5" font-family="Helvetica,sans-Serif" font-size="10.00" fill="#000000">/ISessionNotificationsDelegate.hxx</text>
</a>
</g>
</g>
<!-- Node1 -->
<g id="node2" class="node">
<title>Node1</title>
<g id="a_node2"><a xlink:href="_notifications_8hxx.html" target="_top" xlink:title=" ">
<polygon fill="none" stroke="#000000" points="411.2515,-260.5 411.2515,-288.5 536.2017,-288.5 536.2017,-260.5 411.2515,-260.5"/>
<text text-anchor="start" x="419.2515" y="-276.5" font-family="Helvetica,sans-Serif" font-size="10.00" fill="#000000">MeetingClient/Delegates</text>
<text text-anchor="middle" x="473.7266" y="-266.5" font-family="Helvetica,sans-Serif" font-size="10.00" fill="#000000">/Notifications.hxx</text>
</a>
</g>
</g>
<!-- Node0&#45;&gt;Node1 -->
<g id="edge1" class="edge">
<title>Node0&#45;&gt;Node1</title>
<path fill="none" stroke="#191970" d="M632.7297,-326.6322C597.36,-315.0356 557.4071,-301.9362 526.3983,-291.7694"/>
<polygon fill="#191970" stroke="#191970" points="527.2547,-288.3669 516.6619,-288.5772 525.0738,-295.0186 527.2547,-288.3669"/>
</g>
<!-- Node10 -->
<g id="node11" class="node">
<title>Node10</title>
<g id="a_node11"><a xlink:title=" ">
<polygon fill="none" stroke="#bfbfbf" points="958.5,-5.5 958.5,-23.5 998.9531,-23.5 998.9531,-5.5 958.5,-5.5"/>
<text text-anchor="middle" x="978.7266" y="-11.5" font-family="Helvetica,sans-Serif" font-size="10.00" fill="#000000">string</text>
</a>
</g>
</g>
<!-- Node0&#45;&gt;Node10 -->
<g id="edge20" class="edge">
<title>Node0&#45;&gt;Node10</title>
<path fill="none" stroke="#191970" d="M802.9671,-347.2933C887.8913,-334.8911 1005.7266,-301.1665 1005.7266,-209.5 1005.7266,-209.5 1005.7266,-209.5 1005.7266,-144.5 1005.7266,-104.1399 993.0965,-58.1765 985.1129,-33.1542"/>
<polygon fill="#191970" stroke="#191970" points="988.3871,-31.907 981.9298,-23.5074 981.7396,-34.1005 988.3871,-31.907"/>
</g>
<!-- Node2 -->
<g id="node3" class="node">
<title>Node2</title>
<g id="a_node3"><a xlink:title=" ">
<polygon fill="none" stroke="#bfbfbf" points="864.0864,-195.5 864.0864,-223.5 977.3667,-223.5 977.3667,-195.5 864.0864,-195.5"/>
<text text-anchor="start" x="872.0864" y="-211.5" font-family="Helvetica,sans-Serif" font-size="10.00" fill="#000000">boost/date_time/posix</text>
<text text-anchor="middle" x="920.7266" y="-201.5" font-family="Helvetica,sans-Serif" font-size="10.00" fill="#000000">_time/posix_time.hpp</text>
</a>
</g>
</g>
<!-- Node1&#45;&gt;Node2 -->
<g id="edge2" class="edge">
<title>Node1&#45;&gt;Node2</title>
<path fill="none" stroke="#191970" d="M536.5161,-267.9159C610.3492,-259.7895 736.7641,-244.6778 854.1851,-224.1888"/>
<polygon fill="#191970" stroke="#191970" points="854.8243,-227.6302 864.0653,-222.4481 853.6097,-220.7363 854.8243,-227.6302"/>
</g>
<!-- Node3 -->
<g id="node4" class="node">
<title>Node3</title>
<g id="a_node4"><a xlink:title=" ">
<polygon fill="none" stroke="#bfbfbf" points="0,-200.5 0,-218.5 35.4531,-218.5 35.4531,-200.5 0,-200.5"/>
<text text-anchor="middle" x="17.7266" y="-206.5" font-family="Helvetica,sans-Serif" font-size="10.00" fill="#000000">map</text>
</a>
</g>
</g>
<!-- Node1&#45;&gt;Node3 -->
<g id="edge3" class="edge">
<title>Node1&#45;&gt;Node3</title>
<path fill="none" stroke="#191970" d="M411.0143,-270.1548C308.6839,-262.5595 110.5065,-245.5992 43.7266,-224 42.6939,-223.666 41.6557,-223.2892 40.6198,-222.8789"/>
<polygon fill="#191970" stroke="#191970" points="42.101,-219.7076 31.5716,-218.5317 39.0695,-226.0172 42.101,-219.7076"/>
</g>
<!-- Node4 -->
<g id="node5" class="node">
<title>Node4</title>
<g id="a_node5"><a xlink:title=" ">
<polygon fill="none" stroke="#bfbfbf" points="53.1108,-200.5 53.1108,-218.5 96.3423,-218.5 96.3423,-200.5 53.1108,-200.5"/>
<text text-anchor="middle" x="74.7266" y="-206.5" font-family="Helvetica,sans-Serif" font-size="10.00" fill="#000000">vector</text>
</a>
</g>
</g>
<!-- Node1&#45;&gt;Node4 -->
<g id="edge4" class="edge">
<title>Node1&#45;&gt;Node4</title>
<path fill="none" stroke="#191970" d="M411.0881,-271.9066C336.6439,-267.4685 209.3405,-255.5738 104.7266,-224 103.3074,-223.5717 101.8718,-223.0838 100.4372,-222.5527"/>
<polygon fill="#191970" stroke="#191970" points="101.7414,-219.3038 91.1706,-218.5904 98.9893,-225.7402 101.7414,-219.3038"/>
</g>
<!-- Node5 -->
<g id="node6" class="node">
<title>Node5</title>
<g id="a_node6"><a xlink:title=" ">
<polygon fill="none" stroke="#bfbfbf" points="114.0396,-200.5 114.0396,-218.5 203.4136,-218.5 203.4136,-200.5 114.0396,-200.5"/>
<text text-anchor="middle" x="158.7266" y="-206.5" font-family="Helvetica,sans-Serif" font-size="10.00" fill="#000000">FSSnapshot.hxx</text>
</a>
</g>
</g>
<!-- Node1&#45;&gt;Node5 -->
<g id="edge5" class="edge">
<title>Node1&#45;&gt;Node5</title>
<path fill="none" stroke="#191970" d="M411.2418,-263.8463C357.9818,-254.4338 279.5146,-239.7815 211.7266,-224 207.9158,-223.1128 203.9656,-222.1377 200.0185,-221.1256"/>
<polygon fill="#191970" stroke="#191970" points="200.8565,-217.727 190.2947,-218.5627 199.0724,-224.4959 200.8565,-217.727"/>
</g>
<!-- Node6 -->
<g id="node7" class="node">
<title>Node6</title>
<g id="a_node7"><a xlink:href="macros_8hxx.html" target="_top" xlink:title=" ">
<polygon fill="none" stroke="#000000" points="221.2046,-200.5 221.2046,-218.5 352.2485,-218.5 352.2485,-200.5 221.2046,-200.5"/>
<text text-anchor="middle" x="286.7266" y="-206.5" font-family="Helvetica,sans-Serif" font-size="10.00" fill="#000000">MeetingClient/macros.hxx</text>
</a>
</g>
</g>
<!-- Node1&#45;&gt;Node6 -->
<g id="edge6" class="edge">
<title>Node1&#45;&gt;Node6</title>
<path fill="none" stroke="#191970" d="M433.1503,-260.396C400.1947,-248.9408 354.1596,-232.9393 322.5528,-221.953"/>
<polygon fill="#191970" stroke="#191970" points="323.4275,-218.5516 312.8326,-218.5743 321.1291,-225.1636 323.4275,-218.5516"/>
</g>
<!-- Node7 -->
<g id="node8" class="node">
<title>Node7</title>
<g id="a_node8"><a xlink:href="_f_s_base_8hxx.html" target="_top" xlink:title=" ">
<polygon fill="none" stroke="#000000" points="370.0347,-195.5 370.0347,-223.5 489.4185,-223.5 489.4185,-195.5 370.0347,-195.5"/>
<text text-anchor="start" x="378.0347" y="-211.5" font-family="Helvetica,sans-Serif" font-size="10.00" fill="#000000">MeetingClient/transport</text>
<text text-anchor="middle" x="429.7266" y="-201.5" font-family="Helvetica,sans-Serif" font-size="10.00" fill="#000000">/FSBase.hxx</text>
</a>
</g>
</g>
<!-- Node1&#45;&gt;Node7 -->
<g id="edge7" class="edge">
<title>Node1&#45;&gt;Node7</title>
<path fill="none" stroke="#191970" d="M464.1792,-260.396C458.5864,-252.1338 451.3925,-241.5065 445.0262,-232.1017"/>
<polygon fill="#191970" stroke="#191970" points="447.7594,-229.8956 439.2553,-223.5765 441.9626,-233.8196 447.7594,-229.8956"/>
</g>
<!-- Node8 -->
<g id="node9" class="node">
<title>Node8</title>
<g id="a_node9"><a xlink:href="_meeting_types_8hxx.html" target="_top" xlink:title=" ">
<polygon fill="none" stroke="#000000" points="547.8154,-130.5 547.8154,-158.5 651.6377,-158.5 651.6377,-130.5 547.8154,-130.5"/>
<text text-anchor="start" x="555.8154" y="-146.5" font-family="Helvetica,sans-Serif" font-size="10.00" fill="#000000">MeetingClient/types</text>
<text text-anchor="middle" x="599.7266" y="-136.5" font-family="Helvetica,sans-Serif" font-size="10.00" fill="#000000">/MeetingTypes.hxx</text>
</a>
</g>
</g>
<!-- Node1&#45;&gt;Node8 -->
<g id="edge8" class="edge">
<title>Node1&#45;&gt;Node8</title>
<path fill="none" stroke="#191970" d="M483.5463,-260.213C495.2524,-243.6605 515.865,-215.9784 536.7266,-195 547.3599,-184.3071 560.1816,-173.6833 571.4747,-164.9587"/>
<polygon fill="#191970" stroke="#191970" points="573.8945,-167.5165 579.7511,-158.6875 569.667,-161.9372 573.8945,-167.5165"/>
</g>
<!-- Node14 -->
<g id="node15" class="node">
<title>Node14</title>
<g id="a_node15"><a xlink:href="_conference_attribute_definitions_8hxx.html" target="_top" xlink:title=" ">
<polygon fill="none" stroke="#000000" points="545.9165,-195.5 545.9165,-223.5 677.5366,-223.5 677.5366,-195.5 545.9165,-195.5"/>
<text text-anchor="start" x="553.9165" y="-211.5" font-family="Helvetica,sans-Serif" font-size="10.00" fill="#000000">MeetingClient/Conference</text>
<text text-anchor="middle" x="611.7266" y="-201.5" font-family="Helvetica,sans-Serif" font-size="10.00" fill="#000000">AttributeDefinitions.hxx</text>
</a>
</g>
</g>
<!-- Node1&#45;&gt;Node14 -->
<g id="edge14" class="edge">
<title>Node1&#45;&gt;Node14</title>
<path fill="none" stroke="#191970" d="M503.6705,-260.396C523.9243,-250.8561 550.8725,-238.1632 572.79,-227.8397"/>
<polygon fill="#191970" stroke="#191970" points="574.2858,-231.004 581.8411,-223.5765 571.3029,-224.6713 574.2858,-231.004"/>
</g>
<!-- Node15 -->
<g id="node16" class="node">
<title>Node15</title>
<g id="a_node16"><a xlink:href="_meeting_session_parameters_8hxx.html" target="_top" xlink:title=" ">
<polygon fill="none" stroke="#000000" points="695.1899,-195.5 695.1899,-223.5 846.2632,-223.5 846.2632,-195.5 695.1899,-195.5"/>
<text text-anchor="start" x="703.1899" y="-211.5" font-family="Helvetica,sans-Serif" font-size="10.00" fill="#000000">MeetingClient/MeetingSession</text>
<text text-anchor="middle" x="770.7266" y="-201.5" font-family="Helvetica,sans-Serif" font-size="10.00" fill="#000000">Parameters.hxx</text>
</a>
</g>
</g>
<!-- Node1&#45;&gt;Node15 -->
<g id="edge15" class="edge">
<title>Node1&#45;&gt;Node15</title>
<path fill="none" stroke="#191970" d="M536.3497,-260.7946C583.1601,-250.5499 647.3162,-236.509 696.6722,-225.7072"/>
<polygon fill="#191970" stroke="#191970" points="697.6314,-229.0802 706.6519,-223.5231 696.1348,-222.242 697.6314,-229.0802"/>
</g>
<!-- Node9 -->
<g id="node10" class="node">
<title>Node9</title>
<g id="a_node10"><a xlink:href="_common_data_types_8hxx.html" target="_top" xlink:title=" ">
<polygon fill="none" stroke="#000000" points="720.9805,-65.5 720.9805,-93.5 846.4727,-93.5 846.4727,-65.5 720.9805,-65.5"/>
<text text-anchor="start" x="728.9805" y="-81.5" font-family="Helvetica,sans-Serif" font-size="10.00" fill="#000000">MeetingClient/types</text>
<text text-anchor="middle" x="783.7266" y="-71.5" font-family="Helvetica,sans-Serif" font-size="10.00" fill="#000000">/CommonDataTypes.hxx</text>
</a>
</g>
</g>
<!-- Node8&#45;&gt;Node9 -->
<g id="edge9" class="edge">
<title>Node8&#45;&gt;Node9</title>
<path fill="none" stroke="#191970" d="M639.6518,-130.396C667.3803,-120.6006 704.5191,-107.4809 734.1447,-97.0153"/>
<polygon fill="#191970" stroke="#191970" points="735.6161,-100.2076 743.8792,-93.5765 733.2844,-93.6073 735.6161,-100.2076"/>
</g>
<!-- Node12 -->
<g id="node13" class="node">
<title>Node12</title>
<g id="a_node13"><a xlink:href="strong__identity_8hxx.html" target="_top" xlink:title=" ">
<polygon fill="none" stroke="#000000" points="549.0166,-65.5 549.0166,-93.5 650.4365,-93.5 650.4365,-65.5 549.0166,-65.5"/>
<text text-anchor="start" x="557.0166" y="-81.5" font-family="Helvetica,sans-Serif" font-size="10.00" fill="#000000">MeetingClient/utils</text>
<text text-anchor="middle" x="599.7266" y="-71.5" font-family="Helvetica,sans-Serif" font-size="10.00" fill="#000000">/strong_identity.hxx</text>
</a>
</g>
</g>
<!-- Node8&#45;&gt;Node12 -->
<g id="edge12" class="edge">
<title>Node8&#45;&gt;Node12</title>
<path fill="none" stroke="#191970" d="M599.7266,-130.396C599.7266,-122.6448 599.7266,-112.8122 599.7266,-103.8601"/>
<polygon fill="#191970" stroke="#191970" points="603.2267,-103.5765 599.7266,-93.5765 596.2267,-103.5765 603.2267,-103.5765"/>
</g>
<!-- Node9&#45;&gt;Node10 -->
<g id="edge10" class="edge">
<title>Node9&#45;&gt;Node10</title>
<path fill="none" stroke="#191970" d="M826.0387,-65.396C863.0907,-53.0453 915.9977,-35.4096 948.808,-24.4728"/>
<polygon fill="#191970" stroke="#191970" points="949.9255,-27.7897 958.3055,-21.307 947.7119,-21.149 949.9255,-27.7897"/>
</g>
<!-- Node11 -->
<g id="node12" class="node">
<title>Node11</title>
<g id="a_node12"><a xlink:title=" ">
<polygon fill="none" stroke="#bfbfbf" points="732.9312,-5.5 732.9312,-23.5 834.522,-23.5 834.522,-5.5 732.9312,-5.5"/>
<text text-anchor="middle" x="783.7266" y="-11.5" font-family="Helvetica,sans-Serif" font-size="10.00" fill="#000000">CommonTypes.hxx</text>
</a>
</g>
</g>
<!-- Node9&#45;&gt;Node11 -->
<g id="edge11" class="edge">
<title>Node9&#45;&gt;Node11</title>
<path fill="none" stroke="#191970" d="M783.7266,-65.396C783.7266,-56.1723 783.7266,-44.0011 783.7266,-33.8738"/>
<polygon fill="#191970" stroke="#191970" points="787.2267,-33.5743 783.7266,-23.5743 780.2267,-33.5743 787.2267,-33.5743"/>
</g>
<!-- Node13 -->
<g id="node14" class="node">
<title>Node13</title>
<g id="a_node14"><a xlink:title=" ">
<polygon fill="none" stroke="#bfbfbf" points="547.5273,-.5 547.5273,-28.5 651.9258,-28.5 651.9258,-.5 547.5273,-.5"/>
<text text-anchor="start" x="555.5273" y="-16.5" font-family="Helvetica,sans-Serif" font-size="10.00" fill="#000000">boost/serialization</text>
<text text-anchor="middle" x="599.7266" y="-6.5" font-family="Helvetica,sans-Serif" font-size="10.00" fill="#000000">/strong_typedef.hpp</text>
</a>
</g>
</g>
<!-- Node12&#45;&gt;Node13 -->
<g id="edge13" class="edge">
<title>Node12&#45;&gt;Node13</title>
<path fill="none" stroke="#191970" d="M599.7266,-65.396C599.7266,-57.6448 599.7266,-47.8122 599.7266,-38.8601"/>
<polygon fill="#191970" stroke="#191970" points="603.2267,-38.5765 599.7266,-28.5765 596.2267,-38.5765 603.2267,-38.5765"/>
</g>
<!-- Node15&#45;&gt;Node8 -->
<g id="edge16" class="edge">
<title>Node15&#45;&gt;Node8</title>
<path fill="none" stroke="#191970" d="M733.6221,-195.396C707.9648,-185.6432 673.6379,-172.5949 646.1648,-162.152"/>
<polygon fill="#191970" stroke="#191970" points="647.3497,-158.8581 636.7586,-158.5765 644.8625,-165.4013 647.3497,-158.8581"/>
</g>
<!-- Node16 -->
<g id="node17" class="node">
<title>Node16</title>
<g id="a_node17"><a xlink:title=" ">
<polygon fill="none" stroke="#bfbfbf" points="768.1626,-135.5 768.1626,-153.5 825.2905,-153.5 825.2905,-135.5 768.1626,-135.5"/>
<text text-anchor="middle" x="796.7266" y="-141.5" font-family="Helvetica,sans-Serif" font-size="10.00" fill="#000000">algorithm</text>
</a>
</g>
</g>
<!-- Node15&#45;&gt;Node16 -->
<g id="edge17" class="edge">
<title>Node15&#45;&gt;Node16</title>
<path fill="none" stroke="#191970" d="M776.3682,-195.396C780.1766,-185.8748 785.2414,-173.2128 789.3664,-162.9003"/>
<polygon fill="#191970" stroke="#191970" points="792.6325,-164.159 793.0968,-153.5743 786.1332,-161.5592 792.6325,-164.159"/>
</g>
<!-- Node17 -->
<g id="node18" class="node">
<title>Node17</title>
<g id="a_node18"><a xlink:title=" ">
<polygon fill="none" stroke="#bfbfbf" points="842.8228,-135.5 842.8228,-153.5 916.6304,-153.5 916.6304,-135.5 842.8228,-135.5"/>
<text text-anchor="middle" x="879.7266" y="-141.5" font-family="Helvetica,sans-Serif" font-size="10.00" fill="#000000">Printable.hxx</text>
</a>
</g>
</g>
<!-- Node15&#45;&gt;Node17 -->
<g id="edge18" class="edge">
<title>Node15&#45;&gt;Node17</title>
<path fill="none" stroke="#191970" d="M794.3779,-195.396C812.5895,-184.5359 837.6533,-169.5895 855.9069,-158.7044"/>
<polygon fill="#191970" stroke="#191970" points="857.7135,-161.7022 864.5096,-153.5743 854.1282,-155.69 857.7135,-161.7022"/>
</g>
<!-- Node18 -->
<g id="node19" class="node">
<title>Node18</title>
<g id="a_node19"><a xlink:title=" ">
<polygon fill="none" stroke="#bfbfbf" points="669.207,-135.5 669.207,-153.5 750.2461,-153.5 750.2461,-135.5 669.207,-135.5"/>
<text text-anchor="middle" x="709.7266" y="-141.5" font-family="Helvetica,sans-Serif" font-size="10.00" fill="#000000">VoIPClient.hxx</text>
</a>
</g>
</g>
<!-- Node15&#45;&gt;Node18 -->
<g id="edge19" class="edge">
<title>Node15&#45;&gt;Node18</title>
<path fill="none" stroke="#191970" d="M757.4905,-195.396C747.9968,-185.2797 735.1756,-171.6178 725.207,-160.9956"/>
<polygon fill="#191970" stroke="#191970" points="727.6378,-158.4711 718.2425,-153.5743 722.5335,-163.2613 727.6378,-158.4711"/>
</g>
</g>
</svg>
