<?xml version="1.0" encoding="UTF-8" standalone="no"?>
<!DOCTYPE svg PUBLIC "-//W3C//DTD SVG 1.1//EN"
 "http://www.w3.org/Graphics/SVG/1.1/DTD/svg11.dtd">
<!-- Generated by graphviz version 2.40.1 (20161225.0304)
 -->
<!-- Title: /Users/oskryp/Projects/freesee&#45;native&#45;client/libs/fcc_sdk/engine/meetingclient/include/MeetingClient/Delegates/IScreenSharingNotificationsDelegate.hxx Pages: 1 -->
<!--zoomable 392 -->
<svg id="main" version="1.1" xmlns="http://www.w3.org/2000/svg" xmlns:xlink="http://www.w3.org/1999/xlink" xml:space="preserve" onload="init(evt)">
<style type="text/css"><![CDATA[
.edge:hover path { stroke: red; }
.edge:hover polygon { stroke: red; fill: red; }
]]></style>
<script type="text/javascript"><![CDATA[
var edges = document.getElementsByTagName('g');
if (edges && edges.length) {
  for (var i=0;i<edges.length;i++) {
    if (edges[i].id.substr(0,4)=='edge') {
      edges[i].setAttribute('class','edge');
    }
  }
}
]]></script>
        <defs>
                <circle id="rim" cx="0" cy="0" r="7"/>
                <circle id="rim2" cx="0" cy="0" r="3.5"/>
                <g id="zoomPlus">
                        <use xlink:href="#rim" fill="#404040">
                                <set attributeName="fill" to="#808080" begin="zoomplus.mouseover" end="zoomplus.mouseout"/>
                        </use>
                        <path d="M-4,0h8M0,-4v8" fill="none" stroke="white" stroke-width="1.5" pointer-events="none"/>
                </g>
                <g id="zoomMin">
                        <use xlink:href="#rim" fill="#404040">
                                <set attributeName="fill" to="#808080" begin="zoomminus.mouseover" end="zoomminus.mouseout"/>
                        </use>
                        <path d="M-4,0h8" fill="none" stroke="white" stroke-width="1.5" pointer-events="none"/>
                </g>
                <g id="dirArrow">
                        <path fill="none" stroke="white" stroke-width="1.5" d="M0,-3.0v7 M-2.5,-0.5L0,-3.0L2.5,-0.5"/>
                </g>
               <g id="resetDef">
                       <use xlink:href="#rim2" fill="#404040">
                               <set attributeName="fill" to="#808080" begin="reset.mouseover" end="reset.mouseout"/>
                       </use>
               </g>
        </defs>

<script type="text/javascript">
var viewWidth = 1074;
var viewHeight = 392;
var sectionId = 'dynsection-0';
</script>
<script xlink:href="svgpan.js"/>
<svg id="graph" class="graph">
<g id="viewport">
<title>/Users/oskryp/Projects/freesee&#45;native&#45;client/libs/fcc_sdk/engine/meetingclient/include/MeetingClient/Delegates/IScreenSharingNotificationsDelegate.hxx</title>
<!-- Node0 -->
<g id="node1" class="node">
<title>Node0</title>
<g id="a_node1"><a xlink:title=" ">
<polygon fill="#bfbfbf" stroke="#000000" points="58.7271,-325.5 58.7271,-383.5 259.2729,-383.5 259.2729,-325.5 58.7271,-325.5"/>
<text text-anchor="start" x="66.7271" y="-371.5" font-family="Helvetica,sans-Serif" font-size="10.00" fill="#000000">/Users/oskryp/Projects</text>
<text text-anchor="start" x="66.7271" y="-361.5" font-family="Helvetica,sans-Serif" font-size="10.00" fill="#000000">/freesee&#45;native&#45;client</text>
<text text-anchor="start" x="66.7271" y="-351.5" font-family="Helvetica,sans-Serif" font-size="10.00" fill="#000000">/libs/fcc_sdk/engine/meetingclient</text>
<text text-anchor="start" x="66.7271" y="-341.5" font-family="Helvetica,sans-Serif" font-size="10.00" fill="#000000">/include/MeetingClient/Delegates</text>
<text text-anchor="middle" x="159" y="-331.5" font-family="Helvetica,sans-Serif" font-size="10.00" fill="#000000">/IScreenSharingNotificationsDelegate.hxx</text>
</a>
</g>
</g>
<!-- Node1 -->
<g id="node2" class="node">
<title>Node1</title>
<g id="a_node2"><a xlink:title=" ">
<polygon fill="none" stroke="#bfbfbf" points="94.7734,-5.5 94.7734,-23.5 135.2266,-23.5 135.2266,-5.5 94.7734,-5.5"/>
<text text-anchor="middle" x="115" y="-11.5" font-family="Helvetica,sans-Serif" font-size="10.00" fill="#000000">string</text>
</a>
</g>
</g>
<!-- Node0&#45;&gt;Node1 -->
<g id="edge1" class="edge">
<title>Node0&#45;&gt;Node1</title>
<path fill="none" stroke="#191970" d="M92.491,-325.407C48.9208,-301.3609 0,-262.5499 0,-209.5 0,-209.5 0,-209.5 0,-144.5 0,-91.3413 54.6115,-49.713 88.5671,-28.9677"/>
<polygon fill="#191970" stroke="#191970" points="90.6993,-31.7735 97.534,-23.678 87.1426,-25.7444 90.6993,-31.7735"/>
</g>
<!-- Node2 -->
<g id="node3" class="node">
<title>Node2</title>
<g id="a_node3"><a xlink:href="_notifications_8hxx.html" target="_top" xlink:title=" ">
<polygon fill="none" stroke="#000000" points="319.5249,-260.5 319.5249,-288.5 444.4751,-288.5 444.4751,-260.5 319.5249,-260.5"/>
<text text-anchor="start" x="327.5249" y="-276.5" font-family="Helvetica,sans-Serif" font-size="10.00" fill="#000000">MeetingClient/Delegates</text>
<text text-anchor="middle" x="382" y="-266.5" font-family="Helvetica,sans-Serif" font-size="10.00" fill="#000000">/Notifications.hxx</text>
</a>
</g>
</g>
<!-- Node0&#45;&gt;Node2 -->
<g id="edge2" class="edge">
<title>Node0&#45;&gt;Node2</title>
<path fill="none" stroke="#191970" d="M240.1389,-325.3919C271.3054,-314.2111 305.8978,-301.8012 333.1204,-292.0353"/>
<polygon fill="#191970" stroke="#191970" points="334.5656,-295.2353 342.7963,-288.5641 332.2018,-288.6465 334.5656,-295.2353"/>
</g>
<!-- Node3 -->
<g id="node4" class="node">
<title>Node3</title>
<g id="a_node4"><a xlink:title=" ">
<polygon fill="none" stroke="#bfbfbf" points="28.3599,-195.5 28.3599,-223.5 141.6401,-223.5 141.6401,-195.5 28.3599,-195.5"/>
<text text-anchor="start" x="36.3599" y="-211.5" font-family="Helvetica,sans-Serif" font-size="10.00" fill="#000000">boost/date_time/posix</text>
<text text-anchor="middle" x="85" y="-201.5" font-family="Helvetica,sans-Serif" font-size="10.00" fill="#000000">_time/posix_time.hpp</text>
</a>
</g>
</g>
<!-- Node2&#45;&gt;Node3 -->
<g id="edge3" class="edge">
<title>Node2&#45;&gt;Node3</title>
<path fill="none" stroke="#191970" d="M319.454,-260.9768C275.1218,-251.3706 213.9561,-238.0745 151.7129,-224.3723"/>
<polygon fill="#191970" stroke="#191970" points="152.2353,-220.9035 141.7165,-222.1702 150.7293,-227.7396 152.2353,-220.9035"/>
</g>
<!-- Node4 -->
<g id="node5" class="node">
<title>Node4</title>
<g id="a_node5"><a xlink:title=" ">
<polygon fill="none" stroke="#bfbfbf" points="159.2734,-200.5 159.2734,-218.5 194.7266,-218.5 194.7266,-200.5 159.2734,-200.5"/>
<text text-anchor="middle" x="177" y="-206.5" font-family="Helvetica,sans-Serif" font-size="10.00" fill="#000000">map</text>
</a>
</g>
</g>
<!-- Node2&#45;&gt;Node4 -->
<g id="edge4" class="edge">
<title>Node2&#45;&gt;Node4</title>
<path fill="none" stroke="#191970" d="M319.4914,-260.6784C284.5509,-252.0139 240.6009,-239.5376 203,-224 202.3014,-223.7113 201.5978,-223.4083 200.892,-223.0935"/>
<polygon fill="#191970" stroke="#191970" points="202.3341,-219.9014 191.826,-218.549 199.1972,-226.1592 202.3341,-219.9014"/>
</g>
<!-- Node5 -->
<g id="node6" class="node">
<title>Node5</title>
<g id="a_node6"><a xlink:title=" ">
<polygon fill="none" stroke="#bfbfbf" points="212.3843,-200.5 212.3843,-218.5 255.6157,-218.5 255.6157,-200.5 212.3843,-200.5"/>
<text text-anchor="middle" x="234" y="-206.5" font-family="Helvetica,sans-Serif" font-size="10.00" fill="#000000">vector</text>
</a>
</g>
</g>
<!-- Node2&#45;&gt;Node5 -->
<g id="edge5" class="edge">
<title>Node2&#45;&gt;Node5</title>
<path fill="none" stroke="#191970" d="M347.9948,-260.4332C324.3218,-250.522 292.0875,-236.7899 264,-224 263.1708,-223.6224 262.3301,-223.2364 261.4824,-222.8445"/>
<polygon fill="#191970" stroke="#191970" points="262.8783,-219.633 252.3411,-218.5292 259.89,-225.9632 262.8783,-219.633"/>
</g>
<!-- Node6 -->
<g id="node7" class="node">
<title>Node6</title>
<g id="a_node7"><a xlink:title=" ">
<polygon fill="none" stroke="#bfbfbf" points="273.313,-200.5 273.313,-218.5 362.687,-218.5 362.687,-200.5 273.313,-200.5"/>
<text text-anchor="middle" x="318" y="-206.5" font-family="Helvetica,sans-Serif" font-size="10.00" fill="#000000">FSSnapshot.hxx</text>
</a>
</g>
</g>
<!-- Node2&#45;&gt;Node6 -->
<g id="edge6" class="edge">
<title>Node2&#45;&gt;Node6</title>
<path fill="none" stroke="#191970" d="M368.113,-260.396C358.1523,-250.2797 344.7006,-236.6178 334.2418,-225.9956"/>
<polygon fill="#191970" stroke="#191970" points="336.4448,-223.2444 326.9347,-218.5743 331.4568,-228.1556 336.4448,-223.2444"/>
</g>
<!-- Node7 -->
<g id="node8" class="node">
<title>Node7</title>
<g id="a_node8"><a xlink:href="macros_8hxx.html" target="_top" xlink:title=" ">
<polygon fill="none" stroke="#000000" points="380.478,-200.5 380.478,-218.5 511.522,-218.5 511.522,-200.5 380.478,-200.5"/>
<text text-anchor="middle" x="446" y="-206.5" font-family="Helvetica,sans-Serif" font-size="10.00" fill="#000000">MeetingClient/macros.hxx</text>
</a>
</g>
</g>
<!-- Node2&#45;&gt;Node7 -->
<g id="edge7" class="edge">
<title>Node2&#45;&gt;Node7</title>
<path fill="none" stroke="#191970" d="M395.887,-260.396C405.8477,-250.2797 419.2994,-236.6178 429.7582,-225.9956"/>
<polygon fill="#191970" stroke="#191970" points="432.5432,-228.1556 437.0653,-218.5743 427.5552,-223.2444 432.5432,-228.1556"/>
</g>
<!-- Node8 -->
<g id="node9" class="node">
<title>Node8</title>
<g id="a_node9"><a xlink:href="_f_s_base_8hxx.html" target="_top" xlink:title=" ">
<polygon fill="none" stroke="#000000" points="529.3081,-195.5 529.3081,-223.5 648.6919,-223.5 648.6919,-195.5 529.3081,-195.5"/>
<text text-anchor="start" x="537.3081" y="-211.5" font-family="Helvetica,sans-Serif" font-size="10.00" fill="#000000">MeetingClient/transport</text>
<text text-anchor="middle" x="589" y="-201.5" font-family="Helvetica,sans-Serif" font-size="10.00" fill="#000000">/FSBase.hxx</text>
</a>
</g>
</g>
<!-- Node2&#45;&gt;Node8 -->
<g id="edge8" class="edge">
<title>Node2&#45;&gt;Node8</title>
<path fill="none" stroke="#191970" d="M426.6611,-260.476C458.2479,-250.5574 500.7831,-237.201 534.39,-226.6481"/>
<polygon fill="#191970" stroke="#191970" points="535.57,-229.9461 544.0622,-223.6109 533.4729,-223.2676 535.57,-229.9461"/>
</g>
<!-- Node9 -->
<g id="node10" class="node">
<title>Node9</title>
<g id="a_node10"><a xlink:href="_meeting_types_8hxx.html" target="_top" xlink:title=" ">
<polygon fill="none" stroke="#000000" points="625.0889,-130.5 625.0889,-158.5 728.9111,-158.5 728.9111,-130.5 625.0889,-130.5"/>
<text text-anchor="start" x="633.0889" y="-146.5" font-family="Helvetica,sans-Serif" font-size="10.00" fill="#000000">MeetingClient/types</text>
<text text-anchor="middle" x="677" y="-136.5" font-family="Helvetica,sans-Serif" font-size="10.00" fill="#000000">/MeetingTypes.hxx</text>
</a>
</g>
</g>
<!-- Node2&#45;&gt;Node9 -->
<g id="edge9" class="edge">
<title>Node2&#45;&gt;Node9</title>
<path fill="none" stroke="#191970" d="M444.658,-270.8507C516.4271,-265.3681 627.9918,-252.4407 658,-224 672.8414,-209.9339 676.9949,-186.5154 677.7902,-168.7292"/>
<polygon fill="#191970" stroke="#191970" points="681.2925,-168.5593 677.9169,-158.5166 674.293,-168.4724 681.2925,-168.5593"/>
</g>
<!-- Node14 -->
<g id="node15" class="node">
<title>Node14</title>
<g id="a_node15"><a xlink:href="_conference_attribute_definitions_8hxx.html" target="_top" xlink:title=" ">
<polygon fill="none" stroke="#000000" points="705.1899,-195.5 705.1899,-223.5 836.8101,-223.5 836.8101,-195.5 705.1899,-195.5"/>
<text text-anchor="start" x="713.1899" y="-211.5" font-family="Helvetica,sans-Serif" font-size="10.00" fill="#000000">MeetingClient/Conference</text>
<text text-anchor="middle" x="771" y="-201.5" font-family="Helvetica,sans-Serif" font-size="10.00" fill="#000000">AttributeDefinitions.hxx</text>
</a>
</g>
</g>
<!-- Node2&#45;&gt;Node14 -->
<g id="edge15" class="edge">
<title>Node2&#45;&gt;Node14</title>
<path fill="none" stroke="#191970" d="M444.4911,-264.6122C506.9457,-254.6537 605.693,-238.7007 691,-224 692.291,-223.7775 693.5936,-223.5521 694.9052,-223.3243"/>
<polygon fill="#191970" stroke="#191970" points="695.8492,-226.7123 705.0948,-221.5386 694.6408,-219.8174 695.8492,-226.7123"/>
</g>
<!-- Node15 -->
<g id="node16" class="node">
<title>Node15</title>
<g id="a_node16"><a xlink:href="_meeting_session_parameters_8hxx.html" target="_top" xlink:title=" ">
<polygon fill="none" stroke="#000000" points="854.4634,-195.5 854.4634,-223.5 1005.5366,-223.5 1005.5366,-195.5 854.4634,-195.5"/>
<text text-anchor="start" x="862.4634" y="-211.5" font-family="Helvetica,sans-Serif" font-size="10.00" fill="#000000">MeetingClient/MeetingSession</text>
<text text-anchor="middle" x="930" y="-201.5" font-family="Helvetica,sans-Serif" font-size="10.00" fill="#000000">Parameters.hxx</text>
</a>
</g>
</g>
<!-- Node2&#45;&gt;Node15 -->
<g id="edge16" class="edge">
<title>Node2&#45;&gt;Node15</title>
<path fill="none" stroke="#191970" d="M444.8213,-268.9195C532.157,-260.8823 695.4254,-244.8494 843.8228,-224.2599"/>
<polygon fill="#191970" stroke="#191970" points="844.6082,-227.6842 854.0274,-222.8334 843.6391,-220.7516 844.6082,-227.6842"/>
</g>
<!-- Node10 -->
<g id="node11" class="node">
<title>Node10</title>
<g id="a_node11"><a xlink:href="_common_data_types_8hxx.html" target="_top" xlink:title=" ">
<polygon fill="none" stroke="#000000" points="256.2539,-65.5 256.2539,-93.5 381.7461,-93.5 381.7461,-65.5 256.2539,-65.5"/>
<text text-anchor="start" x="264.2539" y="-81.5" font-family="Helvetica,sans-Serif" font-size="10.00" fill="#000000">MeetingClient/types</text>
<text text-anchor="middle" x="319" y="-71.5" font-family="Helvetica,sans-Serif" font-size="10.00" fill="#000000">/CommonDataTypes.hxx</text>
</a>
</g>
</g>
<!-- Node9&#45;&gt;Node10 -->
<g id="edge10" class="edge">
<title>Node9&#45;&gt;Node10</title>
<path fill="none" stroke="#191970" d="M624.9437,-135.0484C563.5781,-123.9066 461.2024,-105.3189 391.9487,-92.7449"/>
<polygon fill="#191970" stroke="#191970" points="392.4445,-89.2778 381.9801,-90.9349 391.194,-96.1652 392.4445,-89.2778"/>
</g>
<!-- Node12 -->
<g id="node13" class="node">
<title>Node12</title>
<g id="a_node13"><a xlink:href="strong__identity_8hxx.html" target="_top" xlink:title=" ">
<polygon fill="none" stroke="#000000" points="626.29,-65.5 626.29,-93.5 727.71,-93.5 727.71,-65.5 626.29,-65.5"/>
<text text-anchor="start" x="634.29" y="-81.5" font-family="Helvetica,sans-Serif" font-size="10.00" fill="#000000">MeetingClient/utils</text>
<text text-anchor="middle" x="677" y="-71.5" font-family="Helvetica,sans-Serif" font-size="10.00" fill="#000000">/strong_identity.hxx</text>
</a>
</g>
</g>
<!-- Node9&#45;&gt;Node12 -->
<g id="edge13" class="edge">
<title>Node9&#45;&gt;Node12</title>
<path fill="none" stroke="#191970" d="M677,-130.396C677,-122.6448 677,-112.8122 677,-103.8601"/>
<polygon fill="#191970" stroke="#191970" points="680.5001,-103.5765 677,-93.5765 673.5001,-103.5765 680.5001,-103.5765"/>
</g>
<!-- Node10&#45;&gt;Node1 -->
<g id="edge11" class="edge">
<title>Node10&#45;&gt;Node1</title>
<path fill="none" stroke="#191970" d="M274.9862,-65.476C235.8173,-52.9957 179.5655,-35.0723 145.2548,-24.14"/>
<polygon fill="#191970" stroke="#191970" points="145.9448,-20.6866 135.3542,-20.9854 143.8196,-27.3562 145.9448,-20.6866"/>
</g>
<!-- Node11 -->
<g id="node12" class="node">
<title>Node11</title>
<g id="a_node12"><a xlink:title=" ">
<polygon fill="none" stroke="#bfbfbf" points="268.2046,-5.5 268.2046,-23.5 369.7954,-23.5 369.7954,-5.5 268.2046,-5.5"/>
<text text-anchor="middle" x="319" y="-11.5" font-family="Helvetica,sans-Serif" font-size="10.00" fill="#000000">CommonTypes.hxx</text>
</a>
</g>
</g>
<!-- Node10&#45;&gt;Node11 -->
<g id="edge12" class="edge">
<title>Node10&#45;&gt;Node11</title>
<path fill="none" stroke="#191970" d="M319,-65.396C319,-56.1723 319,-44.0011 319,-33.8738"/>
<polygon fill="#191970" stroke="#191970" points="322.5001,-33.5743 319,-23.5743 315.5001,-33.5743 322.5001,-33.5743"/>
</g>
<!-- Node13 -->
<g id="node14" class="node">
<title>Node13</title>
<g id="a_node14"><a xlink:title=" ">
<polygon fill="none" stroke="#bfbfbf" points="624.8008,-.5 624.8008,-28.5 729.1992,-28.5 729.1992,-.5 624.8008,-.5"/>
<text text-anchor="start" x="632.8008" y="-16.5" font-family="Helvetica,sans-Serif" font-size="10.00" fill="#000000">boost/serialization</text>
<text text-anchor="middle" x="677" y="-6.5" font-family="Helvetica,sans-Serif" font-size="10.00" fill="#000000">/strong_typedef.hpp</text>
</a>
</g>
</g>
<!-- Node12&#45;&gt;Node13 -->
<g id="edge14" class="edge">
<title>Node12&#45;&gt;Node13</title>
<path fill="none" stroke="#191970" d="M677,-65.396C677,-57.6448 677,-47.8122 677,-38.8601"/>
<polygon fill="#191970" stroke="#191970" points="680.5001,-38.5765 677,-28.5765 673.5001,-38.5765 680.5001,-38.5765"/>
</g>
<!-- Node15&#45;&gt;Node9 -->
<g id="edge17" class="edge">
<title>Node15&#45;&gt;Node9</title>
<path fill="none" stroke="#191970" d="M875.4143,-195.476C835.3385,-185.1798 780.8431,-171.1791 739.1034,-160.4554"/>
<polygon fill="#191970" stroke="#191970" points="739.881,-157.0416 729.3246,-157.9431 738.1391,-163.8214 739.881,-157.0416"/>
</g>
<!-- Node16 -->
<g id="node17" class="node">
<title>Node16</title>
<g id="a_node17"><a xlink:title=" ">
<polygon fill="none" stroke="#bfbfbf" points="818.436,-135.5 818.436,-153.5 875.564,-153.5 875.564,-135.5 818.436,-135.5"/>
<text text-anchor="middle" x="847" y="-141.5" font-family="Helvetica,sans-Serif" font-size="10.00" fill="#000000">algorithm</text>
</a>
</g>
</g>
<!-- Node15&#45;&gt;Node16 -->
<g id="edge18" class="edge">
<title>Node15&#45;&gt;Node16</title>
<path fill="none" stroke="#191970" d="M911.9902,-195.396C898.566,-184.883 880.2521,-170.5408 866.4863,-159.7603"/>
<polygon fill="#191970" stroke="#191970" points="868.6182,-156.9844 858.5872,-153.5743 864.3023,-162.4956 868.6182,-156.9844"/>
</g>
<!-- Node17 -->
<g id="node18" class="node">
<title>Node17</title>
<g id="a_node18"><a xlink:title=" ">
<polygon fill="none" stroke="#bfbfbf" points="893.0962,-135.5 893.0962,-153.5 966.9038,-153.5 966.9038,-135.5 893.0962,-135.5"/>
<text text-anchor="middle" x="930" y="-141.5" font-family="Helvetica,sans-Serif" font-size="10.00" fill="#000000">Printable.hxx</text>
</a>
</g>
</g>
<!-- Node15&#45;&gt;Node17 -->
<g id="edge19" class="edge">
<title>Node15&#45;&gt;Node17</title>
<path fill="none" stroke="#191970" d="M930,-195.396C930,-186.1723 930,-174.0011 930,-163.8738"/>
<polygon fill="#191970" stroke="#191970" points="933.5001,-163.5743 930,-153.5743 926.5001,-163.5743 933.5001,-163.5743"/>
</g>
<!-- Node18 -->
<g id="node19" class="node">
<title>Node18</title>
<g id="a_node19"><a xlink:title=" ">
<polygon fill="none" stroke="#bfbfbf" points="984.4805,-135.5 984.4805,-153.5 1065.5195,-153.5 1065.5195,-135.5 984.4805,-135.5"/>
<text text-anchor="middle" x="1025" y="-141.5" font-family="Helvetica,sans-Serif" font-size="10.00" fill="#000000">VoIPClient.hxx</text>
</a>
</g>
</g>
<!-- Node15&#45;&gt;Node18 -->
<g id="edge20" class="edge">
<title>Node15&#45;&gt;Node18</title>
<path fill="none" stroke="#191970" d="M950.6136,-195.396C966.1236,-184.7838 987.3363,-170.2699 1003.141,-159.4562"/>
<polygon fill="#191970" stroke="#191970" points="1005.4609,-162.1098 1011.7376,-153.5743 1001.5081,-156.3326 1005.4609,-162.1098"/>
</g>
</g>
</svg>
        <g id="navigator" transform="translate(0 0)" fill="#404254">
                <rect fill="#f2f5e9" fill-opacity="0.5" stroke="#606060" stroke-width=".5" x="0" y="0" width="60" height="60"/>
                <use id="zoomplus" xlink:href="#zoomPlus" x="17" y="9" onmousedown="handleZoom(evt,'in')"/>
                <use id="zoomminus" xlink:href="#zoomMin" x="42" y="9" onmousedown="handleZoom(evt,'out')"/>
                <use id="reset" xlink:href="#resetDef" x="30" y="36" onmousedown="handleReset()"/>
                <g id="arrowUp" xlink:href="#dirArrow" transform="translate(30 24)" onmousedown="handlePan(0,-1)">
                  <use xlink:href="#rim" fill="#404040">
                        <set attributeName="fill" to="#808080" begin="arrowUp.mouseover" end="arrowUp.mouseout"/>
                  </use>
                  <path fill="none" stroke="white" stroke-width="1.5" d="M0,-3.0v7 M-2.5,-0.5L0,-3.0L2.5,-0.5"/>
                </g>
                <g id="arrowRight" xlink:href="#dirArrow" transform="rotate(90) translate(36 -43)" onmousedown="handlePan(1,0)">
                  <use xlink:href="#rim" fill="#404040">
                        <set attributeName="fill" to="#808080" begin="arrowRight.mouseover" end="arrowRight.mouseout"/>
                  </use>
                  <path fill="none" stroke="white" stroke-width="1.5" d="M0,-3.0v7 M-2.5,-0.5L0,-3.0L2.5,-0.5"/>
                </g>
                <g id="arrowDown" xlink:href="#dirArrow" transform="rotate(180) translate(-30 -48)" onmousedown="handlePan(0,1)">
                  <use xlink:href="#rim" fill="#404040">
                        <set attributeName="fill" to="#808080" begin="arrowDown.mouseover" end="arrowDown.mouseout"/>
                  </use>
                  <path fill="none" stroke="white" stroke-width="1.5" d="M0,-3.0v7 M-2.5,-0.5L0,-3.0L2.5,-0.5"/>
                </g>
                <g id="arrowLeft" xlink:href="#dirArrow" transform="rotate(270) translate(-36 17)" onmousedown="handlePan(-1,0)">
                  <use xlink:href="#rim" fill="#404040">
                        <set attributeName="fill" to="#808080" begin="arrowLeft.mouseover" end="arrowLeft.mouseout"/>
                  </use>
                  <path fill="none" stroke="white" stroke-width="1.5" d="M0,-3.0v7 M-2.5,-0.5L0,-3.0L2.5,-0.5"/>
                </g>
        </g>
        <svg viewBox="0 0 15 15" width="100%" height="30px" preserveAspectRatio="xMaxYMin meet">
         <g id="arrow_out" transform="scale(0.3 0.3)">
          <a xlink:href="_i_screen_sharing_notifications_delegate_8hxx__incl_org.svg" target="_base">
           <rect id="button" ry="5" rx="5" y="6" x="6" height="38" width="38"
                fill="#f2f5e9" fill-opacity="0.5" stroke="#606060" stroke-width="1.0"/>
           <path id="arrow"
             d="M 11.500037,31.436501 C 11.940474,20.09759 22.043105,11.32322 32.158766,21.979434 L 37.068811,17.246167 C 37.068811,17.246167 37.088388,32 37.088388,32 L 22.160133,31.978069 C 22.160133,31.978069 26.997745,27.140456 26.997745,27.140456 C 18.528582,18.264221 13.291696,25.230495 11.500037,31.436501 z"
             style="fill:#404040;"/>
          </a>
         </g>
        </svg>
</svg>
