<?xml version="1.0" encoding="UTF-8" standalone="no"?>
<!DOCTYPE svg PUBLIC "-//W3C//DTD SVG 1.1//EN"
 "http://www.w3.org/Graphics/SVG/1.1/DTD/svg11.dtd">
<!-- Generated by graphviz version 2.40.1 (20161225.0304)
 -->
<!-- Title: /Users/oskryp/Projects/freesee&#45;native&#45;client/libs/fcc_sdk/engine/meetingclient/src/Exceptions/InvalidExecutionTheadException.cxx Pages: 1 -->
<svg width="257pt" height="177pt"
 viewBox="0.00 0.00 257.45 177.00" xmlns="http://www.w3.org/2000/svg" xmlns:xlink="http://www.w3.org/1999/xlink">
<g id="graph0" class="graph" transform="scale(1 1) rotate(0) translate(4 173)">
<title>/Users/oskryp/Projects/freesee&#45;native&#45;client/libs/fcc_sdk/engine/meetingclient/src/Exceptions/InvalidExecutionTheadException.cxx</title>
<!-- Node0 -->
<g id="node1" class="node">
<title>Node0</title>
<g id="a_node1"><a xlink:title=" ">
<polygon fill="#bfbfbf" stroke="#000000" points="0,-120.5 0,-168.5 249.4521,-168.5 249.4521,-120.5 0,-120.5"/>
<text text-anchor="start" x="8" y="-156.5" font-family="Helvetica,sans-Serif" font-size="10.00" fill="#000000">/Users/oskryp/Projects</text>
<text text-anchor="start" x="8" y="-146.5" font-family="Helvetica,sans-Serif" font-size="10.00" fill="#000000">/freesee&#45;native&#45;client</text>
<text text-anchor="start" x="8" y="-136.5" font-family="Helvetica,sans-Serif" font-size="10.00" fill="#000000">/libs/fcc_sdk/engine/meetingclient</text>
<text text-anchor="middle" x="124.7261" y="-126.5" font-family="Helvetica,sans-Serif" font-size="10.00" fill="#000000">/src/Exceptions/InvalidExecutionTheadException.cxx</text>
</a>
</g>
</g>
<!-- Node1 -->
<g id="node2" class="node">
<title>Node1</title>
<g id="a_node2"><a xlink:href="_invalid_execution_thead_exception_8hxx.html" target="_top" xlink:title=" ">
<polygon fill="none" stroke="#000000" points="54.4678,-55.5 54.4678,-83.5 194.9844,-83.5 194.9844,-55.5 54.4678,-55.5"/>
<text text-anchor="start" x="62.4678" y="-71.5" font-family="Helvetica,sans-Serif" font-size="10.00" fill="#000000">Exceptions/InvalidExecution</text>
<text text-anchor="middle" x="124.7261" y="-61.5" font-family="Helvetica,sans-Serif" font-size="10.00" fill="#000000">TheadException.hxx</text>
</a>
</g>
</g>
<!-- Node0&#45;&gt;Node1 -->
<g id="edge1" class="edge">
<title>Node0&#45;&gt;Node1</title>
<path fill="none" stroke="#191970" d="M124.7261,-120.3567C124.7261,-111.8057 124.7261,-102.1888 124.7261,-93.6382"/>
<polygon fill="#191970" stroke="#191970" points="128.2262,-93.5381 124.7261,-83.5382 121.2262,-93.5382 128.2262,-93.5381"/>
</g>
<!-- Node2 -->
<g id="node3" class="node">
<title>Node2</title>
<g id="a_node3"><a xlink:title=" ">
<polygon fill="none" stroke="#bfbfbf" points="95.3223,-.5 95.3223,-18.5 154.1299,-18.5 154.1299,-.5 95.3223,-.5"/>
<text text-anchor="middle" x="124.7261" y="-6.5" font-family="Helvetica,sans-Serif" font-size="10.00" fill="#000000">exception</text>
</a>
</g>
</g>
<!-- Node1&#45;&gt;Node2 -->
<g id="edge2" class="edge">
<title>Node1&#45;&gt;Node2</title>
<path fill="none" stroke="#191970" d="M124.7261,-55.2808C124.7261,-47.3776 124.7261,-37.4316 124.7261,-28.8308"/>
<polygon fill="#191970" stroke="#191970" points="128.2262,-28.5842 124.7261,-18.5842 121.2262,-28.5842 128.2262,-28.5842"/>
</g>
</g>
</svg>
