<?xml version="1.0" encoding="UTF-8" standalone="no"?>
<!DOCTYPE svg PUBLIC "-//W3C//DTD SVG 1.1//EN"
 "http://www.w3.org/Graphics/SVG/1.1/DTD/svg11.dtd">
<!-- Generated by graphviz version 2.40.1 (20161225.0304)
 -->
<!-- Title: /Users/oskryp/Projects/freesee&#45;native&#45;client/libs/fcc_sdk/engine/meetingclient/src/headers/MeetingClient/MeetingClientSession.hxx Pages: 1 -->
<svg width="1341pt" height="522pt"
 viewBox="0.00 0.00 1340.79 522.00" xmlns="http://www.w3.org/2000/svg" xmlns:xlink="http://www.w3.org/1999/xlink">
<g id="graph0" class="graph" transform="scale(1 1) rotate(0) translate(4 518)">
<title>/Users/oskryp/Projects/freesee&#45;native&#45;client/libs/fcc_sdk/engine/meetingclient/src/headers/MeetingClient/MeetingClientSession.hxx</title>
<!-- Node57 -->
<g id="node1" class="node">
<title>Node57</title>
<g id="a_node1"><a xlink:title=" ">
<polygon fill="#bfbfbf" stroke="#000000" points="518.0518,-455.5 518.0518,-513.5 716.918,-513.5 716.918,-455.5 518.0518,-455.5"/>
<text text-anchor="start" x="526.0518" y="-501.5" font-family="Helvetica,sans-Serif" font-size="10.00" fill="#000000">/Users/oskryp/Projects</text>
<text text-anchor="start" x="526.0518" y="-491.5" font-family="Helvetica,sans-Serif" font-size="10.00" fill="#000000">/freesee&#45;native&#45;client</text>
<text text-anchor="start" x="526.0518" y="-481.5" font-family="Helvetica,sans-Serif" font-size="10.00" fill="#000000">/libs/fcc_sdk/engine/meetingclient</text>
<text text-anchor="start" x="526.0518" y="-471.5" font-family="Helvetica,sans-Serif" font-size="10.00" fill="#000000">/src/headers/MeetingClient/MeetingClient</text>
<text text-anchor="middle" x="617.4849" y="-461.5" font-family="Helvetica,sans-Serif" font-size="10.00" fill="#000000">Session.hxx</text>
</a>
</g>
</g>
<!-- Node58 -->
<g id="node2" class="node">
<title>Node58</title>
<g id="a_node2"><a xlink:href="_meeting_lobby_8hxx.html" target="_top" xlink:title=" ">
<polygon fill="none" stroke="#000000" points="440.4106,-370.5 440.4106,-418.5 658.5591,-418.5 658.5591,-370.5 440.4106,-370.5"/>
<text text-anchor="start" x="448.4106" y="-406.5" font-family="Helvetica,sans-Serif" font-size="10.00" fill="#000000">/Users/oskryp/Projects</text>
<text text-anchor="start" x="448.4106" y="-396.5" font-family="Helvetica,sans-Serif" font-size="10.00" fill="#000000">/freesee&#45;native&#45;client</text>
<text text-anchor="start" x="448.4106" y="-386.5" font-family="Helvetica,sans-Serif" font-size="10.00" fill="#000000">/libs/fcc_sdk/engine/meetingclient</text>
<text text-anchor="middle" x="549.4849" y="-376.5" font-family="Helvetica,sans-Serif" font-size="10.00" fill="#000000">/src/headers/MeetingClient/MeetingLobby.hxx</text>
</a>
</g>
</g>
<!-- Node57&#45;&gt;Node58 -->
<g id="edge1" class="edge">
<title>Node57&#45;&gt;Node58</title>
<path fill="none" stroke="#191970" d="M589.009,-446.8114C581.8044,-437.2758 574.2597,-427.2902 567.716,-418.6294"/>
<polygon fill="#191970" stroke="#191970" points="586.3982,-449.1619 595.2191,-455.0306 591.9833,-444.942 586.3982,-449.1619"/>
</g>
<!-- Node59 -->
<g id="node3" class="node">
<title>Node59</title>
<g id="a_node3"><a xlink:href="_meeting_lobby_impl_8hxx.html" target="_top" xlink:title=" ">
<polygon fill="none" stroke="#000000" points="312.2119,-275.5 312.2119,-333.5 512.7578,-333.5 512.7578,-275.5 312.2119,-275.5"/>
<text text-anchor="start" x="320.2119" y="-321.5" font-family="Helvetica,sans-Serif" font-size="10.00" fill="#000000">/Users/oskryp/Projects</text>
<text text-anchor="start" x="320.2119" y="-311.5" font-family="Helvetica,sans-Serif" font-size="10.00" fill="#000000">/freesee&#45;native&#45;client</text>
<text text-anchor="start" x="320.2119" y="-301.5" font-family="Helvetica,sans-Serif" font-size="10.00" fill="#000000">/libs/fcc_sdk/engine/meetingclient</text>
<text text-anchor="start" x="320.2119" y="-291.5" font-family="Helvetica,sans-Serif" font-size="10.00" fill="#000000">/src/headers/MeetingClient/MeetingLobby</text>
<text text-anchor="middle" x="412.4849" y="-281.5" font-family="Helvetica,sans-Serif" font-size="10.00" fill="#000000">Impl.hxx</text>
</a>
</g>
</g>
<!-- Node57&#45;&gt;Node59 -->
<g id="edge25" class="edge">
<title>Node57&#45;&gt;Node59</title>
<path fill="none" stroke="#191970" d="M508.1835,-456.2533C474.1831,-445.3491 442.6512,-432.3024 431.4849,-419 411.6632,-395.3867 408.748,-359.1001 409.6108,-333.7232"/>
<polygon fill="#191970" stroke="#191970" points="507.235,-459.6238 517.8239,-459.2705 509.3258,-452.9433 507.235,-459.6238"/>
</g>
<!-- Node61 -->
<g id="node5" class="node">
<title>Node61</title>
<g id="a_node5"><a xlink:href="_meeting_client_impl_8hxx.html" target="_top" xlink:title=" ">
<polygon fill="none" stroke="#000000" points="601.5049,-275.5 601.5049,-333.5 771.4648,-333.5 771.4648,-275.5 601.5049,-275.5"/>
<text text-anchor="start" x="609.5049" y="-321.5" font-family="Helvetica,sans-Serif" font-size="10.00" fill="#000000">/Users/oskryp/Projects</text>
<text text-anchor="start" x="609.5049" y="-311.5" font-family="Helvetica,sans-Serif" font-size="10.00" fill="#000000">/freesee&#45;native&#45;client</text>
<text text-anchor="start" x="609.5049" y="-301.5" font-family="Helvetica,sans-Serif" font-size="10.00" fill="#000000">/libs/fcc_sdk/engine/meetingclient</text>
<text text-anchor="start" x="609.5049" y="-291.5" font-family="Helvetica,sans-Serif" font-size="10.00" fill="#000000">/src/headers/MeetingClient/proxies</text>
<text text-anchor="middle" x="686.4849" y="-281.5" font-family="Helvetica,sans-Serif" font-size="10.00" fill="#000000">/MeetingClientImpl.hxx</text>
</a>
</g>
</g>
<!-- Node57&#45;&gt;Node61 -->
<g id="edge26" class="edge">
<title>Node57&#45;&gt;Node61</title>
<path fill="none" stroke="#191970" d="M650.7311,-447.3486C657.1665,-438.5535 663.2242,-428.851 667.4849,-419 679.3236,-391.6281 683.8242,-357.6358 685.5144,-333.8264"/>
<polygon fill="#191970" stroke="#191970" points="647.8037,-445.4143 644.4916,-455.4781 653.3567,-449.6763 647.8037,-445.4143"/>
</g>
<!-- Node74 -->
<g id="node18" class="node">
<title>Node74</title>
<g id="a_node18"><a xlink:href="_meeting_client_session_8cxx.html" target="_top" xlink:title=" ">
<polygon fill="none" stroke="#000000" points="714,-370.5 714,-418.5 878.9697,-418.5 878.9697,-370.5 714,-370.5"/>
<text text-anchor="start" x="722" y="-406.5" font-family="Helvetica,sans-Serif" font-size="10.00" fill="#000000">/Users/oskryp/Projects</text>
<text text-anchor="start" x="722" y="-396.5" font-family="Helvetica,sans-Serif" font-size="10.00" fill="#000000">/freesee&#45;native&#45;client</text>
<text text-anchor="start" x="722" y="-386.5" font-family="Helvetica,sans-Serif" font-size="10.00" fill="#000000">/libs/fcc_sdk/engine/meetingclient</text>
<text text-anchor="middle" x="796.4849" y="-376.5" font-family="Helvetica,sans-Serif" font-size="10.00" fill="#000000">/src/MeetingClientSession.cxx</text>
</a>
</g>
</g>
<!-- Node57&#45;&gt;Node74 -->
<g id="edge27" class="edge">
<title>Node57&#45;&gt;Node74</title>
<path fill="none" stroke="#191970" d="M684.5848,-450.7626C705.8398,-440.0757 728.8962,-428.4831 748.5263,-418.6133"/>
<polygon fill="#191970" stroke="#191970" points="682.9631,-447.6604 675.601,-455.2796 686.1076,-453.9144 682.9631,-447.6604"/>
</g>
<!-- Node58&#45;&gt;Node59 -->
<g id="edge2" class="edge">
<title>Node58&#45;&gt;Node59</title>
<path fill="none" stroke="#191970" d="M504.0964,-364.6827C488.9846,-354.7553 472.1728,-343.7111 457.1187,-333.8215"/>
<polygon fill="#191970" stroke="#191970" points="502.4918,-367.8163 512.7714,-370.3817 506.3352,-361.9658 502.4918,-367.8163"/>
</g>
<!-- Node58&#45;&gt;Node61 -->
<g id="edge4" class="edge">
<title>Node58&#45;&gt;Node61</title>
<path fill="none" stroke="#191970" d="M594.8734,-364.6827C609.9852,-354.7553 626.7969,-343.7111 641.851,-333.8215"/>
<polygon fill="#191970" stroke="#191970" points="592.6345,-361.9658 586.1983,-370.3817 596.4779,-367.8163 592.6345,-361.9658"/>
</g>
<!-- Node60 -->
<g id="node4" class="node">
<title>Node60</title>
<g id="a_node4"><a xlink:href="_meeting_lobby_imp_8cxx.html" target="_top" xlink:title=" ">
<polygon fill="none" stroke="#000000" points="0,-185.5 0,-233.5 164.9697,-233.5 164.9697,-185.5 0,-185.5"/>
<text text-anchor="start" x="8" y="-221.5" font-family="Helvetica,sans-Serif" font-size="10.00" fill="#000000">/Users/oskryp/Projects</text>
<text text-anchor="start" x="8" y="-211.5" font-family="Helvetica,sans-Serif" font-size="10.00" fill="#000000">/freesee&#45;native&#45;client</text>
<text text-anchor="start" x="8" y="-201.5" font-family="Helvetica,sans-Serif" font-size="10.00" fill="#000000">/libs/fcc_sdk/engine/meetingclient</text>
<text text-anchor="middle" x="82.4849" y="-191.5" font-family="Helvetica,sans-Serif" font-size="10.00" fill="#000000">/src/MeetingLobbyImp.cxx</text>
</a>
</g>
</g>
<!-- Node59&#45;&gt;Node60 -->
<g id="edge3" class="edge">
<title>Node59&#45;&gt;Node60</title>
<path fill="none" stroke="#191970" d="M302.2844,-274.269C263.1337,-263.3662 218.7862,-250.8306 178.4849,-239 172.5458,-237.2566 166.4078,-235.4294 160.2402,-233.5752"/>
<polygon fill="#191970" stroke="#191970" points="301.5481,-277.697 312.1203,-277.0043 303.4237,-270.9529 301.5481,-277.697"/>
</g>
<!-- Node62 -->
<g id="node6" class="node">
<title>Node62</title>
<g id="a_node6"><a xlink:href="_meeting_attendee_impl_8hxx.html" target="_top" xlink:title=" ">
<polygon fill="none" stroke="#000000" points="220.5049,-180.5 220.5049,-238.5 390.4648,-238.5 390.4648,-180.5 220.5049,-180.5"/>
<text text-anchor="start" x="228.5049" y="-226.5" font-family="Helvetica,sans-Serif" font-size="10.00" fill="#000000">/Users/oskryp/Projects</text>
<text text-anchor="start" x="228.5049" y="-216.5" font-family="Helvetica,sans-Serif" font-size="10.00" fill="#000000">/freesee&#45;native&#45;client</text>
<text text-anchor="start" x="228.5049" y="-206.5" font-family="Helvetica,sans-Serif" font-size="10.00" fill="#000000">/libs/fcc_sdk/engine/meetingclient</text>
<text text-anchor="start" x="228.5049" y="-196.5" font-family="Helvetica,sans-Serif" font-size="10.00" fill="#000000">/src/headers/MeetingClient/proxies</text>
<text text-anchor="middle" x="305.4849" y="-186.5" font-family="Helvetica,sans-Serif" font-size="10.00" fill="#000000">/MeetingAttendeeImpl.hxx</text>
</a>
</g>
</g>
<!-- Node61&#45;&gt;Node62 -->
<g id="edge5" class="edge">
<title>Node61&#45;&gt;Node62</title>
<path fill="none" stroke="#191970" d="M591.4275,-283.4466C537.3401,-271.1516 468.4294,-254.9559 407.4849,-239 401.9566,-237.5527 396.2716,-236.0233 390.5487,-234.4529"/>
<polygon fill="#191970" stroke="#191970" points="590.8226,-286.8982 601.349,-285.696 592.3705,-280.0714 590.8226,-286.8982"/>
</g>
<!-- Node63 -->
<g id="node7" class="node">
<title>Node63</title>
<g id="a_node7"><a xlink:href="_meeting_attendee_feature_impl_8hxx.html" target="_top" xlink:title=" ">
<polygon fill="none" stroke="#000000" points="23.5049,-85.5 23.5049,-143.5 193.4648,-143.5 193.4648,-85.5 23.5049,-85.5"/>
<text text-anchor="start" x="31.5049" y="-131.5" font-family="Helvetica,sans-Serif" font-size="10.00" fill="#000000">/Users/oskryp/Projects</text>
<text text-anchor="start" x="31.5049" y="-121.5" font-family="Helvetica,sans-Serif" font-size="10.00" fill="#000000">/freesee&#45;native&#45;client</text>
<text text-anchor="start" x="31.5049" y="-111.5" font-family="Helvetica,sans-Serif" font-size="10.00" fill="#000000">/libs/fcc_sdk/engine/meetingclient</text>
<text text-anchor="start" x="31.5049" y="-101.5" font-family="Helvetica,sans-Serif" font-size="10.00" fill="#000000">/src/headers/MeetingClient/proxies</text>
<text text-anchor="middle" x="108.4849" y="-91.5" font-family="Helvetica,sans-Serif" font-size="10.00" fill="#000000">/MeetingAttendeeFeatureImpl.hxx</text>
</a>
</g>
</g>
<!-- Node61&#45;&gt;Node63 -->
<g id="edge10" class="edge">
<title>Node61&#45;&gt;Node63</title>
<path fill="none" stroke="#191970" d="M591.3988,-286.4735C568.5453,-282.4252 544.1807,-278.3435 521.4849,-275 452.8735,-264.8924 270.3499,-275.6686 211.4849,-239 185.0108,-222.5086 193.0214,-204.3139 173.4849,-180 163.3498,-167.3866 151.0944,-154.5306 139.9693,-143.5867"/>
<polygon fill="#191970" stroke="#191970" points="590.9752,-289.9532 601.4349,-288.266 592.2061,-283.0622 590.9752,-289.9532"/>
</g>
<!-- Node65 -->
<g id="node9" class="node">
<title>Node65</title>
<g id="a_node9"><a xlink:href="_meeting_client_impl_8cxx.html" target="_top" xlink:title=" ">
<polygon fill="none" stroke="#000000" points="739.6279,-.5 739.6279,-48.5 907.3418,-48.5 907.3418,-.5 739.6279,-.5"/>
<text text-anchor="start" x="747.6279" y="-36.5" font-family="Helvetica,sans-Serif" font-size="10.00" fill="#000000">/Users/oskryp/Projects</text>
<text text-anchor="start" x="747.6279" y="-26.5" font-family="Helvetica,sans-Serif" font-size="10.00" fill="#000000">/freesee&#45;native&#45;client</text>
<text text-anchor="start" x="747.6279" y="-16.5" font-family="Helvetica,sans-Serif" font-size="10.00" fill="#000000">/libs/fcc_sdk/engine/meetingclient</text>
<text text-anchor="middle" x="823.4849" y="-6.5" font-family="Helvetica,sans-Serif" font-size="10.00" fill="#000000">/src/proxies/MeetingClientImpl.cxx</text>
</a>
</g>
</g>
<!-- Node61&#45;&gt;Node65 -->
<g id="edge24" class="edge">
<title>Node61&#45;&gt;Node65</title>
<path fill="none" stroke="#191970" d="M599.3889,-271.418C505.5271,-230.9532 377.5132,-158.6997 440.4849,-85 459.6713,-62.5449 632.5516,-42.4444 739.3799,-32.0234"/>
<polygon fill="#191970" stroke="#191970" points="598.0715,-274.661 608.6437,-275.3535 600.8108,-268.2193 598.0715,-274.661"/>
</g>
<!-- Node67 -->
<g id="node11" class="node">
<title>Node67</title>
<g id="a_node11"><a xlink:href="_meeting_broadcast_feature_impl_8hxx.html" target="_top" xlink:title=" ">
<polygon fill="none" stroke="#000000" points="449.9482,-85.5 449.9482,-143.5 621.0215,-143.5 621.0215,-85.5 449.9482,-85.5"/>
<text text-anchor="start" x="457.9482" y="-131.5" font-family="Helvetica,sans-Serif" font-size="10.00" fill="#000000">/Users/oskryp/Projects</text>
<text text-anchor="start" x="457.9482" y="-121.5" font-family="Helvetica,sans-Serif" font-size="10.00" fill="#000000">/freesee&#45;native&#45;client</text>
<text text-anchor="start" x="457.9482" y="-111.5" font-family="Helvetica,sans-Serif" font-size="10.00" fill="#000000">/libs/fcc_sdk/engine/meetingclient</text>
<text text-anchor="start" x="457.9482" y="-101.5" font-family="Helvetica,sans-Serif" font-size="10.00" fill="#000000">/src/headers/MeetingClient/proxies</text>
<text text-anchor="middle" x="535.4849" y="-91.5" font-family="Helvetica,sans-Serif" font-size="10.00" fill="#000000">/MeetingBroadcastFeatureImpl.hxx</text>
</a>
</g>
</g>
<!-- Node61&#45;&gt;Node67 -->
<g id="edge11" class="edge">
<title>Node61&#45;&gt;Node67</title>
<path fill="none" stroke="#191970" d="M656.9636,-267.354C628.2361,-231.2069 585.1658,-177.0124 558.7741,-143.8044"/>
<polygon fill="#191970" stroke="#191970" points="654.2601,-269.5778 663.222,-275.2289 659.7403,-265.2225 654.2601,-269.5778"/>
</g>
<!-- Node68 -->
<g id="node12" class="node">
<title>Node68</title>
<g id="a_node12"><a xlink:href="_meeting_chat_feature_impl_8hxx.html" target="_top" xlink:title=" ">
<polygon fill="none" stroke="#000000" points="639.5049,-85.5 639.5049,-143.5 809.4648,-143.5 809.4648,-85.5 639.5049,-85.5"/>
<text text-anchor="start" x="647.5049" y="-131.5" font-family="Helvetica,sans-Serif" font-size="10.00" fill="#000000">/Users/oskryp/Projects</text>
<text text-anchor="start" x="647.5049" y="-121.5" font-family="Helvetica,sans-Serif" font-size="10.00" fill="#000000">/freesee&#45;native&#45;client</text>
<text text-anchor="start" x="647.5049" y="-111.5" font-family="Helvetica,sans-Serif" font-size="10.00" fill="#000000">/libs/fcc_sdk/engine/meetingclient</text>
<text text-anchor="start" x="647.5049" y="-101.5" font-family="Helvetica,sans-Serif" font-size="10.00" fill="#000000">/src/headers/MeetingClient/proxies</text>
<text text-anchor="middle" x="724.4849" y="-91.5" font-family="Helvetica,sans-Serif" font-size="10.00" fill="#000000">/MeetingChatFeatureImpl.hxx</text>
</a>
</g>
</g>
<!-- Node61&#45;&gt;Node68 -->
<g id="edge13" class="edge">
<title>Node61&#45;&gt;Node68</title>
<path fill="none" stroke="#191970" d="M693.8361,-265.2786C698.4861,-240.7463 704.6924,-208.5014 710.4849,-180 712.8934,-168.1488 715.6556,-155.1166 718.0865,-143.8189"/>
<polygon fill="#191970" stroke="#191970" points="690.3627,-264.8107 691.9443,-275.2868 697.2409,-266.111 690.3627,-264.8107"/>
</g>
<!-- Node69 -->
<g id="node13" class="node">
<title>Node69</title>
<g id="a_node13"><a xlink:href="_meeting_screen_sharing_feature_impl_8hxx.html" target="_top" xlink:title=" ">
<polygon fill="none" stroke="#000000" points="827.3843,-85.5 827.3843,-143.5 1019.5854,-143.5 1019.5854,-85.5 827.3843,-85.5"/>
<text text-anchor="start" x="835.3843" y="-131.5" font-family="Helvetica,sans-Serif" font-size="10.00" fill="#000000">/Users/oskryp/Projects</text>
<text text-anchor="start" x="835.3843" y="-121.5" font-family="Helvetica,sans-Serif" font-size="10.00" fill="#000000">/freesee&#45;native&#45;client</text>
<text text-anchor="start" x="835.3843" y="-111.5" font-family="Helvetica,sans-Serif" font-size="10.00" fill="#000000">/libs/fcc_sdk/engine/meetingclient</text>
<text text-anchor="start" x="835.3843" y="-101.5" font-family="Helvetica,sans-Serif" font-size="10.00" fill="#000000">/src/headers/MeetingClient/proxies</text>
<text text-anchor="middle" x="923.4849" y="-91.5" font-family="Helvetica,sans-Serif" font-size="10.00" fill="#000000">/MeetingScreenSharingFeatureImpl.hxx</text>
</a>
</g>
</g>
<!-- Node61&#45;&gt;Node69 -->
<g id="edge15" class="edge">
<title>Node61&#45;&gt;Node69</title>
<path fill="none" stroke="#191970" d="M702.0523,-265.7918C715.4874,-234.0096 734.8298,-192.3052 748.4849,-180 761.3175,-168.4358 793.7601,-155.1574 827.2756,-143.5924"/>
<polygon fill="#191970" stroke="#191970" points="698.7084,-264.7167 698.0853,-275.2932 705.168,-267.4138 698.7084,-264.7167"/>
</g>
<!-- Node70 -->
<g id="node14" class="node">
<title>Node70</title>
<g id="a_node14"><a xlink:href="_meeting_video_feature_impl_8hxx.html" target="_top" xlink:title=" ">
<polygon fill="none" stroke="#000000" points="1037.5049,-85.5 1037.5049,-143.5 1207.4648,-143.5 1207.4648,-85.5 1037.5049,-85.5"/>
<text text-anchor="start" x="1045.5049" y="-131.5" font-family="Helvetica,sans-Serif" font-size="10.00" fill="#000000">/Users/oskryp/Projects</text>
<text text-anchor="start" x="1045.5049" y="-121.5" font-family="Helvetica,sans-Serif" font-size="10.00" fill="#000000">/freesee&#45;native&#45;client</text>
<text text-anchor="start" x="1045.5049" y="-111.5" font-family="Helvetica,sans-Serif" font-size="10.00" fill="#000000">/libs/fcc_sdk/engine/meetingclient</text>
<text text-anchor="start" x="1045.5049" y="-101.5" font-family="Helvetica,sans-Serif" font-size="10.00" fill="#000000">/src/headers/MeetingClient/proxies</text>
<text text-anchor="middle" x="1122.4849" y="-91.5" font-family="Helvetica,sans-Serif" font-size="10.00" fill="#000000">/MeetingVideoFeatureImpl.hxx</text>
</a>
</g>
</g>
<!-- Node61&#45;&gt;Node70 -->
<g id="edge17" class="edge">
<title>Node61&#45;&gt;Node70</title>
<path fill="none" stroke="#191970" d="M721.5216,-268.0032C729.7283,-258.8156 738.1962,-248.7783 745.4849,-239 763.8432,-214.3712 755.855,-196.9326 781.4849,-180 874.0464,-118.8484 920.329,-168.6874 1028.4849,-144 1031.403,-143.3339 1034.3615,-142.621 1037.3411,-141.8709"/>
<polygon fill="#191970" stroke="#191970" points="718.8497,-265.7394 714.7211,-275.4967 724.0333,-270.4437 718.8497,-265.7394"/>
</g>
<!-- Node71 -->
<g id="node15" class="node">
<title>Node71</title>
<g id="a_node15"><a xlink:href="_meeting_vo_i_p_feature_impl_8hxx.html" target="_top" xlink:title=" ">
<polygon fill="none" stroke="#000000" points="790.5049,-180.5 790.5049,-238.5 960.4648,-238.5 960.4648,-180.5 790.5049,-180.5"/>
<text text-anchor="start" x="798.5049" y="-226.5" font-family="Helvetica,sans-Serif" font-size="10.00" fill="#000000">/Users/oskryp/Projects</text>
<text text-anchor="start" x="798.5049" y="-216.5" font-family="Helvetica,sans-Serif" font-size="10.00" fill="#000000">/freesee&#45;native&#45;client</text>
<text text-anchor="start" x="798.5049" y="-206.5" font-family="Helvetica,sans-Serif" font-size="10.00" fill="#000000">/libs/fcc_sdk/engine/meetingclient</text>
<text text-anchor="start" x="798.5049" y="-196.5" font-family="Helvetica,sans-Serif" font-size="10.00" fill="#000000">/src/headers/MeetingClient/proxies</text>
<text text-anchor="middle" x="875.4849" y="-186.5" font-family="Helvetica,sans-Serif" font-size="10.00" fill="#000000">/MeetingVoIPFeatureImpl.hxx</text>
</a>
</g>
</g>
<!-- Node61&#45;&gt;Node71 -->
<g id="edge19" class="edge">
<title>Node61&#45;&gt;Node71</title>
<path fill="none" stroke="#191970" d="M753.4056,-270.8626C774.4302,-260.2947 797.4511,-248.7233 817.7798,-238.5052"/>
<polygon fill="#191970" stroke="#191970" points="751.581,-267.8624 744.2181,-275.4807 754.7247,-274.1168 751.581,-267.8624"/>
</g>
<!-- Node72 -->
<g id="node16" class="node">
<title>Node72</title>
<g id="a_node16"><a xlink:href="_raw_r_t_messages_feature_impl_8hxx.html" target="_top" xlink:title=" ">
<polygon fill="none" stroke="#000000" points="978.5049,-180.5 978.5049,-238.5 1148.4648,-238.5 1148.4648,-180.5 978.5049,-180.5"/>
<text text-anchor="start" x="986.5049" y="-226.5" font-family="Helvetica,sans-Serif" font-size="10.00" fill="#000000">/Users/oskryp/Projects</text>
<text text-anchor="start" x="986.5049" y="-216.5" font-family="Helvetica,sans-Serif" font-size="10.00" fill="#000000">/freesee&#45;native&#45;client</text>
<text text-anchor="start" x="986.5049" y="-206.5" font-family="Helvetica,sans-Serif" font-size="10.00" fill="#000000">/libs/fcc_sdk/engine/meetingclient</text>
<text text-anchor="start" x="986.5049" y="-196.5" font-family="Helvetica,sans-Serif" font-size="10.00" fill="#000000">/src/headers/MeetingClient/proxies</text>
<text text-anchor="middle" x="1063.4849" y="-186.5" font-family="Helvetica,sans-Serif" font-size="10.00" fill="#000000">/RawRTMessagesFeatureImpl.hxx</text>
</a>
</g>
</g>
<!-- Node61&#45;&gt;Node72 -->
<g id="edge21" class="edge">
<title>Node61&#45;&gt;Node72</title>
<path fill="none" stroke="#191970" d="M781.84,-284.3408C836.9356,-272.2171 907.4137,-255.8963 969.4849,-239 972.373,-238.2138 975.3056,-237.3973 978.2629,-236.5582"/>
<polygon fill="#191970" stroke="#191970" points="780.7559,-280.9952 771.7369,-286.5549 782.2544,-287.8329 780.7559,-280.9952"/>
</g>
<!-- Node73 -->
<g id="node17" class="node">
<title>Node73</title>
<g id="a_node17"><a xlink:href="_free_see_a_p_i2_impl_8cxx.html" target="_top" xlink:title=" ">
<polygon fill="none" stroke="#000000" points="1166.1821,-185.5 1166.1821,-233.5 1332.7876,-233.5 1332.7876,-185.5 1166.1821,-185.5"/>
<text text-anchor="start" x="1174.1821" y="-221.5" font-family="Helvetica,sans-Serif" font-size="10.00" fill="#000000">/Users/oskryp/Projects</text>
<text text-anchor="start" x="1174.1821" y="-211.5" font-family="Helvetica,sans-Serif" font-size="10.00" fill="#000000">/freesee&#45;native&#45;client</text>
<text text-anchor="start" x="1174.1821" y="-201.5" font-family="Helvetica,sans-Serif" font-size="10.00" fill="#000000">/libs/fcc_sdk/engine/meetingclient</text>
<text text-anchor="middle" x="1249.4849" y="-191.5" font-family="Helvetica,sans-Serif" font-size="10.00" fill="#000000">/src/proxies/FreeSeeAPI2Impl.cxx</text>
</a>
</g>
</g>
<!-- Node61&#45;&gt;Node73 -->
<g id="edge23" class="edge">
<title>Node61&#45;&gt;Node73</title>
<path fill="none" stroke="#191970" d="M781.4624,-296.1388C877.2089,-286.5795 1028.8257,-268.3436 1157.4849,-239 1164.435,-237.4149 1171.6131,-235.543 1178.752,-233.5233"/>
<polygon fill="#191970" stroke="#191970" points="781.1184,-292.6556 771.5106,-297.1212 781.8061,-299.6218 781.1184,-292.6556"/>
</g>
<!-- Node62&#45;&gt;Node63 -->
<g id="edge6" class="edge">
<title>Node62&#45;&gt;Node63</title>
<path fill="none" stroke="#191970" d="M236.0262,-176.0047C214.0322,-165.3985 189.9167,-153.7691 168.6325,-143.5052"/>
<polygon fill="#191970" stroke="#191970" points="234.7803,-179.2895 245.3079,-180.4807 237.8209,-172.9844 234.7803,-179.2895"/>
</g>
<!-- Node66 -->
<g id="node10" class="node">
<title>Node66</title>
<g id="a_node10"><a xlink:href="_meeting_attendee_impl_8cxx.html" target="_top" xlink:title=" ">
<polygon fill="none" stroke="#000000" points="211.394,-90.5 211.394,-138.5 393.5757,-138.5 393.5757,-90.5 211.394,-90.5"/>
<text text-anchor="start" x="219.394" y="-126.5" font-family="Helvetica,sans-Serif" font-size="10.00" fill="#000000">/Users/oskryp/Projects</text>
<text text-anchor="start" x="219.394" y="-116.5" font-family="Helvetica,sans-Serif" font-size="10.00" fill="#000000">/freesee&#45;native&#45;client</text>
<text text-anchor="start" x="219.394" y="-106.5" font-family="Helvetica,sans-Serif" font-size="10.00" fill="#000000">/libs/fcc_sdk/engine/meetingclient</text>
<text text-anchor="middle" x="302.4849" y="-96.5" font-family="Helvetica,sans-Serif" font-size="10.00" fill="#000000">/src/proxies/MeetingAttendeeImpl.cxx</text>
</a>
</g>
</g>
<!-- Node62&#45;&gt;Node66 -->
<g id="edge9" class="edge">
<title>Node62&#45;&gt;Node66</title>
<path fill="none" stroke="#191970" d="M304.2499,-170.3932C303.9091,-159.602 303.5495,-148.214 303.2444,-138.5531"/>
<polygon fill="#191970" stroke="#191970" points="300.7545,-170.5962 304.5685,-180.4807 307.751,-170.3751 300.7545,-170.5962"/>
</g>
<!-- Node64 -->
<g id="node8" class="node">
<title>Node64</title>
<g id="a_node8"><a xlink:href="_meeting_attendee_feature_impl_8cxx.html" target="_top" xlink:title=" ">
<polygon fill="none" stroke="#000000" points=".1626,-.5 .1626,-48.5 216.8071,-48.5 216.8071,-.5 .1626,-.5"/>
<text text-anchor="start" x="8.1626" y="-36.5" font-family="Helvetica,sans-Serif" font-size="10.00" fill="#000000">/Users/oskryp/Projects</text>
<text text-anchor="start" x="8.1626" y="-26.5" font-family="Helvetica,sans-Serif" font-size="10.00" fill="#000000">/freesee&#45;native&#45;client</text>
<text text-anchor="start" x="8.1626" y="-16.5" font-family="Helvetica,sans-Serif" font-size="10.00" fill="#000000">/libs/fcc_sdk/engine/meetingclient</text>
<text text-anchor="middle" x="108.4849" y="-6.5" font-family="Helvetica,sans-Serif" font-size="10.00" fill="#000000">/src/proxies/MeetingAttendeeFeatureImpl.cxx</text>
</a>
</g>
</g>
<!-- Node63&#45;&gt;Node64 -->
<g id="edge7" class="edge">
<title>Node63&#45;&gt;Node64</title>
<path fill="none" stroke="#191970" d="M108.4849,-74.7825C108.4849,-65.8703 108.4849,-56.6778 108.4849,-48.6294"/>
<polygon fill="#191970" stroke="#191970" points="104.985,-75.0306 108.4849,-85.0306 111.985,-75.0307 104.985,-75.0306"/>
</g>
<!-- Node63&#45;&gt;Node65 -->
<g id="edge8" class="edge">
<title>Node63&#45;&gt;Node65</title>
<path fill="none" stroke="#191970" d="M203.4993,-84.9522C399.6155,-45.9749 621.4379,-32.1541 739.5522,-27.173"/>
<polygon fill="#191970" stroke="#191970" points="202.7017,-81.5424 193.5895,-86.9478 204.0836,-88.4047 202.7017,-81.5424"/>
</g>
<!-- Node67&#45;&gt;Node65 -->
<g id="edge12" class="edge">
<title>Node67&#45;&gt;Node65</title>
<path fill="none" stroke="#191970" d="M631.0437,-84.6379C668.5564,-72.9152 711.0333,-59.6411 746.519,-48.5518"/>
<polygon fill="#191970" stroke="#191970" points="629.6154,-81.4172 621.1146,-87.7407 631.7034,-88.0986 629.6154,-81.4172"/>
</g>
<!-- Node68&#45;&gt;Node65 -->
<g id="edge14" class="edge">
<title>Node68&#45;&gt;Node65</title>
<path fill="none" stroke="#191970" d="M764.0962,-78.4897C775.0814,-68.5031 786.744,-57.9008 796.799,-48.7599"/>
<polygon fill="#191970" stroke="#191970" points="761.6724,-75.963 756.6273,-85.2796 766.3811,-81.1426 761.6724,-75.963"/>
</g>
<!-- Node69&#45;&gt;Node65 -->
<g id="edge16" class="edge">
<title>Node69&#45;&gt;Node65</title>
<path fill="none" stroke="#191970" d="M883.4734,-78.4897C872.3773,-68.5031 860.5969,-57.9008 850.4403,-48.7599"/>
<polygon fill="#191970" stroke="#191970" points="881.2434,-81.1914 891.0177,-85.2796 885.9262,-75.9884 881.2434,-81.1914"/>
</g>
<!-- Node70&#45;&gt;Node65 -->
<g id="edge18" class="edge">
<title>Node70&#45;&gt;Node65</title>
<path fill="none" stroke="#191970" d="M1027.7326,-84.7859C982.4739,-71.0416 941.2472,-58.8406 906.3701,-48.6109"/>
<polygon fill="#191970" stroke="#191970" points="1026.8649,-88.1803 1037.4507,-87.7421 1028.9021,-81.4833 1026.8649,-88.1803"/>
</g>
<!-- Node71&#45;&gt;Node65 -->
<g id="edge20" class="edge">
<title>Node71&#45;&gt;Node65</title>
<path fill="none" stroke="#191970" d="M970.4928,-180.2327C1038.5726,-169.2997 1181.9727,-183.907 1216.4849,-144 1233.6376,-124.166 1233.558,-104.9026 1216.4849,-85 1196.6239,-61.8476 1016.8477,-41.8255 907.4444,-31.6478"/>
<polygon fill="#191970" stroke="#191970" points="969.7879,-176.804 960.6286,-182.1291 971.1096,-183.6781 969.7879,-176.804"/>
</g>
<!-- Node72&#45;&gt;Node65 -->
<g id="edge22" class="edge">
<title>Node72&#45;&gt;Node65</title>
<path fill="none" stroke="#191970" d="M1158.1129,-178.7722C1195.6492,-165.6437 1231.227,-151.6128 1236.4849,-144 1251.3868,-122.4237 1253.6304,-104.8402 1236.4849,-85 1215.2811,-60.4638 1021.8109,-40.6611 907.3448,-30.9683"/>
<polygon fill="#191970" stroke="#191970" points="1156.8487,-175.506 1148.5449,-182.086 1159.1397,-182.1205 1156.8487,-175.506"/>
</g>
</g>
</svg>
