<?xml version="1.0" encoding="UTF-8" standalone="no"?>
<!DOCTYPE svg PUBLIC "-//W3C//DTD SVG 1.1//EN"
 "http://www.w3.org/Graphics/SVG/1.1/DTD/svg11.dtd">
<!-- Generated by graphviz version 2.40.1 (20161225.0304)
 -->
<!-- Title: /Users/oskryp/Projects/freesee&#45;native&#45;client/libs/fcc_sdk/engine/meetingclient/include/MeetingClient/MeetingAttendeeAPI.hxx Pages: 1 -->
<svg width="753pt" height="317pt"
 viewBox="0.00 0.00 752.54 317.00" xmlns="http://www.w3.org/2000/svg" xmlns:xlink="http://www.w3.org/1999/xlink">
<g id="graph0" class="graph" transform="scale(1 1) rotate(0) translate(4 313)">
<title>/Users/oskryp/Projects/freesee&#45;native&#45;client/libs/fcc_sdk/engine/meetingclient/include/MeetingClient/MeetingAttendeeAPI.hxx</title>
<!-- Node0 -->
<g id="node1" class="node">
<title>Node0</title>
<g id="a_node1"><a xlink:title=" ">
<polygon fill="#bfbfbf" stroke="#000000" points="325.3647,-260.5 325.3647,-308.5 552.6001,-308.5 552.6001,-260.5 325.3647,-260.5"/>
<text text-anchor="start" x="333.3647" y="-296.5" font-family="Helvetica,sans-Serif" font-size="10.00" fill="#000000">/Users/oskryp/Projects</text>
<text text-anchor="start" x="333.3647" y="-286.5" font-family="Helvetica,sans-Serif" font-size="10.00" fill="#000000">/freesee&#45;native&#45;client</text>
<text text-anchor="start" x="333.3647" y="-276.5" font-family="Helvetica,sans-Serif" font-size="10.00" fill="#000000">/libs/fcc_sdk/engine/meetingclient</text>
<text text-anchor="middle" x="438.9824" y="-266.5" font-family="Helvetica,sans-Serif" font-size="10.00" fill="#000000">/include/MeetingClient/MeetingAttendeeAPI.hxx</text>
</a>
</g>
</g>
<!-- Node1 -->
<g id="node2" class="node">
<title>Node1</title>
<g id="a_node2"><a xlink:href="_meeting_attendee_readonly_8hxx.html" target="_top" xlink:title=" ">
<polygon fill="none" stroke="#000000" points="361.2168,-195.5 361.2168,-223.5 516.748,-223.5 516.748,-195.5 361.2168,-195.5"/>
<text text-anchor="start" x="369.2168" y="-211.5" font-family="Helvetica,sans-Serif" font-size="10.00" fill="#000000">MeetingClient/MeetingAttendee</text>
<text text-anchor="middle" x="438.9824" y="-201.5" font-family="Helvetica,sans-Serif" font-size="10.00" fill="#000000">Readonly.hxx</text>
</a>
</g>
</g>
<!-- Node0&#45;&gt;Node1 -->
<g id="edge1" class="edge">
<title>Node0&#45;&gt;Node1</title>
<path fill="none" stroke="#191970" d="M438.9824,-260.3567C438.9824,-251.8057 438.9824,-242.1888 438.9824,-233.6382"/>
<polygon fill="#191970" stroke="#191970" points="442.4825,-233.5381 438.9824,-223.5382 435.4825,-233.5382 442.4825,-233.5381"/>
</g>
<!-- Node2 -->
<g id="node3" class="node">
<title>Node2</title>
<g id="a_node3"><a xlink:title=" ">
<polygon fill="none" stroke="#bfbfbf" points="0,-135.5 0,-153.5 109.9648,-153.5 109.9648,-135.5 0,-135.5"/>
<text text-anchor="middle" x="54.9824" y="-141.5" font-family="Helvetica,sans-Serif" font-size="10.00" fill="#000000">boost/shared_ptr.hpp</text>
</a>
</g>
</g>
<!-- Node1&#45;&gt;Node2 -->
<g id="edge2" class="edge">
<title>Node1&#45;&gt;Node2</title>
<path fill="none" stroke="#191970" d="M361.1368,-198.6882C296.183,-189.3143 201.2819,-174.7989 118.9824,-159 113.6679,-157.9798 108.1222,-156.839 102.6141,-155.6574"/>
<polygon fill="#191970" stroke="#191970" points="103.3159,-152.2282 92.7981,-153.5039 101.8158,-159.0656 103.3159,-152.2282"/>
</g>
<!-- Node3 -->
<g id="node4" class="node">
<title>Node3</title>
<g id="a_node4"><a xlink:title=" ">
<polygon fill="none" stroke="#bfbfbf" points="127.6724,-135.5 127.6724,-153.5 244.2925,-153.5 244.2925,-135.5 127.6724,-135.5"/>
<text text-anchor="middle" x="185.9824" y="-141.5" font-family="Helvetica,sans-Serif" font-size="10.00" fill="#000000">boost/thread/locks.hpp</text>
</a>
</g>
</g>
<!-- Node1&#45;&gt;Node3 -->
<g id="edge3" class="edge">
<title>Node1&#45;&gt;Node3</title>
<path fill="none" stroke="#191970" d="M384.3967,-195.476C338.5381,-183.6942 273.7985,-167.0614 230.8956,-156.039"/>
<polygon fill="#191970" stroke="#191970" points="231.5757,-152.6001 221.0193,-153.5016 229.8338,-159.3799 231.5757,-152.6001"/>
</g>
<!-- Node4 -->
<g id="node5" class="node">
<title>Node4</title>
<g id="a_node5"><a xlink:title=" ">
<polygon fill="none" stroke="#bfbfbf" points="262.5073,-130.5 262.5073,-158.5 367.4575,-158.5 367.4575,-130.5 262.5073,-130.5"/>
<text text-anchor="start" x="270.5073" y="-146.5" font-family="Helvetica,sans-Serif" font-size="10.00" fill="#000000">boost/thread/shared</text>
<text text-anchor="middle" x="314.9824" y="-136.5" font-family="Helvetica,sans-Serif" font-size="10.00" fill="#000000">_mutex.hpp</text>
</a>
</g>
</g>
<!-- Node1&#45;&gt;Node4 -->
<g id="edge4" class="edge">
<title>Node1&#45;&gt;Node4</title>
<path fill="none" stroke="#191970" d="M412.0763,-195.396C394.1209,-185.9839 370.3104,-173.5026 350.7626,-163.2557"/>
<polygon fill="#191970" stroke="#191970" points="352.318,-160.1194 341.8361,-158.5765 349.068,-166.3192 352.318,-160.1194"/>
</g>
<!-- Node5 -->
<g id="node6" class="node">
<title>Node5</title>
<g id="a_node6"><a xlink:title=" ">
<polygon fill="none" stroke="#bfbfbf" points="385.9209,-135.5 385.9209,-153.5 438.0439,-153.5 438.0439,-135.5 385.9209,-135.5"/>
<text text-anchor="middle" x="411.9824" y="-141.5" font-family="Helvetica,sans-Serif" font-size="10.00" fill="#000000">ostream</text>
</a>
</g>
</g>
<!-- Node1&#45;&gt;Node5 -->
<g id="edge5" class="edge">
<title>Node1&#45;&gt;Node5</title>
<path fill="none" stroke="#191970" d="M433.1238,-195.396C429.1689,-185.8748 423.9093,-173.2128 419.6256,-162.9003"/>
<polygon fill="#191970" stroke="#191970" points="422.8201,-161.4666 415.7517,-153.5743 416.3556,-164.1519 422.8201,-161.4666"/>
</g>
<!-- Node6 -->
<g id="node7" class="node">
<title>Node6</title>
<g id="a_node7"><a xlink:title=" ">
<polygon fill="none" stroke="#bfbfbf" points="446.7559,-5.5 446.7559,-23.5 487.209,-23.5 487.209,-5.5 446.7559,-5.5"/>
<text text-anchor="middle" x="466.9824" y="-11.5" font-family="Helvetica,sans-Serif" font-size="10.00" fill="#000000">string</text>
</a>
</g>
</g>
<!-- Node1&#45;&gt;Node6 -->
<g id="edge6" class="edge">
<title>Node1&#45;&gt;Node6</title>
<path fill="none" stroke="#191970" d="M441.2979,-195.3623C442.9367,-185.2435 445.1582,-171.2927 446.9824,-159 453.6183,-114.2829 460.7238,-61.6723 464.4178,-33.9164"/>
<polygon fill="#191970" stroke="#191970" points="467.9358,-34.0116 465.7808,-23.6383 460.9965,-33.0913 467.9358,-34.0116"/>
</g>
<!-- Node7 -->
<g id="node8" class="node">
<title>Node7</title>
<g id="a_node8"><a xlink:title=" ">
<polygon fill="none" stroke="#bfbfbf" points="494.3667,-135.5 494.3667,-153.5 537.5981,-153.5 537.5981,-135.5 494.3667,-135.5"/>
<text text-anchor="middle" x="515.9824" y="-141.5" font-family="Helvetica,sans-Serif" font-size="10.00" fill="#000000">vector</text>
</a>
</g>
</g>
<!-- Node1&#45;&gt;Node7 -->
<g id="edge7" class="edge">
<title>Node1&#45;&gt;Node7</title>
<path fill="none" stroke="#191970" d="M455.6903,-195.396C468.0266,-184.9822 484.8139,-170.8111 497.5422,-160.0664"/>
<polygon fill="#191970" stroke="#191970" points="499.8491,-162.6994 505.2329,-153.5743 495.3338,-157.3504 499.8491,-162.6994"/>
</g>
<!-- Node8 -->
<g id="node9" class="node">
<title>Node8</title>
<g id="a_node9"><a xlink:href="_meeting_types_8hxx.html" target="_top" xlink:title=" ">
<polygon fill="none" stroke="#000000" points="556.0713,-130.5 556.0713,-158.5 659.8936,-158.5 659.8936,-130.5 556.0713,-130.5"/>
<text text-anchor="start" x="564.0713" y="-146.5" font-family="Helvetica,sans-Serif" font-size="10.00" fill="#000000">MeetingClient/types</text>
<text text-anchor="middle" x="607.9824" y="-136.5" font-family="Helvetica,sans-Serif" font-size="10.00" fill="#000000">/MeetingTypes.hxx</text>
</a>
</g>
</g>
<!-- Node1&#45;&gt;Node8 -->
<g id="edge8" class="edge">
<title>Node1&#45;&gt;Node8</title>
<path fill="none" stroke="#191970" d="M475.6529,-195.396C500.8994,-185.6858 534.6395,-172.7088 561.7312,-162.2889"/>
<polygon fill="#191970" stroke="#191970" points="563.3065,-165.4331 571.3835,-158.5765 560.7936,-158.8996 563.3065,-165.4331"/>
</g>
<!-- Node13 -->
<g id="node14" class="node">
<title>Node13</title>
<g id="a_node14"><a xlink:href="macros_8hxx.html" target="_top" xlink:title=" ">
<polygon fill="none" stroke="#000000" points="677.4209,-135.5 677.4209,-153.5 744.5439,-153.5 744.5439,-135.5 677.4209,-135.5"/>
<text text-anchor="middle" x="710.9824" y="-141.5" font-family="Helvetica,sans-Serif" font-size="10.00" fill="#000000">macros.hxx</text>
</a>
</g>
</g>
<!-- Node1&#45;&gt;Node13 -->
<g id="edge14" class="edge">
<title>Node1&#45;&gt;Node13</title>
<path fill="none" stroke="#191970" d="M513.3262,-195.4605C558.6358,-186.3402 617.5276,-173.478 668.9824,-159 671.4514,-158.3053 673.9876,-157.5464 676.5319,-156.7518"/>
<polygon fill="#191970" stroke="#191970" points="677.8434,-160.0054 686.2597,-153.5698 675.6671,-153.3522 677.8434,-160.0054"/>
</g>
<!-- Node9 -->
<g id="node10" class="node">
<title>Node9</title>
<g id="a_node10"><a xlink:href="_common_data_types_8hxx.html" target="_top" xlink:title=" ">
<polygon fill="none" stroke="#000000" points="494.2363,-65.5 494.2363,-93.5 619.7285,-93.5 619.7285,-65.5 494.2363,-65.5"/>
<text text-anchor="start" x="502.2363" y="-81.5" font-family="Helvetica,sans-Serif" font-size="10.00" fill="#000000">MeetingClient/types</text>
<text text-anchor="middle" x="556.9824" y="-71.5" font-family="Helvetica,sans-Serif" font-size="10.00" fill="#000000">/CommonDataTypes.hxx</text>
</a>
</g>
</g>
<!-- Node8&#45;&gt;Node9 -->
<g id="edge9" class="edge">
<title>Node8&#45;&gt;Node9</title>
<path fill="none" stroke="#191970" d="M596.9162,-130.396C590.2999,-121.9634 581.7506,-111.0673 574.2609,-101.5216"/>
<polygon fill="#191970" stroke="#191970" points="576.9536,-99.2834 568.0271,-93.5765 571.4464,-103.6044 576.9536,-99.2834"/>
</g>
<!-- Node11 -->
<g id="node12" class="node">
<title>Node11</title>
<g id="a_node12"><a xlink:href="strong__identity_8hxx.html" target="_top" xlink:title=" ">
<polygon fill="none" stroke="#000000" points="637.2725,-65.5 637.2725,-93.5 738.6924,-93.5 738.6924,-65.5 637.2725,-65.5"/>
<text text-anchor="start" x="645.2725" y="-81.5" font-family="Helvetica,sans-Serif" font-size="10.00" fill="#000000">MeetingClient/utils</text>
<text text-anchor="middle" x="687.9824" y="-71.5" font-family="Helvetica,sans-Serif" font-size="10.00" fill="#000000">/strong_identity.hxx</text>
</a>
</g>
</g>
<!-- Node8&#45;&gt;Node11 -->
<g id="edge12" class="edge">
<title>Node8&#45;&gt;Node11</title>
<path fill="none" stroke="#191970" d="M625.3412,-130.396C636.2439,-121.5375 650.4928,-109.9604 662.6457,-100.0861"/>
<polygon fill="#191970" stroke="#191970" points="665.1034,-102.5989 670.6575,-93.5765 660.6892,-97.1661 665.1034,-102.5989"/>
</g>
<!-- Node9&#45;&gt;Node6 -->
<g id="edge10" class="edge">
<title>Node9&#45;&gt;Node6</title>
<path fill="none" stroke="#191970" d="M537.4538,-65.396C522.76,-54.7838 502.6638,-40.2699 487.691,-29.4562"/>
<polygon fill="#191970" stroke="#191970" points="489.7029,-26.5919 479.5468,-23.5743 485.6044,-32.2666 489.7029,-26.5919"/>
</g>
<!-- Node10 -->
<g id="node11" class="node">
<title>Node10</title>
<g id="a_node11"><a xlink:title=" ">
<polygon fill="none" stroke="#bfbfbf" points="506.187,-5.5 506.187,-23.5 607.7778,-23.5 607.7778,-5.5 506.187,-5.5"/>
<text text-anchor="middle" x="556.9824" y="-11.5" font-family="Helvetica,sans-Serif" font-size="10.00" fill="#000000">CommonTypes.hxx</text>
</a>
</g>
</g>
<!-- Node9&#45;&gt;Node10 -->
<g id="edge11" class="edge">
<title>Node9&#45;&gt;Node10</title>
<path fill="none" stroke="#191970" d="M556.9824,-65.396C556.9824,-56.1723 556.9824,-44.0011 556.9824,-33.8738"/>
<polygon fill="#191970" stroke="#191970" points="560.4825,-33.5743 556.9824,-23.5743 553.4825,-33.5743 560.4825,-33.5743"/>
</g>
<!-- Node12 -->
<g id="node13" class="node">
<title>Node12</title>
<g id="a_node13"><a xlink:title=" ">
<polygon fill="none" stroke="#bfbfbf" points="635.7832,-.5 635.7832,-28.5 740.1816,-28.5 740.1816,-.5 635.7832,-.5"/>
<text text-anchor="start" x="643.7832" y="-16.5" font-family="Helvetica,sans-Serif" font-size="10.00" fill="#000000">boost/serialization</text>
<text text-anchor="middle" x="687.9824" y="-6.5" font-family="Helvetica,sans-Serif" font-size="10.00" fill="#000000">/strong_typedef.hpp</text>
</a>
</g>
</g>
<!-- Node11&#45;&gt;Node12 -->
<g id="edge13" class="edge">
<title>Node11&#45;&gt;Node12</title>
<path fill="none" stroke="#191970" d="M687.9824,-65.396C687.9824,-57.6448 687.9824,-47.8122 687.9824,-38.8601"/>
<polygon fill="#191970" stroke="#191970" points="691.4825,-38.5765 687.9824,-28.5765 684.4825,-38.5765 691.4825,-38.5765"/>
</g>
</g>
</svg>
