<?xml version="1.0" encoding="UTF-8" standalone="no"?>
<!DOCTYPE svg PUBLIC "-//W3C//DTD SVG 1.1//EN"
 "http://www.w3.org/Graphics/SVG/1.1/DTD/svg11.dtd">
<!-- Generated by graphviz version 2.40.1 (20161225.0304)
 -->
<!-- Title: /Users/oskryp/Projects/freesee&#45;native&#45;client/libs/fcc_sdk/engine/meetingclient/include/MeetingClient/MeetingAttendeeStruct.hxx Pages: 1 -->
<!--zoomable 702 -->
<svg id="main" version="1.1" xmlns="http://www.w3.org/2000/svg" xmlns:xlink="http://www.w3.org/1999/xlink" xml:space="preserve" onload="init(evt)">
<style type="text/css"><![CDATA[
.edge:hover path { stroke: red; }
.edge:hover polygon { stroke: red; fill: red; }
]]></style>
<script type="text/javascript"><![CDATA[
var edges = document.getElementsByTagName('g');
if (edges && edges.length) {
  for (var i=0;i<edges.length;i++) {
    if (edges[i].id.substr(0,4)=='edge') {
      edges[i].setAttribute('class','edge');
    }
  }
}
]]></script>
        <defs>
                <circle id="rim" cx="0" cy="0" r="7"/>
                <circle id="rim2" cx="0" cy="0" r="3.5"/>
                <g id="zoomPlus">
                        <use xlink:href="#rim" fill="#404040">
                                <set attributeName="fill" to="#808080" begin="zoomplus.mouseover" end="zoomplus.mouseout"/>
                        </use>
                        <path d="M-4,0h8M0,-4v8" fill="none" stroke="white" stroke-width="1.5" pointer-events="none"/>
                </g>
                <g id="zoomMin">
                        <use xlink:href="#rim" fill="#404040">
                                <set attributeName="fill" to="#808080" begin="zoomminus.mouseover" end="zoomminus.mouseout"/>
                        </use>
                        <path d="M-4,0h8" fill="none" stroke="white" stroke-width="1.5" pointer-events="none"/>
                </g>
                <g id="dirArrow">
                        <path fill="none" stroke="white" stroke-width="1.5" d="M0,-3.0v7 M-2.5,-0.5L0,-3.0L2.5,-0.5"/>
                </g>
               <g id="resetDef">
                       <use xlink:href="#rim2" fill="#404040">
                               <set attributeName="fill" to="#808080" begin="reset.mouseover" end="reset.mouseout"/>
                       </use>
               </g>
        </defs>

<script type="text/javascript">
var viewWidth = 1955;
var viewHeight = 702;
var sectionId = 'dynsection-1';
</script>
<script xlink:href="svgpan.js"/>
<svg id="graph" class="graph">
<g id="viewport">
<title>/Users/oskryp/Projects/freesee&#45;native&#45;client/libs/fcc_sdk/engine/meetingclient/include/MeetingClient/MeetingAttendeeStruct.hxx</title>
<!-- Node14 -->
<g id="node1" class="node">
<title>Node14</title>
<g id="a_node1"><a xlink:title=" ">
<polygon fill="#bfbfbf" stroke="#000000" points="717.9756,-645.5 717.9756,-693.5 955.2109,-693.5 955.2109,-645.5 717.9756,-645.5"/>
<text text-anchor="start" x="725.9756" y="-681.5" font-family="Helvetica,sans-Serif" font-size="10.00" fill="#000000">/Users/oskryp/Projects</text>
<text text-anchor="start" x="725.9756" y="-671.5" font-family="Helvetica,sans-Serif" font-size="10.00" fill="#000000">/freesee&#45;native&#45;client</text>
<text text-anchor="start" x="725.9756" y="-661.5" font-family="Helvetica,sans-Serif" font-size="10.00" fill="#000000">/libs/fcc_sdk/engine/meetingclient</text>
<text text-anchor="middle" x="836.5933" y="-651.5" font-family="Helvetica,sans-Serif" font-size="10.00" fill="#000000">/include/MeetingClient/MeetingAttendeeStruct.hxx</text>
</a>
</g>
</g>
<!-- Node15 -->
<g id="node2" class="node">
<title>Node15</title>
<g id="a_node2"><a xlink:href="_active_speaker_manager_abstract_8hxx.html" target="_top" xlink:title=" ">
<polygon fill="none" stroke="#000000" points="587.0371,-550.5 587.0371,-608.5 808.1494,-608.5 808.1494,-550.5 587.0371,-550.5"/>
<text text-anchor="start" x="595.0371" y="-596.5" font-family="Helvetica,sans-Serif" font-size="10.00" fill="#000000">/Users/oskryp/Projects</text>
<text text-anchor="start" x="595.0371" y="-586.5" font-family="Helvetica,sans-Serif" font-size="10.00" fill="#000000">/freesee&#45;native&#45;client</text>
<text text-anchor="start" x="595.0371" y="-576.5" font-family="Helvetica,sans-Serif" font-size="10.00" fill="#000000">/libs/fcc_sdk/engine/meetingclient</text>
<text text-anchor="start" x="595.0371" y="-566.5" font-family="Helvetica,sans-Serif" font-size="10.00" fill="#000000">/include/MeetingClient/ActiveSpeakerManager</text>
<text text-anchor="middle" x="697.5933" y="-556.5" font-family="Helvetica,sans-Serif" font-size="10.00" fill="#000000">Abstract.hxx</text>
</a>
</g>
</g>
<!-- Node14&#45;&gt;Node15 -->
<g id="edge1" class="edge">
<title>Node14&#45;&gt;Node15</title>
<path fill="none" stroke="#191970" d="M790.9318,-639.9351C775.4144,-629.8878 758.093,-618.6725 742.6251,-608.6573"/>
<polygon fill="#191970" stroke="#191970" points="789.0474,-642.8845 799.3438,-645.3817 792.852,-637.0087 789.0474,-642.8845"/>
</g>
<!-- Node16 -->
<g id="node3" class="node">
<title>Node16</title>
<g id="a_node3"><a xlink:href="_meeting_client_a_p_i_8hxx.html" target="_top" xlink:title=" ">
<polygon fill="none" stroke="#000000" points="730.2095,-465.5 730.2095,-513.5 942.9771,-513.5 942.9771,-465.5 730.2095,-465.5"/>
<text text-anchor="start" x="738.2095" y="-501.5" font-family="Helvetica,sans-Serif" font-size="10.00" fill="#000000">/Users/oskryp/Projects</text>
<text text-anchor="start" x="738.2095" y="-491.5" font-family="Helvetica,sans-Serif" font-size="10.00" fill="#000000">/freesee&#45;native&#45;client</text>
<text text-anchor="start" x="738.2095" y="-481.5" font-family="Helvetica,sans-Serif" font-size="10.00" fill="#000000">/libs/fcc_sdk/engine/meetingclient</text>
<text text-anchor="middle" x="836.5933" y="-471.5" font-family="Helvetica,sans-Serif" font-size="10.00" fill="#000000">/include/MeetingClient/MeetingClientAPI.hxx</text>
</a>
</g>
</g>
<!-- Node14&#45;&gt;Node16 -->
<g id="edge40" class="edge">
<title>Node14&#45;&gt;Node16</title>
<path fill="none" stroke="#191970" d="M836.5933,-634.837C836.5933,-599.2668 836.5933,-544.8497 836.5933,-513.6778"/>
<polygon fill="#191970" stroke="#191970" points="833.0934,-635.2244 836.5933,-645.2244 840.0934,-635.2244 833.0934,-635.2244"/>
</g>
<!-- Node36 -->
<g id="node23" class="node">
<title>Node36</title>
<g id="a_node23"><a xlink:href="_meeting_attendee_struct_8cxx.html" target="_top" xlink:title=" ">
<polygon fill="none" stroke="#000000" points="864.1084,-555.5 864.1084,-603.5 1029.0781,-603.5 1029.0781,-555.5 864.1084,-555.5"/>
<text text-anchor="start" x="872.1084" y="-591.5" font-family="Helvetica,sans-Serif" font-size="10.00" fill="#000000">/Users/oskryp/Projects</text>
<text text-anchor="start" x="872.1084" y="-581.5" font-family="Helvetica,sans-Serif" font-size="10.00" fill="#000000">/freesee&#45;native&#45;client</text>
<text text-anchor="start" x="872.1084" y="-571.5" font-family="Helvetica,sans-Serif" font-size="10.00" fill="#000000">/libs/fcc_sdk/engine/meetingclient</text>
<text text-anchor="middle" x="946.5933" y="-561.5" font-family="Helvetica,sans-Serif" font-size="10.00" fill="#000000">/src/MeetingAttendeeStruct.cxx</text>
</a>
</g>
</g>
<!-- Node14&#45;&gt;Node36 -->
<g id="edge41" class="edge">
<title>Node14&#45;&gt;Node36</title>
<path fill="none" stroke="#191970" d="M874.0984,-638.814C888.1179,-627.3435 903.8304,-614.4878 917.0339,-603.6849"/>
<polygon fill="#191970" stroke="#191970" points="871.5945,-636.3404 866.0712,-645.3817 876.0272,-641.7581 871.5945,-636.3404"/>
</g>
<!-- Node15&#45;&gt;Node16 -->
<g id="edge2" class="edge">
<title>Node15&#45;&gt;Node16</title>
<path fill="none" stroke="#191970" d="M751.4339,-544.6392C767.3699,-534.3209 784.4646,-523.2524 799.1252,-513.7599"/>
<polygon fill="#191970" stroke="#191970" points="749.2144,-541.9066 742.7226,-550.2796 753.0189,-547.7825 749.2144,-541.9066"/>
</g>
<!-- Node22 -->
<g id="node9" class="node">
<title>Node22</title>
<g id="a_node9"><a xlink:href="_active_speaker_manager_impl_8hxx.html" target="_top" xlink:title=" ">
<polygon fill="none" stroke="#000000" points="27.6133,-370.5 27.6133,-428.5 197.5732,-428.5 197.5732,-370.5 27.6133,-370.5"/>
<text text-anchor="start" x="35.6133" y="-416.5" font-family="Helvetica,sans-Serif" font-size="10.00" fill="#000000">/Users/oskryp/Projects</text>
<text text-anchor="start" x="35.6133" y="-406.5" font-family="Helvetica,sans-Serif" font-size="10.00" fill="#000000">/freesee&#45;native&#45;client</text>
<text text-anchor="start" x="35.6133" y="-396.5" font-family="Helvetica,sans-Serif" font-size="10.00" fill="#000000">/libs/fcc_sdk/engine/meetingclient</text>
<text text-anchor="start" x="35.6133" y="-386.5" font-family="Helvetica,sans-Serif" font-size="10.00" fill="#000000">/src/headers/MeetingClient/proxies</text>
<text text-anchor="middle" x="112.5933" y="-376.5" font-family="Helvetica,sans-Serif" font-size="10.00" fill="#000000">/ActiveSpeakerManagerImpl.hxx</text>
</a>
</g>
</g>
<!-- Node15&#45;&gt;Node22 -->
<g id="edge39" class="edge">
<title>Node15&#45;&gt;Node22</title>
<path fill="none" stroke="#191970" d="M593.5771,-547.495C480.6895,-512.7604 302.5587,-457.9509 197.6884,-425.6831"/>
<polygon fill="#191970" stroke="#191970" points="592.6909,-550.8842 603.278,-550.4799 594.7495,-544.1938 592.6909,-550.8842"/>
</g>
<!-- Node17 -->
<g id="node4" class="node">
<title>Node17</title>
<g id="a_node4"><a xlink:href="_services_8hxx.html" target="_top" xlink:title=" ">
<polygon fill="none" stroke="#000000" points="1552.6675,-375.5 1552.6675,-423.5 1726.519,-423.5 1726.519,-375.5 1552.6675,-375.5"/>
<text text-anchor="start" x="1560.6675" y="-411.5" font-family="Helvetica,sans-Serif" font-size="10.00" fill="#000000">/Users/oskryp/Projects</text>
<text text-anchor="start" x="1560.6675" y="-401.5" font-family="Helvetica,sans-Serif" font-size="10.00" fill="#000000">/freesee&#45;native&#45;client</text>
<text text-anchor="start" x="1560.6675" y="-391.5" font-family="Helvetica,sans-Serif" font-size="10.00" fill="#000000">/libs/fcc_sdk/engine/meetingclient</text>
<text text-anchor="middle" x="1639.5933" y="-381.5" font-family="Helvetica,sans-Serif" font-size="10.00" fill="#000000">/include/MeetingClient/Services.hxx</text>
</a>
</g>
</g>
<!-- Node16&#45;&gt;Node17 -->
<g id="edge3" class="edge">
<title>Node16&#45;&gt;Node17</title>
<path fill="none" stroke="#191970" d="M953.2753,-476.4223C1116.0104,-458.183 1407.4371,-425.52 1552.5449,-409.2564"/>
<polygon fill="#191970" stroke="#191970" points="952.7734,-472.9566 943.2255,-477.5487 953.5531,-479.913 952.7734,-472.9566"/>
</g>
<!-- Node21 -->
<g id="node8" class="node">
<title>Node21</title>
<g id="a_node8"><a xlink:href="_bundled_attendee_8cxx.html" target="_top" xlink:title=" ">
<polygon fill="none" stroke="#000000" points="931.1084,-375.5 931.1084,-423.5 1096.0781,-423.5 1096.0781,-375.5 931.1084,-375.5"/>
<text text-anchor="start" x="939.1084" y="-411.5" font-family="Helvetica,sans-Serif" font-size="10.00" fill="#000000">/Users/oskryp/Projects</text>
<text text-anchor="start" x="939.1084" y="-401.5" font-family="Helvetica,sans-Serif" font-size="10.00" fill="#000000">/freesee&#45;native&#45;client</text>
<text text-anchor="start" x="939.1084" y="-391.5" font-family="Helvetica,sans-Serif" font-size="10.00" fill="#000000">/libs/fcc_sdk/engine/meetingclient</text>
<text text-anchor="middle" x="1013.5933" y="-381.5" font-family="Helvetica,sans-Serif" font-size="10.00" fill="#000000">/src/BundledAttendee.cxx</text>
</a>
</g>
</g>
<!-- Node16&#45;&gt;Node21 -->
<g id="edge7" class="edge">
<title>Node16&#45;&gt;Node21</title>
<path fill="none" stroke="#191970" d="M893.212,-460.7108C916.7891,-448.7225 943.8507,-434.9623 966.3367,-423.5287"/>
<polygon fill="#191970" stroke="#191970" points="891.3535,-457.7293 884.026,-465.3817 894.5263,-463.969 891.3535,-457.7293"/>
</g>
<!-- Node16&#45;&gt;Node22 -->
<g id="edge8" class="edge">
<title>Node16&#45;&gt;Node22</title>
<path fill="none" stroke="#191970" d="M719.8066,-474.9378C690.6865,-471.4921 659.5182,-467.9619 630.5933,-465 444.6572,-445.9606 395.2203,-463.8689 211.5933,-429 207.0122,-428.1301 202.3405,-427.1326 197.6438,-426.0424"/>
<polygon fill="#191970" stroke="#191970" points="719.6709,-478.4463 730.0143,-476.152 720.4978,-471.4953 719.6709,-478.4463"/>
</g>
<!-- Node23 -->
<g id="node10" class="node">
<title>Node23</title>
<g id="a_node10"><a xlink:href="_meeting_client_impl_8hxx.html" target="_top" xlink:title=" ">
<polygon fill="none" stroke="#000000" points="667.6133,-275.5 667.6133,-333.5 837.5732,-333.5 837.5732,-275.5 667.6133,-275.5"/>
<text text-anchor="start" x="675.6133" y="-321.5" font-family="Helvetica,sans-Serif" font-size="10.00" fill="#000000">/Users/oskryp/Projects</text>
<text text-anchor="start" x="675.6133" y="-311.5" font-family="Helvetica,sans-Serif" font-size="10.00" fill="#000000">/freesee&#45;native&#45;client</text>
<text text-anchor="start" x="675.6133" y="-301.5" font-family="Helvetica,sans-Serif" font-size="10.00" fill="#000000">/libs/fcc_sdk/engine/meetingclient</text>
<text text-anchor="start" x="675.6133" y="-291.5" font-family="Helvetica,sans-Serif" font-size="10.00" fill="#000000">/src/headers/MeetingClient/proxies</text>
<text text-anchor="middle" x="752.5933" y="-281.5" font-family="Helvetica,sans-Serif" font-size="10.00" fill="#000000">/MeetingClientImpl.hxx</text>
</a>
</g>
</g>
<!-- Node16&#45;&gt;Node23 -->
<g id="edge32" class="edge">
<title>Node16&#45;&gt;Node23</title>
<path fill="none" stroke="#191970" d="M821.3819,-455.9989C805.5076,-421.0375 780.8704,-366.7769 765.7904,-333.5652"/>
<polygon fill="#191970" stroke="#191970" points="818.2905,-457.6562 825.6117,-465.3145 824.6642,-454.7621 818.2905,-457.6562"/>
</g>
<!-- Node25 -->
<g id="node12" class="node">
<title>Node25</title>
<g id="a_node12"><a xlink:href="_meeting_attendee_feature_impl_8hxx.html" target="_top" xlink:title=" ">
<polygon fill="none" stroke="#000000" points="253.6133,-85.5 253.6133,-143.5 423.5732,-143.5 423.5732,-85.5 253.6133,-85.5"/>
<text text-anchor="start" x="261.6133" y="-131.5" font-family="Helvetica,sans-Serif" font-size="10.00" fill="#000000">/Users/oskryp/Projects</text>
<text text-anchor="start" x="261.6133" y="-121.5" font-family="Helvetica,sans-Serif" font-size="10.00" fill="#000000">/freesee&#45;native&#45;client</text>
<text text-anchor="start" x="261.6133" y="-111.5" font-family="Helvetica,sans-Serif" font-size="10.00" fill="#000000">/libs/fcc_sdk/engine/meetingclient</text>
<text text-anchor="start" x="261.6133" y="-101.5" font-family="Helvetica,sans-Serif" font-size="10.00" fill="#000000">/src/headers/MeetingClient/proxies</text>
<text text-anchor="middle" x="338.5933" y="-91.5" font-family="Helvetica,sans-Serif" font-size="10.00" fill="#000000">/MeetingAttendeeFeatureImpl.hxx</text>
</a>
</g>
</g>
<!-- Node16&#45;&gt;Node25 -->
<g id="edge31" class="edge">
<title>Node16&#45;&gt;Node25</title>
<path fill="none" stroke="#191970" d="M719.8625,-470.7498C667.4174,-460.8155 605.1818,-446.9143 550.5933,-429 544.522,-427.0076 135.055,-244.3708 131.5933,-239 117.387,-216.9594 116.0986,-201.1547 131.5933,-180 146.5998,-159.5117 203.1603,-142.4446 253.3718,-130.8735"/>
<polygon fill="#191970" stroke="#191970" points="719.4032,-474.2244 729.876,-472.6211 720.6891,-467.3436 719.4032,-474.2244"/>
</g>
<!-- Node29 -->
<g id="node16" class="node">
<title>Node29</title>
<g id="a_node16"><a xlink:href="_meeting_broadcast_feature_impl_8hxx.html" target="_top" xlink:title=" ">
<polygon fill="none" stroke="#000000" points="969.0566,-180.5 969.0566,-238.5 1140.1299,-238.5 1140.1299,-180.5 969.0566,-180.5"/>
<text text-anchor="start" x="977.0566" y="-226.5" font-family="Helvetica,sans-Serif" font-size="10.00" fill="#000000">/Users/oskryp/Projects</text>
<text text-anchor="start" x="977.0566" y="-216.5" font-family="Helvetica,sans-Serif" font-size="10.00" fill="#000000">/freesee&#45;native&#45;client</text>
<text text-anchor="start" x="977.0566" y="-206.5" font-family="Helvetica,sans-Serif" font-size="10.00" fill="#000000">/libs/fcc_sdk/engine/meetingclient</text>
<text text-anchor="start" x="977.0566" y="-196.5" font-family="Helvetica,sans-Serif" font-size="10.00" fill="#000000">/src/headers/MeetingClient/proxies</text>
<text text-anchor="middle" x="1054.5933" y="-186.5" font-family="Helvetica,sans-Serif" font-size="10.00" fill="#000000">/MeetingBroadcastFeatureImpl.hxx</text>
</a>
</g>
</g>
<!-- Node16&#45;&gt;Node29 -->
<g id="edge33" class="edge">
<title>Node16&#45;&gt;Node29</title>
<path fill="none" stroke="#191970" d="M859.216,-456.8799C876.2454,-432.6201 900.3755,-398.8628 922.5933,-370 958.6843,-323.1146 1002.7066,-270.4319 1029.6864,-238.6214"/>
<polygon fill="#191970" stroke="#191970" points="856.1465,-455.1616 853.28,-465.3613 861.8815,-459.1754 856.1465,-455.1616"/>
</g>
<!-- Node30 -->
<g id="node17" class="node">
<title>Node30</title>
<g id="a_node17"><a xlink:href="_meeting_chat_feature_impl_8hxx.html" target="_top" xlink:title=" ">
<polygon fill="none" stroke="#000000" points="1158.6133,-180.5 1158.6133,-238.5 1328.5732,-238.5 1328.5732,-180.5 1158.6133,-180.5"/>
<text text-anchor="start" x="1166.6133" y="-226.5" font-family="Helvetica,sans-Serif" font-size="10.00" fill="#000000">/Users/oskryp/Projects</text>
<text text-anchor="start" x="1166.6133" y="-216.5" font-family="Helvetica,sans-Serif" font-size="10.00" fill="#000000">/freesee&#45;native&#45;client</text>
<text text-anchor="start" x="1166.6133" y="-206.5" font-family="Helvetica,sans-Serif" font-size="10.00" fill="#000000">/libs/fcc_sdk/engine/meetingclient</text>
<text text-anchor="start" x="1166.6133" y="-196.5" font-family="Helvetica,sans-Serif" font-size="10.00" fill="#000000">/src/headers/MeetingClient/proxies</text>
<text text-anchor="middle" x="1243.5933" y="-186.5" font-family="Helvetica,sans-Serif" font-size="10.00" fill="#000000">/MeetingChatFeatureImpl.hxx</text>
</a>
</g>
</g>
<!-- Node16&#45;&gt;Node30 -->
<g id="edge34" class="edge">
<title>Node16&#45;&gt;Node30</title>
<path fill="none" stroke="#191970" d="M953.064,-472.2347C1013.5113,-461.5206 1079.8063,-446.4777 1104.5933,-429 1173.3434,-380.523 1215.6946,-286.1822 1233.6228,-238.531"/>
<polygon fill="#191970" stroke="#191970" points="952.2816,-468.8182 943.0312,-473.9835 953.4837,-475.7142 952.2816,-468.8182"/>
</g>
<!-- Node31 -->
<g id="node18" class="node">
<title>Node31</title>
<g id="a_node18"><a xlink:href="_meeting_screen_sharing_feature_impl_8hxx.html" target="_top" xlink:title=" ">
<polygon fill="none" stroke="#000000" points="1346.4927,-180.5 1346.4927,-238.5 1538.6938,-238.5 1538.6938,-180.5 1346.4927,-180.5"/>
<text text-anchor="start" x="1354.4927" y="-226.5" font-family="Helvetica,sans-Serif" font-size="10.00" fill="#000000">/Users/oskryp/Projects</text>
<text text-anchor="start" x="1354.4927" y="-216.5" font-family="Helvetica,sans-Serif" font-size="10.00" fill="#000000">/freesee&#45;native&#45;client</text>
<text text-anchor="start" x="1354.4927" y="-206.5" font-family="Helvetica,sans-Serif" font-size="10.00" fill="#000000">/libs/fcc_sdk/engine/meetingclient</text>
<text text-anchor="start" x="1354.4927" y="-196.5" font-family="Helvetica,sans-Serif" font-size="10.00" fill="#000000">/src/headers/MeetingClient/proxies</text>
<text text-anchor="middle" x="1442.5933" y="-186.5" font-family="Helvetica,sans-Serif" font-size="10.00" fill="#000000">/MeetingScreenSharingFeatureImpl.hxx</text>
</a>
</g>
</g>
<!-- Node16&#45;&gt;Node31 -->
<g id="edge35" class="edge">
<title>Node16&#45;&gt;Node31</title>
<path fill="none" stroke="#191970" d="M953.2995,-479.1587C1013.0274,-470.8151 1085.7675,-455.8287 1146.5933,-429 1255.7621,-380.8485 1362.9661,-286.3589 1413.1284,-238.6029"/>
<polygon fill="#191970" stroke="#191970" points="952.5103,-475.7335 943.069,-480.5411 953.4477,-482.6704 952.5103,-475.7335"/>
</g>
<!-- Node32 -->
<g id="node19" class="node">
<title>Node32</title>
<g id="a_node19"><a xlink:href="_meeting_video_feature_impl_8hxx.html" target="_top" xlink:title=" ">
<polygon fill="none" stroke="#000000" points="140.6133,-180.5 140.6133,-238.5 310.5732,-238.5 310.5732,-180.5 140.6133,-180.5"/>
<text text-anchor="start" x="148.6133" y="-226.5" font-family="Helvetica,sans-Serif" font-size="10.00" fill="#000000">/Users/oskryp/Projects</text>
<text text-anchor="start" x="148.6133" y="-216.5" font-family="Helvetica,sans-Serif" font-size="10.00" fill="#000000">/freesee&#45;native&#45;client</text>
<text text-anchor="start" x="148.6133" y="-206.5" font-family="Helvetica,sans-Serif" font-size="10.00" fill="#000000">/libs/fcc_sdk/engine/meetingclient</text>
<text text-anchor="start" x="148.6133" y="-196.5" font-family="Helvetica,sans-Serif" font-size="10.00" fill="#000000">/src/headers/MeetingClient/proxies</text>
<text text-anchor="middle" x="225.5933" y="-186.5" font-family="Helvetica,sans-Serif" font-size="10.00" fill="#000000">/MeetingVideoFeatureImpl.hxx</text>
</a>
</g>
</g>
<!-- Node16&#45;&gt;Node32 -->
<g id="edge36" class="edge">
<title>Node16&#45;&gt;Node32</title>
<path fill="none" stroke="#191970" d="M761.8399,-461.8947C735.9307,-451.9615 706.8151,-440.3882 680.5933,-429 534.786,-365.6756 367.3639,-281.9897 282.0235,-238.5174"/>
<polygon fill="#191970" stroke="#191970" points="760.6383,-465.1822 771.2291,-465.4766 763.1335,-458.642 760.6383,-465.1822"/>
</g>
<!-- Node33 -->
<g id="node20" class="node">
<title>Node33</title>
<g id="a_node20"><a xlink:href="_meeting_vo_i_p_feature_impl_8hxx.html" target="_top" xlink:title=" ">
<polygon fill="none" stroke="#000000" points="554.6133,-180.5 554.6133,-238.5 724.5732,-238.5 724.5732,-180.5 554.6133,-180.5"/>
<text text-anchor="start" x="562.6133" y="-226.5" font-family="Helvetica,sans-Serif" font-size="10.00" fill="#000000">/Users/oskryp/Projects</text>
<text text-anchor="start" x="562.6133" y="-216.5" font-family="Helvetica,sans-Serif" font-size="10.00" fill="#000000">/freesee&#45;native&#45;client</text>
<text text-anchor="start" x="562.6133" y="-206.5" font-family="Helvetica,sans-Serif" font-size="10.00" fill="#000000">/libs/fcc_sdk/engine/meetingclient</text>
<text text-anchor="start" x="562.6133" y="-196.5" font-family="Helvetica,sans-Serif" font-size="10.00" fill="#000000">/src/headers/MeetingClient/proxies</text>
<text text-anchor="middle" x="639.5933" y="-186.5" font-family="Helvetica,sans-Serif" font-size="10.00" fill="#000000">/MeetingVoIPFeatureImpl.hxx</text>
</a>
</g>
</g>
<!-- Node16&#45;&gt;Node33 -->
<g id="edge37" class="edge">
<title>Node16&#45;&gt;Node33</title>
<path fill="none" stroke="#191970" d="M786.1883,-459.7701C744.8158,-432.5232 688.369,-388.2329 658.5933,-334 642.3354,-304.3883 638.7809,-265.1721 638.518,-238.7298"/>
<polygon fill="#191970" stroke="#191970" points="784.4755,-462.8306 794.7729,-465.3231 788.2774,-456.953 784.4755,-462.8306"/>
</g>
<!-- Node34 -->
<g id="node21" class="node">
<title>Node34</title>
<g id="a_node21"><a xlink:href="_raw_r_t_messages_feature_impl_8hxx.html" target="_top" xlink:title=" ">
<polygon fill="none" stroke="#000000" points="780.6133,-180.5 780.6133,-238.5 950.5732,-238.5 950.5732,-180.5 780.6133,-180.5"/>
<text text-anchor="start" x="788.6133" y="-226.5" font-family="Helvetica,sans-Serif" font-size="10.00" fill="#000000">/Users/oskryp/Projects</text>
<text text-anchor="start" x="788.6133" y="-216.5" font-family="Helvetica,sans-Serif" font-size="10.00" fill="#000000">/freesee&#45;native&#45;client</text>
<text text-anchor="start" x="788.6133" y="-206.5" font-family="Helvetica,sans-Serif" font-size="10.00" fill="#000000">/libs/fcc_sdk/engine/meetingclient</text>
<text text-anchor="start" x="788.6133" y="-196.5" font-family="Helvetica,sans-Serif" font-size="10.00" fill="#000000">/src/headers/MeetingClient/proxies</text>
<text text-anchor="middle" x="865.5933" y="-186.5" font-family="Helvetica,sans-Serif" font-size="10.00" fill="#000000">/RawRTMessagesFeatureImpl.hxx</text>
</a>
</g>
</g>
<!-- Node16&#45;&gt;Node34 -->
<g id="edge38" class="edge">
<title>Node16&#45;&gt;Node34</title>
<path fill="none" stroke="#191970" d="M840.1594,-455.068C845.926,-399.391 857.1944,-290.5924 862.583,-238.5649"/>
<polygon fill="#191970" stroke="#191970" points="836.665,-454.8343 839.1161,-465.1417 843.6278,-455.5555 836.665,-454.8343"/>
</g>
<!-- Node18 -->
<g id="node5" class="node">
<title>Node18</title>
<g id="a_node5"><a xlink:href="_meeting_session_parameters_builder_8hxx.html" target="_top" xlink:title=" ">
<polygon fill="none" stroke="#000000" points="1695.5913,-275.5 1695.5913,-333.5 1935.5952,-333.5 1935.5952,-275.5 1695.5913,-275.5"/>
<text text-anchor="start" x="1703.5913" y="-321.5" font-family="Helvetica,sans-Serif" font-size="10.00" fill="#000000">/Users/oskryp/Projects</text>
<text text-anchor="start" x="1703.5913" y="-311.5" font-family="Helvetica,sans-Serif" font-size="10.00" fill="#000000">/freesee&#45;native&#45;client</text>
<text text-anchor="start" x="1703.5913" y="-301.5" font-family="Helvetica,sans-Serif" font-size="10.00" fill="#000000">/libs/fcc_sdk/engine/meetingclient</text>
<text text-anchor="start" x="1703.5913" y="-291.5" font-family="Helvetica,sans-Serif" font-size="10.00" fill="#000000">/include/MeetingClient/MeetingSessionParameters</text>
<text text-anchor="middle" x="1815.5933" y="-281.5" font-family="Helvetica,sans-Serif" font-size="10.00" fill="#000000">Builder.hxx</text>
</a>
</g>
</g>
<!-- Node17&#45;&gt;Node18 -->
<g id="edge4" class="edge">
<title>Node17&#45;&gt;Node18</title>
<path fill="none" stroke="#191970" d="M1693.5203,-370.3916C1715.168,-358.7068 1740.0691,-345.2659 1761.7122,-333.5835"/>
<polygon fill="#191970" stroke="#191970" points="1691.5983,-367.4517 1684.4609,-375.2817 1694.9233,-373.6117 1691.5983,-367.4517"/>
</g>
<!-- Node20 -->
<g id="node7" class="node">
<title>Node20</title>
<g id="a_node7"><a xlink:href="_free_see_a_p_i2_impl_8cxx.html" target="_top" xlink:title=" ">
<polygon fill="none" stroke="#000000" points="1556.2905,-185.5 1556.2905,-233.5 1722.896,-233.5 1722.896,-185.5 1556.2905,-185.5"/>
<text text-anchor="start" x="1564.2905" y="-221.5" font-family="Helvetica,sans-Serif" font-size="10.00" fill="#000000">/Users/oskryp/Projects</text>
<text text-anchor="start" x="1564.2905" y="-211.5" font-family="Helvetica,sans-Serif" font-size="10.00" fill="#000000">/freesee&#45;native&#45;client</text>
<text text-anchor="start" x="1564.2905" y="-201.5" font-family="Helvetica,sans-Serif" font-size="10.00" fill="#000000">/libs/fcc_sdk/engine/meetingclient</text>
<text text-anchor="middle" x="1639.5933" y="-191.5" font-family="Helvetica,sans-Serif" font-size="10.00" fill="#000000">/src/proxies/FreeSeeAPI2Impl.cxx</text>
</a>
</g>
</g>
<!-- Node17&#45;&gt;Node20 -->
<g id="edge6" class="edge">
<title>Node17&#45;&gt;Node20</title>
<path fill="none" stroke="#191970" d="M1639.5933,-365.3637C1639.5933,-327.4003 1639.5933,-267.039 1639.5933,-233.6676"/>
<polygon fill="#191970" stroke="#191970" points="1636.0934,-365.4363 1639.5933,-375.4364 1643.0934,-365.4364 1636.0934,-365.4363"/>
</g>
<!-- Node19 -->
<g id="node6" class="node">
<title>Node19</title>
<g id="a_node6"><a xlink:href="_meeting_session_parameters_builder_8cxx.html" target="_top" xlink:title=" ">
<polygon fill="none" stroke="#000000" points="1740.5518,-185.5 1740.5518,-233.5 1946.6348,-233.5 1946.6348,-185.5 1740.5518,-185.5"/>
<text text-anchor="start" x="1748.5518" y="-221.5" font-family="Helvetica,sans-Serif" font-size="10.00" fill="#000000">/Users/oskryp/Projects</text>
<text text-anchor="start" x="1748.5518" y="-211.5" font-family="Helvetica,sans-Serif" font-size="10.00" fill="#000000">/freesee&#45;native&#45;client</text>
<text text-anchor="start" x="1748.5518" y="-201.5" font-family="Helvetica,sans-Serif" font-size="10.00" fill="#000000">/libs/fcc_sdk/engine/meetingclient</text>
<text text-anchor="middle" x="1843.5933" y="-191.5" font-family="Helvetica,sans-Serif" font-size="10.00" fill="#000000">/src/MeetingSessionParametersBuilder.cxx</text>
</a>
</g>
</g>
<!-- Node18&#45;&gt;Node19 -->
<g id="edge5" class="edge">
<title>Node18&#45;&gt;Node19</title>
<path fill="none" stroke="#191970" d="M1827.0212,-265.7268C1830.2308,-254.837 1833.6272,-243.3136 1836.5039,-233.5531"/>
<polygon fill="#191970" stroke="#191970" points="1823.6163,-264.8991 1824.1463,-275.4807 1830.3307,-266.8781 1823.6163,-264.8991"/>
</g>
<!-- Node22&#45;&gt;Node23 -->
<g id="edge9" class="edge">
<title>Node22&#45;&gt;Node23</title>
<path fill="none" stroke="#191970" d="M207.4796,-385.4153C331.8623,-366.9522 548.1938,-334.8405 667.51,-317.1295"/>
<polygon fill="#191970" stroke="#191970" points="206.958,-381.9543 197.5803,-386.8847 207.9859,-388.8784 206.958,-381.9543"/>
</g>
<!-- Node35 -->
<g id="node22" class="node">
<title>Node35</title>
<g id="a_node22"><a xlink:href="_active_speaker_manager2_8cxx.html" target="_top" xlink:title=" ">
<polygon fill="none" stroke="#000000" points="0,-280.5 0,-328.5 197.1865,-328.5 197.1865,-280.5 0,-280.5"/>
<text text-anchor="start" x="8" y="-316.5" font-family="Helvetica,sans-Serif" font-size="10.00" fill="#000000">/Users/oskryp/Projects</text>
<text text-anchor="start" x="8" y="-306.5" font-family="Helvetica,sans-Serif" font-size="10.00" fill="#000000">/freesee&#45;native&#45;client</text>
<text text-anchor="start" x="8" y="-296.5" font-family="Helvetica,sans-Serif" font-size="10.00" fill="#000000">/libs/fcc_sdk/engine/meetingclient</text>
<text text-anchor="middle" x="98.5933" y="-286.5" font-family="Helvetica,sans-Serif" font-size="10.00" fill="#000000">/src/proxies/ActiveSpeakerManager2.cxx</text>
</a>
</g>
</g>
<!-- Node22&#45;&gt;Node35 -->
<g id="edge30" class="edge">
<title>Node22&#45;&gt;Node35</title>
<path fill="none" stroke="#191970" d="M106.8302,-360.3932C105.2399,-349.602 103.5616,-338.214 102.1379,-328.5531"/>
<polygon fill="#191970" stroke="#191970" points="103.3961,-361.0978 108.3167,-370.4807 110.3213,-360.0772 103.3961,-361.0978"/>
</g>
<!-- Node23&#45;&gt;Node20 -->
<g id="edge28" class="edge">
<title>Node23&#45;&gt;Node20</title>
<path fill="none" stroke="#191970" d="M847.861,-299.38C1028.863,-289.2012 1416.1164,-265.1387 1547.5933,-239 1555.0786,-237.5119 1562.8094,-235.6208 1570.4619,-233.5171"/>
<polygon fill="#191970" stroke="#191970" points="847.6081,-295.8886 837.8195,-299.9423 847.9996,-302.8776 847.6081,-295.8886"/>
</g>
<!-- Node24 -->
<g id="node11" class="node">
<title>Node24</title>
<g id="a_node11"><a xlink:href="_meeting_attendee_impl_8hxx.html" target="_top" xlink:title=" ">
<polygon fill="none" stroke="#000000" points="366.6133,-180.5 366.6133,-238.5 536.5732,-238.5 536.5732,-180.5 366.6133,-180.5"/>
<text text-anchor="start" x="374.6133" y="-226.5" font-family="Helvetica,sans-Serif" font-size="10.00" fill="#000000">/Users/oskryp/Projects</text>
<text text-anchor="start" x="374.6133" y="-216.5" font-family="Helvetica,sans-Serif" font-size="10.00" fill="#000000">/freesee&#45;native&#45;client</text>
<text text-anchor="start" x="374.6133" y="-206.5" font-family="Helvetica,sans-Serif" font-size="10.00" fill="#000000">/libs/fcc_sdk/engine/meetingclient</text>
<text text-anchor="start" x="374.6133" y="-196.5" font-family="Helvetica,sans-Serif" font-size="10.00" fill="#000000">/src/headers/MeetingClient/proxies</text>
<text text-anchor="middle" x="451.5933" y="-186.5" font-family="Helvetica,sans-Serif" font-size="10.00" fill="#000000">/MeetingAttendeeImpl.hxx</text>
</a>
</g>
</g>
<!-- Node23&#45;&gt;Node24 -->
<g id="edge10" class="edge">
<title>Node23&#45;&gt;Node24</title>
<path fill="none" stroke="#191970" d="M657.8109,-274.5853C619.0029,-262.3369 574.4397,-248.2721 536.6914,-236.3582"/>
<polygon fill="#191970" stroke="#191970" points="656.9559,-277.9856 667.5457,-277.6577 659.0628,-271.3102 656.9559,-277.9856"/>
</g>
<!-- Node23&#45;&gt;Node25 -->
<g id="edge15" class="edge">
<title>Node23&#45;&gt;Node25</title>
<path fill="none" stroke="#191970" d="M657.1414,-294.5552C547.05,-282.1835 378.4303,-260.1073 357.5933,-239 333.0927,-214.1817 331.7466,-171.96 334.2131,-143.6553"/>
<polygon fill="#191970" stroke="#191970" points="656.9483,-298.0553 667.2747,-295.6852 657.7242,-291.0984 656.9483,-298.0553"/>
</g>
<!-- Node27 -->
<g id="node14" class="node">
<title>Node27</title>
<g id="a_node14"><a xlink:href="_meeting_client_impl_8cxx.html" target="_top" xlink:title=" ">
<polygon fill="none" stroke="#000000" points="705.7363,-.5 705.7363,-48.5 873.4502,-48.5 873.4502,-.5 705.7363,-.5"/>
<text text-anchor="start" x="713.7363" y="-36.5" font-family="Helvetica,sans-Serif" font-size="10.00" fill="#000000">/Users/oskryp/Projects</text>
<text text-anchor="start" x="713.7363" y="-26.5" font-family="Helvetica,sans-Serif" font-size="10.00" fill="#000000">/freesee&#45;native&#45;client</text>
<text text-anchor="start" x="713.7363" y="-16.5" font-family="Helvetica,sans-Serif" font-size="10.00" fill="#000000">/libs/fcc_sdk/engine/meetingclient</text>
<text text-anchor="middle" x="789.5933" y="-6.5" font-family="Helvetica,sans-Serif" font-size="10.00" fill="#000000">/src/proxies/MeetingClientImpl.cxx</text>
</a>
</g>
</g>
<!-- Node23&#45;&gt;Node27 -->
<g id="edge29" class="edge">
<title>Node23&#45;&gt;Node27</title>
<path fill="none" stroke="#191970" d="M757.7722,-265.3082C765.5408,-206.5184 779.9817,-97.2364 786.3888,-48.7498"/>
<polygon fill="#191970" stroke="#191970" points="754.2885,-264.9551 756.4482,-275.3275 761.2282,-265.8722 754.2885,-264.9551"/>
</g>
<!-- Node23&#45;&gt;Node29 -->
<g id="edge16" class="edge">
<title>Node23&#45;&gt;Node29</title>
<path fill="none" stroke="#191970" d="M847.6695,-274.5919C886.5216,-262.3702 931.1259,-248.3391 968.9506,-236.4406"/>
<polygon fill="#191970" stroke="#191970" points="846.4123,-271.3182 837.9234,-277.6577 848.5128,-277.9956 846.4123,-271.3182"/>
</g>
<!-- Node23&#45;&gt;Node30 -->
<g id="edge18" class="edge">
<title>Node23&#45;&gt;Node30</title>
<path fill="none" stroke="#191970" d="M847.8622,-292.6144C928.7532,-281.6112 1047.606,-263.2893 1149.5933,-239 1152.5051,-238.3065 1155.458,-237.57 1158.4329,-236.7996"/>
<polygon fill="#191970" stroke="#191970" points="847.138,-289.1803 837.6957,-293.9859 848.0739,-296.1174 847.138,-289.1803"/>
</g>
<!-- Node23&#45;&gt;Node31 -->
<g id="edge20" class="edge">
<title>Node23&#45;&gt;Node31</title>
<path fill="none" stroke="#191970" d="M848.3259,-298.572C964.7777,-290.2628 1166.9577,-272.294 1337.5933,-239 1340.4739,-238.4379 1343.3906,-237.8358 1346.3284,-237.2005"/>
<polygon fill="#191970" stroke="#191970" points="847.7488,-295.1039 838.0195,-299.2981 848.2408,-302.0866 847.7488,-295.1039"/>
</g>
<!-- Node23&#45;&gt;Node32 -->
<g id="edge22" class="edge">
<title>Node23&#45;&gt;Node32</title>
<path fill="none" stroke="#191970" d="M657.3518,-293.7433C570.1507,-282.9934 437.8314,-264.4092 324.5933,-239 320.0435,-237.9791 315.3967,-236.8613 310.7195,-235.6767"/>
<polygon fill="#191970" stroke="#191970" points="657.1427,-297.2437 667.4935,-294.9832 657.9923,-290.2954 657.1427,-297.2437"/>
</g>
<!-- Node23&#45;&gt;Node33 -->
<g id="edge24" class="edge">
<title>Node23&#45;&gt;Node33</title>
<path fill="none" stroke="#191970" d="M710.409,-269.0354C698.5069,-259.0292 685.6975,-248.2602 674.289,-238.669"/>
<polygon fill="#191970" stroke="#191970" points="708.1688,-271.7246 718.0755,-275.4807 712.6734,-266.3665 708.1688,-271.7246"/>
</g>
<!-- Node23&#45;&gt;Node34 -->
<g id="edge26" class="edge">
<title>Node23&#45;&gt;Node34</title>
<path fill="none" stroke="#191970" d="M794.7775,-269.0354C806.6796,-259.0292 819.4891,-248.2602 830.8975,-238.669"/>
<polygon fill="#191970" stroke="#191970" points="792.5131,-266.3665 787.111,-275.4807 797.0177,-271.7246 792.5131,-266.3665"/>
</g>
<!-- Node24&#45;&gt;Node25 -->
<g id="edge11" class="edge">
<title>Node24&#45;&gt;Node25</title>
<path fill="none" stroke="#191970" d="M409.409,-174.0354C397.5069,-164.0292 384.6975,-153.2602 373.289,-143.669"/>
<polygon fill="#191970" stroke="#191970" points="407.1688,-176.7246 417.0755,-180.4807 411.6734,-171.3665 407.1688,-176.7246"/>
</g>
<!-- Node28 -->
<g id="node15" class="node">
<title>Node28</title>
<g id="a_node15"><a xlink:href="_meeting_attendee_impl_8cxx.html" target="_top" xlink:title=" ">
<polygon fill="none" stroke="#000000" points="479.5024,-90.5 479.5024,-138.5 661.6841,-138.5 661.6841,-90.5 479.5024,-90.5"/>
<text text-anchor="start" x="487.5024" y="-126.5" font-family="Helvetica,sans-Serif" font-size="10.00" fill="#000000">/Users/oskryp/Projects</text>
<text text-anchor="start" x="487.5024" y="-116.5" font-family="Helvetica,sans-Serif" font-size="10.00" fill="#000000">/freesee&#45;native&#45;client</text>
<text text-anchor="start" x="487.5024" y="-106.5" font-family="Helvetica,sans-Serif" font-size="10.00" fill="#000000">/libs/fcc_sdk/engine/meetingclient</text>
<text text-anchor="middle" x="570.5933" y="-96.5" font-family="Helvetica,sans-Serif" font-size="10.00" fill="#000000">/src/proxies/MeetingAttendeeImpl.cxx</text>
</a>
</g>
</g>
<!-- Node24&#45;&gt;Node28 -->
<g id="edge14" class="edge">
<title>Node24&#45;&gt;Node28</title>
<path fill="none" stroke="#191970" d="M496.014,-174.038C510.8338,-162.2071 526.9898,-149.3095 540.4636,-138.5531"/>
<polygon fill="#191970" stroke="#191970" points="493.5753,-171.5064 487.9438,-180.4807 497.9425,-176.977 493.5753,-171.5064"/>
</g>
<!-- Node26 -->
<g id="node13" class="node">
<title>Node26</title>
<g id="a_node13"><a xlink:href="_meeting_attendee_feature_impl_8cxx.html" target="_top" xlink:title=" ">
<polygon fill="none" stroke="#000000" points="230.271,-.5 230.271,-48.5 446.9155,-48.5 446.9155,-.5 230.271,-.5"/>
<text text-anchor="start" x="238.271" y="-36.5" font-family="Helvetica,sans-Serif" font-size="10.00" fill="#000000">/Users/oskryp/Projects</text>
<text text-anchor="start" x="238.271" y="-26.5" font-family="Helvetica,sans-Serif" font-size="10.00" fill="#000000">/freesee&#45;native&#45;client</text>
<text text-anchor="start" x="238.271" y="-16.5" font-family="Helvetica,sans-Serif" font-size="10.00" fill="#000000">/libs/fcc_sdk/engine/meetingclient</text>
<text text-anchor="middle" x="338.5933" y="-6.5" font-family="Helvetica,sans-Serif" font-size="10.00" fill="#000000">/src/proxies/MeetingAttendeeFeatureImpl.cxx</text>
</a>
</g>
</g>
<!-- Node25&#45;&gt;Node26 -->
<g id="edge12" class="edge">
<title>Node25&#45;&gt;Node26</title>
<path fill="none" stroke="#191970" d="M338.5933,-74.7825C338.5933,-65.8703 338.5933,-56.6778 338.5933,-48.6294"/>
<polygon fill="#191970" stroke="#191970" points="335.0934,-75.0306 338.5933,-85.0306 342.0934,-75.0307 335.0934,-75.0306"/>
</g>
<!-- Node25&#45;&gt;Node27 -->
<g id="edge13" class="edge">
<title>Node25&#45;&gt;Node27</title>
<path fill="none" stroke="#191970" d="M433.7404,-85.9169C435.0316,-85.6047 436.3163,-85.2989 437.5933,-85 528.3076,-63.7687 633.7917,-46.619 705.4602,-36.0733"/>
<polygon fill="#191970" stroke="#191970" points="432.5909,-82.5968 423.7427,-88.4243 434.2937,-89.3865 432.5909,-82.5968"/>
</g>
<!-- Node29&#45;&gt;Node27 -->
<g id="edge17" class="edge">
<title>Node29&#45;&gt;Node27</title>
<path fill="none" stroke="#191970" d="M1004.3741,-174.4413C951.6851,-137.6584 870.2654,-80.8183 824.2911,-48.723"/>
<polygon fill="#191970" stroke="#191970" points="1002.6924,-177.5358 1012.8955,-180.3902 1006.6994,-171.7961 1002.6924,-177.5358"/>
</g>
<!-- Node30&#45;&gt;Node27 -->
<g id="edge19" class="edge">
<title>Node30&#45;&gt;Node27</title>
<path fill="none" stroke="#191970" d="M1163.0459,-176.6779C1072.9307,-139.9569 929.0837,-81.3408 848.7591,-48.6094"/>
<polygon fill="#191970" stroke="#191970" points="1161.8248,-179.9596 1172.4062,-180.4921 1164.4663,-173.4771 1161.8248,-179.9596"/>
</g>
<!-- Node31&#45;&gt;Node27 -->
<g id="edge21" class="edge">
<title>Node31&#45;&gt;Node27</title>
<path fill="none" stroke="#191970" d="M1338.8245,-177.5404C1254.2147,-151.7535 1131.4891,-114.9676 1023.5933,-85 973.965,-71.216 918.1299,-56.7409 873.4503,-45.4066"/>
<polygon fill="#191970" stroke="#191970" points="1337.848,-180.9017 1348.4342,-180.4719 1339.8905,-174.2063 1337.848,-180.9017"/>
</g>
<!-- Node32&#45;&gt;Node27 -->
<g id="edge23" class="edge">
<title>Node32&#45;&gt;Node27</title>
<path fill="none" stroke="#191970" d="M320.5242,-186.1517C365.8709,-173.6811 414.2127,-158.0465 432.5933,-144 457.3756,-125.0613 444.7284,-102.4312 470.5933,-85 508.1643,-59.6797 624.3317,-42.3032 705.5754,-32.878"/>
<polygon fill="#191970" stroke="#191970" points="319.3379,-182.8469 310.6036,-188.8438 321.1712,-189.6026 319.3379,-182.8469"/>
</g>
<!-- Node33&#45;&gt;Node27 -->
<g id="edge25" class="edge">
<title>Node33&#45;&gt;Node27</title>
<path fill="none" stroke="#191970" d="M668.7259,-172.2952C688.3028,-147.4351 714.7804,-114.0827 738.5933,-85 748.5147,-72.8829 759.7133,-59.5602 769.0842,-48.5086"/>
<polygon fill="#191970" stroke="#191970" points="665.7965,-170.3582 662.3651,-180.382 671.2985,-174.6859 665.7965,-170.3582"/>
</g>
<!-- Node34&#45;&gt;Node27 -->
<g id="edge27" class="edge">
<title>Node34&#45;&gt;Node27</title>
<path fill="none" stroke="#191970" d="M849.6785,-170.76C834.5503,-133.9348 812.2696,-79.699 799.5207,-48.6655"/>
<polygon fill="#191970" stroke="#191970" points="846.5134,-172.2663 853.5508,-180.1862 852.9883,-169.6063 846.5134,-172.2663"/>
</g>
</g>
</svg>
        <g id="navigator" transform="translate(0 0)" fill="#404254">
                <rect fill="#f2f5e9" fill-opacity="0.5" stroke="#606060" stroke-width=".5" x="0" y="0" width="60" height="60"/>
                <use id="zoomplus" xlink:href="#zoomPlus" x="17" y="9" onmousedown="handleZoom(evt,'in')"/>
                <use id="zoomminus" xlink:href="#zoomMin" x="42" y="9" onmousedown="handleZoom(evt,'out')"/>
                <use id="reset" xlink:href="#resetDef" x="30" y="36" onmousedown="handleReset()"/>
                <g id="arrowUp" xlink:href="#dirArrow" transform="translate(30 24)" onmousedown="handlePan(0,-1)">
                  <use xlink:href="#rim" fill="#404040">
                        <set attributeName="fill" to="#808080" begin="arrowUp.mouseover" end="arrowUp.mouseout"/>
                  </use>
                  <path fill="none" stroke="white" stroke-width="1.5" d="M0,-3.0v7 M-2.5,-0.5L0,-3.0L2.5,-0.5"/>
                </g>
                <g id="arrowRight" xlink:href="#dirArrow" transform="rotate(90) translate(36 -43)" onmousedown="handlePan(1,0)">
                  <use xlink:href="#rim" fill="#404040">
                        <set attributeName="fill" to="#808080" begin="arrowRight.mouseover" end="arrowRight.mouseout"/>
                  </use>
                  <path fill="none" stroke="white" stroke-width="1.5" d="M0,-3.0v7 M-2.5,-0.5L0,-3.0L2.5,-0.5"/>
                </g>
                <g id="arrowDown" xlink:href="#dirArrow" transform="rotate(180) translate(-30 -48)" onmousedown="handlePan(0,1)">
                  <use xlink:href="#rim" fill="#404040">
                        <set attributeName="fill" to="#808080" begin="arrowDown.mouseover" end="arrowDown.mouseout"/>
                  </use>
                  <path fill="none" stroke="white" stroke-width="1.5" d="M0,-3.0v7 M-2.5,-0.5L0,-3.0L2.5,-0.5"/>
                </g>
                <g id="arrowLeft" xlink:href="#dirArrow" transform="rotate(270) translate(-36 17)" onmousedown="handlePan(-1,0)">
                  <use xlink:href="#rim" fill="#404040">
                        <set attributeName="fill" to="#808080" begin="arrowLeft.mouseover" end="arrowLeft.mouseout"/>
                  </use>
                  <path fill="none" stroke="white" stroke-width="1.5" d="M0,-3.0v7 M-2.5,-0.5L0,-3.0L2.5,-0.5"/>
                </g>
        </g>
        <svg viewBox="0 0 15 15" width="100%" height="30px" preserveAspectRatio="xMaxYMin meet">
         <g id="arrow_out" transform="scale(0.3 0.3)">
          <a xlink:href="_meeting_attendee_struct_8hxx__dep__incl_org.svg" target="_base">
           <rect id="button" ry="5" rx="5" y="6" x="6" height="38" width="38"
                fill="#f2f5e9" fill-opacity="0.5" stroke="#606060" stroke-width="1.0"/>
           <path id="arrow"
             d="M 11.500037,31.436501 C 11.940474,20.09759 22.043105,11.32322 32.158766,21.979434 L 37.068811,17.246167 C 37.068811,17.246167 37.088388,32 37.088388,32 L 22.160133,31.978069 C 22.160133,31.978069 26.997745,27.140456 26.997745,27.140456 C 18.528582,18.264221 13.291696,25.230495 11.500037,31.436501 z"
             style="fill:#404040;"/>
          </a>
         </g>
        </svg>
</svg>
