<?xml version="1.0" encoding="UTF-8" standalone="no"?>
<!DOCTYPE svg PUBLIC "-//W3C//DTD SVG 1.1//EN"
 "http://www.w3.org/Graphics/SVG/1.1/DTD/svg11.dtd">
<!-- Generated by graphviz version 2.40.1 (20161225.0304)
 -->
<!-- Title: /Users/oskryp/Projects/freesee&#45;native&#45;client/libs/fcc_sdk/engine/meetingclient/include/MeetingClient/MeetingClientAPI.hxx Pages: 1 -->
<svg width="1848pt" height="522pt"
 viewBox="0.00 0.00 1848.38 522.00" xmlns="http://www.w3.org/2000/svg" xmlns:xlink="http://www.w3.org/1999/xlink">
<g id="graph0" class="graph" transform="scale(1 1) rotate(0) translate(4 518)">
<title>/Users/oskryp/Projects/freesee&#45;native&#45;client/libs/fcc_sdk/engine/meetingclient/include/MeetingClient/MeetingClientAPI.hxx</title>
<!-- Node40 -->
<g id="node1" class="node">
<title>Node40</title>
<g id="a_node1"><a xlink:title=" ">
<polygon fill="#bfbfbf" stroke="#000000" points="982.0121,-465.5 982.0121,-513.5 1194.7796,-513.5 1194.7796,-465.5 982.0121,-465.5"/>
<text text-anchor="start" x="990.0121" y="-501.5" font-family="Helvetica,sans-Serif" font-size="10.00" fill="#000000">/Users/oskryp/Projects</text>
<text text-anchor="start" x="990.0121" y="-491.5" font-family="Helvetica,sans-Serif" font-size="10.00" fill="#000000">/freesee&#45;native&#45;client</text>
<text text-anchor="start" x="990.0121" y="-481.5" font-family="Helvetica,sans-Serif" font-size="10.00" fill="#000000">/libs/fcc_sdk/engine/meetingclient</text>
<text text-anchor="middle" x="1088.3958" y="-471.5" font-family="Helvetica,sans-Serif" font-size="10.00" fill="#000000">/include/MeetingClient/MeetingClientAPI.hxx</text>
</a>
</g>
</g>
<!-- Node41 -->
<g id="node2" class="node">
<title>Node41</title>
<g id="a_node2"><a xlink:href="_services_8hxx.html" target="_top" xlink:title=" ">
<polygon fill="none" stroke="#000000" points="254.4701,-375.5 254.4701,-423.5 428.3216,-423.5 428.3216,-375.5 254.4701,-375.5"/>
<text text-anchor="start" x="262.4701" y="-411.5" font-family="Helvetica,sans-Serif" font-size="10.00" fill="#000000">/Users/oskryp/Projects</text>
<text text-anchor="start" x="262.4701" y="-401.5" font-family="Helvetica,sans-Serif" font-size="10.00" fill="#000000">/freesee&#45;native&#45;client</text>
<text text-anchor="start" x="262.4701" y="-391.5" font-family="Helvetica,sans-Serif" font-size="10.00" fill="#000000">/libs/fcc_sdk/engine/meetingclient</text>
<text text-anchor="middle" x="341.3958" y="-381.5" font-family="Helvetica,sans-Serif" font-size="10.00" fill="#000000">/include/MeetingClient/Services.hxx</text>
</a>
</g>
</g>
<!-- Node40&#45;&gt;Node41 -->
<g id="edge1" class="edge">
<title>Node40&#45;&gt;Node41</title>
<path fill="none" stroke="#191970" d="M971.5667,-475.4242C821.0907,-457.2946 562.9707,-426.1958 428.5418,-409.9995"/>
<polygon fill="#191970" stroke="#191970" points="971.419,-478.9316 981.7659,-476.653 972.2564,-471.9819 971.419,-478.9316"/>
</g>
<!-- Node45 -->
<g id="node6" class="node">
<title>Node45</title>
<g id="a_node6"><a xlink:href="_bundled_attendee_8cxx.html" target="_top" xlink:title=" ">
<polygon fill="none" stroke="#000000" points="1305.911,-375.5 1305.911,-423.5 1470.8807,-423.5 1470.8807,-375.5 1305.911,-375.5"/>
<text text-anchor="start" x="1313.911" y="-411.5" font-family="Helvetica,sans-Serif" font-size="10.00" fill="#000000">/Users/oskryp/Projects</text>
<text text-anchor="start" x="1313.911" y="-401.5" font-family="Helvetica,sans-Serif" font-size="10.00" fill="#000000">/freesee&#45;native&#45;client</text>
<text text-anchor="start" x="1313.911" y="-391.5" font-family="Helvetica,sans-Serif" font-size="10.00" fill="#000000">/libs/fcc_sdk/engine/meetingclient</text>
<text text-anchor="middle" x="1388.3958" y="-381.5" font-family="Helvetica,sans-Serif" font-size="10.00" fill="#000000">/src/BundledAttendee.cxx</text>
</a>
</g>
</g>
<!-- Node40&#45;&gt;Node45 -->
<g id="edge5" class="edge">
<title>Node40&#45;&gt;Node45</title>
<path fill="none" stroke="#191970" d="M1180.1068,-462.5098C1215.2506,-452.1125 1255.7064,-440.0774 1292.3958,-429 1298.2379,-427.2361 1304.277,-425.4032 1310.35,-423.553"/>
<polygon fill="#191970" stroke="#191970" points="1178.94,-459.205 1170.3428,-465.3968 1180.9248,-465.9177 1178.94,-459.205"/>
</g>
<!-- Node46 -->
<g id="node7" class="node">
<title>Node46</title>
<g id="a_node7"><a xlink:href="_active_speaker_manager_impl_8hxx.html" target="_top" xlink:title=" ">
<polygon fill="none" stroke="#000000" points="890.4159,-370.5 890.4159,-428.5 1060.3758,-428.5 1060.3758,-370.5 890.4159,-370.5"/>
<text text-anchor="start" x="898.4159" y="-416.5" font-family="Helvetica,sans-Serif" font-size="10.00" fill="#000000">/Users/oskryp/Projects</text>
<text text-anchor="start" x="898.4159" y="-406.5" font-family="Helvetica,sans-Serif" font-size="10.00" fill="#000000">/freesee&#45;native&#45;client</text>
<text text-anchor="start" x="898.4159" y="-396.5" font-family="Helvetica,sans-Serif" font-size="10.00" fill="#000000">/libs/fcc_sdk/engine/meetingclient</text>
<text text-anchor="start" x="898.4159" y="-386.5" font-family="Helvetica,sans-Serif" font-size="10.00" fill="#000000">/src/headers/MeetingClient/proxies</text>
<text text-anchor="middle" x="975.3958" y="-376.5" font-family="Helvetica,sans-Serif" font-size="10.00" fill="#000000">/ActiveSpeakerManagerImpl.hxx</text>
</a>
</g>
</g>
<!-- Node40&#45;&gt;Node46 -->
<g id="edge6" class="edge">
<title>Node40&#45;&gt;Node46</title>
<path fill="none" stroke="#191970" d="M1050.2582,-459.1249C1037.9763,-449.3428 1024.3954,-438.5262 1012.2106,-428.8215"/>
<polygon fill="#191970" stroke="#191970" points="1048.1112,-461.8893 1058.1139,-465.3817 1052.4723,-456.4138 1048.1112,-461.8893"/>
</g>
<!-- Node47 -->
<g id="node8" class="node">
<title>Node47</title>
<g id="a_node8"><a xlink:href="_meeting_client_impl_8hxx.html" target="_top" xlink:title=" ">
<polygon fill="none" stroke="#000000" points="966.4159,-275.5 966.4159,-333.5 1136.3758,-333.5 1136.3758,-275.5 966.4159,-275.5"/>
<text text-anchor="start" x="974.4159" y="-321.5" font-family="Helvetica,sans-Serif" font-size="10.00" fill="#000000">/Users/oskryp/Projects</text>
<text text-anchor="start" x="974.4159" y="-311.5" font-family="Helvetica,sans-Serif" font-size="10.00" fill="#000000">/freesee&#45;native&#45;client</text>
<text text-anchor="start" x="974.4159" y="-301.5" font-family="Helvetica,sans-Serif" font-size="10.00" fill="#000000">/libs/fcc_sdk/engine/meetingclient</text>
<text text-anchor="start" x="974.4159" y="-291.5" font-family="Helvetica,sans-Serif" font-size="10.00" fill="#000000">/src/headers/MeetingClient/proxies</text>
<text text-anchor="middle" x="1051.3958" y="-281.5" font-family="Helvetica,sans-Serif" font-size="10.00" fill="#000000">/MeetingClientImpl.hxx</text>
</a>
</g>
</g>
<!-- Node40&#45;&gt;Node47 -->
<g id="edge30" class="edge">
<title>Node40&#45;&gt;Node47</title>
<path fill="none" stroke="#191970" d="M1083.9483,-455.0603C1080.6016,-431.0842 1075.5446,-398.4386 1069.3958,-370 1066.804,-358.0122 1063.3473,-344.9544 1060.1562,-333.6745"/>
<polygon fill="#191970" stroke="#191970" points="1080.4976,-455.6592 1085.3198,-465.093 1087.4331,-454.7111 1080.4976,-455.6592"/>
</g>
<!-- Node49 -->
<g id="node10" class="node">
<title>Node49</title>
<g id="a_node10"><a xlink:href="_meeting_attendee_feature_impl_8hxx.html" target="_top" xlink:title=" ">
<polygon fill="none" stroke="#000000" points="583.4159,-85.5 583.4159,-143.5 753.3758,-143.5 753.3758,-85.5 583.4159,-85.5"/>
<text text-anchor="start" x="591.4159" y="-131.5" font-family="Helvetica,sans-Serif" font-size="10.00" fill="#000000">/Users/oskryp/Projects</text>
<text text-anchor="start" x="591.4159" y="-121.5" font-family="Helvetica,sans-Serif" font-size="10.00" fill="#000000">/freesee&#45;native&#45;client</text>
<text text-anchor="start" x="591.4159" y="-111.5" font-family="Helvetica,sans-Serif" font-size="10.00" fill="#000000">/libs/fcc_sdk/engine/meetingclient</text>
<text text-anchor="start" x="591.4159" y="-101.5" font-family="Helvetica,sans-Serif" font-size="10.00" fill="#000000">/src/headers/MeetingClient/proxies</text>
<text text-anchor="middle" x="668.3958" y="-91.5" font-family="Helvetica,sans-Serif" font-size="10.00" fill="#000000">/MeetingAttendeeFeatureImpl.hxx</text>
</a>
</g>
</g>
<!-- Node40&#45;&gt;Node49 -->
<g id="edge29" class="edge">
<title>Node40&#45;&gt;Node49</title>
<path fill="none" stroke="#191970" d="M971.674,-486.4557C773.3765,-480.3937 379.1962,-464.2425 245.3958,-429 150.2345,-403.9349 106.3062,-411.2909 45.3958,-334 2.6755,-279.7909 -20.8691,-231.2172 25.3958,-180 62.1108,-139.355 416.8569,-122.6079 583.1551,-116.9484"/>
<polygon fill="#191970" stroke="#191970" points="971.7361,-489.9591 981.8373,-486.7628 971.9476,-482.9622 971.7361,-489.9591"/>
</g>
<!-- Node53 -->
<g id="node14" class="node">
<title>Node53</title>
<g id="a_node14"><a xlink:href="_meeting_broadcast_feature_impl_8hxx.html" target="_top" xlink:title=" ">
<polygon fill="none" stroke="#000000" points="1082.8592,-180.5 1082.8592,-238.5 1253.9325,-238.5 1253.9325,-180.5 1082.8592,-180.5"/>
<text text-anchor="start" x="1090.8592" y="-226.5" font-family="Helvetica,sans-Serif" font-size="10.00" fill="#000000">/Users/oskryp/Projects</text>
<text text-anchor="start" x="1090.8592" y="-216.5" font-family="Helvetica,sans-Serif" font-size="10.00" fill="#000000">/freesee&#45;native&#45;client</text>
<text text-anchor="start" x="1090.8592" y="-206.5" font-family="Helvetica,sans-Serif" font-size="10.00" fill="#000000">/libs/fcc_sdk/engine/meetingclient</text>
<text text-anchor="start" x="1090.8592" y="-196.5" font-family="Helvetica,sans-Serif" font-size="10.00" fill="#000000">/src/headers/MeetingClient/proxies</text>
<text text-anchor="middle" x="1168.3958" y="-186.5" font-family="Helvetica,sans-Serif" font-size="10.00" fill="#000000">/MeetingBroadcastFeatureImpl.hxx</text>
</a>
</g>
</g>
<!-- Node40&#45;&gt;Node53 -->
<g id="edge31" class="edge">
<title>Node40&#45;&gt;Node53</title>
<path fill="none" stroke="#191970" d="M1102.5819,-455.91C1115.2802,-424.7719 1133.6554,-376.9192 1145.3958,-334 1154.1822,-301.8799 1160.6242,-264.1741 1164.4195,-238.743"/>
<polygon fill="#191970" stroke="#191970" points="1099.2435,-454.8255 1098.6741,-465.405 1105.7167,-457.4896 1099.2435,-454.8255"/>
</g>
<!-- Node54 -->
<g id="node15" class="node">
<title>Node54</title>
<g id="a_node15"><a xlink:href="_meeting_chat_feature_impl_8hxx.html" target="_top" xlink:title=" ">
<polygon fill="none" stroke="#000000" points="1272.4159,-180.5 1272.4159,-238.5 1442.3758,-238.5 1442.3758,-180.5 1272.4159,-180.5"/>
<text text-anchor="start" x="1280.4159" y="-226.5" font-family="Helvetica,sans-Serif" font-size="10.00" fill="#000000">/Users/oskryp/Projects</text>
<text text-anchor="start" x="1280.4159" y="-216.5" font-family="Helvetica,sans-Serif" font-size="10.00" fill="#000000">/freesee&#45;native&#45;client</text>
<text text-anchor="start" x="1280.4159" y="-206.5" font-family="Helvetica,sans-Serif" font-size="10.00" fill="#000000">/libs/fcc_sdk/engine/meetingclient</text>
<text text-anchor="start" x="1280.4159" y="-196.5" font-family="Helvetica,sans-Serif" font-size="10.00" fill="#000000">/src/headers/MeetingClient/proxies</text>
<text text-anchor="middle" x="1357.3958" y="-186.5" font-family="Helvetica,sans-Serif" font-size="10.00" fill="#000000">/MeetingChatFeatureImpl.hxx</text>
</a>
</g>
</g>
<!-- Node40&#45;&gt;Node54 -->
<g id="edge32" class="edge">
<title>Node40&#45;&gt;Node54</title>
<path fill="none" stroke="#191970" d="M1115.8721,-457.4881C1123.1632,-448.4905 1130.8286,-438.5502 1137.3958,-429 1182.1882,-363.8622 1168.8355,-329.1857 1226.3958,-275 1241.948,-260.3596 1261.3983,-248.2748 1280.5142,-238.6449"/>
<polygon fill="#191970" stroke="#191970" points="1112.974,-455.5018 1109.3237,-465.4479 1118.3798,-459.949 1112.974,-455.5018"/>
</g>
<!-- Node55 -->
<g id="node16" class="node">
<title>Node55</title>
<g id="a_node16"><a xlink:href="_meeting_screen_sharing_feature_impl_8hxx.html" target="_top" xlink:title=" ">
<polygon fill="none" stroke="#000000" points="1460.2953,-180.5 1460.2953,-238.5 1652.4964,-238.5 1652.4964,-180.5 1460.2953,-180.5"/>
<text text-anchor="start" x="1468.2953" y="-226.5" font-family="Helvetica,sans-Serif" font-size="10.00" fill="#000000">/Users/oskryp/Projects</text>
<text text-anchor="start" x="1468.2953" y="-216.5" font-family="Helvetica,sans-Serif" font-size="10.00" fill="#000000">/freesee&#45;native&#45;client</text>
<text text-anchor="start" x="1468.2953" y="-206.5" font-family="Helvetica,sans-Serif" font-size="10.00" fill="#000000">/libs/fcc_sdk/engine/meetingclient</text>
<text text-anchor="start" x="1468.2953" y="-196.5" font-family="Helvetica,sans-Serif" font-size="10.00" fill="#000000">/src/headers/MeetingClient/proxies</text>
<text text-anchor="middle" x="1556.3958" y="-186.5" font-family="Helvetica,sans-Serif" font-size="10.00" fill="#000000">/MeetingScreenSharingFeatureImpl.hxx</text>
</a>
</g>
</g>
<!-- Node40&#45;&gt;Node55 -->
<g id="edge33" class="edge">
<title>Node40&#45;&gt;Node55</title>
<path fill="none" stroke="#191970" d="M1133.0563,-459.0873C1144.6073,-450.127 1156.551,-439.8056 1166.3958,-429 1193.7149,-399.015 1230.8513,-297.8078 1264.3958,-275 1334.387,-227.4111 1369.027,-258.4634 1451.3958,-239 1454.2521,-238.3251 1457.1474,-237.6237 1460.0666,-236.9017"/>
<polygon fill="#191970" stroke="#191970" points="1130.622,-456.5397 1124.7505,-465.3587 1134.8401,-462.1261 1130.622,-456.5397"/>
</g>
<!-- Node56 -->
<g id="node17" class="node">
<title>Node56</title>
<g id="a_node17"><a xlink:href="_meeting_video_feature_impl_8hxx.html" target="_top" xlink:title=" ">
<polygon fill="none" stroke="#000000" points="1670.4159,-180.5 1670.4159,-238.5 1840.3758,-238.5 1840.3758,-180.5 1670.4159,-180.5"/>
<text text-anchor="start" x="1678.4159" y="-226.5" font-family="Helvetica,sans-Serif" font-size="10.00" fill="#000000">/Users/oskryp/Projects</text>
<text text-anchor="start" x="1678.4159" y="-216.5" font-family="Helvetica,sans-Serif" font-size="10.00" fill="#000000">/freesee&#45;native&#45;client</text>
<text text-anchor="start" x="1678.4159" y="-206.5" font-family="Helvetica,sans-Serif" font-size="10.00" fill="#000000">/libs/fcc_sdk/engine/meetingclient</text>
<text text-anchor="start" x="1678.4159" y="-196.5" font-family="Helvetica,sans-Serif" font-size="10.00" fill="#000000">/src/headers/MeetingClient/proxies</text>
<text text-anchor="middle" x="1755.3958" y="-186.5" font-family="Helvetica,sans-Serif" font-size="10.00" fill="#000000">/MeetingVideoFeatureImpl.hxx</text>
</a>
</g>
</g>
<!-- Node40&#45;&gt;Node56 -->
<g id="edge34" class="edge">
<title>Node40&#45;&gt;Node56</title>
<path fill="none" stroke="#191970" d="M1141.4143,-460.4384C1159.2576,-450.5605 1179.2409,-439.3917 1197.3958,-429 1242.1816,-403.365 1250.5993,-391.7485 1297.3958,-370 1364.9201,-338.6184 1557.5283,-274.0611 1670.3088,-237.0985"/>
<polygon fill="#191970" stroke="#191970" points="1139.3592,-457.5751 1132.2995,-465.4752 1142.7449,-463.7019 1139.3592,-457.5751"/>
</g>
<!-- Node57 -->
<g id="node18" class="node">
<title>Node57</title>
<g id="a_node18"><a xlink:href="_meeting_vo_i_p_feature_impl_8hxx.html" target="_top" xlink:title=" ">
<polygon fill="none" stroke="#000000" points="442.4159,-180.5 442.4159,-238.5 612.3758,-238.5 612.3758,-180.5 442.4159,-180.5"/>
<text text-anchor="start" x="450.4159" y="-226.5" font-family="Helvetica,sans-Serif" font-size="10.00" fill="#000000">/Users/oskryp/Projects</text>
<text text-anchor="start" x="450.4159" y="-216.5" font-family="Helvetica,sans-Serif" font-size="10.00" fill="#000000">/freesee&#45;native&#45;client</text>
<text text-anchor="start" x="450.4159" y="-206.5" font-family="Helvetica,sans-Serif" font-size="10.00" fill="#000000">/libs/fcc_sdk/engine/meetingclient</text>
<text text-anchor="start" x="450.4159" y="-196.5" font-family="Helvetica,sans-Serif" font-size="10.00" fill="#000000">/src/headers/MeetingClient/proxies</text>
<text text-anchor="middle" x="527.3958" y="-186.5" font-family="Helvetica,sans-Serif" font-size="10.00" fill="#000000">/MeetingVoIPFeatureImpl.hxx</text>
</a>
</g>
</g>
<!-- Node40&#45;&gt;Node57 -->
<g id="edge35" class="edge">
<title>Node40&#45;&gt;Node57</title>
<path fill="none" stroke="#191970" d="M971.7724,-474.0365C896.128,-462.7301 805.3732,-446.3869 770.3958,-429 675.453,-381.8047 589.8762,-286.8781 550.4084,-238.8144"/>
<polygon fill="#191970" stroke="#191970" points="971.459,-477.5281 981.8635,-475.5286 972.483,-470.6034 971.459,-477.5281"/>
</g>
<!-- Node58 -->
<g id="node19" class="node">
<title>Node58</title>
<g id="a_node19"><a xlink:href="_raw_r_t_messages_feature_impl_8hxx.html" target="_top" xlink:title=" ">
<polygon fill="none" stroke="#000000" points="630.4159,-180.5 630.4159,-238.5 800.3758,-238.5 800.3758,-180.5 630.4159,-180.5"/>
<text text-anchor="start" x="638.4159" y="-226.5" font-family="Helvetica,sans-Serif" font-size="10.00" fill="#000000">/Users/oskryp/Projects</text>
<text text-anchor="start" x="638.4159" y="-216.5" font-family="Helvetica,sans-Serif" font-size="10.00" fill="#000000">/freesee&#45;native&#45;client</text>
<text text-anchor="start" x="638.4159" y="-206.5" font-family="Helvetica,sans-Serif" font-size="10.00" fill="#000000">/libs/fcc_sdk/engine/meetingclient</text>
<text text-anchor="start" x="638.4159" y="-196.5" font-family="Helvetica,sans-Serif" font-size="10.00" fill="#000000">/src/headers/MeetingClient/proxies</text>
<text text-anchor="middle" x="715.3958" y="-186.5" font-family="Helvetica,sans-Serif" font-size="10.00" fill="#000000">/RawRTMessagesFeatureImpl.hxx</text>
</a>
</g>
</g>
<!-- Node40&#45;&gt;Node58 -->
<g id="edge36" class="edge">
<title>Node40&#45;&gt;Node58</title>
<path fill="none" stroke="#191970" d="M971.7389,-470.1567C892.4846,-450.3672 793.0143,-411.0541 741.3958,-334 722.2246,-305.3818 716.7635,-265.4105 715.4223,-238.5497"/>
<polygon fill="#191970" stroke="#191970" points="971.249,-473.6391 981.7918,-472.5901 972.8959,-466.8356 971.249,-473.6391"/>
</g>
<!-- Node42 -->
<g id="node3" class="node">
<title>Node42</title>
<g id="a_node3"><a xlink:href="_meeting_session_parameters_builder_8hxx.html" target="_top" xlink:title=" ">
<polygon fill="none" stroke="#000000" points="54.3939,-275.5 54.3939,-333.5 294.3978,-333.5 294.3978,-275.5 54.3939,-275.5"/>
<text text-anchor="start" x="62.3939" y="-321.5" font-family="Helvetica,sans-Serif" font-size="10.00" fill="#000000">/Users/oskryp/Projects</text>
<text text-anchor="start" x="62.3939" y="-311.5" font-family="Helvetica,sans-Serif" font-size="10.00" fill="#000000">/freesee&#45;native&#45;client</text>
<text text-anchor="start" x="62.3939" y="-301.5" font-family="Helvetica,sans-Serif" font-size="10.00" fill="#000000">/libs/fcc_sdk/engine/meetingclient</text>
<text text-anchor="start" x="62.3939" y="-291.5" font-family="Helvetica,sans-Serif" font-size="10.00" fill="#000000">/include/MeetingClient/MeetingSessionParameters</text>
<text text-anchor="middle" x="174.3958" y="-281.5" font-family="Helvetica,sans-Serif" font-size="10.00" fill="#000000">Builder.hxx</text>
</a>
</g>
</g>
<!-- Node41&#45;&gt;Node42 -->
<g id="edge2" class="edge">
<title>Node41&#45;&gt;Node42</title>
<path fill="none" stroke="#191970" d="M289.9511,-370.2351C269.4748,-358.5868 245.9663,-345.2137 225.5216,-333.5835"/>
<polygon fill="#191970" stroke="#191970" points="288.3999,-373.3793 298.8226,-375.2817 291.8612,-367.2949 288.3999,-373.3793"/>
</g>
<!-- Node44 -->
<g id="node5" class="node">
<title>Node44</title>
<g id="a_node5"><a xlink:href="_free_see_a_p_i2_impl_8cxx.html" target="_top" xlink:title=" ">
<polygon fill="none" stroke="#000000" points="258.0931,-185.5 258.0931,-233.5 424.6986,-233.5 424.6986,-185.5 258.0931,-185.5"/>
<text text-anchor="start" x="266.0931" y="-221.5" font-family="Helvetica,sans-Serif" font-size="10.00" fill="#000000">/Users/oskryp/Projects</text>
<text text-anchor="start" x="266.0931" y="-211.5" font-family="Helvetica,sans-Serif" font-size="10.00" fill="#000000">/freesee&#45;native&#45;client</text>
<text text-anchor="start" x="266.0931" y="-201.5" font-family="Helvetica,sans-Serif" font-size="10.00" fill="#000000">/libs/fcc_sdk/engine/meetingclient</text>
<text text-anchor="middle" x="341.3958" y="-191.5" font-family="Helvetica,sans-Serif" font-size="10.00" fill="#000000">/src/proxies/FreeSeeAPI2Impl.cxx</text>
</a>
</g>
</g>
<!-- Node41&#45;&gt;Node44 -->
<g id="edge4" class="edge">
<title>Node41&#45;&gt;Node44</title>
<path fill="none" stroke="#191970" d="M341.3958,-365.3637C341.3958,-327.4003 341.3958,-267.039 341.3958,-233.6676"/>
<polygon fill="#191970" stroke="#191970" points="337.8959,-365.4363 341.3958,-375.4364 344.8959,-365.4364 337.8959,-365.4363"/>
</g>
<!-- Node43 -->
<g id="node4" class="node">
<title>Node43</title>
<g id="a_node4"><a xlink:href="_meeting_session_parameters_builder_8cxx.html" target="_top" xlink:title=" ">
<polygon fill="none" stroke="#000000" points="34.3543,-185.5 34.3543,-233.5 240.4374,-233.5 240.4374,-185.5 34.3543,-185.5"/>
<text text-anchor="start" x="42.3543" y="-221.5" font-family="Helvetica,sans-Serif" font-size="10.00" fill="#000000">/Users/oskryp/Projects</text>
<text text-anchor="start" x="42.3543" y="-211.5" font-family="Helvetica,sans-Serif" font-size="10.00" fill="#000000">/freesee&#45;native&#45;client</text>
<text text-anchor="start" x="42.3543" y="-201.5" font-family="Helvetica,sans-Serif" font-size="10.00" fill="#000000">/libs/fcc_sdk/engine/meetingclient</text>
<text text-anchor="middle" x="137.3958" y="-191.5" font-family="Helvetica,sans-Serif" font-size="10.00" fill="#000000">/src/MeetingSessionParametersBuilder.cxx</text>
</a>
</g>
</g>
<!-- Node42&#45;&gt;Node43 -->
<g id="edge3" class="edge">
<title>Node42&#45;&gt;Node43</title>
<path fill="none" stroke="#191970" d="M159.4245,-266.06C155.1451,-255.0724 150.6041,-243.4131 146.7639,-233.5531"/>
<polygon fill="#191970" stroke="#191970" points="156.2029,-267.4327 163.0936,-275.4807 162.7257,-264.8922 156.2029,-267.4327"/>
</g>
<!-- Node46&#45;&gt;Node47 -->
<g id="edge7" class="edge">
<title>Node46&#45;&gt;Node47</title>
<path fill="none" stroke="#191970" d="M1004.9151,-362.6009C1012.5909,-353.0062 1020.7531,-342.8034 1028.0607,-333.669"/>
<polygon fill="#191970" stroke="#191970" points="1002.1253,-360.4855 998.6113,-370.4807 1007.5913,-364.8584 1002.1253,-360.4855"/>
</g>
<!-- Node59 -->
<g id="node20" class="node">
<title>Node59</title>
<g id="a_node20"><a xlink:href="_active_speaker_manager2_8cxx.html" target="_top" xlink:title=" ">
<polygon fill="none" stroke="#000000" points="750.8026,-280.5 750.8026,-328.5 947.9891,-328.5 947.9891,-280.5 750.8026,-280.5"/>
<text text-anchor="start" x="758.8026" y="-316.5" font-family="Helvetica,sans-Serif" font-size="10.00" fill="#000000">/Users/oskryp/Projects</text>
<text text-anchor="start" x="758.8026" y="-306.5" font-family="Helvetica,sans-Serif" font-size="10.00" fill="#000000">/freesee&#45;native&#45;client</text>
<text text-anchor="start" x="758.8026" y="-296.5" font-family="Helvetica,sans-Serif" font-size="10.00" fill="#000000">/libs/fcc_sdk/engine/meetingclient</text>
<text text-anchor="middle" x="849.3958" y="-286.5" font-family="Helvetica,sans-Serif" font-size="10.00" fill="#000000">/src/proxies/ActiveSpeakerManager2.cxx</text>
</a>
</g>
</g>
<!-- Node46&#45;&gt;Node59 -->
<g id="edge28" class="edge">
<title>Node46&#45;&gt;Node59</title>
<path fill="none" stroke="#191970" d="M928.7976,-364.3664C912.9876,-352.4462 895.6964,-339.4091 881.2978,-328.5531"/>
<polygon fill="#191970" stroke="#191970" points="926.8152,-367.255 936.907,-370.4807 931.0294,-361.6657 926.8152,-367.255"/>
</g>
<!-- Node47&#45;&gt;Node44 -->
<g id="edge26" class="edge">
<title>Node47&#45;&gt;Node44</title>
<path fill="none" stroke="#191970" d="M956.2921,-274.9807C726.1159,-233.1824 659.4109,-282.337 433.3958,-239 425.8182,-237.547 417.9933,-235.6637 410.2547,-233.5517"/>
<polygon fill="#191970" stroke="#191970" points="955.8421,-278.4569 966.3126,-276.8387 957.1183,-271.5742 955.8421,-278.4569"/>
</g>
<!-- Node48 -->
<g id="node9" class="node">
<title>Node48</title>
<g id="a_node9"><a xlink:href="_meeting_attendee_impl_8hxx.html" target="_top" xlink:title=" ">
<polygon fill="none" stroke="#000000" points="856.4159,-180.5 856.4159,-238.5 1026.3758,-238.5 1026.3758,-180.5 856.4159,-180.5"/>
<text text-anchor="start" x="864.4159" y="-226.5" font-family="Helvetica,sans-Serif" font-size="10.00" fill="#000000">/Users/oskryp/Projects</text>
<text text-anchor="start" x="864.4159" y="-216.5" font-family="Helvetica,sans-Serif" font-size="10.00" fill="#000000">/freesee&#45;native&#45;client</text>
<text text-anchor="start" x="864.4159" y="-206.5" font-family="Helvetica,sans-Serif" font-size="10.00" fill="#000000">/libs/fcc_sdk/engine/meetingclient</text>
<text text-anchor="start" x="864.4159" y="-196.5" font-family="Helvetica,sans-Serif" font-size="10.00" fill="#000000">/src/headers/MeetingClient/proxies</text>
<text text-anchor="middle" x="941.3958" y="-186.5" font-family="Helvetica,sans-Serif" font-size="10.00" fill="#000000">/MeetingAttendeeImpl.hxx</text>
</a>
</g>
</g>
<!-- Node47&#45;&gt;Node48 -->
<g id="edge8" class="edge">
<title>Node47&#45;&gt;Node48</title>
<path fill="none" stroke="#191970" d="M1010.0003,-268.7493C998.508,-258.8242 986.1703,-248.1688 975.1705,-238.669"/>
<polygon fill="#191970" stroke="#191970" points="1007.9386,-271.5933 1017.7945,-275.4807 1012.5139,-266.2955 1007.9386,-271.5933"/>
</g>
<!-- Node47&#45;&gt;Node49 -->
<g id="edge13" class="edge">
<title>Node47&#45;&gt;Node49</title>
<path fill="none" stroke="#191970" d="M956.4666,-274.3988C903.8096,-257.6393 848.6242,-239.9428 847.3958,-239 822.6536,-220.009 832.9119,-200.4899 809.3958,-180 792.5051,-165.2828 771.7454,-153.2236 751.4009,-143.6458"/>
<polygon fill="#191970" stroke="#191970" points="955.6653,-277.8167 966.2558,-277.513 957.7874,-271.1461 955.6653,-277.8167"/>
</g>
<!-- Node51 -->
<g id="node12" class="node">
<title>Node51</title>
<g id="a_node12"><a xlink:href="_meeting_client_impl_8cxx.html" target="_top" xlink:title=" ">
<polygon fill="none" stroke="#000000" points="1011.5389,-.5 1011.5389,-48.5 1179.2528,-48.5 1179.2528,-.5 1011.5389,-.5"/>
<text text-anchor="start" x="1019.5389" y="-36.5" font-family="Helvetica,sans-Serif" font-size="10.00" fill="#000000">/Users/oskryp/Projects</text>
<text text-anchor="start" x="1019.5389" y="-26.5" font-family="Helvetica,sans-Serif" font-size="10.00" fill="#000000">/freesee&#45;native&#45;client</text>
<text text-anchor="start" x="1019.5389" y="-16.5" font-family="Helvetica,sans-Serif" font-size="10.00" fill="#000000">/libs/fcc_sdk/engine/meetingclient</text>
<text text-anchor="middle" x="1095.3958" y="-6.5" font-family="Helvetica,sans-Serif" font-size="10.00" fill="#000000">/src/proxies/MeetingClientImpl.cxx</text>
</a>
</g>
</g>
<!-- Node47&#45;&gt;Node51 -->
<g id="edge27" class="edge">
<title>Node47&#45;&gt;Node51</title>
<path fill="none" stroke="#191970" d="M1057.5546,-265.3082C1066.793,-206.5184 1083.9658,-97.2364 1091.5852,-48.7498"/>
<polygon fill="#191970" stroke="#191970" points="1054.075,-264.9053 1055.9801,-275.3275 1060.9901,-265.9921 1054.075,-264.9053"/>
</g>
<!-- Node47&#45;&gt;Node53 -->
<g id="edge14" class="edge">
<title>Node47&#45;&gt;Node53</title>
<path fill="none" stroke="#191970" d="M1095.0733,-269.0354C1107.3967,-259.0292 1120.6596,-248.2602 1132.4719,-238.669"/>
<polygon fill="#191970" stroke="#191970" points="1092.6924,-266.4601 1087.1354,-275.4807 1097.1048,-271.8943 1092.6924,-266.4601"/>
</g>
<!-- Node47&#45;&gt;Node54 -->
<g id="edge16" class="edge">
<title>Node47&#45;&gt;Node54</title>
<path fill="none" stroke="#191970" d="M1146.2037,-275.3063C1182.8304,-264.0022 1225.0747,-250.933 1263.3958,-239 1266.3354,-238.0846 1269.3263,-237.1522 1272.3468,-236.2095"/>
<polygon fill="#191970" stroke="#191970" points="1145.0496,-271.9995 1136.5261,-278.2923 1147.1135,-278.6883 1145.0496,-271.9995"/>
</g>
<!-- Node47&#45;&gt;Node55 -->
<g id="edge18" class="edge">
<title>Node47&#45;&gt;Node55</title>
<path fill="none" stroke="#191970" d="M1146.5629,-288.3092C1172.4529,-283.945 1200.4951,-279.2551 1226.3958,-275 1326.3282,-258.5828 1352.4832,-260.7321 1451.3958,-239 1454.2624,-238.3702 1457.1667,-237.7085 1460.0938,-237.0211"/>
<polygon fill="#191970" stroke="#191970" points="1145.6547,-284.9129 1136.3766,-290.0281 1146.8196,-291.8153 1145.6547,-284.9129"/>
</g>
<!-- Node47&#45;&gt;Node56 -->
<g id="edge20" class="edge">
<title>Node47&#45;&gt;Node56</title>
<path fill="none" stroke="#191970" d="M1146.7291,-290.3185C1183.4574,-285.1117 1225.832,-279.4165 1264.3958,-275 1440.4137,-254.8417 1487.6634,-273.7228 1661.3958,-239 1664.331,-238.4134 1667.3042,-237.7691 1670.2964,-237.0778"/>
<polygon fill="#191970" stroke="#191970" points="1145.9334,-286.8964 1136.5274,-291.7726 1146.9213,-293.8264 1145.9334,-286.8964"/>
</g>
<!-- Node47&#45;&gt;Node57 -->
<g id="edge22" class="edge">
<title>Node47&#45;&gt;Node57</title>
<path fill="none" stroke="#191970" d="M956.3899,-274.9611C808.5148,-245.4255 765.2675,-268.9763 621.3958,-239 618.4655,-238.3895 615.4966,-237.7245 612.508,-237.0155"/>
<polygon fill="#191970" stroke="#191970" points="955.7852,-278.4098 966.2837,-276.9845 957.1878,-271.5518 955.7852,-278.4098"/>
</g>
<!-- Node47&#45;&gt;Node58 -->
<g id="edge24" class="edge">
<title>Node47&#45;&gt;Node58</title>
<path fill="none" stroke="#191970" d="M956.625,-274.8432C892.6554,-257.0674 874.6306,-255.5481 814.3958,-239 809.813,-237.741 805.1182,-236.4265 800.3836,-235.0816"/>
<polygon fill="#191970" stroke="#191970" points="955.8333,-278.2562 966.407,-277.5876 957.7242,-271.5164 955.8333,-278.2562"/>
</g>
<!-- Node48&#45;&gt;Node49 -->
<g id="edge9" class="edge">
<title>Node48&#45;&gt;Node49</title>
<path fill="none" stroke="#191970" d="M848.3951,-177.1371C817.054,-166.2309 782.2964,-154.1357 751.7476,-143.5052"/>
<polygon fill="#191970" stroke="#191970" points="847.4086,-180.4996 858.0035,-180.4807 849.7093,-173.8885 847.4086,-180.4996"/>
</g>
<!-- Node52 -->
<g id="node13" class="node">
<title>Node52</title>
<g id="a_node13"><a xlink:href="_meeting_attendee_impl_8cxx.html" target="_top" xlink:title=" ">
<polygon fill="none" stroke="#000000" points="847.305,-90.5 847.305,-138.5 1029.4867,-138.5 1029.4867,-90.5 847.305,-90.5"/>
<text text-anchor="start" x="855.305" y="-126.5" font-family="Helvetica,sans-Serif" font-size="10.00" fill="#000000">/Users/oskryp/Projects</text>
<text text-anchor="start" x="855.305" y="-116.5" font-family="Helvetica,sans-Serif" font-size="10.00" fill="#000000">/freesee&#45;native&#45;client</text>
<text text-anchor="start" x="855.305" y="-106.5" font-family="Helvetica,sans-Serif" font-size="10.00" fill="#000000">/libs/fcc_sdk/engine/meetingclient</text>
<text text-anchor="middle" x="938.3958" y="-96.5" font-family="Helvetica,sans-Serif" font-size="10.00" fill="#000000">/src/proxies/MeetingAttendeeImpl.cxx</text>
</a>
</g>
</g>
<!-- Node48&#45;&gt;Node52 -->
<g id="edge12" class="edge">
<title>Node48&#45;&gt;Node52</title>
<path fill="none" stroke="#191970" d="M940.1609,-170.3932C939.8201,-159.602 939.4605,-148.214 939.1554,-138.5531"/>
<polygon fill="#191970" stroke="#191970" points="936.6655,-170.5962 940.4794,-180.4807 943.662,-170.3751 936.6655,-170.5962"/>
</g>
<!-- Node50 -->
<g id="node11" class="node">
<title>Node50</title>
<g id="a_node11"><a xlink:href="_meeting_attendee_feature_impl_8cxx.html" target="_top" xlink:title=" ">
<polygon fill="none" stroke="#000000" points="560.0736,-.5 560.0736,-48.5 776.7181,-48.5 776.7181,-.5 560.0736,-.5"/>
<text text-anchor="start" x="568.0736" y="-36.5" font-family="Helvetica,sans-Serif" font-size="10.00" fill="#000000">/Users/oskryp/Projects</text>
<text text-anchor="start" x="568.0736" y="-26.5" font-family="Helvetica,sans-Serif" font-size="10.00" fill="#000000">/freesee&#45;native&#45;client</text>
<text text-anchor="start" x="568.0736" y="-16.5" font-family="Helvetica,sans-Serif" font-size="10.00" fill="#000000">/libs/fcc_sdk/engine/meetingclient</text>
<text text-anchor="middle" x="668.3958" y="-6.5" font-family="Helvetica,sans-Serif" font-size="10.00" fill="#000000">/src/proxies/MeetingAttendeeFeatureImpl.cxx</text>
</a>
</g>
</g>
<!-- Node49&#45;&gt;Node50 -->
<g id="edge10" class="edge">
<title>Node49&#45;&gt;Node50</title>
<path fill="none" stroke="#191970" d="M668.3958,-74.7825C668.3958,-65.8703 668.3958,-56.6778 668.3958,-48.6294"/>
<polygon fill="#191970" stroke="#191970" points="664.8959,-75.0306 668.3958,-85.0306 671.8959,-75.0307 664.8959,-75.0306"/>
</g>
<!-- Node49&#45;&gt;Node51 -->
<g id="edge11" class="edge">
<title>Node49&#45;&gt;Node51</title>
<path fill="none" stroke="#191970" d="M763.5483,-85.9389C764.8377,-85.6198 766.1208,-85.3066 767.3958,-85 849.5938,-65.2328 944.7188,-48.3345 1011.2905,-37.4623"/>
<polygon fill="#191970" stroke="#191970" points="762.3831,-82.6241 753.5611,-88.4912 764.1164,-89.4062 762.3831,-82.6241"/>
</g>
<!-- Node53&#45;&gt;Node51 -->
<g id="edge15" class="edge">
<title>Node53&#45;&gt;Node51</title>
<path fill="none" stroke="#191970" d="M1153.1093,-170.76C1138.5782,-133.9348 1117.1771,-79.699 1104.9314,-48.6655"/>
<polygon fill="#191970" stroke="#191970" points="1149.9025,-172.1689 1156.8288,-180.1862 1156.4139,-169.5995 1149.9025,-172.1689"/>
</g>
<!-- Node54&#45;&gt;Node51 -->
<g id="edge17" class="edge">
<title>Node54&#45;&gt;Node51</title>
<path fill="none" stroke="#191970" d="M1307.7452,-174.4413C1255.6526,-137.6584 1175.1547,-80.8183 1129.7009,-48.723"/>
<polygon fill="#191970" stroke="#191970" points="1305.9825,-177.4812 1316.1701,-180.3902 1310.0201,-171.7631 1305.9825,-177.4812"/>
</g>
<!-- Node55&#45;&gt;Node51 -->
<g id="edge19" class="edge">
<title>Node55&#45;&gt;Node51</title>
<path fill="none" stroke="#191970" d="M1474.6066,-176.6779C1383.1019,-139.9569 1237.037,-81.3408 1155.4739,-48.6094"/>
<polygon fill="#191970" stroke="#191970" points="1473.5271,-180.0159 1484.1112,-180.4921 1476.1341,-173.5195 1473.5271,-180.0159"/>
</g>
<!-- Node56&#45;&gt;Node51 -->
<g id="edge21" class="edge">
<title>Node56&#45;&gt;Node51</title>
<path fill="none" stroke="#191970" d="M1660.5591,-179.7634C1514.0531,-135.607 1476.1031,-124.0802 1332.3958,-85 1281.7891,-71.2378 1224.8527,-56.6738 1179.4716,-45.2844"/>
<polygon fill="#191970" stroke="#191970" points="1659.7838,-183.1852 1670.3684,-182.7197 1661.8038,-176.4829 1659.7838,-183.1852"/>
</g>
<!-- Node57&#45;&gt;Node51 -->
<g id="edge23" class="edge">
<title>Node57&#45;&gt;Node51</title>
<path fill="none" stroke="#191970" d="M622.1223,-180.0096C686.2383,-164.1563 713.5233,-181.5714 762.3958,-144 786.2158,-125.6881 771.1169,-102.6988 795.3958,-85 829.207,-60.3524 934.9686,-43.1328 1011.3499,-33.5308"/>
<polygon fill="#191970" stroke="#191970" points="621.1516,-176.646 612.3883,-182.6005 622.9522,-183.4105 621.1516,-176.646"/>
</g>
<!-- Node58&#45;&gt;Node51 -->
<g id="edge25" class="edge">
<title>Node58&#45;&gt;Node51</title>
<path fill="none" stroke="#191970" d="M762.9942,-173.8728C774.1162,-164.6592 785.5727,-154.392 795.3958,-144 817.6852,-120.4198 811.3636,-102.9471 838.3958,-85 866.607,-66.2702 947.8609,-49.0076 1011.5333,-37.7575"/>
<polygon fill="#191970" stroke="#191970" points="760.5367,-171.3598 754.9829,-180.3823 764.951,-176.7925 760.5367,-171.3598"/>
</g>
</g>
</svg>
