<?xml version="1.0" encoding="UTF-8" standalone="no"?>
<!DOCTYPE svg PUBLIC "-//W3C//DTD SVG 1.1//EN"
 "http://www.w3.org/Graphics/SVG/1.1/DTD/svg11.dtd">
<!-- Generated by graphviz version 2.40.1 (20161225.0304)
 -->
<!-- Title: /Users/oskryp/Projects/freesee&#45;native&#45;client/libs/fcc_sdk/engine/meetingclient/include/MeetingClient/types/MeetingTypes.hxx Pages: 1 -->
<svg width="295pt" height="187pt"
 viewBox="0.00 0.00 295.43 187.00" xmlns="http://www.w3.org/2000/svg" xmlns:xlink="http://www.w3.org/1999/xlink">
<g id="graph0" class="graph" transform="scale(1 1) rotate(0) translate(4 183)">
<title>/Users/oskryp/Projects/freesee&#45;native&#45;client/libs/fcc_sdk/engine/meetingclient/include/MeetingClient/types/MeetingTypes.hxx</title>
<!-- Node0 -->
<g id="node1" class="node">
<title>Node0</title>
<g id="a_node1"><a xlink:title=" ">
<polygon fill="#bfbfbf" stroke="#000000" points="57.0029,-130.5 57.0029,-178.5 281.4502,-178.5 281.4502,-130.5 57.0029,-130.5"/>
<text text-anchor="start" x="65.0029" y="-166.5" font-family="Helvetica,sans-Serif" font-size="10.00" fill="#000000">/Users/oskryp/Projects</text>
<text text-anchor="start" x="65.0029" y="-156.5" font-family="Helvetica,sans-Serif" font-size="10.00" fill="#000000">/freesee&#45;native&#45;client</text>
<text text-anchor="start" x="65.0029" y="-146.5" font-family="Helvetica,sans-Serif" font-size="10.00" fill="#000000">/libs/fcc_sdk/engine/meetingclient</text>
<text text-anchor="middle" x="169.2266" y="-136.5" font-family="Helvetica,sans-Serif" font-size="10.00" fill="#000000">/include/MeetingClient/types/MeetingTypes.hxx</text>
</a>
</g>
</g>
<!-- Node1 -->
<g id="node2" class="node">
<title>Node1</title>
<g id="a_node2"><a xlink:href="_common_data_types_8hxx.html" target="_top" xlink:title=" ">
<polygon fill="none" stroke="#000000" points="41.4805,-65.5 41.4805,-93.5 166.9727,-93.5 166.9727,-65.5 41.4805,-65.5"/>
<text text-anchor="start" x="49.4805" y="-81.5" font-family="Helvetica,sans-Serif" font-size="10.00" fill="#000000">MeetingClient/types</text>
<text text-anchor="middle" x="104.2266" y="-71.5" font-family="Helvetica,sans-Serif" font-size="10.00" fill="#000000">/CommonDataTypes.hxx</text>
</a>
</g>
</g>
<!-- Node0&#45;&gt;Node1 -->
<g id="edge1" class="edge">
<title>Node0&#45;&gt;Node1</title>
<path fill="none" stroke="#191970" d="M148.3024,-130.3567C140.1504,-120.9506 130.8807,-110.2548 122.9528,-101.1071"/>
<polygon fill="#191970" stroke="#191970" points="125.5872,-98.8028 116.393,-93.5382 120.2974,-103.3874 125.5872,-98.8028"/>
</g>
<!-- Node4 -->
<g id="node5" class="node">
<title>Node4</title>
<g id="a_node5"><a xlink:href="strong__identity_8hxx.html" target="_top" xlink:title=" ">
<polygon fill="none" stroke="#000000" points="184.5166,-65.5 184.5166,-93.5 285.9365,-93.5 285.9365,-65.5 184.5166,-65.5"/>
<text text-anchor="start" x="192.5166" y="-81.5" font-family="Helvetica,sans-Serif" font-size="10.00" fill="#000000">MeetingClient/utils</text>
<text text-anchor="middle" x="235.2266" y="-71.5" font-family="Helvetica,sans-Serif" font-size="10.00" fill="#000000">/strong_identity.hxx</text>
</a>
</g>
</g>
<!-- Node0&#45;&gt;Node4 -->
<g id="edge4" class="edge">
<title>Node0&#45;&gt;Node4</title>
<path fill="none" stroke="#191970" d="M190.4727,-130.3567C198.7501,-120.9506 208.1624,-110.2548 216.2123,-101.1071"/>
<polygon fill="#191970" stroke="#191970" points="218.8942,-103.3575 222.873,-93.5382 213.6392,-98.7331 218.8942,-103.3575"/>
</g>
<!-- Node2 -->
<g id="node3" class="node">
<title>Node2</title>
<g id="a_node3"><a xlink:title=" ">
<polygon fill="none" stroke="#bfbfbf" points="0,-5.5 0,-23.5 40.4531,-23.5 40.4531,-5.5 0,-5.5"/>
<text text-anchor="middle" x="20.2266" y="-11.5" font-family="Helvetica,sans-Serif" font-size="10.00" fill="#000000">string</text>
</a>
</g>
</g>
<!-- Node1&#45;&gt;Node2 -->
<g id="edge2" class="edge">
<title>Node1&#45;&gt;Node2</title>
<path fill="none" stroke="#191970" d="M85.9998,-65.396C72.4138,-54.883 53.8793,-40.5408 39.9476,-29.7603"/>
<polygon fill="#191970" stroke="#191970" points="42.004,-26.9261 31.9534,-23.5743 37.7201,-32.4622 42.004,-26.9261"/>
</g>
<!-- Node3 -->
<g id="node4" class="node">
<title>Node3</title>
<g id="a_node4"><a xlink:title=" ">
<polygon fill="none" stroke="#bfbfbf" points="58.4312,-5.5 58.4312,-23.5 160.022,-23.5 160.022,-5.5 58.4312,-5.5"/>
<text text-anchor="middle" x="109.2266" y="-11.5" font-family="Helvetica,sans-Serif" font-size="10.00" fill="#000000">CommonTypes.hxx</text>
</a>
</g>
</g>
<!-- Node1&#45;&gt;Node3 -->
<g id="edge3" class="edge">
<title>Node1&#45;&gt;Node3</title>
<path fill="none" stroke="#191970" d="M105.3115,-65.396C106.0286,-56.0732 106.9774,-43.739 107.7613,-33.5479"/>
<polygon fill="#191970" stroke="#191970" points="111.2512,-33.8133 108.5285,-23.5743 104.2718,-33.2764 111.2512,-33.8133"/>
</g>
<!-- Node5 -->
<g id="node6" class="node">
<title>Node5</title>
<g id="a_node6"><a xlink:title=" ">
<polygon fill="none" stroke="#bfbfbf" points="183.0273,-.5 183.0273,-28.5 287.4258,-28.5 287.4258,-.5 183.0273,-.5"/>
<text text-anchor="start" x="191.0273" y="-16.5" font-family="Helvetica,sans-Serif" font-size="10.00" fill="#000000">boost/serialization</text>
<text text-anchor="middle" x="235.2266" y="-6.5" font-family="Helvetica,sans-Serif" font-size="10.00" fill="#000000">/strong_typedef.hpp</text>
</a>
</g>
</g>
<!-- Node4&#45;&gt;Node5 -->
<g id="edge5" class="edge">
<title>Node4&#45;&gt;Node5</title>
<path fill="none" stroke="#191970" d="M235.2266,-65.396C235.2266,-57.6448 235.2266,-47.8122 235.2266,-38.8601"/>
<polygon fill="#191970" stroke="#191970" points="238.7267,-38.5765 235.2266,-28.5765 231.7267,-38.5765 238.7267,-38.5765"/>
</g>
</g>
</svg>
