<?xml version="1.0" encoding="UTF-8" standalone="no"?>
<!DOCTYPE svg PUBLIC "-//W3C//DTD SVG 1.1//EN"
 "http://www.w3.org/Graphics/SVG/1.1/DTD/svg11.dtd">
<!-- Generated by graphviz version 2.40.1 (20161225.0304)
 -->
<!-- Title: /Users/oskryp/Projects/freesee&#45;native&#45;client/libs/fcc_sdk/engine/meetingclient/include/MeetingClient/MeetingClientAPI.hxx Pages: 1 -->
<!--zoomable 522 -->
<svg id="main" version="1.1" xmlns="http://www.w3.org/2000/svg" xmlns:xlink="http://www.w3.org/1999/xlink" xml:space="preserve" onload="init(evt)">
<style type="text/css"><![CDATA[
.edge:hover path { stroke: red; }
.edge:hover polygon { stroke: red; fill: red; }
]]></style>
<script type="text/javascript"><![CDATA[
var edges = document.getElementsByTagName('g');
if (edges && edges.length) {
  for (var i=0;i<edges.length;i++) {
    if (edges[i].id.substr(0,4)=='edge') {
      edges[i].setAttribute('class','edge');
    }
  }
}
]]></script>
        <defs>
                <circle id="rim" cx="0" cy="0" r="7"/>
                <circle id="rim2" cx="0" cy="0" r="3.5"/>
                <g id="zoomPlus">
                        <use xlink:href="#rim" fill="#404040">
                                <set attributeName="fill" to="#808080" begin="zoomplus.mouseover" end="zoomplus.mouseout"/>
                        </use>
                        <path d="M-4,0h8M0,-4v8" fill="none" stroke="white" stroke-width="1.5" pointer-events="none"/>
                </g>
                <g id="zoomMin">
                        <use xlink:href="#rim" fill="#404040">
                                <set attributeName="fill" to="#808080" begin="zoomminus.mouseover" end="zoomminus.mouseout"/>
                        </use>
                        <path d="M-4,0h8" fill="none" stroke="white" stroke-width="1.5" pointer-events="none"/>
                </g>
                <g id="dirArrow">
                        <path fill="none" stroke="white" stroke-width="1.5" d="M0,-3.0v7 M-2.5,-0.5L0,-3.0L2.5,-0.5"/>
                </g>
               <g id="resetDef">
                       <use xlink:href="#rim2" fill="#404040">
                               <set attributeName="fill" to="#808080" begin="reset.mouseover" end="reset.mouseout"/>
                       </use>
               </g>
        </defs>

<script type="text/javascript">
var viewWidth = 2356;
var viewHeight = 522;
var sectionId = 'dynsection-0';
</script>
<script xlink:href="svgpan.js"/>
<svg id="graph" class="graph">
<g id="viewport">
<title>/Users/oskryp/Projects/freesee&#45;native&#45;client/libs/fcc_sdk/engine/meetingclient/include/MeetingClient/MeetingClientAPI.hxx</title>
<!-- Node0 -->
<g id="node1" class="node">
<title>Node0</title>
<g id="a_node1"><a xlink:title=" ">
<polygon fill="#bfbfbf" stroke="#000000" points="1457.2563,-465.5 1457.2563,-513.5 1670.0239,-513.5 1670.0239,-465.5 1457.2563,-465.5"/>
<text text-anchor="start" x="1465.2563" y="-501.5" font-family="Helvetica,sans-Serif" font-size="10.00" fill="#000000">/Users/oskryp/Projects</text>
<text text-anchor="start" x="1465.2563" y="-491.5" font-family="Helvetica,sans-Serif" font-size="10.00" fill="#000000">/freesee&#45;native&#45;client</text>
<text text-anchor="start" x="1465.2563" y="-481.5" font-family="Helvetica,sans-Serif" font-size="10.00" fill="#000000">/libs/fcc_sdk/engine/meetingclient</text>
<text text-anchor="middle" x="1563.6401" y="-471.5" font-family="Helvetica,sans-Serif" font-size="10.00" fill="#000000">/include/MeetingClient/MeetingClientAPI.hxx</text>
</a>
</g>
</g>
<!-- Node1 -->
<g id="node2" class="node">
<title>Node1</title>
<g id="a_node2"><a xlink:title=" ">
<polygon fill="none" stroke="#bfbfbf" points="0,-195.5 0,-223.5 113.2803,-223.5 113.2803,-195.5 0,-195.5"/>
<text text-anchor="start" x="8" y="-211.5" font-family="Helvetica,sans-Serif" font-size="10.00" fill="#000000">boost/date_time/posix</text>
<text text-anchor="middle" x="56.6401" y="-201.5" font-family="Helvetica,sans-Serif" font-size="10.00" fill="#000000">_time/posix_time.hpp</text>
</a>
</g>
</g>
<!-- Node0&#45;&gt;Node1 -->
<g id="edge1" class="edge">
<title>Node0&#45;&gt;Node1</title>
<path fill="none" stroke="#191970" d="M1457.1345,-485.3439C1254.614,-476.9312 821.0609,-456.337 673.6401,-429 577.1583,-411.1089 555.433,-395.9111 462.6401,-364 329.7165,-318.2882 175.1386,-257.243 100.8952,-227.4217"/>
<polygon fill="#191970" stroke="#191970" points="101.9739,-224.083 91.3902,-223.5979 99.3614,-230.5773 101.9739,-224.083"/>
</g>
<!-- Node2 -->
<g id="node3" class="node">
<title>Node2</title>
<g id="a_node3"><a xlink:href="_active_speaker_manager_abstract_8hxx.html" target="_top" xlink:title=" ">
<polygon fill="none" stroke="#000000" points="794.4409,-400.5 794.4409,-428.5 938.8394,-428.5 938.8394,-400.5 794.4409,-400.5"/>
<text text-anchor="start" x="802.4409" y="-416.5" font-family="Helvetica,sans-Serif" font-size="10.00" fill="#000000">MeetingClient/ActiveSpeaker</text>
<text text-anchor="middle" x="866.6401" y="-406.5" font-family="Helvetica,sans-Serif" font-size="10.00" fill="#000000">ManagerAbstract.hxx</text>
</a>
</g>
</g>
<!-- Node0&#45;&gt;Node2 -->
<g id="edge2" class="edge">
<title>Node0&#45;&gt;Node2</title>
<path fill="none" stroke="#191970" d="M1457.1463,-481.1756C1335.0283,-471.1152 1128.953,-452.5646 952.6401,-429 951.3739,-428.8308 950.0976,-428.6569 948.8135,-428.479"/>
<polygon fill="#191970" stroke="#191970" points="949.2441,-425.005 938.847,-427.0424 948.2453,-431.9333 949.2441,-425.005"/>
</g>
<!-- Node9 -->
<g id="node10" class="node">
<title>Node9</title>
<g id="a_node10"><a xlink:href="macros_8hxx.html" target="_top" xlink:title=" ">
<polygon fill="none" stroke="#000000" points="847.1182,-200.5 847.1182,-218.5 978.1621,-218.5 978.1621,-200.5 847.1182,-200.5"/>
<text text-anchor="middle" x="912.6401" y="-206.5" font-family="Helvetica,sans-Serif" font-size="10.00" fill="#000000">MeetingClient/macros.hxx</text>
</a>
</g>
</g>
<!-- Node0&#45;&gt;Node9 -->
<g id="edge49" class="edge">
<title>Node0&#45;&gt;Node9</title>
<path fill="none" stroke="#191970" d="M1457.1866,-479.2366C1309.6051,-462.9176 1053.329,-426.3544 985.6401,-364 944.6521,-326.2422 924.5104,-260.706 916.6915,-228.4896"/>
<polygon fill="#191970" stroke="#191970" points="920.0675,-227.5519 914.4258,-218.584 913.2437,-229.1127 920.0675,-227.5519"/>
</g>
<!-- Node12 -->
<g id="node13" class="node">
<title>Node12</title>
<g id="a_node13"><a xlink:href="_common_data_types_8hxx.html" target="_top" xlink:title=" ">
<polygon fill="none" stroke="#000000" points="1475.894,-65.5 1475.894,-93.5 1601.3862,-93.5 1601.3862,-65.5 1475.894,-65.5"/>
<text text-anchor="start" x="1483.894" y="-81.5" font-family="Helvetica,sans-Serif" font-size="10.00" fill="#000000">MeetingClient/types</text>
<text text-anchor="middle" x="1538.6401" y="-71.5" font-family="Helvetica,sans-Serif" font-size="10.00" fill="#000000">/CommonDataTypes.hxx</text>
</a>
</g>
</g>
<!-- Node0&#45;&gt;Node12 -->
<g id="edge50" class="edge">
<title>Node0&#45;&gt;Node12</title>
<path fill="none" stroke="#191970" d="M1591.5432,-465.2954C1618.9369,-438.7027 1656.6401,-393.2476 1656.6401,-344.5 1656.6401,-344.5 1656.6401,-344.5 1656.6401,-209.5 1656.6401,-159.9751 1609.1061,-120.9481 1574.3768,-99.0433"/>
<polygon fill="#191970" stroke="#191970" points="1575.7774,-95.7984 1565.4162,-93.5859 1572.1362,-101.7768 1575.7774,-95.7984"/>
</g>
<!-- Node18 -->
<g id="node19" class="node">
<title>Node18</title>
<g id="a_node19"><a xlink:href="_meeting_session_parameters_8hxx.html" target="_top" xlink:title=" ">
<polygon fill="none" stroke="#000000" points="131.1035,-195.5 131.1035,-223.5 282.1768,-223.5 282.1768,-195.5 131.1035,-195.5"/>
<text text-anchor="start" x="139.1035" y="-211.5" font-family="Helvetica,sans-Serif" font-size="10.00" fill="#000000">MeetingClient/MeetingSession</text>
<text text-anchor="middle" x="206.6401" y="-201.5" font-family="Helvetica,sans-Serif" font-size="10.00" fill="#000000">Parameters.hxx</text>
</a>
</g>
</g>
<!-- Node0&#45;&gt;Node18 -->
<g id="edge45" class="edge">
<title>Node0&#45;&gt;Node18</title>
<path fill="none" stroke="#191970" d="M1456.9753,-484.9612C1274.6128,-476.5734 910.4982,-456.9187 785.6401,-429 573.1105,-381.4777 334.3707,-271.7151 243.9898,-227.9763"/>
<polygon fill="#191970" stroke="#191970" points="245.4833,-224.8107 234.9594,-223.5864 242.4228,-231.1063 245.4833,-224.8107"/>
</g>
<!-- Node22 -->
<g id="node23" class="node">
<title>Node22</title>
<g id="a_node23"><a xlink:href="_meeting_attendee_struct_8hxx.html" target="_top" xlink:title=" ">
<polygon fill="none" stroke="#000000" points="994.8745,-330.5 994.8745,-358.5 1150.4058,-358.5 1150.4058,-330.5 994.8745,-330.5"/>
<text text-anchor="start" x="1002.8745" y="-346.5" font-family="Helvetica,sans-Serif" font-size="10.00" fill="#000000">MeetingClient/MeetingAttendee</text>
<text text-anchor="middle" x="1072.6401" y="-336.5" font-family="Helvetica,sans-Serif" font-size="10.00" fill="#000000">Struct.hxx</text>
</a>
</g>
</g>
<!-- Node0&#45;&gt;Node22 -->
<g id="edge44" class="edge">
<title>Node0&#45;&gt;Node22</title>
<path fill="none" stroke="#191970" d="M1457.175,-479.9517C1388.6902,-471.554 1298.6218,-456.2463 1222.6401,-429 1177.5094,-412.8166 1130.0437,-383.7381 1100.8879,-364.2782"/>
<polygon fill="#191970" stroke="#191970" points="1102.6947,-361.2749 1092.4503,-358.5726 1098.7736,-367.0736 1102.6947,-361.2749"/>
</g>
<!-- Node28 -->
<g id="node29" class="node">
<title>Node28</title>
<g id="a_node29"><a xlink:href="_delegates_configuration_8hxx.html" target="_top" xlink:title=" ">
<polygon fill="none" stroke="#000000" points="1684.8252,-400.5 1684.8252,-428.5 1826.4551,-428.5 1826.4551,-400.5 1684.8252,-400.5"/>
<text text-anchor="start" x="1692.8252" y="-416.5" font-family="Helvetica,sans-Serif" font-size="10.00" fill="#000000">MeetingClient/Delegates</text>
<text text-anchor="middle" x="1755.6401" y="-406.5" font-family="Helvetica,sans-Serif" font-size="10.00" fill="#000000">/DelegatesConfiguration.hxx</text>
</a>
</g>
</g>
<!-- Node0&#45;&gt;Node28 -->
<g id="edge37" class="edge">
<title>Node0&#45;&gt;Node28</title>
<path fill="none" stroke="#191970" d="M1625.1824,-465.4601C1652.8044,-454.6702 1684.8146,-442.1662 1710.2141,-432.2445"/>
<polygon fill="#191970" stroke="#191970" points="1711.561,-435.476 1719.6021,-428.5773 1709.014,-428.9558 1711.561,-435.476"/>
</g>
<!-- Node29 -->
<g id="node30" class="node">
<title>Node29</title>
<g id="a_node30"><a xlink:href="_i_meeting_attendee_8hxx.html" target="_top" xlink:title=" ">
<polygon fill="none" stroke="#000000" points="1231.3154,-405.5 1231.3154,-423.5 1407.9648,-423.5 1407.9648,-405.5 1231.3154,-405.5"/>
<text text-anchor="middle" x="1319.6401" y="-411.5" font-family="Helvetica,sans-Serif" font-size="10.00" fill="#000000">MeetingClient/IMeetingAttendee.hxx</text>
</a>
</g>
</g>
<!-- Node0&#45;&gt;Node29 -->
<g id="edge38" class="edge">
<title>Node0&#45;&gt;Node29</title>
<path fill="none" stroke="#191970" d="M1485.4302,-465.4601C1443.0559,-452.4352 1392.5553,-436.9125 1358.516,-426.4496"/>
<polygon fill="#191970" stroke="#191970" points="1359.5275,-423.0989 1348.9405,-423.5063 1357.4708,-429.79 1359.5275,-423.0989"/>
</g>
<!-- Node32 -->
<g id="node33" class="node">
<title>Node32</title>
<g id="a_node33"><a xlink:href="_i_o_service_provider_8hxx.html" target="_top" xlink:title=" ">
<polygon fill="none" stroke="#000000" points="1844.2144,-405.5 1844.2144,-423.5 2023.0659,-423.5 2023.0659,-405.5 1844.2144,-405.5"/>
<text text-anchor="middle" x="1933.6401" y="-411.5" font-family="Helvetica,sans-Serif" font-size="10.00" fill="#000000">MeetingClient/IOServiceProvider.hxx</text>
</a>
</g>
</g>
<!-- Node0&#45;&gt;Node32 -->
<g id="edge42" class="edge">
<title>Node0&#45;&gt;Node32</title>
<path fill="none" stroke="#191970" d="M1670.1631,-467.9075C1738.4956,-454.0563 1824.3626,-436.6509 1879.1352,-425.5483"/>
<polygon fill="#191970" stroke="#191970" points="1879.884,-428.9678 1888.9894,-423.5508 1878.4933,-422.1073 1879.884,-428.9678"/>
</g>
<!-- Node34 -->
<g id="node35" class="node">
<title>Node34</title>
<g id="a_node35"><a xlink:href="_module_version_8hxx.html" target="_top" xlink:title=" ">
<polygon fill="none" stroke="#000000" points="1426.4312,-405.5 1426.4312,-423.5 1590.8491,-423.5 1590.8491,-405.5 1426.4312,-405.5"/>
<text text-anchor="middle" x="1508.6401" y="-411.5" font-family="Helvetica,sans-Serif" font-size="10.00" fill="#000000">MeetingClient/ModuleVersion.hxx</text>
</a>
</g>
</g>
<!-- Node0&#45;&gt;Node34 -->
<g id="edge46" class="edge">
<title>Node0&#45;&gt;Node34</title>
<path fill="none" stroke="#191970" d="M1545.935,-465.3567C1537.9528,-454.4719 1528.7042,-441.86 1521.4139,-431.9188"/>
<polygon fill="#191970" stroke="#191970" points="1524.098,-429.6603 1515.3619,-423.666 1518.4531,-433.7998 1524.098,-429.6603"/>
</g>
<!-- Node36 -->
<g id="node37" class="node">
<title>Node36</title>
<g id="a_node37"><a xlink:href="_group_state_8hxx.html" target="_top" xlink:title=" ">
<polygon fill="none" stroke="#000000" points="1524.729,-260.5 1524.729,-288.5 1628.5513,-288.5 1628.5513,-260.5 1524.729,-260.5"/>
<text text-anchor="start" x="1532.729" y="-276.5" font-family="Helvetica,sans-Serif" font-size="10.00" fill="#000000">MeetingClient/types</text>
<text text-anchor="middle" x="1576.6401" y="-266.5" font-family="Helvetica,sans-Serif" font-size="10.00" fill="#000000">/GroupState.hxx</text>
</a>
</g>
</g>
<!-- Node0&#45;&gt;Node36 -->
<g id="edge51" class="edge">
<title>Node0&#45;&gt;Node36</title>
<path fill="none" stroke="#191970" d="M1582.124,-465.2706C1589.0566,-454.7202 1596.1074,-441.8454 1599.6401,-429 1611.897,-384.4325 1609.4422,-370.1709 1599.6401,-325 1597.6137,-315.6618 1593.7049,-305.9788 1589.6765,-297.62"/>
<polygon fill="#191970" stroke="#191970" points="1592.6818,-295.8106 1584.9982,-288.5158 1586.4557,-299.01 1592.6818,-295.8106"/>
</g>
<!-- Node37 -->
<g id="node38" class="node">
<title>Node37</title>
<g id="a_node38"><a xlink:href="enum2int_8hxx.html" target="_top" xlink:title=" ">
<polygon fill="none" stroke="#000000" points="2040.7881,-400.5 2040.7881,-428.5 2138.4922,-428.5 2138.4922,-400.5 2040.7881,-400.5"/>
<text text-anchor="start" x="2048.7881" y="-416.5" font-family="Helvetica,sans-Serif" font-size="10.00" fill="#000000">MeetingClient/utils</text>
<text text-anchor="middle" x="2089.6401" y="-406.5" font-family="Helvetica,sans-Serif" font-size="10.00" fill="#000000">/enum2int.hxx</text>
</a>
</g>
</g>
<!-- Node0&#45;&gt;Node37 -->
<g id="edge53" class="edge">
<title>Node0&#45;&gt;Node37</title>
<path fill="none" stroke="#191970" d="M1670.1421,-479.303C1762.9451,-469.5924 1901.2366,-453.1371 2030.5903,-429.0627"/>
<polygon fill="#191970" stroke="#191970" points="2031.4999,-432.4531 2040.681,-427.1656 2030.2064,-425.5736 2031.4999,-432.4531"/>
</g>
<!-- Node38 -->
<g id="node39" class="node">
<title>Node38</title>
<g id="a_node39"><a xlink:title=" ">
<polygon fill="none" stroke="#bfbfbf" points="2156.5615,-405.5 2156.5615,-423.5 2238.7188,-423.5 2238.7188,-405.5 2156.5615,-405.5"/>
<text text-anchor="middle" x="2197.6401" y="-411.5" font-family="Helvetica,sans-Serif" font-size="10.00" fill="#000000">VoE/Types.hxx</text>
</a>
</g>
</g>
<!-- Node0&#45;&gt;Node38 -->
<g id="edge54" class="edge">
<title>Node0&#45;&gt;Node38</title>
<path fill="none" stroke="#191970" d="M1670.25,-484.197C1787.9735,-477.0128 1982.6926,-461.192 2147.6401,-429 2151.7318,-428.2014 2155.9722,-427.2199 2160.1749,-426.1473"/>
<polygon fill="#191970" stroke="#191970" points="2161.0943,-429.5245 2169.8251,-423.5224 2159.257,-422.7699 2161.0943,-429.5245"/>
</g>
<!-- Node39 -->
<g id="node40" class="node">
<title>Node39</title>
<g id="a_node40"><a xlink:title=" ">
<polygon fill="none" stroke="#bfbfbf" points="2257.2012,-405.5 2257.2012,-423.5 2348.0791,-423.5 2348.0791,-405.5 2257.2012,-405.5"/>
<text text-anchor="middle" x="2302.6401" y="-411.5" font-family="Helvetica,sans-Serif" font-size="10.00" fill="#000000">VideoEngine.hxx</text>
</a>
</g>
</g>
<!-- Node0&#45;&gt;Node39 -->
<g id="edge55" class="edge">
<title>Node0&#45;&gt;Node39</title>
<path fill="none" stroke="#191970" d="M1670.1173,-485.6739C1805.274,-479.5396 2045.213,-464.3727 2247.6401,-429 2252.3762,-428.1724 2257.3002,-427.1351 2262.1693,-425.9979"/>
<polygon fill="#191970" stroke="#191970" points="2263.1452,-429.362 2272.009,-423.5582 2261.4605,-422.5677 2263.1452,-429.362"/>
</g>
<!-- Node3 -->
<g id="node4" class="node">
<title>Node3</title>
<g id="a_node4"><a xlink:title=" ">
<polygon fill="none" stroke="#bfbfbf" points="802.7759,-335.5 802.7759,-353.5 900.5044,-353.5 900.5044,-335.5 802.7759,-335.5"/>
<text text-anchor="middle" x="851.6401" y="-341.5" font-family="Helvetica,sans-Serif" font-size="10.00" fill="#000000">boost/function.hpp</text>
</a>
</g>
</g>
<!-- Node2&#45;&gt;Node3 -->
<g id="edge3" class="edge">
<title>Node2&#45;&gt;Node3</title>
<path fill="none" stroke="#191970" d="M863.6047,-400.3345C861.3471,-389.799 858.2409,-375.3036 855.7593,-363.7227"/>
<polygon fill="#191970" stroke="#191970" points="859.1371,-362.7814 853.6194,-353.7368 852.2925,-364.2482 859.1371,-362.7814"/>
</g>
<!-- Node4 -->
<g id="node5" class="node">
<title>Node4</title>
<g id="a_node5"><a xlink:title=" ">
<polygon fill="none" stroke="#bfbfbf" points="786.0244,-200.5 786.0244,-218.5 829.2559,-218.5 829.2559,-200.5 786.0244,-200.5"/>
<text text-anchor="middle" x="807.6401" y="-206.5" font-family="Helvetica,sans-Serif" font-size="10.00" fill="#000000">vector</text>
</a>
</g>
</g>
<!-- Node2&#45;&gt;Node4 -->
<g id="edge4" class="edge">
<title>Node2&#45;&gt;Node4</title>
<path fill="none" stroke="#191970" d="M883.4372,-400.4733C893.1216,-391.245 904.3899,-378.2644 909.6401,-364 915.6273,-347.7335 915.7739,-341.2118 909.6401,-325 893.3811,-282.0264 853.0277,-244.7275 828.2279,-224.8317"/>
<polygon fill="#191970" stroke="#191970" points="830.2055,-221.9352 820.1696,-218.5393 825.8973,-227.4525 830.2055,-221.9352"/>
</g>
<!-- Node5 -->
<g id="node6" class="node">
<title>Node5</title>
<g id="a_node6"><a xlink:href="_i_active_speaker_notifications_delegate_8hxx.html" target="_top" xlink:title=" ">
<polygon fill="none" stroke="#000000" points="644.3892,-325.5 644.3892,-363.5 784.8911,-363.5 784.8911,-325.5 644.3892,-325.5"/>
<text text-anchor="start" x="652.3892" y="-351.5" font-family="Helvetica,sans-Serif" font-size="10.00" fill="#000000">MeetingClient/Delegates</text>
<text text-anchor="start" x="652.3892" y="-341.5" font-family="Helvetica,sans-Serif" font-size="10.00" fill="#000000">/IActiveSpeakerNotifications</text>
<text text-anchor="middle" x="714.6401" y="-331.5" font-family="Helvetica,sans-Serif" font-size="10.00" fill="#000000">Delegate.hxx</text>
</a>
</g>
</g>
<!-- Node2&#45;&gt;Node5 -->
<g id="edge5" class="edge">
<title>Node2&#45;&gt;Node5</title>
<path fill="none" stroke="#191970" d="M835.8807,-400.3345C815.5864,-390.9884 788.5255,-378.5261 765.1186,-367.7467"/>
<polygon fill="#191970" stroke="#191970" points="766.562,-364.5581 756.0148,-363.5541 763.6338,-370.9163 766.562,-364.5581"/>
</g>
<!-- Node2&#45;&gt;Node22 -->
<g id="edge27" class="edge">
<title>Node2&#45;&gt;Node22</title>
<path fill="none" stroke="#191970" d="M908.3273,-400.3345C941.1034,-389.1969 986.903,-373.634 1021.8254,-361.7672"/>
<polygon fill="#191970" stroke="#191970" points="1023.0248,-365.0562 1031.367,-358.5249 1020.7726,-358.4284 1023.0248,-365.0562"/>
</g>
<!-- Node5&#45;&gt;Node4 -->
<g id="edge26" class="edge">
<title>Node5&#45;&gt;Node4</title>
<path fill="none" stroke="#191970" d="M727.7675,-325.4441C745.8723,-299.163 778.2427,-252.1737 795.6988,-226.8342"/>
<polygon fill="#191970" stroke="#191970" points="798.6103,-228.7773 801.4011,-218.5567 792.8457,-224.8062 798.6103,-228.7773"/>
</g>
<!-- Node6 -->
<g id="node7" class="node">
<title>Node6</title>
<g id="a_node7"><a xlink:href="_notifications_8hxx.html" target="_top" xlink:title=" ">
<polygon fill="none" stroke="#000000" points="539.165,-260.5 539.165,-288.5 664.1152,-288.5 664.1152,-260.5 539.165,-260.5"/>
<text text-anchor="start" x="547.165" y="-276.5" font-family="Helvetica,sans-Serif" font-size="10.00" fill="#000000">MeetingClient/Delegates</text>
<text text-anchor="middle" x="601.6401" y="-266.5" font-family="Helvetica,sans-Serif" font-size="10.00" fill="#000000">/Notifications.hxx</text>
</a>
</g>
</g>
<!-- Node5&#45;&gt;Node6 -->
<g id="edge6" class="edge">
<title>Node5&#45;&gt;Node6</title>
<path fill="none" stroke="#191970" d="M683.7624,-325.3722C668.1396,-315.6943 649.2008,-303.9624 633.4493,-294.2048"/>
<polygon fill="#191970" stroke="#191970" points="634.9367,-291.0091 624.5925,-288.7183 631.2504,-296.9598 634.9367,-291.0091"/>
</g>
<!-- Node7 -->
<g id="node8" class="node">
<title>Node7</title>
<g id="a_node8"><a xlink:title=" ">
<polygon fill="none" stroke="#bfbfbf" points="732.9136,-200.5 732.9136,-218.5 768.3667,-218.5 768.3667,-200.5 732.9136,-200.5"/>
<text text-anchor="middle" x="750.6401" y="-206.5" font-family="Helvetica,sans-Serif" font-size="10.00" fill="#000000">map</text>
</a>
</g>
</g>
<!-- Node5&#45;&gt;Node7 -->
<g id="edge25" class="edge">
<title>Node5&#45;&gt;Node7</title>
<path fill="none" stroke="#191970" d="M719.7217,-325.4441C726.5763,-299.7394 738.7136,-254.2246 745.5649,-228.5321"/>
<polygon fill="#191970" stroke="#191970" points="749.0302,-229.1209 748.225,-218.5567 742.2665,-227.3172 749.0302,-229.1209"/>
</g>
<!-- Node6&#45;&gt;Node1 -->
<g id="edge7" class="edge">
<title>Node6&#45;&gt;Node1</title>
<path fill="none" stroke="#191970" d="M538.8176,-270.2001C448.8092,-263.5289 277.8298,-248.9599 123.431,-224.1845"/>
<polygon fill="#191970" stroke="#191970" points="123.7177,-220.6853 113.2861,-222.5378 122.5961,-227.5948 123.7177,-220.6853"/>
</g>
<!-- Node6&#45;&gt;Node4 -->
<g id="edge9" class="edge">
<title>Node6&#45;&gt;Node4</title>
<path fill="none" stroke="#191970" d="M659.9228,-260.4528C694.5967,-251.438 739.1833,-238.6875 777.6401,-224 778.6669,-223.6079 779.7065,-223.194 780.7514,-222.7639"/>
<polygon fill="#191970" stroke="#191970" points="782.3858,-225.8674 790.0938,-218.5985 779.5352,-219.4741 782.3858,-225.8674"/>
</g>
<!-- Node6&#45;&gt;Node7 -->
<g id="edge8" class="edge">
<title>Node6&#45;&gt;Node7</title>
<path fill="none" stroke="#191970" d="M638.359,-260.4166C662.7981,-250.7715 695.469,-237.3537 723.6401,-224 724.196,-223.7365 724.7568,-223.4672 725.3209,-223.1932"/>
<polygon fill="#191970" stroke="#191970" points="727.1832,-226.1723 734.4987,-218.5085 724.0007,-219.9375 727.1832,-226.1723"/>
</g>
<!-- Node8 -->
<g id="node9" class="node">
<title>Node8</title>
<g id="a_node9"><a xlink:title=" ">
<polygon fill="none" stroke="#bfbfbf" points="299.9531,-200.5 299.9531,-218.5 389.3271,-218.5 389.3271,-200.5 299.9531,-200.5"/>
<text text-anchor="middle" x="344.6401" y="-206.5" font-family="Helvetica,sans-Serif" font-size="10.00" fill="#000000">FSSnapshot.hxx</text>
</a>
</g>
</g>
<!-- Node6&#45;&gt;Node8 -->
<g id="edge10" class="edge">
<title>Node6&#45;&gt;Node8</title>
<path fill="none" stroke="#191970" d="M543.0678,-260.4015C502.2396,-250.476 446.5406,-236.7398 397.6401,-224 394.1091,-223.0801 390.4501,-222.1114 386.7801,-221.1289"/>
<polygon fill="#191970" stroke="#191970" points="387.6869,-217.7485 377.1203,-218.5206 385.8621,-224.5065 387.6869,-217.7485"/>
</g>
<!-- Node6&#45;&gt;Node9 -->
<g id="edge11" class="edge">
<title>Node6&#45;&gt;Node9</title>
<path fill="none" stroke="#191970" d="M664.2015,-261.4245C721.3582,-249.4785 804.9757,-232.0022 859.1078,-220.6884"/>
<polygon fill="#191970" stroke="#191970" points="860.1193,-224.0527 869.1917,-218.5809 858.6872,-217.2008 860.1193,-224.0527"/>
</g>
<!-- Node10 -->
<g id="node11" class="node">
<title>Node10</title>
<g id="a_node11"><a xlink:href="_f_s_base_8hxx.html" target="_top" xlink:title=" ">
<polygon fill="none" stroke="#000000" points="406.9482,-195.5 406.9482,-223.5 526.332,-223.5 526.332,-195.5 406.9482,-195.5"/>
<text text-anchor="start" x="414.9482" y="-211.5" font-family="Helvetica,sans-Serif" font-size="10.00" fill="#000000">MeetingClient/transport</text>
<text text-anchor="middle" x="466.6401" y="-201.5" font-family="Helvetica,sans-Serif" font-size="10.00" fill="#000000">/FSBase.hxx</text>
</a>
</g>
</g>
<!-- Node6&#45;&gt;Node10 -->
<g id="edge12" class="edge">
<title>Node6&#45;&gt;Node10</title>
<path fill="none" stroke="#191970" d="M572.3471,-260.396C552.6221,-250.8987 526.4066,-238.2764 505.0177,-227.9781"/>
<polygon fill="#191970" stroke="#191970" points="506.4044,-224.7612 495.876,-223.5765 503.3676,-231.0682 506.4044,-224.7612"/>
</g>
<!-- Node11 -->
<g id="node12" class="node">
<title>Node11</title>
<g id="a_node12"><a xlink:href="_meeting_types_8hxx.html" target="_top" xlink:title=" ">
<polygon fill="none" stroke="#000000" points="707.729,-130.5 707.729,-158.5 811.5513,-158.5 811.5513,-130.5 707.729,-130.5"/>
<text text-anchor="start" x="715.729" y="-146.5" font-family="Helvetica,sans-Serif" font-size="10.00" fill="#000000">MeetingClient/types</text>
<text text-anchor="middle" x="759.6401" y="-136.5" font-family="Helvetica,sans-Serif" font-size="10.00" fill="#000000">/MeetingTypes.hxx</text>
</a>
</g>
</g>
<!-- Node6&#45;&gt;Node11 -->
<g id="edge13" class="edge">
<title>Node6&#45;&gt;Node11</title>
<path fill="none" stroke="#191970" d="M589.1675,-260.3026C575.8349,-243.3346 558.5291,-214.7608 573.6401,-195 588.8208,-175.1481 649.6127,-161.2696 697.6194,-153.1525"/>
<polygon fill="#191970" stroke="#191970" points="698.3467,-156.5801 707.6484,-151.5078 697.2138,-149.6724 698.3467,-156.5801"/>
</g>
<!-- Node17 -->
<g id="node18" class="node">
<title>Node17</title>
<g id="a_node18"><a xlink:href="_conference_attribute_definitions_8hxx.html" target="_top" xlink:title=" ">
<polygon fill="none" stroke="#000000" points="582.8301,-195.5 582.8301,-223.5 714.4502,-223.5 714.4502,-195.5 582.8301,-195.5"/>
<text text-anchor="start" x="590.8301" y="-211.5" font-family="Helvetica,sans-Serif" font-size="10.00" fill="#000000">MeetingClient/Conference</text>
<text text-anchor="middle" x="648.6401" y="-201.5" font-family="Helvetica,sans-Serif" font-size="10.00" fill="#000000">AttributeDefinitions.hxx</text>
</a>
</g>
</g>
<!-- Node6&#45;&gt;Node17 -->
<g id="edge19" class="edge">
<title>Node6&#45;&gt;Node17</title>
<path fill="none" stroke="#191970" d="M611.8384,-260.396C617.8742,-252.0486 625.6556,-241.2871 632.5074,-231.8113"/>
<polygon fill="#191970" stroke="#191970" points="635.4385,-233.7309 638.4617,-223.5765 629.766,-229.6292 635.4385,-233.7309"/>
</g>
<!-- Node6&#45;&gt;Node18 -->
<g id="edge20" class="edge">
<title>Node6&#45;&gt;Node18</title>
<path fill="none" stroke="#191970" d="M539.0634,-264.5265C478.4474,-254.8228 383.6426,-239.5342 292.1738,-224.2485"/>
<polygon fill="#191970" stroke="#191970" points="292.6308,-220.7764 282.1903,-222.5779 291.4754,-227.6804 292.6308,-220.7764"/>
</g>
<!-- Node11&#45;&gt;Node12 -->
<g id="edge14" class="edge">
<title>Node11&#45;&gt;Node12</title>
<path fill="none" stroke="#191970" d="M811.6586,-140.1596C946.7876,-128.8844 1309.2452,-98.6408 1465.4054,-85.6107"/>
<polygon fill="#191970" stroke="#191970" points="1466.1633,-89.0597 1475.8377,-84.7403 1465.5812,-82.084 1466.1633,-89.0597"/>
</g>
<!-- Node15 -->
<g id="node16" class="node">
<title>Node15</title>
<g id="a_node16"><a xlink:href="strong__identity_8hxx.html" target="_top" xlink:title=" ">
<polygon fill="none" stroke="#000000" points="708.9302,-65.5 708.9302,-93.5 810.3501,-93.5 810.3501,-65.5 708.9302,-65.5"/>
<text text-anchor="start" x="716.9302" y="-81.5" font-family="Helvetica,sans-Serif" font-size="10.00" fill="#000000">MeetingClient/utils</text>
<text text-anchor="middle" x="759.6401" y="-71.5" font-family="Helvetica,sans-Serif" font-size="10.00" fill="#000000">/strong_identity.hxx</text>
</a>
</g>
</g>
<!-- Node11&#45;&gt;Node15 -->
<g id="edge17" class="edge">
<title>Node11&#45;&gt;Node15</title>
<path fill="none" stroke="#191970" d="M759.6401,-130.396C759.6401,-122.6448 759.6401,-112.8122 759.6401,-103.8601"/>
<polygon fill="#191970" stroke="#191970" points="763.1402,-103.5765 759.6401,-93.5765 756.1402,-103.5765 763.1402,-103.5765"/>
</g>
<!-- Node13 -->
<g id="node14" class="node">
<title>Node13</title>
<g id="a_node14"><a xlink:title=" ">
<polygon fill="none" stroke="#bfbfbf" points="1227.4136,-5.5 1227.4136,-23.5 1267.8667,-23.5 1267.8667,-5.5 1227.4136,-5.5"/>
<text text-anchor="middle" x="1247.6401" y="-11.5" font-family="Helvetica,sans-Serif" font-size="10.00" fill="#000000">string</text>
</a>
</g>
</g>
<!-- Node12&#45;&gt;Node13 -->
<g id="edge15" class="edge">
<title>Node12&#45;&gt;Node13</title>
<path fill="none" stroke="#191970" d="M1475.8557,-65.476C1414.6541,-51.8055 1324.2149,-31.6043 1277.6974,-21.2138"/>
<polygon fill="#191970" stroke="#191970" points="1278.4509,-17.796 1267.9284,-19.0317 1276.9249,-24.6276 1278.4509,-17.796"/>
</g>
<!-- Node14 -->
<g id="node15" class="node">
<title>Node14</title>
<g id="a_node15"><a xlink:title=" ">
<polygon fill="none" stroke="#bfbfbf" points="1487.8447,-5.5 1487.8447,-23.5 1589.4355,-23.5 1589.4355,-5.5 1487.8447,-5.5"/>
<text text-anchor="middle" x="1538.6401" y="-11.5" font-family="Helvetica,sans-Serif" font-size="10.00" fill="#000000">CommonTypes.hxx</text>
</a>
</g>
</g>
<!-- Node12&#45;&gt;Node14 -->
<g id="edge16" class="edge">
<title>Node12&#45;&gt;Node14</title>
<path fill="none" stroke="#191970" d="M1538.6401,-65.396C1538.6401,-56.1723 1538.6401,-44.0011 1538.6401,-33.8738"/>
<polygon fill="#191970" stroke="#191970" points="1542.1402,-33.5743 1538.6401,-23.5743 1535.1402,-33.5743 1542.1402,-33.5743"/>
</g>
<!-- Node16 -->
<g id="node17" class="node">
<title>Node16</title>
<g id="a_node17"><a xlink:title=" ">
<polygon fill="none" stroke="#bfbfbf" points="707.4409,-.5 707.4409,-28.5 811.8394,-28.5 811.8394,-.5 707.4409,-.5"/>
<text text-anchor="start" x="715.4409" y="-16.5" font-family="Helvetica,sans-Serif" font-size="10.00" fill="#000000">boost/serialization</text>
<text text-anchor="middle" x="759.6401" y="-6.5" font-family="Helvetica,sans-Serif" font-size="10.00" fill="#000000">/strong_typedef.hpp</text>
</a>
</g>
</g>
<!-- Node15&#45;&gt;Node16 -->
<g id="edge18" class="edge">
<title>Node15&#45;&gt;Node16</title>
<path fill="none" stroke="#191970" d="M759.6401,-65.396C759.6401,-57.6448 759.6401,-47.8122 759.6401,-38.8601"/>
<polygon fill="#191970" stroke="#191970" points="763.1402,-38.5765 759.6401,-28.5765 756.1402,-38.5765 763.1402,-38.5765"/>
</g>
<!-- Node18&#45;&gt;Node11 -->
<g id="edge21" class="edge">
<title>Node18&#45;&gt;Node11</title>
<path fill="none" stroke="#191970" d="M282.6122,-196.1627C285.3196,-195.7584 288.002,-195.3693 290.6401,-195 435.8942,-174.664 607.4563,-158.0654 697.423,-149.9281"/>
<polygon fill="#191970" stroke="#191970" points="697.8091,-153.4076 707.4551,-149.0252 697.1816,-146.4358 697.8091,-153.4076"/>
</g>
<!-- Node19 -->
<g id="node20" class="node">
<title>Node19</title>
<g id="a_node20"><a xlink:title=" ">
<polygon fill="none" stroke="#bfbfbf" points="95.0762,-135.5 95.0762,-153.5 152.2041,-153.5 152.2041,-135.5 95.0762,-135.5"/>
<text text-anchor="middle" x="123.6401" y="-141.5" font-family="Helvetica,sans-Serif" font-size="10.00" fill="#000000">algorithm</text>
</a>
</g>
</g>
<!-- Node18&#45;&gt;Node19 -->
<g id="edge22" class="edge">
<title>Node18&#45;&gt;Node19</title>
<path fill="none" stroke="#191970" d="M188.6304,-195.396C175.2061,-184.883 156.8923,-170.5408 143.1264,-159.7603"/>
<polygon fill="#191970" stroke="#191970" points="145.2584,-156.9844 135.2273,-153.5743 140.9424,-162.4956 145.2584,-156.9844"/>
</g>
<!-- Node20 -->
<g id="node21" class="node">
<title>Node20</title>
<g id="a_node21"><a xlink:title=" ">
<polygon fill="none" stroke="#bfbfbf" points="169.7363,-135.5 169.7363,-153.5 243.5439,-153.5 243.5439,-135.5 169.7363,-135.5"/>
<text text-anchor="middle" x="206.6401" y="-141.5" font-family="Helvetica,sans-Serif" font-size="10.00" fill="#000000">Printable.hxx</text>
</a>
</g>
</g>
<!-- Node18&#45;&gt;Node20 -->
<g id="edge23" class="edge">
<title>Node18&#45;&gt;Node20</title>
<path fill="none" stroke="#191970" d="M206.6401,-195.396C206.6401,-186.1723 206.6401,-174.0011 206.6401,-163.8738"/>
<polygon fill="#191970" stroke="#191970" points="210.1402,-163.5743 206.6401,-153.5743 203.1402,-163.5743 210.1402,-163.5743"/>
</g>
<!-- Node21 -->
<g id="node22" class="node">
<title>Node21</title>
<g id="a_node22"><a xlink:title=" ">
<polygon fill="none" stroke="#bfbfbf" points="261.1206,-135.5 261.1206,-153.5 342.1597,-153.5 342.1597,-135.5 261.1206,-135.5"/>
<text text-anchor="middle" x="301.6401" y="-141.5" font-family="Helvetica,sans-Serif" font-size="10.00" fill="#000000">VoIPClient.hxx</text>
</a>
</g>
</g>
<!-- Node18&#45;&gt;Node21 -->
<g id="edge24" class="edge">
<title>Node18&#45;&gt;Node21</title>
<path fill="none" stroke="#191970" d="M227.2537,-195.396C242.7638,-184.7838 263.9765,-170.2699 279.7811,-159.4562"/>
<polygon fill="#191970" stroke="#191970" points="282.101,-162.1098 288.3777,-153.5743 278.1482,-156.3326 282.101,-162.1098"/>
</g>
<!-- Node23 -->
<g id="node24" class="node">
<title>Node23</title>
<g id="a_node24"><a xlink:href="_meeting_attendee_readonly_8hxx.html" target="_top" xlink:title=" ">
<polygon fill="none" stroke="#000000" points="1021.8745,-260.5 1021.8745,-288.5 1177.4058,-288.5 1177.4058,-260.5 1021.8745,-260.5"/>
<text text-anchor="start" x="1029.8745" y="-276.5" font-family="Helvetica,sans-Serif" font-size="10.00" fill="#000000">MeetingClient/MeetingAttendee</text>
<text text-anchor="middle" x="1099.6401" y="-266.5" font-family="Helvetica,sans-Serif" font-size="10.00" fill="#000000">Readonly.hxx</text>
</a>
</g>
</g>
<!-- Node22&#45;&gt;Node23 -->
<g id="edge28" class="edge">
<title>Node22&#45;&gt;Node23</title>
<path fill="none" stroke="#191970" d="M1078.104,-330.3345C1081.6539,-321.1311 1086.3693,-308.9058 1090.4828,-298.2413"/>
<polygon fill="#191970" stroke="#191970" points="1093.8511,-299.2341 1094.1844,-288.6445 1087.3201,-296.7149 1093.8511,-299.2341"/>
</g>
<!-- Node23&#45;&gt;Node4 -->
<g id="edge34" class="edge">
<title>Node23&#45;&gt;Node4</title>
<path fill="none" stroke="#191970" d="M1021.7693,-264.9049C968.933,-257.088 897.985,-244.019 837.6401,-224 836.4048,-223.5902 835.1548,-223.1404 833.9024,-222.6608"/>
<polygon fill="#191970" stroke="#191970" points="835.0213,-219.3314 824.4538,-218.5707 832.2405,-225.7553 835.0213,-219.3314"/>
</g>
<!-- Node23&#45;&gt;Node9 -->
<g id="edge36" class="edge">
<title>Node23&#45;&gt;Node9</title>
<path fill="none" stroke="#191970" d="M1059.0639,-260.396C1026.1083,-248.9408 980.0732,-232.9393 948.4663,-221.953"/>
<polygon fill="#191970" stroke="#191970" points="949.341,-218.5516 938.7462,-218.5743 947.0427,-225.1636 949.341,-218.5516"/>
</g>
<!-- Node23&#45;&gt;Node11 -->
<g id="edge35" class="edge">
<title>Node23&#45;&gt;Node11</title>
<path fill="none" stroke="#191970" d="M1080.2343,-260.4228C1049.5354,-238.1972 992.7076,-197.2486 987.6401,-195 934.2992,-171.3309 868.8622,-158.3133 821.7944,-151.452"/>
<polygon fill="#191970" stroke="#191970" points="822.1321,-147.9652 811.7423,-150.0393 821.1578,-154.8971 822.1321,-147.9652"/>
</g>
<!-- Node23&#45;&gt;Node13 -->
<g id="edge33" class="edge">
<title>Node23&#45;&gt;Node13</title>
<path fill="none" stroke="#191970" d="M1085.5589,-260.2431C1071.715,-244.4133 1053.9625,-218.0504 1063.6401,-195 1096.4823,-116.7762 1181.5967,-55.4174 1223.547,-28.8465"/>
<polygon fill="#191970" stroke="#191970" points="1225.3989,-31.8164 1232.0464,-23.5665 1221.7051,-25.8703 1225.3989,-31.8164"/>
</g>
<!-- Node24 -->
<g id="node25" class="node">
<title>Node24</title>
<g id="a_node25"><a xlink:title=" ">
<polygon fill="none" stroke="#bfbfbf" points="1072.6577,-200.5 1072.6577,-218.5 1182.6226,-218.5 1182.6226,-200.5 1072.6577,-200.5"/>
<text text-anchor="middle" x="1127.6401" y="-206.5" font-family="Helvetica,sans-Serif" font-size="10.00" fill="#000000">boost/shared_ptr.hpp</text>
</a>
</g>
</g>
<!-- Node23&#45;&gt;Node24 -->
<g id="edge29" class="edge">
<title>Node23&#45;&gt;Node24</title>
<path fill="none" stroke="#191970" d="M1105.7157,-260.396C1109.8171,-250.8748 1115.2715,-238.2128 1119.7138,-227.9003"/>
<polygon fill="#191970" stroke="#191970" points="1122.9894,-229.1431 1123.7312,-218.5743 1116.5605,-226.3737 1122.9894,-229.1431"/>
</g>
<!-- Node25 -->
<g id="node26" class="node">
<title>Node25</title>
<g id="a_node26"><a xlink:title=" ">
<polygon fill="none" stroke="#bfbfbf" points="1200.3301,-200.5 1200.3301,-218.5 1316.9502,-218.5 1316.9502,-200.5 1200.3301,-200.5"/>
<text text-anchor="middle" x="1258.6401" y="-206.5" font-family="Helvetica,sans-Serif" font-size="10.00" fill="#000000">boost/thread/locks.hpp</text>
</a>
</g>
</g>
<!-- Node23&#45;&gt;Node25 -->
<g id="edge30" class="edge">
<title>Node23&#45;&gt;Node25</title>
<path fill="none" stroke="#191970" d="M1134.1408,-260.396C1161.7979,-249.0896 1200.2892,-233.3542 1227.1251,-222.3835"/>
<polygon fill="#191970" stroke="#191970" points="1228.511,-225.5982 1236.443,-218.5743 1225.8621,-219.1187 1228.511,-225.5982"/>
</g>
<!-- Node26 -->
<g id="node27" class="node">
<title>Node26</title>
<g id="a_node27"><a xlink:title=" ">
<polygon fill="none" stroke="#bfbfbf" points="1335.165,-195.5 1335.165,-223.5 1440.1152,-223.5 1440.1152,-195.5 1335.165,-195.5"/>
<text text-anchor="start" x="1343.165" y="-211.5" font-family="Helvetica,sans-Serif" font-size="10.00" fill="#000000">boost/thread/shared</text>
<text text-anchor="middle" x="1387.6401" y="-201.5" font-family="Helvetica,sans-Serif" font-size="10.00" fill="#000000">_mutex.hpp</text>
</a>
</g>
</g>
<!-- Node23&#45;&gt;Node26 -->
<g id="edge31" class="edge">
<title>Node23&#45;&gt;Node26</title>
<path fill="none" stroke="#191970" d="M1163.4848,-260.4106C1206.3825,-250.9029 1264.4542,-237.9537 1324.788,-224.1828"/>
<polygon fill="#191970" stroke="#191970" points="1325.9143,-227.5158 1334.8832,-221.8758 1324.3547,-220.6917 1325.9143,-227.5158"/>
</g>
<!-- Node27 -->
<g id="node28" class="node">
<title>Node27</title>
<g id="a_node28"><a xlink:title=" ">
<polygon fill="none" stroke="#bfbfbf" points="1458.5786,-200.5 1458.5786,-218.5 1510.7017,-218.5 1510.7017,-200.5 1458.5786,-200.5"/>
<text text-anchor="middle" x="1484.6401" y="-206.5" font-family="Helvetica,sans-Serif" font-size="10.00" fill="#000000">ostream</text>
</a>
</g>
</g>
<!-- Node23&#45;&gt;Node27 -->
<g id="edge32" class="edge">
<title>Node23&#45;&gt;Node27</title>
<path fill="none" stroke="#191970" d="M1177.6541,-268.5891C1249.1039,-261.915 1357.313,-248.618 1448.6401,-224 1450.5918,-223.4739 1452.5805,-222.872 1454.5707,-222.2192"/>
<polygon fill="#191970" stroke="#191970" points="1456.1729,-225.3606 1464.3697,-218.6476 1453.7757,-218.7838 1456.1729,-225.3606"/>
</g>
<!-- Node30 -->
<g id="node31" class="node">
<title>Node30</title>
<g id="a_node31"><a xlink:title=" ">
<polygon fill="none" stroke="#bfbfbf" points="1168.2734,-335.5 1168.2734,-353.5 1271.0068,-353.5 1271.0068,-335.5 1168.2734,-335.5"/>
<text text-anchor="middle" x="1219.6401" y="-341.5" font-family="Helvetica,sans-Serif" font-size="10.00" fill="#000000">boost/weak_ptr.hpp</text>
</a>
</g>
</g>
<!-- Node29&#45;&gt;Node30 -->
<g id="edge39" class="edge">
<title>Node29&#45;&gt;Node30</title>
<path fill="none" stroke="#191970" d="M1306.5669,-405.3487C1289.9473,-393.715 1261.0295,-373.4726 1241.142,-359.5513"/>
<polygon fill="#191970" stroke="#191970" points="1242.9161,-356.5209 1232.7166,-353.6535 1238.9018,-362.2555 1242.9161,-356.5209"/>
</g>
<!-- Node31 -->
<g id="node32" class="node">
<title>Node31</title>
<g id="a_node32"><a xlink:href="_meeting_attendee_a_p_i_8hxx.html" target="_top" xlink:title=" ">
<polygon fill="none" stroke="#000000" points="1288.8745,-330.5 1288.8745,-358.5 1444.4058,-358.5 1444.4058,-330.5 1288.8745,-330.5"/>
<text text-anchor="start" x="1296.8745" y="-346.5" font-family="Helvetica,sans-Serif" font-size="10.00" fill="#000000">MeetingClient/MeetingAttendee</text>
<text text-anchor="middle" x="1366.6401" y="-336.5" font-family="Helvetica,sans-Serif" font-size="10.00" fill="#000000">API.hxx</text>
</a>
</g>
</g>
<!-- Node29&#45;&gt;Node31 -->
<g id="edge40" class="edge">
<title>Node29&#45;&gt;Node31</title>
<path fill="none" stroke="#191970" d="M1325.7846,-405.3487C1332.2541,-395.7133 1342.6885,-380.1726 1351.3928,-367.2089"/>
<polygon fill="#191970" stroke="#191970" points="1354.4037,-369.0032 1357.0723,-358.7499 1348.5922,-365.1011 1354.4037,-369.0032"/>
</g>
<!-- Node31&#45;&gt;Node23 -->
<g id="edge41" class="edge">
<title>Node31&#45;&gt;Node23</title>
<path fill="none" stroke="#191970" d="M1312.9299,-330.4187C1269.6589,-319.0742 1208.723,-303.0985 1163.0571,-291.1262"/>
<polygon fill="#191970" stroke="#191970" points="1163.8253,-287.7093 1153.2646,-288.5588 1162.05,-294.4805 1163.8253,-287.7093"/>
</g>
<!-- Node33 -->
<g id="node34" class="node">
<title>Node33</title>
<g id="a_node34"><a xlink:title=" ">
<polygon fill="none" stroke="#bfbfbf" points="1869.2168,-335.5 1869.2168,-353.5 1998.0635,-353.5 1998.0635,-335.5 1869.2168,-335.5"/>
<text text-anchor="middle" x="1933.6401" y="-341.5" font-family="Helvetica,sans-Serif" font-size="10.00" fill="#000000">boost/asio/io_service.hpp</text>
</a>
</g>
</g>
<!-- Node32&#45;&gt;Node33 -->
<g id="edge43" class="edge">
<title>Node32&#45;&gt;Node33</title>
<path fill="none" stroke="#191970" d="M1933.6401,-405.3487C1933.6401,-394.9258 1933.6401,-377.5928 1933.6401,-364.0865"/>
<polygon fill="#191970" stroke="#191970" points="1937.1402,-363.8769 1933.6401,-353.8769 1930.1402,-363.877 1937.1402,-363.8769"/>
</g>
<!-- Node34&#45;&gt;Node12 -->
<g id="edge47" class="edge">
<title>Node34&#45;&gt;Node12</title>
<path fill="none" stroke="#191970" d="M1504.5817,-405.4223C1500.3796,-395.4862 1494.0925,-378.9718 1491.6401,-364 1488.8383,-346.8946 1489.3035,-342.1751 1491.6401,-325 1497.9197,-278.8433 1510.3589,-269.648 1519.6401,-224 1528.1785,-182.0057 1533.7353,-132.3311 1536.5185,-103.5186"/>
<polygon fill="#191970" stroke="#191970" points="1540.0037,-103.8393 1537.4498,-93.5569 1533.034,-103.1877 1540.0037,-103.8393"/>
</g>
<!-- Node35 -->
<g id="node36" class="node">
<title>Node35</title>
<g id="a_node36"><a xlink:title=" ">
<polygon fill="none" stroke="#bfbfbf" points="1500.6797,-335.5 1500.6797,-353.5 1590.6006,-353.5 1590.6006,-335.5 1500.6797,-335.5"/>
<text text-anchor="middle" x="1545.6401" y="-341.5" font-family="Helvetica,sans-Serif" font-size="10.00" fill="#000000">Utils/Version.hxx</text>
</a>
</g>
</g>
<!-- Node34&#45;&gt;Node35 -->
<g id="edge48" class="edge">
<title>Node34&#45;&gt;Node35</title>
<path fill="none" stroke="#191970" d="M1513.4772,-405.3487C1519.1518,-394.6131 1528.7012,-376.5466 1535.9242,-362.8816"/>
<polygon fill="#191970" stroke="#191970" points="1539.105,-364.3535 1540.6838,-353.8769 1532.9163,-361.0823 1539.105,-364.3535"/>
</g>
<!-- Node36&#45;&gt;Node12 -->
<g id="edge52" class="edge">
<title>Node36&#45;&gt;Node12</title>
<path fill="none" stroke="#191970" d="M1574.8114,-260.4563C1571.3227,-234.5212 1563.1221,-177.4277 1552.6401,-130 1550.7075,-121.2551 1548.1911,-111.7687 1545.8257,-103.4039"/>
<polygon fill="#191970" stroke="#191970" points="1549.1141,-102.177 1542.9655,-93.5488 1542.3915,-104.128 1549.1141,-102.177"/>
</g>
</g>
</svg>
        <g id="navigator" transform="translate(0 0)" fill="#404254">
                <rect fill="#f2f5e9" fill-opacity="0.5" stroke="#606060" stroke-width=".5" x="0" y="0" width="60" height="60"/>
                <use id="zoomplus" xlink:href="#zoomPlus" x="17" y="9" onmousedown="handleZoom(evt,'in')"/>
                <use id="zoomminus" xlink:href="#zoomMin" x="42" y="9" onmousedown="handleZoom(evt,'out')"/>
                <use id="reset" xlink:href="#resetDef" x="30" y="36" onmousedown="handleReset()"/>
                <g id="arrowUp" xlink:href="#dirArrow" transform="translate(30 24)" onmousedown="handlePan(0,-1)">
                  <use xlink:href="#rim" fill="#404040">
                        <set attributeName="fill" to="#808080" begin="arrowUp.mouseover" end="arrowUp.mouseout"/>
                  </use>
                  <path fill="none" stroke="white" stroke-width="1.5" d="M0,-3.0v7 M-2.5,-0.5L0,-3.0L2.5,-0.5"/>
                </g>
                <g id="arrowRight" xlink:href="#dirArrow" transform="rotate(90) translate(36 -43)" onmousedown="handlePan(1,0)">
                  <use xlink:href="#rim" fill="#404040">
                        <set attributeName="fill" to="#808080" begin="arrowRight.mouseover" end="arrowRight.mouseout"/>
                  </use>
                  <path fill="none" stroke="white" stroke-width="1.5" d="M0,-3.0v7 M-2.5,-0.5L0,-3.0L2.5,-0.5"/>
                </g>
                <g id="arrowDown" xlink:href="#dirArrow" transform="rotate(180) translate(-30 -48)" onmousedown="handlePan(0,1)">
                  <use xlink:href="#rim" fill="#404040">
                        <set attributeName="fill" to="#808080" begin="arrowDown.mouseover" end="arrowDown.mouseout"/>
                  </use>
                  <path fill="none" stroke="white" stroke-width="1.5" d="M0,-3.0v7 M-2.5,-0.5L0,-3.0L2.5,-0.5"/>
                </g>
                <g id="arrowLeft" xlink:href="#dirArrow" transform="rotate(270) translate(-36 17)" onmousedown="handlePan(-1,0)">
                  <use xlink:href="#rim" fill="#404040">
                        <set attributeName="fill" to="#808080" begin="arrowLeft.mouseover" end="arrowLeft.mouseout"/>
                  </use>
                  <path fill="none" stroke="white" stroke-width="1.5" d="M0,-3.0v7 M-2.5,-0.5L0,-3.0L2.5,-0.5"/>
                </g>
        </g>
        <svg viewBox="0 0 15 15" width="100%" height="30px" preserveAspectRatio="xMaxYMin meet">
         <g id="arrow_out" transform="scale(0.3 0.3)">
          <a xlink:href="_meeting_client_a_p_i_8hxx__incl_org.svg" target="_base">
           <rect id="button" ry="5" rx="5" y="6" x="6" height="38" width="38"
                fill="#f2f5e9" fill-opacity="0.5" stroke="#606060" stroke-width="1.0"/>
           <path id="arrow"
             d="M 11.500037,31.436501 C 11.940474,20.09759 22.043105,11.32322 32.158766,21.979434 L 37.068811,17.246167 C 37.068811,17.246167 37.088388,32 37.088388,32 L 22.160133,31.978069 C 22.160133,31.978069 26.997745,27.140456 26.997745,27.140456 C 18.528582,18.264221 13.291696,25.230495 11.500037,31.436501 z"
             style="fill:#404040;"/>
          </a>
         </g>
        </svg>
</svg>
