<?xml version="1.0" encoding="UTF-8" standalone="no"?>
<!DOCTYPE svg PUBLIC "-//W3C//DTD SVG 1.1//EN"
 "http://www.w3.org/Graphics/SVG/1.1/DTD/svg11.dtd">
<!-- Generated by graphviz version 2.40.1 (20161225.0304)
 -->
<!-- Title: /Users/oskryp/Projects/freesee&#45;native&#45;client/libs/fcc_sdk/engine/meetingclient/include/MeetingClient/MeetingAttendeeReadonly.hxx Pages: 1 -->
<svg width="753pt" height="252pt"
 viewBox="0.00 0.00 752.54 252.00" xmlns="http://www.w3.org/2000/svg" xmlns:xlink="http://www.w3.org/1999/xlink">
<g id="graph0" class="graph" transform="scale(1 1) rotate(0) translate(4 248)">
<title>/Users/oskryp/Projects/freesee&#45;native&#45;client/libs/fcc_sdk/engine/meetingclient/include/MeetingClient/MeetingAttendeeReadonly.hxx</title>
<!-- Node0 -->
<g id="node1" class="node">
<title>Node0</title>
<g id="a_node1"><a xlink:title=" ">
<polygon fill="#bfbfbf" stroke="#000000" points="312.667,-195.5 312.667,-243.5 565.2979,-243.5 565.2979,-195.5 312.667,-195.5"/>
<text text-anchor="start" x="320.667" y="-231.5" font-family="Helvetica,sans-Serif" font-size="10.00" fill="#000000">/Users/oskryp/Projects</text>
<text text-anchor="start" x="320.667" y="-221.5" font-family="Helvetica,sans-Serif" font-size="10.00" fill="#000000">/freesee&#45;native&#45;client</text>
<text text-anchor="start" x="320.667" y="-211.5" font-family="Helvetica,sans-Serif" font-size="10.00" fill="#000000">/libs/fcc_sdk/engine/meetingclient</text>
<text text-anchor="middle" x="438.9824" y="-201.5" font-family="Helvetica,sans-Serif" font-size="10.00" fill="#000000">/include/MeetingClient/MeetingAttendeeReadonly.hxx</text>
</a>
</g>
</g>
<!-- Node1 -->
<g id="node2" class="node">
<title>Node1</title>
<g id="a_node2"><a xlink:title=" ">
<polygon fill="none" stroke="#bfbfbf" points="0,-135.5 0,-153.5 109.9648,-153.5 109.9648,-135.5 0,-135.5"/>
<text text-anchor="middle" x="54.9824" y="-141.5" font-family="Helvetica,sans-Serif" font-size="10.00" fill="#000000">boost/shared_ptr.hpp</text>
</a>
</g>
</g>
<!-- Node0&#45;&gt;Node1 -->
<g id="edge1" class="edge">
<title>Node0&#45;&gt;Node1</title>
<path fill="none" stroke="#191970" d="M312.6283,-196.6934C253.6847,-185.7771 182.6439,-172.2252 118.9824,-159 114.0204,-157.9692 108.8503,-156.8588 103.6944,-155.7276"/>
<polygon fill="#191970" stroke="#191970" points="104.3761,-152.2938 93.8551,-153.542 102.8582,-159.1272 104.3761,-152.2938"/>
</g>
<!-- Node2 -->
<g id="node3" class="node">
<title>Node2</title>
<g id="a_node3"><a xlink:title=" ">
<polygon fill="none" stroke="#bfbfbf" points="127.6724,-135.5 127.6724,-153.5 244.2925,-153.5 244.2925,-135.5 127.6724,-135.5"/>
<text text-anchor="middle" x="185.9824" y="-141.5" font-family="Helvetica,sans-Serif" font-size="10.00" fill="#000000">boost/thread/locks.hpp</text>
</a>
</g>
</g>
<!-- Node0&#45;&gt;Node2 -->
<g id="edge2" class="edge">
<title>Node0&#45;&gt;Node2</title>
<path fill="none" stroke="#191970" d="M357.8877,-195.4601C313.9504,-182.4352 261.5871,-166.9125 226.2922,-156.4496"/>
<polygon fill="#191970" stroke="#191970" points="226.946,-152.9929 216.3636,-153.5063 224.9564,-159.7042 226.946,-152.9929"/>
</g>
<!-- Node3 -->
<g id="node4" class="node">
<title>Node3</title>
<g id="a_node4"><a xlink:title=" ">
<polygon fill="none" stroke="#bfbfbf" points="262.5073,-130.5 262.5073,-158.5 367.4575,-158.5 367.4575,-130.5 262.5073,-130.5"/>
<text text-anchor="start" x="270.5073" y="-146.5" font-family="Helvetica,sans-Serif" font-size="10.00" fill="#000000">boost/thread/shared</text>
<text text-anchor="middle" x="314.9824" y="-136.5" font-family="Helvetica,sans-Serif" font-size="10.00" fill="#000000">_mutex.hpp</text>
</a>
</g>
</g>
<!-- Node0&#45;&gt;Node3 -->
<g id="edge3" class="edge">
<title>Node0&#45;&gt;Node3</title>
<path fill="none" stroke="#191970" d="M399.0655,-195.3567C382.2573,-185.1905 362.9584,-173.5177 347.0924,-163.9214"/>
<polygon fill="#191970" stroke="#191970" points="348.5602,-160.7188 338.1922,-158.5382 344.9374,-166.7084 348.5602,-160.7188"/>
</g>
<!-- Node4 -->
<g id="node5" class="node">
<title>Node4</title>
<g id="a_node5"><a xlink:title=" ">
<polygon fill="none" stroke="#bfbfbf" points="385.9209,-135.5 385.9209,-153.5 438.0439,-153.5 438.0439,-135.5 385.9209,-135.5"/>
<text text-anchor="middle" x="411.9824" y="-141.5" font-family="Helvetica,sans-Serif" font-size="10.00" fill="#000000">ostream</text>
</a>
</g>
</g>
<!-- Node0&#45;&gt;Node4 -->
<g id="edge4" class="edge">
<title>Node0&#45;&gt;Node4</title>
<path fill="none" stroke="#191970" d="M430.2908,-195.3567C426.5322,-184.9161 422.2016,-172.8867 418.6961,-163.1491"/>
<polygon fill="#191970" stroke="#191970" points="421.9625,-161.8893 415.2822,-153.666 415.3763,-164.2604 421.9625,-161.8893"/>
</g>
<!-- Node5 -->
<g id="node6" class="node">
<title>Node5</title>
<g id="a_node6"><a xlink:title=" ">
<polygon fill="none" stroke="#bfbfbf" points="446.7559,-5.5 446.7559,-23.5 487.209,-23.5 487.209,-5.5 446.7559,-5.5"/>
<text text-anchor="middle" x="466.9824" y="-11.5" font-family="Helvetica,sans-Serif" font-size="10.00" fill="#000000">string</text>
</a>
</g>
</g>
<!-- Node0&#45;&gt;Node5 -->
<g id="edge5" class="edge">
<title>Node0&#45;&gt;Node5</title>
<path fill="none" stroke="#191970" d="M442.3043,-195.1788C447.9232,-154.041 459.1917,-71.5393 464.3252,-33.955"/>
<polygon fill="#191970" stroke="#191970" points="467.8227,-34.2102 465.7083,-23.8285 460.8871,-33.2628 467.8227,-34.2102"/>
</g>
<!-- Node6 -->
<g id="node7" class="node">
<title>Node6</title>
<g id="a_node7"><a xlink:title=" ">
<polygon fill="none" stroke="#bfbfbf" points="494.3667,-135.5 494.3667,-153.5 537.5981,-153.5 537.5981,-135.5 494.3667,-135.5"/>
<text text-anchor="middle" x="515.9824" y="-141.5" font-family="Helvetica,sans-Serif" font-size="10.00" fill="#000000">vector</text>
</a>
</g>
</g>
<!-- Node0&#45;&gt;Node6 -->
<g id="edge6" class="edge">
<title>Node0&#45;&gt;Node6</title>
<path fill="none" stroke="#191970" d="M463.7695,-195.3567C475.4008,-184.0276 488.9527,-170.8276 499.3349,-160.7151"/>
<polygon fill="#191970" stroke="#191970" points="501.8506,-163.1507 506.572,-153.666 496.9664,-158.1362 501.8506,-163.1507"/>
</g>
<!-- Node7 -->
<g id="node8" class="node">
<title>Node7</title>
<g id="a_node8"><a xlink:href="_meeting_types_8hxx.html" target="_top" xlink:title=" ">
<polygon fill="none" stroke="#000000" points="556.0713,-130.5 556.0713,-158.5 659.8936,-158.5 659.8936,-130.5 556.0713,-130.5"/>
<text text-anchor="start" x="564.0713" y="-146.5" font-family="Helvetica,sans-Serif" font-size="10.00" fill="#000000">MeetingClient/types</text>
<text text-anchor="middle" x="607.9824" y="-136.5" font-family="Helvetica,sans-Serif" font-size="10.00" fill="#000000">/MeetingTypes.hxx</text>
</a>
</g>
</g>
<!-- Node0&#45;&gt;Node7 -->
<g id="edge7" class="edge">
<title>Node0&#45;&gt;Node7</title>
<path fill="none" stroke="#191970" d="M493.3853,-195.3567C517.2566,-184.7629 544.8141,-172.5333 566.9224,-162.7219"/>
<polygon fill="#191970" stroke="#191970" points="568.6291,-165.7937 576.3497,-158.5382 565.7896,-159.3955 568.6291,-165.7937"/>
</g>
<!-- Node12 -->
<g id="node13" class="node">
<title>Node12</title>
<g id="a_node13"><a xlink:href="macros_8hxx.html" target="_top" xlink:title=" ">
<polygon fill="none" stroke="#000000" points="677.4209,-135.5 677.4209,-153.5 744.5439,-153.5 744.5439,-135.5 677.4209,-135.5"/>
<text text-anchor="middle" x="710.9824" y="-141.5" font-family="Helvetica,sans-Serif" font-size="10.00" fill="#000000">macros.hxx</text>
</a>
</g>
</g>
<!-- Node0&#45;&gt;Node12 -->
<g id="edge13" class="edge">
<title>Node0&#45;&gt;Node12</title>
<path fill="none" stroke="#191970" d="M536.8026,-195.4997C577.8305,-184.9862 625.9193,-172.077 668.9824,-159 671.2867,-158.3002 673.6536,-157.5555 676.0336,-156.7872"/>
<polygon fill="#191970" stroke="#191970" points="677.3797,-160.0281 685.7638,-153.5507 675.1703,-153.3859 677.3797,-160.0281"/>
</g>
<!-- Node8 -->
<g id="node9" class="node">
<title>Node8</title>
<g id="a_node9"><a xlink:href="_common_data_types_8hxx.html" target="_top" xlink:title=" ">
<polygon fill="none" stroke="#000000" points="494.2363,-65.5 494.2363,-93.5 619.7285,-93.5 619.7285,-65.5 494.2363,-65.5"/>
<text text-anchor="start" x="502.2363" y="-81.5" font-family="Helvetica,sans-Serif" font-size="10.00" fill="#000000">MeetingClient/types</text>
<text text-anchor="middle" x="556.9824" y="-71.5" font-family="Helvetica,sans-Serif" font-size="10.00" fill="#000000">/CommonDataTypes.hxx</text>
</a>
</g>
</g>
<!-- Node7&#45;&gt;Node8 -->
<g id="edge8" class="edge">
<title>Node7&#45;&gt;Node8</title>
<path fill="none" stroke="#191970" d="M596.9162,-130.396C590.2999,-121.9634 581.7506,-111.0673 574.2609,-101.5216"/>
<polygon fill="#191970" stroke="#191970" points="576.9536,-99.2834 568.0271,-93.5765 571.4464,-103.6044 576.9536,-99.2834"/>
</g>
<!-- Node10 -->
<g id="node11" class="node">
<title>Node10</title>
<g id="a_node11"><a xlink:href="strong__identity_8hxx.html" target="_top" xlink:title=" ">
<polygon fill="none" stroke="#000000" points="637.2725,-65.5 637.2725,-93.5 738.6924,-93.5 738.6924,-65.5 637.2725,-65.5"/>
<text text-anchor="start" x="645.2725" y="-81.5" font-family="Helvetica,sans-Serif" font-size="10.00" fill="#000000">MeetingClient/utils</text>
<text text-anchor="middle" x="687.9824" y="-71.5" font-family="Helvetica,sans-Serif" font-size="10.00" fill="#000000">/strong_identity.hxx</text>
</a>
</g>
</g>
<!-- Node7&#45;&gt;Node10 -->
<g id="edge11" class="edge">
<title>Node7&#45;&gt;Node10</title>
<path fill="none" stroke="#191970" d="M625.3412,-130.396C636.2439,-121.5375 650.4928,-109.9604 662.6457,-100.0861"/>
<polygon fill="#191970" stroke="#191970" points="665.1034,-102.5989 670.6575,-93.5765 660.6892,-97.1661 665.1034,-102.5989"/>
</g>
<!-- Node8&#45;&gt;Node5 -->
<g id="edge9" class="edge">
<title>Node8&#45;&gt;Node5</title>
<path fill="none" stroke="#191970" d="M537.4538,-65.396C522.76,-54.7838 502.6638,-40.2699 487.691,-29.4562"/>
<polygon fill="#191970" stroke="#191970" points="489.7029,-26.5919 479.5468,-23.5743 485.6044,-32.2666 489.7029,-26.5919"/>
</g>
<!-- Node9 -->
<g id="node10" class="node">
<title>Node9</title>
<g id="a_node10"><a xlink:title=" ">
<polygon fill="none" stroke="#bfbfbf" points="506.187,-5.5 506.187,-23.5 607.7778,-23.5 607.7778,-5.5 506.187,-5.5"/>
<text text-anchor="middle" x="556.9824" y="-11.5" font-family="Helvetica,sans-Serif" font-size="10.00" fill="#000000">CommonTypes.hxx</text>
</a>
</g>
</g>
<!-- Node8&#45;&gt;Node9 -->
<g id="edge10" class="edge">
<title>Node8&#45;&gt;Node9</title>
<path fill="none" stroke="#191970" d="M556.9824,-65.396C556.9824,-56.1723 556.9824,-44.0011 556.9824,-33.8738"/>
<polygon fill="#191970" stroke="#191970" points="560.4825,-33.5743 556.9824,-23.5743 553.4825,-33.5743 560.4825,-33.5743"/>
</g>
<!-- Node11 -->
<g id="node12" class="node">
<title>Node11</title>
<g id="a_node12"><a xlink:title=" ">
<polygon fill="none" stroke="#bfbfbf" points="635.7832,-.5 635.7832,-28.5 740.1816,-28.5 740.1816,-.5 635.7832,-.5"/>
<text text-anchor="start" x="643.7832" y="-16.5" font-family="Helvetica,sans-Serif" font-size="10.00" fill="#000000">boost/serialization</text>
<text text-anchor="middle" x="687.9824" y="-6.5" font-family="Helvetica,sans-Serif" font-size="10.00" fill="#000000">/strong_typedef.hpp</text>
</a>
</g>
</g>
<!-- Node10&#45;&gt;Node11 -->
<g id="edge12" class="edge">
<title>Node10&#45;&gt;Node11</title>
<path fill="none" stroke="#191970" d="M687.9824,-65.396C687.9824,-57.6448 687.9824,-47.8122 687.9824,-38.8601"/>
<polygon fill="#191970" stroke="#191970" points="691.4825,-38.5765 687.9824,-28.5765 684.4825,-38.5765 691.4825,-38.5765"/>
</g>
</g>
</svg>
