<?xml version="1.0" encoding="UTF-8" standalone="no"?>
<!DOCTYPE svg PUBLIC "-//W3C//DTD SVG 1.1//EN"
 "http://www.w3.org/Graphics/SVG/1.1/DTD/svg11.dtd">
<!-- Generated by graphviz version 2.40.1 (20161225.0304)
 -->
<!-- Title: /Users/oskryp/Projects/freesee&#45;native&#45;client/libs/fcc_sdk/engine/meetingclient/include/MeetingClient/MeetingSessionParameters.hxx Pages: 1 -->
<svg width="494pt" height="252pt"
 viewBox="0.00 0.00 493.75 252.00" xmlns="http://www.w3.org/2000/svg" xmlns:xlink="http://www.w3.org/1999/xlink">
<g id="graph0" class="graph" transform="scale(1 1) rotate(0) translate(4 248)">
<title>/Users/oskryp/Projects/freesee&#45;native&#45;client/libs/fcc_sdk/engine/meetingclient/include/MeetingClient/MeetingSessionParameters.hxx</title>
<!-- Node0 -->
<g id="node1" class="node">
<title>Node0</title>
<g id="a_node1"><a xlink:title=" ">
<polygon fill="#bfbfbf" stroke="#000000" points="179.0547,-195.5 179.0547,-243.5 437.3984,-243.5 437.3984,-195.5 179.0547,-195.5"/>
<text text-anchor="start" x="187.0547" y="-231.5" font-family="Helvetica,sans-Serif" font-size="10.00" fill="#000000">/Users/oskryp/Projects</text>
<text text-anchor="start" x="187.0547" y="-221.5" font-family="Helvetica,sans-Serif" font-size="10.00" fill="#000000">/freesee&#45;native&#45;client</text>
<text text-anchor="start" x="187.0547" y="-211.5" font-family="Helvetica,sans-Serif" font-size="10.00" fill="#000000">/libs/fcc_sdk/engine/meetingclient</text>
<text text-anchor="middle" x="308.2266" y="-201.5" font-family="Helvetica,sans-Serif" font-size="10.00" fill="#000000">/include/MeetingClient/MeetingSessionParameters.hxx</text>
</a>
</g>
</g>
<!-- Node1 -->
<g id="node2" class="node">
<title>Node1</title>
<g id="a_node2"><a xlink:href="_meeting_types_8hxx.html" target="_top" xlink:title=" ">
<polygon fill="none" stroke="#000000" points="117.3154,-130.5 117.3154,-158.5 221.1377,-158.5 221.1377,-130.5 117.3154,-130.5"/>
<text text-anchor="start" x="125.3154" y="-146.5" font-family="Helvetica,sans-Serif" font-size="10.00" fill="#000000">MeetingClient/types</text>
<text text-anchor="middle" x="169.2266" y="-136.5" font-family="Helvetica,sans-Serif" font-size="10.00" fill="#000000">/MeetingTypes.hxx</text>
</a>
</g>
</g>
<!-- Node0&#45;&gt;Node1 -->
<g id="edge1" class="edge">
<title>Node0&#45;&gt;Node1</title>
<path fill="none" stroke="#191970" d="M263.481,-195.3567C244.2874,-185.0005 222.1964,-173.0809 204.2276,-163.3854"/>
<polygon fill="#191970" stroke="#191970" points="205.7066,-160.2065 195.244,-158.5382 202.3826,-166.367 205.7066,-160.2065"/>
</g>
<!-- Node7 -->
<g id="node8" class="node">
<title>Node7</title>
<g id="a_node8"><a xlink:title=" ">
<polygon fill="none" stroke="#bfbfbf" points="238.6626,-135.5 238.6626,-153.5 295.7905,-153.5 295.7905,-135.5 238.6626,-135.5"/>
<text text-anchor="middle" x="267.2266" y="-141.5" font-family="Helvetica,sans-Serif" font-size="10.00" fill="#000000">algorithm</text>
</a>
</g>
</g>
<!-- Node0&#45;&gt;Node7 -->
<g id="edge7" class="edge">
<title>Node0&#45;&gt;Node7</title>
<path fill="none" stroke="#191970" d="M295.0282,-195.3567C289.1993,-184.694 282.4644,-172.3741 277.0834,-162.5307"/>
<polygon fill="#191970" stroke="#191970" points="280.1051,-160.7616 272.2373,-153.666 273.963,-164.1193 280.1051,-160.7616"/>
</g>
<!-- Node8 -->
<g id="node9" class="node">
<title>Node8</title>
<g id="a_node9"><a xlink:title=" ">
<polygon fill="none" stroke="#bfbfbf" points="313.3228,-135.5 313.3228,-153.5 387.1304,-153.5 387.1304,-135.5 313.3228,-135.5"/>
<text text-anchor="middle" x="350.2266" y="-141.5" font-family="Helvetica,sans-Serif" font-size="10.00" fill="#000000">Printable.hxx</text>
</a>
</g>
</g>
<!-- Node0&#45;&gt;Node8 -->
<g id="edge8" class="edge">
<title>Node0&#45;&gt;Node8</title>
<path fill="none" stroke="#191970" d="M321.7468,-195.3567C327.7179,-184.694 334.6171,-172.3741 340.1294,-162.5307"/>
<polygon fill="#191970" stroke="#191970" points="343.2613,-164.1012 345.0936,-153.666 337.1538,-160.6809 343.2613,-164.1012"/>
</g>
<!-- Node9 -->
<g id="node10" class="node">
<title>Node9</title>
<g id="a_node10"><a xlink:title=" ">
<polygon fill="none" stroke="#bfbfbf" points="404.707,-135.5 404.707,-153.5 485.7461,-153.5 485.7461,-135.5 404.707,-135.5"/>
<text text-anchor="middle" x="445.2266" y="-141.5" font-family="Helvetica,sans-Serif" font-size="10.00" fill="#000000">VoIPClient.hxx</text>
</a>
</g>
</g>
<!-- Node0&#45;&gt;Node9 -->
<g id="edge9" class="edge">
<title>Node0&#45;&gt;Node9</title>
<path fill="none" stroke="#191970" d="M352.3283,-195.3567C374.5445,-183.1946 400.6991,-168.8763 419.5866,-158.5365"/>
<polygon fill="#191970" stroke="#191970" points="421.3925,-161.5381 428.4834,-153.666 418.031,-155.3979 421.3925,-161.5381"/>
</g>
<!-- Node2 -->
<g id="node3" class="node">
<title>Node2</title>
<g id="a_node3"><a xlink:href="_common_data_types_8hxx.html" target="_top" xlink:title=" ">
<polygon fill="none" stroke="#000000" points="41.4805,-65.5 41.4805,-93.5 166.9727,-93.5 166.9727,-65.5 41.4805,-65.5"/>
<text text-anchor="start" x="49.4805" y="-81.5" font-family="Helvetica,sans-Serif" font-size="10.00" fill="#000000">MeetingClient/types</text>
<text text-anchor="middle" x="104.2266" y="-71.5" font-family="Helvetica,sans-Serif" font-size="10.00" fill="#000000">/CommonDataTypes.hxx</text>
</a>
</g>
</g>
<!-- Node1&#45;&gt;Node2 -->
<g id="edge2" class="edge">
<title>Node1&#45;&gt;Node2</title>
<path fill="none" stroke="#191970" d="M155.1225,-130.396C146.4345,-121.7079 135.1312,-110.4046 125.3842,-100.6576"/>
<polygon fill="#191970" stroke="#191970" points="127.8491,-98.1727 118.3031,-93.5765 122.8993,-103.1225 127.8491,-98.1727"/>
</g>
<!-- Node5 -->
<g id="node6" class="node">
<title>Node5</title>
<g id="a_node6"><a xlink:href="strong__identity_8hxx.html" target="_top" xlink:title=" ">
<polygon fill="none" stroke="#000000" points="184.5166,-65.5 184.5166,-93.5 285.9365,-93.5 285.9365,-65.5 184.5166,-65.5"/>
<text text-anchor="start" x="192.5166" y="-81.5" font-family="Helvetica,sans-Serif" font-size="10.00" fill="#000000">MeetingClient/utils</text>
<text text-anchor="middle" x="235.2266" y="-71.5" font-family="Helvetica,sans-Serif" font-size="10.00" fill="#000000">/strong_identity.hxx</text>
</a>
</g>
</g>
<!-- Node1&#45;&gt;Node5 -->
<g id="edge5" class="edge">
<title>Node1&#45;&gt;Node5</title>
<path fill="none" stroke="#191970" d="M183.5476,-130.396C192.3693,-121.7079 203.8465,-110.4046 213.7434,-100.6576"/>
<polygon fill="#191970" stroke="#191970" points="216.2645,-103.0871 220.9335,-93.5765 211.3527,-98.0997 216.2645,-103.0871"/>
</g>
<!-- Node3 -->
<g id="node4" class="node">
<title>Node3</title>
<g id="a_node4"><a xlink:title=" ">
<polygon fill="none" stroke="#bfbfbf" points="0,-5.5 0,-23.5 40.4531,-23.5 40.4531,-5.5 0,-5.5"/>
<text text-anchor="middle" x="20.2266" y="-11.5" font-family="Helvetica,sans-Serif" font-size="10.00" fill="#000000">string</text>
</a>
</g>
</g>
<!-- Node2&#45;&gt;Node3 -->
<g id="edge3" class="edge">
<title>Node2&#45;&gt;Node3</title>
<path fill="none" stroke="#191970" d="M85.9998,-65.396C72.4138,-54.883 53.8793,-40.5408 39.9476,-29.7603"/>
<polygon fill="#191970" stroke="#191970" points="42.004,-26.9261 31.9534,-23.5743 37.7201,-32.4622 42.004,-26.9261"/>
</g>
<!-- Node4 -->
<g id="node5" class="node">
<title>Node4</title>
<g id="a_node5"><a xlink:title=" ">
<polygon fill="none" stroke="#bfbfbf" points="58.4312,-5.5 58.4312,-23.5 160.022,-23.5 160.022,-5.5 58.4312,-5.5"/>
<text text-anchor="middle" x="109.2266" y="-11.5" font-family="Helvetica,sans-Serif" font-size="10.00" fill="#000000">CommonTypes.hxx</text>
</a>
</g>
</g>
<!-- Node2&#45;&gt;Node4 -->
<g id="edge4" class="edge">
<title>Node2&#45;&gt;Node4</title>
<path fill="none" stroke="#191970" d="M105.3115,-65.396C106.0286,-56.0732 106.9774,-43.739 107.7613,-33.5479"/>
<polygon fill="#191970" stroke="#191970" points="111.2512,-33.8133 108.5285,-23.5743 104.2718,-33.2764 111.2512,-33.8133"/>
</g>
<!-- Node6 -->
<g id="node7" class="node">
<title>Node6</title>
<g id="a_node7"><a xlink:title=" ">
<polygon fill="none" stroke="#bfbfbf" points="183.0273,-.5 183.0273,-28.5 287.4258,-28.5 287.4258,-.5 183.0273,-.5"/>
<text text-anchor="start" x="191.0273" y="-16.5" font-family="Helvetica,sans-Serif" font-size="10.00" fill="#000000">boost/serialization</text>
<text text-anchor="middle" x="235.2266" y="-6.5" font-family="Helvetica,sans-Serif" font-size="10.00" fill="#000000">/strong_typedef.hpp</text>
</a>
</g>
</g>
<!-- Node5&#45;&gt;Node6 -->
<g id="edge6" class="edge">
<title>Node5&#45;&gt;Node6</title>
<path fill="none" stroke="#191970" d="M235.2266,-65.396C235.2266,-57.6448 235.2266,-47.8122 235.2266,-38.8601"/>
<polygon fill="#191970" stroke="#191970" points="238.7267,-38.5765 235.2266,-28.5765 231.7267,-38.5765 238.7267,-38.5765"/>
</g>
</g>
</svg>
