<?xml version="1.0" encoding="UTF-8" standalone="no"?>
<!DOCTYPE svg PUBLIC "-//W3C//DTD SVG 1.1//EN"
 "http://www.w3.org/Graphics/SVG/1.1/DTD/svg11.dtd">
<!-- Generated by graphviz version 2.40.1 (20161225.0304)
 -->
<!-- Title: /Users/oskryp/Projects/freesee&#45;native&#45;client/libs/fcc_sdk/engine/meetingclient/src/headers/MeetingClient/proxies/MeetingClientImpl.hxx Pages: 1 -->
<svg width="1401pt" height="342pt"
 viewBox="0.00 0.00 1400.62 342.00" xmlns="http://www.w3.org/2000/svg" xmlns:xlink="http://www.w3.org/1999/xlink">
<g id="graph0" class="graph" transform="scale(1 1) rotate(0) translate(4 338)">
<title>/Users/oskryp/Projects/freesee&#45;native&#45;client/libs/fcc_sdk/engine/meetingclient/src/headers/MeetingClient/proxies/MeetingClientImpl.hxx</title>
<!-- Node71 -->
<g id="node1" class="node">
<title>Node71</title>
<g id="a_node1"><a xlink:title=" ">
<polygon fill="#bfbfbf" stroke="#000000" points="530.3423,-275.5 530.3423,-333.5 700.3022,-333.5 700.3022,-275.5 530.3423,-275.5"/>
<text text-anchor="start" x="538.3423" y="-321.5" font-family="Helvetica,sans-Serif" font-size="10.00" fill="#000000">/Users/oskryp/Projects</text>
<text text-anchor="start" x="538.3423" y="-311.5" font-family="Helvetica,sans-Serif" font-size="10.00" fill="#000000">/freesee&#45;native&#45;client</text>
<text text-anchor="start" x="538.3423" y="-301.5" font-family="Helvetica,sans-Serif" font-size="10.00" fill="#000000">/libs/fcc_sdk/engine/meetingclient</text>
<text text-anchor="start" x="538.3423" y="-291.5" font-family="Helvetica,sans-Serif" font-size="10.00" fill="#000000">/src/headers/MeetingClient/proxies</text>
<text text-anchor="middle" x="615.3223" y="-281.5" font-family="Helvetica,sans-Serif" font-size="10.00" fill="#000000">/MeetingClientImpl.hxx</text>
</a>
</g>
</g>
<!-- Node72 -->
<g id="node2" class="node">
<title>Node72</title>
<g id="a_node2"><a xlink:href="_meeting_attendee_impl_8hxx.html" target="_top" xlink:title=" ">
<polygon fill="none" stroke="#000000" points="217.3423,-180.5 217.3423,-238.5 387.3022,-238.5 387.3022,-180.5 217.3423,-180.5"/>
<text text-anchor="start" x="225.3423" y="-226.5" font-family="Helvetica,sans-Serif" font-size="10.00" fill="#000000">/Users/oskryp/Projects</text>
<text text-anchor="start" x="225.3423" y="-216.5" font-family="Helvetica,sans-Serif" font-size="10.00" fill="#000000">/freesee&#45;native&#45;client</text>
<text text-anchor="start" x="225.3423" y="-206.5" font-family="Helvetica,sans-Serif" font-size="10.00" fill="#000000">/libs/fcc_sdk/engine/meetingclient</text>
<text text-anchor="start" x="225.3423" y="-196.5" font-family="Helvetica,sans-Serif" font-size="10.00" fill="#000000">/src/headers/MeetingClient/proxies</text>
<text text-anchor="middle" x="302.3223" y="-186.5" font-family="Helvetica,sans-Serif" font-size="10.00" fill="#000000">/MeetingAttendeeImpl.hxx</text>
</a>
</g>
</g>
<!-- Node71&#45;&gt;Node72 -->
<g id="edge1" class="edge">
<title>Node71&#45;&gt;Node72</title>
<path fill="none" stroke="#191970" d="M520.4467,-275.7039C478.0893,-262.8478 428.5646,-247.8164 387.4205,-235.3285"/>
<polygon fill="#191970" stroke="#191970" points="519.6216,-279.1111 530.2071,-278.6663 521.6547,-272.4128 519.6216,-279.1111"/>
</g>
<!-- Node73 -->
<g id="node3" class="node">
<title>Node73</title>
<g id="a_node3"><a xlink:href="_meeting_attendee_feature_impl_8hxx.html" target="_top" xlink:title=" ">
<polygon fill="none" stroke="#000000" points="23.3423,-85.5 23.3423,-143.5 193.3022,-143.5 193.3022,-85.5 23.3423,-85.5"/>
<text text-anchor="start" x="31.3423" y="-131.5" font-family="Helvetica,sans-Serif" font-size="10.00" fill="#000000">/Users/oskryp/Projects</text>
<text text-anchor="start" x="31.3423" y="-121.5" font-family="Helvetica,sans-Serif" font-size="10.00" fill="#000000">/freesee&#45;native&#45;client</text>
<text text-anchor="start" x="31.3423" y="-111.5" font-family="Helvetica,sans-Serif" font-size="10.00" fill="#000000">/libs/fcc_sdk/engine/meetingclient</text>
<text text-anchor="start" x="31.3423" y="-101.5" font-family="Helvetica,sans-Serif" font-size="10.00" fill="#000000">/src/headers/MeetingClient/proxies</text>
<text text-anchor="middle" x="108.3223" y="-91.5" font-family="Helvetica,sans-Serif" font-size="10.00" fill="#000000">/MeetingAttendeeFeatureImpl.hxx</text>
</a>
</g>
</g>
<!-- Node71&#45;&gt;Node73 -->
<g id="edge6" class="edge">
<title>Node71&#45;&gt;Node73</title>
<path fill="none" stroke="#191970" d="M520.1217,-297.0987C416.8724,-287.6984 259.886,-268.9931 208.3223,-239 169.6198,-216.4879 139.9506,-172.8308 123.3202,-143.6672"/>
<polygon fill="#191970" stroke="#191970" points="519.979,-300.5999 530.2516,-298.0069 520.6041,-293.6278 519.979,-300.5999"/>
</g>
<!-- Node75 -->
<g id="node5" class="node">
<title>Node75</title>
<g id="a_node5"><a xlink:href="_meeting_client_impl_8cxx.html" target="_top" xlink:title=" ">
<polygon fill="none" stroke="#000000" points="739.4653,-.5 739.4653,-48.5 907.1792,-48.5 907.1792,-.5 739.4653,-.5"/>
<text text-anchor="start" x="747.4653" y="-36.5" font-family="Helvetica,sans-Serif" font-size="10.00" fill="#000000">/Users/oskryp/Projects</text>
<text text-anchor="start" x="747.4653" y="-26.5" font-family="Helvetica,sans-Serif" font-size="10.00" fill="#000000">/freesee&#45;native&#45;client</text>
<text text-anchor="start" x="747.4653" y="-16.5" font-family="Helvetica,sans-Serif" font-size="10.00" fill="#000000">/libs/fcc_sdk/engine/meetingclient</text>
<text text-anchor="middle" x="823.3223" y="-6.5" font-family="Helvetica,sans-Serif" font-size="10.00" fill="#000000">/src/proxies/MeetingClientImpl.cxx</text>
</a>
</g>
</g>
<!-- Node71&#45;&gt;Node75 -->
<g id="edge20" class="edge">
<title>Node71&#45;&gt;Node75</title>
<path fill="none" stroke="#191970" d="M554.0341,-269.9837C484.014,-226.2483 385.7484,-148.8712 440.3223,-85 459.5087,-62.5449 632.389,-42.4444 739.2173,-32.0234"/>
<polygon fill="#191970" stroke="#191970" points="552.498,-273.148 562.8492,-275.4071 556.1661,-267.186 552.498,-273.148"/>
</g>
<!-- Node77 -->
<g id="node7" class="node">
<title>Node77</title>
<g id="a_node7"><a xlink:href="_meeting_broadcast_feature_impl_8hxx.html" target="_top" xlink:title=" ">
<polygon fill="none" stroke="#000000" points="449.7856,-85.5 449.7856,-143.5 620.8589,-143.5 620.8589,-85.5 449.7856,-85.5"/>
<text text-anchor="start" x="457.7856" y="-131.5" font-family="Helvetica,sans-Serif" font-size="10.00" fill="#000000">/Users/oskryp/Projects</text>
<text text-anchor="start" x="457.7856" y="-121.5" font-family="Helvetica,sans-Serif" font-size="10.00" fill="#000000">/freesee&#45;native&#45;client</text>
<text text-anchor="start" x="457.7856" y="-111.5" font-family="Helvetica,sans-Serif" font-size="10.00" fill="#000000">/libs/fcc_sdk/engine/meetingclient</text>
<text text-anchor="start" x="457.7856" y="-101.5" font-family="Helvetica,sans-Serif" font-size="10.00" fill="#000000">/src/headers/MeetingClient/proxies</text>
<text text-anchor="middle" x="535.3223" y="-91.5" font-family="Helvetica,sans-Serif" font-size="10.00" fill="#000000">/MeetingBroadcastFeatureImpl.hxx</text>
</a>
</g>
</g>
<!-- Node71&#45;&gt;Node77 -->
<g id="edge7" class="edge">
<title>Node71&#45;&gt;Node77</title>
<path fill="none" stroke="#191970" d="M595.298,-266.4442C590.8435,-257.5257 586.2745,-247.9988 582.3223,-239 568.2008,-206.8471 554.2793,-168.9846 545.2986,-143.5279"/>
<polygon fill="#191970" stroke="#191970" points="592.2282,-268.1296 599.868,-275.4703 598.4734,-264.9676 592.2282,-268.1296"/>
</g>
<!-- Node78 -->
<g id="node8" class="node">
<title>Node78</title>
<g id="a_node8"><a xlink:href="_meeting_chat_feature_impl_8hxx.html" target="_top" xlink:title=" ">
<polygon fill="none" stroke="#000000" points="639.3423,-85.5 639.3423,-143.5 809.3022,-143.5 809.3022,-85.5 639.3423,-85.5"/>
<text text-anchor="start" x="647.3423" y="-131.5" font-family="Helvetica,sans-Serif" font-size="10.00" fill="#000000">/Users/oskryp/Projects</text>
<text text-anchor="start" x="647.3423" y="-121.5" font-family="Helvetica,sans-Serif" font-size="10.00" fill="#000000">/freesee&#45;native&#45;client</text>
<text text-anchor="start" x="647.3423" y="-111.5" font-family="Helvetica,sans-Serif" font-size="10.00" fill="#000000">/libs/fcc_sdk/engine/meetingclient</text>
<text text-anchor="start" x="647.3423" y="-101.5" font-family="Helvetica,sans-Serif" font-size="10.00" fill="#000000">/src/headers/MeetingClient/proxies</text>
<text text-anchor="middle" x="724.3223" y="-91.5" font-family="Helvetica,sans-Serif" font-size="10.00" fill="#000000">/MeetingChatFeatureImpl.hxx</text>
</a>
</g>
</g>
<!-- Node71&#45;&gt;Node78 -->
<g id="edge9" class="edge">
<title>Node71&#45;&gt;Node78</title>
<path fill="none" stroke="#191970" d="M607.9189,-265.2463C605.0961,-239.3419 605.5184,-205.5911 620.3223,-180 628.9768,-165.039 642.5664,-152.9882 657.1017,-143.5036"/>
<polygon fill="#191970" stroke="#191970" points="604.4868,-265.9966 609.2414,-275.4647 611.4289,-265.0981 604.4868,-265.9966"/>
</g>
<!-- Node79 -->
<g id="node9" class="node">
<title>Node79</title>
<g id="a_node9"><a xlink:href="_meeting_screen_sharing_feature_impl_8hxx.html" target="_top" xlink:title=" ">
<polygon fill="none" stroke="#000000" points="827.2217,-85.5 827.2217,-143.5 1019.4229,-143.5 1019.4229,-85.5 827.2217,-85.5"/>
<text text-anchor="start" x="835.2217" y="-131.5" font-family="Helvetica,sans-Serif" font-size="10.00" fill="#000000">/Users/oskryp/Projects</text>
<text text-anchor="start" x="835.2217" y="-121.5" font-family="Helvetica,sans-Serif" font-size="10.00" fill="#000000">/freesee&#45;native&#45;client</text>
<text text-anchor="start" x="835.2217" y="-111.5" font-family="Helvetica,sans-Serif" font-size="10.00" fill="#000000">/libs/fcc_sdk/engine/meetingclient</text>
<text text-anchor="start" x="835.2217" y="-101.5" font-family="Helvetica,sans-Serif" font-size="10.00" fill="#000000">/src/headers/MeetingClient/proxies</text>
<text text-anchor="middle" x="923.3223" y="-91.5" font-family="Helvetica,sans-Serif" font-size="10.00" fill="#000000">/MeetingScreenSharingFeatureImpl.hxx</text>
</a>
</g>
</g>
<!-- Node71&#45;&gt;Node79 -->
<g id="edge11" class="edge">
<title>Node71&#45;&gt;Node79</title>
<path fill="none" stroke="#191970" d="M617.189,-265.2878C620.6312,-237.613 629.7468,-201.7299 653.3223,-180 708.5128,-129.1298 745.4935,-162.1588 818.3223,-144 821.17,-143.29 824.0578,-142.5578 826.9704,-141.8087"/>
<polygon fill="#191970" stroke="#191970" points="613.6858,-265.1367 616.1292,-275.4459 620.6481,-265.8631 613.6858,-265.1367"/>
</g>
<!-- Node80 -->
<g id="node10" class="node">
<title>Node80</title>
<g id="a_node10"><a xlink:href="_meeting_video_feature_impl_8hxx.html" target="_top" xlink:title=" ">
<polygon fill="none" stroke="#000000" points="662.3423,-180.5 662.3423,-238.5 832.3022,-238.5 832.3022,-180.5 662.3423,-180.5"/>
<text text-anchor="start" x="670.3423" y="-226.5" font-family="Helvetica,sans-Serif" font-size="10.00" fill="#000000">/Users/oskryp/Projects</text>
<text text-anchor="start" x="670.3423" y="-216.5" font-family="Helvetica,sans-Serif" font-size="10.00" fill="#000000">/freesee&#45;native&#45;client</text>
<text text-anchor="start" x="670.3423" y="-206.5" font-family="Helvetica,sans-Serif" font-size="10.00" fill="#000000">/libs/fcc_sdk/engine/meetingclient</text>
<text text-anchor="start" x="670.3423" y="-196.5" font-family="Helvetica,sans-Serif" font-size="10.00" fill="#000000">/src/headers/MeetingClient/proxies</text>
<text text-anchor="middle" x="747.3223" y="-186.5" font-family="Helvetica,sans-Serif" font-size="10.00" fill="#000000">/MeetingVideoFeatureImpl.hxx</text>
</a>
</g>
</g>
<!-- Node71&#45;&gt;Node80 -->
<g id="edge13" class="edge">
<title>Node71&#45;&gt;Node80</title>
<path fill="none" stroke="#191970" d="M663.8061,-269.6063C677.9321,-259.4399 693.2122,-248.4429 706.7927,-238.669"/>
<polygon fill="#191970" stroke="#191970" points="661.7159,-266.7984 655.6439,-275.4807 665.8049,-272.48 661.7159,-266.7984"/>
</g>
<!-- Node81 -->
<g id="node11" class="node">
<title>Node81</title>
<g id="a_node11"><a xlink:href="_meeting_vo_i_p_feature_impl_8hxx.html" target="_top" xlink:title=" ">
<polygon fill="none" stroke="#000000" points="850.3423,-180.5 850.3423,-238.5 1020.3022,-238.5 1020.3022,-180.5 850.3423,-180.5"/>
<text text-anchor="start" x="858.3423" y="-226.5" font-family="Helvetica,sans-Serif" font-size="10.00" fill="#000000">/Users/oskryp/Projects</text>
<text text-anchor="start" x="858.3423" y="-216.5" font-family="Helvetica,sans-Serif" font-size="10.00" fill="#000000">/freesee&#45;native&#45;client</text>
<text text-anchor="start" x="858.3423" y="-206.5" font-family="Helvetica,sans-Serif" font-size="10.00" fill="#000000">/libs/fcc_sdk/engine/meetingclient</text>
<text text-anchor="start" x="858.3423" y="-196.5" font-family="Helvetica,sans-Serif" font-size="10.00" fill="#000000">/src/headers/MeetingClient/proxies</text>
<text text-anchor="middle" x="935.3223" y="-186.5" font-family="Helvetica,sans-Serif" font-size="10.00" fill="#000000">/MeetingVoIPFeatureImpl.hxx</text>
</a>
</g>
</g>
<!-- Node71&#45;&gt;Node81 -->
<g id="edge15" class="edge">
<title>Node71&#45;&gt;Node81</title>
<path fill="none" stroke="#191970" d="M710.3504,-277.4615C750.783,-265.827 798.4183,-251.9478 841.3223,-239 844.2697,-238.1105 847.2674,-237.2002 850.2937,-236.2765"/>
<polygon fill="#191970" stroke="#191970" points="709.1469,-274.1657 700.5027,-280.2918 711.0805,-280.8933 709.1469,-274.1657"/>
</g>
<!-- Node82 -->
<g id="node12" class="node">
<title>Node82</title>
<g id="a_node12"><a xlink:href="_raw_r_t_messages_feature_impl_8hxx.html" target="_top" xlink:title=" ">
<polygon fill="none" stroke="#000000" points="1038.3423,-180.5 1038.3423,-238.5 1208.3022,-238.5 1208.3022,-180.5 1038.3423,-180.5"/>
<text text-anchor="start" x="1046.3423" y="-226.5" font-family="Helvetica,sans-Serif" font-size="10.00" fill="#000000">/Users/oskryp/Projects</text>
<text text-anchor="start" x="1046.3423" y="-216.5" font-family="Helvetica,sans-Serif" font-size="10.00" fill="#000000">/freesee&#45;native&#45;client</text>
<text text-anchor="start" x="1046.3423" y="-206.5" font-family="Helvetica,sans-Serif" font-size="10.00" fill="#000000">/libs/fcc_sdk/engine/meetingclient</text>
<text text-anchor="start" x="1046.3423" y="-196.5" font-family="Helvetica,sans-Serif" font-size="10.00" fill="#000000">/src/headers/MeetingClient/proxies</text>
<text text-anchor="middle" x="1123.3223" y="-186.5" font-family="Helvetica,sans-Serif" font-size="10.00" fill="#000000">/RawRTMessagesFeatureImpl.hxx</text>
</a>
</g>
</g>
<!-- Node71&#45;&gt;Node82 -->
<g id="edge17" class="edge">
<title>Node71&#45;&gt;Node82</title>
<path fill="none" stroke="#191970" d="M710.5571,-293.481C794.9699,-282.7561 921.25,-264.3619 1029.3223,-239 1032.2363,-238.3161 1035.1913,-237.5879 1038.1678,-236.8246"/>
<polygon fill="#191970" stroke="#191970" points="709.9587,-290.0286 700.4745,-294.7508 710.8335,-296.9737 709.9587,-290.0286"/>
</g>
<!-- Node83 -->
<g id="node13" class="node">
<title>Node83</title>
<g id="a_node13"><a xlink:href="_free_see_a_p_i2_impl_8cxx.html" target="_top" xlink:title=" ">
<polygon fill="none" stroke="#000000" points="1226.0195,-185.5 1226.0195,-233.5 1392.625,-233.5 1392.625,-185.5 1226.0195,-185.5"/>
<text text-anchor="start" x="1234.0195" y="-221.5" font-family="Helvetica,sans-Serif" font-size="10.00" fill="#000000">/Users/oskryp/Projects</text>
<text text-anchor="start" x="1234.0195" y="-211.5" font-family="Helvetica,sans-Serif" font-size="10.00" fill="#000000">/freesee&#45;native&#45;client</text>
<text text-anchor="start" x="1234.0195" y="-201.5" font-family="Helvetica,sans-Serif" font-size="10.00" fill="#000000">/libs/fcc_sdk/engine/meetingclient</text>
<text text-anchor="middle" x="1309.3223" y="-191.5" font-family="Helvetica,sans-Serif" font-size="10.00" fill="#000000">/src/proxies/FreeSeeAPI2Impl.cxx</text>
</a>
</g>
</g>
<!-- Node71&#45;&gt;Node83 -->
<g id="edge19" class="edge">
<title>Node71&#45;&gt;Node83</title>
<path fill="none" stroke="#191970" d="M710.6342,-300.0782C830.1211,-293.1783 1040.7079,-276.5214 1217.3223,-239 1224.5414,-237.4663 1231.9967,-235.5884 1239.3938,-233.5298"/>
<polygon fill="#191970" stroke="#191970" points="710.2078,-296.5967 700.4219,-300.657 710.6039,-303.5855 710.2078,-296.5967"/>
</g>
<!-- Node72&#45;&gt;Node73 -->
<g id="edge2" class="edge">
<title>Node72&#45;&gt;Node73</title>
<path fill="none" stroke="#191970" d="M233.9214,-176.0047C212.2623,-165.3985 188.514,-153.7691 167.5539,-143.5052"/>
<polygon fill="#191970" stroke="#191970" points="232.5414,-179.2261 243.0617,-180.4807 235.62,-172.9393 232.5414,-179.2261"/>
</g>
<!-- Node76 -->
<g id="node6" class="node">
<title>Node76</title>
<g id="a_node6"><a xlink:href="_meeting_attendee_impl_8cxx.html" target="_top" xlink:title=" ">
<polygon fill="none" stroke="#000000" points="211.2314,-90.5 211.2314,-138.5 393.4131,-138.5 393.4131,-90.5 211.2314,-90.5"/>
<text text-anchor="start" x="219.2314" y="-126.5" font-family="Helvetica,sans-Serif" font-size="10.00" fill="#000000">/Users/oskryp/Projects</text>
<text text-anchor="start" x="219.2314" y="-116.5" font-family="Helvetica,sans-Serif" font-size="10.00" fill="#000000">/freesee&#45;native&#45;client</text>
<text text-anchor="start" x="219.2314" y="-106.5" font-family="Helvetica,sans-Serif" font-size="10.00" fill="#000000">/libs/fcc_sdk/engine/meetingclient</text>
<text text-anchor="middle" x="302.3223" y="-96.5" font-family="Helvetica,sans-Serif" font-size="10.00" fill="#000000">/src/proxies/MeetingAttendeeImpl.cxx</text>
</a>
</g>
</g>
<!-- Node72&#45;&gt;Node76 -->
<g id="edge5" class="edge">
<title>Node72&#45;&gt;Node76</title>
<path fill="none" stroke="#191970" d="M302.3223,-170.3932C302.3223,-159.602 302.3223,-148.214 302.3223,-138.5531"/>
<polygon fill="#191970" stroke="#191970" points="298.8224,-170.4806 302.3223,-180.4807 305.8224,-170.4807 298.8224,-170.4806"/>
</g>
<!-- Node74 -->
<g id="node4" class="node">
<title>Node74</title>
<g id="a_node4"><a xlink:href="_meeting_attendee_feature_impl_8cxx.html" target="_top" xlink:title=" ">
<polygon fill="none" stroke="#000000" points="0,-.5 0,-48.5 216.6445,-48.5 216.6445,-.5 0,-.5"/>
<text text-anchor="start" x="8" y="-36.5" font-family="Helvetica,sans-Serif" font-size="10.00" fill="#000000">/Users/oskryp/Projects</text>
<text text-anchor="start" x="8" y="-26.5" font-family="Helvetica,sans-Serif" font-size="10.00" fill="#000000">/freesee&#45;native&#45;client</text>
<text text-anchor="start" x="8" y="-16.5" font-family="Helvetica,sans-Serif" font-size="10.00" fill="#000000">/libs/fcc_sdk/engine/meetingclient</text>
<text text-anchor="middle" x="108.3223" y="-6.5" font-family="Helvetica,sans-Serif" font-size="10.00" fill="#000000">/src/proxies/MeetingAttendeeFeatureImpl.cxx</text>
</a>
</g>
</g>
<!-- Node73&#45;&gt;Node74 -->
<g id="edge3" class="edge">
<title>Node73&#45;&gt;Node74</title>
<path fill="none" stroke="#191970" d="M108.3223,-74.7825C108.3223,-65.8703 108.3223,-56.6778 108.3223,-48.6294"/>
<polygon fill="#191970" stroke="#191970" points="104.8224,-75.0306 108.3223,-85.0306 111.8224,-75.0307 104.8224,-75.0306"/>
</g>
<!-- Node73&#45;&gt;Node75 -->
<g id="edge4" class="edge">
<title>Node73&#45;&gt;Node75</title>
<path fill="none" stroke="#191970" d="M203.3367,-84.9522C399.4529,-45.9749 621.2753,-32.1541 739.3896,-27.173"/>
<polygon fill="#191970" stroke="#191970" points="202.5391,-81.5424 193.4269,-86.9478 203.921,-88.4047 202.5391,-81.5424"/>
</g>
<!-- Node77&#45;&gt;Node75 -->
<g id="edge8" class="edge">
<title>Node77&#45;&gt;Node75</title>
<path fill="none" stroke="#191970" d="M630.8811,-84.6379C668.3938,-72.9152 710.8707,-59.6411 746.3564,-48.5518"/>
<polygon fill="#191970" stroke="#191970" points="629.4528,-81.4172 620.952,-87.7407 631.5408,-88.0986 629.4528,-81.4172"/>
</g>
<!-- Node78&#45;&gt;Node75 -->
<g id="edge10" class="edge">
<title>Node78&#45;&gt;Node75</title>
<path fill="none" stroke="#191970" d="M763.9336,-78.4897C774.9188,-68.5031 786.5814,-57.9008 796.6364,-48.7599"/>
<polygon fill="#191970" stroke="#191970" points="761.5098,-75.963 756.4647,-85.2796 766.2185,-81.1426 761.5098,-75.963"/>
</g>
<!-- Node79&#45;&gt;Node75 -->
<g id="edge12" class="edge">
<title>Node79&#45;&gt;Node75</title>
<path fill="none" stroke="#191970" d="M883.3108,-78.4897C872.2147,-68.5031 860.4343,-57.9008 850.2777,-48.7599"/>
<polygon fill="#191970" stroke="#191970" points="881.0808,-81.1914 890.8551,-85.2796 885.7636,-75.9884 881.0808,-81.1914"/>
</g>
<!-- Node80&#45;&gt;Node75 -->
<g id="edge14" class="edge">
<title>Node80&#45;&gt;Node75</title>
<path fill="none" stroke="#191970" d="M842.4625,-180.032C927.1799,-162.8446 976.4276,-206.8379 1028.3223,-144 1045.0198,-123.7813 1044.0222,-106.0028 1028.3223,-85 1013.3255,-64.9379 957.1369,-49.2105 907.3714,-38.8252"/>
<polygon fill="#191970" stroke="#191970" points="841.4793,-176.6662 832.5074,-182.3014 843.0352,-183.4911 841.4793,-176.6662"/>
</g>
<!-- Node81&#45;&gt;Node75 -->
<g id="edge16" class="edge">
<title>Node81&#45;&gt;Node75</title>
<path fill="none" stroke="#191970" d="M1019.578,-174.6355C1031.0691,-166.2915 1041.3077,-156.1737 1048.3223,-144 1061.4138,-121.2796 1064.2762,-105.8105 1048.3223,-85 1030.8797,-62.2478 963.7694,-46.1428 907.3422,-36.2995"/>
<polygon fill="#191970" stroke="#191970" points="1017.356,-171.9121 1011.0174,-180.4017 1021.2667,-177.7179 1017.356,-171.9121"/>
</g>
<!-- Node82&#45;&gt;Node75 -->
<g id="edge18" class="edge">
<title>Node82&#45;&gt;Node75</title>
<path fill="none" stroke="#191970" d="M1115.349,-170.5452C1107.6638,-142.7673 1093.2493,-106.6429 1067.3223,-85 1043.0314,-64.723 967.9784,-48.0066 907.4602,-37.3226"/>
<polygon fill="#191970" stroke="#191970" points="1111.9943,-171.5529 1117.8848,-180.3593 1118.7717,-169.8017 1111.9943,-171.5529"/>
</g>
</g>
</svg>
