<?xml version="1.0" encoding="UTF-8" standalone="no"?>
<!DOCTYPE svg PUBLIC "-//W3C//DTD SVG 1.1//EN"
 "http://www.w3.org/Graphics/SVG/1.1/DTD/svg11.dtd">
<!-- Generated by graphviz version 2.40.1 (20161225.0304)
 -->
<!-- Title: /Users/oskryp/Projects/freesee&#45;native&#45;client/libs/fcc_sdk/engine/meetingclient/include/MeetingClient/ModuleVersion.hxx Pages: 1 -->
<svg width="243pt" height="177pt"
 viewBox="0.00 0.00 243.19 177.00" xmlns="http://www.w3.org/2000/svg" xmlns:xlink="http://www.w3.org/1999/xlink">
<g id="graph0" class="graph" transform="scale(1 1) rotate(0) translate(4 173)">
<title>/Users/oskryp/Projects/freesee&#45;native&#45;client/libs/fcc_sdk/engine/meetingclient/include/MeetingClient/ModuleVersion.hxx</title>
<!-- Node0 -->
<g id="node1" class="node">
<title>Node0</title>
<g id="a_node1"><a xlink:title=" ">
<polygon fill="#bfbfbf" stroke="#000000" points="26.3945,-120.5 26.3945,-168.5 228.0586,-168.5 228.0586,-120.5 26.3945,-120.5"/>
<text text-anchor="start" x="34.3945" y="-156.5" font-family="Helvetica,sans-Serif" font-size="10.00" fill="#000000">/Users/oskryp/Projects</text>
<text text-anchor="start" x="34.3945" y="-146.5" font-family="Helvetica,sans-Serif" font-size="10.00" fill="#000000">/freesee&#45;native&#45;client</text>
<text text-anchor="start" x="34.3945" y="-136.5" font-family="Helvetica,sans-Serif" font-size="10.00" fill="#000000">/libs/fcc_sdk/engine/meetingclient</text>
<text text-anchor="middle" x="127.2266" y="-126.5" font-family="Helvetica,sans-Serif" font-size="10.00" fill="#000000">/include/MeetingClient/ModuleVersion.hxx</text>
</a>
</g>
</g>
<!-- Node1 -->
<g id="node2" class="node">
<title>Node1</title>
<g id="a_node2"><a xlink:href="_common_data_types_8hxx.html" target="_top" xlink:title=" ">
<polygon fill="none" stroke="#000000" points="1.4805,-55.5 1.4805,-83.5 126.9727,-83.5 126.9727,-55.5 1.4805,-55.5"/>
<text text-anchor="start" x="9.4805" y="-71.5" font-family="Helvetica,sans-Serif" font-size="10.00" fill="#000000">MeetingClient/types</text>
<text text-anchor="middle" x="64.2266" y="-61.5" font-family="Helvetica,sans-Serif" font-size="10.00" fill="#000000">/CommonDataTypes.hxx</text>
</a>
</g>
</g>
<!-- Node0&#45;&gt;Node1 -->
<g id="edge1" class="edge">
<title>Node0&#45;&gt;Node1</title>
<path fill="none" stroke="#191970" d="M106.9462,-120.3567C99.1248,-111.0456 90.242,-100.4707 82.6098,-91.3848"/>
<polygon fill="#191970" stroke="#191970" points="85.1306,-88.9441 76.0186,-83.5382 79.7706,-93.4464 85.1306,-88.9441"/>
</g>
<!-- Node4 -->
<g id="node5" class="node">
<title>Node4</title>
<g id="a_node5"><a xlink:title=" ">
<polygon fill="none" stroke="#bfbfbf" points="145.2661,-60.5 145.2661,-78.5 235.187,-78.5 235.187,-60.5 145.2661,-60.5"/>
<text text-anchor="middle" x="190.2266" y="-66.5" font-family="Helvetica,sans-Serif" font-size="10.00" fill="#000000">Utils/Version.hxx</text>
</a>
</g>
</g>
<!-- Node0&#45;&gt;Node4 -->
<g id="edge4" class="edge">
<title>Node0&#45;&gt;Node4</title>
<path fill="none" stroke="#191970" d="M147.5069,-120.3567C156.7435,-109.3608 167.4605,-96.6025 175.8497,-86.6153"/>
<polygon fill="#191970" stroke="#191970" points="178.7752,-88.5742 182.5271,-78.666 173.4152,-84.0719 178.7752,-88.5742"/>
</g>
<!-- Node2 -->
<g id="node3" class="node">
<title>Node2</title>
<g id="a_node3"><a xlink:title=" ">
<polygon fill="none" stroke="#bfbfbf" points="0,-.5 0,-18.5 40.4531,-18.5 40.4531,-.5 0,-.5"/>
<text text-anchor="middle" x="20.2266" y="-6.5" font-family="Helvetica,sans-Serif" font-size="10.00" fill="#000000">string</text>
</a>
</g>
</g>
<!-- Node1&#45;&gt;Node2 -->
<g id="edge2" class="edge">
<title>Node1&#45;&gt;Node2</title>
<path fill="none" stroke="#191970" d="M53.7992,-55.2808C47.5476,-46.756 39.5532,-35.8545 32.9338,-26.8281"/>
<polygon fill="#191970" stroke="#191970" points="35.6244,-24.5785 26.8883,-18.5842 29.9796,-28.718 35.6244,-24.5785"/>
</g>
<!-- Node3 -->
<g id="node4" class="node">
<title>Node3</title>
<g id="a_node4"><a xlink:title=" ">
<polygon fill="none" stroke="#bfbfbf" points="58.4312,-.5 58.4312,-18.5 160.022,-18.5 160.022,-.5 58.4312,-.5"/>
<text text-anchor="middle" x="109.2266" y="-6.5" font-family="Helvetica,sans-Serif" font-size="10.00" fill="#000000">CommonTypes.hxx</text>
</a>
</g>
</g>
<!-- Node1&#45;&gt;Node3 -->
<g id="edge3" class="edge">
<title>Node1&#45;&gt;Node3</title>
<path fill="none" stroke="#191970" d="M74.8909,-55.2808C81.2846,-46.756 89.4607,-35.8545 96.2305,-26.8281"/>
<polygon fill="#191970" stroke="#191970" points="99.2134,-28.6842 102.4134,-18.5842 93.6134,-24.4842 99.2134,-28.6842"/>
</g>
</g>
</svg>
