<?xml version="1.0" encoding="UTF-8" standalone="no"?>
<!DOCTYPE svg PUBLIC "-//W3C//DTD SVG 1.1//EN"
 "http://www.w3.org/Graphics/SVG/1.1/DTD/svg11.dtd">
<!-- Generated by graphviz version 2.40.1 (20161225.0304)
 -->
<!-- Title: /Users/oskryp/Projects/freesee&#45;native&#45;client/libs/fcc_sdk/engine/meetingclient/src/ModuleVersion.cxx Pages: 1 -->
<svg width="243pt" height="232pt"
 viewBox="0.00 0.00 243.19 232.00" xmlns="http://www.w3.org/2000/svg" xmlns:xlink="http://www.w3.org/1999/xlink">
<g id="graph0" class="graph" transform="scale(1 1) rotate(0) translate(4 228)">
<title>/Users/oskryp/Projects/freesee&#45;native&#45;client/libs/fcc_sdk/engine/meetingclient/src/ModuleVersion.cxx</title>
<!-- Node0 -->
<g id="node1" class="node">
<title>Node0</title>
<g id="a_node1"><a xlink:title=" ">
<polygon fill="#bfbfbf" stroke="#000000" points="44.7417,-175.5 44.7417,-223.5 209.7114,-223.5 209.7114,-175.5 44.7417,-175.5"/>
<text text-anchor="start" x="52.7417" y="-211.5" font-family="Helvetica,sans-Serif" font-size="10.00" fill="#000000">/Users/oskryp/Projects</text>
<text text-anchor="start" x="52.7417" y="-201.5" font-family="Helvetica,sans-Serif" font-size="10.00" fill="#000000">/freesee&#45;native&#45;client</text>
<text text-anchor="start" x="52.7417" y="-191.5" font-family="Helvetica,sans-Serif" font-size="10.00" fill="#000000">/libs/fcc_sdk/engine/meetingclient</text>
<text text-anchor="middle" x="127.2266" y="-181.5" font-family="Helvetica,sans-Serif" font-size="10.00" fill="#000000">/src/ModuleVersion.cxx</text>
</a>
</g>
</g>
<!-- Node1 -->
<g id="node2" class="node">
<title>Node1</title>
<g id="a_node2"><a xlink:href="_module_version_8hxx.html" target="_top" xlink:title=" ">
<polygon fill="none" stroke="#000000" points="45.0176,-120.5 45.0176,-138.5 209.4355,-138.5 209.4355,-120.5 45.0176,-120.5"/>
<text text-anchor="middle" x="127.2266" y="-126.5" font-family="Helvetica,sans-Serif" font-size="10.00" fill="#000000">MeetingClient/ModuleVersion.hxx</text>
</a>
</g>
</g>
<!-- Node0&#45;&gt;Node1 -->
<g id="edge1" class="edge">
<title>Node0&#45;&gt;Node1</title>
<path fill="none" stroke="#191970" d="M127.2266,-175.41C127.2266,-166.7094 127.2266,-157.0095 127.2266,-148.7754"/>
<polygon fill="#191970" stroke="#191970" points="130.7267,-148.6872 127.2266,-138.6872 123.7267,-148.6873 130.7267,-148.6872"/>
</g>
<!-- Node2 -->
<g id="node3" class="node">
<title>Node2</title>
<g id="a_node3"><a xlink:href="_common_data_types_8hxx.html" target="_top" xlink:title=" ">
<polygon fill="none" stroke="#000000" points="1.4805,-55.5 1.4805,-83.5 126.9727,-83.5 126.9727,-55.5 1.4805,-55.5"/>
<text text-anchor="start" x="9.4805" y="-71.5" font-family="Helvetica,sans-Serif" font-size="10.00" fill="#000000">MeetingClient/types</text>
<text text-anchor="middle" x="64.2266" y="-61.5" font-family="Helvetica,sans-Serif" font-size="10.00" fill="#000000">/CommonDataTypes.hxx</text>
</a>
</g>
</g>
<!-- Node1&#45;&gt;Node2 -->
<g id="edge2" class="edge">
<title>Node1&#45;&gt;Node2</title>
<path fill="none" stroke="#191970" d="M117.6582,-120.3873C109.4593,-112.5788 97.3252,-101.0225 86.6916,-90.8952"/>
<polygon fill="#191970" stroke="#191970" points="88.9468,-88.2097 79.2916,-83.8477 84.1192,-93.2787 88.9468,-88.2097"/>
</g>
<!-- Node5 -->
<g id="node6" class="node">
<title>Node5</title>
<g id="a_node6"><a xlink:title=" ">
<polygon fill="none" stroke="#bfbfbf" points="145.2661,-60.5 145.2661,-78.5 235.187,-78.5 235.187,-60.5 145.2661,-60.5"/>
<text text-anchor="middle" x="190.2266" y="-66.5" font-family="Helvetica,sans-Serif" font-size="10.00" fill="#000000">Utils/Version.hxx</text>
</a>
</g>
</g>
<!-- Node1&#45;&gt;Node5 -->
<g id="edge5" class="edge">
<title>Node1&#45;&gt;Node5</title>
<path fill="none" stroke="#191970" d="M136.7949,-120.3873C146.4159,-111.2245 161.4556,-96.9009 173.1308,-85.7817"/>
<polygon fill="#191970" stroke="#191970" points="175.7406,-88.1295 180.5682,-78.6985 170.913,-83.0606 175.7406,-88.1295"/>
</g>
<!-- Node3 -->
<g id="node4" class="node">
<title>Node3</title>
<g id="a_node4"><a xlink:title=" ">
<polygon fill="none" stroke="#bfbfbf" points="0,-.5 0,-18.5 40.4531,-18.5 40.4531,-.5 0,-.5"/>
<text text-anchor="middle" x="20.2266" y="-6.5" font-family="Helvetica,sans-Serif" font-size="10.00" fill="#000000">string</text>
</a>
</g>
</g>
<!-- Node2&#45;&gt;Node3 -->
<g id="edge3" class="edge">
<title>Node2&#45;&gt;Node3</title>
<path fill="none" stroke="#191970" d="M53.7992,-55.2808C47.5476,-46.756 39.5532,-35.8545 32.9338,-26.8281"/>
<polygon fill="#191970" stroke="#191970" points="35.6244,-24.5785 26.8883,-18.5842 29.9796,-28.718 35.6244,-24.5785"/>
</g>
<!-- Node4 -->
<g id="node5" class="node">
<title>Node4</title>
<g id="a_node5"><a xlink:title=" ">
<polygon fill="none" stroke="#bfbfbf" points="58.4312,-.5 58.4312,-18.5 160.022,-18.5 160.022,-.5 58.4312,-.5"/>
<text text-anchor="middle" x="109.2266" y="-6.5" font-family="Helvetica,sans-Serif" font-size="10.00" fill="#000000">CommonTypes.hxx</text>
</a>
</g>
</g>
<!-- Node2&#45;&gt;Node4 -->
<g id="edge4" class="edge">
<title>Node2&#45;&gt;Node4</title>
<path fill="none" stroke="#191970" d="M74.8909,-55.2808C81.2846,-46.756 89.4607,-35.8545 96.2305,-26.8281"/>
<polygon fill="#191970" stroke="#191970" points="99.2134,-28.6842 102.4134,-18.5842 93.6134,-24.4842 99.2134,-28.6842"/>
</g>
</g>
</svg>
