<?xml version="1.0" encoding="UTF-8" standalone="no"?>
<!DOCTYPE svg PUBLIC "-//W3C//DTD SVG 1.1//EN"
 "http://www.w3.org/Graphics/SVG/1.1/DTD/svg11.dtd">
<!-- Generated by graphviz version 2.40.1 (20161225.0304)
 -->
<!-- Title: /Users/oskryp/Projects/freesee&#45;native&#45;client/libs/fcc_sdk/engine/meetingclient/src/NetworkInspectorController.cxx Pages: 1 -->
<!--zoomable 547 -->
<svg id="main" version="1.1" xmlns="http://www.w3.org/2000/svg" xmlns:xlink="http://www.w3.org/1999/xlink" xml:space="preserve" onload="init(evt)">
<style type="text/css"><![CDATA[
.edge:hover path { stroke: red; }
.edge:hover polygon { stroke: red; fill: red; }
]]></style>
<script type="text/javascript"><![CDATA[
var edges = document.getElementsByTagName('g');
if (edges && edges.length) {
  for (var i=0;i<edges.length;i++) {
    if (edges[i].id.substr(0,4)=='edge') {
      edges[i].setAttribute('class','edge');
    }
  }
}
]]></script>
        <defs>
                <circle id="rim" cx="0" cy="0" r="7"/>
                <circle id="rim2" cx="0" cy="0" r="3.5"/>
                <g id="zoomPlus">
                        <use xlink:href="#rim" fill="#404040">
                                <set attributeName="fill" to="#808080" begin="zoomplus.mouseover" end="zoomplus.mouseout"/>
                        </use>
                        <path d="M-4,0h8M0,-4v8" fill="none" stroke="white" stroke-width="1.5" pointer-events="none"/>
                </g>
                <g id="zoomMin">
                        <use xlink:href="#rim" fill="#404040">
                                <set attributeName="fill" to="#808080" begin="zoomminus.mouseover" end="zoomminus.mouseout"/>
                        </use>
                        <path d="M-4,0h8" fill="none" stroke="white" stroke-width="1.5" pointer-events="none"/>
                </g>
                <g id="dirArrow">
                        <path fill="none" stroke="white" stroke-width="1.5" d="M0,-3.0v7 M-2.5,-0.5L0,-3.0L2.5,-0.5"/>
                </g>
               <g id="resetDef">
                       <use xlink:href="#rim2" fill="#404040">
                               <set attributeName="fill" to="#808080" begin="reset.mouseover" end="reset.mouseout"/>
                       </use>
               </g>
        </defs>

<script type="text/javascript">
var viewWidth = 1579;
var viewHeight = 547;
var sectionId = 'dynsection-0';
</script>
<script xlink:href="svgpan.js"/>
<svg id="graph" class="graph">
<g id="viewport">
<title>/Users/oskryp/Projects/freesee&#45;native&#45;client/libs/fcc_sdk/engine/meetingclient/src/NetworkInspectorController.cxx</title>
<!-- Node0 -->
<g id="node1" class="node">
<title>Node0</title>
<g id="a_node1"><a xlink:title=" ">
<polygon fill="#bfbfbf" stroke="#000000" points="939.978,-490.5 939.978,-538.5 1113.2534,-538.5 1113.2534,-490.5 939.978,-490.5"/>
<text text-anchor="start" x="947.978" y="-526.5" font-family="Helvetica,sans-Serif" font-size="10.00" fill="#000000">/Users/oskryp/Projects</text>
<text text-anchor="start" x="947.978" y="-516.5" font-family="Helvetica,sans-Serif" font-size="10.00" fill="#000000">/freesee&#45;native&#45;client</text>
<text text-anchor="start" x="947.978" y="-506.5" font-family="Helvetica,sans-Serif" font-size="10.00" fill="#000000">/libs/fcc_sdk/engine/meetingclient</text>
<text text-anchor="middle" x="1026.6157" y="-496.5" font-family="Helvetica,sans-Serif" font-size="10.00" fill="#000000">/src/NetworkInspectorController.cxx</text>
</a>
</g>
</g>
<!-- Node1 -->
<g id="node2" class="node">
<title>Node1</title>
<g id="a_node2"><a xlink:href="_network_inspector_controller_8hxx.html" target="_top" xlink:title=" ">
<polygon fill="none" stroke="#000000" points="828.1406,-435.5 828.1406,-453.5 983.0908,-453.5 983.0908,-435.5 828.1406,-435.5"/>
<text text-anchor="middle" x="905.6157" y="-441.5" font-family="Helvetica,sans-Serif" font-size="10.00" fill="#000000">NetworkInspectorController.hxx</text>
</a>
</g>
</g>
<!-- Node0&#45;&gt;Node1 -->
<g id="edge1" class="edge">
<title>Node0&#45;&gt;Node1</title>
<path fill="none" stroke="#191970" d="M984.9744,-490.41C966.7454,-479.8643 945.9785,-467.8504 930.2617,-458.758"/>
<polygon fill="#191970" stroke="#191970" points="931.6049,-455.4916 921.1963,-453.5136 928.0995,-461.5507 931.6049,-455.4916"/>
</g>
<!-- Node23 -->
<g id="node24" class="node">
<title>Node23</title>
<g id="a_node24"><a xlink:href="_network_inspector_client_8hxx.html" target="_top" xlink:title=" ">
<polygon fill="none" stroke="#000000" points="989.7588,-380.5 989.7588,-398.5 1127.4727,-398.5 1127.4727,-380.5 989.7588,-380.5"/>
<text text-anchor="middle" x="1058.6157" y="-386.5" font-family="Helvetica,sans-Serif" font-size="10.00" fill="#000000">NetworkInspectorClient.hxx</text>
</a>
</g>
</g>
<!-- Node0&#45;&gt;Node23 -->
<g id="edge35" class="edge">
<title>Node0&#45;&gt;Node23</title>
<path fill="none" stroke="#191970" d="M1032.0805,-490.4272C1035.7385,-474.6259 1040.7565,-453.5311 1045.6157,-435 1047.9339,-426.1593 1050.6924,-416.4096 1053.0706,-408.2106"/>
<polygon fill="#191970" stroke="#191970" points="1056.4532,-409.1133 1055.909,-398.5324 1049.7361,-407.1433 1056.4532,-409.1133"/>
</g>
<!-- Node29 -->
<g id="node30" class="node">
<title>Node29</title>
<g id="a_node30"><a xlink:title=" ">
<polygon fill="none" stroke="#bfbfbf" points="1054.1504,-435.5 1054.1504,-453.5 1119.0811,-453.5 1119.0811,-435.5 1054.1504,-435.5"/>
<text text-anchor="middle" x="1086.6157" y="-441.5" font-family="Helvetica,sans-Serif" font-size="10.00" fill="#000000">Logger.hxx</text>
</a>
</g>
</g>
<!-- Node0&#45;&gt;Node29 -->
<g id="edge34" class="edge">
<title>Node0&#45;&gt;Node29</title>
<path fill="none" stroke="#191970" d="M1047.2643,-490.41C1055.4846,-480.8196 1064.7457,-470.015 1072.2177,-461.2977"/>
<polygon fill="#191970" stroke="#191970" points="1074.8904,-463.5576 1078.7409,-453.6872 1069.5756,-459.002 1074.8904,-463.5576"/>
</g>
<!-- Node2 -->
<g id="node3" class="node">
<title>Node2</title>
<g id="a_node3"><a xlink:title=" ">
<polygon fill="none" stroke="#bfbfbf" points="705.6333,-320.5 705.6333,-338.5 815.5981,-338.5 815.5981,-320.5 705.6333,-320.5"/>
<text text-anchor="middle" x="760.6157" y="-326.5" font-family="Helvetica,sans-Serif" font-size="10.00" fill="#000000">boost/shared_ptr.hpp</text>
</a>
</g>
</g>
<!-- Node1&#45;&gt;Node2 -->
<g id="edge2" class="edge">
<title>Node1&#45;&gt;Node2</title>
<path fill="none" stroke="#191970" d="M894.2378,-435.4761C869.5837,-415.9229 810.9824,-369.446 780.228,-345.0546"/>
<polygon fill="#191970" stroke="#191970" points="782.3534,-342.2731 772.3435,-338.8014 778.0036,-347.7576 782.3534,-342.2731"/>
</g>
<!-- Node3 -->
<g id="node4" class="node">
<title>Node3</title>
<g id="a_node4"><a xlink:href="_i_network_inspector_notifications_delegate_8hxx.html" target="_top" xlink:title=" ">
<polygon fill="none" stroke="#000000" points="833.4189,-315.5 833.4189,-343.5 977.8125,-343.5 977.8125,-315.5 833.4189,-315.5"/>
<text text-anchor="start" x="841.4189" y="-331.5" font-family="Helvetica,sans-Serif" font-size="10.00" fill="#000000">Delegates/INetworkInspector</text>
<text text-anchor="middle" x="905.6157" y="-321.5" font-family="Helvetica,sans-Serif" font-size="10.00" fill="#000000">NotificationsDelegate.hxx</text>
</a>
</g>
</g>
<!-- Node1&#45;&gt;Node3 -->
<g id="edge3" class="edge">
<title>Node1&#45;&gt;Node3</title>
<path fill="none" stroke="#191970" d="M905.6157,-435.4761C905.6157,-418.0557 905.6157,-379.265 905.6157,-353.7612"/>
<polygon fill="#191970" stroke="#191970" points="909.1158,-353.7455 905.6157,-343.7455 902.1158,-353.7455 909.1158,-353.7455"/>
</g>
<!-- Node4 -->
<g id="node5" class="node">
<title>Node4</title>
<g id="a_node5"><a xlink:title=" ">
<polygon fill="none" stroke="#bfbfbf" points="520.8154,-260.5 520.8154,-278.5 632.416,-278.5 632.416,-260.5 520.8154,-260.5"/>
<text text-anchor="middle" x="576.6157" y="-266.5" font-family="Helvetica,sans-Serif" font-size="10.00" fill="#000000">NetworkInspector.hxx</text>
</a>
</g>
</g>
<!-- Node1&#45;&gt;Node4 -->
<g id="edge24" class="edge">
<title>Node1&#45;&gt;Node4</title>
<path fill="none" stroke="#191970" d="M884.7763,-435.3761C846.756,-418.5337 763.8549,-380.8997 696.6157,-344 661.6959,-324.8366 622.7767,-299.9974 598.9929,-284.4007"/>
<polygon fill="#191970" stroke="#191970" points="600.6416,-281.2955 590.3663,-278.7131 596.7885,-287.1396 600.6416,-281.2955"/>
</g>
<!-- Node1&#45;&gt;Node23 -->
<g id="edge25" class="edge">
<title>Node1&#45;&gt;Node23</title>
<path fill="none" stroke="#191970" d="M930.8806,-435.4179C956.3151,-426.2748 995.7339,-412.1046 1024.0543,-401.924"/>
<polygon fill="#191970" stroke="#191970" points="1025.3412,-405.1808 1033.5676,-398.5042 1022.9732,-398.5935 1025.3412,-405.1808"/>
</g>
<!-- Node3&#45;&gt;Node4 -->
<g id="edge4" class="edge">
<title>Node3&#45;&gt;Node4</title>
<path fill="none" stroke="#191970" d="M833.4153,-316.3327C774.296,-305.5511 691.6606,-290.4808 636.2499,-280.3755"/>
<polygon fill="#191970" stroke="#191970" points="636.6978,-276.8996 626.2321,-278.5486 635.4419,-283.786 636.6978,-276.8996"/>
</g>
<!-- Node5 -->
<g id="node6" class="node">
<title>Node5</title>
<g id="a_node6"><a xlink:href="_notifications_8hxx.html" target="_top" xlink:title=" ">
<polygon fill="none" stroke="#000000" points="650.2119,-260.5 650.2119,-278.5 739.0195,-278.5 739.0195,-260.5 650.2119,-260.5"/>
<text text-anchor="middle" x="694.6157" y="-266.5" font-family="Helvetica,sans-Serif" font-size="10.00" fill="#000000">Notifications.hxx</text>
</a>
</g>
</g>
<!-- Node3&#45;&gt;Node5 -->
<g id="edge5" class="edge">
<title>Node3&#45;&gt;Node5</title>
<path fill="none" stroke="#191970" d="M856.1456,-315.4327C819.6715,-305.0609 770.6103,-291.1098 736.1609,-281.3138"/>
<polygon fill="#191970" stroke="#191970" points="736.9885,-277.9104 726.4125,-278.5417 735.0738,-284.6435 736.9885,-277.9104"/>
</g>
<!-- Node6 -->
<g id="node7" class="node">
<title>Node6</title>
<g id="a_node7"><a xlink:title=" ">
<polygon fill="none" stroke="#bfbfbf" points="453.9756,-195.5 453.9756,-223.5 567.2559,-223.5 567.2559,-195.5 453.9756,-195.5"/>
<text text-anchor="start" x="461.9756" y="-211.5" font-family="Helvetica,sans-Serif" font-size="10.00" fill="#000000">boost/date_time/posix</text>
<text text-anchor="middle" x="510.6157" y="-201.5" font-family="Helvetica,sans-Serif" font-size="10.00" fill="#000000">_time/posix_time.hpp</text>
</a>
</g>
</g>
<!-- Node5&#45;&gt;Node6 -->
<g id="edge6" class="edge">
<title>Node5&#45;&gt;Node6</title>
<path fill="none" stroke="#191970" d="M666.6701,-260.3873C639.3111,-251.4659 596.9487,-237.652 563.2612,-226.667"/>
<polygon fill="#191970" stroke="#191970" points="564.1538,-223.2767 553.5614,-223.504 561.9836,-229.9319 564.1538,-223.2767"/>
</g>
<!-- Node7 -->
<g id="node8" class="node">
<title>Node7</title>
<g id="a_node8"><a xlink:title=" ">
<polygon fill="none" stroke="#bfbfbf" points="903.8892,-200.5 903.8892,-218.5 939.3423,-218.5 939.3423,-200.5 903.8892,-200.5"/>
<text text-anchor="middle" x="921.6157" y="-206.5" font-family="Helvetica,sans-Serif" font-size="10.00" fill="#000000">map</text>
</a>
</g>
</g>
<!-- Node5&#45;&gt;Node7 -->
<g id="edge7" class="edge">
<title>Node5&#45;&gt;Node7</title>
<path fill="none" stroke="#191970" d="M739.3069,-262.8791C780.5105,-255.9514 842.9256,-243.354 894.6157,-224 895.4877,-223.6735 896.3667,-223.3239 897.2476,-222.9558"/>
<polygon fill="#191970" stroke="#191970" points="899.0163,-225.9898 906.5304,-218.5206 895.9985,-219.6737 899.0163,-225.9898"/>
</g>
<!-- Node8 -->
<g id="node9" class="node">
<title>Node8</title>
<g id="a_node9"><a xlink:title=" ">
<polygon fill="none" stroke="#bfbfbf" points="0,-200.5 0,-218.5 43.2314,-218.5 43.2314,-200.5 0,-200.5"/>
<text text-anchor="middle" x="21.6157" y="-206.5" font-family="Helvetica,sans-Serif" font-size="10.00" fill="#000000">vector</text>
</a>
</g>
</g>
<!-- Node5&#45;&gt;Node8 -->
<g id="edge8" class="edge">
<title>Node5&#45;&gt;Node8</title>
<path fill="none" stroke="#191970" d="M650.1391,-261.1402C647.26,-260.7191 644.4002,-260.3334 641.6157,-260 380.7685,-228.7717 305.7917,-290.4157 51.6157,-224 49.9611,-223.5677 48.2886,-223.0418 46.6244,-222.4498"/>
<polygon fill="#191970" stroke="#191970" points="47.9389,-219.2056 37.3659,-218.5264 45.2077,-225.6508 47.9389,-219.2056"/>
</g>
<!-- Node9 -->
<g id="node10" class="node">
<title>Node9</title>
<g id="a_node10"><a xlink:title=" ">
<polygon fill="none" stroke="#bfbfbf" points="60.9287,-200.5 60.9287,-218.5 150.3027,-218.5 150.3027,-200.5 60.9287,-200.5"/>
<text text-anchor="middle" x="105.6157" y="-206.5" font-family="Helvetica,sans-Serif" font-size="10.00" fill="#000000">FSSnapshot.hxx</text>
</a>
</g>
</g>
<!-- Node5&#45;&gt;Node9 -->
<g id="edge9" class="edge">
<title>Node5&#45;&gt;Node9</title>
<path fill="none" stroke="#191970" d="M650.1337,-261.184C647.2559,-260.7521 644.3979,-260.3521 641.6157,-260 428.0568,-232.9745 370.7484,-260.572 158.6157,-224 154.1048,-223.2223 149.4228,-222.2267 144.7925,-221.1222"/>
<polygon fill="#191970" stroke="#191970" points="145.38,-217.6599 134.8246,-218.5728 143.6454,-224.4416 145.38,-217.6599"/>
</g>
<!-- Node10 -->
<g id="node11" class="node">
<title>Node10</title>
<g id="a_node11"><a xlink:href="macros_8hxx.html" target="_top" xlink:title=" ">
<polygon fill="none" stroke="#000000" points="168.0938,-200.5 168.0938,-218.5 299.1377,-218.5 299.1377,-200.5 168.0938,-200.5"/>
<text text-anchor="middle" x="233.6157" y="-206.5" font-family="Helvetica,sans-Serif" font-size="10.00" fill="#000000">MeetingClient/macros.hxx</text>
</a>
</g>
</g>
<!-- Node5&#45;&gt;Node10 -->
<g id="edge10" class="edge">
<title>Node5&#45;&gt;Node10</title>
<path fill="none" stroke="#191970" d="M650.1192,-261.2911C647.245,-260.833 644.3918,-260.3979 641.6157,-260 493.822,-238.8159 455.2338,-246.3755 307.6157,-224 300.8324,-222.9718 293.7253,-221.7569 286.7111,-220.4749"/>
<polygon fill="#191970" stroke="#191970" points="287.0245,-216.9725 276.5496,-218.5624 285.7297,-223.8517 287.0245,-216.9725"/>
</g>
<!-- Node11 -->
<g id="node12" class="node">
<title>Node11</title>
<g id="a_node12"><a xlink:href="_f_s_base_8hxx.html" target="_top" xlink:title=" ">
<polygon fill="none" stroke="#000000" points="316.9238,-195.5 316.9238,-223.5 436.3076,-223.5 436.3076,-195.5 316.9238,-195.5"/>
<text text-anchor="start" x="324.9238" y="-211.5" font-family="Helvetica,sans-Serif" font-size="10.00" fill="#000000">MeetingClient/transport</text>
<text text-anchor="middle" x="376.6157" y="-201.5" font-family="Helvetica,sans-Serif" font-size="10.00" fill="#000000">/FSBase.hxx</text>
</a>
</g>
</g>
<!-- Node5&#45;&gt;Node11 -->
<g id="edge11" class="edge">
<title>Node5&#45;&gt;Node11</title>
<path fill="none" stroke="#191970" d="M650.0539,-261.465C589.7533,-250.5816 485.8628,-231.7912 446.5088,-224.3093"/>
<polygon fill="#191970" stroke="#191970" points="447.1478,-220.8681 436.6653,-222.407 445.8195,-227.7409 447.1478,-220.8681"/>
</g>
<!-- Node12 -->
<g id="node13" class="node">
<title>Node12</title>
<g id="a_node13"><a xlink:href="_meeting_types_8hxx.html" target="_top" xlink:title=" ">
<polygon fill="none" stroke="#000000" points="838.7046,-130.5 838.7046,-158.5 942.5269,-158.5 942.5269,-130.5 838.7046,-130.5"/>
<text text-anchor="start" x="846.7046" y="-146.5" font-family="Helvetica,sans-Serif" font-size="10.00" fill="#000000">MeetingClient/types</text>
<text text-anchor="middle" x="890.6157" y="-136.5" font-family="Helvetica,sans-Serif" font-size="10.00" fill="#000000">/MeetingTypes.hxx</text>
</a>
</g>
</g>
<!-- Node5&#45;&gt;Node12 -->
<g id="edge12" class="edge">
<title>Node5&#45;&gt;Node12</title>
<path fill="none" stroke="#191970" d="M739.1881,-268.1422C804.7884,-265.0992 922.4176,-255.3081 948.6157,-224 964.8516,-204.5973 942.8976,-181.0408 921.5027,-164.6281"/>
<polygon fill="#191970" stroke="#191970" points="923.5491,-161.7886 913.4111,-158.7111 919.4172,-167.439 923.5491,-161.7886"/>
</g>
<!-- Node18 -->
<g id="node19" class="node">
<title>Node18</title>
<g id="a_node19"><a xlink:href="_conference_attribute_definitions_8hxx.html" target="_top" xlink:title=" ">
<polygon fill="none" stroke="#000000" points="753.8057,-195.5 753.8057,-223.5 885.4258,-223.5 885.4258,-195.5 753.8057,-195.5"/>
<text text-anchor="start" x="761.8057" y="-211.5" font-family="Helvetica,sans-Serif" font-size="10.00" fill="#000000">MeetingClient/Conference</text>
<text text-anchor="middle" x="819.6157" y="-201.5" font-family="Helvetica,sans-Serif" font-size="10.00" fill="#000000">AttributeDefinitions.hxx</text>
</a>
</g>
</g>
<!-- Node5&#45;&gt;Node18 -->
<g id="edge18" class="edge">
<title>Node5&#45;&gt;Node18</title>
<path fill="none" stroke="#191970" d="M713.6005,-260.3873C731.4091,-251.8392 758.5752,-238.7995 780.9487,-228.0602"/>
<polygon fill="#191970" stroke="#191970" points="782.702,-231.101 790.2026,-223.6183 779.6728,-224.7903 782.702,-231.101"/>
</g>
<!-- Node19 -->
<g id="node20" class="node">
<title>Node19</title>
<g id="a_node20"><a xlink:href="_meeting_session_parameters_8hxx.html" target="_top" xlink:title=" ">
<polygon fill="none" stroke="#000000" points="585.0791,-195.5 585.0791,-223.5 736.1523,-223.5 736.1523,-195.5 585.0791,-195.5"/>
<text text-anchor="start" x="593.0791" y="-211.5" font-family="Helvetica,sans-Serif" font-size="10.00" fill="#000000">MeetingClient/MeetingSession</text>
<text text-anchor="middle" x="660.6157" y="-201.5" font-family="Helvetica,sans-Serif" font-size="10.00" fill="#000000">Parameters.hxx</text>
</a>
</g>
</g>
<!-- Node5&#45;&gt;Node19 -->
<g id="edge19" class="edge">
<title>Node5&#45;&gt;Node19</title>
<path fill="none" stroke="#191970" d="M689.4519,-260.3873C685.2848,-253.0337 679.2342,-242.3561 673.7503,-232.6786"/>
<polygon fill="#191970" stroke="#191970" points="676.7213,-230.8223 668.7461,-223.8477 670.6312,-234.2735 676.7213,-230.8223"/>
</g>
<!-- Node13 -->
<g id="node14" class="node">
<title>Node13</title>
<g id="a_node14"><a xlink:href="_common_data_types_8hxx.html" target="_top" xlink:title=" ">
<polygon fill="none" stroke="#000000" points="851.8696,-65.5 851.8696,-93.5 977.3618,-93.5 977.3618,-65.5 851.8696,-65.5"/>
<text text-anchor="start" x="859.8696" y="-81.5" font-family="Helvetica,sans-Serif" font-size="10.00" fill="#000000">MeetingClient/types</text>
<text text-anchor="middle" x="914.6157" y="-71.5" font-family="Helvetica,sans-Serif" font-size="10.00" fill="#000000">/CommonDataTypes.hxx</text>
</a>
</g>
</g>
<!-- Node12&#45;&gt;Node13 -->
<g id="edge13" class="edge">
<title>Node12&#45;&gt;Node13</title>
<path fill="none" stroke="#191970" d="M895.8234,-130.396C898.7797,-122.3893 902.5561,-112.1616 905.947,-102.9778"/>
<polygon fill="#191970" stroke="#191970" points="909.2378,-104.1698 909.4182,-93.5765 902.6711,-101.7451 909.2378,-104.1698"/>
</g>
<!-- Node16 -->
<g id="node17" class="node">
<title>Node16</title>
<g id="a_node17"><a xlink:href="strong__identity_8hxx.html" target="_top" xlink:title=" ">
<polygon fill="none" stroke="#000000" points="732.9058,-65.5 732.9058,-93.5 834.3257,-93.5 834.3257,-65.5 732.9058,-65.5"/>
<text text-anchor="start" x="740.9058" y="-81.5" font-family="Helvetica,sans-Serif" font-size="10.00" fill="#000000">MeetingClient/utils</text>
<text text-anchor="middle" x="783.6157" y="-71.5" font-family="Helvetica,sans-Serif" font-size="10.00" fill="#000000">/strong_identity.hxx</text>
</a>
</g>
</g>
<!-- Node12&#45;&gt;Node16 -->
<g id="edge16" class="edge">
<title>Node12&#45;&gt;Node16</title>
<path fill="none" stroke="#191970" d="M867.3983,-130.396C852.2551,-121.1968 832.2855,-109.0658 815.641,-98.9546"/>
<polygon fill="#191970" stroke="#191970" points="817.1516,-95.7771 806.7878,-93.5765 813.5173,-101.7597 817.1516,-95.7771"/>
</g>
<!-- Node14 -->
<g id="node15" class="node">
<title>Node14</title>
<g id="a_node15"><a xlink:title=" ">
<polygon fill="none" stroke="#bfbfbf" points="984.3892,-5.5 984.3892,-23.5 1024.8423,-23.5 1024.8423,-5.5 984.3892,-5.5"/>
<text text-anchor="middle" x="1004.6157" y="-11.5" font-family="Helvetica,sans-Serif" font-size="10.00" fill="#000000">string</text>
</a>
</g>
</g>
<!-- Node13&#45;&gt;Node14 -->
<g id="edge14" class="edge">
<title>Node13&#45;&gt;Node14</title>
<path fill="none" stroke="#191970" d="M934.1444,-65.396C948.8381,-54.7838 968.9343,-40.2699 983.9071,-29.4562"/>
<polygon fill="#191970" stroke="#191970" points="985.9937,-32.2666 992.0513,-23.5743 981.8953,-26.5919 985.9937,-32.2666"/>
</g>
<!-- Node15 -->
<g id="node16" class="node">
<title>Node15</title>
<g id="a_node16"><a xlink:title=" ">
<polygon fill="none" stroke="#bfbfbf" points="863.8203,-5.5 863.8203,-23.5 965.4111,-23.5 965.4111,-5.5 863.8203,-5.5"/>
<text text-anchor="middle" x="914.6157" y="-11.5" font-family="Helvetica,sans-Serif" font-size="10.00" fill="#000000">CommonTypes.hxx</text>
</a>
</g>
</g>
<!-- Node13&#45;&gt;Node15 -->
<g id="edge15" class="edge">
<title>Node13&#45;&gt;Node15</title>
<path fill="none" stroke="#191970" d="M914.6157,-65.396C914.6157,-56.1723 914.6157,-44.0011 914.6157,-33.8738"/>
<polygon fill="#191970" stroke="#191970" points="918.1158,-33.5743 914.6157,-23.5743 911.1158,-33.5743 918.1158,-33.5743"/>
</g>
<!-- Node17 -->
<g id="node18" class="node">
<title>Node17</title>
<g id="a_node18"><a xlink:title=" ">
<polygon fill="none" stroke="#bfbfbf" points="731.4165,-.5 731.4165,-28.5 835.8149,-28.5 835.8149,-.5 731.4165,-.5"/>
<text text-anchor="start" x="739.4165" y="-16.5" font-family="Helvetica,sans-Serif" font-size="10.00" fill="#000000">boost/serialization</text>
<text text-anchor="middle" x="783.6157" y="-6.5" font-family="Helvetica,sans-Serif" font-size="10.00" fill="#000000">/strong_typedef.hpp</text>
</a>
</g>
</g>
<!-- Node16&#45;&gt;Node17 -->
<g id="edge17" class="edge">
<title>Node16&#45;&gt;Node17</title>
<path fill="none" stroke="#191970" d="M783.6157,-65.396C783.6157,-57.6448 783.6157,-47.8122 783.6157,-38.8601"/>
<polygon fill="#191970" stroke="#191970" points="787.1158,-38.5765 783.6157,-28.5765 780.1158,-38.5765 787.1158,-38.5765"/>
</g>
<!-- Node19&#45;&gt;Node12 -->
<g id="edge20" class="edge">
<title>Node19&#45;&gt;Node12</title>
<path fill="none" stroke="#191970" d="M710.2391,-195.476C745.6369,-185.4723 793.4092,-171.9714 830.8973,-161.3769"/>
<polygon fill="#191970" stroke="#191970" points="832.0136,-164.6986 840.6848,-158.6109 830.1098,-157.9625 832.0136,-164.6986"/>
</g>
<!-- Node20 -->
<g id="node21" class="node">
<title>Node20</title>
<g id="a_node21"><a xlink:title=" ">
<polygon fill="none" stroke="#bfbfbf" points="549.0518,-135.5 549.0518,-153.5 606.1797,-153.5 606.1797,-135.5 549.0518,-135.5"/>
<text text-anchor="middle" x="577.6157" y="-141.5" font-family="Helvetica,sans-Serif" font-size="10.00" fill="#000000">algorithm</text>
</a>
</g>
</g>
<!-- Node19&#45;&gt;Node20 -->
<g id="edge21" class="edge">
<title>Node19&#45;&gt;Node20</title>
<path fill="none" stroke="#191970" d="M642.606,-195.396C629.1817,-184.883 610.8679,-170.5408 597.102,-159.7603"/>
<polygon fill="#191970" stroke="#191970" points="599.234,-156.9844 589.2029,-153.5743 594.918,-162.4956 599.234,-156.9844"/>
</g>
<!-- Node21 -->
<g id="node22" class="node">
<title>Node21</title>
<g id="a_node22"><a xlink:title=" ">
<polygon fill="none" stroke="#bfbfbf" points="623.7119,-135.5 623.7119,-153.5 697.5195,-153.5 697.5195,-135.5 623.7119,-135.5"/>
<text text-anchor="middle" x="660.6157" y="-141.5" font-family="Helvetica,sans-Serif" font-size="10.00" fill="#000000">Printable.hxx</text>
</a>
</g>
</g>
<!-- Node19&#45;&gt;Node21 -->
<g id="edge22" class="edge">
<title>Node19&#45;&gt;Node21</title>
<path fill="none" stroke="#191970" d="M660.6157,-195.396C660.6157,-186.1723 660.6157,-174.0011 660.6157,-163.8738"/>
<polygon fill="#191970" stroke="#191970" points="664.1158,-163.5743 660.6157,-153.5743 657.1158,-163.5743 664.1158,-163.5743"/>
</g>
<!-- Node22 -->
<g id="node23" class="node">
<title>Node22</title>
<g id="a_node23"><a xlink:title=" ">
<polygon fill="none" stroke="#bfbfbf" points="715.0962,-135.5 715.0962,-153.5 796.1353,-153.5 796.1353,-135.5 715.0962,-135.5"/>
<text text-anchor="middle" x="755.6157" y="-141.5" font-family="Helvetica,sans-Serif" font-size="10.00" fill="#000000">VoIPClient.hxx</text>
</a>
</g>
</g>
<!-- Node19&#45;&gt;Node22 -->
<g id="edge23" class="edge">
<title>Node19&#45;&gt;Node22</title>
<path fill="none" stroke="#191970" d="M681.2293,-195.396C696.7394,-184.7838 717.952,-170.2699 733.7567,-159.4562"/>
<polygon fill="#191970" stroke="#191970" points="736.0766,-162.1098 742.3533,-153.5743 732.1238,-156.3326 736.0766,-162.1098"/>
</g>
<!-- Node23&#45;&gt;Node2 -->
<g id="edge28" class="edge">
<title>Node23&#45;&gt;Node2</title>
<path fill="none" stroke="#191970" d="M1009.6762,-380.4374C962.2728,-371.5524 888.4012,-357.4238 824.6157,-344 819.6564,-342.9563 814.4881,-341.8375 809.3332,-340.7012"/>
<polygon fill="#191970" stroke="#191970" points="810.017,-337.2678 799.4952,-338.5096 808.4949,-344.1003 810.017,-337.2678"/>
</g>
<!-- Node23&#45;&gt;Node3 -->
<g id="edge33" class="edge">
<title>Node23&#45;&gt;Node3</title>
<path fill="none" stroke="#191970" d="M1035.3783,-380.3873C1013.0193,-371.619 978.6092,-358.1249 950.8405,-347.2352"/>
<polygon fill="#191970" stroke="#191970" points="951.9136,-343.8966 941.326,-343.504 949.3579,-350.4134 951.9136,-343.8966"/>
</g>
<!-- Node23&#45;&gt;Node14 -->
<g id="edge32" class="edge">
<title>Node23&#45;&gt;Node14</title>
<path fill="none" stroke="#191970" d="M1050.1407,-380.4497C1042.4224,-371.7399 1031.2477,-357.8804 1024.6157,-344 1009.8842,-313.1676 1005.6157,-303.671 1005.6157,-269.5 1005.6157,-269.5 1005.6157,-269.5 1005.6157,-144.5 1005.6157,-105.1592 1005.1521,-59.1237 1004.8562,-33.7482"/>
<polygon fill="#191970" stroke="#191970" points="1008.3548,-33.5983 1004.7344,-23.6412 1001.3553,-33.6827 1008.3548,-33.5983"/>
</g>
<!-- Node24 -->
<g id="node25" class="node">
<title>Node24</title>
<g id="a_node25"><a xlink:title=" ">
<polygon fill="none" stroke="#bfbfbf" points="1034.0913,-320.5 1034.0913,-338.5 1115.1401,-338.5 1115.1401,-320.5 1034.0913,-320.5"/>
<text text-anchor="middle" x="1074.6157" y="-326.5" font-family="Helvetica,sans-Serif" font-size="10.00" fill="#000000">boost/asio.hpp</text>
</a>
</g>
</g>
<!-- Node23&#45;&gt;Node24 -->
<g id="edge26" class="edge">
<title>Node23&#45;&gt;Node24</title>
<path fill="none" stroke="#191970" d="M1061.0458,-380.3873C1063.3012,-371.9293 1066.7293,-359.074 1069.5755,-348.4007"/>
<polygon fill="#191970" stroke="#191970" points="1072.9679,-349.2627 1072.1628,-338.6985 1066.2043,-347.459 1072.9679,-349.2627"/>
</g>
<!-- Node25 -->
<g id="node26" class="node">
<title>Node25</title>
<g id="a_node26"><a xlink:title=" ">
<polygon fill="none" stroke="#bfbfbf" points="1132.9116,-315.5 1132.9116,-343.5 1242.3198,-343.5 1242.3198,-315.5 1132.9116,-315.5"/>
<text text-anchor="start" x="1140.9116" y="-331.5" font-family="Helvetica,sans-Serif" font-size="10.00" fill="#000000">boost/enable_shared</text>
<text text-anchor="middle" x="1187.6157" y="-321.5" font-family="Helvetica,sans-Serif" font-size="10.00" fill="#000000">_from_this.hpp</text>
</a>
</g>
</g>
<!-- Node23&#45;&gt;Node25 -->
<g id="edge27" class="edge">
<title>Node23&#45;&gt;Node25</title>
<path fill="none" stroke="#191970" d="M1078.208,-380.3873C1096.6686,-371.801 1124.8724,-358.683 1148.0203,-347.9165"/>
<polygon fill="#191970" stroke="#191970" points="1149.6703,-351.0092 1157.2614,-343.6183 1146.7181,-344.6621 1149.6703,-351.0092"/>
</g>
<!-- Node26 -->
<g id="node27" class="node">
<title>Node26</title>
<g id="a_node27"><a xlink:title=" ">
<polygon fill="none" stroke="#bfbfbf" points="1260.3057,-320.5 1260.3057,-338.5 1376.9258,-338.5 1376.9258,-320.5 1260.3057,-320.5"/>
<text text-anchor="middle" x="1318.6157" y="-326.5" font-family="Helvetica,sans-Serif" font-size="10.00" fill="#000000">boost/thread/locks.hpp</text>
</a>
</g>
</g>
<!-- Node23&#45;&gt;Node26 -->
<g id="edge29" class="edge">
<title>Node23&#45;&gt;Node26</title>
<path fill="none" stroke="#191970" d="M1097.8219,-380.4524C1143.7425,-369.8554 1219.852,-352.2916 1269.6231,-340.806"/>
<polygon fill="#191970" stroke="#191970" points="1270.5595,-344.182 1279.5163,-338.5229 1268.9854,-337.3612 1270.5595,-344.182"/>
</g>
<!-- Node27 -->
<g id="node28" class="node">
<title>Node27</title>
<g id="a_node28"><a xlink:title=" ">
<polygon fill="none" stroke="#bfbfbf" points="1395.1406,-315.5 1395.1406,-343.5 1500.0908,-343.5 1500.0908,-315.5 1395.1406,-315.5"/>
<text text-anchor="start" x="1403.1406" y="-331.5" font-family="Helvetica,sans-Serif" font-size="10.00" fill="#000000">boost/thread/shared</text>
<text text-anchor="middle" x="1447.6157" y="-321.5" font-family="Helvetica,sans-Serif" font-size="10.00" fill="#000000">_mutex.hpp</text>
</a>
</g>
</g>
<!-- Node23&#45;&gt;Node27 -->
<g id="edge30" class="edge">
<title>Node23&#45;&gt;Node27</title>
<path fill="none" stroke="#191970" d="M1127.4927,-381.7737C1191.6038,-374.1596 1289.9978,-361.4003 1384.863,-344.0313"/>
<polygon fill="#191970" stroke="#191970" points="1385.7237,-347.4315 1394.9197,-342.17 1384.4497,-340.5484 1385.7237,-347.4315"/>
</g>
<!-- Node28 -->
<g id="node29" class="node">
<title>Node28</title>
<g id="a_node29"><a xlink:title=" ">
<polygon fill="none" stroke="#bfbfbf" points="1518.5542,-320.5 1518.5542,-338.5 1570.6772,-338.5 1570.6772,-320.5 1518.5542,-320.5"/>
<text text-anchor="middle" x="1544.6157" y="-326.5" font-family="Helvetica,sans-Serif" font-size="10.00" fill="#000000">ostream</text>
</a>
</g>
</g>
<!-- Node23&#45;&gt;Node28 -->
<g id="edge31" class="edge">
<title>Node23&#45;&gt;Node28</title>
<path fill="none" stroke="#191970" d="M1127.8579,-384.8944C1235.594,-377.3236 1438.2858,-361.3476 1508.6157,-344 1510.934,-343.4282 1513.3003,-342.7368 1515.6569,-341.97"/>
<polygon fill="#191970" stroke="#191970" points="1516.9497,-345.224 1525.1418,-338.5054 1514.548,-338.6489 1516.9497,-345.224"/>
</g>
</g>
</svg>
        <g id="navigator" transform="translate(0 0)" fill="#404254">
                <rect fill="#f2f5e9" fill-opacity="0.5" stroke="#606060" stroke-width=".5" x="0" y="0" width="60" height="60"/>
                <use id="zoomplus" xlink:href="#zoomPlus" x="17" y="9" onmousedown="handleZoom(evt,'in')"/>
                <use id="zoomminus" xlink:href="#zoomMin" x="42" y="9" onmousedown="handleZoom(evt,'out')"/>
                <use id="reset" xlink:href="#resetDef" x="30" y="36" onmousedown="handleReset()"/>
                <g id="arrowUp" xlink:href="#dirArrow" transform="translate(30 24)" onmousedown="handlePan(0,-1)">
                  <use xlink:href="#rim" fill="#404040">
                        <set attributeName="fill" to="#808080" begin="arrowUp.mouseover" end="arrowUp.mouseout"/>
                  </use>
                  <path fill="none" stroke="white" stroke-width="1.5" d="M0,-3.0v7 M-2.5,-0.5L0,-3.0L2.5,-0.5"/>
                </g>
                <g id="arrowRight" xlink:href="#dirArrow" transform="rotate(90) translate(36 -43)" onmousedown="handlePan(1,0)">
                  <use xlink:href="#rim" fill="#404040">
                        <set attributeName="fill" to="#808080" begin="arrowRight.mouseover" end="arrowRight.mouseout"/>
                  </use>
                  <path fill="none" stroke="white" stroke-width="1.5" d="M0,-3.0v7 M-2.5,-0.5L0,-3.0L2.5,-0.5"/>
                </g>
                <g id="arrowDown" xlink:href="#dirArrow" transform="rotate(180) translate(-30 -48)" onmousedown="handlePan(0,1)">
                  <use xlink:href="#rim" fill="#404040">
                        <set attributeName="fill" to="#808080" begin="arrowDown.mouseover" end="arrowDown.mouseout"/>
                  </use>
                  <path fill="none" stroke="white" stroke-width="1.5" d="M0,-3.0v7 M-2.5,-0.5L0,-3.0L2.5,-0.5"/>
                </g>
                <g id="arrowLeft" xlink:href="#dirArrow" transform="rotate(270) translate(-36 17)" onmousedown="handlePan(-1,0)">
                  <use xlink:href="#rim" fill="#404040">
                        <set attributeName="fill" to="#808080" begin="arrowLeft.mouseover" end="arrowLeft.mouseout"/>
                  </use>
                  <path fill="none" stroke="white" stroke-width="1.5" d="M0,-3.0v7 M-2.5,-0.5L0,-3.0L2.5,-0.5"/>
                </g>
        </g>
        <svg viewBox="0 0 15 15" width="100%" height="30px" preserveAspectRatio="xMaxYMin meet">
         <g id="arrow_out" transform="scale(0.3 0.3)">
          <a xlink:href="_network_inspector_controller_8cxx__incl_org.svg" target="_base">
           <rect id="button" ry="5" rx="5" y="6" x="6" height="38" width="38"
                fill="#f2f5e9" fill-opacity="0.5" stroke="#606060" stroke-width="1.0"/>
           <path id="arrow"
             d="M 11.500037,31.436501 C 11.940474,20.09759 22.043105,11.32322 32.158766,21.979434 L 37.068811,17.246167 C 37.068811,17.246167 37.088388,32 37.088388,32 L 22.160133,31.978069 C 22.160133,31.978069 26.997745,27.140456 26.997745,27.140456 C 18.528582,18.264221 13.291696,25.230495 11.500037,31.436501 z"
             style="fill:#404040;"/>
          </a>
         </g>
        </svg>
</svg>
