<?xml version="1.0" encoding="UTF-8" standalone="no"?>
<!DOCTYPE svg PUBLIC "-//W3C//DTD SVG 1.1//EN"
 "http://www.w3.org/Graphics/SVG/1.1/DTD/svg11.dtd">
<!-- Generated by graphviz version 2.40.1 (20161225.0304)
 -->
<!-- Title: /Users/oskryp/Projects/freesee&#45;native&#45;client/libs/fcc_sdk/engine/meetingclient/include/MeetingClient/NetworkInspectorController.hxx Pages: 1 -->
<svg width="1273pt" height="502pt"
 viewBox="0.00 0.00 1273.39 502.00" xmlns="http://www.w3.org/2000/svg" xmlns:xlink="http://www.w3.org/1999/xlink">
<g id="graph0" class="graph" transform="scale(1 1) rotate(0) translate(4 498)">
<title>/Users/oskryp/Projects/freesee&#45;native&#45;client/libs/fcc_sdk/engine/meetingclient/include/MeetingClient/NetworkInspectorController.hxx</title>
<!-- Node0 -->
<g id="node1" class="node">
<title>Node0</title>
<g id="a_node1"><a xlink:title=" ">
<polygon fill="#bfbfbf" stroke="#000000" points="465.1997,-435.5 465.1997,-493.5 660.1743,-493.5 660.1743,-435.5 465.1997,-435.5"/>
<text text-anchor="start" x="473.1997" y="-481.5" font-family="Helvetica,sans-Serif" font-size="10.00" fill="#000000">/Users/oskryp/Projects</text>
<text text-anchor="start" x="473.1997" y="-471.5" font-family="Helvetica,sans-Serif" font-size="10.00" fill="#000000">/freesee&#45;native&#45;client</text>
<text text-anchor="start" x="473.1997" y="-461.5" font-family="Helvetica,sans-Serif" font-size="10.00" fill="#000000">/libs/fcc_sdk/engine/meetingclient</text>
<text text-anchor="start" x="473.1997" y="-451.5" font-family="Helvetica,sans-Serif" font-size="10.00" fill="#000000">/include/MeetingClient/NetworkInspector</text>
<text text-anchor="middle" x="562.687" y="-441.5" font-family="Helvetica,sans-Serif" font-size="10.00" fill="#000000">Controller.hxx</text>
</a>
</g>
</g>
<!-- Node1 -->
<g id="node2" class="node">
<title>Node1</title>
<g id="a_node2"><a xlink:title=" ">
<polygon fill="none" stroke="#bfbfbf" points="399.7046,-320.5 399.7046,-338.5 509.6694,-338.5 509.6694,-320.5 399.7046,-320.5"/>
<text text-anchor="middle" x="454.687" y="-326.5" font-family="Helvetica,sans-Serif" font-size="10.00" fill="#000000">boost/shared_ptr.hpp</text>
</a>
</g>
</g>
<!-- Node0&#45;&gt;Node1 -->
<g id="edge1" class="edge">
<title>Node0&#45;&gt;Node1</title>
<path fill="none" stroke="#191970" d="M539.2526,-435.207C517.5644,-408.0967 486.0678,-368.7259 468.2685,-346.4768"/>
<polygon fill="#191970" stroke="#191970" points="470.9394,-344.2127 461.9593,-338.5904 465.4733,-348.5856 470.9394,-344.2127"/>
</g>
<!-- Node2 -->
<g id="node3" class="node">
<title>Node2</title>
<g id="a_node3"><a xlink:href="_i_network_inspector_notifications_delegate_8hxx.html" target="_top" xlink:title=" ">
<polygon fill="none" stroke="#000000" points="527.4902,-315.5 527.4902,-343.5 671.8838,-343.5 671.8838,-315.5 527.4902,-315.5"/>
<text text-anchor="start" x="535.4902" y="-331.5" font-family="Helvetica,sans-Serif" font-size="10.00" fill="#000000">Delegates/INetworkInspector</text>
<text text-anchor="middle" x="599.687" y="-321.5" font-family="Helvetica,sans-Serif" font-size="10.00" fill="#000000">NotificationsDelegate.hxx</text>
</a>
</g>
</g>
<!-- Node0&#45;&gt;Node2 -->
<g id="edge2" class="edge">
<title>Node0&#45;&gt;Node2</title>
<path fill="none" stroke="#191970" d="M570.7155,-435.207C577.3942,-410.8388 586.7878,-376.5648 593.0481,-353.723"/>
<polygon fill="#191970" stroke="#191970" points="596.4957,-354.3851 595.7635,-343.8156 589.7446,-352.5347 596.4957,-354.3851"/>
</g>
<!-- Node3 -->
<g id="node4" class="node">
<title>Node3</title>
<g id="a_node4"><a xlink:title=" ">
<polygon fill="none" stroke="#bfbfbf" points="370.8867,-260.5 370.8867,-278.5 482.4873,-278.5 482.4873,-260.5 370.8867,-260.5"/>
<text text-anchor="middle" x="426.687" y="-266.5" font-family="Helvetica,sans-Serif" font-size="10.00" fill="#000000">NetworkInspector.hxx</text>
</a>
</g>
</g>
<!-- Node0&#45;&gt;Node3 -->
<g id="edge23" class="edge">
<title>Node0&#45;&gt;Node3</title>
<path fill="none" stroke="#191970" d="M492.8451,-435.2989C455.2311,-415.5235 412.2311,-385.3985 390.687,-344 380.5037,-324.432 395.491,-301.533 409.1158,-286.3402"/>
<polygon fill="#191970" stroke="#191970" points="411.9851,-288.4046 416.3765,-278.7627 406.9308,-283.5617 411.9851,-288.4046"/>
</g>
<!-- Node22 -->
<g id="node23" class="node">
<title>Node22</title>
<g id="a_node23"><a xlink:href="_network_inspector_client_8hxx.html" target="_top" xlink:title=" ">
<polygon fill="none" stroke="#000000" points="808.8301,-380.5 808.8301,-398.5 946.5439,-398.5 946.5439,-380.5 808.8301,-380.5"/>
<text text-anchor="middle" x="877.687" y="-386.5" font-family="Helvetica,sans-Serif" font-size="10.00" fill="#000000">NetworkInspectorClient.hxx</text>
</a>
</g>
</g>
<!-- Node0&#45;&gt;Node22 -->
<g id="edge24" class="edge">
<title>Node0&#45;&gt;Node22</title>
<path fill="none" stroke="#191970" d="M660.1978,-441.2832C716.6402,-427.8445 785.167,-411.5286 830.023,-400.8486"/>
<polygon fill="#191970" stroke="#191970" points="830.8614,-404.2469 839.7788,-398.5258 829.24,-397.4372 830.8614,-404.2469"/>
</g>
<!-- Node2&#45;&gt;Node3 -->
<g id="edge3" class="edge">
<title>Node2&#45;&gt;Node3</title>
<path fill="none" stroke="#191970" d="M559.1262,-315.4327C529.7343,-305.2389 490.3735,-291.5878 462.2153,-281.822"/>
<polygon fill="#191970" stroke="#191970" points="463.3521,-278.5118 452.7573,-278.5417 461.0584,-285.1253 463.3521,-278.5118"/>
</g>
<!-- Node4 -->
<g id="node5" class="node">
<title>Node4</title>
<g id="a_node5"><a xlink:href="_notifications_8hxx.html" target="_top" xlink:title=" ">
<polygon fill="none" stroke="#000000" points="555.2832,-260.5 555.2832,-278.5 644.0908,-278.5 644.0908,-260.5 555.2832,-260.5"/>
<text text-anchor="middle" x="599.687" y="-266.5" font-family="Helvetica,sans-Serif" font-size="10.00" fill="#000000">Notifications.hxx</text>
</a>
</g>
</g>
<!-- Node2&#45;&gt;Node4 -->
<g id="edge4" class="edge">
<title>Node2&#45;&gt;Node4</title>
<path fill="none" stroke="#191970" d="M599.687,-315.2808C599.687,-307.3776 599.687,-297.4316 599.687,-288.8308"/>
<polygon fill="#191970" stroke="#191970" points="603.1871,-288.5842 599.687,-278.5842 596.1871,-288.5842 603.1871,-288.5842"/>
</g>
<!-- Node5 -->
<g id="node6" class="node">
<title>Node5</title>
<g id="a_node6"><a xlink:title=" ">
<polygon fill="none" stroke="#bfbfbf" points="393.0469,-195.5 393.0469,-223.5 506.3271,-223.5 506.3271,-195.5 393.0469,-195.5"/>
<text text-anchor="start" x="401.0469" y="-211.5" font-family="Helvetica,sans-Serif" font-size="10.00" fill="#000000">boost/date_time/posix</text>
<text text-anchor="middle" x="449.687" y="-201.5" font-family="Helvetica,sans-Serif" font-size="10.00" fill="#000000">_time/posix_time.hpp</text>
</a>
</g>
</g>
<!-- Node4&#45;&gt;Node5 -->
<g id="edge5" class="edge">
<title>Node4&#45;&gt;Node5</title>
<path fill="none" stroke="#191970" d="M576.9052,-260.3873C554.9846,-251.619 521.2493,-238.1249 494.025,-227.2352"/>
<polygon fill="#191970" stroke="#191970" points="495.2817,-223.9683 484.6971,-223.504 492.682,-230.4677 495.2817,-223.9683"/>
</g>
<!-- Node6 -->
<g id="node7" class="node">
<title>Node6</title>
<g id="a_node7"><a xlink:title=" ">
<polygon fill="none" stroke="#bfbfbf" points="842.9604,-200.5 842.9604,-218.5 878.4136,-218.5 878.4136,-200.5 842.9604,-200.5"/>
<text text-anchor="middle" x="860.687" y="-206.5" font-family="Helvetica,sans-Serif" font-size="10.00" fill="#000000">map</text>
</a>
</g>
</g>
<!-- Node4&#45;&gt;Node6 -->
<g id="edge6" class="edge">
<title>Node4&#45;&gt;Node6</title>
<path fill="none" stroke="#191970" d="M644.297,-264.8711C692.178,-258.9793 769.95,-246.7214 833.687,-224 834.5641,-223.6873 835.4474,-223.3497 836.332,-222.9919"/>
<polygon fill="#191970" stroke="#191970" points="838.0792,-226.0378 845.6344,-218.6103 835.0963,-219.7051 838.0792,-226.0378"/>
</g>
<!-- Node7 -->
<g id="node8" class="node">
<title>Node7</title>
<g id="a_node8"><a xlink:title=" ">
<polygon fill="none" stroke="#bfbfbf" points="935.0713,-200.5 935.0713,-218.5 978.3027,-218.5 978.3027,-200.5 935.0713,-200.5"/>
<text text-anchor="middle" x="956.687" y="-206.5" font-family="Helvetica,sans-Serif" font-size="10.00" fill="#000000">vector</text>
</a>
</g>
</g>
<!-- Node4&#45;&gt;Node7 -->
<g id="edge7" class="edge">
<title>Node4&#45;&gt;Node7</title>
<path fill="none" stroke="#191970" d="M644.2392,-266.605C706.8544,-261.7689 824.0487,-249.8997 920.687,-224 922.8551,-223.4189 925.0685,-222.7436 927.2787,-222.0083"/>
<polygon fill="#191970" stroke="#191970" points="928.6205,-225.2441 936.798,-218.5077 926.2044,-218.6743 928.6205,-225.2441"/>
</g>
<!-- Node8 -->
<g id="node9" class="node">
<title>Node8</title>
<g id="a_node9"><a xlink:title=" ">
<polygon fill="none" stroke="#bfbfbf" points="0,-200.5 0,-218.5 89.374,-218.5 89.374,-200.5 0,-200.5"/>
<text text-anchor="middle" x="44.687" y="-206.5" font-family="Helvetica,sans-Serif" font-size="10.00" fill="#000000">FSSnapshot.hxx</text>
</a>
</g>
</g>
<!-- Node4&#45;&gt;Node8 -->
<g id="edge8" class="edge">
<title>Node4&#45;&gt;Node8</title>
<path fill="none" stroke="#191970" d="M554.9769,-265.5529C434.0639,-254.8647 108.8956,-226.0248 97.687,-224 93.2367,-223.1961 88.6172,-222.1926 84.0436,-221.0912"/>
<polygon fill="#191970" stroke="#191970" points="84.7447,-217.6578 74.1886,-218.5627 83.005,-224.4381 84.7447,-217.6578"/>
</g>
<!-- Node9 -->
<g id="node10" class="node">
<title>Node9</title>
<g id="a_node10"><a xlink:href="macros_8hxx.html" target="_top" xlink:title=" ">
<polygon fill="none" stroke="#000000" points="107.165,-200.5 107.165,-218.5 238.209,-218.5 238.209,-200.5 107.165,-200.5"/>
<text text-anchor="middle" x="172.687" y="-206.5" font-family="Helvetica,sans-Serif" font-size="10.00" fill="#000000">MeetingClient/macros.hxx</text>
</a>
</g>
</g>
<!-- Node4&#45;&gt;Node9 -->
<g id="edge9" class="edge">
<title>Node4&#45;&gt;Node9</title>
<path fill="none" stroke="#191970" d="M555.25,-264.7152C488.1977,-257.2825 357.2389,-241.9363 246.687,-224 240.0884,-222.9294 233.1781,-221.709 226.3428,-220.4412"/>
<polygon fill="#191970" stroke="#191970" points="226.9042,-216.9854 216.4272,-218.5616 225.6004,-223.8629 226.9042,-216.9854"/>
</g>
<!-- Node10 -->
<g id="node11" class="node">
<title>Node10</title>
<g id="a_node11"><a xlink:href="_f_s_base_8hxx.html" target="_top" xlink:title=" ">
<polygon fill="none" stroke="#000000" points="255.9951,-195.5 255.9951,-223.5 375.3789,-223.5 375.3789,-195.5 255.9951,-195.5"/>
<text text-anchor="start" x="263.9951" y="-211.5" font-family="Helvetica,sans-Serif" font-size="10.00" fill="#000000">MeetingClient/transport</text>
<text text-anchor="middle" x="315.687" y="-201.5" font-family="Helvetica,sans-Serif" font-size="10.00" fill="#000000">/FSBase.hxx</text>
</a>
</g>
</g>
<!-- Node4&#45;&gt;Node10 -->
<g id="edge10" class="edge">
<title>Node4&#45;&gt;Node10</title>
<path fill="none" stroke="#191970" d="M556.6491,-260.4669C515.1791,-251.7555 450.3851,-238.1255 385.3963,-224.3598"/>
<polygon fill="#191970" stroke="#191970" points="385.8977,-220.8884 375.3893,-222.2394 384.4466,-227.7363 385.8977,-220.8884"/>
</g>
<!-- Node11 -->
<g id="node12" class="node">
<title>Node11</title>
<g id="a_node12"><a xlink:href="_meeting_types_8hxx.html" target="_top" xlink:title=" ">
<polygon fill="none" stroke="#000000" points="804.7759,-130.5 804.7759,-158.5 908.5981,-158.5 908.5981,-130.5 804.7759,-130.5"/>
<text text-anchor="start" x="812.7759" y="-146.5" font-family="Helvetica,sans-Serif" font-size="10.00" fill="#000000">MeetingClient/types</text>
<text text-anchor="middle" x="856.687" y="-136.5" font-family="Helvetica,sans-Serif" font-size="10.00" fill="#000000">/MeetingTypes.hxx</text>
</a>
</g>
</g>
<!-- Node4&#45;&gt;Node11 -->
<g id="edge11" class="edge">
<title>Node4&#45;&gt;Node11</title>
<path fill="none" stroke="#191970" d="M644.1298,-265.6318C720.9908,-258.4893 872.0678,-242.2806 887.687,-224 901.8287,-207.4487 889.5197,-183.7029 876.4674,-166.4763"/>
<polygon fill="#191970" stroke="#191970" points="879.1172,-164.1866 870.1128,-158.6034 873.6701,-168.5832 879.1172,-164.1866"/>
</g>
<!-- Node17 -->
<g id="node18" class="node">
<title>Node17</title>
<g id="a_node18"><a xlink:href="_conference_attribute_definitions_8hxx.html" target="_top" xlink:title=" ">
<polygon fill="none" stroke="#000000" points="692.877,-195.5 692.877,-223.5 824.4971,-223.5 824.4971,-195.5 692.877,-195.5"/>
<text text-anchor="start" x="700.877" y="-211.5" font-family="Helvetica,sans-Serif" font-size="10.00" fill="#000000">MeetingClient/Conference</text>
<text text-anchor="middle" x="758.687" y="-201.5" font-family="Helvetica,sans-Serif" font-size="10.00" fill="#000000">AttributeDefinitions.hxx</text>
</a>
</g>
</g>
<!-- Node4&#45;&gt;Node17 -->
<g id="edge17" class="edge">
<title>Node4&#45;&gt;Node17</title>
<path fill="none" stroke="#191970" d="M623.8357,-260.3873C647.173,-251.5807 683.1436,-238.007 712.0664,-227.0927"/>
<polygon fill="#191970" stroke="#191970" points="713.456,-230.3093 721.5763,-223.504 710.9846,-223.7601 713.456,-230.3093"/>
</g>
<!-- Node18 -->
<g id="node19" class="node">
<title>Node18</title>
<g id="a_node19"><a xlink:href="_meeting_session_parameters_8hxx.html" target="_top" xlink:title=" ">
<polygon fill="none" stroke="#000000" points="524.1504,-195.5 524.1504,-223.5 675.2236,-223.5 675.2236,-195.5 524.1504,-195.5"/>
<text text-anchor="start" x="532.1504" y="-211.5" font-family="Helvetica,sans-Serif" font-size="10.00" fill="#000000">MeetingClient/MeetingSession</text>
<text text-anchor="middle" x="599.687" y="-201.5" font-family="Helvetica,sans-Serif" font-size="10.00" fill="#000000">Parameters.hxx</text>
</a>
</g>
</g>
<!-- Node4&#45;&gt;Node18 -->
<g id="edge18" class="edge">
<title>Node4&#45;&gt;Node18</title>
<path fill="none" stroke="#191970" d="M599.687,-260.3873C599.687,-253.3369 599.687,-243.2311 599.687,-233.8806"/>
<polygon fill="#191970" stroke="#191970" points="603.1871,-233.8476 599.687,-223.8477 596.1871,-233.8477 603.1871,-233.8476"/>
</g>
<!-- Node12 -->
<g id="node13" class="node">
<title>Node12</title>
<g id="a_node13"><a xlink:href="_common_data_types_8hxx.html" target="_top" xlink:title=" ">
<polygon fill="none" stroke="#000000" points="874.9409,-65.5 874.9409,-93.5 1000.4331,-93.5 1000.4331,-65.5 874.9409,-65.5"/>
<text text-anchor="start" x="882.9409" y="-81.5" font-family="Helvetica,sans-Serif" font-size="10.00" fill="#000000">MeetingClient/types</text>
<text text-anchor="middle" x="937.687" y="-71.5" font-family="Helvetica,sans-Serif" font-size="10.00" fill="#000000">/CommonDataTypes.hxx</text>
</a>
</g>
</g>
<!-- Node11&#45;&gt;Node12 -->
<g id="edge12" class="edge">
<title>Node11&#45;&gt;Node12</title>
<path fill="none" stroke="#191970" d="M874.2628,-130.396C885.3018,-121.5375 899.7287,-109.9604 912.0336,-100.0861"/>
<polygon fill="#191970" stroke="#191970" points="914.5368,-102.565 920.1455,-93.5765 910.1557,-97.1055 914.5368,-102.565"/>
</g>
<!-- Node15 -->
<g id="node16" class="node">
<title>Node15</title>
<g id="a_node16"><a xlink:href="strong__identity_8hxx.html" target="_top" xlink:title=" ">
<polygon fill="none" stroke="#000000" points="755.9771,-65.5 755.9771,-93.5 857.397,-93.5 857.397,-65.5 755.9771,-65.5"/>
<text text-anchor="start" x="763.9771" y="-81.5" font-family="Helvetica,sans-Serif" font-size="10.00" fill="#000000">MeetingClient/utils</text>
<text text-anchor="middle" x="806.687" y="-71.5" font-family="Helvetica,sans-Serif" font-size="10.00" fill="#000000">/strong_identity.hxx</text>
</a>
</g>
</g>
<!-- Node11&#45;&gt;Node15 -->
<g id="edge15" class="edge">
<title>Node11&#45;&gt;Node15</title>
<path fill="none" stroke="#191970" d="M845.8378,-130.396C839.3512,-121.9634 830.9695,-111.0673 823.6267,-101.5216"/>
<polygon fill="#191970" stroke="#191970" points="826.3864,-99.3688 817.5151,-93.5765 820.838,-103.6368 826.3864,-99.3688"/>
</g>
<!-- Node13 -->
<g id="node14" class="node">
<title>Node13</title>
<g id="a_node14"><a xlink:title=" ">
<polygon fill="none" stroke="#bfbfbf" points="1007.4604,-5.5 1007.4604,-23.5 1047.9136,-23.5 1047.9136,-5.5 1007.4604,-5.5"/>
<text text-anchor="middle" x="1027.687" y="-11.5" font-family="Helvetica,sans-Serif" font-size="10.00" fill="#000000">string</text>
</a>
</g>
</g>
<!-- Node12&#45;&gt;Node13 -->
<g id="edge13" class="edge">
<title>Node12&#45;&gt;Node13</title>
<path fill="none" stroke="#191970" d="M957.2157,-65.396C971.9094,-54.7838 992.0056,-40.2699 1006.9784,-29.4562"/>
<polygon fill="#191970" stroke="#191970" points="1009.065,-32.2666 1015.1226,-23.5743 1004.9665,-26.5919 1009.065,-32.2666"/>
</g>
<!-- Node14 -->
<g id="node15" class="node">
<title>Node14</title>
<g id="a_node15"><a xlink:title=" ">
<polygon fill="none" stroke="#bfbfbf" points="886.8916,-5.5 886.8916,-23.5 988.4824,-23.5 988.4824,-5.5 886.8916,-5.5"/>
<text text-anchor="middle" x="937.687" y="-11.5" font-family="Helvetica,sans-Serif" font-size="10.00" fill="#000000">CommonTypes.hxx</text>
</a>
</g>
</g>
<!-- Node12&#45;&gt;Node14 -->
<g id="edge14" class="edge">
<title>Node12&#45;&gt;Node14</title>
<path fill="none" stroke="#191970" d="M937.687,-65.396C937.687,-56.1723 937.687,-44.0011 937.687,-33.8738"/>
<polygon fill="#191970" stroke="#191970" points="941.1871,-33.5743 937.687,-23.5743 934.1871,-33.5743 941.1871,-33.5743"/>
</g>
<!-- Node16 -->
<g id="node17" class="node">
<title>Node16</title>
<g id="a_node17"><a xlink:title=" ">
<polygon fill="none" stroke="#bfbfbf" points="754.4878,-.5 754.4878,-28.5 858.8862,-28.5 858.8862,-.5 754.4878,-.5"/>
<text text-anchor="start" x="762.4878" y="-16.5" font-family="Helvetica,sans-Serif" font-size="10.00" fill="#000000">boost/serialization</text>
<text text-anchor="middle" x="806.687" y="-6.5" font-family="Helvetica,sans-Serif" font-size="10.00" fill="#000000">/strong_typedef.hpp</text>
</a>
</g>
</g>
<!-- Node15&#45;&gt;Node16 -->
<g id="edge16" class="edge">
<title>Node15&#45;&gt;Node16</title>
<path fill="none" stroke="#191970" d="M806.687,-65.396C806.687,-57.6448 806.687,-47.8122 806.687,-38.8601"/>
<polygon fill="#191970" stroke="#191970" points="810.1871,-38.5765 806.687,-28.5765 803.1871,-38.5765 810.1871,-38.5765"/>
</g>
<!-- Node18&#45;&gt;Node11 -->
<g id="edge19" class="edge">
<title>Node18&#45;&gt;Node11</title>
<path fill="none" stroke="#191970" d="M655.1358,-195.476C696.1184,-185.1107 751.9458,-170.991 794.4537,-160.2399"/>
<polygon fill="#191970" stroke="#191970" points="795.5693,-163.5681 804.4058,-157.7229 793.8528,-156.7818 795.5693,-163.5681"/>
</g>
<!-- Node19 -->
<g id="node20" class="node">
<title>Node19</title>
<g id="a_node20"><a xlink:title=" ">
<polygon fill="none" stroke="#bfbfbf" points="571.123,-135.5 571.123,-153.5 628.251,-153.5 628.251,-135.5 571.123,-135.5"/>
<text text-anchor="middle" x="599.687" y="-141.5" font-family="Helvetica,sans-Serif" font-size="10.00" fill="#000000">algorithm</text>
</a>
</g>
</g>
<!-- Node18&#45;&gt;Node19 -->
<g id="edge20" class="edge">
<title>Node18&#45;&gt;Node19</title>
<path fill="none" stroke="#191970" d="M599.687,-195.396C599.687,-186.1723 599.687,-174.0011 599.687,-163.8738"/>
<polygon fill="#191970" stroke="#191970" points="603.1871,-163.5743 599.687,-153.5743 596.1871,-163.5743 603.1871,-163.5743"/>
</g>
<!-- Node20 -->
<g id="node21" class="node">
<title>Node20</title>
<g id="a_node21"><a xlink:title=" ">
<polygon fill="none" stroke="#bfbfbf" points="645.7832,-135.5 645.7832,-153.5 719.5908,-153.5 719.5908,-135.5 645.7832,-135.5"/>
<text text-anchor="middle" x="682.687" y="-141.5" font-family="Helvetica,sans-Serif" font-size="10.00" fill="#000000">Printable.hxx</text>
</a>
</g>
</g>
<!-- Node18&#45;&gt;Node20 -->
<g id="edge21" class="edge">
<title>Node18&#45;&gt;Node20</title>
<path fill="none" stroke="#191970" d="M617.6968,-195.396C631.121,-184.883 649.4349,-170.5408 663.2007,-159.7603"/>
<polygon fill="#191970" stroke="#191970" points="665.3847,-162.4956 671.0998,-153.5743 661.0688,-156.9844 665.3847,-162.4956"/>
</g>
<!-- Node21 -->
<g id="node22" class="node">
<title>Node21</title>
<g id="a_node22"><a xlink:title=" ">
<polygon fill="none" stroke="#bfbfbf" points="472.1675,-135.5 472.1675,-153.5 553.2065,-153.5 553.2065,-135.5 472.1675,-135.5"/>
<text text-anchor="middle" x="512.687" y="-141.5" font-family="Helvetica,sans-Serif" font-size="10.00" fill="#000000">VoIPClient.hxx</text>
</a>
</g>
</g>
<!-- Node18&#45;&gt;Node21 -->
<g id="edge22" class="edge">
<title>Node18&#45;&gt;Node21</title>
<path fill="none" stroke="#191970" d="M580.8093,-195.396C566.7381,-184.883 547.5417,-170.5408 533.1124,-159.7603"/>
<polygon fill="#191970" stroke="#191970" points="534.9385,-156.7557 524.8326,-153.5743 530.7488,-162.3635 534.9385,-156.7557"/>
</g>
<!-- Node22&#45;&gt;Node1 -->
<g id="edge27" class="edge">
<title>Node22&#45;&gt;Node1</title>
<path fill="none" stroke="#191970" d="M808.5663,-382.7458C736.057,-375.1922 618.919,-361.6635 518.687,-344 513.2173,-343.0361 507.51,-341.9135 501.8538,-340.7276"/>
<polygon fill="#191970" stroke="#191970" points="502.305,-337.2441 491.7904,-338.5452 500.8214,-344.0851 502.305,-337.2441"/>
</g>
<!-- Node22&#45;&gt;Node2 -->
<g id="edge32" class="edge">
<title>Node22&#45;&gt;Node2</title>
<path fill="none" stroke="#191970" d="M835.7666,-380.4524C793.1593,-371.2566 726.2453,-356.8147 674.5195,-345.6509"/>
<polygon fill="#191970" stroke="#191970" points="675.2316,-342.2241 664.7183,-343.5355 673.7548,-349.0665 675.2316,-342.2241"/>
</g>
<!-- Node22&#45;&gt;Node13 -->
<g id="edge31" class="edge">
<title>Node22&#45;&gt;Node13</title>
<path fill="none" stroke="#191970" d="M916.5129,-380.4622C950.6638,-371.7612 996.8785,-357.9076 1009.687,-344 1032.8359,-318.8647 1028.687,-303.671 1028.687,-269.5 1028.687,-269.5 1028.687,-269.5 1028.687,-144.5 1028.687,-105.1592 1028.2234,-59.1237 1027.9275,-33.7482"/>
<polygon fill="#191970" stroke="#191970" points="1031.4261,-33.5983 1027.8057,-23.6412 1024.4266,-33.6827 1031.4261,-33.5983"/>
</g>
<!-- Node23 -->
<g id="node24" class="node">
<title>Node23</title>
<g id="a_node24"><a xlink:title=" ">
<polygon fill="none" stroke="#bfbfbf" points="1057.1626,-320.5 1057.1626,-338.5 1138.2114,-338.5 1138.2114,-320.5 1057.1626,-320.5"/>
<text text-anchor="middle" x="1097.687" y="-326.5" font-family="Helvetica,sans-Serif" font-size="10.00" fill="#000000">boost/asio.hpp</text>
</a>
</g>
</g>
<!-- Node22&#45;&gt;Node23 -->
<g id="edge25" class="edge">
<title>Node22&#45;&gt;Node23</title>
<path fill="none" stroke="#191970" d="M911.1003,-380.3873C949.604,-369.8863 1012.9613,-352.607 1055.0035,-341.141"/>
<polygon fill="#191970" stroke="#191970" points="1055.9534,-344.5098 1064.6801,-338.5019 1054.1116,-337.7564 1055.9534,-344.5098"/>
</g>
<!-- Node24 -->
<g id="node25" class="node">
<title>Node24</title>
<g id="a_node25"><a xlink:title=" ">
<polygon fill="none" stroke="#bfbfbf" points="1155.9829,-315.5 1155.9829,-343.5 1265.3911,-343.5 1265.3911,-315.5 1155.9829,-315.5"/>
<text text-anchor="start" x="1163.9829" y="-331.5" font-family="Helvetica,sans-Serif" font-size="10.00" fill="#000000">boost/enable_shared</text>
<text text-anchor="middle" x="1210.687" y="-321.5" font-family="Helvetica,sans-Serif" font-size="10.00" fill="#000000">_from_this.hpp</text>
</a>
</g>
</g>
<!-- Node22&#45;&gt;Node24 -->
<g id="edge26" class="edge">
<title>Node22&#45;&gt;Node24</title>
<path fill="none" stroke="#191970" d="M937.3936,-380.4791C989.9792,-372.2975 1068.8628,-359.4523 1145.8832,-344.3017"/>
<polygon fill="#191970" stroke="#191970" points="1146.6246,-347.7229 1155.7532,-342.3453 1145.2635,-340.8565 1146.6246,-347.7229"/>
</g>
<!-- Node25 -->
<g id="node26" class="node">
<title>Node25</title>
<g id="a_node26"><a xlink:title=" ">
<polygon fill="none" stroke="#bfbfbf" points="690.377,-320.5 690.377,-338.5 806.9971,-338.5 806.9971,-320.5 690.377,-320.5"/>
<text text-anchor="middle" x="748.687" y="-326.5" font-family="Helvetica,sans-Serif" font-size="10.00" fill="#000000">boost/thread/locks.hpp</text>
</a>
</g>
</g>
<!-- Node22&#45;&gt;Node25 -->
<g id="edge28" class="edge">
<title>Node22&#45;&gt;Node25</title>
<path fill="none" stroke="#191970" d="M858.0947,-380.3873C836.5654,-370.3737 801.7843,-354.1964 777.2257,-342.7738"/>
<polygon fill="#191970" stroke="#191970" points="778.5843,-339.5457 768.041,-338.5019 775.6322,-345.8928 778.5843,-339.5457"/>
</g>
<!-- Node26 -->
<g id="node27" class="node">
<title>Node26</title>
<g id="a_node27"><a xlink:title=" ">
<polygon fill="none" stroke="#bfbfbf" points="825.2119,-315.5 825.2119,-343.5 930.1621,-343.5 930.1621,-315.5 825.2119,-315.5"/>
<text text-anchor="start" x="833.2119" y="-331.5" font-family="Helvetica,sans-Serif" font-size="10.00" fill="#000000">boost/thread/shared</text>
<text text-anchor="middle" x="877.687" y="-321.5" font-family="Helvetica,sans-Serif" font-size="10.00" fill="#000000">_mutex.hpp</text>
</a>
</g>
</g>
<!-- Node22&#45;&gt;Node26 -->
<g id="edge29" class="edge">
<title>Node22&#45;&gt;Node26</title>
<path fill="none" stroke="#191970" d="M877.687,-380.3873C877.687,-373.3369 877.687,-363.2311 877.687,-353.8806"/>
<polygon fill="#191970" stroke="#191970" points="881.1871,-353.8476 877.687,-343.8477 874.1871,-353.8477 881.1871,-353.8476"/>
</g>
<!-- Node27 -->
<g id="node28" class="node">
<title>Node27</title>
<g id="a_node28"><a xlink:title=" ">
<polygon fill="none" stroke="#bfbfbf" points="948.6255,-320.5 948.6255,-338.5 1000.7485,-338.5 1000.7485,-320.5 948.6255,-320.5"/>
<text text-anchor="middle" x="974.687" y="-326.5" font-family="Helvetica,sans-Serif" font-size="10.00" fill="#000000">ostream</text>
</a>
</g>
</g>
<!-- Node22&#45;&gt;Node27 -->
<g id="edge30" class="edge">
<title>Node22&#45;&gt;Node27</title>
<path fill="none" stroke="#191970" d="M892.4192,-380.3873C908.1065,-370.6838 933.1506,-355.1926 951.4902,-343.8486"/>
<polygon fill="#191970" stroke="#191970" points="953.4706,-346.739 960.134,-338.5019 949.7882,-340.7859 953.4706,-346.739"/>
</g>
</g>
</svg>
