<?xml version="1.0" encoding="UTF-8" standalone="no"?>
<!DOCTYPE svg PUBLIC "-//W3C//DTD SVG 1.1//EN"
 "http://www.w3.org/Graphics/SVG/1.1/DTD/svg11.dtd">
<!-- Generated by graphviz version 2.40.1 (20161225.0304)
 -->
<!-- Title: /Users/oskryp/Projects/freesee&#45;native&#45;client/libs/fcc_sdk/engine/meetingclient/src/headers/MeetingClient/NotificationHandler.hxx Pages: 1 -->
<svg width="1762pt" height="342pt"
 viewBox="0.00 0.00 1761.51 342.00" xmlns="http://www.w3.org/2000/svg" xmlns:xlink="http://www.w3.org/1999/xlink">
<g id="graph0" class="graph" transform="scale(1 1) rotate(0) translate(4 338)">
<title>/Users/oskryp/Projects/freesee&#45;native&#45;client/libs/fcc_sdk/engine/meetingclient/src/headers/MeetingClient/NotificationHandler.hxx</title>
<!-- Node10 -->
<g id="node1" class="node">
<title>Node10</title>
<g id="a_node1"><a xlink:title=" ">
<polygon fill="#bfbfbf" stroke="#000000" points="112.5803,-275.5 112.5803,-333.5 299.7717,-333.5 299.7717,-275.5 112.5803,-275.5"/>
<text text-anchor="start" x="120.5803" y="-321.5" font-family="Helvetica,sans-Serif" font-size="10.00" fill="#000000">/Users/oskryp/Projects</text>
<text text-anchor="start" x="120.5803" y="-311.5" font-family="Helvetica,sans-Serif" font-size="10.00" fill="#000000">/freesee&#45;native&#45;client</text>
<text text-anchor="start" x="120.5803" y="-301.5" font-family="Helvetica,sans-Serif" font-size="10.00" fill="#000000">/libs/fcc_sdk/engine/meetingclient</text>
<text text-anchor="start" x="120.5803" y="-291.5" font-family="Helvetica,sans-Serif" font-size="10.00" fill="#000000">/src/headers/MeetingClient/Notification</text>
<text text-anchor="middle" x="206.176" y="-281.5" font-family="Helvetica,sans-Serif" font-size="10.00" fill="#000000">Handler.hxx</text>
</a>
</g>
</g>
<!-- Node11 -->
<g id="node2" class="node">
<title>Node11</title>
<g id="a_node2"><a xlink:href="_basic_handler_8hxx.html" target="_top" xlink:title=" ">
<polygon fill="none" stroke="#000000" points="31.6813,-185.5 31.6813,-233.5 246.6706,-233.5 246.6706,-185.5 31.6813,-185.5"/>
<text text-anchor="start" x="39.6813" y="-221.5" font-family="Helvetica,sans-Serif" font-size="10.00" fill="#000000">/Users/oskryp/Projects</text>
<text text-anchor="start" x="39.6813" y="-211.5" font-family="Helvetica,sans-Serif" font-size="10.00" fill="#000000">/freesee&#45;native&#45;client</text>
<text text-anchor="start" x="39.6813" y="-201.5" font-family="Helvetica,sans-Serif" font-size="10.00" fill="#000000">/libs/fcc_sdk/engine/meetingclient</text>
<text text-anchor="middle" x="139.176" y="-191.5" font-family="Helvetica,sans-Serif" font-size="10.00" fill="#000000">/src/headers/MeetingClient/BasicHandler.hxx</text>
</a>
</g>
</g>
<!-- Node10&#45;&gt;Node11 -->
<g id="edge1" class="edge">
<title>Node10&#45;&gt;Node11</title>
<path fill="none" stroke="#191970" d="M179.7687,-267.0569C171.816,-255.7807 163.3044,-243.7119 156.1397,-233.5531"/>
<polygon fill="#191970" stroke="#191970" points="177.086,-269.3258 185.7097,-275.4807 182.8064,-265.2914 177.086,-269.3258"/>
</g>
<!-- Node13 -->
<g id="node4" class="node">
<title>Node13</title>
<g id="a_node4"><a xlink:href="_r_t_notifications_controller_8cxx.html" target="_top" xlink:title=" ">
<polygon fill="none" stroke="#000000" points="220.6911,-.5 220.6911,-48.5 385.6608,-48.5 385.6608,-.5 220.6911,-.5"/>
<text text-anchor="start" x="228.6911" y="-36.5" font-family="Helvetica,sans-Serif" font-size="10.00" fill="#000000">/Users/oskryp/Projects</text>
<text text-anchor="start" x="228.6911" y="-26.5" font-family="Helvetica,sans-Serif" font-size="10.00" fill="#000000">/freesee&#45;native&#45;client</text>
<text text-anchor="start" x="228.6911" y="-16.5" font-family="Helvetica,sans-Serif" font-size="10.00" fill="#000000">/libs/fcc_sdk/engine/meetingclient</text>
<text text-anchor="middle" x="303.176" y="-6.5" font-family="Helvetica,sans-Serif" font-size="10.00" fill="#000000">/src/RTNotificationsController.cxx</text>
</a>
</g>
</g>
<!-- Node10&#45;&gt;Node13 -->
<g id="edge27" class="edge">
<title>Node10&#45;&gt;Node13</title>
<path fill="none" stroke="#191970" d="M102.8675,-278.7461C67.2099,-267.6104 33.565,-253.7529 23.176,-239 -16.7077,-182.3633 -2.1811,-133.6035 47.176,-85 71.581,-60.9675 155.277,-44.3271 220.4036,-34.667"/>
<polygon fill="#191970" stroke="#191970" points="101.874,-282.1021 112.4598,-281.6649 103.9118,-275.4053 101.874,-282.1021"/>
</g>
<!-- Node14 -->
<g id="node5" class="node">
<title>Node14</title>
<g id="a_node5"><a xlink:href="_broadcast_handler_8hxx.html" target="_top" xlink:title=" ">
<polygon fill="none" stroke="#000000" points="70.3957,-90.5 70.3957,-138.5 305.9562,-138.5 305.9562,-90.5 70.3957,-90.5"/>
<text text-anchor="start" x="78.3957" y="-126.5" font-family="Helvetica,sans-Serif" font-size="10.00" fill="#000000">/Users/oskryp/Projects</text>
<text text-anchor="start" x="78.3957" y="-116.5" font-family="Helvetica,sans-Serif" font-size="10.00" fill="#000000">/freesee&#45;native&#45;client</text>
<text text-anchor="start" x="78.3957" y="-106.5" font-family="Helvetica,sans-Serif" font-size="10.00" fill="#000000">/libs/fcc_sdk/engine/meetingclient</text>
<text text-anchor="middle" x="188.176" y="-96.5" font-family="Helvetica,sans-Serif" font-size="10.00" fill="#000000">/src/headers/MeetingClient/BroadcastHandler.hxx</text>
</a>
</g>
</g>
<!-- Node10&#45;&gt;Node14 -->
<g id="edge4" class="edge">
<title>Node10&#45;&gt;Node14</title>
<path fill="none" stroke="#191970" d="M240.5406,-266.9322C246.5501,-258.3245 251.9149,-248.8033 255.176,-239 263.453,-214.1184 265.3477,-204.169 255.176,-180 248.3611,-163.8073 235.3717,-149.6196 222.6305,-138.6271"/>
<polygon fill="#191970" stroke="#191970" points="237.5394,-265.1022 234.3703,-275.212 243.1523,-269.285 237.5394,-265.1022"/>
</g>
<!-- Node16 -->
<g id="node7" class="node">
<title>Node16</title>
<g id="a_node7"><a xlink:href="_r_t_notifications_controller_8hxx.html" target="_top" xlink:title=" ">
<polygon fill="none" stroke="#000000" points="877.5031,-180.5 877.5031,-238.5 1082.8488,-238.5 1082.8488,-180.5 877.5031,-180.5"/>
<text text-anchor="start" x="885.5031" y="-226.5" font-family="Helvetica,sans-Serif" font-size="10.00" fill="#000000">/Users/oskryp/Projects</text>
<text text-anchor="start" x="885.5031" y="-216.5" font-family="Helvetica,sans-Serif" font-size="10.00" fill="#000000">/freesee&#45;native&#45;client</text>
<text text-anchor="start" x="885.5031" y="-206.5" font-family="Helvetica,sans-Serif" font-size="10.00" fill="#000000">/libs/fcc_sdk/engine/meetingclient</text>
<text text-anchor="start" x="885.5031" y="-196.5" font-family="Helvetica,sans-Serif" font-size="10.00" fill="#000000">/src/headers/MeetingClient/RTNotifications</text>
<text text-anchor="middle" x="980.176" y="-186.5" font-family="Helvetica,sans-Serif" font-size="10.00" fill="#000000">Controller.hxx</text>
</a>
</g>
</g>
<!-- Node10&#45;&gt;Node16 -->
<g id="edge7" class="edge">
<title>Node10&#45;&gt;Node16</title>
<path fill="none" stroke="#191970" d="M309.9552,-291.7622C458.3472,-273.5488 729.516,-240.2658 877.3694,-222.1184"/>
<polygon fill="#191970" stroke="#191970" points="309.4229,-288.3012 299.9238,-292.9935 310.2757,-295.2491 309.4229,-288.3012"/>
</g>
<!-- Node12 -->
<g id="node3" class="node">
<title>Node12</title>
<g id="a_node3"><a xlink:href="_basic_handler_8cxx.html" target="_top" xlink:title=" ">
<polygon fill="none" stroke="#000000" points="323.6911,-90.5 323.6911,-138.5 488.6608,-138.5 488.6608,-90.5 323.6911,-90.5"/>
<text text-anchor="start" x="331.6911" y="-126.5" font-family="Helvetica,sans-Serif" font-size="10.00" fill="#000000">/Users/oskryp/Projects</text>
<text text-anchor="start" x="331.6911" y="-116.5" font-family="Helvetica,sans-Serif" font-size="10.00" fill="#000000">/freesee&#45;native&#45;client</text>
<text text-anchor="start" x="331.6911" y="-106.5" font-family="Helvetica,sans-Serif" font-size="10.00" fill="#000000">/libs/fcc_sdk/engine/meetingclient</text>
<text text-anchor="middle" x="406.176" y="-96.5" font-family="Helvetica,sans-Serif" font-size="10.00" fill="#000000">/src/BasicHandler.cxx</text>
</a>
</g>
</g>
<!-- Node11&#45;&gt;Node12 -->
<g id="edge2" class="edge">
<title>Node11&#45;&gt;Node12</title>
<path fill="none" stroke="#191970" d="M216.5325,-181.9761C255.1229,-168.2455 301.3664,-151.7918 338.5276,-138.5696"/>
<polygon fill="#191970" stroke="#191970" points="215.1446,-178.7549 206.8965,-185.4047 217.4912,-185.3499 215.1446,-178.7549"/>
</g>
<!-- Node11&#45;&gt;Node13 -->
<g id="edge3" class="edge">
<title>Node11&#45;&gt;Node13</title>
<path fill="none" stroke="#191970" d="M89.5592,-178.9325C78.1316,-169.2823 67.4882,-157.5434 61.176,-144 50.0985,-120.2325 45.0385,-105.6685 61.176,-85 80.8649,-59.783 158.4372,-43.5213 220.5199,-34.2777"/>
<polygon fill="#191970" stroke="#191970" points="87.5436,-181.8011 97.5523,-185.2762 91.8952,-176.3181 87.5436,-181.8011"/>
</g>
<!-- Node14&#45;&gt;Node13 -->
<g id="edge6" class="edge">
<title>Node14&#45;&gt;Node13</title>
<path fill="none" stroke="#191970" d="M226.9754,-84.1352C241.7354,-72.5839 258.3403,-59.5888 272.273,-48.6849"/>
<polygon fill="#191970" stroke="#191970" points="224.7118,-81.4623 218.9939,-90.3817 229.026,-86.9748 224.7118,-81.4623"/>
</g>
<!-- Node15 -->
<g id="node6" class="node">
<title>Node15</title>
<g id="a_node6"><a xlink:href="_broadcast_handler_8cxx.html" target="_top" xlink:title=" ">
<polygon fill="none" stroke="#000000" points="459.6911,-.5 459.6911,-48.5 624.6608,-48.5 624.6608,-.5 459.6911,-.5"/>
<text text-anchor="start" x="467.6911" y="-36.5" font-family="Helvetica,sans-Serif" font-size="10.00" fill="#000000">/Users/oskryp/Projects</text>
<text text-anchor="start" x="467.6911" y="-26.5" font-family="Helvetica,sans-Serif" font-size="10.00" fill="#000000">/freesee&#45;native&#45;client</text>
<text text-anchor="start" x="467.6911" y="-16.5" font-family="Helvetica,sans-Serif" font-size="10.00" fill="#000000">/libs/fcc_sdk/engine/meetingclient</text>
<text text-anchor="middle" x="542.176" y="-6.5" font-family="Helvetica,sans-Serif" font-size="10.00" fill="#000000">/src/BroadcastHandler.cxx</text>
</a>
</g>
</g>
<!-- Node14&#45;&gt;Node15 -->
<g id="edge5" class="edge">
<title>Node14&#45;&gt;Node15</title>
<path fill="none" stroke="#191970" d="M292.3971,-88.0031C345.6878,-74.4546 409.6363,-58.1965 459.4868,-45.5227"/>
<polygon fill="#191970" stroke="#191970" points="291.4057,-84.6437 282.5765,-90.4999 293.1306,-91.4279 291.4057,-84.6437"/>
</g>
<!-- Node16&#45;&gt;Node12 -->
<g id="edge9" class="edge">
<title>Node16&#45;&gt;Node12</title>
<path fill="none" stroke="#191970" d="M867.0586,-199.217C769.6232,-189.1211 625.6114,-171.2343 502.176,-144 495.0249,-142.4222 487.6363,-140.5681 480.2806,-138.5708"/>
<polygon fill="#191970" stroke="#191970" points="866.9202,-202.721 877.2251,-200.2596 867.6344,-195.7576 866.9202,-202.721"/>
</g>
<!-- Node16&#45;&gt;Node13 -->
<g id="edge24" class="edge">
<title>Node16&#45;&gt;Node13</title>
<path fill="none" stroke="#191970" d="M867.2456,-203.4538C753.8732,-195.5394 588.5815,-178.4103 535.176,-144 508.9568,-127.1064 521.9976,-103.8872 497.176,-85 465.0284,-60.5384 422.8288,-45.8557 386,-37.0977"/>
<polygon fill="#191970" stroke="#191970" points="867.1489,-206.9553 877.3644,-204.1455 867.6264,-199.9716 867.1489,-206.9553"/>
</g>
<!-- Node17 -->
<g id="node8" class="node">
<title>Node17</title>
<g id="a_node8"><a xlink:href="_attendees_controller_8cxx.html" target="_top" xlink:title=" ">
<polygon fill="none" stroke="#000000" points="1383.6911,-90.5 1383.6911,-138.5 1548.6608,-138.5 1548.6608,-90.5 1383.6911,-90.5"/>
<text text-anchor="start" x="1391.6911" y="-126.5" font-family="Helvetica,sans-Serif" font-size="10.00" fill="#000000">/Users/oskryp/Projects</text>
<text text-anchor="start" x="1391.6911" y="-116.5" font-family="Helvetica,sans-Serif" font-size="10.00" fill="#000000">/freesee&#45;native&#45;client</text>
<text text-anchor="start" x="1391.6911" y="-106.5" font-family="Helvetica,sans-Serif" font-size="10.00" fill="#000000">/libs/fcc_sdk/engine/meetingclient</text>
<text text-anchor="middle" x="1466.176" y="-96.5" font-family="Helvetica,sans-Serif" font-size="10.00" fill="#000000">/src/AttendeesController.cxx</text>
</a>
</g>
</g>
<!-- Node16&#45;&gt;Node17 -->
<g id="edge8" class="edge">
<title>Node16&#45;&gt;Node17</title>
<path fill="none" stroke="#191970" d="M1092.9511,-195.359C1172.4571,-184.2833 1281.1,-166.913 1375.176,-144 1381.7919,-142.3886 1388.6227,-140.5368 1395.4301,-138.5627"/>
<polygon fill="#191970" stroke="#191970" points="1092.3401,-191.9101 1082.9131,-196.7455 1093.298,-198.8443 1092.3401,-191.9101"/>
</g>
<!-- Node18 -->
<g id="node9" class="node">
<title>Node18</title>
<g id="a_node9"><a xlink:href="_chat_controller_8cxx.html" target="_top" xlink:title=" ">
<polygon fill="none" stroke="#000000" points="1566.6911,-90.5 1566.6911,-138.5 1731.6608,-138.5 1731.6608,-90.5 1566.6911,-90.5"/>
<text text-anchor="start" x="1574.6911" y="-126.5" font-family="Helvetica,sans-Serif" font-size="10.00" fill="#000000">/Users/oskryp/Projects</text>
<text text-anchor="start" x="1574.6911" y="-116.5" font-family="Helvetica,sans-Serif" font-size="10.00" fill="#000000">/freesee&#45;native&#45;client</text>
<text text-anchor="start" x="1574.6911" y="-106.5" font-family="Helvetica,sans-Serif" font-size="10.00" fill="#000000">/libs/fcc_sdk/engine/meetingclient</text>
<text text-anchor="middle" x="1649.176" y="-96.5" font-family="Helvetica,sans-Serif" font-size="10.00" fill="#000000">/src/ChatController.cxx</text>
</a>
</g>
</g>
<!-- Node16&#45;&gt;Node18 -->
<g id="edge10" class="edge">
<title>Node16&#45;&gt;Node18</title>
<path fill="none" stroke="#191970" d="M1093.1023,-203.2849C1210.2012,-195.3049 1398.0688,-178.1894 1557.176,-144 1564.3095,-142.4671 1571.6751,-140.6034 1578.9879,-138.5656"/>
<polygon fill="#191970" stroke="#191970" points="1092.7896,-199.7979 1083.0463,-203.9596 1093.2582,-206.7822 1092.7896,-199.7979"/>
</g>
<!-- Node19 -->
<g id="node10" class="node">
<title>Node19</title>
<g id="a_node10"><a xlink:href="_presentation_controller_8hxx.html" target="_top" xlink:title=" ">
<polygon fill="none" stroke="#000000" points="1172.2404,-85.5 1172.2404,-143.5 1366.1115,-143.5 1366.1115,-85.5 1172.2404,-85.5"/>
<text text-anchor="start" x="1180.2404" y="-131.5" font-family="Helvetica,sans-Serif" font-size="10.00" fill="#000000">/Users/oskryp/Projects</text>
<text text-anchor="start" x="1180.2404" y="-121.5" font-family="Helvetica,sans-Serif" font-size="10.00" fill="#000000">/freesee&#45;native&#45;client</text>
<text text-anchor="start" x="1180.2404" y="-111.5" font-family="Helvetica,sans-Serif" font-size="10.00" fill="#000000">/libs/fcc_sdk/engine/meetingclient</text>
<text text-anchor="start" x="1180.2404" y="-101.5" font-family="Helvetica,sans-Serif" font-size="10.00" fill="#000000">/src/headers/MeetingClient/Presentation</text>
<text text-anchor="middle" x="1269.176" y="-91.5" font-family="Helvetica,sans-Serif" font-size="10.00" fill="#000000">Controller.hxx</text>
</a>
</g>
</g>
<!-- Node16&#45;&gt;Node19 -->
<g id="edge11" class="edge">
<title>Node16&#45;&gt;Node19</title>
<path fill="none" stroke="#191970" d="M1078.1985,-177.2781C1111.4879,-166.3352 1148.4605,-154.1815 1180.9391,-143.5052"/>
<polygon fill="#191970" stroke="#191970" points="1076.8627,-174.0328 1068.4558,-180.4807 1079.0487,-180.6828 1076.8627,-174.0328"/>
</g>
<!-- Node20 -->
<g id="node11" class="node">
<title>Node20</title>
<g id="a_node11"><a xlink:href="_meeting_client_8cxx.html" target="_top" xlink:title=" ">
<polygon fill="none" stroke="#000000" points="1094.6911,-.5 1094.6911,-48.5 1259.6608,-48.5 1259.6608,-.5 1094.6911,-.5"/>
<text text-anchor="start" x="1102.6911" y="-36.5" font-family="Helvetica,sans-Serif" font-size="10.00" fill="#000000">/Users/oskryp/Projects</text>
<text text-anchor="start" x="1102.6911" y="-26.5" font-family="Helvetica,sans-Serif" font-size="10.00" fill="#000000">/freesee&#45;native&#45;client</text>
<text text-anchor="start" x="1102.6911" y="-16.5" font-family="Helvetica,sans-Serif" font-size="10.00" fill="#000000">/libs/fcc_sdk/engine/meetingclient</text>
<text text-anchor="middle" x="1177.176" y="-6.5" font-family="Helvetica,sans-Serif" font-size="10.00" fill="#000000">/src/MeetingClient.cxx</text>
</a>
</g>
</g>
<!-- Node16&#45;&gt;Node20 -->
<g id="edge23" class="edge">
<title>Node16&#45;&gt;Node20</title>
<path fill="none" stroke="#191970" d="M1093.1586,-208.0045C1294.2657,-204.1611 1697.3628,-190.6617 1740.176,-144 1757.904,-124.6784 1757.9973,-104.2355 1740.176,-85 1704.505,-46.4986 1320.9206,-57.7904 1269.176,-49 1266.0798,-48.474 1262.9365,-47.8912 1259.7701,-47.2628"/>
<polygon fill="#191970" stroke="#191970" points="1093.0818,-204.5052 1083.1488,-208.191 1093.2123,-211.504 1093.0818,-204.5052"/>
</g>
<!-- Node23 -->
<g id="node14" class="node">
<title>Node23</title>
<g id="a_node14"><a xlink:href="_recording_controller_8hxx.html" target="_top" xlink:title=" ">
<polygon fill="none" stroke="#000000" points="543.9523,-90.5 543.9523,-138.5 788.3996,-138.5 788.3996,-90.5 543.9523,-90.5"/>
<text text-anchor="start" x="551.9523" y="-126.5" font-family="Helvetica,sans-Serif" font-size="10.00" fill="#000000">/Users/oskryp/Projects</text>
<text text-anchor="start" x="551.9523" y="-116.5" font-family="Helvetica,sans-Serif" font-size="10.00" fill="#000000">/freesee&#45;native&#45;client</text>
<text text-anchor="start" x="551.9523" y="-106.5" font-family="Helvetica,sans-Serif" font-size="10.00" fill="#000000">/libs/fcc_sdk/engine/meetingclient</text>
<text text-anchor="middle" x="666.176" y="-96.5" font-family="Helvetica,sans-Serif" font-size="10.00" fill="#000000">/src/headers/MeetingClient/RecordingController.hxx</text>
</a>
</g>
</g>
<!-- Node16&#45;&gt;Node23 -->
<g id="edge17" class="edge">
<title>Node16&#45;&gt;Node23</title>
<path fill="none" stroke="#191970" d="M874.5266,-177.536C832.4172,-164.7959 784.7694,-150.3802 745.6777,-138.5531"/>
<polygon fill="#191970" stroke="#191970" points="873.6743,-180.9348 884.2594,-180.4807 875.7015,-174.2347 873.6743,-180.9348"/>
</g>
<!-- Node25 -->
<g id="node16" class="node">
<title>Node25</title>
<g id="a_node16"><a xlink:href="_screen_sharing_controller_8cxx.html" target="_top" xlink:title=" ">
<polygon fill="none" stroke="#000000" points="806.6911,-90.5 806.6911,-138.5 971.6608,-138.5 971.6608,-90.5 806.6911,-90.5"/>
<text text-anchor="start" x="814.6911" y="-126.5" font-family="Helvetica,sans-Serif" font-size="10.00" fill="#000000">/Users/oskryp/Projects</text>
<text text-anchor="start" x="814.6911" y="-116.5" font-family="Helvetica,sans-Serif" font-size="10.00" fill="#000000">/freesee&#45;native&#45;client</text>
<text text-anchor="start" x="814.6911" y="-106.5" font-family="Helvetica,sans-Serif" font-size="10.00" fill="#000000">/libs/fcc_sdk/engine/meetingclient</text>
<text text-anchor="middle" x="889.176" y="-96.5" font-family="Helvetica,sans-Serif" font-size="10.00" fill="#000000">/src/ScreenSharingController.cxx</text>
</a>
</g>
</g>
<!-- Node16&#45;&gt;Node25 -->
<g id="edge25" class="edge">
<title>Node16&#45;&gt;Node25</title>
<path fill="none" stroke="#191970" d="M945.2605,-173.0497C934.1896,-161.4922 922.2336,-149.0107 912.2163,-138.5531"/>
<polygon fill="#191970" stroke="#191970" points="942.9336,-175.6803 952.3785,-180.4807 947.9886,-170.8381 942.9336,-175.6803"/>
</g>
<!-- Node26 -->
<g id="node17" class="node">
<title>Node26</title>
<g id="a_node17"><a xlink:href="_video_controller_8cxx.html" target="_top" xlink:title=" ">
<polygon fill="none" stroke="#000000" points="989.6911,-90.5 989.6911,-138.5 1154.6608,-138.5 1154.6608,-90.5 989.6911,-90.5"/>
<text text-anchor="start" x="997.6911" y="-126.5" font-family="Helvetica,sans-Serif" font-size="10.00" fill="#000000">/Users/oskryp/Projects</text>
<text text-anchor="start" x="997.6911" y="-116.5" font-family="Helvetica,sans-Serif" font-size="10.00" fill="#000000">/freesee&#45;native&#45;client</text>
<text text-anchor="start" x="997.6911" y="-106.5" font-family="Helvetica,sans-Serif" font-size="10.00" fill="#000000">/libs/fcc_sdk/engine/meetingclient</text>
<text text-anchor="middle" x="1072.176" y="-96.5" font-family="Helvetica,sans-Serif" font-size="10.00" fill="#000000">/src/VideoController.cxx</text>
</a>
</g>
</g>
<!-- Node16&#45;&gt;Node26 -->
<g id="edge26" class="edge">
<title>Node16&#45;&gt;Node26</title>
<path fill="none" stroke="#191970" d="M1015.4752,-173.0497C1026.6677,-161.4922 1038.7551,-149.0107 1048.8825,-138.5531"/>
<polygon fill="#191970" stroke="#191970" points="1012.7214,-170.8622 1008.2789,-180.4807 1017.7499,-175.7319 1012.7214,-170.8622"/>
</g>
<!-- Node19&#45;&gt;Node13 -->
<g id="edge16" class="edge">
<title>Node19&#45;&gt;Node13</title>
<path fill="none" stroke="#191970" d="M1161.75,-84.9155C848.5877,-35.252 762.8188,-82.5637 451.176,-49 429.9426,-46.7132 407.127,-43.3776 385.9214,-39.8999"/>
<polygon fill="#191970" stroke="#191970" points="1161.6041,-88.4368 1172.0328,-86.5679 1162.7148,-81.5255 1161.6041,-88.4368"/>
</g>
<!-- Node19&#45;&gt;Node15 -->
<g id="edge12" class="edge">
<title>Node19&#45;&gt;Node15</title>
<path fill="none" stroke="#191970" d="M1161.8842,-84.9251C929.0527,-46.3848 863.3727,-86.9539 634.176,-49 631.0777,-48.4869 627.9325,-47.9151 624.7645,-47.296"/>
<polygon fill="#191970" stroke="#191970" points="1161.5786,-88.4229 1172.0215,-86.6352 1162.7431,-81.5204 1161.5786,-88.4229"/>
</g>
<!-- Node19&#45;&gt;Node20 -->
<g id="edge13" class="edge">
<title>Node19&#45;&gt;Node20</title>
<path fill="none" stroke="#191970" d="M1232.0708,-78.2015C1221.9487,-68.2994 1211.2292,-57.8129 1201.975,-48.7599"/>
<polygon fill="#191970" stroke="#191970" points="1229.7103,-80.7885 1239.3062,-85.2796 1234.6054,-75.7847 1229.7103,-80.7885"/>
</g>
<!-- Node21 -->
<g id="node12" class="node">
<title>Node21</title>
<g id="a_node12"><a xlink:href="_meeting_client_session_8cxx.html" target="_top" xlink:title=" ">
<polygon fill="none" stroke="#000000" points="884.6911,-.5 884.6911,-48.5 1049.6608,-48.5 1049.6608,-.5 884.6911,-.5"/>
<text text-anchor="start" x="892.6911" y="-36.5" font-family="Helvetica,sans-Serif" font-size="10.00" fill="#000000">/Users/oskryp/Projects</text>
<text text-anchor="start" x="892.6911" y="-26.5" font-family="Helvetica,sans-Serif" font-size="10.00" fill="#000000">/freesee&#45;native&#45;client</text>
<text text-anchor="start" x="892.6911" y="-16.5" font-family="Helvetica,sans-Serif" font-size="10.00" fill="#000000">/libs/fcc_sdk/engine/meetingclient</text>
<text text-anchor="middle" x="967.176" y="-6.5" font-family="Helvetica,sans-Serif" font-size="10.00" fill="#000000">/src/MeetingClientSession.cxx</text>
</a>
</g>
</g>
<!-- Node19&#45;&gt;Node21 -->
<g id="edge14" class="edge">
<title>Node19&#45;&gt;Node21</title>
<path fill="none" stroke="#191970" d="M1162.0047,-82.5616C1124.4932,-71.3826 1083.0307,-59.0263 1048.032,-48.5962"/>
<polygon fill="#191970" stroke="#191970" points="1161.3758,-86.0262 1171.9589,-85.528 1163.3751,-79.3177 1161.3758,-86.0262"/>
</g>
<!-- Node22 -->
<g id="node13" class="node">
<title>Node22</title>
<g id="a_node13"><a xlink:href="_presentation_controller_8cxx.html" target="_top" xlink:title=" ">
<polygon fill="none" stroke="#000000" points="1277.6911,-.5 1277.6911,-48.5 1442.6608,-48.5 1442.6608,-.5 1277.6911,-.5"/>
<text text-anchor="start" x="1285.6911" y="-36.5" font-family="Helvetica,sans-Serif" font-size="10.00" fill="#000000">/Users/oskryp/Projects</text>
<text text-anchor="start" x="1285.6911" y="-26.5" font-family="Helvetica,sans-Serif" font-size="10.00" fill="#000000">/freesee&#45;native&#45;client</text>
<text text-anchor="start" x="1285.6911" y="-16.5" font-family="Helvetica,sans-Serif" font-size="10.00" fill="#000000">/libs/fcc_sdk/engine/meetingclient</text>
<text text-anchor="middle" x="1360.176" y="-6.5" font-family="Helvetica,sans-Serif" font-size="10.00" fill="#000000">/src/PresentationController.cxx</text>
</a>
</g>
</g>
<!-- Node19&#45;&gt;Node22 -->
<g id="edge15" class="edge">
<title>Node19&#45;&gt;Node22</title>
<path fill="none" stroke="#191970" d="M1305.8778,-78.2015C1315.8899,-68.2994 1326.4929,-57.8129 1335.6465,-48.7599"/>
<polygon fill="#191970" stroke="#191970" points="1303.3699,-75.7591 1298.7211,-85.2796 1308.2923,-80.7362 1303.3699,-75.7591"/>
</g>
<!-- Node23&#45;&gt;Node13 -->
<g id="edge22" class="edge">
<title>Node23&#45;&gt;Node13</title>
<path fill="none" stroke="#191970" d="M559.5168,-88.0556C504.0742,-74.3095 437.3362,-57.7629 385.8563,-44.9992"/>
<polygon fill="#191970" stroke="#191970" points="558.8271,-91.4905 569.3755,-90.4999 560.5116,-84.6962 558.8271,-91.4905"/>
</g>
<!-- Node23&#45;&gt;Node15 -->
<g id="edge18" class="edge">
<title>Node23&#45;&gt;Node15</title>
<path fill="none" stroke="#191970" d="M624.7817,-84.4557C608.7567,-72.8248 590.6596,-59.6898 575.4974,-48.6849"/>
<polygon fill="#191970" stroke="#191970" points="622.7973,-87.3402 632.9462,-90.3817 626.9091,-81.6751 622.7973,-87.3402"/>
</g>
<!-- Node23&#45;&gt;Node20 -->
<g id="edge19" class="edge">
<title>Node23&#45;&gt;Node20</title>
<path fill="none" stroke="#191970" d="M780.3162,-88.3813C786.3475,-87.1921 792.3286,-86.0564 798.176,-85 912.9756,-64.2606 943.2059,-68.7728 1058.176,-49 1069.9211,-46.98 1082.2783,-44.6583 1094.4054,-42.2664"/>
<polygon fill="#191970" stroke="#191970" points="779.2474,-85.026 770.1334,-90.4283 780.627,-91.8887 779.2474,-85.026"/>
</g>
<!-- Node23&#45;&gt;Node21 -->
<g id="edge20" class="edge">
<title>Node23&#45;&gt;Node21</title>
<path fill="none" stroke="#191970" d="M756.2759,-87.5598C797.7834,-75.1489 846.6396,-60.5408 886.8715,-48.5113"/>
<polygon fill="#191970" stroke="#191970" points="755.0213,-84.2818 746.443,-90.4999 757.0266,-90.9884 755.0213,-84.2818"/>
</g>
<!-- Node24 -->
<g id="node15" class="node">
<title>Node24</title>
<g id="a_node15"><a xlink:href="_recording_controller_8cxx.html" target="_top" xlink:title=" ">
<polygon fill="none" stroke="#000000" points="642.6911,-.5 642.6911,-48.5 807.6608,-48.5 807.6608,-.5 642.6911,-.5"/>
<text text-anchor="start" x="650.6911" y="-36.5" font-family="Helvetica,sans-Serif" font-size="10.00" fill="#000000">/Users/oskryp/Projects</text>
<text text-anchor="start" x="650.6911" y="-26.5" font-family="Helvetica,sans-Serif" font-size="10.00" fill="#000000">/freesee&#45;native&#45;client</text>
<text text-anchor="start" x="650.6911" y="-16.5" font-family="Helvetica,sans-Serif" font-size="10.00" fill="#000000">/libs/fcc_sdk/engine/meetingclient</text>
<text text-anchor="middle" x="725.176" y="-6.5" font-family="Helvetica,sans-Serif" font-size="10.00" fill="#000000">/src/RecordingController.cxx</text>
</a>
</g>
</g>
<!-- Node23&#45;&gt;Node24 -->
<g id="edge21" class="edge">
<title>Node23&#45;&gt;Node24</title>
<path fill="none" stroke="#191970" d="M687.5655,-81.8719C694.7528,-70.9082 702.6366,-58.8821 709.3214,-48.6849"/>
<polygon fill="#191970" stroke="#191970" points="684.5423,-80.0996 681.9869,-90.3817 690.3965,-83.9374 684.5423,-80.0996"/>
</g>
</g>
</svg>
