<?xml version="1.0" encoding="UTF-8" standalone="no"?>
<!DOCTYPE svg PUBLIC "-//W3C//DTD SVG 1.1//EN"
 "http://www.w3.org/Graphics/SVG/1.1/DTD/svg11.dtd">
<!-- Generated by graphviz version 2.40.1 (20161225.0304)
 -->
<!-- Title: /Users/oskryp/Projects/freesee&#45;native&#45;client/libs/fcc_sdk/engine/meetingclient/src/headers/MeetingClient/PresentationController.hxx Pages: 1 -->
<svg width="905pt" height="152pt"
 viewBox="0.00 0.00 904.97 152.00" xmlns="http://www.w3.org/2000/svg" xmlns:xlink="http://www.w3.org/1999/xlink">
<g id="graph0" class="graph" transform="scale(1 1) rotate(0) translate(4 148)">
<title>/Users/oskryp/Projects/freesee&#45;native&#45;client/libs/fcc_sdk/engine/meetingclient/src/headers/MeetingClient/PresentationController.hxx</title>
<!-- Node30 -->
<g id="node1" class="node">
<title>Node30</title>
<g id="a_node1"><a xlink:title=" ">
<polygon fill="#bfbfbf" stroke="#000000" points="351.5493,-85.5 351.5493,-143.5 545.4204,-143.5 545.4204,-85.5 351.5493,-85.5"/>
<text text-anchor="start" x="359.5493" y="-131.5" font-family="Helvetica,sans-Serif" font-size="10.00" fill="#000000">/Users/oskryp/Projects</text>
<text text-anchor="start" x="359.5493" y="-121.5" font-family="Helvetica,sans-Serif" font-size="10.00" fill="#000000">/freesee&#45;native&#45;client</text>
<text text-anchor="start" x="359.5493" y="-111.5" font-family="Helvetica,sans-Serif" font-size="10.00" fill="#000000">/libs/fcc_sdk/engine/meetingclient</text>
<text text-anchor="start" x="359.5493" y="-101.5" font-family="Helvetica,sans-Serif" font-size="10.00" fill="#000000">/src/headers/MeetingClient/Presentation</text>
<text text-anchor="middle" x="448.4849" y="-91.5" font-family="Helvetica,sans-Serif" font-size="10.00" fill="#000000">Controller.hxx</text>
</a>
</g>
</g>
<!-- Node31 -->
<g id="node2" class="node">
<title>Node31</title>
<g id="a_node2"><a xlink:href="_broadcast_handler_8cxx.html" target="_top" xlink:title=" ">
<polygon fill="none" stroke="#000000" points="0,-.5 0,-48.5 164.9697,-48.5 164.9697,-.5 0,-.5"/>
<text text-anchor="start" x="8" y="-36.5" font-family="Helvetica,sans-Serif" font-size="10.00" fill="#000000">/Users/oskryp/Projects</text>
<text text-anchor="start" x="8" y="-26.5" font-family="Helvetica,sans-Serif" font-size="10.00" fill="#000000">/freesee&#45;native&#45;client</text>
<text text-anchor="start" x="8" y="-16.5" font-family="Helvetica,sans-Serif" font-size="10.00" fill="#000000">/libs/fcc_sdk/engine/meetingclient</text>
<text text-anchor="middle" x="82.4849" y="-6.5" font-family="Helvetica,sans-Serif" font-size="10.00" fill="#000000">/src/BroadcastHandler.cxx</text>
</a>
</g>
</g>
<!-- Node30&#45;&gt;Node31 -->
<g id="edge1" class="edge">
<title>Node30&#45;&gt;Node31</title>
<path fill="none" stroke="#191970" d="M341.3419,-89.5585C290.6756,-77.5924 229.3882,-62.8704 174.4849,-49 171.44,-48.2308 168.3404,-47.4408 165.2109,-46.6373"/>
<polygon fill="#191970" stroke="#191970" points="340.7921,-93.0248 351.3285,-91.9139 342.399,-86.2117 340.7921,-93.0248"/>
</g>
<!-- Node32 -->
<g id="node3" class="node">
<title>Node32</title>
<g id="a_node3"><a xlink:href="_meeting_client_8cxx.html" target="_top" xlink:title=" ">
<polygon fill="none" stroke="#000000" points="183,-.5 183,-48.5 347.9697,-48.5 347.9697,-.5 183,-.5"/>
<text text-anchor="start" x="191" y="-36.5" font-family="Helvetica,sans-Serif" font-size="10.00" fill="#000000">/Users/oskryp/Projects</text>
<text text-anchor="start" x="191" y="-26.5" font-family="Helvetica,sans-Serif" font-size="10.00" fill="#000000">/freesee&#45;native&#45;client</text>
<text text-anchor="start" x="191" y="-16.5" font-family="Helvetica,sans-Serif" font-size="10.00" fill="#000000">/libs/fcc_sdk/engine/meetingclient</text>
<text text-anchor="middle" x="265.4849" y="-6.5" font-family="Helvetica,sans-Serif" font-size="10.00" fill="#000000">/src/MeetingClient.cxx</text>
</a>
</g>
</g>
<!-- Node30&#45;&gt;Node32 -->
<g id="edge2" class="edge">
<title>Node30&#45;&gt;Node32</title>
<path fill="none" stroke="#191970" d="M380.0908,-80.8636C358.2441,-70.1193 334.5168,-58.4502 314.3489,-48.5315"/>
<polygon fill="#191970" stroke="#191970" points="378.8046,-84.1313 389.3227,-85.4039 381.8939,-77.8499 378.8046,-84.1313"/>
</g>
<!-- Node33 -->
<g id="node4" class="node">
<title>Node33</title>
<g id="a_node4"><a xlink:href="_meeting_client_session_8cxx.html" target="_top" xlink:title=" ">
<polygon fill="none" stroke="#000000" points="366,-.5 366,-48.5 530.9697,-48.5 530.9697,-.5 366,-.5"/>
<text text-anchor="start" x="374" y="-36.5" font-family="Helvetica,sans-Serif" font-size="10.00" fill="#000000">/Users/oskryp/Projects</text>
<text text-anchor="start" x="374" y="-26.5" font-family="Helvetica,sans-Serif" font-size="10.00" fill="#000000">/freesee&#45;native&#45;client</text>
<text text-anchor="start" x="374" y="-16.5" font-family="Helvetica,sans-Serif" font-size="10.00" fill="#000000">/libs/fcc_sdk/engine/meetingclient</text>
<text text-anchor="middle" x="448.4849" y="-6.5" font-family="Helvetica,sans-Serif" font-size="10.00" fill="#000000">/src/MeetingClientSession.cxx</text>
</a>
</g>
</g>
<!-- Node30&#45;&gt;Node33 -->
<g id="edge3" class="edge">
<title>Node30&#45;&gt;Node33</title>
<path fill="none" stroke="#191970" d="M448.4849,-74.7825C448.4849,-65.8703 448.4849,-56.6778 448.4849,-48.6294"/>
<polygon fill="#191970" stroke="#191970" points="444.985,-75.0306 448.4849,-85.0306 451.985,-75.0307 444.985,-75.0306"/>
</g>
<!-- Node34 -->
<g id="node5" class="node">
<title>Node34</title>
<g id="a_node5"><a xlink:href="_presentation_controller_8cxx.html" target="_top" xlink:title=" ">
<polygon fill="none" stroke="#000000" points="549,-.5 549,-48.5 713.9697,-48.5 713.9697,-.5 549,-.5"/>
<text text-anchor="start" x="557" y="-36.5" font-family="Helvetica,sans-Serif" font-size="10.00" fill="#000000">/Users/oskryp/Projects</text>
<text text-anchor="start" x="557" y="-26.5" font-family="Helvetica,sans-Serif" font-size="10.00" fill="#000000">/freesee&#45;native&#45;client</text>
<text text-anchor="start" x="557" y="-16.5" font-family="Helvetica,sans-Serif" font-size="10.00" fill="#000000">/libs/fcc_sdk/engine/meetingclient</text>
<text text-anchor="middle" x="631.4849" y="-6.5" font-family="Helvetica,sans-Serif" font-size="10.00" fill="#000000">/src/PresentationController.cxx</text>
</a>
</g>
</g>
<!-- Node30&#45;&gt;Node34 -->
<g id="edge4" class="edge">
<title>Node30&#45;&gt;Node34</title>
<path fill="none" stroke="#191970" d="M516.8789,-80.8636C538.7257,-70.1193 562.4529,-58.4502 582.6208,-48.5315"/>
<polygon fill="#191970" stroke="#191970" points="515.0759,-77.8499 507.647,-85.4039 518.1651,-84.1313 515.0759,-77.8499"/>
</g>
<!-- Node35 -->
<g id="node6" class="node">
<title>Node35</title>
<g id="a_node6"><a xlink:href="_r_t_notifications_controller_8cxx.html" target="_top" xlink:title=" ">
<polygon fill="none" stroke="#000000" points="732,-.5 732,-48.5 896.9697,-48.5 896.9697,-.5 732,-.5"/>
<text text-anchor="start" x="740" y="-36.5" font-family="Helvetica,sans-Serif" font-size="10.00" fill="#000000">/Users/oskryp/Projects</text>
<text text-anchor="start" x="740" y="-26.5" font-family="Helvetica,sans-Serif" font-size="10.00" fill="#000000">/freesee&#45;native&#45;client</text>
<text text-anchor="start" x="740" y="-16.5" font-family="Helvetica,sans-Serif" font-size="10.00" fill="#000000">/libs/fcc_sdk/engine/meetingclient</text>
<text text-anchor="middle" x="814.4849" y="-6.5" font-family="Helvetica,sans-Serif" font-size="10.00" fill="#000000">/src/RTNotificationsController.cxx</text>
</a>
</g>
</g>
<!-- Node30&#45;&gt;Node35 -->
<g id="edge5" class="edge">
<title>Node30&#45;&gt;Node35</title>
<path fill="none" stroke="#191970" d="M555.6278,-89.5585C606.2942,-77.5924 667.5815,-62.8704 722.4849,-49 725.5297,-48.2308 728.6293,-47.4408 731.7589,-46.6373"/>
<polygon fill="#191970" stroke="#191970" points="554.5707,-86.2117 545.6412,-91.9139 556.1776,-93.0248 554.5707,-86.2117"/>
</g>
</g>
</svg>
