<?xml version="1.0" encoding="UTF-8" standalone="no"?>
<!DOCTYPE svg PUBLIC "-//W3C//DTD SVG 1.1//EN"
 "http://www.w3.org/Graphics/SVG/1.1/DTD/svg11.dtd">
<!-- Generated by graphviz version 2.40.1 (20161225.0304)
 -->
<!-- Title: /Users/oskryp/Projects/freesee&#45;native&#45;client/libs/fcc_sdk/engine/meetingclient/src/headers/MeetingClient/RTNotificationsController.hxx Pages: 1 -->
<svg width="1037pt" height="317pt"
 viewBox="0.00 0.00 1037.18 317.00" xmlns="http://www.w3.org/2000/svg" xmlns:xlink="http://www.w3.org/1999/xlink">
<g id="graph0" class="graph" transform="scale(1 1) rotate(0) translate(4 313)">
<title>/Users/oskryp/Projects/freesee&#45;native&#45;client/libs/fcc_sdk/engine/meetingclient/src/headers/MeetingClient/RTNotificationsController.hxx</title>
<!-- Node0 -->
<g id="node1" class="node">
<title>Node0</title>
<g id="a_node1"><a xlink:title=" ">
<polygon fill="#bfbfbf" stroke="#000000" points="424.3096,-250.5 424.3096,-308.5 629.6553,-308.5 629.6553,-250.5 424.3096,-250.5"/>
<text text-anchor="start" x="432.3096" y="-296.5" font-family="Helvetica,sans-Serif" font-size="10.00" fill="#000000">/Users/oskryp/Projects</text>
<text text-anchor="start" x="432.3096" y="-286.5" font-family="Helvetica,sans-Serif" font-size="10.00" fill="#000000">/freesee&#45;native&#45;client</text>
<text text-anchor="start" x="432.3096" y="-276.5" font-family="Helvetica,sans-Serif" font-size="10.00" fill="#000000">/libs/fcc_sdk/engine/meetingclient</text>
<text text-anchor="start" x="432.3096" y="-266.5" font-family="Helvetica,sans-Serif" font-size="10.00" fill="#000000">/src/headers/MeetingClient/RTNotifications</text>
<text text-anchor="middle" x="526.9824" y="-256.5" font-family="Helvetica,sans-Serif" font-size="10.00" fill="#000000">Controller.hxx</text>
</a>
</g>
</g>
<!-- Node1 -->
<g id="node2" class="node">
<title>Node1</title>
<g id="a_node2"><a xlink:title=" ">
<polygon fill="none" stroke="#bfbfbf" points="600.1182,-135.5 600.1182,-153.5 697.8467,-153.5 697.8467,-135.5 600.1182,-135.5"/>
<text text-anchor="middle" x="648.9824" y="-141.5" font-family="Helvetica,sans-Serif" font-size="10.00" fill="#000000">boost/function.hpp</text>
</a>
</g>
</g>
<!-- Node0&#45;&gt;Node1 -->
<g id="edge1" class="edge">
<title>Node0&#45;&gt;Node1</title>
<path fill="none" stroke="#191970" d="M553.9462,-250.23C564.3083,-238.9383 576.2272,-225.8975 586.9824,-214 603.1455,-196.1203 621.5066,-175.4988 634.026,-161.3905"/>
<polygon fill="#191970" stroke="#191970" points="636.9794,-163.3351 640.9944,-153.5305 631.7415,-158.6914 636.9794,-163.3351"/>
</g>
<!-- Node2 -->
<g id="node3" class="node">
<title>Node2</title>
<g id="a_node3"><a xlink:title=" ">
<polygon fill="none" stroke="#bfbfbf" points="0,-135.5 0,-153.5 109.9648,-153.5 109.9648,-135.5 0,-135.5"/>
<text text-anchor="middle" x="54.9824" y="-141.5" font-family="Helvetica,sans-Serif" font-size="10.00" fill="#000000">boost/shared_ptr.hpp</text>
</a>
</g>
</g>
<!-- Node0&#45;&gt;Node2 -->
<g id="edge2" class="edge">
<title>Node0&#45;&gt;Node2</title>
<path fill="none" stroke="#191970" d="M424.1358,-273.2143C285.1934,-263.657 51.8056,-243.419 25.9824,-214 12.5923,-198.7453 26.1084,-176.4325 38.821,-161.2326"/>
<polygon fill="#191970" stroke="#191970" points="41.577,-163.401 45.625,-153.6099 36.3547,-158.7396 41.577,-163.401"/>
</g>
<!-- Node3 -->
<g id="node4" class="node">
<title>Node3</title>
<g id="a_node4"><a xlink:title=" ">
<polygon fill="none" stroke="#bfbfbf" points="188.6724,-195.5 188.6724,-213.5 305.2925,-213.5 305.2925,-195.5 188.6724,-195.5"/>
<text text-anchor="middle" x="246.9824" y="-201.5" font-family="Helvetica,sans-Serif" font-size="10.00" fill="#000000">boost/thread/locks.hpp</text>
</a>
</g>
</g>
<!-- Node0&#45;&gt;Node3 -->
<g id="edge3" class="edge">
<title>Node0&#45;&gt;Node3</title>
<path fill="none" stroke="#191970" d="M423.9136,-251.8923C377.9308,-239.5755 326.2233,-225.7252 290.6393,-216.1938"/>
<polygon fill="#191970" stroke="#191970" points="291.159,-212.7097 280.5939,-213.5031 289.3478,-219.4713 291.159,-212.7097"/>
</g>
<!-- Node4 -->
<g id="node5" class="node">
<title>Node4</title>
<g id="a_node5"><a xlink:title=" ">
<polygon fill="none" stroke="#bfbfbf" points="323.4482,-195.5 323.4482,-213.5 444.5166,-213.5 444.5166,-195.5 323.4482,-195.5"/>
<text text-anchor="middle" x="383.9824" y="-201.5" font-family="Helvetica,sans-Serif" font-size="10.00" fill="#000000">boost/thread/mutex.hpp</text>
</a>
</g>
</g>
<!-- Node0&#45;&gt;Node4 -->
<g id="edge4" class="edge">
<title>Node0&#45;&gt;Node4</title>
<path fill="none" stroke="#191970" d="M471.2854,-250.2883C450.4387,-239.3547 427.7053,-227.4316 410.6638,-218.4937"/>
<polygon fill="#191970" stroke="#191970" points="411.8266,-215.1515 401.3451,-213.6063 408.5753,-221.3506 411.8266,-215.1515"/>
</g>
<!-- Node5 -->
<g id="node6" class="node">
<title>Node5</title>
<g id="a_node6"><a xlink:title=" ">
<polygon fill="none" stroke="#bfbfbf" points="462.4824,-195.5 462.4824,-213.5 491.4824,-213.5 491.4824,-195.5 462.4824,-195.5"/>
<text text-anchor="middle" x="476.5933" y="-201.5" font-family="Helvetica,sans-Serif" font-size="10.00" fill="#000000">list</text>
</a>
</g>
</g>
<!-- Node0&#45;&gt;Node5 -->
<g id="edge5" class="edge">
<title>Node0&#45;&gt;Node5</title>
<path fill="none" stroke="#191970" d="M507.5079,-250.2883C501.2124,-240.845 494.4248,-230.6636 488.8524,-222.3049"/>
<polygon fill="#191970" stroke="#191970" points="491.6275,-220.1578 483.1683,-213.7788 485.8031,-224.0407 491.6275,-220.1578"/>
</g>
<!-- Node6 -->
<g id="node7" class="node">
<title>Node6</title>
<g id="a_node7"><a xlink:title=" ">
<polygon fill="none" stroke="#bfbfbf" points="509.2559,-195.5 509.2559,-213.5 544.709,-213.5 544.709,-195.5 509.2559,-195.5"/>
<text text-anchor="middle" x="526.9824" y="-201.5" font-family="Helvetica,sans-Serif" font-size="10.00" fill="#000000">map</text>
</a>
</g>
</g>
<!-- Node0&#45;&gt;Node6 -->
<g id="edge6" class="edge">
<title>Node0&#45;&gt;Node6</title>
<path fill="none" stroke="#191970" d="M526.9824,-250.2883C526.9824,-241.4543 526.9824,-231.9743 526.9824,-223.9448"/>
<polygon fill="#191970" stroke="#191970" points="530.4825,-223.7787 526.9824,-213.7788 523.4825,-223.7788 530.4825,-223.7787"/>
</g>
<!-- Node7 -->
<g id="node8" class="node">
<title>Node7</title>
<g id="a_node8"><a xlink:title=" ">
<polygon fill="none" stroke="#bfbfbf" points="598.7559,-5.5 598.7559,-23.5 639.209,-23.5 639.209,-5.5 598.7559,-5.5"/>
<text text-anchor="middle" x="618.9824" y="-11.5" font-family="Helvetica,sans-Serif" font-size="10.00" fill="#000000">string</text>
</a>
</g>
</g>
<!-- Node0&#45;&gt;Node7 -->
<g id="edge7" class="edge">
<title>Node0&#45;&gt;Node7</title>
<path fill="none" stroke="#191970" d="M539.558,-250.3417C544.2752,-239.0637 549.5604,-226.0031 553.9824,-214 578.072,-148.6118 602.4548,-69.5483 613.2412,-33.7594"/>
<polygon fill="#191970" stroke="#191970" points="616.7281,-34.3163 616.2479,-23.7324 610.0231,-32.3057 616.7281,-34.3163"/>
</g>
<!-- Node8 -->
<g id="node9" class="node">
<title>Node8</title>
<g id="a_node9"><a xlink:title=" ">
<polygon fill="none" stroke="#bfbfbf" points="715.3667,-135.5 715.3667,-153.5 758.5981,-153.5 758.5981,-135.5 715.3667,-135.5"/>
<text text-anchor="middle" x="736.9824" y="-141.5" font-family="Helvetica,sans-Serif" font-size="10.00" fill="#000000">vector</text>
</a>
</g>
</g>
<!-- Node0&#45;&gt;Node8 -->
<g id="edge8" class="edge">
<title>Node0&#45;&gt;Node8</title>
<path fill="none" stroke="#191970" d="M572.2908,-250.3732C615.935,-222.3162 680.1829,-181.014 714.0884,-159.2176"/>
<polygon fill="#191970" stroke="#191970" points="716.2855,-161.9661 722.8046,-153.6143 712.5001,-156.0778 716.2855,-161.9661"/>
</g>
<!-- Node9 -->
<g id="node10" class="node">
<title>Node9</title>
<g id="a_node10"><a xlink:href="_meeting_types_8hxx.html" target="_top" xlink:title=" ">
<polygon fill="none" stroke="#000000" points="925.0713,-130.5 925.0713,-158.5 1028.8936,-158.5 1028.8936,-130.5 925.0713,-130.5"/>
<text text-anchor="start" x="933.0713" y="-146.5" font-family="Helvetica,sans-Serif" font-size="10.00" fill="#000000">MeetingClient/types</text>
<text text-anchor="middle" x="976.9824" y="-136.5" font-family="Helvetica,sans-Serif" font-size="10.00" fill="#000000">/MeetingTypes.hxx</text>
</a>
</g>
</g>
<!-- Node0&#45;&gt;Node9 -->
<g id="edge9" class="edge">
<title>Node0&#45;&gt;Node9</title>
<path fill="none" stroke="#191970" d="M629.6693,-259.2262C682.5687,-247.7983 747.802,-232.1716 804.9824,-214 851.2753,-199.2884 902.7212,-177.7886 937.1807,-162.6053"/>
<polygon fill="#191970" stroke="#191970" points="938.7098,-165.7559 946.4312,-158.5012 935.871,-159.3574 938.7098,-165.7559"/>
</g>
<!-- Node14 -->
<g id="node15" class="node">
<title>Node14</title>
<g id="a_node15"><a xlink:href="_meeting_controller_base_8hxx.html" target="_top" xlink:title=" ">
<polygon fill="none" stroke="#000000" points="34.9531,-195.5 34.9531,-213.5 171.0117,-213.5 171.0117,-195.5 34.9531,-195.5"/>
<text text-anchor="middle" x="102.9824" y="-201.5" font-family="Helvetica,sans-Serif" font-size="10.00" fill="#000000">MeetingControllerBase.hxx</text>
</a>
</g>
</g>
<!-- Node0&#45;&gt;Node14 -->
<g id="edge15" class="edge">
<title>Node0&#45;&gt;Node14</title>
<path fill="none" stroke="#191970" d="M424.0733,-261.2967C342.7078,-246.9043 231.8741,-227.2992 163.9874,-215.291"/>
<polygon fill="#191970" stroke="#191970" points="164.3387,-211.7988 153.8819,-213.5034 163.1193,-218.6918 164.3387,-211.7988"/>
</g>
<!-- Node15 -->
<g id="node16" class="node">
<title>Node15</title>
<g id="a_node16"><a xlink:href="_notification_handler_8hxx.html" target="_top" xlink:title=" ">
<polygon fill="none" stroke="#000000" points="677.8423,-195.5 677.8423,-213.5 796.1226,-213.5 796.1226,-195.5 677.8423,-195.5"/>
<text text-anchor="middle" x="736.9824" y="-201.5" font-family="Helvetica,sans-Serif" font-size="10.00" fill="#000000">NotificationHandler.hxx</text>
</a>
</g>
</g>
<!-- Node0&#45;&gt;Node15 -->
<g id="edge17" class="edge">
<title>Node0&#45;&gt;Node15</title>
<path fill="none" stroke="#191970" d="M608.4745,-250.3957C640.8409,-238.8363 676.3487,-226.1549 701.8223,-217.0572"/>
<polygon fill="#191970" stroke="#191970" points="703.1652,-220.2942 711.4054,-213.6347 700.8108,-213.702 703.1652,-220.2942"/>
</g>
<!-- Node10 -->
<g id="node11" class="node">
<title>Node10</title>
<g id="a_node11"><a xlink:href="_common_data_types_8hxx.html" target="_top" xlink:title=" ">
<polygon fill="none" stroke="#000000" points="737.2363,-65.5 737.2363,-93.5 862.7285,-93.5 862.7285,-65.5 737.2363,-65.5"/>
<text text-anchor="start" x="745.2363" y="-81.5" font-family="Helvetica,sans-Serif" font-size="10.00" fill="#000000">MeetingClient/types</text>
<text text-anchor="middle" x="799.9824" y="-71.5" font-family="Helvetica,sans-Serif" font-size="10.00" fill="#000000">/CommonDataTypes.hxx</text>
</a>
</g>
</g>
<!-- Node9&#45;&gt;Node10 -->
<g id="edge10" class="edge">
<title>Node9&#45;&gt;Node10</title>
<path fill="none" stroke="#191970" d="M938.5761,-130.396C912.0185,-120.6432 876.4871,-107.5949 848.0501,-97.152"/>
<polygon fill="#191970" stroke="#191970" points="848.9074,-93.7383 838.3138,-93.5765 846.4943,-100.3093 848.9074,-93.7383"/>
</g>
<!-- Node12 -->
<g id="node13" class="node">
<title>Node12</title>
<g id="a_node13"><a xlink:href="strong__identity_8hxx.html" target="_top" xlink:title=" ">
<polygon fill="none" stroke="#000000" points="926.2725,-65.5 926.2725,-93.5 1027.6924,-93.5 1027.6924,-65.5 926.2725,-65.5"/>
<text text-anchor="start" x="934.2725" y="-81.5" font-family="Helvetica,sans-Serif" font-size="10.00" fill="#000000">MeetingClient/utils</text>
<text text-anchor="middle" x="976.9824" y="-71.5" font-family="Helvetica,sans-Serif" font-size="10.00" fill="#000000">/strong_identity.hxx</text>
</a>
</g>
</g>
<!-- Node9&#45;&gt;Node12 -->
<g id="edge13" class="edge">
<title>Node9&#45;&gt;Node12</title>
<path fill="none" stroke="#191970" d="M976.9824,-130.396C976.9824,-122.6448 976.9824,-112.8122 976.9824,-103.8601"/>
<polygon fill="#191970" stroke="#191970" points="980.4825,-103.5765 976.9824,-93.5765 973.4825,-103.5765 980.4825,-103.5765"/>
</g>
<!-- Node10&#45;&gt;Node7 -->
<g id="edge11" class="edge">
<title>Node10&#45;&gt;Node7</title>
<path fill="none" stroke="#191970" d="M760.7081,-65.396C727.2666,-53.3866 679.9105,-36.3803 649.3197,-25.3946"/>
<polygon fill="#191970" stroke="#191970" points="650.227,-22.0016 639.6325,-21.9158 647.861,-28.5897 650.227,-22.0016"/>
</g>
<!-- Node11 -->
<g id="node12" class="node">
<title>Node11</title>
<g id="a_node12"><a xlink:title=" ">
<polygon fill="none" stroke="#bfbfbf" points="749.187,-5.5 749.187,-23.5 850.7778,-23.5 850.7778,-5.5 749.187,-5.5"/>
<text text-anchor="middle" x="799.9824" y="-11.5" font-family="Helvetica,sans-Serif" font-size="10.00" fill="#000000">CommonTypes.hxx</text>
</a>
</g>
</g>
<!-- Node10&#45;&gt;Node11 -->
<g id="edge12" class="edge">
<title>Node10&#45;&gt;Node11</title>
<path fill="none" stroke="#191970" d="M799.9824,-65.396C799.9824,-56.1723 799.9824,-44.0011 799.9824,-33.8738"/>
<polygon fill="#191970" stroke="#191970" points="803.4825,-33.5743 799.9824,-23.5743 796.4825,-33.5743 803.4825,-33.5743"/>
</g>
<!-- Node13 -->
<g id="node14" class="node">
<title>Node13</title>
<g id="a_node14"><a xlink:title=" ">
<polygon fill="none" stroke="#bfbfbf" points="924.7832,-.5 924.7832,-28.5 1029.1816,-28.5 1029.1816,-.5 924.7832,-.5"/>
<text text-anchor="start" x="932.7832" y="-16.5" font-family="Helvetica,sans-Serif" font-size="10.00" fill="#000000">boost/serialization</text>
<text text-anchor="middle" x="976.9824" y="-6.5" font-family="Helvetica,sans-Serif" font-size="10.00" fill="#000000">/strong_typedef.hpp</text>
</a>
</g>
</g>
<!-- Node12&#45;&gt;Node13 -->
<g id="edge14" class="edge">
<title>Node12&#45;&gt;Node13</title>
<path fill="none" stroke="#191970" d="M976.9824,-65.396C976.9824,-57.6448 976.9824,-47.8122 976.9824,-38.8601"/>
<polygon fill="#191970" stroke="#191970" points="980.4825,-38.5765 976.9824,-28.5765 973.4825,-38.5765 980.4825,-38.5765"/>
</g>
<!-- Node14&#45;&gt;Node2 -->
<g id="edge16" class="edge">
<title>Node14&#45;&gt;Node2</title>
<path fill="none" stroke="#191970" d="M95.6923,-195.3873C88.5735,-186.4888 77.5608,-172.723 68.7838,-161.7517"/>
<polygon fill="#191970" stroke="#191970" points="71.3212,-159.3207 62.3412,-153.6985 65.8551,-163.6936 71.3212,-159.3207"/>
</g>
<!-- Node15&#45;&gt;Node1 -->
<g id="edge19" class="edge">
<title>Node15&#45;&gt;Node1</title>
<path fill="none" stroke="#191970" d="M723.6171,-195.3873C709.5803,-185.8168 687.2858,-170.6159 670.7141,-159.3171"/>
<polygon fill="#191970" stroke="#191970" points="672.4192,-156.2435 662.1852,-153.5019 668.4758,-162.0271 672.4192,-156.2435"/>
</g>
<!-- Node15&#45;&gt;Node8 -->
<g id="edge18" class="edge">
<title>Node15&#45;&gt;Node8</title>
<path fill="none" stroke="#191970" d="M736.9824,-195.3873C736.9824,-187.0174 736.9824,-174.3414 736.9824,-163.735"/>
<polygon fill="#191970" stroke="#191970" points="740.4825,-163.6984 736.9824,-153.6985 733.4825,-163.6985 740.4825,-163.6984"/>
</g>
<!-- Node15&#45;&gt;Node9 -->
<g id="edge20" class="edge">
<title>Node15&#45;&gt;Node9</title>
<path fill="none" stroke="#191970" d="M773.1727,-195.4524C810.6693,-186.0783 869.9719,-171.2526 914.9618,-160.0052"/>
<polygon fill="#191970" stroke="#191970" points="916.0558,-163.3395 924.9083,-157.5185 914.358,-156.5485 916.0558,-163.3395"/>
</g>
<!-- Node16 -->
<g id="node17" class="node">
<title>Node16</title>
<g id="a_node17"><a xlink:href="macros_8hxx.html" target="_top" xlink:title=" ">
<polygon fill="none" stroke="#000000" points="776.4604,-135.5 776.4604,-153.5 907.5044,-153.5 907.5044,-135.5 776.4604,-135.5"/>
<text text-anchor="middle" x="841.9824" y="-141.5" font-family="Helvetica,sans-Serif" font-size="10.00" fill="#000000">MeetingClient/macros.hxx</text>
</a>
</g>
</g>
<!-- Node15&#45;&gt;Node16 -->
<g id="edge21" class="edge">
<title>Node15&#45;&gt;Node16</title>
<path fill="none" stroke="#191970" d="M752.9297,-195.3873C770.0658,-185.5952 797.5163,-169.9092 817.4145,-158.5388"/>
<polygon fill="#191970" stroke="#191970" points="819.2832,-161.5022 826.2291,-153.5019 815.8102,-155.4245 819.2832,-161.5022"/>
</g>
</g>
</svg>
