<?xml version="1.0" encoding="UTF-8" standalone="no"?>
<!DOCTYPE svg PUBLIC "-//W3C//DTD SVG 1.1//EN"
 "http://www.w3.org/Graphics/SVG/1.1/DTD/svg11.dtd">
<!-- Generated by graphviz version 2.40.1 (20161225.0304)
 -->
<!-- Title: /Users/oskryp/Projects/freesee&#45;native&#45;client/libs/fcc_sdk/engine/meetingclient/src/RTNotificationsController.cxx Pages: 1 -->
<svg width="4476pt" height="417pt"
 viewBox="0.00 0.00 4475.89 417.00" xmlns="http://www.w3.org/2000/svg" xmlns:xlink="http://www.w3.org/1999/xlink">
<g id="graph0" class="graph" transform="scale(1 1) rotate(0) translate(4 413)">
<title>/Users/oskryp/Projects/freesee&#45;native&#45;client/libs/fcc_sdk/engine/meetingclient/src/RTNotificationsController.cxx</title>
<!-- Node0 -->
<g id="node1" class="node">
<title>Node0</title>
<g id="a_node1"><a xlink:title=" ">
<polygon fill="#bfbfbf" stroke="#000000" points="2030.4067,-360.5 2030.4067,-408.5 2195.3765,-408.5 2195.3765,-360.5 2030.4067,-360.5"/>
<text text-anchor="start" x="2038.4067" y="-396.5" font-family="Helvetica,sans-Serif" font-size="10.00" fill="#000000">/Users/oskryp/Projects</text>
<text text-anchor="start" x="2038.4067" y="-386.5" font-family="Helvetica,sans-Serif" font-size="10.00" fill="#000000">/freesee&#45;native&#45;client</text>
<text text-anchor="start" x="2038.4067" y="-376.5" font-family="Helvetica,sans-Serif" font-size="10.00" fill="#000000">/libs/fcc_sdk/engine/meetingclient</text>
<text text-anchor="middle" x="2112.8916" y="-366.5" font-family="Helvetica,sans-Serif" font-size="10.00" fill="#000000">/src/RTNotificationsController.cxx</text>
</a>
</g>
</g>
<!-- Node1 -->
<g id="node2" class="node">
<title>Node1</title>
<g id="a_node2"><a xlink:href="_r_t_notifications_controller_8hxx.html" target="_top" xlink:title=" ">
<polygon fill="none" stroke="#000000" points="846.5093,-250.5 846.5093,-268.5 991.2739,-268.5 991.2739,-250.5 846.5093,-250.5"/>
<text text-anchor="middle" x="918.8916" y="-256.5" font-family="Helvetica,sans-Serif" font-size="10.00" fill="#000000">RTNotificationsController.hxx</text>
</a>
</g>
</g>
<!-- Node0&#45;&gt;Node1 -->
<g id="edge1" class="edge">
<title>Node0&#45;&gt;Node1</title>
<path fill="none" stroke="#191970" d="M2030.4016,-383.0025C1788.5463,-378.1976 1092.2236,-361.2558 996.8916,-324 971.2065,-313.9622 947.6997,-291.9915 933.3533,-276.4908"/>
<polygon fill="#191970" stroke="#191970" points="935.6384,-273.7946 926.3698,-268.6618 930.4146,-278.4542 935.6384,-273.7946"/>
</g>
<!-- Node16 -->
<g id="node14" class="node">
<title>Node16</title>
<g id="a_node14"><a xlink:href="_notification_handler_8hxx.html" target="_top" xlink:title=" ">
<polygon fill="none" stroke="#000000" points="337.7515,-190.5 337.7515,-208.5 456.0317,-208.5 456.0317,-190.5 337.7515,-190.5"/>
<text text-anchor="middle" x="396.8916" y="-196.5" font-family="Helvetica,sans-Serif" font-size="10.00" fill="#000000">NotificationHandler.hxx</text>
</a>
</g>
</g>
<!-- Node0&#45;&gt;Node16 -->
<g id="edge121" class="edge">
<title>Node0&#45;&gt;Node16</title>
<path fill="none" stroke="#191970" d="M2030.1734,-381.9894C1782.5464,-374.2621 1049.61,-349.7932 811.8916,-324 667.9905,-308.3863 624.0316,-325.7896 490.8916,-269 460.891,-256.2035 431.5138,-232.0854 413.7995,-215.9025"/>
<polygon fill="#191970" stroke="#191970" points="415.7797,-212.9617 406.0886,-208.68 410.9944,-218.0706 415.7797,-212.9617"/>
</g>
<!-- Node18 -->
<g id="node16" class="node">
<title>Node18</title>
<g id="a_node16"><a xlink:href="_attendees_controller_8hxx.html" target="_top" xlink:title=" ">
<polygon fill="none" stroke="#000000" points="1250.8032,-250.5 1250.8032,-268.5 1372.98,-268.5 1372.98,-250.5 1250.8032,-250.5"/>
<text text-anchor="middle" x="1311.8916" y="-256.5" font-family="Helvetica,sans-Serif" font-size="10.00" fill="#000000">AttendeesController.hxx</text>
</a>
</g>
</g>
<!-- Node0&#45;&gt;Node18 -->
<g id="edge20" class="edge">
<title>Node0&#45;&gt;Node18</title>
<path fill="none" stroke="#191970" d="M2030.1875,-371.5936C1871.3163,-346.801 1526.2407,-292.9502 1379.7985,-270.0972"/>
<polygon fill="#191970" stroke="#191970" points="1380.0233,-266.59 1369.6032,-268.5062 1378.9439,-273.5063 1380.0233,-266.59"/>
</g>
<!-- Node30 -->
<g id="node19" class="node">
<title>Node30</title>
<g id="a_node19"><a xlink:href="_attendees_manager_8hxx.html" target="_top" xlink:title=" ">
<polygon fill="none" stroke="#000000" points="1453.7441,-250.5 1453.7441,-268.5 1572.0391,-268.5 1572.0391,-250.5 1453.7441,-250.5"/>
<text text-anchor="middle" x="1512.8916" y="-256.5" font-family="Helvetica,sans-Serif" font-size="10.00" fill="#000000">AttendeesManager.hxx</text>
</a>
</g>
</g>
<!-- Node0&#45;&gt;Node30 -->
<g id="edge29" class="edge">
<title>Node0&#45;&gt;Node30</title>
<path fill="none" stroke="#191970" d="M2030.0941,-367.2505C1905.0255,-341.1946 1671.4036,-292.5233 1566.4093,-270.6495"/>
<polygon fill="#191970" stroke="#191970" points="1566.8608,-267.1685 1556.3571,-268.5553 1565.4331,-274.0214 1566.8608,-267.1685"/>
</g>
<!-- Node39 -->
<g id="node25" class="node">
<title>Node39</title>
<g id="a_node25"><a xlink:href="_recording_controller_8hxx.html" target="_top" xlink:title=" ">
<polygon fill="none" stroke="#000000" points="1005.5298,-305.5 1005.5298,-323.5 1128.2534,-323.5 1128.2534,-305.5 1005.5298,-305.5"/>
<text text-anchor="middle" x="1066.8916" y="-311.5" font-family="Helvetica,sans-Serif" font-size="10.00" fill="#000000">RecordingController.hxx</text>
</a>
</g>
</g>
<!-- Node0&#45;&gt;Node39 -->
<g id="edge43" class="edge">
<title>Node0&#45;&gt;Node39</title>
<path fill="none" stroke="#191970" d="M2030.3771,-378.978C1831.0702,-365.6401 1326.0557,-331.8437 1138.4795,-319.2908"/>
<polygon fill="#191970" stroke="#191970" points="1138.6637,-315.7954 1128.4522,-318.6197 1138.1962,-322.7797 1138.6637,-315.7954"/>
</g>
<!-- Node42 -->
<g id="node28" class="node">
<title>Node42</title>
<g id="a_node28"><a xlink:href="_presentation_controller_8hxx.html" target="_top" xlink:title=" ">
<polygon fill="none" stroke="#000000" points="1999.2466,-305.5 1999.2466,-323.5 2132.5366,-323.5 2132.5366,-305.5 1999.2466,-305.5"/>
<text text-anchor="middle" x="2065.8916" y="-311.5" font-family="Helvetica,sans-Serif" font-size="10.00" fill="#000000">PresentationController.hxx</text>
</a>
</g>
</g>
<!-- Node0&#45;&gt;Node42 -->
<g id="edge58" class="edge">
<title>Node0&#45;&gt;Node42</title>
<path fill="none" stroke="#191970" d="M2096.7169,-360.41C2090.4768,-351.1162 2083.471,-340.6821 2077.7171,-332.1124"/>
<polygon fill="#191970" stroke="#191970" points="2080.5403,-330.0384 2072.0602,-323.6872 2074.7288,-333.9405 2080.5403,-330.0384"/>
</g>
<!-- Node43 -->
<g id="node29" class="node">
<title>Node43</title>
<g id="a_node29"><a xlink:href="_chat_controller_8hxx.html" target="_top" xlink:title=" ">
<polygon fill="none" stroke="#000000" points="2561.7588,-250.5 2561.7588,-268.5 2660.0244,-268.5 2660.0244,-250.5 2561.7588,-250.5"/>
<text text-anchor="middle" x="2610.8916" y="-256.5" font-family="Helvetica,sans-Serif" font-size="10.00" fill="#000000">ChatController.hxx</text>
</a>
</g>
</g>
<!-- Node0&#45;&gt;Node43 -->
<g id="edge67" class="edge">
<title>Node0&#45;&gt;Node43</title>
<path fill="none" stroke="#191970" d="M2195.4055,-363.7887C2301.2563,-337.2197 2481.1865,-292.0565 2565.1748,-270.9751"/>
<polygon fill="#191970" stroke="#191970" points="2566.0832,-274.3558 2574.9302,-268.5265 2564.3789,-267.5664 2566.0832,-274.3558"/>
</g>
<!-- Node45 -->
<g id="node31" class="node">
<title>Node45</title>
<g id="a_node31"><a xlink:href="_meeting_attendee_8hxx.html" target="_top" xlink:title=" ">
<polygon fill="none" stroke="#000000" points="3692.9165,-250.5 3692.9165,-268.5 3802.8667,-268.5 3802.8667,-250.5 3692.9165,-250.5"/>
<text text-anchor="middle" x="3747.8916" y="-256.5" font-family="Helvetica,sans-Serif" font-size="10.00" fill="#000000">MeetingAttendee.hxx</text>
</a>
</g>
</g>
<!-- Node0&#45;&gt;Node45 -->
<g id="edge74" class="edge">
<title>Node0&#45;&gt;Node45</title>
<path fill="none" stroke="#191970" d="M2195.7253,-380.7907C2428.5535,-369.855 3108.6827,-334.4119 3682.6271,-269.0791"/>
<polygon fill="#191970" stroke="#191970" points="3683.2263,-272.5335 3692.7643,-267.9208 3682.4316,-265.5787 3683.2263,-272.5335"/>
</g>
<!-- Node46 -->
<g id="node33" class="node">
<title>Node46</title>
<g id="a_node33"><a xlink:href="_meeting_client_8hxx.html" target="_top" xlink:title=" ">
<polygon fill="none" stroke="#ff0000" points="3026.1504,-250.5 3026.1504,-268.5 3121.6328,-268.5 3121.6328,-250.5 3026.1504,-250.5"/>
<text text-anchor="middle" x="3073.8916" y="-256.5" font-family="Helvetica,sans-Serif" font-size="10.00" fill="#000000">MeetingClient.hxx</text>
</a>
</g>
</g>
<!-- Node0&#45;&gt;Node46 -->
<g id="edge84" class="edge">
<title>Node0&#45;&gt;Node46</title>
<path fill="none" stroke="#191970" d="M2195.6577,-373.7344C2386.1086,-348.9619 2851.5977,-288.4144 3015.5695,-267.0861"/>
<polygon fill="#191970" stroke="#191970" points="3016.4629,-270.4995 3025.9279,-265.7388 3015.5599,-263.558 3016.4629,-270.4995"/>
</g>
<!-- Node61 -->
<g id="node40" class="node">
<title>Node61</title>
<g id="a_node40"><a xlink:href="_r_t_notifications_definitions_8hxx.html" target="_top" xlink:title=" ">
<polygon fill="none" stroke="#000000" points="3730.5659,-305.5 3730.5659,-323.5 3879.2173,-323.5 3879.2173,-305.5 3730.5659,-305.5"/>
<text text-anchor="middle" x="3804.8916" y="-311.5" font-family="Helvetica,sans-Serif" font-size="10.00" fill="#000000">RTNotificationsDefinitions.hxx</text>
</a>
</g>
</g>
<!-- Node0&#45;&gt;Node61 -->
<g id="edge102" class="edge">
<title>Node0&#45;&gt;Node61</title>
<path fill="none" stroke="#191970" d="M2195.6446,-383.4169C2432.8225,-379.8734 3135.311,-366.3083 3716.8916,-324 3718.0027,-323.9192 3719.1215,-323.8353 3720.2466,-323.7486"/>
<polygon fill="#191970" stroke="#191970" points="3720.8303,-327.2124 3730.5074,-322.8992 3720.2527,-320.2362 3720.8303,-327.2124"/>
</g>
<!-- Node62 -->
<g id="node41" class="node">
<title>Node62</title>
<g id="a_node41"><a xlink:href="_screen_sharing_controller_8hxx.html" target="_top" xlink:title=" ">
<polygon fill="none" stroke="#ff0000" points="1818.2441,-250.5 1818.2441,-268.5 1961.5391,-268.5 1961.5391,-250.5 1818.2441,-250.5"/>
<text text-anchor="middle" x="1889.8916" y="-256.5" font-family="Helvetica,sans-Serif" font-size="10.00" fill="#000000">ScreenSharingController.hxx</text>
</a>
</g>
</g>
<!-- Node0&#45;&gt;Node62 -->
<g id="edge103" class="edge">
<title>Node0&#45;&gt;Node62</title>
<path fill="none" stroke="#191970" d="M2060.7345,-360.4917C2038.5871,-349.8762 2012.6737,-336.8929 1989.8916,-324 1961.9824,-308.2055 1931.1524,-287.8507 1911.2049,-274.273"/>
<polygon fill="#191970" stroke="#191970" points="1913.083,-271.3171 1902.8552,-268.5523 1909.1265,-277.0917 1913.083,-271.3171"/>
</g>
<!-- Node67 -->
<g id="node42" class="node">
<title>Node67</title>
<g id="a_node42"><a xlink:href="_video_controller_8hxx.html" target="_top" xlink:title=" ">
<polygon fill="none" stroke="#ff0000" points="2814.6201,-250.5 2814.6201,-268.5 2917.1631,-268.5 2917.1631,-250.5 2814.6201,-250.5"/>
<text text-anchor="middle" x="2865.8916" y="-256.5" font-family="Helvetica,sans-Serif" font-size="10.00" fill="#000000">VideoController.hxx</text>
</a>
</g>
</g>
<!-- Node0&#45;&gt;Node67 -->
<g id="edge112" class="edge">
<title>Node0&#45;&gt;Node67</title>
<path fill="none" stroke="#191970" d="M2195.6298,-370.7652C2347.9202,-345.4846 2669.3484,-292.1267 2804.2432,-269.7338"/>
<polygon fill="#191970" stroke="#191970" points="2805.1082,-273.1382 2814.4,-268.0477 2803.9618,-266.2327 2805.1082,-273.1382"/>
</g>
<!-- Node69 -->
<g id="node43" class="node">
<title>Node69</title>
<g id="a_node43"><a xlink:href="_basic_handler_8hxx.html" target="_top" xlink:title=" ">
<polygon fill="none" stroke="#000000" points="350.2588,-250.5 350.2588,-268.5 443.5244,-268.5 443.5244,-250.5 350.2588,-250.5"/>
<text text-anchor="middle" x="396.8916" y="-256.5" font-family="Helvetica,sans-Serif" font-size="10.00" fill="#000000">BasicHandler.hxx</text>
</a>
</g>
</g>
<!-- Node0&#45;&gt;Node69 -->
<g id="edge122" class="edge">
<title>Node0&#45;&gt;Node69</title>
<path fill="none" stroke="#191970" d="M2030.1307,-383.2126C1705.0711,-377.9325 530.0714,-356.6595 457.8916,-324 436.2625,-314.2134 418.5777,-292.8531 407.921,-277.3896"/>
<polygon fill="#191970" stroke="#191970" points="410.6258,-275.1308 402.2215,-268.6795 404.7684,-278.9637 410.6258,-275.1308"/>
</g>
<!-- Node70 -->
<g id="node44" class="node">
<title>Node70</title>
<g id="a_node44"><a xlink:href="_broadcast_handler_8hxx.html" target="_top" xlink:title=" ">
<polygon fill="none" stroke="#000000" points="499.9731,-250.5 499.9731,-268.5 613.8101,-268.5 613.8101,-250.5 499.9731,-250.5"/>
<text text-anchor="middle" x="556.8916" y="-256.5" font-family="Helvetica,sans-Serif" font-size="10.00" fill="#000000">BroadcastHandler.hxx</text>
</a>
</g>
</g>
<!-- Node0&#45;&gt;Node70 -->
<g id="edge128" class="edge">
<title>Node0&#45;&gt;Node70</title>
<path fill="none" stroke="#191970" d="M2030.3122,-383.1439C1840.921,-379.3821 1360.8776,-366.1385 961.8916,-324 836.8699,-310.796 691.6394,-285.1216 613.5547,-270.461"/>
<polygon fill="#191970" stroke="#191970" points="613.9266,-266.9695 603.4511,-268.555 612.6289,-273.8482 613.9266,-266.9695"/>
</g>
<!-- Node71 -->
<g id="node45" class="node">
<title>Node71</title>
<g id="a_node45"><a xlink:href="_conference_descriptor_8hxx.html" target="_top" xlink:title=" ">
<polygon fill="none" stroke="#000000" points="3517.0225,-250.5 3517.0225,-268.5 3674.7607,-268.5 3674.7607,-250.5 3517.0225,-250.5"/>
<text text-anchor="middle" x="3595.8916" y="-256.5" font-family="Helvetica,sans-Serif" font-size="10.00" fill="#000000">types/ConferenceDescriptor.hxx</text>
</a>
</g>
</g>
<!-- Node0&#45;&gt;Node71 -->
<g id="edge135" class="edge">
<title>Node0&#45;&gt;Node71</title>
<path fill="none" stroke="#191970" d="M2195.51,-378.4575C2409.9858,-362.5994 3002.328,-317.7068 3506.7171,-269.0966"/>
<polygon fill="#191970" stroke="#191970" points="3507.1287,-272.5732 3516.7461,-268.1285 3506.456,-265.6056 3507.1287,-272.5732"/>
</g>
<!-- Node72 -->
<g id="node46" class="node">
<title>Node72</title>
<g id="a_node46"><a xlink:href="_conference_state_8hxx.html" target="_top" xlink:title=" ">
<polygon fill="none" stroke="#000000" points="4135.8574,-190.5 4135.8574,-208.5 4271.9258,-208.5 4271.9258,-190.5 4135.8574,-190.5"/>
<text text-anchor="middle" x="4203.8916" y="-196.5" font-family="Helvetica,sans-Serif" font-size="10.00" fill="#000000">types/ConferenceState.hxx</text>
</a>
</g>
</g>
<!-- Node0&#45;&gt;Node72 -->
<g id="edge143" class="edge">
<title>Node0&#45;&gt;Node72</title>
<path fill="none" stroke="#191970" d="M2195.4991,-382.7736C2442.1513,-376.7856 3194.4339,-352.4703 3811.8916,-269 3933.2402,-252.5956 4074.3746,-225.6102 4149.7896,-210.5458"/>
<polygon fill="#191970" stroke="#191970" points="4150.869,-213.8992 4159.9859,-208.5017 4149.493,-207.0357 4150.869,-213.8992"/>
</g>
<!-- Node73 -->
<g id="node47" class="node">
<title>Node73</title>
<g id="a_node47"><a xlink:href="_group_descriptor_8hxx.html" target="_top" xlink:title=" ">
<polygon fill="none" stroke="#ff0000" points="3364.9756,-250.5 3364.9756,-268.5 3498.8076,-268.5 3498.8076,-250.5 3364.9756,-250.5"/>
<text text-anchor="middle" x="3431.8916" y="-256.5" font-family="Helvetica,sans-Serif" font-size="10.00" fill="#000000">types/GroupDescriptor.hxx</text>
</a>
</g>
</g>
<!-- Node0&#45;&gt;Node73 -->
<g id="edge144" class="edge">
<title>Node0&#45;&gt;Node73</title>
<path fill="none" stroke="#191970" d="M2195.401,-376.6807C2434.085,-354.0609 3122.9978,-288.7735 3354.7632,-266.8094"/>
<polygon fill="#191970" stroke="#191970" points="3355.1683,-270.2867 3364.7935,-265.8588 3354.5079,-263.318 3355.1683,-270.2867"/>
</g>
<!-- Node74 -->
<g id="node48" class="node">
<title>Node74</title>
<g id="a_node48"><a xlink:title=" ">
<polygon fill="none" stroke="#bfbfbf" points="3897.4263,-305.5 3897.4263,-323.5 3962.3569,-323.5 3962.3569,-305.5 3897.4263,-305.5"/>
<text text-anchor="middle" x="3929.8916" y="-311.5" font-family="Helvetica,sans-Serif" font-size="10.00" fill="#000000">Logger.hxx</text>
</a>
</g>
</g>
<!-- Node0&#45;&gt;Node74 -->
<g id="edge150" class="edge">
<title>Node0&#45;&gt;Node74</title>
<path fill="none" stroke="#191970" d="M2195.5299,-383.7489C2496.4695,-380.6949 3534.162,-367.2963 3886.9972,-323.8219"/>
<polygon fill="#191970" stroke="#191970" points="3887.4994,-327.2864 3896.9815,-322.5598 3886.6215,-320.3416 3887.4994,-327.2864"/>
</g>
<!-- Node75 -->
<g id="node49" class="node">
<title>Node75</title>
<g id="a_node49"><a xlink:href="_utils_8hxx.html" target="_top" xlink:title=" ">
<polygon fill="none" stroke="#ff0000" points="0,-190.5 0,-208.5 53.7832,-208.5 53.7832,-190.5 0,-190.5"/>
<text text-anchor="middle" x="26.8916" y="-196.5" font-family="Helvetica,sans-Serif" font-size="10.00" fill="#000000">Utils.hxx</text>
</a>
</g>
</g>
<!-- Node0&#45;&gt;Node75 -->
<g id="edge151" class="edge">
<title>Node0&#45;&gt;Node75</title>
<path fill="none" stroke="#191970" d="M2030.3151,-382.7962C1736.8829,-376.5444 745.1931,-353.6771 428.8916,-324 267.3054,-308.8391 202.3418,-359.9015 67.8916,-269 50.1842,-257.028 39.02,-234.6386 32.8896,-218.5023"/>
<polygon fill="#191970" stroke="#191970" points="36.1651,-217.2655 29.5698,-208.9738 29.5548,-219.5686 36.1651,-217.2655"/>
</g>
<!-- Node79 -->
<g id="node50" class="node">
<title>Node79</title>
<g id="a_node50"><a xlink:title=" ">
<polygon fill="none" stroke="#bfbfbf" points="3980.6948,-305.5 3980.6948,-323.5 4095.0884,-323.5 4095.0884,-305.5 3980.6948,-305.5"/>
<text text-anchor="middle" x="4037.8916" y="-311.5" font-family="Helvetica,sans-Serif" font-size="10.00" fill="#000000">boost/lexical_cast.hpp</text>
</a>
</g>
</g>
<!-- Node0&#45;&gt;Node79 -->
<g id="edge154" class="edge">
<title>Node0&#45;&gt;Node79</title>
<path fill="none" stroke="#191970" d="M2195.5098,-383.0017C2505.2957,-377.2 3598.6197,-355.025 3970.5658,-323.8993"/>
<polygon fill="#191970" stroke="#191970" points="3970.8905,-327.3844 3980.5563,-323.0459 3970.2947,-320.4098 3970.8905,-327.3844"/>
</g>
<!-- Node2 -->
<g id="node3" class="node">
<title>Node2</title>
<g id="a_node3"><a xlink:title=" ">
<polygon fill="none" stroke="#bfbfbf" points="305.0273,-125.5 305.0273,-143.5 402.7559,-143.5 402.7559,-125.5 305.0273,-125.5"/>
<text text-anchor="middle" x="353.8916" y="-131.5" font-family="Helvetica,sans-Serif" font-size="10.00" fill="#000000">boost/function.hpp</text>
</a>
</g>
</g>
<!-- Node1&#45;&gt;Node2 -->
<g id="edge2" class="edge">
<title>Node1&#45;&gt;Node2</title>
<path fill="none" stroke="#191970" d="M888.0344,-250.3701C864.3034,-242.611 831.2282,-230.1601 804.8916,-214 788.2495,-203.7884 789.7972,-192.7862 771.8916,-185 624.0266,-120.7011 569.6902,-176.9539 410.8916,-149 406.0551,-148.1486 401.0241,-147.1054 396.0424,-145.9724"/>
<polygon fill="#191970" stroke="#191970" points="396.5047,-142.484 385.964,-143.5535 394.871,-149.2907 396.5047,-142.484"/>
</g>
<!-- Node3 -->
<g id="node4" class="node">
<title>Node3</title>
<g id="a_node4"><a xlink:title=" ">
<polygon fill="none" stroke="#bfbfbf" points="1900.9092,-125.5 1900.9092,-143.5 2010.874,-143.5 2010.874,-125.5 1900.9092,-125.5"/>
<text text-anchor="middle" x="1955.8916" y="-131.5" font-family="Helvetica,sans-Serif" font-size="10.00" fill="#000000">boost/shared_ptr.hpp</text>
</a>
</g>
</g>
<!-- Node1&#45;&gt;Node3 -->
<g id="edge3" class="edge">
<title>Node1&#45;&gt;Node3</title>
<path fill="none" stroke="#191970" d="M934.8316,-250.3121C964.4405,-233.775 1030.4237,-199.3835 1090.8916,-185 1242.7195,-148.8847 1716.6776,-138.1382 1890.8427,-135.3623"/>
<polygon fill="#191970" stroke="#191970" points="1890.9449,-138.8612 1900.8892,-135.2058 1890.8358,-131.8621 1890.9449,-138.8612"/>
</g>
<!-- Node4 -->
<g id="node5" class="node">
<title>Node4</title>
<g id="a_node5"><a xlink:title=" ">
<polygon fill="none" stroke="#bfbfbf" points="2893.5815,-190.5 2893.5815,-208.5 3010.2017,-208.5 3010.2017,-190.5 2893.5815,-190.5"/>
<text text-anchor="middle" x="2951.8916" y="-196.5" font-family="Helvetica,sans-Serif" font-size="10.00" fill="#000000">boost/thread/locks.hpp</text>
</a>
</g>
</g>
<!-- Node1&#45;&gt;Node4 -->
<g id="edge4" class="edge">
<title>Node1&#45;&gt;Node4</title>
<path fill="none" stroke="#191970" d="M991.3675,-257.2238C1056.8273,-255.2024 1155.806,-252.2314 1241.8916,-250 1955.1648,-231.5116 2135.651,-270.8969 2846.8916,-214 2859.3394,-213.0042 2872.5659,-211.5175 2885.2835,-209.8701"/>
<polygon fill="#191970" stroke="#191970" points="2885.9028,-213.3185 2895.3491,-208.5208 2884.9727,-206.3805 2885.9028,-213.3185"/>
</g>
<!-- Node5 -->
<g id="node6" class="node">
<title>Node5</title>
<g id="a_node6"><a xlink:title=" ">
<polygon fill="none" stroke="#bfbfbf" points="641.3574,-190.5 641.3574,-208.5 762.4258,-208.5 762.4258,-190.5 641.3574,-190.5"/>
<text text-anchor="middle" x="701.8916" y="-196.5" font-family="Helvetica,sans-Serif" font-size="10.00" fill="#000000">boost/thread/mutex.hpp</text>
</a>
</g>
</g>
<!-- Node1&#45;&gt;Node5 -->
<g id="edge5" class="edge">
<title>Node1&#45;&gt;Node5</title>
<path fill="none" stroke="#191970" d="M885.934,-250.3873C848.0354,-239.9084 785.7255,-222.6799 744.2558,-211.2136"/>
<polygon fill="#191970" stroke="#191970" points="745.0195,-207.7935 734.4484,-208.5019 743.154,-214.5404 745.0195,-207.7935"/>
</g>
<!-- Node6 -->
<g id="node7" class="node">
<title>Node6</title>
<g id="a_node7"><a xlink:title=" ">
<polygon fill="none" stroke="#bfbfbf" points="895.3916,-190.5 895.3916,-208.5 924.3916,-208.5 924.3916,-190.5 895.3916,-190.5"/>
<text text-anchor="middle" x="909.5024" y="-196.5" font-family="Helvetica,sans-Serif" font-size="10.00" fill="#000000">list</text>
</a>
</g>
</g>
<!-- Node1&#45;&gt;Node6 -->
<g id="edge6" class="edge">
<title>Node1&#45;&gt;Node6</title>
<path fill="none" stroke="#191970" d="M917.5247,-250.3873C916.2692,-242.0174 914.3678,-229.3414 912.7768,-218.735"/>
<polygon fill="#191970" stroke="#191970" points="916.2161,-218.0686 911.2714,-208.6985 909.2936,-219.1071 916.2161,-218.0686"/>
</g>
<!-- Node7 -->
<g id="node8" class="node">
<title>Node7</title>
<g id="a_node8"><a xlink:title=" ">
<polygon fill="none" stroke="#bfbfbf" points="588.165,-190.5 588.165,-208.5 623.6182,-208.5 623.6182,-190.5 588.165,-190.5"/>
<text text-anchor="middle" x="605.8916" y="-196.5" font-family="Helvetica,sans-Serif" font-size="10.00" fill="#000000">map</text>
</a>
</g>
</g>
<!-- Node1&#45;&gt;Node7 -->
<g id="edge7" class="edge">
<title>Node1&#45;&gt;Node7</title>
<path fill="none" stroke="#191970" d="M846.4268,-255.0692C787.3527,-249.7988 702.4545,-238.4047 631.8916,-214 631.0154,-213.697 630.1344,-213.3652 629.2535,-213.0103"/>
<polygon fill="#191970" stroke="#191970" points="630.5743,-209.7615 620.0467,-208.5701 627.5335,-216.0666 630.5743,-209.7615"/>
</g>
<!-- Node8 -->
<g id="node9" class="node">
<title>Node8</title>
<g id="a_node9"><a xlink:title=" ">
<polygon fill="none" stroke="#bfbfbf" points="2608.665,-.5 2608.665,-18.5 2649.1182,-18.5 2649.1182,-.5 2608.665,-.5"/>
<text text-anchor="middle" x="2628.8916" y="-6.5" font-family="Helvetica,sans-Serif" font-size="10.00" fill="#000000">string</text>
</a>
</g>
</g>
<!-- Node1&#45;&gt;Node8 -->
<g id="edge8" class="edge">
<title>Node1&#45;&gt;Node8</title>
<path fill="none" stroke="#191970" d="M907.8678,-250.4418C880.3864,-226.8074 813.5799,-162.184 849.8916,-120 976.5594,27.1524 1088.5436,-72.7515 1281.8916,-55 1549.7755,-30.4053 2423.1178,-13.2852 2598.1766,-10.0541"/>
<polygon fill="#191970" stroke="#191970" points="2598.308,-13.5523 2608.2421,-9.8694 2598.1795,-6.5535 2598.308,-13.5523"/>
</g>
<!-- Node9 -->
<g id="node10" class="node">
<title>Node9</title>
<g id="a_node10"><a xlink:title=" ">
<polygon fill="none" stroke="#bfbfbf" points="420.2759,-125.5 420.2759,-143.5 463.5073,-143.5 463.5073,-125.5 420.2759,-125.5"/>
<text text-anchor="middle" x="441.8916" y="-131.5" font-family="Helvetica,sans-Serif" font-size="10.00" fill="#000000">vector</text>
</a>
</g>
</g>
<!-- Node1&#45;&gt;Node9 -->
<g id="edge9" class="edge">
<title>Node1&#45;&gt;Node9</title>
<path fill="none" stroke="#191970" d="M905.6757,-250.3928C878.0529,-231.4272 815.8508,-189.1067 804.8916,-185 744.2875,-162.2898 550.7762,-143.7836 473.8584,-137.1409"/>
<polygon fill="#191970" stroke="#191970" points="474.0661,-133.646 463.8048,-136.2831 473.471,-140.6206 474.0661,-133.646"/>
</g>
<!-- Node10 -->
<g id="node11" class="node">
<title>Node10</title>
<g id="a_node11"><a xlink:href="_meeting_types_8hxx.html" target="_top" xlink:title=" ">
<polygon fill="none" stroke="#ff0000" points="858.9805,-120.5 858.9805,-148.5 962.8027,-148.5 962.8027,-120.5 858.9805,-120.5"/>
<text text-anchor="start" x="866.9805" y="-136.5" font-family="Helvetica,sans-Serif" font-size="10.00" fill="#000000">MeetingClient/types</text>
<text text-anchor="middle" x="910.8916" y="-126.5" font-family="Helvetica,sans-Serif" font-size="10.00" fill="#000000">/MeetingTypes.hxx</text>
</a>
</g>
</g>
<!-- Node1&#45;&gt;Node10 -->
<g id="edge10" class="edge">
<title>Node1&#45;&gt;Node10</title>
<path fill="none" stroke="#191970" d="M923.2035,-250.3061C929.254,-236.2211 938.9838,-208.4662 933.8916,-185 931.8652,-175.6618 927.9563,-165.9788 923.9279,-157.62"/>
<polygon fill="#191970" stroke="#191970" points="926.9333,-155.8106 919.2497,-148.5158 920.7072,-159.01 926.9333,-155.8106"/>
</g>
<!-- Node15 -->
<g id="node13" class="node">
<title>Node15</title>
<g id="a_node13"><a xlink:href="_meeting_controller_base_8hxx.html" target="_top" xlink:title=" ">
<polygon fill="none" stroke="#000000" points="1670.8623,-190.5 1670.8623,-208.5 1806.9209,-208.5 1806.9209,-190.5 1670.8623,-190.5"/>
<text text-anchor="middle" x="1738.8916" y="-196.5" font-family="Helvetica,sans-Serif" font-size="10.00" fill="#000000">MeetingControllerBase.hxx</text>
</a>
</g>
</g>
<!-- Node1&#45;&gt;Node15 -->
<g id="edge13" class="edge">
<title>Node1&#45;&gt;Node15</title>
<path fill="none" stroke="#191970" d="M991.4152,-258.0645C1124.6727,-254.7601 1417.2584,-244.4032 1661.8916,-214 1669.8572,-213.01 1678.2416,-211.7061 1686.4286,-210.2854"/>
<polygon fill="#191970" stroke="#191970" points="1687.0565,-213.7287 1696.2757,-208.508 1685.813,-206.8401 1687.0565,-213.7287"/>
</g>
<!-- Node1&#45;&gt;Node16 -->
<g id="edge15" class="edge">
<title>Node1&#45;&gt;Node16</title>
<path fill="none" stroke="#191970" d="M846.3097,-251.1573C745.7951,-239.6039 565.4494,-218.8745 466.5244,-207.5038"/>
<polygon fill="#191970" stroke="#191970" points="466.6691,-203.9974 456.3348,-206.3325 465.8697,-210.9516 466.6691,-203.9974"/>
</g>
<!-- Node11 -->
<g id="node12" class="node">
<title>Node11</title>
<g id="a_node12"><a xlink:href="_common_data_types_8hxx.html" target="_top" xlink:title=" ">
<polygon fill="none" stroke="#ff0000" points="2452.1455,-55.5 2452.1455,-83.5 2577.6377,-83.5 2577.6377,-55.5 2452.1455,-55.5"/>
<text text-anchor="start" x="2460.1455" y="-71.5" font-family="Helvetica,sans-Serif" font-size="10.00" fill="#000000">MeetingClient/types</text>
<text text-anchor="middle" x="2514.8916" y="-61.5" font-family="Helvetica,sans-Serif" font-size="10.00" fill="#000000">/CommonDataTypes.hxx</text>
</a>
</g>
</g>
<!-- Node10&#45;&gt;Node11 -->
<g id="edge11" class="edge">
<title>Node10&#45;&gt;Node11</title>
<path fill="none" stroke="#191970" d="M962.977,-122.1322C967.6633,-121.3001 972.3517,-120.5683 976.8916,-120 1265.6257,-83.8534 2176.6258,-72.657 2441.804,-70.1223"/>
<polygon fill="#191970" stroke="#191970" points="2442.1168,-73.6196 2452.0833,-70.0253 2442.0507,-66.6199 2442.1168,-73.6196"/>
</g>
<!-- Node11&#45;&gt;Node8 -->
<g id="edge12" class="edge">
<title>Node11&#45;&gt;Node8</title>
<path fill="none" stroke="#191970" d="M2541.6195,-55.4327C2560.0012,-45.7581 2584.2999,-32.9693 2602.5893,-23.3433"/>
<polygon fill="#191970" stroke="#191970" points="2604.3235,-26.3858 2611.5426,-18.6311 2601.0633,-20.1914 2604.3235,-26.3858"/>
</g>
<!-- Node15&#45;&gt;Node3 -->
<g id="edge14" class="edge">
<title>Node15&#45;&gt;Node3</title>
<path fill="none" stroke="#191970" d="M1769.0645,-190.462C1807.3382,-178.9976 1873.4554,-159.1929 1915.9006,-146.4789"/>
<polygon fill="#191970" stroke="#191970" points="1917.0508,-149.7881 1925.6259,-143.5658 1915.0421,-143.0824 1917.0508,-149.7881"/>
</g>
<!-- Node16&#45;&gt;Node2 -->
<g id="edge17" class="edge">
<title>Node16&#45;&gt;Node2</title>
<path fill="none" stroke="#191970" d="M390.9126,-190.462C384.4396,-180.6773 373.9476,-164.8172 365.783,-152.4753"/>
<polygon fill="#191970" stroke="#191970" points="368.5347,-150.2913 360.0982,-143.8821 362.6966,-154.1534 368.5347,-150.2913"/>
</g>
<!-- Node16&#45;&gt;Node9 -->
<g id="edge16" class="edge">
<title>Node16&#45;&gt;Node9</title>
<path fill="none" stroke="#191970" d="M403.1487,-190.462C409.9891,-180.5813 421.1185,-164.5056 429.6977,-152.1134"/>
<polygon fill="#191970" stroke="#191970" points="432.5818,-154.0963 435.3963,-143.8821 426.8265,-150.1118 432.5818,-154.0963"/>
</g>
<!-- Node16&#45;&gt;Node10 -->
<g id="edge18" class="edge">
<title>Node16&#45;&gt;Node10</title>
<path fill="none" stroke="#191970" d="M439.2482,-190.4754C449.2673,-188.5105 459.934,-186.5564 469.8916,-185 604.3309,-163.9869 763.1142,-147.9362 848.7022,-139.999"/>
<polygon fill="#191970" stroke="#191970" points="849.1337,-143.4742 858.7704,-139.0715 848.4914,-136.5037 849.1337,-143.4742"/>
</g>
<!-- Node17 -->
<g id="node15" class="node">
<title>Node17</title>
<g id="a_node15"><a xlink:href="macros_8hxx.html" target="_top" xlink:title=" ">
<polygon fill="none" stroke="#000000" points="1095.3696,-125.5 1095.3696,-143.5 1226.4136,-143.5 1226.4136,-125.5 1095.3696,-125.5"/>
<text text-anchor="middle" x="1160.8916" y="-131.5" font-family="Helvetica,sans-Serif" font-size="10.00" fill="#000000">MeetingClient/macros.hxx</text>
</a>
</g>
</g>
<!-- Node16&#45;&gt;Node17 -->
<g id="edge19" class="edge">
<title>Node16&#45;&gt;Node17</title>
<path fill="none" stroke="#191970" d="M437.6672,-190.4695C448.1275,-188.4096 459.391,-186.4138 469.8916,-185 691.5754,-155.1527 748.821,-165.5554 971.8916,-149 1009.2292,-146.229 1050.7082,-143.0571 1085.2733,-140.388"/>
<polygon fill="#191970" stroke="#191970" points="1085.5961,-143.8736 1095.2966,-139.6131 1085.0565,-136.8944 1085.5961,-143.8736"/>
</g>
<!-- Node18&#45;&gt;Node3 -->
<g id="edge22" class="edge">
<title>Node18&#45;&gt;Node3</title>
<path fill="none" stroke="#191970" d="M1301.4721,-250.4712C1285.2478,-235.3637 1257.6139,-204.6854 1275.8916,-185 1296.6389,-162.6547 1724.5605,-143.5629 1890.725,-136.9645"/>
<polygon fill="#191970" stroke="#191970" points="1890.9575,-140.4581 1900.8117,-136.5665 1890.6815,-133.4636 1890.9575,-140.4581"/>
</g>
<!-- Node18&#45;&gt;Node7 -->
<g id="edge28" class="edge">
<title>Node18&#45;&gt;Node7</title>
<path fill="none" stroke="#191970" d="M1250.6072,-256.9378C1094.5393,-250.1948 690.285,-231.2837 631.8916,-214 630.8261,-213.6846 629.7562,-213.3199 628.6901,-212.9165"/>
<polygon fill="#191970" stroke="#191970" points="629.9572,-209.6438 619.422,-208.5214 626.9578,-215.9687 629.9572,-209.6438"/>
</g>
<!-- Node18&#45;&gt;Node8 -->
<g id="edge23" class="edge">
<title>Node18&#45;&gt;Node8</title>
<path fill="none" stroke="#191970" d="M1267.8194,-250.437C1186.1559,-231.8248 1024.9411,-185.4715 1085.8916,-120 1139.4593,-62.4589 2386.1821,-17.7256 2598.3363,-10.5175"/>
<polygon fill="#191970" stroke="#191970" points="2598.5764,-14.0115 2608.4525,-10.1757 2598.34,-7.0155 2598.5764,-14.0115"/>
</g>
<!-- Node18&#45;&gt;Node11 -->
<g id="edge26" class="edge">
<title>Node18&#45;&gt;Node11</title>
<path fill="none" stroke="#191970" d="M1298.5805,-250.2751C1279.883,-236.1496 1249.7325,-208.3425 1264.8916,-185 1303.5774,-125.4303 1341.7701,-136.351 1410.8916,-120 1510.5358,-96.4286 2211.6436,-77.0538 2441.8521,-71.2667"/>
<polygon fill="#191970" stroke="#191970" points="2442.2197,-74.7586 2452.129,-71.0095 2442.0445,-67.7608 2442.2197,-74.7586"/>
</g>
<!-- Node18&#45;&gt;Node15 -->
<g id="edge27" class="edge">
<title>Node18&#45;&gt;Node15</title>
<path fill="none" stroke="#191970" d="M1373.0568,-252.6165C1443.0339,-244.4936 1560.9832,-230.0469 1661.8916,-214 1668.7514,-212.9091 1675.9382,-211.6765 1683.0485,-210.4022"/>
<polygon fill="#191970" stroke="#191970" points="1684.1565,-213.7577 1693.3643,-208.5168 1682.898,-206.8718 1684.1565,-213.7577"/>
</g>
<!-- Node19 -->
<g id="node17" class="node">
<title>Node19</title>
<g id="a_node17"><a xlink:title=" ">
<polygon fill="none" stroke="#bfbfbf" points="1977.1875,-185.5 1977.1875,-213.5 2086.5957,-213.5 2086.5957,-185.5 1977.1875,-185.5"/>
<text text-anchor="start" x="1985.1875" y="-201.5" font-family="Helvetica,sans-Serif" font-size="10.00" fill="#000000">boost/enable_shared</text>
<text text-anchor="middle" x="2031.8916" y="-191.5" font-family="Helvetica,sans-Serif" font-size="10.00" fill="#000000">_from_this.hpp</text>
</a>
</g>
</g>
<!-- Node18&#45;&gt;Node19 -->
<g id="edge21" class="edge">
<title>Node18&#45;&gt;Node19</title>
<path fill="none" stroke="#191970" d="M1373.2784,-254.3844C1508.1421,-243.1458 1829.2177,-216.3895 1967.1289,-204.8969"/>
<polygon fill="#191970" stroke="#191970" points="1967.4579,-208.3817 1977.1327,-204.0632 1966.8766,-201.4059 1967.4579,-208.3817"/>
</g>
<!-- Node20 -->
<g id="node18" class="node">
<title>Node20</title>
<g id="a_node18"><a xlink:href="_i_attendee_notifications_delegate_8hxx.html" target="_top" xlink:title=" ">
<polygon fill="none" stroke="#ff0000" points="1285.3477,-185.5 1285.3477,-213.5 1446.4355,-213.5 1446.4355,-185.5 1285.3477,-185.5"/>
<text text-anchor="start" x="1293.3477" y="-201.5" font-family="Helvetica,sans-Serif" font-size="10.00" fill="#000000">Delegates/IAttendeeNotifications</text>
<text text-anchor="middle" x="1365.8916" y="-191.5" font-family="Helvetica,sans-Serif" font-size="10.00" fill="#000000">Delegate.hxx</text>
</a>
</g>
</g>
<!-- Node18&#45;&gt;Node20 -->
<g id="edge24" class="edge">
<title>Node18&#45;&gt;Node20</title>
<path fill="none" stroke="#191970" d="M1320.093,-250.3873C1326.9842,-242.7304 1337.1187,-231.4698 1346.1035,-221.4868"/>
<polygon fill="#191970" stroke="#191970" points="1348.8906,-223.622 1352.9787,-213.8477 1343.6875,-218.9392 1348.8906,-223.622"/>
</g>
<!-- Node20&#45;&gt;Node11 -->
<g id="edge25" class="edge">
<title>Node20&#45;&gt;Node11</title>
<path fill="none" stroke="#191970" d="M1377.3187,-185.4165C1393.5935,-166.5514 1425.4339,-133.8483 1460.8916,-120 1551.5466,-84.5939 2217.9494,-73.1714 2441.7948,-70.3119"/>
<polygon fill="#191970" stroke="#191970" points="2442.1603,-73.8076 2452.1155,-70.1821 2442.0722,-66.8082 2442.1603,-73.8076"/>
</g>
<!-- Node30&#45;&gt;Node2 -->
<g id="edge30" class="edge">
<title>Node30&#45;&gt;Node2</title>
<path fill="none" stroke="#191970" d="M1453.6755,-251.9721C1383.0229,-242.981 1261.3282,-227.4647 1156.8916,-214 1057.7664,-201.2201 1033.3477,-194.8807 933.8916,-185 702.0385,-161.9661 640.9503,-185.8704 410.8916,-149 405.7307,-148.1729 400.3548,-147.0968 395.0561,-145.9044"/>
<polygon fill="#191970" stroke="#191970" points="395.5792,-142.4307 385.0387,-143.5029 393.9472,-149.2378 395.5792,-142.4307"/>
</g>
<!-- Node30&#45;&gt;Node3 -->
<g id="edge31" class="edge">
<title>Node30&#45;&gt;Node3</title>
<path fill="none" stroke="#191970" d="M1512.2167,-250.2797C1511.6062,-234.3124 1512.9221,-201.6313 1531.8916,-185 1558.3105,-161.8375 1778.1297,-145.286 1890.4143,-138.2566"/>
<polygon fill="#191970" stroke="#191970" points="1890.842,-141.7369 1900.6068,-137.6262 1890.4098,-134.7503 1890.842,-141.7369"/>
</g>
<!-- Node30&#45;&gt;Node4 -->
<g id="edge32" class="edge">
<title>Node30&#45;&gt;Node4</title>
<path fill="none" stroke="#191970" d="M1572.0657,-255.1194C1598.0744,-253.3172 1628.9883,-251.3421 1656.8916,-250 2185.4115,-224.5799 2319.6147,-258.2551 2846.8916,-214 2859.1907,-212.9677 2872.2526,-211.481 2884.8332,-209.8489"/>
<polygon fill="#191970" stroke="#191970" points="2885.3488,-213.3112 2894.7957,-208.5147 2884.4196,-206.3732 2885.3488,-213.3112"/>
</g>
<!-- Node30&#45;&gt;Node7 -->
<g id="edge34" class="edge">
<title>Node30&#45;&gt;Node7</title>
<path fill="none" stroke="#191970" d="M1453.5686,-254.8897C1431.1213,-253.2263 1405.336,-251.4125 1381.8916,-250 1215.3351,-239.9649 792.328,-259.8471 631.8916,-214 630.8232,-213.6947 629.7508,-213.3384 628.6827,-212.9418"/>
<polygon fill="#191970" stroke="#191970" points="629.9448,-209.6675 619.4065,-208.5746 626.9632,-216.0008 629.9448,-209.6675"/>
</g>
<!-- Node30&#45;&gt;Node9 -->
<g id="edge36" class="edge">
<title>Node30&#45;&gt;Node9</title>
<path fill="none" stroke="#191970" d="M1461.8888,-250.4602C1413.7923,-241.7578 1339.7554,-227.9032 1275.8916,-214 1222.7007,-202.4203 1210.6776,-193.3919 1156.8916,-185 895.3102,-144.1873 574.6947,-136.3319 473.8237,-134.8425"/>
<polygon fill="#191970" stroke="#191970" points="473.733,-131.341 463.686,-134.7037 473.6371,-138.3403 473.733,-131.341"/>
</g>
<!-- Node30&#45;&gt;Node11 -->
<g id="edge40" class="edge">
<title>Node30&#45;&gt;Node11</title>
<path fill="none" stroke="#191970" d="M1509.4168,-250.473C1504.147,-235.0919 1496.2984,-203.6608 1511.8916,-185 1571.4978,-113.6677 2221.0299,-81.2454 2441.8824,-72.2284"/>
<polygon fill="#191970" stroke="#191970" points="2442.2206,-75.7177 2452.0711,-71.8167 2441.9379,-68.7234 2442.2206,-75.7177"/>
</g>
<!-- Node30&#45;&gt;Node20 -->
<g id="edge41" class="edge">
<title>Node30&#45;&gt;Node20</title>
<path fill="none" stroke="#191970" d="M1490.5655,-250.3873C1469.177,-241.6573 1436.3111,-228.2427 1409.6927,-217.378"/>
<polygon fill="#191970" stroke="#191970" points="1410.7826,-214.0426 1400.2015,-213.504 1408.1373,-220.5235 1410.7826,-214.0426"/>
</g>
<!-- Node31 -->
<g id="node20" class="node">
<title>Node31</title>
<g id="a_node20"><a xlink:title=" ">
<polygon fill="none" stroke="#bfbfbf" points="3409.4165,-185.5 3409.4165,-213.5 3514.3667,-213.5 3514.3667,-185.5 3409.4165,-185.5"/>
<text text-anchor="start" x="3417.4165" y="-201.5" font-family="Helvetica,sans-Serif" font-size="10.00" fill="#000000">boost/thread/shared</text>
<text text-anchor="middle" x="3461.8916" y="-191.5" font-family="Helvetica,sans-Serif" font-size="10.00" fill="#000000">_mutex.hpp</text>
</a>
</g>
</g>
<!-- Node30&#45;&gt;Node31 -->
<g id="edge33" class="edge">
<title>Node30&#45;&gt;Node31</title>
<path fill="none" stroke="#191970" d="M1572.0602,-254.9975C1598.0678,-253.1732 1628.9824,-251.2145 1656.8916,-250 2414.5656,-217.0296 2607.128,-277.0743 3362.8916,-214 3374.7251,-213.0124 3387.2979,-211.5183 3399.3715,-209.8587"/>
<polygon fill="#191970" stroke="#191970" points="3399.963,-213.3098 3409.3687,-208.4331 3398.9747,-206.3799 3399.963,-213.3098"/>
</g>
<!-- Node32 -->
<g id="node21" class="node">
<title>Node32</title>
<g id="a_node21"><a xlink:title=" ">
<polygon fill="none" stroke="#bfbfbf" points="3301.8301,-190.5 3301.8301,-208.5 3353.9531,-208.5 3353.9531,-190.5 3301.8301,-190.5"/>
<text text-anchor="middle" x="3327.8916" y="-196.5" font-family="Helvetica,sans-Serif" font-size="10.00" fill="#000000">ostream</text>
</a>
</g>
</g>
<!-- Node30&#45;&gt;Node32 -->
<g id="edge35" class="edge">
<title>Node30&#45;&gt;Node32</title>
<path fill="none" stroke="#191970" d="M1572.0607,-255.0095C1598.0684,-253.1874 1628.983,-251.2271 1656.8916,-250 1838.5379,-242.0135 3114.9656,-251.4367 3292.8916,-214 3295.2268,-213.5087 3297.603,-212.8654 3299.9618,-212.123"/>
<polygon fill="#191970" stroke="#191970" points="3301.232,-215.3852 3309.4102,-208.6496 3298.8166,-208.8151 3301.232,-215.3852"/>
</g>
<!-- Node33 -->
<g id="node22" class="node">
<title>Node33</title>
<g id="a_node22"><a xlink:href="_bundled_attendee_8hxx.html" target="_top" xlink:title=" ">
<polygon fill="none" stroke="#000000" points="1541.355,-190.5 1541.355,-208.5 1652.4282,-208.5 1652.4282,-190.5 1541.355,-190.5"/>
<text text-anchor="middle" x="1596.8916" y="-196.5" font-family="Helvetica,sans-Serif" font-size="10.00" fill="#000000">BundledAttendee.hxx</text>
</a>
</g>
</g>
<!-- Node30&#45;&gt;Node33 -->
<g id="edge37" class="edge">
<title>Node30&#45;&gt;Node33</title>
<path fill="none" stroke="#191970" d="M1525.6494,-250.3873C1539.0481,-240.8168 1560.3293,-225.6159 1576.1477,-214.3171"/>
<polygon fill="#191970" stroke="#191970" points="1578.186,-217.1624 1584.289,-208.5019 1574.1173,-211.4662 1578.186,-217.1624"/>
</g>
<!-- Node38 -->
<g id="node24" class="node">
<title>Node38</title>
<g id="a_node24"><a xlink:title=" ">
<polygon fill="none" stroke="#bfbfbf" points="2104.3647,-190.5 2104.3647,-208.5 2195.4185,-208.5 2195.4185,-190.5 2104.3647,-190.5"/>
<text text-anchor="middle" x="2149.8916" y="-196.5" font-family="Helvetica,sans-Serif" font-size="10.00" fill="#000000">AudioEngine.hxx</text>
</a>
</g>
</g>
<!-- Node30&#45;&gt;Node38 -->
<g id="edge42" class="edge">
<title>Node30&#45;&gt;Node38</title>
<path fill="none" stroke="#191970" d="M1572.2546,-255.4916C1710.3471,-246.0774 2045.2687,-222.6954 2095.8916,-214 2100.6063,-213.1902 2105.507,-212.1548 2110.3473,-211.0107"/>
<polygon fill="#191970" stroke="#191970" points="2111.278,-214.3856 2120.1189,-208.5471 2109.5666,-207.598 2111.278,-214.3856"/>
</g>
<!-- Node33&#45;&gt;Node9 -->
<g id="edge39" class="edge">
<title>Node33&#45;&gt;Node9</title>
<path fill="none" stroke="#191970" d="M1541.0299,-193.0712C1515.1562,-190.2694 1483.9865,-187.1427 1455.8916,-185 1069.5195,-155.5328 598.956,-139.4339 473.7388,-135.4742"/>
<polygon fill="#191970" stroke="#191970" points="473.7857,-131.974 463.6809,-135.1588 473.5663,-138.9706 473.7857,-131.974"/>
</g>
<!-- Node34 -->
<g id="node23" class="node">
<title>Node34</title>
<g id="a_node23"><a xlink:href="_i_meeting_attendee_8hxx.html" target="_top" xlink:title=" ">
<polygon fill="none" stroke="#ff0000" points="2710.5273,-125.5 2710.5273,-143.5 2823.2559,-143.5 2823.2559,-125.5 2710.5273,-125.5"/>
<text text-anchor="middle" x="2766.8916" y="-131.5" font-family="Helvetica,sans-Serif" font-size="10.00" fill="#000000">IMeetingAttendee.hxx</text>
</a>
</g>
</g>
<!-- Node33&#45;&gt;Node34 -->
<g id="edge38" class="edge">
<title>Node33&#45;&gt;Node34</title>
<path fill="none" stroke="#191970" d="M1632.113,-190.473C1641.7116,-188.3341 1652.1501,-186.2991 1661.8916,-185 1864.4133,-157.992 2493.6758,-140.9925 2700.3645,-136.0226"/>
<polygon fill="#191970" stroke="#191970" points="2700.5535,-139.5192 2710.467,-135.7812 2700.3862,-132.5212 2700.5535,-139.5192"/>
</g>
<!-- Node39&#45;&gt;Node1 -->
<g id="edge52" class="edge">
<title>Node39&#45;&gt;Node1</title>
<path fill="none" stroke="#191970" d="M1042.4524,-305.4179C1018.0297,-296.3419 980.2774,-282.3123 952.9284,-272.1488"/>
<polygon fill="#191970" stroke="#191970" points="953.96,-268.7984 943.3671,-268.5956 951.5215,-275.3599 953.96,-268.7984"/>
</g>
<!-- Node39&#45;&gt;Node2 -->
<g id="edge53" class="edge">
<title>Node39&#45;&gt;Node2</title>
<path fill="none" stroke="#191970" d="M1005.2701,-313.3305C835.1062,-309.7508 367.0935,-297.4124 303.8916,-269 263.1911,-250.7031 225.1406,-222.7783 248.8916,-185 260.5957,-166.3835 281.294,-154.4715 301.2372,-146.9268"/>
<polygon fill="#191970" stroke="#191970" points="302.6252,-150.1499 310.9241,-143.5637 300.3293,-143.5371 302.6252,-150.1499"/>
</g>
<!-- Node39&#45;&gt;Node3 -->
<g id="edge45" class="edge">
<title>Node39&#45;&gt;Node3</title>
<path fill="none" stroke="#191970" d="M1076.6282,-305.4355C1103.8309,-280.7531 1183.9588,-212.3676 1264.8916,-185 1379.5756,-146.2193 1741.1343,-137.2026 1890.4242,-135.1199"/>
<polygon fill="#191970" stroke="#191970" points="1890.8475,-138.6147 1900.7999,-134.9816 1890.7541,-131.6153 1890.8475,-138.6147"/>
</g>
<!-- Node39&#45;&gt;Node4 -->
<g id="edge54" class="edge">
<title>Node39&#45;&gt;Node4</title>
<path fill="none" stroke="#191970" d="M1128.4414,-313.9337C1446.2783,-310.8939 2888.4542,-295.6502 2925.8916,-269 2941.9228,-257.588 2948.0797,-235.0508 2950.4384,-218.7277"/>
<polygon fill="#191970" stroke="#191970" points="2953.9344,-218.9535 2951.5391,-208.633 2946.9757,-218.1946 2953.9344,-218.9535"/>
</g>
<!-- Node39&#45;&gt;Node5 -->
<g id="edge55" class="edge">
<title>Node39&#45;&gt;Node5</title>
<path fill="none" stroke="#191970" d="M1005.4099,-306.99C958.5945,-300.1532 893.0297,-288.1505 837.8916,-269 796.3984,-254.5887 751.6578,-229.7265 725.247,-213.9733"/>
<polygon fill="#191970" stroke="#191970" points="726.7548,-210.795 716.386,-208.6179 723.134,-216.7859 726.7548,-210.795"/>
</g>
<!-- Node39&#45;&gt;Node7 -->
<g id="edge56" class="edge">
<title>Node39&#45;&gt;Node7</title>
<path fill="none" stroke="#191970" d="M1005.4348,-307.4067C949.0929,-300.1889 863.6227,-287.4325 790.8916,-269 718.4081,-250.6303 700.141,-244.5503 631.8916,-214 631.3314,-213.7492 630.7673,-213.4906 630.2007,-213.2252"/>
<polygon fill="#191970" stroke="#191970" points="631.5565,-209.9873 621.0603,-208.5447 628.3659,-216.2179 631.5565,-209.9873"/>
</g>
<!-- Node39&#45;&gt;Node8 -->
<g id="edge46" class="edge">
<title>Node39&#45;&gt;Node8</title>
<path fill="none" stroke="#191970" d="M1005.2754,-313.8094C789.6349,-310.5882 81.8916,-292.9014 81.8916,-199.5 81.8916,-199.5 81.8916,-199.5 81.8916,-134.5 81.8916,33.6976 284.8297,-74.5127 451.8916,-55 674.3428,-29.0179 2350.4337,-12.1495 2598.3006,-9.786"/>
<polygon fill="#191970" stroke="#191970" points="2598.4324,-13.285 2608.3987,-9.6902 2598.3659,-6.2853 2598.4324,-13.285"/>
</g>
<!-- Node39&#45;&gt;Node9 -->
<g id="edge57" class="edge">
<title>Node39&#45;&gt;Node9</title>
<path fill="none" stroke="#191970" d="M1005.3046,-313.1582C840.9718,-309.2245 400.5147,-296.2421 340.8916,-269 300.5235,-250.5556 260.2023,-220.4607 286.8916,-185 321.658,-138.8078 357.8931,-169.6538 411.8916,-149 412.9182,-148.6073 413.9576,-148.1931 415.0024,-147.7626"/>
<polygon fill="#191970" stroke="#191970" points="416.6374,-150.8658 424.3441,-143.5955 413.7857,-144.473 416.6374,-150.8658"/>
</g>
<!-- Node39&#45;&gt;Node11 -->
<g id="edge50" class="edge">
<title>Node39&#45;&gt;Node11</title>
<path fill="none" stroke="#191970" d="M1064.2269,-305.4142C1055.6769,-274.1509 1032.4889,-170.1876 1085.8916,-120 1110.8242,-96.5684 2153.1953,-76.0323 2441.6098,-70.7906"/>
<polygon fill="#191970" stroke="#191970" points="2442.0186,-74.2839 2451.9536,-70.6033 2441.8918,-67.285 2442.0186,-74.2839"/>
</g>
<!-- Node39&#45;&gt;Node15 -->
<g id="edge51" class="edge">
<title>Node39&#45;&gt;Node15</title>
<path fill="none" stroke="#191970" d="M1128.3799,-311.5785C1245.6008,-305.5935 1496.851,-290.6542 1580.8916,-269 1601.1244,-263.7868 1604.7708,-258.4226 1623.8916,-250 1652.702,-237.3092 1685.5928,-222.8709 1708.7982,-212.6925"/>
<polygon fill="#191970" stroke="#191970" points="1710.358,-215.8303 1718.1103,-208.6087 1707.5465,-209.4197 1710.358,-215.8303"/>
</g>
<!-- Node39&#45;&gt;Node19 -->
<g id="edge44" class="edge">
<title>Node39&#45;&gt;Node19</title>
<path fill="none" stroke="#191970" d="M1128.2945,-312.1191C1251.6013,-306.8946 1525.2749,-292.9432 1615.8916,-269 1635.309,-263.8694 1637.6118,-255.6256 1656.8916,-250 1762.7445,-219.1132 1891.0057,-207.0194 1966.7814,-202.3529"/>
<polygon fill="#191970" stroke="#191970" points="1967.3412,-205.826 1977.1175,-201.7425 1966.9285,-198.8382 1967.3412,-205.826"/>
</g>
<!-- Node40 -->
<g id="node26" class="node">
<title>Node40</title>
<g id="a_node26"><a xlink:title=" ">
<polygon fill="none" stroke="#bfbfbf" points="1665.8867,-250.5 1665.8867,-268.5 1761.8965,-268.5 1761.8965,-250.5 1665.8867,-250.5"/>
<text text-anchor="middle" x="1713.8916" y="-256.5" font-family="Helvetica,sans-Serif" font-size="10.00" fill="#000000">Utils/HRClock.hxx</text>
</a>
</g>
</g>
<!-- Node39&#45;&gt;Node40 -->
<g id="edge47" class="edge">
<title>Node39&#45;&gt;Node40</title>
<path fill="none" stroke="#191970" d="M1128.52,-311.2193C1235.3254,-305.1961 1461.6388,-290.9437 1651.8916,-269 1653.1695,-268.8526 1654.4614,-268.6986 1655.7634,-268.5389"/>
<polygon fill="#191970" stroke="#191970" points="1656.4128,-271.9839 1665.8753,-267.2182 1655.5062,-265.0428 1656.4128,-271.9839"/>
</g>
<!-- Node41 -->
<g id="node27" class="node">
<title>Node41</title>
<g id="a_node27"><a xlink:href="_i_broadcaster_notifications_delegate_8hxx.html" target="_top" xlink:title=" ">
<polygon fill="none" stroke="#ff0000" points="2351.4067,-185.5 2351.4067,-213.5 2526.3765,-213.5 2526.3765,-185.5 2351.4067,-185.5"/>
<text text-anchor="start" x="2359.4067" y="-201.5" font-family="Helvetica,sans-Serif" font-size="10.00" fill="#000000">Delegates/IBroadcasterNotifications</text>
<text text-anchor="middle" x="2438.8916" y="-191.5" font-family="Helvetica,sans-Serif" font-size="10.00" fill="#000000">Delegate.hxx</text>
</a>
</g>
</g>
<!-- Node39&#45;&gt;Node41 -->
<g id="edge48" class="edge">
<title>Node39&#45;&gt;Node41</title>
<path fill="none" stroke="#191970" d="M1128.4258,-313.449C1274.7777,-310.5036 1655.0023,-300.2282 1970.8916,-269 2103.7856,-255.8624 2256.6342,-231.3815 2350.4958,-215.2632"/>
<polygon fill="#191970" stroke="#191970" points="2351.2572,-218.6836 2360.5172,-213.5355 2350.0679,-211.7854 2351.2572,-218.6836"/>
</g>
<!-- Node41&#45;&gt;Node11 -->
<g id="edge49" class="edge">
<title>Node41&#45;&gt;Node11</title>
<path fill="none" stroke="#191970" d="M2447.1696,-185.3402C2460.247,-162.971 2485.8102,-119.2445 2501.5161,-92.3791"/>
<polygon fill="#191970" stroke="#191970" points="2504.5983,-94.0417 2506.6238,-83.6423 2498.5552,-90.5088 2504.5983,-94.0417"/>
</g>
<!-- Node42&#45;&gt;Node1 -->
<g id="edge66" class="edge">
<title>Node42&#45;&gt;Node1</title>
<path fill="none" stroke="#191970" d="M1998.8456,-311.2851C1800.7404,-301.7857 1218.3909,-273.8613 1001.5221,-263.4622"/>
<polygon fill="#191970" stroke="#191970" points="1001.6305,-259.9635 991.4743,-262.9804 1001.2951,-266.9555 1001.6305,-259.9635"/>
</g>
<!-- Node42&#45;&gt;Node3 -->
<g id="edge60" class="edge">
<title>Node42&#45;&gt;Node3</title>
<path fill="none" stroke="#191970" d="M2052.7921,-305.4265C2031.1178,-289.6236 1988.1767,-254.8085 1967.8916,-214 1958.5019,-195.1103 1956.0164,-170.8179 1955.5558,-154.0845"/>
<polygon fill="#191970" stroke="#191970" points="1959.0546,-153.8476 1955.5004,-143.8667 1952.0547,-153.8856 1959.0546,-153.8476"/>
</g>
<!-- Node42&#45;&gt;Node8 -->
<g id="edge61" class="edge">
<title>Node42&#45;&gt;Node8</title>
<path fill="none" stroke="#191970" d="M2132.5594,-314.2739C2364.5497,-313.1652 3158.0037,-306.6739 3811.8916,-269 3958.2425,-260.568 4467.8916,-346.0936 4467.8916,-199.5 4467.8916,-199.5 4467.8916,-199.5 4467.8916,-134.5 4467.8916,-39.9017 2898.5104,-13.4078 2659.306,-9.9191"/>
<polygon fill="#191970" stroke="#191970" points="2659.2792,-6.4184 2649.2299,-9.7743 2659.1786,-13.4177 2659.2792,-6.4184"/>
</g>
<!-- Node42&#45;&gt;Node11 -->
<g id="edge64" class="edge">
<title>Node42&#45;&gt;Node11</title>
<path fill="none" stroke="#191970" d="M2132.9573,-310.2075C2250.2858,-301.1481 2485.0925,-275.6009 2534.8916,-214 2562.9072,-179.345 2542.9623,-124.0635 2527.7511,-92.8819"/>
<polygon fill="#191970" stroke="#191970" points="2530.7088,-90.9777 2523.0456,-83.6616 2524.4738,-94.1597 2530.7088,-90.9777"/>
</g>
<!-- Node42&#45;&gt;Node15 -->
<g id="edge65" class="edge">
<title>Node42&#45;&gt;Node15</title>
<path fill="none" stroke="#191970" d="M1999.0587,-307.2554C1934.2827,-299.4196 1841.2203,-285.7699 1808.8916,-269 1785.0343,-256.6245 1764.1208,-233.3031 1751.5077,-217.1073"/>
<polygon fill="#191970" stroke="#191970" points="1754.1917,-214.8527 1745.3884,-208.9574 1748.5939,-219.0557 1754.1917,-214.8527"/>
</g>
<!-- Node42&#45;&gt;Node19 -->
<g id="edge59" class="edge">
<title>Node42&#45;&gt;Node19</title>
<path fill="none" stroke="#191970" d="M2063.2237,-305.4761C2058.0503,-287.978 2046.5022,-248.9182 2038.9637,-223.4204"/>
<polygon fill="#191970" stroke="#191970" points="2042.295,-222.3428 2036.1033,-213.7455 2035.5822,-224.3275 2042.295,-222.3428"/>
</g>
<!-- Node42&#45;&gt;Node40 -->
<g id="edge62" class="edge">
<title>Node42&#45;&gt;Node40</title>
<path fill="none" stroke="#191970" d="M2008.1601,-305.4795C1942.9918,-295.2969 1837.5591,-278.8231 1772.1675,-268.6056"/>
<polygon fill="#191970" stroke="#191970" points="1772.4491,-265.1072 1762.0287,-267.0214 1771.3684,-272.0233 1772.4491,-265.1072"/>
</g>
<!-- Node42&#45;&gt;Node41 -->
<g id="edge63" class="edge">
<title>Node42&#45;&gt;Node41</title>
<path fill="none" stroke="#191970" d="M2095.1603,-305.4761C2157.2509,-286.3329 2303.0436,-241.3834 2383.3704,-216.6178"/>
<polygon fill="#191970" stroke="#191970" points="2384.7812,-219.8455 2393.3061,-213.5545 2382.7188,-213.1562 2384.7812,-219.8455"/>
</g>
<!-- Node43&#45;&gt;Node3 -->
<g id="edge69" class="edge">
<title>Node43&#45;&gt;Node3</title>
<path fill="none" stroke="#191970" d="M2561.7562,-256.6162C2475.2596,-251.014 2299.5897,-237.1367 2242.8916,-214 2223.2211,-205.9731 2224.2382,-193.7789 2204.8916,-185 2145.9586,-158.2581 2072.7887,-145.5812 2021.0585,-139.6314"/>
<polygon fill="#191970" stroke="#191970" points="2021.3309,-136.1403 2011.0088,-138.5289 2020.5675,-143.0986 2021.3309,-136.1403"/>
</g>
<!-- Node43&#45;&gt;Node8 -->
<g id="edge70" class="edge">
<title>Node43&#45;&gt;Node8</title>
<path fill="none" stroke="#191970" d="M2611.5536,-250.3059C2614.178,-213.8559 2623.884,-79.0502 2627.5117,-28.6652"/>
<polygon fill="#191970" stroke="#191970" points="2631.0153,-28.7396 2628.2426,-18.5141 2624.0334,-28.2369 2631.0153,-28.7396"/>
</g>
<!-- Node43&#45;&gt;Node11 -->
<g id="edge72" class="edge">
<title>Node43&#45;&gt;Node11</title>
<path fill="none" stroke="#191970" d="M2609.7076,-250.3562C2606.3605,-227.0555 2595.2362,-164.1752 2567.8916,-120 2560.9932,-108.8556 2551.0521,-98.495 2541.6391,-90.0952"/>
<polygon fill="#191970" stroke="#191970" points="2543.8152,-87.3511 2533.9348,-83.5264 2539.2735,-92.6778 2543.8152,-87.3511"/>
</g>
<!-- Node43&#45;&gt;Node15 -->
<g id="edge73" class="edge">
<title>Node43&#45;&gt;Node15</title>
<path fill="none" stroke="#191970" d="M2561.5106,-256.1022C2416.9437,-246.155 1993.7254,-217.0344 1817.4085,-204.9025"/>
<polygon fill="#191970" stroke="#191970" points="1817.3864,-201.3928 1807.1697,-204.198 1816.9059,-208.3763 1817.3864,-201.3928"/>
</g>
<!-- Node43&#45;&gt;Node19 -->
<g id="edge68" class="edge">
<title>Node43&#45;&gt;Node19</title>
<path fill="none" stroke="#191970" d="M2561.5234,-257.4212C2471.0553,-253.1181 2272.5338,-241.3879 2096.7253,-214.164"/>
<polygon fill="#191970" stroke="#191970" points="2097.201,-210.6959 2086.7793,-212.6033 2096.1158,-217.6113 2097.201,-210.6959"/>
</g>
<!-- Node44 -->
<g id="node30" class="node">
<title>Node44</title>
<g id="a_node30"><a xlink:href="_i_chat_notifications_delegate_8hxx.html" target="_top" xlink:title=" ">
<polygon fill="none" stroke="#ff0000" points="2695.8032,-185.5 2695.8032,-213.5 2837.98,-213.5 2837.98,-185.5 2695.8032,-185.5"/>
<text text-anchor="start" x="2703.8032" y="-201.5" font-family="Helvetica,sans-Serif" font-size="10.00" fill="#000000">Delegates/IChatNotifications</text>
<text text-anchor="middle" x="2766.8916" y="-191.5" font-family="Helvetica,sans-Serif" font-size="10.00" fill="#000000">Delegate.hxx</text>
</a>
</g>
</g>
<!-- Node43&#45;&gt;Node44 -->
<g id="edge71" class="edge">
<title>Node43&#45;&gt;Node44</title>
<path fill="none" stroke="#191970" d="M2634.5846,-250.3873C2657.3821,-241.619 2692.4669,-228.1249 2720.7801,-217.2352"/>
<polygon fill="#191970" stroke="#191970" points="2722.4041,-220.3606 2730.4811,-213.504 2719.8912,-213.8272 2722.4041,-220.3606"/>
</g>
<!-- Node45&#45;&gt;Node3 -->
<g id="edge75" class="edge">
<title>Node45&#45;&gt;Node3</title>
<path fill="none" stroke="#191970" d="M3784.0259,-250.4816C3826.9626,-238.1822 3889.4171,-214.2917 3860.8916,-185 3852.69,-176.5781 2355.8568,-143.2699 2021.5765,-135.9342"/>
<polygon fill="#191970" stroke="#191970" points="2021.1758,-132.4246 2011.1014,-135.7044 2021.0222,-139.423 2021.1758,-132.4246"/>
</g>
<!-- Node45&#45;&gt;Node4 -->
<g id="edge76" class="edge">
<title>Node45&#45;&gt;Node4</title>
<path fill="none" stroke="#191970" d="M3692.7744,-250.9855C3689.773,-250.6259 3686.7973,-250.2938 3683.8916,-250 3389.8462,-220.2705 3312.8602,-252.9357 3019.8916,-214 3013.1384,-213.1025 3006.0579,-211.896 2999.1226,-210.5603"/>
<polygon fill="#191970" stroke="#191970" points="2999.6166,-207.0894 2989.1205,-208.532 2998.2253,-213.9497 2999.6166,-207.0894"/>
</g>
<!-- Node45&#45;&gt;Node8 -->
<g id="edge79" class="edge">
<title>Node45&#45;&gt;Node8</title>
<path fill="none" stroke="#191970" d="M3802.9709,-257.7463C3958.3527,-252.5336 4390.2469,-236.11 4410.8916,-214 4419.6879,-204.5793 4418.7401,-195.2238 4410.8916,-185 4342.8149,-96.3201 4277.1991,-143.4615 4167.8916,-120 3992.2215,-82.2946 3947.6526,-73.0605 3768.8916,-55 3544.6848,-32.348 2818.4288,-14.0179 2659.7162,-10.2222"/>
<polygon fill="#191970" stroke="#191970" points="2659.3648,-6.7129 2649.2844,-9.9741 2659.1983,-13.7109 2659.3648,-6.7129"/>
</g>
<!-- Node45&#45;&gt;Node11 -->
<g id="edge81" class="edge">
<title>Node45&#45;&gt;Node11</title>
<path fill="none" stroke="#191970" d="M3802.8693,-258.9208C3932.5418,-256.9849 4249.013,-248.7159 4280.8916,-214 4289.6092,-204.5065 4288.5743,-195.3489 4280.8916,-185 4221.3872,-104.846 4164.3943,-136.2066 4065.8916,-120 3919.4132,-95.9 2875.5182,-75.8657 2588.028,-70.7599"/>
<polygon fill="#191970" stroke="#191970" points="2587.7798,-67.2551 2577.7194,-70.5775 2587.6559,-74.254 2587.7798,-67.2551"/>
</g>
<!-- Node45&#45;&gt;Node17 -->
<g id="edge83" class="edge">
<title>Node45&#45;&gt;Node17</title>
<path fill="none" stroke="#191970" d="M3733.3422,-250.3559C3705.6975,-233.5636 3643.1284,-198.3147 3584.8916,-185 3577.5555,-183.3227 1646.3894,-144.2911 1236.7061,-136.028"/>
<polygon fill="#191970" stroke="#191970" points="1236.5233,-132.5237 1226.4547,-135.8212 1236.382,-139.5223 1236.5233,-132.5237"/>
</g>
<!-- Node45&#45;&gt;Node31 -->
<g id="edge77" class="edge">
<title>Node45&#45;&gt;Node31</title>
<path fill="none" stroke="#191970" d="M3700.8218,-250.4627C3657.3695,-242.0117 3590.7995,-228.7924 3524.2535,-214.2626"/>
<polygon fill="#191970" stroke="#191970" points="3524.9559,-210.8335 3514.4382,-212.1098 3523.4561,-217.671 3524.9559,-210.8335"/>
</g>
<!-- Node45&#45;&gt;Node32 -->
<g id="edge78" class="edge">
<title>Node45&#45;&gt;Node32</title>
<path fill="none" stroke="#191970" d="M3692.7441,-251.2396C3689.7505,-250.8144 3686.7848,-250.3987 3683.8916,-250 3558.2873,-232.6908 3526.0371,-234.3633 3400.8916,-214 3388.8575,-212.0418 3375.777,-209.5572 3364.0564,-207.2003"/>
<polygon fill="#191970" stroke="#191970" points="3364.6655,-203.7525 3354.1671,-205.1784 3363.2633,-210.6106 3364.6655,-203.7525"/>
</g>
<!-- Node45&#45;&gt;Node34 -->
<g id="edge80" class="edge">
<title>Node45&#45;&gt;Node34</title>
<path fill="none" stroke="#191970" d="M3797.4721,-250.481C3849.0564,-240.5963 3923.499,-224.7208 3931.8916,-214 3939.8366,-203.8511 3940.8059,-194.3091 3931.8916,-185 3893.7163,-145.1341 3074.8758,-136.5414 2833.3674,-134.8713"/>
<polygon fill="#191970" stroke="#191970" points="2833.3454,-131.3712 2823.322,-134.8036 2833.2981,-138.371 2833.3454,-131.3712"/>
</g>
<!-- Node28 -->
<g id="node32" class="node">
<title>Node28</title>
<g id="a_node32"><a xlink:title=" ">
<polygon fill="none" stroke="#bfbfbf" points="4327.9878,-190.5 4327.9878,-208.5 4401.7954,-208.5 4401.7954,-190.5 4327.9878,-190.5"/>
<text text-anchor="middle" x="4364.8916" y="-196.5" font-family="Helvetica,sans-Serif" font-size="10.00" fill="#000000">Printable.hxx</text>
</a>
</g>
</g>
<!-- Node45&#45;&gt;Node28 -->
<g id="edge82" class="edge">
<title>Node45&#45;&gt;Node28</title>
<path fill="none" stroke="#191970" d="M3802.9925,-258.6594C3904.7297,-256.3151 4128.5975,-247.4519 4313.8916,-214 4318.1209,-213.2365 4322.5038,-212.2692 4326.8436,-211.1978"/>
<polygon fill="#191970" stroke="#191970" points="4328.0314,-214.5038 4336.7992,-208.5561 4326.236,-207.738 4328.0314,-214.5038"/>
</g>
<!-- Node46&#45;&gt;Node3 -->
<g id="edge87" class="edge">
<title>Node46&#45;&gt;Node3</title>
<path fill="none" stroke="#191970" d="M3121.8831,-255.3283C3199.9746,-248.0502 3347.4414,-232.0729 3362.8916,-214 3371.2668,-204.2031 3371.8405,-194.2758 3362.8916,-185 3339.3031,-160.5497 2294.8894,-140.4696 2021.0589,-135.6185"/>
<polygon fill="#191970" stroke="#191970" points="2020.942,-132.1159 2010.8818,-135.4389 2020.8184,-139.1149 2020.942,-132.1159"/>
</g>
<!-- Node46&#45;&gt;Node4 -->
<g id="edge88" class="edge">
<title>Node46&#45;&gt;Node4</title>
<path fill="none" stroke="#191970" d="M3055.3624,-250.3873C3035.0915,-240.418 3002.3984,-224.3394 2979.1906,-212.9257"/>
<polygon fill="#191970" stroke="#191970" points="2980.7136,-209.7744 2970.1954,-208.5019 2977.6243,-216.0559 2980.7136,-209.7744"/>
</g>
<!-- Node46&#45;&gt;Node8 -->
<g id="edge92" class="edge">
<title>Node46&#45;&gt;Node8</title>
<path fill="none" stroke="#191970" d="M3121.6513,-257.617C3290.2503,-250.8593 3848.1363,-227.5141 3860.8916,-214 3869.7385,-204.6269 3866.2453,-196.7244 3860.8916,-185 3842.5696,-144.8754 3826.4391,-137.3661 3785.8916,-120 3574.4275,-29.4321 2821.8162,-12.5376 2659.7748,-9.9259"/>
<polygon fill="#191970" stroke="#191970" points="2659.6072,-6.423 2649.5542,-9.7678 2659.4989,-13.4222 2659.6072,-6.423"/>
</g>
<!-- Node46&#45;&gt;Node19 -->
<g id="edge86" class="edge">
<title>Node46&#45;&gt;Node19</title>
<path fill="none" stroke="#191970" d="M3025.9161,-256.1669C2996.9579,-254.2182 2959.3149,-251.7965 2925.8916,-250 2560.0793,-230.3378 2462.968,-263.0652 2096.8376,-214.1092"/>
<polygon fill="#191970" stroke="#191970" points="2097.1358,-210.6178 2086.7577,-212.7499 2096.2003,-217.555 2097.1358,-210.6178"/>
</g>
<!-- Node46&#45;&gt;Node20 -->
<g id="edge99" class="edge">
<title>Node46&#45;&gt;Node20</title>
<path fill="none" stroke="#191970" d="M3025.9265,-255.9546C2996.9721,-253.9307 2959.3293,-251.5044 2925.8916,-250 2306.7558,-222.1447 2150.6657,-248.9817 1531.8916,-214 1507.3946,-212.6151 1480.9088,-210.5563 1456.4409,-208.4221"/>
<polygon fill="#191970" stroke="#191970" points="1456.7228,-204.9334 1446.4529,-207.5372 1456.105,-211.9061 1456.7228,-204.9334"/>
</g>
<!-- Node46&#45;&gt;Node31 -->
<g id="edge89" class="edge">
<title>Node46&#45;&gt;Node31</title>
<path fill="none" stroke="#191970" d="M3121.8091,-253.8821C3184.8727,-246.225 3299.0733,-231.4498 3395.8916,-214 3396.9884,-213.8023 3398.0947,-213.5993 3399.2083,-213.3917"/>
<polygon fill="#191970" stroke="#191970" points="3400.2191,-216.7608 3409.3671,-211.4162 3398.8828,-209.8895 3400.2191,-216.7608"/>
</g>
<!-- Node46&#45;&gt;Node32 -->
<g id="edge90" class="edge">
<title>Node46&#45;&gt;Node32</title>
<path fill="none" stroke="#191970" d="M3121.9644,-252.1875C3166.7783,-244.7447 3235.1824,-231.776 3292.8916,-214 3294.577,-213.4809 3296.2932,-212.9114 3298.0155,-212.3079"/>
<polygon fill="#191970" stroke="#191970" points="3299.6715,-215.4224 3307.7703,-208.5916 3297.1794,-208.881 3299.6715,-215.4224"/>
</g>
<!-- Node46&#45;&gt;Node38 -->
<g id="edge93" class="edge">
<title>Node46&#45;&gt;Node38</title>
<path fill="none" stroke="#191970" d="M3025.9097,-256.2806C2996.9493,-254.3723 2959.3061,-251.953 2925.8916,-250 2622.4325,-232.2637 2545.2367,-245.4552 2242.8916,-214 2230.8287,-212.745 2217.9435,-210.999 2205.7266,-209.1521"/>
<polygon fill="#191970" stroke="#191970" points="2206.0735,-205.664 2195.6544,-207.5855 2204.9976,-212.5808 2206.0735,-205.664"/>
</g>
<!-- Node46&#45;&gt;Node41 -->
<g id="edge100" class="edge">
<title>Node46&#45;&gt;Node41</title>
<path fill="none" stroke="#191970" d="M3025.9031,-254.9657C2922.1023,-245.1577 2674.9542,-221.8051 2536.733,-208.7449"/>
<polygon fill="#191970" stroke="#191970" points="2536.8495,-205.2404 2526.5646,-207.7841 2536.191,-212.2093 2536.8495,-205.2404"/>
</g>
<!-- Node46&#45;&gt;Node44 -->
<g id="edge101" class="edge">
<title>Node46&#45;&gt;Node44</title>
<path fill="none" stroke="#191970" d="M3027.5982,-250.4524C2980.1926,-241.1875 2905.5396,-226.5973 2848.2451,-215.3997"/>
<polygon fill="#191970" stroke="#191970" points="2848.6081,-211.9045 2838.1224,-213.4213 2847.2653,-218.7745 2848.6081,-211.9045"/>
</g>
<!-- Node47 -->
<g id="node34" class="node">
<title>Node47</title>
<g id="a_node34"><a xlink:title=" ">
<polygon fill="none" stroke="#bfbfbf" points="2252.3672,-190.5 2252.3672,-208.5 2333.416,-208.5 2333.416,-190.5 2252.3672,-190.5"/>
<text text-anchor="middle" x="2292.8916" y="-196.5" font-family="Helvetica,sans-Serif" font-size="10.00" fill="#000000">boost/asio.hpp</text>
</a>
</g>
</g>
<!-- Node46&#45;&gt;Node47 -->
<g id="edge85" class="edge">
<title>Node46&#45;&gt;Node47</title>
<path fill="none" stroke="#191970" d="M3025.903,-256.39C2996.9403,-254.5204 2959.297,-252.1035 2925.8916,-250 2666.8001,-233.6852 2598.6672,-258.423 2342.8916,-214 2338.6339,-213.2605 2334.2226,-212.2915 2329.8634,-211.2044"/>
<polygon fill="#191970" stroke="#191970" points="2330.4506,-207.7376 2319.8837,-208.5062 2328.6236,-214.495 2330.4506,-207.7376"/>
</g>
<!-- Node48 -->
<g id="node35" class="node">
<title>Node48</title>
<g id="a_node35"><a xlink:title=" ">
<polygon fill="none" stroke="#bfbfbf" points="3531.9878,-190.5 3531.9878,-208.5 3575.7954,-208.5 3575.7954,-190.5 3531.9878,-190.5"/>
<text text-anchor="middle" x="3553.8916" y="-196.5" font-family="Helvetica,sans-Serif" font-size="10.00" fill="#000000">queue</text>
</a>
</g>
</g>
<!-- Node46&#45;&gt;Node48 -->
<g id="edge91" class="edge">
<title>Node46&#45;&gt;Node48</title>
<path fill="none" stroke="#191970" d="M3121.8312,-256.6822C3221.5651,-250.4874 3448.308,-234.5815 3522.8916,-214 3524.5454,-213.5436 3526.2206,-213.0057 3527.8911,-212.4105"/>
<polygon fill="#191970" stroke="#191970" points="3529.3298,-215.6031 3537.2296,-208.5431 3526.6514,-209.1357 3529.3298,-215.6031"/>
</g>
<!-- Node49 -->
<g id="node36" class="node">
<title>Node49</title>
<g id="a_node36"><a xlink:href="_i_video_notifications_delegate_8hxx.html" target="_top" xlink:title=" ">
<polygon fill="none" stroke="#ff0000" points="3137.6646,-185.5 3137.6646,-213.5 3284.1187,-213.5 3284.1187,-185.5 3137.6646,-185.5"/>
<text text-anchor="start" x="3145.6646" y="-201.5" font-family="Helvetica,sans-Serif" font-size="10.00" fill="#000000">Delegates/IVideoNotifications</text>
<text text-anchor="middle" x="3210.8916" y="-191.5" font-family="Helvetica,sans-Serif" font-size="10.00" fill="#000000">Delegate.hxx</text>
</a>
</g>
</g>
<!-- Node46&#45;&gt;Node49 -->
<g id="edge94" class="edge">
<title>Node46&#45;&gt;Node49</title>
<path fill="none" stroke="#191970" d="M3094.699,-250.3873C3114.545,-241.6956 3144.9941,-228.3602 3169.7434,-217.5211"/>
<polygon fill="#191970" stroke="#191970" points="3171.1598,-220.7218 3178.9157,-213.504 3168.3516,-214.3098 3171.1598,-220.7218"/>
</g>
<!-- Node50 -->
<g id="node37" class="node">
<title>Node50</title>
<g id="a_node37"><a xlink:title=" ">
<polygon fill="none" stroke="#bfbfbf" points="3028.4526,-190.5 3028.4526,-208.5 3119.3306,-208.5 3119.3306,-190.5 3028.4526,-190.5"/>
<text text-anchor="middle" x="3073.8916" y="-196.5" font-family="Helvetica,sans-Serif" font-size="10.00" fill="#000000">VideoEngine.hxx</text>
</a>
</g>
</g>
<!-- Node46&#45;&gt;Node50 -->
<g id="edge95" class="edge">
<title>Node46&#45;&gt;Node50</title>
<path fill="none" stroke="#191970" d="M3073.8916,-250.3873C3073.8916,-242.0174 3073.8916,-229.3414 3073.8916,-218.735"/>
<polygon fill="#191970" stroke="#191970" points="3077.3917,-218.6984 3073.8916,-208.6985 3070.3917,-218.6985 3077.3917,-218.6984"/>
</g>
<!-- Node51 -->
<g id="node38" class="node">
<title>Node51</title>
<g id="a_node38"><a xlink:href="_vo_i_p_client_delegate_8hxx.html" target="_top" xlink:title=" ">
<polygon fill="none" stroke="#ff0000" points="3655.3574,-125.5 3655.3574,-143.5 3776.4258,-143.5 3776.4258,-125.5 3655.3574,-125.5"/>
<text text-anchor="middle" x="3715.8916" y="-131.5" font-family="Helvetica,sans-Serif" font-size="10.00" fill="#000000">VoIPClientDelegate.hxx</text>
</a>
</g>
</g>
<!-- Node46&#45;&gt;Node51 -->
<g id="edge96" class="edge">
<title>Node46&#45;&gt;Node51</title>
<path fill="none" stroke="#191970" d="M3121.9174,-257.9963C3232.0041,-254.1037 3499.632,-241.9829 3584.8916,-214 3628.3401,-199.7398 3672.5021,-168.7876 3696.8311,-149.9881"/>
<polygon fill="#191970" stroke="#191970" points="3699.1686,-152.6023 3704.859,-143.6653 3694.8374,-147.1032 3699.1686,-152.6023"/>
</g>
<!-- Node52 -->
<g id="node39" class="node">
<title>Node52</title>
<g id="a_node39"><a xlink:href="_vo_i_p_client_proxy_8hxx.html" target="_top" xlink:title=" ">
<polygon fill="none" stroke="#ff0000" points="3745.96,-190.5 3745.96,-208.5 3851.8232,-208.5 3851.8232,-190.5 3745.96,-190.5"/>
<text text-anchor="middle" x="3798.8916" y="-196.5" font-family="Helvetica,sans-Serif" font-size="10.00" fill="#000000">VoIPClientProxy.hxx</text>
</a>
</g>
</g>
<!-- Node46&#45;&gt;Node52 -->
<g id="edge97" class="edge">
<title>Node46&#45;&gt;Node52</title>
<path fill="none" stroke="#191970" d="M3121.825,-257.0298C3226.0648,-251.428 3481.1075,-236.4768 3693.8916,-214 3707.5132,-212.5611 3722.0903,-210.7332 3735.9157,-208.864"/>
<polygon fill="#191970" stroke="#191970" points="3736.3958,-212.331 3745.8254,-207.5007 3735.4417,-205.3963 3736.3958,-212.331"/>
</g>
<!-- Node52&#45;&gt;Node51 -->
<g id="edge98" class="edge">
<title>Node52&#45;&gt;Node51</title>
<path fill="none" stroke="#191970" d="M3787.3508,-190.462C3774.0463,-180.0428 3751.9454,-162.7349 3735.8392,-150.1216"/>
<polygon fill="#191970" stroke="#191970" points="3737.633,-147.0809 3727.602,-143.6708 3733.317,-152.592 3737.633,-147.0809"/>
</g>
<!-- Node62&#45;&gt;Node3 -->
<g id="edge106" class="edge">
<title>Node62&#45;&gt;Node3</title>
<path fill="none" stroke="#191970" d="M1894.8523,-250.1047C1905.7512,-229.4629 1931.948,-179.8478 1946.2224,-152.8129"/>
<polygon fill="#191970" stroke="#191970" points="1949.4786,-154.1419 1951.0527,-143.6646 1943.2884,-150.8735 1949.4786,-154.1419"/>
</g>
<!-- Node62&#45;&gt;Node4 -->
<g id="edge107" class="edge">
<title>Node62&#45;&gt;Node4</title>
<path fill="none" stroke="#191970" d="M1961.7761,-258.2841C2121.3431,-255.1029 2517.0919,-244.5499 2846.8916,-214 2858.7018,-212.906 2871.2209,-211.4437 2883.3432,-209.868"/>
<polygon fill="#191970" stroke="#191970" points="2883.96,-213.3168 2893.4084,-208.5233 2883.0329,-206.3784 2883.96,-213.3168"/>
</g>
<!-- Node62&#45;&gt;Node9 -->
<g id="edge109" class="edge">
<title>Node62&#45;&gt;Node9</title>
<path fill="none" stroke="#191970" d="M1884.3408,-250.4919C1873.5479,-233.9264 1847.9541,-199.0404 1815.8916,-185 1811.9163,-183.2592 679.7881,-142.9535 473.8372,-135.6345"/>
<polygon fill="#191970" stroke="#191970" points="473.8015,-132.1312 463.6835,-135.2738 473.5529,-139.1267 473.8015,-132.1312"/>
</g>
<!-- Node62&#45;&gt;Node11 -->
<g id="edge110" class="edge">
<title>Node62&#45;&gt;Node11</title>
<path fill="none" stroke="#191970" d="M1886.3186,-250.1482C1877.4712,-225.2242 1857.6377,-156.6127 1891.8916,-120 1910.4469,-100.167 2281.0957,-80.4652 2441.7116,-72.8222"/>
<polygon fill="#191970" stroke="#191970" points="2442.1579,-76.3051 2451.9813,-72.3363 2441.8271,-69.3129 2442.1579,-76.3051"/>
</g>
<!-- Node62&#45;&gt;Node15 -->
<g id="edge111" class="edge">
<title>Node62&#45;&gt;Node15</title>
<path fill="none" stroke="#191970" d="M1866.958,-250.3873C1841.4225,-240.2407 1799.9606,-223.7658 1771.159,-212.3215"/>
<polygon fill="#191970" stroke="#191970" points="1772.132,-208.942 1761.5463,-208.5019 1769.5471,-215.4472 1772.132,-208.942"/>
</g>
<!-- Node62&#45;&gt;Node19 -->
<g id="edge105" class="edge">
<title>Node62&#45;&gt;Node19</title>
<path fill="none" stroke="#191970" d="M1911.4583,-250.3873C1932.0287,-241.6956 1963.589,-228.3602 1989.2416,-217.5211"/>
<polygon fill="#191970" stroke="#191970" points="1990.8996,-220.6203 1998.7487,-213.504 1988.175,-214.1722 1990.8996,-220.6203"/>
</g>
<!-- Node62&#45;&gt;Node31 -->
<g id="edge108" class="edge">
<title>Node62&#45;&gt;Node31</title>
<path fill="none" stroke="#191970" d="M1961.8939,-258.37C2218.2612,-254.1754 3086.0525,-238.4682 3362.8916,-214 3374.7201,-212.9545 3387.2906,-211.4335 3399.3635,-209.7654"/>
<polygon fill="#191970" stroke="#191970" points="3399.9562,-213.2164 3409.3604,-208.3369 3398.9658,-206.2868 3399.9562,-213.2164"/>
</g>
<!-- Node62&#45;&gt;Node47 -->
<g id="edge104" class="edge">
<title>Node62&#45;&gt;Node47</title>
<path fill="none" stroke="#191970" d="M1955.1034,-250.4655C2018.845,-241.5438 2118.6135,-227.338 2204.8916,-214 2216.9658,-212.1334 2229.9572,-210.0399 2242.1533,-208.0368"/>
<polygon fill="#191970" stroke="#191970" points="2242.8771,-211.4647 2252.1733,-206.3823 2241.7367,-204.5582 2242.8771,-211.4647"/>
</g>
<!-- Node67&#45;&gt;Node3 -->
<g id="edge114" class="edge">
<title>Node67&#45;&gt;Node3</title>
<path fill="none" stroke="#191970" d="M2832.347,-250.3755C2772.8873,-234.5565 2644.8972,-202.0978 2534.8916,-185 2349.9226,-156.2509 2128.9765,-142.6491 2021.3323,-137.3385"/>
<polygon fill="#191970" stroke="#191970" points="2021.4318,-133.8393 2011.2739,-136.8503 2021.0924,-140.8311 2021.4318,-133.8393"/>
</g>
<!-- Node67&#45;&gt;Node4 -->
<g id="edge115" class="edge">
<title>Node67&#45;&gt;Node4</title>
<path fill="none" stroke="#191970" d="M2878.9532,-250.3873C2892.6709,-240.8168 2914.4588,-225.6159 2930.6538,-214.3171"/>
<polygon fill="#191970" stroke="#191970" points="2932.7903,-217.0942 2938.9889,-208.5019 2928.785,-211.3533 2932.7903,-217.0942"/>
</g>
<!-- Node67&#45;&gt;Node11 -->
<g id="edge118" class="edge">
<title>Node67&#45;&gt;Node11</title>
<path fill="none" stroke="#191970" d="M2866.7743,-250.3331C2868.6316,-225.2719 2870.0108,-155.147 2831.8916,-120 2797.2807,-88.0877 2670.2804,-76.3019 2587.915,-71.9766"/>
<polygon fill="#191970" stroke="#191970" points="2588.0141,-68.4773 2577.8517,-71.4734 2587.6644,-75.4685 2588.0141,-68.4773"/>
</g>
<!-- Node67&#45;&gt;Node15 -->
<g id="edge119" class="edge">
<title>Node67&#45;&gt;Node15</title>
<path fill="none" stroke="#191970" d="M2814.4865,-256.981C2649.5222,-248.8838 2134.5536,-223.4983 1967.8916,-214 1917.7105,-211.1401 1861.3674,-207.5771 1817.1259,-204.6987"/>
<polygon fill="#191970" stroke="#191970" points="1817.2229,-201.1977 1807.0162,-204.0392 1816.7671,-208.1828 1817.2229,-201.1977"/>
</g>
<!-- Node67&#45;&gt;Node19 -->
<g id="edge113" class="edge">
<title>Node67&#45;&gt;Node19</title>
<path fill="none" stroke="#191970" d="M2814.4909,-256.9671C2659.3389,-249.2543 2200.4809,-225.9288 2096.8832,-213.9915"/>
<polygon fill="#191970" stroke="#191970" points="2097.1279,-210.4944 2086.7649,-212.6985 2096.2405,-217.438 2097.1279,-210.4944"/>
</g>
<!-- Node67&#45;&gt;Node31 -->
<g id="edge116" class="edge">
<title>Node67&#45;&gt;Node31</title>
<path fill="none" stroke="#191970" d="M2917.5024,-255.7009C3007.9018,-248.8399 3200.7075,-233.2867 3362.8916,-214 3374.6831,-212.5978 3387.2365,-210.9105 3399.3039,-209.1904"/>
<polygon fill="#191970" stroke="#191970" points="3399.9036,-212.6401 3409.2989,-207.7433 3398.9006,-205.7124 3399.9036,-212.6401"/>
</g>
<!-- Node67&#45;&gt;Node49 -->
<g id="edge117" class="edge">
<title>Node67&#45;&gt;Node49</title>
<path fill="none" stroke="#191970" d="M2917.5948,-250.5368C2968.2756,-241.7472 3048.0184,-227.9081 3127.3919,-214.086"/>
<polygon fill="#191970" stroke="#191970" points="3128.3208,-217.477 3137.5719,-212.313 3127.1197,-210.5808 3128.3208,-217.477"/>
</g>
<!-- Node67&#45;&gt;Node50 -->
<g id="edge120" class="edge">
<title>Node67&#45;&gt;Node50</title>
<path fill="none" stroke="#191970" d="M2897.4823,-250.3873C2933.7322,-239.9306 2993.2822,-222.7527 3033.0321,-211.2864"/>
<polygon fill="#191970" stroke="#191970" points="3034.047,-214.6364 3042.6851,-208.5019 3032.1068,-207.9107 3034.047,-214.6364"/>
</g>
<!-- Node69&#45;&gt;Node2 -->
<g id="edge126" class="edge">
<title>Node69&#45;&gt;Node2</title>
<path fill="none" stroke="#191970" d="M350.8819,-250.4882C314.8693,-242.3901 269.0685,-229.4191 257.8916,-214 237.2858,-185.5733 281.3591,-161.2461 316.4043,-147.2402"/>
<polygon fill="#191970" stroke="#191970" points="317.9021,-150.4145 325.9882,-143.5687 315.3979,-143.8778 317.9021,-150.4145"/>
</g>
<!-- Node69&#45;&gt;Node3 -->
<g id="edge125" class="edge">
<title>Node69&#45;&gt;Node3</title>
<path fill="none" stroke="#191970" d="M411.2644,-250.4383C438.5731,-233.7835 500.3797,-198.7545 557.8916,-185 623.3029,-169.3563 1622.4676,-142.9689 1890.274,-136.1484"/>
<polygon fill="#191970" stroke="#191970" points="1890.7041,-139.6387 1900.6119,-135.8856 1890.5262,-132.6409 1890.7041,-139.6387"/>
</g>
<!-- Node69&#45;&gt;Node7 -->
<g id="edge123" class="edge">
<title>Node69&#45;&gt;Node7</title>
<path fill="none" stroke="#191970" d="M428.6342,-250.3873C469.3424,-238.7007 539.2939,-218.619 578.0325,-207.4978"/>
<polygon fill="#191970" stroke="#191970" points="579.4349,-210.7367 588.0808,-204.6131 577.5033,-204.0084 579.4349,-210.7367"/>
</g>
<!-- Node69&#45;&gt;Node9 -->
<g id="edge124" class="edge">
<title>Node69&#45;&gt;Node9</title>
<path fill="none" stroke="#191970" d="M350.4379,-250.4551C330.0624,-243.9307 308.0531,-232.8173 295.8916,-214 288.8955,-203.1751 288.2468,-195.377 295.8916,-185 327.9094,-141.5392 361.673,-168.8006 411.8916,-149 412.9141,-148.5968 413.9501,-148.1737 414.9919,-147.7356"/>
<polygon fill="#191970" stroke="#191970" points="416.6402,-150.8319 424.3199,-143.5331 413.7648,-144.4497 416.6402,-150.8319"/>
</g>
<!-- Node69&#45;&gt;Node16 -->
<g id="edge127" class="edge">
<title>Node69&#45;&gt;Node16</title>
<path fill="none" stroke="#191970" d="M396.8916,-250.3873C396.8916,-242.0174 396.8916,-229.3414 396.8916,-218.735"/>
<polygon fill="#191970" stroke="#191970" points="400.3917,-218.6984 396.8916,-208.6985 393.3917,-218.6985 400.3917,-218.6984"/>
</g>
<!-- Node70&#45;&gt;Node3 -->
<g id="edge129" class="edge">
<title>Node70&#45;&gt;Node3</title>
<path fill="none" stroke="#191970" d="M556.4885,-250.3311C556.3368,-234.14 558.6515,-200.7135 578.8916,-185 605.0978,-164.6547 1620.4341,-141.638 1890.4869,-135.8666"/>
<polygon fill="#191970" stroke="#191970" points="1890.6078,-139.365 1900.531,-135.6526 1890.4586,-132.3665 1890.6078,-139.365"/>
</g>
<!-- Node70&#45;&gt;Node7 -->
<g id="edge130" class="edge">
<title>Node70&#45;&gt;Node7</title>
<path fill="none" stroke="#191970" d="M564.3336,-250.3873C571.6007,-241.4888 582.8428,-227.723 591.8027,-216.7517"/>
<polygon fill="#191970" stroke="#191970" points="594.765,-218.6577 598.3795,-208.6985 589.3433,-214.2299 594.765,-218.6577"/>
</g>
<!-- Node70&#45;&gt;Node8 -->
<g id="edge132" class="edge">
<title>Node70&#45;&gt;Node8</title>
<path fill="none" stroke="#191970" d="M499.7212,-254.9501C438.4676,-248.9839 346.4527,-236.5262 319.8916,-214 287.0073,-186.1112 267.1293,-152.123 295.8916,-120 376.4698,-30.0067 2328.9284,-11.8053 2598.2041,-9.7206"/>
<polygon fill="#191970" stroke="#191970" points="2598.4489,-13.2189 2608.4221,-9.643 2598.3958,-6.2191 2598.4489,-13.2189"/>
</g>
<!-- Node70&#45;&gt;Node9 -->
<g id="edge131" class="edge">
<title>Node70&#45;&gt;Node9</title>
<path fill="none" stroke="#191970" d="M499.8224,-251.9158C435.8899,-242.8378 339.7223,-227.2056 328.8916,-214 320.7181,-204.0342 321.8198,-195.7756 328.8916,-185 350.9533,-151.3835 375.3383,-165.7524 411.8916,-149 412.7199,-148.6204 413.5598,-148.2326 414.4067,-147.8391"/>
<polygon fill="#191970" stroke="#191970" points="416.0023,-150.9562 423.544,-143.5149 413.0079,-144.629 416.0023,-150.9562"/>
</g>
<!-- Node70&#45;&gt;Node11 -->
<g id="edge134" class="edge">
<title>Node70&#45;&gt;Node11</title>
<path fill="none" stroke="#191970" d="M553.5619,-250.2938C548.5581,-234.6421 541.3378,-202.8142 557.8916,-185 620.7538,-117.3513 884.8322,-179.8004 971.8916,-149 993.6229,-141.3118 992.9639,-127.1088 1014.8916,-120 1083.3272,-97.8137 2150.345,-76.318 2441.8129,-70.8378"/>
<polygon fill="#191970" stroke="#191970" points="2441.9186,-74.3365 2451.8512,-70.6496 2441.7873,-67.3378 2441.9186,-74.3365"/>
</g>
<!-- Node70&#45;&gt;Node16 -->
<g id="edge133" class="edge">
<title>Node70&#45;&gt;Node16</title>
<path fill="none" stroke="#191970" d="M532.591,-250.3873C505.2973,-240.1521 460.8318,-223.4776 430.2857,-212.0228"/>
<polygon fill="#191970" stroke="#191970" points="431.4889,-208.736 420.8966,-208.5019 429.0309,-215.2903 431.4889,-208.736"/>
</g>
<!-- Node71&#45;&gt;Node3 -->
<g id="edge136" class="edge">
<title>Node71&#45;&gt;Node3</title>
<path fill="none" stroke="#191970" d="M3600.7099,-250.2342C3608.1493,-234.4924 3619.8946,-202.5324 3602.8916,-185 3588.8832,-170.5554 2326.3227,-142.4727 2021.5502,-135.8999"/>
<polygon fill="#191970" stroke="#191970" points="2021.1892,-132.3914 2011.1162,-135.6752 2021.0385,-139.3898 2021.1892,-132.3914"/>
</g>
<!-- Node71&#45;&gt;Node4 -->
<g id="edge137" class="edge">
<title>Node71&#45;&gt;Node4</title>
<path fill="none" stroke="#191970" d="M3516.7501,-250.8283C3513.7601,-250.5414 3510.7993,-250.2641 3507.8916,-250 3291.3051,-230.3261 3235.1851,-244.7487 3019.8916,-214 3013.4612,-213.0816 3006.7295,-211.9086 3000.1074,-210.6286"/>
<polygon fill="#191970" stroke="#191970" points="3000.3463,-207.106 2989.8504,-208.5504 2998.9561,-213.9666 3000.3463,-207.106"/>
</g>
<!-- Node71&#45;&gt;Node8 -->
<g id="edge139" class="edge">
<title>Node71&#45;&gt;Node8</title>
<path fill="none" stroke="#191970" d="M3670.7262,-250.487C3756.3121,-239.8174 3885.65,-222.4355 3892.8916,-214 3915.2086,-188.0037 3874.7469,-130.3001 3863.8916,-120 3805.5138,-64.608 3773.683,-71.3754 3694.8916,-55 3591.2884,-33.4679 2823.3571,-14.1243 2659.5659,-10.2169"/>
<polygon fill="#191970" stroke="#191970" points="2659.3281,-6.7104 2649.2479,-9.9722 2659.162,-13.7084 2659.3281,-6.7104"/>
</g>
<!-- Node71&#45;&gt;Node11 -->
<g id="edge140" class="edge">
<title>Node71&#45;&gt;Node11</title>
<path fill="none" stroke="#191970" d="M3665.6368,-250.4905C3746.6077,-239.6948 3870.035,-222.0562 3876.8916,-214 3909.976,-175.1276 3842.4709,-128.8699 3824.8916,-120 3769.4353,-92.0187 2855.7089,-75.0334 2588.025,-70.6408"/>
<polygon fill="#191970" stroke="#191970" points="2587.7018,-67.1352 2577.646,-70.4715 2587.5876,-74.1342 2587.7018,-67.1352"/>
</g>
<!-- Node71&#45;&gt;Node31 -->
<g id="edge138" class="edge">
<title>Node71&#45;&gt;Node31</title>
<path fill="none" stroke="#191970" d="M3575.5399,-250.3873C3556.214,-241.7339 3526.6083,-228.4776 3502.459,-217.6645"/>
<polygon fill="#191970" stroke="#191970" points="3503.7245,-214.3963 3493.1673,-213.504 3500.8638,-220.7851 3503.7245,-214.3963"/>
</g>
<!-- Node71&#45;&gt;Node72 -->
<g id="edge141" class="edge">
<title>Node71&#45;&gt;Node72</title>
<path fill="none" stroke="#191970" d="M3675.036,-250.8596C3678.0252,-250.5639 3680.9851,-250.2763 3683.8916,-250 3878.3382,-231.5164 3928.1792,-239.0327 4121.8916,-214 4130.1358,-212.9346 4138.8134,-211.6163 4147.3138,-210.2125"/>
<polygon fill="#191970" stroke="#191970" points="4147.9031,-213.6626 4157.1745,-208.5352 4146.7292,-206.7617 4147.9031,-213.6626"/>
</g>
<!-- Node72&#45;&gt;Node11 -->
<g id="edge142" class="edge">
<title>Node72&#45;&gt;Node11</title>
<path fill="none" stroke="#191970" d="M4187.2321,-190.3774C4154.2011,-172.8339 4077.5705,-134.8204 4007.8916,-120 3868.5074,-90.3535 2868.0008,-74.3896 2587.7091,-70.4661"/>
<polygon fill="#191970" stroke="#191970" points="2587.6983,-66.9657 2577.6506,-70.3261 2587.6009,-73.965 2587.6983,-66.9657"/>
</g>
<!-- Node73&#45;&gt;Node3 -->
<g id="edge145" class="edge">
<title>Node73&#45;&gt;Node3</title>
<path fill="none" stroke="#191970" d="M3492.8816,-250.4946C3548.735,-239.8773 3618.0521,-219.2044 3584.8916,-185 3571.0461,-170.7187 2323.6452,-142.5412 2021.3299,-135.9176"/>
<polygon fill="#191970" stroke="#191970" points="2021.0521,-132.4108 2010.9779,-135.6911 2020.8989,-139.4091 2021.0521,-132.4108"/>
</g>
<!-- Node73&#45;&gt;Node4 -->
<g id="edge146" class="edge">
<title>Node73&#45;&gt;Node4</title>
<path fill="none" stroke="#191970" d="M3364.8932,-254.1765C3283.1373,-247.2031 3140.8424,-233.5239 3019.8916,-214 3013.7135,-213.0027 3007.2489,-211.8147 3000.8672,-210.5541"/>
<polygon fill="#191970" stroke="#191970" points="3001.4584,-207.1026 2990.9602,-208.5304 3000.0573,-213.961 3001.4584,-207.1026"/>
</g>
<!-- Node73&#45;&gt;Node8 -->
<g id="edge148" class="edge">
<title>Node73&#45;&gt;Node8</title>
<path fill="none" stroke="#191970" d="M3499.0167,-251.0092C3502.0152,-250.6615 3504.9842,-250.3235 3507.8916,-250 3548.8336,-245.4448 3849.2129,-244.5105 3876.8916,-214 3885.5516,-204.454 3881.1579,-197.1623 3876.8916,-185 3828.7918,-47.8779 3720.5266,-77.0235 3576.8916,-55 3393.7522,-26.9192 2800.7829,-13.0616 2659.3731,-10.1084"/>
<polygon fill="#191970" stroke="#191970" points="2659.3258,-6.6068 2649.2557,-9.8997 2659.1814,-13.6053 2659.3258,-6.6068"/>
</g>
<!-- Node73&#45;&gt;Node11 -->
<g id="edge149" class="edge">
<title>Node73&#45;&gt;Node11</title>
<path fill="none" stroke="#191970" d="M3499.0185,-251.0252C3502.0165,-250.6732 3504.9849,-250.3298 3507.8916,-250 3547.0658,-245.5546 3834.4655,-243.2582 3860.8916,-214 3869.5307,-204.435 3866.2453,-196.7244 3860.8916,-185 3842.5696,-144.8754 3826.9054,-136.2342 3785.8916,-120 3730.011,-97.8811 2849.8983,-76.8592 2587.9143,-71.0663"/>
<polygon fill="#191970" stroke="#191970" points="2587.8233,-67.5636 2577.7486,-70.8424 2587.6691,-74.5619 2587.8233,-67.5636"/>
</g>
<!-- Node73&#45;&gt;Node31 -->
<g id="edge147" class="edge">
<title>Node73&#45;&gt;Node31</title>
<path fill="none" stroke="#191970" d="M3436.448,-250.3873C3440.0869,-243.1095 3445.3536,-232.5759 3450.1525,-222.9782"/>
<polygon fill="#191970" stroke="#191970" points="3453.3761,-224.3572 3454.7178,-213.8477 3447.1151,-221.2267 3453.3761,-224.3572"/>
</g>
<!-- Node75&#45;&gt;Node8 -->
<g id="edge152" class="edge">
<title>Node75&#45;&gt;Node8</title>
<path fill="none" stroke="#191970" d="M26.184,-190.4156C24.7075,-164.2405 24.4977,-88.4041 67.8916,-55 120.5934,-14.4309 2312.4984,-9.9497 2598.2839,-9.5377"/>
<polygon fill="#191970" stroke="#191970" points="2598.359,-13.0377 2608.3542,-9.5237 2598.3493,-6.0377 2598.359,-13.0377"/>
</g>
<!-- Node75&#45;&gt;Node9 -->
<g id="edge153" class="edge">
<title>Node75&#45;&gt;Node9</title>
<path fill="none" stroke="#191970" d="M53.9593,-197.0827C129.9853,-190.114 344.3126,-169.1904 411.8916,-149 413.3119,-148.5757 414.7485,-148.091 416.1838,-147.5623"/>
<polygon fill="#191970" stroke="#191970" points="417.6283,-150.7513 425.4528,-143.608 414.8814,-144.3128 417.6283,-150.7513"/>
</g>
</g>
</svg>
