<?xml version="1.0" encoding="UTF-8" standalone="no"?>
<!DOCTYPE svg PUBLIC "-//W3C//DTD SVG 1.1//EN"
 "http://www.w3.org/Graphics/SVG/1.1/DTD/svg11.dtd">
<!-- Generated by graphviz version 2.40.1 (20161225.0304)
 -->
<!-- Title: /Users/oskryp/Projects/freesee&#45;native&#45;client/libs/fcc_sdk/engine/meetingclient/src/headers/MeetingClient/RawRTMessagesController.hxx Pages: 1 -->
<!--zoomable 457 -->
<svg id="main" version="1.1" xmlns="http://www.w3.org/2000/svg" xmlns:xlink="http://www.w3.org/1999/xlink" xml:space="preserve" onload="init(evt)">
<style type="text/css"><![CDATA[
.edge:hover path { stroke: red; }
.edge:hover polygon { stroke: red; fill: red; }
]]></style>
<script type="text/javascript"><![CDATA[
var edges = document.getElementsByTagName('g');
if (edges && edges.length) {
  for (var i=0;i<edges.length;i++) {
    if (edges[i].id.substr(0,4)=='edge') {
      edges[i].setAttribute('class','edge');
    }
  }
}
]]></script>
        <defs>
                <circle id="rim" cx="0" cy="0" r="7"/>
                <circle id="rim2" cx="0" cy="0" r="3.5"/>
                <g id="zoomPlus">
                        <use xlink:href="#rim" fill="#404040">
                                <set attributeName="fill" to="#808080" begin="zoomplus.mouseover" end="zoomplus.mouseout"/>
                        </use>
                        <path d="M-4,0h8M0,-4v8" fill="none" stroke="white" stroke-width="1.5" pointer-events="none"/>
                </g>
                <g id="zoomMin">
                        <use xlink:href="#rim" fill="#404040">
                                <set attributeName="fill" to="#808080" begin="zoomminus.mouseover" end="zoomminus.mouseout"/>
                        </use>
                        <path d="M-4,0h8" fill="none" stroke="white" stroke-width="1.5" pointer-events="none"/>
                </g>
                <g id="dirArrow">
                        <path fill="none" stroke="white" stroke-width="1.5" d="M0,-3.0v7 M-2.5,-0.5L0,-3.0L2.5,-0.5"/>
                </g>
               <g id="resetDef">
                       <use xlink:href="#rim2" fill="#404040">
                               <set attributeName="fill" to="#808080" begin="reset.mouseover" end="reset.mouseout"/>
                       </use>
               </g>
        </defs>

<script type="text/javascript">
var viewWidth = 1360;
var viewHeight = 457;
var sectionId = 'dynsection-0';
</script>
<script xlink:href="svgpan.js"/>
<svg id="graph" class="graph">
<g id="viewport">
<title>/Users/oskryp/Projects/freesee&#45;native&#45;client/libs/fcc_sdk/engine/meetingclient/src/headers/MeetingClient/RawRTMessagesController.hxx</title>
<!-- Node0 -->
<g id="node1" class="node">
<title>Node0</title>
<g id="a_node1"><a xlink:title=" ">
<polygon fill="#bfbfbf" stroke="#000000" points="173.4746,-390.5 173.4746,-448.5 389.9336,-448.5 389.9336,-390.5 173.4746,-390.5"/>
<text text-anchor="start" x="181.4746" y="-436.5" font-family="Helvetica,sans-Serif" font-size="10.00" fill="#000000">/Users/oskryp/Projects</text>
<text text-anchor="start" x="181.4746" y="-426.5" font-family="Helvetica,sans-Serif" font-size="10.00" fill="#000000">/freesee&#45;native&#45;client</text>
<text text-anchor="start" x="181.4746" y="-416.5" font-family="Helvetica,sans-Serif" font-size="10.00" fill="#000000">/libs/fcc_sdk/engine/meetingclient</text>
<text text-anchor="start" x="181.4746" y="-406.5" font-family="Helvetica,sans-Serif" font-size="10.00" fill="#000000">/src/headers/MeetingClient/RawRTMessages</text>
<text text-anchor="middle" x="281.7041" y="-396.5" font-family="Helvetica,sans-Serif" font-size="10.00" fill="#000000">Controller.hxx</text>
</a>
</g>
</g>
<!-- Node1 -->
<g id="node2" class="node">
<title>Node1</title>
<g id="a_node2"><a xlink:title=" ">
<polygon fill="none" stroke="#bfbfbf" points="0,-325.5 0,-353.5 109.4082,-353.5 109.4082,-325.5 0,-325.5"/>
<text text-anchor="start" x="8" y="-341.5" font-family="Helvetica,sans-Serif" font-size="10.00" fill="#000000">boost/enable_shared</text>
<text text-anchor="middle" x="54.7041" y="-331.5" font-family="Helvetica,sans-Serif" font-size="10.00" fill="#000000">_from_this.hpp</text>
</a>
</g>
</g>
<!-- Node0&#45;&gt;Node1 -->
<g id="edge1" class="edge">
<title>Node0&#45;&gt;Node1</title>
<path fill="none" stroke="#191970" d="M199.1097,-390.3919C167.2451,-379.162 131.8624,-366.6924 104.0963,-356.9069"/>
<polygon fill="#191970" stroke="#191970" points="105.2058,-353.587 94.611,-353.5641 102.879,-360.189 105.2058,-353.587"/>
</g>
<!-- Node2 -->
<g id="node3" class="node">
<title>Node2</title>
<g id="a_node3"><a xlink:title=" ">
<polygon fill="none" stroke="#bfbfbf" points="130.7217,-265.5 130.7217,-283.5 240.6865,-283.5 240.6865,-265.5 130.7217,-265.5"/>
<text text-anchor="middle" x="185.7041" y="-271.5" font-family="Helvetica,sans-Serif" font-size="10.00" fill="#000000">boost/shared_ptr.hpp</text>
</a>
</g>
</g>
<!-- Node0&#45;&gt;Node2 -->
<g id="edge2" class="edge">
<title>Node0&#45;&gt;Node2</title>
<path fill="none" stroke="#191970" d="M195.5922,-390.3999C180.104,-381.2042 165.9618,-369.3027 156.7041,-354 144.7695,-334.2724 158.3662,-308.855 170.6762,-292.1379"/>
<polygon fill="#191970" stroke="#191970" points="173.7757,-293.8591 177.2123,-283.8371 168.276,-289.5285 173.7757,-293.8591"/>
</g>
<!-- Node3 -->
<g id="node4" class="node">
<title>Node3</title>
<g id="a_node4"><a xlink:title=" ">
<polygon fill="none" stroke="#bfbfbf" points="310.4775,-5.5 310.4775,-23.5 350.9307,-23.5 350.9307,-5.5 310.4775,-5.5"/>
<text text-anchor="middle" x="330.7041" y="-11.5" font-family="Helvetica,sans-Serif" font-size="10.00" fill="#000000">string</text>
</a>
</g>
</g>
<!-- Node0&#45;&gt;Node3 -->
<g id="edge3" class="edge">
<title>Node0&#45;&gt;Node3</title>
<path fill="none" stroke="#191970" d="M297.4211,-390.441C311.4199,-361.8108 329.7041,-316.397 329.7041,-274.5 329.7041,-274.5 329.7041,-274.5 329.7041,-144.5 329.7041,-105.1592 330.1677,-59.1237 330.4636,-33.7482"/>
<polygon fill="#191970" stroke="#191970" points="333.9645,-33.6827 330.5855,-23.6412 326.965,-33.5983 333.9645,-33.6827"/>
</g>
<!-- Node4 -->
<g id="node5" class="node">
<title>Node4</title>
<g id="a_node5"><a xlink:href="_i_raw_r_t_message_notifications_delegate_8hxx.html" target="_top" xlink:title=" ">
<polygon fill="none" stroke="#000000" points="607.3096,-325.5 607.3096,-353.5 802.0986,-353.5 802.0986,-325.5 607.3096,-325.5"/>
<text text-anchor="start" x="615.3096" y="-341.5" font-family="Helvetica,sans-Serif" font-size="10.00" fill="#000000">Delegates/IRawRTMessageNotifications</text>
<text text-anchor="middle" x="704.7041" y="-331.5" font-family="Helvetica,sans-Serif" font-size="10.00" fill="#000000">Delegate.hxx</text>
</a>
</g>
</g>
<!-- Node0&#45;&gt;Node4 -->
<g id="edge4" class="edge">
<title>Node0&#45;&gt;Node4</title>
<path fill="none" stroke="#191970" d="M390.0878,-399.0019C461.7997,-385.4394 554.4516,-367.9165 620.6017,-355.4059"/>
<polygon fill="#191970" stroke="#191970" points="621.3978,-358.8175 630.5731,-353.52 620.0969,-351.9394 621.3978,-358.8175"/>
</g>
<!-- Node13 -->
<g id="node14" class="node">
<title>Node13</title>
<g id="a_node14"><a xlink:href="_common_data_types_8hxx.html" target="_top" xlink:title=" ">
<polygon fill="none" stroke="#000000" points="357.958,-65.5 357.958,-93.5 483.4502,-93.5 483.4502,-65.5 357.958,-65.5"/>
<text text-anchor="start" x="365.958" y="-81.5" font-family="Helvetica,sans-Serif" font-size="10.00" fill="#000000">MeetingClient/types</text>
<text text-anchor="middle" x="420.7041" y="-71.5" font-family="Helvetica,sans-Serif" font-size="10.00" fill="#000000">/CommonDataTypes.hxx</text>
</a>
</g>
</g>
<!-- Node0&#45;&gt;Node13 -->
<g id="edge24" class="edge">
<title>Node0&#45;&gt;Node13</title>
<path fill="none" stroke="#191970" d="M314.9272,-390.2899C325.3372,-379.7242 336.0841,-367.1384 343.7041,-354 362.2212,-322.0729 367.7041,-311.4083 367.7041,-274.5 367.7041,-274.5 367.7041,-274.5 367.7041,-209.5 367.7041,-169.3416 389.6589,-127.025 405.3076,-101.9636"/>
<polygon fill="#191970" stroke="#191970" points="408.257,-103.848 410.7352,-93.5471 402.3741,-100.0542 408.257,-103.848"/>
</g>
<!-- Node22 -->
<g id="node23" class="node">
<title>Node22</title>
<g id="a_node23"><a xlink:href="_meeting_controller_base_8hxx.html" target="_top" xlink:title=" ">
<polygon fill="none" stroke="#000000" points="165.6748,-330.5 165.6748,-348.5 301.7334,-348.5 301.7334,-330.5 165.6748,-330.5"/>
<text text-anchor="middle" x="233.7041" y="-336.5" font-family="Helvetica,sans-Serif" font-size="10.00" fill="#000000">MeetingControllerBase.hxx</text>
</a>
</g>
</g>
<!-- Node0&#45;&gt;Node22 -->
<g id="edge25" class="edge">
<title>Node0&#45;&gt;Node22</title>
<path fill="none" stroke="#191970" d="M264.1032,-390.1652C257.5212,-379.1952 250.2464,-367.0706 244.4641,-357.4333"/>
<polygon fill="#191970" stroke="#191970" points="247.4064,-355.5343 239.2601,-348.7601 241.4039,-359.1358 247.4064,-355.5343"/>
</g>
<!-- Node5 -->
<g id="node6" class="node">
<title>Node5</title>
<g id="a_node6"><a xlink:href="_notifications_8hxx.html" target="_top" xlink:title=" ">
<polygon fill="none" stroke="#000000" points="782.229,-260.5 782.229,-288.5 907.1792,-288.5 907.1792,-260.5 782.229,-260.5"/>
<text text-anchor="start" x="790.229" y="-276.5" font-family="Helvetica,sans-Serif" font-size="10.00" fill="#000000">MeetingClient/Delegates</text>
<text text-anchor="middle" x="844.7041" y="-266.5" font-family="Helvetica,sans-Serif" font-size="10.00" fill="#000000">/Notifications.hxx</text>
</a>
</g>
</g>
<!-- Node4&#45;&gt;Node5 -->
<g id="edge5" class="edge">
<title>Node4&#45;&gt;Node5</title>
<path fill="none" stroke="#191970" d="M735.082,-325.396C755.6294,-315.8561 782.9681,-303.1632 805.2033,-292.8397"/>
<polygon fill="#191970" stroke="#191970" points="806.7893,-295.9622 814.3855,-288.5765 803.8415,-289.6131 806.7893,-295.9622"/>
</g>
<!-- Node6 -->
<g id="node7" class="node">
<title>Node6</title>
<g id="a_node7"><a xlink:title=" ">
<polygon fill="none" stroke="#bfbfbf" points="1169.064,-195.5 1169.064,-223.5 1282.3442,-223.5 1282.3442,-195.5 1169.064,-195.5"/>
<text text-anchor="start" x="1177.064" y="-211.5" font-family="Helvetica,sans-Serif" font-size="10.00" fill="#000000">boost/date_time/posix</text>
<text text-anchor="middle" x="1225.7041" y="-201.5" font-family="Helvetica,sans-Serif" font-size="10.00" fill="#000000">_time/posix_time.hpp</text>
</a>
</g>
</g>
<!-- Node5&#45;&gt;Node6 -->
<g id="edge6" class="edge">
<title>Node5&#45;&gt;Node6</title>
<path fill="none" stroke="#191970" d="M907.2567,-265.6534C968.9658,-256.6658 1066.1959,-241.8097 1159.1727,-224.2333"/>
<polygon fill="#191970" stroke="#191970" points="1159.8573,-227.666 1169.0261,-222.3572 1158.5479,-220.7895 1159.8573,-227.666"/>
</g>
<!-- Node7 -->
<g id="node8" class="node">
<title>Node7</title>
<g id="a_node8"><a xlink:title=" ">
<polygon fill="none" stroke="#bfbfbf" points="1299.9775,-200.5 1299.9775,-218.5 1335.4307,-218.5 1335.4307,-200.5 1299.9775,-200.5"/>
<text text-anchor="middle" x="1317.7041" y="-206.5" font-family="Helvetica,sans-Serif" font-size="10.00" fill="#000000">map</text>
</a>
</g>
</g>
<!-- Node5&#45;&gt;Node7 -->
<g id="edge7" class="edge">
<title>Node5&#45;&gt;Node7</title>
<path fill="none" stroke="#191970" d="M907.3488,-270.4821C1012.946,-263.1996 1221.7122,-246.4677 1291.7041,-224 1292.7375,-223.6683 1293.7764,-223.2934 1294.8128,-222.8847"/>
<polygon fill="#191970" stroke="#191970" points="1296.36,-226.0244 1303.863,-218.544 1293.3329,-219.7128 1296.36,-226.0244"/>
</g>
<!-- Node8 -->
<g id="node9" class="node">
<title>Node8</title>
<g id="a_node9"><a xlink:title=" ">
<polygon fill="none" stroke="#bfbfbf" points="396.0884,-200.5 396.0884,-218.5 439.3198,-218.5 439.3198,-200.5 396.0884,-200.5"/>
<text text-anchor="middle" x="417.7041" y="-206.5" font-family="Helvetica,sans-Serif" font-size="10.00" fill="#000000">vector</text>
</a>
</g>
</g>
<!-- Node5&#45;&gt;Node8 -->
<g id="edge8" class="edge">
<title>Node5&#45;&gt;Node8</title>
<path fill="none" stroke="#191970" d="M781.921,-269.0053C686.2976,-260.2153 508.8188,-242.1293 447.7041,-224 446.283,-223.5784 444.8457,-223.096 443.4099,-222.569"/>
<polygon fill="#191970" stroke="#191970" points="444.711,-219.319 434.1392,-218.6203 441.9679,-225.7591 444.711,-219.319"/>
</g>
<!-- Node9 -->
<g id="node10" class="node">
<title>Node9</title>
<g id="a_node10"><a xlink:title=" ">
<polygon fill="none" stroke="#bfbfbf" points="457.0171,-200.5 457.0171,-218.5 546.3911,-218.5 546.3911,-200.5 457.0171,-200.5"/>
<text text-anchor="middle" x="501.7041" y="-206.5" font-family="Helvetica,sans-Serif" font-size="10.00" fill="#000000">FSSnapshot.hxx</text>
</a>
</g>
</g>
<!-- Node5&#45;&gt;Node9 -->
<g id="edge9" class="edge">
<title>Node5&#45;&gt;Node9</title>
<path fill="none" stroke="#191970" d="M782.1404,-265.3576C723.1786,-256.3284 632.5109,-241.377 554.7041,-224 550.7836,-223.1244 546.7189,-222.1446 542.6635,-221.1184"/>
<polygon fill="#191970" stroke="#191970" points="543.2498,-217.654 532.6892,-218.5054 541.4758,-224.4255 543.2498,-217.654"/>
</g>
<!-- Node10 -->
<g id="node11" class="node">
<title>Node10</title>
<g id="a_node11"><a xlink:href="macros_8hxx.html" target="_top" xlink:title=" ">
<polygon fill="none" stroke="#000000" points="564.1821,-200.5 564.1821,-218.5 695.2261,-218.5 695.2261,-200.5 564.1821,-200.5"/>
<text text-anchor="middle" x="629.7041" y="-206.5" font-family="Helvetica,sans-Serif" font-size="10.00" fill="#000000">MeetingClient/macros.hxx</text>
</a>
</g>
</g>
<!-- Node5&#45;&gt;Node10 -->
<g id="edge10" class="edge">
<title>Node5&#45;&gt;Node10</title>
<path fill="none" stroke="#191970" d="M798.317,-260.476C759.8396,-248.8433 705.7206,-232.4817 669.2648,-221.4602"/>
<polygon fill="#191970" stroke="#191970" points="670.0635,-218.0453 659.4785,-218.5016 668.0377,-224.7458 670.0635,-218.0453"/>
</g>
<!-- Node11 -->
<g id="node12" class="node">
<title>Node11</title>
<g id="a_node12"><a xlink:href="_f_s_base_8hxx.html" target="_top" xlink:title=" ">
<polygon fill="none" stroke="#000000" points="713.0122,-195.5 713.0122,-223.5 832.396,-223.5 832.396,-195.5 713.0122,-195.5"/>
<text text-anchor="start" x="721.0122" y="-211.5" font-family="Helvetica,sans-Serif" font-size="10.00" fill="#000000">MeetingClient/transport</text>
<text text-anchor="middle" x="772.7041" y="-201.5" font-family="Helvetica,sans-Serif" font-size="10.00" fill="#000000">/FSBase.hxx</text>
</a>
</g>
</g>
<!-- Node5&#45;&gt;Node11 -->
<g id="edge11" class="edge">
<title>Node5&#45;&gt;Node11</title>
<path fill="none" stroke="#191970" d="M829.0812,-260.396C819.3631,-251.6227 806.6911,-240.1827 795.8232,-230.3714"/>
<polygon fill="#191970" stroke="#191970" points="798.0646,-227.6796 788.2965,-223.5765 793.3739,-232.8755 798.0646,-227.6796"/>
</g>
<!-- Node12 -->
<g id="node13" class="node">
<title>Node12</title>
<g id="a_node13"><a xlink:href="_meeting_types_8hxx.html" target="_top" xlink:title=" ">
<polygon fill="none" stroke="#000000" points="1180.793,-130.5 1180.793,-158.5 1284.6152,-158.5 1284.6152,-130.5 1180.793,-130.5"/>
<text text-anchor="start" x="1188.793" y="-146.5" font-family="Helvetica,sans-Serif" font-size="10.00" fill="#000000">MeetingClient/types</text>
<text text-anchor="middle" x="1232.7041" y="-136.5" font-family="Helvetica,sans-Serif" font-size="10.00" fill="#000000">/MeetingTypes.hxx</text>
</a>
</g>
</g>
<!-- Node5&#45;&gt;Node12 -->
<g id="edge12" class="edge">
<title>Node5&#45;&gt;Node12</title>
<path fill="none" stroke="#191970" d="M907.5444,-272.7684C1035.3322,-268.5969 1315.8873,-255.8739 1344.7041,-224 1367.8491,-198.3996 1329.0233,-176.335 1290.9013,-161.9911"/>
<polygon fill="#191970" stroke="#191970" points="1291.8569,-158.6151 1281.2626,-158.5133 1289.4811,-165.1996 1291.8569,-158.6151"/>
</g>
<!-- Node17 -->
<g id="node18" class="node">
<title>Node17</title>
<g id="a_node18"><a xlink:href="_conference_attribute_definitions_8hxx.html" target="_top" xlink:title=" ">
<polygon fill="none" stroke="#000000" points="850.894,-195.5 850.894,-223.5 982.5142,-223.5 982.5142,-195.5 850.894,-195.5"/>
<text text-anchor="start" x="858.894" y="-211.5" font-family="Helvetica,sans-Serif" font-size="10.00" fill="#000000">MeetingClient/Conference</text>
<text text-anchor="middle" x="916.7041" y="-201.5" font-family="Helvetica,sans-Serif" font-size="10.00" fill="#000000">AttributeDefinitions.hxx</text>
</a>
</g>
</g>
<!-- Node5&#45;&gt;Node17 -->
<g id="edge18" class="edge">
<title>Node5&#45;&gt;Node17</title>
<path fill="none" stroke="#191970" d="M860.327,-260.396C870.0451,-251.6227 882.7171,-240.1827 893.585,-230.3714"/>
<polygon fill="#191970" stroke="#191970" points="896.0343,-232.8755 901.1117,-223.5765 891.3436,-227.6796 896.0343,-232.8755"/>
</g>
<!-- Node18 -->
<g id="node19" class="node">
<title>Node18</title>
<g id="a_node19"><a xlink:href="_meeting_session_parameters_8hxx.html" target="_top" xlink:title=" ">
<polygon fill="none" stroke="#000000" points="1000.1675,-195.5 1000.1675,-223.5 1151.2407,-223.5 1151.2407,-195.5 1000.1675,-195.5"/>
<text text-anchor="start" x="1008.1675" y="-211.5" font-family="Helvetica,sans-Serif" font-size="10.00" fill="#000000">MeetingClient/MeetingSession</text>
<text text-anchor="middle" x="1075.7041" y="-201.5" font-family="Helvetica,sans-Serif" font-size="10.00" fill="#000000">Parameters.hxx</text>
</a>
</g>
</g>
<!-- Node5&#45;&gt;Node18 -->
<g id="edge19" class="edge">
<title>Node5&#45;&gt;Node18</title>
<path fill="none" stroke="#191970" d="M894.5433,-260.476C930.0949,-250.4723 978.075,-236.9714 1015.7261,-226.3769"/>
<polygon fill="#191970" stroke="#191970" points="1016.878,-229.6888 1025.5561,-223.6109 1014.9818,-222.9505 1016.878,-229.6888"/>
</g>
<!-- Node12&#45;&gt;Node13 -->
<g id="edge13" class="edge">
<title>Node12&#45;&gt;Node13</title>
<path fill="none" stroke="#191970" d="M1180.7777,-131.3793C1178.0555,-130.8708 1175.3523,-130.4059 1172.7041,-130 1043.296,-110.1656 656.7226,-90.4834 494.0871,-82.8343"/>
<polygon fill="#191970" stroke="#191970" points="493.8563,-79.3197 483.7035,-82.348 493.5288,-86.312 493.8563,-79.3197"/>
</g>
<!-- Node15 -->
<g id="node16" class="node">
<title>Node15</title>
<g id="a_node16"><a xlink:href="strong__identity_8hxx.html" target="_top" xlink:title=" ">
<polygon fill="none" stroke="#000000" points="1181.9941,-65.5 1181.9941,-93.5 1283.4141,-93.5 1283.4141,-65.5 1181.9941,-65.5"/>
<text text-anchor="start" x="1189.9941" y="-81.5" font-family="Helvetica,sans-Serif" font-size="10.00" fill="#000000">MeetingClient/utils</text>
<text text-anchor="middle" x="1232.7041" y="-71.5" font-family="Helvetica,sans-Serif" font-size="10.00" fill="#000000">/strong_identity.hxx</text>
</a>
</g>
</g>
<!-- Node12&#45;&gt;Node15 -->
<g id="edge16" class="edge">
<title>Node12&#45;&gt;Node15</title>
<path fill="none" stroke="#191970" d="M1232.7041,-130.396C1232.7041,-122.6448 1232.7041,-112.8122 1232.7041,-103.8601"/>
<polygon fill="#191970" stroke="#191970" points="1236.2042,-103.5765 1232.7041,-93.5765 1229.2042,-103.5765 1236.2042,-103.5765"/>
</g>
<!-- Node13&#45;&gt;Node3 -->
<g id="edge14" class="edge">
<title>Node13&#45;&gt;Node3</title>
<path fill="none" stroke="#191970" d="M401.1754,-65.396C386.4817,-54.7838 366.3855,-40.2699 351.4127,-29.4562"/>
<polygon fill="#191970" stroke="#191970" points="353.4246,-26.5919 343.2685,-23.5743 349.3261,-32.2666 353.4246,-26.5919"/>
</g>
<!-- Node14 -->
<g id="node15" class="node">
<title>Node14</title>
<g id="a_node15"><a xlink:title=" ">
<polygon fill="none" stroke="#bfbfbf" points="369.9087,-5.5 369.9087,-23.5 471.4995,-23.5 471.4995,-5.5 369.9087,-5.5"/>
<text text-anchor="middle" x="420.7041" y="-11.5" font-family="Helvetica,sans-Serif" font-size="10.00" fill="#000000">CommonTypes.hxx</text>
</a>
</g>
</g>
<!-- Node13&#45;&gt;Node14 -->
<g id="edge15" class="edge">
<title>Node13&#45;&gt;Node14</title>
<path fill="none" stroke="#191970" d="M420.7041,-65.396C420.7041,-56.1723 420.7041,-44.0011 420.7041,-33.8738"/>
<polygon fill="#191970" stroke="#191970" points="424.2042,-33.5743 420.7041,-23.5743 417.2042,-33.5743 424.2042,-33.5743"/>
</g>
<!-- Node16 -->
<g id="node17" class="node">
<title>Node16</title>
<g id="a_node17"><a xlink:title=" ">
<polygon fill="none" stroke="#bfbfbf" points="1180.5049,-.5 1180.5049,-28.5 1284.9033,-28.5 1284.9033,-.5 1180.5049,-.5"/>
<text text-anchor="start" x="1188.5049" y="-16.5" font-family="Helvetica,sans-Serif" font-size="10.00" fill="#000000">boost/serialization</text>
<text text-anchor="middle" x="1232.7041" y="-6.5" font-family="Helvetica,sans-Serif" font-size="10.00" fill="#000000">/strong_typedef.hpp</text>
</a>
</g>
</g>
<!-- Node15&#45;&gt;Node16 -->
<g id="edge17" class="edge">
<title>Node15&#45;&gt;Node16</title>
<path fill="none" stroke="#191970" d="M1232.7041,-65.396C1232.7041,-57.6448 1232.7041,-47.8122 1232.7041,-38.8601"/>
<polygon fill="#191970" stroke="#191970" points="1236.2042,-38.5765 1232.7041,-28.5765 1229.2042,-38.5765 1236.2042,-38.5765"/>
</g>
<!-- Node18&#45;&gt;Node12 -->
<g id="edge20" class="edge">
<title>Node18&#45;&gt;Node12</title>
<path fill="none" stroke="#191970" d="M1109.7708,-195.396C1133.1218,-185.7284 1164.2941,-172.8226 1189.4055,-162.4262"/>
<polygon fill="#191970" stroke="#191970" points="1190.8033,-165.6356 1198.7039,-158.5765 1188.1256,-159.168 1190.8033,-165.6356"/>
</g>
<!-- Node19 -->
<g id="node20" class="node">
<title>Node19</title>
<g id="a_node20"><a xlink:title=" ">
<polygon fill="none" stroke="#bfbfbf" points="916.1401,-135.5 916.1401,-153.5 973.2681,-153.5 973.2681,-135.5 916.1401,-135.5"/>
<text text-anchor="middle" x="944.7041" y="-141.5" font-family="Helvetica,sans-Serif" font-size="10.00" fill="#000000">algorithm</text>
</a>
</g>
</g>
<!-- Node18&#45;&gt;Node19 -->
<g id="edge21" class="edge">
<title>Node18&#45;&gt;Node19</title>
<path fill="none" stroke="#191970" d="M1047.2791,-195.396C1024.992,-184.3375 994.166,-169.0422 972.1376,-158.112"/>
<polygon fill="#191970" stroke="#191970" points="973.5059,-154.8839 962.9923,-153.5743 970.3945,-161.1544 973.5059,-154.8839"/>
</g>
<!-- Node20 -->
<g id="node21" class="node">
<title>Node20</title>
<g id="a_node21"><a xlink:title=" ">
<polygon fill="none" stroke="#bfbfbf" points="990.8003,-135.5 990.8003,-153.5 1064.6079,-153.5 1064.6079,-135.5 990.8003,-135.5"/>
<text text-anchor="middle" x="1027.7041" y="-141.5" font-family="Helvetica,sans-Serif" font-size="10.00" fill="#000000">Printable.hxx</text>
</a>
</g>
</g>
<!-- Node18&#45;&gt;Node20 -->
<g id="edge22" class="edge">
<title>Node18&#45;&gt;Node20</title>
<path fill="none" stroke="#191970" d="M1065.2888,-195.396C1057.9648,-185.4781 1048.1242,-172.1522 1040.3494,-161.6239"/>
<polygon fill="#191970" stroke="#191970" points="1043.1611,-159.5395 1034.4051,-153.5743 1037.5301,-163.6978 1043.1611,-159.5395"/>
</g>
<!-- Node21 -->
<g id="node22" class="node">
<title>Node21</title>
<g id="a_node22"><a xlink:title=" ">
<polygon fill="none" stroke="#bfbfbf" points="1082.1846,-135.5 1082.1846,-153.5 1163.2236,-153.5 1163.2236,-135.5 1082.1846,-135.5"/>
<text text-anchor="middle" x="1122.7041" y="-141.5" font-family="Helvetica,sans-Serif" font-size="10.00" fill="#000000">VoIPClient.hxx</text>
</a>
</g>
</g>
<!-- Node18&#45;&gt;Node21 -->
<g id="edge23" class="edge">
<title>Node18&#45;&gt;Node21</title>
<path fill="none" stroke="#191970" d="M1085.9024,-195.396C1093.0021,-185.5773 1102.517,-172.4184 1110.0932,-161.9406"/>
<polygon fill="#191970" stroke="#191970" points="1113.1194,-163.7287 1116.1427,-153.5743 1107.447,-159.627 1113.1194,-163.7287"/>
</g>
<!-- Node22&#45;&gt;Node2 -->
<g id="edge26" class="edge">
<title>Node22&#45;&gt;Node2</title>
<path fill="none" stroke="#191970" d="M227.0299,-330.462C219.7334,-320.5813 207.8621,-304.5056 198.7109,-292.1134"/>
<polygon fill="#191970" stroke="#191970" points="201.3884,-289.8473 192.6325,-283.8821 195.7574,-294.0057 201.3884,-289.8473"/>
</g>
</g>
</svg>
        <g id="navigator" transform="translate(0 0)" fill="#404254">
                <rect fill="#f2f5e9" fill-opacity="0.5" stroke="#606060" stroke-width=".5" x="0" y="0" width="60" height="60"/>
                <use id="zoomplus" xlink:href="#zoomPlus" x="17" y="9" onmousedown="handleZoom(evt,'in')"/>
                <use id="zoomminus" xlink:href="#zoomMin" x="42" y="9" onmousedown="handleZoom(evt,'out')"/>
                <use id="reset" xlink:href="#resetDef" x="30" y="36" onmousedown="handleReset()"/>
                <g id="arrowUp" xlink:href="#dirArrow" transform="translate(30 24)" onmousedown="handlePan(0,-1)">
                  <use xlink:href="#rim" fill="#404040">
                        <set attributeName="fill" to="#808080" begin="arrowUp.mouseover" end="arrowUp.mouseout"/>
                  </use>
                  <path fill="none" stroke="white" stroke-width="1.5" d="M0,-3.0v7 M-2.5,-0.5L0,-3.0L2.5,-0.5"/>
                </g>
                <g id="arrowRight" xlink:href="#dirArrow" transform="rotate(90) translate(36 -43)" onmousedown="handlePan(1,0)">
                  <use xlink:href="#rim" fill="#404040">
                        <set attributeName="fill" to="#808080" begin="arrowRight.mouseover" end="arrowRight.mouseout"/>
                  </use>
                  <path fill="none" stroke="white" stroke-width="1.5" d="M0,-3.0v7 M-2.5,-0.5L0,-3.0L2.5,-0.5"/>
                </g>
                <g id="arrowDown" xlink:href="#dirArrow" transform="rotate(180) translate(-30 -48)" onmousedown="handlePan(0,1)">
                  <use xlink:href="#rim" fill="#404040">
                        <set attributeName="fill" to="#808080" begin="arrowDown.mouseover" end="arrowDown.mouseout"/>
                  </use>
                  <path fill="none" stroke="white" stroke-width="1.5" d="M0,-3.0v7 M-2.5,-0.5L0,-3.0L2.5,-0.5"/>
                </g>
                <g id="arrowLeft" xlink:href="#dirArrow" transform="rotate(270) translate(-36 17)" onmousedown="handlePan(-1,0)">
                  <use xlink:href="#rim" fill="#404040">
                        <set attributeName="fill" to="#808080" begin="arrowLeft.mouseover" end="arrowLeft.mouseout"/>
                  </use>
                  <path fill="none" stroke="white" stroke-width="1.5" d="M0,-3.0v7 M-2.5,-0.5L0,-3.0L2.5,-0.5"/>
                </g>
        </g>
        <svg viewBox="0 0 15 15" width="100%" height="30px" preserveAspectRatio="xMaxYMin meet">
         <g id="arrow_out" transform="scale(0.3 0.3)">
          <a xlink:href="_raw_r_t_messages_controller_8hxx__incl_org.svg" target="_base">
           <rect id="button" ry="5" rx="5" y="6" x="6" height="38" width="38"
                fill="#f2f5e9" fill-opacity="0.5" stroke="#606060" stroke-width="1.0"/>
           <path id="arrow"
             d="M 11.500037,31.436501 C 11.940474,20.09759 22.043105,11.32322 32.158766,21.979434 L 37.068811,17.246167 C 37.068811,17.246167 37.088388,32 37.088388,32 L 22.160133,31.978069 C 22.160133,31.978069 26.997745,27.140456 26.997745,27.140456 C 18.528582,18.264221 13.291696,25.230495 11.500037,31.436501 z"
             style="fill:#404040;"/>
          </a>
         </g>
        </svg>
</svg>
