<?xml version="1.0" encoding="UTF-8" standalone="no"?>
<!DOCTYPE svg PUBLIC "-//W3C//DTD SVG 1.1//EN"
 "http://www.w3.org/Graphics/SVG/1.1/DTD/svg11.dtd">
<!-- Generated by graphviz version 2.40.1 (20161225.0304)
 -->
<!-- Title: /Users/oskryp/Projects/freesee&#45;native&#45;client/libs/fcc_sdk/engine/meetingclient/src/ReconnectResponseStatus.cxx Pages: 1 -->
<svg width="195pt" height="222pt"
 viewBox="0.00 0.00 194.90 222.00" xmlns="http://www.w3.org/2000/svg" xmlns:xlink="http://www.w3.org/1999/xlink">
<g id="graph0" class="graph" transform="scale(1 1) rotate(0) translate(4 218)">
<title>/Users/oskryp/Projects/freesee&#45;native&#45;client/libs/fcc_sdk/engine/meetingclient/src/ReconnectResponseStatus.cxx</title>
<!-- Node0 -->
<g id="node1" class="node">
<title>Node0</title>
<g id="a_node1"><a xlink:title=" ">
<polygon fill="#bfbfbf" stroke="#000000" points="4.1772,-165.5 4.1772,-213.5 178.0288,-213.5 178.0288,-165.5 4.1772,-165.5"/>
<text text-anchor="start" x="12.1772" y="-201.5" font-family="Helvetica,sans-Serif" font-size="10.00" fill="#000000">/Users/oskryp/Projects</text>
<text text-anchor="start" x="12.1772" y="-191.5" font-family="Helvetica,sans-Serif" font-size="10.00" fill="#000000">/freesee&#45;native&#45;client</text>
<text text-anchor="start" x="12.1772" y="-181.5" font-family="Helvetica,sans-Serif" font-size="10.00" fill="#000000">/libs/fcc_sdk/engine/meetingclient</text>
<text text-anchor="middle" x="91.103" y="-171.5" font-family="Helvetica,sans-Serif" font-size="10.00" fill="#000000">/src/ReconnectResponseStatus.cxx</text>
</a>
</g>
</g>
<!-- Node1 -->
<g id="node2" class="node">
<title>Node1</title>
<g id="a_node2"><a xlink:href="_reconnect_response_status_8hxx.html" target="_top" xlink:title=" ">
<polygon fill="none" stroke="#000000" points="0,-110.5 0,-128.5 182.2061,-128.5 182.2061,-110.5 0,-110.5"/>
<text text-anchor="middle" x="91.103" y="-116.5" font-family="Helvetica,sans-Serif" font-size="10.00" fill="#000000">types/ReconnectResponseStatus.hxx</text>
</a>
</g>
</g>
<!-- Node0&#45;&gt;Node1 -->
<g id="edge1" class="edge">
<title>Node0&#45;&gt;Node1</title>
<path fill="none" stroke="#191970" d="M91.103,-165.41C91.103,-156.7094 91.103,-147.0095 91.103,-138.7754"/>
<polygon fill="#191970" stroke="#191970" points="94.6031,-138.6872 91.103,-128.6872 87.6031,-138.6873 94.6031,-138.6872"/>
</g>
<!-- Node2 -->
<g id="node3" class="node">
<title>Node2</title>
<g id="a_node3"><a xlink:href="_common_data_types_8hxx.html" target="_top" xlink:title=" ">
<polygon fill="none" stroke="#000000" points="16.4063,-55.5 16.4063,-73.5 165.7998,-73.5 165.7998,-55.5 16.4063,-55.5"/>
<text text-anchor="middle" x="91.103" y="-61.5" font-family="Helvetica,sans-Serif" font-size="10.00" fill="#000000">types/CommonDataTypes.hxx</text>
</a>
</g>
</g>
<!-- Node1&#45;&gt;Node2 -->
<g id="edge2" class="edge">
<title>Node1&#45;&gt;Node2</title>
<path fill="none" stroke="#191970" d="M91.103,-110.4179C91.103,-103.2164 91.103,-92.8962 91.103,-83.8632"/>
<polygon fill="#191970" stroke="#191970" points="94.6031,-83.7794 91.103,-73.7795 87.6031,-83.7795 94.6031,-83.7794"/>
</g>
<!-- Node3 -->
<g id="node4" class="node">
<title>Node3</title>
<g id="a_node4"><a xlink:title=" ">
<polygon fill="none" stroke="#bfbfbf" points="26.8765,-.5 26.8765,-18.5 67.3296,-18.5 67.3296,-.5 26.8765,-.5"/>
<text text-anchor="middle" x="47.103" y="-6.5" font-family="Helvetica,sans-Serif" font-size="10.00" fill="#000000">string</text>
</a>
</g>
</g>
<!-- Node2&#45;&gt;Node3 -->
<g id="edge3" class="edge">
<title>Node2&#45;&gt;Node3</title>
<path fill="none" stroke="#191970" d="M83.8373,-55.4179C77.6329,-47.6624 68.535,-36.29 60.9458,-26.8035"/>
<polygon fill="#191970" stroke="#191970" points="63.5066,-24.4017 54.5266,-18.7795 58.0405,-28.7746 63.5066,-24.4017"/>
</g>
<!-- Node4 -->
<g id="node5" class="node">
<title>Node4</title>
<g id="a_node5"><a xlink:title=" ">
<polygon fill="none" stroke="#bfbfbf" points="85.3076,-.5 85.3076,-18.5 186.8984,-18.5 186.8984,-.5 85.3076,-.5"/>
<text text-anchor="middle" x="136.103" y="-6.5" font-family="Helvetica,sans-Serif" font-size="10.00" fill="#000000">CommonTypes.hxx</text>
</a>
</g>
</g>
<!-- Node2&#45;&gt;Node4 -->
<g id="edge4" class="edge">
<title>Node2&#45;&gt;Node4</title>
<path fill="none" stroke="#191970" d="M98.5339,-55.4179C104.8792,-47.6624 114.1839,-36.29 121.9456,-26.8035"/>
<polygon fill="#191970" stroke="#191970" points="124.8872,-28.7354 128.5107,-18.7795 119.4695,-24.3027 124.8872,-28.7354"/>
</g>
</g>
</svg>
