<?xml version="1.0" encoding="UTF-8" standalone="no"?>
<!DOCTYPE svg PUBLIC "-//W3C//DTD SVG 1.1//EN"
 "http://www.w3.org/Graphics/SVG/1.1/DTD/svg11.dtd">
<!-- Generated by graphviz version 2.40.1 (20161225.0304)
 -->
<!-- Title: /Users/oskryp/Projects/freesee&#45;native&#45;client/libs/fcc_sdk/engine/meetingclient/src/SCUploadData.cxx Pages: 1 -->
<svg width="804pt" height="167pt"
 viewBox="0.00 0.00 804.10 167.00" xmlns="http://www.w3.org/2000/svg" xmlns:xlink="http://www.w3.org/1999/xlink">
<g id="graph0" class="graph" transform="scale(1 1) rotate(0) translate(4 163)">
<title>/Users/oskryp/Projects/freesee&#45;native&#45;client/libs/fcc_sdk/engine/meetingclient/src/SCUploadData.cxx</title>
<!-- Node0 -->
<g id="node1" class="node">
<title>Node0</title>
<g id="a_node1"><a xlink:title=" ">
<polygon fill="#bfbfbf" stroke="#000000" points="378.7744,-110.5 378.7744,-158.5 543.7441,-158.5 543.7441,-110.5 378.7744,-110.5"/>
<text text-anchor="start" x="386.7744" y="-146.5" font-family="Helvetica,sans-Serif" font-size="10.00" fill="#000000">/Users/oskryp/Projects</text>
<text text-anchor="start" x="386.7744" y="-136.5" font-family="Helvetica,sans-Serif" font-size="10.00" fill="#000000">/freesee&#45;native&#45;client</text>
<text text-anchor="start" x="386.7744" y="-126.5" font-family="Helvetica,sans-Serif" font-size="10.00" fill="#000000">/libs/fcc_sdk/engine/meetingclient</text>
<text text-anchor="middle" x="461.2593" y="-116.5" font-family="Helvetica,sans-Serif" font-size="10.00" fill="#000000">/src/SCUploadData.cxx</text>
</a>
</g>
</g>
<!-- Node1 -->
<g id="node2" class="node">
<title>Node1</title>
<g id="a_node2"><a xlink:href="_s_c_upload_data_8hxx.html" target="_top" xlink:title=" ">
<polygon fill="none" stroke="#000000" points="62.7769,-55.5 62.7769,-73.5 227.7417,-73.5 227.7417,-55.5 62.7769,-55.5"/>
<text text-anchor="middle" x="145.2593" y="-61.5" font-family="Helvetica,sans-Serif" font-size="10.00" fill="#000000">MeetingClient/SCUploadData.hxx</text>
</a>
</g>
</g>
<!-- Node0&#45;&gt;Node1 -->
<g id="edge1" class="edge">
<title>Node0&#45;&gt;Node1</title>
<path fill="none" stroke="#191970" d="M378.6468,-116.1998C320.6504,-103.3525 244.9534,-86.5841 195.7376,-75.6819"/>
<polygon fill="#191970" stroke="#191970" points="196.4775,-72.261 185.9572,-73.5154 194.9636,-79.0954 196.4775,-72.261"/>
</g>
<!-- Node5 -->
<g id="node6" class="node">
<title>Node5</title>
<g id="a_node6"><a xlink:title=" ">
<polygon fill="none" stroke="#bfbfbf" points="245.688,-55.5 245.688,-73.5 312.8306,-73.5 312.8306,-55.5 245.688,-55.5"/>
<text text-anchor="middle" x="279.2593" y="-61.5" font-family="Helvetica,sans-Serif" font-size="10.00" fill="#000000">AutoPtr.hxx</text>
</a>
</g>
</g>
<!-- Node0&#45;&gt;Node5 -->
<g id="edge5" class="edge">
<title>Node0&#45;&gt;Node5</title>
<path fill="none" stroke="#191970" d="M398.6252,-110.41C369.5251,-99.2176 336.125,-86.3714 312.0696,-77.1193"/>
<polygon fill="#191970" stroke="#191970" points="313.2844,-73.8367 302.6945,-73.5136 310.7715,-80.3701 313.2844,-73.8367"/>
</g>
<!-- Node6 -->
<g id="node7" class="node">
<title>Node6</title>
<g id="a_node7"><a xlink:title=" ">
<polygon fill="none" stroke="#bfbfbf" points="330.7939,-55.5 330.7939,-73.5 395.7246,-73.5 395.7246,-55.5 330.7939,-55.5"/>
<text text-anchor="middle" x="363.2593" y="-61.5" font-family="Helvetica,sans-Serif" font-size="10.00" fill="#000000">Logger.hxx</text>
</a>
</g>
</g>
<!-- Node0&#45;&gt;Node6 -->
<g id="edge6" class="edge">
<title>Node0&#45;&gt;Node6</title>
<path fill="none" stroke="#191970" d="M427.5332,-110.41C413.2762,-100.2264 397.1024,-88.6737 384.546,-79.7048"/>
<polygon fill="#191970" stroke="#191970" points="386.2931,-76.6516 376.1214,-73.6872 382.2244,-82.3477 386.2931,-76.6516"/>
</g>
<!-- Node7 -->
<g id="node8" class="node">
<title>Node7</title>
<g id="a_node8"><a xlink:title=" ">
<polygon fill="none" stroke="#bfbfbf" points="414.0796,-55.5 414.0796,-73.5 508.439,-73.5 508.439,-55.5 414.0796,-55.5"/>
<text text-anchor="middle" x="461.2593" y="-61.5" font-family="Helvetica,sans-Serif" font-size="10.00" fill="#000000">Utils/Random.hxx</text>
</a>
</g>
</g>
<!-- Node0&#45;&gt;Node7 -->
<g id="edge7" class="edge">
<title>Node0&#45;&gt;Node7</title>
<path fill="none" stroke="#191970" d="M461.2593,-110.41C461.2593,-101.7094 461.2593,-92.0095 461.2593,-83.7754"/>
<polygon fill="#191970" stroke="#191970" points="464.7594,-83.6872 461.2593,-73.6872 457.7594,-83.6873 464.7594,-83.6872"/>
</g>
<!-- Node8 -->
<g id="node9" class="node">
<title>Node8</title>
<g id="a_node9"><a xlink:title=" ">
<polygon fill="none" stroke="#bfbfbf" points="525.9663,-55.5 525.9663,-73.5 622.5522,-73.5 622.5522,-55.5 525.9663,-55.5"/>
<text text-anchor="middle" x="574.2593" y="-61.5" font-family="Helvetica,sans-Serif" font-size="10.00" fill="#000000">Utils/functions.hxx</text>
</a>
</g>
</g>
<!-- Node0&#45;&gt;Node8 -->
<g id="edge8" class="edge">
<title>Node0&#45;&gt;Node8</title>
<path fill="none" stroke="#191970" d="M500.1475,-110.41C517.0106,-99.9638 536.1994,-88.0769 550.8261,-79.0161"/>
<polygon fill="#191970" stroke="#191970" points="553.0509,-81.7551 559.7088,-73.5136 549.3646,-75.8044 553.0509,-81.7551"/>
</g>
<!-- Node9 -->
<g id="node10" class="node">
<title>Node9</title>
<g id="a_node10"><a xlink:title=" ">
<polygon fill="none" stroke="#bfbfbf" points="640.3965,-55.5 640.3965,-73.5 730.1221,-73.5 730.1221,-55.5 640.3965,-55.5"/>
<text text-anchor="middle" x="685.2593" y="-61.5" font-family="Helvetica,sans-Serif" font-size="10.00" fill="#000000">JSON/Writer.hxx</text>
</a>
</g>
</g>
<!-- Node0&#45;&gt;Node9 -->
<g id="edge9" class="edge">
<title>Node0&#45;&gt;Node9</title>
<path fill="none" stroke="#191970" d="M538.3474,-110.41C574.9588,-98.9689 617.1003,-85.7997 646.8339,-76.5079"/>
<polygon fill="#191970" stroke="#191970" points="647.9151,-79.8371 656.4159,-73.5136 645.8271,-73.1557 647.9151,-79.8371"/>
</g>
<!-- Node10 -->
<g id="node11" class="node">
<title>Node10</title>
<g id="a_node11"><a xlink:title=" ">
<polygon fill="none" stroke="#bfbfbf" points="748.417,-55.5 748.417,-73.5 796.1016,-73.5 796.1016,-55.5 748.417,-55.5"/>
<text text-anchor="middle" x="772.2593" y="-61.5" font-family="Helvetica,sans-Serif" font-size="10.00" fill="#000000">errno.h</text>
</a>
</g>
</g>
<!-- Node0&#45;&gt;Node10 -->
<g id="edge10" class="edge">
<title>Node0&#45;&gt;Node10</title>
<path fill="none" stroke="#191970" d="M544.006,-117.9842C596.9744,-107.0628 667.3492,-91.9083 738.165,-74.1586"/>
<polygon fill="#191970" stroke="#191970" points="739.3188,-77.4772 748.1586,-71.6369 737.6061,-70.6899 739.3188,-77.4772"/>
</g>
<!-- Node2 -->
<g id="node3" class="node">
<title>Node2</title>
<g id="a_node3"><a xlink:title=" ">
<polygon fill="none" stroke="#bfbfbf" points="0,-.5 0,-18.5 82.5186,-18.5 82.5186,-.5 0,-.5"/>
<text text-anchor="middle" x="41.2593" y="-6.5" font-family="Helvetica,sans-Serif" font-size="10.00" fill="#000000">Utils/Buffer.hxx</text>
</a>
</g>
</g>
<!-- Node1&#45;&gt;Node2 -->
<g id="edge2" class="edge">
<title>Node1&#45;&gt;Node2</title>
<path fill="none" stroke="#191970" d="M128.0858,-55.4179C111.6013,-46.7001 86.475,-33.4122 67.486,-23.3699"/>
<polygon fill="#191970" stroke="#191970" points="68.9345,-20.1767 58.4583,-18.5956 65.662,-26.3646 68.9345,-20.1767"/>
</g>
<!-- Node3 -->
<g id="node4" class="node">
<title>Node3</title>
<g id="a_node4"><a xlink:title=" ">
<polygon fill="none" stroke="#bfbfbf" points="100.582,-.5 100.582,-18.5 189.9365,-18.5 189.9365,-.5 100.582,-.5"/>
<text text-anchor="middle" x="145.2593" y="-6.5" font-family="Helvetica,sans-Serif" font-size="10.00" fill="#000000">Utils/EString.hxx</text>
</a>
</g>
</g>
<!-- Node1&#45;&gt;Node3 -->
<g id="edge3" class="edge">
<title>Node1&#45;&gt;Node3</title>
<path fill="none" stroke="#191970" d="M145.2593,-55.4179C145.2593,-48.2164 145.2593,-37.8962 145.2593,-28.8632"/>
<polygon fill="#191970" stroke="#191970" points="148.7594,-28.7794 145.2593,-18.7795 141.7594,-28.7795 148.7594,-28.7794"/>
</g>
<!-- Node4 -->
<g id="node5" class="node">
<title>Node4</title>
<g id="a_node5"><a xlink:title=" ">
<polygon fill="none" stroke="#bfbfbf" points="207.5278,-.5 207.5278,-18.5 252.9907,-18.5 252.9907,-.5 207.5278,-.5"/>
<text text-anchor="middle" x="230.2593" y="-6.5" font-family="Helvetica,sans-Serif" font-size="10.00" fill="#000000">stdio.h</text>
</a>
</g>
</g>
<!-- Node1&#45;&gt;Node4 -->
<g id="edge4" class="edge">
<title>Node1&#45;&gt;Node4</title>
<path fill="none" stroke="#191970" d="M159.2953,-55.4179C172.4606,-46.8992 192.3701,-34.0166 207.7532,-24.0627"/>
<polygon fill="#191970" stroke="#191970" points="209.7081,-26.9667 216.2024,-18.5956 205.9053,-21.0897 209.7081,-26.9667"/>
</g>
</g>
</svg>
