<?xml version="1.0" encoding="UTF-8" standalone="no"?>
<!DOCTYPE svg PUBLIC "-//W3C//DTD SVG 1.1//EN"
 "http://www.w3.org/Graphics/SVG/1.1/DTD/svg11.dtd">
<!-- Generated by graphviz version 2.40.1 (20161225.0304)
 -->
<!-- Title: /Users/oskryp/Projects/freesee&#45;native&#45;client/libs/fcc_sdk/engine/meetingclient/src/headers/MeetingClient/SCUploadData.hxx Pages: 1 -->
<svg width="265pt" height="112pt"
 viewBox="0.00 0.00 264.64 112.00" xmlns="http://www.w3.org/2000/svg" xmlns:xlink="http://www.w3.org/1999/xlink">
<g id="graph0" class="graph" transform="scale(1 1) rotate(0) translate(4 108)">
<title>/Users/oskryp/Projects/freesee&#45;native&#45;client/libs/fcc_sdk/engine/meetingclient/src/headers/MeetingClient/SCUploadData.hxx</title>
<!-- Node0 -->
<g id="node1" class="node">
<title>Node0</title>
<g id="a_node1"><a xlink:title=" ">
<polygon fill="#bfbfbf" stroke="#000000" points="33.8755,-55.5 33.8755,-103.5 256.6431,-103.5 256.6431,-55.5 33.8755,-55.5"/>
<text text-anchor="start" x="41.8755" y="-91.5" font-family="Helvetica,sans-Serif" font-size="10.00" fill="#000000">/Users/oskryp/Projects</text>
<text text-anchor="start" x="41.8755" y="-81.5" font-family="Helvetica,sans-Serif" font-size="10.00" fill="#000000">/freesee&#45;native&#45;client</text>
<text text-anchor="start" x="41.8755" y="-71.5" font-family="Helvetica,sans-Serif" font-size="10.00" fill="#000000">/libs/fcc_sdk/engine/meetingclient</text>
<text text-anchor="middle" x="145.2593" y="-61.5" font-family="Helvetica,sans-Serif" font-size="10.00" fill="#000000">/src/headers/MeetingClient/SCUploadData.hxx</text>
</a>
</g>
</g>
<!-- Node1 -->
<g id="node2" class="node">
<title>Node1</title>
<g id="a_node2"><a xlink:title=" ">
<polygon fill="none" stroke="#bfbfbf" points="0,-.5 0,-18.5 82.5186,-18.5 82.5186,-.5 0,-.5"/>
<text text-anchor="middle" x="41.2593" y="-6.5" font-family="Helvetica,sans-Serif" font-size="10.00" fill="#000000">Utils/Buffer.hxx</text>
</a>
</g>
</g>
<!-- Node0&#45;&gt;Node1 -->
<g id="edge1" class="edge">
<title>Node0&#45;&gt;Node1</title>
<path fill="none" stroke="#191970" d="M109.4684,-55.41C94.0961,-45.0633 76.624,-33.3032 63.2119,-24.2758"/>
<polygon fill="#191970" stroke="#191970" points="64.9011,-21.1938 54.6508,-18.5136 60.9924,-27.0009 64.9011,-21.1938"/>
</g>
<!-- Node2 -->
<g id="node3" class="node">
<title>Node2</title>
<g id="a_node3"><a xlink:title=" ">
<polygon fill="none" stroke="#bfbfbf" points="100.582,-.5 100.582,-18.5 189.9365,-18.5 189.9365,-.5 100.582,-.5"/>
<text text-anchor="middle" x="145.2593" y="-6.5" font-family="Helvetica,sans-Serif" font-size="10.00" fill="#000000">Utils/EString.hxx</text>
</a>
</g>
</g>
<!-- Node0&#45;&gt;Node2 -->
<g id="edge2" class="edge">
<title>Node0&#45;&gt;Node2</title>
<path fill="none" stroke="#191970" d="M145.2593,-55.41C145.2593,-46.7094 145.2593,-37.0095 145.2593,-28.7754"/>
<polygon fill="#191970" stroke="#191970" points="148.7594,-28.6872 145.2593,-18.6872 141.7594,-28.6873 148.7594,-28.6872"/>
</g>
<!-- Node3 -->
<g id="node4" class="node">
<title>Node3</title>
<g id="a_node4"><a xlink:title=" ">
<polygon fill="none" stroke="#bfbfbf" points="207.5278,-.5 207.5278,-18.5 252.9907,-18.5 252.9907,-.5 207.5278,-.5"/>
<text text-anchor="middle" x="230.2593" y="-6.5" font-family="Helvetica,sans-Serif" font-size="10.00" fill="#000000">stdio.h</text>
</a>
</g>
</g>
<!-- Node0&#45;&gt;Node3 -->
<g id="edge3" class="edge">
<title>Node0&#45;&gt;Node3</title>
<path fill="none" stroke="#191970" d="M174.5115,-55.41C186.6371,-45.4241 200.3614,-34.1218 211.1584,-25.2301"/>
<polygon fill="#191970" stroke="#191970" points="213.609,-27.7461 219.1033,-18.6872 209.159,-22.3426 213.609,-27.7461"/>
</g>
</g>
</svg>
