<?xml version="1.0" encoding="UTF-8" standalone="no"?>
<!DOCTYPE svg PUBLIC "-//W3C//DTD SVG 1.1//EN"
 "http://www.w3.org/Graphics/SVG/1.1/DTD/svg11.dtd">
<!-- Generated by graphviz version 2.40.1 (20161225.0304)
 -->
<!-- Title: /Users/oskryp/Projects/freesee&#45;native&#45;client/libs/fcc_sdk/engine/meetingclient/include/MeetingClient/ScreenCaptureManager.hxx Pages: 1 -->
<svg width="308pt" height="112pt"
 viewBox="0.00 0.00 308.05 112.00" xmlns="http://www.w3.org/2000/svg" xmlns:xlink="http://www.w3.org/1999/xlink">
<g id="graph0" class="graph" transform="scale(1 1) rotate(0) translate(4 108)">
<title>/Users/oskryp/Projects/freesee&#45;native&#45;client/libs/fcc_sdk/engine/meetingclient/include/MeetingClient/ScreenCaptureManager.hxx</title>
<!-- Node0 -->
<g id="node1" class="node">
<title>Node0</title>
<g id="a_node1"><a xlink:title=" ">
<polygon fill="#bfbfbf" stroke="#000000" points="33.6875,-55.5 33.6875,-103.5 275.376,-103.5 275.376,-55.5 33.6875,-55.5"/>
<text text-anchor="start" x="41.6875" y="-91.5" font-family="Helvetica,sans-Serif" font-size="10.00" fill="#000000">/Users/oskryp/Projects</text>
<text text-anchor="start" x="41.6875" y="-81.5" font-family="Helvetica,sans-Serif" font-size="10.00" fill="#000000">/freesee&#45;native&#45;client</text>
<text text-anchor="start" x="41.6875" y="-71.5" font-family="Helvetica,sans-Serif" font-size="10.00" fill="#000000">/libs/fcc_sdk/engine/meetingclient</text>
<text text-anchor="middle" x="154.5317" y="-61.5" font-family="Helvetica,sans-Serif" font-size="10.00" fill="#000000">/include/MeetingClient/ScreenCaptureManager.hxx</text>
</a>
</g>
</g>
<!-- Node1 -->
<g id="node2" class="node">
<title>Node1</title>
<g id="a_node2"><a xlink:title=" ">
<polygon fill="none" stroke="#bfbfbf" points="0,-.5 0,-18.5 151.0635,-18.5 151.0635,-.5 0,-.5"/>
<text text-anchor="middle" x="75.5317" y="-6.5" font-family="Helvetica,sans-Serif" font-size="10.00" fill="#000000">FSDesktopCaptureThread.hxx</text>
</a>
</g>
</g>
<!-- Node0&#45;&gt;Node1 -->
<g id="edge1" class="edge">
<title>Node0&#45;&gt;Node1</title>
<path fill="none" stroke="#191970" d="M127.3444,-55.41C116.1863,-45.523 103.5716,-34.3455 93.5832,-25.495"/>
<polygon fill="#191970" stroke="#191970" points="95.7059,-22.6995 85.9002,-18.6872 91.0636,-27.9387 95.7059,-22.6995"/>
</g>
<!-- Node2 -->
<g id="node3" class="node">
<title>Node2</title>
<g id="a_node3"><a xlink:href="macros_8hxx.html" target="_top" xlink:title=" ">
<polygon fill="none" stroke="#000000" points="169.0098,-.5 169.0098,-18.5 300.0537,-18.5 300.0537,-.5 169.0098,-.5"/>
<text text-anchor="middle" x="234.5317" y="-6.5" font-family="Helvetica,sans-Serif" font-size="10.00" fill="#000000">MeetingClient/macros.hxx</text>
</a>
</g>
</g>
<!-- Node0&#45;&gt;Node2 -->
<g id="edge2" class="edge">
<title>Node0&#45;&gt;Node2</title>
<path fill="none" stroke="#191970" d="M182.0632,-55.41C193.3626,-45.523 206.1369,-34.3455 216.2518,-25.495"/>
<polygon fill="#191970" stroke="#191970" points="218.811,-27.9063 224.032,-18.6872 214.2015,-22.6383 218.811,-27.9063"/>
</g>
</g>
</svg>
