<?xml version="1.0" encoding="UTF-8" standalone="no"?>
<!DOCTYPE svg PUBLIC "-//W3C//DTD SVG 1.1//EN"
 "http://www.w3.org/Graphics/SVG/1.1/DTD/svg11.dtd">
<!-- Generated by graphviz version 2.40.1 (20161225.0304)
 -->
<!-- Title: /Users/oskryp/Projects/freesee&#45;native&#45;client/libs/fcc_sdk/engine/meetingclient/src/TSingletonImpl.cxx Pages: 1 -->
<!--zoomable 242 -->
<svg id="main" version="1.1" xmlns="http://www.w3.org/2000/svg" xmlns:xlink="http://www.w3.org/1999/xlink" xml:space="preserve" onload="init(evt)">
<style type="text/css"><![CDATA[
.edge:hover path { stroke: red; }
.edge:hover polygon { stroke: red; fill: red; }
]]></style>
<script type="text/javascript"><![CDATA[
var edges = document.getElementsByTagName('g');
if (edges && edges.length) {
  for (var i=0;i<edges.length;i++) {
    if (edges[i].id.substr(0,4)=='edge') {
      edges[i].setAttribute('class','edge');
    }
  }
}
]]></script>
        <defs>
                <circle id="rim" cx="0" cy="0" r="7"/>
                <circle id="rim2" cx="0" cy="0" r="3.5"/>
                <g id="zoomPlus">
                        <use xlink:href="#rim" fill="#404040">
                                <set attributeName="fill" to="#808080" begin="zoomplus.mouseover" end="zoomplus.mouseout"/>
                        </use>
                        <path d="M-4,0h8M0,-4v8" fill="none" stroke="white" stroke-width="1.5" pointer-events="none"/>
                </g>
                <g id="zoomMin">
                        <use xlink:href="#rim" fill="#404040">
                                <set attributeName="fill" to="#808080" begin="zoomminus.mouseover" end="zoomminus.mouseout"/>
                        </use>
                        <path d="M-4,0h8" fill="none" stroke="white" stroke-width="1.5" pointer-events="none"/>
                </g>
                <g id="dirArrow">
                        <path fill="none" stroke="white" stroke-width="1.5" d="M0,-3.0v7 M-2.5,-0.5L0,-3.0L2.5,-0.5"/>
                </g>
               <g id="resetDef">
                       <use xlink:href="#rim2" fill="#404040">
                               <set attributeName="fill" to="#808080" begin="reset.mouseover" end="reset.mouseout"/>
                       </use>
               </g>
        </defs>

<script type="text/javascript">
var viewWidth = 686;
var viewHeight = 242;
var sectionId = 'dynsection-0';
</script>
<script xlink:href="svgpan.js"/>
<svg id="graph" class="graph">
<g id="viewport">
<title>/Users/oskryp/Projects/freesee&#45;native&#45;client/libs/fcc_sdk/engine/meetingclient/src/TSingletonImpl.cxx</title>
<!-- Node0 -->
<g id="node1" class="node">
<title>Node0</title>
<g id="a_node1"><a xlink:title=" ">
<polygon fill="#bfbfbf" stroke="#000000" points="148.5889,-185.5 148.5889,-233.5 313.5586,-233.5 313.5586,-185.5 148.5889,-185.5"/>
<text text-anchor="start" x="156.5889" y="-221.5" font-family="Helvetica,sans-Serif" font-size="10.00" fill="#000000">/Users/oskryp/Projects</text>
<text text-anchor="start" x="156.5889" y="-211.5" font-family="Helvetica,sans-Serif" font-size="10.00" fill="#000000">/freesee&#45;native&#45;client</text>
<text text-anchor="start" x="156.5889" y="-201.5" font-family="Helvetica,sans-Serif" font-size="10.00" fill="#000000">/libs/fcc_sdk/engine/meetingclient</text>
<text text-anchor="middle" x="231.0737" y="-191.5" font-family="Helvetica,sans-Serif" font-size="10.00" fill="#000000">/src/TSingletonImpl.cxx</text>
</a>
</g>
</g>
<!-- Node1 -->
<g id="node2" class="node">
<title>Node1</title>
<g id="a_node2"><a xlink:href="_t_singleton_8cxx.html" target="_top" xlink:title=" ">
<polygon fill="none" stroke="#000000" points="117.2808,-130.5 117.2808,-148.5 198.8667,-148.5 198.8667,-130.5 117.2808,-130.5"/>
<text text-anchor="middle" x="158.0737" y="-136.5" font-family="Helvetica,sans-Serif" font-size="10.00" fill="#000000">TSingleton.cxx</text>
</a>
</g>
</g>
<!-- Node0&#45;&gt;Node1 -->
<g id="edge1" class="edge">
<title>Node0&#45;&gt;Node1</title>
<path fill="none" stroke="#191970" d="M205.9513,-185.41C195.7437,-175.6219 184.217,-164.5689 175.0318,-155.7612"/>
<polygon fill="#191970" stroke="#191970" points="177.295,-153.0822 167.6547,-148.6872 172.4501,-158.1347 177.295,-153.0822"/>
</g>
<!-- Node6 -->
<g id="node7" class="node">
<title>Node6</title>
<g id="a_node7"><a xlink:href="_thread_descriptor_8hxx.html" target="_top" xlink:title=" ">
<polygon fill="none" stroke="#000000" points="249.5518,-130.5 249.5518,-148.5 360.5957,-148.5 360.5957,-130.5 249.5518,-130.5"/>
<text text-anchor="middle" x="305.0737" y="-136.5" font-family="Helvetica,sans-Serif" font-size="10.00" fill="#000000">ThreadDescriptor.hxx</text>
</a>
</g>
</g>
<!-- Node0&#45;&gt;Node6 -->
<g id="edge6" class="edge">
<title>Node0&#45;&gt;Node6</title>
<path fill="none" stroke="#191970" d="M256.5403,-185.41C266.8877,-175.6219 278.5723,-164.5689 287.8833,-155.7612"/>
<polygon fill="#191970" stroke="#191970" points="290.502,-158.1019 295.3615,-148.6872 285.6916,-153.0166 290.502,-158.1019"/>
</g>
<!-- Node2 -->
<g id="node3" class="node">
<title>Node2</title>
<g id="a_node3"><a xlink:href="_t_singleton_8hxx.html" target="_top" xlink:title=" ">
<polygon fill="none" stroke="#000000" points="0,-70.5 0,-88.5 82.1475,-88.5 82.1475,-70.5 0,-70.5"/>
<text text-anchor="middle" x="41.0737" y="-76.5" font-family="Helvetica,sans-Serif" font-size="10.00" fill="#000000">TSingleton.hxx</text>
</a>
</g>
</g>
<!-- Node1&#45;&gt;Node2 -->
<g id="edge2" class="edge">
<title>Node1&#45;&gt;Node2</title>
<path fill="none" stroke="#191970" d="M140.3039,-130.3873C120.9502,-120.4623 89.7891,-104.4822 67.5512,-93.0782"/>
<polygon fill="#191970" stroke="#191970" points="69.1227,-89.9507 58.6274,-88.5019 65.9284,-96.1795 69.1227,-89.9507"/>
</g>
<!-- Node5 -->
<g id="node6" class="node">
<title>Node5</title>
<g id="a_node6"><a xlink:title=" ">
<polygon fill="none" stroke="#bfbfbf" points="99.7637,-70.5 99.7637,-88.5 216.3838,-88.5 216.3838,-70.5 99.7637,-70.5"/>
<text text-anchor="middle" x="158.0737" y="-76.5" font-family="Helvetica,sans-Serif" font-size="10.00" fill="#000000">boost/thread/locks.hpp</text>
</a>
</g>
</g>
<!-- Node1&#45;&gt;Node5 -->
<g id="edge5" class="edge">
<title>Node1&#45;&gt;Node5</title>
<path fill="none" stroke="#191970" d="M158.0737,-130.3873C158.0737,-122.0174 158.0737,-109.3414 158.0737,-98.735"/>
<polygon fill="#191970" stroke="#191970" points="161.5738,-98.6984 158.0737,-88.6985 154.5738,-98.6985 161.5738,-98.6984"/>
</g>
<!-- Node3 -->
<g id="node4" class="node">
<title>Node3</title>
<g id="a_node4"><a xlink:title=" ">
<polygon fill="none" stroke="#bfbfbf" points="347.5986,-.5 347.5986,-28.5 452.5488,-28.5 452.5488,-.5 347.5986,-.5"/>
<text text-anchor="start" x="355.5986" y="-16.5" font-family="Helvetica,sans-Serif" font-size="10.00" fill="#000000">boost/thread/shared</text>
<text text-anchor="middle" x="400.0737" y="-6.5" font-family="Helvetica,sans-Serif" font-size="10.00" fill="#000000">_mutex.hpp</text>
</a>
</g>
</g>
<!-- Node2&#45;&gt;Node3 -->
<g id="edge3" class="edge">
<title>Node2&#45;&gt;Node3</title>
<path fill="none" stroke="#191970" d="M70.0034,-70.4706C76.8692,-68.5059 84.1971,-66.5531 91.0737,-65 175.5789,-45.9141 274.6292,-31.0194 337.3606,-22.4948"/>
<polygon fill="#191970" stroke="#191970" points="338.0475,-25.934 347.4909,-21.1307 337.1133,-18.9966 338.0475,-25.934"/>
</g>
<!-- Node4 -->
<g id="node5" class="node">
<title>Node4</title>
<g id="a_node5"><a xlink:title=" ">
<polygon fill="none" stroke="#bfbfbf" points="143.6699,-5.5 143.6699,-23.5 202.4775,-23.5 202.4775,-5.5 143.6699,-5.5"/>
<text text-anchor="middle" x="173.0737" y="-11.5" font-family="Helvetica,sans-Serif" font-size="10.00" fill="#000000">exception</text>
</a>
</g>
</g>
<!-- Node2&#45;&gt;Node4 -->
<g id="edge4" class="edge">
<title>Node2&#45;&gt;Node4</title>
<path fill="none" stroke="#191970" d="M59.4278,-70.462C81.6643,-59.5122 119.3513,-40.9542 145.1859,-28.2326"/>
<polygon fill="#191970" stroke="#191970" points="147.0249,-31.2284 154.45,-23.6708 143.9325,-24.9485 147.0249,-31.2284"/>
</g>
<!-- Node6&#45;&gt;Node2 -->
<g id="edge13" class="edge">
<title>Node6&#45;&gt;Node2</title>
<path fill="none" stroke="#191970" d="M257.6706,-130.4504C214.1543,-121.8994 147.9929,-108.2841 91.0737,-94 87.6836,-93.1492 84.1767,-92.2246 80.6658,-91.2679"/>
<polygon fill="#191970" stroke="#191970" points="81.427,-87.8465 70.8536,-88.5212 79.5399,-94.5874 81.427,-87.8465"/>
</g>
<!-- Node6&#45;&gt;Node3 -->
<g id="edge8" class="edge">
<title>Node6&#45;&gt;Node3</title>
<path fill="none" stroke="#191970" d="M360.704,-134.7966C414.5917,-128.9505 490.7761,-116.8283 509.0737,-94 529.9168,-67.9959 493.9189,-46.3393 457.8259,-32.2305"/>
<polygon fill="#191970" stroke="#191970" points="458.7807,-28.851 448.1881,-28.6313 456.3316,-35.4087 458.7807,-28.851"/>
</g>
<!-- Node6&#45;&gt;Node5 -->
<g id="edge7" class="edge">
<title>Node6&#45;&gt;Node5</title>
<path fill="none" stroke="#191970" d="M282.7476,-130.3873C257.8886,-120.2407 217.525,-103.7658 189.4863,-92.3215"/>
<polygon fill="#191970" stroke="#191970" points="190.7095,-89.0404 180.1283,-88.5019 188.0641,-95.5214 190.7095,-89.0404"/>
</g>
<!-- Node7 -->
<g id="node8" class="node">
<title>Node7</title>
<g id="a_node8"><a xlink:title=" ">
<polygon fill="none" stroke="#bfbfbf" points="555.978,-70.5 555.978,-88.5 678.1694,-88.5 678.1694,-70.5 555.978,-70.5"/>
<text text-anchor="middle" x="617.0737" y="-76.5" font-family="Helvetica,sans-Serif" font-size="10.00" fill="#000000">boost/thread/thread.hpp</text>
</a>
</g>
</g>
<!-- Node6&#45;&gt;Node7 -->
<g id="edge9" class="edge">
<title>Node6&#45;&gt;Node7</title>
<path fill="none" stroke="#191970" d="M352.2921,-130.4536C400.1268,-121.2847 476.2486,-106.6817 542.0737,-94 547.9135,-92.8749 554.0087,-91.6991 560.0907,-90.5248"/>
<polygon fill="#191970" stroke="#191970" points="561.1116,-93.8923 570.2663,-88.5592 559.7839,-87.0194 561.1116,-93.8923"/>
</g>
<!-- Node8 -->
<g id="node9" class="node">
<title>Node8</title>
<g id="a_node9"><a xlink:title=" ">
<polygon fill="none" stroke="#bfbfbf" points="393.7661,-70.5 393.7661,-88.5 500.3813,-88.5 500.3813,-70.5 393.7661,-70.5"/>
<text text-anchor="middle" x="447.0737" y="-76.5" font-family="Helvetica,sans-Serif" font-size="10.00" fill="#000000">boost/thread/tss.hpp</text>
</a>
</g>
</g>
<!-- Node6&#45;&gt;Node8 -->
<g id="edge10" class="edge">
<title>Node6&#45;&gt;Node8</title>
<path fill="none" stroke="#191970" d="M326.6405,-130.3873C350.5491,-120.2851 389.3044,-103.9096 416.3741,-92.4717"/>
<polygon fill="#191970" stroke="#191970" points="417.9201,-95.6181 425.7693,-88.5019 415.1955,-89.1701 417.9201,-95.6181"/>
</g>
<!-- Node9 -->
<g id="node10" class="node">
<title>Node9</title>
<g id="a_node10"><a xlink:href="_invalid_execution_thead_exception_8hxx.html" target="_top" xlink:title=" ">
<polygon fill="none" stroke="#000000" points="234.8154,-65.5 234.8154,-93.5 375.332,-93.5 375.332,-65.5 234.8154,-65.5"/>
<text text-anchor="start" x="242.8154" y="-81.5" font-family="Helvetica,sans-Serif" font-size="10.00" fill="#000000">Exceptions/InvalidExecution</text>
<text text-anchor="middle" x="305.0737" y="-71.5" font-family="Helvetica,sans-Serif" font-size="10.00" fill="#000000">TheadException.hxx</text>
</a>
</g>
</g>
<!-- Node6&#45;&gt;Node9 -->
<g id="edge11" class="edge">
<title>Node6&#45;&gt;Node9</title>
<path fill="none" stroke="#191970" d="M305.0737,-130.3873C305.0737,-123.3369 305.0737,-113.2311 305.0737,-103.8806"/>
<polygon fill="#191970" stroke="#191970" points="308.5738,-103.8476 305.0737,-93.8477 301.5738,-103.8477 308.5738,-103.8476"/>
</g>
<!-- Node9&#45;&gt;Node4 -->
<g id="edge12" class="edge">
<title>Node9&#45;&gt;Node4</title>
<path fill="none" stroke="#191970" d="M276.4317,-65.396C253.9745,-54.3375 222.9132,-39.0422 200.7167,-28.112"/>
<polygon fill="#191970" stroke="#191970" points="202.0191,-24.8521 191.5016,-23.5743 198.9266,-31.132 202.0191,-24.8521"/>
</g>
</g>
</svg>
        <g id="navigator" transform="translate(0 0)" fill="#404254">
                <rect fill="#f2f5e9" fill-opacity="0.5" stroke="#606060" stroke-width=".5" x="0" y="0" width="60" height="60"/>
                <use id="zoomplus" xlink:href="#zoomPlus" x="17" y="9" onmousedown="handleZoom(evt,'in')"/>
                <use id="zoomminus" xlink:href="#zoomMin" x="42" y="9" onmousedown="handleZoom(evt,'out')"/>
                <use id="reset" xlink:href="#resetDef" x="30" y="36" onmousedown="handleReset()"/>
                <g id="arrowUp" xlink:href="#dirArrow" transform="translate(30 24)" onmousedown="handlePan(0,-1)">
                  <use xlink:href="#rim" fill="#404040">
                        <set attributeName="fill" to="#808080" begin="arrowUp.mouseover" end="arrowUp.mouseout"/>
                  </use>
                  <path fill="none" stroke="white" stroke-width="1.5" d="M0,-3.0v7 M-2.5,-0.5L0,-3.0L2.5,-0.5"/>
                </g>
                <g id="arrowRight" xlink:href="#dirArrow" transform="rotate(90) translate(36 -43)" onmousedown="handlePan(1,0)">
                  <use xlink:href="#rim" fill="#404040">
                        <set attributeName="fill" to="#808080" begin="arrowRight.mouseover" end="arrowRight.mouseout"/>
                  </use>
                  <path fill="none" stroke="white" stroke-width="1.5" d="M0,-3.0v7 M-2.5,-0.5L0,-3.0L2.5,-0.5"/>
                </g>
                <g id="arrowDown" xlink:href="#dirArrow" transform="rotate(180) translate(-30 -48)" onmousedown="handlePan(0,1)">
                  <use xlink:href="#rim" fill="#404040">
                        <set attributeName="fill" to="#808080" begin="arrowDown.mouseover" end="arrowDown.mouseout"/>
                  </use>
                  <path fill="none" stroke="white" stroke-width="1.5" d="M0,-3.0v7 M-2.5,-0.5L0,-3.0L2.5,-0.5"/>
                </g>
                <g id="arrowLeft" xlink:href="#dirArrow" transform="rotate(270) translate(-36 17)" onmousedown="handlePan(-1,0)">
                  <use xlink:href="#rim" fill="#404040">
                        <set attributeName="fill" to="#808080" begin="arrowLeft.mouseover" end="arrowLeft.mouseout"/>
                  </use>
                  <path fill="none" stroke="white" stroke-width="1.5" d="M0,-3.0v7 M-2.5,-0.5L0,-3.0L2.5,-0.5"/>
                </g>
        </g>
        <svg viewBox="0 0 15 15" width="100%" height="30px" preserveAspectRatio="xMaxYMin meet">
         <g id="arrow_out" transform="scale(0.3 0.3)">
          <a xlink:href="_t_singleton_impl_8cxx__incl_org.svg" target="_base">
           <rect id="button" ry="5" rx="5" y="6" x="6" height="38" width="38"
                fill="#f2f5e9" fill-opacity="0.5" stroke="#606060" stroke-width="1.0"/>
           <path id="arrow"
             d="M 11.500037,31.436501 C 11.940474,20.09759 22.043105,11.32322 32.158766,21.979434 L 37.068811,17.246167 C 37.068811,17.246167 37.088388,32 37.088388,32 L 22.160133,31.978069 C 22.160133,31.978069 26.997745,27.140456 26.997745,27.140456 C 18.528582,18.264221 13.291696,25.230495 11.500037,31.436501 z"
             style="fill:#404040;"/>
          </a>
         </g>
        </svg>
</svg>
