<?xml version="1.0" encoding="UTF-8" standalone="no"?>
<!DOCTYPE svg PUBLIC "-//W3C//DTD SVG 1.1//EN"
 "http://www.w3.org/Graphics/SVG/1.1/DTD/svg11.dtd">
<!-- Generated by graphviz version 2.40.1 (20161225.0304)
 -->
<!-- Title: /Users/oskryp/Projects/freesee&#45;native&#45;client/libs/fcc_sdk/engine/meetingclient/src/ThreadDescriptor.cxx Pages: 1 -->
<svg width="685pt" height="242pt"
 viewBox="0.00 0.00 684.57 242.00" xmlns="http://www.w3.org/2000/svg" xmlns:xlink="http://www.w3.org/1999/xlink">
<g id="graph0" class="graph" transform="scale(1 1) rotate(0) translate(4 238)">
<title>/Users/oskryp/Projects/freesee&#45;native&#45;client/libs/fcc_sdk/engine/meetingclient/src/ThreadDescriptor.cxx</title>
<!-- Node0 -->
<g id="node1" class="node">
<title>Node0</title>
<g id="a_node1"><a xlink:title=" ">
<polygon fill="#bfbfbf" stroke="#000000" points="269.8252,-185.5 269.8252,-233.5 434.7949,-233.5 434.7949,-185.5 269.8252,-185.5"/>
<text text-anchor="start" x="277.8252" y="-221.5" font-family="Helvetica,sans-Serif" font-size="10.00" fill="#000000">/Users/oskryp/Projects</text>
<text text-anchor="start" x="277.8252" y="-211.5" font-family="Helvetica,sans-Serif" font-size="10.00" fill="#000000">/freesee&#45;native&#45;client</text>
<text text-anchor="start" x="277.8252" y="-201.5" font-family="Helvetica,sans-Serif" font-size="10.00" fill="#000000">/libs/fcc_sdk/engine/meetingclient</text>
<text text-anchor="middle" x="352.3101" y="-191.5" font-family="Helvetica,sans-Serif" font-size="10.00" fill="#000000">/src/ThreadDescriptor.cxx</text>
</a>
</g>
</g>
<!-- Node1 -->
<g id="node2" class="node">
<title>Node1</title>
<g id="a_node2"><a xlink:href="_thread_descriptor_8hxx.html" target="_top" xlink:title=" ">
<polygon fill="none" stroke="#000000" points="243.7881,-130.5 243.7881,-148.5 354.832,-148.5 354.832,-130.5 243.7881,-130.5"/>
<text text-anchor="middle" x="299.3101" y="-136.5" font-family="Helvetica,sans-Serif" font-size="10.00" fill="#000000">ThreadDescriptor.hxx</text>
</a>
</g>
</g>
<!-- Node0&#45;&gt;Node1 -->
<g id="edge1" class="edge">
<title>Node0&#45;&gt;Node1</title>
<path fill="none" stroke="#191970" d="M334.0705,-185.41C326.9589,-176.0174 318.9655,-165.46 312.4386,-156.8395"/>
<polygon fill="#191970" stroke="#191970" points="315.0929,-154.5471 306.2661,-148.6872 309.5121,-158.7726 315.0929,-154.5471"/>
</g>
<!-- Node9 -->
<g id="node10" class="node">
<title>Node9</title>
<g id="a_node10"><a xlink:title=" ">
<polygon fill="none" stroke="#bfbfbf" points="372.8447,-130.5 372.8447,-148.5 437.7754,-148.5 437.7754,-130.5 372.8447,-130.5"/>
<text text-anchor="middle" x="405.3101" y="-136.5" font-family="Helvetica,sans-Serif" font-size="10.00" fill="#000000">Logger.hxx</text>
</a>
</g>
</g>
<!-- Node0&#45;&gt;Node9 -->
<g id="edge11" class="edge">
<title>Node0&#45;&gt;Node9</title>
<path fill="none" stroke="#191970" d="M370.5497,-185.41C377.6612,-176.0174 385.6546,-165.46 392.1815,-156.8395"/>
<polygon fill="#191970" stroke="#191970" points="395.108,-158.7726 398.354,-148.6872 389.5272,-154.5471 395.108,-158.7726"/>
</g>
<!-- Node2 -->
<g id="node3" class="node">
<title>Node2</title>
<g id="a_node3"><a xlink:title=" ">
<polygon fill="none" stroke="#bfbfbf" points="0,-70.5 0,-88.5 116.6201,-88.5 116.6201,-70.5 0,-70.5"/>
<text text-anchor="middle" x="58.3101" y="-76.5" font-family="Helvetica,sans-Serif" font-size="10.00" fill="#000000">boost/thread/locks.hpp</text>
</a>
</g>
</g>
<!-- Node1&#45;&gt;Node2 -->
<g id="edge2" class="edge">
<title>Node1&#45;&gt;Node2</title>
<path fill="none" stroke="#191970" d="M262.969,-130.4524C220.5818,-119.8996 150.4451,-102.4382 104.3016,-90.9502"/>
<polygon fill="#191970" stroke="#191970" points="105.1016,-87.5426 94.5522,-88.5229 103.4104,-94.3352 105.1016,-87.5426"/>
</g>
<!-- Node3 -->
<g id="node4" class="node">
<title>Node3</title>
<g id="a_node4"><a xlink:title=" ">
<polygon fill="none" stroke="#bfbfbf" points="272.835,-.5 272.835,-28.5 377.7852,-28.5 377.7852,-.5 272.835,-.5"/>
<text text-anchor="start" x="280.835" y="-16.5" font-family="Helvetica,sans-Serif" font-size="10.00" fill="#000000">boost/thread/shared</text>
<text text-anchor="middle" x="325.3101" y="-6.5" font-family="Helvetica,sans-Serif" font-size="10.00" fill="#000000">_mutex.hpp</text>
</a>
</g>
</g>
<!-- Node1&#45;&gt;Node3 -->
<g id="edge3" class="edge">
<title>Node1&#45;&gt;Node3</title>
<path fill="none" stroke="#191970" d="M245.0573,-130.4669C196.9188,-119.9956 137.863,-99.5874 163.3101,-65 175.4872,-48.449 222.4962,-34.9407 262.7606,-26.0736"/>
<polygon fill="#191970" stroke="#191970" points="263.5137,-29.4918 272.5594,-23.9758 262.0483,-22.6469 263.5137,-29.4918"/>
</g>
<!-- Node4 -->
<g id="node5" class="node">
<title>Node4</title>
<g id="a_node5"><a xlink:title=" ">
<polygon fill="none" stroke="#bfbfbf" points="172.2144,-70.5 172.2144,-88.5 294.4058,-88.5 294.4058,-70.5 172.2144,-70.5"/>
<text text-anchor="middle" x="233.3101" y="-76.5" font-family="Helvetica,sans-Serif" font-size="10.00" fill="#000000">boost/thread/thread.hpp</text>
</a>
</g>
</g>
<!-- Node1&#45;&gt;Node4 -->
<g id="edge4" class="edge">
<title>Node1&#45;&gt;Node4</title>
<path fill="none" stroke="#191970" d="M289.2861,-130.3873C279.1101,-121.1364 263.1476,-106.625 250.8681,-95.4618"/>
<polygon fill="#191970" stroke="#191970" points="253.1822,-92.8354 243.4284,-88.6985 248.4734,-98.015 253.1822,-92.8354"/>
</g>
<!-- Node5 -->
<g id="node6" class="node">
<title>Node5</title>
<g id="a_node6"><a xlink:title=" ">
<polygon fill="none" stroke="#bfbfbf" points="312.0024,-70.5 312.0024,-88.5 418.6177,-88.5 418.6177,-70.5 312.0024,-70.5"/>
<text text-anchor="middle" x="365.3101" y="-76.5" font-family="Helvetica,sans-Serif" font-size="10.00" fill="#000000">boost/thread/tss.hpp</text>
</a>
</g>
</g>
<!-- Node1&#45;&gt;Node5 -->
<g id="edge5" class="edge">
<title>Node1&#45;&gt;Node5</title>
<path fill="none" stroke="#191970" d="M309.334,-130.3873C319.51,-121.1364 335.4726,-106.625 347.752,-95.4618"/>
<polygon fill="#191970" stroke="#191970" points="350.1467,-98.015 355.1917,-88.6985 345.438,-92.8354 350.1467,-98.015"/>
</g>
<!-- Node6 -->
<g id="node7" class="node">
<title>Node6</title>
<g id="a_node7"><a xlink:href="_invalid_execution_thead_exception_8hxx.html" target="_top" xlink:title=" ">
<polygon fill="none" stroke="#000000" points="536.0518,-65.5 536.0518,-93.5 676.5684,-93.5 676.5684,-65.5 536.0518,-65.5"/>
<text text-anchor="start" x="544.0518" y="-81.5" font-family="Helvetica,sans-Serif" font-size="10.00" fill="#000000">Exceptions/InvalidExecution</text>
<text text-anchor="middle" x="606.3101" y="-71.5" font-family="Helvetica,sans-Serif" font-size="10.00" fill="#000000">TheadException.hxx</text>
</a>
</g>
</g>
<!-- Node1&#45;&gt;Node6 -->
<g id="edge6" class="edge">
<title>Node1&#45;&gt;Node6</title>
<path fill="none" stroke="#191970" d="M345.6035,-130.4524C393.2461,-121.1412 468.4093,-106.4513 525.8146,-95.232"/>
<polygon fill="#191970" stroke="#191970" points="526.8099,-98.6038 535.9529,-93.2506 525.4672,-91.7338 526.8099,-98.6038"/>
</g>
<!-- Node8 -->
<g id="node9" class="node">
<title>Node8</title>
<g id="a_node9"><a xlink:href="_t_singleton_8hxx.html" target="_top" xlink:title=" ">
<polygon fill="none" stroke="#000000" points="436.2363,-70.5 436.2363,-88.5 518.3838,-88.5 518.3838,-70.5 436.2363,-70.5"/>
<text text-anchor="middle" x="477.3101" y="-76.5" font-family="Helvetica,sans-Serif" font-size="10.00" fill="#000000">TSingleton.hxx</text>
</a>
</g>
</g>
<!-- Node1&#45;&gt;Node8 -->
<g id="edge8" class="edge">
<title>Node1&#45;&gt;Node8</title>
<path fill="none" stroke="#191970" d="M326.3444,-130.3873C356.9716,-120.0635 407.0346,-103.1883 441.0383,-91.7264"/>
<polygon fill="#191970" stroke="#191970" points="442.2464,-95.0128 450.6045,-88.5019 440.0104,-88.3795 442.2464,-95.0128"/>
</g>
<!-- Node7 -->
<g id="node8" class="node">
<title>Node7</title>
<g id="a_node8"><a xlink:title=" ">
<polygon fill="none" stroke="#bfbfbf" points="511.9063,-5.5 511.9063,-23.5 570.7139,-23.5 570.7139,-5.5 511.9063,-5.5"/>
<text text-anchor="middle" x="541.3101" y="-11.5" font-family="Helvetica,sans-Serif" font-size="10.00" fill="#000000">exception</text>
</a>
</g>
</g>
<!-- Node6&#45;&gt;Node7 -->
<g id="edge7" class="edge">
<title>Node6&#45;&gt;Node7</title>
<path fill="none" stroke="#191970" d="M592.206,-65.396C581.9906,-55.1805 568.1596,-41.3496 557.4941,-30.6841"/>
<polygon fill="#191970" stroke="#191970" points="559.9303,-28.1705 550.3844,-23.5743 554.9806,-33.1203 559.9303,-28.1705"/>
</g>
<!-- Node8&#45;&gt;Node3 -->
<g id="edge9" class="edge">
<title>Node8&#45;&gt;Node3</title>
<path fill="none" stroke="#191970" d="M456.1751,-70.462C433.3824,-60.7152 396.4926,-44.9399 367.6803,-32.6188"/>
<polygon fill="#191970" stroke="#191970" points="368.8216,-29.3004 358.2508,-28.5865 366.0692,-35.7366 368.8216,-29.3004"/>
</g>
<!-- Node8&#45;&gt;Node7 -->
<g id="edge10" class="edge">
<title>Node8&#45;&gt;Node7</title>
<path fill="none" stroke="#191970" d="M486.209,-70.462C496.221,-60.2936 512.6933,-43.5639 525.0244,-31.0402"/>
<polygon fill="#191970" stroke="#191970" points="527.5502,-33.4635 532.0723,-23.8821 522.5622,-28.5522 527.5502,-33.4635"/>
</g>
</g>
</svg>
