<?xml version="1.0" encoding="UTF-8" standalone="no"?>
<!DOCTYPE svg PUBLIC "-//W3C//DTD SVG 1.1//EN"
 "http://www.w3.org/Graphics/SVG/1.1/DTD/svg11.dtd">
<!-- Generated by graphviz version 2.40.1 (20161225.0304)
 -->
<!-- Title: /Users/oskryp/Projects/freesee&#45;native&#45;client/libs/fcc_sdk/engine/meetingclient/src/headers/MeetingClient/Utils.hxx Pages: 1 -->
<!--zoomable 232 -->
<svg id="main" version="1.1" xmlns="http://www.w3.org/2000/svg" xmlns:xlink="http://www.w3.org/1999/xlink" xml:space="preserve" onload="init(evt)">
<style type="text/css"><![CDATA[
.edge:hover path { stroke: red; }
.edge:hover polygon { stroke: red; fill: red; }
]]></style>
<script type="text/javascript"><![CDATA[
var edges = document.getElementsByTagName('g');
if (edges && edges.length) {
  for (var i=0;i<edges.length;i++) {
    if (edges[i].id.substr(0,4)=='edge') {
      edges[i].setAttribute('class','edge');
    }
  }
}
]]></script>
        <defs>
                <circle id="rim" cx="0" cy="0" r="7"/>
                <circle id="rim2" cx="0" cy="0" r="3.5"/>
                <g id="zoomPlus">
                        <use xlink:href="#rim" fill="#404040">
                                <set attributeName="fill" to="#808080" begin="zoomplus.mouseover" end="zoomplus.mouseout"/>
                        </use>
                        <path d="M-4,0h8M0,-4v8" fill="none" stroke="white" stroke-width="1.5" pointer-events="none"/>
                </g>
                <g id="zoomMin">
                        <use xlink:href="#rim" fill="#404040">
                                <set attributeName="fill" to="#808080" begin="zoomminus.mouseover" end="zoomminus.mouseout"/>
                        </use>
                        <path d="M-4,0h8" fill="none" stroke="white" stroke-width="1.5" pointer-events="none"/>
                </g>
                <g id="dirArrow">
                        <path fill="none" stroke="white" stroke-width="1.5" d="M0,-3.0v7 M-2.5,-0.5L0,-3.0L2.5,-0.5"/>
                </g>
               <g id="resetDef">
                       <use xlink:href="#rim2" fill="#404040">
                               <set attributeName="fill" to="#808080" begin="reset.mouseover" end="reset.mouseout"/>
                       </use>
               </g>
        </defs>

<script type="text/javascript">
var viewWidth = 565;
var viewHeight = 232;
var sectionId = 'dynsection-0';
</script>
<script xlink:href="svgpan.js"/>
<svg id="graph" class="graph">
<g id="viewport">
<title>/Users/oskryp/Projects/freesee&#45;native&#45;client/libs/fcc_sdk/engine/meetingclient/src/headers/MeetingClient/Utils.hxx</title>
<!-- Node0 -->
<g id="node1" class="node">
<title>Node0</title>
<g id="a_node1"><a xlink:title=" ">
<polygon fill="#bfbfbf" stroke="#000000" points="63.9165,-175.5 63.9165,-223.5 239.4233,-223.5 239.4233,-175.5 63.9165,-175.5"/>
<text text-anchor="start" x="71.9165" y="-211.5" font-family="Helvetica,sans-Serif" font-size="10.00" fill="#000000">/Users/oskryp/Projects</text>
<text text-anchor="start" x="71.9165" y="-201.5" font-family="Helvetica,sans-Serif" font-size="10.00" fill="#000000">/freesee&#45;native&#45;client</text>
<text text-anchor="start" x="71.9165" y="-191.5" font-family="Helvetica,sans-Serif" font-size="10.00" fill="#000000">/libs/fcc_sdk/engine/meetingclient</text>
<text text-anchor="middle" x="151.6699" y="-181.5" font-family="Helvetica,sans-Serif" font-size="10.00" fill="#000000">/src/headers/MeetingClient/Utils.hxx</text>
</a>
</g>
</g>
<!-- Node1 -->
<g id="node2" class="node">
<title>Node1</title>
<g id="a_node2"><a xlink:title=" ">
<polygon fill="none" stroke="#bfbfbf" points="0,-115.5 0,-133.5 29.3398,-133.5 29.3398,-115.5 0,-115.5"/>
<text text-anchor="middle" x="14.6699" y="-121.5" font-family="Helvetica,sans-Serif" font-size="10.00" fill="#000000">set</text>
</a>
</g>
</g>
<!-- Node0&#45;&gt;Node1 -->
<g id="edge1" class="edge">
<title>Node0&#45;&gt;Node1</title>
<path fill="none" stroke="#191970" d="M104.3702,-175.406C83.6979,-164.6177 59.2856,-151.5261 37.6699,-139 37.578,-138.9467 37.486,-138.8933 37.3938,-138.8397"/>
<polygon fill="#191970" stroke="#191970" points="39.0451,-135.748 28.678,-133.5633 35.42,-141.7362 39.0451,-135.748"/>
</g>
<!-- Node2 -->
<g id="node3" class="node">
<title>Node2</title>
<g id="a_node3"><a xlink:title=" ">
<polygon fill="none" stroke="#bfbfbf" points="46.8892,-115.5 46.8892,-133.5 98.4507,-133.5 98.4507,-115.5 46.8892,-115.5"/>
<text text-anchor="middle" x="72.6699" y="-121.5" font-family="Helvetica,sans-Serif" font-size="10.00" fill="#000000">sstream</text>
</a>
</g>
</g>
<!-- Node0&#45;&gt;Node2 -->
<g id="edge2" class="edge">
<title>Node0&#45;&gt;Node2</title>
<path fill="none" stroke="#191970" d="M126.239,-175.3567C114.3056,-164.0276 100.4017,-150.8276 89.7498,-140.7151"/>
<polygon fill="#191970" stroke="#191970" points="91.9869,-138.0128 82.3248,-133.666 87.1673,-143.0894 91.9869,-138.0128"/>
</g>
<!-- Node3 -->
<g id="node4" class="node">
<title>Node3</title>
<g id="a_node4"><a xlink:title=" ">
<polygon fill="none" stroke="#bfbfbf" points="172.4434,-.5 172.4434,-18.5 212.8965,-18.5 212.8965,-.5 172.4434,-.5"/>
<text text-anchor="middle" x="192.6699" y="-6.5" font-family="Helvetica,sans-Serif" font-size="10.00" fill="#000000">string</text>
</a>
</g>
</g>
<!-- Node0&#45;&gt;Node3 -->
<g id="edge3" class="edge">
<title>Node0&#45;&gt;Node3</title>
<path fill="none" stroke="#191970" d="M146.3704,-175.287C143.2763,-157.1178 140.8378,-131.7389 145.6699,-110 152.4989,-79.2773 169.7572,-46.8315 181.3496,-27.3778"/>
<polygon fill="#191970" stroke="#191970" points="184.4253,-29.0572 186.6625,-18.7013 178.4555,-25.4018 184.4253,-29.0572"/>
</g>
<!-- Node4 -->
<g id="node5" class="node">
<title>Node4</title>
<g id="a_node5"><a xlink:title=" ">
<polygon fill="none" stroke="#bfbfbf" points="155.0542,-115.5 155.0542,-133.5 198.2856,-133.5 198.2856,-115.5 155.0542,-115.5"/>
<text text-anchor="middle" x="176.6699" y="-121.5" font-family="Helvetica,sans-Serif" font-size="10.00" fill="#000000">vector</text>
</a>
</g>
</g>
<!-- Node0&#45;&gt;Node4 -->
<g id="edge4" class="edge">
<title>Node0&#45;&gt;Node4</title>
<path fill="none" stroke="#191970" d="M159.7177,-175.3567C163.1609,-165.0272 167.1224,-153.1425 170.3497,-143.4607"/>
<polygon fill="#191970" stroke="#191970" points="173.7726,-144.2596 173.6146,-133.666 167.1319,-142.046 173.7726,-144.2596"/>
</g>
<!-- Node5 -->
<g id="node6" class="node">
<title>Node5</title>
<g id="a_node6"><a xlink:title=" ">
<polygon fill="none" stroke="#bfbfbf" points="216.6924,-110.5 216.6924,-138.5 356.6475,-138.5 356.6475,-110.5 216.6924,-110.5"/>
<text text-anchor="start" x="224.6924" y="-126.5" font-family="Helvetica,sans-Serif" font-size="10.00" fill="#000000">boost/date_time/posix</text>
<text text-anchor="middle" x="286.6699" y="-116.5" font-family="Helvetica,sans-Serif" font-size="10.00" fill="#000000">_time/posix_time_types.hpp</text>
</a>
</g>
</g>
<!-- Node0&#45;&gt;Node5 -->
<g id="edge5" class="edge">
<title>Node0&#45;&gt;Node5</title>
<path fill="none" stroke="#191970" d="M195.1279,-175.3567C213.5981,-165.0955 234.8309,-153.2994 252.1948,-143.6529"/>
<polygon fill="#191970" stroke="#191970" points="254.3594,-146.4542 261.4012,-138.5382 250.9599,-140.3351 254.3594,-146.4542"/>
</g>
<!-- Node6 -->
<g id="node7" class="node">
<title>Node6</title>
<g id="a_node7"><a xlink:href="_reconnect_response_status_8hxx.html" target="_top" xlink:title=" ">
<polygon fill="none" stroke="#000000" points="374.5669,-115.5 374.5669,-133.5 556.7729,-133.5 556.7729,-115.5 374.5669,-115.5"/>
<text text-anchor="middle" x="465.6699" y="-121.5" font-family="Helvetica,sans-Serif" font-size="10.00" fill="#000000">types/ReconnectResponseStatus.hxx</text>
</a>
</g>
</g>
<!-- Node0&#45;&gt;Node6 -->
<g id="edge6" class="edge">
<title>Node0&#45;&gt;Node6</title>
<path fill="none" stroke="#191970" d="M239.554,-178.5086C297.3615,-164.7011 370.7879,-147.1629 418.0069,-135.8845"/>
<polygon fill="#191970" stroke="#191970" points="419.048,-139.2344 427.9612,-133.5069 417.4217,-132.4259 419.048,-139.2344"/>
</g>
<!-- Node7 -->
<g id="node8" class="node">
<title>Node7</title>
<g id="a_node8"><a xlink:href="_common_data_types_8hxx.html" target="_top" xlink:title=" ">
<polygon fill="none" stroke="#000000" points="272.9731,-55.5 272.9731,-73.5 422.3667,-73.5 422.3667,-55.5 272.9731,-55.5"/>
<text text-anchor="middle" x="347.6699" y="-61.5" font-family="Helvetica,sans-Serif" font-size="10.00" fill="#000000">types/CommonDataTypes.hxx</text>
</a>
</g>
</g>
<!-- Node6&#45;&gt;Node7 -->
<g id="edge7" class="edge">
<title>Node6&#45;&gt;Node7</title>
<path fill="none" stroke="#191970" d="M447.7483,-115.3873C428.2291,-105.4623 396.8016,-89.4822 374.3737,-78.0782"/>
<polygon fill="#191970" stroke="#191970" points="375.8739,-74.9145 365.3736,-73.5019 372.7011,-81.1542 375.8739,-74.9145"/>
</g>
<!-- Node7&#45;&gt;Node3 -->
<g id="edge8" class="edge">
<title>Node7&#45;&gt;Node3</title>
<path fill="none" stroke="#191970" d="M322.0748,-55.4179C294.8464,-45.7562 251.7984,-30.4811 222.9145,-20.232"/>
<polygon fill="#191970" stroke="#191970" points="223.9326,-16.8794 213.3379,-16.8338 221.5917,-23.4764 223.9326,-16.8794"/>
</g>
<!-- Node8 -->
<g id="node9" class="node">
<title>Node8</title>
<g id="a_node9"><a xlink:title=" ">
<polygon fill="none" stroke="#bfbfbf" points="296.8745,-.5 296.8745,-18.5 398.4653,-18.5 398.4653,-.5 296.8745,-.5"/>
<text text-anchor="middle" x="347.6699" y="-6.5" font-family="Helvetica,sans-Serif" font-size="10.00" fill="#000000">CommonTypes.hxx</text>
</a>
</g>
</g>
<!-- Node7&#45;&gt;Node8 -->
<g id="edge9" class="edge">
<title>Node7&#45;&gt;Node8</title>
<path fill="none" stroke="#191970" d="M347.6699,-55.4179C347.6699,-48.2164 347.6699,-37.8962 347.6699,-28.8632"/>
<polygon fill="#191970" stroke="#191970" points="351.17,-28.7794 347.6699,-18.7795 344.17,-28.7795 351.17,-28.7794"/>
</g>
</g>
</svg>
        <g id="navigator" transform="translate(0 0)" fill="#404254">
                <rect fill="#f2f5e9" fill-opacity="0.5" stroke="#606060" stroke-width=".5" x="0" y="0" width="60" height="60"/>
                <use id="zoomplus" xlink:href="#zoomPlus" x="17" y="9" onmousedown="handleZoom(evt,'in')"/>
                <use id="zoomminus" xlink:href="#zoomMin" x="42" y="9" onmousedown="handleZoom(evt,'out')"/>
                <use id="reset" xlink:href="#resetDef" x="30" y="36" onmousedown="handleReset()"/>
                <g id="arrowUp" xlink:href="#dirArrow" transform="translate(30 24)" onmousedown="handlePan(0,-1)">
                  <use xlink:href="#rim" fill="#404040">
                        <set attributeName="fill" to="#808080" begin="arrowUp.mouseover" end="arrowUp.mouseout"/>
                  </use>
                  <path fill="none" stroke="white" stroke-width="1.5" d="M0,-3.0v7 M-2.5,-0.5L0,-3.0L2.5,-0.5"/>
                </g>
                <g id="arrowRight" xlink:href="#dirArrow" transform="rotate(90) translate(36 -43)" onmousedown="handlePan(1,0)">
                  <use xlink:href="#rim" fill="#404040">
                        <set attributeName="fill" to="#808080" begin="arrowRight.mouseover" end="arrowRight.mouseout"/>
                  </use>
                  <path fill="none" stroke="white" stroke-width="1.5" d="M0,-3.0v7 M-2.5,-0.5L0,-3.0L2.5,-0.5"/>
                </g>
                <g id="arrowDown" xlink:href="#dirArrow" transform="rotate(180) translate(-30 -48)" onmousedown="handlePan(0,1)">
                  <use xlink:href="#rim" fill="#404040">
                        <set attributeName="fill" to="#808080" begin="arrowDown.mouseover" end="arrowDown.mouseout"/>
                  </use>
                  <path fill="none" stroke="white" stroke-width="1.5" d="M0,-3.0v7 M-2.5,-0.5L0,-3.0L2.5,-0.5"/>
                </g>
                <g id="arrowLeft" xlink:href="#dirArrow" transform="rotate(270) translate(-36 17)" onmousedown="handlePan(-1,0)">
                  <use xlink:href="#rim" fill="#404040">
                        <set attributeName="fill" to="#808080" begin="arrowLeft.mouseover" end="arrowLeft.mouseout"/>
                  </use>
                  <path fill="none" stroke="white" stroke-width="1.5" d="M0,-3.0v7 M-2.5,-0.5L0,-3.0L2.5,-0.5"/>
                </g>
        </g>
        <svg viewBox="0 0 15 15" width="100%" height="30px" preserveAspectRatio="xMaxYMin meet">
         <g id="arrow_out" transform="scale(0.3 0.3)">
          <a xlink:href="_utils_8hxx__incl_org.svg" target="_base">
           <rect id="button" ry="5" rx="5" y="6" x="6" height="38" width="38"
                fill="#f2f5e9" fill-opacity="0.5" stroke="#606060" stroke-width="1.0"/>
           <path id="arrow"
             d="M 11.500037,31.436501 C 11.940474,20.09759 22.043105,11.32322 32.158766,21.979434 L 37.068811,17.246167 C 37.068811,17.246167 37.088388,32 37.088388,32 L 22.160133,31.978069 C 22.160133,31.978069 26.997745,27.140456 26.997745,27.140456 C 18.528582,18.264221 13.291696,25.230495 11.500037,31.436501 z"
             style="fill:#404040;"/>
          </a>
         </g>
        </svg>
</svg>
