<?xml version="1.0" encoding="UTF-8" standalone="no"?>
<!DOCTYPE svg PUBLIC "-//W3C//DTD SVG 1.1//EN"
 "http://www.w3.org/Graphics/SVG/1.1/DTD/svg11.dtd">
<!-- Generated by graphviz version 2.40.1 (20161225.0304)
 -->
<!-- Title: /Users/oskryp/Projects/freesee&#45;native&#45;client/libs/fcc_sdk/engine/meetingclient/src/headers/MeetingClient/VideoEngineProxy.hxx Pages: 1 -->
<!--zoomable 502 -->
<svg id="main" version="1.1" xmlns="http://www.w3.org/2000/svg" xmlns:xlink="http://www.w3.org/1999/xlink" xml:space="preserve" onload="init(evt)">
<style type="text/css"><![CDATA[
.edge:hover path { stroke: red; }
.edge:hover polygon { stroke: red; fill: red; }
]]></style>
<script type="text/javascript"><![CDATA[
var edges = document.getElementsByTagName('g');
if (edges && edges.length) {
  for (var i=0;i<edges.length;i++) {
    if (edges[i].id.substr(0,4)=='edge') {
      edges[i].setAttribute('class','edge');
    }
  }
}
]]></script>
        <defs>
                <circle id="rim" cx="0" cy="0" r="7"/>
                <circle id="rim2" cx="0" cy="0" r="3.5"/>
                <g id="zoomPlus">
                        <use xlink:href="#rim" fill="#404040">
                                <set attributeName="fill" to="#808080" begin="zoomplus.mouseover" end="zoomplus.mouseout"/>
                        </use>
                        <path d="M-4,0h8M0,-4v8" fill="none" stroke="white" stroke-width="1.5" pointer-events="none"/>
                </g>
                <g id="zoomMin">
                        <use xlink:href="#rim" fill="#404040">
                                <set attributeName="fill" to="#808080" begin="zoomminus.mouseover" end="zoomminus.mouseout"/>
                        </use>
                        <path d="M-4,0h8" fill="none" stroke="white" stroke-width="1.5" pointer-events="none"/>
                </g>
                <g id="dirArrow">
                        <path fill="none" stroke="white" stroke-width="1.5" d="M0,-3.0v7 M-2.5,-0.5L0,-3.0L2.5,-0.5"/>
                </g>
               <g id="resetDef">
                       <use xlink:href="#rim2" fill="#404040">
                               <set attributeName="fill" to="#808080" begin="reset.mouseover" end="reset.mouseout"/>
                       </use>
               </g>
        </defs>

<script type="text/javascript">
var viewWidth = 1259;
var viewHeight = 502;
var sectionId = 'dynsection-0';
</script>
<script xlink:href="svgpan.js"/>
<svg id="graph" class="graph">
<g id="viewport">
<title>/Users/oskryp/Projects/freesee&#45;native&#45;client/libs/fcc_sdk/engine/meetingclient/src/headers/MeetingClient/VideoEngineProxy.hxx</title>
<!-- Node0 -->
<g id="node1" class="node">
<title>Node0</title>
<g id="a_node1"><a xlink:title=" ">
<polygon fill="#bfbfbf" stroke="#000000" points="404.0137,-445.5 404.0137,-493.5 641.4395,-493.5 641.4395,-445.5 404.0137,-445.5"/>
<text text-anchor="start" x="412.0137" y="-481.5" font-family="Helvetica,sans-Serif" font-size="10.00" fill="#000000">/Users/oskryp/Projects</text>
<text text-anchor="start" x="412.0137" y="-471.5" font-family="Helvetica,sans-Serif" font-size="10.00" fill="#000000">/freesee&#45;native&#45;client</text>
<text text-anchor="start" x="412.0137" y="-461.5" font-family="Helvetica,sans-Serif" font-size="10.00" fill="#000000">/libs/fcc_sdk/engine/meetingclient</text>
<text text-anchor="middle" x="522.7266" y="-451.5" font-family="Helvetica,sans-Serif" font-size="10.00" fill="#000000">/src/headers/MeetingClient/VideoEngineProxy.hxx</text>
</a>
</g>
</g>
<!-- Node1 -->
<g id="node2" class="node">
<title>Node1</title>
<g id="a_node2"><a xlink:title=" ">
<polygon fill="none" stroke="#bfbfbf" points="268.6479,-330.5 268.6479,-348.5 360.8052,-348.5 360.8052,-330.5 268.6479,-330.5"/>
<text text-anchor="middle" x="314.7266" y="-336.5" font-family="Helvetica,sans-Serif" font-size="10.00" fill="#000000">boost/atomic.hpp</text>
</a>
</g>
</g>
<!-- Node0&#45;&gt;Node1 -->
<g id="edge1" class="edge">
<title>Node0&#45;&gt;Node1</title>
<path fill="none" stroke="#191970" d="M484.0908,-445.3527C441.1677,-418.5257 373.2635,-376.0856 337.8862,-353.9748"/>
<polygon fill="#191970" stroke="#191970" points="339.5574,-350.8919 329.2223,-348.5599 335.8473,-356.8279 339.5574,-350.8919"/>
</g>
<!-- Node2 -->
<g id="node3" class="node">
<title>Node2</title>
<g id="a_node3"><a xlink:title=" ">
<polygon fill="none" stroke="#bfbfbf" points="458.3032,-390.5 458.3032,-408.5 587.1499,-408.5 587.1499,-390.5 458.3032,-390.5"/>
<text text-anchor="middle" x="522.7266" y="-396.5" font-family="Helvetica,sans-Serif" font-size="10.00" fill="#000000">boost/asio/io_service.hpp</text>
</a>
</g>
</g>
<!-- Node0&#45;&gt;Node2 -->
<g id="edge2" class="edge">
<title>Node0&#45;&gt;Node2</title>
<path fill="none" stroke="#191970" d="M522.7266,-445.41C522.7266,-436.7094 522.7266,-427.0095 522.7266,-418.7754"/>
<polygon fill="#191970" stroke="#191970" points="526.2267,-418.6872 522.7266,-408.6872 519.2267,-418.6873 526.2267,-418.6872"/>
</g>
<!-- Node3 -->
<g id="node4" class="node">
<title>Node3</title>
<g id="a_node4"><a xlink:href="_video_controller_8hxx.html" target="_top" xlink:title=" ">
<polygon fill="none" stroke="#000000" points="621.4551,-390.5 621.4551,-408.5 723.998,-408.5 723.998,-390.5 621.4551,-390.5"/>
<text text-anchor="middle" x="672.7266" y="-396.5" font-family="Helvetica,sans-Serif" font-size="10.00" fill="#000000">VideoController.hxx</text>
</a>
</g>
</g>
<!-- Node0&#45;&gt;Node3 -->
<g id="edge3" class="edge">
<title>Node0&#45;&gt;Node3</title>
<path fill="none" stroke="#191970" d="M574.3481,-445.41C597.6921,-434.5161 624.3936,-422.0554 644.0828,-412.8671"/>
<polygon fill="#191970" stroke="#191970" points="645.8301,-415.9141 653.4118,-408.5136 642.8698,-409.5708 645.8301,-415.9141"/>
</g>
<!-- Node3&#45;&gt;Node1 -->
<g id="edge8" class="edge">
<title>Node3&#45;&gt;Node1</title>
<path fill="none" stroke="#191970" d="M621.3461,-393.0155C561.7712,-385.1824 460.739,-370.9273 374.7266,-354 369.9193,-353.0539 364.9155,-351.9833 359.9386,-350.8628"/>
<polygon fill="#191970" stroke="#191970" points="360.3647,-347.3687 349.8323,-348.5167 358.7817,-354.1874 360.3647,-347.3687"/>
</g>
<!-- Node4 -->
<g id="node5" class="node">
<title>Node4</title>
<g id="a_node5"><a xlink:title=" ">
<polygon fill="none" stroke="#bfbfbf" points="1142.0225,-325.5 1142.0225,-353.5 1251.4307,-353.5 1251.4307,-325.5 1142.0225,-325.5"/>
<text text-anchor="start" x="1150.0225" y="-341.5" font-family="Helvetica,sans-Serif" font-size="10.00" fill="#000000">boost/enable_shared</text>
<text text-anchor="middle" x="1196.7266" y="-331.5" font-family="Helvetica,sans-Serif" font-size="10.00" fill="#000000">_from_this.hpp</text>
</a>
</g>
</g>
<!-- Node3&#45;&gt;Node4 -->
<g id="edge4" class="edge">
<title>Node3&#45;&gt;Node4</title>
<path fill="none" stroke="#191970" d="M724.0479,-396.5118C807.4854,-391.1971 977.8597,-378.447 1131.8808,-353.9961"/>
<polygon fill="#191970" stroke="#191970" points="1132.6838,-357.4121 1142.0012,-352.3686 1131.5723,-350.5009 1132.6838,-357.4121"/>
</g>
<!-- Node5 -->
<g id="node6" class="node">
<title>Node5</title>
<g id="a_node6"><a xlink:title=" ">
<polygon fill="none" stroke="#bfbfbf" points="329.7441,-265.5 329.7441,-283.5 439.709,-283.5 439.709,-265.5 329.7441,-265.5"/>
<text text-anchor="middle" x="384.7266" y="-271.5" font-family="Helvetica,sans-Serif" font-size="10.00" fill="#000000">boost/shared_ptr.hpp</text>
</a>
</g>
</g>
<!-- Node3&#45;&gt;Node5 -->
<g id="edge5" class="edge">
<title>Node3&#45;&gt;Node5</title>
<path fill="none" stroke="#191970" d="M621.3924,-392.1121C546.6017,-381.1446 415.6538,-361.0886 407.7266,-354 390.7856,-338.8512 385.9986,-312.0729 384.814,-293.819"/>
<polygon fill="#191970" stroke="#191970" points="388.3089,-293.6082 384.4654,-283.7351 381.3131,-293.8501 388.3089,-293.6082"/>
</g>
<!-- Node6 -->
<g id="node7" class="node">
<title>Node6</title>
<g id="a_node7"><a xlink:title=" ">
<polygon fill="none" stroke="#bfbfbf" points="416.4165,-330.5 416.4165,-348.5 533.0366,-348.5 533.0366,-330.5 416.4165,-330.5"/>
<text text-anchor="middle" x="474.7266" y="-336.5" font-family="Helvetica,sans-Serif" font-size="10.00" fill="#000000">boost/thread/locks.hpp</text>
</a>
</g>
</g>
<!-- Node3&#45;&gt;Node6 -->
<g id="edge6" class="edge">
<title>Node3&#45;&gt;Node6</title>
<path fill="none" stroke="#191970" d="M642.6546,-390.3873C608.2937,-379.9749 551.9405,-362.8982 514.1037,-351.4325"/>
<polygon fill="#191970" stroke="#191970" points="515.018,-348.0524 504.4327,-348.5019 512.9879,-354.7516 515.018,-348.0524"/>
</g>
<!-- Node7 -->
<g id="node8" class="node">
<title>Node7</title>
<g id="a_node8"><a xlink:title=" ">
<polygon fill="none" stroke="#bfbfbf" points="551.2515,-325.5 551.2515,-353.5 656.2017,-353.5 656.2017,-325.5 551.2515,-325.5"/>
<text text-anchor="start" x="559.2515" y="-341.5" font-family="Helvetica,sans-Serif" font-size="10.00" fill="#000000">boost/thread/shared</text>
<text text-anchor="middle" x="603.7266" y="-331.5" font-family="Helvetica,sans-Serif" font-size="10.00" fill="#000000">_mutex.hpp</text>
</a>
</g>
</g>
<!-- Node3&#45;&gt;Node7 -->
<g id="edge7" class="edge">
<title>Node3&#45;&gt;Node7</title>
<path fill="none" stroke="#191970" d="M662.2469,-390.3873C653.1188,-382.4497 639.5368,-370.6394 627.7549,-360.3942"/>
<polygon fill="#191970" stroke="#191970" points="629.8053,-357.539 619.9626,-353.6183 625.212,-362.8212 629.8053,-357.539"/>
</g>
<!-- Node8 -->
<g id="node9" class="node">
<title>Node8</title>
<g id="a_node9"><a xlink:href="_i_video_notifications_delegate_8hxx.html" target="_top" xlink:title=" ">
<polygon fill="none" stroke="#000000" points="828.4995,-325.5 828.4995,-353.5 974.9536,-353.5 974.9536,-325.5 828.4995,-325.5"/>
<text text-anchor="start" x="836.4995" y="-341.5" font-family="Helvetica,sans-Serif" font-size="10.00" fill="#000000">Delegates/IVideoNotifications</text>
<text text-anchor="middle" x="901.7266" y="-331.5" font-family="Helvetica,sans-Serif" font-size="10.00" fill="#000000">Delegate.hxx</text>
</a>
</g>
</g>
<!-- Node3&#45;&gt;Node8 -->
<g id="edge9" class="edge">
<title>Node3&#45;&gt;Node8</title>
<path fill="none" stroke="#191970" d="M707.5067,-390.3873C742.1413,-381.3127 796.0953,-367.1763 838.3555,-356.1038"/>
<polygon fill="#191970" stroke="#191970" points="839.4915,-359.4244 848.2779,-353.504 837.7173,-352.6529 839.4915,-359.4244"/>
</g>
<!-- Node17 -->
<g id="node18" class="node">
<title>Node17</title>
<g id="a_node18"><a xlink:href="_common_data_types_8hxx.html" target="_top" xlink:title=" ">
<polygon fill="none" stroke="#000000" points="726.9805,-65.5 726.9805,-93.5 852.4727,-93.5 852.4727,-65.5 726.9805,-65.5"/>
<text text-anchor="start" x="734.9805" y="-81.5" font-family="Helvetica,sans-Serif" font-size="10.00" fill="#000000">MeetingClient/types</text>
<text text-anchor="middle" x="789.7266" y="-71.5" font-family="Helvetica,sans-Serif" font-size="10.00" fill="#000000">/CommonDataTypes.hxx</text>
</a>
</g>
</g>
<!-- Node3&#45;&gt;Node17 -->
<g id="edge29" class="edge">
<title>Node3&#45;&gt;Node17</title>
<path fill="none" stroke="#191970" d="M724.1584,-395.0443C807.4708,-387.3772 964.599,-370.8796 983.7266,-354 1011.2149,-329.7422 1005.7266,-311.1613 1005.7266,-274.5 1005.7266,-274.5 1005.7266,-274.5 1005.7266,-209.5 1005.7266,-141.0541 925.1224,-107.7201 862.3921,-92.1419"/>
<polygon fill="#191970" stroke="#191970" points="863.0309,-88.6963 852.4929,-89.7915 861.4138,-95.507 863.0309,-88.6963"/>
</g>
<!-- Node27 -->
<g id="node28" class="node">
<title>Node27</title>
<g id="a_node28"><a xlink:href="_meeting_controller_base_8hxx.html" target="_top" xlink:title=" ">
<polygon fill="none" stroke="#000000" points="674.6973,-330.5 674.6973,-348.5 810.7559,-348.5 810.7559,-330.5 674.6973,-330.5"/>
<text text-anchor="middle" x="742.7266" y="-336.5" font-family="Helvetica,sans-Serif" font-size="10.00" fill="#000000">MeetingControllerBase.hxx</text>
</a>
</g>
</g>
<!-- Node3&#45;&gt;Node27 -->
<g id="edge30" class="edge">
<title>Node3&#45;&gt;Node27</title>
<path fill="none" stroke="#191970" d="M683.3581,-390.3873C694.1508,-381.1364 711.0807,-366.625 724.1044,-355.4618"/>
<polygon fill="#191970" stroke="#191970" points="726.6802,-357.8638 731.995,-348.6985 722.1246,-352.549 726.6802,-357.8638"/>
</g>
<!-- Node28 -->
<g id="node29" class="node">
<title>Node28</title>
<g id="a_node29"><a xlink:title=" ">
<polygon fill="none" stroke="#bfbfbf" points="1033.2876,-330.5 1033.2876,-348.5 1124.1655,-348.5 1124.1655,-330.5 1033.2876,-330.5"/>
<text text-anchor="middle" x="1078.7266" y="-336.5" font-family="Helvetica,sans-Serif" font-size="10.00" fill="#000000">VideoEngine.hxx</text>
</a>
</g>
</g>
<!-- Node3&#45;&gt;Node28 -->
<g id="edge32" class="edge">
<title>Node3&#45;&gt;Node28</title>
<path fill="none" stroke="#191970" d="M724.1584,-394.5532C792.1515,-387.604 915.5251,-373.574 1019.7266,-354 1024.7171,-353.0625 1029.9171,-351.9649 1035.0713,-350.8005"/>
<polygon fill="#191970" stroke="#191970" points="1035.9236,-354.1956 1044.8595,-348.5035 1034.3243,-347.3808 1035.9236,-354.1956"/>
</g>
<!-- Node9 -->
<g id="node10" class="node">
<title>Node9</title>
<g id="a_node10"><a xlink:href="_notifications_8hxx.html" target="_top" xlink:title=" ">
<polygon fill="none" stroke="#000000" points="457.2515,-260.5 457.2515,-288.5 582.2017,-288.5 582.2017,-260.5 457.2515,-260.5"/>
<text text-anchor="start" x="465.2515" y="-276.5" font-family="Helvetica,sans-Serif" font-size="10.00" fill="#000000">MeetingClient/Delegates</text>
<text text-anchor="middle" x="519.7266" y="-266.5" font-family="Helvetica,sans-Serif" font-size="10.00" fill="#000000">/Notifications.hxx</text>
</a>
</g>
</g>
<!-- Node8&#45;&gt;Node9 -->
<g id="edge10" class="edge">
<title>Node8&#45;&gt;Node9</title>
<path fill="none" stroke="#191970" d="M828.4142,-326.5054C825.4804,-325.9951 822.5758,-325.4917 819.7266,-325 742.0758,-311.5992 653.0399,-296.666 592.2628,-286.5381"/>
<polygon fill="#191970" stroke="#191970" points="592.8211,-283.083 582.382,-284.8924 591.671,-289.9879 592.8211,-283.083"/>
</g>
<!-- Node10 -->
<g id="node11" class="node">
<title>Node10</title>
<g id="a_node11"><a xlink:title=" ">
<polygon fill="none" stroke="#bfbfbf" points="864.0864,-195.5 864.0864,-223.5 977.3667,-223.5 977.3667,-195.5 864.0864,-195.5"/>
<text text-anchor="start" x="872.0864" y="-211.5" font-family="Helvetica,sans-Serif" font-size="10.00" fill="#000000">boost/date_time/posix</text>
<text text-anchor="middle" x="920.7266" y="-201.5" font-family="Helvetica,sans-Serif" font-size="10.00" fill="#000000">_time/posix_time.hpp</text>
</a>
</g>
</g>
<!-- Node9&#45;&gt;Node10 -->
<g id="edge11" class="edge">
<title>Node9&#45;&gt;Node10</title>
<path fill="none" stroke="#191970" d="M582.4924,-266.4089C647.9743,-257.6651 753.8202,-242.6824 854.0609,-224.242"/>
<polygon fill="#191970" stroke="#191970" points="854.8605,-227.6535 864.0545,-222.3884 853.5839,-220.7709 854.8605,-227.6535"/>
</g>
<!-- Node11 -->
<g id="node12" class="node">
<title>Node11</title>
<g id="a_node12"><a xlink:title=" ">
<polygon fill="none" stroke="#bfbfbf" points="0,-200.5 0,-218.5 35.4531,-218.5 35.4531,-200.5 0,-200.5"/>
<text text-anchor="middle" x="17.7266" y="-206.5" font-family="Helvetica,sans-Serif" font-size="10.00" fill="#000000">map</text>
</a>
</g>
</g>
<!-- Node9&#45;&gt;Node11 -->
<g id="edge12" class="edge">
<title>Node9&#45;&gt;Node11</title>
<path fill="none" stroke="#191970" d="M457.0742,-261.3057C454.2576,-260.8385 451.4653,-260.4001 448.7266,-260 269.9147,-233.8789 216.4348,-277.1777 43.7266,-224 42.6893,-223.6806 41.6472,-223.316 40.6081,-222.9159"/>
<polygon fill="#191970" stroke="#191970" points="42.081,-219.7408 31.5466,-218.6109 39.0771,-226.0635 42.081,-219.7408"/>
</g>
<!-- Node12 -->
<g id="node13" class="node">
<title>Node12</title>
<g id="a_node13"><a xlink:title=" ">
<polygon fill="none" stroke="#bfbfbf" points="53.1108,-200.5 53.1108,-218.5 96.3423,-218.5 96.3423,-200.5 53.1108,-200.5"/>
<text text-anchor="middle" x="74.7266" y="-206.5" font-family="Helvetica,sans-Serif" font-size="10.00" fill="#000000">vector</text>
</a>
</g>
</g>
<!-- Node9&#45;&gt;Node12 -->
<g id="edge13" class="edge">
<title>Node9&#45;&gt;Node12</title>
<path fill="none" stroke="#191970" d="M457.0661,-261.3592C454.2518,-260.8775 451.4621,-260.4214 448.7266,-260 296.7953,-236.5927 252.58,-266.0758 104.7266,-224 103.266,-223.5844 101.7896,-223.1015 100.3159,-222.5696"/>
<polygon fill="#191970" stroke="#191970" points="101.3995,-219.2273 90.827,-218.5399 98.6632,-225.6704 101.3995,-219.2273"/>
</g>
<!-- Node13 -->
<g id="node14" class="node">
<title>Node13</title>
<g id="a_node14"><a xlink:title=" ">
<polygon fill="none" stroke="#bfbfbf" points="114.0396,-200.5 114.0396,-218.5 203.4136,-218.5 203.4136,-200.5 114.0396,-200.5"/>
<text text-anchor="middle" x="158.7266" y="-206.5" font-family="Helvetica,sans-Serif" font-size="10.00" fill="#000000">FSSnapshot.hxx</text>
</a>
</g>
</g>
<!-- Node9&#45;&gt;Node13 -->
<g id="edge14" class="edge">
<title>Node9&#45;&gt;Node13</title>
<path fill="none" stroke="#191970" d="M457.0397,-261.5183C454.2325,-260.9935 451.4515,-260.4849 448.7266,-260 343.8327,-241.3348 315.9519,-246.0948 211.7266,-224 207.6321,-223.132 203.3843,-222.1356 199.156,-221.0804"/>
<polygon fill="#191970" stroke="#191970" points="199.9658,-217.6746 189.4067,-218.5439 198.2033,-224.4491 199.9658,-217.6746"/>
</g>
<!-- Node14 -->
<g id="node15" class="node">
<title>Node14</title>
<g id="a_node15"><a xlink:href="macros_8hxx.html" target="_top" xlink:title=" ">
<polygon fill="none" stroke="#000000" points="221.2046,-200.5 221.2046,-218.5 352.2485,-218.5 352.2485,-200.5 221.2046,-200.5"/>
<text text-anchor="middle" x="286.7266" y="-206.5" font-family="Helvetica,sans-Serif" font-size="10.00" fill="#000000">MeetingClient/macros.hxx</text>
</a>
</g>
</g>
<!-- Node9&#45;&gt;Node14 -->
<g id="edge15" class="edge">
<title>Node9&#45;&gt;Node14</title>
<path fill="none" stroke="#191970" d="M469.4559,-260.476C427.4898,-248.7687 368.3546,-232.2718 328.842,-221.2489"/>
<polygon fill="#191970" stroke="#191970" points="329.5664,-217.8175 318.9937,-218.5016 327.6854,-224.56 329.5664,-217.8175"/>
</g>
<!-- Node15 -->
<g id="node16" class="node">
<title>Node15</title>
<g id="a_node16"><a xlink:href="_f_s_base_8hxx.html" target="_top" xlink:title=" ">
<polygon fill="none" stroke="#000000" points="370.0347,-195.5 370.0347,-223.5 489.4185,-223.5 489.4185,-195.5 370.0347,-195.5"/>
<text text-anchor="start" x="378.0347" y="-211.5" font-family="Helvetica,sans-Serif" font-size="10.00" fill="#000000">MeetingClient/transport</text>
<text text-anchor="middle" x="429.7266" y="-201.5" font-family="Helvetica,sans-Serif" font-size="10.00" fill="#000000">/FSBase.hxx</text>
</a>
</g>
</g>
<!-- Node9&#45;&gt;Node15 -->
<g id="edge16" class="edge">
<title>Node9&#45;&gt;Node15</title>
<path fill="none" stroke="#191970" d="M500.1979,-260.396C487.6965,-251.3672 471.2845,-239.5141 457.4443,-229.5184"/>
<polygon fill="#191970" stroke="#191970" points="459.3732,-226.5941 449.2171,-223.5765 455.2747,-232.2688 459.3732,-226.5941"/>
</g>
<!-- Node16 -->
<g id="node17" class="node">
<title>Node16</title>
<g id="a_node17"><a xlink:href="_meeting_types_8hxx.html" target="_top" xlink:title=" ">
<polygon fill="none" stroke="#000000" points="564.8154,-130.5 564.8154,-158.5 668.6377,-158.5 668.6377,-130.5 564.8154,-130.5"/>
<text text-anchor="start" x="572.8154" y="-146.5" font-family="Helvetica,sans-Serif" font-size="10.00" fill="#000000">MeetingClient/types</text>
<text text-anchor="middle" x="616.7266" y="-136.5" font-family="Helvetica,sans-Serif" font-size="10.00" fill="#000000">/MeetingTypes.hxx</text>
</a>
</g>
</g>
<!-- Node9&#45;&gt;Node16 -->
<g id="edge17" class="edge">
<title>Node9&#45;&gt;Node16</title>
<path fill="none" stroke="#191970" d="M519.5448,-260.2745C520.0055,-243.2788 522.9971,-214.6778 536.7266,-195 545.9008,-181.8509 559.7107,-171.387 573.287,-163.4722"/>
<polygon fill="#191970" stroke="#191970" points="575.0314,-166.5075 582.1237,-158.6367 571.6711,-160.3668 575.0314,-166.5075"/>
</g>
<!-- Node22 -->
<g id="node23" class="node">
<title>Node22</title>
<g id="a_node23"><a xlink:href="_conference_attribute_definitions_8hxx.html" target="_top" xlink:title=" ">
<polygon fill="none" stroke="#000000" points="545.9165,-195.5 545.9165,-223.5 677.5366,-223.5 677.5366,-195.5 545.9165,-195.5"/>
<text text-anchor="start" x="553.9165" y="-211.5" font-family="Helvetica,sans-Serif" font-size="10.00" fill="#000000">MeetingClient/Conference</text>
<text text-anchor="middle" x="611.7266" y="-201.5" font-family="Helvetica,sans-Serif" font-size="10.00" fill="#000000">AttributeDefinitions.hxx</text>
</a>
</g>
</g>
<!-- Node9&#45;&gt;Node22 -->
<g id="edge23" class="edge">
<title>Node9&#45;&gt;Node22</title>
<path fill="none" stroke="#191970" d="M539.6892,-260.396C552.4684,-251.3672 569.2451,-239.5141 583.3929,-229.5184"/>
<polygon fill="#191970" stroke="#191970" points="585.6553,-232.2054 591.8029,-223.5765 581.616,-226.4883 585.6553,-232.2054"/>
</g>
<!-- Node23 -->
<g id="node24" class="node">
<title>Node23</title>
<g id="a_node24"><a xlink:href="_meeting_session_parameters_8hxx.html" target="_top" xlink:title=" ">
<polygon fill="none" stroke="#000000" points="695.1899,-195.5 695.1899,-223.5 846.2632,-223.5 846.2632,-195.5 695.1899,-195.5"/>
<text text-anchor="start" x="703.1899" y="-211.5" font-family="Helvetica,sans-Serif" font-size="10.00" fill="#000000">MeetingClient/MeetingSession</text>
<text text-anchor="middle" x="770.7266" y="-201.5" font-family="Helvetica,sans-Serif" font-size="10.00" fill="#000000">Parameters.hxx</text>
</a>
</g>
</g>
<!-- Node9&#45;&gt;Node23 -->
<g id="edge24" class="edge">
<title>Node9&#45;&gt;Node23</title>
<path fill="none" stroke="#191970" d="M573.8808,-260.476C612.7571,-250.4084 665.3108,-236.7989 706.3376,-226.1744"/>
<polygon fill="#191970" stroke="#191970" points="707.4335,-229.5062 716.2367,-223.6109 705.6786,-222.7297 707.4335,-229.5062"/>
</g>
<!-- Node16&#45;&gt;Node17 -->
<g id="edge18" class="edge">
<title>Node16&#45;&gt;Node17</title>
<path fill="none" stroke="#191970" d="M654.265,-130.396C680.2224,-120.6432 714.9508,-107.5949 742.7451,-97.152"/>
<polygon fill="#191970" stroke="#191970" points="744.1314,-100.3701 752.2614,-93.5765 741.6693,-93.8174 744.1314,-100.3701"/>
</g>
<!-- Node20 -->
<g id="node21" class="node">
<title>Node20</title>
<g id="a_node21"><a xlink:href="strong__identity_8hxx.html" target="_top" xlink:title=" ">
<polygon fill="none" stroke="#000000" points="566.0166,-65.5 566.0166,-93.5 667.4365,-93.5 667.4365,-65.5 566.0166,-65.5"/>
<text text-anchor="start" x="574.0166" y="-81.5" font-family="Helvetica,sans-Serif" font-size="10.00" fill="#000000">MeetingClient/utils</text>
<text text-anchor="middle" x="616.7266" y="-71.5" font-family="Helvetica,sans-Serif" font-size="10.00" fill="#000000">/strong_identity.hxx</text>
</a>
</g>
</g>
<!-- Node16&#45;&gt;Node20 -->
<g id="edge21" class="edge">
<title>Node16&#45;&gt;Node20</title>
<path fill="none" stroke="#191970" d="M616.7266,-130.396C616.7266,-122.6448 616.7266,-112.8122 616.7266,-103.8601"/>
<polygon fill="#191970" stroke="#191970" points="620.2267,-103.5765 616.7266,-93.5765 613.2267,-103.5765 620.2267,-103.5765"/>
</g>
<!-- Node18 -->
<g id="node19" class="node">
<title>Node18</title>
<g id="a_node19"><a xlink:title=" ">
<polygon fill="none" stroke="#bfbfbf" points="811.5,-5.5 811.5,-23.5 851.9531,-23.5 851.9531,-5.5 811.5,-5.5"/>
<text text-anchor="middle" x="831.7266" y="-11.5" font-family="Helvetica,sans-Serif" font-size="10.00" fill="#000000">string</text>
</a>
</g>
</g>
<!-- Node17&#45;&gt;Node18 -->
<g id="edge19" class="edge">
<title>Node17&#45;&gt;Node18</title>
<path fill="none" stroke="#191970" d="M798.8399,-65.396C805.1202,-55.6764 813.5154,-42.6839 820.2516,-32.2589"/>
<polygon fill="#191970" stroke="#191970" points="823.3757,-33.873 825.8632,-23.5743 817.4963,-30.074 823.3757,-33.873"/>
</g>
<!-- Node19 -->
<g id="node20" class="node">
<title>Node19</title>
<g id="a_node20"><a xlink:title=" ">
<polygon fill="none" stroke="#bfbfbf" points="691.9312,-5.5 691.9312,-23.5 793.522,-23.5 793.522,-5.5 691.9312,-5.5"/>
<text text-anchor="middle" x="742.7266" y="-11.5" font-family="Helvetica,sans-Serif" font-size="10.00" fill="#000000">CommonTypes.hxx</text>
</a>
</g>
</g>
<!-- Node17&#45;&gt;Node19 -->
<g id="edge20" class="edge">
<title>Node17&#45;&gt;Node19</title>
<path fill="none" stroke="#191970" d="M779.5283,-65.396C772.4286,-55.5773 762.9137,-42.4184 755.3374,-31.9406"/>
<polygon fill="#191970" stroke="#191970" points="757.9837,-29.627 749.288,-23.5743 752.3112,-33.7287 757.9837,-29.627"/>
</g>
<!-- Node21 -->
<g id="node22" class="node">
<title>Node21</title>
<g id="a_node22"><a xlink:title=" ">
<polygon fill="none" stroke="#bfbfbf" points="564.5273,-.5 564.5273,-28.5 668.9258,-28.5 668.9258,-.5 564.5273,-.5"/>
<text text-anchor="start" x="572.5273" y="-16.5" font-family="Helvetica,sans-Serif" font-size="10.00" fill="#000000">boost/serialization</text>
<text text-anchor="middle" x="616.7266" y="-6.5" font-family="Helvetica,sans-Serif" font-size="10.00" fill="#000000">/strong_typedef.hpp</text>
</a>
</g>
</g>
<!-- Node20&#45;&gt;Node21 -->
<g id="edge22" class="edge">
<title>Node20&#45;&gt;Node21</title>
<path fill="none" stroke="#191970" d="M616.7266,-65.396C616.7266,-57.6448 616.7266,-47.8122 616.7266,-38.8601"/>
<polygon fill="#191970" stroke="#191970" points="620.2267,-38.5765 616.7266,-28.5765 613.2267,-38.5765 620.2267,-38.5765"/>
</g>
<!-- Node23&#45;&gt;Node16 -->
<g id="edge25" class="edge">
<title>Node23&#45;&gt;Node16</title>
<path fill="none" stroke="#191970" d="M737.3109,-195.396C714.507,-185.7709 684.0986,-172.9362 659.5237,-162.5637"/>
<polygon fill="#191970" stroke="#191970" points="660.6511,-159.2406 650.0771,-158.5765 657.929,-165.6897 660.6511,-159.2406"/>
</g>
<!-- Node24 -->
<g id="node25" class="node">
<title>Node24</title>
<g id="a_node25"><a xlink:title=" ">
<polygon fill="none" stroke="#bfbfbf" points="785.1626,-135.5 785.1626,-153.5 842.2905,-153.5 842.2905,-135.5 785.1626,-135.5"/>
<text text-anchor="middle" x="813.7266" y="-141.5" font-family="Helvetica,sans-Serif" font-size="10.00" fill="#000000">algorithm</text>
</a>
</g>
</g>
<!-- Node23&#45;&gt;Node24 -->
<g id="edge26" class="edge">
<title>Node23&#45;&gt;Node24</title>
<path fill="none" stroke="#191970" d="M780.0569,-195.396C786.5524,-185.5773 795.2575,-172.4184 802.189,-161.9406"/>
<polygon fill="#191970" stroke="#191970" points="805.1252,-163.8456 807.7236,-153.5743 799.2871,-159.9834 805.1252,-163.8456"/>
</g>
<!-- Node25 -->
<g id="node26" class="node">
<title>Node25</title>
<g id="a_node26"><a xlink:title=" ">
<polygon fill="none" stroke="#bfbfbf" points="859.8228,-135.5 859.8228,-153.5 933.6304,-153.5 933.6304,-135.5 859.8228,-135.5"/>
<text text-anchor="middle" x="896.7266" y="-141.5" font-family="Helvetica,sans-Serif" font-size="10.00" fill="#000000">Printable.hxx</text>
</a>
</g>
</g>
<!-- Node23&#45;&gt;Node25 -->
<g id="edge27" class="edge">
<title>Node23&#45;&gt;Node25</title>
<path fill="none" stroke="#191970" d="M798.0667,-195.396C819.4069,-184.3871 848.8867,-169.1793 870.0546,-158.2594"/>
<polygon fill="#191970" stroke="#191970" points="871.8539,-161.2695 879.1364,-153.5743 868.6446,-155.0485 871.8539,-161.2695"/>
</g>
<!-- Node26 -->
<g id="node27" class="node">
<title>Node26</title>
<g id="a_node27"><a xlink:title=" ">
<polygon fill="none" stroke="#bfbfbf" points="686.207,-135.5 686.207,-153.5 767.2461,-153.5 767.2461,-135.5 686.207,-135.5"/>
<text text-anchor="middle" x="726.7266" y="-141.5" font-family="Helvetica,sans-Serif" font-size="10.00" fill="#000000">VoIPClient.hxx</text>
</a>
</g>
</g>
<!-- Node23&#45;&gt;Node26 -->
<g id="edge28" class="edge">
<title>Node23&#45;&gt;Node26</title>
<path fill="none" stroke="#191970" d="M761.1792,-195.396C754.5327,-185.5773 745.6252,-172.4184 738.5325,-161.9406"/>
<polygon fill="#191970" stroke="#191970" points="741.3733,-159.8934 732.8692,-153.5743 735.5765,-163.8174 741.3733,-159.8934"/>
</g>
<!-- Node27&#45;&gt;Node5 -->
<g id="edge31" class="edge">
<title>Node27&#45;&gt;Node5</title>
<path fill="none" stroke="#191970" d="M694.9019,-330.4637C684.9358,-328.6216 674.493,-326.7215 664.7266,-325 568.8799,-308.1055 544.2255,-307.7603 448.7266,-289 443.6174,-287.9963 438.2927,-286.8889 432.9922,-285.7467"/>
<polygon fill="#191970" stroke="#191970" points="433.4104,-282.2551 422.892,-283.5255 431.9068,-289.0917 433.4104,-282.2551"/>
</g>
</g>
</svg>
        <g id="navigator" transform="translate(0 0)" fill="#404254">
                <rect fill="#f2f5e9" fill-opacity="0.5" stroke="#606060" stroke-width=".5" x="0" y="0" width="60" height="60"/>
                <use id="zoomplus" xlink:href="#zoomPlus" x="17" y="9" onmousedown="handleZoom(evt,'in')"/>
                <use id="zoomminus" xlink:href="#zoomMin" x="42" y="9" onmousedown="handleZoom(evt,'out')"/>
                <use id="reset" xlink:href="#resetDef" x="30" y="36" onmousedown="handleReset()"/>
                <g id="arrowUp" xlink:href="#dirArrow" transform="translate(30 24)" onmousedown="handlePan(0,-1)">
                  <use xlink:href="#rim" fill="#404040">
                        <set attributeName="fill" to="#808080" begin="arrowUp.mouseover" end="arrowUp.mouseout"/>
                  </use>
                  <path fill="none" stroke="white" stroke-width="1.5" d="M0,-3.0v7 M-2.5,-0.5L0,-3.0L2.5,-0.5"/>
                </g>
                <g id="arrowRight" xlink:href="#dirArrow" transform="rotate(90) translate(36 -43)" onmousedown="handlePan(1,0)">
                  <use xlink:href="#rim" fill="#404040">
                        <set attributeName="fill" to="#808080" begin="arrowRight.mouseover" end="arrowRight.mouseout"/>
                  </use>
                  <path fill="none" stroke="white" stroke-width="1.5" d="M0,-3.0v7 M-2.5,-0.5L0,-3.0L2.5,-0.5"/>
                </g>
                <g id="arrowDown" xlink:href="#dirArrow" transform="rotate(180) translate(-30 -48)" onmousedown="handlePan(0,1)">
                  <use xlink:href="#rim" fill="#404040">
                        <set attributeName="fill" to="#808080" begin="arrowDown.mouseover" end="arrowDown.mouseout"/>
                  </use>
                  <path fill="none" stroke="white" stroke-width="1.5" d="M0,-3.0v7 M-2.5,-0.5L0,-3.0L2.5,-0.5"/>
                </g>
                <g id="arrowLeft" xlink:href="#dirArrow" transform="rotate(270) translate(-36 17)" onmousedown="handlePan(-1,0)">
                  <use xlink:href="#rim" fill="#404040">
                        <set attributeName="fill" to="#808080" begin="arrowLeft.mouseover" end="arrowLeft.mouseout"/>
                  </use>
                  <path fill="none" stroke="white" stroke-width="1.5" d="M0,-3.0v7 M-2.5,-0.5L0,-3.0L2.5,-0.5"/>
                </g>
        </g>
        <svg viewBox="0 0 15 15" width="100%" height="30px" preserveAspectRatio="xMaxYMin meet">
         <g id="arrow_out" transform="scale(0.3 0.3)">
          <a xlink:href="_video_engine_proxy_8hxx__incl_org.svg" target="_base">
           <rect id="button" ry="5" rx="5" y="6" x="6" height="38" width="38"
                fill="#f2f5e9" fill-opacity="0.5" stroke="#606060" stroke-width="1.0"/>
           <path id="arrow"
             d="M 11.500037,31.436501 C 11.940474,20.09759 22.043105,11.32322 32.158766,21.979434 L 37.068811,17.246167 C 37.068811,17.246167 37.088388,32 37.088388,32 L 22.160133,31.978069 C 22.160133,31.978069 26.997745,27.140456 26.997745,27.140456 C 18.528582,18.264221 13.291696,25.230495 11.500037,31.436501 z"
             style="fill:#404040;"/>
          </a>
         </g>
        </svg>
</svg>
