<?xml version="1.0" encoding="UTF-8" standalone="no"?>
<!DOCTYPE svg PUBLIC "-//W3C//DTD SVG 1.1//EN"
 "http://www.w3.org/Graphics/SVG/1.1/DTD/svg11.dtd">
<!-- Generated by graphviz version 2.40.1 (20161225.0304)
 -->
<!-- Title: /Users/oskryp/Projects/freesee&#45;native&#45;client/libs/fcc_sdk/engine/meetingclient/src/VideoRenderer.cxx Pages: 1 -->
<svg width="426pt" height="307pt"
 viewBox="0.00 0.00 425.92 307.00" xmlns="http://www.w3.org/2000/svg" xmlns:xlink="http://www.w3.org/1999/xlink">
<g id="graph0" class="graph" transform="scale(1 1) rotate(0) translate(4 303)">
<title>/Users/oskryp/Projects/freesee&#45;native&#45;client/libs/fcc_sdk/engine/meetingclient/src/VideoRenderer.cxx</title>
<!-- Node0 -->
<g id="node1" class="node">
<title>Node0</title>
<g id="a_node1"><a xlink:title=" ">
<polygon fill="#bfbfbf" stroke="#000000" points="196.7417,-250.5 196.7417,-298.5 361.7114,-298.5 361.7114,-250.5 196.7417,-250.5"/>
<text text-anchor="start" x="204.7417" y="-286.5" font-family="Helvetica,sans-Serif" font-size="10.00" fill="#000000">/Users/oskryp/Projects</text>
<text text-anchor="start" x="204.7417" y="-276.5" font-family="Helvetica,sans-Serif" font-size="10.00" fill="#000000">/freesee&#45;native&#45;client</text>
<text text-anchor="start" x="204.7417" y="-266.5" font-family="Helvetica,sans-Serif" font-size="10.00" fill="#000000">/libs/fcc_sdk/engine/meetingclient</text>
<text text-anchor="middle" x="279.2266" y="-256.5" font-family="Helvetica,sans-Serif" font-size="10.00" fill="#000000">/src/VideoRenderer.cxx</text>
</a>
</g>
</g>
<!-- Node1 -->
<g id="node2" class="node">
<title>Node1</title>
<g id="a_node2"><a xlink:href="_video_renderer_8hxx.html" target="_top" xlink:title=" ">
<polygon fill="none" stroke="#000000" points="228.7852,-195.5 228.7852,-213.5 329.668,-213.5 329.668,-195.5 228.7852,-195.5"/>
<text text-anchor="middle" x="279.2266" y="-201.5" font-family="Helvetica,sans-Serif" font-size="10.00" fill="#000000">VideoRenderer.hxx</text>
</a>
</g>
</g>
<!-- Node0&#45;&gt;Node1 -->
<g id="edge1" class="edge">
<title>Node0&#45;&gt;Node1</title>
<path fill="none" stroke="#191970" d="M279.2266,-250.41C279.2266,-241.7094 279.2266,-232.0095 279.2266,-223.7754"/>
<polygon fill="#191970" stroke="#191970" points="282.7267,-223.6872 279.2266,-213.6872 275.7267,-223.6873 282.7267,-223.6872"/>
</g>
<!-- Node2 -->
<g id="node3" class="node">
<title>Node2</title>
<g id="a_node3"><a xlink:href="_meeting_types_8hxx.html" target="_top" xlink:title=" ">
<polygon fill="none" stroke="#000000" points="117.3154,-130.5 117.3154,-158.5 221.1377,-158.5 221.1377,-130.5 117.3154,-130.5"/>
<text text-anchor="start" x="125.3154" y="-146.5" font-family="Helvetica,sans-Serif" font-size="10.00" fill="#000000">MeetingClient/types</text>
<text text-anchor="middle" x="169.2266" y="-136.5" font-family="Helvetica,sans-Serif" font-size="10.00" fill="#000000">/MeetingTypes.hxx</text>
</a>
</g>
</g>
<!-- Node1&#45;&gt;Node2 -->
<g id="edge2" class="edge">
<title>Node1&#45;&gt;Node2</title>
<path fill="none" stroke="#191970" d="M262.5199,-195.3873C247.0583,-186.9537 223.5811,-174.1479 204.0469,-163.4929"/>
<polygon fill="#191970" stroke="#191970" points="205.565,-160.3342 195.1101,-158.6183 202.213,-166.4795 205.565,-160.3342"/>
</g>
<!-- Node8 -->
<g id="node9" class="node">
<title>Node8</title>
<g id="a_node9"><a xlink:title=" ">
<polygon fill="none" stroke="#bfbfbf" points="239.6323,-135.5 239.6323,-153.5 318.8208,-153.5 318.8208,-135.5 239.6323,-135.5"/>
<text text-anchor="middle" x="279.2266" y="-141.5" font-family="Helvetica,sans-Serif" font-size="10.00" fill="#000000">ViE/Types.hxx</text>
</a>
</g>
</g>
<!-- Node1&#45;&gt;Node8 -->
<g id="edge8" class="edge">
<title>Node1&#45;&gt;Node8</title>
<path fill="none" stroke="#191970" d="M279.2266,-195.3873C279.2266,-187.0174 279.2266,-174.3414 279.2266,-163.735"/>
<polygon fill="#191970" stroke="#191970" points="282.7267,-163.6984 279.2266,-153.6985 275.7267,-163.6985 282.7267,-163.6984"/>
</g>
<!-- Node9 -->
<g id="node10" class="node">
<title>Node9</title>
<g id="a_node10"><a xlink:title=" ">
<polygon fill="none" stroke="#bfbfbf" points="336.5288,-135.5 336.5288,-153.5 417.9243,-153.5 417.9243,-135.5 336.5288,-135.5"/>
<text text-anchor="middle" x="377.2266" y="-141.5" font-family="Helvetica,sans-Serif" font-size="10.00" fill="#000000">ViE/Frame.hxx</text>
</a>
</g>
</g>
<!-- Node1&#45;&gt;Node9 -->
<g id="edge9" class="edge">
<title>Node1&#45;&gt;Node9</title>
<path fill="none" stroke="#191970" d="M294.1107,-195.3873C309.9596,-185.6838 335.262,-170.1926 353.7906,-158.8486"/>
<polygon fill="#191970" stroke="#191970" points="355.8225,-161.7084 362.5235,-153.5019 352.1674,-155.7385 355.8225,-161.7084"/>
</g>
<!-- Node3 -->
<g id="node4" class="node">
<title>Node3</title>
<g id="a_node4"><a xlink:href="_common_data_types_8hxx.html" target="_top" xlink:title=" ">
<polygon fill="none" stroke="#000000" points="41.4805,-65.5 41.4805,-93.5 166.9727,-93.5 166.9727,-65.5 41.4805,-65.5"/>
<text text-anchor="start" x="49.4805" y="-81.5" font-family="Helvetica,sans-Serif" font-size="10.00" fill="#000000">MeetingClient/types</text>
<text text-anchor="middle" x="104.2266" y="-71.5" font-family="Helvetica,sans-Serif" font-size="10.00" fill="#000000">/CommonDataTypes.hxx</text>
</a>
</g>
</g>
<!-- Node2&#45;&gt;Node3 -->
<g id="edge3" class="edge">
<title>Node2&#45;&gt;Node3</title>
<path fill="none" stroke="#191970" d="M155.1225,-130.396C146.4345,-121.7079 135.1312,-110.4046 125.3842,-100.6576"/>
<polygon fill="#191970" stroke="#191970" points="127.8491,-98.1727 118.3031,-93.5765 122.8993,-103.1225 127.8491,-98.1727"/>
</g>
<!-- Node6 -->
<g id="node7" class="node">
<title>Node6</title>
<g id="a_node7"><a xlink:href="strong__identity_8hxx.html" target="_top" xlink:title=" ">
<polygon fill="none" stroke="#000000" points="184.5166,-65.5 184.5166,-93.5 285.9365,-93.5 285.9365,-65.5 184.5166,-65.5"/>
<text text-anchor="start" x="192.5166" y="-81.5" font-family="Helvetica,sans-Serif" font-size="10.00" fill="#000000">MeetingClient/utils</text>
<text text-anchor="middle" x="235.2266" y="-71.5" font-family="Helvetica,sans-Serif" font-size="10.00" fill="#000000">/strong_identity.hxx</text>
</a>
</g>
</g>
<!-- Node2&#45;&gt;Node6 -->
<g id="edge6" class="edge">
<title>Node2&#45;&gt;Node6</title>
<path fill="none" stroke="#191970" d="M183.5476,-130.396C192.3693,-121.7079 203.8465,-110.4046 213.7434,-100.6576"/>
<polygon fill="#191970" stroke="#191970" points="216.2645,-103.0871 220.9335,-93.5765 211.3527,-98.0997 216.2645,-103.0871"/>
</g>
<!-- Node4 -->
<g id="node5" class="node">
<title>Node4</title>
<g id="a_node5"><a xlink:title=" ">
<polygon fill="none" stroke="#bfbfbf" points="0,-5.5 0,-23.5 40.4531,-23.5 40.4531,-5.5 0,-5.5"/>
<text text-anchor="middle" x="20.2266" y="-11.5" font-family="Helvetica,sans-Serif" font-size="10.00" fill="#000000">string</text>
</a>
</g>
</g>
<!-- Node3&#45;&gt;Node4 -->
<g id="edge4" class="edge">
<title>Node3&#45;&gt;Node4</title>
<path fill="none" stroke="#191970" d="M85.9998,-65.396C72.4138,-54.883 53.8793,-40.5408 39.9476,-29.7603"/>
<polygon fill="#191970" stroke="#191970" points="42.004,-26.9261 31.9534,-23.5743 37.7201,-32.4622 42.004,-26.9261"/>
</g>
<!-- Node5 -->
<g id="node6" class="node">
<title>Node5</title>
<g id="a_node6"><a xlink:title=" ">
<polygon fill="none" stroke="#bfbfbf" points="58.4312,-5.5 58.4312,-23.5 160.022,-23.5 160.022,-5.5 58.4312,-5.5"/>
<text text-anchor="middle" x="109.2266" y="-11.5" font-family="Helvetica,sans-Serif" font-size="10.00" fill="#000000">CommonTypes.hxx</text>
</a>
</g>
</g>
<!-- Node3&#45;&gt;Node5 -->
<g id="edge5" class="edge">
<title>Node3&#45;&gt;Node5</title>
<path fill="none" stroke="#191970" d="M105.3115,-65.396C106.0286,-56.0732 106.9774,-43.739 107.7613,-33.5479"/>
<polygon fill="#191970" stroke="#191970" points="111.2512,-33.8133 108.5285,-23.5743 104.2718,-33.2764 111.2512,-33.8133"/>
</g>
<!-- Node7 -->
<g id="node8" class="node">
<title>Node7</title>
<g id="a_node8"><a xlink:title=" ">
<polygon fill="none" stroke="#bfbfbf" points="183.0273,-.5 183.0273,-28.5 287.4258,-28.5 287.4258,-.5 183.0273,-.5"/>
<text text-anchor="start" x="191.0273" y="-16.5" font-family="Helvetica,sans-Serif" font-size="10.00" fill="#000000">boost/serialization</text>
<text text-anchor="middle" x="235.2266" y="-6.5" font-family="Helvetica,sans-Serif" font-size="10.00" fill="#000000">/strong_typedef.hpp</text>
</a>
</g>
</g>
<!-- Node6&#45;&gt;Node7 -->
<g id="edge7" class="edge">
<title>Node6&#45;&gt;Node7</title>
<path fill="none" stroke="#191970" d="M235.2266,-65.396C235.2266,-57.6448 235.2266,-47.8122 235.2266,-38.8601"/>
<polygon fill="#191970" stroke="#191970" points="238.7267,-38.5765 235.2266,-28.5765 231.7267,-38.5765 238.7267,-38.5765"/>
</g>
</g>
</svg>
