<?xml version="1.0" encoding="UTF-8" standalone="no"?>
<!DOCTYPE svg PUBLIC "-//W3C//DTD SVG 1.1//EN"
 "http://www.w3.org/Graphics/SVG/1.1/DTD/svg11.dtd">
<!-- Generated by graphviz version 2.40.1 (20161225.0304)
 -->
<!-- Title: /Users/oskryp/Projects/freesee&#45;native&#45;client/libs/fcc_sdk/engine/meetingclient/src/headers/MeetingClient/VoIPController.hxx Pages: 1 -->
<!--zoomable 447 -->
<svg id="main" version="1.1" xmlns="http://www.w3.org/2000/svg" xmlns:xlink="http://www.w3.org/1999/xlink" xml:space="preserve" onload="init(evt)">
<style type="text/css"><![CDATA[
.edge:hover path { stroke: red; }
.edge:hover polygon { stroke: red; fill: red; }
]]></style>
<script type="text/javascript"><![CDATA[
var edges = document.getElementsByTagName('g');
if (edges && edges.length) {
  for (var i=0;i<edges.length;i++) {
    if (edges[i].id.substr(0,4)=='edge') {
      edges[i].setAttribute('class','edge');
    }
  }
}
]]></script>
        <defs>
                <circle id="rim" cx="0" cy="0" r="7"/>
                <circle id="rim2" cx="0" cy="0" r="3.5"/>
                <g id="zoomPlus">
                        <use xlink:href="#rim" fill="#404040">
                                <set attributeName="fill" to="#808080" begin="zoomplus.mouseover" end="zoomplus.mouseout"/>
                        </use>
                        <path d="M-4,0h8M0,-4v8" fill="none" stroke="white" stroke-width="1.5" pointer-events="none"/>
                </g>
                <g id="zoomMin">
                        <use xlink:href="#rim" fill="#404040">
                                <set attributeName="fill" to="#808080" begin="zoomminus.mouseover" end="zoomminus.mouseout"/>
                        </use>
                        <path d="M-4,0h8" fill="none" stroke="white" stroke-width="1.5" pointer-events="none"/>
                </g>
                <g id="dirArrow">
                        <path fill="none" stroke="white" stroke-width="1.5" d="M0,-3.0v7 M-2.5,-0.5L0,-3.0L2.5,-0.5"/>
                </g>
               <g id="resetDef">
                       <use xlink:href="#rim2" fill="#404040">
                               <set attributeName="fill" to="#808080" begin="reset.mouseover" end="reset.mouseout"/>
                       </use>
               </g>
        </defs>

<script type="text/javascript">
var viewWidth = 1014;
var viewHeight = 447;
var sectionId = 'dynsection-0';
</script>
<script xlink:href="svgpan.js"/>
<svg id="graph" class="graph">
<g id="viewport">
<title>/Users/oskryp/Projects/freesee&#45;native&#45;client/libs/fcc_sdk/engine/meetingclient/src/headers/MeetingClient/VoIPController.hxx</title>
<!-- Node0 -->
<g id="node1" class="node">
<title>Node0</title>
<g id="a_node1"><a xlink:title=" ">
<polygon fill="#bfbfbf" stroke="#000000" points="230.7271,-390.5 230.7271,-438.5 450.7261,-438.5 450.7261,-390.5 230.7271,-390.5"/>
<text text-anchor="start" x="238.7271" y="-426.5" font-family="Helvetica,sans-Serif" font-size="10.00" fill="#000000">/Users/oskryp/Projects</text>
<text text-anchor="start" x="238.7271" y="-416.5" font-family="Helvetica,sans-Serif" font-size="10.00" fill="#000000">/freesee&#45;native&#45;client</text>
<text text-anchor="start" x="238.7271" y="-406.5" font-family="Helvetica,sans-Serif" font-size="10.00" fill="#000000">/libs/fcc_sdk/engine/meetingclient</text>
<text text-anchor="middle" x="340.7266" y="-396.5" font-family="Helvetica,sans-Serif" font-size="10.00" fill="#000000">/src/headers/MeetingClient/VoIPController.hxx</text>
</a>
</g>
</g>
<!-- Node1 -->
<g id="node2" class="node">
<title>Node1</title>
<g id="a_node2"><a xlink:title=" ">
<polygon fill="none" stroke="#bfbfbf" points="193.7441,-265.5 193.7441,-283.5 303.709,-283.5 303.709,-265.5 193.7441,-265.5"/>
<text text-anchor="middle" x="248.7266" y="-271.5" font-family="Helvetica,sans-Serif" font-size="10.00" fill="#000000">boost/shared_ptr.hpp</text>
</a>
</g>
</g>
<!-- Node0&#45;&gt;Node1 -->
<g id="edge1" class="edge">
<title>Node0&#45;&gt;Node1</title>
<path fill="none" stroke="#191970" d="M230.4443,-398.7009C178.8016,-388.8182 125.2412,-374.1013 109.7266,-354 83.3474,-319.8222 140.128,-297.8546 188.8797,-285.8607"/>
<polygon fill="#191970" stroke="#191970" points="189.8795,-289.2211 198.8116,-283.5231 188.2757,-282.4073 189.8795,-289.2211"/>
</g>
<!-- Node2 -->
<g id="node3" class="node">
<title>Node2</title>
<g id="a_node3"><a xlink:title=" ">
<polygon fill="none" stroke="#bfbfbf" points="118.6479,-330.5 118.6479,-348.5 210.8052,-348.5 210.8052,-330.5 118.6479,-330.5"/>
<text text-anchor="middle" x="164.7266" y="-336.5" font-family="Helvetica,sans-Serif" font-size="10.00" fill="#000000">boost/atomic.hpp</text>
</a>
</g>
</g>
<!-- Node0&#45;&gt;Node2 -->
<g id="edge2" class="edge">
<title>Node0&#45;&gt;Node2</title>
<path fill="none" stroke="#191970" d="M284.0703,-390.3567C254.7479,-377.8614 220.0848,-363.0901 195.6925,-352.6957"/>
<polygon fill="#191970" stroke="#191970" points="196.8077,-349.3665 186.2361,-348.666 194.0635,-355.8061 196.8077,-349.3665"/>
</g>
<!-- Node3 -->
<g id="node4" class="node">
<title>Node3</title>
<g id="a_node4"><a xlink:title=" ">
<polygon fill="none" stroke="#bfbfbf" points="229.1997,-330.5 229.1997,-348.5 320.2534,-348.5 320.2534,-330.5 229.1997,-330.5"/>
<text text-anchor="middle" x="274.7266" y="-336.5" font-family="Helvetica,sans-Serif" font-size="10.00" fill="#000000">AudioEngine.hxx</text>
</a>
</g>
</g>
<!-- Node0&#45;&gt;Node3 -->
<g id="edge3" class="edge">
<title>Node0&#45;&gt;Node3</title>
<path fill="none" stroke="#191970" d="M319.4805,-390.3567C309.7063,-379.2497 298.3498,-366.3445 289.5224,-356.3135"/>
<polygon fill="#191970" stroke="#191970" points="292.0264,-353.8609 282.7926,-348.666 286.7714,-358.4854 292.0264,-353.8609"/>
</g>
<!-- Node4 -->
<g id="node5" class="node">
<title>Node4</title>
<g id="a_node5"><a xlink:href="_i_vo_i_p_notifications_delegate_8hxx.html" target="_top" xlink:title=" ">
<polygon fill="none" stroke="#000000" points="492.6333,-325.5 492.6333,-353.5 634.8198,-353.5 634.8198,-325.5 492.6333,-325.5"/>
<text text-anchor="start" x="500.6333" y="-341.5" font-family="Helvetica,sans-Serif" font-size="10.00" fill="#000000">Delegates/IVoIPNotifications</text>
<text text-anchor="middle" x="563.7266" y="-331.5" font-family="Helvetica,sans-Serif" font-size="10.00" fill="#000000">Delegate.hxx</text>
</a>
</g>
</g>
<!-- Node0&#45;&gt;Node4 -->
<g id="edge4" class="edge">
<title>Node0&#45;&gt;Node4</title>
<path fill="none" stroke="#191970" d="M412.2053,-390.4601C444.7111,-379.5276 482.4493,-366.8354 512.1317,-356.8525"/>
<polygon fill="#191970" stroke="#191970" points="513.5074,-360.0826 521.8699,-353.5773 511.2759,-353.4478 513.5074,-360.0826"/>
</g>
<!-- Node13 -->
<g id="node14" class="node">
<title>Node13</title>
<g id="a_node14"><a xlink:href="_common_data_types_8hxx.html" target="_top" xlink:title=" ">
<polygon fill="none" stroke="#000000" points="726.9805,-65.5 726.9805,-93.5 852.4727,-93.5 852.4727,-65.5 726.9805,-65.5"/>
<text text-anchor="start" x="734.9805" y="-81.5" font-family="Helvetica,sans-Serif" font-size="10.00" fill="#000000">MeetingClient/types</text>
<text text-anchor="middle" x="789.7266" y="-71.5" font-family="Helvetica,sans-Serif" font-size="10.00" fill="#000000">/CommonDataTypes.hxx</text>
</a>
</g>
</g>
<!-- Node0&#45;&gt;Node13 -->
<g id="edge24" class="edge">
<title>Node0&#45;&gt;Node13</title>
<path fill="none" stroke="#191970" d="M450.9108,-402.5131C639.8983,-380.4486 1005.7266,-330.5046 1005.7266,-274.5 1005.7266,-274.5 1005.7266,-274.5 1005.7266,-209.5 1005.7266,-141.0541 925.1224,-107.7201 862.3921,-92.1419"/>
<polygon fill="#191970" stroke="#191970" points="863.0309,-88.6963 852.4929,-89.7915 861.4138,-95.507 863.0309,-88.6963"/>
</g>
<!-- Node23 -->
<g id="node24" class="node">
<title>Node23</title>
<g id="a_node24"><a xlink:href="_meeting_controller_base_8hxx.html" target="_top" xlink:title=" ">
<polygon fill="none" stroke="#000000" points="338.6973,-330.5 338.6973,-348.5 474.7559,-348.5 474.7559,-330.5 338.6973,-330.5"/>
<text text-anchor="middle" x="406.7266" y="-336.5" font-family="Helvetica,sans-Serif" font-size="10.00" fill="#000000">MeetingControllerBase.hxx</text>
</a>
</g>
</g>
<!-- Node0&#45;&gt;Node23 -->
<g id="edge25" class="edge">
<title>Node0&#45;&gt;Node23</title>
<path fill="none" stroke="#191970" d="M361.9727,-390.3567C371.7468,-379.2497 383.1034,-366.3445 391.9307,-356.3135"/>
<polygon fill="#191970" stroke="#191970" points="394.6817,-358.4854 398.6605,-348.666 389.4267,-353.8609 394.6817,-358.4854"/>
</g>
<!-- Node5 -->
<g id="node6" class="node">
<title>Node5</title>
<g id="a_node6"><a xlink:href="_notifications_8hxx.html" target="_top" xlink:title=" ">
<polygon fill="none" stroke="#000000" points="411.2515,-260.5 411.2515,-288.5 536.2017,-288.5 536.2017,-260.5 411.2515,-260.5"/>
<text text-anchor="start" x="419.2515" y="-276.5" font-family="Helvetica,sans-Serif" font-size="10.00" fill="#000000">MeetingClient/Delegates</text>
<text text-anchor="middle" x="473.7266" y="-266.5" font-family="Helvetica,sans-Serif" font-size="10.00" fill="#000000">/Notifications.hxx</text>
</a>
</g>
</g>
<!-- Node4&#45;&gt;Node5 -->
<g id="edge5" class="edge">
<title>Node4&#45;&gt;Node5</title>
<path fill="none" stroke="#191970" d="M544.1979,-325.396C531.6965,-316.3672 515.2845,-304.5141 501.4443,-294.5184"/>
<polygon fill="#191970" stroke="#191970" points="503.3732,-291.5941 493.2171,-288.5765 499.2747,-297.2688 503.3732,-291.5941"/>
</g>
<!-- Node6 -->
<g id="node7" class="node">
<title>Node6</title>
<g id="a_node7"><a xlink:title=" ">
<polygon fill="none" stroke="#bfbfbf" points="864.0864,-195.5 864.0864,-223.5 977.3667,-223.5 977.3667,-195.5 864.0864,-195.5"/>
<text text-anchor="start" x="872.0864" y="-211.5" font-family="Helvetica,sans-Serif" font-size="10.00" fill="#000000">boost/date_time/posix</text>
<text text-anchor="middle" x="920.7266" y="-201.5" font-family="Helvetica,sans-Serif" font-size="10.00" fill="#000000">_time/posix_time.hpp</text>
</a>
</g>
</g>
<!-- Node5&#45;&gt;Node6 -->
<g id="edge6" class="edge">
<title>Node5&#45;&gt;Node6</title>
<path fill="none" stroke="#191970" d="M536.5161,-267.9159C610.3492,-259.7895 736.7641,-244.6778 854.1851,-224.1888"/>
<polygon fill="#191970" stroke="#191970" points="854.8243,-227.6302 864.0653,-222.4481 853.6097,-220.7363 854.8243,-227.6302"/>
</g>
<!-- Node7 -->
<g id="node8" class="node">
<title>Node7</title>
<g id="a_node8"><a xlink:title=" ">
<polygon fill="none" stroke="#bfbfbf" points="0,-200.5 0,-218.5 35.4531,-218.5 35.4531,-200.5 0,-200.5"/>
<text text-anchor="middle" x="17.7266" y="-206.5" font-family="Helvetica,sans-Serif" font-size="10.00" fill="#000000">map</text>
</a>
</g>
</g>
<!-- Node5&#45;&gt;Node7 -->
<g id="edge7" class="edge">
<title>Node5&#45;&gt;Node7</title>
<path fill="none" stroke="#191970" d="M411.2444,-268.5225C300.4303,-257.7201 77.8764,-235.0454 43.7266,-224 42.6939,-223.666 41.6557,-223.2892 40.6198,-222.8789"/>
<polygon fill="#191970" stroke="#191970" points="42.101,-219.7076 31.5716,-218.5317 39.0695,-226.0172 42.101,-219.7076"/>
</g>
<!-- Node8 -->
<g id="node9" class="node">
<title>Node8</title>
<g id="a_node9"><a xlink:title=" ">
<polygon fill="none" stroke="#bfbfbf" points="53.1108,-200.5 53.1108,-218.5 96.3423,-218.5 96.3423,-200.5 53.1108,-200.5"/>
<text text-anchor="middle" x="74.7266" y="-206.5" font-family="Helvetica,sans-Serif" font-size="10.00" fill="#000000">vector</text>
</a>
</g>
</g>
<!-- Node5&#45;&gt;Node8 -->
<g id="edge8" class="edge">
<title>Node5&#45;&gt;Node8</title>
<path fill="none" stroke="#191970" d="M410.9496,-268.3132C321.1218,-259.0508 160.5929,-240.8611 104.7266,-224 103.3074,-223.5717 101.8718,-223.0838 100.4372,-222.5527"/>
<polygon fill="#191970" stroke="#191970" points="101.7414,-219.3038 91.1706,-218.5904 98.9893,-225.7402 101.7414,-219.3038"/>
</g>
<!-- Node9 -->
<g id="node10" class="node">
<title>Node9</title>
<g id="a_node10"><a xlink:title=" ">
<polygon fill="none" stroke="#bfbfbf" points="114.0396,-200.5 114.0396,-218.5 203.4136,-218.5 203.4136,-200.5 114.0396,-200.5"/>
<text text-anchor="middle" x="158.7266" y="-206.5" font-family="Helvetica,sans-Serif" font-size="10.00" fill="#000000">FSSnapshot.hxx</text>
</a>
</g>
</g>
<!-- Node5&#45;&gt;Node9 -->
<g id="edge9" class="edge">
<title>Node5&#45;&gt;Node9</title>
<path fill="none" stroke="#191970" d="M411.2418,-263.8463C357.9818,-254.4338 279.5146,-239.7815 211.7266,-224 207.9158,-223.1128 203.9656,-222.1377 200.0185,-221.1256"/>
<polygon fill="#191970" stroke="#191970" points="200.8565,-217.727 190.2947,-218.5627 199.0724,-224.4959 200.8565,-217.727"/>
</g>
<!-- Node10 -->
<g id="node11" class="node">
<title>Node10</title>
<g id="a_node11"><a xlink:href="macros_8hxx.html" target="_top" xlink:title=" ">
<polygon fill="none" stroke="#000000" points="221.2046,-200.5 221.2046,-218.5 352.2485,-218.5 352.2485,-200.5 221.2046,-200.5"/>
<text text-anchor="middle" x="286.7266" y="-206.5" font-family="Helvetica,sans-Serif" font-size="10.00" fill="#000000">MeetingClient/macros.hxx</text>
</a>
</g>
</g>
<!-- Node5&#45;&gt;Node10 -->
<g id="edge10" class="edge">
<title>Node5&#45;&gt;Node10</title>
<path fill="none" stroke="#191970" d="M433.1503,-260.396C400.1947,-248.9408 354.1596,-232.9393 322.5528,-221.953"/>
<polygon fill="#191970" stroke="#191970" points="323.4275,-218.5516 312.8326,-218.5743 321.1291,-225.1636 323.4275,-218.5516"/>
</g>
<!-- Node11 -->
<g id="node12" class="node">
<title>Node11</title>
<g id="a_node12"><a xlink:href="_f_s_base_8hxx.html" target="_top" xlink:title=" ">
<polygon fill="none" stroke="#000000" points="370.0347,-195.5 370.0347,-223.5 489.4185,-223.5 489.4185,-195.5 370.0347,-195.5"/>
<text text-anchor="start" x="378.0347" y="-211.5" font-family="Helvetica,sans-Serif" font-size="10.00" fill="#000000">MeetingClient/transport</text>
<text text-anchor="middle" x="429.7266" y="-201.5" font-family="Helvetica,sans-Serif" font-size="10.00" fill="#000000">/FSBase.hxx</text>
</a>
</g>
</g>
<!-- Node5&#45;&gt;Node11 -->
<g id="edge11" class="edge">
<title>Node5&#45;&gt;Node11</title>
<path fill="none" stroke="#191970" d="M464.1792,-260.396C458.5864,-252.1338 451.3925,-241.5065 445.0262,-232.1017"/>
<polygon fill="#191970" stroke="#191970" points="447.7594,-229.8956 439.2553,-223.5765 441.9626,-233.8196 447.7594,-229.8956"/>
</g>
<!-- Node12 -->
<g id="node13" class="node">
<title>Node12</title>
<g id="a_node13"><a xlink:href="_meeting_types_8hxx.html" target="_top" xlink:title=" ">
<polygon fill="none" stroke="#000000" points="564.8154,-130.5 564.8154,-158.5 668.6377,-158.5 668.6377,-130.5 564.8154,-130.5"/>
<text text-anchor="start" x="572.8154" y="-146.5" font-family="Helvetica,sans-Serif" font-size="10.00" fill="#000000">MeetingClient/types</text>
<text text-anchor="middle" x="616.7266" y="-136.5" font-family="Helvetica,sans-Serif" font-size="10.00" fill="#000000">/MeetingTypes.hxx</text>
</a>
</g>
</g>
<!-- Node5&#45;&gt;Node12 -->
<g id="edge12" class="edge">
<title>Node5&#45;&gt;Node12</title>
<path fill="none" stroke="#191970" d="M482.7389,-260.3857C493.9814,-243.4996 514.4553,-215.0064 536.7266,-195 549.9818,-183.0927 566.3691,-172.2085 580.8535,-163.6187"/>
<polygon fill="#191970" stroke="#191970" points="582.6721,-166.6102 589.5812,-158.5781 579.1712,-160.5485 582.6721,-166.6102"/>
</g>
<!-- Node18 -->
<g id="node19" class="node">
<title>Node18</title>
<g id="a_node19"><a xlink:href="_conference_attribute_definitions_8hxx.html" target="_top" xlink:title=" ">
<polygon fill="none" stroke="#000000" points="545.9165,-195.5 545.9165,-223.5 677.5366,-223.5 677.5366,-195.5 545.9165,-195.5"/>
<text text-anchor="start" x="553.9165" y="-211.5" font-family="Helvetica,sans-Serif" font-size="10.00" fill="#000000">MeetingClient/Conference</text>
<text text-anchor="middle" x="611.7266" y="-201.5" font-family="Helvetica,sans-Serif" font-size="10.00" fill="#000000">AttributeDefinitions.hxx</text>
</a>
</g>
</g>
<!-- Node5&#45;&gt;Node18 -->
<g id="edge18" class="edge">
<title>Node5&#45;&gt;Node18</title>
<path fill="none" stroke="#191970" d="M503.6705,-260.396C523.9243,-250.8561 550.8725,-238.1632 572.79,-227.8397"/>
<polygon fill="#191970" stroke="#191970" points="574.2858,-231.004 581.8411,-223.5765 571.3029,-224.6713 574.2858,-231.004"/>
</g>
<!-- Node19 -->
<g id="node20" class="node">
<title>Node19</title>
<g id="a_node20"><a xlink:href="_meeting_session_parameters_8hxx.html" target="_top" xlink:title=" ">
<polygon fill="none" stroke="#000000" points="695.1899,-195.5 695.1899,-223.5 846.2632,-223.5 846.2632,-195.5 695.1899,-195.5"/>
<text text-anchor="start" x="703.1899" y="-211.5" font-family="Helvetica,sans-Serif" font-size="10.00" fill="#000000">MeetingClient/MeetingSession</text>
<text text-anchor="middle" x="770.7266" y="-201.5" font-family="Helvetica,sans-Serif" font-size="10.00" fill="#000000">Parameters.hxx</text>
</a>
</g>
</g>
<!-- Node5&#45;&gt;Node19 -->
<g id="edge19" class="edge">
<title>Node5&#45;&gt;Node19</title>
<path fill="none" stroke="#191970" d="M536.3497,-260.7946C583.1601,-250.5499 647.3162,-236.509 696.6722,-225.7072"/>
<polygon fill="#191970" stroke="#191970" points="697.6314,-229.0802 706.6519,-223.5231 696.1348,-222.242 697.6314,-229.0802"/>
</g>
<!-- Node12&#45;&gt;Node13 -->
<g id="edge13" class="edge">
<title>Node12&#45;&gt;Node13</title>
<path fill="none" stroke="#191970" d="M654.265,-130.396C680.2224,-120.6432 714.9508,-107.5949 742.7451,-97.152"/>
<polygon fill="#191970" stroke="#191970" points="744.1314,-100.3701 752.2614,-93.5765 741.6693,-93.8174 744.1314,-100.3701"/>
</g>
<!-- Node16 -->
<g id="node17" class="node">
<title>Node16</title>
<g id="a_node17"><a xlink:href="strong__identity_8hxx.html" target="_top" xlink:title=" ">
<polygon fill="none" stroke="#000000" points="566.0166,-65.5 566.0166,-93.5 667.4365,-93.5 667.4365,-65.5 566.0166,-65.5"/>
<text text-anchor="start" x="574.0166" y="-81.5" font-family="Helvetica,sans-Serif" font-size="10.00" fill="#000000">MeetingClient/utils</text>
<text text-anchor="middle" x="616.7266" y="-71.5" font-family="Helvetica,sans-Serif" font-size="10.00" fill="#000000">/strong_identity.hxx</text>
</a>
</g>
</g>
<!-- Node12&#45;&gt;Node16 -->
<g id="edge16" class="edge">
<title>Node12&#45;&gt;Node16</title>
<path fill="none" stroke="#191970" d="M616.7266,-130.396C616.7266,-122.6448 616.7266,-112.8122 616.7266,-103.8601"/>
<polygon fill="#191970" stroke="#191970" points="620.2267,-103.5765 616.7266,-93.5765 613.2267,-103.5765 620.2267,-103.5765"/>
</g>
<!-- Node14 -->
<g id="node15" class="node">
<title>Node14</title>
<g id="a_node15"><a xlink:title=" ">
<polygon fill="none" stroke="#bfbfbf" points="811.5,-5.5 811.5,-23.5 851.9531,-23.5 851.9531,-5.5 811.5,-5.5"/>
<text text-anchor="middle" x="831.7266" y="-11.5" font-family="Helvetica,sans-Serif" font-size="10.00" fill="#000000">string</text>
</a>
</g>
</g>
<!-- Node13&#45;&gt;Node14 -->
<g id="edge14" class="edge">
<title>Node13&#45;&gt;Node14</title>
<path fill="none" stroke="#191970" d="M798.8399,-65.396C805.1202,-55.6764 813.5154,-42.6839 820.2516,-32.2589"/>
<polygon fill="#191970" stroke="#191970" points="823.3757,-33.873 825.8632,-23.5743 817.4963,-30.074 823.3757,-33.873"/>
</g>
<!-- Node15 -->
<g id="node16" class="node">
<title>Node15</title>
<g id="a_node16"><a xlink:title=" ">
<polygon fill="none" stroke="#bfbfbf" points="691.9312,-5.5 691.9312,-23.5 793.522,-23.5 793.522,-5.5 691.9312,-5.5"/>
<text text-anchor="middle" x="742.7266" y="-11.5" font-family="Helvetica,sans-Serif" font-size="10.00" fill="#000000">CommonTypes.hxx</text>
</a>
</g>
</g>
<!-- Node13&#45;&gt;Node15 -->
<g id="edge15" class="edge">
<title>Node13&#45;&gt;Node15</title>
<path fill="none" stroke="#191970" d="M779.5283,-65.396C772.4286,-55.5773 762.9137,-42.4184 755.3374,-31.9406"/>
<polygon fill="#191970" stroke="#191970" points="757.9837,-29.627 749.288,-23.5743 752.3112,-33.7287 757.9837,-29.627"/>
</g>
<!-- Node17 -->
<g id="node18" class="node">
<title>Node17</title>
<g id="a_node18"><a xlink:title=" ">
<polygon fill="none" stroke="#bfbfbf" points="564.5273,-.5 564.5273,-28.5 668.9258,-28.5 668.9258,-.5 564.5273,-.5"/>
<text text-anchor="start" x="572.5273" y="-16.5" font-family="Helvetica,sans-Serif" font-size="10.00" fill="#000000">boost/serialization</text>
<text text-anchor="middle" x="616.7266" y="-6.5" font-family="Helvetica,sans-Serif" font-size="10.00" fill="#000000">/strong_typedef.hpp</text>
</a>
</g>
</g>
<!-- Node16&#45;&gt;Node17 -->
<g id="edge17" class="edge">
<title>Node16&#45;&gt;Node17</title>
<path fill="none" stroke="#191970" d="M616.7266,-65.396C616.7266,-57.6448 616.7266,-47.8122 616.7266,-38.8601"/>
<polygon fill="#191970" stroke="#191970" points="620.2267,-38.5765 616.7266,-28.5765 613.2267,-38.5765 620.2267,-38.5765"/>
</g>
<!-- Node19&#45;&gt;Node12 -->
<g id="edge20" class="edge">
<title>Node19&#45;&gt;Node12</title>
<path fill="none" stroke="#191970" d="M737.3109,-195.396C714.507,-185.7709 684.0986,-172.9362 659.5237,-162.5637"/>
<polygon fill="#191970" stroke="#191970" points="660.6511,-159.2406 650.0771,-158.5765 657.929,-165.6897 660.6511,-159.2406"/>
</g>
<!-- Node20 -->
<g id="node21" class="node">
<title>Node20</title>
<g id="a_node21"><a xlink:title=" ">
<polygon fill="none" stroke="#bfbfbf" points="785.1626,-135.5 785.1626,-153.5 842.2905,-153.5 842.2905,-135.5 785.1626,-135.5"/>
<text text-anchor="middle" x="813.7266" y="-141.5" font-family="Helvetica,sans-Serif" font-size="10.00" fill="#000000">algorithm</text>
</a>
</g>
</g>
<!-- Node19&#45;&gt;Node20 -->
<g id="edge21" class="edge">
<title>Node19&#45;&gt;Node20</title>
<path fill="none" stroke="#191970" d="M780.0569,-195.396C786.5524,-185.5773 795.2575,-172.4184 802.189,-161.9406"/>
<polygon fill="#191970" stroke="#191970" points="805.1252,-163.8456 807.7236,-153.5743 799.2871,-159.9834 805.1252,-163.8456"/>
</g>
<!-- Node21 -->
<g id="node22" class="node">
<title>Node21</title>
<g id="a_node22"><a xlink:title=" ">
<polygon fill="none" stroke="#bfbfbf" points="859.8228,-135.5 859.8228,-153.5 933.6304,-153.5 933.6304,-135.5 859.8228,-135.5"/>
<text text-anchor="middle" x="896.7266" y="-141.5" font-family="Helvetica,sans-Serif" font-size="10.00" fill="#000000">Printable.hxx</text>
</a>
</g>
</g>
<!-- Node19&#45;&gt;Node21 -->
<g id="edge22" class="edge">
<title>Node19&#45;&gt;Node21</title>
<path fill="none" stroke="#191970" d="M798.0667,-195.396C819.4069,-184.3871 848.8867,-169.1793 870.0546,-158.2594"/>
<polygon fill="#191970" stroke="#191970" points="871.8539,-161.2695 879.1364,-153.5743 868.6446,-155.0485 871.8539,-161.2695"/>
</g>
<!-- Node22 -->
<g id="node23" class="node">
<title>Node22</title>
<g id="a_node23"><a xlink:title=" ">
<polygon fill="none" stroke="#bfbfbf" points="686.207,-135.5 686.207,-153.5 767.2461,-153.5 767.2461,-135.5 686.207,-135.5"/>
<text text-anchor="middle" x="726.7266" y="-141.5" font-family="Helvetica,sans-Serif" font-size="10.00" fill="#000000">VoIPClient.hxx</text>
</a>
</g>
</g>
<!-- Node19&#45;&gt;Node22 -->
<g id="edge23" class="edge">
<title>Node19&#45;&gt;Node22</title>
<path fill="none" stroke="#191970" d="M761.1792,-195.396C754.5327,-185.5773 745.6252,-172.4184 738.5325,-161.9406"/>
<polygon fill="#191970" stroke="#191970" points="741.3733,-159.8934 732.8692,-153.5743 735.5765,-163.8174 741.3733,-159.8934"/>
</g>
<!-- Node23&#45;&gt;Node1 -->
<g id="edge26" class="edge">
<title>Node23&#45;&gt;Node1</title>
<path fill="none" stroke="#191970" d="M384.7573,-330.462C357.5954,-319.2878 311.1738,-300.1903 280.2242,-287.4579"/>
<polygon fill="#191970" stroke="#191970" points="281.3429,-284.1336 270.7633,-283.5658 278.6797,-290.6072 281.3429,-284.1336"/>
</g>
</g>
</svg>
        <g id="navigator" transform="translate(0 0)" fill="#404254">
                <rect fill="#f2f5e9" fill-opacity="0.5" stroke="#606060" stroke-width=".5" x="0" y="0" width="60" height="60"/>
                <use id="zoomplus" xlink:href="#zoomPlus" x="17" y="9" onmousedown="handleZoom(evt,'in')"/>
                <use id="zoomminus" xlink:href="#zoomMin" x="42" y="9" onmousedown="handleZoom(evt,'out')"/>
                <use id="reset" xlink:href="#resetDef" x="30" y="36" onmousedown="handleReset()"/>
                <g id="arrowUp" xlink:href="#dirArrow" transform="translate(30 24)" onmousedown="handlePan(0,-1)">
                  <use xlink:href="#rim" fill="#404040">
                        <set attributeName="fill" to="#808080" begin="arrowUp.mouseover" end="arrowUp.mouseout"/>
                  </use>
                  <path fill="none" stroke="white" stroke-width="1.5" d="M0,-3.0v7 M-2.5,-0.5L0,-3.0L2.5,-0.5"/>
                </g>
                <g id="arrowRight" xlink:href="#dirArrow" transform="rotate(90) translate(36 -43)" onmousedown="handlePan(1,0)">
                  <use xlink:href="#rim" fill="#404040">
                        <set attributeName="fill" to="#808080" begin="arrowRight.mouseover" end="arrowRight.mouseout"/>
                  </use>
                  <path fill="none" stroke="white" stroke-width="1.5" d="M0,-3.0v7 M-2.5,-0.5L0,-3.0L2.5,-0.5"/>
                </g>
                <g id="arrowDown" xlink:href="#dirArrow" transform="rotate(180) translate(-30 -48)" onmousedown="handlePan(0,1)">
                  <use xlink:href="#rim" fill="#404040">
                        <set attributeName="fill" to="#808080" begin="arrowDown.mouseover" end="arrowDown.mouseout"/>
                  </use>
                  <path fill="none" stroke="white" stroke-width="1.5" d="M0,-3.0v7 M-2.5,-0.5L0,-3.0L2.5,-0.5"/>
                </g>
                <g id="arrowLeft" xlink:href="#dirArrow" transform="rotate(270) translate(-36 17)" onmousedown="handlePan(-1,0)">
                  <use xlink:href="#rim" fill="#404040">
                        <set attributeName="fill" to="#808080" begin="arrowLeft.mouseover" end="arrowLeft.mouseout"/>
                  </use>
                  <path fill="none" stroke="white" stroke-width="1.5" d="M0,-3.0v7 M-2.5,-0.5L0,-3.0L2.5,-0.5"/>
                </g>
        </g>
        <svg viewBox="0 0 15 15" width="100%" height="30px" preserveAspectRatio="xMaxYMin meet">
         <g id="arrow_out" transform="scale(0.3 0.3)">
          <a xlink:href="_vo_i_p_controller_8hxx__incl_org.svg" target="_base">
           <rect id="button" ry="5" rx="5" y="6" x="6" height="38" width="38"
                fill="#f2f5e9" fill-opacity="0.5" stroke="#606060" stroke-width="1.0"/>
           <path id="arrow"
             d="M 11.500037,31.436501 C 11.940474,20.09759 22.043105,11.32322 32.158766,21.979434 L 37.068811,17.246167 C 37.068811,17.246167 37.088388,32 37.088388,32 L 22.160133,31.978069 C 22.160133,31.978069 26.997745,27.140456 26.997745,27.140456 C 18.528582,18.264221 13.291696,25.230495 11.500037,31.436501 z"
             style="fill:#404040;"/>
          </a>
         </g>
        </svg>
</svg>
