<?xml version="1.0" encoding="UTF-8" standalone="no"?>
<!DOCTYPE svg PUBLIC "-//W3C//DTD SVG 1.1//EN"
 "http://www.w3.org/Graphics/SVG/1.1/DTD/svg11.dtd">
<!-- Generated by graphviz version 2.40.1 (20161225.0304)
 -->
<!-- Title: /Users/oskryp/Projects/freesee&#45;native&#45;client/libs/fcc_sdk/engine/meetingclient/src/VoIPClientProxy.cxx Pages: 1 -->
<svg width="196pt" height="222pt"
 viewBox="0.00 0.00 196.40 222.00" xmlns="http://www.w3.org/2000/svg" xmlns:xlink="http://www.w3.org/1999/xlink">
<g id="graph0" class="graph" transform="scale(1 1) rotate(0) translate(4 218)">
<title>/Users/oskryp/Projects/freesee&#45;native&#45;client/libs/fcc_sdk/engine/meetingclient/src/VoIPClientProxy.cxx</title>
<!-- Node0 -->
<g id="node1" class="node">
<title>Node0</title>
<g id="a_node1"><a xlink:title=" ">
<polygon fill="#bfbfbf" stroke="#000000" points="21.4468,-165.5 21.4468,-213.5 186.4165,-213.5 186.4165,-165.5 21.4468,-165.5"/>
<text text-anchor="start" x="29.4468" y="-201.5" font-family="Helvetica,sans-Serif" font-size="10.00" fill="#000000">/Users/oskryp/Projects</text>
<text text-anchor="start" x="29.4468" y="-191.5" font-family="Helvetica,sans-Serif" font-size="10.00" fill="#000000">/freesee&#45;native&#45;client</text>
<text text-anchor="start" x="29.4468" y="-181.5" font-family="Helvetica,sans-Serif" font-size="10.00" fill="#000000">/libs/fcc_sdk/engine/meetingclient</text>
<text text-anchor="middle" x="103.9316" y="-171.5" font-family="Helvetica,sans-Serif" font-size="10.00" fill="#000000">/src/VoIPClientProxy.cxx</text>
</a>
</g>
</g>
<!-- Node1 -->
<g id="node2" class="node">
<title>Node1</title>
<g id="a_node2"><a xlink:href="_vo_i_p_client_proxy_8hxx.html" target="_top" xlink:title=" ">
<polygon fill="none" stroke="#000000" points="0,-110.5 0,-128.5 105.8633,-128.5 105.8633,-110.5 0,-110.5"/>
<text text-anchor="middle" x="52.9316" y="-116.5" font-family="Helvetica,sans-Serif" font-size="10.00" fill="#000000">VoIPClientProxy.hxx</text>
</a>
</g>
</g>
<!-- Node0&#45;&gt;Node1 -->
<g id="edge1" class="edge">
<title>Node0&#45;&gt;Node1</title>
<path fill="none" stroke="#191970" d="M86.3803,-165.41C79.5371,-156.0174 71.8454,-145.46 65.5647,-136.8395"/>
<polygon fill="#191970" stroke="#191970" points="68.3427,-134.7086 59.6252,-128.6872 62.685,-138.8306 68.3427,-134.7086"/>
</g>
<!-- Node4 -->
<g id="node5" class="node">
<title>Node4</title>
<g id="a_node5"><a xlink:title=" ">
<polygon fill="none" stroke="#bfbfbf" points="123.4663,-110.5 123.4663,-128.5 188.397,-128.5 188.397,-110.5 123.4663,-110.5"/>
<text text-anchor="middle" x="155.9316" y="-116.5" font-family="Helvetica,sans-Serif" font-size="10.00" fill="#000000">Logger.hxx</text>
</a>
</g>
</g>
<!-- Node0&#45;&gt;Node4 -->
<g id="edge5" class="edge">
<title>Node0&#45;&gt;Node4</title>
<path fill="none" stroke="#191970" d="M121.8271,-165.41C128.8045,-156.0174 136.6471,-145.46 143.0508,-136.8395"/>
<polygon fill="#191970" stroke="#191970" points="145.9532,-138.8018 149.1068,-128.6872 140.3339,-134.6276 145.9532,-138.8018"/>
</g>
<!-- Node2 -->
<g id="node3" class="node">
<title>Node2</title>
<g id="a_node3"><a xlink:title=" ">
<polygon fill="none" stroke="#bfbfbf" points="12.4121,-.5 12.4121,-18.5 93.4512,-18.5 93.4512,-.5 12.4121,-.5"/>
<text text-anchor="middle" x="52.9316" y="-6.5" font-family="Helvetica,sans-Serif" font-size="10.00" fill="#000000">VoIPClient.hxx</text>
</a>
</g>
</g>
<!-- Node1&#45;&gt;Node2 -->
<g id="edge2" class="edge">
<title>Node1&#45;&gt;Node2</title>
<path fill="none" stroke="#191970" d="M46.0677,-110.3302C39.9457,-101.5359 31.4268,-87.6192 27.9316,-74 23.7517,-57.7124 31.6226,-39.9469 39.6126,-27.1924"/>
<polygon fill="#191970" stroke="#191970" points="42.5366,-29.1168 45.281,-18.8835 36.7541,-25.1718 42.5366,-29.1168"/>
</g>
<!-- Node3 -->
<g id="node4" class="node">
<title>Node3</title>
<g id="a_node4"><a xlink:href="_vo_i_p_client_delegate_8hxx.html" target="_top" xlink:title=" ">
<polygon fill="none" stroke="#000000" points="37.3975,-55.5 37.3975,-73.5 158.4658,-73.5 158.4658,-55.5 37.3975,-55.5"/>
<text text-anchor="middle" x="97.9316" y="-61.5" font-family="Helvetica,sans-Serif" font-size="10.00" fill="#000000">VoIPClientDelegate.hxx</text>
</a>
</g>
</g>
<!-- Node1&#45;&gt;Node3 -->
<g id="edge3" class="edge">
<title>Node1&#45;&gt;Node3</title>
<path fill="none" stroke="#191970" d="M60.3625,-110.4179C66.7079,-102.6624 76.0126,-91.29 83.7742,-81.8035"/>
<polygon fill="#191970" stroke="#191970" points="86.7158,-83.7354 90.3394,-73.7795 81.2981,-79.3027 86.7158,-83.7354"/>
</g>
<!-- Node3&#45;&gt;Node2 -->
<g id="edge4" class="edge">
<title>Node3&#45;&gt;Node2</title>
<path fill="none" stroke="#191970" d="M90.5008,-55.4179C84.1554,-47.6624 74.8507,-36.29 67.089,-26.8035"/>
<polygon fill="#191970" stroke="#191970" points="69.5652,-24.3027 60.5239,-18.7795 64.1475,-28.7354 69.5652,-24.3027"/>
</g>
</g>
</svg>
