<?xml version="1.0" encoding="UTF-8" standalone="no"?>
<!DOCTYPE svg PUBLIC "-//W3C//DTD SVG 1.1//EN"
 "http://www.w3.org/Graphics/SVG/1.1/DTD/svg11.dtd">
<!-- Generated by graphviz version 2.40.1 (20161225.0304)
 -->
<!-- Title: /Users/oskryp/Projects/freesee&#45;native&#45;client/libs/fcc_sdk/engine/meetingclient/src/headers/MeetingClient/VoIPClientProxy.hxx Pages: 1 -->
<svg width="236pt" height="167pt"
 viewBox="0.00 0.00 235.59 167.00" xmlns="http://www.w3.org/2000/svg" xmlns:xlink="http://www.w3.org/1999/xlink">
<g id="graph0" class="graph" transform="scale(1 1) rotate(0) translate(4 163)">
<title>/Users/oskryp/Projects/freesee&#45;native&#45;client/libs/fcc_sdk/engine/meetingclient/src/headers/MeetingClient/VoIPClientProxy.hxx</title>
<!-- Node0 -->
<g id="node1" class="node">
<title>Node0</title>
<g id="a_node1"><a xlink:title=" ">
<polygon fill="#bfbfbf" stroke="#000000" points="0,-110.5 0,-158.5 227.5869,-158.5 227.5869,-110.5 0,-110.5"/>
<text text-anchor="start" x="8" y="-146.5" font-family="Helvetica,sans-Serif" font-size="10.00" fill="#000000">/Users/oskryp/Projects</text>
<text text-anchor="start" x="8" y="-136.5" font-family="Helvetica,sans-Serif" font-size="10.00" fill="#000000">/freesee&#45;native&#45;client</text>
<text text-anchor="start" x="8" y="-126.5" font-family="Helvetica,sans-Serif" font-size="10.00" fill="#000000">/libs/fcc_sdk/engine/meetingclient</text>
<text text-anchor="middle" x="113.7935" y="-116.5" font-family="Helvetica,sans-Serif" font-size="10.00" fill="#000000">/src/headers/MeetingClient/VoIPClientProxy.hxx</text>
</a>
</g>
</g>
<!-- Node1 -->
<g id="node2" class="node">
<title>Node1</title>
<g id="a_node2"><a xlink:title=" ">
<polygon fill="none" stroke="#bfbfbf" points="73.2739,-.5 73.2739,-18.5 154.313,-18.5 154.313,-.5 73.2739,-.5"/>
<text text-anchor="middle" x="113.7935" y="-6.5" font-family="Helvetica,sans-Serif" font-size="10.00" fill="#000000">VoIPClient.hxx</text>
</a>
</g>
</g>
<!-- Node0&#45;&gt;Node1 -->
<g id="edge1" class="edge">
<title>Node0&#45;&gt;Node1</title>
<path fill="none" stroke="#191970" d="M98.8881,-110.3378C91.0497,-94.6808 83.9741,-73.7792 88.7935,-55 91.3056,-45.2112 96.413,-35.2687 101.3604,-27.185"/>
<polygon fill="#191970" stroke="#191970" points="104.3851,-28.9546 106.9295,-18.6698 98.5268,-25.1231 104.3851,-28.9546"/>
</g>
<!-- Node2 -->
<g id="node3" class="node">
<title>Node2</title>
<g id="a_node3"><a xlink:href="_vo_i_p_client_delegate_8hxx.html" target="_top" xlink:title=" ">
<polygon fill="none" stroke="#000000" points="98.2593,-55.5 98.2593,-73.5 219.3276,-73.5 219.3276,-55.5 98.2593,-55.5"/>
<text text-anchor="middle" x="158.7935" y="-61.5" font-family="Helvetica,sans-Serif" font-size="10.00" fill="#000000">VoIPClientDelegate.hxx</text>
</a>
</g>
</g>
<!-- Node0&#45;&gt;Node2 -->
<g id="edge2" class="edge">
<title>Node0&#45;&gt;Node2</title>
<path fill="none" stroke="#191970" d="M129.2799,-110.41C135.2545,-101.1162 141.9621,-90.6821 147.4712,-82.1124"/>
<polygon fill="#191970" stroke="#191970" points="150.4239,-83.9917 152.8874,-73.6872 144.5356,-80.2064 150.4239,-83.9917"/>
</g>
<!-- Node2&#45;&gt;Node1 -->
<g id="edge3" class="edge">
<title>Node2&#45;&gt;Node1</title>
<path fill="none" stroke="#191970" d="M151.3626,-55.4179C145.0172,-47.6624 135.7125,-36.29 127.9509,-26.8035"/>
<polygon fill="#191970" stroke="#191970" points="130.427,-24.3027 121.3857,-18.7795 125.0093,-28.7354 130.427,-24.3027"/>
</g>
</g>
</svg>
