<?xml version="1.0" encoding="UTF-8" standalone="no"?>
<!DOCTYPE svg PUBLIC "-//W3C//DTD SVG 1.1//EN"
 "http://www.w3.org/Graphics/SVG/1.1/DTD/svg11.dtd">
<!-- Generated by graphviz version 2.40.1 (20161225.0304)
 -->
<!-- Title: /Users/oskryp/Projects/freesee&#45;native&#45;client/libs/fcc_sdk/engine/meetingclient/src/webservices/WebServiceAPI.cxx Pages: 1 -->
<!--zoomable 437 -->
<svg id="main" version="1.1" xmlns="http://www.w3.org/2000/svg" xmlns:xlink="http://www.w3.org/1999/xlink" xml:space="preserve" onload="init(evt)">
<style type="text/css"><![CDATA[
.edge:hover path { stroke: red; }
.edge:hover polygon { stroke: red; fill: red; }
]]></style>
<script type="text/javascript"><![CDATA[
var edges = document.getElementsByTagName('g');
if (edges && edges.length) {
  for (var i=0;i<edges.length;i++) {
    if (edges[i].id.substr(0,4)=='edge') {
      edges[i].setAttribute('class','edge');
    }
  }
}
]]></script>
        <defs>
                <circle id="rim" cx="0" cy="0" r="7"/>
                <circle id="rim2" cx="0" cy="0" r="3.5"/>
                <g id="zoomPlus">
                        <use xlink:href="#rim" fill="#404040">
                                <set attributeName="fill" to="#808080" begin="zoomplus.mouseover" end="zoomplus.mouseout"/>
                        </use>
                        <path d="M-4,0h8M0,-4v8" fill="none" stroke="white" stroke-width="1.5" pointer-events="none"/>
                </g>
                <g id="zoomMin">
                        <use xlink:href="#rim" fill="#404040">
                                <set attributeName="fill" to="#808080" begin="zoomminus.mouseover" end="zoomminus.mouseout"/>
                        </use>
                        <path d="M-4,0h8" fill="none" stroke="white" stroke-width="1.5" pointer-events="none"/>
                </g>
                <g id="dirArrow">
                        <path fill="none" stroke="white" stroke-width="1.5" d="M0,-3.0v7 M-2.5,-0.5L0,-3.0L2.5,-0.5"/>
                </g>
               <g id="resetDef">
                       <use xlink:href="#rim2" fill="#404040">
                               <set attributeName="fill" to="#808080" begin="reset.mouseover" end="reset.mouseout"/>
                       </use>
               </g>
        </defs>

<script type="text/javascript">
var viewWidth = 1755;
var viewHeight = 437;
var sectionId = 'dynsection-0';
</script>
<script xlink:href="svgpan.js"/>
<svg id="graph" class="graph">
<g id="viewport">
<title>/Users/oskryp/Projects/freesee&#45;native&#45;client/libs/fcc_sdk/engine/meetingclient/src/webservices/WebServiceAPI.cxx</title>
<!-- Node0 -->
<g id="node1" class="node">
<title>Node0</title>
<g id="a_node1"><a xlink:title=" ">
<polygon fill="#bfbfbf" stroke="#000000" points="850.6963,-380.5 850.6963,-428.5 1031.0078,-428.5 1031.0078,-380.5 850.6963,-380.5"/>
<text text-anchor="start" x="858.6963" y="-416.5" font-family="Helvetica,sans-Serif" font-size="10.00" fill="#000000">/Users/oskryp/Projects</text>
<text text-anchor="start" x="858.6963" y="-406.5" font-family="Helvetica,sans-Serif" font-size="10.00" fill="#000000">/freesee&#45;native&#45;client</text>
<text text-anchor="start" x="858.6963" y="-396.5" font-family="Helvetica,sans-Serif" font-size="10.00" fill="#000000">/libs/fcc_sdk/engine/meetingclient</text>
<text text-anchor="middle" x="940.8521" y="-386.5" font-family="Helvetica,sans-Serif" font-size="10.00" fill="#000000">/src/webservices/WebServiceAPI.cxx</text>
</a>
</g>
</g>
<!-- Node1 -->
<g id="node2" class="node">
<title>Node1</title>
<g id="a_node2"><a xlink:href="apiv3_8hxx.html" target="_top" xlink:title=" ">
<polygon fill="none" stroke="#000000" points="797.3818,-315.5 797.3818,-343.5 932.3223,-343.5 932.3223,-315.5 797.3818,-315.5"/>
<text text-anchor="start" x="805.3818" y="-331.5" font-family="Helvetica,sans-Serif" font-size="10.00" fill="#000000">MeetingClient/webservices</text>
<text text-anchor="middle" x="864.8521" y="-321.5" font-family="Helvetica,sans-Serif" font-size="10.00" fill="#000000">/apiv3.hxx</text>
</a>
</g>
</g>
<!-- Node0&#45;&gt;Node1 -->
<g id="edge1" class="edge">
<title>Node0&#45;&gt;Node1</title>
<path fill="none" stroke="#191970" d="M916.3868,-380.3567C906.759,-370.8556 895.7978,-360.0386 886.4669,-350.8304"/>
<polygon fill="#191970" stroke="#191970" points="888.6536,-348.0711 879.0774,-343.5382 883.7367,-353.0535 888.6536,-348.0711"/>
</g>
<!-- Node2 -->
<g id="node3" class="node">
<title>Node2</title>
<g id="a_node3"><a xlink:href="result__builder_8hxx.html" target="_top" xlink:title=" ">
<polygon fill="none" stroke="#000000" points="793.3818,-250.5 793.3818,-278.5 928.3223,-278.5 928.3223,-250.5 793.3818,-250.5"/>
<text text-anchor="start" x="801.3818" y="-266.5" font-family="Helvetica,sans-Serif" font-size="10.00" fill="#000000">MeetingClient/webservices</text>
<text text-anchor="middle" x="860.8521" y="-256.5" font-family="Helvetica,sans-Serif" font-size="10.00" fill="#000000">/result_builder.hxx</text>
</a>
</g>
</g>
<!-- Node0&#45;&gt;Node2 -->
<g id="edge36" class="edge">
<title>Node0&#45;&gt;Node2</title>
<path fill="none" stroke="#191970" d="M850.5001,-388.0089C826.5037,-379.0656 803.2807,-365.2725 788.8521,-344 773.7046,-321.6678 798.7776,-299.1441 823.3896,-283.8018"/>
<polygon fill="#191970" stroke="#191970" points="825.1957,-286.8 832.0093,-278.6866 821.6233,-280.7801 825.1957,-286.8"/>
</g>
<!-- Node32 -->
<g id="node33" class="node">
<title>Node32</title>
<g id="a_node33"><a xlink:href="apiv4_8hxx.html" target="_top" xlink:title=" ">
<polygon fill="none" stroke="#000000" points="950.3818,-315.5 950.3818,-343.5 1085.3223,-343.5 1085.3223,-315.5 950.3818,-315.5"/>
<text text-anchor="start" x="958.3818" y="-331.5" font-family="Helvetica,sans-Serif" font-size="10.00" fill="#000000">MeetingClient/webservices</text>
<text text-anchor="middle" x="1017.8521" y="-321.5" font-family="Helvetica,sans-Serif" font-size="10.00" fill="#000000">/apiv4.hxx</text>
</a>
</g>
</g>
<!-- Node0&#45;&gt;Node32 -->
<g id="edge34" class="edge">
<title>Node0&#45;&gt;Node32</title>
<path fill="none" stroke="#191970" d="M965.6392,-380.3567C975.4912,-370.7605 986.7214,-359.8221 996.2359,-350.5547"/>
<polygon fill="#191970" stroke="#191970" points="998.7181,-353.0229 1003.4395,-343.5382 993.8339,-348.0084 998.7181,-353.0229"/>
</g>
<!-- Node33 -->
<g id="node34" class="node">
<title>Node33</title>
<g id="a_node34"><a xlink:href="json__entities_8hxx.html" target="_top" xlink:title=" ">
<polygon fill="none" stroke="#000000" points="676.3818,-185.5 676.3818,-213.5 811.3223,-213.5 811.3223,-185.5 676.3818,-185.5"/>
<text text-anchor="start" x="684.3818" y="-201.5" font-family="Helvetica,sans-Serif" font-size="10.00" fill="#000000">MeetingClient/webservices</text>
<text text-anchor="middle" x="743.8521" y="-191.5" font-family="Helvetica,sans-Serif" font-size="10.00" fill="#000000">/json_entities.hxx</text>
</a>
</g>
</g>
<!-- Node0&#45;&gt;Node33 -->
<g id="edge37" class="edge">
<title>Node0&#45;&gt;Node33</title>
<path fill="none" stroke="#191970" d="M850.4237,-386.8916C824.8598,-377.8994 799.0715,-364.3597 780.8521,-344 750.7292,-310.3387 744.4783,-255.4612 743.5529,-223.9085"/>
<polygon fill="#191970" stroke="#191970" points="747.0512,-223.7458 743.4173,-213.7936 740.0518,-223.8397 747.0512,-223.7458"/>
</g>
<!-- Node35 -->
<g id="node36" class="node">
<title>Node35</title>
<g id="a_node36"><a xlink:title=" ">
<polygon fill="none" stroke="#bfbfbf" points="1103.1797,-320.5 1103.1797,-338.5 1192.5244,-338.5 1192.5244,-320.5 1103.1797,-320.5"/>
<text text-anchor="middle" x="1147.8521" y="-326.5" font-family="Helvetica,sans-Serif" font-size="10.00" fill="#000000">NCrypt/MD5.hxx</text>
</a>
</g>
</g>
<!-- Node0&#45;&gt;Node35 -->
<g id="edge41" class="edge">
<title>Node0&#45;&gt;Node35</title>
<path fill="none" stroke="#191970" d="M1007.2023,-380.4601C1042.5338,-367.6588 1084.5247,-352.4447 1113.3718,-341.9928"/>
<polygon fill="#191970" stroke="#191970" points="1114.7851,-345.2035 1122.9947,-338.5063 1112.4005,-338.6222 1114.7851,-345.2035"/>
</g>
<!-- Node36 -->
<g id="node37" class="node">
<title>Node36</title>
<g id="a_node37"><a xlink:title=" ">
<polygon fill="none" stroke="#bfbfbf" points="1210.0518,-315.5 1210.0518,-343.5 1321.6523,-343.5 1321.6523,-315.5 1210.0518,-315.5"/>
<text text-anchor="start" x="1218.0518" y="-331.5" font-family="Helvetica,sans-Serif" font-size="10.00" fill="#000000">boost/algorithm/string</text>
<text text-anchor="middle" x="1265.8521" y="-321.5" font-family="Helvetica,sans-Serif" font-size="10.00" fill="#000000">/join.hpp</text>
</a>
</g>
</g>
<!-- Node0&#45;&gt;Node36 -->
<g id="edge42" class="edge">
<title>Node0&#45;&gt;Node36</title>
<path fill="none" stroke="#191970" d="M1031.3827,-383.6083C1084.9761,-371.2406 1151.6579,-355.8525 1200.1937,-344.6519"/>
<polygon fill="#191970" stroke="#191970" points="1200.9997,-348.058 1209.9566,-342.399 1199.4256,-341.2373 1200.9997,-348.058"/>
</g>
<!-- Node1&#45;&gt;Node2 -->
<g id="edge2" class="edge">
<title>Node1&#45;&gt;Node2</title>
<path fill="none" stroke="#191970" d="M863.9841,-315.396C863.5019,-307.5597 862.8887,-297.5958 862.333,-288.5653"/>
<polygon fill="#191970" stroke="#191970" points="865.826,-288.3426 861.7183,-278.5765 858.8392,-288.7726 865.826,-288.3426"/>
</g>
<!-- Node3 -->
<g id="node4" class="node">
<title>Node3</title>
<g id="a_node4"><a xlink:href="_h_t_t_p_request_8hxx.html" target="_top" xlink:title=" ">
<polygon fill="none" stroke="#000000" points="1082.0444,-190.5 1082.0444,-208.5 1243.6597,-208.5 1243.6597,-190.5 1082.0444,-190.5"/>
<text text-anchor="middle" x="1162.8521" y="-196.5" font-family="Helvetica,sans-Serif" font-size="10.00" fill="#000000">MeetingClient/HTTPRequest.hxx</text>
</a>
</g>
</g>
<!-- Node2&#45;&gt;Node3 -->
<g id="edge3" class="edge">
<title>Node2&#45;&gt;Node3</title>
<path fill="none" stroke="#191970" d="M926.0097,-250.476C981.4429,-238.545 1059.9882,-221.6396 1111.1724,-210.6231"/>
<polygon fill="#191970" stroke="#191970" points="1111.9898,-214.0274 1121.0294,-208.5016 1110.5168,-207.1841 1111.9898,-214.0274"/>
</g>
<!-- Node15 -->
<g id="node16" class="node">
<title>Node15</title>
<g id="a_node16"><a xlink:href="_web_services_a_p_i_8hxx.html" target="_top" xlink:title=" ">
<polygon fill="none" stroke="#000000" points="510.5264,-185.5 510.5264,-213.5 649.1777,-213.5 649.1777,-185.5 510.5264,-185.5"/>
<text text-anchor="start" x="518.5264" y="-201.5" font-family="Helvetica,sans-Serif" font-size="10.00" fill="#000000">MeetingClient/WebServices</text>
<text text-anchor="middle" x="579.8521" y="-191.5" font-family="Helvetica,sans-Serif" font-size="10.00" fill="#000000">API.hxx</text>
</a>
</g>
</g>
<!-- Node2&#45;&gt;Node15 -->
<g id="edge15" class="edge">
<title>Node2&#45;&gt;Node15</title>
<path fill="none" stroke="#191970" d="M800.2252,-250.476C756.3343,-240.3233 696.8712,-226.5685 650.7744,-215.9055"/>
<polygon fill="#191970" stroke="#191970" points="651.3862,-212.4547 640.8546,-213.6109 649.8086,-219.2746 651.3862,-212.4547"/>
</g>
<!-- Node19 -->
<g id="node20" class="node">
<title>Node19</title>
<g id="a_node20"><a xlink:href="_entities_8hxx.html" target="_top" xlink:title=" ">
<polygon fill="none" stroke="#000000" points="781.3818,-120.5 781.3818,-148.5 916.3223,-148.5 916.3223,-120.5 781.3818,-120.5"/>
<text text-anchor="start" x="789.3818" y="-136.5" font-family="Helvetica,sans-Serif" font-size="10.00" fill="#000000">MeetingClient/webservices</text>
<text text-anchor="middle" x="848.8521" y="-126.5" font-family="Helvetica,sans-Serif" font-size="10.00" fill="#000000">/Entities.hxx</text>
</a>
</g>
</g>
<!-- Node2&#45;&gt;Node19 -->
<g id="edge33" class="edge">
<title>Node2&#45;&gt;Node19</title>
<path fill="none" stroke="#191970" d="M859.545,-250.3402C857.5162,-228.3618 853.5843,-185.7655 851.0953,-158.8021"/>
<polygon fill="#191970" stroke="#191970" points="854.5619,-158.2782 850.1575,-148.6423 847.5916,-158.9217 854.5619,-158.2782"/>
</g>
<!-- Node4 -->
<g id="node5" class="node">
<title>Node4</title>
<g id="a_node5"><a xlink:title=" ">
<polygon fill="none" stroke="#bfbfbf" points="1379.9951,-125.5 1379.9951,-143.5 1497.709,-143.5 1497.709,-125.5 1379.9951,-125.5"/>
<text text-anchor="middle" x="1438.8521" y="-131.5" font-family="Helvetica,sans-Serif" font-size="10.00" fill="#000000">ASIO/HTTPLoader.hxx</text>
</a>
</g>
</g>
<!-- Node3&#45;&gt;Node4 -->
<g id="edge4" class="edge">
<title>Node3&#45;&gt;Node4</title>
<path fill="none" stroke="#191970" d="M1201.2287,-190.462C1250.6274,-178.8283 1336.4938,-158.6061 1390.3597,-145.9203"/>
<polygon fill="#191970" stroke="#191970" points="1391.4261,-149.265 1400.3575,-143.5658 1389.8214,-142.4514 1391.4261,-149.265"/>
</g>
<!-- Node5 -->
<g id="node6" class="node">
<title>Node5</title>
<g id="a_node6"><a xlink:title=" ">
<polygon fill="none" stroke="#bfbfbf" points="934.3867,-125.5 934.3867,-143.5 999.3174,-143.5 999.3174,-125.5 934.3867,-125.5"/>
<text text-anchor="middle" x="966.8521" y="-131.5" font-family="Helvetica,sans-Serif" font-size="10.00" fill="#000000">Logger.hxx</text>
</a>
</g>
</g>
<!-- Node3&#45;&gt;Node5 -->
<g id="edge5" class="edge">
<title>Node3&#45;&gt;Node5</title>
<path fill="none" stroke="#191970" d="M1134.4978,-190.4963C1103.365,-180.5557 1051.935,-163.9738 1007.8521,-149 1005.9755,-148.3626 1004.0526,-147.7034 1002.1128,-147.0337"/>
<polygon fill="#191970" stroke="#191970" points="1003.0017,-143.637 992.4069,-143.6485 1000.6965,-150.2465 1003.0017,-143.637"/>
</g>
<!-- Node6 -->
<g id="node7" class="node">
<title>Node6</title>
<g id="a_node7"><a xlink:href="uri__string_8hxx.html" target="_top" xlink:title=" ">
<polygon fill="none" stroke="#000000" points="1227.3818,-120.5 1227.3818,-148.5 1362.3223,-148.5 1362.3223,-120.5 1227.3818,-120.5"/>
<text text-anchor="start" x="1235.3818" y="-136.5" font-family="Helvetica,sans-Serif" font-size="10.00" fill="#000000">MeetingClient/webservices</text>
<text text-anchor="middle" x="1294.8521" y="-126.5" font-family="Helvetica,sans-Serif" font-size="10.00" fill="#000000">/uri_string.hxx</text>
</a>
</g>
</g>
<!-- Node3&#45;&gt;Node6 -->
<g id="edge6" class="edge">
<title>Node3&#45;&gt;Node6</title>
<path fill="none" stroke="#191970" d="M1181.2061,-190.462C1200.7415,-180.8423 1232.202,-165.3504 1257.0742,-153.1027"/>
<polygon fill="#191970" stroke="#191970" points="1258.8205,-156.1442 1266.2456,-148.5865 1255.7281,-149.8643 1258.8205,-156.1442"/>
</g>
<!-- Node9 -->
<g id="node10" class="node">
<title>Node9</title>
<g id="a_node10"><a xlink:title=" ">
<polygon fill="none" stroke="#bfbfbf" points="1017.3276,-125.5 1017.3276,-143.5 1098.3765,-143.5 1098.3765,-125.5 1017.3276,-125.5"/>
<text text-anchor="middle" x="1057.8521" y="-131.5" font-family="Helvetica,sans-Serif" font-size="10.00" fill="#000000">boost/asio.hpp</text>
</a>
</g>
</g>
<!-- Node3&#45;&gt;Node9 -->
<g id="edge9" class="edge">
<title>Node3&#45;&gt;Node9</title>
<path fill="none" stroke="#191970" d="M1148.2523,-190.462C1130.9537,-179.7534 1101.9005,-161.7681 1081.407,-149.0816"/>
<polygon fill="#191970" stroke="#191970" points="1083.0113,-145.9584 1072.6663,-143.6708 1079.3268,-151.9103 1083.0113,-145.9584"/>
</g>
<!-- Node10 -->
<g id="node11" class="node">
<title>Node10</title>
<g id="a_node11"><a xlink:title=" ">
<polygon fill="none" stroke="#bfbfbf" points="1116.7734,-125.5 1116.7734,-143.5 1208.9307,-143.5 1208.9307,-125.5 1116.7734,-125.5"/>
<text text-anchor="middle" x="1162.8521" y="-131.5" font-family="Helvetica,sans-Serif" font-size="10.00" fill="#000000">boost/atomic.hpp</text>
</a>
</g>
</g>
<!-- Node3&#45;&gt;Node10 -->
<g id="edge10" class="edge">
<title>Node3&#45;&gt;Node10</title>
<path fill="none" stroke="#191970" d="M1162.8521,-190.462C1162.8521,-181.061 1162.8521,-166.0518 1162.8521,-153.943"/>
<polygon fill="#191970" stroke="#191970" points="1166.3522,-153.8821 1162.8521,-143.8821 1159.3522,-153.8822 1166.3522,-153.8821"/>
</g>
<!-- Node11 -->
<g id="node12" class="node">
<title>Node11</title>
<g id="a_node12"><a xlink:href="_s_c_upload_data_8hxx.html" target="_top" xlink:title=" ">
<polygon fill="none" stroke="#000000" points="1515.3696,-125.5 1515.3696,-143.5 1680.3345,-143.5 1680.3345,-125.5 1515.3696,-125.5"/>
<text text-anchor="middle" x="1597.8521" y="-131.5" font-family="Helvetica,sans-Serif" font-size="10.00" fill="#000000">MeetingClient/SCUploadData.hxx</text>
</a>
</g>
</g>
<!-- Node3&#45;&gt;Node11 -->
<g id="edge11" class="edge">
<title>Node3&#45;&gt;Node11</title>
<path fill="none" stroke="#191970" d="M1225.9735,-190.4702C1294.9948,-180.5411 1408.8484,-164.001 1506.8521,-149 1515.0357,-147.7474 1523.6293,-146.4086 1532.1327,-145.0698"/>
<polygon fill="#191970" stroke="#191970" points="1532.7128,-148.5217 1542.0437,-143.5033 1531.6198,-141.6075 1532.7128,-148.5217"/>
</g>
<!-- Node7 -->
<g id="node8" class="node">
<title>Node7</title>
<g id="a_node8"><a xlink:title=" ">
<polygon fill="none" stroke="#bfbfbf" points="1235.0713,-60.5 1235.0713,-78.5 1286.6328,-78.5 1286.6328,-60.5 1235.0713,-60.5"/>
<text text-anchor="middle" x="1260.8521" y="-66.5" font-family="Helvetica,sans-Serif" font-size="10.00" fill="#000000">sstream</text>
</a>
</g>
</g>
<!-- Node6&#45;&gt;Node7 -->
<g id="edge7" class="edge">
<title>Node6&#45;&gt;Node7</title>
<path fill="none" stroke="#191970" d="M1287.4746,-120.396C1282.4424,-110.7756 1275.7329,-97.9487 1270.3087,-87.5788"/>
<polygon fill="#191970" stroke="#191970" points="1273.335,-85.813 1265.5986,-78.5743 1267.1323,-89.0576 1273.335,-85.813"/>
</g>
<!-- Node8 -->
<g id="node9" class="node">
<title>Node8</title>
<g id="a_node9"><a xlink:title=" ">
<polygon fill="none" stroke="#bfbfbf" points="1304.3423,-60.5 1304.3423,-78.5 1355.3618,-78.5 1355.3618,-60.5 1304.3423,-60.5"/>
<text text-anchor="middle" x="1329.8521" y="-66.5" font-family="Helvetica,sans-Serif" font-size="10.00" fill="#000000">iomanip</text>
</a>
</g>
</g>
<!-- Node6&#45;&gt;Node8 -->
<g id="edge8" class="edge">
<title>Node6&#45;&gt;Node8</title>
<path fill="none" stroke="#191970" d="M1302.4465,-120.396C1307.6267,-110.7756 1314.5335,-97.9487 1320.1173,-87.5788"/>
<polygon fill="#191970" stroke="#191970" points="1323.3065,-89.0384 1324.9659,-78.5743 1317.1432,-85.7197 1323.3065,-89.0384"/>
</g>
<!-- Node12 -->
<g id="node13" class="node">
<title>Node12</title>
<g id="a_node13"><a xlink:title=" ">
<polygon fill="none" stroke="#bfbfbf" points="1556.5928,-60.5 1556.5928,-78.5 1639.1113,-78.5 1639.1113,-60.5 1556.5928,-60.5"/>
<text text-anchor="middle" x="1597.8521" y="-66.5" font-family="Helvetica,sans-Serif" font-size="10.00" fill="#000000">Utils/Buffer.hxx</text>
</a>
</g>
</g>
<!-- Node11&#45;&gt;Node12 -->
<g id="edge12" class="edge">
<title>Node11&#45;&gt;Node12</title>
<path fill="none" stroke="#191970" d="M1597.8521,-125.462C1597.8521,-116.061 1597.8521,-101.0518 1597.8521,-88.943"/>
<polygon fill="#191970" stroke="#191970" points="1601.3522,-88.8821 1597.8521,-78.8821 1594.3522,-88.8822 1601.3522,-88.8821"/>
</g>
<!-- Node13 -->
<g id="node14" class="node">
<title>Node13</title>
<g id="a_node14"><a xlink:title=" ">
<polygon fill="none" stroke="#bfbfbf" points="1657.1748,-60.5 1657.1748,-78.5 1746.5293,-78.5 1746.5293,-60.5 1657.1748,-60.5"/>
<text text-anchor="middle" x="1701.8521" y="-66.5" font-family="Helvetica,sans-Serif" font-size="10.00" fill="#000000">Utils/EString.hxx</text>
</a>
</g>
</g>
<!-- Node11&#45;&gt;Node13 -->
<g id="edge13" class="edge">
<title>Node11&#45;&gt;Node13</title>
<path fill="none" stroke="#191970" d="M1612.3128,-125.462C1629.4466,-114.7534 1658.2232,-96.7681 1678.5215,-84.0816"/>
<polygon fill="#191970" stroke="#191970" points="1680.5539,-86.9388 1687.1788,-78.6708 1676.8438,-81.0028 1680.5539,-86.9388"/>
</g>
<!-- Node14 -->
<g id="node15" class="node">
<title>Node14</title>
<g id="a_node15"><a xlink:title=" ">
<polygon fill="none" stroke="#bfbfbf" points="1493.1206,-60.5 1493.1206,-78.5 1538.5835,-78.5 1538.5835,-60.5 1493.1206,-60.5"/>
<text text-anchor="middle" x="1515.8521" y="-66.5" font-family="Helvetica,sans-Serif" font-size="10.00" fill="#000000">stdio.h</text>
</a>
</g>
</g>
<!-- Node11&#45;&gt;Node14 -->
<g id="edge14" class="edge">
<title>Node11&#45;&gt;Node14</title>
<path fill="none" stroke="#191970" d="M1586.4503,-125.462C1573.3061,-115.0428 1551.4715,-97.7349 1535.5593,-85.1216"/>
<polygon fill="#191970" stroke="#191970" points="1537.4321,-82.1399 1527.4213,-78.6708 1533.0837,-87.6255 1537.4321,-82.1399"/>
</g>
<!-- Node16 -->
<g id="node17" class="node">
<title>Node16</title>
<g id="a_node17"><a xlink:href="_common_data_types_8hxx.html" target="_top" xlink:title=" ">
<polygon fill="none" stroke="#000000" points="523.106,-55.5 523.106,-83.5 648.5981,-83.5 648.5981,-55.5 523.106,-55.5"/>
<text text-anchor="start" x="531.106" y="-71.5" font-family="Helvetica,sans-Serif" font-size="10.00" fill="#000000">MeetingClient/types</text>
<text text-anchor="middle" x="585.8521" y="-61.5" font-family="Helvetica,sans-Serif" font-size="10.00" fill="#000000">/CommonDataTypes.hxx</text>
</a>
</g>
</g>
<!-- Node15&#45;&gt;Node16 -->
<g id="edge16" class="edge">
<title>Node15&#45;&gt;Node16</title>
<path fill="none" stroke="#191970" d="M580.5056,-185.3402C581.52,-163.3618 583.486,-120.7655 584.7304,-93.8021"/>
<polygon fill="#191970" stroke="#191970" points="588.2345,-93.7931 585.1993,-83.6423 581.2419,-93.4703 588.2345,-93.7931"/>
</g>
<!-- Node15&#45;&gt;Node19 -->
<g id="edge19" class="edge">
<title>Node15&#45;&gt;Node19</title>
<path fill="none" stroke="#191970" d="M637.8899,-185.476C679.8183,-175.3446 736.5916,-161.6261 780.6807,-150.9726"/>
<polygon fill="#191970" stroke="#191970" points="781.5564,-154.3618 790.4546,-148.6109 779.9122,-147.5577 781.5564,-154.3618"/>
</g>
<!-- Node23 -->
<g id="node24" class="node">
<title>Node23</title>
<g id="a_node24"><a xlink:href="_web_parameters_8hxx.html" target="_top" xlink:title=" ">
<polygon fill="none" stroke="#000000" points="229.3818,-120.5 229.3818,-148.5 364.3223,-148.5 364.3223,-120.5 229.3818,-120.5"/>
<text text-anchor="start" x="237.3818" y="-136.5" font-family="Helvetica,sans-Serif" font-size="10.00" fill="#000000">MeetingClient/webservices</text>
<text text-anchor="middle" x="296.8521" y="-126.5" font-family="Helvetica,sans-Serif" font-size="10.00" fill="#000000">/WebParameters.hxx</text>
</a>
</g>
</g>
<!-- Node15&#45;&gt;Node23 -->
<g id="edge23" class="edge">
<title>Node15&#45;&gt;Node23</title>
<path fill="none" stroke="#191970" d="M518.7937,-185.476C474.5904,-175.3233 414.704,-161.5685 368.2792,-150.9055"/>
<polygon fill="#191970" stroke="#191970" points="368.8186,-147.4383 358.2888,-148.6109 367.2515,-154.2607 368.8186,-147.4383"/>
</g>
<!-- Node30 -->
<g id="node31" class="node">
<title>Node30</title>
<g id="a_node31"><a xlink:title=" ">
<polygon fill="none" stroke="#bfbfbf" points="381.8916,-125.5 381.8916,-143.5 471.8125,-143.5 471.8125,-125.5 381.8916,-125.5"/>
<text text-anchor="middle" x="426.8521" y="-131.5" font-family="Helvetica,sans-Serif" font-size="10.00" fill="#000000">Utils/Version.hxx</text>
</a>
</g>
</g>
<!-- Node15&#45;&gt;Node30 -->
<g id="edge31" class="edge">
<title>Node15&#45;&gt;Node30</title>
<path fill="none" stroke="#191970" d="M546.6533,-185.396C520.1565,-174.1392 483.3258,-158.4921 457.5183,-147.5281"/>
<polygon fill="#191970" stroke="#191970" points="458.784,-144.2631 448.2116,-143.5743 456.0469,-150.7058 458.784,-144.2631"/>
</g>
<!-- Node31 -->
<g id="node32" class="node">
<title>Node31</title>
<g id="a_node32"><a xlink:href="macros_8hxx.html" target="_top" xlink:title=" ">
<polygon fill="none" stroke="#000000" points="490.2905,-125.5 490.2905,-143.5 557.4136,-143.5 557.4136,-125.5 490.2905,-125.5"/>
<text text-anchor="middle" x="523.8521" y="-131.5" font-family="Helvetica,sans-Serif" font-size="10.00" fill="#000000">macros.hxx</text>
</a>
</g>
</g>
<!-- Node15&#45;&gt;Node31 -->
<g id="edge32" class="edge">
<title>Node15&#45;&gt;Node31</title>
<path fill="none" stroke="#191970" d="M567.7009,-185.396C559.0708,-175.3789 547.4456,-161.8853 538.3335,-151.3089"/>
<polygon fill="#191970" stroke="#191970" points="540.8487,-148.8659 531.6699,-143.5743 535.5454,-153.4349 540.8487,-148.8659"/>
</g>
<!-- Node17 -->
<g id="node18" class="node">
<title>Node17</title>
<g id="a_node18"><a xlink:title=" ">
<polygon fill="none" stroke="#bfbfbf" points="609.6255,-.5 609.6255,-18.5 650.0786,-18.5 650.0786,-.5 609.6255,-.5"/>
<text text-anchor="middle" x="629.8521" y="-6.5" font-family="Helvetica,sans-Serif" font-size="10.00" fill="#000000">string</text>
</a>
</g>
</g>
<!-- Node16&#45;&gt;Node17 -->
<g id="edge17" class="edge">
<title>Node16&#45;&gt;Node17</title>
<path fill="none" stroke="#191970" d="M596.2794,-55.2808C602.531,-46.756 610.5255,-35.8545 617.1448,-26.8281"/>
<polygon fill="#191970" stroke="#191970" points="620.0991,-28.718 623.1903,-18.5842 614.4542,-24.5785 620.0991,-28.718"/>
</g>
<!-- Node18 -->
<g id="node19" class="node">
<title>Node18</title>
<g id="a_node19"><a xlink:title=" ">
<polygon fill="none" stroke="#bfbfbf" points="490.0566,-.5 490.0566,-18.5 591.6475,-18.5 591.6475,-.5 490.0566,-.5"/>
<text text-anchor="middle" x="540.8521" y="-6.5" font-family="Helvetica,sans-Serif" font-size="10.00" fill="#000000">CommonTypes.hxx</text>
</a>
</g>
</g>
<!-- Node16&#45;&gt;Node18 -->
<g id="edge18" class="edge">
<title>Node16&#45;&gt;Node18</title>
<path fill="none" stroke="#191970" d="M575.1877,-55.2808C568.794,-46.756 560.6179,-35.8545 553.8481,-26.8281"/>
<polygon fill="#191970" stroke="#191970" points="556.4652,-24.4842 547.6652,-18.5842 550.8652,-28.6842 556.4652,-24.4842"/>
</g>
<!-- Node20 -->
<g id="node21" class="node">
<title>Node20</title>
<g id="a_node21"><a xlink:title=" ">
<polygon fill="none" stroke="#bfbfbf" points="707.9482,-60.5 707.9482,-78.5 781.7559,-78.5 781.7559,-60.5 707.9482,-60.5"/>
<text text-anchor="middle" x="744.8521" y="-66.5" font-family="Helvetica,sans-Serif" font-size="10.00" fill="#000000">Printable.hxx</text>
</a>
</g>
</g>
<!-- Node19&#45;&gt;Node20 -->
<g id="edge20" class="edge">
<title>Node19&#45;&gt;Node20</title>
<path fill="none" stroke="#191970" d="M826.2856,-120.396C809.1475,-109.6846 785.6493,-94.9983 768.2984,-84.154"/>
<polygon fill="#191970" stroke="#191970" points="769.706,-80.9063 759.3709,-78.5743 765.9959,-86.8423 769.706,-80.9063"/>
</g>
<!-- Node21 -->
<g id="node22" class="node">
<title>Node21</title>
<g id="a_node22"><a xlink:title=" ">
<polygon fill="none" stroke="#bfbfbf" points="799.9878,-60.5 799.9878,-78.5 897.7163,-78.5 897.7163,-60.5 799.9878,-60.5"/>
<text text-anchor="middle" x="848.8521" y="-66.5" font-family="Helvetica,sans-Serif" font-size="10.00" fill="#000000">boost/function.hpp</text>
</a>
</g>
</g>
<!-- Node19&#45;&gt;Node21 -->
<g id="edge21" class="edge">
<title>Node19&#45;&gt;Node21</title>
<path fill="none" stroke="#191970" d="M848.8521,-120.396C848.8521,-111.1723 848.8521,-99.0011 848.8521,-88.8738"/>
<polygon fill="#191970" stroke="#191970" points="852.3521,-88.5743 848.8521,-78.5743 845.3521,-88.5743 852.3521,-88.5743"/>
</g>
<!-- Node22 -->
<g id="node23" class="node">
<title>Node22</title>
<g id="a_node23"><a xlink:title=" ">
<polygon fill="none" stroke="#bfbfbf" points="915.8696,-60.5 915.8696,-78.5 1025.8345,-78.5 1025.8345,-60.5 915.8696,-60.5"/>
<text text-anchor="middle" x="970.8521" y="-66.5" font-family="Helvetica,sans-Serif" font-size="10.00" fill="#000000">boost/shared_ptr.hpp</text>
</a>
</g>
</g>
<!-- Node19&#45;&gt;Node22 -->
<g id="edge22" class="edge">
<title>Node19&#45;&gt;Node22</title>
<path fill="none" stroke="#191970" d="M875.3242,-120.396C895.8939,-109.4367 924.274,-94.3162 944.7493,-83.4072"/>
<polygon fill="#191970" stroke="#191970" points="946.6405,-86.3654 953.8203,-78.5743 943.349,-80.1875 946.6405,-86.3654"/>
</g>
<!-- Node23&#45;&gt;Node16 -->
<g id="edge26" class="edge">
<title>Node23&#45;&gt;Node16</title>
<path fill="none" stroke="#191970" d="M359.2049,-120.476C404.44,-110.302 465.7579,-96.5108 513.2086,-85.8385"/>
<polygon fill="#191970" stroke="#191970" points="514.1245,-89.22 523.1127,-83.6109 512.5884,-82.3906 514.1245,-89.22"/>
</g>
<!-- Node24 -->
<g id="node25" class="node">
<title>Node24</title>
<g id="a_node25"><a xlink:title=" ">
<polygon fill="none" stroke="#bfbfbf" points="373.1255,-60.5 373.1255,-78.5 408.5786,-78.5 408.5786,-60.5 373.1255,-60.5"/>
<text text-anchor="middle" x="390.8521" y="-66.5" font-family="Helvetica,sans-Serif" font-size="10.00" fill="#000000">map</text>
</a>
</g>
</g>
<!-- Node23&#45;&gt;Node24 -->
<g id="edge24" class="edge">
<title>Node23&#45;&gt;Node24</title>
<path fill="none" stroke="#191970" d="M317.2487,-120.396C332.5954,-109.7838 353.5848,-95.2699 369.2231,-84.4562"/>
<polygon fill="#191970" stroke="#191970" points="371.4948,-87.1407 377.7292,-78.5743 367.5135,-81.3831 371.4948,-87.1407"/>
</g>
<!-- Node25 -->
<g id="node26" class="node">
<title>Node25</title>
<g id="a_node26"><a xlink:title=" ">
<polygon fill="none" stroke="#bfbfbf" points="426.3521,-60.5 426.3521,-78.5 455.3521,-78.5 455.3521,-60.5 426.3521,-60.5"/>
<text text-anchor="middle" x="440.4629" y="-66.5" font-family="Helvetica,sans-Serif" font-size="10.00" fill="#000000">list</text>
</a>
</g>
</g>
<!-- Node23&#45;&gt;Node25 -->
<g id="edge25" class="edge">
<title>Node23&#45;&gt;Node25</title>
<path fill="none" stroke="#191970" d="M334.9288,-120.4964C359.1359,-111.1358 390.8825,-98.0042 417.8521,-84 417.9463,-83.9511 418.0407,-83.9019 418.1352,-83.8524"/>
<polygon fill="#191970" stroke="#191970" points="420.0372,-86.7961 426.9613,-78.7769 416.5476,-80.7279 420.0372,-86.7961"/>
</g>
<!-- Node26 -->
<g id="node27" class="node">
<title>Node26</title>
<g id="a_node27"><a xlink:href="opt__value_8hxx.html" target="_top" xlink:title=" ">
<polygon fill="none" stroke="#000000" points="0,-55.5 0,-83.5 97.7041,-83.5 97.7041,-55.5 0,-55.5"/>
<text text-anchor="start" x="8" y="-71.5" font-family="Helvetica,sans-Serif" font-size="10.00" fill="#000000">MeetingClient/utils</text>
<text text-anchor="middle" x="48.8521" y="-61.5" font-family="Helvetica,sans-Serif" font-size="10.00" fill="#000000">/opt_value.hxx</text>
</a>
</g>
</g>
<!-- Node23&#45;&gt;Node26 -->
<g id="edge27" class="edge">
<title>Node23&#45;&gt;Node26</title>
<path fill="none" stroke="#191970" d="M243.3451,-120.476C203.4864,-110.0292 149.0765,-95.7685 107.94,-84.9868"/>
<polygon fill="#191970" stroke="#191970" points="108.6116,-81.5446 98.0509,-82.3949 106.8368,-88.3159 108.6116,-81.5446"/>
</g>
<!-- Node28 -->
<g id="node29" class="node">
<title>Node28</title>
<g id="a_node29"><a xlink:title=" ">
<polygon fill="none" stroke="#bfbfbf" points="115.377,-55.5 115.377,-83.5 220.3271,-83.5 220.3271,-55.5 115.377,-55.5"/>
<text text-anchor="start" x="123.377" y="-71.5" font-family="Helvetica,sans-Serif" font-size="10.00" fill="#000000">boost/thread/shared</text>
<text text-anchor="middle" x="167.8521" y="-61.5" font-family="Helvetica,sans-Serif" font-size="10.00" fill="#000000">_mutex.hpp</text>
</a>
</g>
</g>
<!-- Node23&#45;&gt;Node28 -->
<g id="edge29" class="edge">
<title>Node23&#45;&gt;Node28</title>
<path fill="none" stroke="#191970" d="M268.861,-120.396C250.0971,-110.9413 225.1867,-98.3896 204.7992,-88.1168"/>
<polygon fill="#191970" stroke="#191970" points="206.2938,-84.9507 195.7885,-83.5765 203.1439,-91.202 206.2938,-84.9507"/>
</g>
<!-- Node29 -->
<g id="node30" class="node">
<title>Node29</title>
<g id="a_node30"><a xlink:title=" ">
<polygon fill="none" stroke="#bfbfbf" points="238.542,-60.5 238.542,-78.5 355.1621,-78.5 355.1621,-60.5 238.542,-60.5"/>
<text text-anchor="middle" x="296.8521" y="-66.5" font-family="Helvetica,sans-Serif" font-size="10.00" fill="#000000">boost/thread/locks.hpp</text>
</a>
</g>
</g>
<!-- Node23&#45;&gt;Node29 -->
<g id="edge30" class="edge">
<title>Node23&#45;&gt;Node29</title>
<path fill="none" stroke="#191970" d="M296.8521,-120.396C296.8521,-111.1723 296.8521,-99.0011 296.8521,-88.8738"/>
<polygon fill="#191970" stroke="#191970" points="300.3521,-88.5743 296.8521,-78.5743 293.3521,-88.5743 300.3521,-88.5743"/>
</g>
<!-- Node27 -->
<g id="node28" class="node">
<title>Node27</title>
<g id="a_node28"><a xlink:title=" ">
<polygon fill="none" stroke="#bfbfbf" points="12.5098,-.5 12.5098,-18.5 85.1943,-18.5 85.1943,-.5 12.5098,-.5"/>
<text text-anchor="middle" x="48.8521" y="-6.5" font-family="Helvetica,sans-Serif" font-size="10.00" fill="#000000">initializer_list</text>
</a>
</g>
</g>
<!-- Node26&#45;&gt;Node27 -->
<g id="edge28" class="edge">
<title>Node26&#45;&gt;Node27</title>
<path fill="none" stroke="#191970" d="M48.8521,-55.2808C48.8521,-47.3776 48.8521,-37.4316 48.8521,-28.8308"/>
<polygon fill="#191970" stroke="#191970" points="52.3521,-28.5842 48.8521,-18.5842 45.3521,-28.5842 52.3521,-28.5842"/>
</g>
<!-- Node32&#45;&gt;Node2 -->
<g id="edge35" class="edge">
<title>Node32&#45;&gt;Node2</title>
<path fill="none" stroke="#191970" d="M983.7854,-315.396C960.4344,-305.7284 929.262,-292.8226 904.1507,-282.4262"/>
<polygon fill="#191970" stroke="#191970" points="905.4305,-279.168 894.8522,-278.5765 902.7528,-285.6356 905.4305,-279.168"/>
</g>
<!-- Node33&#45;&gt;Node16 -->
<g id="edge38" class="edge">
<title>Node33&#45;&gt;Node16</title>
<path fill="none" stroke="#191970" d="M746.4235,-185.4471C748.7536,-168.0948 749.8445,-138.6016 734.8521,-120 724.5614,-107.2321 691.1426,-95.3312 658.5565,-86.2931"/>
<polygon fill="#191970" stroke="#191970" points="659.0631,-82.8049 648.4968,-83.5823 657.2417,-89.5638 659.0631,-82.8049"/>
</g>
<!-- Node33&#45;&gt;Node19 -->
<g id="edge39" class="edge">
<title>Node33&#45;&gt;Node19</title>
<path fill="none" stroke="#191970" d="M766.6355,-185.396C781.4956,-176.1968 801.092,-164.0658 817.4254,-153.9546"/>
<polygon fill="#191970" stroke="#191970" points="819.4527,-156.816 826.1131,-148.5765 815.7682,-150.8642 819.4527,-156.816"/>
</g>
<!-- Node34 -->
<g id="node35" class="node">
<title>Node34</title>
<g id="a_node35"><a xlink:title=" ">
<polygon fill="none" stroke="#bfbfbf" points="614.0444,-125.5 614.0444,-143.5 725.6597,-143.5 725.6597,-125.5 614.0444,-125.5"/>
<text text-anchor="middle" x="669.8521" y="-131.5" font-family="Helvetica,sans-Serif" font-size="10.00" fill="#000000">rapidjson/document.h</text>
</a>
</g>
</g>
<!-- Node33&#45;&gt;Node34 -->
<g id="edge40" class="edge">
<title>Node33&#45;&gt;Node34</title>
<path fill="none" stroke="#191970" d="M727.7952,-185.396C716.0524,-175.0814 700.1131,-161.0807 687.9243,-150.3743"/>
<polygon fill="#191970" stroke="#191970" points="690.0058,-147.5441 680.1828,-143.5743 685.3862,-152.8034 690.0058,-147.5441"/>
</g>
</g>
</svg>
        <g id="navigator" transform="translate(0 0)" fill="#404254">
                <rect fill="#f2f5e9" fill-opacity="0.5" stroke="#606060" stroke-width=".5" x="0" y="0" width="60" height="60"/>
                <use id="zoomplus" xlink:href="#zoomPlus" x="17" y="9" onmousedown="handleZoom(evt,'in')"/>
                <use id="zoomminus" xlink:href="#zoomMin" x="42" y="9" onmousedown="handleZoom(evt,'out')"/>
                <use id="reset" xlink:href="#resetDef" x="30" y="36" onmousedown="handleReset()"/>
                <g id="arrowUp" xlink:href="#dirArrow" transform="translate(30 24)" onmousedown="handlePan(0,-1)">
                  <use xlink:href="#rim" fill="#404040">
                        <set attributeName="fill" to="#808080" begin="arrowUp.mouseover" end="arrowUp.mouseout"/>
                  </use>
                  <path fill="none" stroke="white" stroke-width="1.5" d="M0,-3.0v7 M-2.5,-0.5L0,-3.0L2.5,-0.5"/>
                </g>
                <g id="arrowRight" xlink:href="#dirArrow" transform="rotate(90) translate(36 -43)" onmousedown="handlePan(1,0)">
                  <use xlink:href="#rim" fill="#404040">
                        <set attributeName="fill" to="#808080" begin="arrowRight.mouseover" end="arrowRight.mouseout"/>
                  </use>
                  <path fill="none" stroke="white" stroke-width="1.5" d="M0,-3.0v7 M-2.5,-0.5L0,-3.0L2.5,-0.5"/>
                </g>
                <g id="arrowDown" xlink:href="#dirArrow" transform="rotate(180) translate(-30 -48)" onmousedown="handlePan(0,1)">
                  <use xlink:href="#rim" fill="#404040">
                        <set attributeName="fill" to="#808080" begin="arrowDown.mouseover" end="arrowDown.mouseout"/>
                  </use>
                  <path fill="none" stroke="white" stroke-width="1.5" d="M0,-3.0v7 M-2.5,-0.5L0,-3.0L2.5,-0.5"/>
                </g>
                <g id="arrowLeft" xlink:href="#dirArrow" transform="rotate(270) translate(-36 17)" onmousedown="handlePan(-1,0)">
                  <use xlink:href="#rim" fill="#404040">
                        <set attributeName="fill" to="#808080" begin="arrowLeft.mouseover" end="arrowLeft.mouseout"/>
                  </use>
                  <path fill="none" stroke="white" stroke-width="1.5" d="M0,-3.0v7 M-2.5,-0.5L0,-3.0L2.5,-0.5"/>
                </g>
        </g>
        <svg viewBox="0 0 15 15" width="100%" height="30px" preserveAspectRatio="xMaxYMin meet">
         <g id="arrow_out" transform="scale(0.3 0.3)">
          <a xlink:href="_web_service_a_p_i_8cxx__incl_org.svg" target="_base">
           <rect id="button" ry="5" rx="5" y="6" x="6" height="38" width="38"
                fill="#f2f5e9" fill-opacity="0.5" stroke="#606060" stroke-width="1.0"/>
           <path id="arrow"
             d="M 11.500037,31.436501 C 11.940474,20.09759 22.043105,11.32322 32.158766,21.979434 L 37.068811,17.246167 C 37.068811,17.246167 37.088388,32 37.088388,32 L 22.160133,31.978069 C 22.160133,31.978069 26.997745,27.140456 26.997745,27.140456 C 18.528582,18.264221 13.291696,25.230495 11.500037,31.436501 z"
             style="fill:#404040;"/>
          </a>
         </g>
        </svg>
</svg>
