<?xml version="1.0" encoding="UTF-8" standalone="no"?>
<!DOCTYPE svg PUBLIC "-//W3C//DTD SVG 1.1//EN"
 "http://www.w3.org/Graphics/SVG/1.1/DTD/svg11.dtd">
<!-- Generated by graphviz version 2.40.1 (20161225.0304)
 -->
<!-- Title: /Users/oskryp/Projects/freesee&#45;native&#45;client/libs/fcc_sdk/engine/meetingclient/src/webservices/WebAPIv4Wrapper.cxx Pages: 1 -->
<!--zoomable 437 -->
<svg id="main" version="1.1" xmlns="http://www.w3.org/2000/svg" xmlns:xlink="http://www.w3.org/1999/xlink" xml:space="preserve" onload="init(evt)">
<style type="text/css"><![CDATA[
.edge:hover path { stroke: red; }
.edge:hover polygon { stroke: red; fill: red; }
]]></style>
<script type="text/javascript"><![CDATA[
var edges = document.getElementsByTagName('g');
if (edges && edges.length) {
  for (var i=0;i<edges.length;i++) {
    if (edges[i].id.substr(0,4)=='edge') {
      edges[i].setAttribute('class','edge');
    }
  }
}
]]></script>
        <defs>
                <circle id="rim" cx="0" cy="0" r="7"/>
                <circle id="rim2" cx="0" cy="0" r="3.5"/>
                <g id="zoomPlus">
                        <use xlink:href="#rim" fill="#404040">
                                <set attributeName="fill" to="#808080" begin="zoomplus.mouseover" end="zoomplus.mouseout"/>
                        </use>
                        <path d="M-4,0h8M0,-4v8" fill="none" stroke="white" stroke-width="1.5" pointer-events="none"/>
                </g>
                <g id="zoomMin">
                        <use xlink:href="#rim" fill="#404040">
                                <set attributeName="fill" to="#808080" begin="zoomminus.mouseover" end="zoomminus.mouseout"/>
                        </use>
                        <path d="M-4,0h8" fill="none" stroke="white" stroke-width="1.5" pointer-events="none"/>
                </g>
                <g id="dirArrow">
                        <path fill="none" stroke="white" stroke-width="1.5" d="M0,-3.0v7 M-2.5,-0.5L0,-3.0L2.5,-0.5"/>
                </g>
               <g id="resetDef">
                       <use xlink:href="#rim2" fill="#404040">
                               <set attributeName="fill" to="#808080" begin="reset.mouseover" end="reset.mouseout"/>
                       </use>
               </g>
        </defs>

<script type="text/javascript">
var viewWidth = 1745;
var viewHeight = 437;
var sectionId = 'dynsection-0';
</script>
<script xlink:href="svgpan.js"/>
<svg id="graph" class="graph">
<g id="viewport">
<title>/Users/oskryp/Projects/freesee&#45;native&#45;client/libs/fcc_sdk/engine/meetingclient/src/webservices/WebAPIv4Wrapper.cxx</title>
<!-- Node0 -->
<g id="node1" class="node">
<title>Node0</title>
<g id="a_node1"><a xlink:title=" ">
<polygon fill="#bfbfbf" stroke="#000000" points="1259.895,-380.5 1259.895,-428.5 1455.0454,-428.5 1455.0454,-380.5 1259.895,-380.5"/>
<text text-anchor="start" x="1267.895" y="-416.5" font-family="Helvetica,sans-Serif" font-size="10.00" fill="#000000">/Users/oskryp/Projects</text>
<text text-anchor="start" x="1267.895" y="-406.5" font-family="Helvetica,sans-Serif" font-size="10.00" fill="#000000">/freesee&#45;native&#45;client</text>
<text text-anchor="start" x="1267.895" y="-396.5" font-family="Helvetica,sans-Serif" font-size="10.00" fill="#000000">/libs/fcc_sdk/engine/meetingclient</text>
<text text-anchor="middle" x="1357.4702" y="-386.5" font-family="Helvetica,sans-Serif" font-size="10.00" fill="#000000">/src/webservices/WebAPIv4Wrapper.cxx</text>
</a>
</g>
</g>
<!-- Node1 -->
<g id="node2" class="node">
<title>Node1</title>
<g id="a_node2"><a xlink:href="apiv4_8hxx.html" target="_top" xlink:title=" ">
<polygon fill="none" stroke="#000000" points="1085,-315.5 1085,-343.5 1219.9404,-343.5 1219.9404,-315.5 1085,-315.5"/>
<text text-anchor="start" x="1093" y="-331.5" font-family="Helvetica,sans-Serif" font-size="10.00" fill="#000000">MeetingClient/webservices</text>
<text text-anchor="middle" x="1152.4702" y="-321.5" font-family="Helvetica,sans-Serif" font-size="10.00" fill="#000000">/apiv4.hxx</text>
</a>
</g>
</g>
<!-- Node0&#45;&gt;Node1 -->
<g id="edge1" class="edge">
<title>Node0&#45;&gt;Node1</title>
<path fill="none" stroke="#191970" d="M1291.7611,-380.4601C1262.1389,-369.6227 1227.79,-357.056 1200.6139,-347.1136"/>
<polygon fill="#191970" stroke="#191970" points="1201.5421,-343.7263 1190.9483,-343.5773 1199.137,-350.3002 1201.5421,-343.7263"/>
</g>
<!-- Node6 -->
<g id="node7" class="node">
<title>Node6</title>
<g id="a_node7"><a xlink:href="uri__string_8hxx.html" target="_top" xlink:title=" ">
<polygon fill="none" stroke="#000000" points="0,-120.5 0,-148.5 134.9404,-148.5 134.9404,-120.5 0,-120.5"/>
<text text-anchor="start" x="8" y="-136.5" font-family="Helvetica,sans-Serif" font-size="10.00" fill="#000000">MeetingClient/webservices</text>
<text text-anchor="middle" x="67.4702" y="-126.5" font-family="Helvetica,sans-Serif" font-size="10.00" fill="#000000">/uri_string.hxx</text>
</a>
</g>
</g>
<!-- Node0&#45;&gt;Node6 -->
<g id="edge40" class="edge">
<title>Node0&#45;&gt;Node6</title>
<path fill="none" stroke="#191970" d="M1259.6611,-392.4948C1070.5446,-368.0828 642.4435,-306.9685 291.4702,-214 227.3641,-197.0191 155.4691,-170.0281 110.828,-152.287"/>
<polygon fill="#191970" stroke="#191970" points="112.0401,-149.0023 101.4554,-148.5388 109.4408,-155.5018 112.0401,-149.0023"/>
</g>
<!-- Node32 -->
<g id="node33" class="node">
<title>Node32</title>
<g id="a_node33"><a xlink:href="json__entities_8hxx.html" target="_top" xlink:title=" ">
<polygon fill="none" stroke="#000000" points="1362,-185.5 1362,-213.5 1496.9404,-213.5 1496.9404,-185.5 1362,-185.5"/>
<text text-anchor="start" x="1370" y="-201.5" font-family="Helvetica,sans-Serif" font-size="10.00" fill="#000000">MeetingClient/webservices</text>
<text text-anchor="middle" x="1429.4702" y="-191.5" font-family="Helvetica,sans-Serif" font-size="10.00" fill="#000000">/json_entities.hxx</text>
</a>
</g>
</g>
<!-- Node0&#45;&gt;Node32 -->
<g id="edge34" class="edge">
<title>Node0&#45;&gt;Node32</title>
<path fill="none" stroke="#191970" d="M1361.1352,-380.1847C1364.2395,-361.9632 1369.3314,-336.5638 1376.4702,-315 1387.4516,-281.8291 1405.1304,-245.4953 1417.0169,-222.6076"/>
<polygon fill="#191970" stroke="#191970" points="1420.1605,-224.1497 1421.7201,-213.6702 1413.9658,-220.8898 1420.1605,-224.1497"/>
</g>
<!-- Node34 -->
<g id="node35" class="node">
<title>Node34</title>
<g id="a_node35"><a xlink:href="_web_cache_guard_8hxx.html" target="_top" xlink:title=" ">
<polygon fill="none" stroke="#000000" points="1195,-250.5 1195,-278.5 1329.9404,-278.5 1329.9404,-250.5 1195,-250.5"/>
<text text-anchor="start" x="1203" y="-266.5" font-family="Helvetica,sans-Serif" font-size="10.00" fill="#000000">MeetingClient/webservices</text>
<text text-anchor="middle" x="1262.4702" y="-256.5" font-family="Helvetica,sans-Serif" font-size="10.00" fill="#000000">/WebCacheGuard.hxx</text>
</a>
</g>
</g>
<!-- Node0&#45;&gt;Node34 -->
<g id="edge38" class="edge">
<title>Node0&#45;&gt;Node34</title>
<path fill="none" stroke="#191970" d="M1341.1391,-380.4331C1323.3908,-354.2777 1295.2479,-312.804 1277.8726,-287.1983"/>
<polygon fill="#191970" stroke="#191970" points="1280.7217,-285.1636 1272.2105,-278.8541 1274.9294,-289.0941 1280.7217,-285.1636"/>
</g>
<!-- Node35 -->
<g id="node36" class="node">
<title>Node35</title>
<g id="a_node36"><a xlink:title=" ">
<polygon fill="none" stroke="#bfbfbf" points="1385.7979,-320.5 1385.7979,-338.5 1475.1426,-338.5 1475.1426,-320.5 1385.7979,-320.5"/>
<text text-anchor="middle" x="1430.4702" y="-326.5" font-family="Helvetica,sans-Serif" font-size="10.00" fill="#000000">NCrypt/MD5.hxx</text>
</a>
</g>
</g>
<!-- Node0&#45;&gt;Node35 -->
<g id="edge41" class="edge">
<title>Node0&#45;&gt;Node35</title>
<path fill="none" stroke="#191970" d="M1380.9697,-380.3567C1391.8886,-369.1387 1404.5929,-356.0863 1414.3971,-346.0134"/>
<polygon fill="#191970" stroke="#191970" points="1417.0819,-348.2732 1421.5487,-338.666 1412.0657,-343.3908 1417.0819,-348.2732"/>
</g>
<!-- Node36 -->
<g id="node37" class="node">
<title>Node36</title>
<g id="a_node37"><a xlink:title=" ">
<polygon fill="none" stroke="#bfbfbf" points="1492.6699,-315.5 1492.6699,-343.5 1604.2705,-343.5 1604.2705,-315.5 1492.6699,-315.5"/>
<text text-anchor="start" x="1500.6699" y="-331.5" font-family="Helvetica,sans-Serif" font-size="10.00" fill="#000000">boost/algorithm/string</text>
<text text-anchor="middle" x="1548.4702" y="-321.5" font-family="Helvetica,sans-Serif" font-size="10.00" fill="#000000">/join.hpp</text>
</a>
</g>
</g>
<!-- Node0&#45;&gt;Node36 -->
<g id="edge42" class="edge">
<title>Node0&#45;&gt;Node36</title>
<path fill="none" stroke="#191970" d="M1418.6919,-380.4601C1446.1701,-369.6702 1478.0136,-357.1662 1503.2808,-347.2445"/>
<polygon fill="#191970" stroke="#191970" points="1504.5911,-350.4903 1512.6199,-343.5773 1502.0325,-343.9746 1504.5911,-350.4903"/>
</g>
<!-- Node37 -->
<g id="node38" class="node">
<title>Node37</title>
<g id="a_node38"><a xlink:title=" ">
<polygon fill="none" stroke="#bfbfbf" points="1622.2734,-320.5 1622.2734,-338.5 1736.667,-338.5 1736.667,-320.5 1622.2734,-320.5"/>
<text text-anchor="middle" x="1679.4702" y="-326.5" font-family="Helvetica,sans-Serif" font-size="10.00" fill="#000000">boost/lexical_cast.hpp</text>
</a>
</g>
</g>
<!-- Node0&#45;&gt;Node37 -->
<g id="edge43" class="edge">
<title>Node0&#45;&gt;Node37</title>
<path fill="none" stroke="#191970" d="M1455.3923,-381.6921C1513.4841,-368.1614 1584.59,-351.5994 1630.9053,-340.8117"/>
<polygon fill="#191970" stroke="#191970" points="1631.7398,-344.2111 1640.6852,-338.5338 1630.1519,-337.3936 1631.7398,-344.2111"/>
</g>
<!-- Node2 -->
<g id="node3" class="node">
<title>Node2</title>
<g id="a_node3"><a xlink:href="result__builder_8hxx.html" target="_top" xlink:title=" ">
<polygon fill="none" stroke="#000000" points="1042,-250.5 1042,-278.5 1176.9404,-278.5 1176.9404,-250.5 1042,-250.5"/>
<text text-anchor="start" x="1050" y="-266.5" font-family="Helvetica,sans-Serif" font-size="10.00" fill="#000000">MeetingClient/webservices</text>
<text text-anchor="middle" x="1109.4702" y="-256.5" font-family="Helvetica,sans-Serif" font-size="10.00" fill="#000000">/result_builder.hxx</text>
</a>
</g>
</g>
<!-- Node1&#45;&gt;Node2 -->
<g id="edge2" class="edge">
<title>Node1&#45;&gt;Node2</title>
<path fill="none" stroke="#191970" d="M1143.1399,-315.396C1137.6741,-307.1338 1130.6437,-296.5065 1124.4221,-287.1017"/>
<polygon fill="#191970" stroke="#191970" points="1127.2188,-284.9856 1118.7824,-278.5765 1121.3807,-288.8478 1127.2188,-284.9856"/>
</g>
<!-- Node3 -->
<g id="node4" class="node">
<title>Node3</title>
<g id="a_node4"><a xlink:href="_h_t_t_p_request_8hxx.html" target="_top" xlink:title=" ">
<polygon fill="none" stroke="#000000" points="300.6626,-190.5 300.6626,-208.5 462.2778,-208.5 462.2778,-190.5 300.6626,-190.5"/>
<text text-anchor="middle" x="381.4702" y="-196.5" font-family="Helvetica,sans-Serif" font-size="10.00" fill="#000000">MeetingClient/HTTPRequest.hxx</text>
</a>
</g>
</g>
<!-- Node2&#45;&gt;Node3 -->
<g id="edge3" class="edge">
<title>Node2&#45;&gt;Node3</title>
<path fill="none" stroke="#191970" d="M1041.9614,-258.4724C910.593,-246.7431 620.5144,-220.8432 472.3819,-207.6171"/>
<polygon fill="#191970" stroke="#191970" points="472.6711,-204.1291 462.3995,-206.7258 472.0486,-211.1014 472.6711,-204.1291"/>
</g>
<!-- Node15 -->
<g id="node16" class="node">
<title>Node15</title>
<g id="a_node16"><a xlink:href="_web_services_a_p_i_8hxx.html" target="_top" xlink:title=" ">
<polygon fill="none" stroke="#000000" points="1122.1445,-185.5 1122.1445,-213.5 1260.7959,-213.5 1260.7959,-185.5 1122.1445,-185.5"/>
<text text-anchor="start" x="1130.1445" y="-201.5" font-family="Helvetica,sans-Serif" font-size="10.00" fill="#000000">MeetingClient/WebServices</text>
<text text-anchor="middle" x="1191.4702" y="-191.5" font-family="Helvetica,sans-Serif" font-size="10.00" fill="#000000">API.hxx</text>
</a>
</g>
</g>
<!-- Node2&#45;&gt;Node15 -->
<g id="edge15" class="edge">
<title>Node2&#45;&gt;Node15</title>
<path fill="none" stroke="#191970" d="M1127.263,-250.396C1138.5457,-241.4524 1153.3245,-229.7375 1165.8588,-219.8018"/>
<polygon fill="#191970" stroke="#191970" points="1168.0497,-222.5313 1173.7122,-213.5765 1163.7014,-217.0457 1168.0497,-222.5313"/>
</g>
<!-- Node19 -->
<g id="node20" class="node">
<title>Node19</title>
<g id="a_node20"><a xlink:href="_entities_8hxx.html" target="_top" xlink:title=" ">
<polygon fill="none" stroke="#000000" points="1378,-120.5 1378,-148.5 1512.9404,-148.5 1512.9404,-120.5 1378,-120.5"/>
<text text-anchor="start" x="1386" y="-136.5" font-family="Helvetica,sans-Serif" font-size="10.00" fill="#000000">MeetingClient/webservices</text>
<text text-anchor="middle" x="1445.4702" y="-126.5" font-family="Helvetica,sans-Serif" font-size="10.00" fill="#000000">/Entities.hxx</text>
</a>
</g>
</g>
<!-- Node2&#45;&gt;Node19 -->
<g id="edge33" class="edge">
<title>Node2&#45;&gt;Node19</title>
<path fill="none" stroke="#191970" d="M1159.3644,-250.4114C1191.1948,-241.0174 1233.1453,-227.8805 1269.4702,-214 1317.9946,-195.4578 1372.2492,-170.2403 1407.5245,-153.219"/>
<polygon fill="#191970" stroke="#191970" points="1409.4798,-156.1607 1416.9502,-148.6478 1406.4252,-149.8623 1409.4798,-156.1607"/>
</g>
<!-- Node4 -->
<g id="node5" class="node">
<title>Node4</title>
<g id="a_node5"><a xlink:title=" ">
<polygon fill="none" stroke="#bfbfbf" points="445.6133,-125.5 445.6133,-143.5 563.3271,-143.5 563.3271,-125.5 445.6133,-125.5"/>
<text text-anchor="middle" x="504.4702" y="-131.5" font-family="Helvetica,sans-Serif" font-size="10.00" fill="#000000">ASIO/HTTPLoader.hxx</text>
</a>
</g>
</g>
<!-- Node3&#45;&gt;Node4 -->
<g id="edge4" class="edge">
<title>Node3&#45;&gt;Node4</title>
<path fill="none" stroke="#191970" d="M398.5728,-190.462C419.2019,-179.5605 454.1016,-161.1176 478.1651,-148.4011"/>
<polygon fill="#191970" stroke="#191970" points="479.9103,-151.4376 487.1163,-143.6708 476.6396,-145.2486 479.9103,-151.4376"/>
</g>
<!-- Node5 -->
<g id="node6" class="node">
<title>Node5</title>
<g id="a_node6"><a xlink:title=" ">
<polygon fill="none" stroke="#bfbfbf" points="153.0049,-125.5 153.0049,-143.5 217.9355,-143.5 217.9355,-125.5 153.0049,-125.5"/>
<text text-anchor="middle" x="185.4702" y="-131.5" font-family="Helvetica,sans-Serif" font-size="10.00" fill="#000000">Logger.hxx</text>
</a>
</g>
</g>
<!-- Node3&#45;&gt;Node5 -->
<g id="edge5" class="edge">
<title>Node3&#45;&gt;Node5</title>
<path fill="none" stroke="#191970" d="M353.116,-190.4963C321.9832,-180.5557 270.5532,-163.9738 226.4702,-149 224.5936,-148.3626 222.6708,-147.7034 220.7309,-147.0337"/>
<polygon fill="#191970" stroke="#191970" points="221.6199,-143.637 211.0251,-143.6485 219.3146,-150.2465 221.6199,-143.637"/>
</g>
<!-- Node3&#45;&gt;Node6 -->
<g id="edge6" class="edge">
<title>Node3&#45;&gt;Node6</title>
<path fill="none" stroke="#191970" d="M337.8099,-190.462C288.0862,-180.1689 205.8852,-163.1528 145.1564,-150.5815"/>
<polygon fill="#191970" stroke="#191970" points="145.7249,-147.1251 135.223,-148.5253 144.3059,-153.9798 145.7249,-147.1251"/>
</g>
<!-- Node9 -->
<g id="node10" class="node">
<title>Node9</title>
<g id="a_node10"><a xlink:title=" ">
<polygon fill="none" stroke="#bfbfbf" points="235.9458,-125.5 235.9458,-143.5 316.9946,-143.5 316.9946,-125.5 235.9458,-125.5"/>
<text text-anchor="middle" x="276.4702" y="-131.5" font-family="Helvetica,sans-Serif" font-size="10.00" fill="#000000">boost/asio.hpp</text>
</a>
</g>
</g>
<!-- Node3&#45;&gt;Node9 -->
<g id="edge9" class="edge">
<title>Node3&#45;&gt;Node9</title>
<path fill="none" stroke="#191970" d="M366.8704,-190.462C349.5719,-179.7534 320.5186,-161.7681 300.0251,-149.0816"/>
<polygon fill="#191970" stroke="#191970" points="301.6294,-145.9584 291.2845,-143.6708 297.9449,-151.9103 301.6294,-145.9584"/>
</g>
<!-- Node10 -->
<g id="node11" class="node">
<title>Node10</title>
<g id="a_node11"><a xlink:title=" ">
<polygon fill="none" stroke="#bfbfbf" points="335.3916,-125.5 335.3916,-143.5 427.5488,-143.5 427.5488,-125.5 335.3916,-125.5"/>
<text text-anchor="middle" x="381.4702" y="-131.5" font-family="Helvetica,sans-Serif" font-size="10.00" fill="#000000">boost/atomic.hpp</text>
</a>
</g>
</g>
<!-- Node3&#45;&gt;Node10 -->
<g id="edge10" class="edge">
<title>Node3&#45;&gt;Node10</title>
<path fill="none" stroke="#191970" d="M381.4702,-190.462C381.4702,-181.061 381.4702,-166.0518 381.4702,-153.943"/>
<polygon fill="#191970" stroke="#191970" points="384.9703,-153.8821 381.4702,-143.8821 377.9703,-153.8822 384.9703,-153.8821"/>
</g>
<!-- Node11 -->
<g id="node12" class="node">
<title>Node11</title>
<g id="a_node12"><a xlink:href="_s_c_upload_data_8hxx.html" target="_top" xlink:title=" ">
<polygon fill="none" stroke="#000000" points="580.9878,-125.5 580.9878,-143.5 745.9526,-143.5 745.9526,-125.5 580.9878,-125.5"/>
<text text-anchor="middle" x="663.4702" y="-131.5" font-family="Helvetica,sans-Serif" font-size="10.00" fill="#000000">MeetingClient/SCUploadData.hxx</text>
</a>
</g>
</g>
<!-- Node3&#45;&gt;Node11 -->
<g id="edge11" class="edge">
<title>Node3&#45;&gt;Node11</title>
<path fill="none" stroke="#191970" d="M420.6811,-190.462C471.2587,-178.8041 559.2517,-158.522 614.2666,-145.8413"/>
<polygon fill="#191970" stroke="#191970" points="615.1805,-149.2225 624.1388,-143.5658 613.6082,-142.4013 615.1805,-149.2225"/>
</g>
<!-- Node7 -->
<g id="node8" class="node">
<title>Node7</title>
<g id="a_node8"><a xlink:title=" ">
<polygon fill="none" stroke="#bfbfbf" points="7.6895,-60.5 7.6895,-78.5 59.251,-78.5 59.251,-60.5 7.6895,-60.5"/>
<text text-anchor="middle" x="33.4702" y="-66.5" font-family="Helvetica,sans-Serif" font-size="10.00" fill="#000000">sstream</text>
</a>
</g>
</g>
<!-- Node6&#45;&gt;Node7 -->
<g id="edge7" class="edge">
<title>Node6&#45;&gt;Node7</title>
<path fill="none" stroke="#191970" d="M60.0927,-120.396C55.0605,-110.7756 48.3511,-97.9487 42.9268,-87.5788"/>
<polygon fill="#191970" stroke="#191970" points="45.9532,-85.813 38.2168,-78.5743 39.7505,-89.0576 45.9532,-85.813"/>
</g>
<!-- Node8 -->
<g id="node9" class="node">
<title>Node8</title>
<g id="a_node9"><a xlink:title=" ">
<polygon fill="none" stroke="#bfbfbf" points="76.9604,-60.5 76.9604,-78.5 127.98,-78.5 127.98,-60.5 76.9604,-60.5"/>
<text text-anchor="middle" x="102.4702" y="-66.5" font-family="Helvetica,sans-Serif" font-size="10.00" fill="#000000">iomanip</text>
</a>
</g>
</g>
<!-- Node6&#45;&gt;Node8 -->
<g id="edge8" class="edge">
<title>Node6&#45;&gt;Node8</title>
<path fill="none" stroke="#191970" d="M75.0647,-120.396C80.2449,-110.7756 87.1517,-97.9487 92.7355,-87.5788"/>
<polygon fill="#191970" stroke="#191970" points="95.9247,-89.0384 97.584,-78.5743 89.7613,-85.7197 95.9247,-89.0384"/>
</g>
<!-- Node12 -->
<g id="node13" class="node">
<title>Node12</title>
<g id="a_node13"><a xlink:title=" ">
<polygon fill="none" stroke="#bfbfbf" points="518.2109,-60.5 518.2109,-78.5 600.7295,-78.5 600.7295,-60.5 518.2109,-60.5"/>
<text text-anchor="middle" x="559.4702" y="-66.5" font-family="Helvetica,sans-Serif" font-size="10.00" fill="#000000">Utils/Buffer.hxx</text>
</a>
</g>
</g>
<!-- Node11&#45;&gt;Node12 -->
<g id="edge12" class="edge">
<title>Node11&#45;&gt;Node12</title>
<path fill="none" stroke="#191970" d="M649.0095,-125.462C631.8757,-114.7534 603.0991,-96.7681 582.8008,-84.0816"/>
<polygon fill="#191970" stroke="#191970" points="584.4784,-81.0028 574.1434,-78.6708 580.7684,-86.9388 584.4784,-81.0028"/>
</g>
<!-- Node13 -->
<g id="node14" class="node">
<title>Node13</title>
<g id="a_node14"><a xlink:title=" ">
<polygon fill="none" stroke="#bfbfbf" points="618.793,-60.5 618.793,-78.5 708.1475,-78.5 708.1475,-60.5 618.793,-60.5"/>
<text text-anchor="middle" x="663.4702" y="-66.5" font-family="Helvetica,sans-Serif" font-size="10.00" fill="#000000">Utils/EString.hxx</text>
</a>
</g>
</g>
<!-- Node11&#45;&gt;Node13 -->
<g id="edge13" class="edge">
<title>Node11&#45;&gt;Node13</title>
<path fill="none" stroke="#191970" d="M663.4702,-125.462C663.4702,-116.061 663.4702,-101.0518 663.4702,-88.943"/>
<polygon fill="#191970" stroke="#191970" points="666.9703,-88.8821 663.4702,-78.8821 659.9703,-88.8822 666.9703,-88.8821"/>
</g>
<!-- Node14 -->
<g id="node15" class="node">
<title>Node14</title>
<g id="a_node15"><a xlink:title=" ">
<polygon fill="none" stroke="#bfbfbf" points="454.7388,-60.5 454.7388,-78.5 500.2017,-78.5 500.2017,-60.5 454.7388,-60.5"/>
<text text-anchor="middle" x="477.4702" y="-66.5" font-family="Helvetica,sans-Serif" font-size="10.00" fill="#000000">stdio.h</text>
</a>
</g>
</g>
<!-- Node11&#45;&gt;Node14 -->
<g id="edge14" class="edge">
<title>Node11&#45;&gt;Node14</title>
<path fill="none" stroke="#191970" d="M632.7362,-125.4983C601.4022,-116.0706 551.5549,-100.3793 509.4702,-84 508.2872,-83.5396 507.0851,-83.0582 505.8748,-82.5623"/>
<polygon fill="#191970" stroke="#191970" points="507.1862,-79.3164 496.6168,-78.5835 504.4223,-85.7477 507.1862,-79.3164"/>
</g>
<!-- Node16 -->
<g id="node17" class="node">
<title>Node16</title>
<g id="a_node17"><a xlink:href="_common_data_types_8hxx.html" target="_top" xlink:title=" ">
<polygon fill="none" stroke="#000000" points="1199.7241,-55.5 1199.7241,-83.5 1325.2163,-83.5 1325.2163,-55.5 1199.7241,-55.5"/>
<text text-anchor="start" x="1207.7241" y="-71.5" font-family="Helvetica,sans-Serif" font-size="10.00" fill="#000000">MeetingClient/types</text>
<text text-anchor="middle" x="1262.4702" y="-61.5" font-family="Helvetica,sans-Serif" font-size="10.00" fill="#000000">/CommonDataTypes.hxx</text>
</a>
</g>
</g>
<!-- Node15&#45;&gt;Node16 -->
<g id="edge16" class="edge">
<title>Node15&#45;&gt;Node16</title>
<path fill="none" stroke="#191970" d="M1170.3976,-185.4451C1149.2855,-169.5724 1121.982,-142.9617 1137.4702,-120 1145.4609,-108.1536 1174.2662,-96.1193 1202.2125,-86.7713"/>
<polygon fill="#191970" stroke="#191970" points="1203.5977,-90.0013 1212.026,-83.5815 1201.4338,-83.3442 1203.5977,-90.0013"/>
</g>
<!-- Node15&#45;&gt;Node19 -->
<g id="edge19" class="edge">
<title>Node15&#45;&gt;Node19</title>
<path fill="none" stroke="#191970" d="M1246.2717,-185.476C1285.6958,-175.3871 1339.0194,-161.7413 1380.5749,-151.1071"/>
<polygon fill="#191970" stroke="#191970" points="1381.509,-154.4809 1390.3291,-148.6109 1379.7735,-147.6994 1381.509,-154.4809"/>
</g>
<!-- Node23 -->
<g id="node24" class="node">
<title>Node23</title>
<g id="a_node24"><a xlink:href="_web_parameters_8hxx.html" target="_top" xlink:title=" ">
<polygon fill="none" stroke="#000000" points="956,-120.5 956,-148.5 1090.9404,-148.5 1090.9404,-120.5 956,-120.5"/>
<text text-anchor="start" x="964" y="-136.5" font-family="Helvetica,sans-Serif" font-size="10.00" fill="#000000">MeetingClient/webservices</text>
<text text-anchor="middle" x="1023.4702" y="-126.5" font-family="Helvetica,sans-Serif" font-size="10.00" fill="#000000">/WebParameters.hxx</text>
</a>
</g>
</g>
<!-- Node15&#45;&gt;Node23 -->
<g id="edge23" class="edge">
<title>Node15&#45;&gt;Node23</title>
<path fill="none" stroke="#191970" d="M1155.0167,-185.396C1129.9196,-175.6858 1096.3792,-162.7088 1069.4478,-152.2889"/>
<polygon fill="#191970" stroke="#191970" points="1070.4418,-148.9208 1059.8526,-148.5765 1067.9159,-155.4492 1070.4418,-148.9208"/>
</g>
<!-- Node30 -->
<g id="node31" class="node">
<title>Node30</title>
<g id="a_node31"><a xlink:title=" ">
<polygon fill="none" stroke="#bfbfbf" points="1146.5098,-125.5 1146.5098,-143.5 1236.4307,-143.5 1236.4307,-125.5 1146.5098,-125.5"/>
<text text-anchor="middle" x="1191.4702" y="-131.5" font-family="Helvetica,sans-Serif" font-size="10.00" fill="#000000">Utils/Version.hxx</text>
</a>
</g>
</g>
<!-- Node15&#45;&gt;Node30 -->
<g id="edge31" class="edge">
<title>Node15&#45;&gt;Node30</title>
<path fill="none" stroke="#191970" d="M1191.4702,-185.396C1191.4702,-176.1723 1191.4702,-164.0011 1191.4702,-153.8738"/>
<polygon fill="#191970" stroke="#191970" points="1194.9703,-153.5743 1191.4702,-143.5743 1187.9703,-153.5743 1194.9703,-153.5743"/>
</g>
<!-- Node31 -->
<g id="node32" class="node">
<title>Node31</title>
<g id="a_node32"><a xlink:href="macros_8hxx.html" target="_top" xlink:title=" ">
<polygon fill="none" stroke="#000000" points="1254.9087,-125.5 1254.9087,-143.5 1322.0317,-143.5 1322.0317,-125.5 1254.9087,-125.5"/>
<text text-anchor="middle" x="1288.4702" y="-131.5" font-family="Helvetica,sans-Serif" font-size="10.00" fill="#000000">macros.hxx</text>
</a>
</g>
</g>
<!-- Node15&#45;&gt;Node31 -->
<g id="edge32" class="edge">
<title>Node15&#45;&gt;Node31</title>
<path fill="none" stroke="#191970" d="M1212.5178,-185.396C1228.5024,-174.6846 1250.419,-159.9983 1266.602,-149.154"/>
<polygon fill="#191970" stroke="#191970" points="1268.5696,-152.0487 1274.9286,-143.5743 1264.6729,-146.2335 1268.5696,-152.0487"/>
</g>
<!-- Node17 -->
<g id="node18" class="node">
<title>Node17</title>
<g id="a_node18"><a xlink:title=" ">
<polygon fill="none" stroke="#bfbfbf" points="1197.2437,-.5 1197.2437,-18.5 1237.6968,-18.5 1237.6968,-.5 1197.2437,-.5"/>
<text text-anchor="middle" x="1217.4702" y="-6.5" font-family="Helvetica,sans-Serif" font-size="10.00" fill="#000000">string</text>
</a>
</g>
</g>
<!-- Node16&#45;&gt;Node17 -->
<g id="edge17" class="edge">
<title>Node16&#45;&gt;Node17</title>
<path fill="none" stroke="#191970" d="M1251.8058,-55.2808C1245.4122,-46.756 1237.2361,-35.8545 1230.4663,-26.8281"/>
<polygon fill="#191970" stroke="#191970" points="1233.0834,-24.4842 1224.2834,-18.5842 1227.4834,-28.6842 1233.0834,-24.4842"/>
</g>
<!-- Node18 -->
<g id="node19" class="node">
<title>Node18</title>
<g id="a_node19"><a xlink:title=" ">
<polygon fill="none" stroke="#bfbfbf" points="1255.6748,-.5 1255.6748,-18.5 1357.2656,-18.5 1357.2656,-.5 1255.6748,-.5"/>
<text text-anchor="middle" x="1306.4702" y="-6.5" font-family="Helvetica,sans-Serif" font-size="10.00" fill="#000000">CommonTypes.hxx</text>
</a>
</g>
</g>
<!-- Node16&#45;&gt;Node18 -->
<g id="edge18" class="edge">
<title>Node16&#45;&gt;Node18</title>
<path fill="none" stroke="#191970" d="M1272.8976,-55.2808C1279.1492,-46.756 1287.1436,-35.8545 1293.763,-26.8281"/>
<polygon fill="#191970" stroke="#191970" points="1296.7172,-28.718 1299.8085,-18.5842 1291.0724,-24.5785 1296.7172,-28.718"/>
</g>
<!-- Node20 -->
<g id="node21" class="node">
<title>Node20</title>
<g id="a_node21"><a xlink:title=" ">
<polygon fill="none" stroke="#bfbfbf" points="1587.5664,-60.5 1587.5664,-78.5 1661.374,-78.5 1661.374,-60.5 1587.5664,-60.5"/>
<text text-anchor="middle" x="1624.4702" y="-66.5" font-family="Helvetica,sans-Serif" font-size="10.00" fill="#000000">Printable.hxx</text>
</a>
</g>
</g>
<!-- Node19&#45;&gt;Node20 -->
<g id="edge20" class="edge">
<title>Node19&#45;&gt;Node20</title>
<path fill="none" stroke="#191970" d="M1484.3105,-120.396C1515.7197,-108.9904 1559.5407,-93.0778 1589.783,-82.0959"/>
<polygon fill="#191970" stroke="#191970" points="1591.2761,-85.2774 1599.481,-78.5743 1588.8869,-78.6978 1591.2761,-85.2774"/>
</g>
<!-- Node21 -->
<g id="node22" class="node">
<title>Node21</title>
<g id="a_node22"><a xlink:title=" ">
<polygon fill="none" stroke="#bfbfbf" points="1343.606,-60.5 1343.606,-78.5 1441.3345,-78.5 1441.3345,-60.5 1343.606,-60.5"/>
<text text-anchor="middle" x="1392.4702" y="-66.5" font-family="Helvetica,sans-Serif" font-size="10.00" fill="#000000">boost/function.hpp</text>
</a>
</g>
</g>
<!-- Node19&#45;&gt;Node21 -->
<g id="edge21" class="edge">
<title>Node19&#45;&gt;Node21</title>
<path fill="none" stroke="#191970" d="M1433.97,-120.396C1425.8831,-110.4781 1415.0174,-97.1522 1406.4328,-86.6239"/>
<polygon fill="#191970" stroke="#191970" points="1408.9013,-84.1127 1399.8693,-78.5743 1403.4761,-88.5363 1408.9013,-84.1127"/>
</g>
<!-- Node22 -->
<g id="node23" class="node">
<title>Node22</title>
<g id="a_node23"><a xlink:title=" ">
<polygon fill="none" stroke="#bfbfbf" points="1459.4878,-60.5 1459.4878,-78.5 1569.4526,-78.5 1569.4526,-60.5 1459.4878,-60.5"/>
<text text-anchor="middle" x="1514.4702" y="-66.5" font-family="Helvetica,sans-Serif" font-size="10.00" fill="#000000">boost/shared_ptr.hpp</text>
</a>
</g>
</g>
<!-- Node19&#45;&gt;Node22 -->
<g id="edge22" class="edge">
<title>Node19&#45;&gt;Node22</title>
<path fill="none" stroke="#191970" d="M1460.4422,-120.396C1471.2863,-110.1805 1485.9683,-96.3496 1497.2902,-85.6841"/>
<polygon fill="#191970" stroke="#191970" points="1499.9585,-87.9789 1504.8375,-78.5743 1495.1586,-82.8836 1499.9585,-87.9789"/>
</g>
<!-- Node23&#45;&gt;Node16 -->
<g id="edge26" class="edge">
<title>Node23&#45;&gt;Node16</title>
<path fill="none" stroke="#191970" d="M1075.0354,-120.476C1111.9748,-110.4297 1161.8827,-96.8564 1200.9117,-86.2418"/>
<polygon fill="#191970" stroke="#191970" points="1201.8545,-89.6127 1210.5855,-83.6109 1200.0174,-82.858 1201.8545,-89.6127"/>
</g>
<!-- Node24 -->
<g id="node25" class="node">
<title>Node24</title>
<g id="a_node25"><a xlink:title=" ">
<polygon fill="none" stroke="#bfbfbf" points="1099.7437,-60.5 1099.7437,-78.5 1135.1968,-78.5 1135.1968,-60.5 1099.7437,-60.5"/>
<text text-anchor="middle" x="1117.4702" y="-66.5" font-family="Helvetica,sans-Serif" font-size="10.00" fill="#000000">map</text>
</a>
</g>
</g>
<!-- Node23&#45;&gt;Node24 -->
<g id="edge24" class="edge">
<title>Node23&#45;&gt;Node24</title>
<path fill="none" stroke="#191970" d="M1043.8668,-120.396C1059.2136,-109.7838 1080.203,-95.2699 1095.8413,-84.4562"/>
<polygon fill="#191970" stroke="#191970" points="1098.1129,-87.1407 1104.3474,-78.5743 1094.1316,-81.3831 1098.1129,-87.1407"/>
</g>
<!-- Node25 -->
<g id="node26" class="node">
<title>Node25</title>
<g id="a_node26"><a xlink:title=" ">
<polygon fill="none" stroke="#bfbfbf" points="1152.9702,-60.5 1152.9702,-78.5 1181.9702,-78.5 1181.9702,-60.5 1152.9702,-60.5"/>
<text text-anchor="middle" x="1167.0811" y="-66.5" font-family="Helvetica,sans-Serif" font-size="10.00" fill="#000000">list</text>
</a>
</g>
</g>
<!-- Node23&#45;&gt;Node25 -->
<g id="edge25" class="edge">
<title>Node23&#45;&gt;Node25</title>
<path fill="none" stroke="#191970" d="M1061.547,-120.4964C1085.7541,-111.1358 1117.5007,-98.0042 1144.4702,-84 1144.5645,-83.9511 1144.6588,-83.9019 1144.7533,-83.8524"/>
<polygon fill="#191970" stroke="#191970" points="1146.6553,-86.7961 1153.5794,-78.7769 1143.1658,-80.7279 1146.6553,-86.7961"/>
</g>
<!-- Node26 -->
<g id="node27" class="node">
<title>Node26</title>
<g id="a_node27"><a xlink:href="opt__value_8hxx.html" target="_top" xlink:title=" ">
<polygon fill="none" stroke="#000000" points="726.6182,-55.5 726.6182,-83.5 824.3223,-83.5 824.3223,-55.5 726.6182,-55.5"/>
<text text-anchor="start" x="734.6182" y="-71.5" font-family="Helvetica,sans-Serif" font-size="10.00" fill="#000000">MeetingClient/utils</text>
<text text-anchor="middle" x="775.4702" y="-61.5" font-family="Helvetica,sans-Serif" font-size="10.00" fill="#000000">/opt_value.hxx</text>
</a>
</g>
</g>
<!-- Node23&#45;&gt;Node26 -->
<g id="edge27" class="edge">
<title>Node23&#45;&gt;Node26</title>
<path fill="none" stroke="#191970" d="M969.9632,-120.476C930.1046,-110.0292 875.6947,-95.7685 834.5582,-84.9868"/>
<polygon fill="#191970" stroke="#191970" points="835.2297,-81.5446 824.6691,-82.3949 833.455,-88.3159 835.2297,-81.5446"/>
</g>
<!-- Node28 -->
<g id="node29" class="node">
<title>Node28</title>
<g id="a_node29"><a xlink:title=" ">
<polygon fill="none" stroke="#bfbfbf" points="841.9951,-55.5 841.9951,-83.5 946.9453,-83.5 946.9453,-55.5 841.9951,-55.5"/>
<text text-anchor="start" x="849.9951" y="-71.5" font-family="Helvetica,sans-Serif" font-size="10.00" fill="#000000">boost/thread/shared</text>
<text text-anchor="middle" x="894.4702" y="-61.5" font-family="Helvetica,sans-Serif" font-size="10.00" fill="#000000">_mutex.hpp</text>
</a>
</g>
</g>
<!-- Node23&#45;&gt;Node28 -->
<g id="edge29" class="edge">
<title>Node23&#45;&gt;Node28</title>
<path fill="none" stroke="#191970" d="M995.4791,-120.396C976.7153,-110.9413 951.8049,-98.3896 931.4173,-88.1168"/>
<polygon fill="#191970" stroke="#191970" points="932.912,-84.9507 922.4067,-83.5765 929.7621,-91.202 932.912,-84.9507"/>
</g>
<!-- Node29 -->
<g id="node30" class="node">
<title>Node29</title>
<g id="a_node30"><a xlink:title=" ">
<polygon fill="none" stroke="#bfbfbf" points="965.1602,-60.5 965.1602,-78.5 1081.7803,-78.5 1081.7803,-60.5 965.1602,-60.5"/>
<text text-anchor="middle" x="1023.4702" y="-66.5" font-family="Helvetica,sans-Serif" font-size="10.00" fill="#000000">boost/thread/locks.hpp</text>
</a>
</g>
</g>
<!-- Node23&#45;&gt;Node29 -->
<g id="edge30" class="edge">
<title>Node23&#45;&gt;Node29</title>
<path fill="none" stroke="#191970" d="M1023.4702,-120.396C1023.4702,-111.1723 1023.4702,-99.0011 1023.4702,-88.8738"/>
<polygon fill="#191970" stroke="#191970" points="1026.9703,-88.5743 1023.4702,-78.5743 1019.9703,-88.5743 1026.9703,-88.5743"/>
</g>
<!-- Node27 -->
<g id="node28" class="node">
<title>Node27</title>
<g id="a_node28"><a xlink:title=" ">
<polygon fill="none" stroke="#bfbfbf" points="739.1279,-.5 739.1279,-18.5 811.8125,-18.5 811.8125,-.5 739.1279,-.5"/>
<text text-anchor="middle" x="775.4702" y="-6.5" font-family="Helvetica,sans-Serif" font-size="10.00" fill="#000000">initializer_list</text>
</a>
</g>
</g>
<!-- Node26&#45;&gt;Node27 -->
<g id="edge28" class="edge">
<title>Node26&#45;&gt;Node27</title>
<path fill="none" stroke="#191970" d="M775.4702,-55.2808C775.4702,-47.3776 775.4702,-37.4316 775.4702,-28.8308"/>
<polygon fill="#191970" stroke="#191970" points="778.9703,-28.5842 775.4702,-18.5842 771.9703,-28.5842 778.9703,-28.5842"/>
</g>
<!-- Node32&#45;&gt;Node16 -->
<g id="edge35" class="edge">
<title>Node32&#45;&gt;Node16</title>
<path fill="none" stroke="#191970" d="M1412.6789,-185.4536C1393.3228,-169.3617 1360.4478,-142.3358 1331.4702,-120 1318.1917,-109.765 1303.2,-98.7321 1290.5912,-89.5972"/>
<polygon fill="#191970" stroke="#191970" points="1292.4503,-86.6227 1282.2929,-83.6095 1288.3543,-92.2992 1292.4503,-86.6227"/>
</g>
<!-- Node32&#45;&gt;Node19 -->
<g id="edge36" class="edge">
<title>Node32&#45;&gt;Node19</title>
<path fill="none" stroke="#191970" d="M1432.942,-185.396C1434.8709,-177.5597 1437.3236,-167.5958 1439.5464,-158.5653"/>
<polygon fill="#191970" stroke="#191970" points="1443.0135,-159.1233 1442.0052,-148.5765 1436.2164,-157.4501 1443.0135,-159.1233"/>
</g>
<!-- Node33 -->
<g id="node34" class="node">
<title>Node33</title>
<g id="a_node34"><a xlink:title=" ">
<polygon fill="none" stroke="#bfbfbf" points="1530.6626,-125.5 1530.6626,-143.5 1642.2778,-143.5 1642.2778,-125.5 1530.6626,-125.5"/>
<text text-anchor="middle" x="1586.4702" y="-131.5" font-family="Helvetica,sans-Serif" font-size="10.00" fill="#000000">rapidjson/document.h</text>
</a>
</g>
</g>
<!-- Node32&#45;&gt;Node33 -->
<g id="edge37" class="edge">
<title>Node32&#45;&gt;Node33</title>
<path fill="none" stroke="#191970" d="M1463.5369,-185.396C1490.7264,-174.1392 1528.52,-158.4921 1555.0022,-147.5281"/>
<polygon fill="#191970" stroke="#191970" points="1556.6517,-150.6334 1564.5523,-143.5743 1553.974,-144.1658 1556.6517,-150.6334"/>
</g>
<!-- Node34&#45;&gt;Node15 -->
<g id="edge39" class="edge">
<title>Node34&#45;&gt;Node15</title>
<path fill="none" stroke="#191970" d="M1247.0643,-250.396C1237.4812,-241.6227 1224.9852,-230.1827 1214.2682,-220.3714"/>
<polygon fill="#191970" stroke="#191970" points="1216.5854,-217.7475 1206.8461,-213.5765 1211.8586,-222.9106 1216.5854,-217.7475"/>
</g>
</g>
</svg>
        <g id="navigator" transform="translate(0 0)" fill="#404254">
                <rect fill="#f2f5e9" fill-opacity="0.5" stroke="#606060" stroke-width=".5" x="0" y="0" width="60" height="60"/>
                <use id="zoomplus" xlink:href="#zoomPlus" x="17" y="9" onmousedown="handleZoom(evt,'in')"/>
                <use id="zoomminus" xlink:href="#zoomMin" x="42" y="9" onmousedown="handleZoom(evt,'out')"/>
                <use id="reset" xlink:href="#resetDef" x="30" y="36" onmousedown="handleReset()"/>
                <g id="arrowUp" xlink:href="#dirArrow" transform="translate(30 24)" onmousedown="handlePan(0,-1)">
                  <use xlink:href="#rim" fill="#404040">
                        <set attributeName="fill" to="#808080" begin="arrowUp.mouseover" end="arrowUp.mouseout"/>
                  </use>
                  <path fill="none" stroke="white" stroke-width="1.5" d="M0,-3.0v7 M-2.5,-0.5L0,-3.0L2.5,-0.5"/>
                </g>
                <g id="arrowRight" xlink:href="#dirArrow" transform="rotate(90) translate(36 -43)" onmousedown="handlePan(1,0)">
                  <use xlink:href="#rim" fill="#404040">
                        <set attributeName="fill" to="#808080" begin="arrowRight.mouseover" end="arrowRight.mouseout"/>
                  </use>
                  <path fill="none" stroke="white" stroke-width="1.5" d="M0,-3.0v7 M-2.5,-0.5L0,-3.0L2.5,-0.5"/>
                </g>
                <g id="arrowDown" xlink:href="#dirArrow" transform="rotate(180) translate(-30 -48)" onmousedown="handlePan(0,1)">
                  <use xlink:href="#rim" fill="#404040">
                        <set attributeName="fill" to="#808080" begin="arrowDown.mouseover" end="arrowDown.mouseout"/>
                  </use>
                  <path fill="none" stroke="white" stroke-width="1.5" d="M0,-3.0v7 M-2.5,-0.5L0,-3.0L2.5,-0.5"/>
                </g>
                <g id="arrowLeft" xlink:href="#dirArrow" transform="rotate(270) translate(-36 17)" onmousedown="handlePan(-1,0)">
                  <use xlink:href="#rim" fill="#404040">
                        <set attributeName="fill" to="#808080" begin="arrowLeft.mouseover" end="arrowLeft.mouseout"/>
                  </use>
                  <path fill="none" stroke="white" stroke-width="1.5" d="M0,-3.0v7 M-2.5,-0.5L0,-3.0L2.5,-0.5"/>
                </g>
        </g>
        <svg viewBox="0 0 15 15" width="100%" height="30px" preserveAspectRatio="xMaxYMin meet">
         <g id="arrow_out" transform="scale(0.3 0.3)">
          <a xlink:href="_web_a_p_iv4_wrapper_8cxx__incl_org.svg" target="_base">
           <rect id="button" ry="5" rx="5" y="6" x="6" height="38" width="38"
                fill="#f2f5e9" fill-opacity="0.5" stroke="#606060" stroke-width="1.0"/>
           <path id="arrow"
             d="M 11.500037,31.436501 C 11.940474,20.09759 22.043105,11.32322 32.158766,21.979434 L 37.068811,17.246167 C 37.068811,17.246167 37.088388,32 37.088388,32 L 22.160133,31.978069 C 22.160133,31.978069 26.997745,27.140456 26.997745,27.140456 C 18.528582,18.264221 13.291696,25.230495 11.500037,31.436501 z"
             style="fill:#404040;"/>
          </a>
         </g>
        </svg>
</svg>
