<?xml version="1.0" encoding="UTF-8" standalone="no"?>
<!DOCTYPE svg PUBLIC "-//W3C//DTD SVG 1.1//EN"
 "http://www.w3.org/Graphics/SVG/1.1/DTD/svg11.dtd">
<!-- Generated by graphviz version 2.40.1 (20161225.0304)
 -->
<!-- Title: /Users/oskryp/Projects/freesee&#45;native&#45;client/libs/fcc_sdk/engine/meetingclient/src/headers/MeetingClient/webservices/WebServiceProxy.hxx Pages: 1 -->
<!--zoomable 382 -->
<svg id="main" version="1.1" xmlns="http://www.w3.org/2000/svg" xmlns:xlink="http://www.w3.org/1999/xlink" xml:space="preserve" onload="init(evt)">
<style type="text/css"><![CDATA[
.edge:hover path { stroke: red; }
.edge:hover polygon { stroke: red; fill: red; }
]]></style>
<script type="text/javascript"><![CDATA[
var edges = document.getElementsByTagName('g');
if (edges && edges.length) {
  for (var i=0;i<edges.length;i++) {
    if (edges[i].id.substr(0,4)=='edge') {
      edges[i].setAttribute('class','edge');
    }
  }
}
]]></script>
        <defs>
                <circle id="rim" cx="0" cy="0" r="7"/>
                <circle id="rim2" cx="0" cy="0" r="3.5"/>
                <g id="zoomPlus">
                        <use xlink:href="#rim" fill="#404040">
                                <set attributeName="fill" to="#808080" begin="zoomplus.mouseover" end="zoomplus.mouseout"/>
                        </use>
                        <path d="M-4,0h8M0,-4v8" fill="none" stroke="white" stroke-width="1.5" pointer-events="none"/>
                </g>
                <g id="zoomMin">
                        <use xlink:href="#rim" fill="#404040">
                                <set attributeName="fill" to="#808080" begin="zoomminus.mouseover" end="zoomminus.mouseout"/>
                        </use>
                        <path d="M-4,0h8" fill="none" stroke="white" stroke-width="1.5" pointer-events="none"/>
                </g>
                <g id="dirArrow">
                        <path fill="none" stroke="white" stroke-width="1.5" d="M0,-3.0v7 M-2.5,-0.5L0,-3.0L2.5,-0.5"/>
                </g>
               <g id="resetDef">
                       <use xlink:href="#rim2" fill="#404040">
                               <set attributeName="fill" to="#808080" begin="reset.mouseover" end="reset.mouseout"/>
                       </use>
               </g>
        </defs>

<script type="text/javascript">
var viewWidth = 1567;
var viewHeight = 382;
var sectionId = 'dynsection-0';
</script>
<script xlink:href="svgpan.js"/>
<svg id="graph" class="graph">
<g id="viewport">
<title>/Users/oskryp/Projects/freesee&#45;native&#45;client/libs/fcc_sdk/engine/meetingclient/src/headers/MeetingClient/webservices/WebServiceProxy.hxx</title>
<!-- Node0 -->
<g id="node1" class="node">
<title>Node0</title>
<g id="a_node1"><a xlink:title=" ">
<polygon fill="#bfbfbf" stroke="#000000" points="450.4238,-315.5 450.4238,-373.5 643.167,-373.5 643.167,-315.5 450.4238,-315.5"/>
<text text-anchor="start" x="458.4238" y="-361.5" font-family="Helvetica,sans-Serif" font-size="10.00" fill="#000000">/Users/oskryp/Projects</text>
<text text-anchor="start" x="458.4238" y="-351.5" font-family="Helvetica,sans-Serif" font-size="10.00" fill="#000000">/freesee&#45;native&#45;client</text>
<text text-anchor="start" x="458.4238" y="-341.5" font-family="Helvetica,sans-Serif" font-size="10.00" fill="#000000">/libs/fcc_sdk/engine/meetingclient</text>
<text text-anchor="start" x="458.4238" y="-331.5" font-family="Helvetica,sans-Serif" font-size="10.00" fill="#000000">/src/headers/MeetingClient/webservices</text>
<text text-anchor="middle" x="546.7954" y="-321.5" font-family="Helvetica,sans-Serif" font-size="10.00" fill="#000000">/WebServiceProxy.hxx</text>
</a>
</g>
</g>
<!-- Node1 -->
<g id="node2" class="node">
<title>Node1</title>
<g id="a_node2"><a xlink:href="_web_services_a_p_i_8hxx.html" target="_top" xlink:title=" ">
<polygon fill="none" stroke="#000000" points="385.4697,-185.5 385.4697,-213.5 524.1211,-213.5 524.1211,-185.5 385.4697,-185.5"/>
<text text-anchor="start" x="393.4697" y="-201.5" font-family="Helvetica,sans-Serif" font-size="10.00" fill="#000000">MeetingClient/WebServices</text>
<text text-anchor="middle" x="454.7954" y="-191.5" font-family="Helvetica,sans-Serif" font-size="10.00" fill="#000000">API.hxx</text>
</a>
</g>
</g>
<!-- Node0&#45;&gt;Node1 -->
<g id="edge1" class="edge">
<title>Node0&#45;&gt;Node1</title>
<path fill="none" stroke="#191970" d="M528.1778,-315.1571C510.7822,-287.7401 485.1723,-247.3766 469.263,-222.3022"/>
<polygon fill="#191970" stroke="#191970" points="472.1866,-220.377 463.8738,-213.8083 466.2759,-224.1272 472.1866,-220.377"/>
</g>
<!-- Node18 -->
<g id="node19" class="node">
<title>Node18</title>
<g id="a_node19"><a xlink:href="result__builder_8hxx.html" target="_top" xlink:title=" ">
<polygon fill="none" stroke="#000000" points="549.3252,-250.5 549.3252,-278.5 684.2656,-278.5 684.2656,-250.5 549.3252,-250.5"/>
<text text-anchor="start" x="557.3252" y="-266.5" font-family="Helvetica,sans-Serif" font-size="10.00" fill="#000000">MeetingClient/webservices</text>
<text text-anchor="middle" x="616.7954" y="-256.5" font-family="Helvetica,sans-Serif" font-size="10.00" fill="#000000">/result_builder.hxx</text>
</a>
</g>
</g>
<!-- Node0&#45;&gt;Node18 -->
<g id="edge19" class="edge">
<title>Node0&#45;&gt;Node18</title>
<path fill="none" stroke="#191970" d="M572.4633,-315.1652C580.8281,-305.6054 589.9601,-295.1689 597.7504,-286.2657"/>
<polygon fill="#191970" stroke="#191970" points="600.516,-288.4201 604.4671,-278.5895 595.248,-283.8106 600.516,-288.4201"/>
</g>
<!-- Node2 -->
<g id="node3" class="node">
<title>Node2</title>
<g id="a_node3"><a xlink:href="_common_data_types_8hxx.html" target="_top" xlink:title=" ">
<polygon fill="none" stroke="#000000" points="32.0493,-55.5 32.0493,-83.5 157.5415,-83.5 157.5415,-55.5 32.0493,-55.5"/>
<text text-anchor="start" x="40.0493" y="-71.5" font-family="Helvetica,sans-Serif" font-size="10.00" fill="#000000">MeetingClient/types</text>
<text text-anchor="middle" x="94.7954" y="-61.5" font-family="Helvetica,sans-Serif" font-size="10.00" fill="#000000">/CommonDataTypes.hxx</text>
</a>
</g>
</g>
<!-- Node1&#45;&gt;Node2 -->
<g id="edge2" class="edge">
<title>Node1&#45;&gt;Node2</title>
<path fill="none" stroke="#191970" d="M432.587,-185.29C417.2924,-175.3712 396.5985,-161.6877 378.7954,-149 361.4942,-136.6701 360.1315,-128.8018 340.7954,-120 340.2884,-119.7692 240.0152,-99.2199 167.6631,-84.409"/>
<polygon fill="#191970" stroke="#191970" points="168.1513,-80.9365 157.6525,-82.36 166.7475,-87.7943 168.1513,-80.9365"/>
</g>
<!-- Node5 -->
<g id="node6" class="node">
<title>Node5</title>
<g id="a_node6"><a xlink:href="_entities_8hxx.html" target="_top" xlink:title=" ">
<polygon fill="none" stroke="#000000" points="636.3252,-120.5 636.3252,-148.5 771.2656,-148.5 771.2656,-120.5 636.3252,-120.5"/>
<text text-anchor="start" x="644.3252" y="-136.5" font-family="Helvetica,sans-Serif" font-size="10.00" fill="#000000">MeetingClient/webservices</text>
<text text-anchor="middle" x="703.7954" y="-126.5" font-family="Helvetica,sans-Serif" font-size="10.00" fill="#000000">/Entities.hxx</text>
</a>
</g>
</g>
<!-- Node1&#45;&gt;Node5 -->
<g id="edge5" class="edge">
<title>Node1&#45;&gt;Node5</title>
<path fill="none" stroke="#191970" d="M508.5181,-185.476C547.0846,-175.4084 599.2196,-161.7989 639.9195,-151.1744"/>
<polygon fill="#191970" stroke="#191970" points="640.948,-154.5233 649.7397,-148.6109 639.1799,-147.7503 640.948,-154.5233"/>
</g>
<!-- Node9 -->
<g id="node10" class="node">
<title>Node9</title>
<g id="a_node10"><a xlink:href="_web_parameters_8hxx.html" target="_top" xlink:title=" ">
<polygon fill="none" stroke="#000000" points="387.3252,-120.5 387.3252,-148.5 522.2656,-148.5 522.2656,-120.5 387.3252,-120.5"/>
<text text-anchor="start" x="395.3252" y="-136.5" font-family="Helvetica,sans-Serif" font-size="10.00" fill="#000000">MeetingClient/webservices</text>
<text text-anchor="middle" x="454.7954" y="-126.5" font-family="Helvetica,sans-Serif" font-size="10.00" fill="#000000">/WebParameters.hxx</text>
</a>
</g>
</g>
<!-- Node1&#45;&gt;Node9 -->
<g id="edge9" class="edge">
<title>Node1&#45;&gt;Node9</title>
<path fill="none" stroke="#191970" d="M454.7954,-185.396C454.7954,-177.6448 454.7954,-167.8122 454.7954,-158.8601"/>
<polygon fill="#191970" stroke="#191970" points="458.2955,-158.5765 454.7954,-148.5765 451.2955,-158.5765 458.2955,-158.5765"/>
</g>
<!-- Node16 -->
<g id="node17" class="node">
<title>Node16</title>
<g id="a_node17"><a xlink:title=" ">
<polygon fill="none" stroke="#bfbfbf" points="155.835,-125.5 155.835,-143.5 245.7559,-143.5 245.7559,-125.5 155.835,-125.5"/>
<text text-anchor="middle" x="200.7954" y="-131.5" font-family="Helvetica,sans-Serif" font-size="10.00" fill="#000000">Utils/Version.hxx</text>
</a>
</g>
</g>
<!-- Node1&#45;&gt;Node16 -->
<g id="edge17" class="edge">
<title>Node1&#45;&gt;Node16</title>
<path fill="none" stroke="#191970" d="M398.2715,-185.4678C358.1843,-175.4574 303.1398,-161.5934 254.7954,-149 251.2523,-148.077 247.5809,-147.1113 243.8961,-146.1353"/>
<polygon fill="#191970" stroke="#191970" points="244.7533,-142.7417 234.1894,-143.5508 242.9521,-149.506 244.7533,-142.7417"/>
</g>
<!-- Node17 -->
<g id="node18" class="node">
<title>Node17</title>
<g id="a_node18"><a xlink:href="macros_8hxx.html" target="_top" xlink:title=" ">
<polygon fill="none" stroke="#000000" points="264.2339,-125.5 264.2339,-143.5 331.3569,-143.5 331.3569,-125.5 264.2339,-125.5"/>
<text text-anchor="middle" x="297.7954" y="-131.5" font-family="Helvetica,sans-Serif" font-size="10.00" fill="#000000">macros.hxx</text>
</a>
</g>
</g>
<!-- Node1&#45;&gt;Node17 -->
<g id="edge18" class="edge">
<title>Node1&#45;&gt;Node17</title>
<path fill="none" stroke="#191970" d="M420.7287,-185.396C393.5392,-174.1392 355.7456,-158.4921 329.2634,-147.5281"/>
<polygon fill="#191970" stroke="#191970" points="330.2917,-144.1658 319.7134,-143.5743 327.614,-150.6334 330.2917,-144.1658"/>
</g>
<!-- Node3 -->
<g id="node4" class="node">
<title>Node3</title>
<g id="a_node4"><a xlink:title=" ">
<polygon fill="none" stroke="#bfbfbf" points="119.5688,-.5 119.5688,-18.5 160.022,-18.5 160.022,-.5 119.5688,-.5"/>
<text text-anchor="middle" x="139.7954" y="-6.5" font-family="Helvetica,sans-Serif" font-size="10.00" fill="#000000">string</text>
</a>
</g>
</g>
<!-- Node2&#45;&gt;Node3 -->
<g id="edge3" class="edge">
<title>Node2&#45;&gt;Node3</title>
<path fill="none" stroke="#191970" d="M105.4598,-55.2808C111.8534,-46.756 120.0296,-35.8545 126.7994,-26.8281"/>
<polygon fill="#191970" stroke="#191970" points="129.7822,-28.6842 132.9823,-18.5842 124.1822,-24.4842 129.7822,-28.6842"/>
</g>
<!-- Node4 -->
<g id="node5" class="node">
<title>Node4</title>
<g id="a_node5"><a xlink:title=" ">
<polygon fill="none" stroke="#bfbfbf" points="0,-.5 0,-18.5 101.5908,-18.5 101.5908,-.5 0,-.5"/>
<text text-anchor="middle" x="50.7954" y="-6.5" font-family="Helvetica,sans-Serif" font-size="10.00" fill="#000000">CommonTypes.hxx</text>
</a>
</g>
</g>
<!-- Node2&#45;&gt;Node4 -->
<g id="edge4" class="edge">
<title>Node2&#45;&gt;Node4</title>
<path fill="none" stroke="#191970" d="M84.368,-55.2808C78.1165,-46.756 70.122,-35.8545 63.5027,-26.8281"/>
<polygon fill="#191970" stroke="#191970" points="66.1932,-24.5785 57.4571,-18.5842 60.5484,-28.718 66.1932,-24.5785"/>
</g>
<!-- Node6 -->
<g id="node7" class="node">
<title>Node6</title>
<g id="a_node7"><a xlink:title=" ">
<polygon fill="none" stroke="#bfbfbf" points="776.8916,-60.5 776.8916,-78.5 850.6992,-78.5 850.6992,-60.5 776.8916,-60.5"/>
<text text-anchor="middle" x="813.7954" y="-66.5" font-family="Helvetica,sans-Serif" font-size="10.00" fill="#000000">Printable.hxx</text>
</a>
</g>
</g>
<!-- Node5&#45;&gt;Node6 -->
<g id="edge6" class="edge">
<title>Node5&#45;&gt;Node6</title>
<path fill="none" stroke="#191970" d="M727.6638,-120.396C746.0424,-109.5359 771.3362,-94.5895 789.7572,-83.7044"/>
<polygon fill="#191970" stroke="#191970" points="791.6102,-86.6749 798.4389,-78.5743 788.049,-80.6484 791.6102,-86.6749"/>
</g>
<!-- Node7 -->
<g id="node8" class="node">
<title>Node7</title>
<g id="a_node8"><a xlink:title=" ">
<polygon fill="none" stroke="#bfbfbf" points="868.9312,-60.5 868.9312,-78.5 966.6597,-78.5 966.6597,-60.5 868.9312,-60.5"/>
<text text-anchor="middle" x="917.7954" y="-66.5" font-family="Helvetica,sans-Serif" font-size="10.00" fill="#000000">boost/function.hpp</text>
</a>
</g>
</g>
<!-- Node5&#45;&gt;Node7 -->
<g id="edge7" class="edge">
<title>Node5&#45;&gt;Node7</title>
<path fill="none" stroke="#191970" d="M749.9668,-120.476C788.2652,-108.8433 842.1325,-92.4817 878.4187,-81.4602"/>
<polygon fill="#191970" stroke="#191970" points="879.6084,-84.7568 888.1595,-78.5016 877.5739,-78.059 879.6084,-84.7568"/>
</g>
<!-- Node8 -->
<g id="node9" class="node">
<title>Node8</title>
<g id="a_node9"><a xlink:title=" ">
<polygon fill="none" stroke="#bfbfbf" points="648.813,-60.5 648.813,-78.5 758.7778,-78.5 758.7778,-60.5 648.813,-60.5"/>
<text text-anchor="middle" x="703.7954" y="-66.5" font-family="Helvetica,sans-Serif" font-size="10.00" fill="#000000">boost/shared_ptr.hpp</text>
</a>
</g>
</g>
<!-- Node5&#45;&gt;Node8 -->
<g id="edge8" class="edge">
<title>Node5&#45;&gt;Node8</title>
<path fill="none" stroke="#191970" d="M703.7954,-120.396C703.7954,-111.1723 703.7954,-99.0011 703.7954,-88.8738"/>
<polygon fill="#191970" stroke="#191970" points="707.2955,-88.5743 703.7954,-78.5743 700.2955,-88.5743 707.2955,-88.5743"/>
</g>
<!-- Node9&#45;&gt;Node2 -->
<g id="edge12" class="edge">
<title>Node9&#45;&gt;Node2</title>
<path fill="none" stroke="#191970" d="M387.1787,-122.3658C382.6501,-121.5623 378.157,-120.7678 373.7954,-120 284.5555,-104.2899 259.6696,-101.5649 167.8796,-84.3669"/>
<polygon fill="#191970" stroke="#191970" points="168.352,-80.8944 157.8773,-82.4854 167.0579,-87.7738 168.352,-80.8944"/>
</g>
<!-- Node10 -->
<g id="node11" class="node">
<title>Node10</title>
<g id="a_node11"><a xlink:title=" ">
<polygon fill="none" stroke="#bfbfbf" points="595.0688,-60.5 595.0688,-78.5 630.522,-78.5 630.522,-60.5 595.0688,-60.5"/>
<text text-anchor="middle" x="612.7954" y="-66.5" font-family="Helvetica,sans-Serif" font-size="10.00" fill="#000000">map</text>
</a>
</g>
</g>
<!-- Node9&#45;&gt;Node10 -->
<g id="edge10" class="edge">
<title>Node9&#45;&gt;Node10</title>
<path fill="none" stroke="#191970" d="M495.1769,-120.4148C521.3539,-110.9233 556.0015,-97.6781 585.7954,-84 586.3545,-83.7433 586.9182,-83.4803 587.4849,-83.2119"/>
<polygon fill="#191970" stroke="#191970" points="589.3304,-86.2012 596.6849,-78.5748 586.1798,-79.9503 589.3304,-86.2012"/>
</g>
<!-- Node11 -->
<g id="node12" class="node">
<title>Node11</title>
<g id="a_node12"><a xlink:title=" ">
<polygon fill="none" stroke="#bfbfbf" points="175.2954,-60.5 175.2954,-78.5 204.2954,-78.5 204.2954,-60.5 175.2954,-60.5"/>
<text text-anchor="middle" x="189.4063" y="-66.5" font-family="Helvetica,sans-Serif" font-size="10.00" fill="#000000">list</text>
</a>
</g>
</g>
<!-- Node9&#45;&gt;Node11 -->
<g id="edge11" class="edge">
<title>Node9&#45;&gt;Node11</title>
<path fill="none" stroke="#191970" d="M387.0858,-121.6498C321.2539,-108.9493 228.8861,-90.5037 212.7954,-84 212.3578,-83.8231 211.9192,-83.6379 211.4805,-83.4453"/>
<polygon fill="#191970" stroke="#191970" points="212.9638,-80.2693 202.4965,-78.6304 209.6571,-86.4391 212.9638,-80.2693"/>
</g>
<!-- Node12 -->
<g id="node13" class="node">
<title>Node12</title>
<g id="a_node13"><a xlink:href="opt__value_8hxx.html" target="_top" xlink:title=" ">
<polygon fill="none" stroke="#000000" points="221.9434,-55.5 221.9434,-83.5 319.6475,-83.5 319.6475,-55.5 221.9434,-55.5"/>
<text text-anchor="start" x="229.9434" y="-71.5" font-family="Helvetica,sans-Serif" font-size="10.00" fill="#000000">MeetingClient/utils</text>
<text text-anchor="middle" x="270.7954" y="-61.5" font-family="Helvetica,sans-Serif" font-size="10.00" fill="#000000">/opt_value.hxx</text>
</a>
</g>
</g>
<!-- Node9&#45;&gt;Node12 -->
<g id="edge13" class="edge">
<title>Node9&#45;&gt;Node12</title>
<path fill="none" stroke="#191970" d="M414.8702,-120.396C387.1417,-110.6006 350.0029,-97.4809 320.3772,-87.0153"/>
<polygon fill="#191970" stroke="#191970" points="321.2375,-83.6073 310.6428,-83.5765 318.9059,-90.2076 321.2375,-83.6073"/>
</g>
<!-- Node14 -->
<g id="node15" class="node">
<title>Node14</title>
<g id="a_node15"><a xlink:title=" ">
<polygon fill="none" stroke="#bfbfbf" points="337.3203,-55.5 337.3203,-83.5 442.2705,-83.5 442.2705,-55.5 337.3203,-55.5"/>
<text text-anchor="start" x="345.3203" y="-71.5" font-family="Helvetica,sans-Serif" font-size="10.00" fill="#000000">boost/thread/shared</text>
<text text-anchor="middle" x="389.7954" y="-61.5" font-family="Helvetica,sans-Serif" font-size="10.00" fill="#000000">_mutex.hpp</text>
</a>
</g>
</g>
<!-- Node9&#45;&gt;Node14 -->
<g id="edge15" class="edge">
<title>Node9&#45;&gt;Node14</title>
<path fill="none" stroke="#191970" d="M440.6914,-120.396C432.0033,-111.7079 420.7,-100.4046 410.953,-90.6576"/>
<polygon fill="#191970" stroke="#191970" points="413.4179,-88.1727 403.8719,-83.5765 408.4681,-93.1225 413.4179,-88.1727"/>
</g>
<!-- Node15 -->
<g id="node16" class="node">
<title>Node15</title>
<g id="a_node16"><a xlink:title=" ">
<polygon fill="none" stroke="#bfbfbf" points="460.4854,-60.5 460.4854,-78.5 577.1055,-78.5 577.1055,-60.5 460.4854,-60.5"/>
<text text-anchor="middle" x="518.7954" y="-66.5" font-family="Helvetica,sans-Serif" font-size="10.00" fill="#000000">boost/thread/locks.hpp</text>
</a>
</g>
</g>
<!-- Node9&#45;&gt;Node15 -->
<g id="edge16" class="edge">
<title>Node9&#45;&gt;Node15</title>
<path fill="none" stroke="#191970" d="M468.6825,-120.396C478.6431,-110.2797 492.0948,-96.6178 502.5536,-85.9956"/>
<polygon fill="#191970" stroke="#191970" points="505.3386,-88.1556 509.8607,-78.5743 500.3506,-83.2444 505.3386,-88.1556"/>
</g>
<!-- Node13 -->
<g id="node14" class="node">
<title>Node13</title>
<g id="a_node14"><a xlink:title=" ">
<polygon fill="none" stroke="#bfbfbf" points="234.4531,-.5 234.4531,-18.5 307.1377,-18.5 307.1377,-.5 234.4531,-.5"/>
<text text-anchor="middle" x="270.7954" y="-6.5" font-family="Helvetica,sans-Serif" font-size="10.00" fill="#000000">initializer_list</text>
</a>
</g>
</g>
<!-- Node12&#45;&gt;Node13 -->
<g id="edge14" class="edge">
<title>Node12&#45;&gt;Node13</title>
<path fill="none" stroke="#191970" d="M270.7954,-55.2808C270.7954,-47.3776 270.7954,-37.4316 270.7954,-28.8308"/>
<polygon fill="#191970" stroke="#191970" points="274.2955,-28.5842 270.7954,-18.5842 267.2955,-28.5842 274.2955,-28.5842"/>
</g>
<!-- Node18&#45;&gt;Node1 -->
<g id="edge32" class="edge">
<title>Node18&#45;&gt;Node1</title>
<path fill="none" stroke="#191970" d="M581.6438,-250.396C557.5492,-240.7284 525.384,-227.8226 499.473,-217.4262"/>
<polygon fill="#191970" stroke="#191970" points="500.4626,-214.0521 489.8784,-213.5765 497.8559,-220.5486 500.4626,-214.0521"/>
</g>
<!-- Node18&#45;&gt;Node5 -->
<g id="edge33" class="edge">
<title>Node18&#45;&gt;Node5</title>
<path fill="none" stroke="#191970" d="M626.2716,-250.3402C641.3071,-227.8734 670.7607,-183.8622 688.7189,-157.0281"/>
<polygon fill="#191970" stroke="#191970" points="691.6779,-158.8996 694.331,-148.6423 685.8604,-155.0063 691.6779,-158.8996"/>
</g>
<!-- Node19 -->
<g id="node20" class="node">
<title>Node19</title>
<g id="a_node20"><a xlink:href="_h_t_t_p_request_8hxx.html" target="_top" xlink:title=" ">
<polygon fill="none" stroke="#000000" points="1024.9878,-190.5 1024.9878,-208.5 1186.603,-208.5 1186.603,-190.5 1024.9878,-190.5"/>
<text text-anchor="middle" x="1105.7954" y="-196.5" font-family="Helvetica,sans-Serif" font-size="10.00" fill="#000000">MeetingClient/HTTPRequest.hxx</text>
</a>
</g>
</g>
<!-- Node18&#45;&gt;Node19 -->
<g id="edge20" class="edge">
<title>Node18&#45;&gt;Node19</title>
<path fill="none" stroke="#191970" d="M684.2754,-255.5303C774.1429,-243.5847 932.7797,-222.498 1027.7125,-209.8791"/>
<polygon fill="#191970" stroke="#191970" points="1028.3781,-213.3215 1037.8297,-208.5343 1027.4556,-206.3826 1028.3781,-213.3215"/>
</g>
<!-- Node20 -->
<g id="node21" class="node">
<title>Node20</title>
<g id="a_node21"><a xlink:title=" ">
<polygon fill="none" stroke="#bfbfbf" points="1205.9385,-125.5 1205.9385,-143.5 1323.6523,-143.5 1323.6523,-125.5 1205.9385,-125.5"/>
<text text-anchor="middle" x="1264.7954" y="-131.5" font-family="Helvetica,sans-Serif" font-size="10.00" fill="#000000">ASIO/HTTPLoader.hxx</text>
</a>
</g>
</g>
<!-- Node19&#45;&gt;Node20 -->
<g id="edge21" class="edge">
<title>Node19&#45;&gt;Node20</title>
<path fill="none" stroke="#191970" d="M1127.9037,-190.462C1155.2375,-179.2878 1201.953,-160.1903 1233.0984,-147.4579"/>
<polygon fill="#191970" stroke="#191970" points="1234.6872,-150.5896 1242.6192,-143.5658 1232.0383,-144.1101 1234.6872,-150.5896"/>
</g>
<!-- Node21 -->
<g id="node22" class="node">
<title>Node21</title>
<g id="a_node22"><a xlink:title=" ">
<polygon fill="none" stroke="#bfbfbf" points="1341.3301,-125.5 1341.3301,-143.5 1406.2607,-143.5 1406.2607,-125.5 1341.3301,-125.5"/>
<text text-anchor="middle" x="1373.7954" y="-131.5" font-family="Helvetica,sans-Serif" font-size="10.00" fill="#000000">Logger.hxx</text>
</a>
</g>
</g>
<!-- Node19&#45;&gt;Node21 -->
<g id="edge22" class="edge">
<title>Node19&#45;&gt;Node21</title>
<path fill="none" stroke="#191970" d="M1154.4903,-190.4411C1200.7497,-181.4188 1272.0619,-166.4258 1332.7954,-149 1335.2085,-148.3076 1337.6863,-147.5505 1340.1715,-146.7572"/>
<polygon fill="#191970" stroke="#191970" points="1341.2987,-150.0708 1349.6708,-143.5778 1339.077,-143.4327 1341.2987,-150.0708"/>
</g>
<!-- Node22 -->
<g id="node23" class="node">
<title>Node22</title>
<g id="a_node23"><a xlink:href="uri__string_8hxx.html" target="_top" xlink:title=" ">
<polygon fill="none" stroke="#000000" points="1424.3252,-120.5 1424.3252,-148.5 1559.2656,-148.5 1559.2656,-120.5 1424.3252,-120.5"/>
<text text-anchor="start" x="1432.3252" y="-136.5" font-family="Helvetica,sans-Serif" font-size="10.00" fill="#000000">MeetingClient/webservices</text>
<text text-anchor="middle" x="1491.7954" y="-126.5" font-family="Helvetica,sans-Serif" font-size="10.00" fill="#000000">/uri_string.hxx</text>
</a>
</g>
</g>
<!-- Node19&#45;&gt;Node22 -->
<g id="edge23" class="edge">
<title>Node19&#45;&gt;Node22</title>
<path fill="none" stroke="#191970" d="M1163.6703,-190.4687C1223.6858,-181.007 1320.4993,-165.4753 1414.2645,-149.0683"/>
<polygon fill="#191970" stroke="#191970" points="1414.9618,-152.4995 1424.2061,-147.3233 1413.7516,-145.6049 1414.9618,-152.4995"/>
</g>
<!-- Node25 -->
<g id="node26" class="node">
<title>Node25</title>
<g id="a_node26"><a xlink:title=" ">
<polygon fill="none" stroke="#bfbfbf" points="813.271,-125.5 813.271,-143.5 894.3198,-143.5 894.3198,-125.5 813.271,-125.5"/>
<text text-anchor="middle" x="853.7954" y="-131.5" font-family="Helvetica,sans-Serif" font-size="10.00" fill="#000000">boost/asio.hpp</text>
</a>
</g>
</g>
<!-- Node19&#45;&gt;Node25 -->
<g id="edge26" class="edge">
<title>Node19&#45;&gt;Node25</title>
<path fill="none" stroke="#191970" d="M1067.7114,-190.4272C1027.0203,-180.6287 960.6823,-164.3537 903.7954,-149 900.6541,-148.1522 897.4074,-147.256 894.1473,-146.3419"/>
<polygon fill="#191970" stroke="#191970" points="894.9939,-142.944 884.418,-143.5763 893.0798,-149.6773 894.9939,-142.944"/>
</g>
<!-- Node26 -->
<g id="node27" class="node">
<title>Node26</title>
<g id="a_node27"><a xlink:title=" ">
<polygon fill="none" stroke="#bfbfbf" points="912.7168,-125.5 912.7168,-143.5 1004.874,-143.5 1004.874,-125.5 912.7168,-125.5"/>
<text text-anchor="middle" x="958.7954" y="-131.5" font-family="Helvetica,sans-Serif" font-size="10.00" fill="#000000">boost/atomic.hpp</text>
</a>
</g>
</g>
<!-- Node19&#45;&gt;Node26 -->
<g id="edge27" class="edge">
<title>Node19&#45;&gt;Node26</title>
<path fill="none" stroke="#191970" d="M1085.3557,-190.462C1060.265,-179.3675 1017.5103,-160.4624 988.7186,-147.7313"/>
<polygon fill="#191970" stroke="#191970" points="990.0967,-144.5138 979.5354,-143.6708 987.2658,-150.9159 990.0967,-144.5138"/>
</g>
<!-- Node27 -->
<g id="node28" class="node">
<title>Node27</title>
<g id="a_node28"><a xlink:href="_s_c_upload_data_8hxx.html" target="_top" xlink:title=" ">
<polygon fill="none" stroke="#000000" points="1023.313,-125.5 1023.313,-143.5 1188.2778,-143.5 1188.2778,-125.5 1023.313,-125.5"/>
<text text-anchor="middle" x="1105.7954" y="-131.5" font-family="Helvetica,sans-Serif" font-size="10.00" fill="#000000">MeetingClient/SCUploadData.hxx</text>
</a>
</g>
</g>
<!-- Node19&#45;&gt;Node27 -->
<g id="edge28" class="edge">
<title>Node19&#45;&gt;Node27</title>
<path fill="none" stroke="#191970" d="M1105.7954,-190.462C1105.7954,-181.061 1105.7954,-166.0518 1105.7954,-153.943"/>
<polygon fill="#191970" stroke="#191970" points="1109.2955,-153.8821 1105.7954,-143.8821 1102.2955,-153.8822 1109.2955,-153.8821"/>
</g>
<!-- Node23 -->
<g id="node24" class="node">
<title>Node23</title>
<g id="a_node24"><a xlink:title=" ">
<polygon fill="none" stroke="#bfbfbf" points="1431.0146,-60.5 1431.0146,-78.5 1482.5762,-78.5 1482.5762,-60.5 1431.0146,-60.5"/>
<text text-anchor="middle" x="1456.7954" y="-66.5" font-family="Helvetica,sans-Serif" font-size="10.00" fill="#000000">sstream</text>
</a>
</g>
</g>
<!-- Node22&#45;&gt;Node23 -->
<g id="edge24" class="edge">
<title>Node22&#45;&gt;Node23</title>
<path fill="none" stroke="#191970" d="M1484.2009,-120.396C1479.0207,-110.7756 1472.1139,-97.9487 1466.5302,-87.5788"/>
<polygon fill="#191970" stroke="#191970" points="1469.5043,-85.7197 1461.6816,-78.5743 1463.341,-89.0384 1469.5043,-85.7197"/>
</g>
<!-- Node24 -->
<g id="node25" class="node">
<title>Node24</title>
<g id="a_node25"><a xlink:title=" ">
<polygon fill="none" stroke="#bfbfbf" points="1500.2856,-60.5 1500.2856,-78.5 1551.3052,-78.5 1551.3052,-60.5 1500.2856,-60.5"/>
<text text-anchor="middle" x="1525.7954" y="-66.5" font-family="Helvetica,sans-Serif" font-size="10.00" fill="#000000">iomanip</text>
</a>
</g>
</g>
<!-- Node22&#45;&gt;Node24 -->
<g id="edge25" class="edge">
<title>Node22&#45;&gt;Node24</title>
<path fill="none" stroke="#191970" d="M1499.1729,-120.396C1504.2051,-110.7756 1510.9146,-97.9487 1516.3388,-87.5788"/>
<polygon fill="#191970" stroke="#191970" points="1519.5152,-89.0576 1521.0488,-78.5743 1513.3125,-85.813 1519.5152,-89.0576"/>
</g>
<!-- Node28 -->
<g id="node29" class="node">
<title>Node28</title>
<g id="a_node29"><a xlink:title=" ">
<polygon fill="none" stroke="#bfbfbf" points="984.5361,-60.5 984.5361,-78.5 1067.0547,-78.5 1067.0547,-60.5 984.5361,-60.5"/>
<text text-anchor="middle" x="1025.7954" y="-66.5" font-family="Helvetica,sans-Serif" font-size="10.00" fill="#000000">Utils/Buffer.hxx</text>
</a>
</g>
</g>
<!-- Node27&#45;&gt;Node28 -->
<g id="edge29" class="edge">
<title>Node27&#45;&gt;Node28</title>
<path fill="none" stroke="#191970" d="M1094.6718,-125.462C1081.8481,-115.0428 1060.5461,-97.7349 1045.022,-85.1216"/>
<polygon fill="#191970" stroke="#191970" points="1047.0507,-82.2603 1037.0825,-78.6708 1042.6366,-87.6931 1047.0507,-82.2603"/>
</g>
<!-- Node29 -->
<g id="node30" class="node">
<title>Node29</title>
<g id="a_node30"><a xlink:title=" ">
<polygon fill="none" stroke="#bfbfbf" points="1085.1182,-60.5 1085.1182,-78.5 1174.4727,-78.5 1174.4727,-60.5 1085.1182,-60.5"/>
<text text-anchor="middle" x="1129.7954" y="-66.5" font-family="Helvetica,sans-Serif" font-size="10.00" fill="#000000">Utils/EString.hxx</text>
</a>
</g>
</g>
<!-- Node27&#45;&gt;Node29 -->
<g id="edge30" class="edge">
<title>Node27&#45;&gt;Node29</title>
<path fill="none" stroke="#191970" d="M1109.1325,-125.462C1112.6391,-115.9651 1118.2588,-100.7449 1122.753,-88.5732"/>
<polygon fill="#191970" stroke="#191970" points="1126.1508,-89.4754 1126.3312,-78.8821 1119.5841,-87.0508 1126.1508,-89.4754"/>
</g>
<!-- Node30 -->
<g id="node31" class="node">
<title>Node30</title>
<g id="a_node31"><a xlink:title=" ">
<polygon fill="none" stroke="#bfbfbf" points="1192.064,-60.5 1192.064,-78.5 1237.5269,-78.5 1237.5269,-60.5 1192.064,-60.5"/>
<text text-anchor="middle" x="1214.7954" y="-66.5" font-family="Helvetica,sans-Serif" font-size="10.00" fill="#000000">stdio.h</text>
</a>
</g>
</g>
<!-- Node27&#45;&gt;Node30 -->
<g id="edge31" class="edge">
<title>Node27&#45;&gt;Node30</title>
<path fill="none" stroke="#191970" d="M1120.9514,-125.462C1138.9898,-114.7052 1169.3409,-96.6059 1190.6301,-83.9105"/>
<polygon fill="#191970" stroke="#191970" points="1192.6206,-86.7987 1199.4168,-78.6708 1189.0353,-80.7865 1192.6206,-86.7987"/>
</g>
</g>
</svg>
        <g id="navigator" transform="translate(0 0)" fill="#404254">
                <rect fill="#f2f5e9" fill-opacity="0.5" stroke="#606060" stroke-width=".5" x="0" y="0" width="60" height="60"/>
                <use id="zoomplus" xlink:href="#zoomPlus" x="17" y="9" onmousedown="handleZoom(evt,'in')"/>
                <use id="zoomminus" xlink:href="#zoomMin" x="42" y="9" onmousedown="handleZoom(evt,'out')"/>
                <use id="reset" xlink:href="#resetDef" x="30" y="36" onmousedown="handleReset()"/>
                <g id="arrowUp" xlink:href="#dirArrow" transform="translate(30 24)" onmousedown="handlePan(0,-1)">
                  <use xlink:href="#rim" fill="#404040">
                        <set attributeName="fill" to="#808080" begin="arrowUp.mouseover" end="arrowUp.mouseout"/>
                  </use>
                  <path fill="none" stroke="white" stroke-width="1.5" d="M0,-3.0v7 M-2.5,-0.5L0,-3.0L2.5,-0.5"/>
                </g>
                <g id="arrowRight" xlink:href="#dirArrow" transform="rotate(90) translate(36 -43)" onmousedown="handlePan(1,0)">
                  <use xlink:href="#rim" fill="#404040">
                        <set attributeName="fill" to="#808080" begin="arrowRight.mouseover" end="arrowRight.mouseout"/>
                  </use>
                  <path fill="none" stroke="white" stroke-width="1.5" d="M0,-3.0v7 M-2.5,-0.5L0,-3.0L2.5,-0.5"/>
                </g>
                <g id="arrowDown" xlink:href="#dirArrow" transform="rotate(180) translate(-30 -48)" onmousedown="handlePan(0,1)">
                  <use xlink:href="#rim" fill="#404040">
                        <set attributeName="fill" to="#808080" begin="arrowDown.mouseover" end="arrowDown.mouseout"/>
                  </use>
                  <path fill="none" stroke="white" stroke-width="1.5" d="M0,-3.0v7 M-2.5,-0.5L0,-3.0L2.5,-0.5"/>
                </g>
                <g id="arrowLeft" xlink:href="#dirArrow" transform="rotate(270) translate(-36 17)" onmousedown="handlePan(-1,0)">
                  <use xlink:href="#rim" fill="#404040">
                        <set attributeName="fill" to="#808080" begin="arrowLeft.mouseover" end="arrowLeft.mouseout"/>
                  </use>
                  <path fill="none" stroke="white" stroke-width="1.5" d="M0,-3.0v7 M-2.5,-0.5L0,-3.0L2.5,-0.5"/>
                </g>
        </g>
        <svg viewBox="0 0 15 15" width="100%" height="30px" preserveAspectRatio="xMaxYMin meet">
         <g id="arrow_out" transform="scale(0.3 0.3)">
          <a xlink:href="_web_service_proxy_8hxx__incl_org.svg" target="_base">
           <rect id="button" ry="5" rx="5" y="6" x="6" height="38" width="38"
                fill="#f2f5e9" fill-opacity="0.5" stroke="#606060" stroke-width="1.0"/>
           <path id="arrow"
             d="M 11.500037,31.436501 C 11.940474,20.09759 22.043105,11.32322 32.158766,21.979434 L 37.068811,17.246167 C 37.068811,17.246167 37.088388,32 37.088388,32 L 22.160133,31.978069 C 22.160133,31.978069 26.997745,27.140456 26.997745,27.140456 C 18.528582,18.264221 13.291696,25.230495 11.500037,31.436501 z"
             style="fill:#404040;"/>
          </a>
         </g>
        </svg>
</svg>
