<?xml version="1.0" encoding="UTF-8" standalone="no"?>
<!DOCTYPE svg PUBLIC "-//W3C//DTD SVG 1.1//EN"
 "http://www.w3.org/Graphics/SVG/1.1/DTD/svg11.dtd">
<!-- Generated by graphviz version 2.40.1 (20161225.0304)
 -->
<!-- Title: /Users/oskryp/Projects/freesee&#45;native&#45;client/libs/fcc_sdk/engine/meetingclient/src/headers/MeetingClient/webservices/apiv4.hxx Pages: 1 -->
<svg width="1587pt" height="382pt"
 viewBox="0.00 0.00 1586.73 382.00" xmlns="http://www.w3.org/2000/svg" xmlns:xlink="http://www.w3.org/1999/xlink">
<g id="graph0" class="graph" transform="scale(1 1) rotate(0) translate(4 378)">
<title>/Users/oskryp/Projects/freesee&#45;native&#45;client/libs/fcc_sdk/engine/meetingclient/src/headers/MeetingClient/webservices/apiv4.hxx</title>
<!-- Node0 -->
<g id="node1" class="node">
<title>Node0</title>
<g id="a_node1"><a xlink:title=" ">
<polygon fill="#bfbfbf" stroke="#000000" points="797.8877,-315.5 797.8877,-373.5 990.6309,-373.5 990.6309,-315.5 797.8877,-315.5"/>
<text text-anchor="start" x="805.8877" y="-361.5" font-family="Helvetica,sans-Serif" font-size="10.00" fill="#000000">/Users/oskryp/Projects</text>
<text text-anchor="start" x="805.8877" y="-351.5" font-family="Helvetica,sans-Serif" font-size="10.00" fill="#000000">/freesee&#45;native&#45;client</text>
<text text-anchor="start" x="805.8877" y="-341.5" font-family="Helvetica,sans-Serif" font-size="10.00" fill="#000000">/libs/fcc_sdk/engine/meetingclient</text>
<text text-anchor="start" x="805.8877" y="-331.5" font-family="Helvetica,sans-Serif" font-size="10.00" fill="#000000">/src/headers/MeetingClient/webservices</text>
<text text-anchor="middle" x="894.2593" y="-321.5" font-family="Helvetica,sans-Serif" font-size="10.00" fill="#000000">/apiv4.hxx</text>
</a>
</g>
</g>
<!-- Node1 -->
<g id="node2" class="node">
<title>Node1</title>
<g id="a_node2"><a xlink:href="result__builder_8hxx.html" target="_top" xlink:title=" ">
<polygon fill="none" stroke="#000000" points="826.7891,-250.5 826.7891,-278.5 961.7295,-278.5 961.7295,-250.5 826.7891,-250.5"/>
<text text-anchor="start" x="834.7891" y="-266.5" font-family="Helvetica,sans-Serif" font-size="10.00" fill="#000000">MeetingClient/webservices</text>
<text text-anchor="middle" x="894.2593" y="-256.5" font-family="Helvetica,sans-Serif" font-size="10.00" fill="#000000">/result_builder.hxx</text>
</a>
</g>
</g>
<!-- Node0&#45;&gt;Node1 -->
<g id="edge1" class="edge">
<title>Node0&#45;&gt;Node1</title>
<path fill="none" stroke="#191970" d="M894.2593,-315.1652C894.2593,-306.4834 894.2593,-297.0784 894.2593,-288.7556"/>
<polygon fill="#191970" stroke="#191970" points="897.7594,-288.5895 894.2593,-278.5895 890.7594,-288.5896 897.7594,-288.5895"/>
</g>
<!-- Node2 -->
<g id="node3" class="node">
<title>Node2</title>
<g id="a_node3"><a xlink:href="_h_t_t_p_request_8hxx.html" target="_top" xlink:title=" ">
<polygon fill="none" stroke="#000000" points="450.4517,-190.5 450.4517,-208.5 612.0669,-208.5 612.0669,-190.5 450.4517,-190.5"/>
<text text-anchor="middle" x="531.2593" y="-196.5" font-family="Helvetica,sans-Serif" font-size="10.00" fill="#000000">MeetingClient/HTTPRequest.hxx</text>
</a>
</g>
</g>
<!-- Node1&#45;&gt;Node2 -->
<g id="edge2" class="edge">
<title>Node1&#45;&gt;Node2</title>
<path fill="none" stroke="#191970" d="M826.4076,-252.3502C758.9145,-240.2647 656.3375,-221.8969 591.604,-210.3055"/>
<polygon fill="#191970" stroke="#191970" points="592.0111,-206.8228 581.5507,-208.5054 590.7772,-213.7132 592.0111,-206.8228"/>
</g>
<!-- Node14 -->
<g id="node15" class="node">
<title>Node14</title>
<g id="a_node15"><a xlink:href="_web_services_a_p_i_8hxx.html" target="_top" xlink:title=" ">
<polygon fill="none" stroke="#000000" points="974.9336,-185.5 974.9336,-213.5 1113.585,-213.5 1113.585,-185.5 974.9336,-185.5"/>
<text text-anchor="start" x="982.9336" y="-201.5" font-family="Helvetica,sans-Serif" font-size="10.00" fill="#000000">MeetingClient/WebServices</text>
<text text-anchor="middle" x="1044.2593" y="-191.5" font-family="Helvetica,sans-Serif" font-size="10.00" fill="#000000">API.hxx</text>
</a>
</g>
</g>
<!-- Node1&#45;&gt;Node14 -->
<g id="edge14" class="edge">
<title>Node1&#45;&gt;Node14</title>
<path fill="none" stroke="#191970" d="M926.807,-250.396C949.0186,-240.7709 978.6372,-227.9362 1002.5737,-217.5637"/>
<polygon fill="#191970" stroke="#191970" points="1003.9911,-220.7641 1011.775,-213.5765 1001.2078,-214.3412 1003.9911,-220.7641"/>
</g>
<!-- Node18 -->
<g id="node19" class="node">
<title>Node18</title>
<g id="a_node19"><a xlink:href="_entities_8hxx.html" target="_top" xlink:title=" ">
<polygon fill="none" stroke="#000000" points="826.7891,-120.5 826.7891,-148.5 961.7295,-148.5 961.7295,-120.5 826.7891,-120.5"/>
<text text-anchor="start" x="834.7891" y="-136.5" font-family="Helvetica,sans-Serif" font-size="10.00" fill="#000000">MeetingClient/webservices</text>
<text text-anchor="middle" x="894.2593" y="-126.5" font-family="Helvetica,sans-Serif" font-size="10.00" fill="#000000">/Entities.hxx</text>
</a>
</g>
</g>
<!-- Node1&#45;&gt;Node18 -->
<g id="edge32" class="edge">
<title>Node1&#45;&gt;Node18</title>
<path fill="none" stroke="#191970" d="M894.2593,-250.3402C894.2593,-228.3618 894.2593,-185.7655 894.2593,-158.8021"/>
<polygon fill="#191970" stroke="#191970" points="897.7594,-158.6423 894.2593,-148.6423 890.7594,-158.6423 897.7594,-158.6423"/>
</g>
<!-- Node3 -->
<g id="node4" class="node">
<title>Node3</title>
<g id="a_node4"><a xlink:title=" ">
<polygon fill="none" stroke="#bfbfbf" points="245.4023,-125.5 245.4023,-143.5 363.1162,-143.5 363.1162,-125.5 245.4023,-125.5"/>
<text text-anchor="middle" x="304.2593" y="-131.5" font-family="Helvetica,sans-Serif" font-size="10.00" fill="#000000">ASIO/HTTPLoader.hxx</text>
</a>
</g>
</g>
<!-- Node2&#45;&gt;Node3 -->
<g id="edge3" class="edge">
<title>Node2&#45;&gt;Node3</title>
<path fill="none" stroke="#191970" d="M499.6959,-190.462C459.574,-178.9734 390.2024,-159.1093 345.8125,-146.3985"/>
<polygon fill="#191970" stroke="#191970" points="346.4968,-142.9539 335.9197,-143.5658 344.5698,-149.6834 346.4968,-142.9539"/>
</g>
<!-- Node4 -->
<g id="node5" class="node">
<title>Node4</title>
<g id="a_node5"><a xlink:title=" ">
<polygon fill="none" stroke="#bfbfbf" points="380.7939,-125.5 380.7939,-143.5 445.7246,-143.5 445.7246,-125.5 380.7939,-125.5"/>
<text text-anchor="middle" x="413.2593" y="-131.5" font-family="Helvetica,sans-Serif" font-size="10.00" fill="#000000">Logger.hxx</text>
</a>
</g>
</g>
<!-- Node2&#45;&gt;Node4 -->
<g id="edge4" class="edge">
<title>Node2&#45;&gt;Node4</title>
<path fill="none" stroke="#191970" d="M514.8519,-190.462C495.1489,-179.6087 461.8764,-161.2806 438.8022,-148.5702"/>
<polygon fill="#191970" stroke="#191970" points="440.3555,-145.43 429.9077,-143.6708 436.978,-151.5614 440.3555,-145.43"/>
</g>
<!-- Node5 -->
<g id="node6" class="node">
<title>Node5</title>
<g id="a_node6"><a xlink:href="uri__string_8hxx.html" target="_top" xlink:title=" ">
<polygon fill="none" stroke="#000000" points="463.7891,-120.5 463.7891,-148.5 598.7295,-148.5 598.7295,-120.5 463.7891,-120.5"/>
<text text-anchor="start" x="471.7891" y="-136.5" font-family="Helvetica,sans-Serif" font-size="10.00" fill="#000000">MeetingClient/webservices</text>
<text text-anchor="middle" x="531.2593" y="-126.5" font-family="Helvetica,sans-Serif" font-size="10.00" fill="#000000">/uri_string.hxx</text>
</a>
</g>
</g>
<!-- Node2&#45;&gt;Node5 -->
<g id="edge5" class="edge">
<title>Node2&#45;&gt;Node5</title>
<path fill="none" stroke="#191970" d="M531.2593,-190.462C531.2593,-182.404 531.2593,-170.2257 531.2593,-159.2852"/>
<polygon fill="#191970" stroke="#191970" points="534.7594,-158.9558 531.2593,-148.9559 527.7594,-158.9559 534.7594,-158.9558"/>
</g>
<!-- Node8 -->
<g id="node9" class="node">
<title>Node8</title>
<g id="a_node9"><a xlink:title=" ">
<polygon fill="none" stroke="#bfbfbf" points="616.7349,-125.5 616.7349,-143.5 697.7837,-143.5 697.7837,-125.5 616.7349,-125.5"/>
<text text-anchor="middle" x="657.2593" y="-131.5" font-family="Helvetica,sans-Serif" font-size="10.00" fill="#000000">boost/asio.hpp</text>
</a>
</g>
</g>
<!-- Node2&#45;&gt;Node8 -->
<g id="edge8" class="edge">
<title>Node2&#45;&gt;Node8</title>
<path fill="none" stroke="#191970" d="M548.779,-190.462C569.9113,-179.5605 605.6621,-161.1176 630.3125,-148.4011"/>
<polygon fill="#191970" stroke="#191970" points="632.1996,-151.3659 639.4821,-143.6708 628.9903,-145.1449 632.1996,-151.3659"/>
</g>
<!-- Node9 -->
<g id="node10" class="node">
<title>Node9</title>
<g id="a_node10"><a xlink:title=" ">
<polygon fill="none" stroke="#bfbfbf" points="716.1807,-125.5 716.1807,-143.5 808.3379,-143.5 808.3379,-125.5 716.1807,-125.5"/>
<text text-anchor="middle" x="762.2593" y="-131.5" font-family="Helvetica,sans-Serif" font-size="10.00" fill="#000000">boost/atomic.hpp</text>
</a>
</g>
</g>
<!-- Node2&#45;&gt;Node9 -->
<g id="edge9" class="edge">
<title>Node2&#45;&gt;Node9</title>
<path fill="none" stroke="#191970" d="M563.3788,-190.462C604.2937,-178.9492 675.0991,-159.0256 720.2588,-146.3183"/>
<polygon fill="#191970" stroke="#191970" points="721.3629,-149.6436 730.041,-143.5658 719.4668,-142.9053 721.3629,-149.6436"/>
</g>
<!-- Node10 -->
<g id="node11" class="node">
<title>Node10</title>
<g id="a_node11"><a xlink:href="_s_c_upload_data_8hxx.html" target="_top" xlink:title=" ">
<polygon fill="none" stroke="#000000" points="62.7769,-125.5 62.7769,-143.5 227.7417,-143.5 227.7417,-125.5 62.7769,-125.5"/>
<text text-anchor="middle" x="145.2593" y="-131.5" font-family="Helvetica,sans-Serif" font-size="10.00" fill="#000000">MeetingClient/SCUploadData.hxx</text>
</a>
</g>
</g>
<!-- Node2&#45;&gt;Node10 -->
<g id="edge10" class="edge">
<title>Node2&#45;&gt;Node10</title>
<path fill="none" stroke="#191970" d="M477.5876,-190.462C407.253,-178.6181 284.0573,-157.8727 209.0401,-145.2403"/>
<polygon fill="#191970" stroke="#191970" points="209.2275,-141.7227 198.7851,-143.5134 208.0651,-148.6255 209.2275,-141.7227"/>
</g>
<!-- Node6 -->
<g id="node7" class="node">
<title>Node6</title>
<g id="a_node7"><a xlink:title=" ">
<polygon fill="none" stroke="#bfbfbf" points="455.4785,-60.5 455.4785,-78.5 507.04,-78.5 507.04,-60.5 455.4785,-60.5"/>
<text text-anchor="middle" x="481.2593" y="-66.5" font-family="Helvetica,sans-Serif" font-size="10.00" fill="#000000">sstream</text>
</a>
</g>
</g>
<!-- Node5&#45;&gt;Node6 -->
<g id="edge6" class="edge">
<title>Node5&#45;&gt;Node6</title>
<path fill="none" stroke="#191970" d="M520.41,-120.396C512.7809,-110.4781 502.5302,-97.1522 494.4315,-86.6239"/>
<polygon fill="#191970" stroke="#191970" points="497.1109,-84.3666 488.2395,-78.5743 491.5625,-88.6346 497.1109,-84.3666"/>
</g>
<!-- Node7 -->
<g id="node8" class="node">
<title>Node7</title>
<g id="a_node8"><a xlink:title=" ">
<polygon fill="none" stroke="#bfbfbf" points="524.7495,-60.5 524.7495,-78.5 575.769,-78.5 575.769,-60.5 524.7495,-60.5"/>
<text text-anchor="middle" x="550.2593" y="-66.5" font-family="Helvetica,sans-Serif" font-size="10.00" fill="#000000">iomanip</text>
</a>
</g>
</g>
<!-- Node5&#45;&gt;Node7 -->
<g id="edge7" class="edge">
<title>Node5&#45;&gt;Node7</title>
<path fill="none" stroke="#191970" d="M535.382,-120.396C538.1361,-110.974 541.7893,-98.4763 544.7863,-88.2233"/>
<polygon fill="#191970" stroke="#191970" points="548.1605,-89.1547 547.6068,-78.5743 541.4416,-87.1906 548.1605,-89.1547"/>
</g>
<!-- Node11 -->
<g id="node12" class="node">
<title>Node11</title>
<g id="a_node12"><a xlink:title=" ">
<polygon fill="none" stroke="#bfbfbf" points="0,-60.5 0,-78.5 82.5186,-78.5 82.5186,-60.5 0,-60.5"/>
<text text-anchor="middle" x="41.2593" y="-66.5" font-family="Helvetica,sans-Serif" font-size="10.00" fill="#000000">Utils/Buffer.hxx</text>
</a>
</g>
</g>
<!-- Node10&#45;&gt;Node11 -->
<g id="edge11" class="edge">
<title>Node10&#45;&gt;Node11</title>
<path fill="none" stroke="#191970" d="M130.7985,-125.462C113.6647,-114.7534 84.8882,-96.7681 64.5899,-84.0816"/>
<polygon fill="#191970" stroke="#191970" points="66.2675,-81.0028 55.9325,-78.6708 62.5575,-86.9388 66.2675,-81.0028"/>
</g>
<!-- Node12 -->
<g id="node13" class="node">
<title>Node12</title>
<g id="a_node13"><a xlink:title=" ">
<polygon fill="none" stroke="#bfbfbf" points="100.582,-60.5 100.582,-78.5 189.9365,-78.5 189.9365,-60.5 100.582,-60.5"/>
<text text-anchor="middle" x="145.2593" y="-66.5" font-family="Helvetica,sans-Serif" font-size="10.00" fill="#000000">Utils/EString.hxx</text>
</a>
</g>
</g>
<!-- Node10&#45;&gt;Node12 -->
<g id="edge12" class="edge">
<title>Node10&#45;&gt;Node12</title>
<path fill="none" stroke="#191970" d="M145.2593,-125.462C145.2593,-116.061 145.2593,-101.0518 145.2593,-88.943"/>
<polygon fill="#191970" stroke="#191970" points="148.7594,-88.8821 145.2593,-78.8821 141.7594,-88.8822 148.7594,-88.8821"/>
</g>
<!-- Node13 -->
<g id="node14" class="node">
<title>Node13</title>
<g id="a_node14"><a xlink:title=" ">
<polygon fill="none" stroke="#bfbfbf" points="207.5278,-60.5 207.5278,-78.5 252.9907,-78.5 252.9907,-60.5 207.5278,-60.5"/>
<text text-anchor="middle" x="230.2593" y="-66.5" font-family="Helvetica,sans-Serif" font-size="10.00" fill="#000000">stdio.h</text>
</a>
</g>
</g>
<!-- Node10&#45;&gt;Node13 -->
<g id="edge13" class="edge">
<title>Node10&#45;&gt;Node13</title>
<path fill="none" stroke="#191970" d="M157.0782,-125.462C170.8294,-114.9464 193.7566,-97.4138 210.2876,-84.7725"/>
<polygon fill="#191970" stroke="#191970" points="212.4492,-87.5256 218.2668,-78.6708 208.1971,-81.965 212.4492,-87.5256"/>
</g>
<!-- Node15 -->
<g id="node16" class="node">
<title>Node15</title>
<g id="a_node16"><a xlink:href="_common_data_types_8hxx.html" target="_top" xlink:title=" ">
<polygon fill="none" stroke="#000000" points="980.5132,-55.5 980.5132,-83.5 1106.0054,-83.5 1106.0054,-55.5 980.5132,-55.5"/>
<text text-anchor="start" x="988.5132" y="-71.5" font-family="Helvetica,sans-Serif" font-size="10.00" fill="#000000">MeetingClient/types</text>
<text text-anchor="middle" x="1043.2593" y="-61.5" font-family="Helvetica,sans-Serif" font-size="10.00" fill="#000000">/CommonDataTypes.hxx</text>
</a>
</g>
</g>
<!-- Node14&#45;&gt;Node15 -->
<g id="edge15" class="edge">
<title>Node14&#45;&gt;Node15</title>
<path fill="none" stroke="#191970" d="M1048.6351,-185.0756C1051.438,-175.0611 1054.8119,-161.3513 1056.2593,-149 1057.7593,-136.1987 1057.8787,-132.7867 1056.2593,-120 1055.1556,-111.2852 1053.0209,-101.9217 1050.7954,-93.6533"/>
<polygon fill="#191970" stroke="#191970" points="1054.1188,-92.5453 1047.9986,-83.897 1047.3898,-94.4743 1054.1188,-92.5453"/>
</g>
<!-- Node14&#45;&gt;Node18 -->
<g id="edge18" class="edge">
<title>Node14&#45;&gt;Node18</title>
<path fill="none" stroke="#191970" d="M1011.7115,-185.396C989.4999,-175.7709 959.8814,-162.9362 935.9448,-152.5637"/>
<polygon fill="#191970" stroke="#191970" points="937.3107,-149.3412 926.7435,-148.5765 934.5274,-155.7641 937.3107,-149.3412"/>
</g>
<!-- Node22 -->
<g id="node23" class="node">
<title>Node22</title>
<g id="a_node23"><a xlink:href="_web_parameters_8hxx.html" target="_top" xlink:title=" ">
<polygon fill="none" stroke="#000000" points="1171.7891,-120.5 1171.7891,-148.5 1306.7295,-148.5 1306.7295,-120.5 1171.7891,-120.5"/>
<text text-anchor="start" x="1179.7891" y="-136.5" font-family="Helvetica,sans-Serif" font-size="10.00" fill="#000000">MeetingClient/webservices</text>
<text text-anchor="middle" x="1239.2593" y="-126.5" font-family="Helvetica,sans-Serif" font-size="10.00" fill="#000000">/WebParameters.hxx</text>
</a>
</g>
</g>
<!-- Node14&#45;&gt;Node22 -->
<g id="edge22" class="edge">
<title>Node14&#45;&gt;Node22</title>
<path fill="none" stroke="#191970" d="M1086.5714,-185.396C1116.213,-175.5154 1156.0018,-162.2525 1187.5305,-151.7429"/>
<polygon fill="#191970" stroke="#191970" points="1188.6497,-155.0592 1197.0298,-148.5765 1186.4361,-148.4185 1188.6497,-155.0592"/>
</g>
<!-- Node29 -->
<g id="node30" class="node">
<title>Node29</title>
<g id="a_node30"><a xlink:title=" ">
<polygon fill="none" stroke="#bfbfbf" points="1324.2988,-125.5 1324.2988,-143.5 1414.2197,-143.5 1414.2197,-125.5 1324.2988,-125.5"/>
<text text-anchor="middle" x="1369.2593" y="-131.5" font-family="Helvetica,sans-Serif" font-size="10.00" fill="#000000">Utils/Version.hxx</text>
</a>
</g>
</g>
<!-- Node14&#45;&gt;Node29 -->
<g id="edge30" class="edge">
<title>Node14&#45;&gt;Node29</title>
<path fill="none" stroke="#191970" d="M1113.6239,-188.111C1168.5579,-178.7218 1247.1204,-164.4722 1315.2593,-149 1319.306,-148.0811 1323.5071,-147.0648 1327.6981,-146.0091"/>
<polygon fill="#191970" stroke="#191970" points="1328.5779,-149.3968 1337.3815,-143.5021 1326.8234,-142.6203 1328.5779,-149.3968"/>
</g>
<!-- Node30 -->
<g id="node31" class="node">
<title>Node30</title>
<g id="a_node31"><a xlink:href="macros_8hxx.html" target="_top" xlink:title=" ">
<polygon fill="none" stroke="#000000" points="979.6978,-125.5 979.6978,-143.5 1046.8208,-143.5 1046.8208,-125.5 979.6978,-125.5"/>
<text text-anchor="middle" x="1013.2593" y="-131.5" font-family="Helvetica,sans-Serif" font-size="10.00" fill="#000000">macros.hxx</text>
</a>
</g>
</g>
<!-- Node14&#45;&gt;Node30 -->
<g id="edge31" class="edge">
<title>Node14&#45;&gt;Node30</title>
<path fill="none" stroke="#191970" d="M1037.5327,-185.396C1032.9919,-175.8748 1026.9531,-163.2128 1022.0348,-152.9003"/>
<polygon fill="#191970" stroke="#191970" points="1025.0509,-151.0937 1017.587,-143.5743 1018.7327,-154.107 1025.0509,-151.0937"/>
</g>
<!-- Node16 -->
<g id="node17" class="node">
<title>Node16</title>
<g id="a_node17"><a xlink:title=" ">
<polygon fill="none" stroke="#bfbfbf" points="1067.0327,-.5 1067.0327,-18.5 1107.4858,-18.5 1107.4858,-.5 1067.0327,-.5"/>
<text text-anchor="middle" x="1087.2593" y="-6.5" font-family="Helvetica,sans-Serif" font-size="10.00" fill="#000000">string</text>
</a>
</g>
</g>
<!-- Node15&#45;&gt;Node16 -->
<g id="edge16" class="edge">
<title>Node15&#45;&gt;Node16</title>
<path fill="none" stroke="#191970" d="M1053.6867,-55.2808C1059.9382,-46.756 1067.9327,-35.8545 1074.552,-26.8281"/>
<polygon fill="#191970" stroke="#191970" points="1077.5063,-28.718 1080.5975,-18.5842 1071.8614,-24.5785 1077.5063,-28.718"/>
</g>
<!-- Node17 -->
<g id="node18" class="node">
<title>Node17</title>
<g id="a_node18"><a xlink:title=" ">
<polygon fill="none" stroke="#bfbfbf" points="947.4639,-.5 947.4639,-18.5 1049.0547,-18.5 1049.0547,-.5 947.4639,-.5"/>
<text text-anchor="middle" x="998.2593" y="-6.5" font-family="Helvetica,sans-Serif" font-size="10.00" fill="#000000">CommonTypes.hxx</text>
</a>
</g>
</g>
<!-- Node15&#45;&gt;Node17 -->
<g id="edge17" class="edge">
<title>Node15&#45;&gt;Node17</title>
<path fill="none" stroke="#191970" d="M1032.5949,-55.2808C1026.2013,-46.756 1018.0251,-35.8545 1011.2553,-26.8281"/>
<polygon fill="#191970" stroke="#191970" points="1013.8725,-24.4842 1005.0724,-18.5842 1008.2725,-28.6842 1013.8725,-24.4842"/>
</g>
<!-- Node19 -->
<g id="node20" class="node">
<title>Node19</title>
<g id="a_node20"><a xlink:title=" ">
<polygon fill="none" stroke="#bfbfbf" points="888.3555,-60.5 888.3555,-78.5 962.1631,-78.5 962.1631,-60.5 888.3555,-60.5"/>
<text text-anchor="middle" x="925.2593" y="-66.5" font-family="Helvetica,sans-Serif" font-size="10.00" fill="#000000">Printable.hxx</text>
</a>
</g>
</g>
<!-- Node18&#45;&gt;Node19 -->
<g id="edge19" class="edge">
<title>Node18&#45;&gt;Node19</title>
<path fill="none" stroke="#191970" d="M900.9858,-120.396C905.5267,-110.8748 911.5655,-98.2128 916.4837,-87.9003"/>
<polygon fill="#191970" stroke="#191970" points="919.7859,-89.107 920.9315,-78.5743 913.4676,-86.0937 919.7859,-89.107"/>
</g>
<!-- Node20 -->
<g id="node21" class="node">
<title>Node20</title>
<g id="a_node21"><a xlink:title=" ">
<polygon fill="none" stroke="#bfbfbf" points="644.395,-60.5 644.395,-78.5 742.1235,-78.5 742.1235,-60.5 644.395,-60.5"/>
<text text-anchor="middle" x="693.2593" y="-66.5" font-family="Helvetica,sans-Serif" font-size="10.00" fill="#000000">boost/function.hpp</text>
</a>
</g>
</g>
<!-- Node18&#45;&gt;Node20 -->
<g id="edge20" class="edge">
<title>Node18&#45;&gt;Node20</title>
<path fill="none" stroke="#191970" d="M850.6453,-120.396C814.9157,-108.8416 764.883,-92.6619 730.8887,-81.6687"/>
<polygon fill="#191970" stroke="#191970" points="731.9116,-78.3211 721.3198,-78.5743 729.7577,-84.9815 731.9116,-78.3211"/>
</g>
<!-- Node21 -->
<g id="node22" class="node">
<title>Node21</title>
<g id="a_node22"><a xlink:title=" ">
<polygon fill="none" stroke="#bfbfbf" points="760.2769,-60.5 760.2769,-78.5 870.2417,-78.5 870.2417,-60.5 760.2769,-60.5"/>
<text text-anchor="middle" x="815.2593" y="-66.5" font-family="Helvetica,sans-Serif" font-size="10.00" fill="#000000">boost/shared_ptr.hpp</text>
</a>
</g>
</g>
<!-- Node18&#45;&gt;Node21 -->
<g id="edge21" class="edge">
<title>Node18&#45;&gt;Node21</title>
<path fill="none" stroke="#191970" d="M877.1175,-120.396C864.4607,-109.9822 847.2374,-95.8111 834.1784,-85.0664"/>
<polygon fill="#191970" stroke="#191970" points="836.234,-82.2252 826.288,-78.5743 831.7864,-87.6307 836.234,-82.2252"/>
</g>
<!-- Node22&#45;&gt;Node15 -->
<g id="edge25" class="edge">
<title>Node22&#45;&gt;Node15</title>
<path fill="none" stroke="#191970" d="M1196.7302,-120.396C1166.9365,-110.5154 1126.9437,-97.2525 1095.2533,-86.7429"/>
<polygon fill="#191970" stroke="#191970" points="1096.2988,-83.4022 1085.7054,-83.5765 1094.0953,-90.0464 1096.2988,-83.4022"/>
</g>
<!-- Node23 -->
<g id="node24" class="node">
<title>Node23</title>
<g id="a_node24"><a xlink:title=" ">
<polygon fill="none" stroke="#bfbfbf" points="1258.5327,-60.5 1258.5327,-78.5 1293.9858,-78.5 1293.9858,-60.5 1258.5327,-60.5"/>
<text text-anchor="middle" x="1276.2593" y="-66.5" font-family="Helvetica,sans-Serif" font-size="10.00" fill="#000000">map</text>
</a>
</g>
</g>
<!-- Node22&#45;&gt;Node23 -->
<g id="edge23" class="edge">
<title>Node22&#45;&gt;Node23</title>
<path fill="none" stroke="#191970" d="M1247.2877,-120.396C1252.7639,-110.7756 1260.0654,-97.9487 1265.9683,-87.5788"/>
<polygon fill="#191970" stroke="#191970" points="1269.1886,-88.9964 1271.0939,-78.5743 1263.1051,-85.5335 1269.1886,-88.9964"/>
</g>
<!-- Node24 -->
<g id="node25" class="node">
<title>Node24</title>
<g id="a_node25"><a xlink:title=" ">
<polygon fill="none" stroke="#bfbfbf" points="1311.7593,-60.5 1311.7593,-78.5 1340.7593,-78.5 1340.7593,-60.5 1311.7593,-60.5"/>
<text text-anchor="middle" x="1325.8701" y="-66.5" font-family="Helvetica,sans-Serif" font-size="10.00" fill="#000000">list</text>
</a>
</g>
</g>
<!-- Node22&#45;&gt;Node24 -->
<g id="edge24" class="edge">
<title>Node22&#45;&gt;Node24</title>
<path fill="none" stroke="#191970" d="M1258.137,-120.396C1272.2082,-109.883 1291.4046,-95.5408 1305.8339,-84.7603"/>
<polygon fill="#191970" stroke="#191970" points="1308.1975,-87.3635 1314.1137,-78.5743 1304.0078,-81.7557 1308.1975,-87.3635"/>
</g>
<!-- Node25 -->
<g id="node26" class="node">
<title>Node25</title>
<g id="a_node26"><a xlink:href="opt__value_8hxx.html" target="_top" xlink:title=" ">
<polygon fill="none" stroke="#000000" points="1358.4072,-55.5 1358.4072,-83.5 1456.1113,-83.5 1456.1113,-55.5 1358.4072,-55.5"/>
<text text-anchor="start" x="1366.4072" y="-71.5" font-family="Helvetica,sans-Serif" font-size="10.00" fill="#000000">MeetingClient/utils</text>
<text text-anchor="middle" x="1407.2593" y="-61.5" font-family="Helvetica,sans-Serif" font-size="10.00" fill="#000000">/opt_value.hxx</text>
</a>
</g>
</g>
<!-- Node22&#45;&gt;Node25 -->
<g id="edge26" class="edge">
<title>Node22&#45;&gt;Node25</title>
<path fill="none" stroke="#191970" d="M1275.7128,-120.396C1300.8099,-110.6858 1334.3503,-97.7088 1361.2817,-87.2889"/>
<polygon fill="#191970" stroke="#191970" points="1362.8136,-90.4492 1370.8769,-83.5765 1360.2877,-83.9208 1362.8136,-90.4492"/>
</g>
<!-- Node27 -->
<g id="node28" class="node">
<title>Node27</title>
<g id="a_node28"><a xlink:title=" ">
<polygon fill="none" stroke="#bfbfbf" points="1473.7842,-55.5 1473.7842,-83.5 1578.7344,-83.5 1578.7344,-55.5 1473.7842,-55.5"/>
<text text-anchor="start" x="1481.7842" y="-71.5" font-family="Helvetica,sans-Serif" font-size="10.00" fill="#000000">boost/thread/shared</text>
<text text-anchor="middle" x="1526.2593" y="-61.5" font-family="Helvetica,sans-Serif" font-size="10.00" fill="#000000">_mutex.hpp</text>
</a>
</g>
</g>
<!-- Node22&#45;&gt;Node27 -->
<g id="edge28" class="edge">
<title>Node22&#45;&gt;Node27</title>
<path fill="none" stroke="#191970" d="M1303.1181,-120.4723C1346.022,-110.9917 1404.0959,-98.052 1463.7264,-84.3389"/>
<polygon fill="#191970" stroke="#191970" points="1464.7383,-87.6975 1473.6974,-82.0419 1463.1669,-80.8761 1464.7383,-87.6975"/>
</g>
<!-- Node28 -->
<g id="node29" class="node">
<title>Node28</title>
<g id="a_node29"><a xlink:title=" ">
<polygon fill="none" stroke="#bfbfbf" points="1123.9492,-60.5 1123.9492,-78.5 1240.5693,-78.5 1240.5693,-60.5 1123.9492,-60.5"/>
<text text-anchor="middle" x="1182.2593" y="-66.5" font-family="Helvetica,sans-Serif" font-size="10.00" fill="#000000">boost/thread/locks.hpp</text>
</a>
</g>
</g>
<!-- Node22&#45;&gt;Node28 -->
<g id="edge29" class="edge">
<title>Node22&#45;&gt;Node28</title>
<path fill="none" stroke="#191970" d="M1226.8911,-120.396C1218.1069,-110.3789 1206.2741,-96.8853 1196.9994,-86.3089"/>
<polygon fill="#191970" stroke="#191970" points="1199.4415,-83.7853 1190.2167,-78.5743 1194.1785,-88.4006 1199.4415,-83.7853"/>
</g>
<!-- Node26 -->
<g id="node27" class="node">
<title>Node26</title>
<g id="a_node27"><a xlink:title=" ">
<polygon fill="none" stroke="#bfbfbf" points="1370.917,-.5 1370.917,-18.5 1443.6016,-18.5 1443.6016,-.5 1370.917,-.5"/>
<text text-anchor="middle" x="1407.2593" y="-6.5" font-family="Helvetica,sans-Serif" font-size="10.00" fill="#000000">initializer_list</text>
</a>
</g>
</g>
<!-- Node25&#45;&gt;Node26 -->
<g id="edge27" class="edge">
<title>Node25&#45;&gt;Node26</title>
<path fill="none" stroke="#191970" d="M1407.2593,-55.2808C1407.2593,-47.3776 1407.2593,-37.4316 1407.2593,-28.8308"/>
<polygon fill="#191970" stroke="#191970" points="1410.7594,-28.5842 1407.2593,-18.5842 1403.7594,-28.5842 1410.7594,-28.5842"/>
</g>
</g>
</svg>
