<?xml version="1.0" encoding="UTF-8" standalone="no"?>
<!DOCTYPE svg PUBLIC "-//W3C//DTD SVG 1.1//EN"
 "http://www.w3.org/Graphics/SVG/1.1/DTD/svg11.dtd">
<!-- Generated by graphviz version 2.40.1 (20161225.0304)
 -->
<!-- Title: cx::web::SubscriptionEntity::valid Pages: 1 -->
<svg width="574pt" height="84pt"
 viewBox="0.00 0.00 573.51 84.00" xmlns="http://www.w3.org/2000/svg" xmlns:xlink="http://www.w3.org/1999/xlink">
<g id="graph0" class="graph" transform="scale(1 1) rotate(0) translate(4 80)">
<title>cx::web::SubscriptionEntity::valid</title>
<!-- Node8 -->
<g id="node1" class="node">
<title>Node8</title>
<g id="a_node1"><a xlink:title=" ">
<polygon fill="#bfbfbf" stroke="#000000" points="0,-21.5 0,-49.5 135.4971,-49.5 135.4971,-21.5 0,-21.5"/>
<text text-anchor="start" x="8" y="-37.5" font-family="Helvetica,sans-Serif" font-size="10.00" fill="#000000">cx::web::SubscriptionEntity</text>
<text text-anchor="middle" x="67.7485" y="-27.5" font-family="Helvetica,sans-Serif" font-size="10.00" fill="#000000">::valid</text>
</a>
</g>
</g>
<!-- Node9 -->
<g id="node2" class="node">
<title>Node9</title>
<g id="a_node2"><a xlink:href="structcx_1_1web_1_1json__entity.html#aa681ca07ba01ea1346649b9bb01c71af" target="_top" xlink:title=" ">
<polygon fill="none" stroke="#000000" points="171.4971,-43.5 171.4971,-71.5 274.7627,-71.5 274.7627,-43.5 171.4971,-43.5"/>
<text text-anchor="start" x="179.4971" y="-59.5" font-family="Helvetica,sans-Serif" font-size="10.00" fill="#000000">cx::web::json_entity</text>
<text text-anchor="middle" x="223.1299" y="-49.5" font-family="Helvetica,sans-Serif" font-size="10.00" fill="#000000">::valid</text>
</a>
</g>
</g>
<!-- Node8&#45;&gt;Node9 -->
<g id="edge1" class="edge">
<title>Node8&#45;&gt;Node9</title>
<path fill="none" stroke="#191970" d="M135.9011,-45.1495C144.3648,-46.3479 152.9818,-47.5679 161.3422,-48.7517"/>
<polygon fill="#191970" stroke="#191970" points="160.9931,-52.2371 171.3851,-50.1736 161.9745,-45.3062 160.9931,-52.2371"/>
</g>
<!-- Node11 -->
<g id="node4" class="node">
<title>Node11</title>
<g id="a_node4"><a xlink:href="structcx_1_1web_1_1json__entity.html#a1fbed015492bb7a0c4ec31550fc3de1d" target="_top" xlink:title=" ">
<polygon fill="none" stroke="#000000" points="313.8169,-.5 313.8169,-28.5 417.0825,-28.5 417.0825,-.5 313.8169,-.5"/>
<text text-anchor="start" x="321.8169" y="-16.5" font-family="Helvetica,sans-Serif" font-size="10.00" fill="#000000">cx::web::json_entity</text>
<text text-anchor="middle" x="365.4497" y="-6.5" font-family="Helvetica,sans-Serif" font-size="10.00" fill="#000000">::get_json</text>
</a>
</g>
</g>
<!-- Node8&#45;&gt;Node11 -->
<g id="edge5" class="edge">
<title>Node8&#45;&gt;Node11</title>
<path fill="none" stroke="#191970" d="M135.674,-30.7085C186.141,-27.1485 254.4392,-22.3307 303.4353,-18.8745"/>
<polygon fill="#191970" stroke="#191970" points="303.8553,-22.3537 313.5842,-18.1586 303.3626,-15.371 303.8553,-22.3537"/>
</g>
<!-- Node10 -->
<g id="node3" class="node">
<title>Node10</title>
<g id="a_node3"><a xlink:href="structcx_1_1web_1_1string__entity.html#adbe62e791cc18ea9f4ae7fc45468c32c" target="_top" xlink:title=" ">
<polygon fill="none" stroke="#000000" points="310.7627,-47.5 310.7627,-75.5 420.1367,-75.5 420.1367,-47.5 310.7627,-47.5"/>
<text text-anchor="start" x="318.7627" y="-63.5" font-family="Helvetica,sans-Serif" font-size="10.00" fill="#000000">cx::web::string_entity</text>
<text text-anchor="middle" x="365.4497" y="-53.5" font-family="Helvetica,sans-Serif" font-size="10.00" fill="#000000">::valid</text>
</a>
</g>
</g>
<!-- Node9&#45;&gt;Node10 -->
<g id="edge2" class="edge">
<title>Node9&#45;&gt;Node10</title>
<path fill="none" stroke="#191970" d="M274.9132,-58.9554C283.2534,-59.1898 291.9781,-59.435 300.5792,-59.6768"/>
<polygon fill="#191970" stroke="#191970" points="300.4946,-63.1757 310.589,-59.9581 300.6913,-56.1784 300.4946,-63.1757"/>
</g>
<!-- Node9&#45;&gt;Node11 -->
<g id="edge3" class="edge">
<title>Node9&#45;&gt;Node11</title>
<path fill="none" stroke="#191970" d="M269.7307,-43.4202C282.2632,-39.6337 295.9541,-35.4972 308.9613,-31.5672"/>
<polygon fill="#191970" stroke="#191970" points="310.1839,-34.8542 318.7442,-28.6114 308.1593,-28.1533 310.1839,-34.8542"/>
</g>
<!-- Node12 -->
<g id="node5" class="node">
<title>Node12</title>
<g id="a_node5"><a xlink:href="structcx_1_1web_1_1string__entity.html#a532443f26d829f9d361289d856513ff4" target="_top" xlink:title=" ">
<polygon fill="none" stroke="#000000" points="456.1367,-.5 456.1367,-28.5 565.5107,-28.5 565.5107,-.5 456.1367,-.5"/>
<text text-anchor="start" x="464.1367" y="-16.5" font-family="Helvetica,sans-Serif" font-size="10.00" fill="#000000">cx::web::string_entity</text>
<text text-anchor="middle" x="510.8237" y="-6.5" font-family="Helvetica,sans-Serif" font-size="10.00" fill="#000000">::get_string</text>
</a>
</g>
</g>
<!-- Node11&#45;&gt;Node12 -->
<g id="edge4" class="edge">
<title>Node11&#45;&gt;Node12</title>
<path fill="none" stroke="#191970" d="M417.1125,-14.5C426.3421,-14.5 436.0666,-14.5 445.617,-14.5"/>
<polygon fill="#191970" stroke="#191970" points="445.8803,-18.0001 455.8802,-14.5 445.8802,-11.0001 445.8803,-18.0001"/>
</g>
</g>
</svg>
