<?xml version="1.0" encoding="UTF-8" standalone="no"?>
<!DOCTYPE svg PUBLIC "-//W3C//DTD SVG 1.1//EN"
 "http://www.w3.org/Graphics/SVG/1.1/DTD/svg11.dtd">
<!-- Generated by graphviz version 2.40.1 (20161225.0304)
 -->
<!-- Title: fs::AttendeeDecorator::getSecondaryIdentifier Pages: 1 -->
<svg width="345pt" height="178pt"
 viewBox="0.00 0.00 345.06 178.00" xmlns="http://www.w3.org/2000/svg" xmlns:xlink="http://www.w3.org/1999/xlink">
<g id="graph0" class="graph" transform="scale(1 1) rotate(0) translate(4 174)">
<title>fs::AttendeeDecorator::getSecondaryIdentifier</title>
<!-- Node9 -->
<g id="node1" class="node">
<title>Node9</title>
<g id="a_node1"><a xlink:title=" ">
<polygon fill="#bfbfbf" stroke="#000000" points="215.4424,-70.5 215.4424,-98.5 337.0625,-98.5 337.0625,-70.5 215.4424,-70.5"/>
<text text-anchor="start" x="223.4424" y="-86.5" font-family="Helvetica,sans-Serif" font-size="10.00" fill="#000000">fs::AttendeeDecorator</text>
<text text-anchor="middle" x="276.2524" y="-76.5" font-family="Helvetica,sans-Serif" font-size="10.00" fill="#000000">::getSecondaryIdentifier</text>
</a>
</g>
</g>
<!-- Node10 -->
<g id="node2" class="node">
<title>Node10</title>
<g id="a_node2"><a xlink:href="classfs_1_1_attendees_controller.html#a36c0099b3d5b2488207271e1e2b75a6c" target="_top" xlink:title=" ">
<polygon fill="none" stroke="#000000" points="30.8618,-141.5 30.8618,-169.5 148.5806,-169.5 148.5806,-141.5 30.8618,-141.5"/>
<text text-anchor="start" x="38.8618" y="-157.5" font-family="Helvetica,sans-Serif" font-size="10.00" fill="#000000">fs::AttendeesController</text>
<text text-anchor="middle" x="89.7212" y="-147.5" font-family="Helvetica,sans-Serif" font-size="10.00" fill="#000000">::onAttendeeJoined</text>
</a>
</g>
</g>
<!-- Node9&#45;&gt;Node10 -->
<g id="edge1" class="edge">
<title>Node9&#45;&gt;Node10</title>
<path fill="none" stroke="#191970" d="M242.3607,-103.4887C224.1253,-113.1409 201.0072,-124.4906 179.4424,-132.5 169.6442,-136.1392 159.0375,-139.4131 148.6645,-142.2726"/>
<polygon fill="#191970" stroke="#191970" points="244.265,-106.4388 251.4175,-98.6226 240.9519,-100.2724 244.265,-106.4388"/>
</g>
<!-- Node11 -->
<g id="node3" class="node">
<title>Node11</title>
<g id="a_node3"><a xlink:href="classfs_1_1_attendees_controller.html#aaee9fa6c025a80b78510a4a5dfdc6ee5" target="_top" xlink:title=" ">
<polygon fill="none" stroke="#000000" points="2.5049,-94.5 2.5049,-122.5 176.9375,-122.5 176.9375,-94.5 2.5049,-94.5"/>
<text text-anchor="start" x="10.5049" y="-110.5" font-family="Helvetica,sans-Serif" font-size="10.00" fill="#000000">fs::AttendeesController</text>
<text text-anchor="middle" x="89.7212" y="-100.5" font-family="Helvetica,sans-Serif" font-size="10.00" fill="#000000">::onAttendeeCustomNameChanged</text>
</a>
</g>
</g>
<!-- Node9&#45;&gt;Node11 -->
<g id="edge2" class="edge">
<title>Node9&#45;&gt;Node11</title>
<path fill="none" stroke="#191970" d="M205.2337,-93.6376C196.0671,-94.817 186.5961,-96.0356 177.2035,-97.2441"/>
<polygon fill="#191970" stroke="#191970" points="205.9617,-97.0729 215.4332,-92.3253 205.0683,-90.1301 205.9617,-97.0729"/>
</g>
<!-- Node12 -->
<g id="node4" class="node">
<title>Node12</title>
<g id="a_node4"><a xlink:href="classfs_1_1_attendees_controller.html#a621b575aaad5a6ee3ab64c0e909bb399" target="_top" xlink:title=" ">
<polygon fill="none" stroke="#000000" points="0,-47.5 0,-75.5 179.4424,-75.5 179.4424,-47.5 0,-47.5"/>
<text text-anchor="start" x="8" y="-63.5" font-family="Helvetica,sans-Serif" font-size="10.00" fill="#000000">fs::AttendeesController</text>
<text text-anchor="middle" x="89.7212" y="-53.5" font-family="Helvetica,sans-Serif" font-size="10.00" fill="#000000">::onAttendeeCallingNumberChanged</text>
</a>
</g>
</g>
<!-- Node9&#45;&gt;Node12 -->
<g id="edge3" class="edge">
<title>Node9&#45;&gt;Node12</title>
<path fill="none" stroke="#191970" d="M205.3082,-75.7523C196.8863,-74.7139 188.2063,-73.6436 179.5656,-72.5782"/>
<polygon fill="#191970" stroke="#191970" points="205.0801,-79.2506 215.4332,-77.0008 205.9367,-72.3032 205.0801,-79.2506"/>
</g>
<!-- Node13 -->
<g id="node5" class="node">
<title>Node13</title>
<g id="a_node5"><a xlink:href="classfs_1_1_attendees_controller.html#a6f56554c6e8a8480d6953935857a00b9" target="_top" xlink:title=" ">
<polygon fill="none" stroke="#000000" points="30.8618,-.5 30.8618,-28.5 148.5806,-28.5 148.5806,-.5 30.8618,-.5"/>
<text text-anchor="start" x="38.8618" y="-16.5" font-family="Helvetica,sans-Serif" font-size="10.00" fill="#000000">fs::AttendeesController</text>
<text text-anchor="middle" x="89.7212" y="-6.5" font-family="Helvetica,sans-Serif" font-size="10.00" fill="#000000">::updateAttendee</text>
</a>
</g>
</g>
<!-- Node9&#45;&gt;Node13 -->
<g id="edge4" class="edge">
<title>Node9&#45;&gt;Node13</title>
<path fill="none" stroke="#191970" d="M241.091,-65.8894C223.0074,-56.8104 200.4116,-46.2133 179.4424,-38.5 169.606,-34.8818 158.9804,-31.5537 148.6006,-28.6017"/>
<polygon fill="#191970" stroke="#191970" points="239.6039,-69.0597 250.1037,-70.4754 242.7784,-62.8209 239.6039,-69.0597"/>
</g>
</g>
</svg>
