<?xml version="1.0" encoding="UTF-8" standalone="no"?>
<!DOCTYPE svg PUBLIC "-//W3C//DTD SVG 1.1//EN"
 "http://www.w3.org/Graphics/SVG/1.1/DTD/svg11.dtd">
<!-- Generated by graphviz version 2.40.1 (20161225.0304)
 -->
<!-- Title: fs::FSPresenterTakeControlPkt Pages: 1 -->
<svg width="163pt" height="447pt"
 viewBox="0.00 0.00 163.22 447.00" xmlns="http://www.w3.org/2000/svg" xmlns:xlink="http://www.w3.org/1999/xlink">
<g id="graph0" class="graph" transform="scale(1 1) rotate(0) translate(4 443)">
<title>fs::FSPresenterTakeControlPkt</title>
<!-- Node2 -->
<g id="node1" class="node">
<title>Node2</title>
<g id="a_node1"><a xlink:title=" ">
<polygon fill="#bfbfbf" stroke="#000000" points="0,-.5 0,-54.5 155.2188,-54.5 155.2188,-.5 0,-.5"/>
<text text-anchor="middle" x="77.6094" y="-42.5" font-family="Helvetica,sans-Serif" font-size="10.00" fill="#000000">fs::FSPresenterTakeControlPkt</text>
<polyline fill="none" stroke="#000000" points="0,-36.5 155.2188,-36.5 "/>
<text text-anchor="middle" x="77.6094" y="-24.5" font-family="Helvetica,sans-Serif" font-size="10.00" fill="#000000"> </text>
<polyline fill="none" stroke="#000000" points="0,-18.5 155.2188,-18.5 "/>
<text text-anchor="start" x="8" y="-6.5" font-family="Helvetica,sans-Serif" font-size="10.00" fill="#000000">+ FSPresenterTakeControlPkt()</text>
</a>
</g>
</g>
<!-- Node3 -->
<g id="node2" class="node">
<title>Node3</title>
<g id="a_node2"><a xlink:href="classfs_1_1_f_s_packet.html" target="_top" xlink:title=" ">
<polygon fill="none" stroke="#000000" points="37.3755,-92.5 37.3755,-206.5 117.8433,-206.5 117.8433,-92.5 37.3755,-92.5"/>
<text text-anchor="middle" x="77.6094" y="-194.5" font-family="Helvetica,sans-Serif" font-size="10.00" fill="#000000">fs::FSPacket</text>
<polyline fill="none" stroke="#000000" points="37.3755,-188.5 117.8433,-188.5 "/>
<text text-anchor="start" x="45.3755" y="-176.5" font-family="Helvetica,sans-Serif" font-size="10.00" fill="#000000"># m_iType</text>
<polyline fill="none" stroke="#000000" points="37.3755,-170.5 117.8433,-170.5 "/>
<text text-anchor="start" x="45.3755" y="-158.5" font-family="Helvetica,sans-Serif" font-size="10.00" fill="#000000">+ FSPacket()</text>
<text text-anchor="start" x="45.3755" y="-148.5" font-family="Helvetica,sans-Serif" font-size="10.00" fill="#000000">+ ~FSPacket()</text>
<text text-anchor="start" x="45.3755" y="-138.5" font-family="Helvetica,sans-Serif" font-size="10.00" fill="#000000">+ type()</text>
<text text-anchor="start" x="45.3755" y="-128.5" font-family="Helvetica,sans-Serif" font-size="10.00" fill="#000000">+ serialize()</text>
<text text-anchor="start" x="45.3755" y="-118.5" font-family="Helvetica,sans-Serif" font-size="10.00" fill="#000000">+ entry()</text>
<text text-anchor="start" x="45.3755" y="-108.5" font-family="Helvetica,sans-Serif" font-size="10.00" fill="#000000">+ setEntry()</text>
<text text-anchor="start" x="45.3755" y="-98.5" font-family="Helvetica,sans-Serif" font-size="10.00" fill="#000000">+ deserialize()</text>
</a>
</g>
</g>
<!-- Node3&#45;&gt;Node2 -->
<g id="edge1" class="edge">
<title>Node3&#45;&gt;Node2</title>
<path fill="none" stroke="#191970" d="M77.6094,-82.254C77.6094,-72.5239 77.6094,-63.0081 77.6094,-54.7107"/>
<polygon fill="none" stroke="#191970" points="74.1095,-82.4292 77.6094,-92.4292 81.1095,-82.4293 74.1095,-82.4292"/>
</g>
<!-- Node4 -->
<g id="node3" class="node">
<title>Node4</title>
<g id="a_node3"><a xlink:title=" ">
<polygon fill="none" stroke="#bfbfbf" points="4.8633,-253.5 4.8633,-307.5 150.3555,-307.5 150.3555,-253.5 4.8633,-253.5"/>
<text text-anchor="middle" x="77.6094" y="-295.5" font-family="Helvetica,sans-Serif" font-size="10.00" fill="#000000">std::vector&lt; FSPktStream * &gt;</text>
<polyline fill="none" stroke="#bfbfbf" points="4.8633,-289.5 150.3555,-289.5 "/>
<text text-anchor="middle" x="77.6094" y="-277.5" font-family="Helvetica,sans-Serif" font-size="10.00" fill="#000000"> </text>
<polyline fill="none" stroke="#bfbfbf" points="4.8633,-271.5 150.3555,-271.5 "/>
<text text-anchor="middle" x="77.6094" y="-259.5" font-family="Helvetica,sans-Serif" font-size="10.00" fill="#000000"> </text>
</a>
</g>
</g>
<!-- Node4&#45;&gt;Node3 -->
<g id="edge2" class="edge">
<title>Node4&#45;&gt;Node3</title>
<path fill="none" stroke="#404040" d="M77.6094,-253.3567C77.6094,-243.1832 77.6094,-231.1036 77.6094,-218.8438"/>
<polygon fill="none" stroke="#404040" points="77.6095,-218.5878 73.6094,-212.5879 77.6094,-206.5878 81.6094,-212.5878 77.6095,-218.5878"/>
<text text-anchor="middle" x="106.7866" y="-227" font-family="Helvetica,sans-Serif" font-size="10.00" fill="#000000"> #m_xEntries</text>
</g>
<!-- Node5 -->
<g id="node4" class="node">
<title>Node5</title>
<g id="a_node4"><a xlink:href="classfs_1_1_f_s_pkt_stream.html" target="_top" xlink:title=" ">
<polygon fill="none" stroke="#000000" points="29.3213,-354.5 29.3213,-438.5 125.8975,-438.5 125.8975,-354.5 29.3213,-354.5"/>
<text text-anchor="middle" x="77.6094" y="-426.5" font-family="Helvetica,sans-Serif" font-size="10.00" fill="#000000">fs::FSPktStream</text>
<polyline fill="none" stroke="#000000" points="29.3213,-420.5 125.8975,-420.5 "/>
<text text-anchor="start" x="37.3213" y="-408.5" font-family="Helvetica,sans-Serif" font-size="10.00" fill="#000000"># m_pxObj</text>
<polyline fill="none" stroke="#000000" points="29.3213,-402.5 125.8975,-402.5 "/>
<text text-anchor="start" x="37.3213" y="-390.5" font-family="Helvetica,sans-Serif" font-size="10.00" fill="#000000">+ ~FSPktStream()</text>
<text text-anchor="start" x="37.3213" y="-380.5" font-family="Helvetica,sans-Serif" font-size="10.00" fill="#000000">+ read()</text>
<text text-anchor="start" x="37.3213" y="-370.5" font-family="Helvetica,sans-Serif" font-size="10.00" fill="#000000">+ write()</text>
<text text-anchor="start" x="37.3213" y="-360.5" font-family="Helvetica,sans-Serif" font-size="10.00" fill="#000000">+ object()</text>
</a>
</g>
</g>
<!-- Node5&#45;&gt;Node4 -->
<g id="edge3" class="edge">
<title>Node5&#45;&gt;Node4</title>
<path fill="none" stroke="#404040" d="M77.6094,-354.2932C77.6094,-342.9972 77.6094,-330.8361 77.6094,-319.7094"/>
<polygon fill="none" stroke="#404040" points="77.6095,-319.6877 73.6094,-313.6877 77.6094,-307.6877 81.6094,-313.6877 77.6095,-319.6877"/>
<text text-anchor="middle" x="102.2065" y="-328" font-family="Helvetica,sans-Serif" font-size="10.00" fill="#000000"> +elements</text>
</g>
</g>
</svg>
