<?xml version="1.0" encoding="UTF-8" standalone="no"?>
<!DOCTYPE svg PUBLIC "-//W3C//DTD SVG 1.1//EN"
 "http://www.w3.org/Graphics/SVG/1.1/DTD/svg11.dtd">
<!-- Generated by graphviz version 2.40.1 (20161225.0304)
 -->
<!-- Title: fs::ScreenSharingController::isDirector Pages: 1 -->
<!--zoomable 84 -->
<svg id="main" version="1.1" xmlns="http://www.w3.org/2000/svg" xmlns:xlink="http://www.w3.org/1999/xlink" xml:space="preserve" onload="init(evt)">
<style type="text/css"><![CDATA[
.edge:hover path { stroke: red; }
.edge:hover polygon { stroke: red; fill: red; }
]]></style>
<script type="text/javascript"><![CDATA[
var edges = document.getElementsByTagName('g');
if (edges && edges.length) {
  for (var i=0;i<edges.length;i++) {
    if (edges[i].id.substr(0,4)=='edge') {
      edges[i].setAttribute('class','edge');
    }
  }
}
]]></script>
        <defs>
                <circle id="rim" cx="0" cy="0" r="7"/>
                <circle id="rim2" cx="0" cy="0" r="3.5"/>
                <g id="zoomPlus">
                        <use xlink:href="#rim" fill="#404040">
                                <set attributeName="fill" to="#808080" begin="zoomplus.mouseover" end="zoomplus.mouseout"/>
                        </use>
                        <path d="M-4,0h8M0,-4v8" fill="none" stroke="white" stroke-width="1.5" pointer-events="none"/>
                </g>
                <g id="zoomMin">
                        <use xlink:href="#rim" fill="#404040">
                                <set attributeName="fill" to="#808080" begin="zoomminus.mouseover" end="zoomminus.mouseout"/>
                        </use>
                        <path d="M-4,0h8" fill="none" stroke="white" stroke-width="1.5" pointer-events="none"/>
                </g>
                <g id="dirArrow">
                        <path fill="none" stroke="white" stroke-width="1.5" d="M0,-3.0v7 M-2.5,-0.5L0,-3.0L2.5,-0.5"/>
                </g>
               <g id="resetDef">
                       <use xlink:href="#rim2" fill="#404040">
                               <set attributeName="fill" to="#808080" begin="reset.mouseover" end="reset.mouseout"/>
                       </use>
               </g>
        </defs>

<script type="text/javascript">
var viewWidth = 677;
var viewHeight = 84;
var sectionId = 'dynsection-18';
</script>
<script xlink:href="svgpan.js"/>
<svg id="graph" class="graph">
<g id="viewport">
<title>fs::ScreenSharingController::isDirector</title>
<!-- Node101 -->
<g id="node1" class="node">
<title>Node101</title>
<g id="a_node1"><a xlink:title=" ">
<polygon fill="#bfbfbf" stroke="#000000" points="530.6338,-23.5 530.6338,-51.5 669.4707,-51.5 669.4707,-23.5 530.6338,-23.5"/>
<text text-anchor="start" x="538.6338" y="-39.5" font-family="Helvetica,sans-Serif" font-size="10.00" fill="#000000">fs::ScreenSharingController</text>
<text text-anchor="middle" x="600.0522" y="-29.5" font-family="Helvetica,sans-Serif" font-size="10.00" fill="#000000">::isDirector</text>
</a>
</g>
</g>
<!-- Node102 -->
<g id="node2" class="node">
<title>Node102</title>
<g id="a_node2"><a xlink:href="classfs_1_1_screen_sharing_controller.html#aa240dcbbdfba042f0d6f452ec09c48c6" target="_top" xlink:title=" ">
<polygon fill="none" stroke="#000000" points="352.7354,-47.5 352.7354,-75.5 491.5723,-75.5 491.5723,-47.5 352.7354,-47.5"/>
<text text-anchor="start" x="360.7354" y="-63.5" font-family="Helvetica,sans-Serif" font-size="10.00" fill="#000000">fs::ScreenSharingController</text>
<text text-anchor="middle" x="422.1538" y="-53.5" font-family="Helvetica,sans-Serif" font-size="10.00" fill="#000000">::onPresenterTakeControl</text>
</a>
</g>
</g>
<!-- Node101&#45;&gt;Node102 -->
<g id="edge1" class="edge">
<title>Node101&#45;&gt;Node102</title>
<path fill="none" stroke="#191970" d="M520.5413,-48.2267C510.9073,-49.5264 501.1239,-50.8463 491.65,-52.1244"/>
<polygon fill="#191970" stroke="#191970" points="521.0655,-51.6878 530.5077,-46.8821 520.1295,-44.7506 521.0655,-51.6878"/>
</g>
<!-- Node105 -->
<g id="node5" class="node">
<title>Node105</title>
<g id="a_node5"><a xlink:href="classfs_1_1_screen_sharing_controller.html#a93a8c4ebea6879a0e22d2021b7cd6cc5" target="_top" xlink:title=" ">
<polygon fill="none" stroke="#000000" points="349.6738,-.5 349.6738,-28.5 494.6338,-28.5 494.6338,-.5 349.6738,-.5"/>
<text text-anchor="start" x="357.6738" y="-16.5" font-family="Helvetica,sans-Serif" font-size="10.00" fill="#000000">fs::ScreenSharingController</text>
<text text-anchor="middle" x="422.1538" y="-6.5" font-family="Helvetica,sans-Serif" font-size="10.00" fill="#000000">::onPresenterReleaseControl</text>
</a>
</g>
</g>
<!-- Node101&#45;&gt;Node105 -->
<g id="edge4" class="edge">
<title>Node101&#45;&gt;Node105</title>
<path fill="none" stroke="#191970" d="M520.5483,-27.2212C512.002,-26.1162 503.338,-24.9961 494.8768,-23.9022"/>
<polygon fill="#191970" stroke="#191970" points="520.1415,-30.6976 530.5077,-28.5088 521.0391,-23.7554 520.1415,-30.6976"/>
</g>
<!-- Node103 -->
<g id="node3" class="node">
<title>Node103</title>
<g id="a_node3"><a xlink:href="classfs_1_1_screen_sharing_controller.html#a869e5a50dd78a97f7bc9042d9a6f52ba" target="_top" xlink:title=" ">
<polygon fill="none" stroke="#000000" points="174.8369,-23.5 174.8369,-51.5 313.6738,-51.5 313.6738,-23.5 174.8369,-23.5"/>
<text text-anchor="start" x="182.8369" y="-39.5" font-family="Helvetica,sans-Serif" font-size="10.00" fill="#000000">fs::ScreenSharingController</text>
<text text-anchor="middle" x="244.2554" y="-29.5" font-family="Helvetica,sans-Serif" font-size="10.00" fill="#000000">::onFSDataAvailable</text>
</a>
</g>
</g>
<!-- Node102&#45;&gt;Node103 -->
<g id="edge2" class="edge">
<title>Node102&#45;&gt;Node103</title>
<path fill="none" stroke="#191970" d="M342.6429,-50.7733C333.0089,-49.4736 323.2254,-48.1537 313.7516,-46.8756"/>
<polygon fill="#191970" stroke="#191970" points="342.2311,-54.2494 352.6093,-52.1179 343.1671,-47.3122 342.2311,-54.2494"/>
</g>
<!-- Node104 -->
<g id="node4" class="node">
<title>Node104</title>
<g id="a_node4"><a xlink:href="classfs_1_1_screen_sharing_controller.html#aba97ae6754ab50d12fac104a78cd86b4" target="_top" xlink:title=" ">
<polygon fill="none" stroke="#000000" points="0,-23.5 0,-51.5 138.8369,-51.5 138.8369,-23.5 0,-23.5"/>
<text text-anchor="start" x="8" y="-39.5" font-family="Helvetica,sans-Serif" font-size="10.00" fill="#000000">fs::ScreenSharingController</text>
<text text-anchor="middle" x="69.4185" y="-29.5" font-family="Helvetica,sans-Serif" font-size="10.00" fill="#000000">::onFSPropertyChanged</text>
</a>
</g>
</g>
<!-- Node103&#45;&gt;Node104 -->
<g id="edge3" class="edge">
<title>Node103&#45;&gt;Node104</title>
<path fill="none" stroke="#191970" d="M164.4053,-37.5C155.9478,-37.5 147.3952,-37.5 139.0671,-37.5"/>
<polygon fill="#191970" stroke="#191970" points="164.6529,-41.0001 174.6528,-37.5 164.6528,-34.0001 164.6529,-41.0001"/>
</g>
<!-- Node105&#45;&gt;Node103 -->
<g id="edge5" class="edge">
<title>Node105&#45;&gt;Node103</title>
<path fill="none" stroke="#191970" d="M339.4931,-25.187C330.8881,-26.2995 322.2041,-27.4222 313.7655,-28.5132"/>
<polygon fill="#191970" stroke="#191970" points="340.0705,-28.6416 349.5391,-23.8882 339.1729,-21.6993 340.0705,-28.6416"/>
</g>
</g>
</svg>
        <g id="navigator" transform="translate(0 0)" fill="#404254">
                <rect fill="#f2f5e9" fill-opacity="0.5" stroke="#606060" stroke-width=".5" x="0" y="0" width="60" height="60"/>
                <use id="zoomplus" xlink:href="#zoomPlus" x="17" y="9" onmousedown="handleZoom(evt,'in')"/>
                <use id="zoomminus" xlink:href="#zoomMin" x="42" y="9" onmousedown="handleZoom(evt,'out')"/>
                <use id="reset" xlink:href="#resetDef" x="30" y="36" onmousedown="handleReset()"/>
                <g id="arrowUp" xlink:href="#dirArrow" transform="translate(30 24)" onmousedown="handlePan(0,-1)">
                  <use xlink:href="#rim" fill="#404040">
                        <set attributeName="fill" to="#808080" begin="arrowUp.mouseover" end="arrowUp.mouseout"/>
                  </use>
                  <path fill="none" stroke="white" stroke-width="1.5" d="M0,-3.0v7 M-2.5,-0.5L0,-3.0L2.5,-0.5"/>
                </g>
                <g id="arrowRight" xlink:href="#dirArrow" transform="rotate(90) translate(36 -43)" onmousedown="handlePan(1,0)">
                  <use xlink:href="#rim" fill="#404040">
                        <set attributeName="fill" to="#808080" begin="arrowRight.mouseover" end="arrowRight.mouseout"/>
                  </use>
                  <path fill="none" stroke="white" stroke-width="1.5" d="M0,-3.0v7 M-2.5,-0.5L0,-3.0L2.5,-0.5"/>
                </g>
                <g id="arrowDown" xlink:href="#dirArrow" transform="rotate(180) translate(-30 -48)" onmousedown="handlePan(0,1)">
                  <use xlink:href="#rim" fill="#404040">
                        <set attributeName="fill" to="#808080" begin="arrowDown.mouseover" end="arrowDown.mouseout"/>
                  </use>
                  <path fill="none" stroke="white" stroke-width="1.5" d="M0,-3.0v7 M-2.5,-0.5L0,-3.0L2.5,-0.5"/>
                </g>
                <g id="arrowLeft" xlink:href="#dirArrow" transform="rotate(270) translate(-36 17)" onmousedown="handlePan(-1,0)">
                  <use xlink:href="#rim" fill="#404040">
                        <set attributeName="fill" to="#808080" begin="arrowLeft.mouseover" end="arrowLeft.mouseout"/>
                  </use>
                  <path fill="none" stroke="white" stroke-width="1.5" d="M0,-3.0v7 M-2.5,-0.5L0,-3.0L2.5,-0.5"/>
                </g>
        </g>
        <svg viewBox="0 0 15 15" width="100%" height="30px" preserveAspectRatio="xMaxYMin meet">
         <g id="arrow_out" transform="scale(0.3 0.3)">
          <a xlink:href="classfs_1_1_screen_sharing_controller_a02320665ae88198b0bcb2da8f9e04496_icgraph_org.svg" target="_base">
           <rect id="button" ry="5" rx="5" y="6" x="6" height="38" width="38"
                fill="#f2f5e9" fill-opacity="0.5" stroke="#606060" stroke-width="1.0"/>
           <path id="arrow"
             d="M 11.500037,31.436501 C 11.940474,20.09759 22.043105,11.32322 32.158766,21.979434 L 37.068811,17.246167 C 37.068811,17.246167 37.088388,32 37.088388,32 L 22.160133,31.978069 C 22.160133,31.978069 26.997745,27.140456 26.997745,27.140456 C 18.528582,18.264221 13.291696,25.230495 11.500037,31.436501 z"
             style="fill:#404040;"/>
          </a>
         </g>
        </svg>
</svg>
