<?xml version="1.0" encoding="UTF-8" standalone="no"?>
<!DOCTYPE svg PUBLIC "-//W3C//DTD SVG 1.1//EN"
 "http://www.w3.org/Graphics/SVG/1.1/DTD/svg11.dtd">
<!-- Generated by graphviz version 2.40.1 (20161225.0304)
 -->
<!-- Title: fs::ModuleVersion Pages: 1 -->
<svg width="105pt" height="154pt"
 viewBox="0.00 0.00 105.44 154.00" xmlns="http://www.w3.org/2000/svg" xmlns:xlink="http://www.w3.org/1999/xlink">
<g id="graph0" class="graph" transform="scale(1 1) rotate(0) translate(4 150)">
<title>fs::ModuleVersion</title>
<!-- Node0 -->
<g id="node1" class="node">
<title>Node0</title>
<g id="a_node1"><a xlink:title=" ">
<polygon fill="#bfbfbf" stroke="#000000" points="0,-.5 0,-54.5 97.4355,-54.5 97.4355,-.5 0,-.5"/>
<text text-anchor="middle" x="48.7178" y="-42.5" font-family="Helvetica,sans-Serif" font-size="10.00" fill="#000000">fs::ModuleVersion</text>
<polyline fill="none" stroke="#000000" points="0,-36.5 97.4355,-36.5 "/>
<text text-anchor="middle" x="48.7178" y="-24.5" font-family="Helvetica,sans-Serif" font-size="10.00" fill="#000000"> </text>
<polyline fill="none" stroke="#000000" points="0,-18.5 97.4355,-18.5 "/>
<text text-anchor="start" x="8" y="-6.5" font-family="Helvetica,sans-Serif" font-size="10.00" fill="#000000">+ ModuleVersion()</text>
</a>
</g>
</g>
<!-- Node1 -->
<g id="node2" class="node">
<title>Node1</title>
<g id="a_node2"><a xlink:title=" ">
<polygon fill="none" stroke="#bfbfbf" points="2.6416,-91.5 2.6416,-145.5 94.7939,-145.5 94.7939,-91.5 2.6416,-91.5"/>
<text text-anchor="middle" x="48.7178" y="-133.5" font-family="Helvetica,sans-Serif" font-size="10.00" fill="#000000">Utils::AppVersion</text>
<polyline fill="none" stroke="#bfbfbf" points="2.6416,-127.5 94.7939,-127.5 "/>
<text text-anchor="middle" x="48.7178" y="-115.5" font-family="Helvetica,sans-Serif" font-size="10.00" fill="#000000"> </text>
<polyline fill="none" stroke="#bfbfbf" points="2.6416,-109.5 94.7939,-109.5 "/>
<text text-anchor="middle" x="48.7178" y="-97.5" font-family="Helvetica,sans-Serif" font-size="10.00" fill="#000000"> </text>
</a>
</g>
</g>
<!-- Node1&#45;&gt;Node0 -->
<g id="edge1" class="edge">
<title>Node1&#45;&gt;Node0</title>
<path fill="none" stroke="#191970" d="M48.7178,-81.12C48.7178,-72.3006 48.7178,-63.0605 48.7178,-54.7837"/>
<polygon fill="none" stroke="#191970" points="45.2179,-81.197 48.7178,-91.197 52.2179,-81.197 45.2179,-81.197"/>
</g>
</g>
</svg>
