<?xml version="1.0" encoding="UTF-8" standalone="no"?>
<!DOCTYPE svg PUBLIC "-//W3C//DTD SVG 1.1//EN"
 "http://www.w3.org/Graphics/SVG/1.1/DTD/svg11.dtd">
<!-- Generated by graphviz version 2.40.1 (20161225.0304)
 -->
<!-- Title: fs::VoIPClientProxy::onBroadcastStateChanged Pages: 1 -->
<svg width="508pt" height="37pt"
 viewBox="0.00 0.00 507.70 37.00" xmlns="http://www.w3.org/2000/svg" xmlns:xlink="http://www.w3.org/1999/xlink">
<g id="graph0" class="graph" transform="scale(1 1) rotate(0) translate(4 33)">
<title>fs::VoIPClientProxy::onBroadcastStateChanged</title>
<!-- Node4 -->
<g id="node1" class="node">
<title>Node4</title>
<g id="a_node1"><a xlink:title=" ">
<polygon fill="#bfbfbf" stroke="#000000" points="0,-.5 0,-28.5 141.6445,-28.5 141.6445,-.5 0,-.5"/>
<text text-anchor="start" x="8" y="-16.5" font-family="Helvetica,sans-Serif" font-size="10.00" fill="#000000">fs::VoIPClientProxy</text>
<text text-anchor="middle" x="70.8223" y="-6.5" font-family="Helvetica,sans-Serif" font-size="10.00" fill="#000000">::onBroadcastStateChanged</text>
</a>
</g>
</g>
<!-- Node5 -->
<g id="node2" class="node">
<title>Node5</title>
<g id="a_node2"><a xlink:href="classfs_1_1_vo_i_p_client_delegate.html#a9083bfcccdfe31cc0b4f6166f4735d8d" target="_top" xlink:title=" ">
<polygon fill="none" stroke="#000000" points="177.6445,-.5 177.6445,-28.5 322.0576,-28.5 322.0576,-.5 177.6445,-.5"/>
<text text-anchor="start" x="185.6445" y="-16.5" font-family="Helvetica,sans-Serif" font-size="10.00" fill="#000000">fs::VoIPClientDelegate</text>
<text text-anchor="middle" x="249.8511" y="-6.5" font-family="Helvetica,sans-Serif" font-size="10.00" fill="#000000">::fireBroadcastStateChanged</text>
</a>
</g>
</g>
<!-- Node4&#45;&gt;Node5 -->
<g id="edge1" class="edge">
<title>Node4&#45;&gt;Node5</title>
<path fill="none" stroke="#191970" d="M141.8363,-14.5C150.1649,-14.5 158.7169,-14.5 167.1867,-14.5"/>
<polygon fill="#191970" stroke="#191970" points="167.4566,-18.0001 177.4566,-14.5 167.4565,-11.0001 167.4566,-18.0001"/>
</g>
<!-- Node6 -->
<g id="node3" class="node">
<title>Node6</title>
<g id="a_node3"><a xlink:href="classfs_1_1_vo_i_p_client_delegate.html#a6322364e04b3d4fc621f892158eabdc5" target="_top" xlink:title=" ">
<polygon fill="none" stroke="#000000" points="358.0576,-.5 358.0576,-28.5 499.7021,-28.5 499.7021,-.5 358.0576,-.5"/>
<text text-anchor="start" x="366.0576" y="-16.5" font-family="Helvetica,sans-Serif" font-size="10.00" fill="#000000">fs::VoIPClientDelegate</text>
<text text-anchor="middle" x="428.8799" y="-6.5" font-family="Helvetica,sans-Serif" font-size="10.00" fill="#000000">::onBroadcastStateChanged</text>
</a>
</g>
</g>
<!-- Node5&#45;&gt;Node6 -->
<g id="edge2" class="edge">
<title>Node5&#45;&gt;Node6</title>
<path fill="none" stroke="#191970" d="M322.1529,-14.5C330.6625,-14.5 339.3879,-14.5 348.0054,-14.5"/>
<polygon fill="#191970" stroke="#191970" points="348.0527,-18.0001 358.0527,-14.5 348.0526,-11.0001 348.0527,-18.0001"/>
</g>
</g>
</svg>
