<?xml version="1.0" encoding="UTF-8" standalone="no"?>
<!DOCTYPE svg PUBLIC "-//W3C//DTD SVG 1.1//EN"
 "http://www.w3.org/Graphics/SVG/1.1/DTD/svg11.dtd">
<!-- Generated by graphviz version 2.40.1 (20161225.0304)
 -->
<!-- Title: fs::MeetingClientSession::playRecordingBroadcast Pages: 1 -->
<svg width="301pt" height="121pt"
 viewBox="0.00 0.00 300.56 121.00" xmlns="http://www.w3.org/2000/svg" xmlns:xlink="http://www.w3.org/1999/xlink">
<g id="graph0" class="graph" transform="scale(1 1) rotate(0) translate(4 117)">
<title>fs::MeetingClientSession::playRecordingBroadcast</title>
<!-- Node737 -->
<g id="node1" class="node">
<title>Node737</title>
<g id="a_node1"><a xlink:title=" ">
<polygon fill="#bfbfbf" stroke="#000000" points="0,-42.5 0,-70.5 130.5068,-70.5 130.5068,-42.5 0,-42.5"/>
<text text-anchor="start" x="8" y="-58.5" font-family="Helvetica,sans-Serif" font-size="10.00" fill="#000000">fs::MeetingClientSession</text>
<text text-anchor="middle" x="65.2534" y="-48.5" font-family="Helvetica,sans-Serif" font-size="10.00" fill="#000000">::playRecordingBroadcast</text>
</a>
</g>
</g>
<!-- Node738 -->
<g id="node2" class="node">
<title>Node738</title>
<g id="a_node2"><a xlink:href="classfs_1_1_meeting_client_session.html#ad2db541bceb2f60d39d34b3e443801d2" target="_top" xlink:title=" ">
<polygon fill="none" stroke="#000000" points="166.5068,-84.5 166.5068,-112.5 292.5605,-112.5 292.5605,-84.5 166.5068,-84.5"/>
<text text-anchor="start" x="174.5068" y="-100.5" font-family="Helvetica,sans-Serif" font-size="10.00" fill="#000000">fs::MeetingClientSession</text>
<text text-anchor="middle" x="229.5337" y="-90.5" font-family="Helvetica,sans-Serif" font-size="10.00" fill="#000000">::isInitialized</text>
</a>
</g>
</g>
<!-- Node737&#45;&gt;Node738 -->
<g id="edge1" class="edge">
<title>Node737&#45;&gt;Node738</title>
<path fill="none" stroke="#191970" d="M120.4134,-70.6022C134.576,-74.223 149.9423,-78.1516 164.5509,-81.8865"/>
<polygon fill="#191970" stroke="#191970" points="163.964,-85.3489 174.5193,-84.435 165.6979,-78.567 163.964,-85.3489"/>
</g>
<!-- Node739 -->
<g id="node3" class="node">
<title>Node739</title>
<g id="a_node3"><a xlink:href="_meeting_client_session_8cxx.html#ab06e713e85f5d00e42ad86367c03f278" target="_top" xlink:title=" ">
<polygon fill="none" stroke="#000000" points="200.1299,-47.5 200.1299,-65.5 258.9375,-65.5 258.9375,-47.5 200.1299,-47.5"/>
<text text-anchor="middle" x="229.5337" y="-53.5" font-family="Helvetica,sans-Serif" font-size="10.00" fill="#000000">asio_post</text>
</a>
</g>
</g>
<!-- Node737&#45;&gt;Node739 -->
<g id="edge2" class="edge">
<title>Node737&#45;&gt;Node739</title>
<path fill="none" stroke="#191970" d="M130.6534,-56.5C150.6991,-56.5 172.134,-56.5 189.9044,-56.5"/>
<polygon fill="#191970" stroke="#191970" points="189.9057,-60.0001 199.9056,-56.5 189.9056,-53.0001 189.9057,-60.0001"/>
</g>
<!-- Node740 -->
<g id="node4" class="node">
<title>Node740</title>
<g id="a_node4"><a xlink:href="classfs_1_1_meeting_client_session.html#a75e9c574fb9a84a95e9629dd91689dc0" target="_top" xlink:title=" ">
<polygon fill="none" stroke="#000000" points="166.5068,-.5 166.5068,-28.5 292.5605,-28.5 292.5605,-.5 166.5068,-.5"/>
<text text-anchor="start" x="174.5068" y="-16.5" font-family="Helvetica,sans-Serif" font-size="10.00" fill="#000000">fs::MeetingClientSession</text>
<text text-anchor="middle" x="229.5337" y="-6.5" font-family="Helvetica,sans-Serif" font-size="10.00" fill="#000000">::ioService</text>
</a>
</g>
</g>
<!-- Node737&#45;&gt;Node740 -->
<g id="edge3" class="edge">
<title>Node737&#45;&gt;Node740</title>
<path fill="none" stroke="#191970" d="M120.4134,-42.3978C134.576,-38.777 149.9423,-34.8484 164.5509,-31.1135"/>
<polygon fill="#191970" stroke="#191970" points="165.6979,-34.433 174.5193,-28.565 163.964,-27.6511 165.6979,-34.433"/>
</g>
</g>
</svg>
