<?xml version="1.0" encoding="UTF-8" standalone="no"?>
<!DOCTYPE svg PUBLIC "-//W3C//DTD SVG 1.1//EN"
 "http://www.w3.org/Graphics/SVG/1.1/DTD/svg11.dtd">
<!-- Generated by graphviz version 2.40.1 (20161225.0304)
 -->
<!-- Title: cx::meeting::MeetingSessionProxy::getActiveSpeakerManager Pages: 1 -->
<!--zoomable 131 -->
<svg id="main" version="1.1" xmlns="http://www.w3.org/2000/svg" xmlns:xlink="http://www.w3.org/1999/xlink" xml:space="preserve" onload="init(evt)">
<style type="text/css"><![CDATA[
.edge:hover path { stroke: red; }
.edge:hover polygon { stroke: red; fill: red; }
]]></style>
<script type="text/javascript"><![CDATA[
var edges = document.getElementsByTagName('g');
if (edges && edges.length) {
  for (var i=0;i<edges.length;i++) {
    if (edges[i].id.substr(0,4)=='edge') {
      edges[i].setAttribute('class','edge');
    }
  }
}
]]></script>
        <defs>
                <circle id="rim" cx="0" cy="0" r="7"/>
                <circle id="rim2" cx="0" cy="0" r="3.5"/>
                <g id="zoomPlus">
                        <use xlink:href="#rim" fill="#404040">
                                <set attributeName="fill" to="#808080" begin="zoomplus.mouseover" end="zoomplus.mouseout"/>
                        </use>
                        <path d="M-4,0h8M0,-4v8" fill="none" stroke="white" stroke-width="1.5" pointer-events="none"/>
                </g>
                <g id="zoomMin">
                        <use xlink:href="#rim" fill="#404040">
                                <set attributeName="fill" to="#808080" begin="zoomminus.mouseover" end="zoomminus.mouseout"/>
                        </use>
                        <path d="M-4,0h8" fill="none" stroke="white" stroke-width="1.5" pointer-events="none"/>
                </g>
                <g id="dirArrow">
                        <path fill="none" stroke="white" stroke-width="1.5" d="M0,-3.0v7 M-2.5,-0.5L0,-3.0L2.5,-0.5"/>
                </g>
               <g id="resetDef">
                       <use xlink:href="#rim2" fill="#404040">
                               <set attributeName="fill" to="#808080" begin="reset.mouseover" end="reset.mouseout"/>
                       </use>
               </g>
        </defs>

<script type="text/javascript">
var viewWidth = 542;
var viewHeight = 131;
var sectionId = 'dynsection-9';
</script>
<script xlink:href="svgpan.js"/>
<svg id="graph" class="graph">
<g id="viewport">
<title>cx::meeting::MeetingSessionProxy::getActiveSpeakerManager</title>
<!-- Node24 -->
<g id="node1" class="node">
<title>Node24</title>
<g id="a_node1"><a xlink:title=" ">
<polygon fill="#bfbfbf" stroke="#000000" points="0,-47.5 0,-75.5 164.9648,-75.5 164.9648,-47.5 0,-47.5"/>
<text text-anchor="start" x="8" y="-63.5" font-family="Helvetica,sans-Serif" font-size="10.00" fill="#000000">cx::meeting::MeetingSession</text>
<text text-anchor="middle" x="82.4824" y="-53.5" font-family="Helvetica,sans-Serif" font-size="10.00" fill="#000000">Proxy::getActiveSpeakerManager</text>
</a>
</g>
</g>
<!-- Node25 -->
<g id="node2" class="node">
<title>Node25</title>
<g id="a_node2"><a xlink:href="namespacecx_1_1factory.html#ac929db676201e62002d2b6377044c1d7" target="_top" xlink:title=" ">
<polygon fill="none" stroke="#000000" points="211.812,-94.5 211.812,-122.5 333.9595,-122.5 333.9595,-94.5 211.812,-94.5"/>
<text text-anchor="start" x="219.812" y="-110.5" font-family="Helvetica,sans-Serif" font-size="10.00" fill="#000000">cx::factory::createActive</text>
<text text-anchor="middle" x="272.8857" y="-100.5" font-family="Helvetica,sans-Serif" font-size="10.00" fill="#000000">SpeakerDelegate</text>
</a>
</g>
</g>
<!-- Node24&#45;&gt;Node25 -->
<g id="edge1" class="edge">
<title>Node24&#45;&gt;Node25</title>
<path fill="none" stroke="#191970" d="M139.3518,-75.5379C160.3528,-80.7219 184.3414,-86.6433 206.1385,-92.0238"/>
<polygon fill="#191970" stroke="#191970" points="205.4332,-95.4547 215.9806,-94.4533 207.1108,-88.6587 205.4332,-95.4547"/>
</g>
<!-- Node26 -->
<g id="node3" class="node">
<title>Node26</title>
<g id="a_node3"><a xlink:href="classcx_1_1meeting_1_1_meeting_session_proxy.html#a7546866a6b25c21ce79bdee242f542b8" target="_top" xlink:title=" ">
<polygon fill="none" stroke="#000000" points="200.9648,-47.5 200.9648,-75.5 344.8066,-75.5 344.8066,-47.5 200.9648,-47.5"/>
<text text-anchor="start" x="208.9648" y="-63.5" font-family="Helvetica,sans-Serif" font-size="10.00" fill="#000000">cx::meeting::MeetingSession</text>
<text text-anchor="middle" x="272.8857" y="-53.5" font-family="Helvetica,sans-Serif" font-size="10.00" fill="#000000">Proxy::attendees</text>
</a>
</g>
</g>
<!-- Node24&#45;&gt;Node26 -->
<g id="edge2" class="edge">
<title>Node24&#45;&gt;Node26</title>
<path fill="none" stroke="#191970" d="M165.1654,-61.5C173.5847,-61.5 182.1369,-61.5 190.5525,-61.5"/>
<polygon fill="#191970" stroke="#191970" points="190.7317,-65.0001 200.7317,-61.5 190.7317,-58.0001 190.7317,-65.0001"/>
</g>
<!-- Node29 -->
<g id="node6" class="node">
<title>Node29</title>
<g id="a_node6"><a xlink:href="namespacecx_1_1factory.html#a55966813811ce41adea7a6733f1f9d78" target="_top" xlink:title=" ">
<polygon fill="none" stroke="#000000" points="211.812,-.5 211.812,-28.5 333.9595,-28.5 333.9595,-.5 211.812,-.5"/>
<text text-anchor="start" x="219.812" y="-16.5" font-family="Helvetica,sans-Serif" font-size="10.00" fill="#000000">cx::factory::createActive</text>
<text text-anchor="middle" x="272.8857" y="-6.5" font-family="Helvetica,sans-Serif" font-size="10.00" fill="#000000">SpeakerManager</text>
</a>
</g>
</g>
<!-- Node24&#45;&gt;Node29 -->
<g id="edge5" class="edge">
<title>Node24&#45;&gt;Node29</title>
<path fill="none" stroke="#191970" d="M139.3518,-47.4621C160.3528,-42.2781 184.3414,-36.3567 206.1385,-30.9762"/>
<polygon fill="#191970" stroke="#191970" points="207.1108,-34.3413 215.9806,-28.5467 205.4332,-27.5453 207.1108,-34.3413"/>
</g>
<!-- Node27 -->
<g id="node4" class="node">
<title>Node27</title>
<g id="a_node4"><a xlink:href="classcx_1_1meeting_1_1_meeting_feature_impl.html#a544244b1b0c8e35a1b9d8b80ee1d6755" target="_top" xlink:title=" ">
<polygon fill="none" stroke="#000000" points="380.8066,-68.5 380.8066,-106.5 534.3896,-106.5 534.3896,-68.5 380.8066,-68.5"/>
<text text-anchor="start" x="388.8066" y="-94.5" font-family="Helvetica,sans-Serif" font-size="10.00" fill="#000000">cx::meeting::MeetingFeature</text>
<text text-anchor="start" x="388.8066" y="-84.5" font-family="Helvetica,sans-Serif" font-size="10.00" fill="#000000">Impl&lt; MeetingAttendeeFeature</text>
<text text-anchor="middle" x="457.5981" y="-74.5" font-family="Helvetica,sans-Serif" font-size="10.00" fill="#000000"> &gt;::instance</text>
</a>
</g>
</g>
<!-- Node26&#45;&gt;Node27 -->
<g id="edge3" class="edge">
<title>Node26&#45;&gt;Node27</title>
<path fill="none" stroke="#191970" d="M344.8293,-71.6267C353.2749,-72.8155 361.9603,-74.0381 370.5834,-75.2519"/>
<polygon fill="#191970" stroke="#191970" points="370.2692,-78.7421 380.6594,-76.6702 371.2449,-71.8104 370.2692,-78.7421"/>
</g>
<!-- Node28 -->
<g id="node5" class="node">
<title>Node28</title>
<g id="a_node5"><a xlink:href="classcx_1_1meeting_1_1_meeting_session_proxy.html#a81e0a34d4a76c794a8a2a511bc7f2870" target="_top" xlink:title=" ">
<polygon fill="none" stroke="#000000" points="385.6772,-21.5 385.6772,-49.5 529.519,-49.5 529.519,-21.5 385.6772,-21.5"/>
<text text-anchor="start" x="393.6772" y="-37.5" font-family="Helvetica,sans-Serif" font-size="10.00" fill="#000000">cx::meeting::MeetingSession</text>
<text text-anchor="middle" x="457.5981" y="-27.5" font-family="Helvetica,sans-Serif" font-size="10.00" fill="#000000">Proxy::requestFeature</text>
</a>
</g>
</g>
<!-- Node26&#45;&gt;Node28 -->
<g id="edge4" class="edge">
<title>Node26&#45;&gt;Node28</title>
<path fill="none" stroke="#191970" d="M344.8293,-51.3733C354.8577,-49.9617 365.2241,-48.5025 375.4229,-47.0669"/>
<polygon fill="#191970" stroke="#191970" points="376.1326,-50.5016 385.5471,-45.6419 375.1568,-43.57 376.1326,-50.5016"/>
</g>
</g>
</svg>
        <g id="navigator" transform="translate(0 0)" fill="#404254">
                <rect fill="#f2f5e9" fill-opacity="0.5" stroke="#606060" stroke-width=".5" x="0" y="0" width="60" height="60"/>
                <use id="zoomplus" xlink:href="#zoomPlus" x="17" y="9" onmousedown="handleZoom(evt,'in')"/>
                <use id="zoomminus" xlink:href="#zoomMin" x="42" y="9" onmousedown="handleZoom(evt,'out')"/>
                <use id="reset" xlink:href="#resetDef" x="30" y="36" onmousedown="handleReset()"/>
                <g id="arrowUp" xlink:href="#dirArrow" transform="translate(30 24)" onmousedown="handlePan(0,-1)">
                  <use xlink:href="#rim" fill="#404040">
                        <set attributeName="fill" to="#808080" begin="arrowUp.mouseover" end="arrowUp.mouseout"/>
                  </use>
                  <path fill="none" stroke="white" stroke-width="1.5" d="M0,-3.0v7 M-2.5,-0.5L0,-3.0L2.5,-0.5"/>
                </g>
                <g id="arrowRight" xlink:href="#dirArrow" transform="rotate(90) translate(36 -43)" onmousedown="handlePan(1,0)">
                  <use xlink:href="#rim" fill="#404040">
                        <set attributeName="fill" to="#808080" begin="arrowRight.mouseover" end="arrowRight.mouseout"/>
                  </use>
                  <path fill="none" stroke="white" stroke-width="1.5" d="M0,-3.0v7 M-2.5,-0.5L0,-3.0L2.5,-0.5"/>
                </g>
                <g id="arrowDown" xlink:href="#dirArrow" transform="rotate(180) translate(-30 -48)" onmousedown="handlePan(0,1)">
                  <use xlink:href="#rim" fill="#404040">
                        <set attributeName="fill" to="#808080" begin="arrowDown.mouseover" end="arrowDown.mouseout"/>
                  </use>
                  <path fill="none" stroke="white" stroke-width="1.5" d="M0,-3.0v7 M-2.5,-0.5L0,-3.0L2.5,-0.5"/>
                </g>
                <g id="arrowLeft" xlink:href="#dirArrow" transform="rotate(270) translate(-36 17)" onmousedown="handlePan(-1,0)">
                  <use xlink:href="#rim" fill="#404040">
                        <set attributeName="fill" to="#808080" begin="arrowLeft.mouseover" end="arrowLeft.mouseout"/>
                  </use>
                  <path fill="none" stroke="white" stroke-width="1.5" d="M0,-3.0v7 M-2.5,-0.5L0,-3.0L2.5,-0.5"/>
                </g>
        </g>
        <svg viewBox="0 0 15 15" width="100%" height="30px" preserveAspectRatio="xMaxYMin meet">
         <g id="arrow_out" transform="scale(0.3 0.3)">
          <a xlink:href="classcx_1_1meeting_1_1_meeting_session_proxy_acc7d95de37e5926ddd538a45ebfdd8d8_cgraph_org.svg" target="_base">
           <rect id="button" ry="5" rx="5" y="6" x="6" height="38" width="38"
                fill="#f2f5e9" fill-opacity="0.5" stroke="#606060" stroke-width="1.0"/>
           <path id="arrow"
             d="M 11.500037,31.436501 C 11.940474,20.09759 22.043105,11.32322 32.158766,21.979434 L 37.068811,17.246167 C 37.068811,17.246167 37.088388,32 37.088388,32 L 22.160133,31.978069 C 22.160133,31.978069 26.997745,27.140456 26.997745,27.140456 C 18.528582,18.264221 13.291696,25.230495 11.500037,31.436501 z"
             style="fill:#404040;"/>
          </a>
         </g>
        </svg>
</svg>
