<?xml version="1.0" encoding="UTF-8" standalone="no"?>
<!DOCTYPE svg PUBLIC "-//W3C//DTD SVG 1.1//EN"
 "http://www.w3.org/Graphics/SVG/1.1/DTD/svg11.dtd">
<!-- Generated by graphviz version 2.40.1 (20161225.0304)
 -->
<!-- Title: fs::MeetingClientSession::stopAudioCall Pages: 1 -->
<svg width="458pt" height="192pt"
 viewBox="0.00 0.00 458.16 192.14" xmlns="http://www.w3.org/2000/svg" xmlns:xlink="http://www.w3.org/1999/xlink">
<g id="graph0" class="graph" transform="scale(1 1) rotate(0) translate(4 188.1397)">
<title>fs::MeetingClientSession::stopAudioCall</title>
<!-- Node943 -->
<g id="node1" class="node">
<title>Node943</title>
<g id="a_node1"><a xlink:title=" ">
<polygon fill="#bfbfbf" stroke="#000000" points="0,-94.5 0,-122.5 126.0537,-122.5 126.0537,-94.5 0,-94.5"/>
<text text-anchor="start" x="8" y="-110.5" font-family="Helvetica,sans-Serif" font-size="10.00" fill="#000000">fs::MeetingClientSession</text>
<text text-anchor="middle" x="63.0269" y="-100.5" font-family="Helvetica,sans-Serif" font-size="10.00" fill="#000000">::stopAudioCall</text>
</a>
</g>
</g>
<!-- Node944 -->
<g id="node2" class="node">
<title>Node944</title>
<g id="a_node2"><a xlink:href="classfs_1_1_meeting_client_session.html#ad2db541bceb2f60d39d34b3e443801d2" target="_top" xlink:title=" ">
<polygon fill="none" stroke="#000000" points="324.1074,-47.5 324.1074,-75.5 450.1611,-75.5 450.1611,-47.5 324.1074,-47.5"/>
<text text-anchor="start" x="332.1074" y="-63.5" font-family="Helvetica,sans-Serif" font-size="10.00" fill="#000000">fs::MeetingClientSession</text>
<text text-anchor="middle" x="387.1343" y="-53.5" font-family="Helvetica,sans-Serif" font-size="10.00" fill="#000000">::isInitialized</text>
</a>
</g>
</g>
<!-- Node943&#45;&gt;Node944 -->
<g id="edge1" class="edge">
<title>Node943&#45;&gt;Node944</title>
<path fill="none" stroke="#191970" d="M79.518,-122.7014C98.1263,-137.7035 129.998,-160.4192 162.0537,-169.5 215.9565,-184.7696 236.8245,-192.0553 288.1074,-169.5 327.3044,-152.2603 357.7689,-110.9983 374.038,-84.7584"/>
<polygon fill="#191970" stroke="#191970" points="377.2423,-86.2202 379.3795,-75.8431 371.2376,-82.6225 377.2423,-86.2202"/>
</g>
<!-- Node945 -->
<g id="node3" class="node">
<title>Node945</title>
<g id="a_node3"><a xlink:href="_meeting_client_session_8cxx.html#ab06e713e85f5d00e42ad86367c03f278" target="_top" xlink:title=" ">
<polygon fill="none" stroke="#000000" points="195.6768,-141.5 195.6768,-159.5 254.4844,-159.5 254.4844,-141.5 195.6768,-141.5"/>
<text text-anchor="middle" x="225.0806" y="-147.5" font-family="Helvetica,sans-Serif" font-size="10.00" fill="#000000">asio_post</text>
</a>
</g>
</g>
<!-- Node943&#45;&gt;Node945 -->
<g id="edge2" class="edge">
<title>Node943&#45;&gt;Node945</title>
<path fill="none" stroke="#191970" d="M117.4392,-122.6022C139.7787,-128.392 165.1545,-134.9688 185.655,-140.2819"/>
<polygon fill="#191970" stroke="#191970" points="185.0317,-143.736 195.59,-142.8568 186.7879,-136.9598 185.0317,-143.736"/>
</g>
<!-- Node946 -->
<g id="node4" class="node">
<title>Node946</title>
<g id="a_node4"><a xlink:href="classfs_1_1_meeting_client_session.html#a75e9c574fb9a84a95e9629dd91689dc0" target="_top" xlink:title=" ">
<polygon fill="none" stroke="#000000" points="162.0537,-94.5 162.0537,-122.5 288.1074,-122.5 288.1074,-94.5 162.0537,-94.5"/>
<text text-anchor="start" x="170.0537" y="-110.5" font-family="Helvetica,sans-Serif" font-size="10.00" fill="#000000">fs::MeetingClientSession</text>
<text text-anchor="middle" x="225.0806" y="-100.5" font-family="Helvetica,sans-Serif" font-size="10.00" fill="#000000">::ioService</text>
</a>
</g>
</g>
<!-- Node943&#45;&gt;Node946 -->
<g id="edge3" class="edge">
<title>Node943&#45;&gt;Node946</title>
<path fill="none" stroke="#191970" d="M126.1451,-108.5C134.5767,-108.5 143.2807,-108.5 151.8666,-108.5"/>
<polygon fill="#191970" stroke="#191970" points="151.8681,-112.0001 161.868,-108.5 151.868,-105.0001 151.8681,-112.0001"/>
</g>
<!-- Node947 -->
<g id="node5" class="node">
<title>Node947</title>
<g id="a_node5"><a xlink:href="classfs_1_1_meeting_client_session.html#af70b5b1de4406912d4d6a196e9fd602e" target="_top" xlink:title=" ">
<polygon fill="none" stroke="#000000" points="162.0537,-47.5 162.0537,-75.5 288.1074,-75.5 288.1074,-47.5 162.0537,-47.5"/>
<text text-anchor="start" x="170.0537" y="-63.5" font-family="Helvetica,sans-Serif" font-size="10.00" fill="#000000">fs::MeetingClientSession</text>
<text text-anchor="middle" x="225.0806" y="-53.5" font-family="Helvetica,sans-Serif" font-size="10.00" fill="#000000">::getAttendee</text>
</a>
</g>
</g>
<!-- Node943&#45;&gt;Node947 -->
<g id="edge4" class="edge">
<title>Node943&#45;&gt;Node947</title>
<path fill="none" stroke="#191970" d="M111.6483,-94.3985C129.1133,-89.3331 148.9833,-83.5703 167.1602,-78.2985"/>
<polygon fill="#191970" stroke="#191970" points="168.1436,-81.6576 176.7729,-75.5106 166.1937,-74.9346 168.1436,-81.6576"/>
</g>
<!-- Node948 -->
<g id="node6" class="node">
<title>Node948</title>
<g id="a_node6"><a xlink:href="classfs_1_1_meeting_client_session.html#a7a643e94d44f2d32f8d75a50bc0167b8" target="_top" xlink:title=" ">
<polygon fill="none" stroke="#000000" points="162.0537,-.5 162.0537,-28.5 288.1074,-28.5 288.1074,-.5 162.0537,-.5"/>
<text text-anchor="start" x="170.0537" y="-16.5" font-family="Helvetica,sans-Serif" font-size="10.00" fill="#000000">fs::MeetingClientSession</text>
<text text-anchor="middle" x="225.0806" y="-6.5" font-family="Helvetica,sans-Serif" font-size="10.00" fill="#000000">::getClientId</text>
</a>
</g>
</g>
<!-- Node943&#45;&gt;Node948 -->
<g id="edge6" class="edge">
<title>Node943&#45;&gt;Node948</title>
<path fill="none" stroke="#191970" d="M80.0479,-94.4457C99.1201,-79.1934 131.3958,-54.8361 162.0537,-38.5 165.9965,-36.3991 170.1641,-34.3913 174.4019,-32.4955"/>
<polygon fill="#191970" stroke="#191970" points="175.8964,-35.6634 183.7314,-28.5316 173.159,-29.2208 175.8964,-35.6634"/>
</g>
<!-- Node947&#45;&gt;Node944 -->
<g id="edge5" class="edge">
<title>Node947&#45;&gt;Node944</title>
<path fill="none" stroke="#191970" d="M288.1988,-61.5C296.6304,-61.5 305.3344,-61.5 313.9203,-61.5"/>
<polygon fill="#191970" stroke="#191970" points="313.9218,-65.0001 323.9217,-61.5 313.9217,-58.0001 313.9218,-65.0001"/>
</g>
<!-- Node948&#45;&gt;Node944 -->
<g id="edge7" class="edge">
<title>Node948&#45;&gt;Node944</title>
<path fill="none" stroke="#191970" d="M273.702,-28.6015C291.1671,-33.6669 311.037,-39.4297 329.2139,-44.7015"/>
<polygon fill="#191970" stroke="#191970" points="328.2474,-48.0654 338.8266,-47.4894 330.1973,-41.3424 328.2474,-48.0654"/>
</g>
</g>
</svg>
