<?xml version="1.0" encoding="UTF-8" standalone="no"?>
<!DOCTYPE svg PUBLIC "-//W3C//DTD SVG 1.1//EN"
 "http://www.w3.org/Graphics/SVG/1.1/DTD/svg11.dtd">
<!-- Generated by graphviz version 2.40.1 (20161225.0304)
 -->
<!-- Title: fs::NotificationHandler Pages: 1 -->
<svg width="698pt" height="304pt"
 viewBox="0.00 0.00 698.15 304.00" xmlns="http://www.w3.org/2000/svg" xmlns:xlink="http://www.w3.org/1999/xlink">
<g id="graph0" class="graph" transform="scale(1 1) rotate(0) translate(4 300)">
<title>fs::NotificationHandler</title>
<!-- Node0 -->
<g id="node1" class="node">
<title>Node0</title>
<g id="a_node1"><a xlink:title=" ">
<polygon fill="#bfbfbf" stroke="#000000" points="253.5581,-221.5 253.5581,-295.5 376.8433,-295.5 376.8433,-221.5 253.5581,-221.5"/>
<text text-anchor="middle" x="315.2007" y="-283.5" font-family="Helvetica,sans-Serif" font-size="10.00" fill="#000000">fs::NotificationHandler</text>
<polyline fill="none" stroke="#000000" points="253.5581,-277.5 376.8433,-277.5 "/>
<text text-anchor="start" x="261.5581" y="-265.5" font-family="Helvetica,sans-Serif" font-size="10.00" fill="#000000"># supportedNotifications</text>
<text text-anchor="start" x="261.5581" y="-255.5" font-family="Helvetica,sans-Serif" font-size="10.00" fill="#000000"># _handlers</text>
<polyline fill="none" stroke="#000000" points="253.5581,-249.5 376.8433,-249.5 "/>
<text text-anchor="start" x="261.5581" y="-237.5" font-family="Helvetica,sans-Serif" font-size="10.00" fill="#000000">+ API_METHOD()</text>
<text text-anchor="start" x="261.5581" y="-227.5" font-family="Helvetica,sans-Serif" font-size="10.00" fill="#000000">+ API_METHOD()</text>
</a>
</g>
</g>
<!-- Node1 -->
<g id="node2" class="node">
<title>Node1</title>
<g id="a_node2"><a xlink:href="classfs_1_1_basic_handler.html" target="_top" xlink:title=" ">
<polygon fill="none" stroke="#000000" points="0,-50.5 0,-134.5 132.4014,-134.5 132.4014,-50.5 0,-50.5"/>
<text text-anchor="middle" x="66.2007" y="-122.5" font-family="Helvetica,sans-Serif" font-size="10.00" fill="#000000">fs::BasicHandler</text>
<polyline fill="none" stroke="#000000" points="0,-116.5 132.4014,-116.5 "/>
<text text-anchor="middle" x="66.2007" y="-104.5" font-family="Helvetica,sans-Serif" font-size="10.00" fill="#000000"> </text>
<polyline fill="none" stroke="#000000" points="0,-98.5 132.4014,-98.5 "/>
<text text-anchor="start" x="8" y="-86.5" font-family="Helvetica,sans-Serif" font-size="10.00" fill="#000000">+ BasicHandler()</text>
<text text-anchor="start" x="8" y="-76.5" font-family="Helvetica,sans-Serif" font-size="10.00" fill="#000000">+ ~BasicHandler()</text>
<text text-anchor="start" x="8" y="-66.5" font-family="Helvetica,sans-Serif" font-size="10.00" fill="#000000">+ OVERRIDE_METHOD()</text>
<text text-anchor="start" x="8" y="-56.5" font-family="Helvetica,sans-Serif" font-size="10.00" fill="#000000">+ OVERRIDE_METHOD()</text>
</a>
</g>
</g>
<!-- Node0&#45;&gt;Node1 -->
<g id="edge1" class="edge">
<title>Node0&#45;&gt;Node1</title>
<path fill="none" stroke="#191970" d="M243.7115,-237.2598C210.5171,-225.2394 171.7387,-207.9554 141.2007,-185 122.8567,-171.2108 106.3201,-151.9891 93.4723,-134.6383"/>
<polygon fill="none" stroke="#191970" points="242.7702,-240.6391 253.3651,-240.6661 245.0995,-234.038 242.7702,-240.6391"/>
</g>
<!-- Node2 -->
<g id="node3" class="node">
<title>Node2</title>
<g id="a_node3"><a xlink:href="classfs_1_1_r_t_notifications_controller.html" target="_top" xlink:title=" ">
<polygon fill="none" stroke="#000000" points="150.1558,-.5 150.1558,-184.5 298.2456,-184.5 298.2456,-.5 150.1558,-.5"/>
<text text-anchor="middle" x="224.2007" y="-172.5" font-family="Helvetica,sans-Serif" font-size="10.00" fill="#000000">fs::RTNotificationsController</text>
<polyline fill="none" stroke="#000000" points="150.1558,-166.5 298.2456,-166.5 "/>
<text text-anchor="middle" x="224.2007" y="-154.5" font-family="Helvetica,sans-Serif" font-size="10.00" fill="#000000"> </text>
<polyline fill="none" stroke="#000000" points="150.1558,-148.5 298.2456,-148.5 "/>
<text text-anchor="start" x="158.1558" y="-136.5" font-family="Helvetica,sans-Serif" font-size="10.00" fill="#000000">+ RTNotificationsController()</text>
<text text-anchor="start" x="158.1558" y="-126.5" font-family="Helvetica,sans-Serif" font-size="10.00" fill="#000000">+ ~RTNotificationsController()</text>
<text text-anchor="start" x="158.1558" y="-116.5" font-family="Helvetica,sans-Serif" font-size="10.00" fill="#000000">+ addHandler()</text>
<text text-anchor="start" x="158.1558" y="-106.5" font-family="Helvetica,sans-Serif" font-size="10.00" fill="#000000">+ deleteHandler()</text>
<text text-anchor="start" x="158.1558" y="-96.5" font-family="Helvetica,sans-Serif" font-size="10.00" fill="#000000">+ onRTMessageReceived()</text>
<text text-anchor="start" x="158.1558" y="-86.5" font-family="Helvetica,sans-Serif" font-size="10.00" fill="#000000">+ sendRTCommand()</text>
<text text-anchor="start" x="158.1558" y="-76.5" font-family="Helvetica,sans-Serif" font-size="10.00" fill="#000000">+ nextRtCommandId()</text>
<text text-anchor="start" x="158.1558" y="-66.5" font-family="Helvetica,sans-Serif" font-size="10.00" fill="#000000">+ cleanup()</text>
<text text-anchor="start" x="158.1558" y="-56.5" font-family="Helvetica,sans-Serif" font-size="10.00" fill="#000000"># populatingHandler()</text>
<text text-anchor="start" x="158.1558" y="-46.5" font-family="Helvetica,sans-Serif" font-size="10.00" fill="#000000"># handleNotification()</text>
<text text-anchor="start" x="158.1558" y="-36.5" font-family="Helvetica,sans-Serif" font-size="10.00" fill="#000000"># handleResponse()</text>
<text text-anchor="start" x="158.1558" y="-26.5" font-family="Helvetica,sans-Serif" font-size="10.00" fill="#000000"># handleBridgeVersion()</text>
<text text-anchor="start" x="158.1558" y="-16.5" font-family="Helvetica,sans-Serif" font-size="10.00" fill="#000000"># registerHandlers()</text>
<text text-anchor="start" x="158.1558" y="-6.5" font-family="Helvetica,sans-Serif" font-size="10.00" fill="#000000"># unregisterHandlers()</text>
</a>
</g>
</g>
<!-- Node0&#45;&gt;Node2 -->
<g id="edge2" class="edge">
<title>Node0&#45;&gt;Node2</title>
<path fill="none" stroke="#191970" d="M289.916,-212.3763C285.107,-203.6038 279.9198,-194.1414 274.6429,-184.5154"/>
<polygon fill="none" stroke="#191970" points="286.9023,-214.16 294.7785,-221.2464 293.0405,-210.795 286.9023,-214.16"/>
</g>
<!-- Node3 -->
<g id="node4" class="node">
<title>Node3</title>
<g id="a_node4"><a xlink:href="classfs_1_1_r_t_presentation_broadcast_handler.html" target="_top" xlink:title=" ">
<polygon fill="none" stroke="#000000" points="315.8887,-50.5 315.8887,-134.5 496.5127,-134.5 496.5127,-50.5 315.8887,-50.5"/>
<text text-anchor="start" x="323.8887" y="-122.5" font-family="Helvetica,sans-Serif" font-size="10.00" fill="#000000">fs::RTPresentationBroadcast</text>
<text text-anchor="middle" x="406.2007" y="-112.5" font-family="Helvetica,sans-Serif" font-size="10.00" fill="#000000">Handler</text>
<polyline fill="none" stroke="#000000" points="315.8887,-106.5 496.5127,-106.5 "/>
<text text-anchor="middle" x="406.2007" y="-94.5" font-family="Helvetica,sans-Serif" font-size="10.00" fill="#000000"> </text>
<polyline fill="none" stroke="#000000" points="315.8887,-88.5 496.5127,-88.5 "/>
<text text-anchor="start" x="323.8887" y="-76.5" font-family="Helvetica,sans-Serif" font-size="10.00" fill="#000000">+ RTPresentationBroadcastHandler()</text>
<text text-anchor="start" x="323.8887" y="-66.5" font-family="Helvetica,sans-Serif" font-size="10.00" fill="#000000">+ ~RTPresentationBroadcast</text>
<text text-anchor="start" x="323.8887" y="-56.5" font-family="Helvetica,sans-Serif" font-size="10.00" fill="#000000">Handler()</text>
</a>
</g>
</g>
<!-- Node0&#45;&gt;Node3 -->
<g id="edge3" class="edge">
<title>Node0&#45;&gt;Node3</title>
<path fill="none" stroke="#191970" d="M340.5803,-212.203C353.9177,-187.8733 370.1434,-158.2749 383.1231,-134.5975"/>
<polygon fill="none" stroke="#191970" points="337.3608,-210.795 335.6229,-221.2464 343.499,-214.16 337.3608,-210.795"/>
</g>
<!-- Node4 -->
<g id="node5" class="node">
<title>Node4</title>
<g id="a_node5"><a xlink:href="classfs_1_1_r_t_recording_broadcast_handler.html" target="_top" xlink:title=" ">
<polygon fill="none" stroke="#000000" points="514.252,-55.5 514.252,-129.5 690.1494,-129.5 690.1494,-55.5 514.252,-55.5"/>
<text text-anchor="start" x="522.252" y="-117.5" font-family="Helvetica,sans-Serif" font-size="10.00" fill="#000000">fs::RTRecordingBroadcast</text>
<text text-anchor="middle" x="602.2007" y="-107.5" font-family="Helvetica,sans-Serif" font-size="10.00" fill="#000000">Handler</text>
<polyline fill="none" stroke="#000000" points="514.252,-101.5 690.1494,-101.5 "/>
<text text-anchor="middle" x="602.2007" y="-89.5" font-family="Helvetica,sans-Serif" font-size="10.00" fill="#000000"> </text>
<polyline fill="none" stroke="#000000" points="514.252,-83.5 690.1494,-83.5 "/>
<text text-anchor="start" x="522.252" y="-71.5" font-family="Helvetica,sans-Serif" font-size="10.00" fill="#000000">+ RTRecordingBroadcastHandler()</text>
<text text-anchor="start" x="522.252" y="-61.5" font-family="Helvetica,sans-Serif" font-size="10.00" fill="#000000">+ ~RTRecordingBroadcastHandler()</text>
</a>
</g>
</g>
<!-- Node0&#45;&gt;Node4 -->
<g id="edge4" class="edge">
<title>Node0&#45;&gt;Node4</title>
<path fill="none" stroke="#191970" d="M386.8461,-238.1961C423.841,-225.9193 468.7394,-208.1338 505.2007,-185 528.9756,-169.9154 551.946,-148.4256 569.5609,-129.9555"/>
<polygon fill="none" stroke="#191970" points="385.5571,-234.9348 377.1293,-241.3552 387.7215,-241.5918 385.5571,-234.9348"/>
</g>
</g>
</svg>
