<?xml version="1.0" encoding="UTF-8" standalone="no"?>
<!DOCTYPE svg PUBLIC "-//W3C//DTD SVG 1.1//EN"
 "http://www.w3.org/Graphics/SVG/1.1/DTD/svg11.dtd">
<!-- Generated by graphviz version 2.40.1 (20161225.0304)
 -->
<!-- Title: SCUploadData::testBoundary Pages: 1 -->
<svg width="323pt" height="64pt"
 viewBox="0.00 0.00 322.64 64.00" xmlns="http://www.w3.org/2000/svg" xmlns:xlink="http://www.w3.org/1999/xlink">
<g id="graph0" class="graph" transform="scale(1 1) rotate(0) translate(4 60)">
<title>SCUploadData::testBoundary</title>
<!-- Node16 -->
<g id="node1" class="node">
<title>Node16</title>
<g id="a_node1"><a xlink:title=" ">
<polygon fill="#bfbfbf" stroke="#000000" points="0,-18.5 0,-36.5 147.1865,-36.5 147.1865,-18.5 0,-18.5"/>
<text text-anchor="middle" x="73.5933" y="-24.5" font-family="Helvetica,sans-Serif" font-size="10.00" fill="#000000">SCUploadData::testBoundary</text>
</a>
</g>
</g>
<!-- Node17 -->
<g id="node2" class="node">
<title>Node17</title>
<g id="a_node2"><a xlink:href="class_s_c_upload_data.html#ad12b7c9d7b42f6f51d8df2d26c1768bf" target="_top" xlink:title=" ">
<polygon fill="none" stroke="#000000" points="183.9312,-37.5 183.9312,-55.5 313.8911,-55.5 313.8911,-37.5 183.9312,-37.5"/>
<text text-anchor="middle" x="248.9111" y="-43.5" font-family="Helvetica,sans-Serif" font-size="10.00" fill="#000000">SCUploadData::boundary</text>
</a>
</g>
</g>
<!-- Node16&#45;&gt;Node17 -->
<g id="edge1" class="edge">
<title>Node16&#45;&gt;Node17</title>
<path fill="none" stroke="#191970" d="M147.4357,-35.5026C156.1124,-36.443 164.9743,-37.4034 173.6698,-38.3458"/>
<polygon fill="#191970" stroke="#191970" points="173.4612,-41.8436 183.7801,-39.4415 174.2154,-34.8843 173.4612,-41.8436"/>
</g>
<!-- Node18 -->
<g id="node3" class="node">
<title>Node18</title>
<g id="a_node3"><a xlink:href="class_upload_data.html#abf44b1dcd4b44691f59d5f41b042570c" target="_top" xlink:title=" ">
<polygon fill="none" stroke="#000000" points="183.1865,-.5 183.1865,-18.5 314.6357,-18.5 314.6357,-.5 183.1865,-.5"/>
<text text-anchor="middle" x="248.9111" y="-6.5" font-family="Helvetica,sans-Serif" font-size="10.00" fill="#000000">UploadData::readToBuffer</text>
</a>
</g>
</g>
<!-- Node16&#45;&gt;Node18 -->
<g id="edge2" class="edge">
<title>Node16&#45;&gt;Node18</title>
<path fill="none" stroke="#191970" d="M147.4357,-19.9185C155.8185,-19.0579 164.3741,-18.1795 172.7856,-17.3159"/>
<polygon fill="#191970" stroke="#191970" points="173.3628,-20.7751 182.953,-16.272 172.6478,-13.8117 173.3628,-20.7751"/>
</g>
</g>
</svg>
