<?xml version="1.0" encoding="UTF-8" standalone="no"?>
<!DOCTYPE svg PUBLIC "-//W3C//DTD SVG 1.1//EN"
 "http://www.w3.org/Graphics/SVG/1.1/DTD/svg11.dtd">
<!-- Generated by graphviz version 2.40.1 (20161225.0304)
 -->
<!-- Title: cx::web::SubscriptionEntity::valid Pages: 1 -->
<svg width="354pt" height="84pt"
 viewBox="0.00 0.00 353.91 84.00" xmlns="http://www.w3.org/2000/svg" xmlns:xlink="http://www.w3.org/1999/xlink">
<g id="graph0" class="graph" transform="scale(1 1) rotate(0) translate(4 80)">
<title>cx::web::SubscriptionEntity::valid</title>
<!-- Node13 -->
<g id="node1" class="node">
<title>Node13</title>
<g id="a_node1"><a xlink:title=" ">
<polygon fill="#bfbfbf" stroke="#000000" points="210.4131,-23.5 210.4131,-51.5 345.9102,-51.5 345.9102,-23.5 210.4131,-23.5"/>
<text text-anchor="start" x="218.4131" y="-39.5" font-family="Helvetica,sans-Serif" font-size="10.00" fill="#000000">cx::web::SubscriptionEntity</text>
<text text-anchor="middle" x="278.1616" y="-29.5" font-family="Helvetica,sans-Serif" font-size="10.00" fill="#000000">::valid</text>
</a>
</g>
</g>
<!-- Node14 -->
<g id="node2" class="node">
<title>Node14</title>
<g id="a_node2"><a xlink:href="classcx_1_1details_1_1_subscription_query_helper.html#a57ed35c96c2167ac90c88d869798d4c4" target="_top" xlink:title=" ">
<polygon fill="none" stroke="#000000" points="5.5615,-47.5 5.5615,-75.5 168.8516,-75.5 168.8516,-47.5 5.5615,-47.5"/>
<text text-anchor="start" x="13.5615" y="-63.5" font-family="Helvetica,sans-Serif" font-size="10.00" fill="#000000">cx::details::Subscription</text>
<text text-anchor="middle" x="87.2065" y="-53.5" font-family="Helvetica,sans-Serif" font-size="10.00" fill="#000000">QueryHelper::getFullSubscription</text>
</a>
</g>
</g>
<!-- Node13&#45;&gt;Node14 -->
<g id="edge1" class="edge">
<title>Node13&#45;&gt;Node14</title>
<path fill="none" stroke="#191970" d="M200.1201,-47.3086C189.828,-48.6021 179.2561,-49.9308 168.9049,-51.2318"/>
<polygon fill="#191970" stroke="#191970" points="200.8149,-50.7489 210.3003,-46.0291 199.9419,-43.8035 200.8149,-50.7489"/>
</g>
<!-- Node15 -->
<g id="node3" class="node">
<title>Node15</title>
<g id="a_node3"><a xlink:href="classcx_1_1details_1_1_subscription_query_helper.html#a10fcdbea096ccde2ba79ccccb87cd293" target="_top" xlink:title=" ">
<polygon fill="none" stroke="#000000" points="0,-.5 0,-28.5 174.4131,-28.5 174.4131,-.5 0,-.5"/>
<text text-anchor="start" x="8" y="-16.5" font-family="Helvetica,sans-Serif" font-size="10.00" fill="#000000">cx::details::Subscription</text>
<text text-anchor="middle" x="87.2065" y="-6.5" font-family="Helvetica,sans-Serif" font-size="10.00" fill="#000000">QueryHelper::getPublicSubscription</text>
</a>
</g>
</g>
<!-- Node13&#45;&gt;Node15 -->
<g id="edge2" class="edge">
<title>Node13&#45;&gt;Node15</title>
<path fill="none" stroke="#191970" d="M200.1304,-28.1014C191.7013,-27.0861 183.0844,-26.0482 174.5548,-25.0208"/>
<polygon fill="#191970" stroke="#191970" points="199.9535,-31.6053 210.3003,-29.3263 200.7907,-24.6555 199.9535,-31.6053"/>
</g>
</g>
</svg>
