<?xml version="1.0" encoding="UTF-8" standalone="no"?>
<!DOCTYPE svg PUBLIC "-//W3C//DTD SVG 1.1//EN"
 "http://www.w3.org/Graphics/SVG/1.1/DTD/svg11.dtd">
<!-- Generated by graphviz version 2.40.1 (20161225.0304)
 -->
<!-- Title: fs::MeetingClientSession::configureDelegates Pages: 1 -->
<svg width="345pt" height="517pt"
 viewBox="0.00 0.00 345.04 517.00" xmlns="http://www.w3.org/2000/svg" xmlns:xlink="http://www.w3.org/1999/xlink">
<g id="graph0" class="graph" transform="scale(1 1) rotate(0) translate(4 513)">
<title>fs::MeetingClientSession::configureDelegates</title>
<!-- Node23 -->
<g id="node1" class="node">
<title>Node23</title>
<g id="a_node1"><a xlink:title=" ">
<polygon fill="#bfbfbf" stroke="#000000" points="0,-245.5 0,-273.5 126.0537,-273.5 126.0537,-245.5 0,-245.5"/>
<text text-anchor="start" x="8" y="-261.5" font-family="Helvetica,sans-Serif" font-size="10.00" fill="#000000">fs::MeetingClientSession</text>
<text text-anchor="middle" x="63.0269" y="-251.5" font-family="Helvetica,sans-Serif" font-size="10.00" fill="#000000">::configureDelegates</text>
</a>
</g>
</g>
<!-- Node24 -->
<g id="node2" class="node">
<title>Node24</title>
<g id="a_node2"><a xlink:href="classfs_1_1_i_delegates_getter.html#a9de72ca97db096f4ce6adb1bdec9fca9" target="_top" xlink:title=" ">
<polygon fill="none" stroke="#000000" points="194.0142,-480.5 194.0142,-508.5 305.0776,-508.5 305.0776,-480.5 194.0142,-480.5"/>
<text text-anchor="start" x="202.0142" y="-496.5" font-family="Helvetica,sans-Serif" font-size="10.00" fill="#000000">fs::IDelegatesGetter</text>
<text text-anchor="middle" x="249.5459" y="-486.5" font-family="Helvetica,sans-Serif" font-size="10.00" fill="#000000">::getSessionDelegate</text>
</a>
</g>
</g>
<!-- Node23&#45;&gt;Node24 -->
<g id="edge1" class="edge">
<title>Node23&#45;&gt;Node24</title>
<path fill="none" stroke="#191970" d="M65.3744,-273.629C72.4725,-311.755 97.3361,-417.4921 162.0537,-471.5 168.554,-476.9246 176.1961,-481.0844 184.211,-484.2717"/>
<polygon fill="#191970" stroke="#191970" points="183.1502,-487.6083 193.745,-487.584 185.4475,-480.996 183.1502,-487.6083"/>
</g>
<!-- Node25 -->
<g id="node3" class="node">
<title>Node25</title>
<g id="a_node3"><a xlink:href="classfs_1_1_i_delegates_getter.html#aad14e721ac1d1684358a2ce55184e335" target="_top" xlink:title=" ">
<polygon fill="none" stroke="#000000" points="191.7852,-433.5 191.7852,-461.5 307.3066,-461.5 307.3066,-433.5 191.7852,-433.5"/>
<text text-anchor="start" x="199.7852" y="-449.5" font-family="Helvetica,sans-Serif" font-size="10.00" fill="#000000">fs::IDelegatesGetter</text>
<text text-anchor="middle" x="249.5459" y="-439.5" font-family="Helvetica,sans-Serif" font-size="10.00" fill="#000000">::getAttendeeDelegate</text>
</a>
</g>
</g>
<!-- Node23&#45;&gt;Node25 -->
<g id="edge2" class="edge">
<title>Node23&#45;&gt;Node25</title>
<path fill="none" stroke="#191970" d="M67.4968,-273.9758C78.2291,-306.2486 108.6059,-384.4008 162.0537,-424.5 168.0133,-428.9712 174.7685,-432.5751 181.8197,-435.4796"/>
<polygon fill="#191970" stroke="#191970" points="180.9776,-438.8974 191.5717,-439.0225 183.3679,-432.3181 180.9776,-438.8974"/>
</g>
<!-- Node26 -->
<g id="node4" class="node">
<title>Node26</title>
<g id="a_node4"><a xlink:href="classfs_1_1_i_delegates_getter.html#a1dd8200fec083f8cca60fdb50d890e3f" target="_top" xlink:title=" ">
<polygon fill="none" stroke="#000000" points="173.4355,-386.5 173.4355,-414.5 325.6563,-414.5 325.6563,-386.5 173.4355,-386.5"/>
<text text-anchor="start" x="181.4355" y="-402.5" font-family="Helvetica,sans-Serif" font-size="10.00" fill="#000000">fs::IDelegatesGetter</text>
<text text-anchor="middle" x="249.5459" y="-392.5" font-family="Helvetica,sans-Serif" font-size="10.00" fill="#000000">::getBundledAttendeeDelegate</text>
</a>
</g>
</g>
<!-- Node23&#45;&gt;Node26 -->
<g id="edge3" class="edge">
<title>Node23&#45;&gt;Node26</title>
<path fill="none" stroke="#191970" d="M70.8205,-273.5617C85.3742,-298.4759 119.1323,-350.3006 162.0537,-377.5 164.6883,-379.1695 167.4407,-380.7185 170.2767,-382.1555"/>
<polygon fill="#191970" stroke="#191970" points="169.024,-385.4305 179.5768,-386.3744 171.9159,-379.0557 169.024,-385.4305"/>
</g>
<!-- Node27 -->
<g id="node5" class="node">
<title>Node27</title>
<g id="a_node5"><a xlink:href="classfs_1_1_i_delegates_getter.html#af6de343b3415cdad70121047eebf63f7" target="_top" xlink:title=" ">
<polygon fill="none" stroke="#000000" points="197.0806,-339.5 197.0806,-367.5 302.0112,-367.5 302.0112,-339.5 197.0806,-339.5"/>
<text text-anchor="start" x="205.0806" y="-355.5" font-family="Helvetica,sans-Serif" font-size="10.00" fill="#000000">fs::IDelegatesGetter</text>
<text text-anchor="middle" x="249.5459" y="-345.5" font-family="Helvetica,sans-Serif" font-size="10.00" fill="#000000">::getChatDelegate</text>
</a>
</g>
</g>
<!-- Node23&#45;&gt;Node27 -->
<g id="edge4" class="edge">
<title>Node23&#45;&gt;Node27</title>
<path fill="none" stroke="#191970" d="M78.6855,-273.54C97.2956,-289.5257 129.8925,-315.3769 162.0537,-330.5 169.9018,-334.1904 178.4349,-337.3589 186.9924,-340.0589"/>
<polygon fill="#191970" stroke="#191970" points="186.047,-343.4291 196.6292,-342.911 188.0336,-336.7169 186.047,-343.4291"/>
</g>
<!-- Node28 -->
<g id="node6" class="node">
<title>Node28</title>
<g id="a_node6"><a xlink:href="classfs_1_1_i_delegates_getter.html#a99f8eb8d8deebef5e890a7c007aac70f" target="_top" xlink:title=" ">
<polygon fill="none" stroke="#000000" points="174.9346,-292.5 174.9346,-320.5 324.1572,-320.5 324.1572,-292.5 174.9346,-292.5"/>
<text text-anchor="start" x="182.9346" y="-308.5" font-family="Helvetica,sans-Serif" font-size="10.00" fill="#000000">fs::IDelegatesGetter</text>
<text text-anchor="middle" x="249.5459" y="-298.5" font-family="Helvetica,sans-Serif" font-size="10.00" fill="#000000">::getRawRTMessageDelegate</text>
</a>
</g>
</g>
<!-- Node23&#45;&gt;Node28 -->
<g id="edge5" class="edge">
<title>Node23&#45;&gt;Node28</title>
<path fill="none" stroke="#191970" d="M118.7361,-273.5379C139.216,-278.6985 162.5962,-284.59 183.8717,-289.9511"/>
<polygon fill="#191970" stroke="#191970" points="183.2495,-293.4037 193.8017,-292.4533 184.96,-286.6158 183.2495,-293.4037"/>
</g>
<!-- Node29 -->
<g id="node7" class="node">
<title>Node29</title>
<g id="a_node7"><a xlink:href="classfs_1_1_i_delegates_getter.html#a6cd06c1d321f960b31843b9c5f5fa39b" target="_top" xlink:title=" ">
<polygon fill="none" stroke="#000000" points="162.0537,-245.5 162.0537,-273.5 337.0381,-273.5 337.0381,-245.5 162.0537,-245.5"/>
<text text-anchor="start" x="170.0537" y="-261.5" font-family="Helvetica,sans-Serif" font-size="10.00" fill="#000000">fs::IDelegatesGetter</text>
<text text-anchor="middle" x="249.5459" y="-251.5" font-family="Helvetica,sans-Serif" font-size="10.00" fill="#000000">::getRecordingBroadcasterDelegate</text>
</a>
</g>
</g>
<!-- Node23&#45;&gt;Node29 -->
<g id="edge6" class="edge">
<title>Node23&#45;&gt;Node29</title>
<path fill="none" stroke="#191970" d="M126.1737,-259.5C134.4534,-259.5 143.0879,-259.5 151.7747,-259.5"/>
<polygon fill="#191970" stroke="#191970" points="151.9782,-263.0001 161.9782,-259.5 151.9782,-256.0001 151.9782,-263.0001"/>
</g>
<!-- Node30 -->
<g id="node8" class="node">
<title>Node30</title>
<g id="a_node8"><a xlink:href="classfs_1_1_i_delegates_getter.html#ad4a171e25a72433fcf7c8b5b5a1c8f5c" target="_top" xlink:title=" ">
<polygon fill="none" stroke="#000000" points="176.7852,-188.5 176.7852,-226.5 322.3066,-226.5 322.3066,-188.5 176.7852,-188.5"/>
<text text-anchor="start" x="184.7852" y="-214.5" font-family="Helvetica,sans-Serif" font-size="10.00" fill="#000000">fs::IDelegatesGetter</text>
<text text-anchor="start" x="184.7852" y="-204.5" font-family="Helvetica,sans-Serif" font-size="10.00" fill="#000000">::getPresentationBroadcaster</text>
<text text-anchor="middle" x="249.5459" y="-194.5" font-family="Helvetica,sans-Serif" font-size="10.00" fill="#000000">Delegate</text>
</a>
</g>
</g>
<!-- Node23&#45;&gt;Node30 -->
<g id="edge7" class="edge">
<title>Node23&#45;&gt;Node30</title>
<path fill="none" stroke="#191970" d="M113.5016,-245.4281C131.3144,-240.462 151.7859,-234.7547 171.3491,-229.3006"/>
<polygon fill="#191970" stroke="#191970" points="172.4771,-232.6197 181.1698,-226.5627 170.5971,-225.8769 172.4771,-232.6197"/>
</g>
<!-- Node31 -->
<g id="node9" class="node">
<title>Node31</title>
<g id="a_node9"><a xlink:href="classfs_1_1_i_delegates_getter.html#aa9aacbb85de92f6a59826bd6dadae471" target="_top" xlink:title=" ">
<polygon fill="none" stroke="#000000" points="197.0806,-141.5 197.0806,-169.5 302.0112,-169.5 302.0112,-141.5 197.0806,-141.5"/>
<text text-anchor="start" x="205.0806" y="-157.5" font-family="Helvetica,sans-Serif" font-size="10.00" fill="#000000">fs::IDelegatesGetter</text>
<text text-anchor="middle" x="249.5459" y="-147.5" font-family="Helvetica,sans-Serif" font-size="10.00" fill="#000000">::getVoIPDelegate</text>
</a>
</g>
</g>
<!-- Node23&#45;&gt;Node31 -->
<g id="edge8" class="edge">
<title>Node23&#45;&gt;Node31</title>
<path fill="none" stroke="#191970" d="M76.775,-245.2244C94.766,-227.3429 128.0271,-196.9396 162.0537,-179.5 169.8955,-175.4808 178.4884,-172.0722 187.1295,-169.1991"/>
<polygon fill="#191970" stroke="#191970" points="188.354,-172.4838 196.8686,-166.1788 186.2806,-165.7979 188.354,-172.4838"/>
</g>
<!-- Node32 -->
<g id="node10" class="node">
<title>Node32</title>
<g id="a_node10"><a xlink:href="classfs_1_1_i_delegates_getter.html#a84a5ae75d6f1280f8528f360c8ce131d" target="_top" xlink:title=" ">
<polygon fill="none" stroke="#000000" points="197.0806,-94.5 197.0806,-122.5 302.0112,-122.5 302.0112,-94.5 197.0806,-94.5"/>
<text text-anchor="start" x="205.0806" y="-110.5" font-family="Helvetica,sans-Serif" font-size="10.00" fill="#000000">fs::IDelegatesGetter</text>
<text text-anchor="middle" x="249.5459" y="-100.5" font-family="Helvetica,sans-Serif" font-size="10.00" fill="#000000">::getVideoDelegate</text>
</a>
</g>
</g>
<!-- Node23&#45;&gt;Node32 -->
<g id="edge9" class="edge">
<title>Node23&#45;&gt;Node32</title>
<path fill="none" stroke="#191970" d="M70.1257,-245.2405C84.0201,-218.8289 117.3918,-162.2828 162.0537,-132.5 169.6563,-127.4303 178.3064,-123.4258 187.1389,-120.2641"/>
<polygon fill="#191970" stroke="#191970" points="188.3166,-123.5618 196.7537,-117.1536 186.1619,-116.9016 188.3166,-123.5618"/>
</g>
<!-- Node33 -->
<g id="node11" class="node">
<title>Node33</title>
<g id="a_node11"><a xlink:href="classfs_1_1_i_delegates_getter.html#a3f39d14508a9b8646199fabaa0396d98" target="_top" xlink:title=" ">
<polygon fill="none" stroke="#000000" points="190.6792,-47.5 190.6792,-75.5 308.4126,-75.5 308.4126,-47.5 190.6792,-47.5"/>
<text text-anchor="start" x="198.6792" y="-63.5" font-family="Helvetica,sans-Serif" font-size="10.00" fill="#000000">fs::IDelegatesGetter</text>
<text text-anchor="middle" x="249.5459" y="-53.5" font-family="Helvetica,sans-Serif" font-size="10.00" fill="#000000">::getSpeakersDelegate</text>
</a>
</g>
</g>
<!-- Node23&#45;&gt;Node33 -->
<g id="edge10" class="edge">
<title>Node23&#45;&gt;Node33</title>
<path fill="none" stroke="#191970" d="M66.9859,-245.2903C77.008,-212.0096 106.6116,-128.5785 162.0537,-85.5 167.7828,-81.0485 174.2827,-77.422 181.0907,-74.4676"/>
<polygon fill="#191970" stroke="#191970" points="182.4442,-77.697 190.5218,-70.8412 179.9318,-71.1634 182.4442,-77.697"/>
</g>
<!-- Node34 -->
<g id="node12" class="node">
<title>Node34</title>
<g id="a_node12"><a xlink:href="classfs_1_1_i_delegates_getter.html#a75b7bff15a43be8c316e0e6abbfa534a" target="_top" xlink:title=" ">
<polygon fill="none" stroke="#000000" points="195.96,-.5 195.96,-28.5 303.1318,-28.5 303.1318,-.5 195.96,-.5"/>
<text text-anchor="start" x="203.96" y="-16.5" font-family="Helvetica,sans-Serif" font-size="10.00" fill="#000000">fs::IDelegatesGetter</text>
<text text-anchor="middle" x="249.5459" y="-6.5" font-family="Helvetica,sans-Serif" font-size="10.00" fill="#000000">::getScreenDelegate</text>
</a>
</g>
</g>
<!-- Node23&#45;&gt;Node34 -->
<g id="edge11" class="edge">
<title>Node23&#45;&gt;Node34</title>
<path fill="none" stroke="#191970" d="M65.1153,-245.3902C71.6669,-206.2675 95.4966,-95.5495 162.0537,-38.5 169.0795,-32.4778 177.4885,-27.9558 186.2758,-24.5624"/>
<polygon fill="#191970" stroke="#191970" points="187.5589,-27.8233 195.9119,-21.3057 185.3176,-21.1918 187.5589,-27.8233"/>
</g>
</g>
</svg>
