<?xml version="1.0" encoding="UTF-8" standalone="no"?>
<!DOCTYPE svg PUBLIC "-//W3C//DTD SVG 1.1//EN"
 "http://www.w3.org/Graphics/SVG/1.1/DTD/svg11.dtd">
<!-- Generated by graphviz version 2.40.1 (20161225.0304)
 -->
<!-- Title: cx::web::APIv4Wrapper Pages: 1 -->
<!--zoomable 1587 -->
<svg id="main" version="1.1" xmlns="http://www.w3.org/2000/svg" xmlns:xlink="http://www.w3.org/1999/xlink" xml:space="preserve" onload="init(evt)">
<style type="text/css"><![CDATA[
.edge:hover path { stroke: red; }
.edge:hover polygon { stroke: red; fill: red; }
]]></style>
<script type="text/javascript"><![CDATA[
var edges = document.getElementsByTagName('g');
if (edges && edges.length) {
  for (var i=0;i<edges.length;i++) {
    if (edges[i].id.substr(0,4)=='edge') {
      edges[i].setAttribute('class','edge');
    }
  }
}
]]></script>
        <defs>
                <circle id="rim" cx="0" cy="0" r="7"/>
                <circle id="rim2" cx="0" cy="0" r="3.5"/>
                <g id="zoomPlus">
                        <use xlink:href="#rim" fill="#404040">
                                <set attributeName="fill" to="#808080" begin="zoomplus.mouseover" end="zoomplus.mouseout"/>
                        </use>
                        <path d="M-4,0h8M0,-4v8" fill="none" stroke="white" stroke-width="1.5" pointer-events="none"/>
                </g>
                <g id="zoomMin">
                        <use xlink:href="#rim" fill="#404040">
                                <set attributeName="fill" to="#808080" begin="zoomminus.mouseover" end="zoomminus.mouseout"/>
                        </use>
                        <path d="M-4,0h8" fill="none" stroke="white" stroke-width="1.5" pointer-events="none"/>
                </g>
                <g id="dirArrow">
                        <path fill="none" stroke="white" stroke-width="1.5" d="M0,-3.0v7 M-2.5,-0.5L0,-3.0L2.5,-0.5"/>
                </g>
               <g id="resetDef">
                       <use xlink:href="#rim2" fill="#404040">
                               <set attributeName="fill" to="#808080" begin="reset.mouseover" end="reset.mouseout"/>
                       </use>
               </g>
        </defs>

<script type="text/javascript">
var viewWidth = 504;
var viewHeight = 1587;
var sectionId = 'dynsection-1';
</script>
<script xlink:href="svgpan.js"/>
<svg id="graph" class="graph">
<g id="viewport">
<title>cx::web::APIv4Wrapper</title>
<!-- Node4 -->
<g id="node1" class="node">
<title>Node4</title>
<g id="a_node1"><a xlink:title=" ">
<polygon fill="#bfbfbf" stroke="#000000" points="166.3413,-.5 166.3413,-284.5 335.481,-284.5 335.481,-.5 166.3413,-.5"/>
<text text-anchor="middle" x="250.9111" y="-272.5" font-family="Helvetica,sans-Serif" font-size="10.00" fill="#000000">cx::web::APIv4Wrapper</text>
<polyline fill="none" stroke="#000000" points="166.3413,-266.5 335.481,-266.5 "/>
<text text-anchor="middle" x="250.9111" y="-254.5" font-family="Helvetica,sans-Serif" font-size="10.00" fill="#000000"> </text>
<polyline fill="none" stroke="#000000" points="166.3413,-248.5 335.481,-248.5 "/>
<text text-anchor="start" x="174.3413" y="-236.5" font-family="Helvetica,sans-Serif" font-size="10.00" fill="#000000">+ APIv4Wrapper()</text>
<text text-anchor="start" x="174.3413" y="-226.5" font-family="Helvetica,sans-Serif" font-size="10.00" fill="#000000">+ ~APIv4Wrapper()</text>
<text text-anchor="start" x="174.3413" y="-216.5" font-family="Helvetica,sans-Serif" font-size="10.00" fill="#000000">+ upgradeAccessToken()</text>
<text text-anchor="start" x="174.3413" y="-206.5" font-family="Helvetica,sans-Serif" font-size="10.00" fill="#000000">+ authorizeByCodeScheme()</text>
<text text-anchor="start" x="174.3413" y="-196.5" font-family="Helvetica,sans-Serif" font-size="10.00" fill="#000000">+ authorizeByPassword()</text>
<text text-anchor="start" x="174.3413" y="-186.5" font-family="Helvetica,sans-Serif" font-size="10.00" fill="#000000">+ refreshAccessToken()</text>
<text text-anchor="start" x="174.3413" y="-176.5" font-family="Helvetica,sans-Serif" font-size="10.00" fill="#000000">+ getSubscription()</text>
<text text-anchor="start" x="174.3413" y="-166.5" font-family="Helvetica,sans-Serif" font-size="10.00" fill="#000000">+ getSubscriptionByMeetingUrl()</text>
<text text-anchor="start" x="174.3413" y="-156.5" font-family="Helvetica,sans-Serif" font-size="10.00" fill="#000000">+ getConference()</text>
<text text-anchor="start" x="174.3413" y="-146.5" font-family="Helvetica,sans-Serif" font-size="10.00" fill="#000000">+ getConferenceList()</text>
<text text-anchor="start" x="174.3413" y="-136.5" font-family="Helvetica,sans-Serif" font-size="10.00" fill="#000000">+ getRecording()</text>
<text text-anchor="start" x="174.3413" y="-126.5" font-family="Helvetica,sans-Serif" font-size="10.00" fill="#000000">+ getCountryCode()</text>
<text text-anchor="start" x="174.3413" y="-116.5" font-family="Helvetica,sans-Serif" font-size="10.00" fill="#000000">+ getSharedConfig()</text>
<text text-anchor="start" x="174.3413" y="-106.5" font-family="Helvetica,sans-Serif" font-size="10.00" fill="#000000">+ getEquipment()</text>
<text text-anchor="start" x="174.3413" y="-96.5" font-family="Helvetica,sans-Serif" font-size="10.00" fill="#000000">+ getEquipmentById()</text>
<text text-anchor="start" x="174.3413" y="-86.5" font-family="Helvetica,sans-Serif" font-size="10.00" fill="#000000">+ getEquipmentByPhoneNumber()</text>
<text text-anchor="start" x="174.3413" y="-76.5" font-family="Helvetica,sans-Serif" font-size="10.00" fill="#000000">+ getWall()</text>
<text text-anchor="start" x="174.3413" y="-66.5" font-family="Helvetica,sans-Serif" font-size="10.00" fill="#000000">+ getShortUrl()</text>
<text text-anchor="start" x="174.3413" y="-56.5" font-family="Helvetica,sans-Serif" font-size="10.00" fill="#000000">+ getInvitationText()</text>
<text text-anchor="start" x="174.3413" y="-46.5" font-family="Helvetica,sans-Serif" font-size="10.00" fill="#000000">+ getUser()</text>
<text text-anchor="start" x="174.3413" y="-36.5" font-family="Helvetica,sans-Serif" font-size="10.00" fill="#000000">+ getCustomerService()</text>
<text text-anchor="start" x="174.3413" y="-26.5" font-family="Helvetica,sans-Serif" font-size="10.00" fill="#000000">+ updateSubscription()</text>
<text text-anchor="start" x="174.3413" y="-16.5" font-family="Helvetica,sans-Serif" font-size="10.00" fill="#000000">+ getBroadcastResources()</text>
<text text-anchor="start" x="174.3413" y="-6.5" font-family="Helvetica,sans-Serif" font-size="10.00" fill="#000000">+ sendUserVote()</text>
</a>
</g>
</g>
<!-- Node5 -->
<g id="node2" class="node">
<title>Node5</title>
<g id="a_node2"><a xlink:href="classcx_1_1web_1_1_result_builder.html" target="_top" xlink:title=" ">
<polygon fill="none" stroke="#000000" points="184.7104,-322.5 184.7104,-456.5 317.1118,-456.5 317.1118,-322.5 184.7104,-322.5"/>
<text text-anchor="start" x="192.7104" y="-444.5" font-family="Helvetica,sans-Serif" font-size="10.00" fill="#000000">cx::web::ResultBuilder</text>
<text text-anchor="middle" x="250.9111" y="-434.5" font-family="Helvetica,sans-Serif" font-size="10.00" fill="#000000">&lt; ResponseHandler &gt;</text>
<polyline fill="none" stroke="#000000" points="184.7104,-428.5 317.1118,-428.5 "/>
<text text-anchor="middle" x="250.9111" y="-416.5" font-family="Helvetica,sans-Serif" font-size="10.00" fill="#000000"> </text>
<polyline fill="none" stroke="#000000" points="184.7104,-410.5 317.1118,-410.5 "/>
<text text-anchor="start" x="192.7104" y="-398.5" font-family="Helvetica,sans-Serif" font-size="10.00" fill="#000000">+ ResultBuilder()</text>
<text text-anchor="start" x="192.7104" y="-388.5" font-family="Helvetica,sans-Serif" font-size="10.00" fill="#000000">+ ResultBuilder()</text>
<text text-anchor="start" x="192.7104" y="-378.5" font-family="Helvetica,sans-Serif" font-size="10.00" fill="#000000">+ OVERRIDE_METHOD()</text>
<text text-anchor="start" x="192.7104" y="-368.5" font-family="Helvetica,sans-Serif" font-size="10.00" fill="#000000">+ OVERRIDE_METHOD()</text>
<text text-anchor="start" x="192.7104" y="-358.5" font-family="Helvetica,sans-Serif" font-size="10.00" fill="#000000">+ OVERRIDE_METHOD()</text>
<text text-anchor="start" x="192.7104" y="-348.5" font-family="Helvetica,sans-Serif" font-size="10.00" fill="#000000">+ onRequestProgress()</text>
<text text-anchor="start" x="192.7104" y="-338.5" font-family="Helvetica,sans-Serif" font-size="10.00" fill="#000000">+ onRequestSuccess()</text>
<text text-anchor="start" x="192.7104" y="-328.5" font-family="Helvetica,sans-Serif" font-size="10.00" fill="#000000">+ onRequestError()</text>
</a>
</g>
</g>
<!-- Node5&#45;&gt;Node4 -->
<g id="edge1" class="edge">
<title>Node5&#45;&gt;Node4</title>
<path fill="none" stroke="#006400" d="M250.9111,-312.1322C250.9111,-303.2876 250.9111,-294.0742 250.9111,-284.7141"/>
<polygon fill="none" stroke="#006400" points="247.4112,-312.3324 250.9111,-322.3324 254.4112,-312.3325 247.4112,-312.3324"/>
</g>
<!-- Node6 -->
<g id="node3" class="node">
<title>Node6</title>
<g id="a_node3"><a xlink:href="classcx_1_1_h_t_t_p_request_container.html" target="_top" xlink:title=" ">
<polygon fill="none" stroke="#000000" points="61.9951,-586.5 61.9951,-690.5 205.8271,-690.5 205.8271,-586.5 61.9951,-586.5"/>
<text text-anchor="middle" x="133.9111" y="-678.5" font-family="Helvetica,sans-Serif" font-size="10.00" fill="#000000">cx::HTTPRequestContainer</text>
<polyline fill="none" stroke="#000000" points="61.9951,-672.5 205.8271,-672.5 "/>
<text text-anchor="middle" x="133.9111" y="-660.5" font-family="Helvetica,sans-Serif" font-size="10.00" fill="#000000"> </text>
<polyline fill="none" stroke="#000000" points="61.9951,-654.5 205.8271,-654.5 "/>
<text text-anchor="start" x="69.9951" y="-642.5" font-family="Helvetica,sans-Serif" font-size="10.00" fill="#000000">+ HTTPRequestContainer()</text>
<text text-anchor="start" x="69.9951" y="-632.5" font-family="Helvetica,sans-Serif" font-size="10.00" fill="#000000">+ ~HTTPRequestContainer()</text>
<text text-anchor="start" x="69.9951" y="-622.5" font-family="Helvetica,sans-Serif" font-size="10.00" fill="#000000">+ request()</text>
<text text-anchor="start" x="69.9951" y="-612.5" font-family="Helvetica,sans-Serif" font-size="10.00" fill="#000000">+ cancelAll()</text>
<text text-anchor="start" x="69.9951" y="-602.5" font-family="Helvetica,sans-Serif" font-size="10.00" fill="#000000"># onRequestSuccess()</text>
<text text-anchor="start" x="69.9951" y="-592.5" font-family="Helvetica,sans-Serif" font-size="10.00" fill="#000000"># onRequestError()</text>
</a>
</g>
</g>
<!-- Node6&#45;&gt;Node5 -->
<g id="edge2" class="edge">
<title>Node6&#45;&gt;Node5</title>
<path fill="none" stroke="#191970" d="M151.0454,-576.3394C158.42,-552.8602 167.8947,-526.221 178.9111,-503 186.2627,-487.5041 195.3279,-471.5502 204.5168,-456.6786"/>
<polygon fill="none" stroke="#191970" points="147.6104,-575.6021 148.0151,-586.1892 154.3009,-577.6605 147.6104,-575.6021"/>
</g>
<!-- Node7 -->
<g id="node4" class="node">
<title>Node7</title>
<g id="a_node4"><a xlink:href="structcx_1_1_h_t_t_p_request_1_1_h_t_t_p_request_delegate.html" target="_top" xlink:title=" ">
<polygon fill="none" stroke="#000000" points="0,-1005.5 0,-1099.5 163.8223,-1099.5 163.8223,-1005.5 0,-1005.5"/>
<text text-anchor="start" x="8" y="-1087.5" font-family="Helvetica,sans-Serif" font-size="10.00" fill="#000000">cx::HTTPRequest::HTTPRequest</text>
<text text-anchor="middle" x="81.9111" y="-1077.5" font-family="Helvetica,sans-Serif" font-size="10.00" fill="#000000">Delegate</text>
<polyline fill="none" stroke="#000000" points="0,-1071.5 163.8223,-1071.5 "/>
<text text-anchor="middle" x="81.9111" y="-1059.5" font-family="Helvetica,sans-Serif" font-size="10.00" fill="#000000"> </text>
<polyline fill="none" stroke="#000000" points="0,-1053.5 163.8223,-1053.5 "/>
<text text-anchor="start" x="8" y="-1041.5" font-family="Helvetica,sans-Serif" font-size="10.00" fill="#000000">+ ~HTTPRequestDelegate()</text>
<text text-anchor="start" x="8" y="-1031.5" font-family="Helvetica,sans-Serif" font-size="10.00" fill="#000000">+ onRequestSuccess()</text>
<text text-anchor="start" x="8" y="-1021.5" font-family="Helvetica,sans-Serif" font-size="10.00" fill="#000000">+ onRequestError()</text>
<text text-anchor="start" x="8" y="-1011.5" font-family="Helvetica,sans-Serif" font-size="10.00" fill="#000000">+ onRequestProgress()</text>
</a>
</g>
</g>
<!-- Node7&#45;&gt;Node6 -->
<g id="edge3" class="edge">
<title>Node7&#45;&gt;Node6</title>
<path fill="none" stroke="#8b1a1a" d="M89.0787,-995.4351C99.2073,-914.7961 117.5623,-768.662 127.35,-690.7367"/>
<polygon fill="none" stroke="#8b1a1a" points="85.5992,-995.0537 87.8256,-1005.412 92.5446,-995.9262 85.5992,-995.0537"/>
</g>
<!-- Node12 -->
<g id="node9" class="node">
<title>Node12</title>
<g id="a_node9"><a xlink:href="classcx_1_1_h_t_t_p_request.html" target="_top" xlink:title=" ">
<polygon fill="none" stroke="#000000" points="175.6528,-709.5 175.6528,-933.5 326.1694,-933.5 326.1694,-709.5 175.6528,-709.5"/>
<text text-anchor="middle" x="250.9111" y="-921.5" font-family="Helvetica,sans-Serif" font-size="10.00" fill="#000000">cx::HTTPRequest</text>
<polyline fill="none" stroke="#000000" points="175.6528,-915.5 326.1694,-915.5 "/>
<text text-anchor="start" x="183.6528" y="-903.5" font-family="Helvetica,sans-Serif" font-size="10.00" fill="#000000"># response</text>
<text text-anchor="start" x="183.6528" y="-893.5" font-family="Helvetica,sans-Serif" font-size="10.00" fill="#000000"># cancelled</text>
<text text-anchor="start" x="183.6528" y="-883.5" font-family="Helvetica,sans-Serif" font-size="10.00" fill="#000000"># completed</text>
<text text-anchor="start" x="183.6528" y="-873.5" font-family="Helvetica,sans-Serif" font-size="10.00" fill="#000000"># httpFinalStatus</text>
<text text-anchor="start" x="183.6528" y="-863.5" font-family="Helvetica,sans-Serif" font-size="10.00" fill="#000000"># bytesArrived</text>
<polyline fill="none" stroke="#000000" points="175.6528,-857.5 326.1694,-857.5 "/>
<text text-anchor="start" x="183.6528" y="-845.5" font-family="Helvetica,sans-Serif" font-size="10.00" fill="#000000">+ execute()</text>
<text text-anchor="start" x="183.6528" y="-835.5" font-family="Helvetica,sans-Serif" font-size="10.00" fill="#000000">+ cancel()</text>
<text text-anchor="start" x="183.6528" y="-825.5" font-family="Helvetica,sans-Serif" font-size="10.00" fill="#000000">+ deliverError()</text>
<text text-anchor="start" x="183.6528" y="-815.5" font-family="Helvetica,sans-Serif" font-size="10.00" fill="#000000">+ getResponse()</text>
<text text-anchor="start" x="183.6528" y="-805.5" font-family="Helvetica,sans-Serif" font-size="10.00" fill="#000000">+ setProxy()</text>
<text text-anchor="start" x="183.6528" y="-795.5" font-family="Helvetica,sans-Serif" font-size="10.00" fill="#000000"># generateRequestHdr()</text>
<text text-anchor="start" x="183.6528" y="-785.5" font-family="Helvetica,sans-Serif" font-size="10.00" fill="#000000"># onFinalResponseReceived()</text>
<text text-anchor="start" x="183.6528" y="-775.5" font-family="Helvetica,sans-Serif" font-size="10.00" fill="#000000"># deliverError()</text>
<text text-anchor="start" x="183.6528" y="-765.5" font-family="Helvetica,sans-Serif" font-size="10.00" fill="#000000"># HTTPRequest()</text>
<text text-anchor="start" x="183.6528" y="-755.5" font-family="Helvetica,sans-Serif" font-size="10.00" fill="#000000"># ~HTTPRequest()</text>
<text text-anchor="start" x="183.6528" y="-745.5" font-family="Helvetica,sans-Serif" font-size="10.00" fill="#000000"># is_json_response()</text>
<text text-anchor="start" x="183.6528" y="-735.5" font-family="Helvetica,sans-Serif" font-size="10.00" fill="#000000"># is_text_response()</text>
<text text-anchor="start" x="183.6528" y="-725.5" font-family="Helvetica,sans-Serif" font-size="10.00" fill="#000000"># is_empty_content_type()</text>
<text text-anchor="start" x="183.6528" y="-715.5" font-family="Helvetica,sans-Serif" font-size="10.00" fill="#000000"># createAuth()</text>
</a>
</g>
</g>
<!-- Node7&#45;&gt;Node12 -->
<g id="edge14" class="edge">
<title>Node7&#45;&gt;Node12</title>
<path fill="none" stroke="#404040" d="M116.3145,-1005.4753C131.3949,-984.8624 149.8071,-959.6955 168.1127,-934.6742"/>
<polygon fill="none" stroke="#404040" points="168.3034,-934.4135 168.6179,-927.2092 175.3889,-924.7286 175.0744,-931.9329 168.3034,-934.4135"/>
<text text-anchor="middle" x="192.7729" y="-954" font-family="Helvetica,sans-Serif" font-size="10.00" fill="#000000"> #requestDelegate</text>
</g>
<!-- Node8 -->
<g id="node5" class="node">
<title>Node8</title>
<g id="a_node5"><a xlink:href="structcx_1_1web_1_1_configuration.html" target="_top" xlink:title=" ">
<polygon fill="none" stroke="#000000" points="381.4409,-1143.5 381.4409,-1227.5 496.3813,-1227.5 496.3813,-1143.5 381.4409,-1143.5"/>
<text text-anchor="middle" x="438.9111" y="-1215.5" font-family="Helvetica,sans-Serif" font-size="10.00" fill="#000000">cx::web::Configuration</text>
<polyline fill="none" stroke="#000000" points="381.4409,-1209.5 496.3813,-1209.5 "/>
<text text-anchor="start" x="389.4409" y="-1197.5" font-family="Helvetica,sans-Serif" font-size="10.00" fill="#000000">+ version</text>
<polyline fill="none" stroke="#000000" points="381.4409,-1191.5 496.3813,-1191.5 "/>
<text text-anchor="start" x="389.4409" y="-1179.5" font-family="Helvetica,sans-Serif" font-size="10.00" fill="#000000">+ Configuration()</text>
<text text-anchor="start" x="389.4409" y="-1169.5" font-family="Helvetica,sans-Serif" font-size="10.00" fill="#000000">+ Configuration()</text>
<text text-anchor="start" x="389.4409" y="-1159.5" font-family="Helvetica,sans-Serif" font-size="10.00" fill="#000000">+ Configuration()</text>
<text text-anchor="start" x="389.4409" y="-1149.5" font-family="Helvetica,sans-Serif" font-size="10.00" fill="#000000">* version</text>
</a>
</g>
</g>
<!-- Node8&#45;&gt;Node5 -->
<g id="edge4" class="edge">
<title>Node8&#45;&gt;Node5</title>
<path fill="none" stroke="#404040" d="M438.9111,-1143.3855C438.9111,-1097.5377 438.9111,-1022.059 438.9111,-957 438.9111,-957 438.9111,-957 438.9111,-535.5 438.9111,-476.402 380.2445,-437.7704 328.4559,-415.1813"/>
<polygon fill="none" stroke="#404040" points="328.2621,-415.1002 321.1828,-416.4729 317.1929,-410.4662 324.2722,-409.0935 328.2621,-415.1002"/>
<text text-anchor="middle" x="456.4233" y="-818.5" font-family="Helvetica,sans-Serif" font-size="10.00" fill="#000000"> #config</text>
</g>
<!-- Node9 -->
<g id="node6" class="node">
<title>Node9</title>
<g id="a_node6"><a xlink:title="STL class.">
<polygon fill="none" stroke="#bfbfbf" points="326.2363,-1422.5 326.2363,-1476.5 385.5859,-1476.5 385.5859,-1422.5 326.2363,-1422.5"/>
<text text-anchor="middle" x="355.9111" y="-1464.5" font-family="Helvetica,sans-Serif" font-size="10.00" fill="#000000">std::string</text>
<polyline fill="none" stroke="#bfbfbf" points="326.2363,-1458.5 385.5859,-1458.5 "/>
<text text-anchor="middle" x="355.9111" y="-1446.5" font-family="Helvetica,sans-Serif" font-size="10.00" fill="#000000"> </text>
<polyline fill="none" stroke="#bfbfbf" points="326.2363,-1440.5 385.5859,-1440.5 "/>
<text text-anchor="middle" x="355.9111" y="-1428.5" font-family="Helvetica,sans-Serif" font-size="10.00" fill="#000000"> </text>
</a>
</g>
</g>
<!-- Node9&#45;&gt;Node8 -->
<g id="edge5" class="edge">
<title>Node9&#45;&gt;Node8</title>
<path fill="none" stroke="#404040" d="M385.6413,-1429.6213C394.3065,-1422.4843 403.0177,-1413.7578 408.9111,-1404 438.9854,-1354.2058 443.93,-1286.56 442.9796,-1239.7875"/>
<polygon fill="none" stroke="#404040" points="442.9792,-1239.7702 438.7903,-1233.9005 442.5974,-1227.7762 446.7863,-1233.6459 442.9792,-1239.7702"/>
<text text-anchor="middle" x="452.8999" y="-1396" font-family="Helvetica,sans-Serif" font-size="10.00" fill="#000000"> +client_id</text>
<text text-anchor="middle" x="452.8999" y="-1386" font-family="Helvetica,sans-Serif" font-size="10.00" fill="#000000">+client_secret</text>
<text text-anchor="middle" x="452.8999" y="-1376" font-family="Helvetica,sans-Serif" font-size="10.00" fill="#000000">+base_url</text>
</g>
<!-- Node14 -->
<g id="node11" class="node">
<title>Node14</title>
<g id="a_node11"><a xlink:href="structcx_1_1_h_t_t_p_request_1_1_request_params.html" target="_top" xlink:title=" ">
<polygon fill="none" stroke="#000000" points="182.0542,-980.5 182.0542,-1124.5 319.7681,-1124.5 319.7681,-980.5 182.0542,-980.5"/>
<text text-anchor="start" x="190.0542" y="-1112.5" font-family="Helvetica,sans-Serif" font-size="10.00" fill="#000000">cx::HTTPRequest::Request</text>
<text text-anchor="middle" x="250.9111" y="-1102.5" font-family="Helvetica,sans-Serif" font-size="10.00" fill="#000000">Params</text>
<polyline fill="none" stroke="#000000" points="182.0542,-1096.5 319.7681,-1096.5 "/>
<text text-anchor="start" x="190.0542" y="-1084.5" font-family="Helvetica,sans-Serif" font-size="10.00" fill="#000000">+ output</text>
<text text-anchor="start" x="190.0542" y="-1074.5" font-family="Helvetica,sans-Serif" font-size="10.00" fill="#000000">+ fileName</text>
<text text-anchor="start" x="190.0542" y="-1064.5" font-family="Helvetica,sans-Serif" font-size="10.00" fill="#000000">+ method</text>
<text text-anchor="start" x="190.0542" y="-1054.5" font-family="Helvetica,sans-Serif" font-size="10.00" fill="#000000">+ proxyPort</text>
<text text-anchor="start" x="190.0542" y="-1044.5" font-family="Helvetica,sans-Serif" font-size="10.00" fill="#000000">+ needProgress</text>
<text text-anchor="start" x="190.0542" y="-1034.5" font-family="Helvetica,sans-Serif" font-size="10.00" fill="#000000">+ needUploadProgress</text>
<text text-anchor="start" x="190.0542" y="-1024.5" font-family="Helvetica,sans-Serif" font-size="10.00" fill="#000000">+ upload</text>
<polyline fill="none" stroke="#000000" points="182.0542,-1018.5 319.7681,-1018.5 "/>
<text text-anchor="start" x="190.0542" y="-1006.5" font-family="Helvetica,sans-Serif" font-size="10.00" fill="#000000">+ RequestParams()</text>
<text text-anchor="start" x="190.0542" y="-996.5" font-family="Helvetica,sans-Serif" font-size="10.00" fill="#000000">+ RequestParams()</text>
<text text-anchor="start" x="190.0542" y="-986.5" font-family="Helvetica,sans-Serif" font-size="10.00" fill="#000000">+ start()</text>
</a>
</g>
</g>
<!-- Node9&#45;&gt;Node14 -->
<g id="edge13" class="edge">
<title>Node9&#45;&gt;Node14</title>
<path fill="none" stroke="#404040" d="M326.1902,-1439.4109C292.4944,-1426.1804 239.2381,-1399.4078 216.042,-1356 179.8613,-1288.2935 195.7401,-1200.1285 216.3759,-1136.2831"/>
<polygon fill="none" stroke="#404040" points="216.4596,-1136.0332 214.5736,-1129.0731 220.2729,-1124.6552 222.1589,-1131.6153 216.4596,-1136.0332"/>
<text text-anchor="middle" x="254.8457" y="-1348" font-family="Helvetica,sans-Serif" font-size="10.00" fill="#000000"> +auth</text>
<text text-anchor="middle" x="254.8457" y="-1338" font-family="Helvetica,sans-Serif" font-size="10.00" fill="#000000">+url</text>
<text text-anchor="middle" x="254.8457" y="-1328" font-family="Helvetica,sans-Serif" font-size="10.00" fill="#000000">+password</text>
<text text-anchor="middle" x="254.8457" y="-1318" font-family="Helvetica,sans-Serif" font-size="10.00" fill="#000000">+strHeaders</text>
<text text-anchor="middle" x="254.8457" y="-1308" font-family="Helvetica,sans-Serif" font-size="10.00" fill="#000000">+attachFileName</text>
<text text-anchor="middle" x="254.8457" y="-1298" font-family="Helvetica,sans-Serif" font-size="10.00" fill="#000000">+globalProxy</text>
<text text-anchor="middle" x="254.8457" y="-1288" font-family="Helvetica,sans-Serif" font-size="10.00" fill="#000000">+body</text>
<text text-anchor="middle" x="254.8457" y="-1278" font-family="Helvetica,sans-Serif" font-size="10.00" fill="#000000">+proxyHost</text>
<text text-anchor="middle" x="254.8457" y="-1268" font-family="Helvetica,sans-Serif" font-size="10.00" fill="#000000">+strContentType</text>
<text text-anchor="middle" x="254.8457" y="-1258" font-family="Helvetica,sans-Serif" font-size="10.00" fill="#000000">+username</text>
<text text-anchor="middle" x="254.8457" y="-1248" font-family="Helvetica,sans-Serif" font-size="10.00" fill="#000000">...</text>
</g>
<!-- Node15 -->
<g id="node12" class="node">
<title>Node15</title>
<g id="a_node12"><a xlink:title=" ">
<polygon fill="none" stroke="#bfbfbf" points="301.3633,-1269 301.3633,-1333 410.459,-1333 410.459,-1269 301.3633,-1269"/>
<text text-anchor="start" x="309.3633" y="-1321" font-family="Helvetica,sans-Serif" font-size="10.00" fill="#000000">std::map&lt; std::string,</text>
<text text-anchor="middle" x="355.9111" y="-1311" font-family="Helvetica,sans-Serif" font-size="10.00" fill="#000000"> std::string &gt;</text>
<polyline fill="none" stroke="#bfbfbf" points="301.3633,-1305 410.459,-1305 "/>
<text text-anchor="middle" x="355.9111" y="-1293" font-family="Helvetica,sans-Serif" font-size="10.00" fill="#000000"> </text>
<polyline fill="none" stroke="#bfbfbf" points="301.3633,-1287 410.459,-1287 "/>
<text text-anchor="middle" x="355.9111" y="-1275" font-family="Helvetica,sans-Serif" font-size="10.00" fill="#000000"> </text>
</a>
</g>
</g>
<!-- Node9&#45;&gt;Node15 -->
<g id="edge12" class="edge">
<title>Node9&#45;&gt;Node15</title>
<path fill="none" stroke="#404040" d="M355.9111,-1422.2628C355.9111,-1400.7738 355.9111,-1370.36 355.9111,-1345.3676"/>
<polygon fill="none" stroke="#404040" points="355.9112,-1345.2337 351.9112,-1339.2338 355.9111,-1333.2337 359.9112,-1339.2337 355.9112,-1345.2337"/>
<text text-anchor="middle" x="380.5083" y="-1391" font-family="Helvetica,sans-Serif" font-size="10.00" fill="#000000"> +elements</text>
<text text-anchor="middle" x="380.5083" y="-1381" font-family="Helvetica,sans-Serif" font-size="10.00" fill="#000000">+keys</text>
</g>
<!-- Node10 -->
<g id="node7" class="node">
<title>Node10</title>
<g id="a_node7"><a xlink:title="STL class.">
<polygon fill="none" stroke="#bfbfbf" points="308.8633,-1514.5 308.8633,-1578.5 402.959,-1578.5 402.959,-1514.5 308.8633,-1514.5"/>
<text text-anchor="start" x="316.8633" y="-1566.5" font-family="Helvetica,sans-Serif" font-size="10.00" fill="#000000">std::basic_string&lt;</text>
<text text-anchor="middle" x="355.9111" y="-1556.5" font-family="Helvetica,sans-Serif" font-size="10.00" fill="#000000"> char &gt;</text>
<polyline fill="none" stroke="#bfbfbf" points="308.8633,-1550.5 402.959,-1550.5 "/>
<text text-anchor="middle" x="355.9111" y="-1538.5" font-family="Helvetica,sans-Serif" font-size="10.00" fill="#000000"> </text>
<polyline fill="none" stroke="#bfbfbf" points="308.8633,-1532.5 402.959,-1532.5 "/>
<text text-anchor="middle" x="355.9111" y="-1520.5" font-family="Helvetica,sans-Serif" font-size="10.00" fill="#000000"> </text>
</a>
</g>
</g>
<!-- Node10&#45;&gt;Node9 -->
<g id="edge6" class="edge">
<title>Node10&#45;&gt;Node9</title>
<path fill="none" stroke="#191970" d="M355.9111,-1504.4397C355.9111,-1495.0133 355.9111,-1485.2564 355.9111,-1476.6277"/>
<polygon fill="none" stroke="#191970" points="352.4112,-1504.4697 355.9111,-1514.4697 359.4112,-1504.4698 352.4112,-1504.4697"/>
</g>
<!-- Node11 -->
<g id="node8" class="node">
<title>Node11</title>
<g id="a_node8"><a xlink:title=" ">
<polygon fill="none" stroke="#bfbfbf" points="187.75,-503.5 187.75,-567.5 314.0723,-567.5 314.0723,-503.5 187.75,-503.5"/>
<text text-anchor="start" x="195.75" y="-555.5" font-family="Helvetica,sans-Serif" font-size="10.00" fill="#000000">std::map&lt; HTTPRequest</text>
<text text-anchor="middle" x="250.9111" y="-545.5" font-family="Helvetica,sans-Serif" font-size="10.00" fill="#000000"> *, Handler_t &gt;</text>
<polyline fill="none" stroke="#bfbfbf" points="187.75,-539.5 314.0723,-539.5 "/>
<text text-anchor="start" x="195.75" y="-527.5" font-family="Helvetica,sans-Serif" font-size="10.00" fill="#000000">+ elements</text>
<polyline fill="none" stroke="#bfbfbf" points="187.75,-521.5 314.0723,-521.5 "/>
<text text-anchor="middle" x="250.9111" y="-509.5" font-family="Helvetica,sans-Serif" font-size="10.00" fill="#000000"> </text>
</a>
</g>
</g>
<!-- Node11&#45;&gt;Node5 -->
<g id="edge7" class="edge">
<title>Node11&#45;&gt;Node5</title>
<path fill="none" stroke="#404040" d="M250.9111,-503.4597C250.9111,-493.135 250.9111,-481.1941 250.9111,-469.0094"/>
<polygon fill="none" stroke="#404040" points="250.9112,-468.7943 246.9112,-462.7943 250.9111,-456.7943 254.9112,-462.7942 250.9112,-468.7943"/>
<text text-anchor="middle" x="287.3223" y="-477" font-family="Helvetica,sans-Serif" font-size="10.00" fill="#000000"> #active_queries</text>
</g>
<!-- Node12&#45;&gt;Node11 -->
<g id="edge8" class="edge">
<title>Node12&#45;&gt;Node11</title>
<path fill="none" stroke="#404040" d="M250.9111,-709.2861C250.9111,-663.9886 250.9111,-614.3646 250.9111,-579.7834"/>
<polygon fill="none" stroke="#404040" points="250.9112,-579.7595 246.9112,-573.7595 250.9111,-567.7595 254.9112,-573.7594 250.9112,-579.7595"/>
<text text-anchor="middle" x="265.501" y="-635.5" font-family="Helvetica,sans-Serif" font-size="10.00" fill="#000000"> +keys</text>
</g>
<!-- Node13 -->
<g id="node10" class="node">
<title>Node13</title>
<g id="a_node10"><a xlink:title=" ">
<polygon fill="none" stroke="#bfbfbf" points="337.2881,-1025.5 337.2881,-1079.5 410.5342,-1079.5 410.5342,-1025.5 337.2881,-1025.5"/>
<text text-anchor="middle" x="373.9111" y="-1067.5" font-family="Helvetica,sans-Serif" font-size="10.00" fill="#000000">HTTPLoader</text>
<polyline fill="none" stroke="#bfbfbf" points="337.2881,-1061.5 410.5342,-1061.5 "/>
<text text-anchor="middle" x="373.9111" y="-1049.5" font-family="Helvetica,sans-Serif" font-size="10.00" fill="#000000"> </text>
<polyline fill="none" stroke="#bfbfbf" points="337.2881,-1043.5 410.5342,-1043.5 "/>
<text text-anchor="middle" x="373.9111" y="-1031.5" font-family="Helvetica,sans-Serif" font-size="10.00" fill="#000000"> </text>
</a>
</g>
</g>
<!-- Node13&#45;&gt;Node12 -->
<g id="edge9" class="edge">
<title>Node13&#45;&gt;Node12</title>
<path fill="none" stroke="#191970" d="M359.7038,-1015.7822C351.8635,-996.4857 341.5724,-972.6233 330.9111,-952 327.7992,-945.9803 324.5135,-939.865 321.1195,-933.7328"/>
<polygon fill="none" stroke="#191970" points="356.4843,-1017.1575 363.4577,-1025.1339 362.9805,-1014.5498 356.4843,-1017.1575"/>
</g>
<!-- Node14&#45;&gt;Node12 -->
<g id="edge10" class="edge">
<title>Node14&#45;&gt;Node12</title>
<path fill="none" stroke="#404040" d="M250.9111,-980.3603C250.9111,-969.3563 250.9111,-957.7381 250.9111,-945.995"/>
<polygon fill="none" stroke="#404040" points="250.9112,-945.7329 246.9112,-939.7329 250.9111,-933.7329 254.9112,-939.7329 250.9112,-945.7329"/>
<text text-anchor="middle" x="288.9849" y="-954" font-family="Helvetica,sans-Serif" font-size="10.00" fill="#000000"> #requestParams</text>
</g>
<!-- Node15&#45;&gt;Node14 -->
<g id="edge11" class="edge">
<title>Node15&#45;&gt;Node14</title>
<path fill="none" stroke="#404040" d="M342.2919,-1268.7677C328.1178,-1235.2225 305.3416,-1181.3189 286.0746,-1135.7202"/>
<polygon fill="none" stroke="#404040" points="286.0578,-1135.6802 280.0379,-1131.7103 281.3871,-1124.6265 287.407,-1128.5965 286.0578,-1135.6802"/>
<text text-anchor="middle" x="345.8999" y="-1187.5" font-family="Helvetica,sans-Serif" font-size="10.00" fill="#000000"> +params</text>
<text text-anchor="middle" x="345.8999" y="-1177.5" font-family="Helvetica,sans-Serif" font-size="10.00" fill="#000000">+headers</text>
</g>
</g>
</svg>
        <g id="navigator" transform="translate(0 0)" fill="#404254">
                <rect fill="#f2f5e9" fill-opacity="0.5" stroke="#606060" stroke-width=".5" x="0" y="0" width="60" height="60"/>
                <use id="zoomplus" xlink:href="#zoomPlus" x="17" y="9" onmousedown="handleZoom(evt,'in')"/>
                <use id="zoomminus" xlink:href="#zoomMin" x="42" y="9" onmousedown="handleZoom(evt,'out')"/>
                <use id="reset" xlink:href="#resetDef" x="30" y="36" onmousedown="handleReset()"/>
                <g id="arrowUp" xlink:href="#dirArrow" transform="translate(30 24)" onmousedown="handlePan(0,-1)">
                  <use xlink:href="#rim" fill="#404040">
                        <set attributeName="fill" to="#808080" begin="arrowUp.mouseover" end="arrowUp.mouseout"/>
                  </use>
                  <path fill="none" stroke="white" stroke-width="1.5" d="M0,-3.0v7 M-2.5,-0.5L0,-3.0L2.5,-0.5"/>
                </g>
                <g id="arrowRight" xlink:href="#dirArrow" transform="rotate(90) translate(36 -43)" onmousedown="handlePan(1,0)">
                  <use xlink:href="#rim" fill="#404040">
                        <set attributeName="fill" to="#808080" begin="arrowRight.mouseover" end="arrowRight.mouseout"/>
                  </use>
                  <path fill="none" stroke="white" stroke-width="1.5" d="M0,-3.0v7 M-2.5,-0.5L0,-3.0L2.5,-0.5"/>
                </g>
                <g id="arrowDown" xlink:href="#dirArrow" transform="rotate(180) translate(-30 -48)" onmousedown="handlePan(0,1)">
                  <use xlink:href="#rim" fill="#404040">
                        <set attributeName="fill" to="#808080" begin="arrowDown.mouseover" end="arrowDown.mouseout"/>
                  </use>
                  <path fill="none" stroke="white" stroke-width="1.5" d="M0,-3.0v7 M-2.5,-0.5L0,-3.0L2.5,-0.5"/>
                </g>
                <g id="arrowLeft" xlink:href="#dirArrow" transform="rotate(270) translate(-36 17)" onmousedown="handlePan(-1,0)">
                  <use xlink:href="#rim" fill="#404040">
                        <set attributeName="fill" to="#808080" begin="arrowLeft.mouseover" end="arrowLeft.mouseout"/>
                  </use>
                  <path fill="none" stroke="white" stroke-width="1.5" d="M0,-3.0v7 M-2.5,-0.5L0,-3.0L2.5,-0.5"/>
                </g>
        </g>
        <svg viewBox="0 0 15 15" width="100%" height="30px" preserveAspectRatio="xMaxYMin meet">
         <g id="arrow_out" transform="scale(0.3 0.3)">
          <a xlink:href="classcx_1_1web_1_1_a_p_iv4_wrapper__coll__graph_org.svg" target="_base">
           <rect id="button" ry="5" rx="5" y="6" x="6" height="38" width="38"
                fill="#f2f5e9" fill-opacity="0.5" stroke="#606060" stroke-width="1.0"/>
           <path id="arrow"
             d="M 11.500037,31.436501 C 11.940474,20.09759 22.043105,11.32322 32.158766,21.979434 L 37.068811,17.246167 C 37.068811,17.246167 37.088388,32 37.088388,32 L 22.160133,31.978069 C 22.160133,31.978069 26.997745,27.140456 26.997745,27.140456 C 18.528582,18.264221 13.291696,25.230495 11.500037,31.436501 z"
             style="fill:#404040;"/>
          </a>
         </g>
        </svg>
</svg>
