<?xml version="1.0" encoding="UTF-8" standalone="no"?>
<!DOCTYPE svg PUBLIC "-//W3C//DTD SVG 1.1//EN"
 "http://www.w3.org/Graphics/SVG/1.1/DTD/svg11.dtd">
<!-- Generated by graphviz version 2.40.1 (20161225.0304)
 -->
<!-- Title: cx::meeting::MeetingSessionProxy::requestFeature Pages: 1 -->
<!--zoomable 319 -->
<svg id="main" version="1.1" xmlns="http://www.w3.org/2000/svg" xmlns:xlink="http://www.w3.org/1999/xlink" xml:space="preserve" onload="init(evt)">
<style type="text/css"><![CDATA[
.edge:hover path { stroke: red; }
.edge:hover polygon { stroke: red; fill: red; }
]]></style>
<script type="text/javascript"><![CDATA[
var edges = document.getElementsByTagName('g');
if (edges && edges.length) {
  for (var i=0;i<edges.length;i++) {
    if (edges[i].id.substr(0,4)=='edge') {
      edges[i].setAttribute('class','edge');
    }
  }
}
]]></script>
        <defs>
                <circle id="rim" cx="0" cy="0" r="7"/>
                <circle id="rim2" cx="0" cy="0" r="3.5"/>
                <g id="zoomPlus">
                        <use xlink:href="#rim" fill="#404040">
                                <set attributeName="fill" to="#808080" begin="zoomplus.mouseover" end="zoomplus.mouseout"/>
                        </use>
                        <path d="M-4,0h8M0,-4v8" fill="none" stroke="white" stroke-width="1.5" pointer-events="none"/>
                </g>
                <g id="zoomMin">
                        <use xlink:href="#rim" fill="#404040">
                                <set attributeName="fill" to="#808080" begin="zoomminus.mouseover" end="zoomminus.mouseout"/>
                        </use>
                        <path d="M-4,0h8" fill="none" stroke="white" stroke-width="1.5" pointer-events="none"/>
                </g>
                <g id="dirArrow">
                        <path fill="none" stroke="white" stroke-width="1.5" d="M0,-3.0v7 M-2.5,-0.5L0,-3.0L2.5,-0.5"/>
                </g>
               <g id="resetDef">
                       <use xlink:href="#rim2" fill="#404040">
                               <set attributeName="fill" to="#808080" begin="reset.mouseover" end="reset.mouseout"/>
                       </use>
               </g>
        </defs>

<script type="text/javascript">
var viewWidth = 533;
var viewHeight = 319;
var sectionId = 'dynsection-10';
</script>
<script xlink:href="svgpan.js"/>
<svg id="graph" class="graph">
<g id="viewport">
<title>cx::meeting::MeetingSessionProxy::requestFeature</title>
<!-- Node138 -->
<g id="node1" class="node">
<title>Node138</title>
<g id="a_node1"><a xlink:title=" ">
<polygon fill="#bfbfbf" stroke="#000000" points="380.8066,-141.5 380.8066,-169.5 524.6484,-169.5 524.6484,-141.5 380.8066,-141.5"/>
<text text-anchor="start" x="388.8066" y="-157.5" font-family="Helvetica,sans-Serif" font-size="10.00" fill="#000000">cx::meeting::MeetingSession</text>
<text text-anchor="middle" x="452.7275" y="-147.5" font-family="Helvetica,sans-Serif" font-size="10.00" fill="#000000">Proxy::requestFeature</text>
</a>
</g>
</g>
<!-- Node139 -->
<g id="node2" class="node">
<title>Node139</title>
<g id="a_node2"><a xlink:href="classcx_1_1meeting_1_1_meeting_session_proxy.html#aecca7c888f846a11991e21f440c1df15" target="_top" xlink:title=" ">
<polygon fill="none" stroke="#000000" points="200.9648,-282.5 200.9648,-310.5 344.8066,-310.5 344.8066,-282.5 200.9648,-282.5"/>
<text text-anchor="start" x="208.9648" y="-298.5" font-family="Helvetica,sans-Serif" font-size="10.00" fill="#000000">cx::meeting::MeetingSession</text>
<text text-anchor="middle" x="272.8857" y="-288.5" font-family="Helvetica,sans-Serif" font-size="10.00" fill="#000000">Proxy::voip</text>
</a>
</g>
</g>
<!-- Node138&#45;&gt;Node139 -->
<g id="edge1" class="edge">
<title>Node138&#45;&gt;Node139</title>
<path fill="none" stroke="#191970" d="M437.7625,-177.9753C419.0186,-204.4601 384.5012,-248.071 344.8066,-273.5 339.5082,-276.8943 333.6682,-279.8243 327.676,-282.3448"/>
<polygon fill="#191970" stroke="#191970" points="440.6778,-179.9133 443.4991,-169.701 434.9251,-175.9249 440.6778,-179.9133"/>
</g>
<!-- Node140 -->
<g id="node3" class="node">
<title>Node140</title>
<g id="a_node3"><a xlink:href="classcx_1_1meeting_1_1_meeting_session_proxy.html#af7104b7b5c14e7fb09fb2f7d31356da0" target="_top" xlink:title=" ">
<polygon fill="none" stroke="#000000" points="200.9648,-235.5 200.9648,-263.5 344.8066,-263.5 344.8066,-235.5 200.9648,-235.5"/>
<text text-anchor="start" x="208.9648" y="-251.5" font-family="Helvetica,sans-Serif" font-size="10.00" fill="#000000">cx::meeting::MeetingSession</text>
<text text-anchor="middle" x="272.8857" y="-241.5" font-family="Helvetica,sans-Serif" font-size="10.00" fill="#000000">Proxy::screen</text>
</a>
</g>
</g>
<!-- Node138&#45;&gt;Node140 -->
<g id="edge2" class="edge">
<title>Node138&#45;&gt;Node140</title>
<path fill="none" stroke="#191970" d="M426.395,-175.7748C405.2558,-191.3053 374.3311,-212.3939 344.8066,-226.5 337.9461,-229.7778 330.5025,-232.7509 323.0922,-235.3892"/>
<polygon fill="#191970" stroke="#191970" points="428.6161,-178.4847 434.5461,-169.7048 424.4352,-172.8704 428.6161,-178.4847"/>
</g>
<!-- Node141 -->
<g id="node4" class="node">
<title>Node141</title>
<g id="a_node4"><a xlink:href="classcx_1_1meeting_1_1_meeting_session_proxy.html#aef01cb9449d36118ecf3faab17aa0f0a" target="_top" xlink:title=" ">
<polygon fill="none" stroke="#000000" points="200.9648,-188.5 200.9648,-216.5 344.8066,-216.5 344.8066,-188.5 200.9648,-188.5"/>
<text text-anchor="start" x="208.9648" y="-204.5" font-family="Helvetica,sans-Serif" font-size="10.00" fill="#000000">cx::meeting::MeetingSession</text>
<text text-anchor="middle" x="272.8857" y="-194.5" font-family="Helvetica,sans-Serif" font-size="10.00" fill="#000000">Proxy::video</text>
</a>
</g>
</g>
<!-- Node138&#45;&gt;Node141 -->
<g id="edge3" class="edge">
<title>Node138&#45;&gt;Node141</title>
<path fill="none" stroke="#191970" d="M388.9231,-172.1747C368.5021,-177.5115 346.1135,-183.3626 326.496,-188.4894"/>
<polygon fill="#191970" stroke="#191970" points="389.979,-175.5164 398.7691,-169.6015 388.209,-168.7438 389.979,-175.5164"/>
</g>
<!-- Node142 -->
<g id="node5" class="node">
<title>Node142</title>
<g id="a_node5"><a xlink:href="classcx_1_1meeting_1_1_meeting_session_proxy.html#a7546866a6b25c21ce79bdee242f542b8" target="_top" xlink:title=" ">
<polygon fill="none" stroke="#000000" points="200.9648,-141.5 200.9648,-169.5 344.8066,-169.5 344.8066,-141.5 200.9648,-141.5"/>
<text text-anchor="start" x="208.9648" y="-157.5" font-family="Helvetica,sans-Serif" font-size="10.00" fill="#000000">cx::meeting::MeetingSession</text>
<text text-anchor="middle" x="272.8857" y="-147.5" font-family="Helvetica,sans-Serif" font-size="10.00" fill="#000000">Proxy::attendees</text>
</a>
</g>
</g>
<!-- Node138&#45;&gt;Node142 -->
<g id="edge4" class="edge">
<title>Node138&#45;&gt;Node142</title>
<path fill="none" stroke="#191970" d="M370.3609,-155.5C361.901,-155.5 353.3513,-155.5 345.0142,-155.5"/>
<polygon fill="#191970" stroke="#191970" points="370.6153,-159.0001 380.6152,-155.5 370.6152,-152.0001 370.6153,-159.0001"/>
</g>
<!-- Node144 -->
<g id="node7" class="node">
<title>Node144</title>
<g id="a_node7"><a xlink:href="classcx_1_1meeting_1_1_meeting_session_proxy.html#a44489c69e96e51cae90cea9b7583ae69" target="_top" xlink:title=" ">
<polygon fill="none" stroke="#000000" points="200.9648,-94.5 200.9648,-122.5 344.8066,-122.5 344.8066,-94.5 200.9648,-94.5"/>
<text text-anchor="start" x="208.9648" y="-110.5" font-family="Helvetica,sans-Serif" font-size="10.00" fill="#000000">cx::meeting::MeetingSession</text>
<text text-anchor="middle" x="272.8857" y="-100.5" font-family="Helvetica,sans-Serif" font-size="10.00" fill="#000000">Proxy::chat</text>
</a>
</g>
</g>
<!-- Node138&#45;&gt;Node144 -->
<g id="edge6" class="edge">
<title>Node138&#45;&gt;Node144</title>
<path fill="none" stroke="#191970" d="M388.9231,-138.8253C368.5021,-133.4885 346.1135,-127.6374 326.496,-122.5106"/>
<polygon fill="#191970" stroke="#191970" points="388.209,-142.2562 398.7691,-141.3985 389.979,-135.4836 388.209,-142.2562"/>
</g>
<!-- Node145 -->
<g id="node8" class="node">
<title>Node145</title>
<g id="a_node8"><a xlink:href="classcx_1_1meeting_1_1_meeting_session_proxy.html#a4d0259cd4fe9562b0131be5edc7761bb" target="_top" xlink:title=" ">
<polygon fill="none" stroke="#000000" points="200.9648,-47.5 200.9648,-75.5 344.8066,-75.5 344.8066,-47.5 200.9648,-47.5"/>
<text text-anchor="start" x="208.9648" y="-63.5" font-family="Helvetica,sans-Serif" font-size="10.00" fill="#000000">cx::meeting::MeetingSession</text>
<text text-anchor="middle" x="272.8857" y="-53.5" font-family="Helvetica,sans-Serif" font-size="10.00" fill="#000000">Proxy::broadcast</text>
</a>
</g>
</g>
<!-- Node138&#45;&gt;Node145 -->
<g id="edge7" class="edge">
<title>Node138&#45;&gt;Node145</title>
<path fill="none" stroke="#191970" d="M425.9179,-135.3613C404.7387,-120.1453 373.9866,-99.5503 344.8066,-85.5 337.2163,-81.8452 328.9261,-78.5178 320.7603,-75.5825"/>
<polygon fill="#191970" stroke="#191970" points="423.9524,-138.2595 434.0977,-141.313 428.0709,-132.5993 423.9524,-138.2595"/>
</g>
<!-- Node146 -->
<g id="node9" class="node">
<title>Node146</title>
<g id="a_node9"><a xlink:href="classcx_1_1meeting_1_1_meeting_session_proxy.html#a2d7c6fbe3432e84660062f5791d82ce2" target="_top" xlink:title=" ">
<polygon fill="none" stroke="#000000" points="200.9648,-.5 200.9648,-28.5 344.8066,-28.5 344.8066,-.5 200.9648,-.5"/>
<text text-anchor="start" x="208.9648" y="-16.5" font-family="Helvetica,sans-Serif" font-size="10.00" fill="#000000">cx::meeting::MeetingSession</text>
<text text-anchor="middle" x="272.8857" y="-6.5" font-family="Helvetica,sans-Serif" font-size="10.00" fill="#000000">Proxy::rt</text>
</a>
</g>
</g>
<!-- Node138&#45;&gt;Node146 -->
<g id="edge8" class="edge">
<title>Node138&#45;&gt;Node146</title>
<path fill="none" stroke="#191970" d="M437.6644,-133.3045C418.8243,-107.1316 384.2127,-63.976 344.8066,-38.5 338.8374,-34.6409 332.1863,-31.3419 325.4067,-28.5386"/>
<polygon fill="#191970" stroke="#191970" points="434.8078,-135.3269 443.4332,-141.4794 440.5271,-131.2909 434.8078,-135.3269"/>
</g>
<!-- Node143 -->
<g id="node6" class="node">
<title>Node143</title>
<g id="a_node6"><a xlink:href="classcx_1_1meeting_1_1_meeting_session_proxy.html#acc7d95de37e5926ddd538a45ebfdd8d8" target="_top" xlink:title=" ">
<polygon fill="none" stroke="#000000" points="0,-141.5 0,-169.5 164.9648,-169.5 164.9648,-141.5 0,-141.5"/>
<text text-anchor="start" x="8" y="-157.5" font-family="Helvetica,sans-Serif" font-size="10.00" fill="#000000">cx::meeting::MeetingSession</text>
<text text-anchor="middle" x="82.4824" y="-147.5" font-family="Helvetica,sans-Serif" font-size="10.00" fill="#000000">Proxy::getActiveSpeakerManager</text>
</a>
</g>
</g>
<!-- Node142&#45;&gt;Node143 -->
<g id="edge5" class="edge">
<title>Node142&#45;&gt;Node143</title>
<path fill="none" stroke="#191970" d="M190.6593,-155.5C182.1898,-155.5 173.5808,-155.5 165.107,-155.5"/>
<polygon fill="#191970" stroke="#191970" points="190.9024,-159.0001 200.9024,-155.5 190.9024,-152.0001 190.9024,-159.0001"/>
</g>
</g>
</svg>
        <g id="navigator" transform="translate(0 0)" fill="#404254">
                <rect fill="#f2f5e9" fill-opacity="0.5" stroke="#606060" stroke-width=".5" x="0" y="0" width="60" height="60"/>
                <use id="zoomplus" xlink:href="#zoomPlus" x="17" y="9" onmousedown="handleZoom(evt,'in')"/>
                <use id="zoomminus" xlink:href="#zoomMin" x="42" y="9" onmousedown="handleZoom(evt,'out')"/>
                <use id="reset" xlink:href="#resetDef" x="30" y="36" onmousedown="handleReset()"/>
                <g id="arrowUp" xlink:href="#dirArrow" transform="translate(30 24)" onmousedown="handlePan(0,-1)">
                  <use xlink:href="#rim" fill="#404040">
                        <set attributeName="fill" to="#808080" begin="arrowUp.mouseover" end="arrowUp.mouseout"/>
                  </use>
                  <path fill="none" stroke="white" stroke-width="1.5" d="M0,-3.0v7 M-2.5,-0.5L0,-3.0L2.5,-0.5"/>
                </g>
                <g id="arrowRight" xlink:href="#dirArrow" transform="rotate(90) translate(36 -43)" onmousedown="handlePan(1,0)">
                  <use xlink:href="#rim" fill="#404040">
                        <set attributeName="fill" to="#808080" begin="arrowRight.mouseover" end="arrowRight.mouseout"/>
                  </use>
                  <path fill="none" stroke="white" stroke-width="1.5" d="M0,-3.0v7 M-2.5,-0.5L0,-3.0L2.5,-0.5"/>
                </g>
                <g id="arrowDown" xlink:href="#dirArrow" transform="rotate(180) translate(-30 -48)" onmousedown="handlePan(0,1)">
                  <use xlink:href="#rim" fill="#404040">
                        <set attributeName="fill" to="#808080" begin="arrowDown.mouseover" end="arrowDown.mouseout"/>
                  </use>
                  <path fill="none" stroke="white" stroke-width="1.5" d="M0,-3.0v7 M-2.5,-0.5L0,-3.0L2.5,-0.5"/>
                </g>
                <g id="arrowLeft" xlink:href="#dirArrow" transform="rotate(270) translate(-36 17)" onmousedown="handlePan(-1,0)">
                  <use xlink:href="#rim" fill="#404040">
                        <set attributeName="fill" to="#808080" begin="arrowLeft.mouseover" end="arrowLeft.mouseout"/>
                  </use>
                  <path fill="none" stroke="white" stroke-width="1.5" d="M0,-3.0v7 M-2.5,-0.5L0,-3.0L2.5,-0.5"/>
                </g>
        </g>
        <svg viewBox="0 0 15 15" width="100%" height="30px" preserveAspectRatio="xMaxYMin meet">
         <g id="arrow_out" transform="scale(0.3 0.3)">
          <a xlink:href="classcx_1_1meeting_1_1_meeting_session_proxy_a81e0a34d4a76c794a8a2a511bc7f2870_icgraph_org.svg" target="_base">
           <rect id="button" ry="5" rx="5" y="6" x="6" height="38" width="38"
                fill="#f2f5e9" fill-opacity="0.5" stroke="#606060" stroke-width="1.0"/>
           <path id="arrow"
             d="M 11.500037,31.436501 C 11.940474,20.09759 22.043105,11.32322 32.158766,21.979434 L 37.068811,17.246167 C 37.068811,17.246167 37.088388,32 37.088388,32 L 22.160133,31.978069 C 22.160133,31.978069 26.997745,27.140456 26.997745,27.140456 C 18.528582,18.264221 13.291696,25.230495 11.500037,31.436501 z"
             style="fill:#404040;"/>
          </a>
         </g>
        </svg>
</svg>
