<?xml version="1.0" encoding="UTF-8" standalone="no"?>
<!DOCTYPE svg PUBLIC "-//W3C//DTD SVG 1.1//EN"
 "http://www.w3.org/Graphics/SVG/1.1/DTD/svg11.dtd">
<!-- Generated by graphviz version 2.40.1 (20161225.0304)
 -->
<!-- Title: fs::MeetingClient::getClientRole Pages: 1 -->
<svg width="236pt" height="84pt"
 viewBox="0.00 0.00 236.07 84.00" xmlns="http://www.w3.org/2000/svg" xmlns:xlink="http://www.w3.org/1999/xlink">
<g id="graph0" class="graph" transform="scale(1 1) rotate(0) translate(4 80)">
<title>fs::MeetingClient::getClientRole</title>
<!-- Node71 -->
<g id="node1" class="node">
<title>Node71</title>
<g id="a_node1"><a xlink:title=" ">
<polygon fill="#bfbfbf" stroke="#000000" points="132.0342,-23.5 132.0342,-51.5 228.0684,-51.5 228.0684,-23.5 132.0342,-23.5"/>
<text text-anchor="start" x="140.0342" y="-39.5" font-family="Helvetica,sans-Serif" font-size="10.00" fill="#000000">fs::MeetingClient::</text>
<text text-anchor="middle" x="180.0513" y="-29.5" font-family="Helvetica,sans-Serif" font-size="10.00" fill="#000000">getClientRole</text>
</a>
</g>
</g>
<!-- Node72 -->
<g id="node2" class="node">
<title>Node72</title>
<g id="a_node2"><a xlink:href="classfs_1_1_meeting_client.html#aebfd0a8a13ca9633fd784a7df6e87772" target="_top" xlink:title=" ">
<polygon fill="none" stroke="#000000" points="0,-47.5 0,-75.5 96.0342,-75.5 96.0342,-47.5 0,-47.5"/>
<text text-anchor="start" x="8" y="-63.5" font-family="Helvetica,sans-Serif" font-size="10.00" fill="#000000">fs::MeetingClient::</text>
<text text-anchor="middle" x="48.0171" y="-53.5" font-family="Helvetica,sans-Serif" font-size="10.00" fill="#000000">setModerator</text>
</a>
</g>
</g>
<!-- Node71&#45;&gt;Node72 -->
<g id="edge1" class="edge">
<title>Node71&#45;&gt;Node72</title>
<path fill="none" stroke="#191970" d="M122.0247,-48.0476C113.4158,-49.6124 104.623,-51.2107 96.2435,-52.7338"/>
<polygon fill="#191970" stroke="#191970" points="122.7976,-51.4645 132.0104,-46.2324 121.5456,-44.5774 122.7976,-51.4645"/>
</g>
<!-- Node73 -->
<g id="node3" class="node">
<title>Node73</title>
<g id="a_node3"><a xlink:href="classfs_1_1_meeting_client.html#a3b806b32577813a4f4f020a4e4f1bbd9" target="_top" xlink:title=" ">
<polygon fill="none" stroke="#000000" points="0,-.5 0,-28.5 96.0342,-28.5 96.0342,-.5 0,-.5"/>
<text text-anchor="start" x="8" y="-16.5" font-family="Helvetica,sans-Serif" font-size="10.00" fill="#000000">fs::MeetingClient::</text>
<text text-anchor="middle" x="48.0171" y="-6.5" font-family="Helvetica,sans-Serif" font-size="10.00" fill="#000000">stopVideo</text>
</a>
</g>
</g>
<!-- Node71&#45;&gt;Node73 -->
<g id="edge2" class="edge">
<title>Node71&#45;&gt;Node73</title>
<path fill="none" stroke="#191970" d="M122.0247,-27.3919C113.4158,-25.8923 104.623,-24.3606 96.2435,-22.9009"/>
<polygon fill="#191970" stroke="#191970" points="121.5581,-30.8633 132.0104,-29.1314 122.7594,-23.9671 121.5581,-30.8633"/>
</g>
</g>
</svg>
