<?xml version="1.0" encoding="UTF-8" standalone="no"?>
<!DOCTYPE svg PUBLIC "-//W3C//DTD SVG 1.1//EN"
 "http://www.w3.org/Graphics/SVG/1.1/DTD/svg11.dtd">
<!-- Generated by graphviz version 2.40.1 (20161225.0304)
 -->
<!-- Title: fs::IActiveSpeakerNotificationsDelegate Pages: 1 -->
<svg width="164pt" height="194pt"
 viewBox="0.00 0.00 164.06 194.00" xmlns="http://www.w3.org/2000/svg" xmlns:xlink="http://www.w3.org/1999/xlink">
<g id="graph0" class="graph" transform="scale(1 1) rotate(0) translate(4 190)">
<title>fs::IActiveSpeakerNotificationsDelegate</title>
<!-- Node6 -->
<g id="node1" class="node">
<title>Node6</title>
<g id="a_node1"><a xlink:title=" ">
<polygon fill="#bfbfbf" stroke="#000000" points="1.9409,-.5 1.9409,-74.5 154.1226,-74.5 154.1226,-.5 1.9409,-.5"/>
<text text-anchor="start" x="9.9409" y="-62.5" font-family="Helvetica,sans-Serif" font-size="10.00" fill="#000000">fs::IActiveSpeakerNotifications</text>
<text text-anchor="middle" x="78.0317" y="-52.5" font-family="Helvetica,sans-Serif" font-size="10.00" fill="#000000">Delegate</text>
<polyline fill="none" stroke="#000000" points="1.9409,-46.5 154.1226,-46.5 "/>
<text text-anchor="middle" x="78.0317" y="-34.5" font-family="Helvetica,sans-Serif" font-size="10.00" fill="#000000"> </text>
<polyline fill="none" stroke="#000000" points="1.9409,-28.5 154.1226,-28.5 "/>
<text text-anchor="start" x="9.9409" y="-16.5" font-family="Helvetica,sans-Serif" font-size="10.00" fill="#000000">+ ~IActiveSpeakerNotifications</text>
<text text-anchor="start" x="9.9409" y="-6.5" font-family="Helvetica,sans-Serif" font-size="10.00" fill="#000000">Delegate()</text>
</a>
</g>
</g>
<!-- Node7 -->
<g id="node2" class="node">
<title>Node7</title>
<g id="a_node2"><a xlink:href="classfs_1_1_active_speaker_notifications.html" target="_top" xlink:title=" ">
<polygon fill="none" stroke="#000000" points="0,-111.5 0,-185.5 156.0635,-185.5 156.0635,-111.5 0,-111.5"/>
<text text-anchor="middle" x="78.0317" y="-173.5" font-family="Helvetica,sans-Serif" font-size="10.00" fill="#000000">fs::ActiveSpeakerNotifications</text>
<polyline fill="none" stroke="#000000" points="0,-167.5 156.0635,-167.5 "/>
<text text-anchor="middle" x="78.0317" y="-155.5" font-family="Helvetica,sans-Serif" font-size="10.00" fill="#000000"> </text>
<polyline fill="none" stroke="#000000" points="0,-149.5 156.0635,-149.5 "/>
<text text-anchor="start" x="8" y="-137.5" font-family="Helvetica,sans-Serif" font-size="10.00" fill="#000000">+ ~ActiveSpeakerNotifications()</text>
<text text-anchor="start" x="8" y="-127.5" font-family="Helvetica,sans-Serif" font-size="10.00" fill="#000000">+ ABSTRACT_METHOD()</text>
<text text-anchor="start" x="8" y="-117.5" font-family="Helvetica,sans-Serif" font-size="10.00" fill="#000000">+ ABSTRACT_METHOD()</text>
</a>
</g>
</g>
<!-- Node7&#45;&gt;Node6 -->
<g id="edge1" class="edge">
<title>Node7&#45;&gt;Node6</title>
<path fill="none" stroke="#191970" d="M78.0317,-101.1104C78.0317,-92.336 78.0317,-83.2851 78.0317,-74.8608"/>
<polygon fill="none" stroke="#191970" points="74.5318,-101.2298 78.0317,-111.2298 81.5318,-101.2299 74.5318,-101.2298"/>
</g>
</g>
</svg>
