<?xml version="1.0" encoding="UTF-8" standalone="no"?>
<!DOCTYPE svg PUBLIC "-//W3C//DTD SVG 1.1//EN"
 "http://www.w3.org/Graphics/SVG/1.1/DTD/svg11.dtd">
<!-- Generated by graphviz version 2.40.1 (20161225.0304)
 -->
<!-- Title: fs::FSReconnectCtrlPkt Pages: 1 -->
<svg width="153pt" height="527pt"
 viewBox="0.00 0.00 153.49 527.00" xmlns="http://www.w3.org/2000/svg" xmlns:xlink="http://www.w3.org/1999/xlink">
<g id="graph0" class="graph" transform="scale(1 1) rotate(0) translate(4 523)">
<title>fs::FSReconnectCtrlPkt</title>
<!-- Node2 -->
<g id="node1" class="node">
<title>Node2</title>
<g id="a_node1"><a xlink:title=" ">
<polygon fill="#bfbfbf" stroke="#000000" points="11.814,-.5 11.814,-134.5 133.6782,-134.5 133.6782,-.5 11.814,-.5"/>
<text text-anchor="middle" x="72.7461" y="-122.5" font-family="Helvetica,sans-Serif" font-size="10.00" fill="#000000">fs::FSReconnectCtrlPkt</text>
<polyline fill="none" stroke="#000000" points="11.814,-116.5 133.6782,-116.5 "/>
<text text-anchor="middle" x="72.7461" y="-104.5" font-family="Helvetica,sans-Serif" font-size="10.00" fill="#000000"> </text>
<polyline fill="none" stroke="#000000" points="11.814,-98.5 133.6782,-98.5 "/>
<text text-anchor="start" x="19.814" y="-86.5" font-family="Helvetica,sans-Serif" font-size="10.00" fill="#000000">+ FSReconnectCtrlPkt()</text>
<text text-anchor="start" x="19.814" y="-76.5" font-family="Helvetica,sans-Serif" font-size="10.00" fill="#000000">+ requestID()</text>
<text text-anchor="start" x="19.814" y="-66.5" font-family="Helvetica,sans-Serif" font-size="10.00" fill="#000000">+ setRequestID()</text>
<text text-anchor="start" x="19.814" y="-56.5" font-family="Helvetica,sans-Serif" font-size="10.00" fill="#000000">+ senderID()</text>
<text text-anchor="start" x="19.814" y="-46.5" font-family="Helvetica,sans-Serif" font-size="10.00" fill="#000000">+ setSenderID()</text>
<text text-anchor="start" x="19.814" y="-36.5" font-family="Helvetica,sans-Serif" font-size="10.00" fill="#000000">+ ctrlType()</text>
<text text-anchor="start" x="19.814" y="-26.5" font-family="Helvetica,sans-Serif" font-size="10.00" fill="#000000">+ setCtrlType()</text>
<text text-anchor="start" x="19.814" y="-16.5" font-family="Helvetica,sans-Serif" font-size="10.00" fill="#000000">+ rcptID()</text>
<text text-anchor="start" x="19.814" y="-6.5" font-family="Helvetica,sans-Serif" font-size="10.00" fill="#000000">+ setRcptID()</text>
</a>
</g>
</g>
<!-- Node3 -->
<g id="node2" class="node">
<title>Node3</title>
<g id="a_node2"><a xlink:href="classfs_1_1_f_s_packet.html" target="_top" xlink:title=" ">
<polygon fill="none" stroke="#000000" points="32.5122,-172.5 32.5122,-286.5 112.98,-286.5 112.98,-172.5 32.5122,-172.5"/>
<text text-anchor="middle" x="72.7461" y="-274.5" font-family="Helvetica,sans-Serif" font-size="10.00" fill="#000000">fs::FSPacket</text>
<polyline fill="none" stroke="#000000" points="32.5122,-268.5 112.98,-268.5 "/>
<text text-anchor="start" x="40.5122" y="-256.5" font-family="Helvetica,sans-Serif" font-size="10.00" fill="#000000"># m_iType</text>
<polyline fill="none" stroke="#000000" points="32.5122,-250.5 112.98,-250.5 "/>
<text text-anchor="start" x="40.5122" y="-238.5" font-family="Helvetica,sans-Serif" font-size="10.00" fill="#000000">+ FSPacket()</text>
<text text-anchor="start" x="40.5122" y="-228.5" font-family="Helvetica,sans-Serif" font-size="10.00" fill="#000000">+ ~FSPacket()</text>
<text text-anchor="start" x="40.5122" y="-218.5" font-family="Helvetica,sans-Serif" font-size="10.00" fill="#000000">+ type()</text>
<text text-anchor="start" x="40.5122" y="-208.5" font-family="Helvetica,sans-Serif" font-size="10.00" fill="#000000">+ serialize()</text>
<text text-anchor="start" x="40.5122" y="-198.5" font-family="Helvetica,sans-Serif" font-size="10.00" fill="#000000">+ entry()</text>
<text text-anchor="start" x="40.5122" y="-188.5" font-family="Helvetica,sans-Serif" font-size="10.00" fill="#000000">+ setEntry()</text>
<text text-anchor="start" x="40.5122" y="-178.5" font-family="Helvetica,sans-Serif" font-size="10.00" fill="#000000">+ deserialize()</text>
</a>
</g>
</g>
<!-- Node3&#45;&gt;Node2 -->
<g id="edge1" class="edge">
<title>Node3&#45;&gt;Node2</title>
<path fill="none" stroke="#191970" d="M72.7461,-162.2188C72.7461,-153.1021 72.7461,-143.7465 72.7461,-134.6323"/>
<polygon fill="none" stroke="#191970" points="69.2462,-162.3848 72.7461,-172.3849 76.2462,-162.3849 69.2462,-162.3848"/>
</g>
<!-- Node4 -->
<g id="node3" class="node">
<title>Node4</title>
<g id="a_node3"><a xlink:title=" ">
<polygon fill="none" stroke="#bfbfbf" points="0,-333.5 0,-387.5 145.4922,-387.5 145.4922,-333.5 0,-333.5"/>
<text text-anchor="middle" x="72.7461" y="-375.5" font-family="Helvetica,sans-Serif" font-size="10.00" fill="#000000">std::vector&lt; FSPktStream * &gt;</text>
<polyline fill="none" stroke="#bfbfbf" points="0,-369.5 145.4922,-369.5 "/>
<text text-anchor="middle" x="72.7461" y="-357.5" font-family="Helvetica,sans-Serif" font-size="10.00" fill="#000000"> </text>
<polyline fill="none" stroke="#bfbfbf" points="0,-351.5 145.4922,-351.5 "/>
<text text-anchor="middle" x="72.7461" y="-339.5" font-family="Helvetica,sans-Serif" font-size="10.00" fill="#000000"> </text>
</a>
</g>
</g>
<!-- Node4&#45;&gt;Node3 -->
<g id="edge2" class="edge">
<title>Node4&#45;&gt;Node3</title>
<path fill="none" stroke="#404040" d="M72.7461,-333.3567C72.7461,-323.1832 72.7461,-311.1036 72.7461,-298.8438"/>
<polygon fill="none" stroke="#404040" points="72.7462,-298.5878 68.7461,-292.5879 72.7461,-286.5878 76.7461,-292.5878 72.7462,-298.5878"/>
<text text-anchor="middle" x="101.9233" y="-307" font-family="Helvetica,sans-Serif" font-size="10.00" fill="#000000"> #m_xEntries</text>
</g>
<!-- Node5 -->
<g id="node4" class="node">
<title>Node5</title>
<g id="a_node4"><a xlink:href="classfs_1_1_f_s_pkt_stream.html" target="_top" xlink:title=" ">
<polygon fill="none" stroke="#000000" points="24.458,-434.5 24.458,-518.5 121.0342,-518.5 121.0342,-434.5 24.458,-434.5"/>
<text text-anchor="middle" x="72.7461" y="-506.5" font-family="Helvetica,sans-Serif" font-size="10.00" fill="#000000">fs::FSPktStream</text>
<polyline fill="none" stroke="#000000" points="24.458,-500.5 121.0342,-500.5 "/>
<text text-anchor="start" x="32.458" y="-488.5" font-family="Helvetica,sans-Serif" font-size="10.00" fill="#000000"># m_pxObj</text>
<polyline fill="none" stroke="#000000" points="24.458,-482.5 121.0342,-482.5 "/>
<text text-anchor="start" x="32.458" y="-470.5" font-family="Helvetica,sans-Serif" font-size="10.00" fill="#000000">+ ~FSPktStream()</text>
<text text-anchor="start" x="32.458" y="-460.5" font-family="Helvetica,sans-Serif" font-size="10.00" fill="#000000">+ read()</text>
<text text-anchor="start" x="32.458" y="-450.5" font-family="Helvetica,sans-Serif" font-size="10.00" fill="#000000">+ write()</text>
<text text-anchor="start" x="32.458" y="-440.5" font-family="Helvetica,sans-Serif" font-size="10.00" fill="#000000">+ object()</text>
</a>
</g>
</g>
<!-- Node5&#45;&gt;Node4 -->
<g id="edge3" class="edge">
<title>Node5&#45;&gt;Node4</title>
<path fill="none" stroke="#404040" d="M72.7461,-434.2932C72.7461,-422.9972 72.7461,-410.8361 72.7461,-399.7094"/>
<polygon fill="none" stroke="#404040" points="72.7462,-399.6877 68.7461,-393.6877 72.7461,-387.6877 76.7461,-393.6877 72.7462,-399.6877"/>
<text text-anchor="middle" x="97.3433" y="-408" font-family="Helvetica,sans-Serif" font-size="10.00" fill="#000000"> +elements</text>
</g>
</g>
</svg>
