<?xml version="1.0" encoding="UTF-8" standalone="no"?>
<!DOCTYPE svg PUBLIC "-//W3C//DTD SVG 1.1//EN"
 "http://www.w3.org/Graphics/SVG/1.1/DTD/svg11.dtd">
<!-- Generated by graphviz version 2.40.1 (20161225.0304)
 -->
<!-- Title: cx::capture::ScreenCaptureListener Pages: 1 -->
<svg width="146pt" height="174pt"
 viewBox="0.00 0.00 145.73 174.00" xmlns="http://www.w3.org/2000/svg" xmlns:xlink="http://www.w3.org/1999/xlink">
<g id="graph0" class="graph" transform="scale(1 1) rotate(0) translate(4 170)">
<title>cx::capture::ScreenCaptureListener</title>
<!-- Node0 -->
<g id="node1" class="node">
<title>Node0</title>
<g id="a_node1"><a xlink:title=" ">
<polygon fill="#bfbfbf" stroke="#000000" points="0,-.5 0,-64.5 137.7285,-64.5 137.7285,-.5 0,-.5"/>
<text text-anchor="start" x="8" y="-52.5" font-family="Helvetica,sans-Serif" font-size="10.00" fill="#000000">cx::capture::ScreenCapture</text>
<text text-anchor="middle" x="68.8643" y="-42.5" font-family="Helvetica,sans-Serif" font-size="10.00" fill="#000000">Listener</text>
<polyline fill="none" stroke="#000000" points="0,-36.5 137.7285,-36.5 "/>
<text text-anchor="middle" x="68.8643" y="-24.5" font-family="Helvetica,sans-Serif" font-size="10.00" fill="#000000"> </text>
<polyline fill="none" stroke="#000000" points="0,-18.5 137.7285,-18.5 "/>
<text text-anchor="start" x="8" y="-6.5" font-family="Helvetica,sans-Serif" font-size="10.00" fill="#000000">+ setSharingConfig()</text>
</a>
</g>
</g>
<!-- Node1 -->
<g id="node2" class="node">
<title>Node1</title>
<g id="a_node2"><a xlink:title=" ">
<polygon fill="none" stroke="#bfbfbf" points="2.5024,-101.5 2.5024,-165.5 135.2261,-165.5 135.2261,-101.5 2.5024,-101.5"/>
<text text-anchor="start" x="10.5024" y="-153.5" font-family="Helvetica,sans-Serif" font-size="10.00" fill="#000000">FSDesktopCaptureThread</text>
<text text-anchor="middle" x="68.8643" y="-143.5" font-family="Helvetica,sans-Serif" font-size="10.00" fill="#000000">::Listener</text>
<polyline fill="none" stroke="#bfbfbf" points="2.5024,-137.5 135.2261,-137.5 "/>
<text text-anchor="middle" x="68.8643" y="-125.5" font-family="Helvetica,sans-Serif" font-size="10.00" fill="#000000"> </text>
<polyline fill="none" stroke="#bfbfbf" points="2.5024,-119.5 135.2261,-119.5 "/>
<text text-anchor="middle" x="68.8643" y="-107.5" font-family="Helvetica,sans-Serif" font-size="10.00" fill="#000000"> </text>
</a>
</g>
</g>
<!-- Node1&#45;&gt;Node0 -->
<g id="edge1" class="edge">
<title>Node1&#45;&gt;Node0</title>
<path fill="none" stroke="#191970" d="M68.8643,-91.1361C68.8643,-82.3176 68.8643,-73.1592 68.8643,-64.7749"/>
<polygon fill="none" stroke="#191970" points="65.3644,-91.2652 68.8643,-101.2653 72.3644,-91.2653 65.3644,-91.2652"/>
</g>
</g>
</svg>
