<?xml version="1.0" encoding="UTF-8" standalone="no"?>
<!DOCTYPE svg PUBLIC "-//W3C//DTD SVG 1.1//EN"
 "http://www.w3.org/Graphics/SVG/1.1/DTD/svg11.dtd">
<!-- Generated by graphviz version 2.40.1 (20161225.0304)
 -->
<!-- Title: UploadData::totalSize Pages: 1 -->
<svg width="283pt" height="84pt"
 viewBox="0.00 0.00 283.32 84.00" xmlns="http://www.w3.org/2000/svg" xmlns:xlink="http://www.w3.org/1999/xlink">
<g id="graph0" class="graph" transform="scale(1 1) rotate(0) translate(4 80)">
<title>UploadData::totalSize</title>
<!-- Node38 -->
<g id="node1" class="node">
<title>Node38</title>
<g id="a_node1"><a xlink:title=" ">
<polygon fill="#bfbfbf" stroke="#000000" points="162.6006,-28.5 162.6006,-46.5 275.3242,-46.5 275.3242,-28.5 162.6006,-28.5"/>
<text text-anchor="middle" x="218.9624" y="-34.5" font-family="Helvetica,sans-Serif" font-size="10.00" fill="#000000">UploadData::totalSize</text>
</a>
</g>
</g>
<!-- Node39 -->
<g id="node2" class="node">
<title>Node39</title>
<g id="a_node2"><a xlink:href="classcx_1_1_h_t_t_p_upload_request.html#a3341ed2ed88b96a62dca8dd47bbee981" target="_top" xlink:title=" ">
<polygon fill="none" stroke="#000000" points="0,-47.5 0,-75.5 126.6006,-75.5 126.6006,-47.5 0,-47.5"/>
<text text-anchor="start" x="8" y="-63.5" font-family="Helvetica,sans-Serif" font-size="10.00" fill="#000000">cx::HTTPUploadRequest</text>
<text text-anchor="middle" x="63.3003" y="-53.5" font-family="Helvetica,sans-Serif" font-size="10.00" fill="#000000">::onAllBuffersWriten</text>
</a>
</g>
</g>
<!-- Node38&#45;&gt;Node39 -->
<g id="edge1" class="edge">
<title>Node38&#45;&gt;Node39</title>
<path fill="none" stroke="#191970" d="M152.4343,-47.7573C143.9157,-49.0707 135.2125,-50.4126 126.7447,-51.7181"/>
<polygon fill="#191970" stroke="#191970" points="152.9746,-51.2155 162.3245,-46.2324 151.9079,-44.2972 152.9746,-51.2155"/>
</g>
<!-- Node40 -->
<g id="node3" class="node">
<title>Node40</title>
<g id="a_node3"><a xlink:href="classcx_1_1_h_t_t_p_upload_request.html#ac6f778fedb5b0e87fb8e2eff14191554" target="_top" xlink:title=" ">
<polygon fill="none" stroke="#000000" points="0,-.5 0,-28.5 126.6006,-28.5 126.6006,-.5 0,-.5"/>
<text text-anchor="start" x="8" y="-16.5" font-family="Helvetica,sans-Serif" font-size="10.00" fill="#000000">cx::HTTPUploadRequest</text>
<text text-anchor="middle" x="63.3003" y="-6.5" font-family="Helvetica,sans-Serif" font-size="10.00" fill="#000000">::generateRequestHdr</text>
</a>
</g>
</g>
<!-- Node38&#45;&gt;Node40 -->
<g id="edge2" class="edge">
<title>Node38&#45;&gt;Node40</title>
<path fill="none" stroke="#191970" d="M152.1565,-27.629C143.7265,-26.3835 135.1204,-25.1119 126.7447,-23.8743"/>
<polygon fill="#191970" stroke="#191970" points="151.9203,-31.132 162.3245,-29.1314 152.9435,-24.2072 151.9203,-31.132"/>
</g>
</g>
</svg>
