<?xml version="1.0" encoding="UTF-8" standalone="no"?>
<!DOCTYPE svg PUBLIC "-//W3C//DTD SVG 1.1//EN"
 "http://www.w3.org/Graphics/SVG/1.1/DTD/svg11.dtd">
<!-- Generated by graphviz version 2.40.1 (20161225.0304)
 -->
<!-- Title: fs::MeetingClientSession::sendBroadcastMessage Pages: 1 -->
<svg width="299pt" height="121pt"
 viewBox="0.00 0.00 298.90 121.00" xmlns="http://www.w3.org/2000/svg" xmlns:xlink="http://www.w3.org/1999/xlink">
<g id="graph0" class="graph" transform="scale(1 1) rotate(0) translate(4 117)">
<title>fs::MeetingClientSession::sendBroadcastMessage</title>
<!-- Node814 -->
<g id="node1" class="node">
<title>Node814</title>
<g id="a_node1"><a xlink:title=" ">
<polygon fill="#bfbfbf" stroke="#000000" points="0,-42.5 0,-70.5 128.8418,-70.5 128.8418,-42.5 0,-42.5"/>
<text text-anchor="start" x="8" y="-58.5" font-family="Helvetica,sans-Serif" font-size="10.00" fill="#000000">fs::MeetingClientSession</text>
<text text-anchor="middle" x="64.4209" y="-48.5" font-family="Helvetica,sans-Serif" font-size="10.00" fill="#000000">::sendBroadcastMessage</text>
</a>
</g>
</g>
<!-- Node815 -->
<g id="node2" class="node">
<title>Node815</title>
<g id="a_node2"><a xlink:href="classfs_1_1_meeting_client_session.html#ad2db541bceb2f60d39d34b3e443801d2" target="_top" xlink:title=" ">
<polygon fill="none" stroke="#000000" points="164.8418,-84.5 164.8418,-112.5 290.8955,-112.5 290.8955,-84.5 164.8418,-84.5"/>
<text text-anchor="start" x="172.8418" y="-100.5" font-family="Helvetica,sans-Serif" font-size="10.00" fill="#000000">fs::MeetingClientSession</text>
<text text-anchor="middle" x="227.8687" y="-90.5" font-family="Helvetica,sans-Serif" font-size="10.00" fill="#000000">::isInitialized</text>
</a>
</g>
</g>
<!-- Node814&#45;&gt;Node815 -->
<g id="edge1" class="edge">
<title>Node814&#45;&gt;Node815</title>
<path fill="none" stroke="#191970" d="M119.3013,-70.6022C133.3921,-74.223 148.6807,-78.1516 163.2152,-81.8865"/>
<polygon fill="#191970" stroke="#191970" points="162.5766,-85.336 173.1331,-84.435 164.3188,-78.5563 162.5766,-85.336"/>
</g>
<!-- Node816 -->
<g id="node3" class="node">
<title>Node816</title>
<g id="a_node3"><a xlink:href="_meeting_client_session_8cxx.html#ab06e713e85f5d00e42ad86367c03f278" target="_top" xlink:title=" ">
<polygon fill="none" stroke="#000000" points="198.4648,-47.5 198.4648,-65.5 257.2725,-65.5 257.2725,-47.5 198.4648,-47.5"/>
<text text-anchor="middle" x="227.8687" y="-53.5" font-family="Helvetica,sans-Serif" font-size="10.00" fill="#000000">asio_post</text>
</a>
</g>
</g>
<!-- Node814&#45;&gt;Node816 -->
<g id="edge2" class="edge">
<title>Node814&#45;&gt;Node816</title>
<path fill="none" stroke="#191970" d="M129.0198,-56.5C149.0104,-56.5 170.4323,-56.5 188.2057,-56.5"/>
<polygon fill="#191970" stroke="#191970" points="188.2103,-60.0001 198.2103,-56.5 188.2102,-53.0001 188.2103,-60.0001"/>
</g>
<!-- Node817 -->
<g id="node4" class="node">
<title>Node817</title>
<g id="a_node4"><a xlink:href="classfs_1_1_meeting_client_session.html#a75e9c574fb9a84a95e9629dd91689dc0" target="_top" xlink:title=" ">
<polygon fill="none" stroke="#000000" points="164.8418,-.5 164.8418,-28.5 290.8955,-28.5 290.8955,-.5 164.8418,-.5"/>
<text text-anchor="start" x="172.8418" y="-16.5" font-family="Helvetica,sans-Serif" font-size="10.00" fill="#000000">fs::MeetingClientSession</text>
<text text-anchor="middle" x="227.8687" y="-6.5" font-family="Helvetica,sans-Serif" font-size="10.00" fill="#000000">::ioService</text>
</a>
</g>
</g>
<!-- Node814&#45;&gt;Node817 -->
<g id="edge3" class="edge">
<title>Node814&#45;&gt;Node817</title>
<path fill="none" stroke="#191970" d="M119.3013,-42.3978C133.3921,-38.777 148.6807,-34.8484 163.2152,-31.1135"/>
<polygon fill="#191970" stroke="#191970" points="164.3188,-34.4437 173.1331,-28.565 162.5766,-27.664 164.3188,-34.4437"/>
</g>
</g>
</svg>
