<?xml version="1.0" encoding="UTF-8" standalone="no"?>
<!DOCTYPE svg PUBLIC "-//W3C//DTD SVG 1.1//EN"
 "http://www.w3.org/Graphics/SVG/1.1/DTD/svg11.dtd">
<!-- Generated by graphviz version 2.40.1 (20161225.0304)
 -->
<!-- Title: fs::ThreadDescriptor::setIOServiceThreadFlag Pages: 1 -->
<svg width="388pt" height="37pt"
 viewBox="0.00 0.00 387.54 37.00" xmlns="http://www.w3.org/2000/svg" xmlns:xlink="http://www.w3.org/1999/xlink">
<g id="graph0" class="graph" transform="scale(1 1) rotate(0) translate(4 33)">
<title>fs::ThreadDescriptor::setIOServiceThreadFlag</title>
<!-- Node13 -->
<g id="node1" class="node">
<title>Node13</title>
<g id="a_node1"><a xlink:title=" ">
<polygon fill="#bfbfbf" stroke="#000000" points="249.6006,-.5 249.6006,-28.5 379.5361,-28.5 379.5361,-.5 249.6006,-.5"/>
<text text-anchor="start" x="257.6006" y="-16.5" font-family="Helvetica,sans-Serif" font-size="10.00" fill="#000000">fs::ThreadDescriptor</text>
<text text-anchor="middle" x="314.5684" y="-6.5" font-family="Helvetica,sans-Serif" font-size="10.00" fill="#000000">::setIOServiceThreadFlag</text>
</a>
</g>
</g>
<!-- Node14 -->
<g id="node2" class="node">
<title>Node14</title>
<g id="a_node2"><a xlink:href="classfs_1_1_i_o_service_controller.html#a1e7fbc06f1c9df1bee7ecddb342bda42" target="_top" xlink:title=" ">
<polygon fill="none" stroke="#000000" points="97.0146,-.5 97.0146,-28.5 213.6006,-28.5 213.6006,-.5 97.0146,-.5"/>
<text text-anchor="start" x="105.0146" y="-16.5" font-family="Helvetica,sans-Serif" font-size="10.00" fill="#000000">fs::IOServiceController</text>
<text text-anchor="middle" x="155.3076" y="-6.5" font-family="Helvetica,sans-Serif" font-size="10.00" fill="#000000">::start</text>
</a>
</g>
</g>
<!-- Node13&#45;&gt;Node14 -->
<g id="edge1" class="edge">
<title>Node13&#45;&gt;Node14</title>
<path fill="none" stroke="#191970" d="M239.3226,-14.5C230.7496,-14.5 222.1086,-14.5 213.7987,-14.5"/>
<polygon fill="#191970" stroke="#191970" points="239.3314,-18.0001 249.3314,-14.5 239.3314,-11.0001 239.3314,-18.0001"/>
</g>
<!-- Node15 -->
<g id="node3" class="node">
<title>Node15</title>
<g id="a_node3"><a xlink:href="namespacecx.html#abc15cdf86caae6e43ac9fe7bac397b1d" target="_top" xlink:title=" ">
<polygon fill="none" stroke="#000000" points="0,-5.5 0,-23.5 61.0146,-23.5 61.0146,-5.5 0,-5.5"/>
<text text-anchor="middle" x="30.5073" y="-11.5" font-family="Helvetica,sans-Serif" font-size="10.00" fill="#000000">cx::InitAPI</text>
</a>
</g>
</g>
<!-- Node14&#45;&gt;Node15 -->
<g id="edge2" class="edge">
<title>Node14&#45;&gt;Node15</title>
<path fill="none" stroke="#191970" d="M86.8236,-14.5C77.9031,-14.5 69.1501,-14.5 61.303,-14.5"/>
<polygon fill="#191970" stroke="#191970" points="86.9269,-18.0001 96.9269,-14.5 86.9268,-11.0001 86.9269,-18.0001"/>
</g>
</g>
</svg>
