<?xml version="1.0" encoding="UTF-8" standalone="no"?>
<!DOCTYPE svg PUBLIC "-//W3C//DTD SVG 1.1//EN"
 "http://www.w3.org/Graphics/SVG/1.1/DTD/svg11.dtd">
<!-- Generated by graphviz version 2.40.1 (20161225.0304)
 -->
<!-- Title: cx::web::APIv4Wrapper::getBroadcastResources Pages: 1 -->
<svg width="484pt" height="121pt"
 viewBox="0.00 0.00 484.26 121.00" xmlns="http://www.w3.org/2000/svg" xmlns:xlink="http://www.w3.org/1999/xlink">
<g id="graph0" class="graph" transform="scale(1 1) rotate(0) translate(4 117)">
<title>cx::web::APIv4Wrapper::getBroadcastResources</title>
<!-- Node12 -->
<g id="node1" class="node">
<title>Node12</title>
<g id="a_node1"><a xlink:title=" ">
<polygon fill="#bfbfbf" stroke="#000000" points="0,-42.5 0,-70.5 128.2803,-70.5 128.2803,-42.5 0,-42.5"/>
<text text-anchor="start" x="8" y="-58.5" font-family="Helvetica,sans-Serif" font-size="10.00" fill="#000000">cx::web::APIv4Wrapper</text>
<text text-anchor="middle" x="64.1401" y="-48.5" font-family="Helvetica,sans-Serif" font-size="10.00" fill="#000000">::getBroadcastResources</text>
</a>
</g>
</g>
<!-- Node13 -->
<g id="node2" class="node">
<title>Node13</title>
<g id="a_node2"><a xlink:href="classcx_1_1toolkit_1_1opt__value.html#ab100bba041da8f782c7588709b385ae9" target="_top" xlink:title=" ">
<polygon fill="none" stroke="#000000" points="180.1128,-84.5 180.1128,-112.5 286.7183,-112.5 286.7183,-84.5 180.1128,-84.5"/>
<text text-anchor="start" x="188.1128" y="-100.5" font-family="Helvetica,sans-Serif" font-size="10.00" fill="#000000">cx::toolkit::opt_value</text>
<text text-anchor="middle" x="233.4155" y="-90.5" font-family="Helvetica,sans-Serif" font-size="10.00" fill="#000000">::is_defined</text>
</a>
</g>
</g>
<!-- Node12&#45;&gt;Node13 -->
<g id="edge1" class="edge">
<title>Node12&#45;&gt;Node13</title>
<path fill="none" stroke="#191970" d="M120.9773,-70.6022C136.7261,-74.5098 153.9195,-78.7757 170.017,-82.7698"/>
<polygon fill="#191970" stroke="#191970" points="169.3271,-86.2047 179.8757,-85.2159 171.0129,-79.4107 169.3271,-86.2047"/>
</g>
<!-- Node14 -->
<g id="node3" class="node">
<title>Node14</title>
<g id="a_node3"><a xlink:href="classcx_1_1toolkit_1_1opt__value.html#a372ef35f73cb8a0de9ef24095273d513" target="_top" xlink:title=" ">
<polygon fill="none" stroke="#000000" points="170.3838,-47.5 170.3838,-65.5 296.4473,-65.5 296.4473,-47.5 170.3838,-47.5"/>
<text text-anchor="middle" x="233.4155" y="-53.5" font-family="Helvetica,sans-Serif" font-size="10.00" fill="#000000">cx::toolkit::opt_value::get</text>
</a>
</g>
</g>
<!-- Node12&#45;&gt;Node14 -->
<g id="edge2" class="edge">
<title>Node12&#45;&gt;Node14</title>
<path fill="none" stroke="#191970" d="M128.6188,-56.5C138.8496,-56.5 149.4976,-56.5 159.9165,-56.5"/>
<polygon fill="#191970" stroke="#191970" points="160.2351,-60.0001 170.2351,-56.5 160.235,-53.0001 160.2351,-60.0001"/>
</g>
<!-- Node15 -->
<g id="node4" class="node">
<title>Node15</title>
<g id="a_node4"><a xlink:href="classcx_1_1_h_t_t_p_request_container.html#a88443e3419255d1d2bb8503829c4bcaa" target="_top" xlink:title=" ">
<polygon fill="none" stroke="#000000" points="164.2803,-.5 164.2803,-28.5 302.5508,-28.5 302.5508,-.5 164.2803,-.5"/>
<text text-anchor="start" x="172.2803" y="-16.5" font-family="Helvetica,sans-Serif" font-size="10.00" fill="#000000">cx::HTTPRequestContainer</text>
<text text-anchor="middle" x="233.4155" y="-6.5" font-family="Helvetica,sans-Serif" font-size="10.00" fill="#000000">::request</text>
</a>
</g>
</g>
<!-- Node12&#45;&gt;Node15 -->
<g id="edge3" class="edge">
<title>Node12&#45;&gt;Node15</title>
<path fill="none" stroke="#191970" d="M120.9773,-42.3978C135.7108,-38.7421 151.7087,-34.7728 166.8909,-31.0059"/>
<polygon fill="#191970" stroke="#191970" points="167.8655,-34.3702 176.7284,-28.565 166.1798,-27.5762 167.8655,-34.3702"/>
</g>
<!-- Node16 -->
<g id="node5" class="node">
<title>Node16</title>
<g id="a_node5"><a xlink:href="structcx_1_1_h_t_t_p_request_1_1_request_params.html#aad683476ac9a2874f8a98a530d2b791b" target="_top" xlink:title=" ">
<polygon fill="none" stroke="#000000" points="338.5508,-.5 338.5508,-28.5 476.2646,-28.5 476.2646,-.5 338.5508,-.5"/>
<text text-anchor="start" x="346.5508" y="-16.5" font-family="Helvetica,sans-Serif" font-size="10.00" fill="#000000">cx::HTTPRequest::Request</text>
<text text-anchor="middle" x="407.4077" y="-6.5" font-family="Helvetica,sans-Serif" font-size="10.00" fill="#000000">Params::start</text>
</a>
</g>
</g>
<!-- Node15&#45;&gt;Node16 -->
<g id="edge4" class="edge">
<title>Node15&#45;&gt;Node16</title>
<path fill="none" stroke="#191970" d="M302.6818,-14.5C311.0361,-14.5 319.6182,-14.5 328.1021,-14.5"/>
<polygon fill="#191970" stroke="#191970" points="328.3798,-18.0001 338.3798,-14.5 328.3797,-11.0001 328.3798,-18.0001"/>
</g>
</g>
</svg>
