<?xml version="1.0" encoding="UTF-8" standalone="no"?>
<!DOCTYPE svg PUBLIC "-//W3C//DTD SVG 1.1//EN"
 "http://www.w3.org/Graphics/SVG/1.1/DTD/svg11.dtd">
<!-- Generated by graphviz version 2.40.1 (20161225.0304)
 -->
<!-- Title: UploadData Pages: 1 -->
<svg width="108pt" height="416pt"
 viewBox="0.00 0.00 108.19 416.00" xmlns="http://www.w3.org/2000/svg" xmlns:xlink="http://www.w3.org/1999/xlink">
<g id="graph0" class="graph" transform="scale(1 1) rotate(0) translate(4 412)">
<title>UploadData</title>
<!-- Node2 -->
<g id="node1" class="node">
<title>Node2</title>
<g id="a_node1"><a xlink:title=" ">
<polygon fill="#bfbfbf" stroke="#000000" points="0,-.5 0,-194.5 100.1943,-194.5 100.1943,-.5 0,-.5"/>
<text text-anchor="middle" x="50.0972" y="-182.5" font-family="Helvetica,sans-Serif" font-size="10.00" fill="#000000">UploadData</text>
<polyline fill="none" stroke="#000000" points="0,-176.5 100.1943,-176.5 "/>
<text text-anchor="start" x="8" y="-164.5" font-family="Helvetica,sans-Serif" font-size="10.00" fill="#000000"># m_file</text>
<text text-anchor="start" x="8" y="-154.5" font-family="Helvetica,sans-Serif" font-size="10.00" fill="#000000"># m_fileSize</text>
<text text-anchor="start" x="8" y="-144.5" font-family="Helvetica,sans-Serif" font-size="10.00" fill="#000000"># m_filePos</text>
<text text-anchor="start" x="8" y="-134.5" font-family="Helvetica,sans-Serif" font-size="10.00" fill="#000000"># m_isError</text>
<polyline fill="none" stroke="#000000" points="0,-128.5 100.1943,-128.5 "/>
<text text-anchor="start" x="8" y="-116.5" font-family="Helvetica,sans-Serif" font-size="10.00" fill="#000000">+ UploadData()</text>
<text text-anchor="start" x="8" y="-106.5" font-family="Helvetica,sans-Serif" font-size="10.00" fill="#000000">+ ~UploadData()</text>
<text text-anchor="start" x="8" y="-96.5" font-family="Helvetica,sans-Serif" font-size="10.00" fill="#000000">+ open()</text>
<text text-anchor="start" x="8" y="-86.5" font-family="Helvetica,sans-Serif" font-size="10.00" fill="#000000">+ init()</text>
<text text-anchor="start" x="8" y="-76.5" font-family="Helvetica,sans-Serif" font-size="10.00" fill="#000000">+ nextBuffer()</text>
<text text-anchor="start" x="8" y="-66.5" font-family="Helvetica,sans-Serif" font-size="10.00" fill="#000000">+ setFileInfo()</text>
<text text-anchor="start" x="8" y="-56.5" font-family="Helvetica,sans-Serif" font-size="10.00" fill="#000000">+ isHaveError()</text>
<text text-anchor="start" x="8" y="-46.5" font-family="Helvetica,sans-Serif" font-size="10.00" fill="#000000">+ totalSize()</text>
<text text-anchor="start" x="8" y="-36.5" font-family="Helvetica,sans-Serif" font-size="10.00" fill="#000000">+ fileSize()</text>
<text text-anchor="start" x="8" y="-26.5" font-family="Helvetica,sans-Serif" font-size="10.00" fill="#000000">+ filePos()</text>
<text text-anchor="start" x="8" y="-16.5" font-family="Helvetica,sans-Serif" font-size="10.00" fill="#000000">+ nameFromPath()</text>
<text text-anchor="start" x="8" y="-6.5" font-family="Helvetica,sans-Serif" font-size="10.00" fill="#000000"># readToBuffer()</text>
</a>
</g>
</g>
<!-- Node3 -->
<g id="node2" class="node">
<title>Node3</title>
<g id="a_node2"><a xlink:title="STL class.">
<polygon fill="none" stroke="#bfbfbf" points="20.4224,-251.5 20.4224,-305.5 79.772,-305.5 79.772,-251.5 20.4224,-251.5"/>
<text text-anchor="middle" x="50.0972" y="-293.5" font-family="Helvetica,sans-Serif" font-size="10.00" fill="#000000">std::string</text>
<polyline fill="none" stroke="#bfbfbf" points="20.4224,-287.5 79.772,-287.5 "/>
<text text-anchor="middle" x="50.0972" y="-275.5" font-family="Helvetica,sans-Serif" font-size="10.00" fill="#000000"> </text>
<polyline fill="none" stroke="#bfbfbf" points="20.4224,-269.5 79.772,-269.5 "/>
<text text-anchor="middle" x="50.0972" y="-257.5" font-family="Helvetica,sans-Serif" font-size="10.00" fill="#000000"> </text>
</a>
</g>
</g>
<!-- Node3&#45;&gt;Node2 -->
<g id="edge1" class="edge">
<title>Node3&#45;&gt;Node2</title>
<path fill="none" stroke="#404040" d="M50.0972,-251.4025C50.0972,-238.9433 50.0972,-223.2624 50.0972,-206.7081"/>
<polygon fill="none" stroke="#404040" points="50.0973,-206.5333 46.0972,-200.5333 50.0972,-194.5333 54.0972,-200.5332 50.0973,-206.5333"/>
<text text-anchor="middle" x="73.7202" y="-225" font-family="Helvetica,sans-Serif" font-size="10.00" fill="#000000"> #m_name</text>
<text text-anchor="middle" x="73.7202" y="-215" font-family="Helvetica,sans-Serif" font-size="10.00" fill="#000000">#m_path</text>
</g>
<!-- Node4 -->
<g id="node3" class="node">
<title>Node4</title>
<g id="a_node3"><a xlink:title="STL class.">
<polygon fill="none" stroke="#bfbfbf" points="3.0493,-343.5 3.0493,-407.5 97.145,-407.5 97.145,-343.5 3.0493,-343.5"/>
<text text-anchor="start" x="11.0493" y="-395.5" font-family="Helvetica,sans-Serif" font-size="10.00" fill="#000000">std::basic_string&lt;</text>
<text text-anchor="middle" x="50.0972" y="-385.5" font-family="Helvetica,sans-Serif" font-size="10.00" fill="#000000"> char &gt;</text>
<polyline fill="none" stroke="#bfbfbf" points="3.0493,-379.5 97.145,-379.5 "/>
<text text-anchor="middle" x="50.0972" y="-367.5" font-family="Helvetica,sans-Serif" font-size="10.00" fill="#000000"> </text>
<polyline fill="none" stroke="#bfbfbf" points="3.0493,-361.5 97.145,-361.5 "/>
<text text-anchor="middle" x="50.0972" y="-349.5" font-family="Helvetica,sans-Serif" font-size="10.00" fill="#000000"> </text>
</a>
</g>
</g>
<!-- Node4&#45;&gt;Node3 -->
<g id="edge2" class="edge">
<title>Node4&#45;&gt;Node3</title>
<path fill="none" stroke="#191970" d="M50.0972,-333.4397C50.0972,-324.0133 50.0972,-314.2564 50.0972,-305.6277"/>
<polygon fill="none" stroke="#191970" points="46.5973,-333.4697 50.0972,-343.4697 53.5973,-333.4698 46.5973,-333.4697"/>
</g>
</g>
</svg>
