<?xml version="1.0" encoding="UTF-8" standalone="no"?>
<!DOCTYPE svg PUBLIC "-//W3C//DTD SVG 1.1//EN"
 "http://www.w3.org/Graphics/SVG/1.1/DTD/svg11.dtd">
<!-- Generated by graphviz version 2.40.1 (20161225.0304)
 -->
<!-- Title: fs::MeetingAttendee::isPresentationBroadcaster Pages: 1 -->
<svg width="330pt" height="84pt"
 viewBox="0.00 0.00 330.04 84.00" xmlns="http://www.w3.org/2000/svg" xmlns:xlink="http://www.w3.org/1999/xlink">
<g id="graph0" class="graph" transform="scale(1 1) rotate(0) translate(4 80)">
<title>fs::MeetingAttendee::isPresentationBroadcaster</title>
<!-- Node19 -->
<g id="node1" class="node">
<title>Node19</title>
<g id="a_node1"><a xlink:title=" ">
<polygon fill="#bfbfbf" stroke="#000000" points="0,-23.5 0,-51.5 138.8418,-51.5 138.8418,-23.5 0,-23.5"/>
<text text-anchor="start" x="8" y="-39.5" font-family="Helvetica,sans-Serif" font-size="10.00" fill="#000000">fs::MeetingAttendee</text>
<text text-anchor="middle" x="69.4209" y="-29.5" font-family="Helvetica,sans-Serif" font-size="10.00" fill="#000000">::isPresentationBroadcaster</text>
</a>
</g>
</g>
<!-- Node20 -->
<g id="node2" class="node">
<title>Node20</title>
<g id="a_node2"><a xlink:href="classfs_1_1_meeting_attendee_readonly.html#aae0069588eb276f3bc6a0c727954f414" target="_top" xlink:title=" ">
<polygon fill="none" stroke="#000000" points="174.8418,-47.5 174.8418,-75.5 322.0381,-75.5 322.0381,-47.5 174.8418,-47.5"/>
<text text-anchor="start" x="182.8418" y="-63.5" font-family="Helvetica,sans-Serif" font-size="10.00" fill="#000000">fs::MeetingAttendeeReadonly</text>
<text text-anchor="middle" x="248.4399" y="-53.5" font-family="Helvetica,sans-Serif" font-size="10.00" fill="#000000">::getOrigin</text>
</a>
</g>
</g>
<!-- Node19&#45;&gt;Node20 -->
<g id="edge1" class="edge">
<title>Node19&#45;&gt;Node20</title>
<path fill="none" stroke="#191970" d="M138.8906,-46.8134C147.2968,-47.9404 155.9517,-49.1007 164.5375,-50.2517"/>
<polygon fill="#191970" stroke="#191970" points="164.1893,-53.7363 174.5657,-51.5961 165.1195,-46.7983 164.1893,-53.7363"/>
</g>
<!-- Node21 -->
<g id="node3" class="node">
<title>Node21</title>
<g id="a_node3"><a xlink:href="classfs_1_1_meeting_attendee_readonly.html#a571b1ae90b1c6ff3c49c96d329886e30" target="_top" xlink:title=" ">
<polygon fill="none" stroke="#000000" points="174.8418,-.5 174.8418,-28.5 322.0381,-28.5 322.0381,-.5 174.8418,-.5"/>
<text text-anchor="start" x="182.8418" y="-16.5" font-family="Helvetica,sans-Serif" font-size="10.00" fill="#000000">fs::MeetingAttendeeReadonly</text>
<text text-anchor="middle" x="248.4399" y="-6.5" font-family="Helvetica,sans-Serif" font-size="10.00" fill="#000000">::getName</text>
</a>
</g>
</g>
<!-- Node19&#45;&gt;Node21 -->
<g id="edge2" class="edge">
<title>Node19&#45;&gt;Node21</title>
<path fill="none" stroke="#191970" d="M138.8906,-28.5747C147.2968,-27.4947 155.9517,-26.3827 164.5375,-25.2796"/>
<polygon fill="#191970" stroke="#191970" points="165.0933,-28.7371 174.5657,-23.9912 164.2012,-21.7941 165.0933,-28.7371"/>
</g>
</g>
</svg>
