<?xml version="1.0" encoding="UTF-8" standalone="no"?>
<!DOCTYPE svg PUBLIC "-//W3C//DTD SVG 1.1//EN"
 "http://www.w3.org/Graphics/SVG/1.1/DTD/svg11.dtd">
<!-- Generated by graphviz version 2.40.1 (20161225.0304)
 -->
<!-- Title: fs::ScreenSharingController::onAttendeeSubConferenceEnter Pages: 1 -->
<svg width="524pt" height="84pt"
 viewBox="0.00 0.00 523.78 84.00" xmlns="http://www.w3.org/2000/svg" xmlns:xlink="http://www.w3.org/1999/xlink">
<g id="graph0" class="graph" transform="scale(1 1) rotate(0) translate(4 80)">
<title>fs::ScreenSharingController::onAttendeeSubConferenceEnter</title>
<!-- Node175 -->
<g id="node1" class="node">
<title>Node175</title>
<g id="a_node1"><a xlink:title=" ">
<polygon fill="#bfbfbf" stroke="#000000" points="0,-23.5 0,-51.5 166.1074,-51.5 166.1074,-23.5 0,-23.5"/>
<text text-anchor="start" x="8" y="-39.5" font-family="Helvetica,sans-Serif" font-size="10.00" fill="#000000">fs::ScreenSharingController</text>
<text text-anchor="middle" x="83.0537" y="-29.5" font-family="Helvetica,sans-Serif" font-size="10.00" fill="#000000">::onAttendeeSubConferenceEnter</text>
</a>
</g>
</g>
<!-- Node176 -->
<g id="node2" class="node">
<title>Node176</title>
<g id="a_node2"><a xlink:href="classfs_1_1_screen_sharing_controller.html#a9e9c38a80d4f7e5ca8ff6f2093eff8b3" target="_top" xlink:title=" ">
<polygon fill="none" stroke="#000000" points="202.1074,-23.5 202.1074,-51.5 340.9443,-51.5 340.9443,-23.5 202.1074,-23.5"/>
<text text-anchor="start" x="210.1074" y="-39.5" font-family="Helvetica,sans-Serif" font-size="10.00" fill="#000000">fs::ScreenSharingController</text>
<text text-anchor="middle" x="271.5259" y="-29.5" font-family="Helvetica,sans-Serif" font-size="10.00" fill="#000000">::stopScreenSharing</text>
</a>
</g>
</g>
<!-- Node175&#45;&gt;Node176 -->
<g id="edge1" class="edge">
<title>Node175&#45;&gt;Node176</title>
<path fill="none" stroke="#191970" d="M166.269,-37.5C174.7519,-37.5 183.3556,-37.5 191.8,-37.5"/>
<polygon fill="#191970" stroke="#191970" points="192.0025,-41.0001 202.0025,-37.5 192.0025,-34.0001 192.0025,-41.0001"/>
</g>
<!-- Node177 -->
<g id="node3" class="node">
<title>Node177</title>
<g id="a_node3"><a xlink:href="classfs_1_1_screen_sharing_controller.html#af3820fa110e9ee3579a100f59f3488cc" target="_top" xlink:title=" ">
<polygon fill="none" stroke="#000000" points="376.9443,-47.5 376.9443,-75.5 515.7813,-75.5 515.7813,-47.5 376.9443,-47.5"/>
<text text-anchor="start" x="384.9443" y="-63.5" font-family="Helvetica,sans-Serif" font-size="10.00" fill="#000000">fs::ScreenSharingController</text>
<text text-anchor="middle" x="446.3628" y="-53.5" font-family="Helvetica,sans-Serif" font-size="10.00" fill="#000000">::getPresenterId</text>
</a>
</g>
</g>
<!-- Node176&#45;&gt;Node177 -->
<g id="edge2" class="edge">
<title>Node176&#45;&gt;Node177</title>
<path fill="none" stroke="#191970" d="M341.1284,-47.0544C349.5471,-48.21 358.196,-49.3973 366.7446,-50.5708"/>
<polygon fill="#191970" stroke="#191970" points="366.331,-54.0467 376.7141,-51.9393 367.283,-47.1117 366.331,-54.0467"/>
</g>
<!-- Node178 -->
<g id="node4" class="node">
<title>Node178</title>
<g id="a_node4"><a xlink:href="classfs_1_1_screen_sharing_controller.html#a1099e31f1e66a059b03ec205d466cbbc" target="_top" xlink:title=" ">
<polygon fill="none" stroke="#000000" points="376.9443,-.5 376.9443,-28.5 515.7813,-28.5 515.7813,-.5 376.9443,-.5"/>
<text text-anchor="start" x="384.9443" y="-16.5" font-family="Helvetica,sans-Serif" font-size="10.00" fill="#000000">fs::ScreenSharingController</text>
<text text-anchor="middle" x="446.3628" y="-6.5" font-family="Helvetica,sans-Serif" font-size="10.00" fill="#000000">::isPresenter</text>
</a>
</g>
</g>
<!-- Node176&#45;&gt;Node178 -->
<g id="edge3" class="edge">
<title>Node176&#45;&gt;Node178</title>
<path fill="none" stroke="#191970" d="M341.1284,-28.3437C349.5471,-27.2362 358.196,-26.0984 366.7446,-24.9739"/>
<polygon fill="#191970" stroke="#191970" points="367.2561,-28.4368 376.7141,-23.6624 366.343,-21.4966 367.2561,-28.4368"/>
</g>
</g>
</svg>
