<?xml version="1.0" encoding="UTF-8" standalone="no"?>
<!DOCTYPE svg PUBLIC "-//W3C//DTD SVG 1.1//EN"
 "http://www.w3.org/Graphics/SVG/1.1/DTD/svg11.dtd">
<!-- Generated by graphviz version 2.40.1 (20161225.0304)
 -->
<!-- Title: fs::ScreenSharingController::stopBroadcastPromotion Pages: 1 -->
<svg width="322pt" height="84pt"
 viewBox="0.00 0.00 321.67 84.00" xmlns="http://www.w3.org/2000/svg" xmlns:xlink="http://www.w3.org/1999/xlink">
<g id="graph0" class="graph" transform="scale(1 1) rotate(0) translate(4 80)">
<title>fs::ScreenSharingController::stopBroadcastPromotion</title>
<!-- Node298 -->
<g id="node1" class="node">
<title>Node298</title>
<g id="a_node1"><a xlink:title=" ">
<polygon fill="#bfbfbf" stroke="#000000" points="0,-23.5 0,-51.5 138.8369,-51.5 138.8369,-23.5 0,-23.5"/>
<text text-anchor="start" x="8" y="-39.5" font-family="Helvetica,sans-Serif" font-size="10.00" fill="#000000">fs::ScreenSharingController</text>
<text text-anchor="middle" x="69.4185" y="-29.5" font-family="Helvetica,sans-Serif" font-size="10.00" fill="#000000">::stopBroadcastPromotion</text>
</a>
</g>
</g>
<!-- Node299 -->
<g id="node2" class="node">
<title>Node299</title>
<g id="a_node2"><a xlink:href="classfs_1_1_screen_sharing_controller.html#a2d72cac3855bd476bf5d61e6e342c079" target="_top" xlink:title=" ">
<polygon fill="none" stroke="#000000" points="174.8369,-47.5 174.8369,-75.5 313.6738,-75.5 313.6738,-47.5 174.8369,-47.5"/>
<text text-anchor="start" x="182.8369" y="-63.5" font-family="Helvetica,sans-Serif" font-size="10.00" fill="#000000">fs::ScreenSharingController</text>
<text text-anchor="middle" x="244.2554" y="-53.5" font-family="Helvetica,sans-Serif" font-size="10.00" fill="#000000">::getPromotedAttendeeId</text>
</a>
</g>
</g>
<!-- Node298&#45;&gt;Node299 -->
<g id="edge1" class="edge">
<title>Node298&#45;&gt;Node299</title>
<path fill="none" stroke="#191970" d="M139.021,-47.0544C147.4397,-48.21 156.0886,-49.3973 164.6372,-50.5708"/>
<polygon fill="#191970" stroke="#191970" points="164.2236,-54.0467 174.6067,-51.9393 165.1756,-47.1117 164.2236,-54.0467"/>
</g>
<!-- Node300 -->
<g id="node3" class="node">
<title>Node300</title>
<g id="a_node3"><a xlink:href="classfs_1_1_screen_sharing_controller.html#a0271bed03b4881d7ae3f8f3681e9274e" target="_top" xlink:title=" ">
<polygon fill="none" stroke="#000000" points="174.8369,-.5 174.8369,-28.5 313.6738,-28.5 313.6738,-.5 174.8369,-.5"/>
<text text-anchor="start" x="182.8369" y="-16.5" font-family="Helvetica,sans-Serif" font-size="10.00" fill="#000000">fs::ScreenSharingController</text>
<text text-anchor="middle" x="244.2554" y="-6.5" font-family="Helvetica,sans-Serif" font-size="10.00" fill="#000000">::stopBroadcasting</text>
</a>
</g>
</g>
<!-- Node298&#45;&gt;Node300 -->
<g id="edge2" class="edge">
<title>Node298&#45;&gt;Node300</title>
<path fill="none" stroke="#191970" d="M139.021,-28.3437C147.4397,-27.2362 156.0886,-26.0984 164.6372,-24.9739"/>
<polygon fill="#191970" stroke="#191970" points="165.1486,-28.4368 174.6067,-23.6624 164.2356,-21.4966 165.1486,-28.4368"/>
</g>
</g>
</svg>
