<?xml version="1.0" encoding="UTF-8" standalone="no"?>
<!DOCTYPE svg PUBLIC "-//W3C//DTD SVG 1.1//EN"
 "http://www.w3.org/Graphics/SVG/1.1/DTD/svg11.dtd">
<!-- Generated by graphviz version 2.40.1 (20161225.0304)
 -->
<!-- Title: SCUploadData::boundary Pages: 1 -->
<svg width="458pt" height="27pt"
 viewBox="0.00 0.00 458.19 27.00" xmlns="http://www.w3.org/2000/svg" xmlns:xlink="http://www.w3.org/1999/xlink">
<g id="graph0" class="graph" transform="scale(1 1) rotate(0) translate(4 23)">
<title>SCUploadData::boundary</title>
<!-- Node5 -->
<g id="node1" class="node">
<title>Node5</title>
<g id="a_node1"><a xlink:title=" ">
<polygon fill="#bfbfbf" stroke="#000000" points="320.2305,-.5 320.2305,-18.5 450.1904,-18.5 450.1904,-.5 320.2305,-.5"/>
<text text-anchor="middle" x="385.2104" y="-6.5" font-family="Helvetica,sans-Serif" font-size="10.00" fill="#000000">SCUploadData::boundary</text>
</a>
</g>
</g>
<!-- Node6 -->
<g id="node2" class="node">
<title>Node6</title>
<g id="a_node2"><a xlink:href="class_s_c_upload_data.html#a9f32f398da71ac8a1e2827a998666a96" target="_top" xlink:title=" ">
<polygon fill="none" stroke="#000000" points="137.0439,-.5 137.0439,-18.5 284.2305,-18.5 284.2305,-.5 137.0439,-.5"/>
<text text-anchor="middle" x="210.6372" y="-6.5" font-family="Helvetica,sans-Serif" font-size="10.00" fill="#000000">SCUploadData::testBoundary</text>
</a>
</g>
</g>
<!-- Node5&#45;&gt;Node6 -->
<g id="edge1" class="edge">
<title>Node5&#45;&gt;Node6</title>
<path fill="none" stroke="#191970" d="M309.9979,-9.5C301.5488,-9.5 292.9458,-9.5 284.5138,-9.5"/>
<polygon fill="#191970" stroke="#191970" points="310.2059,-13.0001 320.2058,-9.5 310.2058,-6.0001 310.2059,-13.0001"/>
</g>
<!-- Node7 -->
<g id="node3" class="node">
<title>Node7</title>
<g id="a_node3"><a xlink:href="class_s_c_upload_data.html#af6e93280ea1af569fa4a12891da83258" target="_top" xlink:title=" ">
<polygon fill="none" stroke="#000000" points="0,-.5 0,-18.5 101.0439,-18.5 101.0439,-.5 0,-.5"/>
<text text-anchor="middle" x="50.522" y="-6.5" font-family="Helvetica,sans-Serif" font-size="10.00" fill="#000000">SCUploadData::init</text>
</a>
</g>
</g>
<!-- Node6&#45;&gt;Node7 -->
<g id="edge2" class="edge">
<title>Node6&#45;&gt;Node7</title>
<path fill="none" stroke="#191970" d="M126.5592,-9.5C117.9481,-9.5 109.3992,-9.5 101.3123,-9.5"/>
<polygon fill="#191970" stroke="#191970" points="126.6725,-13.0001 136.6725,-9.5 126.6725,-6.0001 126.6725,-13.0001"/>
</g>
</g>
</svg>
