<?xml version="1.0" encoding="UTF-8" standalone="no"?>
<!DOCTYPE svg PUBLIC "-//W3C//DTD SVG 1.1//EN"
 "http://www.w3.org/Graphics/SVG/1.1/DTD/svg11.dtd">
<!-- Generated by graphviz version 2.40.1 (20161225.0304)
 -->
<!-- Title: fs::MeetingAttendeeReadonly::getDisplayName Pages: 1 -->
<svg width="296pt" height="84pt"
 viewBox="0.00 0.00 296.14 84.00" xmlns="http://www.w3.org/2000/svg" xmlns:xlink="http://www.w3.org/1999/xlink">
<g id="graph0" class="graph" transform="scale(1 1) rotate(0) translate(4 80)">
<title>fs::MeetingAttendeeReadonly::getDisplayName</title>
<!-- Node13 -->
<g id="node1" class="node">
<title>Node13</title>
<g id="a_node1"><a xlink:title=" ">
<polygon fill="#bfbfbf" stroke="#000000" points="140.9453,-23.5 140.9453,-51.5 288.1416,-51.5 288.1416,-23.5 140.9453,-23.5"/>
<text text-anchor="start" x="148.9453" y="-39.5" font-family="Helvetica,sans-Serif" font-size="10.00" fill="#000000">fs::MeetingAttendeeReadonly</text>
<text text-anchor="middle" x="214.5435" y="-29.5" font-family="Helvetica,sans-Serif" font-size="10.00" fill="#000000">::getDisplayName</text>
</a>
</g>
</g>
<!-- Node14 -->
<g id="node2" class="node">
<title>Node14</title>
<g id="a_node2"><a xlink:href="classfs_1_1_meeting_attendee.html#a4f4aba4f5859dae09e6a98f3b80af188" target="_top" xlink:title=" ">
<polygon fill="none" stroke="#000000" points="0,-47.5 0,-75.5 104.9453,-75.5 104.9453,-47.5 0,-47.5"/>
<text text-anchor="start" x="8" y="-63.5" font-family="Helvetica,sans-Serif" font-size="10.00" fill="#000000">fs::MeetingAttendee</text>
<text text-anchor="middle" x="52.4727" y="-53.5" font-family="Helvetica,sans-Serif" font-size="10.00" fill="#000000">::operator&gt;</text>
</a>
</g>
</g>
<!-- Node13&#45;&gt;Node14 -->
<g id="edge1" class="edge">
<title>Node13&#45;&gt;Node14</title>
<path fill="none" stroke="#191970" d="M130.4525,-49.9525C121.7875,-51.2356 113.1691,-52.5119 104.9945,-53.7224"/>
<polygon fill="#191970" stroke="#191970" points="131.2428,-53.3737 140.6222,-48.4465 130.2173,-46.4492 131.2428,-53.3737"/>
</g>
<!-- Node15 -->
<g id="node3" class="node">
<title>Node15</title>
<g id="a_node3"><a xlink:href="classfs_1_1_meeting_attendee.html#a9432ed6d8c9351a493c873afcd9bf5de" target="_top" xlink:title=" ">
<polygon fill="none" stroke="#000000" points="0,-.5 0,-28.5 104.9453,-28.5 104.9453,-.5 0,-.5"/>
<text text-anchor="start" x="8" y="-16.5" font-family="Helvetica,sans-Serif" font-size="10.00" fill="#000000">fs::MeetingAttendee</text>
<text text-anchor="middle" x="52.4727" y="-6.5" font-family="Helvetica,sans-Serif" font-size="10.00" fill="#000000">::operator&lt;</text>
</a>
</g>
</g>
<!-- Node13&#45;&gt;Node15 -->
<g id="edge2" class="edge">
<title>Node13&#45;&gt;Node15</title>
<path fill="none" stroke="#191970" d="M130.4525,-25.5664C121.7875,-24.3367 113.1691,-23.1136 104.9945,-21.9535"/>
<polygon fill="#191970" stroke="#191970" points="130.2296,-29.0697 140.6222,-27.0096 131.2132,-22.1392 130.2296,-29.0697"/>
</g>
</g>
</svg>
