<?xml version="1.0" encoding="UTF-8" standalone="no"?>
<!DOCTYPE svg PUBLIC "-//W3C//DTD SVG 1.1//EN"
 "http://www.w3.org/Graphics/SVG/1.1/DTD/svg11.dtd">
<!-- Generated by graphviz version 2.40.1 (20161225.0304)
 -->
<!-- Title: fs::MeetingClientSession::setExternalDevCapability Pages: 1 -->
<svg width="303pt" height="121pt"
 viewBox="0.00 0.00 303.33 121.00" xmlns="http://www.w3.org/2000/svg" xmlns:xlink="http://www.w3.org/1999/xlink">
<g id="graph0" class="graph" transform="scale(1 1) rotate(0) translate(4 117)">
<title>fs::MeetingClientSession::setExternalDevCapability</title>
<!-- Node869 -->
<g id="node1" class="node">
<title>Node869</title>
<g id="a_node1"><a xlink:title=" ">
<polygon fill="#bfbfbf" stroke="#000000" points="0,-42.5 0,-70.5 133.2754,-70.5 133.2754,-42.5 0,-42.5"/>
<text text-anchor="start" x="8" y="-58.5" font-family="Helvetica,sans-Serif" font-size="10.00" fill="#000000">fs::MeetingClientSession</text>
<text text-anchor="middle" x="66.6377" y="-48.5" font-family="Helvetica,sans-Serif" font-size="10.00" fill="#000000">::setExternalDevCapability</text>
</a>
</g>
</g>
<!-- Node870 -->
<g id="node2" class="node">
<title>Node870</title>
<g id="a_node2"><a xlink:href="classfs_1_1_meeting_client_session.html#ad2db541bceb2f60d39d34b3e443801d2" target="_top" xlink:title=" ">
<polygon fill="none" stroke="#000000" points="169.2754,-84.5 169.2754,-112.5 295.3291,-112.5 295.3291,-84.5 169.2754,-84.5"/>
<text text-anchor="start" x="177.2754" y="-100.5" font-family="Helvetica,sans-Serif" font-size="10.00" fill="#000000">fs::MeetingClientSession</text>
<text text-anchor="middle" x="232.3022" y="-90.5" font-family="Helvetica,sans-Serif" font-size="10.00" fill="#000000">::isInitialized</text>
</a>
</g>
</g>
<!-- Node869&#45;&gt;Node870 -->
<g id="edge1" class="edge">
<title>Node869&#45;&gt;Node870</title>
<path fill="none" stroke="#191970" d="M122.2625,-70.6022C136.5444,-74.223 152.0402,-78.1516 166.7719,-81.8865"/>
<polygon fill="#191970" stroke="#191970" points="166.2708,-85.3701 176.8243,-84.435 167.9911,-78.5848 166.2708,-85.3701"/>
</g>
<!-- Node871 -->
<g id="node3" class="node">
<title>Node871</title>
<g id="a_node3"><a xlink:href="_meeting_client_session_8cxx.html#ab06e713e85f5d00e42ad86367c03f278" target="_top" xlink:title=" ">
<polygon fill="none" stroke="#000000" points="202.8984,-47.5 202.8984,-65.5 261.7061,-65.5 261.7061,-47.5 202.8984,-47.5"/>
<text text-anchor="middle" x="232.3022" y="-53.5" font-family="Helvetica,sans-Serif" font-size="10.00" fill="#000000">asio_post</text>
</a>
</g>
</g>
<!-- Node869&#45;&gt;Node871 -->
<g id="edge2" class="edge">
<title>Node869&#45;&gt;Node871</title>
<path fill="none" stroke="#191970" d="M133.5423,-56.5C153.4725,-56.5 174.6811,-56.5 192.3149,-56.5"/>
<polygon fill="#191970" stroke="#191970" points="192.7892,-60.0001 202.7892,-56.5 192.7892,-53.0001 192.7892,-60.0001"/>
</g>
<!-- Node872 -->
<g id="node4" class="node">
<title>Node872</title>
<g id="a_node4"><a xlink:href="classfs_1_1_meeting_client_session.html#a75e9c574fb9a84a95e9629dd91689dc0" target="_top" xlink:title=" ">
<polygon fill="none" stroke="#000000" points="169.2754,-.5 169.2754,-28.5 295.3291,-28.5 295.3291,-.5 169.2754,-.5"/>
<text text-anchor="start" x="177.2754" y="-16.5" font-family="Helvetica,sans-Serif" font-size="10.00" fill="#000000">fs::MeetingClientSession</text>
<text text-anchor="middle" x="232.3022" y="-6.5" font-family="Helvetica,sans-Serif" font-size="10.00" fill="#000000">::ioService</text>
</a>
</g>
</g>
<!-- Node869&#45;&gt;Node872 -->
<g id="edge3" class="edge">
<title>Node869&#45;&gt;Node872</title>
<path fill="none" stroke="#191970" d="M122.2625,-42.3978C136.5444,-38.777 152.0402,-34.8484 166.7719,-31.1135"/>
<polygon fill="#191970" stroke="#191970" points="167.9911,-34.4152 176.8243,-28.565 166.2708,-27.6299 167.9911,-34.4152"/>
</g>
</g>
</svg>
