<?xml version="1.0" encoding="UTF-8" standalone="no"?>
<!DOCTYPE svg PUBLIC "-//W3C//DTD SVG 1.1//EN"
 "http://www.w3.org/Graphics/SVG/1.1/DTD/svg11.dtd">
<!-- Generated by graphviz version 2.40.1 (20161225.0304)
 -->
<!-- Title: fs::MeetingClientSession::directorKeyboardData Pages: 1 -->
<svg width="302pt" height="121pt"
 viewBox="0.00 0.00 301.67 121.00" xmlns="http://www.w3.org/2000/svg" xmlns:xlink="http://www.w3.org/1999/xlink">
<g id="graph0" class="graph" transform="scale(1 1) rotate(0) translate(4 117)">
<title>fs::MeetingClientSession::directorKeyboardData</title>
<!-- Node47 -->
<g id="node1" class="node">
<title>Node47</title>
<g id="a_node1"><a xlink:title=" ">
<polygon fill="#bfbfbf" stroke="#000000" points="0,-47.5 0,-75.5 126.0537,-75.5 126.0537,-47.5 0,-47.5"/>
<text text-anchor="start" x="8" y="-63.5" font-family="Helvetica,sans-Serif" font-size="10.00" fill="#000000">fs::MeetingClientSession</text>
<text text-anchor="middle" x="63.0269" y="-53.5" font-family="Helvetica,sans-Serif" font-size="10.00" fill="#000000">::directorKeyboardData</text>
</a>
</g>
</g>
<!-- Node48 -->
<g id="node2" class="node">
<title>Node48</title>
<g id="a_node2"><a xlink:href="_meeting_client_session_8cxx.html#ab06e713e85f5d00e42ad86367c03f278" target="_top" xlink:title=" ">
<polygon fill="none" stroke="#000000" points="198.4575,-94.5 198.4575,-112.5 257.2651,-112.5 257.2651,-94.5 198.4575,-94.5"/>
<text text-anchor="middle" x="227.8613" y="-100.5" font-family="Helvetica,sans-Serif" font-size="10.00" fill="#000000">asio_post</text>
</a>
</g>
</g>
<!-- Node47&#45;&gt;Node48 -->
<g id="edge1" class="edge">
<title>Node47&#45;&gt;Node48</title>
<path fill="none" stroke="#191970" d="M118.3729,-75.6022C141.3602,-81.4594 167.5083,-88.122 188.4854,-93.467"/>
<polygon fill="#191970" stroke="#191970" points="187.7767,-96.8982 198.3313,-95.9757 189.5051,-90.1149 187.7767,-96.8982"/>
</g>
<!-- Node49 -->
<g id="node3" class="node">
<title>Node49</title>
<g id="a_node3"><a xlink:href="classfs_1_1_meeting_client_session.html#a75e9c574fb9a84a95e9629dd91689dc0" target="_top" xlink:title=" ">
<polygon fill="none" stroke="#000000" points="164.8345,-47.5 164.8345,-75.5 290.8882,-75.5 290.8882,-47.5 164.8345,-47.5"/>
<text text-anchor="start" x="172.8345" y="-63.5" font-family="Helvetica,sans-Serif" font-size="10.00" fill="#000000">fs::MeetingClientSession</text>
<text text-anchor="middle" x="227.8613" y="-53.5" font-family="Helvetica,sans-Serif" font-size="10.00" fill="#000000">::ioService</text>
</a>
</g>
</g>
<!-- Node47&#45;&gt;Node49 -->
<g id="edge2" class="edge">
<title>Node47&#45;&gt;Node49</title>
<path fill="none" stroke="#191970" d="M126.2848,-61.5C135.5524,-61.5 145.1621,-61.5 154.6093,-61.5"/>
<polygon fill="#191970" stroke="#191970" points="154.7727,-65.0001 164.7727,-61.5 154.7727,-58.0001 154.7727,-65.0001"/>
</g>
<!-- Node50 -->
<g id="node4" class="node">
<title>Node50</title>
<g id="a_node4"><a xlink:href="classfs_1_1_meeting_client_session.html#a6b64058d51511c3200fa902d1e9923ba" target="_top" xlink:title=" ">
<polygon fill="none" stroke="#000000" points="162.0537,-.5 162.0537,-28.5 293.6689,-28.5 293.6689,-.5 162.0537,-.5"/>
<text text-anchor="start" x="170.0537" y="-16.5" font-family="Helvetica,sans-Serif" font-size="10.00" fill="#000000">fs::MeetingClientSession</text>
<text text-anchor="middle" x="227.8613" y="-6.5" font-family="Helvetica,sans-Serif" font-size="10.00" fill="#000000">::onDirectorKeyboardData</text>
</a>
</g>
</g>
<!-- Node47&#45;&gt;Node50 -->
<g id="edge3" class="edge">
<title>Node47&#45;&gt;Node50</title>
<path fill="none" stroke="#191970" d="M112.4826,-47.3985C130.2474,-42.3331 150.4582,-36.5703 168.9471,-31.2985"/>
<polygon fill="#191970" stroke="#191970" points="170.0677,-34.6185 178.7247,-28.5106 168.1482,-27.8868 170.0677,-34.6185"/>
</g>
</g>
</svg>
