<?xml version="1.0" encoding="UTF-8" standalone="no"?>
<!DOCTYPE svg PUBLIC "-//W3C//DTD SVG 1.1//EN"
 "http://www.w3.org/Graphics/SVG/1.1/DTD/svg11.dtd">
<!-- Generated by graphviz version 2.40.1 (20161225.0304)
 -->
<!-- Title: cx::toolkit::opt_value::get Pages: 1 -->
<svg width="304pt" height="141pt"
 viewBox="0.00 0.00 304.19 141.00" xmlns="http://www.w3.org/2000/svg" xmlns:xlink="http://www.w3.org/1999/xlink">
<g id="graph0" class="graph" transform="scale(1 1) rotate(0) translate(4 137)">
<title>cx::toolkit::opt_value::get</title>
<!-- Node9 -->
<g id="node1" class="node">
<title>Node9</title>
<g id="a_node1"><a xlink:title=" ">
<polygon fill="#bfbfbf" stroke="#000000" points="170.125,-52.5 170.125,-70.5 296.1885,-70.5 296.1885,-52.5 170.125,-52.5"/>
<text text-anchor="middle" x="233.1567" y="-58.5" font-family="Helvetica,sans-Serif" font-size="10.00" fill="#000000">cx::toolkit::opt_value::get</text>
</a>
</g>
</g>
<!-- Node10 -->
<g id="node2" class="node">
<title>Node10</title>
<g id="a_node2"><a xlink:href="classcx_1_1toolkit_1_1opt__value.html#a2a7a305bf622d8c40195a6340dd1b35b" target="_top" xlink:title=" ">
<polygon fill="none" stroke="#000000" points="0,-94.5 0,-132.5 134.125,-132.5 134.125,-94.5 0,-94.5"/>
<text text-anchor="start" x="8" y="-120.5" font-family="Helvetica,sans-Serif" font-size="10.00" fill="#000000">cx::toolkit::opt_value</text>
<text text-anchor="start" x="8" y="-110.5" font-family="Helvetica,sans-Serif" font-size="10.00" fill="#000000">&lt; BroadcastResourceType</text>
<text text-anchor="middle" x="67.0625" y="-100.5" font-family="Helvetica,sans-Serif" font-size="10.00" fill="#000000"> &gt;::operator==</text>
</a>
</g>
</g>
<!-- Node9&#45;&gt;Node10 -->
<g id="edge1" class="edge">
<title>Node9&#45;&gt;Node10</title>
<path fill="none" stroke="#191970" d="M194.6391,-73.5589C174.8489,-79.7547 150.2684,-87.4503 127.9814,-94.4278"/>
<polygon fill="#191970" stroke="#191970" points="195.7278,-76.8857 204.2253,-70.5577 193.6364,-70.2054 195.7278,-76.8857"/>
</g>
<!-- Node11 -->
<g id="node3" class="node">
<title>Node11</title>
<g id="a_node3"><a xlink:href="classcx_1_1web_1_1_a_p_iv3_wrapper.html#a6381ebf52cbeff37e6a4c0a103117f0c" target="_top" xlink:title=" ">
<polygon fill="none" stroke="#000000" points="2.9224,-47.5 2.9224,-75.5 131.2026,-75.5 131.2026,-47.5 2.9224,-47.5"/>
<text text-anchor="start" x="10.9224" y="-63.5" font-family="Helvetica,sans-Serif" font-size="10.00" fill="#000000">cx::web::APIv3Wrapper</text>
<text text-anchor="middle" x="67.0625" y="-53.5" font-family="Helvetica,sans-Serif" font-size="10.00" fill="#000000">::getBroadcastResources</text>
</a>
</g>
</g>
<!-- Node9&#45;&gt;Node11 -->
<g id="edge2" class="edge">
<title>Node9&#45;&gt;Node11</title>
<path fill="none" stroke="#191970" d="M159.6945,-61.5C150.2158,-61.5 140.5682,-61.5 131.2547,-61.5"/>
<polygon fill="#191970" stroke="#191970" points="159.8898,-65.0001 169.8898,-61.5 159.8898,-58.0001 159.8898,-65.0001"/>
</g>
<!-- Node12 -->
<g id="node4" class="node">
<title>Node12</title>
<g id="a_node4"><a xlink:href="classcx_1_1web_1_1_a_p_iv4_wrapper.html#ae9beb6891ec880e15ec9ce8f780de910" target="_top" xlink:title=" ">
<polygon fill="none" stroke="#000000" points="2.9224,-.5 2.9224,-28.5 131.2026,-28.5 131.2026,-.5 2.9224,-.5"/>
<text text-anchor="start" x="10.9224" y="-16.5" font-family="Helvetica,sans-Serif" font-size="10.00" fill="#000000">cx::web::APIv4Wrapper</text>
<text text-anchor="middle" x="67.0625" y="-6.5" font-family="Helvetica,sans-Serif" font-size="10.00" fill="#000000">::getBroadcastResources</text>
</a>
</g>
</g>
<!-- Node9&#45;&gt;Node12 -->
<g id="edge3" class="edge">
<title>Node9&#45;&gt;Node12</title>
<path fill="none" stroke="#191970" d="M191.4442,-49.6965C168.7299,-43.269 140.4782,-35.2746 116.6432,-28.5299"/>
<polygon fill="#191970" stroke="#191970" points="190.5569,-53.0828 201.1321,-52.4379 192.4629,-46.3473 190.5569,-53.0828"/>
</g>
</g>
</svg>
