<?xml version="1.0" encoding="UTF-8" standalone="no"?>
<!DOCTYPE svg PUBLIC "-//W3C//DTD SVG 1.1//EN"
 "http://www.w3.org/Graphics/SVG/1.1/DTD/svg11.dtd">
<!-- Generated by graphviz version 2.40.1 (20161225.0304)
 -->
<!-- Title: fs::MeetingClientSession::setWelcomePromtEnabled Pages: 1 -->
<svg width="310pt" height="121pt"
 viewBox="0.00 0.00 309.82 121.00" xmlns="http://www.w3.org/2000/svg" xmlns:xlink="http://www.w3.org/1999/xlink">
<g id="graph0" class="graph" transform="scale(1 1) rotate(0) translate(4 117)">
<title>fs::MeetingClientSession::setWelcomePromtEnabled</title>
<!-- Node894 -->
<g id="node1" class="node">
<title>Node894</title>
<g id="a_node1"><a xlink:title=" ">
<polygon fill="#bfbfbf" stroke="#000000" points="0,-42.5 0,-70.5 139.7646,-70.5 139.7646,-42.5 0,-42.5"/>
<text text-anchor="start" x="8" y="-58.5" font-family="Helvetica,sans-Serif" font-size="10.00" fill="#000000">fs::MeetingClientSession</text>
<text text-anchor="middle" x="69.8823" y="-48.5" font-family="Helvetica,sans-Serif" font-size="10.00" fill="#000000">::setWelcomePromtEnabled</text>
</a>
</g>
</g>
<!-- Node895 -->
<g id="node2" class="node">
<title>Node895</title>
<g id="a_node2"><a xlink:href="classfs_1_1_meeting_client_session.html#ad2db541bceb2f60d39d34b3e443801d2" target="_top" xlink:title=" ">
<polygon fill="none" stroke="#000000" points="175.7646,-84.5 175.7646,-112.5 301.8184,-112.5 301.8184,-84.5 175.7646,-84.5"/>
<text text-anchor="start" x="183.7646" y="-100.5" font-family="Helvetica,sans-Serif" font-size="10.00" fill="#000000">fs::MeetingClientSession</text>
<text text-anchor="middle" x="238.7915" y="-90.5" font-family="Helvetica,sans-Serif" font-size="10.00" fill="#000000">::isInitialized</text>
</a>
</g>
</g>
<!-- Node894&#45;&gt;Node895 -->
<g id="edge1" class="edge">
<title>Node894&#45;&gt;Node895</title>
<path fill="none" stroke="#191970" d="M126.5965,-70.6022C141.2982,-74.2579 157.2615,-78.2272 172.4107,-81.9941"/>
<polygon fill="#191970" stroke="#191970" points="171.6779,-85.4184 182.227,-84.435 173.3671,-78.6253 171.6779,-85.4184"/>
</g>
<!-- Node896 -->
<g id="node3" class="node">
<title>Node896</title>
<g id="a_node3"><a xlink:href="_meeting_client_session_8cxx.html#ab06e713e85f5d00e42ad86367c03f278" target="_top" xlink:title=" ">
<polygon fill="none" stroke="#000000" points="209.3877,-47.5 209.3877,-65.5 268.1953,-65.5 268.1953,-47.5 209.3877,-47.5"/>
<text text-anchor="middle" x="238.7915" y="-53.5" font-family="Helvetica,sans-Serif" font-size="10.00" fill="#000000">asio_post</text>
</a>
</g>
</g>
<!-- Node894&#45;&gt;Node896 -->
<g id="edge2" class="edge">
<title>Node894&#45;&gt;Node896</title>
<path fill="none" stroke="#191970" d="M140.0476,-56.5C160.0139,-56.5 181.0775,-56.5 198.5985,-56.5"/>
<polygon fill="#191970" stroke="#191970" points="199.0085,-60.0001 209.0085,-56.5 199.0085,-53.0001 199.0085,-60.0001"/>
</g>
<!-- Node897 -->
<g id="node4" class="node">
<title>Node897</title>
<g id="a_node4"><a xlink:href="classfs_1_1_meeting_client_session.html#a75e9c574fb9a84a95e9629dd91689dc0" target="_top" xlink:title=" ">
<polygon fill="none" stroke="#000000" points="175.7646,-.5 175.7646,-28.5 301.8184,-28.5 301.8184,-.5 175.7646,-.5"/>
<text text-anchor="start" x="183.7646" y="-16.5" font-family="Helvetica,sans-Serif" font-size="10.00" fill="#000000">fs::MeetingClientSession</text>
<text text-anchor="middle" x="238.7915" y="-6.5" font-family="Helvetica,sans-Serif" font-size="10.00" fill="#000000">::ioService</text>
</a>
</g>
</g>
<!-- Node894&#45;&gt;Node897 -->
<g id="edge3" class="edge">
<title>Node894&#45;&gt;Node897</title>
<path fill="none" stroke="#191970" d="M126.5965,-42.3978C141.2982,-38.7421 157.2615,-34.7728 172.4107,-31.0059"/>
<polygon fill="#191970" stroke="#191970" points="173.3671,-34.3747 182.227,-28.565 171.6779,-27.5816 173.3671,-34.3747"/>
</g>
</g>
</svg>
