<?xml version="1.0" encoding="UTF-8" standalone="no"?>
<!DOCTYPE svg PUBLIC "-//W3C//DTD SVG 1.1//EN"
 "http://www.w3.org/Graphics/SVG/1.1/DTD/svg11.dtd">
<!-- Generated by graphviz version 2.40.1 (20161225.0304)
 -->
<!-- Title: fs::VoIPClientDelegate::onTransportCallStarted Pages: 1 -->
<svg width="434pt" height="37pt"
 viewBox="0.00 0.00 433.51 37.00" xmlns="http://www.w3.org/2000/svg" xmlns:xlink="http://www.w3.org/1999/xlink">
<g id="graph0" class="graph" transform="scale(1 1) rotate(0) translate(4 33)">
<title>fs::VoIPClientDelegate::onTransportCallStarted</title>
<!-- Node59 -->
<g id="node1" class="node">
<title>Node59</title>
<g id="a_node1"><a xlink:title=" ">
<polygon fill="#bfbfbf" stroke="#000000" points="300.9385,-.5 300.9385,-28.5 425.5127,-28.5 425.5127,-.5 300.9385,-.5"/>
<text text-anchor="start" x="308.9385" y="-16.5" font-family="Helvetica,sans-Serif" font-size="10.00" fill="#000000">fs::VoIPClientDelegate</text>
<text text-anchor="middle" x="363.2256" y="-6.5" font-family="Helvetica,sans-Serif" font-size="10.00" fill="#000000">::onTransportCallStarted</text>
</a>
</g>
</g>
<!-- Node60 -->
<g id="node2" class="node">
<title>Node60</title>
<g id="a_node2"><a xlink:href="classfs_1_1_vo_i_p_client_delegate.html#ad5d00593ab45d5e77cd601f47bfe0a92" target="_top" xlink:title=" ">
<polygon fill="none" stroke="#000000" points="137.5957,-.5 137.5957,-28.5 264.9385,-28.5 264.9385,-.5 137.5957,-.5"/>
<text text-anchor="start" x="145.5957" y="-16.5" font-family="Helvetica,sans-Serif" font-size="10.00" fill="#000000">fs::VoIPClientDelegate</text>
<text text-anchor="middle" x="201.2671" y="-6.5" font-family="Helvetica,sans-Serif" font-size="10.00" fill="#000000">::fireTransportCallStarted</text>
</a>
</g>
</g>
<!-- Node59&#45;&gt;Node60 -->
<g id="edge1" class="edge">
<title>Node59&#45;&gt;Node60</title>
<path fill="none" stroke="#191970" d="M290.3867,-14.5C281.9379,-14.5 273.3696,-14.5 265.0549,-14.5"/>
<polygon fill="#191970" stroke="#191970" points="290.6082,-18.0001 300.6082,-14.5 290.6082,-11.0001 290.6082,-18.0001"/>
</g>
<!-- Node61 -->
<g id="node3" class="node">
<title>Node61</title>
<g id="a_node3"><a xlink:href="classfs_1_1_vo_i_p_client_proxy.html#ae9f66d1857a73b83311cd549f0609f49" target="_top" xlink:title=" ">
<polygon fill="none" stroke="#000000" points="0,-.5 0,-28.5 101.5957,-28.5 101.5957,-.5 0,-.5"/>
<text text-anchor="start" x="8" y="-16.5" font-family="Helvetica,sans-Serif" font-size="10.00" fill="#000000">fs::VoIPClientProxy</text>
<text text-anchor="middle" x="50.7979" y="-6.5" font-family="Helvetica,sans-Serif" font-size="10.00" fill="#000000">::onCallStarted</text>
</a>
</g>
</g>
<!-- Node60&#45;&gt;Node61 -->
<g id="edge2" class="edge">
<title>Node60&#45;&gt;Node61</title>
<path fill="none" stroke="#191970" d="M127.3874,-14.5C118.7794,-14.5 110.1477,-14.5 101.9433,-14.5"/>
<polygon fill="#191970" stroke="#191970" points="127.4546,-18.0001 137.4546,-14.5 127.4546,-11.0001 127.4546,-18.0001"/>
</g>
</g>
</svg>
