<?xml version="1.0" encoding="UTF-8" standalone="no"?>
<!DOCTYPE svg PUBLIC "-//W3C//DTD SVG 1.1//EN"
 "http://www.w3.org/Graphics/SVG/1.1/DTD/svg11.dtd">
<!-- Generated by graphviz version 2.40.1 (20161225.0304)
 -->
<!-- Title: fs::FSScreenBlocksPkt Pages: 1 -->
<svg width="153pt" height="517pt"
 viewBox="0.00 0.00 153.49 517.00" xmlns="http://www.w3.org/2000/svg" xmlns:xlink="http://www.w3.org/1999/xlink">
<g id="graph0" class="graph" transform="scale(1 1) rotate(0) translate(4 513)">
<title>fs::FSScreenBlocksPkt</title>
<!-- Node2 -->
<g id="node1" class="node">
<title>Node2</title>
<g id="a_node1"><a xlink:title=" ">
<polygon fill="#bfbfbf" stroke="#000000" points="12.9248,-.5 12.9248,-124.5 132.5674,-124.5 132.5674,-.5 12.9248,-.5"/>
<text text-anchor="middle" x="72.7461" y="-112.5" font-family="Helvetica,sans-Serif" font-size="10.00" fill="#000000">fs::FSScreenBlocksPkt</text>
<polyline fill="none" stroke="#000000" points="12.9248,-106.5 132.5674,-106.5 "/>
<text text-anchor="middle" x="72.7461" y="-94.5" font-family="Helvetica,sans-Serif" font-size="10.00" fill="#000000"> </text>
<polyline fill="none" stroke="#000000" points="12.9248,-88.5 132.5674,-88.5 "/>
<text text-anchor="start" x="20.9248" y="-76.5" font-family="Helvetica,sans-Serif" font-size="10.00" fill="#000000">+ FSScreenBlocksPkt()</text>
<text text-anchor="start" x="20.9248" y="-66.5" font-family="Helvetica,sans-Serif" font-size="10.00" fill="#000000">+ blocksCount()</text>
<text text-anchor="start" x="20.9248" y="-56.5" font-family="Helvetica,sans-Serif" font-size="10.00" fill="#000000">+ ids()</text>
<text text-anchor="start" x="20.9248" y="-46.5" font-family="Helvetica,sans-Serif" font-size="10.00" fill="#000000">+ sizes()</text>
<text text-anchor="start" x="20.9248" y="-36.5" font-family="Helvetica,sans-Serif" font-size="10.00" fill="#000000">+ blocks()</text>
<text text-anchor="start" x="20.9248" y="-26.5" font-family="Helvetica,sans-Serif" font-size="10.00" fill="#000000">+ flags()</text>
<text text-anchor="start" x="20.9248" y="-16.5" font-family="Helvetica,sans-Serif" font-size="10.00" fill="#000000">+ setFlags()</text>
<text text-anchor="start" x="20.9248" y="-6.5" font-family="Helvetica,sans-Serif" font-size="10.00" fill="#000000">+ addBlock()</text>
</a>
</g>
</g>
<!-- Node3 -->
<g id="node2" class="node">
<title>Node3</title>
<g id="a_node2"><a xlink:href="classfs_1_1_f_s_packet.html" target="_top" xlink:title=" ">
<polygon fill="none" stroke="#000000" points="32.5122,-162.5 32.5122,-276.5 112.98,-276.5 112.98,-162.5 32.5122,-162.5"/>
<text text-anchor="middle" x="72.7461" y="-264.5" font-family="Helvetica,sans-Serif" font-size="10.00" fill="#000000">fs::FSPacket</text>
<polyline fill="none" stroke="#000000" points="32.5122,-258.5 112.98,-258.5 "/>
<text text-anchor="start" x="40.5122" y="-246.5" font-family="Helvetica,sans-Serif" font-size="10.00" fill="#000000"># m_iType</text>
<polyline fill="none" stroke="#000000" points="32.5122,-240.5 112.98,-240.5 "/>
<text text-anchor="start" x="40.5122" y="-228.5" font-family="Helvetica,sans-Serif" font-size="10.00" fill="#000000">+ FSPacket()</text>
<text text-anchor="start" x="40.5122" y="-218.5" font-family="Helvetica,sans-Serif" font-size="10.00" fill="#000000">+ ~FSPacket()</text>
<text text-anchor="start" x="40.5122" y="-208.5" font-family="Helvetica,sans-Serif" font-size="10.00" fill="#000000">+ type()</text>
<text text-anchor="start" x="40.5122" y="-198.5" font-family="Helvetica,sans-Serif" font-size="10.00" fill="#000000">+ serialize()</text>
<text text-anchor="start" x="40.5122" y="-188.5" font-family="Helvetica,sans-Serif" font-size="10.00" fill="#000000">+ entry()</text>
<text text-anchor="start" x="40.5122" y="-178.5" font-family="Helvetica,sans-Serif" font-size="10.00" fill="#000000">+ setEntry()</text>
<text text-anchor="start" x="40.5122" y="-168.5" font-family="Helvetica,sans-Serif" font-size="10.00" fill="#000000">+ deserialize()</text>
</a>
</g>
</g>
<!-- Node3&#45;&gt;Node2 -->
<g id="edge1" class="edge">
<title>Node3&#45;&gt;Node2</title>
<path fill="none" stroke="#191970" d="M72.7461,-152.1641C72.7461,-143.0182 72.7461,-133.6659 72.7461,-124.6175"/>
<polygon fill="none" stroke="#191970" points="69.2462,-152.3752 72.7461,-162.3753 76.2462,-152.3753 69.2462,-152.3752"/>
</g>
<!-- Node4 -->
<g id="node3" class="node">
<title>Node4</title>
<g id="a_node3"><a xlink:title=" ">
<polygon fill="none" stroke="#bfbfbf" points="0,-323.5 0,-377.5 145.4922,-377.5 145.4922,-323.5 0,-323.5"/>
<text text-anchor="middle" x="72.7461" y="-365.5" font-family="Helvetica,sans-Serif" font-size="10.00" fill="#000000">std::vector&lt; FSPktStream * &gt;</text>
<polyline fill="none" stroke="#bfbfbf" points="0,-359.5 145.4922,-359.5 "/>
<text text-anchor="middle" x="72.7461" y="-347.5" font-family="Helvetica,sans-Serif" font-size="10.00" fill="#000000"> </text>
<polyline fill="none" stroke="#bfbfbf" points="0,-341.5 145.4922,-341.5 "/>
<text text-anchor="middle" x="72.7461" y="-329.5" font-family="Helvetica,sans-Serif" font-size="10.00" fill="#000000"> </text>
</a>
</g>
</g>
<!-- Node4&#45;&gt;Node3 -->
<g id="edge2" class="edge">
<title>Node4&#45;&gt;Node3</title>
<path fill="none" stroke="#404040" d="M72.7461,-323.3567C72.7461,-313.1832 72.7461,-301.1036 72.7461,-288.8438"/>
<polygon fill="none" stroke="#404040" points="72.7462,-288.5878 68.7461,-282.5879 72.7461,-276.5878 76.7461,-282.5878 72.7462,-288.5878"/>
<text text-anchor="middle" x="101.9233" y="-297" font-family="Helvetica,sans-Serif" font-size="10.00" fill="#000000"> #m_xEntries</text>
</g>
<!-- Node5 -->
<g id="node4" class="node">
<title>Node5</title>
<g id="a_node4"><a xlink:href="classfs_1_1_f_s_pkt_stream.html" target="_top" xlink:title=" ">
<polygon fill="none" stroke="#000000" points="24.458,-424.5 24.458,-508.5 121.0342,-508.5 121.0342,-424.5 24.458,-424.5"/>
<text text-anchor="middle" x="72.7461" y="-496.5" font-family="Helvetica,sans-Serif" font-size="10.00" fill="#000000">fs::FSPktStream</text>
<polyline fill="none" stroke="#000000" points="24.458,-490.5 121.0342,-490.5 "/>
<text text-anchor="start" x="32.458" y="-478.5" font-family="Helvetica,sans-Serif" font-size="10.00" fill="#000000"># m_pxObj</text>
<polyline fill="none" stroke="#000000" points="24.458,-472.5 121.0342,-472.5 "/>
<text text-anchor="start" x="32.458" y="-460.5" font-family="Helvetica,sans-Serif" font-size="10.00" fill="#000000">+ ~FSPktStream()</text>
<text text-anchor="start" x="32.458" y="-450.5" font-family="Helvetica,sans-Serif" font-size="10.00" fill="#000000">+ read()</text>
<text text-anchor="start" x="32.458" y="-440.5" font-family="Helvetica,sans-Serif" font-size="10.00" fill="#000000">+ write()</text>
<text text-anchor="start" x="32.458" y="-430.5" font-family="Helvetica,sans-Serif" font-size="10.00" fill="#000000">+ object()</text>
</a>
</g>
</g>
<!-- Node5&#45;&gt;Node4 -->
<g id="edge3" class="edge">
<title>Node5&#45;&gt;Node4</title>
<path fill="none" stroke="#404040" d="M72.7461,-424.2932C72.7461,-412.9972 72.7461,-400.8361 72.7461,-389.7094"/>
<polygon fill="none" stroke="#404040" points="72.7462,-389.6877 68.7461,-383.6877 72.7461,-377.6877 76.7461,-383.6877 72.7462,-389.6877"/>
<text text-anchor="middle" x="97.3433" y="-398" font-family="Helvetica,sans-Serif" font-size="10.00" fill="#000000"> +elements</text>
</g>
</g>
</svg>
