<?xml version="1.0" encoding="UTF-8" standalone="no"?>
<!DOCTYPE svg PUBLIC "-//W3C//DTD SVG 1.1//EN"
 "http://www.w3.org/Graphics/SVG/1.1/DTD/svg11.dtd">
<!-- Generated by graphviz version 2.40.1 (20161225.0304)
 -->
<!-- Title: cx::web::APIv4Wrapper::getEquipmentByPhoneNumber Pages: 1 -->
<svg width="515pt" height="37pt"
 viewBox="0.00 0.00 515.40 37.00" xmlns="http://www.w3.org/2000/svg" xmlns:xlink="http://www.w3.org/1999/xlink">
<g id="graph0" class="graph" transform="scale(1 1) rotate(0) translate(4 33)">
<title>cx::web::APIv4Wrapper::getEquipmentByPhoneNumber</title>
<!-- Node42 -->
<g id="node1" class="node">
<title>Node42</title>
<g id="a_node1"><a xlink:title=" ">
<polygon fill="#bfbfbf" stroke="#000000" points="0,-.5 0,-28.5 159.418,-28.5 159.418,-.5 0,-.5"/>
<text text-anchor="start" x="8" y="-16.5" font-family="Helvetica,sans-Serif" font-size="10.00" fill="#000000">cx::web::APIv4Wrapper</text>
<text text-anchor="middle" x="79.709" y="-6.5" font-family="Helvetica,sans-Serif" font-size="10.00" fill="#000000">::getEquipmentByPhoneNumber</text>
</a>
</g>
</g>
<!-- Node43 -->
<g id="node2" class="node">
<title>Node43</title>
<g id="a_node2"><a xlink:href="classcx_1_1_h_t_t_p_request_container.html#a88443e3419255d1d2bb8503829c4bcaa" target="_top" xlink:title=" ">
<polygon fill="none" stroke="#000000" points="195.418,-.5 195.418,-28.5 333.6885,-28.5 333.6885,-.5 195.418,-.5"/>
<text text-anchor="start" x="203.418" y="-16.5" font-family="Helvetica,sans-Serif" font-size="10.00" fill="#000000">cx::HTTPRequestContainer</text>
<text text-anchor="middle" x="264.5532" y="-6.5" font-family="Helvetica,sans-Serif" font-size="10.00" fill="#000000">::request</text>
</a>
</g>
</g>
<!-- Node42&#45;&gt;Node43 -->
<g id="edge1" class="edge">
<title>Node42&#45;&gt;Node43</title>
<path fill="none" stroke="#191970" d="M159.4408,-14.5C167.9156,-14.5 176.5356,-14.5 185.0084,-14.5"/>
<polygon fill="#191970" stroke="#191970" points="185.2506,-18.0001 195.2506,-14.5 185.2505,-11.0001 185.2506,-18.0001"/>
</g>
<!-- Node44 -->
<g id="node3" class="node">
<title>Node44</title>
<g id="a_node3"><a xlink:href="structcx_1_1_h_t_t_p_request_1_1_request_params.html#aad683476ac9a2874f8a98a530d2b791b" target="_top" xlink:title=" ">
<polygon fill="none" stroke="#000000" points="369.6885,-.5 369.6885,-28.5 507.4023,-28.5 507.4023,-.5 369.6885,-.5"/>
<text text-anchor="start" x="377.6885" y="-16.5" font-family="Helvetica,sans-Serif" font-size="10.00" fill="#000000">cx::HTTPRequest::Request</text>
<text text-anchor="middle" x="438.5454" y="-6.5" font-family="Helvetica,sans-Serif" font-size="10.00" fill="#000000">Params::start</text>
</a>
</g>
</g>
<!-- Node43&#45;&gt;Node44 -->
<g id="edge2" class="edge">
<title>Node43&#45;&gt;Node44</title>
<path fill="none" stroke="#191970" d="M333.8195,-14.5C342.1738,-14.5 350.7559,-14.5 359.2398,-14.5"/>
<polygon fill="#191970" stroke="#191970" points="359.5175,-18.0001 369.5175,-14.5 359.5174,-11.0001 359.5175,-18.0001"/>
</g>
</g>
</svg>
