<?xml version="1.0" encoding="UTF-8" standalone="no"?>
<!DOCTYPE svg PUBLIC "-//W3C//DTD SVG 1.1//EN"
 "http://www.w3.org/Graphics/SVG/1.1/DTD/svg11.dtd">
<!-- Generated by graphviz version 2.40.1 (20161225.0304)
 -->
<!-- Title: fs::Wrapper&lt; T, default_impl &gt; Pages: 1 -->
<svg width="125pt" height="194pt"
 viewBox="0.00 0.00 124.53 194.00" xmlns="http://www.w3.org/2000/svg" xmlns:xlink="http://www.w3.org/1999/xlink">
<g id="graph0" class="graph" transform="scale(1 1) rotate(0) translate(4 190)">
<title>fs::Wrapper&lt; T, default_impl &gt;</title>
<!-- Node2 -->
<g id="node1" class="node">
<title>Node2</title>
<g id="a_node1"><a xlink:title=" ">
<polygon fill="#bfbfbf" stroke="#000000" points="0,-.5 0,-94.5 116.5273,-94.5 116.5273,-.5 0,-.5"/>
<text text-anchor="start" x="8" y="-82.5" font-family="Helvetica,sans-Serif" font-size="10.00" fill="#000000">fs::Wrapper&lt; T, default</text>
<text text-anchor="middle" x="58.2637" y="-72.5" font-family="Helvetica,sans-Serif" font-size="10.00" fill="#000000">_impl &gt;</text>
<polyline fill="none" stroke="#000000" points="0,-66.5 116.5273,-66.5 "/>
<text text-anchor="middle" x="58.2637" y="-54.5" font-family="Helvetica,sans-Serif" font-size="10.00" fill="#000000"> </text>
<polyline fill="none" stroke="#000000" points="0,-48.5 116.5273,-48.5 "/>
<text text-anchor="start" x="8" y="-36.5" font-family="Helvetica,sans-Serif" font-size="10.00" fill="#000000">+ Wrapper()</text>
<text text-anchor="start" x="8" y="-26.5" font-family="Helvetica,sans-Serif" font-size="10.00" fill="#000000">+ get_ptr()</text>
<text text-anchor="start" x="8" y="-16.5" font-family="Helvetica,sans-Serif" font-size="10.00" fill="#000000">+ set_ptr()</text>
<text text-anchor="start" x="8" y="-6.5" font-family="Helvetica,sans-Serif" font-size="10.00" fill="#000000">+ operator&#45;&gt;()</text>
</a>
</g>
</g>
<!-- Node3 -->
<g id="node2" class="node">
<title>Node3</title>
<g id="a_node2"><a xlink:title=" ">
<polygon fill="none" stroke="#bfbfbf" points="23.3032,-131.5 23.3032,-185.5 93.2241,-185.5 93.2241,-131.5 23.3032,-131.5"/>
<text text-anchor="middle" x="58.2637" y="-173.5" font-family="Helvetica,sans-Serif" font-size="10.00" fill="#000000">default_impl</text>
<polyline fill="none" stroke="#bfbfbf" points="23.3032,-167.5 93.2241,-167.5 "/>
<text text-anchor="middle" x="58.2637" y="-155.5" font-family="Helvetica,sans-Serif" font-size="10.00" fill="#000000"> </text>
<polyline fill="none" stroke="#bfbfbf" points="23.3032,-149.5 93.2241,-149.5 "/>
<text text-anchor="middle" x="58.2637" y="-137.5" font-family="Helvetica,sans-Serif" font-size="10.00" fill="#000000"> </text>
</a>
</g>
</g>
<!-- Node3&#45;&gt;Node2 -->
<g id="edge1" class="edge">
<title>Node3&#45;&gt;Node2</title>
<path fill="none" stroke="#191970" d="M58.2637,-121.3237C58.2637,-112.7904 58.2637,-103.6061 58.2637,-94.7123"/>
<polygon fill="none" stroke="#191970" points="54.7638,-121.3463 58.2637,-131.3463 61.7638,-121.3464 54.7638,-121.3463"/>
</g>
</g>
</svg>
