<?xml version="1.0" encoding="UTF-8" standalone="no"?>
<!DOCTYPE svg PUBLIC "-//W3C//DTD SVG 1.1//EN"
 "http://www.w3.org/Graphics/SVG/1.1/DTD/svg11.dtd">
<!-- Generated by graphviz version 2.40.1 (20161225.0304)
 -->
<!-- Title: fs::FSPktEntry&lt; T &gt; Pages: 1 -->
<svg width="111pt" height="204pt"
 viewBox="0.00 0.00 110.89 204.00" xmlns="http://www.w3.org/2000/svg" xmlns:xlink="http://www.w3.org/1999/xlink">
<g id="graph0" class="graph" transform="scale(1 1) rotate(0) translate(4 200)">
<title>fs::FSPktEntry&lt; T &gt;</title>
<!-- Node2 -->
<g id="node1" class="node">
<title>Node2</title>
<g id="a_node1"><a xlink:title=" ">
<polygon fill="#bfbfbf" stroke="#000000" points="0,-.5 0,-74.5 102.8945,-74.5 102.8945,-.5 0,-.5"/>
<text text-anchor="middle" x="51.4473" y="-62.5" font-family="Helvetica,sans-Serif" font-size="10.00" fill="#000000">fs::FSPktEntry&lt; T &gt;</text>
<polyline fill="none" stroke="#000000" points="0,-56.5 102.8945,-56.5 "/>
<text text-anchor="middle" x="51.4473" y="-44.5" font-family="Helvetica,sans-Serif" font-size="10.00" fill="#000000"> </text>
<polyline fill="none" stroke="#000000" points="0,-38.5 102.8945,-38.5 "/>
<text text-anchor="start" x="8" y="-26.5" font-family="Helvetica,sans-Serif" font-size="10.00" fill="#000000">+ FSPktEntry()</text>
<text text-anchor="start" x="8" y="-16.5" font-family="Helvetica,sans-Serif" font-size="10.00" fill="#000000">+ read()</text>
<text text-anchor="start" x="8" y="-6.5" font-family="Helvetica,sans-Serif" font-size="10.00" fill="#000000">+ write()</text>
</a>
</g>
</g>
<!-- Node3 -->
<g id="node2" class="node">
<title>Node3</title>
<g id="a_node2"><a xlink:href="classfs_1_1_f_s_pkt_stream.html" target="_top" xlink:title=" ">
<polygon fill="none" stroke="#000000" points="3.1592,-111.5 3.1592,-195.5 99.7354,-195.5 99.7354,-111.5 3.1592,-111.5"/>
<text text-anchor="middle" x="51.4473" y="-183.5" font-family="Helvetica,sans-Serif" font-size="10.00" fill="#000000">fs::FSPktStream</text>
<polyline fill="none" stroke="#000000" points="3.1592,-177.5 99.7354,-177.5 "/>
<text text-anchor="start" x="11.1592" y="-165.5" font-family="Helvetica,sans-Serif" font-size="10.00" fill="#000000"># m_pxObj</text>
<polyline fill="none" stroke="#000000" points="3.1592,-159.5 99.7354,-159.5 "/>
<text text-anchor="start" x="11.1592" y="-147.5" font-family="Helvetica,sans-Serif" font-size="10.00" fill="#000000">+ ~FSPktStream()</text>
<text text-anchor="start" x="11.1592" y="-137.5" font-family="Helvetica,sans-Serif" font-size="10.00" fill="#000000">+ read()</text>
<text text-anchor="start" x="11.1592" y="-127.5" font-family="Helvetica,sans-Serif" font-size="10.00" fill="#000000">+ write()</text>
<text text-anchor="start" x="11.1592" y="-117.5" font-family="Helvetica,sans-Serif" font-size="10.00" fill="#000000">+ object()</text>
</a>
</g>
</g>
<!-- Node3&#45;&gt;Node2 -->
<g id="edge1" class="edge">
<title>Node3&#45;&gt;Node2</title>
<path fill="none" stroke="#191970" d="M51.4473,-101.0572C51.4473,-92.2275 51.4473,-83.2244 51.4473,-74.8766"/>
<polygon fill="none" stroke="#191970" points="47.9474,-101.2932 51.4473,-111.2932 54.9474,-101.2932 47.9474,-101.2932"/>
</g>
</g>
</svg>
