<?xml version="1.0" encoding="UTF-8" standalone="no"?>
<!DOCTYPE svg PUBLIC "-//W3C//DTD SVG 1.1//EN"
 "http://www.w3.org/Graphics/SVG/1.1/DTD/svg11.dtd">
<!-- Generated by graphviz version 2.40.1 (20161225.0304)
 -->
<!-- Title: fs::AttendeeDecorator::getPrimaryIdentifier Pages: 1 -->
<svg width="337pt" height="178pt"
 viewBox="0.00 0.00 336.72 178.00" xmlns="http://www.w3.org/2000/svg" xmlns:xlink="http://www.w3.org/1999/xlink">
<g id="graph0" class="graph" transform="scale(1 1) rotate(0) translate(4 174)">
<title>fs::AttendeeDecorator::getPrimaryIdentifier</title>
<!-- Node3 -->
<g id="node1" class="node">
<title>Node3</title>
<g id="a_node1"><a xlink:title=" ">
<polygon fill="#bfbfbf" stroke="#000000" points="215.4424,-70.5 215.4424,-98.5 328.7178,-98.5 328.7178,-70.5 215.4424,-70.5"/>
<text text-anchor="start" x="223.4424" y="-86.5" font-family="Helvetica,sans-Serif" font-size="10.00" fill="#000000">fs::AttendeeDecorator</text>
<text text-anchor="middle" x="272.0801" y="-76.5" font-family="Helvetica,sans-Serif" font-size="10.00" fill="#000000">::getPrimaryIdentifier</text>
</a>
</g>
</g>
<!-- Node4 -->
<g id="node2" class="node">
<title>Node4</title>
<g id="a_node2"><a xlink:href="classfs_1_1_attendees_controller.html#a36c0099b3d5b2488207271e1e2b75a6c" target="_top" xlink:title=" ">
<polygon fill="none" stroke="#000000" points="30.8618,-141.5 30.8618,-169.5 148.5806,-169.5 148.5806,-141.5 30.8618,-141.5"/>
<text text-anchor="start" x="38.8618" y="-157.5" font-family="Helvetica,sans-Serif" font-size="10.00" fill="#000000">fs::AttendeesController</text>
<text text-anchor="middle" x="89.7212" y="-147.5" font-family="Helvetica,sans-Serif" font-size="10.00" fill="#000000">::onAttendeeJoined</text>
</a>
</g>
</g>
<!-- Node3&#45;&gt;Node4 -->
<g id="edge1" class="edge">
<title>Node3&#45;&gt;Node4</title>
<path fill="none" stroke="#191970" d="M239.2638,-103.8296C221.9158,-113.4438 200.0046,-124.6544 179.4424,-132.5 169.6769,-136.226 159.0863,-139.5427 148.7191,-142.4177"/>
<polygon fill="#191970" stroke="#191970" points="241.4009,-106.6428 248.3945,-98.6841 237.9643,-100.5444 241.4009,-106.6428"/>
</g>
<!-- Node5 -->
<g id="node3" class="node">
<title>Node5</title>
<g id="a_node3"><a xlink:href="classfs_1_1_attendees_controller.html#aaee9fa6c025a80b78510a4a5dfdc6ee5" target="_top" xlink:title=" ">
<polygon fill="none" stroke="#000000" points="2.5049,-94.5 2.5049,-122.5 176.9375,-122.5 176.9375,-94.5 2.5049,-94.5"/>
<text text-anchor="start" x="10.5049" y="-110.5" font-family="Helvetica,sans-Serif" font-size="10.00" fill="#000000">fs::AttendeesController</text>
<text text-anchor="middle" x="89.7212" y="-100.5" font-family="Helvetica,sans-Serif" font-size="10.00" fill="#000000">::onAttendeeCustomNameChanged</text>
</a>
</g>
</g>
<!-- Node3&#45;&gt;Node5 -->
<g id="edge2" class="edge">
<title>Node3&#45;&gt;Node5</title>
<path fill="none" stroke="#191970" d="M205.2387,-93.2969C196.1047,-94.499 186.6192,-95.7474 177.1868,-96.9888"/>
<polygon fill="#191970" stroke="#191970" points="205.9224,-96.7372 215.3802,-91.9622 205.009,-89.797 205.9224,-96.7372"/>
</g>
<!-- Node6 -->
<g id="node4" class="node">
<title>Node6</title>
<g id="a_node4"><a xlink:href="classfs_1_1_attendees_controller.html#a621b575aaad5a6ee3ab64c0e909bb399" target="_top" xlink:title=" ">
<polygon fill="none" stroke="#000000" points="0,-47.5 0,-75.5 179.4424,-75.5 179.4424,-47.5 0,-47.5"/>
<text text-anchor="start" x="8" y="-63.5" font-family="Helvetica,sans-Serif" font-size="10.00" fill="#000000">fs::AttendeesController</text>
<text text-anchor="middle" x="89.7212" y="-53.5" font-family="Helvetica,sans-Serif" font-size="10.00" fill="#000000">::onAttendeeCallingNumberChanged</text>
</a>
</g>
</g>
<!-- Node3&#45;&gt;Node6 -->
<g id="edge3" class="edge">
<title>Node3&#45;&gt;Node6</title>
<path fill="none" stroke="#191970" d="M205.3072,-76.0783C196.9107,-75.0193 188.2161,-73.9227 179.5379,-72.8281"/>
<polygon fill="#191970" stroke="#191970" points="205.0208,-79.5698 215.3802,-77.3487 205.8968,-72.6248 205.0208,-79.5698"/>
</g>
<!-- Node7 -->
<g id="node5" class="node">
<title>Node7</title>
<g id="a_node5"><a xlink:href="classfs_1_1_attendees_controller.html#a6f56554c6e8a8480d6953935857a00b9" target="_top" xlink:title=" ">
<polygon fill="none" stroke="#000000" points="30.8618,-.5 30.8618,-28.5 148.5806,-28.5 148.5806,-.5 30.8618,-.5"/>
<text text-anchor="start" x="38.8618" y="-16.5" font-family="Helvetica,sans-Serif" font-size="10.00" fill="#000000">fs::AttendeesController</text>
<text text-anchor="middle" x="89.7212" y="-6.5" font-family="Helvetica,sans-Serif" font-size="10.00" fill="#000000">::updateAttendee</text>
</a>
</g>
</g>
<!-- Node3&#45;&gt;Node7 -->
<g id="edge4" class="edge">
<title>Node3&#45;&gt;Node7</title>
<path fill="none" stroke="#191970" d="M238.0455,-65.558C220.8438,-56.5152 199.4271,-46.0482 179.4424,-38.5 169.6377,-34.7968 159.0277,-31.4269 148.6536,-28.4597"/>
<polygon fill="#191970" stroke="#191970" points="236.6623,-68.7871 247.1325,-70.4077 239.9582,-62.6115 236.6623,-68.7871"/>
</g>
</g>
</svg>
