<?xml version="1.0" encoding="UTF-8" standalone="no"?>
<!DOCTYPE svg PUBLIC "-//W3C//DTD SVG 1.1//EN"
 "http://www.w3.org/Graphics/SVG/1.1/DTD/svg11.dtd">
<!-- Generated by graphviz version 2.40.1 (20161225.0304)
 -->
<!-- Title: cx::web::ResultBuilder&lt; T &gt; Pages: 1 -->
<svg width="504pt" height="1255pt"
 viewBox="0.00 0.00 504.38 1255.00" xmlns="http://www.w3.org/2000/svg" xmlns:xlink="http://www.w3.org/1999/xlink">
<g id="graph0" class="graph" transform="scale(1 1) rotate(0) translate(4 1251)">
<title>cx::web::ResultBuilder&lt; T &gt;</title>
<!-- Node3 -->
<g id="node1" class="node">
<title>Node3</title>
<g id="a_node1"><a xlink:title=" ">
<polygon fill="#bfbfbf" stroke="#000000" points="181.9492,-.5 181.9492,-124.5 319.873,-124.5 319.873,-.5 181.9492,-.5"/>
<text text-anchor="middle" x="250.9111" y="-112.5" font-family="Helvetica,sans-Serif" font-size="10.00" fill="#000000">cx::web::ResultBuilder&lt; T &gt;</text>
<polyline fill="none" stroke="#000000" points="181.9492,-106.5 319.873,-106.5 "/>
<text text-anchor="middle" x="250.9111" y="-94.5" font-family="Helvetica,sans-Serif" font-size="10.00" fill="#000000"> </text>
<polyline fill="none" stroke="#000000" points="181.9492,-88.5 319.873,-88.5 "/>
<text text-anchor="start" x="189.9492" y="-76.5" font-family="Helvetica,sans-Serif" font-size="10.00" fill="#000000">+ ResultBuilder()</text>
<text text-anchor="start" x="189.9492" y="-66.5" font-family="Helvetica,sans-Serif" font-size="10.00" fill="#000000">+ OVERRIDE_METHOD()</text>
<text text-anchor="start" x="189.9492" y="-56.5" font-family="Helvetica,sans-Serif" font-size="10.00" fill="#000000">+ OVERRIDE_METHOD()</text>
<text text-anchor="start" x="189.9492" y="-46.5" font-family="Helvetica,sans-Serif" font-size="10.00" fill="#000000">+ OVERRIDE_METHOD()</text>
<text text-anchor="start" x="189.9492" y="-36.5" font-family="Helvetica,sans-Serif" font-size="10.00" fill="#000000">+ ResultBuilder()</text>
<text text-anchor="start" x="189.9492" y="-26.5" font-family="Helvetica,sans-Serif" font-size="10.00" fill="#000000">+ onRequestProgress()</text>
<text text-anchor="start" x="189.9492" y="-16.5" font-family="Helvetica,sans-Serif" font-size="10.00" fill="#000000">+ onRequestSuccess()</text>
<text text-anchor="start" x="189.9492" y="-6.5" font-family="Helvetica,sans-Serif" font-size="10.00" fill="#000000">+ onRequestError()</text>
</a>
</g>
</g>
<!-- Node4 -->
<g id="node2" class="node">
<title>Node4</title>
<g id="a_node2"><a xlink:href="classcx_1_1_h_t_t_p_request_container.html" target="_top" xlink:title=" ">
<polygon fill="none" stroke="#000000" points="61.9951,-254.5 61.9951,-358.5 205.8271,-358.5 205.8271,-254.5 61.9951,-254.5"/>
<text text-anchor="middle" x="133.9111" y="-346.5" font-family="Helvetica,sans-Serif" font-size="10.00" fill="#000000">cx::HTTPRequestContainer</text>
<polyline fill="none" stroke="#000000" points="61.9951,-340.5 205.8271,-340.5 "/>
<text text-anchor="middle" x="133.9111" y="-328.5" font-family="Helvetica,sans-Serif" font-size="10.00" fill="#000000"> </text>
<polyline fill="none" stroke="#000000" points="61.9951,-322.5 205.8271,-322.5 "/>
<text text-anchor="start" x="69.9951" y="-310.5" font-family="Helvetica,sans-Serif" font-size="10.00" fill="#000000">+ HTTPRequestContainer()</text>
<text text-anchor="start" x="69.9951" y="-300.5" font-family="Helvetica,sans-Serif" font-size="10.00" fill="#000000">+ ~HTTPRequestContainer()</text>
<text text-anchor="start" x="69.9951" y="-290.5" font-family="Helvetica,sans-Serif" font-size="10.00" fill="#000000">+ request()</text>
<text text-anchor="start" x="69.9951" y="-280.5" font-family="Helvetica,sans-Serif" font-size="10.00" fill="#000000">+ cancelAll()</text>
<text text-anchor="start" x="69.9951" y="-270.5" font-family="Helvetica,sans-Serif" font-size="10.00" fill="#000000"># onRequestSuccess()</text>
<text text-anchor="start" x="69.9951" y="-260.5" font-family="Helvetica,sans-Serif" font-size="10.00" fill="#000000"># onRequestError()</text>
</a>
</g>
</g>
<!-- Node4&#45;&gt;Node3 -->
<g id="edge1" class="edge">
<title>Node4&#45;&gt;Node3</title>
<path fill="none" stroke="#191970" d="M150.6012,-244.8304C157.9709,-221.1875 167.5585,-194.3076 178.9111,-171 186.5338,-155.3503 196.0847,-139.299 205.7143,-124.5034"/>
<polygon fill="none" stroke="#191970" points="147.2519,-243.8145 147.6825,-254.4006 153.9474,-245.8566 147.2519,-243.8145"/>
</g>
<!-- Node5 -->
<g id="node3" class="node">
<title>Node5</title>
<g id="a_node3"><a xlink:href="structcx_1_1_h_t_t_p_request_1_1_h_t_t_p_request_delegate.html" target="_top" xlink:title=" ">
<polygon fill="none" stroke="#000000" points="0,-673.5 0,-767.5 163.8223,-767.5 163.8223,-673.5 0,-673.5"/>
<text text-anchor="start" x="8" y="-755.5" font-family="Helvetica,sans-Serif" font-size="10.00" fill="#000000">cx::HTTPRequest::HTTPRequest</text>
<text text-anchor="middle" x="81.9111" y="-745.5" font-family="Helvetica,sans-Serif" font-size="10.00" fill="#000000">Delegate</text>
<polyline fill="none" stroke="#000000" points="0,-739.5 163.8223,-739.5 "/>
<text text-anchor="middle" x="81.9111" y="-727.5" font-family="Helvetica,sans-Serif" font-size="10.00" fill="#000000"> </text>
<polyline fill="none" stroke="#000000" points="0,-721.5 163.8223,-721.5 "/>
<text text-anchor="start" x="8" y="-709.5" font-family="Helvetica,sans-Serif" font-size="10.00" fill="#000000">+ ~HTTPRequestDelegate()</text>
<text text-anchor="start" x="8" y="-699.5" font-family="Helvetica,sans-Serif" font-size="10.00" fill="#000000">+ onRequestSuccess()</text>
<text text-anchor="start" x="8" y="-689.5" font-family="Helvetica,sans-Serif" font-size="10.00" fill="#000000">+ onRequestError()</text>
<text text-anchor="start" x="8" y="-679.5" font-family="Helvetica,sans-Serif" font-size="10.00" fill="#000000">+ onRequestProgress()</text>
</a>
</g>
</g>
<!-- Node5&#45;&gt;Node4 -->
<g id="edge2" class="edge">
<title>Node5&#45;&gt;Node4</title>
<path fill="none" stroke="#8b1a1a" d="M89.0787,-663.4351C99.2073,-582.7961 117.5623,-436.662 127.35,-358.7367"/>
<polygon fill="none" stroke="#8b1a1a" points="85.5992,-663.0537 87.8256,-673.412 92.5446,-663.9262 85.5992,-663.0537"/>
</g>
<!-- Node10 -->
<g id="node8" class="node">
<title>Node10</title>
<g id="a_node8"><a xlink:href="classcx_1_1_h_t_t_p_request.html" target="_top" xlink:title=" ">
<polygon fill="none" stroke="#000000" points="175.6528,-377.5 175.6528,-601.5 326.1694,-601.5 326.1694,-377.5 175.6528,-377.5"/>
<text text-anchor="middle" x="250.9111" y="-589.5" font-family="Helvetica,sans-Serif" font-size="10.00" fill="#000000">cx::HTTPRequest</text>
<polyline fill="none" stroke="#000000" points="175.6528,-583.5 326.1694,-583.5 "/>
<text text-anchor="start" x="183.6528" y="-571.5" font-family="Helvetica,sans-Serif" font-size="10.00" fill="#000000"># response</text>
<text text-anchor="start" x="183.6528" y="-561.5" font-family="Helvetica,sans-Serif" font-size="10.00" fill="#000000"># cancelled</text>
<text text-anchor="start" x="183.6528" y="-551.5" font-family="Helvetica,sans-Serif" font-size="10.00" fill="#000000"># completed</text>
<text text-anchor="start" x="183.6528" y="-541.5" font-family="Helvetica,sans-Serif" font-size="10.00" fill="#000000"># httpFinalStatus</text>
<text text-anchor="start" x="183.6528" y="-531.5" font-family="Helvetica,sans-Serif" font-size="10.00" fill="#000000"># bytesArrived</text>
<polyline fill="none" stroke="#000000" points="175.6528,-525.5 326.1694,-525.5 "/>
<text text-anchor="start" x="183.6528" y="-513.5" font-family="Helvetica,sans-Serif" font-size="10.00" fill="#000000">+ execute()</text>
<text text-anchor="start" x="183.6528" y="-503.5" font-family="Helvetica,sans-Serif" font-size="10.00" fill="#000000">+ cancel()</text>
<text text-anchor="start" x="183.6528" y="-493.5" font-family="Helvetica,sans-Serif" font-size="10.00" fill="#000000">+ deliverError()</text>
<text text-anchor="start" x="183.6528" y="-483.5" font-family="Helvetica,sans-Serif" font-size="10.00" fill="#000000">+ getResponse()</text>
<text text-anchor="start" x="183.6528" y="-473.5" font-family="Helvetica,sans-Serif" font-size="10.00" fill="#000000">+ setProxy()</text>
<text text-anchor="start" x="183.6528" y="-463.5" font-family="Helvetica,sans-Serif" font-size="10.00" fill="#000000"># generateRequestHdr()</text>
<text text-anchor="start" x="183.6528" y="-453.5" font-family="Helvetica,sans-Serif" font-size="10.00" fill="#000000"># onFinalResponseReceived()</text>
<text text-anchor="start" x="183.6528" y="-443.5" font-family="Helvetica,sans-Serif" font-size="10.00" fill="#000000"># deliverError()</text>
<text text-anchor="start" x="183.6528" y="-433.5" font-family="Helvetica,sans-Serif" font-size="10.00" fill="#000000"># HTTPRequest()</text>
<text text-anchor="start" x="183.6528" y="-423.5" font-family="Helvetica,sans-Serif" font-size="10.00" fill="#000000"># ~HTTPRequest()</text>
<text text-anchor="start" x="183.6528" y="-413.5" font-family="Helvetica,sans-Serif" font-size="10.00" fill="#000000"># is_json_response()</text>
<text text-anchor="start" x="183.6528" y="-403.5" font-family="Helvetica,sans-Serif" font-size="10.00" fill="#000000"># is_text_response()</text>
<text text-anchor="start" x="183.6528" y="-393.5" font-family="Helvetica,sans-Serif" font-size="10.00" fill="#000000"># is_empty_content_type()</text>
<text text-anchor="start" x="183.6528" y="-383.5" font-family="Helvetica,sans-Serif" font-size="10.00" fill="#000000"># createAuth()</text>
</a>
</g>
</g>
<!-- Node5&#45;&gt;Node10 -->
<g id="edge13" class="edge">
<title>Node5&#45;&gt;Node10</title>
<path fill="none" stroke="#404040" d="M116.3145,-673.4753C131.3949,-652.8624 149.8071,-627.6955 168.1127,-602.6742"/>
<polygon fill="none" stroke="#404040" points="168.3034,-602.4135 168.6179,-595.2092 175.3889,-592.7286 175.0744,-599.9329 168.3034,-602.4135"/>
<text text-anchor="middle" x="192.7729" y="-622" font-family="Helvetica,sans-Serif" font-size="10.00" fill="#000000"> #requestDelegate</text>
</g>
<!-- Node6 -->
<g id="node4" class="node">
<title>Node6</title>
<g id="a_node4"><a xlink:href="structcx_1_1web_1_1_configuration.html" target="_top" xlink:title=" ">
<polygon fill="none" stroke="#000000" points="381.4409,-811.5 381.4409,-895.5 496.3813,-895.5 496.3813,-811.5 381.4409,-811.5"/>
<text text-anchor="middle" x="438.9111" y="-883.5" font-family="Helvetica,sans-Serif" font-size="10.00" fill="#000000">cx::web::Configuration</text>
<polyline fill="none" stroke="#000000" points="381.4409,-877.5 496.3813,-877.5 "/>
<text text-anchor="start" x="389.4409" y="-865.5" font-family="Helvetica,sans-Serif" font-size="10.00" fill="#000000">+ version</text>
<polyline fill="none" stroke="#000000" points="381.4409,-859.5 496.3813,-859.5 "/>
<text text-anchor="start" x="389.4409" y="-847.5" font-family="Helvetica,sans-Serif" font-size="10.00" fill="#000000">+ Configuration()</text>
<text text-anchor="start" x="389.4409" y="-837.5" font-family="Helvetica,sans-Serif" font-size="10.00" fill="#000000">+ Configuration()</text>
<text text-anchor="start" x="389.4409" y="-827.5" font-family="Helvetica,sans-Serif" font-size="10.00" fill="#000000">+ Configuration()</text>
<text text-anchor="start" x="389.4409" y="-817.5" font-family="Helvetica,sans-Serif" font-size="10.00" fill="#000000">* version</text>
</a>
</g>
</g>
<!-- Node6&#45;&gt;Node3 -->
<g id="edge3" class="edge">
<title>Node6&#45;&gt;Node3</title>
<path fill="none" stroke="#404040" d="M438.9111,-811.3855C438.9111,-765.5377 438.9111,-690.059 438.9111,-625 438.9111,-625 438.9111,-625 438.9111,-203.5 438.9111,-146.2005 382.3277,-109.3338 331.2456,-87.7264"/>
<polygon fill="none" stroke="#404040" points="331.2356,-87.7224 324.1724,-89.1755 320.1145,-83.2145 327.1777,-81.7614 331.2356,-87.7224"/>
<text text-anchor="middle" x="456.4233" y="-486.5" font-family="Helvetica,sans-Serif" font-size="10.00" fill="#000000"> #config</text>
</g>
<!-- Node7 -->
<g id="node5" class="node">
<title>Node7</title>
<g id="a_node5"><a xlink:title="STL class.">
<polygon fill="none" stroke="#bfbfbf" points="326.2363,-1090.5 326.2363,-1144.5 385.5859,-1144.5 385.5859,-1090.5 326.2363,-1090.5"/>
<text text-anchor="middle" x="355.9111" y="-1132.5" font-family="Helvetica,sans-Serif" font-size="10.00" fill="#000000">std::string</text>
<polyline fill="none" stroke="#bfbfbf" points="326.2363,-1126.5 385.5859,-1126.5 "/>
<text text-anchor="middle" x="355.9111" y="-1114.5" font-family="Helvetica,sans-Serif" font-size="10.00" fill="#000000"> </text>
<polyline fill="none" stroke="#bfbfbf" points="326.2363,-1108.5 385.5859,-1108.5 "/>
<text text-anchor="middle" x="355.9111" y="-1096.5" font-family="Helvetica,sans-Serif" font-size="10.00" fill="#000000"> </text>
</a>
</g>
</g>
<!-- Node7&#45;&gt;Node6 -->
<g id="edge4" class="edge">
<title>Node7&#45;&gt;Node6</title>
<path fill="none" stroke="#404040" d="M385.6413,-1097.6213C394.3065,-1090.4843 403.0177,-1081.7578 408.9111,-1072 438.9854,-1022.2058 443.93,-954.56 442.9796,-907.7875"/>
<polygon fill="none" stroke="#404040" points="442.9792,-907.7702 438.7903,-901.9005 442.5974,-895.7762 446.7863,-901.6459 442.9792,-907.7702"/>
<text text-anchor="middle" x="452.8999" y="-1064" font-family="Helvetica,sans-Serif" font-size="10.00" fill="#000000"> +client_id</text>
<text text-anchor="middle" x="452.8999" y="-1054" font-family="Helvetica,sans-Serif" font-size="10.00" fill="#000000">+client_secret</text>
<text text-anchor="middle" x="452.8999" y="-1044" font-family="Helvetica,sans-Serif" font-size="10.00" fill="#000000">+base_url</text>
</g>
<!-- Node12 -->
<g id="node10" class="node">
<title>Node12</title>
<g id="a_node10"><a xlink:href="structcx_1_1_h_t_t_p_request_1_1_request_params.html" target="_top" xlink:title=" ">
<polygon fill="none" stroke="#000000" points="182.0542,-648.5 182.0542,-792.5 319.7681,-792.5 319.7681,-648.5 182.0542,-648.5"/>
<text text-anchor="start" x="190.0542" y="-780.5" font-family="Helvetica,sans-Serif" font-size="10.00" fill="#000000">cx::HTTPRequest::Request</text>
<text text-anchor="middle" x="250.9111" y="-770.5" font-family="Helvetica,sans-Serif" font-size="10.00" fill="#000000">Params</text>
<polyline fill="none" stroke="#000000" points="182.0542,-764.5 319.7681,-764.5 "/>
<text text-anchor="start" x="190.0542" y="-752.5" font-family="Helvetica,sans-Serif" font-size="10.00" fill="#000000">+ output</text>
<text text-anchor="start" x="190.0542" y="-742.5" font-family="Helvetica,sans-Serif" font-size="10.00" fill="#000000">+ fileName</text>
<text text-anchor="start" x="190.0542" y="-732.5" font-family="Helvetica,sans-Serif" font-size="10.00" fill="#000000">+ method</text>
<text text-anchor="start" x="190.0542" y="-722.5" font-family="Helvetica,sans-Serif" font-size="10.00" fill="#000000">+ proxyPort</text>
<text text-anchor="start" x="190.0542" y="-712.5" font-family="Helvetica,sans-Serif" font-size="10.00" fill="#000000">+ needProgress</text>
<text text-anchor="start" x="190.0542" y="-702.5" font-family="Helvetica,sans-Serif" font-size="10.00" fill="#000000">+ needUploadProgress</text>
<text text-anchor="start" x="190.0542" y="-692.5" font-family="Helvetica,sans-Serif" font-size="10.00" fill="#000000">+ upload</text>
<polyline fill="none" stroke="#000000" points="182.0542,-686.5 319.7681,-686.5 "/>
<text text-anchor="start" x="190.0542" y="-674.5" font-family="Helvetica,sans-Serif" font-size="10.00" fill="#000000">+ RequestParams()</text>
<text text-anchor="start" x="190.0542" y="-664.5" font-family="Helvetica,sans-Serif" font-size="10.00" fill="#000000">+ RequestParams()</text>
<text text-anchor="start" x="190.0542" y="-654.5" font-family="Helvetica,sans-Serif" font-size="10.00" fill="#000000">+ start()</text>
</a>
</g>
</g>
<!-- Node7&#45;&gt;Node12 -->
<g id="edge12" class="edge">
<title>Node7&#45;&gt;Node12</title>
<path fill="none" stroke="#404040" d="M326.1902,-1107.4109C292.4944,-1094.1804 239.2381,-1067.4078 216.042,-1024 179.8613,-956.2935 195.7401,-868.1285 216.3759,-804.2831"/>
<polygon fill="none" stroke="#404040" points="216.4596,-804.0332 214.5736,-797.0731 220.2729,-792.6552 222.1589,-799.6153 216.4596,-804.0332"/>
<text text-anchor="middle" x="254.8457" y="-1016" font-family="Helvetica,sans-Serif" font-size="10.00" fill="#000000"> +auth</text>
<text text-anchor="middle" x="254.8457" y="-1006" font-family="Helvetica,sans-Serif" font-size="10.00" fill="#000000">+url</text>
<text text-anchor="middle" x="254.8457" y="-996" font-family="Helvetica,sans-Serif" font-size="10.00" fill="#000000">+password</text>
<text text-anchor="middle" x="254.8457" y="-986" font-family="Helvetica,sans-Serif" font-size="10.00" fill="#000000">+strHeaders</text>
<text text-anchor="middle" x="254.8457" y="-976" font-family="Helvetica,sans-Serif" font-size="10.00" fill="#000000">+attachFileName</text>
<text text-anchor="middle" x="254.8457" y="-966" font-family="Helvetica,sans-Serif" font-size="10.00" fill="#000000">+globalProxy</text>
<text text-anchor="middle" x="254.8457" y="-956" font-family="Helvetica,sans-Serif" font-size="10.00" fill="#000000">+body</text>
<text text-anchor="middle" x="254.8457" y="-946" font-family="Helvetica,sans-Serif" font-size="10.00" fill="#000000">+proxyHost</text>
<text text-anchor="middle" x="254.8457" y="-936" font-family="Helvetica,sans-Serif" font-size="10.00" fill="#000000">+strContentType</text>
<text text-anchor="middle" x="254.8457" y="-926" font-family="Helvetica,sans-Serif" font-size="10.00" fill="#000000">+username</text>
<text text-anchor="middle" x="254.8457" y="-916" font-family="Helvetica,sans-Serif" font-size="10.00" fill="#000000">...</text>
</g>
<!-- Node13 -->
<g id="node11" class="node">
<title>Node13</title>
<g id="a_node11"><a xlink:title=" ">
<polygon fill="none" stroke="#bfbfbf" points="301.3633,-937 301.3633,-1001 410.459,-1001 410.459,-937 301.3633,-937"/>
<text text-anchor="start" x="309.3633" y="-989" font-family="Helvetica,sans-Serif" font-size="10.00" fill="#000000">std::map&lt; std::string,</text>
<text text-anchor="middle" x="355.9111" y="-979" font-family="Helvetica,sans-Serif" font-size="10.00" fill="#000000"> std::string &gt;</text>
<polyline fill="none" stroke="#bfbfbf" points="301.3633,-973 410.459,-973 "/>
<text text-anchor="middle" x="355.9111" y="-961" font-family="Helvetica,sans-Serif" font-size="10.00" fill="#000000"> </text>
<polyline fill="none" stroke="#bfbfbf" points="301.3633,-955 410.459,-955 "/>
<text text-anchor="middle" x="355.9111" y="-943" font-family="Helvetica,sans-Serif" font-size="10.00" fill="#000000"> </text>
</a>
</g>
</g>
<!-- Node7&#45;&gt;Node13 -->
<g id="edge11" class="edge">
<title>Node7&#45;&gt;Node13</title>
<path fill="none" stroke="#404040" d="M355.9111,-1090.2628C355.9111,-1068.7738 355.9111,-1038.36 355.9111,-1013.3676"/>
<polygon fill="none" stroke="#404040" points="355.9112,-1013.2337 351.9112,-1007.2338 355.9111,-1001.2337 359.9112,-1007.2337 355.9112,-1013.2337"/>
<text text-anchor="middle" x="380.5083" y="-1059" font-family="Helvetica,sans-Serif" font-size="10.00" fill="#000000"> +elements</text>
<text text-anchor="middle" x="380.5083" y="-1049" font-family="Helvetica,sans-Serif" font-size="10.00" fill="#000000">+keys</text>
</g>
<!-- Node8 -->
<g id="node6" class="node">
<title>Node8</title>
<g id="a_node6"><a xlink:title="STL class.">
<polygon fill="none" stroke="#bfbfbf" points="308.8633,-1182.5 308.8633,-1246.5 402.959,-1246.5 402.959,-1182.5 308.8633,-1182.5"/>
<text text-anchor="start" x="316.8633" y="-1234.5" font-family="Helvetica,sans-Serif" font-size="10.00" fill="#000000">std::basic_string&lt;</text>
<text text-anchor="middle" x="355.9111" y="-1224.5" font-family="Helvetica,sans-Serif" font-size="10.00" fill="#000000"> char &gt;</text>
<polyline fill="none" stroke="#bfbfbf" points="308.8633,-1218.5 402.959,-1218.5 "/>
<text text-anchor="middle" x="355.9111" y="-1206.5" font-family="Helvetica,sans-Serif" font-size="10.00" fill="#000000"> </text>
<polyline fill="none" stroke="#bfbfbf" points="308.8633,-1200.5 402.959,-1200.5 "/>
<text text-anchor="middle" x="355.9111" y="-1188.5" font-family="Helvetica,sans-Serif" font-size="10.00" fill="#000000"> </text>
</a>
</g>
</g>
<!-- Node8&#45;&gt;Node7 -->
<g id="edge5" class="edge">
<title>Node8&#45;&gt;Node7</title>
<path fill="none" stroke="#191970" d="M355.9111,-1172.4397C355.9111,-1163.0133 355.9111,-1153.2564 355.9111,-1144.6277"/>
<polygon fill="none" stroke="#191970" points="352.4112,-1172.4697 355.9111,-1182.4697 359.4112,-1172.4698 352.4112,-1172.4697"/>
</g>
<!-- Node9 -->
<g id="node7" class="node">
<title>Node9</title>
<g id="a_node7"><a xlink:title=" ">
<polygon fill="none" stroke="#bfbfbf" points="187.75,-171.5 187.75,-235.5 314.0723,-235.5 314.0723,-171.5 187.75,-171.5"/>
<text text-anchor="start" x="195.75" y="-223.5" font-family="Helvetica,sans-Serif" font-size="10.00" fill="#000000">std::map&lt; HTTPRequest</text>
<text text-anchor="middle" x="250.9111" y="-213.5" font-family="Helvetica,sans-Serif" font-size="10.00" fill="#000000"> *, Handler_t &gt;</text>
<polyline fill="none" stroke="#bfbfbf" points="187.75,-207.5 314.0723,-207.5 "/>
<text text-anchor="start" x="195.75" y="-195.5" font-family="Helvetica,sans-Serif" font-size="10.00" fill="#000000">+ elements</text>
<polyline fill="none" stroke="#bfbfbf" points="187.75,-189.5 314.0723,-189.5 "/>
<text text-anchor="middle" x="250.9111" y="-177.5" font-family="Helvetica,sans-Serif" font-size="10.00" fill="#000000"> </text>
</a>
</g>
</g>
<!-- Node9&#45;&gt;Node3 -->
<g id="edge6" class="edge">
<title>Node9&#45;&gt;Node3</title>
<path fill="none" stroke="#404040" d="M250.9111,-171.1518C250.9111,-160.7854 250.9111,-148.8442 250.9111,-136.7553"/>
<polygon fill="none" stroke="#404040" points="250.9112,-136.6701 246.9112,-130.6701 250.9111,-124.6701 254.9112,-130.6701 250.9112,-136.6701"/>
<text text-anchor="middle" x="287.3223" y="-145" font-family="Helvetica,sans-Serif" font-size="10.00" fill="#000000"> #active_queries</text>
</g>
<!-- Node10&#45;&gt;Node9 -->
<g id="edge7" class="edge">
<title>Node10&#45;&gt;Node9</title>
<path fill="none" stroke="#404040" d="M250.9111,-377.2861C250.9111,-331.9886 250.9111,-282.3646 250.9111,-247.7834"/>
<polygon fill="none" stroke="#404040" points="250.9112,-247.7595 246.9112,-241.7595 250.9111,-235.7595 254.9112,-241.7594 250.9112,-247.7595"/>
<text text-anchor="middle" x="265.501" y="-303.5" font-family="Helvetica,sans-Serif" font-size="10.00" fill="#000000"> +keys</text>
</g>
<!-- Node11 -->
<g id="node9" class="node">
<title>Node11</title>
<g id="a_node9"><a xlink:title=" ">
<polygon fill="none" stroke="#bfbfbf" points="337.2881,-693.5 337.2881,-747.5 410.5342,-747.5 410.5342,-693.5 337.2881,-693.5"/>
<text text-anchor="middle" x="373.9111" y="-735.5" font-family="Helvetica,sans-Serif" font-size="10.00" fill="#000000">HTTPLoader</text>
<polyline fill="none" stroke="#bfbfbf" points="337.2881,-729.5 410.5342,-729.5 "/>
<text text-anchor="middle" x="373.9111" y="-717.5" font-family="Helvetica,sans-Serif" font-size="10.00" fill="#000000"> </text>
<polyline fill="none" stroke="#bfbfbf" points="337.2881,-711.5 410.5342,-711.5 "/>
<text text-anchor="middle" x="373.9111" y="-699.5" font-family="Helvetica,sans-Serif" font-size="10.00" fill="#000000"> </text>
</a>
</g>
</g>
<!-- Node11&#45;&gt;Node10 -->
<g id="edge8" class="edge">
<title>Node11&#45;&gt;Node10</title>
<path fill="none" stroke="#191970" d="M359.7038,-683.7822C351.8635,-664.4857 341.5724,-640.6233 330.9111,-620 327.7992,-613.9803 324.5135,-607.865 321.1195,-601.7328"/>
<polygon fill="none" stroke="#191970" points="356.4843,-685.1575 363.4577,-693.1339 362.9805,-682.5498 356.4843,-685.1575"/>
</g>
<!-- Node12&#45;&gt;Node10 -->
<g id="edge9" class="edge">
<title>Node12&#45;&gt;Node10</title>
<path fill="none" stroke="#404040" d="M250.9111,-648.3603C250.9111,-637.3563 250.9111,-625.7381 250.9111,-613.995"/>
<polygon fill="none" stroke="#404040" points="250.9112,-613.7329 246.9112,-607.7329 250.9111,-601.7329 254.9112,-607.7329 250.9112,-613.7329"/>
<text text-anchor="middle" x="288.9849" y="-622" font-family="Helvetica,sans-Serif" font-size="10.00" fill="#000000"> #requestParams</text>
</g>
<!-- Node13&#45;&gt;Node12 -->
<g id="edge10" class="edge">
<title>Node13&#45;&gt;Node12</title>
<path fill="none" stroke="#404040" d="M342.2919,-936.7677C328.1178,-903.2225 305.3416,-849.3189 286.0746,-803.7202"/>
<polygon fill="none" stroke="#404040" points="286.0578,-803.6802 280.0379,-799.7103 281.3871,-792.6265 287.407,-796.5965 286.0578,-803.6802"/>
<text text-anchor="middle" x="345.8999" y="-855.5" font-family="Helvetica,sans-Serif" font-size="10.00" fill="#000000"> +params</text>
<text text-anchor="middle" x="345.8999" y="-845.5" font-family="Helvetica,sans-Serif" font-size="10.00" fill="#000000">+headers</text>
</g>
</g>
</svg>
