<?xml version="1.0" encoding="UTF-8" standalone="no"?>
<!DOCTYPE svg PUBLIC "-//W3C//DTD SVG 1.1//EN"
 "http://www.w3.org/Graphics/SVG/1.1/DTD/svg11.dtd">
<!-- Generated by graphviz version 2.40.1 (20161225.0304)
 -->
<!-- Title: fs::ScreenSharingController::disableScreenSharing Pages: 1 -->
<svg width="497pt" height="84pt"
 viewBox="0.00 0.00 496.51 84.00" xmlns="http://www.w3.org/2000/svg" xmlns:xlink="http://www.w3.org/1999/xlink">
<g id="graph0" class="graph" transform="scale(1 1) rotate(0) translate(4 80)">
<title>fs::ScreenSharingController::disableScreenSharing</title>
<!-- Node22 -->
<g id="node1" class="node">
<title>Node22</title>
<g id="a_node1"><a xlink:title=" ">
<polygon fill="#bfbfbf" stroke="#000000" points="0,-23.5 0,-51.5 138.8369,-51.5 138.8369,-23.5 0,-23.5"/>
<text text-anchor="start" x="8" y="-39.5" font-family="Helvetica,sans-Serif" font-size="10.00" fill="#000000">fs::ScreenSharingController</text>
<text text-anchor="middle" x="69.4185" y="-29.5" font-family="Helvetica,sans-Serif" font-size="10.00" fill="#000000">::disableScreenSharing</text>
</a>
</g>
</g>
<!-- Node23 -->
<g id="node2" class="node">
<title>Node23</title>
<g id="a_node2"><a xlink:href="classfs_1_1_screen_sharing_controller.html#a9e9c38a80d4f7e5ca8ff6f2093eff8b3" target="_top" xlink:title=" ">
<polygon fill="none" stroke="#000000" points="174.8369,-23.5 174.8369,-51.5 313.6738,-51.5 313.6738,-23.5 174.8369,-23.5"/>
<text text-anchor="start" x="182.8369" y="-39.5" font-family="Helvetica,sans-Serif" font-size="10.00" fill="#000000">fs::ScreenSharingController</text>
<text text-anchor="middle" x="244.2554" y="-29.5" font-family="Helvetica,sans-Serif" font-size="10.00" fill="#000000">::stopScreenSharing</text>
</a>
</g>
</g>
<!-- Node22&#45;&gt;Node23 -->
<g id="edge1" class="edge">
<title>Node22&#45;&gt;Node23</title>
<path fill="none" stroke="#191970" d="M139.021,-37.5C147.3482,-37.5 155.9006,-37.5 164.3584,-37.5"/>
<polygon fill="#191970" stroke="#191970" points="164.6067,-41.0001 174.6067,-37.5 164.6066,-34.0001 164.6067,-41.0001"/>
</g>
<!-- Node24 -->
<g id="node3" class="node">
<title>Node24</title>
<g id="a_node3"><a xlink:href="classfs_1_1_screen_sharing_controller.html#af3820fa110e9ee3579a100f59f3488cc" target="_top" xlink:title=" ">
<polygon fill="none" stroke="#000000" points="349.6738,-47.5 349.6738,-75.5 488.5107,-75.5 488.5107,-47.5 349.6738,-47.5"/>
<text text-anchor="start" x="357.6738" y="-63.5" font-family="Helvetica,sans-Serif" font-size="10.00" fill="#000000">fs::ScreenSharingController</text>
<text text-anchor="middle" x="419.0923" y="-53.5" font-family="Helvetica,sans-Serif" font-size="10.00" fill="#000000">::getPresenterId</text>
</a>
</g>
</g>
<!-- Node23&#45;&gt;Node24 -->
<g id="edge2" class="edge">
<title>Node23&#45;&gt;Node24</title>
<path fill="none" stroke="#191970" d="M313.8579,-47.0544C322.2766,-48.21 330.9255,-49.3973 339.4741,-50.5708"/>
<polygon fill="#191970" stroke="#191970" points="339.0605,-54.0467 349.4436,-51.9393 340.0125,-47.1117 339.0605,-54.0467"/>
</g>
<!-- Node25 -->
<g id="node4" class="node">
<title>Node25</title>
<g id="a_node4"><a xlink:href="classfs_1_1_screen_sharing_controller.html#a1099e31f1e66a059b03ec205d466cbbc" target="_top" xlink:title=" ">
<polygon fill="none" stroke="#000000" points="349.6738,-.5 349.6738,-28.5 488.5107,-28.5 488.5107,-.5 349.6738,-.5"/>
<text text-anchor="start" x="357.6738" y="-16.5" font-family="Helvetica,sans-Serif" font-size="10.00" fill="#000000">fs::ScreenSharingController</text>
<text text-anchor="middle" x="419.0923" y="-6.5" font-family="Helvetica,sans-Serif" font-size="10.00" fill="#000000">::isPresenter</text>
</a>
</g>
</g>
<!-- Node23&#45;&gt;Node25 -->
<g id="edge3" class="edge">
<title>Node23&#45;&gt;Node25</title>
<path fill="none" stroke="#191970" d="M313.8579,-28.3437C322.2766,-27.2362 330.9255,-26.0984 339.4741,-24.9739"/>
<polygon fill="#191970" stroke="#191970" points="339.9855,-28.4368 349.4436,-23.6624 339.0725,-21.4966 339.9855,-28.4368"/>
</g>
</g>
</svg>
