<?xml version="1.0" encoding="UTF-8" standalone="no"?>
<!DOCTYPE svg PUBLIC "-//W3C//DTD SVG 1.1//EN"
 "http://www.w3.org/Graphics/SVG/1.1/DTD/svg11.dtd">
<!-- Generated by graphviz version 2.40.1 (20161225.0304)
 -->
<!-- Title: fs::BroadcasterNotifications Pages: 1 -->
<svg width="378pt" height="989pt"
 viewBox="0.00 0.00 378.17 989.00" xmlns="http://www.w3.org/2000/svg" xmlns:xlink="http://www.w3.org/1999/xlink">
<g id="graph0" class="graph" transform="scale(1 1) rotate(0) translate(4 985)">
<title>fs::BroadcasterNotifications</title>
<!-- Node0 -->
<g id="node1" class="node">
<title>Node0</title>
<g id="a_node1"><a xlink:title=" ">
<polygon fill="#bfbfbf" stroke="#000000" points="109.8804,-916.5 109.8804,-980.5 255.3823,-980.5 255.3823,-916.5 109.8804,-916.5"/>
<text text-anchor="middle" x="182.6313" y="-968.5" font-family="Helvetica,sans-Serif" font-size="10.00" fill="#000000">fs::BroadcasterNotifications</text>
<polyline fill="none" stroke="#000000" points="109.8804,-962.5 255.3823,-962.5 "/>
<text text-anchor="middle" x="182.6313" y="-950.5" font-family="Helvetica,sans-Serif" font-size="10.00" fill="#000000"> </text>
<polyline fill="none" stroke="#000000" points="109.8804,-944.5 255.3823,-944.5 "/>
<text text-anchor="start" x="117.8804" y="-932.5" font-family="Helvetica,sans-Serif" font-size="10.00" fill="#000000">+ ~BroadcasterNotifications()</text>
<text text-anchor="start" x="117.8804" y="-922.5" font-family="Helvetica,sans-Serif" font-size="10.00" fill="#000000">+ ABSTRACT_METHOD()</text>
</a>
</g>
</g>
<!-- Node1 -->
<g id="node2" class="node">
<title>Node1</title>
<g id="a_node2"><a xlink:href="classfs_1_1_broadcaster_presentation_notifications.html" target="_top" xlink:title=" ">
<polygon fill="none" stroke="#000000" points="20.3706,-785.5 20.3706,-879.5 160.8921,-879.5 160.8921,-785.5 20.3706,-785.5"/>
<text text-anchor="start" x="28.3706" y="-867.5" font-family="Helvetica,sans-Serif" font-size="10.00" fill="#000000">fs::BroadcasterPresentation</text>
<text text-anchor="middle" x="90.6313" y="-857.5" font-family="Helvetica,sans-Serif" font-size="10.00" fill="#000000">Notifications</text>
<polyline fill="none" stroke="#000000" points="20.3706,-851.5 160.8921,-851.5 "/>
<text text-anchor="middle" x="90.6313" y="-839.5" font-family="Helvetica,sans-Serif" font-size="10.00" fill="#000000"> </text>
<polyline fill="none" stroke="#000000" points="20.3706,-833.5 160.8921,-833.5 "/>
<text text-anchor="start" x="28.3706" y="-821.5" font-family="Helvetica,sans-Serif" font-size="10.00" fill="#000000">+ ~BroadcasterPresentation</text>
<text text-anchor="start" x="28.3706" y="-811.5" font-family="Helvetica,sans-Serif" font-size="10.00" fill="#000000">Notifications()</text>
<text text-anchor="start" x="28.3706" y="-801.5" font-family="Helvetica,sans-Serif" font-size="10.00" fill="#000000">+ ABSTRACT_METHOD()</text>
<text text-anchor="start" x="28.3706" y="-791.5" font-family="Helvetica,sans-Serif" font-size="10.00" fill="#000000">+ ABSTRACT_METHOD()</text>
</a>
</g>
</g>
<!-- Node0&#45;&gt;Node1 -->
<g id="edge1" class="edge">
<title>Node0&#45;&gt;Node1</title>
<path fill="none" stroke="#191970" d="M150.9185,-908.5142C143.5306,-899.1991 135.5969,-889.1956 127.9901,-879.6045"/>
<polygon fill="none" stroke="#191970" points="148.2922,-910.8353 157.2484,-916.4954 153.7767,-906.4855 148.2922,-910.8353"/>
</g>
<!-- Node7 -->
<g id="node8" class="node">
<title>Node7</title>
<g id="a_node8"><a xlink:href="classfs_1_1_broadcaster_recording_notifications.html" target="_top" xlink:title=" ">
<polygon fill="none" stroke="#000000" points="179.0898,-790.5 179.0898,-874.5 370.1729,-874.5 370.1729,-790.5 179.0898,-790.5"/>
<text text-anchor="start" x="187.0898" y="-862.5" font-family="Helvetica,sans-Serif" font-size="10.00" fill="#000000">fs::BroadcasterRecording</text>
<text text-anchor="middle" x="274.6313" y="-852.5" font-family="Helvetica,sans-Serif" font-size="10.00" fill="#000000">Notifications</text>
<polyline fill="none" stroke="#000000" points="179.0898,-846.5 370.1729,-846.5 "/>
<text text-anchor="middle" x="274.6313" y="-834.5" font-family="Helvetica,sans-Serif" font-size="10.00" fill="#000000"> </text>
<polyline fill="none" stroke="#000000" points="179.0898,-828.5 370.1729,-828.5 "/>
<text text-anchor="start" x="187.0898" y="-816.5" font-family="Helvetica,sans-Serif" font-size="10.00" fill="#000000">+ ~BroadcasterRecordingNotifications()</text>
<text text-anchor="start" x="187.0898" y="-806.5" font-family="Helvetica,sans-Serif" font-size="10.00" fill="#000000">+ ABSTRACT_METHOD()</text>
<text text-anchor="start" x="187.0898" y="-796.5" font-family="Helvetica,sans-Serif" font-size="10.00" fill="#000000">+ ABSTRACT_METHOD()</text>
</a>
</g>
</g>
<!-- Node0&#45;&gt;Node7 -->
<g id="edge7" class="edge">
<title>Node0&#45;&gt;Node7</title>
<path fill="none" stroke="#191970" d="M214.4259,-908.4112C223.0274,-897.5659 232.3636,-885.7941 241.0593,-874.83"/>
<polygon fill="none" stroke="#191970" points="211.486,-906.4855 208.0143,-916.4954 216.9705,-910.8353 211.486,-906.4855"/>
</g>
<!-- Node2 -->
<g id="node3" class="node">
<title>Node2</title>
<g id="a_node3"><a xlink:href="classfs_1_1_i_broadcaster_presentation_notifications_delegate.html" target="_top" xlink:title=" ">
<polygon fill="none" stroke="#000000" points="18.9814,-674.5 18.9814,-748.5 162.2813,-748.5 162.2813,-674.5 18.9814,-674.5"/>
<text text-anchor="start" x="26.9814" y="-736.5" font-family="Helvetica,sans-Serif" font-size="10.00" fill="#000000">fs::IBroadcasterPresentation</text>
<text text-anchor="middle" x="90.6313" y="-726.5" font-family="Helvetica,sans-Serif" font-size="10.00" fill="#000000">NotificationsDelegate</text>
<polyline fill="none" stroke="#000000" points="18.9814,-720.5 162.2813,-720.5 "/>
<text text-anchor="middle" x="90.6313" y="-708.5" font-family="Helvetica,sans-Serif" font-size="10.00" fill="#000000"> </text>
<polyline fill="none" stroke="#000000" points="18.9814,-702.5 162.2813,-702.5 "/>
<text text-anchor="start" x="26.9814" y="-690.5" font-family="Helvetica,sans-Serif" font-size="10.00" fill="#000000">+ ~IBroadcasterPresentation</text>
<text text-anchor="start" x="26.9814" y="-680.5" font-family="Helvetica,sans-Serif" font-size="10.00" fill="#000000">NotificationsDelegate()</text>
</a>
</g>
</g>
<!-- Node1&#45;&gt;Node2 -->
<g id="edge2" class="edge">
<title>Node1&#45;&gt;Node2</title>
<path fill="none" stroke="#191970" d="M90.6313,-775.2279C90.6313,-766.1684 90.6313,-757.0122 90.6313,-748.5748"/>
<polygon fill="none" stroke="#191970" points="87.1314,-775.3717 90.6313,-785.3718 94.1314,-775.3718 87.1314,-775.3717"/>
</g>
<!-- Node3 -->
<g id="node4" class="node">
<title>Node3</title>
<g id="a_node4"><a xlink:href="classfs_1_1_broadcaster_presentation_notifications_null_delegate.html" target="_top" xlink:title=" ">
<polygon fill="none" stroke="#000000" points="19.9321,-553.5 19.9321,-637.5 159.3306,-637.5 159.3306,-553.5 19.9321,-553.5"/>
<text text-anchor="start" x="27.9321" y="-625.5" font-family="Helvetica,sans-Serif" font-size="10.00" fill="#000000">fs::BroadcasterPresentation</text>
<text text-anchor="middle" x="89.6313" y="-615.5" font-family="Helvetica,sans-Serif" font-size="10.00" fill="#000000">NotificationsNullDelegate</text>
<polyline fill="none" stroke="#000000" points="19.9321,-609.5 159.3306,-609.5 "/>
<text text-anchor="middle" x="89.6313" y="-597.5" font-family="Helvetica,sans-Serif" font-size="10.00" fill="#000000"> </text>
<polyline fill="none" stroke="#000000" points="19.9321,-591.5 159.3306,-591.5 "/>
<text text-anchor="start" x="27.9321" y="-579.5" font-family="Helvetica,sans-Serif" font-size="10.00" fill="#000000">+ EMPTY_METHOD()</text>
<text text-anchor="start" x="27.9321" y="-569.5" font-family="Helvetica,sans-Serif" font-size="10.00" fill="#000000">+ EMPTY_METHOD()</text>
<text text-anchor="start" x="27.9321" y="-559.5" font-family="Helvetica,sans-Serif" font-size="10.00" fill="#000000">+ EMPTY_METHOD()</text>
</a>
</g>
</g>
<!-- Node2&#45;&gt;Node3 -->
<g id="edge3" class="edge">
<title>Node2&#45;&gt;Node3</title>
<path fill="none" stroke="#191970" d="M90.2251,-664.3716C90.1493,-655.5842 90.0706,-646.4515 89.9962,-637.8197"/>
<polygon fill="none" stroke="#191970" points="86.726,-664.5085 90.3122,-674.4779 93.7258,-664.4481 86.726,-664.5085"/>
</g>
<!-- Node4 -->
<g id="node5" class="node">
<title>Node4</title>
<g id="a_node5"><a xlink:href="structfs_1_1null__impl_3_01_i_broadcaster_presentation_notifications_delegate_01_4.html" target="_top" xlink:title=" ">
<polygon fill="none" stroke="#000000" points="0,-452.5 0,-516.5 175.2627,-516.5 175.2627,-452.5 0,-452.5"/>
<text text-anchor="start" x="8" y="-504.5" font-family="Helvetica,sans-Serif" font-size="10.00" fill="#000000">fs::null_impl&lt; IBroadcaster</text>
<text text-anchor="middle" x="87.6313" y="-494.5" font-family="Helvetica,sans-Serif" font-size="10.00" fill="#000000">PresentationNotificationsDelegate &gt;</text>
<polyline fill="none" stroke="#000000" points="0,-488.5 175.2627,-488.5 "/>
<text text-anchor="middle" x="87.6313" y="-476.5" font-family="Helvetica,sans-Serif" font-size="10.00" fill="#000000"> </text>
<polyline fill="none" stroke="#000000" points="0,-470.5 175.2627,-470.5 "/>
<text text-anchor="middle" x="87.6313" y="-458.5" font-family="Helvetica,sans-Serif" font-size="10.00" fill="#000000"> </text>
</a>
</g>
</g>
<!-- Node3&#45;&gt;Node4 -->
<g id="edge4" class="edge">
<title>Node3&#45;&gt;Node4</title>
<path fill="none" stroke="#191970" d="M88.6875,-543.1185C88.5248,-534.0854 88.36,-524.9418 88.2106,-516.6489"/>
<polygon fill="none" stroke="#191970" points="85.1898,-543.2837 88.8695,-553.219 92.1887,-543.1575 85.1898,-543.2837"/>
</g>
<!-- Node5 -->
<g id="node6" class="node">
<title>Node5</title>
<g id="a_node6"><a xlink:href="classfs_1_1_wrapper.html" target="_top" xlink:title=" ">
<polygon fill="none" stroke="#000000" points="0,-321.5 0,-415.5 175.2627,-415.5 175.2627,-321.5 0,-321.5"/>
<text text-anchor="start" x="8" y="-403.5" font-family="Helvetica,sans-Serif" font-size="10.00" fill="#000000">fs::Wrapper&lt; IBroadcaster</text>
<text text-anchor="middle" x="87.6313" y="-393.5" font-family="Helvetica,sans-Serif" font-size="10.00" fill="#000000">PresentationNotificationsDelegate &gt;</text>
<polyline fill="none" stroke="#000000" points="0,-387.5 175.2627,-387.5 "/>
<text text-anchor="middle" x="87.6313" y="-375.5" font-family="Helvetica,sans-Serif" font-size="10.00" fill="#000000"> </text>
<polyline fill="none" stroke="#000000" points="0,-369.5 175.2627,-369.5 "/>
<text text-anchor="start" x="8" y="-357.5" font-family="Helvetica,sans-Serif" font-size="10.00" fill="#000000">+ Wrapper()</text>
<text text-anchor="start" x="8" y="-347.5" font-family="Helvetica,sans-Serif" font-size="10.00" fill="#000000">+ get_ptr()</text>
<text text-anchor="start" x="8" y="-337.5" font-family="Helvetica,sans-Serif" font-size="10.00" fill="#000000">+ set_ptr()</text>
<text text-anchor="start" x="8" y="-327.5" font-family="Helvetica,sans-Serif" font-size="10.00" fill="#000000">+ operator&#45;&gt;()</text>
</a>
</g>
</g>
<!-- Node4&#45;&gt;Node5 -->
<g id="edge5" class="edge">
<title>Node4&#45;&gt;Node5</title>
<path fill="none" stroke="#191970" d="M87.6313,-442.2431C87.6313,-433.585 87.6313,-424.4206 87.6313,-415.6045"/>
<polygon fill="none" stroke="#191970" points="84.1314,-442.4954 87.6313,-452.4954 91.1314,-442.4955 84.1314,-442.4954"/>
</g>
<!-- Node6 -->
<g id="node7" class="node">
<title>Node6</title>
<g id="a_node7"><a xlink:href="classfs_1_1_delegates_provider.html" target="_top" xlink:title=" ">
<polygon fill="none" stroke="#000000" points="89.2783,-.5 89.2783,-284.5 273.9844,-284.5 273.9844,-.5 89.2783,-.5"/>
<text text-anchor="middle" x="181.6313" y="-272.5" font-family="Helvetica,sans-Serif" font-size="10.00" fill="#000000">fs::DelegatesProvider</text>
<polyline fill="none" stroke="#000000" points="89.2783,-266.5 273.9844,-266.5 "/>
<text text-anchor="middle" x="181.6313" y="-254.5" font-family="Helvetica,sans-Serif" font-size="10.00" fill="#000000"> </text>
<polyline fill="none" stroke="#000000" points="89.2783,-248.5 273.9844,-248.5 "/>
<text text-anchor="start" x="97.2783" y="-236.5" font-family="Helvetica,sans-Serif" font-size="10.00" fill="#000000">+ getSpeakersDelegate()</text>
<text text-anchor="start" x="97.2783" y="-226.5" font-family="Helvetica,sans-Serif" font-size="10.00" fill="#000000">+ getAttendeeDelegate()</text>
<text text-anchor="start" x="97.2783" y="-216.5" font-family="Helvetica,sans-Serif" font-size="10.00" fill="#000000">+ getBundledAttendeeDelegate()</text>
<text text-anchor="start" x="97.2783" y="-206.5" font-family="Helvetica,sans-Serif" font-size="10.00" fill="#000000">+ getRecordingBroadcasterDelegate()</text>
<text text-anchor="start" x="97.2783" y="-196.5" font-family="Helvetica,sans-Serif" font-size="10.00" fill="#000000">+ getPresentationBroadcaster</text>
<text text-anchor="start" x="97.2783" y="-186.5" font-family="Helvetica,sans-Serif" font-size="10.00" fill="#000000">Delegate()</text>
<text text-anchor="start" x="97.2783" y="-176.5" font-family="Helvetica,sans-Serif" font-size="10.00" fill="#000000">+ getChatDelegate()</text>
<text text-anchor="start" x="97.2783" y="-166.5" font-family="Helvetica,sans-Serif" font-size="10.00" fill="#000000">+ getRawRTMessageDelegate()</text>
<text text-anchor="start" x="97.2783" y="-156.5" font-family="Helvetica,sans-Serif" font-size="10.00" fill="#000000">+ getScreenDelegate()</text>
<text text-anchor="start" x="97.2783" y="-146.5" font-family="Helvetica,sans-Serif" font-size="10.00" fill="#000000">+ getSessionDelegate()</text>
<text text-anchor="start" x="97.2783" y="-136.5" font-family="Helvetica,sans-Serif" font-size="10.00" fill="#000000">+ getVideoDelegate()</text>
<text text-anchor="start" x="97.2783" y="-126.5" font-family="Helvetica,sans-Serif" font-size="10.00" fill="#000000">+ getVoIPDelegate()</text>
<text text-anchor="start" x="97.2783" y="-116.5" font-family="Helvetica,sans-Serif" font-size="10.00" fill="#000000">+ setSpeakersDelegate()</text>
<text text-anchor="start" x="97.2783" y="-106.5" font-family="Helvetica,sans-Serif" font-size="10.00" fill="#000000">+ setAttendeeDelegate()</text>
<text text-anchor="start" x="97.2783" y="-96.5" font-family="Helvetica,sans-Serif" font-size="10.00" fill="#000000">+ setBundledAttendeeDelegate()</text>
<text text-anchor="start" x="97.2783" y="-86.5" font-family="Helvetica,sans-Serif" font-size="10.00" fill="#000000">+ setPresentationBroadcaster</text>
<text text-anchor="start" x="97.2783" y="-76.5" font-family="Helvetica,sans-Serif" font-size="10.00" fill="#000000">Delegate()</text>
<text text-anchor="start" x="97.2783" y="-66.5" font-family="Helvetica,sans-Serif" font-size="10.00" fill="#000000">+ setRecordingBroadcasterDelegate()</text>
<text text-anchor="start" x="97.2783" y="-56.5" font-family="Helvetica,sans-Serif" font-size="10.00" fill="#000000">+ setChatDelegate()</text>
<text text-anchor="start" x="97.2783" y="-46.5" font-family="Helvetica,sans-Serif" font-size="10.00" fill="#000000">+ setRawRTMessageDelegate()</text>
<text text-anchor="start" x="97.2783" y="-36.5" font-family="Helvetica,sans-Serif" font-size="10.00" fill="#000000">+ setScreenDelegate()</text>
<text text-anchor="start" x="97.2783" y="-26.5" font-family="Helvetica,sans-Serif" font-size="10.00" fill="#000000">+ setSessionDelegate()</text>
<text text-anchor="start" x="97.2783" y="-16.5" font-family="Helvetica,sans-Serif" font-size="10.00" fill="#000000">+ setVideoDelegate()</text>
<text text-anchor="start" x="97.2783" y="-6.5" font-family="Helvetica,sans-Serif" font-size="10.00" fill="#000000">+ setVoIPDelegate()</text>
</a>
</g>
</g>
<!-- Node5&#45;&gt;Node6 -->
<g id="edge6" class="edge">
<title>Node5&#45;&gt;Node6</title>
<path fill="none" stroke="#006400" d="M111.1341,-311.9935C114.6955,-303.4308 118.4994,-294.2853 122.4253,-284.8464"/>
<polygon fill="none" stroke="#006400" points="107.8312,-310.8208 107.2224,-321.3981 114.2944,-313.509 107.8312,-310.8208"/>
</g>
<!-- Node8 -->
<g id="node9" class="node">
<title>Node8</title>
<g id="a_node9"><a xlink:href="classfs_1_1_i_broadcaster_recording_notifications_delegate.html" target="_top" xlink:title=" ">
<polygon fill="none" stroke="#000000" points="181.0308,-674.5 181.0308,-748.5 368.2319,-748.5 368.2319,-674.5 181.0308,-674.5"/>
<text text-anchor="start" x="189.0308" y="-736.5" font-family="Helvetica,sans-Serif" font-size="10.00" fill="#000000">fs::IBroadcasterRecording</text>
<text text-anchor="middle" x="274.6313" y="-726.5" font-family="Helvetica,sans-Serif" font-size="10.00" fill="#000000">NotificationsDelegate</text>
<polyline fill="none" stroke="#000000" points="181.0308,-720.5 368.2319,-720.5 "/>
<text text-anchor="middle" x="274.6313" y="-708.5" font-family="Helvetica,sans-Serif" font-size="10.00" fill="#000000"> </text>
<polyline fill="none" stroke="#000000" points="181.0308,-702.5 368.2319,-702.5 "/>
<text text-anchor="start" x="189.0308" y="-690.5" font-family="Helvetica,sans-Serif" font-size="10.00" fill="#000000">+ ~IBroadcasterRecordingNotifications</text>
<text text-anchor="start" x="189.0308" y="-680.5" font-family="Helvetica,sans-Serif" font-size="10.00" fill="#000000">Delegate()</text>
</a>
</g>
</g>
<!-- Node7&#45;&gt;Node8 -->
<g id="edge8" class="edge">
<title>Node7&#45;&gt;Node8</title>
<path fill="none" stroke="#191970" d="M274.6313,-779.858C274.6313,-769.3817 274.6313,-758.5856 274.6313,-748.7552"/>
<polygon fill="none" stroke="#191970" points="271.1314,-780.18 274.6313,-790.1801 278.1314,-780.1801 271.1314,-780.18"/>
</g>
<!-- Node9 -->
<g id="node10" class="node">
<title>Node9</title>
<g id="a_node10"><a xlink:href="classfs_1_1_broadcaster_recording_notifications_null_delegate.html" target="_top" xlink:title=" ">
<polygon fill="none" stroke="#000000" points="210.2153,-553.5 210.2153,-637.5 339.0474,-637.5 339.0474,-553.5 210.2153,-553.5"/>
<text text-anchor="start" x="218.2153" y="-625.5" font-family="Helvetica,sans-Serif" font-size="10.00" fill="#000000">fs::BroadcasterRecording</text>
<text text-anchor="middle" x="274.6313" y="-615.5" font-family="Helvetica,sans-Serif" font-size="10.00" fill="#000000">NotificationsNullDelegate</text>
<polyline fill="none" stroke="#000000" points="210.2153,-609.5 339.0474,-609.5 "/>
<text text-anchor="middle" x="274.6313" y="-597.5" font-family="Helvetica,sans-Serif" font-size="10.00" fill="#000000"> </text>
<polyline fill="none" stroke="#000000" points="210.2153,-591.5 339.0474,-591.5 "/>
<text text-anchor="start" x="218.2153" y="-579.5" font-family="Helvetica,sans-Serif" font-size="10.00" fill="#000000">+ EMPTY_METHOD()</text>
<text text-anchor="start" x="218.2153" y="-569.5" font-family="Helvetica,sans-Serif" font-size="10.00" fill="#000000">+ EMPTY_METHOD()</text>
<text text-anchor="start" x="218.2153" y="-559.5" font-family="Helvetica,sans-Serif" font-size="10.00" fill="#000000">+ EMPTY_METHOD()</text>
</a>
</g>
</g>
<!-- Node8&#45;&gt;Node9 -->
<g id="edge9" class="edge">
<title>Node8&#45;&gt;Node9</title>
<path fill="none" stroke="#191970" d="M274.6313,-664.3716C274.6313,-655.5842 274.6313,-646.4515 274.6313,-637.8197"/>
<polygon fill="none" stroke="#191970" points="271.1314,-664.4779 274.6313,-674.4779 278.1314,-664.478 271.1314,-664.4779"/>
</g>
<!-- Node10 -->
<g id="node11" class="node">
<title>Node10</title>
<g id="a_node11"><a xlink:href="structfs_1_1null__impl_3_01_i_broadcaster_recording_notifications_delegate_01_4.html" target="_top" xlink:title=" ">
<polygon fill="none" stroke="#000000" points="193.2832,-452.5 193.2832,-516.5 357.9795,-516.5 357.9795,-452.5 193.2832,-452.5"/>
<text text-anchor="start" x="201.2832" y="-504.5" font-family="Helvetica,sans-Serif" font-size="10.00" fill="#000000">fs::null_impl&lt; IBroadcaster</text>
<text text-anchor="middle" x="275.6313" y="-494.5" font-family="Helvetica,sans-Serif" font-size="10.00" fill="#000000">RecordingNotificationsDelegate &gt;</text>
<polyline fill="none" stroke="#000000" points="193.2832,-488.5 357.9795,-488.5 "/>
<text text-anchor="middle" x="275.6313" y="-476.5" font-family="Helvetica,sans-Serif" font-size="10.00" fill="#000000"> </text>
<polyline fill="none" stroke="#000000" points="193.2832,-470.5 357.9795,-470.5 "/>
<text text-anchor="middle" x="275.6313" y="-458.5" font-family="Helvetica,sans-Serif" font-size="10.00" fill="#000000"> </text>
</a>
</g>
</g>
<!-- Node9&#45;&gt;Node10 -->
<g id="edge10" class="edge">
<title>Node9&#45;&gt;Node10</title>
<path fill="none" stroke="#191970" d="M275.1033,-543.1185C275.1846,-534.0854 275.267,-524.9418 275.3417,-516.6489"/>
<polygon fill="none" stroke="#191970" points="271.6026,-543.1879 275.0123,-553.219 278.6023,-543.251 271.6026,-543.1879"/>
</g>
<!-- Node11 -->
<g id="node12" class="node">
<title>Node11</title>
<g id="a_node12"><a xlink:href="classfs_1_1_wrapper.html" target="_top" xlink:title=" ">
<polygon fill="none" stroke="#000000" points="193.2832,-321.5 193.2832,-415.5 357.9795,-415.5 357.9795,-321.5 193.2832,-321.5"/>
<text text-anchor="start" x="201.2832" y="-403.5" font-family="Helvetica,sans-Serif" font-size="10.00" fill="#000000">fs::Wrapper&lt; IBroadcaster</text>
<text text-anchor="middle" x="275.6313" y="-393.5" font-family="Helvetica,sans-Serif" font-size="10.00" fill="#000000">RecordingNotificationsDelegate &gt;</text>
<polyline fill="none" stroke="#000000" points="193.2832,-387.5 357.9795,-387.5 "/>
<text text-anchor="middle" x="275.6313" y="-375.5" font-family="Helvetica,sans-Serif" font-size="10.00" fill="#000000"> </text>
<polyline fill="none" stroke="#000000" points="193.2832,-369.5 357.9795,-369.5 "/>
<text text-anchor="start" x="201.2832" y="-357.5" font-family="Helvetica,sans-Serif" font-size="10.00" fill="#000000">+ Wrapper()</text>
<text text-anchor="start" x="201.2832" y="-347.5" font-family="Helvetica,sans-Serif" font-size="10.00" fill="#000000">+ get_ptr()</text>
<text text-anchor="start" x="201.2832" y="-337.5" font-family="Helvetica,sans-Serif" font-size="10.00" fill="#000000">+ set_ptr()</text>
<text text-anchor="start" x="201.2832" y="-327.5" font-family="Helvetica,sans-Serif" font-size="10.00" fill="#000000">+ operator&#45;&gt;()</text>
</a>
</g>
</g>
<!-- Node10&#45;&gt;Node11 -->
<g id="edge11" class="edge">
<title>Node10&#45;&gt;Node11</title>
<path fill="none" stroke="#191970" d="M275.6313,-442.2431C275.6313,-433.585 275.6313,-424.4206 275.6313,-415.6045"/>
<polygon fill="none" stroke="#191970" points="272.1314,-442.4954 275.6313,-452.4954 279.1314,-442.4955 272.1314,-442.4954"/>
</g>
<!-- Node11&#45;&gt;Node6 -->
<g id="edge12" class="edge">
<title>Node11&#45;&gt;Node6</title>
<path fill="none" stroke="#006400" d="M252.1286,-311.9935C248.5671,-303.4308 244.7633,-294.2853 240.8374,-284.8464"/>
<polygon fill="none" stroke="#006400" points="248.9683,-313.509 256.0403,-321.3981 255.4315,-310.8208 248.9683,-313.509"/>
</g>
</g>
</svg>
