<?xml version="1.0" encoding="UTF-8" standalone="no"?>
<!DOCTYPE svg PUBLIC "-//W3C//DTD SVG 1.1//EN"
 "http://www.w3.org/Graphics/SVG/1.1/DTD/svg11.dtd">
<!-- Generated by graphviz version 2.40.1 (20161225.0304)
 -->
<!-- Title: fs::ScreenSharingController::captureCursor Pages: 1 -->
<svg width="497pt" height="225pt"
 viewBox="0.00 0.00 496.51 225.00" xmlns="http://www.w3.org/2000/svg" xmlns:xlink="http://www.w3.org/1999/xlink">
<g id="graph0" class="graph" transform="scale(1 1) rotate(0) translate(4 221)">
<title>fs::ScreenSharingController::captureCursor</title>
<!-- Node13 -->
<g id="node1" class="node">
<title>Node13</title>
<g id="a_node1"><a xlink:title=" ">
<polygon fill="#bfbfbf" stroke="#000000" points="0,-94.5 0,-122.5 138.8369,-122.5 138.8369,-94.5 0,-94.5"/>
<text text-anchor="start" x="8" y="-110.5" font-family="Helvetica,sans-Serif" font-size="10.00" fill="#000000">fs::ScreenSharingController</text>
<text text-anchor="middle" x="69.4185" y="-100.5" font-family="Helvetica,sans-Serif" font-size="10.00" fill="#000000">::captureCursor</text>
</a>
</g>
</g>
<!-- Node14 -->
<g id="node2" class="node">
<title>Node14</title>
<g id="a_node2"><a xlink:href="classfs_1_1_screen_sharing_controller.html#a52b62b9e4e991919927cb0ca0065962b" target="_top" xlink:title=" ">
<polygon fill="none" stroke="#000000" points="174.8369,-141.5 174.8369,-169.5 313.6738,-169.5 313.6738,-141.5 174.8369,-141.5"/>
<text text-anchor="start" x="182.8369" y="-157.5" font-family="Helvetica,sans-Serif" font-size="10.00" fill="#000000">fs::ScreenSharingController</text>
<text text-anchor="middle" x="244.2554" y="-147.5" font-family="Helvetica,sans-Serif" font-size="10.00" fill="#000000">::isRunning</text>
</a>
</g>
</g>
<!-- Node13&#45;&gt;Node14 -->
<g id="edge1" class="edge">
<title>Node13&#45;&gt;Node14</title>
<path fill="none" stroke="#191970" d="M121.8753,-122.6015C140.8917,-127.7136 162.5507,-133.536 182.3079,-138.8472"/>
<polygon fill="#191970" stroke="#191970" points="181.5712,-142.2733 192.137,-141.4894 183.3885,-135.5133 181.5712,-142.2733"/>
</g>
<!-- Node17 -->
<g id="node5" class="node">
<title>Node17</title>
<g id="a_node5"><a xlink:href="classfs_1_1_screen_sharing_controller.html#af79379c6033af78f95229da3730e262a" target="_top" xlink:title=" ">
<polygon fill="none" stroke="#000000" points="174.8369,-71.5 174.8369,-99.5 313.6738,-99.5 313.6738,-71.5 174.8369,-71.5"/>
<text text-anchor="start" x="182.8369" y="-87.5" font-family="Helvetica,sans-Serif" font-size="10.00" fill="#000000">fs::ScreenSharingController</text>
<text text-anchor="middle" x="244.2554" y="-77.5" font-family="Helvetica,sans-Serif" font-size="10.00" fill="#000000">::presenterCursor</text>
</a>
</g>
</g>
<!-- Node13&#45;&gt;Node17 -->
<g id="edge4" class="edge">
<title>Node13&#45;&gt;Node17</title>
<path fill="none" stroke="#191970" d="M139.021,-99.3437C147.4397,-98.2362 156.0886,-97.0984 164.6372,-95.9739"/>
<polygon fill="#191970" stroke="#191970" points="165.1486,-99.4368 174.6067,-94.6624 164.2356,-92.4966 165.1486,-99.4368"/>
</g>
<!-- Node15 -->
<g id="node3" class="node">
<title>Node15</title>
<g id="a_node3"><a xlink:href="classfs_1_1_screen_sharing_controller.html#ad106f544261381323ae3ebfdc9544b8e" target="_top" xlink:title=" ">
<polygon fill="none" stroke="#000000" points="349.6738,-188.5 349.6738,-216.5 488.5107,-216.5 488.5107,-188.5 349.6738,-188.5"/>
<text text-anchor="start" x="357.6738" y="-204.5" font-family="Helvetica,sans-Serif" font-size="10.00" fill="#000000">fs::ScreenSharingController</text>
<text text-anchor="middle" x="419.0923" y="-194.5" font-family="Helvetica,sans-Serif" font-size="10.00" fill="#000000">::isActive</text>
</a>
</g>
</g>
<!-- Node14&#45;&gt;Node15 -->
<g id="edge2" class="edge">
<title>Node14&#45;&gt;Node15</title>
<path fill="none" stroke="#191970" d="M296.7122,-169.6015C315.7286,-174.7136 337.3876,-180.536 357.1448,-185.8472"/>
<polygon fill="#191970" stroke="#191970" points="356.4081,-189.2733 366.9739,-188.4894 358.2254,-182.5133 356.4081,-189.2733"/>
</g>
<!-- Node16 -->
<g id="node4" class="node">
<title>Node16</title>
<g id="a_node4"><a xlink:href="classfs_1_1_screen_sharing_controller.html#a1099e31f1e66a059b03ec205d466cbbc" target="_top" xlink:title=" ">
<polygon fill="none" stroke="#000000" points="349.6738,-141.5 349.6738,-169.5 488.5107,-169.5 488.5107,-141.5 349.6738,-141.5"/>
<text text-anchor="start" x="357.6738" y="-157.5" font-family="Helvetica,sans-Serif" font-size="10.00" fill="#000000">fs::ScreenSharingController</text>
<text text-anchor="middle" x="419.0923" y="-147.5" font-family="Helvetica,sans-Serif" font-size="10.00" fill="#000000">::isPresenter</text>
</a>
</g>
</g>
<!-- Node14&#45;&gt;Node16 -->
<g id="edge3" class="edge">
<title>Node14&#45;&gt;Node16</title>
<path fill="none" stroke="#191970" d="M313.8579,-155.5C322.1851,-155.5 330.7375,-155.5 339.1953,-155.5"/>
<polygon fill="#191970" stroke="#191970" points="339.4436,-159.0001 349.4436,-155.5 339.4436,-152.0001 339.4436,-159.0001"/>
</g>
<!-- Node18 -->
<g id="node6" class="node">
<title>Node18</title>
<g id="a_node6"><a xlink:href="classfs_1_1_f_s_presenter_cursor_pkt.html#a00470dabc030793cd8e0917df8fe1e9c" target="_top" xlink:title=" ">
<polygon fill="none" stroke="#000000" points="354.1318,-94.5 354.1318,-122.5 484.0527,-122.5 484.0527,-94.5 354.1318,-94.5"/>
<text text-anchor="start" x="362.1318" y="-110.5" font-family="Helvetica,sans-Serif" font-size="10.00" fill="#000000">fs::FSPresenterCursorPkt</text>
<text text-anchor="middle" x="419.0923" y="-100.5" font-family="Helvetica,sans-Serif" font-size="10.00" fill="#000000">::setImage</text>
</a>
</g>
</g>
<!-- Node17&#45;&gt;Node18 -->
<g id="edge5" class="edge">
<title>Node17&#45;&gt;Node18</title>
<path fill="none" stroke="#191970" d="M313.8579,-94.6563C323.7854,-95.9623 334.0329,-97.3103 344.0587,-98.6292"/>
<polygon fill="#191970" stroke="#191970" points="343.6193,-102.1015 353.9904,-99.9358 344.5324,-95.1613 343.6193,-102.1015"/>
</g>
<!-- Node19 -->
<g id="node7" class="node">
<title>Node19</title>
<g id="a_node7"><a xlink:href="classfs_1_1_f_s_presenter_cursor_pkt.html#a308339d5b28a2351f0a544d793f6a533" target="_top" xlink:title=" ">
<polygon fill="none" stroke="#000000" points="354.1318,-47.5 354.1318,-75.5 484.0527,-75.5 484.0527,-47.5 354.1318,-47.5"/>
<text text-anchor="start" x="362.1318" y="-63.5" font-family="Helvetica,sans-Serif" font-size="10.00" fill="#000000">fs::FSPresenterCursorPkt</text>
<text text-anchor="middle" x="419.0923" y="-53.5" font-family="Helvetica,sans-Serif" font-size="10.00" fill="#000000">::setHotSpotX</text>
</a>
</g>
</g>
<!-- Node17&#45;&gt;Node19 -->
<g id="edge6" class="edge">
<title>Node17&#45;&gt;Node19</title>
<path fill="none" stroke="#191970" d="M313.8579,-75.9456C323.7854,-74.5829 334.0329,-73.1762 344.0587,-71.7999"/>
<polygon fill="#191970" stroke="#191970" points="344.5594,-75.2641 353.9904,-70.4366 343.6073,-68.3291 344.5594,-75.2641"/>
</g>
<!-- Node20 -->
<g id="node8" class="node">
<title>Node20</title>
<g id="a_node8"><a xlink:href="classfs_1_1_f_s_presenter_cursor_pkt.html#a1871180d6f109975489ac5f9dfe809d0" target="_top" xlink:title=" ">
<polygon fill="none" stroke="#000000" points="354.1318,-.5 354.1318,-28.5 484.0527,-28.5 484.0527,-.5 354.1318,-.5"/>
<text text-anchor="start" x="362.1318" y="-16.5" font-family="Helvetica,sans-Serif" font-size="10.00" fill="#000000">fs::FSPresenterCursorPkt</text>
<text text-anchor="middle" x="419.0923" y="-6.5" font-family="Helvetica,sans-Serif" font-size="10.00" fill="#000000">::setHotSpotY</text>
</a>
</g>
</g>
<!-- Node17&#45;&gt;Node20 -->
<g id="edge7" class="edge">
<title>Node17&#45;&gt;Node20</title>
<path fill="none" stroke="#191970" d="M273.9531,-71.433C294.9149,-61.7082 323.7676,-48.7312 349.6738,-38.5 355.2204,-36.3095 361.0571,-34.1184 366.8928,-32"/>
<polygon fill="#191970" stroke="#191970" points="368.418,-35.1721 376.6615,-28.5165 366.0668,-28.5787 368.418,-35.1721"/>
</g>
</g>
</svg>
