<?xml version="1.0" encoding="UTF-8" standalone="no"?>
<!DOCTYPE svg PUBLIC "-//W3C//DTD SVG 1.1//EN"
 "http://www.w3.org/Graphics/SVG/1.1/DTD/svg11.dtd">
<!-- Generated by graphviz version 2.40.1 (20161225.0304)
 -->
<!-- Title: fs::RTNotificationsController Pages: 1 -->
<!--zoomable 609 -->
<svg id="main" version="1.1" xmlns="http://www.w3.org/2000/svg" xmlns:xlink="http://www.w3.org/1999/xlink" xml:space="preserve" onload="init(evt)">
<style type="text/css"><![CDATA[
.edge:hover path { stroke: red; }
.edge:hover polygon { stroke: red; fill: red; }
]]></style>
<script type="text/javascript"><![CDATA[
var edges = document.getElementsByTagName('g');
if (edges && edges.length) {
  for (var i=0;i<edges.length;i++) {
    if (edges[i].id.substr(0,4)=='edge') {
      edges[i].setAttribute('class','edge');
    }
  }
}
]]></script>
        <defs>
                <circle id="rim" cx="0" cy="0" r="7"/>
                <circle id="rim2" cx="0" cy="0" r="3.5"/>
                <g id="zoomPlus">
                        <use xlink:href="#rim" fill="#404040">
                                <set attributeName="fill" to="#808080" begin="zoomplus.mouseover" end="zoomplus.mouseout"/>
                        </use>
                        <path d="M-4,0h8M0,-4v8" fill="none" stroke="white" stroke-width="1.5" pointer-events="none"/>
                </g>
                <g id="zoomMin">
                        <use xlink:href="#rim" fill="#404040">
                                <set attributeName="fill" to="#808080" begin="zoomminus.mouseover" end="zoomminus.mouseout"/>
                        </use>
                        <path d="M-4,0h8" fill="none" stroke="white" stroke-width="1.5" pointer-events="none"/>
                </g>
                <g id="dirArrow">
                        <path fill="none" stroke="white" stroke-width="1.5" d="M0,-3.0v7 M-2.5,-0.5L0,-3.0L2.5,-0.5"/>
                </g>
               <g id="resetDef">
                       <use xlink:href="#rim2" fill="#404040">
                               <set attributeName="fill" to="#808080" begin="reset.mouseover" end="reset.mouseout"/>
                       </use>
               </g>
        </defs>

<script type="text/javascript">
var viewWidth = 353;
var viewHeight = 609;
var sectionId = 'dynsection-1';
</script>
<script xlink:href="svgpan.js"/>
<svg id="graph" class="graph">
<g id="viewport">
<title>fs::RTNotificationsController</title>
<!-- Node3 -->
<g id="node1" class="node">
<title>Node3</title>
<g id="a_node1"><a xlink:title=" ">
<polygon fill="#bfbfbf" stroke="#000000" points="129.7886,-.5 129.7886,-184.5 277.8784,-184.5 277.8784,-.5 129.7886,-.5"/>
<text text-anchor="middle" x="203.8335" y="-172.5" font-family="Helvetica,sans-Serif" font-size="10.00" fill="#000000">fs::RTNotificationsController</text>
<polyline fill="none" stroke="#000000" points="129.7886,-166.5 277.8784,-166.5 "/>
<text text-anchor="middle" x="203.8335" y="-154.5" font-family="Helvetica,sans-Serif" font-size="10.00" fill="#000000"> </text>
<polyline fill="none" stroke="#000000" points="129.7886,-148.5 277.8784,-148.5 "/>
<text text-anchor="start" x="137.7886" y="-136.5" font-family="Helvetica,sans-Serif" font-size="10.00" fill="#000000">+ RTNotificationsController()</text>
<text text-anchor="start" x="137.7886" y="-126.5" font-family="Helvetica,sans-Serif" font-size="10.00" fill="#000000">+ ~RTNotificationsController()</text>
<text text-anchor="start" x="137.7886" y="-116.5" font-family="Helvetica,sans-Serif" font-size="10.00" fill="#000000">+ addHandler()</text>
<text text-anchor="start" x="137.7886" y="-106.5" font-family="Helvetica,sans-Serif" font-size="10.00" fill="#000000">+ deleteHandler()</text>
<text text-anchor="start" x="137.7886" y="-96.5" font-family="Helvetica,sans-Serif" font-size="10.00" fill="#000000">+ onRTMessageReceived()</text>
<text text-anchor="start" x="137.7886" y="-86.5" font-family="Helvetica,sans-Serif" font-size="10.00" fill="#000000">+ sendRTCommand()</text>
<text text-anchor="start" x="137.7886" y="-76.5" font-family="Helvetica,sans-Serif" font-size="10.00" fill="#000000">+ nextRtCommandId()</text>
<text text-anchor="start" x="137.7886" y="-66.5" font-family="Helvetica,sans-Serif" font-size="10.00" fill="#000000">+ cleanup()</text>
<text text-anchor="start" x="137.7886" y="-56.5" font-family="Helvetica,sans-Serif" font-size="10.00" fill="#000000"># populatingHandler()</text>
<text text-anchor="start" x="137.7886" y="-46.5" font-family="Helvetica,sans-Serif" font-size="10.00" fill="#000000"># handleNotification()</text>
<text text-anchor="start" x="137.7886" y="-36.5" font-family="Helvetica,sans-Serif" font-size="10.00" fill="#000000"># handleResponse()</text>
<text text-anchor="start" x="137.7886" y="-26.5" font-family="Helvetica,sans-Serif" font-size="10.00" fill="#000000"># handleBridgeVersion()</text>
<text text-anchor="start" x="137.7886" y="-16.5" font-family="Helvetica,sans-Serif" font-size="10.00" fill="#000000"># registerHandlers()</text>
<text text-anchor="start" x="137.7886" y="-6.5" font-family="Helvetica,sans-Serif" font-size="10.00" fill="#000000"># unregisterHandlers()</text>
</a>
</g>
</g>
<!-- Node4 -->
<g id="node2" class="node">
<title>Node4</title>
<g id="a_node2"><a xlink:href="classfs_1_1_notification_handler.html" target="_top" xlink:title=" ">
<polygon fill="none" stroke="#000000" points="74.9224,-222.5 74.9224,-286.5 188.7446,-286.5 188.7446,-222.5 74.9224,-222.5"/>
<text text-anchor="middle" x="131.8335" y="-274.5" font-family="Helvetica,sans-Serif" font-size="10.00" fill="#000000">fs::NotificationHandler</text>
<polyline fill="none" stroke="#000000" points="74.9224,-268.5 188.7446,-268.5 "/>
<text text-anchor="middle" x="131.8335" y="-256.5" font-family="Helvetica,sans-Serif" font-size="10.00" fill="#000000"> </text>
<polyline fill="none" stroke="#000000" points="74.9224,-250.5 188.7446,-250.5 "/>
<text text-anchor="start" x="82.9224" y="-238.5" font-family="Helvetica,sans-Serif" font-size="10.00" fill="#000000">+ API_METHOD()</text>
<text text-anchor="start" x="82.9224" y="-228.5" font-family="Helvetica,sans-Serif" font-size="10.00" fill="#000000">+ API_METHOD()</text>
</a>
</g>
</g>
<!-- Node4&#45;&gt;Node3 -->
<g id="edge1" class="edge">
<title>Node4&#45;&gt;Node3</title>
<path fill="none" stroke="#191970" d="M150.1839,-213.2117C154.134,-204.3238 158.4609,-194.5883 162.8896,-184.6238"/>
<polygon fill="none" stroke="#191970" points="146.9215,-211.9344 146.0584,-222.494 153.3182,-214.7774 146.9215,-211.9344"/>
</g>
<!-- Node5 -->
<g id="node3" class="node">
<title>Node5</title>
<g id="a_node3"><a xlink:title=" ">
<polygon fill="none" stroke="#bfbfbf" points="0,-333.5 0,-397.5 129.667,-397.5 129.667,-333.5 0,-333.5"/>
<text text-anchor="start" x="8" y="-385.5" font-family="Helvetica,sans-Serif" font-size="10.00" fill="#000000">std::map&lt; String, Handler</text>
<text text-anchor="middle" x="64.8335" y="-375.5" font-family="Helvetica,sans-Serif" font-size="10.00" fill="#000000">Pointer &gt;</text>
<polyline fill="none" stroke="#bfbfbf" points="0,-369.5 129.667,-369.5 "/>
<text text-anchor="start" x="8" y="-357.5" font-family="Helvetica,sans-Serif" font-size="10.00" fill="#000000">+ elements</text>
<polyline fill="none" stroke="#bfbfbf" points="0,-351.5 129.667,-351.5 "/>
<text text-anchor="middle" x="64.8335" y="-339.5" font-family="Helvetica,sans-Serif" font-size="10.00" fill="#000000"> </text>
</a>
</g>
</g>
<!-- Node5&#45;&gt;Node4 -->
<g id="edge2" class="edge">
<title>Node5&#45;&gt;Node4</title>
<path fill="none" stroke="#404040" d="M84.2127,-333.3942C91.0877,-322.0042 98.934,-309.0051 106.2467,-296.89"/>
<polygon fill="none" stroke="#404040" points="106.2967,-296.8072 105.9728,-289.6034 112.4979,-286.5336 112.8218,-293.7375 106.2967,-296.8072"/>
<text text-anchor="middle" x="126.9639" y="-307" font-family="Helvetica,sans-Serif" font-size="10.00" fill="#000000"> #_handlers</text>
</g>
<!-- Node6 -->
<g id="node4" class="node">
<title>Node6</title>
<g id="a_node4"><a xlink:title="STL class.">
<polygon fill="none" stroke="#bfbfbf" points="103.1587,-444.5 103.1587,-498.5 162.5083,-498.5 162.5083,-444.5 103.1587,-444.5"/>
<text text-anchor="middle" x="132.8335" y="-486.5" font-family="Helvetica,sans-Serif" font-size="10.00" fill="#000000">std::string</text>
<polyline fill="none" stroke="#bfbfbf" points="103.1587,-480.5 162.5083,-480.5 "/>
<text text-anchor="middle" x="132.8335" y="-468.5" font-family="Helvetica,sans-Serif" font-size="10.00" fill="#000000"> </text>
<polyline fill="none" stroke="#bfbfbf" points="103.1587,-462.5 162.5083,-462.5 "/>
<text text-anchor="middle" x="132.8335" y="-450.5" font-family="Helvetica,sans-Serif" font-size="10.00" fill="#000000"> </text>
</a>
</g>
</g>
<!-- Node6&#45;&gt;Node5 -->
<g id="edge3" class="edge">
<title>Node6&#45;&gt;Node5</title>
<path fill="none" stroke="#404040" d="M115.4983,-444.4775C108.3663,-433.3599 99.9345,-420.2163 92.0171,-407.8744"/>
<polygon fill="none" stroke="#404040" points="92.0067,-407.8581 85.4001,-404.9678 85.5271,-397.7578 92.1337,-400.6481 92.0067,-407.8581"/>
<text text-anchor="middle" x="118.4233" y="-418" font-family="Helvetica,sans-Serif" font-size="10.00" fill="#000000"> +keys</text>
</g>
<!-- Node8 -->
<g id="node6" class="node">
<title>Node8</title>
<g id="a_node6"><a xlink:title=" ">
<polygon fill="none" stroke="#bfbfbf" points="148.0898,-338.5 148.0898,-392.5 253.5771,-392.5 253.5771,-338.5 148.0898,-338.5"/>
<text text-anchor="middle" x="200.8335" y="-380.5" font-family="Helvetica,sans-Serif" font-size="10.00" fill="#000000">std::vector&lt; String &gt;</text>
<polyline fill="none" stroke="#bfbfbf" points="148.0898,-374.5 253.5771,-374.5 "/>
<text text-anchor="middle" x="200.8335" y="-362.5" font-family="Helvetica,sans-Serif" font-size="10.00" fill="#000000"> </text>
<polyline fill="none" stroke="#bfbfbf" points="148.0898,-356.5 253.5771,-356.5 "/>
<text text-anchor="middle" x="200.8335" y="-344.5" font-family="Helvetica,sans-Serif" font-size="10.00" fill="#000000"> </text>
</a>
</g>
</g>
<!-- Node6&#45;&gt;Node8 -->
<g id="edge6" class="edge">
<title>Node6&#45;&gt;Node8</title>
<path fill="none" stroke="#404040" d="M150.1687,-444.4775C158.2586,-431.8667 168.0208,-416.6491 176.8079,-402.9516"/>
<polygon fill="none" stroke="#404040" points="176.814,-402.9421 176.687,-395.7321 183.2935,-392.8418 183.4205,-400.0518 176.814,-402.9421"/>
<text text-anchor="middle" x="191.4307" y="-418" font-family="Helvetica,sans-Serif" font-size="10.00" fill="#000000"> +elements</text>
</g>
<!-- Node7 -->
<g id="node5" class="node">
<title>Node7</title>
<g id="a_node5"><a xlink:title="STL class.">
<polygon fill="none" stroke="#bfbfbf" points="85.7856,-536.5 85.7856,-600.5 179.8813,-600.5 179.8813,-536.5 85.7856,-536.5"/>
<text text-anchor="start" x="93.7856" y="-588.5" font-family="Helvetica,sans-Serif" font-size="10.00" fill="#000000">std::basic_string&lt;</text>
<text text-anchor="middle" x="132.8335" y="-578.5" font-family="Helvetica,sans-Serif" font-size="10.00" fill="#000000"> char &gt;</text>
<polyline fill="none" stroke="#bfbfbf" points="85.7856,-572.5 179.8813,-572.5 "/>
<text text-anchor="middle" x="132.8335" y="-560.5" font-family="Helvetica,sans-Serif" font-size="10.00" fill="#000000"> </text>
<polyline fill="none" stroke="#bfbfbf" points="85.7856,-554.5 179.8813,-554.5 "/>
<text text-anchor="middle" x="132.8335" y="-542.5" font-family="Helvetica,sans-Serif" font-size="10.00" fill="#000000"> </text>
</a>
</g>
</g>
<!-- Node7&#45;&gt;Node6 -->
<g id="edge4" class="edge">
<title>Node7&#45;&gt;Node6</title>
<path fill="none" stroke="#191970" d="M132.8335,-526.4397C132.8335,-517.0133 132.8335,-507.2564 132.8335,-498.6277"/>
<polygon fill="none" stroke="#191970" points="129.3336,-526.4697 132.8335,-536.4697 136.3336,-526.4698 129.3336,-526.4697"/>
</g>
<!-- Node8&#45;&gt;Node4 -->
<g id="edge5" class="edge">
<title>Node8&#45;&gt;Node4</title>
<path fill="none" stroke="#404040" d="M183.9542,-338.3463C176.2603,-325.9692 166.9681,-311.0209 158.3732,-297.1942"/>
<polygon fill="none" stroke="#404040" points="158.3097,-297.0921 151.7449,-294.1082 151.9745,-286.9007 158.5392,-289.8847 158.3097,-297.0921"/>
<text text-anchor="middle" x="222.4761" y="-307" font-family="Helvetica,sans-Serif" font-size="10.00" fill="#000000"> #supportedNotifications</text>
</g>
<!-- Node9 -->
<g id="node7" class="node">
<title>Node9</title>
<g id="a_node7"><a xlink:href="classfs_1_1_meeting_controller_base.html" target="_top" xlink:title=" ">
<polygon fill="none" stroke="#000000" points="206.415,-222.5 206.415,-286.5 345.252,-286.5 345.252,-222.5 206.415,-222.5"/>
<text text-anchor="middle" x="275.8335" y="-274.5" font-family="Helvetica,sans-Serif" font-size="10.00" fill="#000000">fs::MeetingControllerBase</text>
<polyline fill="none" stroke="#000000" points="206.415,-268.5 345.252,-268.5 "/>
<text text-anchor="start" x="214.415" y="-256.5" font-family="Helvetica,sans-Serif" font-size="10.00" fill="#000000"># m_pClient</text>
<polyline fill="none" stroke="#000000" points="206.415,-250.5 345.252,-250.5 "/>
<text text-anchor="start" x="214.415" y="-238.5" font-family="Helvetica,sans-Serif" font-size="10.00" fill="#000000">+ MeetingControllerBase()</text>
<text text-anchor="start" x="214.415" y="-228.5" font-family="Helvetica,sans-Serif" font-size="10.00" fill="#000000">+ ~MeetingControllerBase()</text>
</a>
</g>
</g>
<!-- Node9&#45;&gt;Node3 -->
<g id="edge7" class="edge">
<title>Node9&#45;&gt;Node3</title>
<path fill="none" stroke="#191970" d="M257.4831,-213.2117C253.533,-204.3238 249.2061,-194.5883 244.7774,-184.6238"/>
<polygon fill="none" stroke="#191970" points="254.3488,-214.7774 261.6086,-222.494 260.7455,-211.9344 254.3488,-214.7774"/>
</g>
</g>
</svg>
        <g id="navigator" transform="translate(0 0)" fill="#404254">
                <rect fill="#f2f5e9" fill-opacity="0.5" stroke="#606060" stroke-width=".5" x="0" y="0" width="60" height="60"/>
                <use id="zoomplus" xlink:href="#zoomPlus" x="17" y="9" onmousedown="handleZoom(evt,'in')"/>
                <use id="zoomminus" xlink:href="#zoomMin" x="42" y="9" onmousedown="handleZoom(evt,'out')"/>
                <use id="reset" xlink:href="#resetDef" x="30" y="36" onmousedown="handleReset()"/>
                <g id="arrowUp" xlink:href="#dirArrow" transform="translate(30 24)" onmousedown="handlePan(0,-1)">
                  <use xlink:href="#rim" fill="#404040">
                        <set attributeName="fill" to="#808080" begin="arrowUp.mouseover" end="arrowUp.mouseout"/>
                  </use>
                  <path fill="none" stroke="white" stroke-width="1.5" d="M0,-3.0v7 M-2.5,-0.5L0,-3.0L2.5,-0.5"/>
                </g>
                <g id="arrowRight" xlink:href="#dirArrow" transform="rotate(90) translate(36 -43)" onmousedown="handlePan(1,0)">
                  <use xlink:href="#rim" fill="#404040">
                        <set attributeName="fill" to="#808080" begin="arrowRight.mouseover" end="arrowRight.mouseout"/>
                  </use>
                  <path fill="none" stroke="white" stroke-width="1.5" d="M0,-3.0v7 M-2.5,-0.5L0,-3.0L2.5,-0.5"/>
                </g>
                <g id="arrowDown" xlink:href="#dirArrow" transform="rotate(180) translate(-30 -48)" onmousedown="handlePan(0,1)">
                  <use xlink:href="#rim" fill="#404040">
                        <set attributeName="fill" to="#808080" begin="arrowDown.mouseover" end="arrowDown.mouseout"/>
                  </use>
                  <path fill="none" stroke="white" stroke-width="1.5" d="M0,-3.0v7 M-2.5,-0.5L0,-3.0L2.5,-0.5"/>
                </g>
                <g id="arrowLeft" xlink:href="#dirArrow" transform="rotate(270) translate(-36 17)" onmousedown="handlePan(-1,0)">
                  <use xlink:href="#rim" fill="#404040">
                        <set attributeName="fill" to="#808080" begin="arrowLeft.mouseover" end="arrowLeft.mouseout"/>
                  </use>
                  <path fill="none" stroke="white" stroke-width="1.5" d="M0,-3.0v7 M-2.5,-0.5L0,-3.0L2.5,-0.5"/>
                </g>
        </g>
        <svg viewBox="0 0 15 15" width="100%" height="30px" preserveAspectRatio="xMaxYMin meet">
         <g id="arrow_out" transform="scale(0.3 0.3)">
          <a xlink:href="classfs_1_1_r_t_notifications_controller__coll__graph_org.svg" target="_base">
           <rect id="button" ry="5" rx="5" y="6" x="6" height="38" width="38"
                fill="#f2f5e9" fill-opacity="0.5" stroke="#606060" stroke-width="1.0"/>
           <path id="arrow"
             d="M 11.500037,31.436501 C 11.940474,20.09759 22.043105,11.32322 32.158766,21.979434 L 37.068811,17.246167 C 37.068811,17.246167 37.088388,32 37.088388,32 L 22.160133,31.978069 C 22.160133,31.978069 26.997745,27.140456 26.997745,27.140456 C 18.528582,18.264221 13.291696,25.230495 11.500037,31.436501 z"
             style="fill:#404040;"/>
          </a>
         </g>
        </svg>
</svg>
