<?xml version="1.0" encoding="UTF-8" standalone="no"?>
<!DOCTYPE svg PUBLIC "-//W3C//DTD SVG 1.1//EN"
 "http://www.w3.org/Graphics/SVG/1.1/DTD/svg11.dtd">
<!-- Generated by graphviz version 2.40.1 (20161225.0304)
 -->
<!-- Title: cx::HTTPRequest::deliverError Pages: 1 -->
<svg width="504pt" height="37pt"
 viewBox="0.00 0.00 503.67 37.00" xmlns="http://www.w3.org/2000/svg" xmlns:xlink="http://www.w3.org/1999/xlink">
<g id="graph0" class="graph" transform="scale(1 1) rotate(0) translate(4 33)">
<title>cx::HTTPRequest::deliverError</title>
<!-- Node13 -->
<g id="node1" class="node">
<title>Node13</title>
<g id="a_node1"><a xlink:title=" ">
<polygon fill="#bfbfbf" stroke="#000000" points="0,-.5 0,-28.5 129.9258,-28.5 129.9258,-.5 0,-.5"/>
<text text-anchor="start" x="8" y="-16.5" font-family="Helvetica,sans-Serif" font-size="10.00" fill="#000000">cx::HTTPRequest::deliver</text>
<text text-anchor="middle" x="64.9629" y="-6.5" font-family="Helvetica,sans-Serif" font-size="10.00" fill="#000000">Error</text>
</a>
</g>
</g>
<!-- Node14 -->
<g id="node2" class="node">
<title>Node14</title>
<g id="a_node2"><a xlink:href="classcx_1_1_h_t_t_p_request.html#aee8a88d17cf7c718ae315bbc3eadcb93" target="_top" xlink:title=" ">
<polygon fill="none" stroke="#000000" points="165.9258,-.5 165.9258,-28.5 295.8516,-28.5 295.8516,-.5 165.9258,-.5"/>
<text text-anchor="start" x="173.9258" y="-16.5" font-family="Helvetica,sans-Serif" font-size="10.00" fill="#000000">cx::HTTPRequest::deliver</text>
<text text-anchor="middle" x="230.8887" y="-6.5" font-family="Helvetica,sans-Serif" font-size="10.00" fill="#000000">Error</text>
</a>
</g>
</g>
<!-- Node13&#45;&gt;Node14 -->
<g id="edge1" class="edge">
<title>Node13&#45;&gt;Node14</title>
<path fill="none" stroke="#191970" d="M130.0649,-14.5C138.3915,-14.5 146.97,-14.5 155.4431,-14.5"/>
<polygon fill="#191970" stroke="#191970" points="155.7021,-18.0001 165.702,-14.5 155.702,-11.0001 155.7021,-18.0001"/>
</g>
<!-- Node15 -->
<g id="node3" class="node">
<title>Node15</title>
<g id="a_node3"><a xlink:href="structcx_1_1_h_t_t_p_request_1_1_h_t_t_p_request_delegate.html#a6112a6cf3032847cbea88ea1d3e7434b" target="_top" xlink:title=" ">
<polygon fill="none" stroke="#000000" points="331.8516,-.5 331.8516,-28.5 495.6738,-28.5 495.6738,-.5 331.8516,-.5"/>
<text text-anchor="start" x="339.8516" y="-16.5" font-family="Helvetica,sans-Serif" font-size="10.00" fill="#000000">cx::HTTPRequest::HTTPRequest</text>
<text text-anchor="middle" x="413.7627" y="-6.5" font-family="Helvetica,sans-Serif" font-size="10.00" fill="#000000">Delegate::onRequestError</text>
</a>
</g>
</g>
<!-- Node14&#45;&gt;Node15 -->
<g id="edge2" class="edge">
<title>Node14&#45;&gt;Node15</title>
<path fill="none" stroke="#191970" d="M295.8781,-14.5C304.2163,-14.5 312.8754,-14.5 321.544,-14.5"/>
<polygon fill="#191970" stroke="#191970" points="321.7057,-18.0001 331.7057,-14.5 321.7057,-11.0001 321.7057,-18.0001"/>
</g>
</g>
</svg>
