<?xml version="1.0" encoding="UTF-8" standalone="no"?>
<!DOCTYPE svg PUBLIC "-//W3C//DTD SVG 1.1//EN"
 "http://www.w3.org/Graphics/SVG/1.1/DTD/svg11.dtd">
<!-- Generated by graphviz version 2.40.1 (20161225.0304)
 -->
<!-- Title: fs::VoIPClientProxy::onCallStateChanged Pages: 1 -->
<svg width="509pt" height="37pt"
 viewBox="0.00 0.00 509.16 37.00" xmlns="http://www.w3.org/2000/svg" xmlns:xlink="http://www.w3.org/1999/xlink">
<g id="graph0" class="graph" transform="scale(1 1) rotate(0) translate(4 33)">
<title>fs::VoIPClientProxy::onCallStateChanged</title>
<!-- Node28 -->
<g id="node1" class="node">
<title>Node28</title>
<g id="a_node1"><a xlink:title=" ">
<polygon fill="#bfbfbf" stroke="#000000" points="0,-.5 0,-28.5 113.8467,-28.5 113.8467,-.5 0,-.5"/>
<text text-anchor="start" x="8" y="-16.5" font-family="Helvetica,sans-Serif" font-size="10.00" fill="#000000">fs::VoIPClientProxy</text>
<text text-anchor="middle" x="56.9233" y="-6.5" font-family="Helvetica,sans-Serif" font-size="10.00" fill="#000000">::onCallStateChanged</text>
</a>
</g>
</g>
<!-- Node29 -->
<g id="node2" class="node">
<title>Node29</title>
<g id="a_node2"><a xlink:href="classfs_1_1_vo_i_p_client_delegate.html#adecef5dfc4cb9d784846bddefb3ae81f" target="_top" xlink:title=" ">
<polygon fill="none" stroke="#000000" points="149.8467,-.5 149.8467,-28.5 308.8887,-28.5 308.8887,-.5 149.8467,-.5"/>
<text text-anchor="start" x="157.8467" y="-16.5" font-family="Helvetica,sans-Serif" font-size="10.00" fill="#000000">fs::VoIPClientDelegate</text>
<text text-anchor="middle" x="229.3677" y="-6.5" font-family="Helvetica,sans-Serif" font-size="10.00" fill="#000000">::fireTransportCallStateChanged</text>
</a>
</g>
</g>
<!-- Node28&#45;&gt;Node29 -->
<g id="edge1" class="edge">
<title>Node28&#45;&gt;Node29</title>
<path fill="none" stroke="#191970" d="M113.866,-14.5C122.1159,-14.5 130.7717,-14.5 139.4774,-14.5"/>
<polygon fill="#191970" stroke="#191970" points="139.6987,-18.0001 149.6987,-14.5 139.6987,-11.0001 139.6987,-18.0001"/>
</g>
<!-- Node30 -->
<g id="node3" class="node">
<title>Node30</title>
<g id="a_node3"><a xlink:href="classfs_1_1_vo_i_p_client_delegate.html#a701787bde81cdcb33e10deedcaf1c43d" target="_top" xlink:title=" ">
<polygon fill="none" stroke="#000000" points="344.8887,-.5 344.8887,-28.5 501.1621,-28.5 501.1621,-.5 344.8887,-.5"/>
<text text-anchor="start" x="352.8887" y="-16.5" font-family="Helvetica,sans-Serif" font-size="10.00" fill="#000000">fs::VoIPClientDelegate</text>
<text text-anchor="middle" x="423.0254" y="-6.5" font-family="Helvetica,sans-Serif" font-size="10.00" fill="#000000">::onTransportCallStateChanged</text>
</a>
</g>
</g>
<!-- Node29&#45;&gt;Node30 -->
<g id="edge2" class="edge">
<title>Node29&#45;&gt;Node30</title>
<path fill="none" stroke="#191970" d="M308.974,-14.5C317.3549,-14.5 325.9137,-14.5 334.3882,-14.5"/>
<polygon fill="#191970" stroke="#191970" points="334.6658,-18.0001 344.6657,-14.5 334.6657,-11.0001 334.6658,-18.0001"/>
</g>
</g>
</svg>
