<?xml version="1.0" encoding="UTF-8" standalone="no"?>
<!DOCTYPE svg PUBLIC "-//W3C//DTD SVG 1.1//EN"
 "http://www.w3.org/Graphics/SVG/1.1/DTD/svg11.dtd">
<!-- Generated by graphviz version 2.40.1 (20161225.0304)
 -->
<!-- Title: fs::MeetingClient::startVideo Pages: 1 -->
<svg width="236pt" height="131pt"
 viewBox="0.00 0.00 236.07 131.00" xmlns="http://www.w3.org/2000/svg" xmlns:xlink="http://www.w3.org/1999/xlink">
<g id="graph0" class="graph" transform="scale(1 1) rotate(0) translate(4 127)">
<title>fs::MeetingClient::startVideo</title>
<!-- Node342 -->
<g id="node1" class="node">
<title>Node342</title>
<g id="a_node1"><a xlink:title=" ">
<polygon fill="#bfbfbf" stroke="#000000" points="0,-47.5 0,-75.5 96.0342,-75.5 96.0342,-47.5 0,-47.5"/>
<text text-anchor="start" x="8" y="-63.5" font-family="Helvetica,sans-Serif" font-size="10.00" fill="#000000">fs::MeetingClient::</text>
<text text-anchor="middle" x="48.0171" y="-53.5" font-family="Helvetica,sans-Serif" font-size="10.00" fill="#000000">startVideo</text>
</a>
</g>
</g>
<!-- Node343 -->
<g id="node2" class="node">
<title>Node343</title>
<g id="a_node2"><a xlink:href="classfs_1_1_meeting_client.html#aab12c46889f26ffbe1a0810471d00e56" target="_top" xlink:title=" ">
<polygon fill="none" stroke="#000000" points="132.0342,-94.5 132.0342,-122.5 228.0684,-122.5 228.0684,-94.5 132.0342,-94.5"/>
<text text-anchor="start" x="140.0342" y="-110.5" font-family="Helvetica,sans-Serif" font-size="10.00" fill="#000000">fs::MeetingClient::</text>
<text text-anchor="middle" x="180.0513" y="-100.5" font-family="Helvetica,sans-Serif" font-size="10.00" fill="#000000">hasAudio</text>
</a>
</g>
</g>
<!-- Node342&#45;&gt;Node343 -->
<g id="edge1" class="edge">
<title>Node342&#45;&gt;Node343</title>
<path fill="none" stroke="#191970" d="M87.6317,-75.6015C101.2095,-80.4348 116.5714,-85.9032 130.8166,-90.974"/>
<polygon fill="#191970" stroke="#191970" points="129.8699,-94.3521 140.4646,-94.4084 132.2175,-87.7575 129.8699,-94.3521"/>
</g>
<!-- Node344 -->
<g id="node3" class="node">
<title>Node344</title>
<g id="a_node3"><a xlink:href="classfs_1_1_meeting_client.html#a7df90bde41869ea3d4a68b6aa3a5fa6f" target="_top" xlink:title=" ">
<polygon fill="none" stroke="#000000" points="132.0342,-47.5 132.0342,-75.5 228.0684,-75.5 228.0684,-47.5 132.0342,-47.5"/>
<text text-anchor="start" x="140.0342" y="-63.5" font-family="Helvetica,sans-Serif" font-size="10.00" fill="#000000">fs::MeetingClient::</text>
<text text-anchor="middle" x="180.0513" y="-53.5" font-family="Helvetica,sans-Serif" font-size="10.00" fill="#000000">isWelcomePlayed</text>
</a>
</g>
</g>
<!-- Node342&#45;&gt;Node344 -->
<g id="edge2" class="edge">
<title>Node342&#45;&gt;Node344</title>
<path fill="none" stroke="#191970" d="M96.058,-61.5C104.3404,-61.5 113.0314,-61.5 121.5531,-61.5"/>
<polygon fill="#191970" stroke="#191970" points="121.8249,-65.0001 131.8249,-61.5 121.8249,-58.0001 121.8249,-65.0001"/>
</g>
<!-- Node345 -->
<g id="node4" class="node">
<title>Node345</title>
<g id="a_node4"><a xlink:href="classfs_1_1_meeting_client.html#a3e45b85d7caa2dad1ced1f426c9f5d91" target="_top" xlink:title=" ">
<polygon fill="none" stroke="#000000" points="132.0342,-.5 132.0342,-28.5 228.0684,-28.5 228.0684,-.5 132.0342,-.5"/>
<text text-anchor="start" x="140.0342" y="-16.5" font-family="Helvetica,sans-Serif" font-size="10.00" fill="#000000">fs::MeetingClient::</text>
<text text-anchor="middle" x="180.0513" y="-6.5" font-family="Helvetica,sans-Serif" font-size="10.00" fill="#000000">startVideo</text>
</a>
</g>
</g>
<!-- Node342&#45;&gt;Node345 -->
<g id="edge3" class="edge">
<title>Node342&#45;&gt;Node345</title>
<path fill="none" stroke="#191970" d="M87.6317,-47.3985C101.2095,-42.5652 116.5714,-37.0968 130.8166,-32.026"/>
<polygon fill="#191970" stroke="#191970" points="132.2175,-35.2425 140.4646,-28.5916 129.8699,-28.6479 132.2175,-35.2425"/>
</g>
</g>
</svg>
