<?xml version="1.0" encoding="UTF-8" standalone="no"?>
<!DOCTYPE svg PUBLIC "-//W3C//DTD SVG 1.1//EN"
 "http://www.w3.org/Graphics/SVG/1.1/DTD/svg11.dtd">
<!-- Generated by graphviz version 2.40.1 (20161225.0304)
 -->
<!-- Title: fs::ScreenSharingController::onFSDataAvailable Pages: 1 -->
<!--zoomable 336 -->
<svg id="main" version="1.1" xmlns="http://www.w3.org/2000/svg" xmlns:xlink="http://www.w3.org/1999/xlink" xml:space="preserve" onload="init(evt)">
<style type="text/css"><![CDATA[
.edge:hover path { stroke: red; }
.edge:hover polygon { stroke: red; fill: red; }
]]></style>
<script type="text/javascript"><![CDATA[
var edges = document.getElementsByTagName('g');
if (edges && edges.length) {
  for (var i=0;i<edges.length;i++) {
    if (edges[i].id.substr(0,4)=='edge') {
      edges[i].setAttribute('class','edge');
    }
  }
}
]]></script>
        <defs>
                <circle id="rim" cx="0" cy="0" r="7"/>
                <circle id="rim2" cx="0" cy="0" r="3.5"/>
                <g id="zoomPlus">
                        <use xlink:href="#rim" fill="#404040">
                                <set attributeName="fill" to="#808080" begin="zoomplus.mouseover" end="zoomplus.mouseout"/>
                        </use>
                        <path d="M-4,0h8M0,-4v8" fill="none" stroke="white" stroke-width="1.5" pointer-events="none"/>
                </g>
                <g id="zoomMin">
                        <use xlink:href="#rim" fill="#404040">
                                <set attributeName="fill" to="#808080" begin="zoomminus.mouseover" end="zoomminus.mouseout"/>
                        </use>
                        <path d="M-4,0h8" fill="none" stroke="white" stroke-width="1.5" pointer-events="none"/>
                </g>
                <g id="dirArrow">
                        <path fill="none" stroke="white" stroke-width="1.5" d="M0,-3.0v7 M-2.5,-0.5L0,-3.0L2.5,-0.5"/>
                </g>
               <g id="resetDef">
                       <use xlink:href="#rim2" fill="#404040">
                               <set attributeName="fill" to="#808080" begin="reset.mouseover" end="reset.mouseout"/>
                       </use>
               </g>
        </defs>

<script type="text/javascript">
var viewWidth = 503;
var viewHeight = 336;
var sectionId = 'dynsection-33';
</script>
<script xlink:href="svgpan.js"/>
<svg id="graph" class="graph">
<g id="viewport">
<title>fs::ScreenSharingController::onFSDataAvailable</title>
<!-- Node187 -->
<g id="node1" class="node">
<title>Node187</title>
<g id="a_node1"><a xlink:title=" ">
<polygon fill="#bfbfbf" stroke="#000000" points="0,-141.5 0,-169.5 138.8369,-169.5 138.8369,-141.5 0,-141.5"/>
<text text-anchor="start" x="8" y="-157.5" font-family="Helvetica,sans-Serif" font-size="10.00" fill="#000000">fs::ScreenSharingController</text>
<text text-anchor="middle" x="69.4185" y="-147.5" font-family="Helvetica,sans-Serif" font-size="10.00" fill="#000000">::onFSDataAvailable</text>
</a>
</g>
</g>
<!-- Node188 -->
<g id="node2" class="node">
<title>Node188</title>
<g id="a_node2"><a xlink:href="classfs_1_1_buffer.html#a6a6885855eee316313c5db69071b20aa" target="_top" xlink:title=" ">
<polygon fill="none" stroke="#000000" points="202.166,-272.5 202.166,-290.5 292.4678,-290.5 292.4678,-272.5 202.166,-272.5"/>
<text text-anchor="middle" x="247.3169" y="-278.5" font-family="Helvetica,sans-Serif" font-size="10.00" fill="#000000">fs::Buffer::assign</text>
</a>
</g>
</g>
<!-- Node187&#45;&gt;Node188 -->
<g id="edge1" class="edge">
<title>Node187&#45;&gt;Node188</title>
<path fill="none" stroke="#191970" d="M79.2698,-169.8729C96.0643,-193.2342 132.555,-239.2653 174.8369,-263.5 180.2996,-266.6311 186.298,-269.2219 192.4323,-271.3649"/>
<polygon fill="#191970" stroke="#191970" points="191.538,-274.752 202.1262,-274.377 193.6151,-268.0673 191.538,-274.752"/>
</g>
<!-- Node191 -->
<g id="node5" class="node">
<title>Node191</title>
<g id="a_node5"><a xlink:href="classfs_1_1_f_s_packet.html#a5fbe0bc7898355774cf37d22a7278cd5" target="_top" xlink:title=" ">
<polygon fill="none" stroke="#000000" points="184.2949,-235.5 184.2949,-253.5 310.3389,-253.5 310.3389,-235.5 184.2949,-235.5"/>
<text text-anchor="middle" x="247.3169" y="-241.5" font-family="Helvetica,sans-Serif" font-size="10.00" fill="#000000">fs::FSPacket::deserialize</text>
</a>
</g>
</g>
<!-- Node187&#45;&gt;Node191 -->
<g id="edge4" class="edge">
<title>Node187&#45;&gt;Node191</title>
<path fill="none" stroke="#191970" d="M86.2151,-169.5658C106.1461,-185.5756 140.9592,-211.4495 174.8369,-226.5 179.8727,-228.7372 185.2341,-230.7277 190.6741,-232.4917"/>
<polygon fill="#191970" stroke="#191970" points="189.9145,-235.9176 200.4979,-235.4267 191.9184,-229.2105 189.9145,-235.9176"/>
</g>
<!-- Node193 -->
<g id="node7" class="node">
<title>Node193</title>
<g id="a_node7"><a xlink:href="classfs_1_1_screen_sharing_controller.html#a1099e31f1e66a059b03ec205d466cbbc" target="_top" xlink:title=" ">
<polygon fill="none" stroke="#000000" points="177.8984,-188.5 177.8984,-216.5 316.7354,-216.5 316.7354,-188.5 177.8984,-188.5"/>
<text text-anchor="start" x="185.8984" y="-204.5" font-family="Helvetica,sans-Serif" font-size="10.00" fill="#000000">fs::ScreenSharingController</text>
<text text-anchor="middle" x="247.3169" y="-194.5" font-family="Helvetica,sans-Serif" font-size="10.00" fill="#000000">::isPresenter</text>
</a>
</g>
</g>
<!-- Node187&#45;&gt;Node193 -->
<g id="edge6" class="edge">
<title>Node187&#45;&gt;Node193</title>
<path fill="none" stroke="#191970" d="M122.7939,-169.6015C142.2316,-174.7369 164.3828,-180.5892 184.5599,-185.9199"/>
<polygon fill="#191970" stroke="#191970" points="183.7236,-189.319 194.2859,-188.4894 185.5117,-182.5512 183.7236,-189.319"/>
</g>
<!-- Node194 -->
<g id="node8" class="node">
<title>Node194</title>
<g id="a_node8"><a xlink:href="classfs_1_1_screen_sharing_controller.html#a7be66af119d6a03f27097bc91008a7df" target="_top" xlink:title=" ">
<polygon fill="none" stroke="#000000" points="177.8984,-141.5 177.8984,-169.5 316.7354,-169.5 316.7354,-141.5 177.8984,-141.5"/>
<text text-anchor="start" x="185.8984" y="-157.5" font-family="Helvetica,sans-Serif" font-size="10.00" fill="#000000">fs::ScreenSharingController</text>
<text text-anchor="middle" x="247.3169" y="-147.5" font-family="Helvetica,sans-Serif" font-size="10.00" fill="#000000">::getDirectorId</text>
</a>
</g>
</g>
<!-- Node187&#45;&gt;Node194 -->
<g id="edge7" class="edge">
<title>Node187&#45;&gt;Node194</title>
<path fill="none" stroke="#191970" d="M138.963,-155.5C148.3381,-155.5 158.0156,-155.5 167.5508,-155.5"/>
<polygon fill="#191970" stroke="#191970" points="167.8207,-159.0001 177.8207,-155.5 167.8207,-152.0001 167.8207,-159.0001"/>
</g>
<!-- Node195 -->
<g id="node9" class="node">
<title>Node195</title>
<g id="a_node9"><a xlink:href="classfs_1_1_screen_sharing_controller.html#a006e36d1e2ab98aa05d34ecdcc551e56" target="_top" xlink:title=" ">
<polygon fill="none" stroke="#000000" points="177.8984,-94.5 177.8984,-122.5 316.7354,-122.5 316.7354,-94.5 177.8984,-94.5"/>
<text text-anchor="start" x="185.8984" y="-110.5" font-family="Helvetica,sans-Serif" font-size="10.00" fill="#000000">fs::ScreenSharingController</text>
<text text-anchor="middle" x="247.3169" y="-100.5" font-family="Helvetica,sans-Serif" font-size="10.00" fill="#000000">::onPresenterCursor</text>
</a>
</g>
</g>
<!-- Node187&#45;&gt;Node195 -->
<g id="edge8" class="edge">
<title>Node187&#45;&gt;Node195</title>
<path fill="none" stroke="#191970" d="M122.7939,-141.3985C142.2316,-136.2631 164.3828,-130.4108 184.5599,-125.0801"/>
<polygon fill="#191970" stroke="#191970" points="185.5117,-128.4488 194.2859,-122.5106 183.7236,-121.681 185.5117,-128.4488"/>
</g>
<!-- Node199 -->
<g id="node13" class="node">
<title>Node199</title>
<g id="a_node13"><a xlink:href="classfs_1_1_screen_sharing_controller.html#aa240dcbbdfba042f0d6f452ec09c48c6" target="_top" xlink:title=" ">
<polygon fill="none" stroke="#000000" points="177.8984,-47.5 177.8984,-75.5 316.7354,-75.5 316.7354,-47.5 177.8984,-47.5"/>
<text text-anchor="start" x="185.8984" y="-63.5" font-family="Helvetica,sans-Serif" font-size="10.00" fill="#000000">fs::ScreenSharingController</text>
<text text-anchor="middle" x="247.3169" y="-53.5" font-family="Helvetica,sans-Serif" font-size="10.00" fill="#000000">::onPresenterTakeControl</text>
</a>
</g>
</g>
<!-- Node187&#45;&gt;Node199 -->
<g id="edge12" class="edge">
<title>Node187&#45;&gt;Node199</title>
<path fill="none" stroke="#191970" d="M87.5545,-141.2667C107.8719,-125.8577 142.2433,-101.3639 174.8369,-85.5 179.4125,-83.273 184.2457,-81.1742 189.1565,-79.2152"/>
<polygon fill="#191970" stroke="#191970" points="190.5342,-82.4361 198.6482,-75.6234 188.0567,-75.8892 190.5342,-82.4361"/>
</g>
<!-- Node201 -->
<g id="node15" class="node">
<title>Node201</title>
<g id="a_node15"><a xlink:href="classfs_1_1_screen_sharing_controller.html#a93a8c4ebea6879a0e22d2021b7cd6cc5" target="_top" xlink:title=" ">
<polygon fill="none" stroke="#000000" points="174.8369,-.5 174.8369,-28.5 319.7969,-28.5 319.7969,-.5 174.8369,-.5"/>
<text text-anchor="start" x="182.8369" y="-16.5" font-family="Helvetica,sans-Serif" font-size="10.00" fill="#000000">fs::ScreenSharingController</text>
<text text-anchor="middle" x="247.3169" y="-6.5" font-family="Helvetica,sans-Serif" font-size="10.00" fill="#000000">::onPresenterReleaseControl</text>
</a>
</g>
</g>
<!-- Node187&#45;&gt;Node201 -->
<g id="edge14" class="edge">
<title>Node187&#45;&gt;Node201</title>
<path fill="none" stroke="#191970" d="M78.4109,-141.4594C94.7315,-117.0635 131.5726,-66.7584 174.8369,-38.5 177.9616,-36.4591 181.2758,-34.5768 184.6998,-32.8429"/>
<polygon fill="#191970" stroke="#191970" points="186.3356,-35.9433 193.9659,-28.5928 183.4172,-29.5806 186.3356,-35.9433"/>
</g>
<!-- Node189 -->
<g id="node3" class="node">
<title>Node189</title>
<g id="a_node3"><a xlink:href="classfs_1_1_buffer.html#aaeaf7aacea3679ca4956d6b50543f1aa" target="_top" xlink:title=" ">
<polygon fill="none" stroke="#000000" points="377.833,-309.5 377.833,-327.5 472.5977,-327.5 472.5977,-309.5 377.833,-309.5"/>
<text text-anchor="middle" x="425.2153" y="-315.5" font-family="Helvetica,sans-Serif" font-size="10.00" fill="#000000">fs::Buffer::append</text>
</a>
</g>
</g>
<!-- Node188&#45;&gt;Node189 -->
<g id="edge2" class="edge">
<title>Node188&#45;&gt;Node189</title>
<path fill="none" stroke="#191970" d="M290.8357,-290.5512C315.2636,-295.6318 345.9403,-302.0121 371.8139,-307.3934"/>
<polygon fill="#191970" stroke="#191970" points="371.3346,-310.8685 381.8378,-309.4782 372.76,-304.0152 371.3346,-310.8685"/>
</g>
<!-- Node190 -->
<g id="node4" class="node">
<title>Node190</title>
<g id="a_node4"><a xlink:href="classfs_1_1_buffer.html#af8ec6ec556d0227cbcb57d40e2d2fb06" target="_top" xlink:title=" ">
<polygon fill="none" stroke="#000000" points="383.6802,-272.5 383.6802,-290.5 466.7505,-290.5 466.7505,-272.5 383.6802,-272.5"/>
<text text-anchor="middle" x="425.2153" y="-278.5" font-family="Helvetica,sans-Serif" font-size="10.00" fill="#000000">fs::Buffer::clear</text>
</a>
</g>
</g>
<!-- Node188&#45;&gt;Node190 -->
<g id="edge3" class="edge">
<title>Node188&#45;&gt;Node190</title>
<path fill="none" stroke="#191970" d="M292.6685,-281.5C317.2783,-281.5 347.8035,-281.5 373.3548,-281.5"/>
<polygon fill="#191970" stroke="#191970" points="373.6044,-285.0001 383.6043,-281.5 373.6043,-278.0001 373.6044,-285.0001"/>
</g>
<!-- Node192 -->
<g id="node6" class="node">
<title>Node192</title>
<g id="a_node6"><a xlink:href="classfs_1_1_buffer.html#afd053fdf33cfaffda826dcd907c5a7c9" target="_top" xlink:title=" ">
<polygon fill="none" stroke="#000000" points="383.6777,-235.5 383.6777,-253.5 466.7529,-253.5 466.7529,-235.5 383.6777,-235.5"/>
<text text-anchor="middle" x="425.2153" y="-241.5" font-family="Helvetica,sans-Serif" font-size="10.00" fill="#000000">fs::Buffer::fetch</text>
</a>
</g>
</g>
<!-- Node191&#45;&gt;Node192 -->
<g id="edge5" class="edge">
<title>Node191&#45;&gt;Node192</title>
<path fill="none" stroke="#191970" d="M310.5381,-244.5C331.2041,-244.5 353.8973,-244.5 373.6034,-244.5"/>
<polygon fill="#191970" stroke="#191970" points="373.6096,-248.0001 383.6096,-244.5 373.6096,-241.0001 373.6096,-248.0001"/>
</g>
<!-- Node196 -->
<g id="node10" class="node">
<title>Node196</title>
<g id="a_node10"><a xlink:href="classfs_1_1_f_s_presenter_cursor_pkt.html#abc4e2a3c8166f59381a3c179c51b96fa" target="_top" xlink:title=" ">
<polygon fill="none" stroke="#000000" points="360.2549,-141.5 360.2549,-169.5 490.1758,-169.5 490.1758,-141.5 360.2549,-141.5"/>
<text text-anchor="start" x="368.2549" y="-157.5" font-family="Helvetica,sans-Serif" font-size="10.00" fill="#000000">fs::FSPresenterCursorPkt</text>
<text text-anchor="middle" x="425.2153" y="-147.5" font-family="Helvetica,sans-Serif" font-size="10.00" fill="#000000">::image</text>
</a>
</g>
</g>
<!-- Node195&#45;&gt;Node196 -->
<g id="edge9" class="edge">
<title>Node195&#45;&gt;Node196</title>
<path fill="none" stroke="#191970" d="M300.6923,-122.6015C320.13,-127.7369 342.2813,-133.5892 362.4584,-138.9199"/>
<polygon fill="#191970" stroke="#191970" points="361.622,-142.319 372.1844,-141.4894 363.4101,-135.5512 361.622,-142.319"/>
</g>
<!-- Node197 -->
<g id="node11" class="node">
<title>Node197</title>
<g id="a_node11"><a xlink:href="classfs_1_1_f_s_presenter_cursor_pkt.html#a2ae7b4a9b5847de438a3d7a44703b212" target="_top" xlink:title=" ">
<polygon fill="none" stroke="#000000" points="360.2549,-94.5 360.2549,-122.5 490.1758,-122.5 490.1758,-94.5 360.2549,-94.5"/>
<text text-anchor="start" x="368.2549" y="-110.5" font-family="Helvetica,sans-Serif" font-size="10.00" fill="#000000">fs::FSPresenterCursorPkt</text>
<text text-anchor="middle" x="425.2153" y="-100.5" font-family="Helvetica,sans-Serif" font-size="10.00" fill="#000000">::hotSpotX</text>
</a>
</g>
</g>
<!-- Node195&#45;&gt;Node197 -->
<g id="edge10" class="edge">
<title>Node195&#45;&gt;Node197</title>
<path fill="none" stroke="#191970" d="M316.8614,-108.5C327.7547,-108.5 339.0561,-108.5 350.0683,-108.5"/>
<polygon fill="#191970" stroke="#191970" points="350.0802,-112.0001 360.0802,-108.5 350.0802,-105.0001 350.0802,-112.0001"/>
</g>
<!-- Node198 -->
<g id="node12" class="node">
<title>Node198</title>
<g id="a_node12"><a xlink:href="classfs_1_1_f_s_presenter_cursor_pkt.html#a8f3143d25bf26ed99b54e3441598f4ab" target="_top" xlink:title=" ">
<polygon fill="none" stroke="#000000" points="360.2549,-47.5 360.2549,-75.5 490.1758,-75.5 490.1758,-47.5 360.2549,-47.5"/>
<text text-anchor="start" x="368.2549" y="-63.5" font-family="Helvetica,sans-Serif" font-size="10.00" fill="#000000">fs::FSPresenterCursorPkt</text>
<text text-anchor="middle" x="425.2153" y="-53.5" font-family="Helvetica,sans-Serif" font-size="10.00" fill="#000000">::hotSpotY</text>
</a>
</g>
</g>
<!-- Node195&#45;&gt;Node198 -->
<g id="edge11" class="edge">
<title>Node195&#45;&gt;Node198</title>
<path fill="none" stroke="#191970" d="M300.6923,-94.3985C320.13,-89.2631 342.2813,-83.4108 362.4584,-78.0801"/>
<polygon fill="#191970" stroke="#191970" points="363.4101,-81.4488 372.1844,-75.5106 361.622,-74.681 363.4101,-81.4488"/>
</g>
<!-- Node200 -->
<g id="node14" class="node">
<title>Node200</title>
<g id="a_node14"><a xlink:href="classfs_1_1_screen_sharing_controller.html#a02320665ae88198b0bcb2da8f9e04496" target="_top" xlink:title=" ">
<polygon fill="none" stroke="#000000" points="355.7969,-.5 355.7969,-28.5 494.6338,-28.5 494.6338,-.5 355.7969,-.5"/>
<text text-anchor="start" x="363.7969" y="-16.5" font-family="Helvetica,sans-Serif" font-size="10.00" fill="#000000">fs::ScreenSharingController</text>
<text text-anchor="middle" x="425.2153" y="-6.5" font-family="Helvetica,sans-Serif" font-size="10.00" fill="#000000">::isDirector</text>
</a>
</g>
</g>
<!-- Node199&#45;&gt;Node200 -->
<g id="edge13" class="edge">
<title>Node199&#45;&gt;Node200</title>
<path fill="none" stroke="#191970" d="M300.6923,-47.3985C320.13,-42.2631 342.2813,-36.4108 362.4584,-31.0801"/>
<polygon fill="#191970" stroke="#191970" points="363.4101,-34.4488 372.1844,-28.5106 361.622,-27.681 363.4101,-34.4488"/>
</g>
<!-- Node201&#45;&gt;Node200 -->
<g id="edge15" class="edge">
<title>Node201&#45;&gt;Node200</title>
<path fill="none" stroke="#191970" d="M319.9316,-14.5C328.333,-14.5 336.9357,-14.5 345.4259,-14.5"/>
<polygon fill="#191970" stroke="#191970" points="345.7052,-18.0001 355.7052,-14.5 345.7052,-11.0001 345.7052,-18.0001"/>
</g>
</g>
</svg>
        <g id="navigator" transform="translate(0 0)" fill="#404254">
                <rect fill="#f2f5e9" fill-opacity="0.5" stroke="#606060" stroke-width=".5" x="0" y="0" width="60" height="60"/>
                <use id="zoomplus" xlink:href="#zoomPlus" x="17" y="9" onmousedown="handleZoom(evt,'in')"/>
                <use id="zoomminus" xlink:href="#zoomMin" x="42" y="9" onmousedown="handleZoom(evt,'out')"/>
                <use id="reset" xlink:href="#resetDef" x="30" y="36" onmousedown="handleReset()"/>
                <g id="arrowUp" xlink:href="#dirArrow" transform="translate(30 24)" onmousedown="handlePan(0,-1)">
                  <use xlink:href="#rim" fill="#404040">
                        <set attributeName="fill" to="#808080" begin="arrowUp.mouseover" end="arrowUp.mouseout"/>
                  </use>
                  <path fill="none" stroke="white" stroke-width="1.5" d="M0,-3.0v7 M-2.5,-0.5L0,-3.0L2.5,-0.5"/>
                </g>
                <g id="arrowRight" xlink:href="#dirArrow" transform="rotate(90) translate(36 -43)" onmousedown="handlePan(1,0)">
                  <use xlink:href="#rim" fill="#404040">
                        <set attributeName="fill" to="#808080" begin="arrowRight.mouseover" end="arrowRight.mouseout"/>
                  </use>
                  <path fill="none" stroke="white" stroke-width="1.5" d="M0,-3.0v7 M-2.5,-0.5L0,-3.0L2.5,-0.5"/>
                </g>
                <g id="arrowDown" xlink:href="#dirArrow" transform="rotate(180) translate(-30 -48)" onmousedown="handlePan(0,1)">
                  <use xlink:href="#rim" fill="#404040">
                        <set attributeName="fill" to="#808080" begin="arrowDown.mouseover" end="arrowDown.mouseout"/>
                  </use>
                  <path fill="none" stroke="white" stroke-width="1.5" d="M0,-3.0v7 M-2.5,-0.5L0,-3.0L2.5,-0.5"/>
                </g>
                <g id="arrowLeft" xlink:href="#dirArrow" transform="rotate(270) translate(-36 17)" onmousedown="handlePan(-1,0)">
                  <use xlink:href="#rim" fill="#404040">
                        <set attributeName="fill" to="#808080" begin="arrowLeft.mouseover" end="arrowLeft.mouseout"/>
                  </use>
                  <path fill="none" stroke="white" stroke-width="1.5" d="M0,-3.0v7 M-2.5,-0.5L0,-3.0L2.5,-0.5"/>
                </g>
        </g>
        <svg viewBox="0 0 15 15" width="100%" height="30px" preserveAspectRatio="xMaxYMin meet">
         <g id="arrow_out" transform="scale(0.3 0.3)">
          <a xlink:href="classfs_1_1_screen_sharing_controller_a869e5a50dd78a97f7bc9042d9a6f52ba_cgraph_org.svg" target="_base">
           <rect id="button" ry="5" rx="5" y="6" x="6" height="38" width="38"
                fill="#f2f5e9" fill-opacity="0.5" stroke="#606060" stroke-width="1.0"/>
           <path id="arrow"
             d="M 11.500037,31.436501 C 11.940474,20.09759 22.043105,11.32322 32.158766,21.979434 L 37.068811,17.246167 C 37.068811,17.246167 37.088388,32 37.088388,32 L 22.160133,31.978069 C 22.160133,31.978069 26.997745,27.140456 26.997745,27.140456 C 18.528582,18.264221 13.291696,25.230495 11.500037,31.436501 z"
             style="fill:#404040;"/>
          </a>
         </g>
        </svg>
</svg>
