<?xml version="1.0" encoding="UTF-8" standalone="no"?>
<!DOCTYPE svg PUBLIC "-//W3C//DTD SVG 1.1//EN"
 "http://www.w3.org/Graphics/SVG/1.1/DTD/svg11.dtd">
<!-- Generated by graphviz version 2.40.1 (20161225.0304)
 -->
<!-- Title: fs::VoiceEngineProxy::enableEchoCancellation Pages: 1 -->
<svg width="430pt" height="37pt"
 viewBox="0.00 0.00 430.42 37.00" xmlns="http://www.w3.org/2000/svg" xmlns:xlink="http://www.w3.org/1999/xlink">
<g id="graph0" class="graph" transform="scale(1 1) rotate(0) translate(4 33)">
<title>fs::VoiceEngineProxy::enableEchoCancellation</title>
<!-- Node20 -->
<g id="node1" class="node">
<title>Node20</title>
<g id="a_node1"><a xlink:title=" ">
<polygon fill="#bfbfbf" stroke="#000000" points="0,-.5 0,-28.5 129.4131,-28.5 129.4131,-.5 0,-.5"/>
<text text-anchor="start" x="8" y="-16.5" font-family="Helvetica,sans-Serif" font-size="10.00" fill="#000000">fs::VoiceEngineProxy</text>
<text text-anchor="middle" x="64.7065" y="-6.5" font-family="Helvetica,sans-Serif" font-size="10.00" fill="#000000">::enableEchoCancellation</text>
</a>
</g>
</g>
<!-- Node21 -->
<g id="node2" class="node">
<title>Node21</title>
<g id="a_node2"><a xlink:href="classfs_1_1_voice_engine_proxy.html#ad36b2e002fea4dbbaa14aec99909e9d7" target="_top" xlink:title=" ">
<polygon fill="none" stroke="#000000" points="165.4131,-.5 165.4131,-28.5 275.915,-28.5 275.915,-.5 165.4131,-.5"/>
<text text-anchor="start" x="173.4131" y="-16.5" font-family="Helvetica,sans-Serif" font-size="10.00" fill="#000000">fs::VoiceEngineProxy</text>
<text text-anchor="middle" x="220.6641" y="-6.5" font-family="Helvetica,sans-Serif" font-size="10.00" fill="#000000">::dispatch</text>
</a>
</g>
</g>
<!-- Node20&#45;&gt;Node21 -->
<g id="edge1" class="edge">
<title>Node20&#45;&gt;Node21</title>
<path fill="none" stroke="#191970" d="M129.4917,-14.5C137.9404,-14.5 146.602,-14.5 155.064,-14.5"/>
<polygon fill="#191970" stroke="#191970" points="155.2591,-18.0001 165.259,-14.5 155.259,-11.0001 155.2591,-18.0001"/>
</g>
<!-- Node22 -->
<g id="node3" class="node">
<title>Node22</title>
<g id="a_node3"><a xlink:href="classfs_1_1_voice_engine_proxy.html#a7b9ec98dcc4627121096f416804aa69c" target="_top" xlink:title=" ">
<polygon fill="none" stroke="#000000" points="311.915,-.5 311.915,-28.5 422.417,-28.5 422.417,-.5 311.915,-.5"/>
<text text-anchor="start" x="319.915" y="-16.5" font-family="Helvetica,sans-Serif" font-size="10.00" fill="#000000">fs::VoiceEngineProxy</text>
<text text-anchor="middle" x="367.166" y="-6.5" font-family="Helvetica,sans-Serif" font-size="10.00" fill="#000000">::ioService</text>
</a>
</g>
</g>
<!-- Node21&#45;&gt;Node22 -->
<g id="edge2" class="edge">
<title>Node21&#45;&gt;Node22</title>
<path fill="none" stroke="#191970" d="M276.0502,-14.5C284.3455,-14.5 292.9664,-14.5 301.4509,-14.5"/>
<polygon fill="#191970" stroke="#191970" points="301.7016,-18.0001 311.7016,-14.5 301.7016,-11.0001 301.7016,-18.0001"/>
</g>
</g>
</svg>
