<?xml version="1.0" encoding="UTF-8" standalone="no"?>
<!DOCTYPE svg PUBLIC "-//W3C//DTD SVG 1.1//EN"
 "http://www.w3.org/Graphics/SVG/1.1/DTD/svg11.dtd">
<!-- Generated by graphviz version 2.40.1 (20161225.0304)
 -->
<!-- Title: SCUploader::JSONParser Pages: 1 -->
<svg width="224pt" height="356pt"
 viewBox="0.00 0.00 223.83 356.00" xmlns="http://www.w3.org/2000/svg" xmlns:xlink="http://www.w3.org/1999/xlink">
<g id="graph0" class="graph" transform="scale(1 1) rotate(0) translate(4 352)">
<title>SCUploader::JSONParser</title>
<!-- Node2 -->
<g id="node1" class="node">
<title>Node2</title>
<g id="a_node1"><a xlink:title=" ">
<polygon fill="#bfbfbf" stroke="#000000" points="28.3301,-.5 28.3301,-124.5 160.4824,-124.5 160.4824,-.5 28.3301,-.5"/>
<text text-anchor="middle" x="94.4063" y="-112.5" font-family="Helvetica,sans-Serif" font-size="10.00" fill="#000000">SCUploader::JSONParser</text>
<polyline fill="none" stroke="#000000" points="28.3301,-106.5 160.4824,-106.5 "/>
<text text-anchor="middle" x="94.4063" y="-94.5" font-family="Helvetica,sans-Serif" font-size="10.00" fill="#000000"> </text>
<polyline fill="none" stroke="#000000" points="28.3301,-88.5 160.4824,-88.5 "/>
<text text-anchor="start" x="36.3301" y="-76.5" font-family="Helvetica,sans-Serif" font-size="10.00" fill="#000000">+ JSONParser()</text>
<text text-anchor="start" x="36.3301" y="-66.5" font-family="Helvetica,sans-Serif" font-size="10.00" fill="#000000">+ ~JSONParser()</text>
<text text-anchor="start" x="36.3301" y="-56.5" font-family="Helvetica,sans-Serif" font-size="10.00" fill="#000000">+ jsonDestroyListener()</text>
<text text-anchor="start" x="36.3301" y="-46.5" font-family="Helvetica,sans-Serif" font-size="10.00" fill="#000000">+ jsonOnValue()</text>
<text text-anchor="start" x="36.3301" y="-36.5" font-family="Helvetica,sans-Serif" font-size="10.00" fill="#000000">+ parse()</text>
<text text-anchor="start" x="36.3301" y="-26.5" font-family="Helvetica,sans-Serif" font-size="10.00" fill="#000000">+ fileSID()</text>
<text text-anchor="start" x="36.3301" y="-16.5" font-family="Helvetica,sans-Serif" font-size="10.00" fill="#000000">+ name()</text>
<text text-anchor="start" x="36.3301" y="-6.5" font-family="Helvetica,sans-Serif" font-size="10.00" fill="#000000">+ publishURI()</text>
</a>
</g>
</g>
<!-- Node3 -->
<g id="node2" class="node">
<title>Node3</title>
<g id="a_node2"><a xlink:title=" ">
<polygon fill="none" stroke="#bfbfbf" points="0,-191.5 0,-245.5 118.8125,-245.5 118.8125,-191.5 0,-191.5"/>
<text text-anchor="middle" x="59.4063" y="-233.5" font-family="Helvetica,sans-Serif" font-size="10.00" fill="#000000">JSON::Parser::Listener</text>
<polyline fill="none" stroke="#bfbfbf" points="0,-227.5 118.8125,-227.5 "/>
<text text-anchor="middle" x="59.4063" y="-215.5" font-family="Helvetica,sans-Serif" font-size="10.00" fill="#000000"> </text>
<polyline fill="none" stroke="#bfbfbf" points="0,-209.5 118.8125,-209.5 "/>
<text text-anchor="middle" x="59.4063" y="-197.5" font-family="Helvetica,sans-Serif" font-size="10.00" fill="#000000"> </text>
</a>
</g>
</g>
<!-- Node3&#45;&gt;Node2 -->
<g id="edge1" class="edge">
<title>Node3&#45;&gt;Node2</title>
<path fill="none" stroke="#191970" d="M67.7569,-181.2798C71.5595,-164.3313 76.1638,-143.809 80.468,-124.6246"/>
<polygon fill="none" stroke="#191970" points="64.2769,-180.8032 65.5028,-191.3269 71.1071,-182.3357 64.2769,-180.8032"/>
</g>
<!-- Node4 -->
<g id="node3" class="node">
<title>Node4</title>
<g id="a_node3"><a xlink:title="STL class.">
<polygon fill="none" stroke="#bfbfbf" points="136.7314,-191.5 136.7314,-245.5 196.0811,-245.5 196.0811,-191.5 136.7314,-191.5"/>
<text text-anchor="middle" x="166.4063" y="-233.5" font-family="Helvetica,sans-Serif" font-size="10.00" fill="#000000">std::string</text>
<polyline fill="none" stroke="#bfbfbf" points="136.7314,-227.5 196.0811,-227.5 "/>
<text text-anchor="middle" x="166.4063" y="-215.5" font-family="Helvetica,sans-Serif" font-size="10.00" fill="#000000"> </text>
<polyline fill="none" stroke="#bfbfbf" points="136.7314,-209.5 196.0811,-209.5 "/>
<text text-anchor="middle" x="166.4063" y="-197.5" font-family="Helvetica,sans-Serif" font-size="10.00" fill="#000000"> </text>
</a>
</g>
</g>
<!-- Node4&#45;&gt;Node2 -->
<g id="edge2" class="edge">
<title>Node4&#45;&gt;Node2</title>
<path fill="none" stroke="#404040" d="M153.8648,-191.3269C146.6919,-175.7856 137.3183,-155.4762 128.1418,-135.5936"/>
<polygon fill="none" stroke="#404040" points="128.1079,-135.5201 121.9617,-131.7486 123.0791,-124.6246 129.2254,-128.3961 128.1079,-135.5201"/>
<text text-anchor="middle" x="180.1167" y="-165" font-family="Helvetica,sans-Serif" font-size="10.00" fill="#000000"> +m_publishURI</text>
<text text-anchor="middle" x="180.1167" y="-155" font-family="Helvetica,sans-Serif" font-size="10.00" fill="#000000">+m_fileSID</text>
<text text-anchor="middle" x="180.1167" y="-145" font-family="Helvetica,sans-Serif" font-size="10.00" fill="#000000">+m_name</text>
</g>
<!-- Node5 -->
<g id="node4" class="node">
<title>Node5</title>
<g id="a_node4"><a xlink:title="STL class.">
<polygon fill="none" stroke="#bfbfbf" points="119.3584,-283.5 119.3584,-347.5 213.4541,-347.5 213.4541,-283.5 119.3584,-283.5"/>
<text text-anchor="start" x="127.3584" y="-335.5" font-family="Helvetica,sans-Serif" font-size="10.00" fill="#000000">std::basic_string&lt;</text>
<text text-anchor="middle" x="166.4063" y="-325.5" font-family="Helvetica,sans-Serif" font-size="10.00" fill="#000000"> char &gt;</text>
<polyline fill="none" stroke="#bfbfbf" points="119.3584,-319.5 213.4541,-319.5 "/>
<text text-anchor="middle" x="166.4063" y="-307.5" font-family="Helvetica,sans-Serif" font-size="10.00" fill="#000000"> </text>
<polyline fill="none" stroke="#bfbfbf" points="119.3584,-301.5 213.4541,-301.5 "/>
<text text-anchor="middle" x="166.4063" y="-289.5" font-family="Helvetica,sans-Serif" font-size="10.00" fill="#000000"> </text>
</a>
</g>
</g>
<!-- Node5&#45;&gt;Node4 -->
<g id="edge3" class="edge">
<title>Node5&#45;&gt;Node4</title>
<path fill="none" stroke="#191970" d="M166.4063,-273.4397C166.4063,-264.0133 166.4063,-254.2564 166.4063,-245.6277"/>
<polygon fill="none" stroke="#191970" points="162.9063,-273.4697 166.4063,-283.4697 169.9063,-273.4698 162.9063,-273.4697"/>
</g>
</g>
</svg>
