<?xml version="1.0" encoding="UTF-8" standalone="no"?>
<!DOCTYPE svg PUBLIC "-//W3C//DTD SVG 1.1//EN"
 "http://www.w3.org/Graphics/SVG/1.1/DTD/svg11.dtd">
<!-- Generated by graphviz version 2.40.1 (20161225.0304)
 -->
<!-- Title: fs::MeetingClientSession::setDelegatesProvider Pages: 1 -->
<!--zoomable 517 -->
<svg id="main" version="1.1" xmlns="http://www.w3.org/2000/svg" xmlns:xlink="http://www.w3.org/1999/xlink" xml:space="preserve" onload="init(evt)">
<style type="text/css"><![CDATA[
.edge:hover path { stroke: red; }
.edge:hover polygon { stroke: red; fill: red; }
]]></style>
<script type="text/javascript"><![CDATA[
var edges = document.getElementsByTagName('g');
if (edges && edges.length) {
  for (var i=0;i<edges.length;i++) {
    if (edges[i].id.substr(0,4)=='edge') {
      edges[i].setAttribute('class','edge');
    }
  }
}
]]></script>
        <defs>
                <circle id="rim" cx="0" cy="0" r="7"/>
                <circle id="rim2" cx="0" cy="0" r="3.5"/>
                <g id="zoomPlus">
                        <use xlink:href="#rim" fill="#404040">
                                <set attributeName="fill" to="#808080" begin="zoomplus.mouseover" end="zoomplus.mouseout"/>
                        </use>
                        <path d="M-4,0h8M0,-4v8" fill="none" stroke="white" stroke-width="1.5" pointer-events="none"/>
                </g>
                <g id="zoomMin">
                        <use xlink:href="#rim" fill="#404040">
                                <set attributeName="fill" to="#808080" begin="zoomminus.mouseover" end="zoomminus.mouseout"/>
                        </use>
                        <path d="M-4,0h8" fill="none" stroke="white" stroke-width="1.5" pointer-events="none"/>
                </g>
                <g id="dirArrow">
                        <path fill="none" stroke="white" stroke-width="1.5" d="M0,-3.0v7 M-2.5,-0.5L0,-3.0L2.5,-0.5"/>
                </g>
               <g id="resetDef">
                       <use xlink:href="#rim2" fill="#404040">
                               <set attributeName="fill" to="#808080" begin="reset.mouseover" end="reset.mouseout"/>
                       </use>
               </g>
        </defs>

<script type="text/javascript">
var viewWidth = 507;
var viewHeight = 517;
var sectionId = 'dynsection-166';
</script>
<script xlink:href="svgpan.js"/>
<svg id="graph" class="graph">
<g id="viewport">
<title>fs::MeetingClientSession::setDelegatesProvider</title>
<!-- Node855 -->
<g id="node1" class="node">
<title>Node855</title>
<g id="a_node1"><a xlink:title=" ">
<polygon fill="#bfbfbf" stroke="#000000" points="0,-245.5 0,-273.5 126.0537,-273.5 126.0537,-245.5 0,-245.5"/>
<text text-anchor="start" x="8" y="-261.5" font-family="Helvetica,sans-Serif" font-size="10.00" fill="#000000">fs::MeetingClientSession</text>
<text text-anchor="middle" x="63.0269" y="-251.5" font-family="Helvetica,sans-Serif" font-size="10.00" fill="#000000">::setDelegatesProvider</text>
</a>
</g>
</g>
<!-- Node856 -->
<g id="node2" class="node">
<title>Node856</title>
<g id="a_node2"><a xlink:href="classfs_1_1_meeting_client_session.html#a5f7fdbdd34d2719f4d0ebf5a8ec139c9" target="_top" xlink:title=" ">
<polygon fill="none" stroke="#000000" points="162.0537,-245.5 162.0537,-273.5 288.1074,-273.5 288.1074,-245.5 162.0537,-245.5"/>
<text text-anchor="start" x="170.0537" y="-261.5" font-family="Helvetica,sans-Serif" font-size="10.00" fill="#000000">fs::MeetingClientSession</text>
<text text-anchor="middle" x="225.0806" y="-251.5" font-family="Helvetica,sans-Serif" font-size="10.00" fill="#000000">::configureDelegates</text>
</a>
</g>
</g>
<!-- Node855&#45;&gt;Node856 -->
<g id="edge1" class="edge">
<title>Node855&#45;&gt;Node856</title>
<path fill="none" stroke="#191970" d="M126.1451,-259.5C134.5767,-259.5 143.2807,-259.5 151.8666,-259.5"/>
<polygon fill="#191970" stroke="#191970" points="151.8681,-263.0001 161.868,-259.5 151.868,-256.0001 151.8681,-263.0001"/>
</g>
<!-- Node857 -->
<g id="node3" class="node">
<title>Node857</title>
<g id="a_node3"><a xlink:href="classfs_1_1_i_delegates_getter.html#a9de72ca97db096f4ce6adb1bdec9fca9" target="_top" xlink:title=" ">
<polygon fill="none" stroke="#000000" points="356.0679,-480.5 356.0679,-508.5 467.1313,-508.5 467.1313,-480.5 356.0679,-480.5"/>
<text text-anchor="start" x="364.0679" y="-496.5" font-family="Helvetica,sans-Serif" font-size="10.00" fill="#000000">fs::IDelegatesGetter</text>
<text text-anchor="middle" x="411.5996" y="-486.5" font-family="Helvetica,sans-Serif" font-size="10.00" fill="#000000">::getSessionDelegate</text>
</a>
</g>
</g>
<!-- Node856&#45;&gt;Node857 -->
<g id="edge2" class="edge">
<title>Node856&#45;&gt;Node857</title>
<path fill="none" stroke="#191970" d="M227.4281,-273.629C234.5262,-311.755 259.3898,-417.4921 324.1074,-471.5 330.6077,-476.9246 338.2498,-481.0844 346.2647,-484.2717"/>
<polygon fill="#191970" stroke="#191970" points="345.2039,-487.6083 355.7987,-487.584 347.5012,-480.996 345.2039,-487.6083"/>
</g>
<!-- Node858 -->
<g id="node4" class="node">
<title>Node858</title>
<g id="a_node4"><a xlink:href="classfs_1_1_i_delegates_getter.html#aad14e721ac1d1684358a2ce55184e335" target="_top" xlink:title=" ">
<polygon fill="none" stroke="#000000" points="353.8389,-433.5 353.8389,-461.5 469.3604,-461.5 469.3604,-433.5 353.8389,-433.5"/>
<text text-anchor="start" x="361.8389" y="-449.5" font-family="Helvetica,sans-Serif" font-size="10.00" fill="#000000">fs::IDelegatesGetter</text>
<text text-anchor="middle" x="411.5996" y="-439.5" font-family="Helvetica,sans-Serif" font-size="10.00" fill="#000000">::getAttendeeDelegate</text>
</a>
</g>
</g>
<!-- Node856&#45;&gt;Node858 -->
<g id="edge3" class="edge">
<title>Node856&#45;&gt;Node858</title>
<path fill="none" stroke="#191970" d="M229.5505,-273.9758C240.2828,-306.2486 270.6596,-384.4008 324.1074,-424.5 330.067,-428.9712 336.8222,-432.5751 343.8734,-435.4796"/>
<polygon fill="#191970" stroke="#191970" points="343.0313,-438.8974 353.6254,-439.0225 345.4216,-432.3181 343.0313,-438.8974"/>
</g>
<!-- Node859 -->
<g id="node5" class="node">
<title>Node859</title>
<g id="a_node5"><a xlink:href="classfs_1_1_i_delegates_getter.html#a1dd8200fec083f8cca60fdb50d890e3f" target="_top" xlink:title=" ">
<polygon fill="none" stroke="#000000" points="335.4893,-386.5 335.4893,-414.5 487.71,-414.5 487.71,-386.5 335.4893,-386.5"/>
<text text-anchor="start" x="343.4893" y="-402.5" font-family="Helvetica,sans-Serif" font-size="10.00" fill="#000000">fs::IDelegatesGetter</text>
<text text-anchor="middle" x="411.5996" y="-392.5" font-family="Helvetica,sans-Serif" font-size="10.00" fill="#000000">::getBundledAttendeeDelegate</text>
</a>
</g>
</g>
<!-- Node856&#45;&gt;Node859 -->
<g id="edge4" class="edge">
<title>Node856&#45;&gt;Node859</title>
<path fill="none" stroke="#191970" d="M232.8742,-273.5617C247.4279,-298.4759 281.186,-350.3006 324.1074,-377.5 326.742,-379.1695 329.4944,-380.7185 332.3304,-382.1555"/>
<polygon fill="#191970" stroke="#191970" points="331.0778,-385.4305 341.6305,-386.3744 333.9696,-379.0557 331.0778,-385.4305"/>
</g>
<!-- Node860 -->
<g id="node6" class="node">
<title>Node860</title>
<g id="a_node6"><a xlink:href="classfs_1_1_i_delegates_getter.html#af6de343b3415cdad70121047eebf63f7" target="_top" xlink:title=" ">
<polygon fill="none" stroke="#000000" points="359.1343,-339.5 359.1343,-367.5 464.0649,-367.5 464.0649,-339.5 359.1343,-339.5"/>
<text text-anchor="start" x="367.1343" y="-355.5" font-family="Helvetica,sans-Serif" font-size="10.00" fill="#000000">fs::IDelegatesGetter</text>
<text text-anchor="middle" x="411.5996" y="-345.5" font-family="Helvetica,sans-Serif" font-size="10.00" fill="#000000">::getChatDelegate</text>
</a>
</g>
</g>
<!-- Node856&#45;&gt;Node860 -->
<g id="edge5" class="edge">
<title>Node856&#45;&gt;Node860</title>
<path fill="none" stroke="#191970" d="M240.7392,-273.54C259.3493,-289.5257 291.9462,-315.3769 324.1074,-330.5 331.9555,-334.1904 340.4887,-337.3589 349.0461,-340.0589"/>
<polygon fill="#191970" stroke="#191970" points="348.1007,-343.4291 358.6829,-342.911 350.0874,-336.7169 348.1007,-343.4291"/>
</g>
<!-- Node861 -->
<g id="node7" class="node">
<title>Node861</title>
<g id="a_node7"><a xlink:href="classfs_1_1_i_delegates_getter.html#a99f8eb8d8deebef5e890a7c007aac70f" target="_top" xlink:title=" ">
<polygon fill="none" stroke="#000000" points="336.9883,-292.5 336.9883,-320.5 486.2109,-320.5 486.2109,-292.5 336.9883,-292.5"/>
<text text-anchor="start" x="344.9883" y="-308.5" font-family="Helvetica,sans-Serif" font-size="10.00" fill="#000000">fs::IDelegatesGetter</text>
<text text-anchor="middle" x="411.5996" y="-298.5" font-family="Helvetica,sans-Serif" font-size="10.00" fill="#000000">::getRawRTMessageDelegate</text>
</a>
</g>
</g>
<!-- Node856&#45;&gt;Node861 -->
<g id="edge6" class="edge">
<title>Node856&#45;&gt;Node861</title>
<path fill="none" stroke="#191970" d="M280.7898,-273.5379C301.2697,-278.6985 324.65,-284.59 345.9254,-289.9511"/>
<polygon fill="#191970" stroke="#191970" points="345.3033,-293.4037 355.8554,-292.4533 347.0137,-286.6158 345.3033,-293.4037"/>
</g>
<!-- Node862 -->
<g id="node8" class="node">
<title>Node862</title>
<g id="a_node8"><a xlink:href="classfs_1_1_i_delegates_getter.html#a6cd06c1d321f960b31843b9c5f5fa39b" target="_top" xlink:title=" ">
<polygon fill="none" stroke="#000000" points="324.1074,-245.5 324.1074,-273.5 499.0918,-273.5 499.0918,-245.5 324.1074,-245.5"/>
<text text-anchor="start" x="332.1074" y="-261.5" font-family="Helvetica,sans-Serif" font-size="10.00" fill="#000000">fs::IDelegatesGetter</text>
<text text-anchor="middle" x="411.5996" y="-251.5" font-family="Helvetica,sans-Serif" font-size="10.00" fill="#000000">::getRecordingBroadcasterDelegate</text>
</a>
</g>
</g>
<!-- Node856&#45;&gt;Node862 -->
<g id="edge7" class="edge">
<title>Node856&#45;&gt;Node862</title>
<path fill="none" stroke="#191970" d="M288.2274,-259.5C296.5071,-259.5 305.1416,-259.5 313.8284,-259.5"/>
<polygon fill="#191970" stroke="#191970" points="314.0319,-263.0001 324.0319,-259.5 314.0319,-256.0001 314.0319,-263.0001"/>
</g>
<!-- Node863 -->
<g id="node9" class="node">
<title>Node863</title>
<g id="a_node9"><a xlink:href="classfs_1_1_i_delegates_getter.html#ad4a171e25a72433fcf7c8b5b5a1c8f5c" target="_top" xlink:title=" ">
<polygon fill="none" stroke="#000000" points="338.8389,-188.5 338.8389,-226.5 484.3604,-226.5 484.3604,-188.5 338.8389,-188.5"/>
<text text-anchor="start" x="346.8389" y="-214.5" font-family="Helvetica,sans-Serif" font-size="10.00" fill="#000000">fs::IDelegatesGetter</text>
<text text-anchor="start" x="346.8389" y="-204.5" font-family="Helvetica,sans-Serif" font-size="10.00" fill="#000000">::getPresentationBroadcaster</text>
<text text-anchor="middle" x="411.5996" y="-194.5" font-family="Helvetica,sans-Serif" font-size="10.00" fill="#000000">Delegate</text>
</a>
</g>
</g>
<!-- Node856&#45;&gt;Node863 -->
<g id="edge8" class="edge">
<title>Node856&#45;&gt;Node863</title>
<path fill="none" stroke="#191970" d="M275.5553,-245.4281C293.3681,-240.462 313.8397,-234.7547 333.4029,-229.3006"/>
<polygon fill="#191970" stroke="#191970" points="334.5308,-232.6197 343.2235,-226.5627 332.6509,-225.8769 334.5308,-232.6197"/>
</g>
<!-- Node864 -->
<g id="node10" class="node">
<title>Node864</title>
<g id="a_node10"><a xlink:href="classfs_1_1_i_delegates_getter.html#aa9aacbb85de92f6a59826bd6dadae471" target="_top" xlink:title=" ">
<polygon fill="none" stroke="#000000" points="359.1343,-141.5 359.1343,-169.5 464.0649,-169.5 464.0649,-141.5 359.1343,-141.5"/>
<text text-anchor="start" x="367.1343" y="-157.5" font-family="Helvetica,sans-Serif" font-size="10.00" fill="#000000">fs::IDelegatesGetter</text>
<text text-anchor="middle" x="411.5996" y="-147.5" font-family="Helvetica,sans-Serif" font-size="10.00" fill="#000000">::getVoIPDelegate</text>
</a>
</g>
</g>
<!-- Node856&#45;&gt;Node864 -->
<g id="edge9" class="edge">
<title>Node856&#45;&gt;Node864</title>
<path fill="none" stroke="#191970" d="M238.8287,-245.2244C256.8197,-227.3429 290.0809,-196.9396 324.1074,-179.5 331.9492,-175.4808 340.5421,-172.0722 349.1832,-169.1991"/>
<polygon fill="#191970" stroke="#191970" points="350.4077,-172.4838 358.9223,-166.1788 348.3343,-165.7979 350.4077,-172.4838"/>
</g>
<!-- Node865 -->
<g id="node11" class="node">
<title>Node865</title>
<g id="a_node11"><a xlink:href="classfs_1_1_i_delegates_getter.html#a84a5ae75d6f1280f8528f360c8ce131d" target="_top" xlink:title=" ">
<polygon fill="none" stroke="#000000" points="359.1343,-94.5 359.1343,-122.5 464.0649,-122.5 464.0649,-94.5 359.1343,-94.5"/>
<text text-anchor="start" x="367.1343" y="-110.5" font-family="Helvetica,sans-Serif" font-size="10.00" fill="#000000">fs::IDelegatesGetter</text>
<text text-anchor="middle" x="411.5996" y="-100.5" font-family="Helvetica,sans-Serif" font-size="10.00" fill="#000000">::getVideoDelegate</text>
</a>
</g>
</g>
<!-- Node856&#45;&gt;Node865 -->
<g id="edge10" class="edge">
<title>Node856&#45;&gt;Node865</title>
<path fill="none" stroke="#191970" d="M232.1794,-245.2405C246.0738,-218.8289 279.4455,-162.2828 324.1074,-132.5 331.71,-127.4303 340.3601,-123.4258 349.1926,-120.2641"/>
<polygon fill="#191970" stroke="#191970" points="350.3703,-123.5618 358.8074,-117.1536 348.2156,-116.9016 350.3703,-123.5618"/>
</g>
<!-- Node866 -->
<g id="node12" class="node">
<title>Node866</title>
<g id="a_node12"><a xlink:href="classfs_1_1_i_delegates_getter.html#a3f39d14508a9b8646199fabaa0396d98" target="_top" xlink:title=" ">
<polygon fill="none" stroke="#000000" points="352.7329,-47.5 352.7329,-75.5 470.4663,-75.5 470.4663,-47.5 352.7329,-47.5"/>
<text text-anchor="start" x="360.7329" y="-63.5" font-family="Helvetica,sans-Serif" font-size="10.00" fill="#000000">fs::IDelegatesGetter</text>
<text text-anchor="middle" x="411.5996" y="-53.5" font-family="Helvetica,sans-Serif" font-size="10.00" fill="#000000">::getSpeakersDelegate</text>
</a>
</g>
</g>
<!-- Node856&#45;&gt;Node866 -->
<g id="edge11" class="edge">
<title>Node856&#45;&gt;Node866</title>
<path fill="none" stroke="#191970" d="M229.0396,-245.2903C239.0617,-212.0096 268.6653,-128.5785 324.1074,-85.5 329.8365,-81.0485 336.3364,-77.422 343.1444,-74.4676"/>
<polygon fill="#191970" stroke="#191970" points="344.4979,-77.697 352.5755,-70.8412 341.9855,-71.1634 344.4979,-77.697"/>
</g>
<!-- Node867 -->
<g id="node13" class="node">
<title>Node867</title>
<g id="a_node13"><a xlink:href="classfs_1_1_i_delegates_getter.html#a75b7bff15a43be8c316e0e6abbfa534a" target="_top" xlink:title=" ">
<polygon fill="none" stroke="#000000" points="358.0137,-.5 358.0137,-28.5 465.1855,-28.5 465.1855,-.5 358.0137,-.5"/>
<text text-anchor="start" x="366.0137" y="-16.5" font-family="Helvetica,sans-Serif" font-size="10.00" fill="#000000">fs::IDelegatesGetter</text>
<text text-anchor="middle" x="411.5996" y="-6.5" font-family="Helvetica,sans-Serif" font-size="10.00" fill="#000000">::getScreenDelegate</text>
</a>
</g>
</g>
<!-- Node856&#45;&gt;Node867 -->
<g id="edge12" class="edge">
<title>Node856&#45;&gt;Node867</title>
<path fill="none" stroke="#191970" d="M227.169,-245.3902C233.7206,-206.2675 257.5503,-95.5495 324.1074,-38.5 331.1332,-32.4778 339.5422,-27.9558 348.3295,-24.5624"/>
<polygon fill="#191970" stroke="#191970" points="349.6126,-27.8233 357.9656,-21.3057 347.3713,-21.1918 349.6126,-27.8233"/>
</g>
</g>
</svg>
        <g id="navigator" transform="translate(0 0)" fill="#404254">
                <rect fill="#f2f5e9" fill-opacity="0.5" stroke="#606060" stroke-width=".5" x="0" y="0" width="60" height="60"/>
                <use id="zoomplus" xlink:href="#zoomPlus" x="17" y="9" onmousedown="handleZoom(evt,'in')"/>
                <use id="zoomminus" xlink:href="#zoomMin" x="42" y="9" onmousedown="handleZoom(evt,'out')"/>
                <use id="reset" xlink:href="#resetDef" x="30" y="36" onmousedown="handleReset()"/>
                <g id="arrowUp" xlink:href="#dirArrow" transform="translate(30 24)" onmousedown="handlePan(0,-1)">
                  <use xlink:href="#rim" fill="#404040">
                        <set attributeName="fill" to="#808080" begin="arrowUp.mouseover" end="arrowUp.mouseout"/>
                  </use>
                  <path fill="none" stroke="white" stroke-width="1.5" d="M0,-3.0v7 M-2.5,-0.5L0,-3.0L2.5,-0.5"/>
                </g>
                <g id="arrowRight" xlink:href="#dirArrow" transform="rotate(90) translate(36 -43)" onmousedown="handlePan(1,0)">
                  <use xlink:href="#rim" fill="#404040">
                        <set attributeName="fill" to="#808080" begin="arrowRight.mouseover" end="arrowRight.mouseout"/>
                  </use>
                  <path fill="none" stroke="white" stroke-width="1.5" d="M0,-3.0v7 M-2.5,-0.5L0,-3.0L2.5,-0.5"/>
                </g>
                <g id="arrowDown" xlink:href="#dirArrow" transform="rotate(180) translate(-30 -48)" onmousedown="handlePan(0,1)">
                  <use xlink:href="#rim" fill="#404040">
                        <set attributeName="fill" to="#808080" begin="arrowDown.mouseover" end="arrowDown.mouseout"/>
                  </use>
                  <path fill="none" stroke="white" stroke-width="1.5" d="M0,-3.0v7 M-2.5,-0.5L0,-3.0L2.5,-0.5"/>
                </g>
                <g id="arrowLeft" xlink:href="#dirArrow" transform="rotate(270) translate(-36 17)" onmousedown="handlePan(-1,0)">
                  <use xlink:href="#rim" fill="#404040">
                        <set attributeName="fill" to="#808080" begin="arrowLeft.mouseover" end="arrowLeft.mouseout"/>
                  </use>
                  <path fill="none" stroke="white" stroke-width="1.5" d="M0,-3.0v7 M-2.5,-0.5L0,-3.0L2.5,-0.5"/>
                </g>
        </g>
        <svg viewBox="0 0 15 15" width="100%" height="30px" preserveAspectRatio="xMaxYMin meet">
         <g id="arrow_out" transform="scale(0.3 0.3)">
          <a xlink:href="classfs_1_1_meeting_client_session_a9e7c4897c38348a6068a28c1deb3dbc4_cgraph_org.svg" target="_base">
           <rect id="button" ry="5" rx="5" y="6" x="6" height="38" width="38"
                fill="#f2f5e9" fill-opacity="0.5" stroke="#606060" stroke-width="1.0"/>
           <path id="arrow"
             d="M 11.500037,31.436501 C 11.940474,20.09759 22.043105,11.32322 32.158766,21.979434 L 37.068811,17.246167 C 37.068811,17.246167 37.088388,32 37.088388,32 L 22.160133,31.978069 C 22.160133,31.978069 26.997745,27.140456 26.997745,27.140456 C 18.528582,18.264221 13.291696,25.230495 11.500037,31.436501 z"
             style="fill:#404040;"/>
          </a>
         </g>
        </svg>
</svg>
