<?xml version="1.0" encoding="UTF-8" standalone="no"?>
<!DOCTYPE svg PUBLIC "-//W3C//DTD SVG 1.1//EN"
 "http://www.w3.org/Graphics/SVG/1.1/DTD/svg11.dtd">
<!-- Generated by graphviz version 2.40.1 (20161225.0304)
 -->
<!-- Title: fs::VoiceEngineProxy::getEchoCancellationStatus Pages: 1 -->
<svg width="443pt" height="37pt"
 viewBox="0.00 0.00 442.64 37.00" xmlns="http://www.w3.org/2000/svg" xmlns:xlink="http://www.w3.org/1999/xlink">
<g id="graph0" class="graph" transform="scale(1 1) rotate(0) translate(4 33)">
<title>fs::VoiceEngineProxy::getEchoCancellationStatus</title>
<!-- Node33 -->
<g id="node1" class="node">
<title>Node33</title>
<g id="a_node1"><a xlink:title=" ">
<polygon fill="#bfbfbf" stroke="#000000" points="0,-.5 0,-28.5 141.6348,-28.5 141.6348,-.5 0,-.5"/>
<text text-anchor="start" x="8" y="-16.5" font-family="Helvetica,sans-Serif" font-size="10.00" fill="#000000">fs::VoiceEngineProxy</text>
<text text-anchor="middle" x="70.8174" y="-6.5" font-family="Helvetica,sans-Serif" font-size="10.00" fill="#000000">::getEchoCancellationStatus</text>
</a>
</g>
</g>
<!-- Node34 -->
<g id="node2" class="node">
<title>Node34</title>
<g id="a_node2"><a xlink:href="classfs_1_1_voice_engine_proxy.html#ad36b2e002fea4dbbaa14aec99909e9d7" target="_top" xlink:title=" ">
<polygon fill="none" stroke="#000000" points="177.6348,-.5 177.6348,-28.5 288.1367,-28.5 288.1367,-.5 177.6348,-.5"/>
<text text-anchor="start" x="185.6348" y="-16.5" font-family="Helvetica,sans-Serif" font-size="10.00" fill="#000000">fs::VoiceEngineProxy</text>
<text text-anchor="middle" x="232.8857" y="-6.5" font-family="Helvetica,sans-Serif" font-size="10.00" fill="#000000">::dispatch</text>
</a>
</g>
</g>
<!-- Node33&#45;&gt;Node34 -->
<g id="edge1" class="edge">
<title>Node33&#45;&gt;Node34</title>
<path fill="none" stroke="#191970" d="M141.9029,-14.5C150.3681,-14.5 158.9803,-14.5 167.3625,-14.5"/>
<polygon fill="#191970" stroke="#191970" points="167.4475,-18.0001 177.4475,-14.5 167.4475,-11.0001 167.4475,-18.0001"/>
</g>
<!-- Node35 -->
<g id="node3" class="node">
<title>Node35</title>
<g id="a_node3"><a xlink:href="classfs_1_1_voice_engine_proxy.html#a7b9ec98dcc4627121096f416804aa69c" target="_top" xlink:title=" ">
<polygon fill="none" stroke="#000000" points="324.1367,-.5 324.1367,-28.5 434.6387,-28.5 434.6387,-.5 324.1367,-.5"/>
<text text-anchor="start" x="332.1367" y="-16.5" font-family="Helvetica,sans-Serif" font-size="10.00" fill="#000000">fs::VoiceEngineProxy</text>
<text text-anchor="middle" x="379.3877" y="-6.5" font-family="Helvetica,sans-Serif" font-size="10.00" fill="#000000">::ioService</text>
</a>
</g>
</g>
<!-- Node34&#45;&gt;Node35 -->
<g id="edge2" class="edge">
<title>Node34&#45;&gt;Node35</title>
<path fill="none" stroke="#191970" d="M288.2718,-14.5C296.5672,-14.5 305.188,-14.5 313.6726,-14.5"/>
<polygon fill="#191970" stroke="#191970" points="313.9233,-18.0001 323.9233,-14.5 313.9232,-11.0001 313.9233,-18.0001"/>
</g>
</g>
</svg>
