<?xml version="1.0" encoding="UTF-8" standalone="no"?>
<!DOCTYPE svg PUBLIC "-//W3C//DTD SVG 1.1//EN"
 "http://www.w3.org/Graphics/SVG/1.1/DTD/svg11.dtd">
<!-- Generated by graphviz version 2.40.1 (20161225.0304)
 -->
<!-- Title: cx::web::SubscriptionEntity::valid Pages: 1 -->
<!--zoomable 84 -->
<svg id="main" version="1.1" xmlns="http://www.w3.org/2000/svg" xmlns:xlink="http://www.w3.org/1999/xlink" xml:space="preserve" onload="init(evt)">
<style type="text/css"><![CDATA[
.edge:hover path { stroke: red; }
.edge:hover polygon { stroke: red; fill: red; }
]]></style>
<script type="text/javascript"><![CDATA[
var edges = document.getElementsByTagName('g');
if (edges && edges.length) {
  for (var i=0;i<edges.length;i++) {
    if (edges[i].id.substr(0,4)=='edge') {
      edges[i].setAttribute('class','edge');
    }
  }
}
]]></script>
        <defs>
                <circle id="rim" cx="0" cy="0" r="7"/>
                <circle id="rim2" cx="0" cy="0" r="3.5"/>
                <g id="zoomPlus">
                        <use xlink:href="#rim" fill="#404040">
                                <set attributeName="fill" to="#808080" begin="zoomplus.mouseover" end="zoomplus.mouseout"/>
                        </use>
                        <path d="M-4,0h8M0,-4v8" fill="none" stroke="white" stroke-width="1.5" pointer-events="none"/>
                </g>
                <g id="zoomMin">
                        <use xlink:href="#rim" fill="#404040">
                                <set attributeName="fill" to="#808080" begin="zoomminus.mouseover" end="zoomminus.mouseout"/>
                        </use>
                        <path d="M-4,0h8" fill="none" stroke="white" stroke-width="1.5" pointer-events="none"/>
                </g>
                <g id="dirArrow">
                        <path fill="none" stroke="white" stroke-width="1.5" d="M0,-3.0v7 M-2.5,-0.5L0,-3.0L2.5,-0.5"/>
                </g>
               <g id="resetDef">
                       <use xlink:href="#rim2" fill="#404040">
                               <set attributeName="fill" to="#808080" begin="reset.mouseover" end="reset.mouseout"/>
                       </use>
               </g>
        </defs>

<script type="text/javascript">
var viewWidth = 574;
var viewHeight = 84;
var sectionId = 'dynsection-3';
</script>
<script xlink:href="svgpan.js"/>
<svg id="graph" class="graph">
<g id="viewport">
<title>cx::web::SubscriptionEntity::valid</title>
<!-- Node8 -->
<g id="node1" class="node">
<title>Node8</title>
<g id="a_node1"><a xlink:title=" ">
<polygon fill="#bfbfbf" stroke="#000000" points="0,-21.5 0,-49.5 135.4971,-49.5 135.4971,-21.5 0,-21.5"/>
<text text-anchor="start" x="8" y="-37.5" font-family="Helvetica,sans-Serif" font-size="10.00" fill="#000000">cx::web::SubscriptionEntity</text>
<text text-anchor="middle" x="67.7485" y="-27.5" font-family="Helvetica,sans-Serif" font-size="10.00" fill="#000000">::valid</text>
</a>
</g>
</g>
<!-- Node9 -->
<g id="node2" class="node">
<title>Node9</title>
<g id="a_node2"><a xlink:href="structcx_1_1web_1_1json__entity.html#aa681ca07ba01ea1346649b9bb01c71af" target="_top" xlink:title=" ">
<polygon fill="none" stroke="#000000" points="171.4971,-43.5 171.4971,-71.5 274.7627,-71.5 274.7627,-43.5 171.4971,-43.5"/>
<text text-anchor="start" x="179.4971" y="-59.5" font-family="Helvetica,sans-Serif" font-size="10.00" fill="#000000">cx::web::json_entity</text>
<text text-anchor="middle" x="223.1299" y="-49.5" font-family="Helvetica,sans-Serif" font-size="10.00" fill="#000000">::valid</text>
</a>
</g>
</g>
<!-- Node8&#45;&gt;Node9 -->
<g id="edge1" class="edge">
<title>Node8&#45;&gt;Node9</title>
<path fill="none" stroke="#191970" d="M135.9011,-45.1495C144.3648,-46.3479 152.9818,-47.5679 161.3422,-48.7517"/>
<polygon fill="#191970" stroke="#191970" points="160.9931,-52.2371 171.3851,-50.1736 161.9745,-45.3062 160.9931,-52.2371"/>
</g>
<!-- Node11 -->
<g id="node4" class="node">
<title>Node11</title>
<g id="a_node4"><a xlink:href="structcx_1_1web_1_1json__entity.html#a1fbed015492bb7a0c4ec31550fc3de1d" target="_top" xlink:title=" ">
<polygon fill="none" stroke="#000000" points="313.8169,-.5 313.8169,-28.5 417.0825,-28.5 417.0825,-.5 313.8169,-.5"/>
<text text-anchor="start" x="321.8169" y="-16.5" font-family="Helvetica,sans-Serif" font-size="10.00" fill="#000000">cx::web::json_entity</text>
<text text-anchor="middle" x="365.4497" y="-6.5" font-family="Helvetica,sans-Serif" font-size="10.00" fill="#000000">::get_json</text>
</a>
</g>
</g>
<!-- Node8&#45;&gt;Node11 -->
<g id="edge5" class="edge">
<title>Node8&#45;&gt;Node11</title>
<path fill="none" stroke="#191970" d="M135.674,-30.7085C186.141,-27.1485 254.4392,-22.3307 303.4353,-18.8745"/>
<polygon fill="#191970" stroke="#191970" points="303.8553,-22.3537 313.5842,-18.1586 303.3626,-15.371 303.8553,-22.3537"/>
</g>
<!-- Node10 -->
<g id="node3" class="node">
<title>Node10</title>
<g id="a_node3"><a xlink:href="structcx_1_1web_1_1string__entity.html#adbe62e791cc18ea9f4ae7fc45468c32c" target="_top" xlink:title=" ">
<polygon fill="none" stroke="#000000" points="310.7627,-47.5 310.7627,-75.5 420.1367,-75.5 420.1367,-47.5 310.7627,-47.5"/>
<text text-anchor="start" x="318.7627" y="-63.5" font-family="Helvetica,sans-Serif" font-size="10.00" fill="#000000">cx::web::string_entity</text>
<text text-anchor="middle" x="365.4497" y="-53.5" font-family="Helvetica,sans-Serif" font-size="10.00" fill="#000000">::valid</text>
</a>
</g>
</g>
<!-- Node9&#45;&gt;Node10 -->
<g id="edge2" class="edge">
<title>Node9&#45;&gt;Node10</title>
<path fill="none" stroke="#191970" d="M274.9132,-58.9554C283.2534,-59.1898 291.9781,-59.435 300.5792,-59.6768"/>
<polygon fill="#191970" stroke="#191970" points="300.4946,-63.1757 310.589,-59.9581 300.6913,-56.1784 300.4946,-63.1757"/>
</g>
<!-- Node9&#45;&gt;Node11 -->
<g id="edge3" class="edge">
<title>Node9&#45;&gt;Node11</title>
<path fill="none" stroke="#191970" d="M269.7307,-43.4202C282.2632,-39.6337 295.9541,-35.4972 308.9613,-31.5672"/>
<polygon fill="#191970" stroke="#191970" points="310.1839,-34.8542 318.7442,-28.6114 308.1593,-28.1533 310.1839,-34.8542"/>
</g>
<!-- Node12 -->
<g id="node5" class="node">
<title>Node12</title>
<g id="a_node5"><a xlink:href="structcx_1_1web_1_1string__entity.html#a532443f26d829f9d361289d856513ff4" target="_top" xlink:title=" ">
<polygon fill="none" stroke="#000000" points="456.1367,-.5 456.1367,-28.5 565.5107,-28.5 565.5107,-.5 456.1367,-.5"/>
<text text-anchor="start" x="464.1367" y="-16.5" font-family="Helvetica,sans-Serif" font-size="10.00" fill="#000000">cx::web::string_entity</text>
<text text-anchor="middle" x="510.8237" y="-6.5" font-family="Helvetica,sans-Serif" font-size="10.00" fill="#000000">::get_string</text>
</a>
</g>
</g>
<!-- Node11&#45;&gt;Node12 -->
<g id="edge4" class="edge">
<title>Node11&#45;&gt;Node12</title>
<path fill="none" stroke="#191970" d="M417.1125,-14.5C426.3421,-14.5 436.0666,-14.5 445.617,-14.5"/>
<polygon fill="#191970" stroke="#191970" points="445.8803,-18.0001 455.8802,-14.5 445.8802,-11.0001 445.8803,-18.0001"/>
</g>
</g>
</svg>
        <g id="navigator" transform="translate(0 0)" fill="#404254">
                <rect fill="#f2f5e9" fill-opacity="0.5" stroke="#606060" stroke-width=".5" x="0" y="0" width="60" height="60"/>
                <use id="zoomplus" xlink:href="#zoomPlus" x="17" y="9" onmousedown="handleZoom(evt,'in')"/>
                <use id="zoomminus" xlink:href="#zoomMin" x="42" y="9" onmousedown="handleZoom(evt,'out')"/>
                <use id="reset" xlink:href="#resetDef" x="30" y="36" onmousedown="handleReset()"/>
                <g id="arrowUp" xlink:href="#dirArrow" transform="translate(30 24)" onmousedown="handlePan(0,-1)">
                  <use xlink:href="#rim" fill="#404040">
                        <set attributeName="fill" to="#808080" begin="arrowUp.mouseover" end="arrowUp.mouseout"/>
                  </use>
                  <path fill="none" stroke="white" stroke-width="1.5" d="M0,-3.0v7 M-2.5,-0.5L0,-3.0L2.5,-0.5"/>
                </g>
                <g id="arrowRight" xlink:href="#dirArrow" transform="rotate(90) translate(36 -43)" onmousedown="handlePan(1,0)">
                  <use xlink:href="#rim" fill="#404040">
                        <set attributeName="fill" to="#808080" begin="arrowRight.mouseover" end="arrowRight.mouseout"/>
                  </use>
                  <path fill="none" stroke="white" stroke-width="1.5" d="M0,-3.0v7 M-2.5,-0.5L0,-3.0L2.5,-0.5"/>
                </g>
                <g id="arrowDown" xlink:href="#dirArrow" transform="rotate(180) translate(-30 -48)" onmousedown="handlePan(0,1)">
                  <use xlink:href="#rim" fill="#404040">
                        <set attributeName="fill" to="#808080" begin="arrowDown.mouseover" end="arrowDown.mouseout"/>
                  </use>
                  <path fill="none" stroke="white" stroke-width="1.5" d="M0,-3.0v7 M-2.5,-0.5L0,-3.0L2.5,-0.5"/>
                </g>
                <g id="arrowLeft" xlink:href="#dirArrow" transform="rotate(270) translate(-36 17)" onmousedown="handlePan(-1,0)">
                  <use xlink:href="#rim" fill="#404040">
                        <set attributeName="fill" to="#808080" begin="arrowLeft.mouseover" end="arrowLeft.mouseout"/>
                  </use>
                  <path fill="none" stroke="white" stroke-width="1.5" d="M0,-3.0v7 M-2.5,-0.5L0,-3.0L2.5,-0.5"/>
                </g>
        </g>
        <svg viewBox="0 0 15 15" width="100%" height="30px" preserveAspectRatio="xMaxYMin meet">
         <g id="arrow_out" transform="scale(0.3 0.3)">
          <a xlink:href="classcx_1_1web_1_1_subscription_entity_a5a5594f78e58387470a8453c62dab7f4_cgraph_org.svg" target="_base">
           <rect id="button" ry="5" rx="5" y="6" x="6" height="38" width="38"
                fill="#f2f5e9" fill-opacity="0.5" stroke="#606060" stroke-width="1.0"/>
           <path id="arrow"
             d="M 11.500037,31.436501 C 11.940474,20.09759 22.043105,11.32322 32.158766,21.979434 L 37.068811,17.246167 C 37.068811,17.246167 37.088388,32 37.088388,32 L 22.160133,31.978069 C 22.160133,31.978069 26.997745,27.140456 26.997745,27.140456 C 18.528582,18.264221 13.291696,25.230495 11.500037,31.436501 z"
             style="fill:#404040;"/>
          </a>
         </g>
        </svg>
</svg>
