<?xml version="1.0" encoding="UTF-8" standalone="no"?>
<!DOCTYPE svg PUBLIC "-//W3C//DTD SVG 1.1//EN"
 "http://www.w3.org/Graphics/SVG/1.1/DTD/svg11.dtd">
<!-- Generated by graphviz version 2.40.1 (20161225.0304)
 -->
<!-- Title: cx::web::APIv3Wrapper::getInvitationText Pages: 1 -->
<svg width="476pt" height="84pt"
 viewBox="0.00 0.00 476.29 84.00" xmlns="http://www.w3.org/2000/svg" xmlns:xlink="http://www.w3.org/1999/xlink">
<g id="graph0" class="graph" transform="scale(1 1) rotate(0) translate(4 80)">
<title>cx::web::APIv3Wrapper::getInvitationText</title>
<!-- Node48 -->
<g id="node1" class="node">
<title>Node48</title>
<g id="a_node1"><a xlink:title=" ">
<polygon fill="#bfbfbf" stroke="#000000" points="0,-23.5 0,-51.5 120.3066,-51.5 120.3066,-23.5 0,-23.5"/>
<text text-anchor="start" x="8" y="-39.5" font-family="Helvetica,sans-Serif" font-size="10.00" fill="#000000">cx::web::APIv3Wrapper</text>
<text text-anchor="middle" x="60.1533" y="-29.5" font-family="Helvetica,sans-Serif" font-size="10.00" fill="#000000">::getInvitationText</text>
</a>
</g>
</g>
<!-- Node49 -->
<g id="node2" class="node">
<title>Node49</title>
<g id="a_node2"><a xlink:href="classcx_1_1web_1_1_a_p_iv3_wrapper.html#a35f4cbf1d298182aadcfcb8d68c75748" target="_top" xlink:title=" ">
<polygon fill="none" stroke="#000000" points="165.2886,-47.5 165.2886,-75.5 285.5952,-75.5 285.5952,-47.5 165.2886,-47.5"/>
<text text-anchor="start" x="173.2886" y="-63.5" font-family="Helvetica,sans-Serif" font-size="10.00" fill="#000000">cx::web::APIv3Wrapper</text>
<text text-anchor="middle" x="225.4419" y="-53.5" font-family="Helvetica,sans-Serif" font-size="10.00" fill="#000000">::generateSIG</text>
</a>
</g>
</g>
<!-- Node48&#45;&gt;Node49 -->
<g id="edge1" class="edge">
<title>Node48&#45;&gt;Node49</title>
<path fill="none" stroke="#191970" d="M120.7621,-46.3004C131.9501,-47.9249 143.7193,-49.6338 155.1647,-51.2957"/>
<polygon fill="#191970" stroke="#191970" points="154.7175,-54.7674 165.1167,-52.7407 155.7234,-47.84 154.7175,-54.7674"/>
</g>
<!-- Node50 -->
<g id="node3" class="node">
<title>Node50</title>
<g id="a_node3"><a xlink:href="classcx_1_1_h_t_t_p_request_container.html#a88443e3419255d1d2bb8503829c4bcaa" target="_top" xlink:title=" ">
<polygon fill="none" stroke="#000000" points="156.3066,-.5 156.3066,-28.5 294.5771,-28.5 294.5771,-.5 156.3066,-.5"/>
<text text-anchor="start" x="164.3066" y="-16.5" font-family="Helvetica,sans-Serif" font-size="10.00" fill="#000000">cx::HTTPRequestContainer</text>
<text text-anchor="middle" x="225.4419" y="-6.5" font-family="Helvetica,sans-Serif" font-size="10.00" fill="#000000">::request</text>
</a>
</g>
</g>
<!-- Node48&#45;&gt;Node50 -->
<g id="edge2" class="edge">
<title>Node48&#45;&gt;Node50</title>
<path fill="none" stroke="#191970" d="M120.7621,-29.0662C129.0399,-27.9144 137.6359,-26.7183 146.1835,-25.5289"/>
<polygon fill="#191970" stroke="#191970" points="146.7512,-28.9837 156.1734,-24.1388 145.7864,-22.0505 146.7512,-28.9837"/>
</g>
<!-- Node51 -->
<g id="node4" class="node">
<title>Node51</title>
<g id="a_node4"><a xlink:href="structcx_1_1_h_t_t_p_request_1_1_request_params.html#aad683476ac9a2874f8a98a530d2b791b" target="_top" xlink:title=" ">
<polygon fill="none" stroke="#000000" points="330.5771,-.5 330.5771,-28.5 468.291,-28.5 468.291,-.5 330.5771,-.5"/>
<text text-anchor="start" x="338.5771" y="-16.5" font-family="Helvetica,sans-Serif" font-size="10.00" fill="#000000">cx::HTTPRequest::Request</text>
<text text-anchor="middle" x="399.4341" y="-6.5" font-family="Helvetica,sans-Serif" font-size="10.00" fill="#000000">Params::start</text>
</a>
</g>
</g>
<!-- Node50&#45;&gt;Node51 -->
<g id="edge3" class="edge">
<title>Node50&#45;&gt;Node51</title>
<path fill="none" stroke="#191970" d="M294.7082,-14.5C303.0625,-14.5 311.6446,-14.5 320.1284,-14.5"/>
<polygon fill="#191970" stroke="#191970" points="320.4062,-18.0001 330.4061,-14.5 320.4061,-11.0001 320.4062,-18.0001"/>
</g>
</g>
</svg>
