<?xml version="1.0" encoding="UTF-8" standalone="no"?>
<!DOCTYPE svg PUBLIC "-//W3C//DTD SVG 1.1//EN"
 "http://www.w3.org/Graphics/SVG/1.1/DTD/svg11.dtd">
<!-- Generated by graphviz version 2.40.1 (20161225.0304)
 -->
<!-- Title: fs::VideoRenderer Pages: 1 -->
<svg width="200pt" height="620pt"
 viewBox="0.00 0.00 199.95 620.00" xmlns="http://www.w3.org/2000/svg" xmlns:xlink="http://www.w3.org/1999/xlink">
<g id="graph0" class="graph" transform="scale(1 1) rotate(0) translate(4 616)">
<title>fs::VideoRenderer</title>
<!-- Node1 -->
<g id="node1" class="node">
<title>Node1</title>
<g id="a_node1"><a xlink:title=" ">
<polygon fill="#bfbfbf" stroke="#000000" points="40.127,-.5 40.127,-104.5 151.8252,-104.5 151.8252,-.5 40.127,-.5"/>
<text text-anchor="middle" x="95.9761" y="-92.5" font-family="Helvetica,sans-Serif" font-size="10.00" fill="#000000">fs::VideoRenderer</text>
<polyline fill="none" stroke="#000000" points="40.127,-86.5 151.8252,-86.5 "/>
<text text-anchor="start" x="48.127" y="-74.5" font-family="Helvetica,sans-Serif" font-size="10.00" fill="#000000"># sourceType</text>
<polyline fill="none" stroke="#000000" points="40.127,-68.5 151.8252,-68.5 "/>
<text text-anchor="start" x="48.127" y="-56.5" font-family="Helvetica,sans-Serif" font-size="10.00" fill="#000000">+ VideoRenderer()</text>
<text text-anchor="start" x="48.127" y="-46.5" font-family="Helvetica,sans-Serif" font-size="10.00" fill="#000000">+ ~VideoRenderer()</text>
<text text-anchor="start" x="48.127" y="-36.5" font-family="Helvetica,sans-Serif" font-size="10.00" fill="#000000">+ onFrameAvailable()</text>
<text text-anchor="start" x="48.127" y="-26.5" font-family="Helvetica,sans-Serif" font-size="10.00" fill="#000000">+ getSourceType()</text>
<text text-anchor="start" x="48.127" y="-16.5" font-family="Helvetica,sans-Serif" font-size="10.00" fill="#000000">+ getOwner()</text>
<text text-anchor="start" x="48.127" y="-6.5" font-family="Helvetica,sans-Serif" font-size="10.00" fill="#000000">+ setOwner()</text>
</a>
</g>
</g>
<!-- Node2 -->
<g id="node2" class="node">
<title>Node2</title>
<g id="a_node2"><a xlink:href="struct_session_id.html" target="_top" xlink:title=" ">
<polygon fill="none" stroke="#000000" points="66.0181,-151.5 66.0181,-205.5 125.9341,-205.5 125.9341,-151.5 66.0181,-151.5"/>
<text text-anchor="middle" x="95.9761" y="-193.5" font-family="Helvetica,sans-Serif" font-size="10.00" fill="#000000">SessionId</text>
<polyline fill="none" stroke="#000000" points="66.0181,-187.5 125.9341,-187.5 "/>
<text text-anchor="middle" x="95.9761" y="-175.5" font-family="Helvetica,sans-Serif" font-size="10.00" fill="#000000"> </text>
<polyline fill="none" stroke="#000000" points="66.0181,-169.5 125.9341,-169.5 "/>
<text text-anchor="middle" x="95.9761" y="-157.5" font-family="Helvetica,sans-Serif" font-size="10.00" fill="#000000"> </text>
</a>
</g>
</g>
<!-- Node2&#45;&gt;Node1 -->
<g id="edge1" class="edge">
<title>Node2&#45;&gt;Node1</title>
<path fill="none" stroke="#404040" d="M95.9761,-151.4698C95.9761,-141.2198 95.9761,-129.0594 95.9761,-116.8321"/>
<polygon fill="none" stroke="#404040" points="95.9762,-116.6507 91.9761,-110.6508 95.9761,-104.6507 99.9761,-110.6507 95.9762,-116.6507"/>
<text text-anchor="middle" x="113.7642" y="-125" font-family="Helvetica,sans-Serif" font-size="10.00" fill="#000000"> #owner</text>
</g>
<!-- Node3 -->
<g id="node3" class="node">
<title>Node3</title>
<g id="a_node3"><a xlink:href="struct_strong_identity.html" target="_top" xlink:title=" ">
<polygon fill="none" stroke="#000000" points="29.4678,-243.5 29.4678,-337.5 162.4844,-337.5 162.4844,-243.5 29.4678,-243.5"/>
<text text-anchor="start" x="37.4678" y="-325.5" font-family="Helvetica,sans-Serif" font-size="10.00" fill="#000000">StrongIdentity&lt; SessionId,</text>
<text text-anchor="middle" x="95.9761" y="-315.5" font-family="Helvetica,sans-Serif" font-size="10.00" fill="#000000"> BaseIdentity &gt;</text>
<polyline fill="none" stroke="#000000" points="29.4678,-309.5 162.4844,-309.5 "/>
<text text-anchor="middle" x="95.9761" y="-297.5" font-family="Helvetica,sans-Serif" font-size="10.00" fill="#000000"> </text>
<polyline fill="none" stroke="#000000" points="29.4678,-291.5 162.4844,-291.5 "/>
<text text-anchor="start" x="37.4678" y="-279.5" font-family="Helvetica,sans-Serif" font-size="10.00" fill="#000000">+ get_value()</text>
<text text-anchor="start" x="37.4678" y="-269.5" font-family="Helvetica,sans-Serif" font-size="10.00" fill="#000000">+ get_value()</text>
<text text-anchor="start" x="37.4678" y="-259.5" font-family="Helvetica,sans-Serif" font-size="10.00" fill="#000000">+ is_empty()</text>
<text text-anchor="start" x="37.4678" y="-249.5" font-family="Helvetica,sans-Serif" font-size="10.00" fill="#000000">+ is_defined()</text>
</a>
</g>
</g>
<!-- Node3&#45;&gt;Node2 -->
<g id="edge2" class="edge">
<title>Node3&#45;&gt;Node2</title>
<path fill="none" stroke="#191970" d="M95.9761,-233.2596C95.9761,-223.57 95.9761,-213.9299 95.9761,-205.5005"/>
<polygon fill="none" stroke="#191970" points="92.4762,-233.3265 95.9761,-243.3265 99.4762,-233.3266 92.4762,-233.3265"/>
</g>
<!-- Node4 -->
<g id="node4" class="node">
<title>Node4</title>
<g id="a_node4"><a xlink:href="structdetails_1_1strong__typedef.html" target="_top" xlink:title=" ">
<polygon fill="none" stroke="#000000" points="14.7437,-375.5 14.7437,-499.5 177.2085,-499.5 177.2085,-375.5 14.7437,-375.5"/>
<text text-anchor="start" x="22.7437" y="-487.5" font-family="Helvetica,sans-Serif" font-size="10.00" fill="#000000">details::strong_typedef</text>
<text text-anchor="middle" x="95.9761" y="-477.5" font-family="Helvetica,sans-Serif" font-size="10.00" fill="#000000">&lt; SessionId, BaseIdentity &gt;</text>
<polyline fill="none" stroke="#000000" points="14.7437,-471.5 177.2085,-471.5 "/>
<text text-anchor="start" x="22.7437" y="-459.5" font-family="Helvetica,sans-Serif" font-size="10.00" fill="#000000">+ t</text>
<polyline fill="none" stroke="#000000" points="14.7437,-453.5 177.2085,-453.5 "/>
<text text-anchor="start" x="22.7437" y="-441.5" font-family="Helvetica,sans-Serif" font-size="10.00" fill="#000000">+ strong_typedef()</text>
<text text-anchor="start" x="22.7437" y="-431.5" font-family="Helvetica,sans-Serif" font-size="10.00" fill="#000000">+ strong_typedef()</text>
<text text-anchor="start" x="22.7437" y="-421.5" font-family="Helvetica,sans-Serif" font-size="10.00" fill="#000000">+ strong_typedef()</text>
<text text-anchor="start" x="22.7437" y="-411.5" font-family="Helvetica,sans-Serif" font-size="10.00" fill="#000000">+ operator const BaseIdentity &amp;()</text>
<text text-anchor="start" x="22.7437" y="-401.5" font-family="Helvetica,sans-Serif" font-size="10.00" fill="#000000">+ operator BaseIdentity &amp;()</text>
<text text-anchor="start" x="22.7437" y="-391.5" font-family="Helvetica,sans-Serif" font-size="10.00" fill="#000000">+ operator==()</text>
<text text-anchor="start" x="22.7437" y="-381.5" font-family="Helvetica,sans-Serif" font-size="10.00" fill="#000000">+ operator&lt;()</text>
</a>
</g>
</g>
<!-- Node4&#45;&gt;Node3 -->
<g id="edge3" class="edge">
<title>Node4&#45;&gt;Node3</title>
<path fill="none" stroke="#191970" d="M95.9761,-365.1162C95.9761,-355.8267 95.9761,-346.5135 95.9761,-337.7702"/>
<polygon fill="none" stroke="#191970" points="92.4762,-365.1587 95.9761,-375.1588 99.4762,-365.1588 92.4762,-365.1587"/>
</g>
<!-- Node5 -->
<g id="node5" class="node">
<title>Node5</title>
<g id="a_node5"><a xlink:title=" ">
<polygon fill="none" stroke="#bfbfbf" points="0,-537.5 0,-611.5 191.9521,-611.5 191.9521,-537.5 0,-537.5"/>
<text text-anchor="start" x="8" y="-599.5" font-family="Helvetica,sans-Serif" font-size="10.00" fill="#000000">boost::totally_ordered1</text>
<text text-anchor="start" x="8" y="-589.5" font-family="Helvetica,sans-Serif" font-size="10.00" fill="#000000">&lt; SessionId, boost::totally</text>
<text text-anchor="middle" x="95.9761" y="-579.5" font-family="Helvetica,sans-Serif" font-size="10.00" fill="#000000">_ordered2&lt; SessionId, BaseIdentity &gt; &gt;</text>
<polyline fill="none" stroke="#bfbfbf" points="0,-573.5 191.9521,-573.5 "/>
<text text-anchor="middle" x="95.9761" y="-561.5" font-family="Helvetica,sans-Serif" font-size="10.00" fill="#000000"> </text>
<polyline fill="none" stroke="#bfbfbf" points="0,-555.5 191.9521,-555.5 "/>
<text text-anchor="middle" x="95.9761" y="-543.5" font-family="Helvetica,sans-Serif" font-size="10.00" fill="#000000"> </text>
</a>
</g>
</g>
<!-- Node5&#45;&gt;Node4 -->
<g id="edge4" class="edge">
<title>Node5&#45;&gt;Node4</title>
<path fill="none" stroke="#191970" d="M95.9761,-527.2708C95.9761,-518.3774 95.9761,-508.953 95.9761,-499.6841"/>
<polygon fill="none" stroke="#191970" points="92.4762,-527.4258 95.9761,-537.4258 99.4762,-527.4259 92.4762,-527.4258"/>
</g>
</g>
</svg>
