<?xml version="1.0" encoding="UTF-8" standalone="no"?>
<!DOCTYPE svg PUBLIC "-//W3C//DTD SVG 1.1//EN"
 "http://www.w3.org/Graphics/SVG/1.1/DTD/svg11.dtd">
<!-- Generated by graphviz version 2.40.1 (20161225.0304)
 -->
<!-- Title: fs::InvalidExecutionTheadException Pages: 1 -->
<svg width="139pt" height="164pt"
 viewBox="0.00 0.00 138.51 164.00" xmlns="http://www.w3.org/2000/svg" xmlns:xlink="http://www.w3.org/1999/xlink">
<g id="graph0" class="graph" transform="scale(1 1) rotate(0) translate(4 160)">
<title>fs::InvalidExecutionTheadException</title>
<!-- Node0 -->
<g id="node1" class="node">
<title>Node0</title>
<g id="a_node1"><a xlink:title=" ">
<polygon fill="#bfbfbf" stroke="#000000" points="0,-.5 0,-64.5 130.5117,-64.5 130.5117,-.5 0,-.5"/>
<text text-anchor="start" x="8" y="-52.5" font-family="Helvetica,sans-Serif" font-size="10.00" fill="#000000">fs::InvalidExecutionThead</text>
<text text-anchor="middle" x="65.2559" y="-42.5" font-family="Helvetica,sans-Serif" font-size="10.00" fill="#000000">Exception</text>
<polyline fill="none" stroke="#000000" points="0,-36.5 130.5117,-36.5 "/>
<text text-anchor="middle" x="65.2559" y="-24.5" font-family="Helvetica,sans-Serif" font-size="10.00" fill="#000000"> </text>
<polyline fill="none" stroke="#000000" points="0,-18.5 130.5117,-18.5 "/>
<text text-anchor="start" x="8" y="-6.5" font-family="Helvetica,sans-Serif" font-size="10.00" fill="#000000">+ what()</text>
</a>
</g>
</g>
<!-- Node1 -->
<g id="node2" class="node">
<title>Node1</title>
<g id="a_node2"><a xlink:title="STL class.">
<polygon fill="none" stroke="#bfbfbf" points="26.4038,-101.5 26.4038,-155.5 104.1079,-155.5 104.1079,-101.5 26.4038,-101.5"/>
<text text-anchor="middle" x="65.2559" y="-143.5" font-family="Helvetica,sans-Serif" font-size="10.00" fill="#000000">std::exception</text>
<polyline fill="none" stroke="#bfbfbf" points="26.4038,-137.5 104.1079,-137.5 "/>
<text text-anchor="middle" x="65.2559" y="-125.5" font-family="Helvetica,sans-Serif" font-size="10.00" fill="#000000"> </text>
<polyline fill="none" stroke="#bfbfbf" points="26.4038,-119.5 104.1079,-119.5 "/>
<text text-anchor="middle" x="65.2559" y="-107.5" font-family="Helvetica,sans-Serif" font-size="10.00" fill="#000000"> </text>
</a>
</g>
</g>
<!-- Node1&#45;&gt;Node0 -->
<g id="edge1" class="edge">
<title>Node1&#45;&gt;Node0</title>
<path fill="none" stroke="#191970" d="M65.2559,-91.2276C65.2559,-82.4295 65.2559,-73.1248 65.2559,-64.5792"/>
<polygon fill="none" stroke="#191970" points="61.756,-91.247 65.2559,-101.247 68.756,-91.2471 61.756,-91.247"/>
</g>
</g>
</svg>
