<?xml version="1.0" encoding="UTF-8" standalone="no"?>
<!DOCTYPE svg PUBLIC "-//W3C//DTD SVG 1.1//EN"
 "http://www.w3.org/Graphics/SVG/1.1/DTD/svg11.dtd">
<!-- Generated by graphviz version 2.40.1 (20161225.0304)
 -->
<!-- Title: fs::FSPktArrayEntry&lt; T &gt; Pages: 1 -->
<svg width="135pt" height="204pt"
 viewBox="0.00 0.00 134.79 204.00" xmlns="http://www.w3.org/2000/svg" xmlns:xlink="http://www.w3.org/1999/xlink">
<g id="graph0" class="graph" transform="scale(1 1) rotate(0) translate(4 200)">
<title>fs::FSPktArrayEntry&lt; T &gt;</title>
<!-- Node0 -->
<g id="node1" class="node">
<title>Node0</title>
<g id="a_node1"><a xlink:title=" ">
<polygon fill="#bfbfbf" stroke="#000000" points="0,-.5 0,-74.5 126.7861,-74.5 126.7861,-.5 0,-.5"/>
<text text-anchor="middle" x="63.3931" y="-62.5" font-family="Helvetica,sans-Serif" font-size="10.00" fill="#000000">fs::FSPktArrayEntry&lt; T &gt;</text>
<polyline fill="none" stroke="#000000" points="0,-56.5 126.7861,-56.5 "/>
<text text-anchor="middle" x="63.3931" y="-44.5" font-family="Helvetica,sans-Serif" font-size="10.00" fill="#000000"> </text>
<polyline fill="none" stroke="#000000" points="0,-38.5 126.7861,-38.5 "/>
<text text-anchor="start" x="8" y="-26.5" font-family="Helvetica,sans-Serif" font-size="10.00" fill="#000000">+ FSPktArrayEntry()</text>
<text text-anchor="start" x="8" y="-16.5" font-family="Helvetica,sans-Serif" font-size="10.00" fill="#000000">+ read()</text>
<text text-anchor="start" x="8" y="-6.5" font-family="Helvetica,sans-Serif" font-size="10.00" fill="#000000">+ write()</text>
</a>
</g>
</g>
<!-- Node1 -->
<g id="node2" class="node">
<title>Node1</title>
<g id="a_node2"><a xlink:href="classfs_1_1_f_s_pkt_stream.html" target="_top" xlink:title=" ">
<polygon fill="none" stroke="#000000" points="15.105,-111.5 15.105,-195.5 111.6812,-195.5 111.6812,-111.5 15.105,-111.5"/>
<text text-anchor="middle" x="63.3931" y="-183.5" font-family="Helvetica,sans-Serif" font-size="10.00" fill="#000000">fs::FSPktStream</text>
<polyline fill="none" stroke="#000000" points="15.105,-177.5 111.6812,-177.5 "/>
<text text-anchor="start" x="23.105" y="-165.5" font-family="Helvetica,sans-Serif" font-size="10.00" fill="#000000"># m_pxObj</text>
<polyline fill="none" stroke="#000000" points="15.105,-159.5 111.6812,-159.5 "/>
<text text-anchor="start" x="23.105" y="-147.5" font-family="Helvetica,sans-Serif" font-size="10.00" fill="#000000">+ ~FSPktStream()</text>
<text text-anchor="start" x="23.105" y="-137.5" font-family="Helvetica,sans-Serif" font-size="10.00" fill="#000000">+ read()</text>
<text text-anchor="start" x="23.105" y="-127.5" font-family="Helvetica,sans-Serif" font-size="10.00" fill="#000000">+ write()</text>
<text text-anchor="start" x="23.105" y="-117.5" font-family="Helvetica,sans-Serif" font-size="10.00" fill="#000000">+ object()</text>
</a>
</g>
</g>
<!-- Node1&#45;&gt;Node0 -->
<g id="edge1" class="edge">
<title>Node1&#45;&gt;Node0</title>
<path fill="none" stroke="#191970" d="M63.3931,-101.0572C63.3931,-92.2275 63.3931,-83.2244 63.3931,-74.8766"/>
<polygon fill="none" stroke="#191970" points="59.8932,-101.2932 63.3931,-111.2932 66.8932,-101.2932 59.8932,-101.2932"/>
</g>
</g>
</svg>
