<?xml version="1.0" encoding="UTF-8" standalone="no"?>
<!DOCTYPE svg PUBLIC "-//W3C//DTD SVG 1.1//EN"
 "http://www.w3.org/Graphics/SVG/1.1/DTD/svg11.dtd">
<!-- Generated by graphviz version 2.40.1 (20161225.0304)
 -->
<!-- Title: fs::ScreenSharingController::onFSStreamStarted Pages: 1 -->
<svg width="475pt" height="178pt"
 viewBox="0.00 0.00 475.37 178.00" xmlns="http://www.w3.org/2000/svg" xmlns:xlink="http://www.w3.org/1999/xlink">
<g id="graph0" class="graph" transform="scale(1 1) rotate(0) translate(4 174)">
<title>fs::ScreenSharingController::onFSStreamStarted</title>
<!-- Node221 -->
<g id="node1" class="node">
<title>Node221</title>
<g id="a_node1"><a xlink:title=" ">
<polygon fill="#bfbfbf" stroke="#000000" points="0,-70.5 0,-98.5 138.8369,-98.5 138.8369,-70.5 0,-70.5"/>
<text text-anchor="start" x="8" y="-86.5" font-family="Helvetica,sans-Serif" font-size="10.00" fill="#000000">fs::ScreenSharingController</text>
<text text-anchor="middle" x="69.4185" y="-76.5" font-family="Helvetica,sans-Serif" font-size="10.00" fill="#000000">::onFSStreamStarted</text>
</a>
</g>
</g>
<!-- Node222 -->
<g id="node2" class="node">
<title>Node222</title>
<g id="a_node2"><a xlink:href="classfs_1_1_screen_sharing_controller.html#a51b9a708496d216d49718b4c1f240de8" target="_top" xlink:title=" ">
<polygon fill="none" stroke="#000000" points="174.8369,-141.5 174.8369,-169.5 313.6738,-169.5 313.6738,-141.5 174.8369,-141.5"/>
<text text-anchor="start" x="182.8369" y="-157.5" font-family="Helvetica,sans-Serif" font-size="10.00" fill="#000000">fs::ScreenSharingController</text>
<text text-anchor="middle" x="244.2554" y="-147.5" font-family="Helvetica,sans-Serif" font-size="10.00" fill="#000000">::resetCursorImage</text>
</a>
</g>
</g>
<!-- Node221&#45;&gt;Node222 -->
<g id="edge1" class="edge">
<title>Node221&#45;&gt;Node222</title>
<path fill="none" stroke="#191970" d="M98.1438,-98.5912C119.1396,-108.6409 148.4382,-122.1512 174.8369,-132.5 179.6629,-134.3919 184.7152,-136.2653 189.799,-138.0781"/>
<polygon fill="#191970" stroke="#191970" points="188.9679,-141.4948 199.5627,-141.4783 191.2701,-134.8842 188.9679,-141.4948"/>
</g>
<!-- Node223 -->
<g id="node3" class="node">
<title>Node223</title>
<g id="a_node3"><a xlink:href="classfs_1_1_screen_sharing_controller.html#a714ea09b1b0eca386555c35a788ec905" target="_top" xlink:title=" ">
<polygon fill="none" stroke="#000000" points="174.8369,-94.5 174.8369,-122.5 313.6738,-122.5 313.6738,-94.5 174.8369,-94.5"/>
<text text-anchor="start" x="182.8369" y="-110.5" font-family="Helvetica,sans-Serif" font-size="10.00" fill="#000000">fs::ScreenSharingController</text>
<text text-anchor="middle" x="244.2554" y="-100.5" font-family="Helvetica,sans-Serif" font-size="10.00" fill="#000000">::enableDesktopSharing</text>
</a>
</g>
</g>
<!-- Node221&#45;&gt;Node223 -->
<g id="edge2" class="edge">
<title>Node221&#45;&gt;Node223</title>
<path fill="none" stroke="#191970" d="M139.021,-94.0544C147.4397,-95.21 156.0886,-96.3973 164.6372,-97.5708"/>
<polygon fill="#191970" stroke="#191970" points="164.2236,-101.0467 174.6067,-98.9393 165.1756,-94.1117 164.2236,-101.0467"/>
</g>
<!-- Node225 -->
<g id="node5" class="node">
<title>Node225</title>
<g id="a_node5"><a xlink:href="classfs_1_1_screen_sharing_controller.html#ac79cb158f28273f443b412d41448ad0f" target="_top" xlink:title=" ">
<polygon fill="none" stroke="#000000" points="174.8369,-47.5 174.8369,-75.5 313.6738,-75.5 313.6738,-47.5 174.8369,-47.5"/>
<text text-anchor="start" x="182.8369" y="-63.5" font-family="Helvetica,sans-Serif" font-size="10.00" fill="#000000">fs::ScreenSharingController</text>
<text text-anchor="middle" x="244.2554" y="-53.5" font-family="Helvetica,sans-Serif" font-size="10.00" fill="#000000">::isDesktopSharingEnabled</text>
</a>
</g>
</g>
<!-- Node221&#45;&gt;Node225 -->
<g id="edge4" class="edge">
<title>Node221&#45;&gt;Node225</title>
<path fill="none" stroke="#191970" d="M139.021,-75.3437C147.4397,-74.2362 156.0886,-73.0984 164.6372,-71.9739"/>
<polygon fill="#191970" stroke="#191970" points="165.1486,-75.4368 174.6067,-70.6624 164.2356,-68.4966 165.1486,-75.4368"/>
</g>
<!-- Node226 -->
<g id="node6" class="node">
<title>Node226</title>
<g id="a_node6"><a xlink:href="classfs_1_1_screen_sharing_controller.html#a6ba792dbde7a050876e21c134740dc5a" target="_top" xlink:title=" ">
<polygon fill="none" stroke="#000000" points="174.8369,-.5 174.8369,-28.5 313.6738,-28.5 313.6738,-.5 174.8369,-.5"/>
<text text-anchor="start" x="182.8369" y="-16.5" font-family="Helvetica,sans-Serif" font-size="10.00" fill="#000000">fs::ScreenSharingController</text>
<text text-anchor="middle" x="244.2554" y="-6.5" font-family="Helvetica,sans-Serif" font-size="10.00" fill="#000000">::setDirectorId</text>
</a>
</g>
</g>
<!-- Node221&#45;&gt;Node226 -->
<g id="edge5" class="edge">
<title>Node221&#45;&gt;Node226</title>
<path fill="none" stroke="#191970" d="M100.058,-70.3702C120.9538,-60.9222 149.353,-48.4476 174.8369,-38.5 180.3921,-36.3315 186.2343,-34.1544 192.0732,-32.0442"/>
<polygon fill="#191970" stroke="#191970" points="193.5959,-35.2175 201.8453,-28.5693 191.2506,-28.6221 193.5959,-35.2175"/>
</g>
<!-- Node224 -->
<g id="node4" class="node">
<title>Node224</title>
<g id="a_node4"><a xlink:href="classfs_1_1_f_s_screen_blocks_pkt.html#a83a130f8e92f28d9218c2875fedd9ac8" target="_top" xlink:title=" ">
<polygon fill="none" stroke="#000000" points="349.6738,-94.5 349.6738,-122.5 467.373,-122.5 467.373,-94.5 349.6738,-94.5"/>
<text text-anchor="start" x="357.6738" y="-110.5" font-family="Helvetica,sans-Serif" font-size="10.00" fill="#000000">fs::FSScreenBlocksPkt</text>
<text text-anchor="middle" x="408.5234" y="-100.5" font-family="Helvetica,sans-Serif" font-size="10.00" fill="#000000">::setFlags</text>
</a>
</g>
</g>
<!-- Node223&#45;&gt;Node224 -->
<g id="edge3" class="edge">
<title>Node223&#45;&gt;Node224</title>
<path fill="none" stroke="#191970" d="M313.9198,-108.5C322.3745,-108.5 331.0098,-108.5 339.4558,-108.5"/>
<polygon fill="#191970" stroke="#191970" points="339.6394,-112.0001 349.6394,-108.5 339.6394,-105.0001 339.6394,-112.0001"/>
</g>
</g>
</svg>
