<?xml version="1.0" encoding="UTF-8" standalone="no"?>
<!DOCTYPE svg PUBLIC "-//W3C//DTD SVG 1.1//EN"
 "http://www.w3.org/Graphics/SVG/1.1/DTD/svg11.dtd">
<!-- Generated by graphviz version 2.40.1 (20161225.0304)
 -->
<!-- Title: fs::MeetingClient::getVideoNotificationsDelegate Pages: 1 -->
<svg width="493pt" height="84pt"
 viewBox="0.00 0.00 493.06 84.00" xmlns="http://www.w3.org/2000/svg" xmlns:xlink="http://www.w3.org/1999/xlink">
<g id="graph0" class="graph" transform="scale(1 1) rotate(0) translate(4 80)">
<title>fs::MeetingClient::getVideoNotificationsDelegate</title>
<!-- Node134 -->
<g id="node1" class="node">
<title>Node134</title>
<g id="a_node1"><a xlink:title=" ">
<polygon fill="#bfbfbf" stroke="#000000" points="335.2646,-23.5 335.2646,-51.5 485.0635,-51.5 485.0635,-23.5 335.2646,-23.5"/>
<text text-anchor="start" x="343.2646" y="-39.5" font-family="Helvetica,sans-Serif" font-size="10.00" fill="#000000">fs::MeetingClient::</text>
<text text-anchor="middle" x="410.1641" y="-29.5" font-family="Helvetica,sans-Serif" font-size="10.00" fill="#000000">getVideoNotificationsDelegate</text>
</a>
</g>
</g>
<!-- Node135 -->
<g id="node2" class="node">
<title>Node135</title>
<g id="a_node2"><a xlink:href="classfs_1_1_meeting_client.html#a270d54a0c74efbd773c5cd0c575efcff" target="_top" xlink:title=" ">
<polygon fill="none" stroke="#000000" points="138.5381,-47.5 138.5381,-75.5 299.2646,-75.5 299.2646,-47.5 138.5381,-47.5"/>
<text text-anchor="start" x="146.5381" y="-63.5" font-family="Helvetica,sans-Serif" font-size="10.00" fill="#000000">fs::MeetingClient::</text>
<text text-anchor="middle" x="218.9014" y="-53.5" font-family="Helvetica,sans-Serif" font-size="10.00" fill="#000000">onTransportMediaStateChanged</text>
</a>
</g>
</g>
<!-- Node134&#45;&gt;Node135 -->
<g id="edge1" class="edge">
<title>Node134&#45;&gt;Node135</title>
<path fill="none" stroke="#191970" d="M325.1449,-48.1684C316.5877,-49.2421 307.9158,-50.3303 299.4077,-51.3979"/>
<polygon fill="#191970" stroke="#191970" points="325.6345,-51.6345 335.1209,-46.9166 324.7629,-44.6889 325.6345,-51.6345"/>
</g>
<!-- Node136 -->
<g id="node3" class="node">
<title>Node136</title>
<g id="a_node3"><a xlink:href="classfs_1_1_meeting_client.html#a521ade68ffe9fd3f12484b64a46787b3" target="_top" xlink:title=" ">
<polygon fill="none" stroke="#000000" points="170.8843,-.5 170.8843,-28.5 266.9185,-28.5 266.9185,-.5 170.8843,-.5"/>
<text text-anchor="start" x="178.8843" y="-16.5" font-family="Helvetica,sans-Serif" font-size="10.00" fill="#000000">fs::MeetingClient::</text>
<text text-anchor="middle" x="218.9014" y="-6.5" font-family="Helvetica,sans-Serif" font-size="10.00" fill="#000000">selectPresenter</text>
</a>
</g>
</g>
<!-- Node134&#45;&gt;Node136 -->
<g id="edge2" class="edge">
<title>Node134&#45;&gt;Node136</title>
<path fill="none" stroke="#191970" d="M325.0963,-27.2703C305.1802,-24.8753 284.6453,-22.4059 267.0039,-20.2845"/>
<polygon fill="#191970" stroke="#191970" points="324.7746,-30.7567 335.1209,-28.4758 325.6104,-23.8068 324.7746,-30.7567"/>
</g>
<!-- Node137 -->
<g id="node4" class="node">
<title>Node137</title>
<g id="a_node4"><a xlink:href="classfs_1_1_meeting_client.html#a7fe3f7d4faf86c4fea76572c367bdc2f" target="_top" xlink:title=" ">
<polygon fill="none" stroke="#000000" points="0,-.5 0,-28.5 102.5381,-28.5 102.5381,-.5 0,-.5"/>
<text text-anchor="start" x="8" y="-16.5" font-family="Helvetica,sans-Serif" font-size="10.00" fill="#000000">fs::MeetingClient::</text>
<text text-anchor="middle" x="51.269" y="-6.5" font-family="Helvetica,sans-Serif" font-size="10.00" fill="#000000">lockVideoPresenter</text>
</a>
</g>
</g>
<!-- Node136&#45;&gt;Node137 -->
<g id="edge3" class="edge">
<title>Node136&#45;&gt;Node137</title>
<path fill="none" stroke="#191970" d="M160.6374,-14.5C141.8273,-14.5 121.1188,-14.5 102.8285,-14.5"/>
<polygon fill="#191970" stroke="#191970" points="160.8647,-18.0001 170.8647,-14.5 160.8646,-11.0001 160.8647,-18.0001"/>
</g>
</g>
</svg>
