<?xml version="1.0" encoding="UTF-8" standalone="no"?>
<!DOCTYPE svg PUBLIC "-//W3C//DTD SVG 1.1//EN"
 "http://www.w3.org/Graphics/SVG/1.1/DTD/svg11.dtd">
<!-- Generated by graphviz version 2.40.1 (20161225.0304)
 -->
<!-- Title: fs::ScreenSharingController::onFSPropertyChanged Pages: 1 -->
<!--zoomable 336 -->
<svg id="main" version="1.1" xmlns="http://www.w3.org/2000/svg" xmlns:xlink="http://www.w3.org/1999/xlink" xml:space="preserve" onload="init(evt)">
<style type="text/css"><![CDATA[
.edge:hover path { stroke: red; }
.edge:hover polygon { stroke: red; fill: red; }
]]></style>
<script type="text/javascript"><![CDATA[
var edges = document.getElementsByTagName('g');
if (edges && edges.length) {
  for (var i=0;i<edges.length;i++) {
    if (edges[i].id.substr(0,4)=='edge') {
      edges[i].setAttribute('class','edge');
    }
  }
}
]]></script>
        <defs>
                <circle id="rim" cx="0" cy="0" r="7"/>
                <circle id="rim2" cx="0" cy="0" r="3.5"/>
                <g id="zoomPlus">
                        <use xlink:href="#rim" fill="#404040">
                                <set attributeName="fill" to="#808080" begin="zoomplus.mouseover" end="zoomplus.mouseout"/>
                        </use>
                        <path d="M-4,0h8M0,-4v8" fill="none" stroke="white" stroke-width="1.5" pointer-events="none"/>
                </g>
                <g id="zoomMin">
                        <use xlink:href="#rim" fill="#404040">
                                <set attributeName="fill" to="#808080" begin="zoomminus.mouseover" end="zoomminus.mouseout"/>
                        </use>
                        <path d="M-4,0h8" fill="none" stroke="white" stroke-width="1.5" pointer-events="none"/>
                </g>
                <g id="dirArrow">
                        <path fill="none" stroke="white" stroke-width="1.5" d="M0,-3.0v7 M-2.5,-0.5L0,-3.0L2.5,-0.5"/>
                </g>
               <g id="resetDef">
                       <use xlink:href="#rim2" fill="#404040">
                               <set attributeName="fill" to="#808080" begin="reset.mouseover" end="reset.mouseout"/>
                       </use>
               </g>
        </defs>

<script type="text/javascript">
var viewWidth = 677;
var viewHeight = 336;
var sectionId = 'dynsection-35';
</script>
<script xlink:href="svgpan.js"/>
<svg id="graph" class="graph">
<g id="viewport">
<title>fs::ScreenSharingController::onFSPropertyChanged</title>
<!-- Node204 -->
<g id="node1" class="node">
<title>Node204</title>
<g id="a_node1"><a xlink:title=" ">
<polygon fill="#bfbfbf" stroke="#000000" points="0,-141.5 0,-169.5 138.8369,-169.5 138.8369,-141.5 0,-141.5"/>
<text text-anchor="start" x="8" y="-157.5" font-family="Helvetica,sans-Serif" font-size="10.00" fill="#000000">fs::ScreenSharingController</text>
<text text-anchor="middle" x="69.4185" y="-147.5" font-family="Helvetica,sans-Serif" font-size="10.00" fill="#000000">::onFSPropertyChanged</text>
</a>
</g>
</g>
<!-- Node205 -->
<g id="node2" class="node">
<title>Node205</title>
<g id="a_node2"><a xlink:href="classfs_1_1_screen_sharing_controller.html#a869e5a50dd78a97f7bc9042d9a6f52ba" target="_top" xlink:title=" ">
<polygon fill="none" stroke="#000000" points="174.8369,-141.5 174.8369,-169.5 313.6738,-169.5 313.6738,-141.5 174.8369,-141.5"/>
<text text-anchor="start" x="182.8369" y="-157.5" font-family="Helvetica,sans-Serif" font-size="10.00" fill="#000000">fs::ScreenSharingController</text>
<text text-anchor="middle" x="244.2554" y="-147.5" font-family="Helvetica,sans-Serif" font-size="10.00" fill="#000000">::onFSDataAvailable</text>
</a>
</g>
</g>
<!-- Node204&#45;&gt;Node205 -->
<g id="edge1" class="edge">
<title>Node204&#45;&gt;Node205</title>
<path fill="none" stroke="#191970" d="M139.021,-155.5C147.3482,-155.5 155.9006,-155.5 164.3584,-155.5"/>
<polygon fill="#191970" stroke="#191970" points="164.6067,-159.0001 174.6067,-155.5 164.6066,-152.0001 164.6067,-159.0001"/>
</g>
<!-- Node206 -->
<g id="node3" class="node">
<title>Node206</title>
<g id="a_node3"><a xlink:href="classfs_1_1_buffer.html#a6a6885855eee316313c5db69071b20aa" target="_top" xlink:title=" ">
<polygon fill="none" stroke="#000000" points="377.0029,-272.5 377.0029,-290.5 467.3047,-290.5 467.3047,-272.5 377.0029,-272.5"/>
<text text-anchor="middle" x="422.1538" y="-278.5" font-family="Helvetica,sans-Serif" font-size="10.00" fill="#000000">fs::Buffer::assign</text>
</a>
</g>
</g>
<!-- Node205&#45;&gt;Node206 -->
<g id="edge2" class="edge">
<title>Node205&#45;&gt;Node206</title>
<path fill="none" stroke="#191970" d="M254.1067,-169.8729C270.9012,-193.2342 307.3919,-239.2653 349.6738,-263.5 355.1365,-266.6311 361.1349,-269.2219 367.2692,-271.3649"/>
<polygon fill="#191970" stroke="#191970" points="366.3749,-274.752 376.9631,-274.377 368.452,-268.0673 366.3749,-274.752"/>
</g>
<!-- Node209 -->
<g id="node6" class="node">
<title>Node209</title>
<g id="a_node6"><a xlink:href="classfs_1_1_f_s_packet.html#a5fbe0bc7898355774cf37d22a7278cd5" target="_top" xlink:title=" ">
<polygon fill="none" stroke="#000000" points="359.1318,-235.5 359.1318,-253.5 485.1758,-253.5 485.1758,-235.5 359.1318,-235.5"/>
<text text-anchor="middle" x="422.1538" y="-241.5" font-family="Helvetica,sans-Serif" font-size="10.00" fill="#000000">fs::FSPacket::deserialize</text>
</a>
</g>
</g>
<!-- Node205&#45;&gt;Node209 -->
<g id="edge5" class="edge">
<title>Node205&#45;&gt;Node209</title>
<path fill="none" stroke="#191970" d="M261.0521,-169.5658C280.983,-185.5756 315.7961,-211.4495 349.6738,-226.5 354.7096,-228.7372 360.071,-230.7277 365.5111,-232.4917"/>
<polygon fill="#191970" stroke="#191970" points="364.7514,-235.9176 375.3349,-235.4267 366.7553,-229.2105 364.7514,-235.9176"/>
</g>
<!-- Node211 -->
<g id="node8" class="node">
<title>Node211</title>
<g id="a_node8"><a xlink:href="classfs_1_1_screen_sharing_controller.html#a1099e31f1e66a059b03ec205d466cbbc" target="_top" xlink:title=" ">
<polygon fill="none" stroke="#000000" points="352.7354,-188.5 352.7354,-216.5 491.5723,-216.5 491.5723,-188.5 352.7354,-188.5"/>
<text text-anchor="start" x="360.7354" y="-204.5" font-family="Helvetica,sans-Serif" font-size="10.00" fill="#000000">fs::ScreenSharingController</text>
<text text-anchor="middle" x="422.1538" y="-194.5" font-family="Helvetica,sans-Serif" font-size="10.00" fill="#000000">::isPresenter</text>
</a>
</g>
</g>
<!-- Node205&#45;&gt;Node211 -->
<g id="edge7" class="edge">
<title>Node205&#45;&gt;Node211</title>
<path fill="none" stroke="#191970" d="M297.6308,-169.6015C317.0685,-174.7369 339.2198,-180.5892 359.3968,-185.9199"/>
<polygon fill="#191970" stroke="#191970" points="358.5605,-189.319 369.1228,-188.4894 360.3486,-182.5512 358.5605,-189.319"/>
</g>
<!-- Node212 -->
<g id="node9" class="node">
<title>Node212</title>
<g id="a_node9"><a xlink:href="classfs_1_1_screen_sharing_controller.html#a7be66af119d6a03f27097bc91008a7df" target="_top" xlink:title=" ">
<polygon fill="none" stroke="#000000" points="352.7354,-141.5 352.7354,-169.5 491.5723,-169.5 491.5723,-141.5 352.7354,-141.5"/>
<text text-anchor="start" x="360.7354" y="-157.5" font-family="Helvetica,sans-Serif" font-size="10.00" fill="#000000">fs::ScreenSharingController</text>
<text text-anchor="middle" x="422.1538" y="-147.5" font-family="Helvetica,sans-Serif" font-size="10.00" fill="#000000">::getDirectorId</text>
</a>
</g>
</g>
<!-- Node205&#45;&gt;Node212 -->
<g id="edge8" class="edge">
<title>Node205&#45;&gt;Node212</title>
<path fill="none" stroke="#191970" d="M313.7999,-155.5C323.175,-155.5 332.8525,-155.5 342.3878,-155.5"/>
<polygon fill="#191970" stroke="#191970" points="342.6576,-159.0001 352.6576,-155.5 342.6576,-152.0001 342.6576,-159.0001"/>
</g>
<!-- Node213 -->
<g id="node10" class="node">
<title>Node213</title>
<g id="a_node10"><a xlink:href="classfs_1_1_screen_sharing_controller.html#a006e36d1e2ab98aa05d34ecdcc551e56" target="_top" xlink:title=" ">
<polygon fill="none" stroke="#000000" points="352.7354,-94.5 352.7354,-122.5 491.5723,-122.5 491.5723,-94.5 352.7354,-94.5"/>
<text text-anchor="start" x="360.7354" y="-110.5" font-family="Helvetica,sans-Serif" font-size="10.00" fill="#000000">fs::ScreenSharingController</text>
<text text-anchor="middle" x="422.1538" y="-100.5" font-family="Helvetica,sans-Serif" font-size="10.00" fill="#000000">::onPresenterCursor</text>
</a>
</g>
</g>
<!-- Node205&#45;&gt;Node213 -->
<g id="edge9" class="edge">
<title>Node205&#45;&gt;Node213</title>
<path fill="none" stroke="#191970" d="M297.6308,-141.3985C317.0685,-136.2631 339.2198,-130.4108 359.3968,-125.0801"/>
<polygon fill="#191970" stroke="#191970" points="360.3486,-128.4488 369.1228,-122.5106 358.5605,-121.681 360.3486,-128.4488"/>
</g>
<!-- Node217 -->
<g id="node14" class="node">
<title>Node217</title>
<g id="a_node14"><a xlink:href="classfs_1_1_screen_sharing_controller.html#aa240dcbbdfba042f0d6f452ec09c48c6" target="_top" xlink:title=" ">
<polygon fill="none" stroke="#000000" points="352.7354,-47.5 352.7354,-75.5 491.5723,-75.5 491.5723,-47.5 352.7354,-47.5"/>
<text text-anchor="start" x="360.7354" y="-63.5" font-family="Helvetica,sans-Serif" font-size="10.00" fill="#000000">fs::ScreenSharingController</text>
<text text-anchor="middle" x="422.1538" y="-53.5" font-family="Helvetica,sans-Serif" font-size="10.00" fill="#000000">::onPresenterTakeControl</text>
</a>
</g>
</g>
<!-- Node205&#45;&gt;Node217 -->
<g id="edge13" class="edge">
<title>Node205&#45;&gt;Node217</title>
<path fill="none" stroke="#191970" d="M262.3914,-141.2667C282.7088,-125.8577 317.0802,-101.3639 349.6738,-85.5 354.2494,-83.273 359.0827,-81.1742 363.9934,-79.2152"/>
<polygon fill="#191970" stroke="#191970" points="365.3711,-82.4361 373.4852,-75.6234 362.8936,-75.8892 365.3711,-82.4361"/>
</g>
<!-- Node219 -->
<g id="node16" class="node">
<title>Node219</title>
<g id="a_node16"><a xlink:href="classfs_1_1_screen_sharing_controller.html#a93a8c4ebea6879a0e22d2021b7cd6cc5" target="_top" xlink:title=" ">
<polygon fill="none" stroke="#000000" points="349.6738,-.5 349.6738,-28.5 494.6338,-28.5 494.6338,-.5 349.6738,-.5"/>
<text text-anchor="start" x="357.6738" y="-16.5" font-family="Helvetica,sans-Serif" font-size="10.00" fill="#000000">fs::ScreenSharingController</text>
<text text-anchor="middle" x="422.1538" y="-6.5" font-family="Helvetica,sans-Serif" font-size="10.00" fill="#000000">::onPresenterReleaseControl</text>
</a>
</g>
</g>
<!-- Node205&#45;&gt;Node219 -->
<g id="edge15" class="edge">
<title>Node205&#45;&gt;Node219</title>
<path fill="none" stroke="#191970" d="M253.2478,-141.4594C269.5684,-117.0635 306.4095,-66.7584 349.6738,-38.5 352.7985,-36.4591 356.1127,-34.5768 359.5368,-32.8429"/>
<polygon fill="#191970" stroke="#191970" points="361.1725,-35.9433 368.8028,-28.5928 358.2541,-29.5806 361.1725,-35.9433"/>
</g>
<!-- Node207 -->
<g id="node4" class="node">
<title>Node207</title>
<g id="a_node4"><a xlink:href="classfs_1_1_buffer.html#aaeaf7aacea3679ca4956d6b50543f1aa" target="_top" xlink:title=" ">
<polygon fill="none" stroke="#000000" points="552.6699,-309.5 552.6699,-327.5 647.4346,-327.5 647.4346,-309.5 552.6699,-309.5"/>
<text text-anchor="middle" x="600.0522" y="-315.5" font-family="Helvetica,sans-Serif" font-size="10.00" fill="#000000">fs::Buffer::append</text>
</a>
</g>
</g>
<!-- Node206&#45;&gt;Node207 -->
<g id="edge3" class="edge">
<title>Node206&#45;&gt;Node207</title>
<path fill="none" stroke="#191970" d="M465.6727,-290.5512C490.1006,-295.6318 520.7772,-302.0121 546.6508,-307.3934"/>
<polygon fill="#191970" stroke="#191970" points="546.1715,-310.8685 556.6747,-309.4782 547.597,-304.0152 546.1715,-310.8685"/>
</g>
<!-- Node208 -->
<g id="node5" class="node">
<title>Node208</title>
<g id="a_node5"><a xlink:href="classfs_1_1_buffer.html#af8ec6ec556d0227cbcb57d40e2d2fb06" target="_top" xlink:title=" ">
<polygon fill="none" stroke="#000000" points="558.5171,-272.5 558.5171,-290.5 641.5874,-290.5 641.5874,-272.5 558.5171,-272.5"/>
<text text-anchor="middle" x="600.0522" y="-278.5" font-family="Helvetica,sans-Serif" font-size="10.00" fill="#000000">fs::Buffer::clear</text>
</a>
</g>
</g>
<!-- Node206&#45;&gt;Node208 -->
<g id="edge4" class="edge">
<title>Node206&#45;&gt;Node208</title>
<path fill="none" stroke="#191970" d="M467.5054,-281.5C492.1152,-281.5 522.6404,-281.5 548.1918,-281.5"/>
<polygon fill="#191970" stroke="#191970" points="548.4413,-285.0001 558.4412,-281.5 548.4412,-278.0001 548.4413,-285.0001"/>
</g>
<!-- Node210 -->
<g id="node7" class="node">
<title>Node210</title>
<g id="a_node7"><a xlink:href="classfs_1_1_buffer.html#afd053fdf33cfaffda826dcd907c5a7c9" target="_top" xlink:title=" ">
<polygon fill="none" stroke="#000000" points="558.5146,-235.5 558.5146,-253.5 641.5898,-253.5 641.5898,-235.5 558.5146,-235.5"/>
<text text-anchor="middle" x="600.0522" y="-241.5" font-family="Helvetica,sans-Serif" font-size="10.00" fill="#000000">fs::Buffer::fetch</text>
</a>
</g>
</g>
<!-- Node209&#45;&gt;Node210 -->
<g id="edge6" class="edge">
<title>Node209&#45;&gt;Node210</title>
<path fill="none" stroke="#191970" d="M485.375,-244.5C506.041,-244.5 528.7342,-244.5 548.4403,-244.5"/>
<polygon fill="#191970" stroke="#191970" points="548.4465,-248.0001 558.4465,-244.5 548.4465,-241.0001 548.4465,-248.0001"/>
</g>
<!-- Node214 -->
<g id="node11" class="node">
<title>Node214</title>
<g id="a_node11"><a xlink:href="classfs_1_1_f_s_presenter_cursor_pkt.html#abc4e2a3c8166f59381a3c179c51b96fa" target="_top" xlink:title=" ">
<polygon fill="none" stroke="#000000" points="535.0918,-141.5 535.0918,-169.5 665.0127,-169.5 665.0127,-141.5 535.0918,-141.5"/>
<text text-anchor="start" x="543.0918" y="-157.5" font-family="Helvetica,sans-Serif" font-size="10.00" fill="#000000">fs::FSPresenterCursorPkt</text>
<text text-anchor="middle" x="600.0522" y="-147.5" font-family="Helvetica,sans-Serif" font-size="10.00" fill="#000000">::image</text>
</a>
</g>
</g>
<!-- Node213&#45;&gt;Node214 -->
<g id="edge10" class="edge">
<title>Node213&#45;&gt;Node214</title>
<path fill="none" stroke="#191970" d="M475.5292,-122.6015C494.9669,-127.7369 517.1182,-133.5892 537.2953,-138.9199"/>
<polygon fill="#191970" stroke="#191970" points="536.459,-142.319 547.0213,-141.4894 538.247,-135.5512 536.459,-142.319"/>
</g>
<!-- Node215 -->
<g id="node12" class="node">
<title>Node215</title>
<g id="a_node12"><a xlink:href="classfs_1_1_f_s_presenter_cursor_pkt.html#a2ae7b4a9b5847de438a3d7a44703b212" target="_top" xlink:title=" ">
<polygon fill="none" stroke="#000000" points="535.0918,-94.5 535.0918,-122.5 665.0127,-122.5 665.0127,-94.5 535.0918,-94.5"/>
<text text-anchor="start" x="543.0918" y="-110.5" font-family="Helvetica,sans-Serif" font-size="10.00" fill="#000000">fs::FSPresenterCursorPkt</text>
<text text-anchor="middle" x="600.0522" y="-100.5" font-family="Helvetica,sans-Serif" font-size="10.00" fill="#000000">::hotSpotX</text>
</a>
</g>
</g>
<!-- Node213&#45;&gt;Node215 -->
<g id="edge11" class="edge">
<title>Node213&#45;&gt;Node215</title>
<path fill="none" stroke="#191970" d="M491.6983,-108.5C502.5916,-108.5 513.8931,-108.5 524.9052,-108.5"/>
<polygon fill="#191970" stroke="#191970" points="524.9171,-112.0001 534.9171,-108.5 524.9171,-105.0001 524.9171,-112.0001"/>
</g>
<!-- Node216 -->
<g id="node13" class="node">
<title>Node216</title>
<g id="a_node13"><a xlink:href="classfs_1_1_f_s_presenter_cursor_pkt.html#a8f3143d25bf26ed99b54e3441598f4ab" target="_top" xlink:title=" ">
<polygon fill="none" stroke="#000000" points="535.0918,-47.5 535.0918,-75.5 665.0127,-75.5 665.0127,-47.5 535.0918,-47.5"/>
<text text-anchor="start" x="543.0918" y="-63.5" font-family="Helvetica,sans-Serif" font-size="10.00" fill="#000000">fs::FSPresenterCursorPkt</text>
<text text-anchor="middle" x="600.0522" y="-53.5" font-family="Helvetica,sans-Serif" font-size="10.00" fill="#000000">::hotSpotY</text>
</a>
</g>
</g>
<!-- Node213&#45;&gt;Node216 -->
<g id="edge12" class="edge">
<title>Node213&#45;&gt;Node216</title>
<path fill="none" stroke="#191970" d="M475.5292,-94.3985C494.9669,-89.2631 517.1182,-83.4108 537.2953,-78.0801"/>
<polygon fill="#191970" stroke="#191970" points="538.247,-81.4488 547.0213,-75.5106 536.459,-74.681 538.247,-81.4488"/>
</g>
<!-- Node218 -->
<g id="node15" class="node">
<title>Node218</title>
<g id="a_node15"><a xlink:href="classfs_1_1_screen_sharing_controller.html#a02320665ae88198b0bcb2da8f9e04496" target="_top" xlink:title=" ">
<polygon fill="none" stroke="#000000" points="530.6338,-.5 530.6338,-28.5 669.4707,-28.5 669.4707,-.5 530.6338,-.5"/>
<text text-anchor="start" x="538.6338" y="-16.5" font-family="Helvetica,sans-Serif" font-size="10.00" fill="#000000">fs::ScreenSharingController</text>
<text text-anchor="middle" x="600.0522" y="-6.5" font-family="Helvetica,sans-Serif" font-size="10.00" fill="#000000">::isDirector</text>
</a>
</g>
</g>
<!-- Node217&#45;&gt;Node218 -->
<g id="edge14" class="edge">
<title>Node217&#45;&gt;Node218</title>
<path fill="none" stroke="#191970" d="M475.5292,-47.3985C494.9669,-42.2631 517.1182,-36.4108 537.2953,-31.0801"/>
<polygon fill="#191970" stroke="#191970" points="538.247,-34.4488 547.0213,-28.5106 536.459,-27.681 538.247,-34.4488"/>
</g>
<!-- Node219&#45;&gt;Node218 -->
<g id="edge16" class="edge">
<title>Node219&#45;&gt;Node218</title>
<path fill="none" stroke="#191970" d="M494.7685,-14.5C503.1699,-14.5 511.7726,-14.5 520.2628,-14.5"/>
<polygon fill="#191970" stroke="#191970" points="520.5421,-18.0001 530.5421,-14.5 520.5421,-11.0001 520.5421,-18.0001"/>
</g>
</g>
</svg>
        <g id="navigator" transform="translate(0 0)" fill="#404254">
                <rect fill="#f2f5e9" fill-opacity="0.5" stroke="#606060" stroke-width=".5" x="0" y="0" width="60" height="60"/>
                <use id="zoomplus" xlink:href="#zoomPlus" x="17" y="9" onmousedown="handleZoom(evt,'in')"/>
                <use id="zoomminus" xlink:href="#zoomMin" x="42" y="9" onmousedown="handleZoom(evt,'out')"/>
                <use id="reset" xlink:href="#resetDef" x="30" y="36" onmousedown="handleReset()"/>
                <g id="arrowUp" xlink:href="#dirArrow" transform="translate(30 24)" onmousedown="handlePan(0,-1)">
                  <use xlink:href="#rim" fill="#404040">
                        <set attributeName="fill" to="#808080" begin="arrowUp.mouseover" end="arrowUp.mouseout"/>
                  </use>
                  <path fill="none" stroke="white" stroke-width="1.5" d="M0,-3.0v7 M-2.5,-0.5L0,-3.0L2.5,-0.5"/>
                </g>
                <g id="arrowRight" xlink:href="#dirArrow" transform="rotate(90) translate(36 -43)" onmousedown="handlePan(1,0)">
                  <use xlink:href="#rim" fill="#404040">
                        <set attributeName="fill" to="#808080" begin="arrowRight.mouseover" end="arrowRight.mouseout"/>
                  </use>
                  <path fill="none" stroke="white" stroke-width="1.5" d="M0,-3.0v7 M-2.5,-0.5L0,-3.0L2.5,-0.5"/>
                </g>
                <g id="arrowDown" xlink:href="#dirArrow" transform="rotate(180) translate(-30 -48)" onmousedown="handlePan(0,1)">
                  <use xlink:href="#rim" fill="#404040">
                        <set attributeName="fill" to="#808080" begin="arrowDown.mouseover" end="arrowDown.mouseout"/>
                  </use>
                  <path fill="none" stroke="white" stroke-width="1.5" d="M0,-3.0v7 M-2.5,-0.5L0,-3.0L2.5,-0.5"/>
                </g>
                <g id="arrowLeft" xlink:href="#dirArrow" transform="rotate(270) translate(-36 17)" onmousedown="handlePan(-1,0)">
                  <use xlink:href="#rim" fill="#404040">
                        <set attributeName="fill" to="#808080" begin="arrowLeft.mouseover" end="arrowLeft.mouseout"/>
                  </use>
                  <path fill="none" stroke="white" stroke-width="1.5" d="M0,-3.0v7 M-2.5,-0.5L0,-3.0L2.5,-0.5"/>
                </g>
        </g>
        <svg viewBox="0 0 15 15" width="100%" height="30px" preserveAspectRatio="xMaxYMin meet">
         <g id="arrow_out" transform="scale(0.3 0.3)">
          <a xlink:href="classfs_1_1_screen_sharing_controller_aba97ae6754ab50d12fac104a78cd86b4_cgraph_org.svg" target="_base">
           <rect id="button" ry="5" rx="5" y="6" x="6" height="38" width="38"
                fill="#f2f5e9" fill-opacity="0.5" stroke="#606060" stroke-width="1.0"/>
           <path id="arrow"
             d="M 11.500037,31.436501 C 11.940474,20.09759 22.043105,11.32322 32.158766,21.979434 L 37.068811,17.246167 C 37.068811,17.246167 37.088388,32 37.088388,32 L 22.160133,31.978069 C 22.160133,31.978069 26.997745,27.140456 26.997745,27.140456 C 18.528582,18.264221 13.291696,25.230495 11.500037,31.436501 z"
             style="fill:#404040;"/>
          </a>
         </g>
        </svg>
</svg>
