<?xml version="1.0" encoding="UTF-8" standalone="no"?>
<!DOCTYPE svg PUBLIC "-//W3C//DTD SVG 1.1//EN"
 "http://www.w3.org/Graphics/SVG/1.1/DTD/svg11.dtd">
<!-- Generated by graphviz version 2.40.1 (20161225.0304)
 -->
<!-- Title: fs::VoiceEngineProxy::getAutomaticReceiveGainControlStatus Pages: 1 -->
<svg width="470pt" height="47pt"
 viewBox="0.00 0.00 470.41 47.00" xmlns="http://www.w3.org/2000/svg" xmlns:xlink="http://www.w3.org/1999/xlink">
<g id="graph0" class="graph" transform="scale(1 1) rotate(0) translate(4 43)">
<title>fs::VoiceEngineProxy::getAutomaticReceiveGainControlStatus</title>
<!-- Node28 -->
<g id="node1" class="node">
<title>Node28</title>
<g id="a_node1"><a xlink:title=" ">
<polygon fill="#bfbfbf" stroke="#000000" points="0,-.5 0,-38.5 169.4082,-38.5 169.4082,-.5 0,-.5"/>
<text text-anchor="start" x="8" y="-26.5" font-family="Helvetica,sans-Serif" font-size="10.00" fill="#000000">fs::VoiceEngineProxy</text>
<text text-anchor="start" x="8" y="-16.5" font-family="Helvetica,sans-Serif" font-size="10.00" fill="#000000">::getAutomaticReceiveGainControl</text>
<text text-anchor="middle" x="84.7041" y="-6.5" font-family="Helvetica,sans-Serif" font-size="10.00" fill="#000000">Status</text>
</a>
</g>
</g>
<!-- Node29 -->
<g id="node2" class="node">
<title>Node29</title>
<g id="a_node2"><a xlink:href="classfs_1_1_voice_engine_proxy.html#ad36b2e002fea4dbbaa14aec99909e9d7" target="_top" xlink:title=" ">
<polygon fill="none" stroke="#000000" points="205.4082,-5.5 205.4082,-33.5 315.9102,-33.5 315.9102,-5.5 205.4082,-5.5"/>
<text text-anchor="start" x="213.4082" y="-21.5" font-family="Helvetica,sans-Serif" font-size="10.00" fill="#000000">fs::VoiceEngineProxy</text>
<text text-anchor="middle" x="260.6592" y="-11.5" font-family="Helvetica,sans-Serif" font-size="10.00" fill="#000000">::dispatch</text>
</a>
</g>
</g>
<!-- Node28&#45;&gt;Node29 -->
<g id="edge1" class="edge">
<title>Node28&#45;&gt;Node29</title>
<path fill="none" stroke="#191970" d="M169.5892,-19.5C178.2112,-19.5 186.8728,-19.5 195.2422,-19.5"/>
<polygon fill="#191970" stroke="#191970" points="195.284,-23.0001 205.284,-19.5 195.2839,-16.0001 195.284,-23.0001"/>
</g>
<!-- Node30 -->
<g id="node3" class="node">
<title>Node30</title>
<g id="a_node3"><a xlink:href="classfs_1_1_voice_engine_proxy.html#a7b9ec98dcc4627121096f416804aa69c" target="_top" xlink:title=" ">
<polygon fill="none" stroke="#000000" points="351.9102,-5.5 351.9102,-33.5 462.4121,-33.5 462.4121,-5.5 351.9102,-5.5"/>
<text text-anchor="start" x="359.9102" y="-21.5" font-family="Helvetica,sans-Serif" font-size="10.00" fill="#000000">fs::VoiceEngineProxy</text>
<text text-anchor="middle" x="407.1611" y="-11.5" font-family="Helvetica,sans-Serif" font-size="10.00" fill="#000000">::ioService</text>
</a>
</g>
</g>
<!-- Node29&#45;&gt;Node30 -->
<g id="edge2" class="edge">
<title>Node29&#45;&gt;Node30</title>
<path fill="none" stroke="#191970" d="M316.0453,-19.5C324.3406,-19.5 332.9615,-19.5 341.446,-19.5"/>
<polygon fill="#191970" stroke="#191970" points="341.6967,-23.0001 351.6967,-19.5 341.6967,-16.0001 341.6967,-23.0001"/>
</g>
</g>
</svg>
