<?xml version="1.0" encoding="UTF-8" standalone="no"?>
<!DOCTYPE svg PUBLIC "-//W3C//DTD SVG 1.1//EN"
 "http://www.w3.org/Graphics/SVG/1.1/DTD/svg11.dtd">
<!-- Generated by graphviz version 2.40.1 (20161225.0304)
 -->
<!-- Title: fs::VoIPClientDelegate::onBroadcastStateChanged Pages: 1 -->
<svg width="508pt" height="37pt"
 viewBox="0.00 0.00 507.70 37.00" xmlns="http://www.w3.org/2000/svg" xmlns:xlink="http://www.w3.org/1999/xlink">
<g id="graph0" class="graph" transform="scale(1 1) rotate(0) translate(4 33)">
<title>fs::VoIPClientDelegate::onBroadcastStateChanged</title>
<!-- Node43 -->
<g id="node1" class="node">
<title>Node43</title>
<g id="a_node1"><a xlink:title=" ">
<polygon fill="#bfbfbf" stroke="#000000" points="358.0576,-.5 358.0576,-28.5 499.7021,-28.5 499.7021,-.5 358.0576,-.5"/>
<text text-anchor="start" x="366.0576" y="-16.5" font-family="Helvetica,sans-Serif" font-size="10.00" fill="#000000">fs::VoIPClientDelegate</text>
<text text-anchor="middle" x="428.8799" y="-6.5" font-family="Helvetica,sans-Serif" font-size="10.00" fill="#000000">::onBroadcastStateChanged</text>
</a>
</g>
</g>
<!-- Node44 -->
<g id="node2" class="node">
<title>Node44</title>
<g id="a_node2"><a xlink:href="classfs_1_1_vo_i_p_client_delegate.html#a9083bfcccdfe31cc0b4f6166f4735d8d" target="_top" xlink:title=" ">
<polygon fill="none" stroke="#000000" points="177.6445,-.5 177.6445,-28.5 322.0576,-28.5 322.0576,-.5 177.6445,-.5"/>
<text text-anchor="start" x="185.6445" y="-16.5" font-family="Helvetica,sans-Serif" font-size="10.00" fill="#000000">fs::VoIPClientDelegate</text>
<text text-anchor="middle" x="249.8511" y="-6.5" font-family="Helvetica,sans-Serif" font-size="10.00" fill="#000000">::fireBroadcastStateChanged</text>
</a>
</g>
</g>
<!-- Node43&#45;&gt;Node44 -->
<g id="edge1" class="edge">
<title>Node43&#45;&gt;Node44</title>
<path fill="none" stroke="#191970" d="M347.6165,-14.5C339.1568,-14.5 330.5979,-14.5 322.2456,-14.5"/>
<polygon fill="#191970" stroke="#191970" points="347.8659,-18.0001 357.8658,-14.5 347.8658,-11.0001 347.8659,-18.0001"/>
</g>
<!-- Node45 -->
<g id="node3" class="node">
<title>Node45</title>
<g id="a_node3"><a xlink:href="classfs_1_1_vo_i_p_client_proxy.html#ac097eb3fca8935aa3ff2915eda0985b6" target="_top" xlink:title=" ">
<polygon fill="none" stroke="#000000" points="0,-.5 0,-28.5 141.6445,-28.5 141.6445,-.5 0,-.5"/>
<text text-anchor="start" x="8" y="-16.5" font-family="Helvetica,sans-Serif" font-size="10.00" fill="#000000">fs::VoIPClientProxy</text>
<text text-anchor="middle" x="70.8223" y="-6.5" font-family="Helvetica,sans-Serif" font-size="10.00" fill="#000000">::onBroadcastStateChanged</text>
</a>
</g>
</g>
<!-- Node44&#45;&gt;Node45 -->
<g id="edge2" class="edge">
<title>Node44&#45;&gt;Node45</title>
<path fill="none" stroke="#191970" d="M167.48,-14.5C158.8511,-14.5 150.1331,-14.5 141.6495,-14.5"/>
<polygon fill="#191970" stroke="#191970" points="167.5493,-18.0001 177.5492,-14.5 167.5492,-11.0001 167.5493,-18.0001"/>
</g>
</g>
</svg>
