<?xml version="1.0" encoding="UTF-8" standalone="no"?>
<!DOCTYPE svg PUBLIC "-//W3C//DTD SVG 1.1//EN"
 "http://www.w3.org/Graphics/SVG/1.1/DTD/svg11.dtd">
<!-- Generated by graphviz version 2.40.1 (20161225.0304)
 -->
<!-- Title: cx::web::CountryCodeEntity Pages: 1 -->
<svg width="147pt" height="617pt"
 viewBox="0.00 0.00 147.39 617.00" xmlns="http://www.w3.org/2000/svg" xmlns:xlink="http://www.w3.org/1999/xlink">
<g id="graph0" class="graph" transform="scale(1 1) rotate(0) translate(4 613)">
<title>cx::web::CountryCodeEntity</title>
<!-- Node0 -->
<g id="node1" class="node">
<title>Node0</title>
<g id="a_node1"><a xlink:title=" ">
<polygon fill="#bfbfbf" stroke="#000000" points="0,-.5 0,-94.5 139.3887,-94.5 139.3887,-.5 0,-.5"/>
<text text-anchor="middle" x="69.6943" y="-82.5" font-family="Helvetica,sans-Serif" font-size="10.00" fill="#000000">cx::web::CountryCodeEntity</text>
<polyline fill="none" stroke="#000000" points="0,-76.5 139.3887,-76.5 "/>
<text text-anchor="start" x="8" y="-64.5" font-family="Helvetica,sans-Serif" font-size="10.00" fill="#000000">+ country_code</text>
<polyline fill="none" stroke="#000000" points="0,-58.5 139.3887,-58.5 "/>
<text text-anchor="start" x="8" y="-46.5" font-family="Helvetica,sans-Serif" font-size="10.00" fill="#000000">+ CountryCodeEntity()</text>
<text text-anchor="start" x="8" y="-36.5" font-family="Helvetica,sans-Serif" font-size="10.00" fill="#000000">+ CountryCodeEntity()</text>
<text text-anchor="start" x="8" y="-26.5" font-family="Helvetica,sans-Serif" font-size="10.00" fill="#000000">+ valid()</text>
<text text-anchor="start" x="8" y="-16.5" font-family="Helvetica,sans-Serif" font-size="10.00" fill="#000000">+ update()</text>
<text text-anchor="start" x="8" y="-6.5" font-family="Helvetica,sans-Serif" font-size="10.00" fill="#000000">+ printOn()</text>
</a>
</g>
</g>
<!-- Node1 -->
<g id="node2" class="node">
<title>Node1</title>
<g id="a_node2"><a xlink:href="structcx_1_1web_1_1data__entity.html" target="_top" xlink:title=" ">
<polygon fill="none" stroke="#000000" points="17.5024,-131.5 17.5024,-225.5 121.8862,-225.5 121.8862,-131.5 17.5024,-131.5"/>
<text text-anchor="middle" x="69.6943" y="-213.5" font-family="Helvetica,sans-Serif" font-size="10.00" fill="#000000">cx::web::data_entity</text>
<polyline fill="none" stroke="#000000" points="17.5024,-207.5 121.8862,-207.5 "/>
<text text-anchor="start" x="25.5024" y="-195.5" font-family="Helvetica,sans-Serif" font-size="10.00" fill="#000000">+ retcode</text>
<text text-anchor="start" x="25.5024" y="-185.5" font-family="Helvetica,sans-Serif" font-size="10.00" fill="#000000">+ errorStatus</text>
<text text-anchor="start" x="25.5024" y="-175.5" font-family="Helvetica,sans-Serif" font-size="10.00" fill="#000000">+ errorDescription</text>
<polyline fill="none" stroke="#000000" points="17.5024,-169.5 121.8862,-169.5 "/>
<text text-anchor="start" x="25.5024" y="-157.5" font-family="Helvetica,sans-Serif" font-size="10.00" fill="#000000">+ data_entity()</text>
<text text-anchor="start" x="25.5024" y="-147.5" font-family="Helvetica,sans-Serif" font-size="10.00" fill="#000000">+ data_entity()</text>
<text text-anchor="start" x="25.5024" y="-137.5" font-family="Helvetica,sans-Serif" font-size="10.00" fill="#000000">+ update()</text>
</a>
</g>
</g>
<!-- Node1&#45;&gt;Node0 -->
<g id="edge1" class="edge">
<title>Node1&#45;&gt;Node0</title>
<path fill="none" stroke="#191970" d="M69.6943,-121.0214C69.6943,-112.2362 69.6943,-103.2556 69.6943,-94.7246"/>
<polygon fill="none" stroke="#191970" points="66.1944,-121.206 69.6943,-131.206 73.1944,-121.206 66.1944,-121.206"/>
</g>
<!-- Node2 -->
<g id="node3" class="node">
<title>Node2</title>
<g id="a_node3"><a xlink:href="structcx_1_1web_1_1json__entity.html" target="_top" xlink:title=" ">
<polygon fill="none" stroke="#000000" points="18.0615,-262.5 18.0615,-346.5 121.3271,-346.5 121.3271,-262.5 18.0615,-262.5"/>
<text text-anchor="middle" x="69.6943" y="-334.5" font-family="Helvetica,sans-Serif" font-size="10.00" fill="#000000">cx::web::json_entity</text>
<polyline fill="none" stroke="#000000" points="18.0615,-328.5 121.3271,-328.5 "/>
<text text-anchor="start" x="26.0615" y="-316.5" font-family="Helvetica,sans-Serif" font-size="10.00" fill="#000000">+ json</text>
<polyline fill="none" stroke="#000000" points="18.0615,-310.5 121.3271,-310.5 "/>
<text text-anchor="start" x="26.0615" y="-298.5" font-family="Helvetica,sans-Serif" font-size="10.00" fill="#000000">+ json_entity()</text>
<text text-anchor="start" x="26.0615" y="-288.5" font-family="Helvetica,sans-Serif" font-size="10.00" fill="#000000">+ json_entity()</text>
<text text-anchor="start" x="26.0615" y="-278.5" font-family="Helvetica,sans-Serif" font-size="10.00" fill="#000000">+ valid()</text>
<text text-anchor="start" x="26.0615" y="-268.5" font-family="Helvetica,sans-Serif" font-size="10.00" fill="#000000">+ get_json()</text>
</a>
</g>
</g>
<!-- Node2&#45;&gt;Node1 -->
<g id="edge2" class="edge">
<title>Node2&#45;&gt;Node1</title>
<path fill="none" stroke="#191970" d="M69.6943,-252.0873C69.6943,-243.3328 69.6943,-234.2974 69.6943,-225.6838"/>
<polygon fill="none" stroke="#191970" points="66.1944,-252.1933 69.6943,-262.1933 73.1944,-252.1933 66.1944,-252.1933"/>
</g>
<!-- Node3 -->
<g id="node4" class="node">
<title>Node3</title>
<g id="a_node4"><a xlink:href="structcx_1_1web_1_1string__entity.html" target="_top" xlink:title=" ">
<polygon fill="none" stroke="#000000" points="15.0073,-383.5 15.0073,-517.5 124.3813,-517.5 124.3813,-383.5 15.0073,-383.5"/>
<text text-anchor="middle" x="69.6943" y="-505.5" font-family="Helvetica,sans-Serif" font-size="10.00" fill="#000000">cx::web::string_entity</text>
<polyline fill="none" stroke="#000000" points="15.0073,-499.5 124.3813,-499.5 "/>
<text text-anchor="start" x="23.0073" y="-487.5" font-family="Helvetica,sans-Serif" font-size="10.00" fill="#000000">+ error_reason</text>
<text text-anchor="start" x="23.0073" y="-477.5" font-family="Helvetica,sans-Serif" font-size="10.00" fill="#000000">+ status</text>
<text text-anchor="start" x="23.0073" y="-467.5" font-family="Helvetica,sans-Serif" font-size="10.00" fill="#000000">+ content</text>
<polyline fill="none" stroke="#000000" points="15.0073,-461.5 124.3813,-461.5 "/>
<text text-anchor="start" x="23.0073" y="-449.5" font-family="Helvetica,sans-Serif" font-size="10.00" fill="#000000">+ string_entity()</text>
<text text-anchor="start" x="23.0073" y="-439.5" font-family="Helvetica,sans-Serif" font-size="10.00" fill="#000000">+ string_entity()</text>
<text text-anchor="start" x="23.0073" y="-429.5" font-family="Helvetica,sans-Serif" font-size="10.00" fill="#000000">+ copy_from()</text>
<text text-anchor="start" x="23.0073" y="-419.5" font-family="Helvetica,sans-Serif" font-size="10.00" fill="#000000">+ valid()</text>
<text text-anchor="start" x="23.0073" y="-409.5" font-family="Helvetica,sans-Serif" font-size="10.00" fill="#000000">+ update()</text>
<text text-anchor="start" x="23.0073" y="-399.5" font-family="Helvetica,sans-Serif" font-size="10.00" fill="#000000">+ get_string()</text>
<text text-anchor="start" x="23.0073" y="-389.5" font-family="Helvetica,sans-Serif" font-size="10.00" fill="#000000">+ printOn()</text>
</a>
</g>
</g>
<!-- Node3&#45;&gt;Node2 -->
<g id="edge3" class="edge">
<title>Node3&#45;&gt;Node2</title>
<path fill="none" stroke="#191970" d="M69.6943,-373.252C69.6943,-364.1973 69.6943,-355.2301 69.6943,-346.91"/>
<polygon fill="none" stroke="#191970" points="66.1944,-373.4823 69.6943,-383.4823 73.1944,-373.4823 66.1944,-373.4823"/>
</g>
<!-- Node4 -->
<g id="node5" class="node">
<title>Node4</title>
<g id="a_node5"><a xlink:title=" ">
<polygon fill="none" stroke="#bfbfbf" points="41.9604,-554.5 41.9604,-608.5 97.4282,-608.5 97.4282,-554.5 41.9604,-554.5"/>
<text text-anchor="middle" x="69.6943" y="-596.5" font-family="Helvetica,sans-Serif" font-size="10.00" fill="#000000">Printable</text>
<polyline fill="none" stroke="#bfbfbf" points="41.9604,-590.5 97.4282,-590.5 "/>
<text text-anchor="middle" x="69.6943" y="-578.5" font-family="Helvetica,sans-Serif" font-size="10.00" fill="#000000"> </text>
<polyline fill="none" stroke="#bfbfbf" points="41.9604,-572.5 97.4282,-572.5 "/>
<text text-anchor="middle" x="69.6943" y="-560.5" font-family="Helvetica,sans-Serif" font-size="10.00" fill="#000000"> </text>
</a>
</g>
</g>
<!-- Node4&#45;&gt;Node3 -->
<g id="edge4" class="edge">
<title>Node4&#45;&gt;Node3</title>
<path fill="none" stroke="#191970" d="M69.6943,-544.2321C69.6943,-535.8764 69.6943,-526.7626 69.6943,-517.607"/>
<polygon fill="none" stroke="#191970" points="66.1944,-544.3567 69.6943,-554.3567 73.1944,-544.3567 66.1944,-544.3567"/>
</g>
</g>
</svg>
