<?xml version="1.0" encoding="UTF-8" standalone="no"?>
<!DOCTYPE svg PUBLIC "-//W3C//DTD SVG 1.1//EN"
 "http://www.w3.org/Graphics/SVG/1.1/DTD/svg11.dtd">
<!-- Generated by graphviz version 2.40.1 (20161225.0304)
 -->
<!-- Title: cx::HTTPUploadRequest::HTTPUploadRequest Pages: 1 -->
<svg width="314pt" height="64pt"
 viewBox="0.00 0.00 313.89 64.00" xmlns="http://www.w3.org/2000/svg" xmlns:xlink="http://www.w3.org/1999/xlink">
<g id="graph0" class="graph" transform="scale(1 1) rotate(0) translate(4 60)">
<title>cx::HTTPUploadRequest::HTTPUploadRequest</title>
<!-- Node0 -->
<g id="node1" class="node">
<title>Node0</title>
<g id="a_node1"><a xlink:title=" ">
<polygon fill="#bfbfbf" stroke="#000000" points="0,-13.5 0,-41.5 126.6006,-41.5 126.6006,-13.5 0,-13.5"/>
<text text-anchor="start" x="8" y="-29.5" font-family="Helvetica,sans-Serif" font-size="10.00" fill="#000000">cx::HTTPUploadRequest</text>
<text text-anchor="middle" x="63.3003" y="-19.5" font-family="Helvetica,sans-Serif" font-size="10.00" fill="#000000">::HTTPUploadRequest</text>
</a>
</g>
</g>
<!-- Node1 -->
<g id="node2" class="node">
<title>Node1</title>
<g id="a_node2"><a xlink:href="class_upload_data.html#a7e18dc1fbddcd56c41cf28702d6b8186" target="_top" xlink:title=" ">
<polygon fill="none" stroke="#000000" points="173.9922,-37.5 173.9922,-55.5 294.4941,-55.5 294.4941,-37.5 173.9922,-37.5"/>
<text text-anchor="middle" x="234.2432" y="-43.5" font-family="Helvetica,sans-Serif" font-size="10.00" fill="#000000">UploadData::setFileInfo</text>
</a>
</g>
</g>
<!-- Node0&#45;&gt;Node1 -->
<g id="edge1" class="edge">
<title>Node0&#45;&gt;Node1</title>
<path fill="none" stroke="#191970" d="M126.9531,-34.5749C138.967,-35.9102 151.5973,-37.3141 163.8051,-38.6709"/>
<polygon fill="#191970" stroke="#191970" points="163.6121,-42.1709 173.9375,-39.7971 164.3854,-35.2138 163.6121,-42.1709"/>
</g>
<!-- Node2 -->
<g id="node3" class="node">
<title>Node2</title>
<g id="a_node3"><a xlink:href="class_upload_data.html#a3862f12c7d57e464cf4715f90751e36c" target="_top" xlink:title=" ">
<polygon fill="none" stroke="#000000" points="162.6006,-.5 162.6006,-18.5 305.8857,-18.5 305.8857,-.5 162.6006,-.5"/>
<text text-anchor="middle" x="234.2432" y="-6.5" font-family="Helvetica,sans-Serif" font-size="10.00" fill="#000000">UploadData::nameFromPath</text>
</a>
</g>
</g>
<!-- Node0&#45;&gt;Node2 -->
<g id="edge2" class="edge">
<title>Node0&#45;&gt;Node2</title>
<path fill="none" stroke="#191970" d="M126.9531,-20.7975C135.2768,-19.921 143.8964,-19.0134 152.4664,-18.111"/>
<polygon fill="#191970" stroke="#191970" points="152.9048,-21.5842 162.4833,-17.0562 152.1717,-14.6227 152.9048,-21.5842"/>
</g>
</g>
</svg>
