<?xml version="1.0" encoding="UTF-8" standalone="no"?>
<!DOCTYPE svg PUBLIC "-//W3C//DTD SVG 1.1//EN"
 "http://www.w3.org/Graphics/SVG/1.1/DTD/svg11.dtd">
<!-- Generated by graphviz version 2.40.1 (20161225.0304)
 -->
<!-- Title: fs::MeetingAttendee::isRecordingBroadcaster Pages: 1 -->
<svg width="319pt" height="84pt"
 viewBox="0.00 0.00 319.47 84.00" xmlns="http://www.w3.org/2000/svg" xmlns:xlink="http://www.w3.org/1999/xlink">
<g id="graph0" class="graph" transform="scale(1 1) rotate(0) translate(4 80)">
<title>fs::MeetingAttendee::isRecordingBroadcaster</title>
<!-- Node23 -->
<g id="node1" class="node">
<title>Node23</title>
<g id="a_node1"><a xlink:title=" ">
<polygon fill="#bfbfbf" stroke="#000000" points="0,-23.5 0,-51.5 128.2754,-51.5 128.2754,-23.5 0,-23.5"/>
<text text-anchor="start" x="8" y="-39.5" font-family="Helvetica,sans-Serif" font-size="10.00" fill="#000000">fs::MeetingAttendee</text>
<text text-anchor="middle" x="64.1377" y="-29.5" font-family="Helvetica,sans-Serif" font-size="10.00" fill="#000000">::isRecordingBroadcaster</text>
</a>
</g>
</g>
<!-- Node24 -->
<g id="node2" class="node">
<title>Node24</title>
<g id="a_node2"><a xlink:href="classfs_1_1_meeting_attendee_readonly.html#aae0069588eb276f3bc6a0c727954f414" target="_top" xlink:title=" ">
<polygon fill="none" stroke="#000000" points="164.2754,-47.5 164.2754,-75.5 311.4717,-75.5 311.4717,-47.5 164.2754,-47.5"/>
<text text-anchor="start" x="172.2754" y="-63.5" font-family="Helvetica,sans-Serif" font-size="10.00" fill="#000000">fs::MeetingAttendeeReadonly</text>
<text text-anchor="middle" x="237.8735" y="-53.5" font-family="Helvetica,sans-Serif" font-size="10.00" fill="#000000">::getOrigin</text>
</a>
</g>
</g>
<!-- Node23&#45;&gt;Node24 -->
<g id="edge1" class="edge">
<title>Node23&#45;&gt;Node24</title>
<path fill="none" stroke="#191970" d="M128.3369,-46.3685C136.7435,-47.5298 145.4546,-48.7332 154.1242,-49.9308"/>
<polygon fill="#191970" stroke="#191970" points="153.8769,-53.4298 164.2618,-51.3312 154.8348,-46.4956 153.8769,-53.4298"/>
</g>
<!-- Node25 -->
<g id="node3" class="node">
<title>Node25</title>
<g id="a_node3"><a xlink:href="classfs_1_1_meeting_attendee_readonly.html#a571b1ae90b1c6ff3c49c96d329886e30" target="_top" xlink:title=" ">
<polygon fill="none" stroke="#000000" points="164.2754,-.5 164.2754,-28.5 311.4717,-28.5 311.4717,-.5 164.2754,-.5"/>
<text text-anchor="start" x="172.2754" y="-16.5" font-family="Helvetica,sans-Serif" font-size="10.00" fill="#000000">fs::MeetingAttendeeReadonly</text>
<text text-anchor="middle" x="237.8735" y="-6.5" font-family="Helvetica,sans-Serif" font-size="10.00" fill="#000000">::getName</text>
</a>
</g>
</g>
<!-- Node23&#45;&gt;Node25 -->
<g id="edge2" class="edge">
<title>Node23&#45;&gt;Node25</title>
<path fill="none" stroke="#191970" d="M128.3369,-29.001C136.7435,-27.8881 145.4546,-26.7349 154.1242,-25.5871"/>
<polygon fill="#191970" stroke="#191970" points="154.8076,-29.0273 164.2618,-24.2451 153.8889,-22.0878 154.8076,-29.0273"/>
</g>
</g>
</svg>
