<?xml version="1.0" encoding="UTF-8" standalone="no"?>
<!DOCTYPE svg PUBLIC "-//W3C//DTD SVG 1.1//EN"
 "http://www.w3.org/Graphics/SVG/1.1/DTD/svg11.dtd">
<!-- Generated by graphviz version 2.40.1 (20161225.0304)
 -->
<!-- Title: fs::VoiceEngineProxy::isStarted Pages: 1 -->
<svg width="412pt" height="37pt"
 viewBox="0.00 0.00 411.51 37.00" xmlns="http://www.w3.org/2000/svg" xmlns:xlink="http://www.w3.org/1999/xlink">
<g id="graph0" class="graph" transform="scale(1 1) rotate(0) translate(4 33)">
<title>fs::VoiceEngineProxy::isStarted</title>
<!-- Node66 -->
<g id="node1" class="node">
<title>Node66</title>
<g id="a_node1"><a xlink:title=" ">
<polygon fill="#bfbfbf" stroke="#000000" points="0,-.5 0,-28.5 110.502,-28.5 110.502,-.5 0,-.5"/>
<text text-anchor="start" x="8" y="-16.5" font-family="Helvetica,sans-Serif" font-size="10.00" fill="#000000">fs::VoiceEngineProxy</text>
<text text-anchor="middle" x="55.251" y="-6.5" font-family="Helvetica,sans-Serif" font-size="10.00" fill="#000000">::isStarted</text>
</a>
</g>
</g>
<!-- Node67 -->
<g id="node2" class="node">
<title>Node67</title>
<g id="a_node2"><a xlink:href="classfs_1_1_voice_engine_proxy.html#ad36b2e002fea4dbbaa14aec99909e9d7" target="_top" xlink:title=" ">
<polygon fill="none" stroke="#000000" points="146.502,-.5 146.502,-28.5 257.0039,-28.5 257.0039,-.5 146.502,-.5"/>
<text text-anchor="start" x="154.502" y="-16.5" font-family="Helvetica,sans-Serif" font-size="10.00" fill="#000000">fs::VoiceEngineProxy</text>
<text text-anchor="middle" x="201.7529" y="-6.5" font-family="Helvetica,sans-Serif" font-size="10.00" fill="#000000">::dispatch</text>
</a>
</g>
</g>
<!-- Node66&#45;&gt;Node67 -->
<g id="edge1" class="edge">
<title>Node66&#45;&gt;Node67</title>
<path fill="none" stroke="#191970" d="M110.6371,-14.5C118.9324,-14.5 127.5533,-14.5 136.0378,-14.5"/>
<polygon fill="#191970" stroke="#191970" points="136.2885,-18.0001 146.2885,-14.5 136.2885,-11.0001 136.2885,-18.0001"/>
</g>
<!-- Node68 -->
<g id="node3" class="node">
<title>Node68</title>
<g id="a_node3"><a xlink:href="classfs_1_1_voice_engine_proxy.html#a7b9ec98dcc4627121096f416804aa69c" target="_top" xlink:title=" ">
<polygon fill="none" stroke="#000000" points="293.0039,-.5 293.0039,-28.5 403.5059,-28.5 403.5059,-.5 293.0039,-.5"/>
<text text-anchor="start" x="301.0039" y="-16.5" font-family="Helvetica,sans-Serif" font-size="10.00" fill="#000000">fs::VoiceEngineProxy</text>
<text text-anchor="middle" x="348.2549" y="-6.5" font-family="Helvetica,sans-Serif" font-size="10.00" fill="#000000">::ioService</text>
</a>
</g>
</g>
<!-- Node67&#45;&gt;Node68 -->
<g id="edge2" class="edge">
<title>Node67&#45;&gt;Node68</title>
<path fill="none" stroke="#191970" d="M257.139,-14.5C265.4344,-14.5 274.0552,-14.5 282.5398,-14.5"/>
<polygon fill="#191970" stroke="#191970" points="282.7905,-18.0001 292.7905,-14.5 282.7904,-11.0001 282.7905,-18.0001"/>
</g>
</g>
</svg>
