<?xml version="1.0" encoding="UTF-8" standalone="no"?>
<!DOCTYPE svg PUBLIC "-//W3C//DTD SVG 1.1//EN"
 "http://www.w3.org/Graphics/SVG/1.1/DTD/svg11.dtd">
<!-- Generated by graphviz version 2.40.1 (20161225.0304)
 -->
<!-- Title: cx::meeting::MeetingAttendeeProxy::create Pages: 1 -->
<svg width="350pt" height="84pt"
 viewBox="0.00 0.00 350.05 84.00" xmlns="http://www.w3.org/2000/svg" xmlns:xlink="http://www.w3.org/1999/xlink">
<g id="graph0" class="graph" transform="scale(1 1) rotate(0) translate(4 80)">
<title>cx::meeting::MeetingAttendeeProxy::create</title>
<!-- Node3 -->
<g id="node1" class="node">
<title>Node3</title>
<g id="a_node1"><a xlink:title=" ">
<polygon fill="#bfbfbf" stroke="#000000" points="193.7529,-23.5 193.7529,-51.5 342.0527,-51.5 342.0527,-23.5 193.7529,-23.5"/>
<text text-anchor="start" x="201.7529" y="-39.5" font-family="Helvetica,sans-Serif" font-size="10.00" fill="#000000">cx::meeting::MeetingAttendee</text>
<text text-anchor="middle" x="267.9028" y="-29.5" font-family="Helvetica,sans-Serif" font-size="10.00" fill="#000000">Proxy::create</text>
</a>
</g>
</g>
<!-- Node4 -->
<g id="node2" class="node">
<title>Node4</title>
<g id="a_node2"><a xlink:href="classcx_1_1meeting_1_1_meeting_attendee_feature_impl.html#adabee456648a2f1e5ac6e4b67087ab0d" target="_top" xlink:title=" ">
<polygon fill="none" stroke="#000000" points="4.7266,-47.5 4.7266,-75.5 153.0264,-75.5 153.0264,-47.5 4.7266,-47.5"/>
<text text-anchor="start" x="12.7266" y="-63.5" font-family="Helvetica,sans-Serif" font-size="10.00" fill="#000000">cx::meeting::MeetingAttendee</text>
<text text-anchor="middle" x="78.8765" y="-53.5" font-family="Helvetica,sans-Serif" font-size="10.00" fill="#000000">FeatureImpl::getAttendee</text>
</a>
</g>
</g>
<!-- Node3&#45;&gt;Node4 -->
<g id="edge1" class="edge">
<title>Node3&#45;&gt;Node4</title>
<path fill="none" stroke="#191970" d="M183.6414,-48.1984C173.4745,-49.4892 163.1476,-50.8004 153.1385,-52.0712"/>
<polygon fill="#191970" stroke="#191970" points="184.2576,-51.6483 193.7371,-46.9166 183.3759,-44.7041 184.2576,-51.6483"/>
</g>
<!-- Node5 -->
<g id="node3" class="node">
<title>Node5</title>
<g id="a_node3"><a xlink:href="classcx_1_1meeting_1_1_meeting_attendee_feature_impl.html#a8a604b2b1507fd73eada04fd660084a6" target="_top" xlink:title=" ">
<polygon fill="none" stroke="#000000" points="0,-.5 0,-28.5 157.7529,-28.5 157.7529,-.5 0,-.5"/>
<text text-anchor="start" x="8" y="-16.5" font-family="Helvetica,sans-Serif" font-size="10.00" fill="#000000">cx::meeting::MeetingAttendee</text>
<text text-anchor="middle" x="78.8765" y="-6.5" font-family="Helvetica,sans-Serif" font-size="10.00" fill="#000000">FeatureImpl::getBridgeAttendee</text>
</a>
</g>
</g>
<!-- Node3&#45;&gt;Node5 -->
<g id="edge2" class="edge">
<title>Node3&#45;&gt;Node5</title>
<path fill="none" stroke="#191970" d="M183.7005,-27.2546C175.0907,-26.207 166.3654,-25.1453 157.815,-24.1049"/>
<polygon fill="#191970" stroke="#191970" points="183.3876,-30.7422 193.7371,-28.4758 184.2331,-23.7935 183.3876,-30.7422"/>
</g>
</g>
</svg>
