<?xml version="1.0" encoding="UTF-8" standalone="no"?>
<!DOCTYPE svg PUBLIC "-//W3C//DTD SVG 1.1//EN"
 "http://www.w3.org/Graphics/SVG/1.1/DTD/svg11.dtd">
<!-- Generated by graphviz version 2.40.1 (20161225.0304)
 -->
<!-- Title: fs::RTPresentationBroadcastHandler Pages: 1 -->
<!--zoomable 509 -->
<svg id="main" version="1.1" xmlns="http://www.w3.org/2000/svg" xmlns:xlink="http://www.w3.org/1999/xlink" xml:space="preserve" onload="init(evt)">
<style type="text/css"><![CDATA[
.edge:hover path { stroke: red; }
.edge:hover polygon { stroke: red; fill: red; }
]]></style>
<script type="text/javascript"><![CDATA[
var edges = document.getElementsByTagName('g');
if (edges && edges.length) {
  for (var i=0;i<edges.length;i++) {
    if (edges[i].id.substr(0,4)=='edge') {
      edges[i].setAttribute('class','edge');
    }
  }
}
]]></script>
        <defs>
                <circle id="rim" cx="0" cy="0" r="7"/>
                <circle id="rim2" cx="0" cy="0" r="3.5"/>
                <g id="zoomPlus">
                        <use xlink:href="#rim" fill="#404040">
                                <set attributeName="fill" to="#808080" begin="zoomplus.mouseover" end="zoomplus.mouseout"/>
                        </use>
                        <path d="M-4,0h8M0,-4v8" fill="none" stroke="white" stroke-width="1.5" pointer-events="none"/>
                </g>
                <g id="zoomMin">
                        <use xlink:href="#rim" fill="#404040">
                                <set attributeName="fill" to="#808080" begin="zoomminus.mouseover" end="zoomminus.mouseout"/>
                        </use>
                        <path d="M-4,0h8" fill="none" stroke="white" stroke-width="1.5" pointer-events="none"/>
                </g>
                <g id="dirArrow">
                        <path fill="none" stroke="white" stroke-width="1.5" d="M0,-3.0v7 M-2.5,-0.5L0,-3.0L2.5,-0.5"/>
                </g>
               <g id="resetDef">
                       <use xlink:href="#rim2" fill="#404040">
                               <set attributeName="fill" to="#808080" begin="reset.mouseover" end="reset.mouseout"/>
                       </use>
               </g>
        </defs>

<script type="text/javascript">
var viewWidth = 284;
var viewHeight = 509;
var sectionId = 'dynsection-1';
</script>
<script xlink:href="svgpan.js"/>
<svg id="graph" class="graph">
<g id="viewport">
<title>fs::RTPresentationBroadcastHandler</title>
<!-- Node2 -->
<g id="node1" class="node">
<title>Node2</title>
<g id="a_node1"><a xlink:title=" ">
<polygon fill="#bfbfbf" stroke="#000000" points="41.5215,-.5 41.5215,-84.5 222.1455,-84.5 222.1455,-.5 41.5215,-.5"/>
<text text-anchor="start" x="49.5215" y="-72.5" font-family="Helvetica,sans-Serif" font-size="10.00" fill="#000000">fs::RTPresentationBroadcast</text>
<text text-anchor="middle" x="131.8335" y="-62.5" font-family="Helvetica,sans-Serif" font-size="10.00" fill="#000000">Handler</text>
<polyline fill="none" stroke="#000000" points="41.5215,-56.5 222.1455,-56.5 "/>
<text text-anchor="middle" x="131.8335" y="-44.5" font-family="Helvetica,sans-Serif" font-size="10.00" fill="#000000"> </text>
<polyline fill="none" stroke="#000000" points="41.5215,-38.5 222.1455,-38.5 "/>
<text text-anchor="start" x="49.5215" y="-26.5" font-family="Helvetica,sans-Serif" font-size="10.00" fill="#000000">+ RTPresentationBroadcastHandler()</text>
<text text-anchor="start" x="49.5215" y="-16.5" font-family="Helvetica,sans-Serif" font-size="10.00" fill="#000000">+ ~RTPresentationBroadcast</text>
<text text-anchor="start" x="49.5215" y="-6.5" font-family="Helvetica,sans-Serif" font-size="10.00" fill="#000000">Handler()</text>
</a>
</g>
</g>
<!-- Node3 -->
<g id="node2" class="node">
<title>Node3</title>
<g id="a_node2"><a xlink:href="classfs_1_1_notification_handler.html" target="_top" xlink:title=" ">
<polygon fill="none" stroke="#000000" points="74.9224,-122.5 74.9224,-186.5 188.7446,-186.5 188.7446,-122.5 74.9224,-122.5"/>
<text text-anchor="middle" x="131.8335" y="-174.5" font-family="Helvetica,sans-Serif" font-size="10.00" fill="#000000">fs::NotificationHandler</text>
<polyline fill="none" stroke="#000000" points="74.9224,-168.5 188.7446,-168.5 "/>
<text text-anchor="middle" x="131.8335" y="-156.5" font-family="Helvetica,sans-Serif" font-size="10.00" fill="#000000"> </text>
<polyline fill="none" stroke="#000000" points="74.9224,-150.5 188.7446,-150.5 "/>
<text text-anchor="start" x="82.9224" y="-138.5" font-family="Helvetica,sans-Serif" font-size="10.00" fill="#000000">+ API_METHOD()</text>
<text text-anchor="start" x="82.9224" y="-128.5" font-family="Helvetica,sans-Serif" font-size="10.00" fill="#000000">+ API_METHOD()</text>
</a>
</g>
</g>
<!-- Node3&#45;&gt;Node2 -->
<g id="edge1" class="edge">
<title>Node3&#45;&gt;Node2</title>
<path fill="none" stroke="#191970" d="M131.8335,-112.1283C131.8335,-103.1265 131.8335,-93.6245 131.8335,-84.6317"/>
<polygon fill="none" stroke="#191970" points="128.3336,-112.4053 131.8335,-122.4053 135.3336,-112.4053 128.3336,-112.4053"/>
</g>
<!-- Node4 -->
<g id="node3" class="node">
<title>Node4</title>
<g id="a_node3"><a xlink:title=" ">
<polygon fill="none" stroke="#bfbfbf" points="0,-233.5 0,-297.5 129.667,-297.5 129.667,-233.5 0,-233.5"/>
<text text-anchor="start" x="8" y="-285.5" font-family="Helvetica,sans-Serif" font-size="10.00" fill="#000000">std::map&lt; String, Handler</text>
<text text-anchor="middle" x="64.8335" y="-275.5" font-family="Helvetica,sans-Serif" font-size="10.00" fill="#000000">Pointer &gt;</text>
<polyline fill="none" stroke="#bfbfbf" points="0,-269.5 129.667,-269.5 "/>
<text text-anchor="start" x="8" y="-257.5" font-family="Helvetica,sans-Serif" font-size="10.00" fill="#000000">+ elements</text>
<polyline fill="none" stroke="#bfbfbf" points="0,-251.5 129.667,-251.5 "/>
<text text-anchor="middle" x="64.8335" y="-239.5" font-family="Helvetica,sans-Serif" font-size="10.00" fill="#000000"> </text>
</a>
</g>
</g>
<!-- Node4&#45;&gt;Node3 -->
<g id="edge2" class="edge">
<title>Node4&#45;&gt;Node3</title>
<path fill="none" stroke="#404040" d="M84.2127,-233.3942C91.0877,-222.0042 98.934,-209.0051 106.2467,-196.89"/>
<polygon fill="none" stroke="#404040" points="106.2967,-196.8072 105.9728,-189.6034 112.4979,-186.5336 112.8218,-193.7375 106.2967,-196.8072"/>
<text text-anchor="middle" x="126.9639" y="-207" font-family="Helvetica,sans-Serif" font-size="10.00" fill="#000000"> #_handlers</text>
</g>
<!-- Node5 -->
<g id="node4" class="node">
<title>Node5</title>
<g id="a_node4"><a xlink:title="STL class.">
<polygon fill="none" stroke="#bfbfbf" points="103.1587,-344.5 103.1587,-398.5 162.5083,-398.5 162.5083,-344.5 103.1587,-344.5"/>
<text text-anchor="middle" x="132.8335" y="-386.5" font-family="Helvetica,sans-Serif" font-size="10.00" fill="#000000">std::string</text>
<polyline fill="none" stroke="#bfbfbf" points="103.1587,-380.5 162.5083,-380.5 "/>
<text text-anchor="middle" x="132.8335" y="-368.5" font-family="Helvetica,sans-Serif" font-size="10.00" fill="#000000"> </text>
<polyline fill="none" stroke="#bfbfbf" points="103.1587,-362.5 162.5083,-362.5 "/>
<text text-anchor="middle" x="132.8335" y="-350.5" font-family="Helvetica,sans-Serif" font-size="10.00" fill="#000000"> </text>
</a>
</g>
</g>
<!-- Node5&#45;&gt;Node4 -->
<g id="edge3" class="edge">
<title>Node5&#45;&gt;Node4</title>
<path fill="none" stroke="#404040" d="M115.4983,-344.4775C108.3663,-333.3599 99.9345,-320.2163 92.0171,-307.8744"/>
<polygon fill="none" stroke="#404040" points="92.0067,-307.8581 85.4001,-304.9678 85.5271,-297.7578 92.1337,-300.6481 92.0067,-307.8581"/>
<text text-anchor="middle" x="118.4233" y="-318" font-family="Helvetica,sans-Serif" font-size="10.00" fill="#000000"> +keys</text>
</g>
<!-- Node7 -->
<g id="node6" class="node">
<title>Node7</title>
<g id="a_node6"><a xlink:title=" ">
<polygon fill="none" stroke="#bfbfbf" points="148.0898,-238.5 148.0898,-292.5 253.5771,-292.5 253.5771,-238.5 148.0898,-238.5"/>
<text text-anchor="middle" x="200.8335" y="-280.5" font-family="Helvetica,sans-Serif" font-size="10.00" fill="#000000">std::vector&lt; String &gt;</text>
<polyline fill="none" stroke="#bfbfbf" points="148.0898,-274.5 253.5771,-274.5 "/>
<text text-anchor="middle" x="200.8335" y="-262.5" font-family="Helvetica,sans-Serif" font-size="10.00" fill="#000000"> </text>
<polyline fill="none" stroke="#bfbfbf" points="148.0898,-256.5 253.5771,-256.5 "/>
<text text-anchor="middle" x="200.8335" y="-244.5" font-family="Helvetica,sans-Serif" font-size="10.00" fill="#000000"> </text>
</a>
</g>
</g>
<!-- Node5&#45;&gt;Node7 -->
<g id="edge6" class="edge">
<title>Node5&#45;&gt;Node7</title>
<path fill="none" stroke="#404040" d="M150.1687,-344.4775C158.2586,-331.8667 168.0208,-316.6491 176.8079,-302.9516"/>
<polygon fill="none" stroke="#404040" points="176.814,-302.9421 176.687,-295.7321 183.2935,-292.8418 183.4205,-300.0518 176.814,-302.9421"/>
<text text-anchor="middle" x="191.4307" y="-318" font-family="Helvetica,sans-Serif" font-size="10.00" fill="#000000"> +elements</text>
</g>
<!-- Node6 -->
<g id="node5" class="node">
<title>Node6</title>
<g id="a_node5"><a xlink:title="STL class.">
<polygon fill="none" stroke="#bfbfbf" points="85.7856,-436.5 85.7856,-500.5 179.8813,-500.5 179.8813,-436.5 85.7856,-436.5"/>
<text text-anchor="start" x="93.7856" y="-488.5" font-family="Helvetica,sans-Serif" font-size="10.00" fill="#000000">std::basic_string&lt;</text>
<text text-anchor="middle" x="132.8335" y="-478.5" font-family="Helvetica,sans-Serif" font-size="10.00" fill="#000000"> char &gt;</text>
<polyline fill="none" stroke="#bfbfbf" points="85.7856,-472.5 179.8813,-472.5 "/>
<text text-anchor="middle" x="132.8335" y="-460.5" font-family="Helvetica,sans-Serif" font-size="10.00" fill="#000000"> </text>
<polyline fill="none" stroke="#bfbfbf" points="85.7856,-454.5 179.8813,-454.5 "/>
<text text-anchor="middle" x="132.8335" y="-442.5" font-family="Helvetica,sans-Serif" font-size="10.00" fill="#000000"> </text>
</a>
</g>
</g>
<!-- Node6&#45;&gt;Node5 -->
<g id="edge4" class="edge">
<title>Node6&#45;&gt;Node5</title>
<path fill="none" stroke="#191970" d="M132.8335,-426.4397C132.8335,-417.0133 132.8335,-407.2564 132.8335,-398.6277"/>
<polygon fill="none" stroke="#191970" points="129.3336,-426.4697 132.8335,-436.4697 136.3336,-426.4698 129.3336,-426.4697"/>
</g>
<!-- Node7&#45;&gt;Node3 -->
<g id="edge5" class="edge">
<title>Node7&#45;&gt;Node3</title>
<path fill="none" stroke="#404040" d="M183.9542,-238.3463C176.2603,-225.9692 166.9681,-211.0209 158.3732,-197.1942"/>
<polygon fill="none" stroke="#404040" points="158.3097,-197.0921 151.7449,-194.1082 151.9745,-186.9007 158.5392,-189.8847 158.3097,-197.0921"/>
<text text-anchor="middle" x="222.4761" y="-207" font-family="Helvetica,sans-Serif" font-size="10.00" fill="#000000"> #supportedNotifications</text>
</g>
</g>
</svg>
        <g id="navigator" transform="translate(0 0)" fill="#404254">
                <rect fill="#f2f5e9" fill-opacity="0.5" stroke="#606060" stroke-width=".5" x="0" y="0" width="60" height="60"/>
                <use id="zoomplus" xlink:href="#zoomPlus" x="17" y="9" onmousedown="handleZoom(evt,'in')"/>
                <use id="zoomminus" xlink:href="#zoomMin" x="42" y="9" onmousedown="handleZoom(evt,'out')"/>
                <use id="reset" xlink:href="#resetDef" x="30" y="36" onmousedown="handleReset()"/>
                <g id="arrowUp" xlink:href="#dirArrow" transform="translate(30 24)" onmousedown="handlePan(0,-1)">
                  <use xlink:href="#rim" fill="#404040">
                        <set attributeName="fill" to="#808080" begin="arrowUp.mouseover" end="arrowUp.mouseout"/>
                  </use>
                  <path fill="none" stroke="white" stroke-width="1.5" d="M0,-3.0v7 M-2.5,-0.5L0,-3.0L2.5,-0.5"/>
                </g>
                <g id="arrowRight" xlink:href="#dirArrow" transform="rotate(90) translate(36 -43)" onmousedown="handlePan(1,0)">
                  <use xlink:href="#rim" fill="#404040">
                        <set attributeName="fill" to="#808080" begin="arrowRight.mouseover" end="arrowRight.mouseout"/>
                  </use>
                  <path fill="none" stroke="white" stroke-width="1.5" d="M0,-3.0v7 M-2.5,-0.5L0,-3.0L2.5,-0.5"/>
                </g>
                <g id="arrowDown" xlink:href="#dirArrow" transform="rotate(180) translate(-30 -48)" onmousedown="handlePan(0,1)">
                  <use xlink:href="#rim" fill="#404040">
                        <set attributeName="fill" to="#808080" begin="arrowDown.mouseover" end="arrowDown.mouseout"/>
                  </use>
                  <path fill="none" stroke="white" stroke-width="1.5" d="M0,-3.0v7 M-2.5,-0.5L0,-3.0L2.5,-0.5"/>
                </g>
                <g id="arrowLeft" xlink:href="#dirArrow" transform="rotate(270) translate(-36 17)" onmousedown="handlePan(-1,0)">
                  <use xlink:href="#rim" fill="#404040">
                        <set attributeName="fill" to="#808080" begin="arrowLeft.mouseover" end="arrowLeft.mouseout"/>
                  </use>
                  <path fill="none" stroke="white" stroke-width="1.5" d="M0,-3.0v7 M-2.5,-0.5L0,-3.0L2.5,-0.5"/>
                </g>
        </g>
        <svg viewBox="0 0 15 15" width="100%" height="30px" preserveAspectRatio="xMaxYMin meet">
         <g id="arrow_out" transform="scale(0.3 0.3)">
          <a xlink:href="classfs_1_1_r_t_presentation_broadcast_handler__coll__graph_org.svg" target="_base">
           <rect id="button" ry="5" rx="5" y="6" x="6" height="38" width="38"
                fill="#f2f5e9" fill-opacity="0.5" stroke="#606060" stroke-width="1.0"/>
           <path id="arrow"
             d="M 11.500037,31.436501 C 11.940474,20.09759 22.043105,11.32322 32.158766,21.979434 L 37.068811,17.246167 C 37.068811,17.246167 37.088388,32 37.088388,32 L 22.160133,31.978069 C 22.160133,31.978069 26.997745,27.140456 26.997745,27.140456 C 18.528582,18.264221 13.291696,25.230495 11.500037,31.436501 z"
             style="fill:#404040;"/>
          </a>
         </g>
        </svg>
</svg>
