<?xml version="1.0" encoding="UTF-8" standalone="no"?>
<!DOCTYPE svg PUBLIC "-//W3C//DTD SVG 1.1//EN"
 "http://www.w3.org/Graphics/SVG/1.1/DTD/svg11.dtd">
<!-- Generated by graphviz version 2.40.1 (20161225.0304)
 -->
<!-- Title: cx::meeting::MeetingFeatureImpl&lt; T &gt; Pages: 1 -->
<svg width="151pt" height="204pt"
 viewBox="0.00 0.00 150.73 204.00" xmlns="http://www.w3.org/2000/svg" xmlns:xlink="http://www.w3.org/1999/xlink">
<g id="graph0" class="graph" transform="scale(1 1) rotate(0) translate(4 200)">
<title>cx::meeting::MeetingFeatureImpl&lt; T &gt;</title>
<!-- Node0 -->
<g id="node1" class="node">
<title>Node0</title>
<g id="a_node1"><a xlink:title=" ">
<polygon fill="#bfbfbf" stroke="#000000" points="0,-.5 0,-104.5 142.7285,-104.5 142.7285,-.5 0,-.5"/>
<text text-anchor="start" x="8" y="-92.5" font-family="Helvetica,sans-Serif" font-size="10.00" fill="#000000">cx::meeting::MeetingFeature</text>
<text text-anchor="middle" x="71.3643" y="-82.5" font-family="Helvetica,sans-Serif" font-size="10.00" fill="#000000">Impl&lt; T &gt;</text>
<polyline fill="none" stroke="#000000" points="0,-76.5 142.7285,-76.5 "/>
<text text-anchor="start" x="8" y="-64.5" font-family="Helvetica,sans-Serif" font-size="10.00" fill="#000000"># _session</text>
<polyline fill="none" stroke="#000000" points="0,-58.5 142.7285,-58.5 "/>
<text text-anchor="start" x="8" y="-46.5" font-family="Helvetica,sans-Serif" font-size="10.00" fill="#000000">+ MeetingFeatureImpl()</text>
<text text-anchor="start" x="8" y="-36.5" font-family="Helvetica,sans-Serif" font-size="10.00" fill="#000000">+ ~MeetingFeatureImpl()</text>
<text text-anchor="start" x="8" y="-26.5" font-family="Helvetica,sans-Serif" font-size="10.00" fill="#000000">+ session()</text>
<text text-anchor="start" x="8" y="-16.5" font-family="Helvetica,sans-Serif" font-size="10.00" fill="#000000">+ configuration()</text>
<text text-anchor="start" x="8" y="-6.5" font-family="Helvetica,sans-Serif" font-size="10.00" fill="#000000">+ instance()</text>
</a>
</g>
</g>
<!-- Node1 -->
<g id="node2" class="node">
<title>Node1</title>
<g id="a_node2"><a xlink:title=" ">
<polygon fill="none" stroke="#bfbfbf" points="56.8643,-141.5 56.8643,-195.5 85.8643,-195.5 85.8643,-141.5 56.8643,-141.5"/>
<text text-anchor="middle" x="70.9185" y="-183.5" font-family="Helvetica,sans-Serif" font-size="10.00" fill="#000000">T</text>
<polyline fill="none" stroke="#bfbfbf" points="56.8643,-177.5 84.9727,-177.5 "/>
<text text-anchor="middle" x="70.9185" y="-165.5" font-family="Helvetica,sans-Serif" font-size="10.00" fill="#000000"> </text>
<polyline fill="none" stroke="#bfbfbf" points="56.8643,-159.5 84.9727,-159.5 "/>
<text text-anchor="middle" x="70.9185" y="-147.5" font-family="Helvetica,sans-Serif" font-size="10.00" fill="#000000"> </text>
</a>
</g>
</g>
<!-- Node1&#45;&gt;Node0 -->
<g id="edge1" class="edge">
<title>Node1&#45;&gt;Node0</title>
<path fill="none" stroke="#191970" d="M71.3643,-131.0375C71.3643,-122.6013 71.3643,-113.4994 71.3643,-104.5858"/>
<polygon fill="none" stroke="#191970" points="67.8644,-131.3031 71.3643,-141.3032 74.8644,-131.3032 67.8644,-131.3031"/>
</g>
</g>
</svg>
