<?xml version="1.0" encoding="UTF-8" standalone="no"?>
<!DOCTYPE svg PUBLIC "-//W3C//DTD SVG 1.1//EN"
 "http://www.w3.org/Graphics/SVG/1.1/DTD/svg11.dtd">
<!-- Generated by graphviz version 2.40.1 (20161225.0304)
 -->
<!-- Title: fs::AttendeesController::onAttendeeJoined Pages: 1 -->
<svg width="309pt" height="225pt"
 viewBox="0.00 0.00 308.92 225.00" xmlns="http://www.w3.org/2000/svg" xmlns:xlink="http://www.w3.org/1999/xlink">
<g id="graph0" class="graph" transform="scale(1 1) rotate(0) translate(4 221)">
<title>fs::AttendeesController::onAttendeeJoined</title>
<!-- Node30 -->
<g id="node1" class="node">
<title>Node30</title>
<g id="a_node1"><a xlink:title=" ">
<polygon fill="#bfbfbf" stroke="#000000" points="0,-94.5 0,-122.5 117.7188,-122.5 117.7188,-94.5 0,-94.5"/>
<text text-anchor="start" x="8" y="-110.5" font-family="Helvetica,sans-Serif" font-size="10.00" fill="#000000">fs::AttendeesController</text>
<text text-anchor="middle" x="58.8594" y="-100.5" font-family="Helvetica,sans-Serif" font-size="10.00" fill="#000000">::onAttendeeJoined</text>
</a>
</g>
</g>
<!-- Node31 -->
<g id="node2" class="node">
<title>Node31</title>
<g id="a_node2"><a xlink:href="classfs_1_1_attendee_decorator.html#acc2cf422616b1dfff9d5f0589b31d13c" target="_top" xlink:title=" ">
<polygon fill="none" stroke="#000000" points="170.6792,-188.5 170.6792,-216.5 283.9546,-216.5 283.9546,-188.5 170.6792,-188.5"/>
<text text-anchor="start" x="178.6792" y="-204.5" font-family="Helvetica,sans-Serif" font-size="10.00" fill="#000000">fs::AttendeeDecorator</text>
<text text-anchor="middle" x="227.3169" y="-194.5" font-family="Helvetica,sans-Serif" font-size="10.00" fill="#000000">::getPrimaryIdentifier</text>
</a>
</g>
</g>
<!-- Node30&#45;&gt;Node31 -->
<g id="edge1" class="edge">
<title>Node30&#45;&gt;Node31</title>
<path fill="none" stroke="#191970" d="M74.1927,-122.6061C92.0843,-138.4104 123.1328,-163.859 153.7188,-179.5 157.4061,-181.3856 161.2772,-183.1514 165.2336,-184.7988"/>
<polygon fill="#191970" stroke="#191970" points="163.9853,-188.0686 174.574,-188.4284 166.5208,-181.544 163.9853,-188.0686"/>
</g>
<!-- Node32 -->
<g id="node3" class="node">
<title>Node32</title>
<g id="a_node3"><a xlink:href="classfs_1_1_attendee_decorator.html#a8206a4a93ea54117e753e148f79a216f" target="_top" xlink:title=" ">
<polygon fill="none" stroke="#000000" points="166.5068,-141.5 166.5068,-169.5 288.127,-169.5 288.127,-141.5 166.5068,-141.5"/>
<text text-anchor="start" x="174.5068" y="-157.5" font-family="Helvetica,sans-Serif" font-size="10.00" fill="#000000">fs::AttendeeDecorator</text>
<text text-anchor="middle" x="227.3169" y="-147.5" font-family="Helvetica,sans-Serif" font-size="10.00" fill="#000000">::getSecondaryIdentifier</text>
</a>
</g>
</g>
<!-- Node30&#45;&gt;Node32 -->
<g id="edge2" class="edge">
<title>Node30&#45;&gt;Node32</title>
<path fill="none" stroke="#191970" d="M109.4022,-122.6015C127.641,-127.6902 148.4029,-133.4828 167.3688,-138.7744"/>
<polygon fill="#191970" stroke="#191970" points="166.5275,-142.1732 177.1002,-141.4894 168.4087,-135.4307 166.5275,-142.1732"/>
</g>
<!-- Node33 -->
<g id="node4" class="node">
<title>Node33</title>
<g id="a_node4"><a xlink:href="classfs_1_1_meeting_attendee_readonly.html#a7300dbebb8b8e224299f94088c87d2f0" target="_top" xlink:title=" ">
<polygon fill="none" stroke="#000000" points="153.7188,-94.5 153.7188,-122.5 300.915,-122.5 300.915,-94.5 153.7188,-94.5"/>
<text text-anchor="start" x="161.7188" y="-110.5" font-family="Helvetica,sans-Serif" font-size="10.00" fill="#000000">fs::MeetingAttendeeReadonly</text>
<text text-anchor="middle" x="227.3169" y="-100.5" font-family="Helvetica,sans-Serif" font-size="10.00" fill="#000000">::getId</text>
</a>
</g>
</g>
<!-- Node30&#45;&gt;Node33 -->
<g id="edge3" class="edge">
<title>Node30&#45;&gt;Node33</title>
<path fill="none" stroke="#191970" d="M117.7776,-108.5C126.0974,-108.5 134.7803,-108.5 143.458,-108.5"/>
<polygon fill="#191970" stroke="#191970" points="143.6205,-112.0001 153.6204,-108.5 143.6204,-105.0001 143.6205,-112.0001"/>
</g>
<!-- Node34 -->
<g id="node5" class="node">
<title>Node34</title>
<g id="a_node5"><a xlink:href="classfs_1_1_attendees_controller.html#a46198fddf141d437e3beb9d8a1cbc922" target="_top" xlink:title=" ">
<polygon fill="none" stroke="#000000" points="157.0464,-47.5 157.0464,-75.5 297.5874,-75.5 297.5874,-47.5 157.0464,-47.5"/>
<text text-anchor="start" x="165.0464" y="-63.5" font-family="Helvetica,sans-Serif" font-size="10.00" fill="#000000">fs::AttendeesController</text>
<text text-anchor="middle" x="227.3169" y="-53.5" font-family="Helvetica,sans-Serif" font-size="10.00" fill="#000000">::onAttendeeMediaChanged</text>
</a>
</g>
</g>
<!-- Node30&#45;&gt;Node34 -->
<g id="edge4" class="edge">
<title>Node30&#45;&gt;Node34</title>
<path fill="none" stroke="#191970" d="M109.4022,-94.3985C127.641,-89.3098 148.4029,-83.5172 167.3688,-78.2256"/>
<polygon fill="#191970" stroke="#191970" points="168.4087,-81.5693 177.1002,-75.5106 166.5275,-74.8268 168.4087,-81.5693"/>
</g>
<!-- Node35 -->
<g id="node6" class="node">
<title>Node35</title>
<g id="a_node6"><a xlink:href="classfs_1_1_meeting_attendee_readonly.html#a789fc679701446f1c65d577e25fb7135" target="_top" xlink:title=" ">
<polygon fill="none" stroke="#000000" points="153.7188,-.5 153.7188,-28.5 300.915,-28.5 300.915,-.5 153.7188,-.5"/>
<text text-anchor="start" x="161.7188" y="-16.5" font-family="Helvetica,sans-Serif" font-size="10.00" fill="#000000">fs::MeetingAttendeeReadonly</text>
<text text-anchor="middle" x="227.3169" y="-6.5" font-family="Helvetica,sans-Serif" font-size="10.00" fill="#000000">::getMediaFlags</text>
</a>
</g>
</g>
<!-- Node30&#45;&gt;Node35 -->
<g id="edge5" class="edge">
<title>Node30&#45;&gt;Node35</title>
<path fill="none" stroke="#191970" d="M74.5882,-94.3948C92.594,-78.8685 123.512,-54.0528 153.7188,-38.5 158.0465,-36.2718 162.6228,-34.1936 167.2908,-32.2677"/>
<polygon fill="#191970" stroke="#191970" points="168.8882,-35.4025 176.9508,-28.529 166.3616,-28.8744 168.8882,-35.4025"/>
</g>
</g>
</svg>
