<?xml version="1.0" encoding="UTF-8" standalone="no"?>
<!DOCTYPE svg PUBLIC "-//W3C//DTD SVG 1.1//EN"
 "http://www.w3.org/Graphics/SVG/1.1/DTD/svg11.dtd">
<!-- Generated by graphviz version 2.40.1 (20161225.0304)
 -->
<!-- Title: cx::HTTPRequestContainer::request Pages: 1 -->
<svg width="353pt" height="2021pt"
 viewBox="0.00 0.00 353.34 2021.00" xmlns="http://www.w3.org/2000/svg" xmlns:xlink="http://www.w3.org/1999/xlink">
<g id="graph0" class="graph" transform="scale(1 1) rotate(0) translate(4 2017)">
<title>cx::HTTPRequestContainer::request</title>
<!-- Node15 -->
<g id="node1" class="node">
<title>Node15</title>
<g id="a_node1"><a xlink:title=" ">
<polygon fill="#bfbfbf" stroke="#000000" points="207.0684,-987.5 207.0684,-1015.5 345.3389,-1015.5 345.3389,-987.5 207.0684,-987.5"/>
<text text-anchor="start" x="215.0684" y="-1003.5" font-family="Helvetica,sans-Serif" font-size="10.00" fill="#000000">cx::HTTPRequestContainer</text>
<text text-anchor="middle" x="276.2036" y="-993.5" font-family="Helvetica,sans-Serif" font-size="10.00" fill="#000000">::request</text>
</a>
</g>
</g>
<!-- Node16 -->
<g id="node2" class="node">
<title>Node16</title>
<g id="a_node2"><a xlink:href="classcx_1_1web_1_1_a_p_iv3_wrapper.html#aeedb127d59a41323a4e7141e05c187e6" target="_top" xlink:title=" ">
<polygon fill="none" stroke="#000000" points="0,-1984.5 0,-2012.5 171.0684,-2012.5 171.0684,-1984.5 0,-1984.5"/>
<text text-anchor="start" x="8" y="-2000.5" font-family="Helvetica,sans-Serif" font-size="10.00" fill="#000000">cx::web::APIv3Wrapper</text>
<text text-anchor="middle" x="85.5342" y="-1990.5" font-family="Helvetica,sans-Serif" font-size="10.00" fill="#000000">::getSubscriptionByEmailPassword</text>
</a>
</g>
</g>
<!-- Node15&#45;&gt;Node16 -->
<g id="edge1" class="edge">
<title>Node15&#45;&gt;Node16</title>
<path fill="none" stroke="#191970" d="M275.1988,-1025.8798C269.0711,-1169.4497 234.8606,-1900.954 171.0684,-1975.5 168.169,-1978.8882 164.8288,-1981.8038 161.185,-1984.3106"/>
<polygon fill="#191970" stroke="#191970" points="278.7106,-1025.6725 275.6349,-1015.534 271.7168,-1025.3777 278.7106,-1025.6725"/>
</g>
<!-- Node17 -->
<g id="node3" class="node">
<title>Node17</title>
<g id="a_node3"><a xlink:href="classcx_1_1web_1_1_a_p_iv3_wrapper.html#a8471e5805c8bbf0dde0a2e17697cf218" target="_top" xlink:title=" ">
<polygon fill="none" stroke="#000000" points="12.4976,-1937.5 12.4976,-1965.5 158.5708,-1965.5 158.5708,-1937.5 12.4976,-1937.5"/>
<text text-anchor="start" x="20.4976" y="-1953.5" font-family="Helvetica,sans-Serif" font-size="10.00" fill="#000000">cx::web::APIv3Wrapper</text>
<text text-anchor="middle" x="85.5342" y="-1943.5" font-family="Helvetica,sans-Serif" font-size="10.00" fill="#000000">::getSubscriptionByMeetingId</text>
</a>
</g>
</g>
<!-- Node15&#45;&gt;Node17 -->
<g id="edge2" class="edge">
<title>Node15&#45;&gt;Node17</title>
<path fill="none" stroke="#191970" d="M275.0734,-1025.5794C268.3547,-1164.3047 231.8818,-1857.8226 171.0684,-1928.5 167.5581,-1932.5797 163.4088,-1935.9737 158.8609,-1938.7934"/>
<polygon fill="#191970" stroke="#191970" points="278.5712,-1025.7089 275.5537,-1015.5528 271.5792,-1025.3739 278.5712,-1025.7089"/>
</g>
<!-- Node18 -->
<g id="node4" class="node">
<title>Node18</title>
<g id="a_node4"><a xlink:href="classcx_1_1web_1_1_a_p_iv3_wrapper.html#a937e3d64d57196fd9185d0d4bcb06dad" target="_top" xlink:title=" ">
<polygon fill="none" stroke="#000000" points="2.771,-1890.5 2.771,-1918.5 168.2974,-1918.5 168.2974,-1890.5 2.771,-1890.5"/>
<text text-anchor="start" x="10.771" y="-1906.5" font-family="Helvetica,sans-Serif" font-size="10.00" fill="#000000">cx::web::APIv3Wrapper</text>
<text text-anchor="middle" x="85.5342" y="-1896.5" font-family="Helvetica,sans-Serif" font-size="10.00" fill="#000000">::getSubscriptionBySubscriptionId</text>
</a>
</g>
</g>
<!-- Node15&#45;&gt;Node18 -->
<g id="edge3" class="edge">
<title>Node15&#45;&gt;Node18</title>
<path fill="none" stroke="#191970" d="M274.919,-1025.6085C267.5416,-1160.1722 228.8584,-1814.7409 171.0684,-1881.5 168.1497,-1884.8716 164.7947,-1887.7745 161.1397,-1890.2716"/>
<polygon fill="#191970" stroke="#191970" points="278.4195,-1025.6923 275.4667,-1015.5173 271.4298,-1025.3129 278.4195,-1025.6923"/>
</g>
<!-- Node19 -->
<g id="node5" class="node">
<title>Node19</title>
<g id="a_node5"><a xlink:href="classcx_1_1web_1_1_a_p_iv3_wrapper.html#a5368ee4ca673b3874639566c9fb5bb81" target="_top" xlink:title=" ">
<polygon fill="none" stroke="#000000" points="4.9976,-1843.5 4.9976,-1871.5 166.0708,-1871.5 166.0708,-1843.5 4.9976,-1843.5"/>
<text text-anchor="start" x="12.9976" y="-1859.5" font-family="Helvetica,sans-Serif" font-size="10.00" fill="#000000">cx::web::APIv3Wrapper</text>
<text text-anchor="middle" x="85.5342" y="-1849.5" font-family="Helvetica,sans-Serif" font-size="10.00" fill="#000000">::getSubscriptionByAccessToken</text>
</a>
</g>
</g>
<!-- Node15&#45;&gt;Node19 -->
<g id="edge4" class="edge">
<title>Node15&#45;&gt;Node19</title>
<path fill="none" stroke="#191970" d="M274.7279,-1025.9479C266.614,-1156.8942 225.7966,-1771.7005 171.0684,-1834.5 168.1386,-1837.8619 164.7749,-1840.7573 161.1133,-1843.2486"/>
<polygon fill="#191970" stroke="#191970" points="278.2341,-1025.9528 275.3535,-1015.7571 271.2472,-1025.5238 278.2341,-1025.9528"/>
</g>
<!-- Node20 -->
<g id="node6" class="node">
<title>Node20</title>
<g id="a_node6"><a xlink:href="classcx_1_1web_1_1_a_p_iv3_wrapper.html#a76c42693230255b65a057940d6930e46" target="_top" xlink:title=" ">
<polygon fill="none" stroke="#000000" points="12.4976,-1786.5 12.4976,-1824.5 158.5708,-1824.5 158.5708,-1786.5 12.4976,-1786.5"/>
<text text-anchor="start" x="20.4976" y="-1812.5" font-family="Helvetica,sans-Serif" font-size="10.00" fill="#000000">cx::web::APIv3Wrapper</text>
<text text-anchor="start" x="20.4976" y="-1802.5" font-family="Helvetica,sans-Serif" font-size="10.00" fill="#000000">::getSubscriptionByFacebook</text>
<text text-anchor="middle" x="85.5342" y="-1792.5" font-family="Helvetica,sans-Serif" font-size="10.00" fill="#000000">Token</text>
</a>
</g>
</g>
<!-- Node15&#45;&gt;Node20 -->
<g id="edge5" class="edge">
<title>Node15&#45;&gt;Node20</title>
<path fill="none" stroke="#191970" d="M274.4407,-1025.7883C265.1678,-1150.7882 220.5866,-1718.0554 171.0684,-1777.5 167.5681,-1781.7019 163.4262,-1785.2782 158.8834,-1788.3215"/>
<polygon fill="#191970" stroke="#191970" points="277.9392,-1025.9351 275.1829,-1015.7051 270.9581,-1025.4211 277.9392,-1025.9351"/>
</g>
<!-- Node21 -->
<g id="node7" class="node">
<title>Node21</title>
<g id="a_node7"><a xlink:href="classcx_1_1web_1_1_a_p_iv3_wrapper.html#a781810ab98aa601f43ca2cabb033588c" target="_top" xlink:title=" ">
<polygon fill="none" stroke="#000000" points="25.3809,-1739.5 25.3809,-1767.5 145.6875,-1767.5 145.6875,-1739.5 25.3809,-1739.5"/>
<text text-anchor="start" x="33.3809" y="-1755.5" font-family="Helvetica,sans-Serif" font-size="10.00" fill="#000000">cx::web::APIv3Wrapper</text>
<text text-anchor="middle" x="85.5342" y="-1745.5" font-family="Helvetica,sans-Serif" font-size="10.00" fill="#000000">::refreshAccessToken</text>
</a>
</g>
</g>
<!-- Node15&#45;&gt;Node21 -->
<g id="edge6" class="edge">
<title>Node15&#45;&gt;Node21</title>
<path fill="none" stroke="#191970" d="M274.2738,-1025.8744C264.5133,-1146.537 219.1575,-1676.2938 171.0684,-1730.5 164.3331,-1738.092 155.3855,-1743.2981 145.814,-1746.8439"/>
<polygon fill="#191970" stroke="#191970" points="277.7713,-1026.0447 275.0829,-1015.7967 270.7938,-1025.4845 277.7713,-1026.0447"/>
</g>
<!-- Node22 -->
<g id="node8" class="node">
<title>Node22</title>
<g id="a_node8"><a xlink:href="classcx_1_1web_1_1_a_p_iv3_wrapper.html#aff52c5264a365d891b3367f71c005454" target="_top" xlink:title=" ">
<polygon fill="none" stroke="#000000" points="25.3809,-1692.5 25.3809,-1720.5 145.6875,-1720.5 145.6875,-1692.5 25.3809,-1692.5"/>
<text text-anchor="start" x="33.3809" y="-1708.5" font-family="Helvetica,sans-Serif" font-size="10.00" fill="#000000">cx::web::APIv3Wrapper</text>
<text text-anchor="middle" x="85.5342" y="-1698.5" font-family="Helvetica,sans-Serif" font-size="10.00" fill="#000000">::getCountryCode</text>
</a>
</g>
</g>
<!-- Node15&#45;&gt;Node22 -->
<g id="edge7" class="edge">
<title>Node15&#45;&gt;Node22</title>
<path fill="none" stroke="#191970" d="M275.8905,-1025.6836C273.9808,-1135.1732 260.7192,-1583.4295 171.0684,-1683.5 164.2963,-1691.0591 155.3309,-1696.2493 145.7531,-1699.7896"/>
<polygon fill="#191970" stroke="#191970" points="279.3909,-1025.6835 276.0498,-1015.6293 272.3918,-1025.5726 279.3909,-1025.6835"/>
</g>
<!-- Node23 -->
<g id="node9" class="node">
<title>Node23</title>
<g id="a_node9"><a xlink:href="classcx_1_1web_1_1_a_p_iv3_wrapper.html#adbcedebbaea3f0f01553f011bac146b8" target="_top" xlink:title=" ">
<polygon fill="none" stroke="#000000" points="25.3809,-1645.5 25.3809,-1673.5 145.6875,-1673.5 145.6875,-1645.5 25.3809,-1645.5"/>
<text text-anchor="start" x="33.3809" y="-1661.5" font-family="Helvetica,sans-Serif" font-size="10.00" fill="#000000">cx::web::APIv3Wrapper</text>
<text text-anchor="middle" x="85.5342" y="-1651.5" font-family="Helvetica,sans-Serif" font-size="10.00" fill="#000000">::getEquipment</text>
</a>
</g>
</g>
<!-- Node15&#45;&gt;Node23 -->
<g id="edge8" class="edge">
<title>Node15&#45;&gt;Node23</title>
<path fill="none" stroke="#191970" d="M275.5779,-1026.003C272.3929,-1131.3026 254.6755,-1544.2137 171.0684,-1636.5 164.3576,-1643.9074 155.5404,-1649.036 146.1191,-1652.5654"/>
<polygon fill="#191970" stroke="#191970" points="279.0838,-1025.844 275.8707,-1015.7482 272.0866,-1025.6442 279.0838,-1025.844"/>
</g>
<!-- Node24 -->
<g id="node10" class="node">
<title>Node24</title>
<g id="a_node10"><a xlink:href="classcx_1_1web_1_1_a_p_iv3_wrapper.html#a18f343504eb1f49e5c06221c2581340d" target="_top" xlink:title=" ">
<polygon fill="none" stroke="#000000" points="25.3809,-1598.5 25.3809,-1626.5 145.6875,-1626.5 145.6875,-1598.5 25.3809,-1598.5"/>
<text text-anchor="start" x="33.3809" y="-1614.5" font-family="Helvetica,sans-Serif" font-size="10.00" fill="#000000">cx::web::APIv3Wrapper</text>
<text text-anchor="middle" x="85.5342" y="-1604.5" font-family="Helvetica,sans-Serif" font-size="10.00" fill="#000000">::getSharedConfig</text>
</a>
</g>
</g>
<!-- Node15&#45;&gt;Node24 -->
<g id="edge9" class="edge">
<title>Node15&#45;&gt;Node24</title>
<path fill="none" stroke="#191970" d="M275.2326,-1025.7914C270.744,-1125.8506 248.7906,-1504.8098 171.0684,-1589.5 164.3101,-1596.8641 155.4696,-1601.9714 146.0398,-1605.4932"/>
<polygon fill="#191970" stroke="#191970" points="278.7317,-1025.8861 275.6658,-1015.7446 271.7382,-1025.5845 278.7317,-1025.8861"/>
</g>
<!-- Node25 -->
<g id="node11" class="node">
<title>Node25</title>
<g id="a_node11"><a xlink:href="classcx_1_1web_1_1_a_p_iv3_wrapper.html#ac795190d94caa2f3c1588660e2e21852" target="_top" xlink:title=" ">
<polygon fill="none" stroke="#000000" points="25.3809,-1551.5 25.3809,-1579.5 145.6875,-1579.5 145.6875,-1551.5 25.3809,-1551.5"/>
<text text-anchor="start" x="33.3809" y="-1567.5" font-family="Helvetica,sans-Serif" font-size="10.00" fill="#000000">cx::web::APIv3Wrapper</text>
<text text-anchor="middle" x="85.5342" y="-1557.5" font-family="Helvetica,sans-Serif" font-size="10.00" fill="#000000">::getRecording</text>
</a>
</g>
</g>
<!-- Node15&#45;&gt;Node25 -->
<g id="edge10" class="edge">
<title>Node15&#45;&gt;Node25</title>
<path fill="none" stroke="#191970" d="M274.8297,-1025.6575C268.9573,-1120.4281 242.9029,-1465.3951 171.0684,-1542.5 164.2551,-1549.8132 155.3874,-1554.8954 145.9478,-1558.4081"/>
<polygon fill="#191970" stroke="#191970" points="278.3273,-1025.8014 275.4339,-1015.6094 271.3399,-1025.3812 278.3273,-1025.8014"/>
</g>
<!-- Node26 -->
<g id="node12" class="node">
<title>Node26</title>
<g id="a_node12"><a xlink:href="classcx_1_1web_1_1_a_p_iv3_wrapper.html#a4a36f6acb9414883225408bbd14780f5" target="_top" xlink:title=" ">
<polygon fill="none" stroke="#000000" points="25.3809,-1504.5 25.3809,-1532.5 145.6875,-1532.5 145.6875,-1504.5 25.3809,-1504.5"/>
<text text-anchor="start" x="33.3809" y="-1520.5" font-family="Helvetica,sans-Serif" font-size="10.00" fill="#000000">cx::web::APIv3Wrapper</text>
<text text-anchor="middle" x="85.5342" y="-1510.5" font-family="Helvetica,sans-Serif" font-size="10.00" fill="#000000">::getWall</text>
</a>
</g>
</g>
<!-- Node15&#45;&gt;Node26 -->
<g id="edge11" class="edge">
<title>Node15&#45;&gt;Node26</title>
<path fill="none" stroke="#191970" d="M274.3291,-1025.8543C266.9407,-1115.5723 236.9549,-1426.0263 171.0684,-1495.5 164.1904,-1502.7524 155.2909,-1507.8047 145.8399,-1511.3066"/>
<polygon fill="#191970" stroke="#191970" points="277.8236,-1026.0621 275.1366,-1015.8137 270.8461,-1025.5009 277.8236,-1026.0621"/>
</g>
<!-- Node27 -->
<g id="node13" class="node">
<title>Node27</title>
<g id="a_node13"><a xlink:href="classcx_1_1web_1_1_a_p_iv3_wrapper.html#a863907ea277ee3cb2667cfb13fe435fd" target="_top" xlink:title=" ">
<polygon fill="none" stroke="#000000" points="25.3809,-1457.5 25.3809,-1485.5 145.6875,-1485.5 145.6875,-1457.5 25.3809,-1457.5"/>
<text text-anchor="start" x="33.3809" y="-1473.5" font-family="Helvetica,sans-Serif" font-size="10.00" fill="#000000">cx::web::APIv3Wrapper</text>
<text text-anchor="middle" x="85.5342" y="-1463.5" font-family="Helvetica,sans-Serif" font-size="10.00" fill="#000000">::getAccessToken</text>
</a>
</g>
</g>
<!-- Node15&#45;&gt;Node27 -->
<g id="edge12" class="edge">
<title>Node15&#45;&gt;Node27</title>
<path fill="none" stroke="#191970" d="M273.7295,-1025.9609C264.7274,-1110.2116 231.0581,-1386.5789 171.0684,-1448.5 164.1135,-1455.6787 155.1762,-1460.6948 145.7115,-1464.1836"/>
<polygon fill="#191970" stroke="#191970" points="277.2317,-1026.1218 274.793,-1015.8115 270.2699,-1025.3923 277.2317,-1026.1218"/>
</g>
<!-- Node28 -->
<g id="node14" class="node">
<title>Node28</title>
<g id="a_node14"><a xlink:href="classcx_1_1web_1_1_a_p_iv3_wrapper.html#a7a006d4c214596aa996a87d4d4a5dc3e" target="_top" xlink:title=" ">
<polygon fill="none" stroke="#000000" points="25.3809,-1410.5 25.3809,-1438.5 145.6875,-1438.5 145.6875,-1410.5 25.3809,-1410.5"/>
<text text-anchor="start" x="33.3809" y="-1426.5" font-family="Helvetica,sans-Serif" font-size="10.00" fill="#000000">cx::web::APIv3Wrapper</text>
<text text-anchor="middle" x="85.5342" y="-1416.5" font-family="Helvetica,sans-Serif" font-size="10.00" fill="#000000">::getCustomerService</text>
</a>
</g>
</g>
<!-- Node15&#45;&gt;Node28 -->
<g id="edge13" class="edge">
<title>Node15&#45;&gt;Node28</title>
<path fill="none" stroke="#191970" d="M273.0134,-1025.8935C262.3032,-1104.1603 225.235,-1347.0259 171.0684,-1401.5 164.1292,-1408.4786 155.3137,-1413.4054 145.9938,-1416.8701"/>
<polygon fill="#191970" stroke="#191970" points="276.536,-1025.9598 274.4013,-1015.5823 269.5985,-1025.026 276.536,-1025.9598"/>
</g>
<!-- Node29 -->
<g id="node15" class="node">
<title>Node29</title>
<g id="a_node15"><a xlink:href="classcx_1_1web_1_1_a_p_iv3_wrapper.html#a7c2dd0f34498cf2bb5432a3c68112bba" target="_top" xlink:title=" ">
<polygon fill="none" stroke="#000000" points="25.3809,-1363.5 25.3809,-1391.5 145.6875,-1391.5 145.6875,-1363.5 25.3809,-1363.5"/>
<text text-anchor="start" x="33.3809" y="-1379.5" font-family="Helvetica,sans-Serif" font-size="10.00" fill="#000000">cx::web::APIv3Wrapper</text>
<text text-anchor="middle" x="85.5342" y="-1369.5" font-family="Helvetica,sans-Serif" font-size="10.00" fill="#000000">::getUser</text>
</a>
</g>
</g>
<!-- Node15&#45;&gt;Node29 -->
<g id="edge14" class="edge">
<title>Node15&#45;&gt;Node29</title>
<path fill="none" stroke="#191970" d="M272.1938,-1025.377C259.7256,-1096.8871 219.5514,-1307.2984 171.0684,-1354.5 164.0169,-1361.3651 155.1453,-1366.2352 145.8043,-1369.6786"/>
<polygon fill="#191970" stroke="#191970" points="275.6463,-1025.9517 273.8923,-1015.5031 268.7476,-1024.765 275.6463,-1025.9517"/>
</g>
<!-- Node30 -->
<g id="node16" class="node">
<title>Node30</title>
<g id="a_node16"><a xlink:href="classcx_1_1web_1_1_a_p_iv3_wrapper.html#a28aba70474689688512404b7f5673fd9" target="_top" xlink:title=" ">
<polygon fill="none" stroke="#000000" points="25.3809,-1316.5 25.3809,-1344.5 145.6875,-1344.5 145.6875,-1316.5 25.3809,-1316.5"/>
<text text-anchor="start" x="33.3809" y="-1332.5" font-family="Helvetica,sans-Serif" font-size="10.00" fill="#000000">cx::web::APIv3Wrapper</text>
<text text-anchor="middle" x="85.5342" y="-1322.5" font-family="Helvetica,sans-Serif" font-size="10.00" fill="#000000">::getInvitationText</text>
</a>
</g>
</g>
<!-- Node15&#45;&gt;Node30 -->
<g id="edge15" class="edge">
<title>Node15&#45;&gt;Node30</title>
<path fill="none" stroke="#191970" d="M275.2398,-1025.8343C271.5985,-1083.582 254.2,-1229.8576 171.0684,-1307.5 163.9884,-1314.1124 155.213,-1318.8633 146.0054,-1322.2682"/>
<polygon fill="#191970" stroke="#191970" points="278.7529,-1025.6867 275.8001,-1015.5117 271.7632,-1025.3073 278.7529,-1025.6867"/>
</g>
<!-- Node31 -->
<g id="node17" class="node">
<title>Node31</title>
<g id="a_node17"><a xlink:href="classcx_1_1web_1_1_a_p_iv3_wrapper.html#ab108956a5ec8d0331fce4e35a2f60674" target="_top" xlink:title=" ">
<polygon fill="none" stroke="#000000" points="25.3809,-1269.5 25.3809,-1297.5 145.6875,-1297.5 145.6875,-1269.5 25.3809,-1269.5"/>
<text text-anchor="start" x="33.3809" y="-1285.5" font-family="Helvetica,sans-Serif" font-size="10.00" fill="#000000">cx::web::APIv3Wrapper</text>
<text text-anchor="middle" x="85.5342" y="-1275.5" font-family="Helvetica,sans-Serif" font-size="10.00" fill="#000000">::updateSubscription</text>
</a>
</g>
</g>
<!-- Node15&#45;&gt;Node31 -->
<g id="edge16" class="edge">
<title>Node15&#45;&gt;Node31</title>
<path fill="none" stroke="#191970" d="M273.4924,-1025.9422C266.4634,-1077.3238 242.878,-1197.0161 171.0684,-1260.5 163.8104,-1266.9165 154.9445,-1271.5678 145.7018,-1274.9341"/>
<polygon fill="#191970" stroke="#191970" points="276.9946,-1026.1461 274.7848,-1015.7843 270.0506,-1025.2626 276.9946,-1026.1461"/>
</g>
<!-- Node32 -->
<g id="node18" class="node">
<title>Node32</title>
<g id="a_node18"><a xlink:href="classcx_1_1web_1_1_a_p_iv3_wrapper.html#a55232aed215cb4059828f3c4f9ce7916" target="_top" xlink:title=" ">
<polygon fill="none" stroke="#000000" points="25.3809,-1222.5 25.3809,-1250.5 145.6875,-1250.5 145.6875,-1222.5 25.3809,-1222.5"/>
<text text-anchor="start" x="33.3809" y="-1238.5" font-family="Helvetica,sans-Serif" font-size="10.00" fill="#000000">cx::web::APIv3Wrapper</text>
<text text-anchor="middle" x="85.5342" y="-1228.5" font-family="Helvetica,sans-Serif" font-size="10.00" fill="#000000">::getShortURL</text>
</a>
</g>
</g>
<!-- Node15&#45;&gt;Node32 -->
<g id="edge17" class="edge">
<title>Node15&#45;&gt;Node32</title>
<path fill="none" stroke="#191970" d="M271.1649,-1025.4606C260.6197,-1069.5503 231.9794,-1163.5801 171.0684,-1213.5 163.6945,-1219.5433 154.8754,-1224.0084 145.7436,-1227.3053"/>
<polygon fill="#191970" stroke="#191970" points="274.5966,-1026.1544 273.4123,-1015.626 267.7725,-1024.595 274.5966,-1026.1544"/>
</g>
<!-- Node33 -->
<g id="node19" class="node">
<title>Node33</title>
<g id="a_node19"><a xlink:href="classcx_1_1web_1_1_a_p_iv3_wrapper.html#a63bae5b1b93b996521a2d1f8a7df86c1" target="_top" xlink:title=" ">
<polygon fill="none" stroke="#000000" points="25.3809,-1175.5 25.3809,-1203.5 145.6875,-1203.5 145.6875,-1175.5 25.3809,-1175.5"/>
<text text-anchor="start" x="33.3809" y="-1191.5" font-family="Helvetica,sans-Serif" font-size="10.00" fill="#000000">cx::web::APIv3Wrapper</text>
<text text-anchor="middle" x="85.5342" y="-1181.5" font-family="Helvetica,sans-Serif" font-size="10.00" fill="#000000">::postVote</text>
</a>
</g>
</g>
<!-- Node15&#45;&gt;Node33 -->
<g id="edge18" class="edge">
<title>Node15&#45;&gt;Node33</title>
<path fill="none" stroke="#191970" d="M267.4286,-1025.7034C253.0315,-1061.9357 220.9163,-1129.9192 171.0684,-1166.5 163.6301,-1171.9586 154.9799,-1176.1219 146.0946,-1179.2972"/>
<polygon fill="#191970" stroke="#191970" points="270.8519,-1026.5524 271.1742,-1015.9625 264.3183,-1024.0401 270.8519,-1026.5524"/>
</g>
<!-- Node34 -->
<g id="node20" class="node">
<title>Node34</title>
<g id="a_node20"><a xlink:href="classcx_1_1web_1_1_a_p_iv3_wrapper.html#a17fc26dfd4b3f549035137650c770fb9" target="_top" xlink:title=" ">
<polygon fill="none" stroke="#000000" points="25.3809,-1128.5 25.3809,-1156.5 145.6875,-1156.5 145.6875,-1128.5 25.3809,-1128.5"/>
<text text-anchor="start" x="33.3809" y="-1144.5" font-family="Helvetica,sans-Serif" font-size="10.00" fill="#000000">cx::web::APIv3Wrapper</text>
<text text-anchor="middle" x="85.5342" y="-1134.5" font-family="Helvetica,sans-Serif" font-size="10.00" fill="#000000">::getConference</text>
</a>
</g>
</g>
<!-- Node15&#45;&gt;Node34 -->
<g id="edge19" class="edge">
<title>Node15&#45;&gt;Node34</title>
<path fill="none" stroke="#191970" d="M262.0078,-1024.2291C244.0864,-1051.0283 210.7555,-1095.0124 171.0684,-1119.5 163.3473,-1124.264 154.6419,-1128.0538 145.8161,-1131.0653"/>
<polygon fill="#191970" stroke="#191970" points="265.1533,-1025.8136 267.6894,-1015.5267 259.2919,-1021.9868 265.1533,-1025.8136"/>
</g>
<!-- Node35 -->
<g id="node21" class="node">
<title>Node35</title>
<g id="a_node21"><a xlink:href="classcx_1_1web_1_1_a_p_iv3_wrapper.html#aac6bfa4ded9f356944533fd4915c9cf4" target="_top" xlink:title=" ">
<polygon fill="none" stroke="#000000" points="25.3809,-1081.5 25.3809,-1109.5 145.6875,-1109.5 145.6875,-1081.5 25.3809,-1081.5"/>
<text text-anchor="start" x="33.3809" y="-1097.5" font-family="Helvetica,sans-Serif" font-size="10.00" fill="#000000">cx::web::APIv3Wrapper</text>
<text text-anchor="middle" x="85.5342" y="-1087.5" font-family="Helvetica,sans-Serif" font-size="10.00" fill="#000000">::getConferenceList</text>
</a>
</g>
</g>
<!-- Node15&#45;&gt;Node35 -->
<g id="edge20" class="edge">
<title>Node15&#45;&gt;Node35</title>
<path fill="none" stroke="#191970" d="M251.1794,-1021.9118C230.7226,-1037.7027 200.4756,-1059.0727 171.0684,-1072.5 163.0952,-1076.1405 154.4321,-1079.3001 145.7817,-1082.0125"/>
<polygon fill="#191970" stroke="#191970" points="253.3419,-1024.664 259.0496,-1015.738 249.0213,-1019.1564 253.3419,-1024.664"/>
</g>
<!-- Node36 -->
<g id="node22" class="node">
<title>Node36</title>
<g id="a_node22"><a xlink:href="classcx_1_1web_1_1_a_p_iv3_wrapper.html#a6381ebf52cbeff37e6a4c0a103117f0c" target="_top" xlink:title=" ">
<polygon fill="none" stroke="#000000" points="21.394,-1034.5 21.394,-1062.5 149.6743,-1062.5 149.6743,-1034.5 21.394,-1034.5"/>
<text text-anchor="start" x="29.394" y="-1050.5" font-family="Helvetica,sans-Serif" font-size="10.00" fill="#000000">cx::web::APIv3Wrapper</text>
<text text-anchor="middle" x="85.5342" y="-1040.5" font-family="Helvetica,sans-Serif" font-size="10.00" fill="#000000">::getBroadcastResources</text>
</a>
</g>
</g>
<!-- Node15&#45;&gt;Node36 -->
<g id="edge21" class="edge">
<title>Node15&#45;&gt;Node36</title>
<path fill="none" stroke="#191970" d="M209.4003,-1017.967C187.5752,-1023.3469 163.5526,-1029.2685 142.5188,-1034.4533"/>
<polygon fill="#191970" stroke="#191970" points="210.3831,-1021.3296 219.2548,-1015.5379 208.7077,-1014.533 210.3831,-1021.3296"/>
</g>
<!-- Node37 -->
<g id="node23" class="node">
<title>Node37</title>
<g id="a_node23"><a xlink:href="classcx_1_1web_1_1_a_p_iv4_wrapper.html#aca3eba69de69a861751bf1a1b1578d10" target="_top" xlink:title=" ">
<polygon fill="none" stroke="#000000" points="25.3809,-987.5 25.3809,-1015.5 145.6875,-1015.5 145.6875,-987.5 25.3809,-987.5"/>
<text text-anchor="start" x="33.3809" y="-1003.5" font-family="Helvetica,sans-Serif" font-size="10.00" fill="#000000">cx::web::APIv4Wrapper</text>
<text text-anchor="middle" x="85.5342" y="-993.5" font-family="Helvetica,sans-Serif" font-size="10.00" fill="#000000">::upgradeAccessToken</text>
</a>
</g>
</g>
<!-- Node15&#45;&gt;Node37 -->
<g id="edge22" class="edge">
<title>Node15&#45;&gt;Node37</title>
<path fill="none" stroke="#191970" d="M196.3798,-1001.5C179.4276,-1001.5 161.803,-1001.5 145.7282,-1001.5"/>
<polygon fill="#191970" stroke="#191970" points="196.8282,-1005.0001 206.8282,-1001.5 196.8282,-998.0001 196.8282,-1005.0001"/>
</g>
<!-- Node38 -->
<g id="node24" class="node">
<title>Node38</title>
<g id="a_node24"><a xlink:href="classcx_1_1web_1_1_a_p_iv4_wrapper.html#a7f54365c179e1bb46f46a667b661e583" target="_top" xlink:title=" ">
<polygon fill="none" stroke="#000000" points="18.0566,-940.5 18.0566,-968.5 153.0117,-968.5 153.0117,-940.5 18.0566,-940.5"/>
<text text-anchor="start" x="26.0566" y="-956.5" font-family="Helvetica,sans-Serif" font-size="10.00" fill="#000000">cx::web::APIv4Wrapper</text>
<text text-anchor="middle" x="85.5342" y="-946.5" font-family="Helvetica,sans-Serif" font-size="10.00" fill="#000000">::authorizeByCodeScheme</text>
</a>
</g>
</g>
<!-- Node15&#45;&gt;Node38 -->
<g id="edge23" class="edge">
<title>Node15&#45;&gt;Node38</title>
<path fill="none" stroke="#191970" d="M209.4003,-985.033C187.5752,-979.6531 163.5526,-973.7315 142.5188,-968.5467"/>
<polygon fill="#191970" stroke="#191970" points="208.7077,-988.467 219.2548,-987.4621 210.3831,-981.6704 208.7077,-988.467"/>
</g>
<!-- Node39 -->
<g id="node25" class="node">
<title>Node39</title>
<g id="a_node25"><a xlink:href="classcx_1_1web_1_1_a_p_iv4_wrapper.html#a430faef7ea068869c9d248874c3a3558" target="_top" xlink:title=" ">
<polygon fill="none" stroke="#000000" points="25.3809,-893.5 25.3809,-921.5 145.6875,-921.5 145.6875,-893.5 25.3809,-893.5"/>
<text text-anchor="start" x="33.3809" y="-909.5" font-family="Helvetica,sans-Serif" font-size="10.00" fill="#000000">cx::web::APIv4Wrapper</text>
<text text-anchor="middle" x="85.5342" y="-899.5" font-family="Helvetica,sans-Serif" font-size="10.00" fill="#000000">::authorizeByPassword</text>
</a>
</g>
</g>
<!-- Node15&#45;&gt;Node39 -->
<g id="edge24" class="edge">
<title>Node15&#45;&gt;Node39</title>
<path fill="none" stroke="#191970" d="M250.4499,-980.9953C229.958,-965.535 200.0133,-944.7916 171.0684,-931.5 162.7989,-927.7026 153.7979,-924.3808 144.8419,-921.5171"/>
<polygon fill="#191970" stroke="#191970" points="248.5571,-983.9544 258.6229,-987.2605 252.8159,-978.3988 248.5571,-983.9544"/>
</g>
<!-- Node40 -->
<g id="node26" class="node">
<title>Node40</title>
<g id="a_node26"><a xlink:href="classcx_1_1web_1_1_a_p_iv4_wrapper.html#a75c8c2f89d44e6ff2f0528445810c1be" target="_top" xlink:title=" ">
<polygon fill="none" stroke="#000000" points="25.3809,-846.5 25.3809,-874.5 145.6875,-874.5 145.6875,-846.5 25.3809,-846.5"/>
<text text-anchor="start" x="33.3809" y="-862.5" font-family="Helvetica,sans-Serif" font-size="10.00" fill="#000000">cx::web::APIv4Wrapper</text>
<text text-anchor="middle" x="85.5342" y="-852.5" font-family="Helvetica,sans-Serif" font-size="10.00" fill="#000000">::refreshAccessToken</text>
</a>
</g>
</g>
<!-- Node15&#45;&gt;Node40 -->
<g id="edge25" class="edge">
<title>Node15&#45;&gt;Node40</title>
<path fill="none" stroke="#191970" d="M261.6313,-978.6193C243.5541,-952.0836 210.2797,-908.8742 171.0684,-884.5 163.3401,-879.696 154.6309,-875.8316 145.8033,-872.7289"/>
<polygon fill="#191970" stroke="#191970" points="258.9222,-980.866 267.3764,-987.2517 264.7496,-976.9877 258.9222,-980.866"/>
</g>
<!-- Node41 -->
<g id="node27" class="node">
<title>Node41</title>
<g id="a_node27"><a xlink:href="classcx_1_1web_1_1_a_p_iv4_wrapper.html#a861901f3aa0ba18263111d52b3bb413f" target="_top" xlink:title=" ">
<polygon fill="none" stroke="#000000" points="25.3809,-799.5 25.3809,-827.5 145.6875,-827.5 145.6875,-799.5 25.3809,-799.5"/>
<text text-anchor="start" x="33.3809" y="-815.5" font-family="Helvetica,sans-Serif" font-size="10.00" fill="#000000">cx::web::APIv4Wrapper</text>
<text text-anchor="middle" x="85.5342" y="-805.5" font-family="Helvetica,sans-Serif" font-size="10.00" fill="#000000">::getSubscription</text>
</a>
</g>
</g>
<!-- Node15&#45;&gt;Node41 -->
<g id="edge26" class="edge">
<title>Node15&#45;&gt;Node41</title>
<path fill="none" stroke="#191970" d="M267.3378,-977.5098C252.8218,-941.5838 220.5534,-874.1243 171.0684,-837.5 163.6301,-831.9949 154.9799,-827.7519 146.0946,-824.4819"/>
<polygon fill="#191970" stroke="#191970" points="264.2134,-979.1302 271.117,-987.167 270.732,-976.5791 264.2134,-979.1302"/>
</g>
<!-- Node42 -->
<g id="node28" class="node">
<title>Node42</title>
<g id="a_node28"><a xlink:href="classcx_1_1web_1_1_a_p_iv4_wrapper.html#ab3d072c887b360689b60f66ab37beffa" target="_top" xlink:title=" ">
<polygon fill="none" stroke="#000000" points="10.2808,-752.5 10.2808,-780.5 160.7876,-780.5 160.7876,-752.5 10.2808,-752.5"/>
<text text-anchor="start" x="18.2808" y="-768.5" font-family="Helvetica,sans-Serif" font-size="10.00" fill="#000000">cx::web::APIv4Wrapper</text>
<text text-anchor="middle" x="85.5342" y="-758.5" font-family="Helvetica,sans-Serif" font-size="10.00" fill="#000000">::getSubscriptionByMeetingUrl</text>
</a>
</g>
</g>
<!-- Node15&#45;&gt;Node42 -->
<g id="edge27" class="edge">
<title>Node15&#45;&gt;Node42</title>
<path fill="none" stroke="#191970" d="M271.0789,-977.7127C260.3914,-933.9309 231.5248,-840.5031 171.0684,-790.5 166.3144,-786.5681 160.9579,-783.2789 155.3031,-780.5277"/>
<polygon fill="#191970" stroke="#191970" points="267.6768,-978.5357 273.3593,-987.4778 274.4934,-976.9438 267.6768,-978.5357"/>
</g>
<!-- Node43 -->
<g id="node29" class="node">
<title>Node43</title>
<g id="a_node29"><a xlink:href="classcx_1_1web_1_1_a_p_iv4_wrapper.html#afbe71cd5cc51519e2936c5db4ff14c48" target="_top" xlink:title=" ">
<polygon fill="none" stroke="#000000" points="25.3809,-705.5 25.3809,-733.5 145.6875,-733.5 145.6875,-705.5 25.3809,-705.5"/>
<text text-anchor="start" x="33.3809" y="-721.5" font-family="Helvetica,sans-Serif" font-size="10.00" fill="#000000">cx::web::APIv4Wrapper</text>
<text text-anchor="middle" x="85.5342" y="-711.5" font-family="Helvetica,sans-Serif" font-size="10.00" fill="#000000">::updateSubscription</text>
</a>
</g>
</g>
<!-- Node15&#45;&gt;Node43 -->
<g id="edge28" class="edge">
<title>Node15&#45;&gt;Node43</title>
<path fill="none" stroke="#191970" d="M273.4079,-977.2108C266.2167,-926.1402 242.338,-807.1135 171.0684,-743.5 163.8194,-737.0297 154.9581,-732.2906 145.7171,-728.8223"/>
<polygon fill="#191970" stroke="#191970" points="269.9613,-977.8472 274.7334,-987.3065 276.9017,-976.9359 269.9613,-977.8472"/>
</g>
<!-- Node44 -->
<g id="node30" class="node">
<title>Node44</title>
<g id="a_node30"><a xlink:href="classcx_1_1web_1_1_a_p_iv4_wrapper.html#a3796cc217f84991f740df0ccdf6cb1b2" target="_top" xlink:title=" ">
<polygon fill="none" stroke="#000000" points="25.3809,-658.5 25.3809,-686.5 145.6875,-686.5 145.6875,-658.5 25.3809,-658.5"/>
<text text-anchor="start" x="33.3809" y="-674.5" font-family="Helvetica,sans-Serif" font-size="10.00" fill="#000000">cx::web::APIv4Wrapper</text>
<text text-anchor="middle" x="85.5342" y="-664.5" font-family="Helvetica,sans-Serif" font-size="10.00" fill="#000000">::getConference</text>
</a>
</g>
</g>
<!-- Node15&#45;&gt;Node44 -->
<g id="edge29" class="edge">
<title>Node15&#45;&gt;Node44</title>
<path fill="none" stroke="#191970" d="M275.1311,-976.9019C271.2544,-919.1945 253.3833,-774.1432 171.0684,-696.5 164,-689.8328 155.2305,-684.9937 146.0252,-681.4866"/>
<polygon fill="#191970" stroke="#191970" points="271.6573,-977.4542 275.7348,-987.233 278.6454,-977.0458 271.6573,-977.4542"/>
</g>
<!-- Node45 -->
<g id="node31" class="node">
<title>Node45</title>
<g id="a_node31"><a xlink:href="classcx_1_1web_1_1_a_p_iv4_wrapper.html#aab0e491e77980faac66e160628ee1aa3" target="_top" xlink:title=" ">
<polygon fill="none" stroke="#000000" points="25.3809,-611.5 25.3809,-639.5 145.6875,-639.5 145.6875,-611.5 25.3809,-611.5"/>
<text text-anchor="start" x="33.3809" y="-627.5" font-family="Helvetica,sans-Serif" font-size="10.00" fill="#000000">cx::web::APIv4Wrapper</text>
<text text-anchor="middle" x="85.5342" y="-617.5" font-family="Helvetica,sans-Serif" font-size="10.00" fill="#000000">::getConferenceList</text>
</a>
</g>
</g>
<!-- Node15&#45;&gt;Node45 -->
<g id="edge30" class="edge">
<title>Node15&#45;&gt;Node45</title>
<path fill="none" stroke="#191970" d="M272.0759,-977.2312C259.4177,-905.5299 219.0789,-696.7159 171.0684,-649.5 164.0306,-642.5788 155.1659,-637.6181 145.8275,-634.0704"/>
<polygon fill="#191970" stroke="#191970" points="268.6393,-977.8982 273.8037,-987.1491 275.5354,-976.6968 268.6393,-977.8982"/>
</g>
<!-- Node46 -->
<g id="node32" class="node">
<title>Node46</title>
<g id="a_node32"><a xlink:href="classcx_1_1web_1_1_a_p_iv4_wrapper.html#a885460acea095b613b0a06be46d60418" target="_top" xlink:title=" ">
<polygon fill="none" stroke="#000000" points="25.3809,-564.5 25.3809,-592.5 145.6875,-592.5 145.6875,-564.5 25.3809,-564.5"/>
<text text-anchor="start" x="33.3809" y="-580.5" font-family="Helvetica,sans-Serif" font-size="10.00" fill="#000000">cx::web::APIv4Wrapper</text>
<text text-anchor="middle" x="85.5342" y="-570.5" font-family="Helvetica,sans-Serif" font-size="10.00" fill="#000000">::getRecording</text>
</a>
</g>
</g>
<!-- Node15&#45;&gt;Node46 -->
<g id="edge31" class="edge">
<title>Node15&#45;&gt;Node46</title>
<path fill="none" stroke="#191970" d="M272.9806,-977.1906C262.1699,-899.1899 224.829,-657.1231 171.0684,-602.5 164.1444,-595.465 155.3365,-590.4474 146.0194,-586.8784"/>
<polygon fill="#191970" stroke="#191970" points="269.5628,-978.0312 274.3819,-987.4665 276.4986,-977.0853 269.5628,-978.0312"/>
</g>
<!-- Node47 -->
<g id="node33" class="node">
<title>Node47</title>
<g id="a_node33"><a xlink:href="classcx_1_1web_1_1_a_p_iv4_wrapper.html#a114541ad0fc91435bb04becad187c65a" target="_top" xlink:title=" ">
<polygon fill="none" stroke="#000000" points="25.3809,-517.5 25.3809,-545.5 145.6875,-545.5 145.6875,-517.5 25.3809,-517.5"/>
<text text-anchor="start" x="33.3809" y="-533.5" font-family="Helvetica,sans-Serif" font-size="10.00" fill="#000000">cx::web::APIv4Wrapper</text>
<text text-anchor="middle" x="85.5342" y="-523.5" font-family="Helvetica,sans-Serif" font-size="10.00" fill="#000000">::getCountryCode</text>
</a>
</g>
</g>
<!-- Node15&#45;&gt;Node47 -->
<g id="edge32" class="edge">
<title>Node15&#45;&gt;Node47</title>
<path fill="none" stroke="#191970" d="M273.6972,-977.1167C264.5883,-893.1299 230.6097,-617.5994 171.0684,-555.5 164.1302,-548.2637 155.201,-543.1549 145.7393,-539.5597"/>
<polygon fill="#191970" stroke="#191970" points="270.2352,-977.6607 274.7737,-987.2342 277.1959,-976.9199 270.2352,-977.6607"/>
</g>
<!-- Node48 -->
<g id="node34" class="node">
<title>Node48</title>
<g id="a_node34"><a xlink:href="classcx_1_1web_1_1_a_p_iv4_wrapper.html#aaf4ef0c862d2fa637cb02155df1fb77c" target="_top" xlink:title=" ">
<polygon fill="none" stroke="#000000" points="25.3809,-470.5 25.3809,-498.5 145.6875,-498.5 145.6875,-470.5 25.3809,-470.5"/>
<text text-anchor="start" x="33.3809" y="-486.5" font-family="Helvetica,sans-Serif" font-size="10.00" fill="#000000">cx::web::APIv4Wrapper</text>
<text text-anchor="middle" x="85.5342" y="-476.5" font-family="Helvetica,sans-Serif" font-size="10.00" fill="#000000">::getEquipment</text>
</a>
</g>
</g>
<!-- Node15&#45;&gt;Node48 -->
<g id="edge33" class="edge">
<title>Node15&#45;&gt;Node48</title>
<path fill="none" stroke="#191970" d="M274.2973,-977.2176C266.7964,-887.7611 236.4639,-578.1821 171.0684,-508.5 164.208,-501.1899 155.3171,-496.0448 145.8692,-492.4364"/>
<polygon fill="#191970" stroke="#191970" points="270.8125,-977.5481 275.1176,-987.2288 277.7891,-976.9763 270.8125,-977.5481"/>
</g>
<!-- Node49 -->
<g id="node35" class="node">
<title>Node49</title>
<g id="a_node35"><a xlink:href="classcx_1_1web_1_1_a_p_iv4_wrapper.html#adfbfd6d2b8e14140e57a36db7540a58c" target="_top" xlink:title=" ">
<polygon fill="none" stroke="#000000" points="25.3809,-423.5 25.3809,-451.5 145.6875,-451.5 145.6875,-423.5 25.3809,-423.5"/>
<text text-anchor="start" x="33.3809" y="-439.5" font-family="Helvetica,sans-Serif" font-size="10.00" fill="#000000">cx::web::APIv4Wrapper</text>
<text text-anchor="middle" x="85.5342" y="-429.5" font-family="Helvetica,sans-Serif" font-size="10.00" fill="#000000">::getEquipmentById</text>
</a>
</g>
</g>
<!-- Node15&#45;&gt;Node49 -->
<g id="edge34" class="edge">
<title>Node15&#45;&gt;Node49</title>
<path fill="none" stroke="#191970" d="M274.7985,-977.4094C268.8083,-882.8982 242.3689,-538.8438 171.0684,-461.5 164.2734,-454.1291 155.4147,-448.954 145.9784,-445.3348"/>
<polygon fill="#191970" stroke="#191970" points="271.3075,-977.6639 275.4154,-987.43 278.2943,-977.2338 271.3075,-977.6639"/>
</g>
<!-- Node50 -->
<g id="node36" class="node">
<title>Node50</title>
<g id="a_node36"><a xlink:href="classcx_1_1web_1_1_a_p_iv4_wrapper.html#a20901dedc0423b6818ce1ccdb7adf631" target="_top" xlink:title=" ">
<polygon fill="none" stroke="#000000" points="5.8252,-376.5 5.8252,-404.5 165.2432,-404.5 165.2432,-376.5 5.8252,-376.5"/>
<text text-anchor="start" x="13.8252" y="-392.5" font-family="Helvetica,sans-Serif" font-size="10.00" fill="#000000">cx::web::APIv4Wrapper</text>
<text text-anchor="middle" x="85.5342" y="-382.5" font-family="Helvetica,sans-Serif" font-size="10.00" fill="#000000">::getEquipmentByPhoneNumber</text>
</a>
</g>
</g>
<!-- Node15&#45;&gt;Node50 -->
<g id="edge35" class="edge">
<title>Node15&#45;&gt;Node50</title>
<path fill="none" stroke="#191970" d="M275.2015,-977.2722C270.5896,-877.4717 248.2143,-499.4597 171.0684,-414.5 167.5432,-410.6178 163.4457,-407.3435 158.99,-404.584"/>
<polygon fill="#191970" stroke="#191970" points="271.7063,-977.4583 275.6473,-987.2929 278.6993,-977.1472 271.7063,-977.4583"/>
</g>
<!-- Node51 -->
<g id="node37" class="node">
<title>Node51</title>
<g id="a_node37"><a xlink:href="classcx_1_1web_1_1_a_p_iv4_wrapper.html#a021425035eac0e8f519203890a3f8a0d" target="_top" xlink:title=" ">
<polygon fill="none" stroke="#000000" points="25.3809,-329.5 25.3809,-357.5 145.6875,-357.5 145.6875,-329.5 25.3809,-329.5"/>
<text text-anchor="start" x="33.3809" y="-345.5" font-family="Helvetica,sans-Serif" font-size="10.00" fill="#000000">cx::web::APIv4Wrapper</text>
<text text-anchor="middle" x="85.5342" y="-335.5" font-family="Helvetica,sans-Serif" font-size="10.00" fill="#000000">::getSharedConfig</text>
</a>
</g>
</g>
<!-- Node15&#45;&gt;Node51 -->
<g id="edge36" class="edge">
<title>Node15&#45;&gt;Node51</title>
<path fill="none" stroke="#191970" d="M275.5469,-977.0579C272.2329,-872.0172 254.0571,-460.0866 171.0684,-367.5 164.2741,-359.92 155.298,-354.6532 145.7165,-351.0107"/>
<polygon fill="#191970" stroke="#191970" points="272.0553,-977.3964 275.8523,-987.2875 279.0522,-977.1874 272.0553,-977.3964"/>
</g>
<!-- Node52 -->
<g id="node38" class="node">
<title>Node52</title>
<g id="a_node38"><a xlink:href="classcx_1_1web_1_1_a_p_iv4_wrapper.html#ac59e4af6aec174ac5de643c1a0e97a1a" target="_top" xlink:title=" ">
<polygon fill="none" stroke="#000000" points="25.3809,-282.5 25.3809,-310.5 145.6875,-310.5 145.6875,-282.5 25.3809,-282.5"/>
<text text-anchor="start" x="33.3809" y="-298.5" font-family="Helvetica,sans-Serif" font-size="10.00" fill="#000000">cx::web::APIv4Wrapper</text>
<text text-anchor="middle" x="85.5342" y="-288.5" font-family="Helvetica,sans-Serif" font-size="10.00" fill="#000000">::getWall</text>
</a>
</g>
</g>
<!-- Node15&#45;&gt;Node52 -->
<g id="edge37" class="edge">
<title>Node15&#45;&gt;Node52</title>
<path fill="none" stroke="#191970" d="M275.8601,-977.3739C273.8169,-868.1413 260.0574,-420.9024 171.0684,-320.5 164.3165,-312.8822 155.3609,-307.5971 145.7865,-303.9483"/>
<polygon fill="#191970" stroke="#191970" points="272.3611,-977.4658 276.0317,-987.4044 279.36,-977.346 272.3611,-977.4658"/>
</g>
<!-- Node53 -->
<g id="node39" class="node">
<title>Node53</title>
<g id="a_node39"><a xlink:href="classcx_1_1web_1_1_a_p_iv4_wrapper.html#a8313a653fa7de0c66348ed08f53dc359" target="_top" xlink:title=" ">
<polygon fill="none" stroke="#000000" points="25.3809,-235.5 25.3809,-263.5 145.6875,-263.5 145.6875,-235.5 25.3809,-235.5"/>
<text text-anchor="start" x="33.3809" y="-251.5" font-family="Helvetica,sans-Serif" font-size="10.00" fill="#000000">cx::web::APIv4Wrapper</text>
<text text-anchor="middle" x="85.5342" y="-241.5" font-family="Helvetica,sans-Serif" font-size="10.00" fill="#000000">::getShortUrl</text>
</a>
</g>
</g>
<!-- Node15&#45;&gt;Node53 -->
<g id="edge38" class="edge">
<title>Node15&#45;&gt;Node53</title>
<path fill="none" stroke="#191970" d="M274.2599,-977.1692C264.4322,-856.7209 218.8032,-327.889 171.0684,-273.5 164.3537,-265.8494 155.4161,-260.5484 145.848,-256.894"/>
<polygon fill="#191970" stroke="#191970" points="270.7787,-977.5441 275.0746,-987.2289 277.7559,-976.979 270.7787,-977.5441"/>
</g>
<!-- Node54 -->
<g id="node40" class="node">
<title>Node54</title>
<g id="a_node40"><a xlink:href="classcx_1_1web_1_1_a_p_iv4_wrapper.html#ad7964c9a692bacff52983dd3b01f9044" target="_top" xlink:title=" ">
<polygon fill="none" stroke="#000000" points="25.3809,-188.5 25.3809,-216.5 145.6875,-216.5 145.6875,-188.5 25.3809,-188.5"/>
<text text-anchor="start" x="33.3809" y="-204.5" font-family="Helvetica,sans-Serif" font-size="10.00" fill="#000000">cx::web::APIv4Wrapper</text>
<text text-anchor="middle" x="85.5342" y="-194.5" font-family="Helvetica,sans-Serif" font-size="10.00" fill="#000000">::getInvitationText</text>
</a>
</g>
</g>
<!-- Node15&#45;&gt;Node54 -->
<g id="edge39" class="edge">
<title>Node15&#45;&gt;Node54</title>
<path fill="none" stroke="#191970" d="M274.4849,-977.2034C265.4341,-852.1659 221.7882,-284.7931 171.0684,-226.5 164.3867,-218.8206 155.465,-213.5057 145.9024,-209.8465"/>
<polygon fill="#191970" stroke="#191970" points="271.0019,-977.5662 275.2091,-987.2898 277.9839,-977.0648 271.0019,-977.5662"/>
</g>
<!-- Node55 -->
<g id="node41" class="node">
<title>Node55</title>
<g id="a_node41"><a xlink:href="classcx_1_1web_1_1_a_p_iv4_wrapper.html#a5688245ea9bf0f238ef02c99dcc8490c" target="_top" xlink:title=" ">
<polygon fill="none" stroke="#000000" points="25.3809,-141.5 25.3809,-169.5 145.6875,-169.5 145.6875,-141.5 25.3809,-141.5"/>
<text text-anchor="start" x="33.3809" y="-157.5" font-family="Helvetica,sans-Serif" font-size="10.00" fill="#000000">cx::web::APIv4Wrapper</text>
<text text-anchor="middle" x="85.5342" y="-147.5" font-family="Helvetica,sans-Serif" font-size="10.00" fill="#000000">::getUser</text>
</a>
</g>
</g>
<!-- Node15&#45;&gt;Node55 -->
<g id="edge40" class="edge">
<title>Node15&#45;&gt;Node55</title>
<path fill="none" stroke="#191970" d="M274.6936,-977.3839C266.4004,-848.2138 224.7993,-241.7314 171.0684,-179.5 164.416,-171.7952 155.5085,-166.468 145.9509,-162.8045"/>
<polygon fill="#191970" stroke="#191970" points="271.2052,-977.679 275.3333,-987.4365 278.191,-977.2344 271.2052,-977.679"/>
</g>
<!-- Node56 -->
<g id="node42" class="node">
<title>Node56</title>
<g id="a_node42"><a xlink:href="classcx_1_1web_1_1_a_p_iv4_wrapper.html#af61e98a3b724f77c7dba8871605e4f84" target="_top" xlink:title=" ">
<polygon fill="none" stroke="#000000" points="25.3809,-94.5 25.3809,-122.5 145.6875,-122.5 145.6875,-94.5 25.3809,-94.5"/>
<text text-anchor="start" x="33.3809" y="-110.5" font-family="Helvetica,sans-Serif" font-size="10.00" fill="#000000">cx::web::APIv4Wrapper</text>
<text text-anchor="middle" x="85.5342" y="-100.5" font-family="Helvetica,sans-Serif" font-size="10.00" fill="#000000">::getCustomerService</text>
</a>
</g>
</g>
<!-- Node15&#45;&gt;Node56 -->
<g id="edge41" class="edge">
<title>Node15&#45;&gt;Node56</title>
<path fill="none" stroke="#191970" d="M274.8622,-977.2779C267.2467,-843.5005 227.7763,-198.6333 171.0684,-132.5 164.4423,-124.7726 155.5475,-119.4344 145.9943,-115.7671"/>
<polygon fill="#191970" stroke="#191970" points="271.3711,-977.5373 275.4286,-987.3244 278.36,-977.1432 271.3711,-977.5373"/>
</g>
<!-- Node57 -->
<g id="node43" class="node">
<title>Node57</title>
<g id="a_node43"><a xlink:href="classcx_1_1web_1_1_a_p_iv4_wrapper.html#ae9beb6891ec880e15ec9ce8f780de910" target="_top" xlink:title=" ">
<polygon fill="none" stroke="#000000" points="21.394,-47.5 21.394,-75.5 149.6743,-75.5 149.6743,-47.5 21.394,-47.5"/>
<text text-anchor="start" x="29.394" y="-63.5" font-family="Helvetica,sans-Serif" font-size="10.00" fill="#000000">cx::web::APIv4Wrapper</text>
<text text-anchor="middle" x="85.5342" y="-53.5" font-family="Helvetica,sans-Serif" font-size="10.00" fill="#000000">::getBroadcastResources</text>
</a>
</g>
</g>
<!-- Node15&#45;&gt;Node57 -->
<g id="edge42" class="edge">
<title>Node15&#45;&gt;Node57</title>
<path fill="none" stroke="#191970" d="M275.0198,-977.279C268.0656,-839.2392 230.7728,-155.5608 171.0684,-85.5 165.3663,-78.8088 157.963,-73.9075 149.8987,-70.3307"/>
<polygon fill="#191970" stroke="#191970" points="271.5242,-977.457 275.5178,-987.2703 278.5155,-977.1084 271.5242,-977.457"/>
</g>
<!-- Node58 -->
<g id="node44" class="node">
<title>Node58</title>
<g id="a_node44"><a xlink:href="classcx_1_1web_1_1_a_p_iv4_wrapper.html#a95c3e898f4e875744d91daf220b6b844" target="_top" xlink:title=" ">
<polygon fill="none" stroke="#000000" points="25.3809,-.5 25.3809,-28.5 145.6875,-28.5 145.6875,-.5 25.3809,-.5"/>
<text text-anchor="start" x="33.3809" y="-16.5" font-family="Helvetica,sans-Serif" font-size="10.00" fill="#000000">cx::web::APIv4Wrapper</text>
<text text-anchor="middle" x="85.5342" y="-6.5" font-family="Helvetica,sans-Serif" font-size="10.00" fill="#000000">::sendUserVote</text>
</a>
</g>
</g>
<!-- Node15&#45;&gt;Node58 -->
<g id="edge43" class="edge">
<title>Node15&#45;&gt;Node58</title>
<path fill="none" stroke="#191970" d="M275.1476,-976.9537C268.7863,-833.9843 233.7258,-112.4394 171.0684,-38.5 164.4874,-30.7341 155.6145,-25.3773 146.0689,-21.7035"/>
<polygon fill="#191970" stroke="#191970" points="271.6653,-977.4351 275.6012,-987.2717 278.6585,-977.1276 271.6653,-977.4351"/>
</g>
</g>
</svg>
