<?xml version="1.0" encoding="UTF-8" standalone="no"?>
<!DOCTYPE svg PUBLIC "-//W3C//DTD SVG 1.1//EN"
 "http://www.w3.org/Graphics/SVG/1.1/DTD/svg11.dtd">
<!-- Generated by graphviz version 2.40.1 (20161225.0304)
 -->
<!-- Title: fs::VoIPClientProxy::onCallMessage Pages: 1 -->
<svg width="416pt" height="37pt"
 viewBox="0.00 0.00 416.11 37.00" xmlns="http://www.w3.org/2000/svg" xmlns:xlink="http://www.w3.org/1999/xlink">
<g id="graph0" class="graph" transform="scale(1 1) rotate(0) translate(4 33)">
<title>fs::VoIPClientProxy::onCallMessage</title>
<!-- Node16 -->
<g id="node1" class="node">
<title>Node16</title>
<g id="a_node1"><a xlink:title=" ">
<polygon fill="#bfbfbf" stroke="#000000" points="0,-.5 0,-28.5 101.5957,-28.5 101.5957,-.5 0,-.5"/>
<text text-anchor="start" x="8" y="-16.5" font-family="Helvetica,sans-Serif" font-size="10.00" fill="#000000">fs::VoIPClientProxy</text>
<text text-anchor="middle" x="50.7979" y="-6.5" font-family="Helvetica,sans-Serif" font-size="10.00" fill="#000000">::onCallMessage</text>
</a>
</g>
</g>
<!-- Node17 -->
<g id="node2" class="node">
<title>Node17</title>
<g id="a_node2"><a xlink:href="classfs_1_1_vo_i_p_client_delegate.html#a8751b52faa20909205f4255c2b706057" target="_top" xlink:title=" ">
<polygon fill="none" stroke="#000000" points="137.5957,-.5 137.5957,-28.5 256.0469,-28.5 256.0469,-.5 137.5957,-.5"/>
<text text-anchor="start" x="145.5957" y="-16.5" font-family="Helvetica,sans-Serif" font-size="10.00" fill="#000000">fs::VoIPClientDelegate</text>
<text text-anchor="middle" x="196.8213" y="-6.5" font-family="Helvetica,sans-Serif" font-size="10.00" fill="#000000">::fireTransportMessage</text>
</a>
</g>
</g>
<!-- Node16&#45;&gt;Node17 -->
<g id="edge1" class="edge">
<title>Node16&#45;&gt;Node17</title>
<path fill="none" stroke="#191970" d="M101.8698,-14.5C110.1456,-14.5 118.836,-14.5 127.4583,-14.5"/>
<polygon fill="#191970" stroke="#191970" points="127.5201,-18.0001 137.5201,-14.5 127.52,-11.0001 127.5201,-18.0001"/>
</g>
<!-- Node18 -->
<g id="node3" class="node">
<title>Node18</title>
<g id="a_node3"><a xlink:href="classfs_1_1_vo_i_p_client_delegate.html#aa55e0da13919d86da0ee7ef65c9adadb" target="_top" xlink:title=" ">
<polygon fill="none" stroke="#000000" points="292.0469,-.5 292.0469,-28.5 408.1104,-28.5 408.1104,-.5 292.0469,-.5"/>
<text text-anchor="start" x="300.0469" y="-16.5" font-family="Helvetica,sans-Serif" font-size="10.00" fill="#000000">fs::VoIPClientDelegate</text>
<text text-anchor="middle" x="350.0786" y="-6.5" font-family="Helvetica,sans-Serif" font-size="10.00" fill="#000000">::onTransportMessage</text>
</a>
</g>
</g>
<!-- Node17&#45;&gt;Node18 -->
<g id="edge2" class="edge">
<title>Node17&#45;&gt;Node18</title>
<path fill="none" stroke="#191970" d="M256.0746,-14.5C264.5504,-14.5 273.3256,-14.5 281.9551,-14.5"/>
<polygon fill="#191970" stroke="#191970" points="281.9918,-18.0001 291.9918,-14.5 281.9917,-11.0001 281.9918,-18.0001"/>
</g>
</g>
</svg>
