<?xml version="1.0" encoding="UTF-8" standalone="no"?>
<!DOCTYPE svg PUBLIC "-//W3C//DTD SVG 1.1//EN"
 "http://www.w3.org/Graphics/SVG/1.1/DTD/svg11.dtd">
<!-- Generated by graphviz version 2.40.1 (20161225.0304)
 -->
<!-- Title: fs::MeetingClientSession::updateDisplayConfiguration Pages: 1 -->
<svg width="314pt" height="121pt"
 viewBox="0.00 0.00 314.47 121.00" xmlns="http://www.w3.org/2000/svg" xmlns:xlink="http://www.w3.org/1999/xlink">
<g id="graph0" class="graph" transform="scale(1 1) rotate(0) translate(4 117)">
<title>fs::MeetingClientSession::updateDisplayConfiguration</title>
<!-- Node1017 -->
<g id="node1" class="node">
<title>Node1017</title>
<g id="a_node1"><a xlink:title=" ">
<polygon fill="#bfbfbf" stroke="#000000" points="0,-42.5 0,-70.5 144.4131,-70.5 144.4131,-42.5 0,-42.5"/>
<text text-anchor="start" x="8" y="-58.5" font-family="Helvetica,sans-Serif" font-size="10.00" fill="#000000">fs::MeetingClientSession</text>
<text text-anchor="middle" x="72.2065" y="-48.5" font-family="Helvetica,sans-Serif" font-size="10.00" fill="#000000">::updateDisplayConfiguration</text>
</a>
</g>
</g>
<!-- Node1018 -->
<g id="node2" class="node">
<title>Node1018</title>
<g id="a_node2"><a xlink:href="classfs_1_1_meeting_client_session.html#ad2db541bceb2f60d39d34b3e443801d2" target="_top" xlink:title=" ">
<polygon fill="none" stroke="#000000" points="180.4131,-84.5 180.4131,-112.5 306.4668,-112.5 306.4668,-84.5 180.4131,-84.5"/>
<text text-anchor="start" x="188.4131" y="-100.5" font-family="Helvetica,sans-Serif" font-size="10.00" fill="#000000">fs::MeetingClientSession</text>
<text text-anchor="middle" x="243.4399" y="-90.5" font-family="Helvetica,sans-Serif" font-size="10.00" fill="#000000">::isInitialized</text>
</a>
</g>
</g>
<!-- Node1017&#45;&gt;Node1018 -->
<g id="edge1" class="edge">
<title>Node1017&#45;&gt;Node1018</title>
<path fill="none" stroke="#191970" d="M129.7011,-70.6022C144.6051,-74.2579 160.788,-78.2272 176.1458,-81.9941"/>
<polygon fill="#191970" stroke="#191970" points="175.5512,-85.452 186.0971,-84.435 177.2188,-78.6535 175.5512,-85.452"/>
</g>
<!-- Node1019 -->
<g id="node3" class="node">
<title>Node1019</title>
<g id="a_node3"><a xlink:href="_meeting_client_session_8cxx.html#ab06e713e85f5d00e42ad86367c03f278" target="_top" xlink:title=" ">
<polygon fill="none" stroke="#000000" points="214.0361,-47.5 214.0361,-65.5 272.8438,-65.5 272.8438,-47.5 214.0361,-47.5"/>
<text text-anchor="middle" x="243.4399" y="-53.5" font-family="Helvetica,sans-Serif" font-size="10.00" fill="#000000">asio_post</text>
</a>
</g>
</g>
<!-- Node1017&#45;&gt;Node1019 -->
<g id="edge2" class="edge">
<title>Node1017&#45;&gt;Node1019</title>
<path fill="none" stroke="#191970" d="M144.8249,-56.5C164.9039,-56.5 185.9595,-56.5 203.4346,-56.5"/>
<polygon fill="#191970" stroke="#191970" points="203.8119,-60.0001 213.8119,-56.5 203.8119,-53.0001 203.8119,-60.0001"/>
</g>
<!-- Node1020 -->
<g id="node4" class="node">
<title>Node1020</title>
<g id="a_node4"><a xlink:href="classfs_1_1_meeting_client_session.html#a75e9c574fb9a84a95e9629dd91689dc0" target="_top" xlink:title=" ">
<polygon fill="none" stroke="#000000" points="180.4131,-.5 180.4131,-28.5 306.4668,-28.5 306.4668,-.5 180.4131,-.5"/>
<text text-anchor="start" x="188.4131" y="-16.5" font-family="Helvetica,sans-Serif" font-size="10.00" fill="#000000">fs::MeetingClientSession</text>
<text text-anchor="middle" x="243.4399" y="-6.5" font-family="Helvetica,sans-Serif" font-size="10.00" fill="#000000">::ioService</text>
</a>
</g>
</g>
<!-- Node1017&#45;&gt;Node1020 -->
<g id="edge3" class="edge">
<title>Node1017&#45;&gt;Node1020</title>
<path fill="none" stroke="#191970" d="M129.7011,-42.3978C144.6051,-38.7421 160.788,-34.7728 176.1458,-31.0059"/>
<polygon fill="#191970" stroke="#191970" points="177.2188,-34.3465 186.0971,-28.565 175.5512,-27.548 177.2188,-34.3465"/>
</g>
</g>
</svg>
