<?xml version="1.0" encoding="UTF-8" standalone="no"?>
<!DOCTYPE svg PUBLIC "-//W3C//DTD SVG 1.1//EN"
 "http://www.w3.org/Graphics/SVG/1.1/DTD/svg11.dtd">
<!-- Generated by graphviz version 2.40.1 (20161225.0304)
 -->
<!-- Title: fs::RTNotificationsController::registerHandlers Pages: 1 -->
<!--zoomable 107 -->
<svg id="main" version="1.1" xmlns="http://www.w3.org/2000/svg" xmlns:xlink="http://www.w3.org/1999/xlink" xml:space="preserve" onload="init(evt)">
<style type="text/css"><![CDATA[
.edge:hover path { stroke: red; }
.edge:hover polygon { stroke: red; fill: red; }
]]></style>
<script type="text/javascript"><![CDATA[
var edges = document.getElementsByTagName('g');
if (edges && edges.length) {
  for (var i=0;i<edges.length;i++) {
    if (edges[i].id.substr(0,4)=='edge') {
      edges[i].setAttribute('class','edge');
    }
  }
}
]]></script>
        <defs>
                <circle id="rim" cx="0" cy="0" r="7"/>
                <circle id="rim2" cx="0" cy="0" r="3.5"/>
                <g id="zoomPlus">
                        <use xlink:href="#rim" fill="#404040">
                                <set attributeName="fill" to="#808080" begin="zoomplus.mouseover" end="zoomplus.mouseout"/>
                        </use>
                        <path d="M-4,0h8M0,-4v8" fill="none" stroke="white" stroke-width="1.5" pointer-events="none"/>
                </g>
                <g id="zoomMin">
                        <use xlink:href="#rim" fill="#404040">
                                <set attributeName="fill" to="#808080" begin="zoomminus.mouseover" end="zoomminus.mouseout"/>
                        </use>
                        <path d="M-4,0h8" fill="none" stroke="white" stroke-width="1.5" pointer-events="none"/>
                </g>
                <g id="dirArrow">
                        <path fill="none" stroke="white" stroke-width="1.5" d="M0,-3.0v7 M-2.5,-0.5L0,-3.0L2.5,-0.5"/>
                </g>
               <g id="resetDef">
                       <use xlink:href="#rim2" fill="#404040">
                               <set attributeName="fill" to="#808080" begin="reset.mouseover" end="reset.mouseout"/>
                       </use>
               </g>
        </defs>

<script type="text/javascript">
var viewWidth = 501;
var viewHeight = 107;
var sectionId = 'dynsection-13';
</script>
<script xlink:href="svgpan.js"/>
<svg id="graph" class="graph">
<g id="viewport">
<title>fs::RTNotificationsController::registerHandlers</title>
<!-- Node46 -->
<g id="node1" class="node">
<title>Node46</title>
<g id="a_node1"><a xlink:title=" ">
<polygon fill="#bfbfbf" stroke="#000000" points="0,-23.5 0,-51.5 140.3066,-51.5 140.3066,-23.5 0,-23.5"/>
<text text-anchor="start" x="8" y="-39.5" font-family="Helvetica,sans-Serif" font-size="10.00" fill="#000000">fs::RTNotificationsController</text>
<text text-anchor="middle" x="70.1533" y="-29.5" font-family="Helvetica,sans-Serif" font-size="10.00" fill="#000000">::registerHandlers</text>
</a>
</g>
</g>
<!-- Node47 -->
<g id="node2" class="node">
<title>Node47</title>
<g id="a_node2"><a xlink:href="classfs_1_1_r_t_notifications_controller.html#abafaa0dbd85ee2ae7475cc385f744f78" target="_top" xlink:title=" ">
<polygon fill="none" stroke="#000000" points="176.3066,-47.5 176.3066,-75.5 316.6133,-75.5 316.6133,-47.5 176.3066,-47.5"/>
<text text-anchor="start" x="184.3066" y="-63.5" font-family="Helvetica,sans-Serif" font-size="10.00" fill="#000000">fs::RTNotificationsController</text>
<text text-anchor="middle" x="246.46" y="-53.5" font-family="Helvetica,sans-Serif" font-size="10.00" fill="#000000">::populatingHandler</text>
</a>
</g>
</g>
<!-- Node46&#45;&gt;Node47 -->
<g id="edge1" class="edge">
<title>Node46&#45;&gt;Node47</title>
<path fill="none" stroke="#191970" d="M140.341,-47.0544C148.8304,-48.21 157.552,-49.3973 166.1725,-50.5708"/>
<polygon fill="#191970" stroke="#191970" points="165.8451,-54.0584 176.2258,-51.9393 166.7893,-47.1223 165.8451,-54.0584"/>
</g>
<!-- Node50 -->
<g id="node5" class="node">
<title>Node50</title>
<g id="a_node5"><a xlink:href="classfs_1_1_r_t_notifications_controller.html#a1797180d99a32bd4c83abc3ed7952cc2" target="_top" xlink:title=" ">
<polygon fill="none" stroke="#000000" points="176.3066,-.5 176.3066,-28.5 316.6133,-28.5 316.6133,-.5 176.3066,-.5"/>
<text text-anchor="start" x="184.3066" y="-16.5" font-family="Helvetica,sans-Serif" font-size="10.00" fill="#000000">fs::RTNotificationsController</text>
<text text-anchor="middle" x="246.46" y="-6.5" font-family="Helvetica,sans-Serif" font-size="10.00" fill="#000000">::addHandler</text>
</a>
</g>
</g>
<!-- Node46&#45;&gt;Node50 -->
<g id="edge4" class="edge">
<title>Node46&#45;&gt;Node50</title>
<path fill="none" stroke="#191970" d="M140.341,-28.3437C148.8304,-27.2362 157.552,-26.0984 166.1725,-24.9739"/>
<polygon fill="#191970" stroke="#191970" points="166.7626,-28.4266 176.2258,-23.6624 165.857,-21.4854 166.7626,-28.4266"/>
</g>
<!-- Node48 -->
<g id="node3" class="node">
<title>Node48</title>
<g id="a_node3"><a xlink:href="classfs_1_1_r_t_notifications_controller.html#a63bcc0b97a8cc11b5efe3dcebafc29f9" target="_top" xlink:title=" ">
<polygon fill="none" stroke="#000000" points="352.6133,-70.5 352.6133,-98.5 492.9199,-98.5 492.9199,-70.5 352.6133,-70.5"/>
<text text-anchor="start" x="360.6133" y="-86.5" font-family="Helvetica,sans-Serif" font-size="10.00" fill="#000000">fs::RTNotificationsController</text>
<text text-anchor="middle" x="422.7666" y="-76.5" font-family="Helvetica,sans-Serif" font-size="10.00" fill="#000000">::handleResponse</text>
</a>
</g>
</g>
<!-- Node47&#45;&gt;Node48 -->
<g id="edge2" class="edge">
<title>Node47&#45;&gt;Node48</title>
<path fill="none" stroke="#191970" d="M316.6476,-70.6563C325.1371,-71.7638 333.8587,-72.9016 342.4792,-74.0261"/>
<polygon fill="#191970" stroke="#191970" points="342.1637,-77.5146 352.5324,-75.3376 343.0692,-70.5734 342.1637,-77.5146"/>
</g>
<!-- Node49 -->
<g id="node4" class="node">
<title>Node49</title>
<g id="a_node4"><a xlink:href="classfs_1_1_r_t_notifications_controller.html#adb900e48259e2382c3e12d9a177a7dc3" target="_top" xlink:title=" ">
<polygon fill="none" stroke="#000000" points="352.6133,-23.5 352.6133,-51.5 492.9199,-51.5 492.9199,-23.5 352.6133,-23.5"/>
<text text-anchor="start" x="360.6133" y="-39.5" font-family="Helvetica,sans-Serif" font-size="10.00" fill="#000000">fs::RTNotificationsController</text>
<text text-anchor="middle" x="422.7666" y="-29.5" font-family="Helvetica,sans-Serif" font-size="10.00" fill="#000000">::handleBridgeVersion</text>
</a>
</g>
</g>
<!-- Node47&#45;&gt;Node49 -->
<g id="edge3" class="edge">
<title>Node47&#45;&gt;Node49</title>
<path fill="none" stroke="#191970" d="M316.6476,-51.9456C325.1371,-50.79 333.8587,-49.6027 342.4792,-48.4292"/>
<polygon fill="#191970" stroke="#191970" points="343.0959,-51.8777 352.5324,-47.0607 342.1517,-44.9416 343.0959,-51.8777"/>
</g>
</g>
</svg>
        <g id="navigator" transform="translate(0 0)" fill="#404254">
                <rect fill="#f2f5e9" fill-opacity="0.5" stroke="#606060" stroke-width=".5" x="0" y="0" width="60" height="60"/>
                <use id="zoomplus" xlink:href="#zoomPlus" x="17" y="9" onmousedown="handleZoom(evt,'in')"/>
                <use id="zoomminus" xlink:href="#zoomMin" x="42" y="9" onmousedown="handleZoom(evt,'out')"/>
                <use id="reset" xlink:href="#resetDef" x="30" y="36" onmousedown="handleReset()"/>
                <g id="arrowUp" xlink:href="#dirArrow" transform="translate(30 24)" onmousedown="handlePan(0,-1)">
                  <use xlink:href="#rim" fill="#404040">
                        <set attributeName="fill" to="#808080" begin="arrowUp.mouseover" end="arrowUp.mouseout"/>
                  </use>
                  <path fill="none" stroke="white" stroke-width="1.5" d="M0,-3.0v7 M-2.5,-0.5L0,-3.0L2.5,-0.5"/>
                </g>
                <g id="arrowRight" xlink:href="#dirArrow" transform="rotate(90) translate(36 -43)" onmousedown="handlePan(1,0)">
                  <use xlink:href="#rim" fill="#404040">
                        <set attributeName="fill" to="#808080" begin="arrowRight.mouseover" end="arrowRight.mouseout"/>
                  </use>
                  <path fill="none" stroke="white" stroke-width="1.5" d="M0,-3.0v7 M-2.5,-0.5L0,-3.0L2.5,-0.5"/>
                </g>
                <g id="arrowDown" xlink:href="#dirArrow" transform="rotate(180) translate(-30 -48)" onmousedown="handlePan(0,1)">
                  <use xlink:href="#rim" fill="#404040">
                        <set attributeName="fill" to="#808080" begin="arrowDown.mouseover" end="arrowDown.mouseout"/>
                  </use>
                  <path fill="none" stroke="white" stroke-width="1.5" d="M0,-3.0v7 M-2.5,-0.5L0,-3.0L2.5,-0.5"/>
                </g>
                <g id="arrowLeft" xlink:href="#dirArrow" transform="rotate(270) translate(-36 17)" onmousedown="handlePan(-1,0)">
                  <use xlink:href="#rim" fill="#404040">
                        <set attributeName="fill" to="#808080" begin="arrowLeft.mouseover" end="arrowLeft.mouseout"/>
                  </use>
                  <path fill="none" stroke="white" stroke-width="1.5" d="M0,-3.0v7 M-2.5,-0.5L0,-3.0L2.5,-0.5"/>
                </g>
        </g>
        <svg viewBox="0 0 15 15" width="100%" height="30px" preserveAspectRatio="xMaxYMin meet">
         <g id="arrow_out" transform="scale(0.3 0.3)">
          <a xlink:href="classfs_1_1_r_t_notifications_controller_adc65dfa3fa32ab0b796b3f7dabe2cfd5_cgraph_org.svg" target="_base">
           <rect id="button" ry="5" rx="5" y="6" x="6" height="38" width="38"
                fill="#f2f5e9" fill-opacity="0.5" stroke="#606060" stroke-width="1.0"/>
           <path id="arrow"
             d="M 11.500037,31.436501 C 11.940474,20.09759 22.043105,11.32322 32.158766,21.979434 L 37.068811,17.246167 C 37.068811,17.246167 37.088388,32 37.088388,32 L 22.160133,31.978069 C 22.160133,31.978069 26.997745,27.140456 26.997745,27.140456 C 18.528582,18.264221 13.291696,25.230495 11.500037,31.436501 z"
             style="fill:#404040;"/>
          </a>
         </g>
        </svg>
</svg>
