<?xml version="1.0" encoding="UTF-8" standalone="no"?>
<!DOCTYPE svg PUBLIC "-//W3C//DTD SVG 1.1//EN"
 "http://www.w3.org/Graphics/SVG/1.1/DTD/svg11.dtd">
<!-- Generated by graphviz version 2.40.1 (20161225.0304)
 -->
<!-- Title: fs::MeetingClientSession::isScreenSharingActive Pages: 1 -->
<svg width="458pt" height="37pt"
 viewBox="0.00 0.00 458.16 37.00" xmlns="http://www.w3.org/2000/svg" xmlns:xlink="http://www.w3.org/1999/xlink">
<g id="graph0" class="graph" transform="scale(1 1) rotate(0) translate(4 33)">
<title>fs::MeetingClientSession::isScreenSharingActive</title>
<!-- Node557 -->
<g id="node1" class="node">
<title>Node557</title>
<g id="a_node1"><a xlink:title=" ">
<polygon fill="#bfbfbf" stroke="#000000" points="0,-.5 0,-28.5 126.0537,-28.5 126.0537,-.5 0,-.5"/>
<text text-anchor="start" x="8" y="-16.5" font-family="Helvetica,sans-Serif" font-size="10.00" fill="#000000">fs::MeetingClientSession</text>
<text text-anchor="middle" x="63.0269" y="-6.5" font-family="Helvetica,sans-Serif" font-size="10.00" fill="#000000">::isScreenSharingActive</text>
</a>
</g>
</g>
<!-- Node558 -->
<g id="node2" class="node">
<title>Node558</title>
<g id="a_node2"><a xlink:href="classfs_1_1_meeting_client_session.html#a01830c461ac307cb79e74f35962c524a" target="_top" xlink:title=" ">
<polygon fill="none" stroke="#000000" points="162.0537,-.5 162.0537,-28.5 288.1074,-28.5 288.1074,-.5 162.0537,-.5"/>
<text text-anchor="start" x="170.0537" y="-16.5" font-family="Helvetica,sans-Serif" font-size="10.00" fill="#000000">fs::MeetingClientSession</text>
<text text-anchor="middle" x="225.0806" y="-6.5" font-family="Helvetica,sans-Serif" font-size="10.00" fill="#000000">::getPresenterId</text>
</a>
</g>
</g>
<!-- Node557&#45;&gt;Node558 -->
<g id="edge1" class="edge">
<title>Node557&#45;&gt;Node558</title>
<path fill="none" stroke="#191970" d="M126.1451,-14.5C134.5767,-14.5 143.2807,-14.5 151.8666,-14.5"/>
<polygon fill="#191970" stroke="#191970" points="151.8681,-18.0001 161.868,-14.5 151.868,-11.0001 151.8681,-18.0001"/>
</g>
<!-- Node559 -->
<g id="node3" class="node">
<title>Node559</title>
<g id="a_node3"><a xlink:href="classfs_1_1_meeting_client_session.html#ad2db541bceb2f60d39d34b3e443801d2" target="_top" xlink:title=" ">
<polygon fill="none" stroke="#000000" points="324.1074,-.5 324.1074,-28.5 450.1611,-28.5 450.1611,-.5 324.1074,-.5"/>
<text text-anchor="start" x="332.1074" y="-16.5" font-family="Helvetica,sans-Serif" font-size="10.00" fill="#000000">fs::MeetingClientSession</text>
<text text-anchor="middle" x="387.1343" y="-6.5" font-family="Helvetica,sans-Serif" font-size="10.00" fill="#000000">::isInitialized</text>
</a>
</g>
</g>
<!-- Node558&#45;&gt;Node559 -->
<g id="edge2" class="edge">
<title>Node558&#45;&gt;Node559</title>
<path fill="none" stroke="#191970" d="M288.1988,-14.5C296.6304,-14.5 305.3344,-14.5 313.9203,-14.5"/>
<polygon fill="#191970" stroke="#191970" points="313.9218,-18.0001 323.9217,-14.5 313.9217,-11.0001 313.9218,-18.0001"/>
</g>
</g>
</svg>
