<?xml version="1.0" encoding="UTF-8" standalone="no"?>
<!DOCTYPE svg PUBLIC "-//W3C//DTD SVG 1.1//EN"
 "http://www.w3.org/Graphics/SVG/1.1/DTD/svg11.dtd">
<!-- Generated by graphviz version 2.40.1 (20161225.0304)
 -->
<!-- Title: fs::ScreenSharingController::onAttendeeBroadcastStopped Pages: 1 -->
<svg width="513pt" height="154pt"
 viewBox="0.00 0.00 512.67 154.00" xmlns="http://www.w3.org/2000/svg" xmlns:xlink="http://www.w3.org/1999/xlink">
<g id="graph0" class="graph" transform="scale(1 1) rotate(0) translate(4 150)">
<title>fs::ScreenSharingController::onAttendeeBroadcastStopped</title>
<!-- Node165 -->
<g id="node1" class="node">
<title>Node165</title>
<g id="a_node1"><a xlink:title=" ">
<polygon fill="#bfbfbf" stroke="#000000" points="0,-70.5 0,-98.5 154.9941,-98.5 154.9941,-70.5 0,-70.5"/>
<text text-anchor="start" x="8" y="-86.5" font-family="Helvetica,sans-Serif" font-size="10.00" fill="#000000">fs::ScreenSharingController</text>
<text text-anchor="middle" x="77.4971" y="-76.5" font-family="Helvetica,sans-Serif" font-size="10.00" fill="#000000">::onAttendeeBroadcastStopped</text>
</a>
</g>
</g>
<!-- Node166 -->
<g id="node2" class="node">
<title>Node166</title>
<g id="a_node2"><a xlink:href="classfs_1_1_screen_sharing_controller.html#af3820fa110e9ee3579a100f59f3488cc" target="_top" xlink:title=" ">
<polygon fill="none" stroke="#000000" points="190.9941,-117.5 190.9941,-145.5 329.8311,-145.5 329.8311,-117.5 190.9941,-117.5"/>
<text text-anchor="start" x="198.9941" y="-133.5" font-family="Helvetica,sans-Serif" font-size="10.00" fill="#000000">fs::ScreenSharingController</text>
<text text-anchor="middle" x="260.4126" y="-123.5" font-family="Helvetica,sans-Serif" font-size="10.00" fill="#000000">::getPresenterId</text>
</a>
</g>
</g>
<!-- Node165&#45;&gt;Node166 -->
<g id="edge1" class="edge">
<title>Node165&#45;&gt;Node166</title>
<path fill="none" stroke="#191970" d="M132.3778,-98.6015C152.4545,-103.7603 175.3467,-109.6424 196.1685,-114.9925"/>
<polygon fill="#191970" stroke="#191970" points="195.3296,-118.3906 205.886,-117.4894 197.0717,-111.6108 195.3296,-118.3906"/>
</g>
<!-- Node167 -->
<g id="node3" class="node">
<title>Node167</title>
<g id="a_node3"><a xlink:href="classfs_1_1_screen_sharing_controller.html#a2d72cac3855bd476bf5d61e6e342c079" target="_top" xlink:title=" ">
<polygon fill="none" stroke="#000000" points="190.9941,-70.5 190.9941,-98.5 329.8311,-98.5 329.8311,-70.5 190.9941,-70.5"/>
<text text-anchor="start" x="198.9941" y="-86.5" font-family="Helvetica,sans-Serif" font-size="10.00" fill="#000000">fs::ScreenSharingController</text>
<text text-anchor="middle" x="260.4126" y="-76.5" font-family="Helvetica,sans-Serif" font-size="10.00" fill="#000000">::getPromotedAttendeeId</text>
</a>
</g>
</g>
<!-- Node165&#45;&gt;Node167 -->
<g id="edge2" class="edge">
<title>Node165&#45;&gt;Node167</title>
<path fill="none" stroke="#191970" d="M155.0697,-84.5C163.5151,-84.5 172.1222,-84.5 180.5938,-84.5"/>
<polygon fill="#191970" stroke="#191970" points="180.8403,-88.0001 190.8402,-84.5 180.8402,-81.0001 180.8403,-88.0001"/>
</g>
<!-- Node168 -->
<g id="node4" class="node">
<title>Node168</title>
<g id="a_node4"><a xlink:href="classfs_1_1_screen_sharing_controller.html#a52b62b9e4e991919927cb0ca0065962b" target="_top" xlink:title=" ">
<polygon fill="none" stroke="#000000" points="190.9941,-23.5 190.9941,-51.5 329.8311,-51.5 329.8311,-23.5 190.9941,-23.5"/>
<text text-anchor="start" x="198.9941" y="-39.5" font-family="Helvetica,sans-Serif" font-size="10.00" fill="#000000">fs::ScreenSharingController</text>
<text text-anchor="middle" x="260.4126" y="-29.5" font-family="Helvetica,sans-Serif" font-size="10.00" fill="#000000">::isRunning</text>
</a>
</g>
</g>
<!-- Node165&#45;&gt;Node168 -->
<g id="edge3" class="edge">
<title>Node165&#45;&gt;Node168</title>
<path fill="none" stroke="#191970" d="M132.3778,-70.3985C152.4545,-65.2397 175.3467,-59.3576 196.1685,-54.0075"/>
<polygon fill="#191970" stroke="#191970" points="197.0717,-57.3892 205.886,-51.5106 195.3296,-50.6094 197.0717,-57.3892"/>
</g>
<!-- Node169 -->
<g id="node5" class="node">
<title>Node169</title>
<g id="a_node5"><a xlink:href="classfs_1_1_screen_sharing_controller.html#ad106f544261381323ae3ebfdc9544b8e" target="_top" xlink:title=" ">
<polygon fill="none" stroke="#000000" points="365.8311,-47.5 365.8311,-75.5 504.668,-75.5 504.668,-47.5 365.8311,-47.5"/>
<text text-anchor="start" x="373.8311" y="-63.5" font-family="Helvetica,sans-Serif" font-size="10.00" fill="#000000">fs::ScreenSharingController</text>
<text text-anchor="middle" x="435.2495" y="-53.5" font-family="Helvetica,sans-Serif" font-size="10.00" fill="#000000">::isActive</text>
</a>
</g>
</g>
<!-- Node168&#45;&gt;Node169 -->
<g id="edge4" class="edge">
<title>Node168&#45;&gt;Node169</title>
<path fill="none" stroke="#191970" d="M330.0151,-47.0544C338.4338,-48.21 347.0827,-49.3973 355.6314,-50.5708"/>
<polygon fill="#191970" stroke="#191970" points="355.2177,-54.0467 365.6008,-51.9393 356.1697,-47.1117 355.2177,-54.0467"/>
</g>
<!-- Node170 -->
<g id="node6" class="node">
<title>Node170</title>
<g id="a_node6"><a xlink:href="classfs_1_1_screen_sharing_controller.html#a1099e31f1e66a059b03ec205d466cbbc" target="_top" xlink:title=" ">
<polygon fill="none" stroke="#000000" points="365.8311,-.5 365.8311,-28.5 504.668,-28.5 504.668,-.5 365.8311,-.5"/>
<text text-anchor="start" x="373.8311" y="-16.5" font-family="Helvetica,sans-Serif" font-size="10.00" fill="#000000">fs::ScreenSharingController</text>
<text text-anchor="middle" x="435.2495" y="-6.5" font-family="Helvetica,sans-Serif" font-size="10.00" fill="#000000">::isPresenter</text>
</a>
</g>
</g>
<!-- Node168&#45;&gt;Node170 -->
<g id="edge5" class="edge">
<title>Node168&#45;&gt;Node170</title>
<path fill="none" stroke="#191970" d="M330.0151,-28.3437C338.4338,-27.2362 347.0827,-26.0984 355.6314,-24.9739"/>
<polygon fill="#191970" stroke="#191970" points="356.1428,-28.4368 365.6008,-23.6624 355.2297,-21.4966 356.1428,-28.4368"/>
</g>
</g>
</svg>
