<?xml version="1.0" encoding="UTF-8" standalone="no"?>
<!DOCTYPE svg PUBLIC "-//W3C//DTD SVG 1.1//EN"
 "http://www.w3.org/Graphics/SVG/1.1/DTD/svg11.dtd">
<!-- Generated by graphviz version 2.40.1 (20161225.0304)
 -->
<!-- Title: fs::ScreenSharingController::onPresenterCursor Pages: 1 -->
<svg width="313pt" height="131pt"
 viewBox="0.00 0.00 312.76 131.00" xmlns="http://www.w3.org/2000/svg" xmlns:xlink="http://www.w3.org/1999/xlink">
<g id="graph0" class="graph" transform="scale(1 1) rotate(0) translate(4 127)">
<title>fs::ScreenSharingController::onPresenterCursor</title>
<!-- Node231 -->
<g id="node1" class="node">
<title>Node231</title>
<g id="a_node1"><a xlink:title=" ">
<polygon fill="#bfbfbf" stroke="#000000" points="0,-47.5 0,-75.5 138.8369,-75.5 138.8369,-47.5 0,-47.5"/>
<text text-anchor="start" x="8" y="-63.5" font-family="Helvetica,sans-Serif" font-size="10.00" fill="#000000">fs::ScreenSharingController</text>
<text text-anchor="middle" x="69.4185" y="-53.5" font-family="Helvetica,sans-Serif" font-size="10.00" fill="#000000">::onPresenterCursor</text>
</a>
</g>
</g>
<!-- Node232 -->
<g id="node2" class="node">
<title>Node232</title>
<g id="a_node2"><a xlink:href="classfs_1_1_f_s_presenter_cursor_pkt.html#abc4e2a3c8166f59381a3c179c51b96fa" target="_top" xlink:title=" ">
<polygon fill="none" stroke="#000000" points="174.8369,-94.5 174.8369,-122.5 304.7578,-122.5 304.7578,-94.5 174.8369,-94.5"/>
<text text-anchor="start" x="182.8369" y="-110.5" font-family="Helvetica,sans-Serif" font-size="10.00" fill="#000000">fs::FSPresenterCursorPkt</text>
<text text-anchor="middle" x="239.7974" y="-100.5" font-family="Helvetica,sans-Serif" font-size="10.00" fill="#000000">::image</text>
</a>
</g>
</g>
<!-- Node231&#45;&gt;Node232 -->
<g id="edge1" class="edge">
<title>Node231&#45;&gt;Node232</title>
<path fill="none" stroke="#191970" d="M120.5377,-75.6015C138.9846,-80.6902 159.9833,-86.4828 179.1656,-91.7744"/>
<polygon fill="#191970" stroke="#191970" points="178.4372,-95.2041 189.0079,-94.4894 180.2988,-88.4562 178.4372,-95.2041"/>
</g>
<!-- Node233 -->
<g id="node3" class="node">
<title>Node233</title>
<g id="a_node3"><a xlink:href="classfs_1_1_f_s_presenter_cursor_pkt.html#a2ae7b4a9b5847de438a3d7a44703b212" target="_top" xlink:title=" ">
<polygon fill="none" stroke="#000000" points="174.8369,-47.5 174.8369,-75.5 304.7578,-75.5 304.7578,-47.5 174.8369,-47.5"/>
<text text-anchor="start" x="182.8369" y="-63.5" font-family="Helvetica,sans-Serif" font-size="10.00" fill="#000000">fs::FSPresenterCursorPkt</text>
<text text-anchor="middle" x="239.7974" y="-53.5" font-family="Helvetica,sans-Serif" font-size="10.00" fill="#000000">::hotSpotX</text>
</a>
</g>
</g>
<!-- Node231&#45;&gt;Node233 -->
<g id="edge2" class="edge">
<title>Node231&#45;&gt;Node233</title>
<path fill="none" stroke="#191970" d="M139.2097,-61.5C147.5725,-61.5 156.1401,-61.5 164.5756,-61.5"/>
<polygon fill="#191970" stroke="#191970" points="164.7768,-65.0001 174.7768,-61.5 164.7767,-58.0001 164.7768,-65.0001"/>
</g>
<!-- Node234 -->
<g id="node4" class="node">
<title>Node234</title>
<g id="a_node4"><a xlink:href="classfs_1_1_f_s_presenter_cursor_pkt.html#a8f3143d25bf26ed99b54e3441598f4ab" target="_top" xlink:title=" ">
<polygon fill="none" stroke="#000000" points="174.8369,-.5 174.8369,-28.5 304.7578,-28.5 304.7578,-.5 174.8369,-.5"/>
<text text-anchor="start" x="182.8369" y="-16.5" font-family="Helvetica,sans-Serif" font-size="10.00" fill="#000000">fs::FSPresenterCursorPkt</text>
<text text-anchor="middle" x="239.7974" y="-6.5" font-family="Helvetica,sans-Serif" font-size="10.00" fill="#000000">::hotSpotY</text>
</a>
</g>
</g>
<!-- Node231&#45;&gt;Node234 -->
<g id="edge3" class="edge">
<title>Node231&#45;&gt;Node234</title>
<path fill="none" stroke="#191970" d="M120.5377,-47.3985C138.9846,-42.3098 159.9833,-36.5172 179.1656,-31.2256"/>
<polygon fill="#191970" stroke="#191970" points="180.2988,-34.5438 189.0079,-28.5106 178.4372,-27.7959 180.2988,-34.5438"/>
</g>
</g>
</svg>
