<?xml version="1.0" encoding="UTF-8" standalone="no"?>
<!DOCTYPE svg PUBLIC "-//W3C//DTD SVG 1.1//EN"
 "http://www.w3.org/Graphics/SVG/1.1/DTD/svg11.dtd">
<!-- Generated by graphviz version 2.40.1 (20161225.0304)
 -->
<!-- Title: fs::MeetingClient::isWelcomePlayed Pages: 1 -->
<svg width="401pt" height="84pt"
 viewBox="0.00 0.00 400.91 84.00" xmlns="http://www.w3.org/2000/svg" xmlns:xlink="http://www.w3.org/1999/xlink">
<g id="graph0" class="graph" transform="scale(1 1) rotate(0) translate(4 80)">
<title>fs::MeetingClient::isWelcomePlayed</title>
<!-- Node189 -->
<g id="node1" class="node">
<title>Node189</title>
<g id="a_node1"><a xlink:title=" ">
<polygon fill="#bfbfbf" stroke="#000000" points="296.8711,-23.5 296.8711,-51.5 392.9053,-51.5 392.9053,-23.5 296.8711,-23.5"/>
<text text-anchor="start" x="304.8711" y="-39.5" font-family="Helvetica,sans-Serif" font-size="10.00" fill="#000000">fs::MeetingClient::</text>
<text text-anchor="middle" x="344.8882" y="-29.5" font-family="Helvetica,sans-Serif" font-size="10.00" fill="#000000">isWelcomePlayed</text>
</a>
</g>
</g>
<!-- Node190 -->
<g id="node2" class="node">
<title>Node190</title>
<g id="a_node2"><a xlink:href="classfs_1_1_meeting_client.html#a85c5e210f24c32230b8367588193fbee" target="_top" xlink:title=" ">
<polygon fill="none" stroke="#000000" points="132.0342,-47.5 132.0342,-75.5 260.8711,-75.5 260.8711,-47.5 132.0342,-47.5"/>
<text text-anchor="start" x="140.0342" y="-63.5" font-family="Helvetica,sans-Serif" font-size="10.00" fill="#000000">fs::MeetingClient::</text>
<text text-anchor="middle" x="196.4526" y="-53.5" font-family="Helvetica,sans-Serif" font-size="10.00" fill="#000000">startScreenSharingMedia</text>
</a>
</g>
</g>
<!-- Node189&#45;&gt;Node190 -->
<g id="edge1" class="edge">
<title>Node189&#45;&gt;Node190</title>
<path fill="none" stroke="#191970" d="M286.58,-46.9276C278.1446,-48.2915 269.4215,-49.7019 260.8748,-51.0838"/>
<polygon fill="#191970" stroke="#191970" points="287.3823,-50.3435 296.6954,-45.2921 286.2649,-43.4332 287.3823,-50.3435"/>
</g>
<!-- Node192 -->
<g id="node4" class="node">
<title>Node192</title>
<g id="a_node4"><a xlink:href="classfs_1_1_meeting_client.html#a4e2854bd9be3dbfaa8231dbe7653417e" target="_top" xlink:title=" ">
<polygon fill="none" stroke="#000000" points="148.4355,-.5 148.4355,-28.5 244.4697,-28.5 244.4697,-.5 148.4355,-.5"/>
<text text-anchor="start" x="156.4355" y="-16.5" font-family="Helvetica,sans-Serif" font-size="10.00" fill="#000000">fs::MeetingClient::</text>
<text text-anchor="middle" x="196.4526" y="-6.5" font-family="Helvetica,sans-Serif" font-size="10.00" fill="#000000">startVideo</text>
</a>
</g>
</g>
<!-- Node189&#45;&gt;Node192 -->
<g id="edge3" class="edge">
<title>Node189&#45;&gt;Node192</title>
<path fill="none" stroke="#191970" d="M286.7242,-28.4875C272.797,-26.3295 258.0776,-24.0488 244.6574,-21.9693"/>
<polygon fill="#191970" stroke="#191970" points="286.2774,-31.96 296.6954,-30.0326 287.3493,-25.0425 286.2774,-31.96"/>
</g>
<!-- Node191 -->
<g id="node3" class="node">
<title>Node191</title>
<g id="a_node3"><a xlink:href="classfs_1_1_meeting_client.html#a88351a7378f4486501e21a830cb082cc" target="_top" xlink:title=" ">
<polygon fill="none" stroke="#000000" points="0,-47.5 0,-75.5 96.0342,-75.5 96.0342,-47.5 0,-47.5"/>
<text text-anchor="start" x="8" y="-63.5" font-family="Helvetica,sans-Serif" font-size="10.00" fill="#000000">fs::MeetingClient::</text>
<text text-anchor="middle" x="48.0171" y="-53.5" font-family="Helvetica,sans-Serif" font-size="10.00" fill="#000000">startClient</text>
</a>
</g>
</g>
<!-- Node190&#45;&gt;Node191 -->
<g id="edge2" class="edge">
<title>Node190&#45;&gt;Node191</title>
<path fill="none" stroke="#191970" d="M121.7078,-61.5C113.1093,-61.5 104.5202,-61.5 96.4022,-61.5"/>
<polygon fill="#191970" stroke="#191970" points="121.7785,-65.0001 131.7784,-61.5 121.7784,-58.0001 121.7785,-65.0001"/>
</g>
</g>
</svg>
