<?xml version="1.0" encoding="UTF-8" standalone="no"?>
<!DOCTYPE svg PUBLIC "-//W3C//DTD SVG 1.1//EN"
 "http://www.w3.org/Graphics/SVG/1.1/DTD/svg11.dtd">
<!-- Generated by graphviz version 2.40.1 (20161225.0304)
 -->
<!-- Title: fs::FSParticipantClickPkt Pages: 1 -->
<svg width="153pt" height="507pt"
 viewBox="0.00 0.00 153.49 507.00" xmlns="http://www.w3.org/2000/svg" xmlns:xlink="http://www.w3.org/1999/xlink">
<g id="graph0" class="graph" transform="scale(1 1) rotate(0) translate(4 503)">
<title>fs::FSParticipantClickPkt</title>
<!-- Node2 -->
<g id="node1" class="node">
<title>Node2</title>
<g id="a_node1"><a xlink:title=" ">
<polygon fill="#bfbfbf" stroke="#000000" points="9.0381,-.5 9.0381,-114.5 136.4541,-114.5 136.4541,-.5 9.0381,-.5"/>
<text text-anchor="middle" x="72.7461" y="-102.5" font-family="Helvetica,sans-Serif" font-size="10.00" fill="#000000">fs::FSParticipantClickPkt</text>
<polyline fill="none" stroke="#000000" points="9.0381,-96.5 136.4541,-96.5 "/>
<text text-anchor="middle" x="72.7461" y="-84.5" font-family="Helvetica,sans-Serif" font-size="10.00" fill="#000000"> </text>
<polyline fill="none" stroke="#000000" points="9.0381,-78.5 136.4541,-78.5 "/>
<text text-anchor="start" x="17.0381" y="-66.5" font-family="Helvetica,sans-Serif" font-size="10.00" fill="#000000">+ FSParticipantClickPkt()</text>
<text text-anchor="start" x="17.0381" y="-56.5" font-family="Helvetica,sans-Serif" font-size="10.00" fill="#000000">+ userID()</text>
<text text-anchor="start" x="17.0381" y="-46.5" font-family="Helvetica,sans-Serif" font-size="10.00" fill="#000000">+ setUserID()</text>
<text text-anchor="start" x="17.0381" y="-36.5" font-family="Helvetica,sans-Serif" font-size="10.00" fill="#000000">+ x()</text>
<text text-anchor="start" x="17.0381" y="-26.5" font-family="Helvetica,sans-Serif" font-size="10.00" fill="#000000">+ setX()</text>
<text text-anchor="start" x="17.0381" y="-16.5" font-family="Helvetica,sans-Serif" font-size="10.00" fill="#000000">+ y()</text>
<text text-anchor="start" x="17.0381" y="-6.5" font-family="Helvetica,sans-Serif" font-size="10.00" fill="#000000">+ setY()</text>
</a>
</g>
</g>
<!-- Node3 -->
<g id="node2" class="node">
<title>Node3</title>
<g id="a_node2"><a xlink:href="classfs_1_1_f_s_packet.html" target="_top" xlink:title=" ">
<polygon fill="none" stroke="#000000" points="32.5122,-152.5 32.5122,-266.5 112.98,-266.5 112.98,-152.5 32.5122,-152.5"/>
<text text-anchor="middle" x="72.7461" y="-254.5" font-family="Helvetica,sans-Serif" font-size="10.00" fill="#000000">fs::FSPacket</text>
<polyline fill="none" stroke="#000000" points="32.5122,-248.5 112.98,-248.5 "/>
<text text-anchor="start" x="40.5122" y="-236.5" font-family="Helvetica,sans-Serif" font-size="10.00" fill="#000000"># m_iType</text>
<polyline fill="none" stroke="#000000" points="32.5122,-230.5 112.98,-230.5 "/>
<text text-anchor="start" x="40.5122" y="-218.5" font-family="Helvetica,sans-Serif" font-size="10.00" fill="#000000">+ FSPacket()</text>
<text text-anchor="start" x="40.5122" y="-208.5" font-family="Helvetica,sans-Serif" font-size="10.00" fill="#000000">+ ~FSPacket()</text>
<text text-anchor="start" x="40.5122" y="-198.5" font-family="Helvetica,sans-Serif" font-size="10.00" fill="#000000">+ type()</text>
<text text-anchor="start" x="40.5122" y="-188.5" font-family="Helvetica,sans-Serif" font-size="10.00" fill="#000000">+ serialize()</text>
<text text-anchor="start" x="40.5122" y="-178.5" font-family="Helvetica,sans-Serif" font-size="10.00" fill="#000000">+ entry()</text>
<text text-anchor="start" x="40.5122" y="-168.5" font-family="Helvetica,sans-Serif" font-size="10.00" fill="#000000">+ setEntry()</text>
<text text-anchor="start" x="40.5122" y="-158.5" font-family="Helvetica,sans-Serif" font-size="10.00" fill="#000000">+ deserialize()</text>
</a>
</g>
</g>
<!-- Node3&#45;&gt;Node2 -->
<g id="edge1" class="edge">
<title>Node3&#45;&gt;Node2</title>
<path fill="none" stroke="#191970" d="M72.7461,-142.1786C72.7461,-132.974 72.7461,-123.5975 72.7461,-114.5984"/>
<polygon fill="none" stroke="#191970" points="69.2462,-142.4683 72.7461,-152.4684 76.2462,-142.4684 69.2462,-142.4683"/>
</g>
<!-- Node4 -->
<g id="node3" class="node">
<title>Node4</title>
<g id="a_node3"><a xlink:title=" ">
<polygon fill="none" stroke="#bfbfbf" points="0,-313.5 0,-367.5 145.4922,-367.5 145.4922,-313.5 0,-313.5"/>
<text text-anchor="middle" x="72.7461" y="-355.5" font-family="Helvetica,sans-Serif" font-size="10.00" fill="#000000">std::vector&lt; FSPktStream * &gt;</text>
<polyline fill="none" stroke="#bfbfbf" points="0,-349.5 145.4922,-349.5 "/>
<text text-anchor="middle" x="72.7461" y="-337.5" font-family="Helvetica,sans-Serif" font-size="10.00" fill="#000000"> </text>
<polyline fill="none" stroke="#bfbfbf" points="0,-331.5 145.4922,-331.5 "/>
<text text-anchor="middle" x="72.7461" y="-319.5" font-family="Helvetica,sans-Serif" font-size="10.00" fill="#000000"> </text>
</a>
</g>
</g>
<!-- Node4&#45;&gt;Node3 -->
<g id="edge2" class="edge">
<title>Node4&#45;&gt;Node3</title>
<path fill="none" stroke="#404040" d="M72.7461,-313.3567C72.7461,-303.1832 72.7461,-291.1036 72.7461,-278.8438"/>
<polygon fill="none" stroke="#404040" points="72.7462,-278.5878 68.7461,-272.5879 72.7461,-266.5878 76.7461,-272.5878 72.7462,-278.5878"/>
<text text-anchor="middle" x="101.9233" y="-287" font-family="Helvetica,sans-Serif" font-size="10.00" fill="#000000"> #m_xEntries</text>
</g>
<!-- Node5 -->
<g id="node4" class="node">
<title>Node5</title>
<g id="a_node4"><a xlink:href="classfs_1_1_f_s_pkt_stream.html" target="_top" xlink:title=" ">
<polygon fill="none" stroke="#000000" points="24.458,-414.5 24.458,-498.5 121.0342,-498.5 121.0342,-414.5 24.458,-414.5"/>
<text text-anchor="middle" x="72.7461" y="-486.5" font-family="Helvetica,sans-Serif" font-size="10.00" fill="#000000">fs::FSPktStream</text>
<polyline fill="none" stroke="#000000" points="24.458,-480.5 121.0342,-480.5 "/>
<text text-anchor="start" x="32.458" y="-468.5" font-family="Helvetica,sans-Serif" font-size="10.00" fill="#000000"># m_pxObj</text>
<polyline fill="none" stroke="#000000" points="24.458,-462.5 121.0342,-462.5 "/>
<text text-anchor="start" x="32.458" y="-450.5" font-family="Helvetica,sans-Serif" font-size="10.00" fill="#000000">+ ~FSPktStream()</text>
<text text-anchor="start" x="32.458" y="-440.5" font-family="Helvetica,sans-Serif" font-size="10.00" fill="#000000">+ read()</text>
<text text-anchor="start" x="32.458" y="-430.5" font-family="Helvetica,sans-Serif" font-size="10.00" fill="#000000">+ write()</text>
<text text-anchor="start" x="32.458" y="-420.5" font-family="Helvetica,sans-Serif" font-size="10.00" fill="#000000">+ object()</text>
</a>
</g>
</g>
<!-- Node5&#45;&gt;Node4 -->
<g id="edge3" class="edge">
<title>Node5&#45;&gt;Node4</title>
<path fill="none" stroke="#404040" d="M72.7461,-414.2932C72.7461,-402.9972 72.7461,-390.8361 72.7461,-379.7094"/>
<polygon fill="none" stroke="#404040" points="72.7462,-379.6877 68.7461,-373.6877 72.7461,-367.6877 76.7461,-373.6877 72.7462,-379.6877"/>
<text text-anchor="middle" x="97.3433" y="-388" font-family="Helvetica,sans-Serif" font-size="10.00" fill="#000000"> +elements</text>
</g>
</g>
</svg>
