<?xml version="1.0" encoding="UTF-8" standalone="no"?>
<!DOCTYPE svg PUBLIC "-//W3C//DTD SVG 1.1//EN"
 "http://www.w3.org/Graphics/SVG/1.1/DTD/svg11.dtd">
<!-- Generated by graphviz version 2.40.1 (20161225.0304)
 -->
<!-- Title: cx::web::APIv4Wrapper::authorizeByCodeScheme Pages: 1 -->
<svg width="491pt" height="37pt"
 viewBox="0.00 0.00 490.94 37.00" xmlns="http://www.w3.org/2000/svg" xmlns:xlink="http://www.w3.org/1999/xlink">
<g id="graph0" class="graph" transform="scale(1 1) rotate(0) translate(4 33)">
<title>cx::web::APIv4Wrapper::authorizeByCodeScheme</title>
<!-- Node4 -->
<g id="node1" class="node">
<title>Node4</title>
<g id="a_node1"><a xlink:title=" ">
<polygon fill="#bfbfbf" stroke="#000000" points="0,-.5 0,-28.5 134.9551,-28.5 134.9551,-.5 0,-.5"/>
<text text-anchor="start" x="8" y="-16.5" font-family="Helvetica,sans-Serif" font-size="10.00" fill="#000000">cx::web::APIv4Wrapper</text>
<text text-anchor="middle" x="67.4775" y="-6.5" font-family="Helvetica,sans-Serif" font-size="10.00" fill="#000000">::authorizeByCodeScheme</text>
</a>
</g>
</g>
<!-- Node5 -->
<g id="node2" class="node">
<title>Node5</title>
<g id="a_node2"><a xlink:href="classcx_1_1_h_t_t_p_request_container.html#a88443e3419255d1d2bb8503829c4bcaa" target="_top" xlink:title=" ">
<polygon fill="none" stroke="#000000" points="170.9551,-.5 170.9551,-28.5 309.2256,-28.5 309.2256,-.5 170.9551,-.5"/>
<text text-anchor="start" x="178.9551" y="-16.5" font-family="Helvetica,sans-Serif" font-size="10.00" fill="#000000">cx::HTTPRequestContainer</text>
<text text-anchor="middle" x="240.0903" y="-6.5" font-family="Helvetica,sans-Serif" font-size="10.00" fill="#000000">::request</text>
</a>
</g>
</g>
<!-- Node4&#45;&gt;Node5 -->
<g id="edge1" class="edge">
<title>Node4&#45;&gt;Node5</title>
<path fill="none" stroke="#191970" d="M135.2033,-14.5C143.5296,-14.5 152.0982,-14.5 160.5788,-14.5"/>
<polygon fill="#191970" stroke="#191970" points="160.8573,-18.0001 170.8573,-14.5 160.8573,-11.0001 160.8573,-18.0001"/>
</g>
<!-- Node6 -->
<g id="node3" class="node">
<title>Node6</title>
<g id="a_node3"><a xlink:href="structcx_1_1_h_t_t_p_request_1_1_request_params.html#aad683476ac9a2874f8a98a530d2b791b" target="_top" xlink:title=" ">
<polygon fill="none" stroke="#000000" points="345.2256,-.5 345.2256,-28.5 482.9395,-28.5 482.9395,-.5 345.2256,-.5"/>
<text text-anchor="start" x="353.2256" y="-16.5" font-family="Helvetica,sans-Serif" font-size="10.00" fill="#000000">cx::HTTPRequest::Request</text>
<text text-anchor="middle" x="414.0825" y="-6.5" font-family="Helvetica,sans-Serif" font-size="10.00" fill="#000000">Params::start</text>
</a>
</g>
</g>
<!-- Node5&#45;&gt;Node6 -->
<g id="edge2" class="edge">
<title>Node5&#45;&gt;Node6</title>
<path fill="none" stroke="#191970" d="M309.3566,-14.5C317.7109,-14.5 326.293,-14.5 334.7769,-14.5"/>
<polygon fill="#191970" stroke="#191970" points="335.0546,-18.0001 345.0546,-14.5 335.0545,-11.0001 335.0546,-18.0001"/>
</g>
</g>
</svg>
