<?xml version="1.0" encoding="UTF-8" standalone="no"?>
<!DOCTYPE svg PUBLIC "-//W3C//DTD SVG 1.1//EN"
 "http://www.w3.org/Graphics/SVG/1.1/DTD/svg11.dtd">
<!-- Generated by graphviz version 2.40.1 (20161225.0304)
 -->
<!-- Title: fs::MeetingClientSession::pauseRecordingBroadcast Pages: 1 -->
<svg width="309pt" height="121pt"
 viewBox="0.00 0.00 309.46 121.00" xmlns="http://www.w3.org/2000/svg" xmlns:xlink="http://www.w3.org/1999/xlink">
<g id="graph0" class="graph" transform="scale(1 1) rotate(0) translate(4 117)">
<title>fs::MeetingClientSession::pauseRecordingBroadcast</title>
<!-- Node732 -->
<g id="node1" class="node">
<title>Node732</title>
<g id="a_node1"><a xlink:title=" ">
<polygon fill="#bfbfbf" stroke="#000000" points="0,-42.5 0,-70.5 139.4082,-70.5 139.4082,-42.5 0,-42.5"/>
<text text-anchor="start" x="8" y="-58.5" font-family="Helvetica,sans-Serif" font-size="10.00" fill="#000000">fs::MeetingClientSession</text>
<text text-anchor="middle" x="69.7041" y="-48.5" font-family="Helvetica,sans-Serif" font-size="10.00" fill="#000000">::pauseRecordingBroadcast</text>
</a>
</g>
</g>
<!-- Node733 -->
<g id="node2" class="node">
<title>Node733</title>
<g id="a_node2"><a xlink:href="classfs_1_1_meeting_client_session.html#ad2db541bceb2f60d39d34b3e443801d2" target="_top" xlink:title=" ">
<polygon fill="none" stroke="#000000" points="175.4082,-84.5 175.4082,-112.5 301.4619,-112.5 301.4619,-84.5 175.4082,-84.5"/>
<text text-anchor="start" x="183.4082" y="-100.5" font-family="Helvetica,sans-Serif" font-size="10.00" fill="#000000">fs::MeetingClientSession</text>
<text text-anchor="middle" x="238.4351" y="-90.5" font-family="Helvetica,sans-Serif" font-size="10.00" fill="#000000">::isInitialized</text>
</a>
</g>
</g>
<!-- Node732&#45;&gt;Node733 -->
<g id="edge1" class="edge">
<title>Node732&#45;&gt;Node733</title>
<path fill="none" stroke="#191970" d="M126.3585,-70.6022C141.0446,-74.2579 156.9911,-78.2272 172.1243,-81.9941"/>
<polygon fill="#191970" stroke="#191970" points="171.3809,-85.4158 181.9302,-84.435 173.0718,-78.6231 171.3809,-85.4158"/>
</g>
<!-- Node734 -->
<g id="node3" class="node">
<title>Node734</title>
<g id="a_node3"><a xlink:href="_meeting_client_session_8cxx.html#ab06e713e85f5d00e42ad86367c03f278" target="_top" xlink:title=" ">
<polygon fill="none" stroke="#000000" points="209.0313,-47.5 209.0313,-65.5 267.8389,-65.5 267.8389,-47.5 209.0313,-47.5"/>
<text text-anchor="middle" x="238.4351" y="-53.5" font-family="Helvetica,sans-Serif" font-size="10.00" fill="#000000">asio_post</text>
</a>
</g>
</g>
<!-- Node732&#45;&gt;Node734 -->
<g id="edge2" class="edge">
<title>Node732&#45;&gt;Node734</title>
<path fill="none" stroke="#191970" d="M139.7954,-56.5C159.7405,-56.5 180.782,-56.5 198.2845,-56.5"/>
<polygon fill="#191970" stroke="#191970" points="198.6835,-60.0001 208.6835,-56.5 198.6835,-53.0001 198.6835,-60.0001"/>
</g>
<!-- Node735 -->
<g id="node4" class="node">
<title>Node735</title>
<g id="a_node4"><a xlink:href="classfs_1_1_meeting_client_session.html#a75e9c574fb9a84a95e9629dd91689dc0" target="_top" xlink:title=" ">
<polygon fill="none" stroke="#000000" points="175.4082,-.5 175.4082,-28.5 301.4619,-28.5 301.4619,-.5 175.4082,-.5"/>
<text text-anchor="start" x="183.4082" y="-16.5" font-family="Helvetica,sans-Serif" font-size="10.00" fill="#000000">fs::MeetingClientSession</text>
<text text-anchor="middle" x="238.4351" y="-6.5" font-family="Helvetica,sans-Serif" font-size="10.00" fill="#000000">::ioService</text>
</a>
</g>
</g>
<!-- Node732&#45;&gt;Node735 -->
<g id="edge3" class="edge">
<title>Node732&#45;&gt;Node735</title>
<path fill="none" stroke="#191970" d="M126.3585,-42.3978C141.0446,-38.7421 156.9911,-34.7728 172.1243,-31.0059"/>
<polygon fill="#191970" stroke="#191970" points="173.0718,-34.3769 181.9302,-28.565 171.3809,-27.5842 173.0718,-34.3769"/>
</g>
</g>
</svg>
