<?xml version="1.0" encoding="UTF-8" standalone="no"?>
<!DOCTYPE svg PUBLIC "-//W3C//DTD SVG 1.1//EN"
 "http://www.w3.org/Graphics/SVG/1.1/DTD/svg11.dtd">
<!-- Generated by graphviz version 2.40.1 (20161225.0304)
 -->
<!-- Title: fs::ThreadDescriptor::demandIOServiceThread Pages: 1 -->
<svg width="310pt" height="131pt"
 viewBox="0.00 0.00 309.99 131.00" xmlns="http://www.w3.org/2000/svg" xmlns:xlink="http://www.w3.org/1999/xlink">
<g id="graph0" class="graph" transform="scale(1 1) rotate(0) translate(4 127)">
<title>fs::ThreadDescriptor::demandIOServiceThread</title>
<!-- Node6 -->
<g id="node1" class="node">
<title>Node6</title>
<g id="a_node1"><a xlink:title=" ">
<polygon fill="#bfbfbf" stroke="#000000" points="168.709,-47.5 168.709,-75.5 301.9893,-75.5 301.9893,-47.5 168.709,-47.5"/>
<text text-anchor="start" x="176.709" y="-63.5" font-family="Helvetica,sans-Serif" font-size="10.00" fill="#000000">fs::ThreadDescriptor</text>
<text text-anchor="middle" x="235.3491" y="-53.5" font-family="Helvetica,sans-Serif" font-size="10.00" fill="#000000">::demandIOServiceThread</text>
</a>
</g>
</g>
<!-- Node7 -->
<g id="node2" class="node">
<title>Node7</title>
<g id="a_node2"><a xlink:href="classfs_1_1_network_inspector_client.html#ad969ba89b63ca942f12c73a2e3916e7b" target="_top" xlink:title=" ">
<polygon fill="none" stroke="#000000" points="0,-94.5 0,-122.5 132.709,-122.5 132.709,-94.5 0,-94.5"/>
<text text-anchor="start" x="8" y="-110.5" font-family="Helvetica,sans-Serif" font-size="10.00" fill="#000000">fs::NetworkInspectorClient</text>
<text text-anchor="middle" x="66.3545" y="-100.5" font-family="Helvetica,sans-Serif" font-size="10.00" fill="#000000">::testTcpConnection</text>
</a>
</g>
</g>
<!-- Node6&#45;&gt;Node7 -->
<g id="edge1" class="edge">
<title>Node6&#45;&gt;Node7</title>
<path fill="none" stroke="#191970" d="M174.8692,-78.3204C155.8215,-83.6179 134.9979,-89.4092 116.7313,-94.4894"/>
<polygon fill="#191970" stroke="#191970" points="175.9487,-81.6531 184.6452,-75.6015 174.073,-74.9091 175.9487,-81.6531"/>
</g>
<!-- Node8 -->
<g id="node3" class="node">
<title>Node8</title>
<g id="a_node3"><a xlink:href="classfs_1_1_network_inspector_client.html#a7fc895f3cb338f4903eab3d7bce8b269" target="_top" xlink:title=" ">
<polygon fill="none" stroke="#000000" points="0,-47.5 0,-75.5 132.709,-75.5 132.709,-47.5 0,-47.5"/>
<text text-anchor="start" x="8" y="-63.5" font-family="Helvetica,sans-Serif" font-size="10.00" fill="#000000">fs::NetworkInspectorClient</text>
<text text-anchor="middle" x="66.3545" y="-53.5" font-family="Helvetica,sans-Serif" font-size="10.00" fill="#000000">::testBandwidth</text>
</a>
</g>
</g>
<!-- Node6&#45;&gt;Node8 -->
<g id="edge2" class="edge">
<title>Node6&#45;&gt;Node8</title>
<path fill="none" stroke="#191970" d="M158.3011,-61.5C149.8324,-61.5 141.2632,-61.5 132.9372,-61.5"/>
<polygon fill="#191970" stroke="#191970" points="158.558,-65.0001 168.558,-61.5 158.5579,-58.0001 158.558,-65.0001"/>
</g>
<!-- Node9 -->
<g id="node4" class="node">
<title>Node9</title>
<g id="a_node4"><a xlink:href="classfs_1_1_network_inspector_client.html#a193184d530b951cca823f7096bc6ce76" target="_top" xlink:title=" ">
<polygon fill="none" stroke="#000000" points="0,-.5 0,-28.5 132.709,-28.5 132.709,-.5 0,-.5"/>
<text text-anchor="start" x="8" y="-16.5" font-family="Helvetica,sans-Serif" font-size="10.00" fill="#000000">fs::NetworkInspectorClient</text>
<text text-anchor="middle" x="66.3545" y="-6.5" font-family="Helvetica,sans-Serif" font-size="10.00" fill="#000000">::testVoIPServices</text>
</a>
</g>
</g>
<!-- Node6&#45;&gt;Node9 -->
<g id="edge3" class="edge">
<title>Node6&#45;&gt;Node9</title>
<path fill="none" stroke="#191970" d="M174.8692,-44.6796C155.8215,-39.3821 134.9979,-33.5908 116.7313,-28.5106"/>
<polygon fill="#191970" stroke="#191970" points="174.073,-48.0909 184.6452,-47.3985 175.9487,-41.3469 174.073,-48.0909"/>
</g>
</g>
</svg>
