<?xml version="1.0" encoding="UTF-8" standalone="no"?>
<!DOCTYPE svg PUBLIC "-//W3C//DTD SVG 1.1//EN"
 "http://www.w3.org/Graphics/SVG/1.1/DTD/svg11.dtd">
<!-- Generated by graphviz version 2.40.1 (20161225.0304)
 -->
<!-- Title: cx::details::SubscriptionQueryHelper::getCountryCode Pages: 1 -->
<svg width="595pt" height="127pt"
 viewBox="0.00 0.00 595.19 127.00" xmlns="http://www.w3.org/2000/svg" xmlns:xlink="http://www.w3.org/1999/xlink">
<g id="graph0" class="graph" transform="scale(1 1) rotate(0) translate(4 123)">
<title>cx::details::SubscriptionQueryHelper::getCountryCode</title>
<!-- Node9 -->
<g id="node1" class="node">
<title>Node9</title>
<g id="a_node1"><a xlink:title=" ">
<polygon fill="#bfbfbf" stroke="#000000" points="0,-43.5 0,-71.5 151.0684,-71.5 151.0684,-43.5 0,-43.5"/>
<text text-anchor="start" x="8" y="-59.5" font-family="Helvetica,sans-Serif" font-size="10.00" fill="#000000">cx::details::Subscription</text>
<text text-anchor="middle" x="75.5342" y="-49.5" font-family="Helvetica,sans-Serif" font-size="10.00" fill="#000000">QueryHelper::getCountryCode</text>
</a>
</g>
</g>
<!-- Node10 -->
<g id="node2" class="node">
<title>Node10</title>
<g id="a_node2"><a xlink:href="structcx_1_1web_1_1string__entity.html#a8f45125c509cee364d542be5ac1728d9" target="_top" xlink:title=" ">
<polygon fill="none" stroke="#000000" points="187.0684,-90.5 187.0684,-118.5 296.4424,-118.5 296.4424,-90.5 187.0684,-90.5"/>
<text text-anchor="start" x="195.0684" y="-106.5" font-family="Helvetica,sans-Serif" font-size="10.00" fill="#000000">cx::web::string_entity</text>
<text text-anchor="middle" x="241.7554" y="-96.5" font-family="Helvetica,sans-Serif" font-size="10.00" fill="#000000">::copy_from</text>
</a>
</g>
</g>
<!-- Node9&#45;&gt;Node10 -->
<g id="edge1" class="edge">
<title>Node9&#45;&gt;Node10</title>
<path fill="none" stroke="#191970" d="M125.406,-71.6015C143.3202,-76.6669 163.7011,-82.4297 182.3455,-87.7015"/>
<polygon fill="#191970" stroke="#191970" points="181.6303,-91.1364 192.2054,-90.4894 183.535,-84.4005 181.6303,-91.1364"/>
</g>
<!-- Node11 -->
<g id="node3" class="node">
<title>Node11</title>
<g id="a_node3"><a xlink:href="structcx_1_1web_1_1json__entity.html#aa681ca07ba01ea1346649b9bb01c71af" target="_top" xlink:title=" ">
<polygon fill="none" stroke="#000000" points="190.1226,-43.5 190.1226,-71.5 293.3882,-71.5 293.3882,-43.5 190.1226,-43.5"/>
<text text-anchor="start" x="198.1226" y="-59.5" font-family="Helvetica,sans-Serif" font-size="10.00" fill="#000000">cx::web::json_entity</text>
<text text-anchor="middle" x="241.7554" y="-49.5" font-family="Helvetica,sans-Serif" font-size="10.00" fill="#000000">::valid</text>
</a>
</g>
</g>
<!-- Node9&#45;&gt;Node11 -->
<g id="edge2" class="edge">
<title>Node9&#45;&gt;Node11</title>
<path fill="none" stroke="#191970" d="M151.3485,-57.5C160.8045,-57.5 170.3875,-57.5 179.6027,-57.5"/>
<polygon fill="#191970" stroke="#191970" points="179.8244,-61.0001 189.8243,-57.5 179.8243,-54.0001 179.8244,-61.0001"/>
</g>
<!-- Node13 -->
<g id="node5" class="node">
<title>Node13</title>
<g id="a_node5"><a xlink:href="structcx_1_1web_1_1json__entity.html#a1fbed015492bb7a0c4ec31550fc3de1d" target="_top" xlink:title=" ">
<polygon fill="none" stroke="#000000" points="335.4966,-.5 335.4966,-28.5 438.7622,-28.5 438.7622,-.5 335.4966,-.5"/>
<text text-anchor="start" x="343.4966" y="-16.5" font-family="Helvetica,sans-Serif" font-size="10.00" fill="#000000">cx::web::json_entity</text>
<text text-anchor="middle" x="387.1294" y="-6.5" font-family="Helvetica,sans-Serif" font-size="10.00" fill="#000000">::get_json</text>
</a>
</g>
</g>
<!-- Node9&#45;&gt;Node13 -->
<g id="edge6" class="edge">
<title>Node9&#45;&gt;Node13</title>
<path fill="none" stroke="#191970" d="M134.3359,-43.4972C151.2805,-39.8296 169.8428,-36.1619 187.0684,-33.5 233.0606,-26.3928 285.4394,-21.5336 325.0629,-18.5094"/>
<polygon fill="#191970" stroke="#191970" points="325.3955,-21.9944 335.1078,-17.7611 324.8754,-15.0138 325.3955,-21.9944"/>
</g>
<!-- Node12 -->
<g id="node4" class="node">
<title>Node12</title>
<g id="a_node4"><a xlink:href="structcx_1_1web_1_1string__entity.html#adbe62e791cc18ea9f4ae7fc45468c32c" target="_top" xlink:title=" ">
<polygon fill="none" stroke="#000000" points="332.4424,-47.5 332.4424,-75.5 441.8164,-75.5 441.8164,-47.5 332.4424,-47.5"/>
<text text-anchor="start" x="340.4424" y="-63.5" font-family="Helvetica,sans-Serif" font-size="10.00" fill="#000000">cx::web::string_entity</text>
<text text-anchor="middle" x="387.1294" y="-53.5" font-family="Helvetica,sans-Serif" font-size="10.00" fill="#000000">::valid</text>
</a>
</g>
</g>
<!-- Node11&#45;&gt;Node12 -->
<g id="edge3" class="edge">
<title>Node11&#45;&gt;Node12</title>
<path fill="none" stroke="#191970" d="M293.4181,-58.9215C302.6478,-59.1755 312.3723,-59.443 321.9227,-59.7058"/>
<polygon fill="#191970" stroke="#191970" points="322.0934,-63.2117 332.1859,-59.9882 322.286,-56.2144 322.0934,-63.2117"/>
</g>
<!-- Node11&#45;&gt;Node13 -->
<g id="edge4" class="edge">
<title>Node11&#45;&gt;Node13</title>
<path fill="none" stroke="#191970" d="M289.3563,-43.4202C302.2832,-39.5965 316.4167,-35.416 329.8193,-31.4517"/>
<polygon fill="#191970" stroke="#191970" points="330.825,-34.8042 339.4216,-28.6114 328.8395,-28.0917 330.825,-34.8042"/>
</g>
<!-- Node14 -->
<g id="node6" class="node">
<title>Node14</title>
<g id="a_node6"><a xlink:href="structcx_1_1web_1_1string__entity.html#a532443f26d829f9d361289d856513ff4" target="_top" xlink:title=" ">
<polygon fill="none" stroke="#000000" points="477.8164,-.5 477.8164,-28.5 587.1904,-28.5 587.1904,-.5 477.8164,-.5"/>
<text text-anchor="start" x="485.8164" y="-16.5" font-family="Helvetica,sans-Serif" font-size="10.00" fill="#000000">cx::web::string_entity</text>
<text text-anchor="middle" x="532.5034" y="-6.5" font-family="Helvetica,sans-Serif" font-size="10.00" fill="#000000">::get_string</text>
</a>
</g>
</g>
<!-- Node13&#45;&gt;Node14 -->
<g id="edge5" class="edge">
<title>Node13&#45;&gt;Node14</title>
<path fill="none" stroke="#191970" d="M438.7922,-14.5C448.0218,-14.5 457.7463,-14.5 467.2967,-14.5"/>
<polygon fill="#191970" stroke="#191970" points="467.56,-18.0001 477.5599,-14.5 467.5599,-11.0001 467.56,-18.0001"/>
</g>
</g>
</svg>
