<?xml version="1.0" encoding="UTF-8" standalone="no"?>
<!DOCTYPE svg PUBLIC "-//W3C//DTD SVG 1.1//EN"
 "http://www.w3.org/Graphics/SVG/1.1/DTD/svg11.dtd">
<!-- Generated by graphviz version 2.40.1 (20161225.0304)
 -->
<!-- Title: fs::MeetingAttendeeReadonly::getName Pages: 1 -->
<svg width="330pt" height="84pt"
 viewBox="0.00 0.00 330.04 84.00" xmlns="http://www.w3.org/2000/svg" xmlns:xlink="http://www.w3.org/1999/xlink">
<g id="graph0" class="graph" transform="scale(1 1) rotate(0) translate(4 80)">
<title>fs::MeetingAttendeeReadonly::getName</title>
<!-- Node24 -->
<g id="node1" class="node">
<title>Node24</title>
<g id="a_node1"><a xlink:title=" ">
<polygon fill="#bfbfbf" stroke="#000000" points="174.8418,-23.5 174.8418,-51.5 322.0381,-51.5 322.0381,-23.5 174.8418,-23.5"/>
<text text-anchor="start" x="182.8418" y="-39.5" font-family="Helvetica,sans-Serif" font-size="10.00" fill="#000000">fs::MeetingAttendeeReadonly</text>
<text text-anchor="middle" x="248.4399" y="-29.5" font-family="Helvetica,sans-Serif" font-size="10.00" fill="#000000">::getName</text>
</a>
</g>
</g>
<!-- Node25 -->
<g id="node2" class="node">
<title>Node25</title>
<g id="a_node2"><a xlink:href="classfs_1_1_meeting_attendee.html#a9c77247c457c40b70a64f6e8f9af921e" target="_top" xlink:title=" ">
<polygon fill="none" stroke="#000000" points="0,-47.5 0,-75.5 138.8418,-75.5 138.8418,-47.5 0,-47.5"/>
<text text-anchor="start" x="8" y="-63.5" font-family="Helvetica,sans-Serif" font-size="10.00" fill="#000000">fs::MeetingAttendee</text>
<text text-anchor="middle" x="69.4209" y="-53.5" font-family="Helvetica,sans-Serif" font-size="10.00" fill="#000000">::isPresentationBroadcaster</text>
</a>
</g>
</g>
<!-- Node24&#45;&gt;Node25 -->
<g id="edge1" class="edge">
<title>Node24&#45;&gt;Node25</title>
<path fill="none" stroke="#191970" d="M164.6087,-48.7387C156.0609,-49.8847 147.4438,-51.0399 139.0708,-52.1625"/>
<polygon fill="#191970" stroke="#191970" points="165.1463,-52.1981 174.5925,-47.4003 164.2161,-45.2602 165.1463,-52.1981"/>
</g>
<!-- Node26 -->
<g id="node3" class="node">
<title>Node26</title>
<g id="a_node3"><a xlink:href="classfs_1_1_meeting_attendee.html#a1224ac561aa03ad17bd71900b1f09a17" target="_top" xlink:title=" ">
<polygon fill="none" stroke="#000000" points="5.2832,-.5 5.2832,-28.5 133.5586,-28.5 133.5586,-.5 5.2832,-.5"/>
<text text-anchor="start" x="13.2832" y="-16.5" font-family="Helvetica,sans-Serif" font-size="10.00" fill="#000000">fs::MeetingAttendee</text>
<text text-anchor="middle" x="69.4209" y="-6.5" font-family="Helvetica,sans-Serif" font-size="10.00" fill="#000000">::isRecordingBroadcaster</text>
</a>
</g>
</g>
<!-- Node24&#45;&gt;Node26 -->
<g id="edge2" class="edge">
<title>Node24&#45;&gt;Node26</title>
<path fill="none" stroke="#191970" d="M164.6567,-26.7357C154.2411,-25.3975 143.7217,-24.046 133.6657,-22.754"/>
<polygon fill="#191970" stroke="#191970" points="164.228,-30.2093 174.5925,-28.0122 165.1201,-23.2664 164.228,-30.2093"/>
</g>
</g>
</svg>
