<?xml version="1.0" encoding="UTF-8" standalone="no"?>
<!DOCTYPE svg PUBLIC "-//W3C//DTD SVG 1.1//EN"
 "http://www.w3.org/Graphics/SVG/1.1/DTD/svg11.dtd">
<!-- Generated by graphviz version 2.40.1 (20161225.0304)
 -->
<!-- Title: cx::web::APIv3Wrapper::getSubscriptionByAccessToken Pages: 1 -->
<svg width="517pt" height="37pt"
 viewBox="0.00 0.00 517.06 37.00" xmlns="http://www.w3.org/2000/svg" xmlns:xlink="http://www.w3.org/1999/xlink">
<g id="graph0" class="graph" transform="scale(1 1) rotate(0) translate(4 33)">
<title>cx::web::APIv3Wrapper::getSubscriptionByAccessToken</title>
<!-- Node67 -->
<g id="node1" class="node">
<title>Node67</title>
<g id="a_node1"><a xlink:title=" ">
<polygon fill="#bfbfbf" stroke="#000000" points="0,-.5 0,-28.5 161.0732,-28.5 161.0732,-.5 0,-.5"/>
<text text-anchor="start" x="8" y="-16.5" font-family="Helvetica,sans-Serif" font-size="10.00" fill="#000000">cx::web::APIv3Wrapper</text>
<text text-anchor="middle" x="80.5366" y="-6.5" font-family="Helvetica,sans-Serif" font-size="10.00" fill="#000000">::getSubscriptionByAccessToken</text>
</a>
</g>
</g>
<!-- Node68 -->
<g id="node2" class="node">
<title>Node68</title>
<g id="a_node2"><a xlink:href="classcx_1_1_h_t_t_p_request_container.html#a88443e3419255d1d2bb8503829c4bcaa" target="_top" xlink:title=" ">
<polygon fill="none" stroke="#000000" points="197.0732,-.5 197.0732,-28.5 335.3438,-28.5 335.3438,-.5 197.0732,-.5"/>
<text text-anchor="start" x="205.0732" y="-16.5" font-family="Helvetica,sans-Serif" font-size="10.00" fill="#000000">cx::HTTPRequestContainer</text>
<text text-anchor="middle" x="266.2085" y="-6.5" font-family="Helvetica,sans-Serif" font-size="10.00" fill="#000000">::request</text>
</a>
</g>
</g>
<!-- Node67&#45;&gt;Node68 -->
<g id="edge1" class="edge">
<title>Node67&#45;&gt;Node68</title>
<path fill="none" stroke="#191970" d="M161.165,-14.5C169.6533,-14.5 178.2803,-14.5 186.7552,-14.5"/>
<polygon fill="#191970" stroke="#191970" points="186.998,-18.0001 196.9979,-14.5 186.9979,-11.0001 186.998,-18.0001"/>
</g>
<!-- Node69 -->
<g id="node3" class="node">
<title>Node69</title>
<g id="a_node3"><a xlink:href="structcx_1_1_h_t_t_p_request_1_1_request_params.html#aad683476ac9a2874f8a98a530d2b791b" target="_top" xlink:title=" ">
<polygon fill="none" stroke="#000000" points="371.3438,-.5 371.3438,-28.5 509.0576,-28.5 509.0576,-.5 371.3438,-.5"/>
<text text-anchor="start" x="379.3438" y="-16.5" font-family="Helvetica,sans-Serif" font-size="10.00" fill="#000000">cx::HTTPRequest::Request</text>
<text text-anchor="middle" x="440.2007" y="-6.5" font-family="Helvetica,sans-Serif" font-size="10.00" fill="#000000">Params::start</text>
</a>
</g>
</g>
<!-- Node68&#45;&gt;Node69 -->
<g id="edge2" class="edge">
<title>Node68&#45;&gt;Node69</title>
<path fill="none" stroke="#191970" d="M335.4748,-14.5C343.8291,-14.5 352.4112,-14.5 360.895,-14.5"/>
<polygon fill="#191970" stroke="#191970" points="361.1728,-18.0001 371.1727,-14.5 361.1727,-11.0001 361.1728,-18.0001"/>
</g>
</g>
</svg>
