<?xml version="1.0" encoding="UTF-8" standalone="no"?>
<!DOCTYPE svg PUBLIC "-//W3C//DTD SVG 1.1//EN"
 "http://www.w3.org/Graphics/SVG/1.1/DTD/svg11.dtd">
<!-- Generated by graphviz version 2.40.1 (20161225.0304)
 -->
<!-- Title: fs::MeetingClientSession::isVideoAllowed Pages: 1 -->
<svg width="458pt" height="84pt"
 viewBox="0.00 0.00 458.16 84.00" xmlns="http://www.w3.org/2000/svg" xmlns:xlink="http://www.w3.org/1999/xlink">
<g id="graph0" class="graph" transform="scale(1 1) rotate(0) translate(4 80)">
<title>fs::MeetingClientSession::isVideoAllowed</title>
<!-- Node574 -->
<g id="node1" class="node">
<title>Node574</title>
<g id="a_node1"><a xlink:title=" ">
<polygon fill="#bfbfbf" stroke="#000000" points="0,-23.5 0,-51.5 126.0537,-51.5 126.0537,-23.5 0,-23.5"/>
<text text-anchor="start" x="8" y="-39.5" font-family="Helvetica,sans-Serif" font-size="10.00" fill="#000000">fs::MeetingClientSession</text>
<text text-anchor="middle" x="63.0269" y="-29.5" font-family="Helvetica,sans-Serif" font-size="10.00" fill="#000000">::isVideoAllowed</text>
</a>
</g>
</g>
<!-- Node575 -->
<g id="node2" class="node">
<title>Node575</title>
<g id="a_node2"><a xlink:href="classfs_1_1_meeting_client_session.html#af70b5b1de4406912d4d6a196e9fd602e" target="_top" xlink:title=" ">
<polygon fill="none" stroke="#000000" points="162.0537,-47.5 162.0537,-75.5 288.1074,-75.5 288.1074,-47.5 162.0537,-47.5"/>
<text text-anchor="start" x="170.0537" y="-63.5" font-family="Helvetica,sans-Serif" font-size="10.00" fill="#000000">fs::MeetingClientSession</text>
<text text-anchor="middle" x="225.0806" y="-53.5" font-family="Helvetica,sans-Serif" font-size="10.00" fill="#000000">::getAttendee</text>
</a>
</g>
</g>
<!-- Node574&#45;&gt;Node575 -->
<g id="edge1" class="edge">
<title>Node574&#45;&gt;Node575</title>
<path fill="none" stroke="#191970" d="M126.1451,-46.8477C134.5767,-48.0965 143.2807,-49.3855 151.8666,-50.6571"/>
<polygon fill="#191970" stroke="#191970" points="151.4631,-54.1354 161.868,-52.1383 152.4887,-47.2109 151.4631,-54.1354"/>
</g>
<!-- Node577 -->
<g id="node4" class="node">
<title>Node577</title>
<g id="a_node4"><a xlink:href="classfs_1_1_meeting_client_session.html#a7a643e94d44f2d32f8d75a50bc0167b8" target="_top" xlink:title=" ">
<polygon fill="none" stroke="#000000" points="162.0537,-.5 162.0537,-28.5 288.1074,-28.5 288.1074,-.5 162.0537,-.5"/>
<text text-anchor="start" x="170.0537" y="-16.5" font-family="Helvetica,sans-Serif" font-size="10.00" fill="#000000">fs::MeetingClientSession</text>
<text text-anchor="middle" x="225.0806" y="-6.5" font-family="Helvetica,sans-Serif" font-size="10.00" fill="#000000">::getClientId</text>
</a>
</g>
</g>
<!-- Node574&#45;&gt;Node577 -->
<g id="edge3" class="edge">
<title>Node574&#45;&gt;Node577</title>
<path fill="none" stroke="#191970" d="M126.1451,-28.5417C134.5767,-27.3451 143.2807,-26.1097 151.8666,-24.8911"/>
<polygon fill="#191970" stroke="#191970" points="152.4591,-28.3422 161.868,-23.4716 151.4754,-21.4117 152.4591,-28.3422"/>
</g>
<!-- Node576 -->
<g id="node3" class="node">
<title>Node576</title>
<g id="a_node3"><a xlink:href="classfs_1_1_meeting_client_session.html#ad2db541bceb2f60d39d34b3e443801d2" target="_top" xlink:title=" ">
<polygon fill="none" stroke="#000000" points="324.1074,-23.5 324.1074,-51.5 450.1611,-51.5 450.1611,-23.5 324.1074,-23.5"/>
<text text-anchor="start" x="332.1074" y="-39.5" font-family="Helvetica,sans-Serif" font-size="10.00" fill="#000000">fs::MeetingClientSession</text>
<text text-anchor="middle" x="387.1343" y="-29.5" font-family="Helvetica,sans-Serif" font-size="10.00" fill="#000000">::isInitialized</text>
</a>
</g>
</g>
<!-- Node575&#45;&gt;Node576 -->
<g id="edge2" class="edge">
<title>Node575&#45;&gt;Node576</title>
<path fill="none" stroke="#191970" d="M288.1988,-52.1523C296.6304,-50.9035 305.3344,-49.6145 313.9203,-48.3429"/>
<polygon fill="#191970" stroke="#191970" points="314.5424,-51.7891 323.9217,-46.8617 313.5168,-44.8646 314.5424,-51.7891"/>
</g>
<!-- Node577&#45;&gt;Node576 -->
<g id="edge4" class="edge">
<title>Node577&#45;&gt;Node576</title>
<path fill="none" stroke="#191970" d="M288.1988,-23.4583C296.6304,-24.6549 305.3344,-25.8903 313.9203,-27.1089"/>
<polygon fill="#191970" stroke="#191970" points="313.5291,-30.5883 323.9217,-28.5284 314.5128,-23.6578 313.5291,-30.5883"/>
</g>
</g>
</svg>
