<?xml version="1.0" encoding="UTF-8" standalone="no"?>
<!DOCTYPE svg PUBLIC "-//W3C//DTD SVG 1.1//EN"
 "http://www.w3.org/Graphics/SVG/1.1/DTD/svg11.dtd">
<!-- Generated by graphviz version 2.40.1 (20161225.0304)
 -->
<!-- Title: cx::web::APIv3Wrapper::getBroadcastResources Pages: 1 -->
<svg width="484pt" height="168pt"
 viewBox="0.00 0.00 484.26 168.00" xmlns="http://www.w3.org/2000/svg" xmlns:xlink="http://www.w3.org/1999/xlink">
<g id="graph0" class="graph" transform="scale(1 1) rotate(0) translate(4 164)">
<title>cx::web::APIv3Wrapper::getBroadcastResources</title>
<!-- Node19 -->
<g id="node1" class="node">
<title>Node19</title>
<g id="a_node1"><a xlink:title=" ">
<polygon fill="#bfbfbf" stroke="#000000" points="0,-68.5 0,-96.5 128.2803,-96.5 128.2803,-68.5 0,-68.5"/>
<text text-anchor="start" x="8" y="-84.5" font-family="Helvetica,sans-Serif" font-size="10.00" fill="#000000">cx::web::APIv3Wrapper</text>
<text text-anchor="middle" x="64.1401" y="-74.5" font-family="Helvetica,sans-Serif" font-size="10.00" fill="#000000">::getBroadcastResources</text>
</a>
</g>
</g>
<!-- Node20 -->
<g id="node2" class="node">
<title>Node20</title>
<g id="a_node2"><a xlink:href="classcx_1_1toolkit_1_1opt__value.html#ab100bba041da8f782c7588709b385ae9" target="_top" xlink:title=" ">
<polygon fill="none" stroke="#000000" points="180.1128,-131.5 180.1128,-159.5 286.7183,-159.5 286.7183,-131.5 180.1128,-131.5"/>
<text text-anchor="start" x="188.1128" y="-147.5" font-family="Helvetica,sans-Serif" font-size="10.00" fill="#000000">cx::toolkit::opt_value</text>
<text text-anchor="middle" x="233.4155" y="-137.5" font-family="Helvetica,sans-Serif" font-size="10.00" fill="#000000">::is_defined</text>
</a>
</g>
</g>
<!-- Node19&#45;&gt;Node20 -->
<g id="edge1" class="edge">
<title>Node19&#45;&gt;Node20</title>
<path fill="none" stroke="#191970" d="M97.7872,-96.5139C117.131,-104.4259 141.9508,-114.3341 164.2803,-122.5 169.4035,-124.3736 174.7625,-126.2686 180.1326,-128.1247"/>
<polygon fill="#191970" stroke="#191970" points="179.1674,-131.4934 189.7619,-131.4105 181.4281,-124.8685 179.1674,-131.4934"/>
</g>
<!-- Node21 -->
<g id="node3" class="node">
<title>Node21</title>
<g id="a_node3"><a xlink:href="classcx_1_1toolkit_1_1opt__value.html#a372ef35f73cb8a0de9ef24095273d513" target="_top" xlink:title=" ">
<polygon fill="none" stroke="#000000" points="170.3838,-94.5 170.3838,-112.5 296.4473,-112.5 296.4473,-94.5 170.3838,-94.5"/>
<text text-anchor="middle" x="233.4155" y="-100.5" font-family="Helvetica,sans-Serif" font-size="10.00" fill="#000000">cx::toolkit::opt_value::get</text>
</a>
</g>
</g>
<!-- Node19&#45;&gt;Node21 -->
<g id="edge2" class="edge">
<title>Node19&#45;&gt;Node21</title>
<path fill="none" stroke="#191970" d="M128.6188,-90.4991C138.9562,-91.7815 149.7195,-93.1168 160.242,-94.4222"/>
<polygon fill="#191970" stroke="#191970" points="159.8802,-97.9041 170.2351,-95.6619 160.7421,-90.9573 159.8802,-97.9041"/>
</g>
<!-- Node22 -->
<g id="node4" class="node">
<title>Node22</title>
<g id="a_node4"><a xlink:href="classcx_1_1web_1_1_a_p_iv3_wrapper.html#a35f4cbf1d298182aadcfcb8d68c75748" target="_top" xlink:title=" ">
<polygon fill="none" stroke="#000000" points="173.2622,-47.5 173.2622,-75.5 293.5688,-75.5 293.5688,-47.5 173.2622,-47.5"/>
<text text-anchor="start" x="181.2622" y="-63.5" font-family="Helvetica,sans-Serif" font-size="10.00" fill="#000000">cx::web::APIv3Wrapper</text>
<text text-anchor="middle" x="233.4155" y="-53.5" font-family="Helvetica,sans-Serif" font-size="10.00" fill="#000000">::generateSIG</text>
</a>
</g>
</g>
<!-- Node19&#45;&gt;Node22 -->
<g id="edge3" class="edge">
<title>Node19&#45;&gt;Node22</title>
<path fill="none" stroke="#191970" d="M128.6188,-74.5009C139.7781,-73.1165 151.4338,-71.6705 162.747,-70.267"/>
<polygon fill="#191970" stroke="#191970" points="163.5234,-73.6976 173.0164,-68.993 162.6615,-66.7509 163.5234,-73.6976"/>
</g>
<!-- Node23 -->
<g id="node5" class="node">
<title>Node23</title>
<g id="a_node5"><a xlink:href="classcx_1_1_h_t_t_p_request_container.html#a88443e3419255d1d2bb8503829c4bcaa" target="_top" xlink:title=" ">
<polygon fill="none" stroke="#000000" points="164.2803,-.5 164.2803,-28.5 302.5508,-28.5 302.5508,-.5 164.2803,-.5"/>
<text text-anchor="start" x="172.2803" y="-16.5" font-family="Helvetica,sans-Serif" font-size="10.00" fill="#000000">cx::HTTPRequestContainer</text>
<text text-anchor="middle" x="233.4155" y="-6.5" font-family="Helvetica,sans-Serif" font-size="10.00" fill="#000000">::request</text>
</a>
</g>
</g>
<!-- Node19&#45;&gt;Node23 -->
<g id="edge4" class="edge">
<title>Node19&#45;&gt;Node23</title>
<path fill="none" stroke="#191970" d="M94.5537,-68.3808C114.267,-59.4175 140.5937,-47.798 164.2803,-38.5 169.8111,-36.3289 175.6284,-34.1501 181.4428,-32.0389"/>
<polygon fill="#191970" stroke="#191970" points="182.9344,-35.2228 191.1744,-28.563 180.5798,-28.6307 182.9344,-35.2228"/>
</g>
<!-- Node24 -->
<g id="node6" class="node">
<title>Node24</title>
<g id="a_node6"><a xlink:href="structcx_1_1_h_t_t_p_request_1_1_request_params.html#aad683476ac9a2874f8a98a530d2b791b" target="_top" xlink:title=" ">
<polygon fill="none" stroke="#000000" points="338.5508,-.5 338.5508,-28.5 476.2646,-28.5 476.2646,-.5 338.5508,-.5"/>
<text text-anchor="start" x="346.5508" y="-16.5" font-family="Helvetica,sans-Serif" font-size="10.00" fill="#000000">cx::HTTPRequest::Request</text>
<text text-anchor="middle" x="407.4077" y="-6.5" font-family="Helvetica,sans-Serif" font-size="10.00" fill="#000000">Params::start</text>
</a>
</g>
</g>
<!-- Node23&#45;&gt;Node24 -->
<g id="edge5" class="edge">
<title>Node23&#45;&gt;Node24</title>
<path fill="none" stroke="#191970" d="M302.6818,-14.5C311.0361,-14.5 319.6182,-14.5 328.1021,-14.5"/>
<polygon fill="#191970" stroke="#191970" points="328.3798,-18.0001 338.3798,-14.5 328.3797,-11.0001 328.3798,-18.0001"/>
</g>
</g>
</svg>
