<?xml version="1.0" encoding="UTF-8" standalone="no"?>
<!DOCTYPE svg PUBLIC "-//W3C//DTD SVG 1.1//EN"
 "http://www.w3.org/Graphics/SVG/1.1/DTD/svg11.dtd">
<!-- Generated by graphviz version 2.40.1 (20161225.0304)
 -->
<!-- Title: cx::toolkit::opt_value::is_defined Pages: 1 -->
<svg width="285pt" height="141pt"
 viewBox="0.00 0.00 284.73 141.00" xmlns="http://www.w3.org/2000/svg" xmlns:xlink="http://www.w3.org/1999/xlink">
<g id="graph0" class="graph" transform="scale(1 1) rotate(0) translate(4 137)">
<title>cx::toolkit::opt_value::is_defined</title>
<!-- Node24 -->
<g id="node1" class="node">
<title>Node24</title>
<g id="a_node1"><a xlink:title=" ">
<polygon fill="#bfbfbf" stroke="#000000" points="170.125,-47.5 170.125,-75.5 276.7305,-75.5 276.7305,-47.5 170.125,-47.5"/>
<text text-anchor="start" x="178.125" y="-63.5" font-family="Helvetica,sans-Serif" font-size="10.00" fill="#000000">cx::toolkit::opt_value</text>
<text text-anchor="middle" x="223.4277" y="-53.5" font-family="Helvetica,sans-Serif" font-size="10.00" fill="#000000">::is_defined</text>
</a>
</g>
</g>
<!-- Node25 -->
<g id="node2" class="node">
<title>Node25</title>
<g id="a_node2"><a xlink:href="classcx_1_1toolkit_1_1opt__value.html#a372ef35f73cb8a0de9ef24095273d513" target="_top" xlink:title=" ">
<polygon fill="none" stroke="#000000" points="0,-94.5 0,-132.5 134.125,-132.5 134.125,-94.5 0,-94.5"/>
<text text-anchor="start" x="8" y="-120.5" font-family="Helvetica,sans-Serif" font-size="10.00" fill="#000000">cx::toolkit::opt_value</text>
<text text-anchor="start" x="8" y="-110.5" font-family="Helvetica,sans-Serif" font-size="10.00" fill="#000000">&lt; BroadcastResourceType</text>
<text text-anchor="middle" x="67.0625" y="-100.5" font-family="Helvetica,sans-Serif" font-size="10.00" fill="#000000"> &gt;::get</text>
</a>
</g>
</g>
<!-- Node24&#45;&gt;Node25 -->
<g id="edge1" class="edge">
<title>Node24&#45;&gt;Node25</title>
<path fill="none" stroke="#191970" d="M171.4359,-78.7901C156.3451,-83.8086 139.7825,-89.3166 124.3845,-94.4373"/>
<polygon fill="#191970" stroke="#191970" points="172.7285,-82.0488 181.1131,-75.5719 170.5195,-75.4065 172.7285,-82.0488"/>
</g>
<!-- Node26 -->
<g id="node3" class="node">
<title>Node26</title>
<g id="a_node3"><a xlink:href="classcx_1_1web_1_1_a_p_iv3_wrapper.html#a6381ebf52cbeff37e6a4c0a103117f0c" target="_top" xlink:title=" ">
<polygon fill="none" stroke="#000000" points="2.9224,-47.5 2.9224,-75.5 131.2026,-75.5 131.2026,-47.5 2.9224,-47.5"/>
<text text-anchor="start" x="10.9224" y="-63.5" font-family="Helvetica,sans-Serif" font-size="10.00" fill="#000000">cx::web::APIv3Wrapper</text>
<text text-anchor="middle" x="67.0625" y="-53.5" font-family="Helvetica,sans-Serif" font-size="10.00" fill="#000000">::getBroadcastResources</text>
</a>
</g>
</g>
<!-- Node24&#45;&gt;Node26 -->
<g id="edge2" class="edge">
<title>Node24&#45;&gt;Node26</title>
<path fill="none" stroke="#191970" d="M159.9408,-61.5C150.4889,-61.5 140.7397,-61.5 131.273,-61.5"/>
<polygon fill="#191970" stroke="#191970" points="160.0531,-65.0001 170.053,-61.5 160.053,-58.0001 160.0531,-65.0001"/>
</g>
<!-- Node27 -->
<g id="node4" class="node">
<title>Node27</title>
<g id="a_node4"><a xlink:href="classcx_1_1web_1_1_a_p_iv4_wrapper.html#ae9beb6891ec880e15ec9ce8f780de910" target="_top" xlink:title=" ">
<polygon fill="none" stroke="#000000" points="2.9224,-.5 2.9224,-28.5 131.2026,-28.5 131.2026,-.5 2.9224,-.5"/>
<text text-anchor="start" x="10.9224" y="-16.5" font-family="Helvetica,sans-Serif" font-size="10.00" fill="#000000">cx::web::APIv4Wrapper</text>
<text text-anchor="middle" x="67.0625" y="-6.5" font-family="Helvetica,sans-Serif" font-size="10.00" fill="#000000">::getBroadcastResources</text>
</a>
</g>
</g>
<!-- Node24&#45;&gt;Node27 -->
<g id="edge3" class="edge">
<title>Node24&#45;&gt;Node27</title>
<path fill="none" stroke="#191970" d="M166.4959,-44.3875C149.1371,-39.1699 130.2659,-33.4976 113.6745,-28.5106"/>
<polygon fill="#191970" stroke="#191970" points="165.9287,-47.8717 176.513,-47.3985 167.9438,-41.168 165.9287,-47.8717"/>
</g>
</g>
</svg>
