<?xml version="1.0" encoding="UTF-8" standalone="no"?>
<!DOCTYPE svg PUBLIC "-//W3C//DTD SVG 1.1//EN"
 "http://www.w3.org/Graphics/SVG/1.1/DTD/svg11.dtd">
<!-- Generated by graphviz version 2.40.1 (20161225.0304)
 -->
<!-- Title: fs::ScreenSharingController::isRunning Pages: 1 -->
<svg width="362pt" height="225pt"
 viewBox="0.00 0.00 362.26 225.00" xmlns="http://www.w3.org/2000/svg" xmlns:xlink="http://www.w3.org/1999/xlink">
<g id="graph0" class="graph" transform="scale(1 1) rotate(0) translate(4 221)">
<title>fs::ScreenSharingController::isRunning</title>
<!-- Node130 -->
<g id="node1" class="node">
<title>Node130</title>
<g id="a_node1"><a xlink:title=" ">
<polygon fill="#bfbfbf" stroke="#000000" points="215.4277,-94.5 215.4277,-122.5 354.2646,-122.5 354.2646,-94.5 215.4277,-94.5"/>
<text text-anchor="start" x="223.4277" y="-110.5" font-family="Helvetica,sans-Serif" font-size="10.00" fill="#000000">fs::ScreenSharingController</text>
<text text-anchor="middle" x="284.8462" y="-100.5" font-family="Helvetica,sans-Serif" font-size="10.00" fill="#000000">::isRunning</text>
</a>
</g>
</g>
<!-- Node131 -->
<g id="node2" class="node">
<title>Node131</title>
<g id="a_node2"><a xlink:href="classfs_1_1_screen_sharing_controller.html#a90e3b25a4df8b6e7ccd7db4fe607031c" target="_top" xlink:title=" ">
<polygon fill="none" stroke="#000000" points="20.2954,-188.5 20.2954,-216.5 159.1323,-216.5 159.1323,-188.5 20.2954,-188.5"/>
<text text-anchor="start" x="28.2954" y="-204.5" font-family="Helvetica,sans-Serif" font-size="10.00" fill="#000000">fs::ScreenSharingController</text>
<text text-anchor="middle" x="89.7139" y="-194.5" font-family="Helvetica,sans-Serif" font-size="10.00" fill="#000000">::togglePaused</text>
</a>
</g>
</g>
<!-- Node130&#45;&gt;Node131 -->
<g id="edge1" class="edge">
<title>Node130&#45;&gt;Node131</title>
<path fill="none" stroke="#191970" d="M260.1554,-128.7187C239.6586,-144.5882 209.1529,-166.1597 179.4277,-179.5 171.7996,-182.9234 163.5688,-185.905 155.295,-188.4831"/>
<polygon fill="#191970" stroke="#191970" points="262.3366,-131.4561 268.0293,-122.5205 258.0068,-125.9558 262.3366,-131.4561"/>
</g>
<!-- Node132 -->
<g id="node3" class="node">
<title>Node132</title>
<g id="a_node3"><a xlink:href="classfs_1_1_screen_sharing_controller.html#afc3beab906aa182dac6399e410b9566a" target="_top" xlink:title=" ">
<polygon fill="none" stroke="#000000" points="0,-141.5 0,-169.5 179.4277,-169.5 179.4277,-141.5 0,-141.5"/>
<text text-anchor="start" x="8" y="-157.5" font-family="Helvetica,sans-Serif" font-size="10.00" fill="#000000">fs::ScreenSharingController</text>
<text text-anchor="middle" x="89.7139" y="-147.5" font-family="Helvetica,sans-Serif" font-size="10.00" fill="#000000">::requestDisplayConfigurationUpdate</text>
</a>
</g>
</g>
<!-- Node130&#45;&gt;Node132 -->
<g id="edge2" class="edge">
<title>Node130&#45;&gt;Node132</title>
<path fill="none" stroke="#191970" d="M216.7809,-124.8944C194.3648,-130.2935 169.6554,-136.2451 148.0323,-141.4533"/>
<polygon fill="#191970" stroke="#191970" points="217.662,-128.2823 226.5644,-122.5379 216.0228,-121.4769 217.662,-128.2823"/>
</g>
<!-- Node133 -->
<g id="node4" class="node">
<title>Node133</title>
<g id="a_node4"><a xlink:href="classfs_1_1_screen_sharing_controller.html#ae42e6239bfe44a06d6f2f05010a971ee" target="_top" xlink:title=" ">
<polygon fill="none" stroke="#000000" points="14.7241,-94.5 14.7241,-122.5 164.7036,-122.5 164.7036,-94.5 14.7241,-94.5"/>
<text text-anchor="start" x="22.7241" y="-110.5" font-family="Helvetica,sans-Serif" font-size="10.00" fill="#000000">fs::ScreenSharingController</text>
<text text-anchor="middle" x="89.7139" y="-100.5" font-family="Helvetica,sans-Serif" font-size="10.00" fill="#000000">::onAttendeeBroadcastStarted</text>
</a>
</g>
</g>
<!-- Node130&#45;&gt;Node133 -->
<g id="edge3" class="edge">
<title>Node130&#45;&gt;Node133</title>
<path fill="none" stroke="#191970" d="M205.1638,-108.5C191.867,-108.5 178.1114,-108.5 164.9309,-108.5"/>
<polygon fill="#191970" stroke="#191970" points="205.2254,-112.0001 215.2254,-108.5 205.2253,-105.0001 205.2254,-112.0001"/>
</g>
<!-- Node134 -->
<g id="node5" class="node">
<title>Node134</title>
<g id="a_node5"><a xlink:href="classfs_1_1_screen_sharing_controller.html#a85a33dada9b1df2d1f2f406249d19d23" target="_top" xlink:title=" ">
<polygon fill="none" stroke="#000000" points="12.2168,-47.5 12.2168,-75.5 167.2109,-75.5 167.2109,-47.5 12.2168,-47.5"/>
<text text-anchor="start" x="20.2168" y="-63.5" font-family="Helvetica,sans-Serif" font-size="10.00" fill="#000000">fs::ScreenSharingController</text>
<text text-anchor="middle" x="89.7139" y="-53.5" font-family="Helvetica,sans-Serif" font-size="10.00" fill="#000000">::onAttendeeBroadcastStopped</text>
</a>
</g>
</g>
<!-- Node130&#45;&gt;Node134 -->
<g id="edge4" class="edge">
<title>Node130&#45;&gt;Node134</title>
<path fill="none" stroke="#191970" d="M216.7809,-92.1056C194.3648,-86.7065 169.6554,-80.7549 148.0323,-75.5467"/>
<polygon fill="#191970" stroke="#191970" points="216.0228,-95.5231 226.5644,-94.4621 217.662,-88.7177 216.0228,-95.5231"/>
</g>
<!-- Node135 -->
<g id="node6" class="node">
<title>Node135</title>
<g id="a_node6"><a xlink:href="classfs_1_1_screen_sharing_controller.html#a98968642b600bf9c0b82472201ffddf0" target="_top" xlink:title=" ">
<polygon fill="none" stroke="#000000" points="20.2954,-.5 20.2954,-28.5 159.1323,-28.5 159.1323,-.5 20.2954,-.5"/>
<text text-anchor="start" x="28.2954" y="-16.5" font-family="Helvetica,sans-Serif" font-size="10.00" fill="#000000">fs::ScreenSharingController</text>
<text text-anchor="middle" x="89.7139" y="-6.5" font-family="Helvetica,sans-Serif" font-size="10.00" fill="#000000">::captureCursor</text>
</a>
</g>
</g>
<!-- Node130&#45;&gt;Node135 -->
<g id="edge5" class="edge">
<title>Node130&#45;&gt;Node135</title>
<path fill="none" stroke="#191970" d="M259.4293,-88.1797C238.8936,-72.6386 208.6905,-51.7009 179.4277,-38.5 171.0506,-34.7209 161.9562,-31.4349 152.8794,-28.6097"/>
<polygon fill="#191970" stroke="#191970" points="257.5475,-91.1479 267.6076,-94.4715 261.8159,-85.5998 257.5475,-91.1479"/>
</g>
</g>
</svg>
