<?xml version="1.0" encoding="UTF-8" standalone="no"?>
<!DOCTYPE svg PUBLIC "-//W3C//DTD SVG 1.1//EN"
 "http://www.w3.org/Graphics/SVG/1.1/DTD/svg11.dtd">
<!-- Generated by graphviz version 2.40.1 (20161225.0304)
 -->
<!-- Title: fs::VoiceEngineProxy::getNoiseSuppressionStatus Pages: 1 -->
<svg width="446pt" height="37pt"
 viewBox="0.00 0.00 445.97 37.00" xmlns="http://www.w3.org/2000/svg" xmlns:xlink="http://www.w3.org/1999/xlink">
<g id="graph0" class="graph" transform="scale(1 1) rotate(0) translate(4 33)">
<title>fs::VoiceEngineProxy::getNoiseSuppressionStatus</title>
<!-- Node37 -->
<g id="node1" class="node">
<title>Node37</title>
<g id="a_node1"><a xlink:title=" ">
<polygon fill="#bfbfbf" stroke="#000000" points="0,-.5 0,-28.5 144.9648,-28.5 144.9648,-.5 0,-.5"/>
<text text-anchor="start" x="8" y="-16.5" font-family="Helvetica,sans-Serif" font-size="10.00" fill="#000000">fs::VoiceEngineProxy</text>
<text text-anchor="middle" x="72.4824" y="-6.5" font-family="Helvetica,sans-Serif" font-size="10.00" fill="#000000">::getNoiseSuppressionStatus</text>
</a>
</g>
</g>
<!-- Node38 -->
<g id="node2" class="node">
<title>Node38</title>
<g id="a_node2"><a xlink:href="classfs_1_1_voice_engine_proxy.html#ad36b2e002fea4dbbaa14aec99909e9d7" target="_top" xlink:title=" ">
<polygon fill="none" stroke="#000000" points="180.9648,-.5 180.9648,-28.5 291.4668,-28.5 291.4668,-.5 180.9648,-.5"/>
<text text-anchor="start" x="188.9648" y="-16.5" font-family="Helvetica,sans-Serif" font-size="10.00" fill="#000000">fs::VoiceEngineProxy</text>
<text text-anchor="middle" x="236.2158" y="-6.5" font-family="Helvetica,sans-Serif" font-size="10.00" fill="#000000">::dispatch</text>
</a>
</g>
</g>
<!-- Node37&#45;&gt;Node38 -->
<g id="edge1" class="edge">
<title>Node37&#45;&gt;Node38</title>
<path fill="none" stroke="#191970" d="M145.2518,-14.5C153.7526,-14.5 162.3859,-14.5 170.7789,-14.5"/>
<polygon fill="#191970" stroke="#191970" points="170.8724,-18.0001 180.8724,-14.5 170.8723,-11.0001 170.8724,-18.0001"/>
</g>
<!-- Node39 -->
<g id="node3" class="node">
<title>Node39</title>
<g id="a_node3"><a xlink:href="classfs_1_1_voice_engine_proxy.html#a7b9ec98dcc4627121096f416804aa69c" target="_top" xlink:title=" ">
<polygon fill="none" stroke="#000000" points="327.4668,-.5 327.4668,-28.5 437.9688,-28.5 437.9688,-.5 327.4668,-.5"/>
<text text-anchor="start" x="335.4668" y="-16.5" font-family="Helvetica,sans-Serif" font-size="10.00" fill="#000000">fs::VoiceEngineProxy</text>
<text text-anchor="middle" x="382.7178" y="-6.5" font-family="Helvetica,sans-Serif" font-size="10.00" fill="#000000">::ioService</text>
</a>
</g>
</g>
<!-- Node38&#45;&gt;Node39 -->
<g id="edge2" class="edge">
<title>Node38&#45;&gt;Node39</title>
<path fill="none" stroke="#191970" d="M291.6019,-14.5C299.8973,-14.5 308.5181,-14.5 317.0027,-14.5"/>
<polygon fill="#191970" stroke="#191970" points="317.2534,-18.0001 327.2533,-14.5 317.2533,-11.0001 317.2534,-18.0001"/>
</g>
</g>
</svg>
