<?xml version="1.0" encoding="UTF-8" standalone="no"?>
<!DOCTYPE svg PUBLIC "-//W3C//DTD SVG 1.1//EN"
 "http://www.w3.org/Graphics/SVG/1.1/DTD/svg11.dtd">
<!-- Generated by graphviz version 2.40.1 (20161225.0304)
 -->
<!-- Title: cx::details::SubscriptionQueryHelper::getPhoneNumber Pages: 1 -->
<svg width="375pt" height="84pt"
 viewBox="0.00 0.00 375.04 84.00" xmlns="http://www.w3.org/2000/svg" xmlns:xlink="http://www.w3.org/1999/xlink">
<g id="graph0" class="graph" transform="scale(1 1) rotate(0) translate(4 80)">
<title>cx::details::SubscriptionQueryHelper::getPhoneNumber</title>
<!-- Node33 -->
<g id="node1" class="node">
<title>Node33</title>
<g id="a_node1"><a xlink:title=" ">
<polygon fill="#bfbfbf" stroke="#000000" points="210.4131,-23.5 210.4131,-51.5 367.043,-51.5 367.043,-23.5 210.4131,-23.5"/>
<text text-anchor="start" x="218.4131" y="-39.5" font-family="Helvetica,sans-Serif" font-size="10.00" fill="#000000">cx::details::Subscription</text>
<text text-anchor="middle" x="288.728" y="-29.5" font-family="Helvetica,sans-Serif" font-size="10.00" fill="#000000">QueryHelper::getPhoneNumber</text>
</a>
</g>
</g>
<!-- Node34 -->
<g id="node2" class="node">
<title>Node34</title>
<g id="a_node2"><a xlink:href="classcx_1_1details_1_1_subscription_query_helper.html#a57ed35c96c2167ac90c88d869798d4c4" target="_top" xlink:title=" ">
<polygon fill="none" stroke="#000000" points="5.5615,-47.5 5.5615,-75.5 168.8516,-75.5 168.8516,-47.5 5.5615,-47.5"/>
<text text-anchor="start" x="13.5615" y="-63.5" font-family="Helvetica,sans-Serif" font-size="10.00" fill="#000000">cx::details::Subscription</text>
<text text-anchor="middle" x="87.2065" y="-53.5" font-family="Helvetica,sans-Serif" font-size="10.00" fill="#000000">QueryHelper::getFullSubscription</text>
</a>
</g>
</g>
<!-- Node33&#45;&gt;Node34 -->
<g id="edge1" class="edge">
<title>Node33&#45;&gt;Node34</title>
<path fill="none" stroke="#191970" d="M200.0365,-48.0626C189.7627,-49.2862 179.3191,-50.5299 169.1413,-51.7421"/>
<polygon fill="#191970" stroke="#191970" points="200.7216,-51.5059 210.2375,-46.8477 199.8938,-44.555 200.7216,-51.5059"/>
</g>
<!-- Node35 -->
<g id="node3" class="node">
<title>Node35</title>
<g id="a_node3"><a xlink:href="classcx_1_1details_1_1_subscription_query_helper.html#a10fcdbea096ccde2ba79ccccb87cd293" target="_top" xlink:title=" ">
<polygon fill="none" stroke="#000000" points="0,-.5 0,-28.5 174.4131,-28.5 174.4131,-.5 0,-.5"/>
<text text-anchor="start" x="8" y="-16.5" font-family="Helvetica,sans-Serif" font-size="10.00" fill="#000000">cx::details::Subscription</text>
<text text-anchor="middle" x="87.2065" y="-6.5" font-family="Helvetica,sans-Serif" font-size="10.00" fill="#000000">QueryHelper::getPublicSubscription</text>
</a>
</g>
</g>
<!-- Node33&#45;&gt;Node35 -->
<g id="edge2" class="edge">
<title>Node33&#45;&gt;Node35</title>
<path fill="none" stroke="#191970" d="M200.268,-27.4039C191.7157,-26.4278 183.0434,-25.438 174.5025,-24.4632"/>
<polygon fill="#191970" stroke="#191970" points="199.9051,-30.8851 210.2375,-28.5417 200.6989,-23.9303 199.9051,-30.8851"/>
</g>
</g>
</svg>
