<?xml version="1.0" encoding="UTF-8" standalone="no"?>
<!DOCTYPE svg PUBLIC "-//W3C//DTD SVG 1.1//EN"
 "http://www.w3.org/Graphics/SVG/1.1/DTD/svg11.dtd">
<!-- Generated by graphviz version 2.40.1 (20161225.0304)
 -->
<!-- Title: fs::ScreenSharingController::stopScreenSharing Pages: 1 -->
<svg width="349pt" height="131pt"
 viewBox="0.00 0.00 348.94 131.00" xmlns="http://www.w3.org/2000/svg" xmlns:xlink="http://www.w3.org/1999/xlink">
<g id="graph0" class="graph" transform="scale(1 1) rotate(0) translate(4 127)">
<title>fs::ScreenSharingController::stopScreenSharing</title>
<!-- Node311 -->
<g id="node1" class="node">
<title>Node311</title>
<g id="a_node1"><a xlink:title=" ">
<polygon fill="#bfbfbf" stroke="#000000" points="202.1074,-47.5 202.1074,-75.5 340.9443,-75.5 340.9443,-47.5 202.1074,-47.5"/>
<text text-anchor="start" x="210.1074" y="-63.5" font-family="Helvetica,sans-Serif" font-size="10.00" fill="#000000">fs::ScreenSharingController</text>
<text text-anchor="middle" x="271.5259" y="-53.5" font-family="Helvetica,sans-Serif" font-size="10.00" fill="#000000">::stopScreenSharing</text>
</a>
</g>
</g>
<!-- Node312 -->
<g id="node2" class="node">
<title>Node312</title>
<g id="a_node2"><a xlink:href="classfs_1_1_screen_sharing_controller.html#ac13f35c4160d6b4bab246153d8389a0e" target="_top" xlink:title=" ">
<polygon fill="none" stroke="#000000" points="13.6353,-94.5 13.6353,-122.5 152.4722,-122.5 152.4722,-94.5 13.6353,-94.5"/>
<text text-anchor="start" x="21.6353" y="-110.5" font-family="Helvetica,sans-Serif" font-size="10.00" fill="#000000">fs::ScreenSharingController</text>
<text text-anchor="middle" x="83.0537" y="-100.5" font-family="Helvetica,sans-Serif" font-size="10.00" fill="#000000">::disableScreenSharing</text>
</a>
</g>
</g>
<!-- Node311&#45;&gt;Node312 -->
<g id="edge1" class="edge">
<title>Node311&#45;&gt;Node312</title>
<path fill="none" stroke="#191970" d="M205.4924,-77.967C183.9188,-83.3469 160.173,-89.2685 139.3817,-94.4533"/>
<polygon fill="#191970" stroke="#191970" points="206.3773,-81.3536 215.2333,-75.5379 204.6836,-74.5616 206.3773,-81.3536"/>
</g>
<!-- Node313 -->
<g id="node3" class="node">
<title>Node313</title>
<g id="a_node3"><a xlink:href="classfs_1_1_screen_sharing_controller.html#a1a90e070b34064df0d721f97fc236c6c" target="_top" xlink:title=" ">
<polygon fill="none" stroke="#000000" points="4.4507,-47.5 4.4507,-75.5 161.6567,-75.5 161.6567,-47.5 4.4507,-47.5"/>
<text text-anchor="start" x="12.4507" y="-63.5" font-family="Helvetica,sans-Serif" font-size="10.00" fill="#000000">fs::ScreenSharingController</text>
<text text-anchor="middle" x="83.0537" y="-53.5" font-family="Helvetica,sans-Serif" font-size="10.00" fill="#000000">::onAttendeeBroadcastRevoked</text>
</a>
</g>
</g>
<!-- Node311&#45;&gt;Node313 -->
<g id="edge2" class="edge">
<title>Node311&#45;&gt;Node313</title>
<path fill="none" stroke="#191970" d="M191.7092,-61.5C181.8554,-61.5 171.7861,-61.5 161.9462,-61.5"/>
<polygon fill="#191970" stroke="#191970" points="191.8813,-65.0001 201.8813,-61.5 191.8812,-58.0001 191.8813,-65.0001"/>
</g>
<!-- Node314 -->
<g id="node4" class="node">
<title>Node314</title>
<g id="a_node4"><a xlink:href="classfs_1_1_screen_sharing_controller.html#ac1c08f9109bd64e3767d3e70b459fd8e" target="_top" xlink:title=" ">
<polygon fill="none" stroke="#000000" points="0,-.5 0,-28.5 166.1074,-28.5 166.1074,-.5 0,-.5"/>
<text text-anchor="start" x="8" y="-16.5" font-family="Helvetica,sans-Serif" font-size="10.00" fill="#000000">fs::ScreenSharingController</text>
<text text-anchor="middle" x="83.0537" y="-6.5" font-family="Helvetica,sans-Serif" font-size="10.00" fill="#000000">::onAttendeeSubConferenceEnter</text>
</a>
</g>
</g>
<!-- Node311&#45;&gt;Node314 -->
<g id="edge3" class="edge">
<title>Node311&#45;&gt;Node314</title>
<path fill="none" stroke="#191970" d="M205.4924,-45.033C183.9188,-39.6531 160.173,-33.7315 139.3817,-28.5467"/>
<polygon fill="#191970" stroke="#191970" points="204.6836,-48.4384 215.2333,-47.4621 206.3773,-41.6464 204.6836,-48.4384"/>
</g>
</g>
</svg>
