<?xml version="1.0" encoding="UTF-8" standalone="no"?>
<!DOCTYPE svg PUBLIC "-//W3C//DTD SVG 1.1//EN"
 "http://www.w3.org/Graphics/SVG/1.1/DTD/svg11.dtd">
<!-- Generated by graphviz version 2.40.1 (20161225.0304)
 -->
<!-- Title: fs::MeetingClient::cacheAttribute Pages: 1 -->
<svg width="300pt" height="84pt"
 viewBox="0.00 0.00 300.01 84.00" xmlns="http://www.w3.org/2000/svg" xmlns:xlink="http://www.w3.org/1999/xlink">
<g id="graph0" class="graph" transform="scale(1 1) rotate(0) translate(4 80)">
<title>fs::MeetingClient::cacheAttribute</title>
<!-- Node8 -->
<g id="node1" class="node">
<title>Node8</title>
<g id="a_node1"><a xlink:title=" ">
<polygon fill="#bfbfbf" stroke="#000000" points="0,-23.5 0,-51.5 96.0342,-51.5 96.0342,-23.5 0,-23.5"/>
<text text-anchor="start" x="8" y="-39.5" font-family="Helvetica,sans-Serif" font-size="10.00" fill="#000000">fs::MeetingClient::</text>
<text text-anchor="middle" x="48.0171" y="-29.5" font-family="Helvetica,sans-Serif" font-size="10.00" fill="#000000">cacheAttribute</text>
</a>
</g>
</g>
<!-- Node9 -->
<g id="node2" class="node">
<title>Node9</title>
<g id="a_node2"><a xlink:href="classfs_1_1_meeting_client.html#a5ef4c7116f43372f2916b36b924c8120" target="_top" xlink:title=" ">
<polygon fill="none" stroke="#000000" points="159.5439,-47.5 159.5439,-75.5 264.499,-75.5 264.499,-47.5 159.5439,-47.5"/>
<text text-anchor="start" x="167.5439" y="-63.5" font-family="Helvetica,sans-Serif" font-size="10.00" fill="#000000">fs::MeetingClient::</text>
<text text-anchor="middle" x="212.0215" y="-53.5" font-family="Helvetica,sans-Serif" font-size="10.00" fill="#000000">onAttributeChanged</text>
</a>
</g>
</g>
<!-- Node8&#45;&gt;Node9 -->
<g id="edge1" class="edge">
<title>Node8&#45;&gt;Node9</title>
<path fill="none" stroke="#191970" d="M96.3368,-44.571C112.9236,-46.9983 131.7359,-49.7512 149.2976,-52.3211"/>
<polygon fill="#191970" stroke="#191970" points="149.0654,-55.8244 159.4669,-53.8093 150.0791,-48.8981 149.0654,-55.8244"/>
</g>
<!-- Node10 -->
<g id="node3" class="node">
<title>Node10</title>
<g id="a_node3"><a xlink:href="classfs_1_1_meeting_client.html#a40d7135e01dc3c70625c21251d013857" target="_top" xlink:title=" ">
<polygon fill="none" stroke="#000000" points="132.0342,-.5 132.0342,-28.5 292.0088,-28.5 292.0088,-.5 132.0342,-.5"/>
<text text-anchor="start" x="140.0342" y="-16.5" font-family="Helvetica,sans-Serif" font-size="10.00" fill="#000000">fs::MeetingClient::</text>
<text text-anchor="middle" x="212.0215" y="-6.5" font-family="Helvetica,sans-Serif" font-size="10.00" fill="#000000">getSessionNotificationsDelegate</text>
</a>
</g>
</g>
<!-- Node8&#45;&gt;Node10 -->
<g id="edge2" class="edge">
<title>Node8&#45;&gt;Node10</title>
<path fill="none" stroke="#191970" d="M96.3368,-30.7236C104.4375,-29.5876 113.0691,-28.3771 121.8266,-27.149"/>
<polygon fill="#191970" stroke="#191970" points="122.3289,-30.6128 131.7459,-25.7579 121.3567,-23.6807 122.3289,-30.6128"/>
</g>
</g>
</svg>
