<?xml version="1.0" encoding="UTF-8" standalone="no"?>
<!DOCTYPE svg PUBLIC "-//W3C//DTD SVG 1.1//EN"
 "http://www.w3.org/Graphics/SVG/1.1/DTD/svg11.dtd">
<!-- Generated by graphviz version 2.40.1 (20161225.0304)
 -->
<!-- Title: fs::VoiceEngineProxy::dispatch Pages: 1 -->
<svg width="523pt" height="329pt"
 viewBox="0.00 0.00 523.21 329.00" xmlns="http://www.w3.org/2000/svg" xmlns:xlink="http://www.w3.org/1999/xlink">
<g id="graph0" class="graph" transform="scale(1 1) rotate(0) translate(4 325)">
<title>fs::VoiceEngineProxy::dispatch</title>
<!-- Node6 -->
<g id="node1" class="node">
<title>Node6</title>
<g id="a_node1"><a xlink:title=" ">
<polygon fill="#bfbfbf" stroke="#000000" points="404.708,-151.5 404.708,-179.5 515.21,-179.5 515.21,-151.5 404.708,-151.5"/>
<text text-anchor="start" x="412.708" y="-167.5" font-family="Helvetica,sans-Serif" font-size="10.00" fill="#000000">fs::VoiceEngineProxy</text>
<text text-anchor="middle" x="459.959" y="-157.5" font-family="Helvetica,sans-Serif" font-size="10.00" fill="#000000">::dispatch</text>
</a>
</g>
</g>
<!-- Node7 -->
<g id="node2" class="node">
<title>Node7</title>
<g id="a_node2"><a xlink:href="classfs_1_1_voice_engine_proxy.html#a35125d48346b4e9d7ef85216d5726dd0" target="_top" xlink:title=" ">
<polygon fill="none" stroke="#000000" points="219.2974,-292.5 219.2974,-320.5 348.7104,-320.5 348.7104,-292.5 219.2974,-292.5"/>
<text text-anchor="start" x="227.2974" y="-308.5" font-family="Helvetica,sans-Serif" font-size="10.00" fill="#000000">fs::VoiceEngineProxy</text>
<text text-anchor="middle" x="284.0039" y="-298.5" font-family="Helvetica,sans-Serif" font-size="10.00" fill="#000000">::enableEchoCancellation</text>
</a>
</g>
</g>
<!-- Node6&#45;&gt;Node7 -->
<g id="edge1" class="edge">
<title>Node6&#45;&gt;Node7</title>
<path fill="none" stroke="#191970" d="M448.1734,-188.5955C433.2858,-215.4404 405.1502,-259.161 368.708,-283.5 362.6256,-287.5623 355.8462,-290.9099 348.845,-293.6679"/>
<polygon fill="#191970" stroke="#191970" points="451.392,-190.0004 453.0498,-179.5361 445.2282,-186.6826 451.392,-190.0004"/>
</g>
<!-- Node8 -->
<g id="node3" class="node">
<title>Node8</title>
<g id="a_node3"><a xlink:href="classfs_1_1_voice_engine_proxy.html#a3aa521361bda9e9e8f55221b72543133" target="_top" xlink:title=" ">
<polygon fill="none" stroke="#000000" points="213.1865,-245.5 213.1865,-273.5 354.8213,-273.5 354.8213,-245.5 213.1865,-245.5"/>
<text text-anchor="start" x="221.1865" y="-261.5" font-family="Helvetica,sans-Serif" font-size="10.00" fill="#000000">fs::VoiceEngineProxy</text>
<text text-anchor="middle" x="284.0039" y="-251.5" font-family="Helvetica,sans-Serif" font-size="10.00" fill="#000000">::getEchoCancellationStatus</text>
</a>
</g>
</g>
<!-- Node6&#45;&gt;Node8 -->
<g id="edge2" class="edge">
<title>Node6&#45;&gt;Node8</title>
<path fill="none" stroke="#191970" d="M438.3039,-186.4102C420.8081,-202.2451 394.8702,-223.4341 368.708,-236.5 361.8918,-239.9042 354.5069,-242.856 347.0356,-245.4022"/>
<polygon fill="#191970" stroke="#191970" points="440.7487,-188.9166 445.7189,-179.5599 435.9986,-183.7749 440.7487,-188.9166"/>
</g>
<!-- Node9 -->
<g id="node4" class="node">
<title>Node9</title>
<g id="a_node4"><a xlink:href="classfs_1_1_voice_engine_proxy.html#a62a4896e3c095dd388b30a94d34dcb6f" target="_top" xlink:title=" ">
<polygon fill="none" stroke="#000000" points="209.2998,-198.5 209.2998,-226.5 358.708,-226.5 358.708,-198.5 209.2998,-198.5"/>
<text text-anchor="start" x="217.2998" y="-214.5" font-family="Helvetica,sans-Serif" font-size="10.00" fill="#000000">fs::VoiceEngineProxy</text>
<text text-anchor="middle" x="284.0039" y="-204.5" font-family="Helvetica,sans-Serif" font-size="10.00" fill="#000000">::enableAutomaticGainControl</text>
</a>
</g>
</g>
<!-- Node6&#45;&gt;Node9 -->
<g id="edge3" class="edge">
<title>Node6&#45;&gt;Node9</title>
<path fill="none" stroke="#191970" d="M397.2609,-182.2475C377.3548,-187.5647 355.5618,-193.3859 336.4556,-198.4894"/>
<polygon fill="#191970" stroke="#191970" points="398.4086,-185.5637 407.1667,-179.6015 396.6021,-178.8008 398.4086,-185.5637"/>
</g>
<!-- Node10 -->
<g id="node5" class="node">
<title>Node10</title>
<g id="a_node5"><a xlink:href="classfs_1_1_voice_engine_proxy.html#a4cfd63ff93724589b8e37452e41e08c7" target="_top" xlink:title=" ">
<polygon fill="none" stroke="#000000" points="217.6323,-151.5 217.6323,-179.5 350.3755,-179.5 350.3755,-151.5 217.6323,-151.5"/>
<text text-anchor="start" x="225.6323" y="-167.5" font-family="Helvetica,sans-Serif" font-size="10.00" fill="#000000">fs::VoiceEngineProxy</text>
<text text-anchor="middle" x="284.0039" y="-157.5" font-family="Helvetica,sans-Serif" font-size="10.00" fill="#000000">::enableNoiseSuppression</text>
</a>
</g>
</g>
<!-- Node6&#45;&gt;Node10 -->
<g id="edge4" class="edge">
<title>Node6&#45;&gt;Node10</title>
<path fill="none" stroke="#191970" d="M394.0634,-165.5C379.7915,-165.5 364.6907,-165.5 350.3996,-165.5"/>
<polygon fill="#191970" stroke="#191970" points="394.2857,-169.0001 404.2857,-165.5 394.2857,-162.0001 394.2857,-169.0001"/>
</g>
<!-- Node11 -->
<g id="node6" class="node">
<title>Node11</title>
<g id="a_node6"><a xlink:href="classfs_1_1_voice_engine_proxy.html#a9665327d7b769034b950746a95fcbf0c" target="_top" xlink:title=" ">
<polygon fill="none" stroke="#000000" points="199.2998,-94.5 199.2998,-132.5 368.708,-132.5 368.708,-94.5 199.2998,-94.5"/>
<text text-anchor="start" x="207.2998" y="-120.5" font-family="Helvetica,sans-Serif" font-size="10.00" fill="#000000">fs::VoiceEngineProxy</text>
<text text-anchor="start" x="207.2998" y="-110.5" font-family="Helvetica,sans-Serif" font-size="10.00" fill="#000000">::getAutomaticReceiveGainControl</text>
<text text-anchor="middle" x="284.0039" y="-100.5" font-family="Helvetica,sans-Serif" font-size="10.00" fill="#000000">Status</text>
</a>
</g>
</g>
<!-- Node6&#45;&gt;Node11 -->
<g id="edge5" class="edge">
<title>Node6&#45;&gt;Node11</title>
<path fill="none" stroke="#191970" d="M402.422,-148.4961C385.1826,-143.4013 366.1645,-137.7809 348.5074,-132.5627"/>
<polygon fill="#191970" stroke="#191970" points="401.7611,-151.9503 412.343,-151.4281 403.745,-145.2374 401.7611,-151.9503"/>
</g>
<!-- Node13 -->
<g id="node8" class="node">
<title>Node13</title>
<g id="a_node8"><a xlink:href="classfs_1_1_voice_engine_proxy.html#a28478540189bd2a5212a83e3f0429183" target="_top" xlink:title=" ">
<polygon fill="none" stroke="#000000" points="211.5215,-47.5 211.5215,-75.5 356.4863,-75.5 356.4863,-47.5 211.5215,-47.5"/>
<text text-anchor="start" x="219.5215" y="-63.5" font-family="Helvetica,sans-Serif" font-size="10.00" fill="#000000">fs::VoiceEngineProxy</text>
<text text-anchor="middle" x="284.0039" y="-53.5" font-family="Helvetica,sans-Serif" font-size="10.00" fill="#000000">::getNoiseSuppressionStatus</text>
</a>
</g>
</g>
<!-- Node6&#45;&gt;Node13 -->
<g id="edge7" class="edge">
<title>Node6&#45;&gt;Node13</title>
<path fill="none" stroke="#191970" d="M440.2692,-143.483C423.0376,-125.4734 396.4772,-100.5965 368.708,-85.5 361.591,-81.6309 353.7902,-78.3351 345.894,-75.5412"/>
<polygon fill="#191970" stroke="#191970" points="438.1137,-146.3021 447.5009,-151.2146 443.226,-141.5204 438.1137,-146.3021"/>
</g>
<!-- Node15 -->
<g id="node10" class="node">
<title>Node15</title>
<g id="a_node10"><a xlink:href="classfs_1_1_voice_engine_proxy.html#a782561b87f7d6efd0bc4ea5c0520cf22" target="_top" xlink:title=" ">
<polygon fill="none" stroke="#000000" points="228.7529,-.5 228.7529,-28.5 339.2549,-28.5 339.2549,-.5 228.7529,-.5"/>
<text text-anchor="start" x="236.7529" y="-16.5" font-family="Helvetica,sans-Serif" font-size="10.00" fill="#000000">fs::VoiceEngineProxy</text>
<text text-anchor="middle" x="284.0039" y="-6.5" font-family="Helvetica,sans-Serif" font-size="10.00" fill="#000000">::isStarted</text>
</a>
</g>
</g>
<!-- Node6&#45;&gt;Node15 -->
<g id="edge9" class="edge">
<title>Node6&#45;&gt;Node15</title>
<path fill="none" stroke="#191970" d="M449.2164,-141.9919C434.9032,-113.2942 406.8765,-65.2864 368.708,-38.5 359.9503,-32.3539 349.6488,-27.7745 339.3026,-24.3646"/>
<polygon fill="#191970" stroke="#191970" points="446.1983,-143.7906 453.7014,-151.2709 452.5007,-140.7443 446.1983,-143.7906"/>
</g>
<!-- Node12 -->
<g id="node7" class="node">
<title>Node12</title>
<g id="a_node7"><a xlink:href="classfs_1_1_voice_engine_proxy.html#acfac21822c454ff4e9f353fb5dffa892" target="_top" xlink:title=" ">
<polygon fill="none" stroke="#000000" points="0,-99.5 0,-127.5 163.2998,-127.5 163.2998,-99.5 0,-99.5"/>
<text text-anchor="start" x="8" y="-115.5" font-family="Helvetica,sans-Serif" font-size="10.00" fill="#000000">fs::VoiceEngineProxy</text>
<text text-anchor="middle" x="81.6499" y="-105.5" font-family="Helvetica,sans-Serif" font-size="10.00" fill="#000000">::isAutomaticGainControlEnabled</text>
</a>
</g>
</g>
<!-- Node11&#45;&gt;Node12 -->
<g id="edge6" class="edge">
<title>Node11&#45;&gt;Node12</title>
<path fill="none" stroke="#191970" d="M189.0631,-113.5C180.5053,-113.5 171.8877,-113.5 163.4566,-113.5"/>
<polygon fill="#191970" stroke="#191970" points="189.0672,-117.0001 199.0671,-113.5 189.0671,-110.0001 189.0672,-117.0001"/>
</g>
<!-- Node14 -->
<g id="node9" class="node">
<title>Node14</title>
<g id="a_node9"><a xlink:href="classfs_1_1_voice_engine_proxy.html#a9ce88a5d37b1a444705547d301b75340" target="_top" xlink:title=" ">
<polygon fill="none" stroke="#000000" points="8.3325,-47.5 8.3325,-75.5 154.9673,-75.5 154.9673,-47.5 8.3325,-47.5"/>
<text text-anchor="start" x="16.3325" y="-63.5" font-family="Helvetica,sans-Serif" font-size="10.00" fill="#000000">fs::VoiceEngineProxy</text>
<text text-anchor="middle" x="81.6499" y="-53.5" font-family="Helvetica,sans-Serif" font-size="10.00" fill="#000000">::isNoiseSuppressionEnabled</text>
</a>
</g>
</g>
<!-- Node13&#45;&gt;Node14 -->
<g id="edge8" class="edge">
<title>Node13&#45;&gt;Node14</title>
<path fill="none" stroke="#191970" d="M201.5,-61.5C186.0957,-61.5 170.0931,-61.5 154.9882,-61.5"/>
<polygon fill="#191970" stroke="#191970" points="201.5211,-65.0001 211.521,-61.5 201.521,-58.0001 201.5211,-65.0001"/>
</g>
</g>
</svg>
