<?xml version="1.0" encoding="UTF-8" standalone="no"?>
<!DOCTYPE svg PUBLIC "-//W3C//DTD SVG 1.1//EN"
 "http://www.w3.org/Graphics/SVG/1.1/DTD/svg11.dtd">
<!-- Generated by graphviz version 2.40.1 (20161225.0304)
 -->
<!-- Title: fs::IDelegatesGetter::getPresentationBroadcasterDelegate Pages: 1 -->
<svg width="478pt" height="47pt"
 viewBox="0.00 0.00 477.63 47.00" xmlns="http://www.w3.org/2000/svg" xmlns:xlink="http://www.w3.org/1999/xlink">
<g id="graph0" class="graph" transform="scale(1 1) rotate(0) translate(4 43)">
<title>fs::IDelegatesGetter::getPresentationBroadcasterDelegate</title>
<!-- Node15 -->
<g id="node1" class="node">
<title>Node15</title>
<g id="a_node1"><a xlink:title=" ">
<polygon fill="#bfbfbf" stroke="#000000" points="324.1074,-.5 324.1074,-38.5 469.6289,-38.5 469.6289,-.5 324.1074,-.5"/>
<text text-anchor="start" x="332.1074" y="-26.5" font-family="Helvetica,sans-Serif" font-size="10.00" fill="#000000">fs::IDelegatesGetter</text>
<text text-anchor="start" x="332.1074" y="-16.5" font-family="Helvetica,sans-Serif" font-size="10.00" fill="#000000">::getPresentationBroadcaster</text>
<text text-anchor="middle" x="396.8682" y="-6.5" font-family="Helvetica,sans-Serif" font-size="10.00" fill="#000000">Delegate</text>
</a>
</g>
</g>
<!-- Node16 -->
<g id="node2" class="node">
<title>Node16</title>
<g id="a_node2"><a xlink:href="classfs_1_1_meeting_client_session.html#a5f7fdbdd34d2719f4d0ebf5a8ec139c9" target="_top" xlink:title=" ">
<polygon fill="none" stroke="#000000" points="162.0537,-5.5 162.0537,-33.5 288.1074,-33.5 288.1074,-5.5 162.0537,-5.5"/>
<text text-anchor="start" x="170.0537" y="-21.5" font-family="Helvetica,sans-Serif" font-size="10.00" fill="#000000">fs::MeetingClientSession</text>
<text text-anchor="middle" x="225.0806" y="-11.5" font-family="Helvetica,sans-Serif" font-size="10.00" fill="#000000">::configureDelegates</text>
</a>
</g>
</g>
<!-- Node15&#45;&gt;Node16 -->
<g id="edge1" class="edge">
<title>Node15&#45;&gt;Node16</title>
<path fill="none" stroke="#191970" d="M313.9241,-19.5C305.2951,-19.5 296.6262,-19.5 288.2666,-19.5"/>
<polygon fill="#191970" stroke="#191970" points="314.0148,-23.0001 324.0148,-19.5 314.0147,-16.0001 314.0148,-23.0001"/>
</g>
<!-- Node17 -->
<g id="node3" class="node">
<title>Node17</title>
<g id="a_node3"><a xlink:href="classfs_1_1_meeting_client_session.html#a9e7c4897c38348a6068a28c1deb3dbc4" target="_top" xlink:title=" ">
<polygon fill="none" stroke="#000000" points="0,-5.5 0,-33.5 126.0537,-33.5 126.0537,-5.5 0,-5.5"/>
<text text-anchor="start" x="8" y="-21.5" font-family="Helvetica,sans-Serif" font-size="10.00" fill="#000000">fs::MeetingClientSession</text>
<text text-anchor="middle" x="63.0269" y="-11.5" font-family="Helvetica,sans-Serif" font-size="10.00" fill="#000000">::setDelegatesProvider</text>
</a>
</g>
</g>
<!-- Node16&#45;&gt;Node17 -->
<g id="edge2" class="edge">
<title>Node16&#45;&gt;Node17</title>
<path fill="none" stroke="#191970" d="M151.6826,-19.5C143.1884,-19.5 134.5814,-19.5 126.2394,-19.5"/>
<polygon fill="#191970" stroke="#191970" points="151.9624,-23.0001 161.9623,-19.5 151.9623,-16.0001 151.9624,-23.0001"/>
</g>
</g>
</svg>
