<?xml version="1.0" encoding="UTF-8" standalone="no"?>
<!DOCTYPE svg PUBLIC "-//W3C//DTD SVG 1.1//EN"
 "http://www.w3.org/Graphics/SVG/1.1/DTD/svg11.dtd">
<!-- Generated by graphviz version 2.40.1 (20161225.0304)
 -->
<!-- Title: fs::FSDropPkt Pages: 1 -->
<svg width="153pt" height="467pt"
 viewBox="0.00 0.00 153.49 467.00" xmlns="http://www.w3.org/2000/svg" xmlns:xlink="http://www.w3.org/1999/xlink">
<g id="graph0" class="graph" transform="scale(1 1) rotate(0) translate(4 463)">
<title>fs::FSDropPkt</title>
<!-- Node2 -->
<g id="node1" class="node">
<title>Node2</title>
<g id="a_node1"><a xlink:title=" ">
<polygon fill="#bfbfbf" stroke="#000000" points="32.6563,-.5 32.6563,-74.5 112.8359,-74.5 112.8359,-.5 32.6563,-.5"/>
<text text-anchor="middle" x="72.7461" y="-62.5" font-family="Helvetica,sans-Serif" font-size="10.00" fill="#000000">fs::FSDropPkt</text>
<polyline fill="none" stroke="#000000" points="32.6563,-56.5 112.8359,-56.5 "/>
<text text-anchor="middle" x="72.7461" y="-44.5" font-family="Helvetica,sans-Serif" font-size="10.00" fill="#000000"> </text>
<polyline fill="none" stroke="#000000" points="32.6563,-38.5 112.8359,-38.5 "/>
<text text-anchor="start" x="40.6563" y="-26.5" font-family="Helvetica,sans-Serif" font-size="10.00" fill="#000000">+ FSDropPkt()</text>
<text text-anchor="start" x="40.6563" y="-16.5" font-family="Helvetica,sans-Serif" font-size="10.00" fill="#000000">+ userID()</text>
<text text-anchor="start" x="40.6563" y="-6.5" font-family="Helvetica,sans-Serif" font-size="10.00" fill="#000000">+ setUserID()</text>
</a>
</g>
</g>
<!-- Node3 -->
<g id="node2" class="node">
<title>Node3</title>
<g id="a_node2"><a xlink:href="classfs_1_1_f_s_packet.html" target="_top" xlink:title=" ">
<polygon fill="none" stroke="#000000" points="32.5122,-112.5 32.5122,-226.5 112.98,-226.5 112.98,-112.5 32.5122,-112.5"/>
<text text-anchor="middle" x="72.7461" y="-214.5" font-family="Helvetica,sans-Serif" font-size="10.00" fill="#000000">fs::FSPacket</text>
<polyline fill="none" stroke="#000000" points="32.5122,-208.5 112.98,-208.5 "/>
<text text-anchor="start" x="40.5122" y="-196.5" font-family="Helvetica,sans-Serif" font-size="10.00" fill="#000000"># m_iType</text>
<polyline fill="none" stroke="#000000" points="32.5122,-190.5 112.98,-190.5 "/>
<text text-anchor="start" x="40.5122" y="-178.5" font-family="Helvetica,sans-Serif" font-size="10.00" fill="#000000">+ FSPacket()</text>
<text text-anchor="start" x="40.5122" y="-168.5" font-family="Helvetica,sans-Serif" font-size="10.00" fill="#000000">+ ~FSPacket()</text>
<text text-anchor="start" x="40.5122" y="-158.5" font-family="Helvetica,sans-Serif" font-size="10.00" fill="#000000">+ type()</text>
<text text-anchor="start" x="40.5122" y="-148.5" font-family="Helvetica,sans-Serif" font-size="10.00" fill="#000000">+ serialize()</text>
<text text-anchor="start" x="40.5122" y="-138.5" font-family="Helvetica,sans-Serif" font-size="10.00" fill="#000000">+ entry()</text>
<text text-anchor="start" x="40.5122" y="-128.5" font-family="Helvetica,sans-Serif" font-size="10.00" fill="#000000">+ setEntry()</text>
<text text-anchor="start" x="40.5122" y="-118.5" font-family="Helvetica,sans-Serif" font-size="10.00" fill="#000000">+ deserialize()</text>
</a>
</g>
</g>
<!-- Node3&#45;&gt;Node2 -->
<g id="edge1" class="edge">
<title>Node3&#45;&gt;Node2</title>
<path fill="none" stroke="#191970" d="M72.7461,-102.0951C72.7461,-92.6053 72.7461,-83.1543 72.7461,-74.5272"/>
<polygon fill="none" stroke="#191970" points="69.2462,-102.3706 72.7461,-112.3706 76.2462,-102.3706 69.2462,-102.3706"/>
</g>
<!-- Node4 -->
<g id="node3" class="node">
<title>Node4</title>
<g id="a_node3"><a xlink:title=" ">
<polygon fill="none" stroke="#bfbfbf" points="0,-273.5 0,-327.5 145.4922,-327.5 145.4922,-273.5 0,-273.5"/>
<text text-anchor="middle" x="72.7461" y="-315.5" font-family="Helvetica,sans-Serif" font-size="10.00" fill="#000000">std::vector&lt; FSPktStream * &gt;</text>
<polyline fill="none" stroke="#bfbfbf" points="0,-309.5 145.4922,-309.5 "/>
<text text-anchor="middle" x="72.7461" y="-297.5" font-family="Helvetica,sans-Serif" font-size="10.00" fill="#000000"> </text>
<polyline fill="none" stroke="#bfbfbf" points="0,-291.5 145.4922,-291.5 "/>
<text text-anchor="middle" x="72.7461" y="-279.5" font-family="Helvetica,sans-Serif" font-size="10.00" fill="#000000"> </text>
</a>
</g>
</g>
<!-- Node4&#45;&gt;Node3 -->
<g id="edge2" class="edge">
<title>Node4&#45;&gt;Node3</title>
<path fill="none" stroke="#404040" d="M72.7461,-273.3567C72.7461,-263.1832 72.7461,-251.1036 72.7461,-238.8438"/>
<polygon fill="none" stroke="#404040" points="72.7462,-238.5878 68.7461,-232.5879 72.7461,-226.5878 76.7461,-232.5878 72.7462,-238.5878"/>
<text text-anchor="middle" x="101.9233" y="-247" font-family="Helvetica,sans-Serif" font-size="10.00" fill="#000000"> #m_xEntries</text>
</g>
<!-- Node5 -->
<g id="node4" class="node">
<title>Node5</title>
<g id="a_node4"><a xlink:href="classfs_1_1_f_s_pkt_stream.html" target="_top" xlink:title=" ">
<polygon fill="none" stroke="#000000" points="24.458,-374.5 24.458,-458.5 121.0342,-458.5 121.0342,-374.5 24.458,-374.5"/>
<text text-anchor="middle" x="72.7461" y="-446.5" font-family="Helvetica,sans-Serif" font-size="10.00" fill="#000000">fs::FSPktStream</text>
<polyline fill="none" stroke="#000000" points="24.458,-440.5 121.0342,-440.5 "/>
<text text-anchor="start" x="32.458" y="-428.5" font-family="Helvetica,sans-Serif" font-size="10.00" fill="#000000"># m_pxObj</text>
<polyline fill="none" stroke="#000000" points="24.458,-422.5 121.0342,-422.5 "/>
<text text-anchor="start" x="32.458" y="-410.5" font-family="Helvetica,sans-Serif" font-size="10.00" fill="#000000">+ ~FSPktStream()</text>
<text text-anchor="start" x="32.458" y="-400.5" font-family="Helvetica,sans-Serif" font-size="10.00" fill="#000000">+ read()</text>
<text text-anchor="start" x="32.458" y="-390.5" font-family="Helvetica,sans-Serif" font-size="10.00" fill="#000000">+ write()</text>
<text text-anchor="start" x="32.458" y="-380.5" font-family="Helvetica,sans-Serif" font-size="10.00" fill="#000000">+ object()</text>
</a>
</g>
</g>
<!-- Node5&#45;&gt;Node4 -->
<g id="edge3" class="edge">
<title>Node5&#45;&gt;Node4</title>
<path fill="none" stroke="#404040" d="M72.7461,-374.2932C72.7461,-362.9972 72.7461,-350.8361 72.7461,-339.7094"/>
<polygon fill="none" stroke="#404040" points="72.7462,-339.6877 68.7461,-333.6877 72.7461,-327.6877 76.7461,-333.6877 72.7462,-339.6877"/>
<text text-anchor="middle" x="97.3433" y="-348" font-family="Helvetica,sans-Serif" font-size="10.00" fill="#000000"> +elements</text>
</g>
</g>
</svg>
