<?xml version="1.0" encoding="UTF-8" standalone="no"?>
<!DOCTYPE svg PUBLIC "-//W3C//DTD SVG 1.1//EN"
 "http://www.w3.org/Graphics/SVG/1.1/DTD/svg11.dtd">
<!-- Generated by graphviz version 2.40.1 (20161225.0304)
 -->
<!-- Title: fs::ScreenSharingController::isActive Pages: 1 -->
<svg width="537pt" height="225pt"
 viewBox="0.00 0.00 537.10 225.00" xmlns="http://www.w3.org/2000/svg" xmlns:xlink="http://www.w3.org/1999/xlink">
<g id="graph0" class="graph" transform="scale(1 1) rotate(0) translate(4 221)">
<title>fs::ScreenSharingController::isActive</title>
<!-- Node89 -->
<g id="node1" class="node">
<title>Node89</title>
<g id="a_node1"><a xlink:title=" ">
<polygon fill="#bfbfbf" stroke="#000000" points="390.2646,-70.5 390.2646,-98.5 529.1016,-98.5 529.1016,-70.5 390.2646,-70.5"/>
<text text-anchor="start" x="398.2646" y="-86.5" font-family="Helvetica,sans-Serif" font-size="10.00" fill="#000000">fs::ScreenSharingController</text>
<text text-anchor="middle" x="459.6831" y="-76.5" font-family="Helvetica,sans-Serif" font-size="10.00" fill="#000000">::isActive</text>
</a>
</g>
</g>
<!-- Node90 -->
<g id="node2" class="node">
<title>Node90</title>
<g id="a_node2"><a xlink:href="classfs_1_1_screen_sharing_controller.html#a52b62b9e4e991919927cb0ca0065962b" target="_top" xlink:title=" ">
<polygon fill="none" stroke="#000000" points="215.4277,-94.5 215.4277,-122.5 354.2646,-122.5 354.2646,-94.5 215.4277,-94.5"/>
<text text-anchor="start" x="223.4277" y="-110.5" font-family="Helvetica,sans-Serif" font-size="10.00" fill="#000000">fs::ScreenSharingController</text>
<text text-anchor="middle" x="284.8462" y="-100.5" font-family="Helvetica,sans-Serif" font-size="10.00" fill="#000000">::isRunning</text>
</a>
</g>
</g>
<!-- Node89&#45;&gt;Node90 -->
<g id="edge1" class="edge">
<title>Node89&#45;&gt;Node90</title>
<path fill="none" stroke="#191970" d="M380.1118,-95.4228C371.5636,-96.5962 362.9144,-97.7835 354.4949,-98.9393"/>
<polygon fill="#191970" stroke="#191970" points="380.6495,-98.8819 390.0806,-94.0544 379.6975,-91.947 380.6495,-98.8819"/>
</g>
<!-- Node96 -->
<g id="node8" class="node">
<title>Node96</title>
<g id="a_node8"><a xlink:href="classfs_1_1_screen_sharing_controller.html#a322f183cd1d718d6af3574098b602e83" target="_top" xlink:title=" ">
<polygon fill="none" stroke="#000000" points="215.4277,-47.5 215.4277,-75.5 354.2646,-75.5 354.2646,-47.5 215.4277,-47.5"/>
<text text-anchor="start" x="223.4277" y="-63.5" font-family="Helvetica,sans-Serif" font-size="10.00" fill="#000000">fs::ScreenSharingController</text>
<text text-anchor="middle" x="284.8462" y="-53.5" font-family="Helvetica,sans-Serif" font-size="10.00" fill="#000000">::isPaused</text>
</a>
</g>
</g>
<!-- Node89&#45;&gt;Node96 -->
<g id="edge7" class="edge">
<title>Node89&#45;&gt;Node96</title>
<path fill="none" stroke="#191970" d="M380.1118,-74.0323C371.5636,-72.9078 362.9144,-71.77 354.4949,-70.6624"/>
<polygon fill="#191970" stroke="#191970" points="379.7095,-77.5094 390.0806,-75.3437 380.6225,-70.5692 379.7095,-77.5094"/>
</g>
<!-- Node91 -->
<g id="node3" class="node">
<title>Node91</title>
<g id="a_node3"><a xlink:href="classfs_1_1_screen_sharing_controller.html#a90e3b25a4df8b6e7ccd7db4fe607031c" target="_top" xlink:title=" ">
<polygon fill="none" stroke="#000000" points="20.2954,-188.5 20.2954,-216.5 159.1323,-216.5 159.1323,-188.5 20.2954,-188.5"/>
<text text-anchor="start" x="28.2954" y="-204.5" font-family="Helvetica,sans-Serif" font-size="10.00" fill="#000000">fs::ScreenSharingController</text>
<text text-anchor="middle" x="89.7139" y="-194.5" font-family="Helvetica,sans-Serif" font-size="10.00" fill="#000000">::togglePaused</text>
</a>
</g>
</g>
<!-- Node90&#45;&gt;Node91 -->
<g id="edge2" class="edge">
<title>Node90&#45;&gt;Node91</title>
<path fill="none" stroke="#191970" d="M260.1554,-128.7187C239.6586,-144.5882 209.1529,-166.1597 179.4277,-179.5 171.7996,-182.9234 163.5688,-185.905 155.295,-188.4831"/>
<polygon fill="#191970" stroke="#191970" points="262.3366,-131.4561 268.0293,-122.5205 258.0068,-125.9558 262.3366,-131.4561"/>
</g>
<!-- Node92 -->
<g id="node4" class="node">
<title>Node92</title>
<g id="a_node4"><a xlink:href="classfs_1_1_screen_sharing_controller.html#afc3beab906aa182dac6399e410b9566a" target="_top" xlink:title=" ">
<polygon fill="none" stroke="#000000" points="0,-141.5 0,-169.5 179.4277,-169.5 179.4277,-141.5 0,-141.5"/>
<text text-anchor="start" x="8" y="-157.5" font-family="Helvetica,sans-Serif" font-size="10.00" fill="#000000">fs::ScreenSharingController</text>
<text text-anchor="middle" x="89.7139" y="-147.5" font-family="Helvetica,sans-Serif" font-size="10.00" fill="#000000">::requestDisplayConfigurationUpdate</text>
</a>
</g>
</g>
<!-- Node90&#45;&gt;Node92 -->
<g id="edge3" class="edge">
<title>Node90&#45;&gt;Node92</title>
<path fill="none" stroke="#191970" d="M216.7809,-124.8944C194.3648,-130.2935 169.6554,-136.2451 148.0323,-141.4533"/>
<polygon fill="#191970" stroke="#191970" points="217.662,-128.2823 226.5644,-122.5379 216.0228,-121.4769 217.662,-128.2823"/>
</g>
<!-- Node93 -->
<g id="node5" class="node">
<title>Node93</title>
<g id="a_node5"><a xlink:href="classfs_1_1_screen_sharing_controller.html#ae42e6239bfe44a06d6f2f05010a971ee" target="_top" xlink:title=" ">
<polygon fill="none" stroke="#000000" points="14.7241,-94.5 14.7241,-122.5 164.7036,-122.5 164.7036,-94.5 14.7241,-94.5"/>
<text text-anchor="start" x="22.7241" y="-110.5" font-family="Helvetica,sans-Serif" font-size="10.00" fill="#000000">fs::ScreenSharingController</text>
<text text-anchor="middle" x="89.7139" y="-100.5" font-family="Helvetica,sans-Serif" font-size="10.00" fill="#000000">::onAttendeeBroadcastStarted</text>
</a>
</g>
</g>
<!-- Node90&#45;&gt;Node93 -->
<g id="edge4" class="edge">
<title>Node90&#45;&gt;Node93</title>
<path fill="none" stroke="#191970" d="M205.1638,-108.5C191.867,-108.5 178.1114,-108.5 164.9309,-108.5"/>
<polygon fill="#191970" stroke="#191970" points="205.2254,-112.0001 215.2254,-108.5 205.2253,-105.0001 205.2254,-112.0001"/>
</g>
<!-- Node94 -->
<g id="node6" class="node">
<title>Node94</title>
<g id="a_node6"><a xlink:href="classfs_1_1_screen_sharing_controller.html#a85a33dada9b1df2d1f2f406249d19d23" target="_top" xlink:title=" ">
<polygon fill="none" stroke="#000000" points="12.2168,-47.5 12.2168,-75.5 167.2109,-75.5 167.2109,-47.5 12.2168,-47.5"/>
<text text-anchor="start" x="20.2168" y="-63.5" font-family="Helvetica,sans-Serif" font-size="10.00" fill="#000000">fs::ScreenSharingController</text>
<text text-anchor="middle" x="89.7139" y="-53.5" font-family="Helvetica,sans-Serif" font-size="10.00" fill="#000000">::onAttendeeBroadcastStopped</text>
</a>
</g>
</g>
<!-- Node90&#45;&gt;Node94 -->
<g id="edge5" class="edge">
<title>Node90&#45;&gt;Node94</title>
<path fill="none" stroke="#191970" d="M216.7809,-92.1056C194.3648,-86.7065 169.6554,-80.7549 148.0323,-75.5467"/>
<polygon fill="#191970" stroke="#191970" points="216.0228,-95.5231 226.5644,-94.4621 217.662,-88.7177 216.0228,-95.5231"/>
</g>
<!-- Node95 -->
<g id="node7" class="node">
<title>Node95</title>
<g id="a_node7"><a xlink:href="classfs_1_1_screen_sharing_controller.html#a98968642b600bf9c0b82472201ffddf0" target="_top" xlink:title=" ">
<polygon fill="none" stroke="#000000" points="20.2954,-.5 20.2954,-28.5 159.1323,-28.5 159.1323,-.5 20.2954,-.5"/>
<text text-anchor="start" x="28.2954" y="-16.5" font-family="Helvetica,sans-Serif" font-size="10.00" fill="#000000">fs::ScreenSharingController</text>
<text text-anchor="middle" x="89.7139" y="-6.5" font-family="Helvetica,sans-Serif" font-size="10.00" fill="#000000">::captureCursor</text>
</a>
</g>
</g>
<!-- Node90&#45;&gt;Node95 -->
<g id="edge6" class="edge">
<title>Node90&#45;&gt;Node95</title>
<path fill="none" stroke="#191970" d="M222.0963,-89.7624C219.7878,-88.4328 217.5547,-87.0138 215.4277,-85.5 193.9905,-70.2426 201.3024,-53.1234 179.4277,-38.5 173.262,-34.3781 166.4155,-30.9627 159.3318,-28.1328"/>
<polygon fill="#191970" stroke="#191970" points="220.8105,-93.0355 231.3091,-94.4597 223.9901,-86.7993 220.8105,-93.0355"/>
</g>
</g>
</svg>
