<?xml version="1.0" encoding="UTF-8" standalone="no"?>
<!DOCTYPE svg PUBLIC "-//W3C//DTD SVG 1.1//EN"
 "http://www.w3.org/Graphics/SVG/1.1/DTD/svg11.dtd">
<!-- Generated by graphviz version 2.40.1 (20161225.0304)
 -->
<!-- Title: fs::ScreenSharingController::handleAttendeeDropped Pages: 1 -->
<svg width="322pt" height="225pt"
 viewBox="0.00 0.00 321.67 225.00" xmlns="http://www.w3.org/2000/svg" xmlns:xlink="http://www.w3.org/1999/xlink">
<g id="graph0" class="graph" transform="scale(1 1) rotate(0) translate(4 221)">
<title>fs::ScreenSharingController::handleAttendeeDropped</title>
<!-- Node77 -->
<g id="node1" class="node">
<title>Node77</title>
<g id="a_node1"><a xlink:title=" ">
<polygon fill="#bfbfbf" stroke="#000000" points="0,-94.5 0,-122.5 138.8369,-122.5 138.8369,-94.5 0,-94.5"/>
<text text-anchor="start" x="8" y="-110.5" font-family="Helvetica,sans-Serif" font-size="10.00" fill="#000000">fs::ScreenSharingController</text>
<text text-anchor="middle" x="69.4185" y="-100.5" font-family="Helvetica,sans-Serif" font-size="10.00" fill="#000000">::handleAttendeeDropped</text>
</a>
</g>
</g>
<!-- Node78 -->
<g id="node2" class="node">
<title>Node78</title>
<g id="a_node2"><a xlink:href="classfs_1_1_screen_sharing_controller.html#a2d72cac3855bd476bf5d61e6e342c079" target="_top" xlink:title=" ">
<polygon fill="none" stroke="#000000" points="174.8369,-188.5 174.8369,-216.5 313.6738,-216.5 313.6738,-188.5 174.8369,-188.5"/>
<text text-anchor="start" x="182.8369" y="-204.5" font-family="Helvetica,sans-Serif" font-size="10.00" fill="#000000">fs::ScreenSharingController</text>
<text text-anchor="middle" x="244.2554" y="-194.5" font-family="Helvetica,sans-Serif" font-size="10.00" fill="#000000">::getPromotedAttendeeId</text>
</a>
</g>
</g>
<!-- Node77&#45;&gt;Node78 -->
<g id="edge1" class="edge">
<title>Node77&#45;&gt;Node78</title>
<path fill="none" stroke="#191970" d="M87.1533,-122.671C107.392,-138.2975 141.9559,-163.3591 174.8369,-179.5 178.6193,-181.3567 182.5876,-183.1186 186.6302,-184.779"/>
<polygon fill="#191970" stroke="#191970" points="185.5557,-188.1162 196.1448,-188.4659 188.085,-181.5891 185.5557,-188.1162"/>
</g>
<!-- Node79 -->
<g id="node3" class="node">
<title>Node79</title>
<g id="a_node3"><a xlink:href="classfs_1_1_screen_sharing_controller.html#a1099e31f1e66a059b03ec205d466cbbc" target="_top" xlink:title=" ">
<polygon fill="none" stroke="#000000" points="174.8369,-141.5 174.8369,-169.5 313.6738,-169.5 313.6738,-141.5 174.8369,-141.5"/>
<text text-anchor="start" x="182.8369" y="-157.5" font-family="Helvetica,sans-Serif" font-size="10.00" fill="#000000">fs::ScreenSharingController</text>
<text text-anchor="middle" x="244.2554" y="-147.5" font-family="Helvetica,sans-Serif" font-size="10.00" fill="#000000">::isPresenter</text>
</a>
</g>
</g>
<!-- Node77&#45;&gt;Node79 -->
<g id="edge2" class="edge">
<title>Node77&#45;&gt;Node79</title>
<path fill="none" stroke="#191970" d="M121.8753,-122.6015C140.8917,-127.7136 162.5507,-133.536 182.3079,-138.8472"/>
<polygon fill="#191970" stroke="#191970" points="181.5712,-142.2733 192.137,-141.4894 183.3885,-135.5133 181.5712,-142.2733"/>
</g>
<!-- Node80 -->
<g id="node4" class="node">
<title>Node80</title>
<g id="a_node4"><a xlink:href="classfs_1_1_screen_sharing_controller.html#af3820fa110e9ee3579a100f59f3488cc" target="_top" xlink:title=" ">
<polygon fill="none" stroke="#000000" points="174.8369,-94.5 174.8369,-122.5 313.6738,-122.5 313.6738,-94.5 174.8369,-94.5"/>
<text text-anchor="start" x="182.8369" y="-110.5" font-family="Helvetica,sans-Serif" font-size="10.00" fill="#000000">fs::ScreenSharingController</text>
<text text-anchor="middle" x="244.2554" y="-100.5" font-family="Helvetica,sans-Serif" font-size="10.00" fill="#000000">::getPresenterId</text>
</a>
</g>
</g>
<!-- Node77&#45;&gt;Node80 -->
<g id="edge3" class="edge">
<title>Node77&#45;&gt;Node80</title>
<path fill="none" stroke="#191970" d="M139.021,-108.5C147.3482,-108.5 155.9006,-108.5 164.3584,-108.5"/>
<polygon fill="#191970" stroke="#191970" points="164.6067,-112.0001 174.6067,-108.5 164.6066,-105.0001 164.6067,-112.0001"/>
</g>
<!-- Node81 -->
<g id="node5" class="node">
<title>Node81</title>
<g id="a_node5"><a xlink:href="classfs_1_1_screen_sharing_controller.html#a7be66af119d6a03f27097bc91008a7df" target="_top" xlink:title=" ">
<polygon fill="none" stroke="#000000" points="174.8369,-47.5 174.8369,-75.5 313.6738,-75.5 313.6738,-47.5 174.8369,-47.5"/>
<text text-anchor="start" x="182.8369" y="-63.5" font-family="Helvetica,sans-Serif" font-size="10.00" fill="#000000">fs::ScreenSharingController</text>
<text text-anchor="middle" x="244.2554" y="-53.5" font-family="Helvetica,sans-Serif" font-size="10.00" fill="#000000">::getDirectorId</text>
</a>
</g>
</g>
<!-- Node77&#45;&gt;Node81 -->
<g id="edge4" class="edge">
<title>Node77&#45;&gt;Node81</title>
<path fill="none" stroke="#191970" d="M121.8753,-94.3985C140.8917,-89.2864 162.5507,-83.464 182.3079,-78.1528"/>
<polygon fill="#191970" stroke="#191970" points="183.3885,-81.4867 192.137,-75.5106 181.5712,-74.7267 183.3885,-81.4867"/>
</g>
<!-- Node82 -->
<g id="node6" class="node">
<title>Node82</title>
<g id="a_node6"><a xlink:href="classfs_1_1_screen_sharing_controller.html#a6ba792dbde7a050876e21c134740dc5a" target="_top" xlink:title=" ">
<polygon fill="none" stroke="#000000" points="174.8369,-.5 174.8369,-28.5 313.6738,-28.5 313.6738,-.5 174.8369,-.5"/>
<text text-anchor="start" x="182.8369" y="-16.5" font-family="Helvetica,sans-Serif" font-size="10.00" fill="#000000">fs::ScreenSharingController</text>
<text text-anchor="middle" x="244.2554" y="-6.5" font-family="Helvetica,sans-Serif" font-size="10.00" fill="#000000">::setDirectorId</text>
</a>
</g>
</g>
<!-- Node77&#45;&gt;Node82 -->
<g id="edge5" class="edge">
<title>Node77&#45;&gt;Node82</title>
<path fill="none" stroke="#191970" d="M87.5941,-94.3475C107.9463,-79.0092 142.3479,-54.5771 174.8369,-38.5 179.3639,-36.2599 184.1518,-34.1384 189.0116,-32.1524"/>
<polygon fill="#191970" stroke="#191970" points="190.3433,-35.39 198.3961,-28.505 187.8074,-28.8655 190.3433,-35.39"/>
</g>
</g>
</svg>
