<?xml version="1.0" encoding="UTF-8" standalone="no"?>
<!DOCTYPE svg PUBLIC "-//W3C//DTD SVG 1.1//EN"
 "http://www.w3.org/Graphics/SVG/1.1/DTD/svg11.dtd">
<!-- Generated by graphviz version 2.40.1 (20161225.0304)
 -->
<!-- Title: fs::IBroadcasterRecordingNotificationsDelegate Pages: 1 -->
<svg width="199pt" height="305pt"
 viewBox="0.00 0.00 199.08 305.00" xmlns="http://www.w3.org/2000/svg" xmlns:xlink="http://www.w3.org/1999/xlink">
<g id="graph0" class="graph" transform="scale(1 1) rotate(0) translate(4 301)">
<title>fs::IBroadcasterRecordingNotificationsDelegate</title>
<!-- Node7 -->
<g id="node1" class="node">
<title>Node7</title>
<g id="a_node1"><a xlink:title=" ">
<polygon fill="#bfbfbf" stroke="#000000" points="1.9409,-.5 1.9409,-74.5 189.1421,-74.5 189.1421,-.5 1.9409,-.5"/>
<text text-anchor="start" x="9.9409" y="-62.5" font-family="Helvetica,sans-Serif" font-size="10.00" fill="#000000">fs::IBroadcasterRecording</text>
<text text-anchor="middle" x="95.5415" y="-52.5" font-family="Helvetica,sans-Serif" font-size="10.00" fill="#000000">NotificationsDelegate</text>
<polyline fill="none" stroke="#000000" points="1.9409,-46.5 189.1421,-46.5 "/>
<text text-anchor="middle" x="95.5415" y="-34.5" font-family="Helvetica,sans-Serif" font-size="10.00" fill="#000000"> </text>
<polyline fill="none" stroke="#000000" points="1.9409,-28.5 189.1421,-28.5 "/>
<text text-anchor="start" x="9.9409" y="-16.5" font-family="Helvetica,sans-Serif" font-size="10.00" fill="#000000">+ ~IBroadcasterRecordingNotifications</text>
<text text-anchor="start" x="9.9409" y="-6.5" font-family="Helvetica,sans-Serif" font-size="10.00" fill="#000000">Delegate()</text>
</a>
</g>
</g>
<!-- Node8 -->
<g id="node2" class="node">
<title>Node8</title>
<g id="a_node2"><a xlink:href="classfs_1_1_broadcaster_recording_notifications.html" target="_top" xlink:title=" ">
<polygon fill="none" stroke="#000000" points="0,-111.5 0,-195.5 191.083,-195.5 191.083,-111.5 0,-111.5"/>
<text text-anchor="start" x="8" y="-183.5" font-family="Helvetica,sans-Serif" font-size="10.00" fill="#000000">fs::BroadcasterRecording</text>
<text text-anchor="middle" x="95.5415" y="-173.5" font-family="Helvetica,sans-Serif" font-size="10.00" fill="#000000">Notifications</text>
<polyline fill="none" stroke="#000000" points="0,-167.5 191.083,-167.5 "/>
<text text-anchor="middle" x="95.5415" y="-155.5" font-family="Helvetica,sans-Serif" font-size="10.00" fill="#000000"> </text>
<polyline fill="none" stroke="#000000" points="0,-149.5 191.083,-149.5 "/>
<text text-anchor="start" x="8" y="-137.5" font-family="Helvetica,sans-Serif" font-size="10.00" fill="#000000">+ ~BroadcasterRecordingNotifications()</text>
<text text-anchor="start" x="8" y="-127.5" font-family="Helvetica,sans-Serif" font-size="10.00" fill="#000000">+ ABSTRACT_METHOD()</text>
<text text-anchor="start" x="8" y="-117.5" font-family="Helvetica,sans-Serif" font-size="10.00" fill="#000000">+ ABSTRACT_METHOD()</text>
</a>
</g>
</g>
<!-- Node8&#45;&gt;Node7 -->
<g id="edge1" class="edge">
<title>Node8&#45;&gt;Node7</title>
<path fill="none" stroke="#191970" d="M95.5415,-101.0572C95.5415,-92.2275 95.5415,-83.2244 95.5415,-74.8766"/>
<polygon fill="none" stroke="#191970" points="92.0416,-101.2932 95.5415,-111.2932 99.0416,-101.2932 92.0416,-101.2932"/>
</g>
<!-- Node9 -->
<g id="node3" class="node">
<title>Node9</title>
<g id="a_node3"><a xlink:href="classfs_1_1_broadcaster_notifications.html" target="_top" xlink:title=" ">
<polygon fill="none" stroke="#000000" points="22.7905,-232.5 22.7905,-296.5 168.2925,-296.5 168.2925,-232.5 22.7905,-232.5"/>
<text text-anchor="middle" x="95.5415" y="-284.5" font-family="Helvetica,sans-Serif" font-size="10.00" fill="#000000">fs::BroadcasterNotifications</text>
<polyline fill="none" stroke="#000000" points="22.7905,-278.5 168.2925,-278.5 "/>
<text text-anchor="middle" x="95.5415" y="-266.5" font-family="Helvetica,sans-Serif" font-size="10.00" fill="#000000"> </text>
<polyline fill="none" stroke="#000000" points="22.7905,-260.5 168.2925,-260.5 "/>
<text text-anchor="start" x="30.7905" y="-248.5" font-family="Helvetica,sans-Serif" font-size="10.00" fill="#000000">+ ~BroadcasterNotifications()</text>
<text text-anchor="start" x="30.7905" y="-238.5" font-family="Helvetica,sans-Serif" font-size="10.00" fill="#000000">+ ABSTRACT_METHOD()</text>
</a>
</g>
</g>
<!-- Node9&#45;&gt;Node8 -->
<g id="edge2" class="edge">
<title>Node9&#45;&gt;Node8</title>
<path fill="none" stroke="#191970" d="M95.5415,-222.1673C95.5415,-213.5509 95.5415,-204.4852 95.5415,-195.8676"/>
<polygon fill="none" stroke="#191970" points="92.0416,-222.3942 95.5415,-232.3942 99.0416,-222.3942 92.0416,-222.3942"/>
</g>
</g>
</svg>
