<?xml version="1.0" encoding="UTF-8" standalone="no"?>
<!DOCTYPE svg PUBLIC "-//W3C//DTD SVG 1.1//EN"
 "http://www.w3.org/Graphics/SVG/1.1/DTD/svg11.dtd">
<!-- Generated by graphviz version 2.40.1 (20161225.0304)
 -->
<!-- Title: fs::ScreenSharingController::togglePaused Pages: 1 -->
<svg width="497pt" height="107pt"
 viewBox="0.00 0.00 496.51 107.00" xmlns="http://www.w3.org/2000/svg" xmlns:xlink="http://www.w3.org/1999/xlink">
<g id="graph0" class="graph" transform="scale(1 1) rotate(0) translate(4 103)">
<title>fs::ScreenSharingController::togglePaused</title>
<!-- Node315 -->
<g id="node1" class="node">
<title>Node315</title>
<g id="a_node1"><a xlink:title=" ">
<polygon fill="#bfbfbf" stroke="#000000" points="0,-23.5 0,-51.5 138.8369,-51.5 138.8369,-23.5 0,-23.5"/>
<text text-anchor="start" x="8" y="-39.5" font-family="Helvetica,sans-Serif" font-size="10.00" fill="#000000">fs::ScreenSharingController</text>
<text text-anchor="middle" x="69.4185" y="-29.5" font-family="Helvetica,sans-Serif" font-size="10.00" fill="#000000">::togglePaused</text>
</a>
</g>
</g>
<!-- Node316 -->
<g id="node2" class="node">
<title>Node316</title>
<g id="a_node2"><a xlink:href="classfs_1_1_screen_sharing_controller.html#a52b62b9e4e991919927cb0ca0065962b" target="_top" xlink:title=" ">
<polygon fill="none" stroke="#000000" points="174.8369,-47.5 174.8369,-75.5 313.6738,-75.5 313.6738,-47.5 174.8369,-47.5"/>
<text text-anchor="start" x="182.8369" y="-63.5" font-family="Helvetica,sans-Serif" font-size="10.00" fill="#000000">fs::ScreenSharingController</text>
<text text-anchor="middle" x="244.2554" y="-53.5" font-family="Helvetica,sans-Serif" font-size="10.00" fill="#000000">::isRunning</text>
</a>
</g>
</g>
<!-- Node315&#45;&gt;Node316 -->
<g id="edge1" class="edge">
<title>Node315&#45;&gt;Node316</title>
<path fill="none" stroke="#191970" d="M139.021,-47.0544C147.4397,-48.21 156.0886,-49.3973 164.6372,-50.5708"/>
<polygon fill="#191970" stroke="#191970" points="164.2236,-54.0467 174.6067,-51.9393 165.1756,-47.1117 164.2236,-54.0467"/>
</g>
<!-- Node319 -->
<g id="node5" class="node">
<title>Node319</title>
<g id="a_node5"><a xlink:href="classfs_1_1_screen_sharing_controller.html#a87176aa6a4d83670e3c14ca2beaa4ede" target="_top" xlink:title=" ">
<polygon fill="none" stroke="#000000" points="174.8369,-.5 174.8369,-28.5 313.6738,-28.5 313.6738,-.5 174.8369,-.5"/>
<text text-anchor="start" x="182.8369" y="-16.5" font-family="Helvetica,sans-Serif" font-size="10.00" fill="#000000">fs::ScreenSharingController</text>
<text text-anchor="middle" x="244.2554" y="-6.5" font-family="Helvetica,sans-Serif" font-size="10.00" fill="#000000">::startCapturing</text>
</a>
</g>
</g>
<!-- Node315&#45;&gt;Node319 -->
<g id="edge4" class="edge">
<title>Node315&#45;&gt;Node319</title>
<path fill="none" stroke="#191970" d="M139.021,-28.3437C147.4397,-27.2362 156.0886,-26.0984 164.6372,-24.9739"/>
<polygon fill="#191970" stroke="#191970" points="165.1486,-28.4368 174.6067,-23.6624 164.2356,-21.4966 165.1486,-28.4368"/>
</g>
<!-- Node317 -->
<g id="node3" class="node">
<title>Node317</title>
<g id="a_node3"><a xlink:href="classfs_1_1_screen_sharing_controller.html#ad106f544261381323ae3ebfdc9544b8e" target="_top" xlink:title=" ">
<polygon fill="none" stroke="#000000" points="349.6738,-70.5 349.6738,-98.5 488.5107,-98.5 488.5107,-70.5 349.6738,-70.5"/>
<text text-anchor="start" x="357.6738" y="-86.5" font-family="Helvetica,sans-Serif" font-size="10.00" fill="#000000">fs::ScreenSharingController</text>
<text text-anchor="middle" x="419.0923" y="-76.5" font-family="Helvetica,sans-Serif" font-size="10.00" fill="#000000">::isActive</text>
</a>
</g>
</g>
<!-- Node316&#45;&gt;Node317 -->
<g id="edge2" class="edge">
<title>Node316&#45;&gt;Node317</title>
<path fill="none" stroke="#191970" d="M313.8579,-70.6563C322.2766,-71.7638 330.9255,-72.9016 339.4741,-74.0261"/>
<polygon fill="#191970" stroke="#191970" points="339.0725,-77.5034 349.4436,-75.3376 339.9855,-70.5632 339.0725,-77.5034"/>
</g>
<!-- Node318 -->
<g id="node4" class="node">
<title>Node318</title>
<g id="a_node4"><a xlink:href="classfs_1_1_screen_sharing_controller.html#a1099e31f1e66a059b03ec205d466cbbc" target="_top" xlink:title=" ">
<polygon fill="none" stroke="#000000" points="349.6738,-23.5 349.6738,-51.5 488.5107,-51.5 488.5107,-23.5 349.6738,-23.5"/>
<text text-anchor="start" x="357.6738" y="-39.5" font-family="Helvetica,sans-Serif" font-size="10.00" fill="#000000">fs::ScreenSharingController</text>
<text text-anchor="middle" x="419.0923" y="-29.5" font-family="Helvetica,sans-Serif" font-size="10.00" fill="#000000">::isPresenter</text>
</a>
</g>
</g>
<!-- Node316&#45;&gt;Node318 -->
<g id="edge3" class="edge">
<title>Node316&#45;&gt;Node318</title>
<path fill="none" stroke="#191970" d="M313.8579,-51.9456C322.2766,-50.79 330.9255,-49.6027 339.4741,-48.4292"/>
<polygon fill="#191970" stroke="#191970" points="340.0125,-51.8883 349.4436,-47.0607 339.0605,-44.9533 340.0125,-51.8883"/>
</g>
</g>
</svg>
