<?xml version="1.0" encoding="UTF-8" standalone="no"?>
<!DOCTYPE svg PUBLIC "-//W3C//DTD SVG 1.1//EN"
 "http://www.w3.org/Graphics/SVG/1.1/DTD/svg11.dtd">
<!-- Generated by graphviz version 2.40.1 (20161225.0304)
 -->
<!-- Title: cx::meeting::RawRTMessagesFeature Pages: 1 -->
<svg width="159pt" height="174pt"
 viewBox="0.00 0.00 159.42 174.00" xmlns="http://www.w3.org/2000/svg" xmlns:xlink="http://www.w3.org/1999/xlink">
<g id="graph0" class="graph" transform="scale(1 1) rotate(0) translate(4 170)">
<title>cx::meeting::RawRTMessagesFeature</title>
<!-- Node4 -->
<g id="node1" class="node">
<title>Node4</title>
<g id="a_node1"><a xlink:title=" ">
<polygon fill="#bfbfbf" stroke="#000000" points="0,-.5 0,-64.5 151.4248,-64.5 151.4248,-.5 0,-.5"/>
<text text-anchor="start" x="8" y="-52.5" font-family="Helvetica,sans-Serif" font-size="10.00" fill="#000000">cx::meeting::RawRTMessages</text>
<text text-anchor="middle" x="75.7124" y="-42.5" font-family="Helvetica,sans-Serif" font-size="10.00" fill="#000000">Feature</text>
<polyline fill="none" stroke="#000000" points="0,-36.5 151.4248,-36.5 "/>
<text text-anchor="middle" x="75.7124" y="-24.5" font-family="Helvetica,sans-Serif" font-size="10.00" fill="#000000"> </text>
<polyline fill="none" stroke="#000000" points="0,-18.5 151.4248,-18.5 "/>
<text text-anchor="start" x="8" y="-6.5" font-family="Helvetica,sans-Serif" font-size="10.00" fill="#000000">+ ABSTRACT_METHOD()</text>
</a>
</g>
</g>
<!-- Node5 -->
<g id="node2" class="node">
<title>Node5</title>
<g id="a_node2"><a xlink:href="group__group__meeting_client.html#classcx_1_1meeting_1_1_meeting_feature" target="_top" xlink:title=" ">
<polygon fill="none" stroke="#000000" points="4.3481,-101.5 4.3481,-165.5 147.0767,-165.5 147.0767,-101.5 4.3481,-101.5"/>
<text text-anchor="middle" x="75.7124" y="-153.5" font-family="Helvetica,sans-Serif" font-size="10.00" fill="#000000">cx::meeting::MeetingFeature</text>
<polyline fill="none" stroke="#000000" points="4.3481,-147.5 147.0767,-147.5 "/>
<text text-anchor="middle" x="75.7124" y="-135.5" font-family="Helvetica,sans-Serif" font-size="10.00" fill="#000000"> </text>
<polyline fill="none" stroke="#000000" points="4.3481,-129.5 147.0767,-129.5 "/>
<text text-anchor="start" x="12.3481" y="-117.5" font-family="Helvetica,sans-Serif" font-size="10.00" fill="#000000">+ ABSTRACT_METHOD()</text>
<text text-anchor="start" x="12.3481" y="-107.5" font-family="Helvetica,sans-Serif" font-size="10.00" fill="#000000">+ ABSTRACT_METHOD()</text>
</a>
</g>
</g>
<!-- Node5&#45;&gt;Node4 -->
<g id="edge1" class="edge">
<title>Node5&#45;&gt;Node4</title>
<path fill="none" stroke="#191970" d="M75.7124,-91.1361C75.7124,-82.3176 75.7124,-73.1592 75.7124,-64.7749"/>
<polygon fill="none" stroke="#191970" points="72.2125,-91.2652 75.7124,-101.2653 79.2125,-91.2653 72.2125,-91.2652"/>
</g>
</g>
</svg>
