<?xml version="1.0" encoding="UTF-8" standalone="no"?>
<!DOCTYPE svg PUBLIC "-//W3C//DTD SVG 1.1//EN"
 "http://www.w3.org/Graphics/SVG/1.1/DTD/svg11.dtd">
<!-- Generated by graphviz version 2.40.1 (20161225.0304)
 -->
<!-- Title: fs::FSScreenBlocksPkt::setFlags Pages: 1 -->
<svg width="475pt" height="37pt"
 viewBox="0.00 0.00 475.37 37.00" xmlns="http://www.w3.org/2000/svg" xmlns:xlink="http://www.w3.org/1999/xlink">
<g id="graph0" class="graph" transform="scale(1 1) rotate(0) translate(4 33)">
<title>fs::FSScreenBlocksPkt::setFlags</title>
<!-- Node14 -->
<g id="node1" class="node">
<title>Node14</title>
<g id="a_node1"><a xlink:title=" ">
<polygon fill="#bfbfbf" stroke="#000000" points="349.6738,-.5 349.6738,-28.5 467.373,-28.5 467.373,-.5 349.6738,-.5"/>
<text text-anchor="start" x="357.6738" y="-16.5" font-family="Helvetica,sans-Serif" font-size="10.00" fill="#000000">fs::FSScreenBlocksPkt</text>
<text text-anchor="middle" x="408.5234" y="-6.5" font-family="Helvetica,sans-Serif" font-size="10.00" fill="#000000">::setFlags</text>
</a>
</g>
</g>
<!-- Node15 -->
<g id="node2" class="node">
<title>Node15</title>
<g id="a_node2"><a xlink:href="classfs_1_1_screen_sharing_controller.html#a714ea09b1b0eca386555c35a788ec905" target="_top" xlink:title=" ">
<polygon fill="none" stroke="#000000" points="174.8369,-.5 174.8369,-28.5 313.6738,-28.5 313.6738,-.5 174.8369,-.5"/>
<text text-anchor="start" x="182.8369" y="-16.5" font-family="Helvetica,sans-Serif" font-size="10.00" fill="#000000">fs::ScreenSharingController</text>
<text text-anchor="middle" x="244.2554" y="-6.5" font-family="Helvetica,sans-Serif" font-size="10.00" fill="#000000">::enableDesktopSharing</text>
</a>
</g>
</g>
<!-- Node14&#45;&gt;Node15 -->
<g id="edge1" class="edge">
<title>Node14&#45;&gt;Node15</title>
<path fill="none" stroke="#191970" d="M339.1191,-14.5C330.7456,-14.5 322.1913,-14.5 313.8156,-14.5"/>
<polygon fill="#191970" stroke="#191970" points="339.2189,-18.0001 349.2189,-14.5 339.2189,-11.0001 339.2189,-18.0001"/>
</g>
<!-- Node16 -->
<g id="node3" class="node">
<title>Node16</title>
<g id="a_node3"><a xlink:href="classfs_1_1_screen_sharing_controller.html#af7b5850c145b62dfac96790737f2a41d" target="_top" xlink:title=" ">
<polygon fill="none" stroke="#000000" points="0,-.5 0,-28.5 138.8369,-28.5 138.8369,-.5 0,-.5"/>
<text text-anchor="start" x="8" y="-16.5" font-family="Helvetica,sans-Serif" font-size="10.00" fill="#000000">fs::ScreenSharingController</text>
<text text-anchor="middle" x="69.4185" y="-6.5" font-family="Helvetica,sans-Serif" font-size="10.00" fill="#000000">::onFSStreamStarted</text>
</a>
</g>
</g>
<!-- Node15&#45;&gt;Node16 -->
<g id="edge2" class="edge">
<title>Node15&#45;&gt;Node16</title>
<path fill="none" stroke="#191970" d="M164.4053,-14.5C155.9478,-14.5 147.3952,-14.5 139.0671,-14.5"/>
<polygon fill="#191970" stroke="#191970" points="164.6529,-18.0001 174.6528,-14.5 164.6528,-11.0001 164.6529,-18.0001"/>
</g>
</g>
</svg>
