<?xml version="1.0" encoding="UTF-8" standalone="no"?>
<!DOCTYPE svg PUBLIC "-//W3C//DTD SVG 1.1//EN"
 "http://www.w3.org/Graphics/SVG/1.1/DTD/svg11.dtd">
<!-- Generated by graphviz version 2.40.1 (20161225.0304)
 -->
<!-- Title: fs::MeetingAttendee::MeetingAttendee Pages: 1 -->
<svg width="437pt" height="84pt"
 viewBox="0.00 0.00 437.09 84.00" xmlns="http://www.w3.org/2000/svg" xmlns:xlink="http://www.w3.org/1999/xlink">
<g id="graph0" class="graph" transform="scale(1 1) rotate(0) translate(4 80)">
<title>fs::MeetingAttendee::MeetingAttendee</title>
<!-- Node2 -->
<g id="node1" class="node">
<title>Node2</title>
<g id="a_node1"><a xlink:title=" ">
<polygon fill="#bfbfbf" stroke="#000000" points="0,-23.5 0,-51.5 104.9453,-51.5 104.9453,-23.5 0,-23.5"/>
<text text-anchor="start" x="8" y="-39.5" font-family="Helvetica,sans-Serif" font-size="10.00" fill="#000000">fs::MeetingAttendee</text>
<text text-anchor="middle" x="52.4727" y="-29.5" font-family="Helvetica,sans-Serif" font-size="10.00" fill="#000000">::MeetingAttendee</text>
</a>
</g>
</g>
<!-- Node3 -->
<g id="node2" class="node">
<title>Node3</title>
<g id="a_node2"><a xlink:href="classfs_1_1_meeting_attendee.html#ad0ffea429bda0905a3a7e63479dee85d" target="_top" xlink:title=" ">
<polygon fill="none" stroke="#000000" points="162.0708,-47.5 162.0708,-75.5 267.0161,-75.5 267.0161,-47.5 162.0708,-47.5"/>
<text text-anchor="start" x="170.0708" y="-63.5" font-family="Helvetica,sans-Serif" font-size="10.00" fill="#000000">fs::MeetingAttendee</text>
<text text-anchor="middle" x="214.5435" y="-53.5" font-family="Helvetica,sans-Serif" font-size="10.00" fill="#000000">::muteSelf</text>
</a>
</g>
</g>
<!-- Node2&#45;&gt;Node3 -->
<g id="edge1" class="edge">
<title>Node2&#45;&gt;Node3</title>
<path fill="none" stroke="#191970" d="M105.0924,-45.2921C120.0291,-47.504 136.4405,-49.9342 151.9077,-52.2247"/>
<polygon fill="#191970" stroke="#191970" points="151.5057,-55.7032 161.9106,-53.7059 152.5312,-48.7788 151.5057,-55.7032"/>
</g>
<!-- Node5 -->
<g id="node4" class="node">
<title>Node5</title>
<g id="a_node4"><a xlink:href="classfs_1_1_meeting_attendee_readonly.html#a461dde6ca49f76261c7d6e8f255a67e5" target="_top" xlink:title=" ">
<polygon fill="none" stroke="#000000" points="140.9453,-.5 140.9453,-28.5 288.1416,-28.5 288.1416,-.5 140.9453,-.5"/>
<text text-anchor="start" x="148.9453" y="-16.5" font-family="Helvetica,sans-Serif" font-size="10.00" fill="#000000">fs::MeetingAttendeeReadonly</text>
<text text-anchor="middle" x="214.5435" y="-6.5" font-family="Helvetica,sans-Serif" font-size="10.00" fill="#000000">::subscriptionID</text>
</a>
</g>
</g>
<!-- Node2&#45;&gt;Node5 -->
<g id="edge3" class="edge">
<title>Node2&#45;&gt;Node5</title>
<path fill="none" stroke="#191970" d="M105.0924,-30.0326C113.2637,-28.8729 121.8764,-27.6507 130.5344,-26.422"/>
<polygon fill="#191970" stroke="#191970" points="131.2862,-29.8505 140.6952,-24.9801 130.3026,-22.9199 131.2862,-29.8505"/>
</g>
<!-- Node4 -->
<g id="node3" class="node">
<title>Node4</title>
<g id="a_node3"><a xlink:href="classfs_1_1_meeting_attendee.html#a3640c68d5cc70046139dbbffa73bc2e0" target="_top" xlink:title=" ">
<polygon fill="none" stroke="#000000" points="324.1416,-47.5 324.1416,-75.5 429.0869,-75.5 429.0869,-47.5 324.1416,-47.5"/>
<text text-anchor="start" x="332.1416" y="-63.5" font-family="Helvetica,sans-Serif" font-size="10.00" fill="#000000">fs::MeetingAttendee</text>
<text text-anchor="middle" x="376.6143" y="-53.5" font-family="Helvetica,sans-Serif" font-size="10.00" fill="#000000">::mute</text>
</a>
</g>
</g>
<!-- Node3&#45;&gt;Node4 -->
<g id="edge2" class="edge">
<title>Node3&#45;&gt;Node4</title>
<path fill="none" stroke="#191970" d="M267.1632,-61.5C282.0999,-61.5 298.5113,-61.5 313.9785,-61.5"/>
<polygon fill="#191970" stroke="#191970" points="313.9814,-65.0001 323.9814,-61.5 313.9814,-58.0001 313.9814,-65.0001"/>
</g>
</g>
</svg>
