<?xml version="1.0" encoding="UTF-8" standalone="no"?>
<!DOCTYPE svg PUBLIC "-//W3C//DTD SVG 1.1//EN"
 "http://www.w3.org/Graphics/SVG/1.1/DTD/svg11.dtd">
<!-- Generated by graphviz version 2.40.1 (20161225.0304)
 -->
<!-- Title: fs::ScreenSharingController::isDirector Pages: 1 -->
<svg width="677pt" height="84pt"
 viewBox="0.00 0.00 677.47 84.00" xmlns="http://www.w3.org/2000/svg" xmlns:xlink="http://www.w3.org/1999/xlink">
<g id="graph0" class="graph" transform="scale(1 1) rotate(0) translate(4 80)">
<title>fs::ScreenSharingController::isDirector</title>
<!-- Node101 -->
<g id="node1" class="node">
<title>Node101</title>
<g id="a_node1"><a xlink:title=" ">
<polygon fill="#bfbfbf" stroke="#000000" points="530.6338,-23.5 530.6338,-51.5 669.4707,-51.5 669.4707,-23.5 530.6338,-23.5"/>
<text text-anchor="start" x="538.6338" y="-39.5" font-family="Helvetica,sans-Serif" font-size="10.00" fill="#000000">fs::ScreenSharingController</text>
<text text-anchor="middle" x="600.0522" y="-29.5" font-family="Helvetica,sans-Serif" font-size="10.00" fill="#000000">::isDirector</text>
</a>
</g>
</g>
<!-- Node102 -->
<g id="node2" class="node">
<title>Node102</title>
<g id="a_node2"><a xlink:href="classfs_1_1_screen_sharing_controller.html#aa240dcbbdfba042f0d6f452ec09c48c6" target="_top" xlink:title=" ">
<polygon fill="none" stroke="#000000" points="352.7354,-47.5 352.7354,-75.5 491.5723,-75.5 491.5723,-47.5 352.7354,-47.5"/>
<text text-anchor="start" x="360.7354" y="-63.5" font-family="Helvetica,sans-Serif" font-size="10.00" fill="#000000">fs::ScreenSharingController</text>
<text text-anchor="middle" x="422.1538" y="-53.5" font-family="Helvetica,sans-Serif" font-size="10.00" fill="#000000">::onPresenterTakeControl</text>
</a>
</g>
</g>
<!-- Node101&#45;&gt;Node102 -->
<g id="edge1" class="edge">
<title>Node101&#45;&gt;Node102</title>
<path fill="none" stroke="#191970" d="M520.5413,-48.2267C510.9073,-49.5264 501.1239,-50.8463 491.65,-52.1244"/>
<polygon fill="#191970" stroke="#191970" points="521.0655,-51.6878 530.5077,-46.8821 520.1295,-44.7506 521.0655,-51.6878"/>
</g>
<!-- Node105 -->
<g id="node5" class="node">
<title>Node105</title>
<g id="a_node5"><a xlink:href="classfs_1_1_screen_sharing_controller.html#a93a8c4ebea6879a0e22d2021b7cd6cc5" target="_top" xlink:title=" ">
<polygon fill="none" stroke="#000000" points="349.6738,-.5 349.6738,-28.5 494.6338,-28.5 494.6338,-.5 349.6738,-.5"/>
<text text-anchor="start" x="357.6738" y="-16.5" font-family="Helvetica,sans-Serif" font-size="10.00" fill="#000000">fs::ScreenSharingController</text>
<text text-anchor="middle" x="422.1538" y="-6.5" font-family="Helvetica,sans-Serif" font-size="10.00" fill="#000000">::onPresenterReleaseControl</text>
</a>
</g>
</g>
<!-- Node101&#45;&gt;Node105 -->
<g id="edge4" class="edge">
<title>Node101&#45;&gt;Node105</title>
<path fill="none" stroke="#191970" d="M520.5483,-27.2212C512.002,-26.1162 503.338,-24.9961 494.8768,-23.9022"/>
<polygon fill="#191970" stroke="#191970" points="520.1415,-30.6976 530.5077,-28.5088 521.0391,-23.7554 520.1415,-30.6976"/>
</g>
<!-- Node103 -->
<g id="node3" class="node">
<title>Node103</title>
<g id="a_node3"><a xlink:href="classfs_1_1_screen_sharing_controller.html#a869e5a50dd78a97f7bc9042d9a6f52ba" target="_top" xlink:title=" ">
<polygon fill="none" stroke="#000000" points="174.8369,-23.5 174.8369,-51.5 313.6738,-51.5 313.6738,-23.5 174.8369,-23.5"/>
<text text-anchor="start" x="182.8369" y="-39.5" font-family="Helvetica,sans-Serif" font-size="10.00" fill="#000000">fs::ScreenSharingController</text>
<text text-anchor="middle" x="244.2554" y="-29.5" font-family="Helvetica,sans-Serif" font-size="10.00" fill="#000000">::onFSDataAvailable</text>
</a>
</g>
</g>
<!-- Node102&#45;&gt;Node103 -->
<g id="edge2" class="edge">
<title>Node102&#45;&gt;Node103</title>
<path fill="none" stroke="#191970" d="M342.6429,-50.7733C333.0089,-49.4736 323.2254,-48.1537 313.7516,-46.8756"/>
<polygon fill="#191970" stroke="#191970" points="342.2311,-54.2494 352.6093,-52.1179 343.1671,-47.3122 342.2311,-54.2494"/>
</g>
<!-- Node104 -->
<g id="node4" class="node">
<title>Node104</title>
<g id="a_node4"><a xlink:href="classfs_1_1_screen_sharing_controller.html#aba97ae6754ab50d12fac104a78cd86b4" target="_top" xlink:title=" ">
<polygon fill="none" stroke="#000000" points="0,-23.5 0,-51.5 138.8369,-51.5 138.8369,-23.5 0,-23.5"/>
<text text-anchor="start" x="8" y="-39.5" font-family="Helvetica,sans-Serif" font-size="10.00" fill="#000000">fs::ScreenSharingController</text>
<text text-anchor="middle" x="69.4185" y="-29.5" font-family="Helvetica,sans-Serif" font-size="10.00" fill="#000000">::onFSPropertyChanged</text>
</a>
</g>
</g>
<!-- Node103&#45;&gt;Node104 -->
<g id="edge3" class="edge">
<title>Node103&#45;&gt;Node104</title>
<path fill="none" stroke="#191970" d="M164.4053,-37.5C155.9478,-37.5 147.3952,-37.5 139.0671,-37.5"/>
<polygon fill="#191970" stroke="#191970" points="164.6529,-41.0001 174.6528,-37.5 164.6528,-34.0001 164.6529,-41.0001"/>
</g>
<!-- Node105&#45;&gt;Node103 -->
<g id="edge5" class="edge">
<title>Node105&#45;&gt;Node103</title>
<path fill="none" stroke="#191970" d="M339.4931,-25.187C330.8881,-26.2995 322.2041,-27.4222 313.7655,-28.5132"/>
<polygon fill="#191970" stroke="#191970" points="340.0705,-28.6416 349.5391,-23.8882 339.1729,-21.6993 340.0705,-28.6416"/>
</g>
</g>
</svg>
