<?xml version="1.0" encoding="UTF-8" standalone="no"?>
<!DOCTYPE svg PUBLIC "-//W3C//DTD SVG 1.1//EN"
 "http://www.w3.org/Graphics/SVG/1.1/DTD/svg11.dtd">
<!-- Generated by graphviz version 2.40.1 (20161225.0304)
 -->
<!-- Title: fs::ScreenSharingController::isScreenSharingEnabled Pages: 1 -->
<svg width="352pt" height="84pt"
 viewBox="0.00 0.00 352.29 84.00" xmlns="http://www.w3.org/2000/svg" xmlns:xlink="http://www.w3.org/1999/xlink">
<g id="graph0" class="graph" transform="scale(1 1) rotate(0) translate(4 80)">
<title>fs::ScreenSharingController::isScreenSharingEnabled</title>
<!-- Node137 -->
<g id="node1" class="node">
<title>Node137</title>
<g id="a_node1"><a xlink:title=" ">
<polygon fill="#bfbfbf" stroke="#000000" points="205.4521,-23.5 205.4521,-51.5 344.2891,-51.5 344.2891,-23.5 205.4521,-23.5"/>
<text text-anchor="start" x="213.4521" y="-39.5" font-family="Helvetica,sans-Serif" font-size="10.00" fill="#000000">fs::ScreenSharingController</text>
<text text-anchor="middle" x="274.8706" y="-29.5" font-family="Helvetica,sans-Serif" font-size="10.00" fill="#000000">::isScreenSharingEnabled</text>
</a>
</g>
</g>
<!-- Node138 -->
<g id="node2" class="node">
<title>Node138</title>
<g id="a_node2"><a xlink:href="classfs_1_1_screen_sharing_controller.html#ae42e6239bfe44a06d6f2f05010a971ee" target="_top" xlink:title=" ">
<polygon fill="none" stroke="#000000" points="9.7363,-47.5 9.7363,-75.5 159.7158,-75.5 159.7158,-47.5 9.7363,-47.5"/>
<text text-anchor="start" x="17.7363" y="-63.5" font-family="Helvetica,sans-Serif" font-size="10.00" fill="#000000">fs::ScreenSharingController</text>
<text text-anchor="middle" x="84.7261" y="-53.5" font-family="Helvetica,sans-Serif" font-size="10.00" fill="#000000">::onAttendeeBroadcastStarted</text>
</a>
</g>
</g>
<!-- Node137&#45;&gt;Node138 -->
<g id="edge1" class="edge">
<title>Node137&#45;&gt;Node138</title>
<path fill="none" stroke="#191970" d="M195.2018,-47.5558C183.4621,-49.0376 171.4005,-50.56 159.7589,-52.0294"/>
<polygon fill="#191970" stroke="#191970" points="195.934,-50.9912 205.4169,-46.2664 195.0573,-44.0463 195.934,-50.9912"/>
</g>
<!-- Node139 -->
<g id="node3" class="node">
<title>Node139</title>
<g id="a_node3"><a xlink:href="classfs_1_1_screen_sharing_controller.html#a38f05460bc4417049ca202409258b8b5" target="_top" xlink:title=" ">
<polygon fill="none" stroke="#000000" points="0,-.5 0,-28.5 169.4521,-28.5 169.4521,-.5 0,-.5"/>
<text text-anchor="start" x="8" y="-16.5" font-family="Helvetica,sans-Serif" font-size="10.00" fill="#000000">fs::ScreenSharingController</text>
<text text-anchor="middle" x="84.7261" y="-6.5" font-family="Helvetica,sans-Serif" font-size="10.00" fill="#000000">::onAttendeeSubConferenceLeave</text>
</a>
</g>
</g>
<!-- Node137&#45;&gt;Node139 -->
<g id="edge2" class="edge">
<title>Node137&#45;&gt;Node139</title>
<path fill="none" stroke="#191970" d="M195.4558,-27.8939C186.8874,-26.8575 178.1446,-25.8 169.516,-24.7562"/>
<polygon fill="#191970" stroke="#191970" points="195.069,-31.3726 205.4169,-29.0988 195.9096,-24.4232 195.069,-31.3726"/>
</g>
</g>
</svg>
