<?xml version="1.0" encoding="UTF-8" standalone="no"?>
<!DOCTYPE svg PUBLIC "-//W3C//DTD SVG 1.1//EN"
 "http://www.w3.org/Graphics/SVG/1.1/DTD/svg11.dtd">
<!-- Generated by graphviz version 2.40.1 (20161225.0304)
 -->
<!-- Title: cx::meeting::MeetingSessionProxy::video Pages: 1 -->
<svg width="332pt" height="94pt"
 viewBox="0.00 0.00 331.68 94.00" xmlns="http://www.w3.org/2000/svg" xmlns:xlink="http://www.w3.org/1999/xlink">
<g id="graph0" class="graph" transform="scale(1 1) rotate(0) translate(4 90)">
<title>cx::meeting::MeetingSessionProxy::video</title>
<!-- Node169 -->
<g id="node1" class="node">
<title>Node169</title>
<g id="a_node1"><a xlink:title=" ">
<polygon fill="#bfbfbf" stroke="#000000" points="0,-26.5 0,-54.5 143.8418,-54.5 143.8418,-26.5 0,-26.5"/>
<text text-anchor="start" x="8" y="-42.5" font-family="Helvetica,sans-Serif" font-size="10.00" fill="#000000">cx::meeting::MeetingSession</text>
<text text-anchor="middle" x="71.9209" y="-32.5" font-family="Helvetica,sans-Serif" font-size="10.00" fill="#000000">Proxy::video</text>
</a>
</g>
</g>
<!-- Node170 -->
<g id="node2" class="node">
<title>Node170</title>
<g id="a_node2"><a xlink:href="classcx_1_1meeting_1_1_meeting_feature_impl.html#a544244b1b0c8e35a1b9d8b80ee1d6755" target="_top" xlink:title=" ">
<polygon fill="none" stroke="#000000" points="180.3984,-47.5 180.3984,-85.5 323.127,-85.5 323.127,-47.5 180.3984,-47.5"/>
<text text-anchor="start" x="188.3984" y="-73.5" font-family="Helvetica,sans-Serif" font-size="10.00" fill="#000000">cx::meeting::MeetingFeature</text>
<text text-anchor="start" x="188.3984" y="-63.5" font-family="Helvetica,sans-Serif" font-size="10.00" fill="#000000">Impl&lt; MeetingVideoFeature</text>
<text text-anchor="middle" x="251.7627" y="-53.5" font-family="Helvetica,sans-Serif" font-size="10.00" fill="#000000"> &gt;::instance</text>
</a>
</g>
</g>
<!-- Node169&#45;&gt;Node170 -->
<g id="edge1" class="edge">
<title>Node169&#45;&gt;Node170</title>
<path fill="none" stroke="#191970" d="M144.0332,-50.9254C152.6021,-52.1642 161.3959,-53.4355 170.086,-54.6919"/>
<polygon fill="#191970" stroke="#191970" points="169.8223,-58.1901 180.2202,-56.157 170.8239,-51.2621 169.8223,-58.1901"/>
</g>
<!-- Node171 -->
<g id="node3" class="node">
<title>Node171</title>
<g id="a_node3"><a xlink:href="classcx_1_1meeting_1_1_meeting_session_proxy.html#a81e0a34d4a76c794a8a2a511bc7f2870" target="_top" xlink:title=" ">
<polygon fill="none" stroke="#000000" points="179.8418,-.5 179.8418,-28.5 323.6836,-28.5 323.6836,-.5 179.8418,-.5"/>
<text text-anchor="start" x="187.8418" y="-16.5" font-family="Helvetica,sans-Serif" font-size="10.00" fill="#000000">cx::meeting::MeetingSession</text>
<text text-anchor="middle" x="251.7627" y="-6.5" font-family="Helvetica,sans-Serif" font-size="10.00" fill="#000000">Proxy::requestFeature</text>
</a>
</g>
</g>
<!-- Node169&#45;&gt;Node171 -->
<g id="edge2" class="edge">
<title>Node169&#45;&gt;Node171</title>
<path fill="none" stroke="#191970" d="M144.0332,-30.0746C152.4617,-28.8561 161.1076,-27.6061 169.6585,-26.3699"/>
<polygon fill="#191970" stroke="#191970" points="170.2379,-29.8226 179.6342,-24.9277 169.2363,-22.8947 170.2379,-29.8226"/>
</g>
</g>
</svg>
