<?xml version="1.0" encoding="UTF-8" standalone="no"?>
<!DOCTYPE svg PUBLIC "-//W3C//DTD SVG 1.1//EN"
 "http://www.w3.org/Graphics/SVG/1.1/DTD/svg11.dtd">
<!-- Generated by graphviz version 2.40.1 (20161225.0304)
 -->
<!-- Title: fs::MeetingClient::getSessionNotificationsDelegate Pages: 1 -->
<svg width="355pt" height="413pt"
 viewBox="0.00 0.00 354.69 413.00" xmlns="http://www.w3.org/2000/svg" xmlns:xlink="http://www.w3.org/1999/xlink">
<g id="graph0" class="graph" transform="scale(1 1) rotate(0) translate(4 409)">
<title>fs::MeetingClient::getSessionNotificationsDelegate</title>
<!-- Node114 -->
<g id="node1" class="node">
<title>Node114</title>
<g id="a_node1"><a xlink:title=" ">
<polygon fill="#bfbfbf" stroke="#000000" points="186.7168,-188.5 186.7168,-216.5 346.6914,-216.5 346.6914,-188.5 186.7168,-188.5"/>
<text text-anchor="start" x="194.7168" y="-204.5" font-family="Helvetica,sans-Serif" font-size="10.00" fill="#000000">fs::MeetingClient::</text>
<text text-anchor="middle" x="266.7041" y="-194.5" font-family="Helvetica,sans-Serif" font-size="10.00" fill="#000000">getSessionNotificationsDelegate</text>
</a>
</g>
</g>
<!-- Node115 -->
<g id="node2" class="node">
<title>Node115</title>
<g id="a_node2"><a xlink:href="classfs_1_1_meeting_client.html#a3ea33a62c02e116e1fea15821762bc0d" target="_top" xlink:title=" ">
<polygon fill="none" stroke="#000000" points="27.3413,-376.5 27.3413,-404.5 123.3755,-404.5 123.3755,-376.5 27.3413,-376.5"/>
<text text-anchor="start" x="35.3413" y="-392.5" font-family="Helvetica,sans-Serif" font-size="10.00" fill="#000000">fs::MeetingClient::</text>
<text text-anchor="middle" x="75.3584" y="-382.5" font-family="Helvetica,sans-Serif" font-size="10.00" fill="#000000">toggleRecording</text>
</a>
</g>
</g>
<!-- Node114&#45;&gt;Node115 -->
<g id="edge1" class="edge">
<title>Node114&#45;&gt;Node115</title>
<path fill="none" stroke="#191970" d="M256.3935,-226.0357C239.5007,-261.8784 202.5474,-329.9346 150.7168,-367.5 142.6315,-373.36 133.0297,-377.7482 123.4336,-381.0275"/>
<polygon fill="#191970" stroke="#191970" points="259.6273,-227.3806 260.6218,-216.8325 253.2665,-224.4581 259.6273,-227.3806"/>
</g>
<!-- Node116 -->
<g id="node3" class="node">
<title>Node116</title>
<g id="a_node3"><a xlink:href="classfs_1_1_meeting_client.html#a51ade032c191964e8a5240ac27efa81e" target="_top" xlink:title=" ">
<polygon fill="none" stroke="#000000" points="27.3413,-329.5 27.3413,-357.5 123.3755,-357.5 123.3755,-329.5 27.3413,-329.5"/>
<text text-anchor="start" x="35.3413" y="-345.5" font-family="Helvetica,sans-Serif" font-size="10.00" fill="#000000">fs::MeetingClient::</text>
<text text-anchor="middle" x="75.3584" y="-335.5" font-family="Helvetica,sans-Serif" font-size="10.00" fill="#000000">toggleLock</text>
</a>
</g>
</g>
<!-- Node114&#45;&gt;Node116 -->
<g id="edge2" class="edge">
<title>Node114&#45;&gt;Node116</title>
<path fill="none" stroke="#191970" d="M250.2963,-225.0218C229.8336,-251.5524 192.425,-295.2081 150.7168,-320.5 142.4124,-325.5358 132.9178,-329.5475 123.532,-332.7157"/>
<polygon fill="#191970" stroke="#191970" points="253.3256,-226.8189 256.5679,-216.7323 247.7432,-222.5954 253.3256,-226.8189"/>
</g>
<!-- Node117 -->
<g id="node4" class="node">
<title>Node117</title>
<g id="a_node4"><a xlink:href="classfs_1_1_meeting_client.html#afdd25296f1bdf35c77bb8a604d454b42" target="_top" xlink:title=" ">
<polygon fill="none" stroke="#000000" points="15.8496,-282.5 15.8496,-310.5 134.8672,-310.5 134.8672,-282.5 15.8496,-282.5"/>
<text text-anchor="start" x="23.8496" y="-298.5" font-family="Helvetica,sans-Serif" font-size="10.00" fill="#000000">fs::MeetingClient::</text>
<text text-anchor="middle" x="75.3584" y="-288.5" font-family="Helvetica,sans-Serif" font-size="10.00" fill="#000000">onTransportCallStarted</text>
</a>
</g>
</g>
<!-- Node114&#45;&gt;Node117 -->
<g id="edge3" class="edge">
<title>Node114&#45;&gt;Node117</title>
<path fill="none" stroke="#191970" d="M238.5308,-222.5534C215.7069,-238.0949 182.2702,-259.3045 150.7168,-273.5 143.3568,-276.8112 135.3866,-279.8178 127.4784,-282.4843"/>
<polygon fill="#191970" stroke="#191970" points="240.7836,-225.2515 247.0297,-216.6936 236.8102,-219.4885 240.7836,-225.2515"/>
</g>
<!-- Node118 -->
<g id="node5" class="node">
<title>Node118</title>
<g id="a_node5"><a xlink:href="classfs_1_1_meeting_client.html#a60a47bb0b23c6f4513fbe32757666ced" target="_top" xlink:title=" ">
<polygon fill="none" stroke="#000000" points="13.6255,-235.5 13.6255,-263.5 137.0913,-263.5 137.0913,-235.5 13.6255,-235.5"/>
<text text-anchor="start" x="21.6255" y="-251.5" font-family="Helvetica,sans-Serif" font-size="10.00" fill="#000000">fs::MeetingClient::</text>
<text text-anchor="middle" x="75.3584" y="-241.5" font-family="Helvetica,sans-Serif" font-size="10.00" fill="#000000">onTransportCallHungUp</text>
</a>
</g>
</g>
<!-- Node114&#45;&gt;Node118 -->
<g id="edge4" class="edge">
<title>Node114&#45;&gt;Node118</title>
<path fill="none" stroke="#191970" d="M199.6638,-218.967C177.7613,-224.3469 153.6535,-230.2685 132.5452,-235.4533"/>
<polygon fill="#191970" stroke="#191970" points="200.6768,-222.3223 209.5533,-216.5379 199.007,-215.5244 200.6768,-222.3223"/>
</g>
<!-- Node119 -->
<g id="node6" class="node">
<title>Node119</title>
<g id="a_node6"><a xlink:href="classfs_1_1_meeting_client.html#a9e233ddc671315f045729f5c5127d31d" target="_top" xlink:title=" ">
<polygon fill="none" stroke="#000000" points="0,-188.5 0,-216.5 150.7168,-216.5 150.7168,-188.5 0,-188.5"/>
<text text-anchor="start" x="8" y="-204.5" font-family="Helvetica,sans-Serif" font-size="10.00" fill="#000000">fs::MeetingClient::</text>
<text text-anchor="middle" x="75.3584" y="-194.5" font-family="Helvetica,sans-Serif" font-size="10.00" fill="#000000">onTransportCallStateChanged</text>
</a>
</g>
</g>
<!-- Node114&#45;&gt;Node119 -->
<g id="edge5" class="edge">
<title>Node114&#45;&gt;Node119</title>
<path fill="none" stroke="#191970" d="M176.5801,-202.5C167.9513,-202.5 159.262,-202.5 150.7944,-202.5"/>
<polygon fill="#191970" stroke="#191970" points="176.665,-206.0001 186.665,-202.5 176.665,-199.0001 176.665,-206.0001"/>
</g>
<!-- Node120 -->
<g id="node7" class="node">
<title>Node120</title>
<g id="a_node7"><a xlink:href="classfs_1_1_meeting_client.html#a63a9e664988212ed1dff5ecdef8dd269" target="_top" xlink:title=" ">
<polygon fill="none" stroke="#000000" points="27.3413,-141.5 27.3413,-169.5 123.3755,-169.5 123.3755,-141.5 27.3413,-141.5"/>
<text text-anchor="start" x="35.3413" y="-157.5" font-family="Helvetica,sans-Serif" font-size="10.00" fill="#000000">fs::MeetingClient::</text>
<text text-anchor="middle" x="75.3584" y="-147.5" font-family="Helvetica,sans-Serif" font-size="10.00" fill="#000000">onSessionStarted</text>
</a>
</g>
</g>
<!-- Node114&#45;&gt;Node120 -->
<g id="edge6" class="edge">
<title>Node114&#45;&gt;Node120</title>
<path fill="none" stroke="#191970" d="M199.7227,-186.0475C174.6051,-179.8779 146.5802,-172.9941 123.5016,-167.3254"/>
<polygon fill="#191970" stroke="#191970" points="199.007,-189.4756 209.5533,-188.4621 200.6768,-182.6777 199.007,-189.4756"/>
</g>
<!-- Node121 -->
<g id="node8" class="node">
<title>Node121</title>
<g id="a_node8"><a xlink:href="classfs_1_1_meeting_client.html#acfd559f7534f0ad1423e4aeedefc9754" target="_top" xlink:title=" ">
<polygon fill="none" stroke="#000000" points="22.3315,-94.5 22.3315,-122.5 128.3853,-122.5 128.3853,-94.5 22.3315,-94.5"/>
<text text-anchor="start" x="30.3315" y="-110.5" font-family="Helvetica,sans-Serif" font-size="10.00" fill="#000000">fs::MeetingClient::</text>
<text text-anchor="middle" x="75.3584" y="-100.5" font-family="Helvetica,sans-Serif" font-size="10.00" fill="#000000">onSessionRestarted</text>
</a>
</g>
</g>
<!-- Node114&#45;&gt;Node121 -->
<g id="edge7" class="edge">
<title>Node114&#45;&gt;Node121</title>
<path fill="none" stroke="#191970" d="M238.0276,-182.5827C215.1656,-167.3577 181.9194,-146.6466 150.7168,-132.5 142.7134,-128.8714 134.0018,-125.5571 125.4363,-122.6268"/>
<polygon fill="#191970" stroke="#191970" points="236.305,-185.6424 246.554,-188.3276 240.2165,-179.8371 236.305,-185.6424"/>
</g>
<!-- Node122 -->
<g id="node9" class="node">
<title>Node122</title>
<g id="a_node9"><a xlink:href="classfs_1_1_meeting_client.html#a17d81e40062928711d60190eb9de15be" target="_top" xlink:title=" ">
<polygon fill="none" stroke="#000000" points="16.4941,-47.5 16.4941,-75.5 134.2227,-75.5 134.2227,-47.5 16.4941,-47.5"/>
<text text-anchor="start" x="24.4941" y="-63.5" font-family="Helvetica,sans-Serif" font-size="10.00" fill="#000000">fs::MeetingClient::</text>
<text text-anchor="middle" x="75.3584" y="-53.5" font-family="Helvetica,sans-Serif" font-size="10.00" fill="#000000">conferenceAttributeSet</text>
</a>
</g>
</g>
<!-- Node114&#45;&gt;Node122 -->
<g id="edge8" class="edge">
<title>Node114&#45;&gt;Node122</title>
<path fill="none" stroke="#191970" d="M250.2016,-180.2602C229.6461,-154.0439 192.1466,-110.8457 150.7168,-85.5 144.392,-81.6307 137.3825,-78.3258 130.2584,-75.5195"/>
<polygon fill="#191970" stroke="#191970" points="247.6315,-182.6594 256.5042,-188.4496 253.1789,-178.3901 247.6315,-182.6594"/>
</g>
<!-- Node123 -->
<g id="node10" class="node">
<title>Node123</title>
<g id="a_node10"><a xlink:href="classfs_1_1_meeting_client.html#ac5f376c0b9d72b625d75cb842a2b629c" target="_top" xlink:title=" ">
<polygon fill="none" stroke="#000000" points="27.3413,-.5 27.3413,-28.5 123.3755,-28.5 123.3755,-.5 27.3413,-.5"/>
<text text-anchor="start" x="35.3413" y="-16.5" font-family="Helvetica,sans-Serif" font-size="10.00" fill="#000000">fs::MeetingClient::</text>
<text text-anchor="middle" x="75.3584" y="-6.5" font-family="Helvetica,sans-Serif" font-size="10.00" fill="#000000">cacheAttribute</text>
</a>
</g>
</g>
<!-- Node114&#45;&gt;Node123 -->
<g id="edge9" class="edge">
<title>Node114&#45;&gt;Node123</title>
<path fill="none" stroke="#191970" d="M256.2995,-179.1838C239.2815,-143.6606 202.1642,-76.1511 150.7168,-38.5 142.6282,-32.5805 133.0249,-28.0854 123.4285,-24.6837"/>
<polygon fill="#191970" stroke="#191970" points="253.1568,-180.726 260.5617,-188.3035 259.4984,-177.7622 253.1568,-180.726"/>
</g>
</g>
</svg>
