<?xml version="1.0" encoding="UTF-8" standalone="no"?>
<!DOCTYPE svg PUBLIC "-//W3C//DTD SVG 1.1//EN"
 "http://www.w3.org/Graphics/SVG/1.1/DTD/svg11.dtd">
<!-- Generated by graphviz version 2.40.1 (20161225.0304)
 -->
<!-- Title: fs::MeetingClientSession::seekRecordingBroadcast Pages: 1 -->
<svg width="303pt" height="121pt"
 viewBox="0.00 0.00 303.34 121.00" xmlns="http://www.w3.org/2000/svg" xmlns:xlink="http://www.w3.org/1999/xlink">
<g id="graph0" class="graph" transform="scale(1 1) rotate(0) translate(4 117)">
<title>fs::MeetingClientSession::seekRecordingBroadcast</title>
<!-- Node809 -->
<g id="node1" class="node">
<title>Node809</title>
<g id="a_node1"><a xlink:title=" ">
<polygon fill="#bfbfbf" stroke="#000000" points="0,-42.5 0,-70.5 133.2852,-70.5 133.2852,-42.5 0,-42.5"/>
<text text-anchor="start" x="8" y="-58.5" font-family="Helvetica,sans-Serif" font-size="10.00" fill="#000000">fs::MeetingClientSession</text>
<text text-anchor="middle" x="66.6426" y="-48.5" font-family="Helvetica,sans-Serif" font-size="10.00" fill="#000000">::seekRecordingBroadcast</text>
</a>
</g>
</g>
<!-- Node810 -->
<g id="node2" class="node">
<title>Node810</title>
<g id="a_node2"><a xlink:href="classfs_1_1_meeting_client_session.html#ad2db541bceb2f60d39d34b3e443801d2" target="_top" xlink:title=" ">
<polygon fill="none" stroke="#000000" points="169.2852,-84.5 169.2852,-112.5 295.3389,-112.5 295.3389,-84.5 169.2852,-84.5"/>
<text text-anchor="start" x="177.2852" y="-100.5" font-family="Helvetica,sans-Serif" font-size="10.00" fill="#000000">fs::MeetingClientSession</text>
<text text-anchor="middle" x="232.312" y="-90.5" font-family="Helvetica,sans-Serif" font-size="10.00" fill="#000000">::isInitialized</text>
</a>
</g>
</g>
<!-- Node809&#45;&gt;Node810 -->
<g id="edge1" class="edge">
<title>Node809&#45;&gt;Node810</title>
<path fill="none" stroke="#191970" d="M122.269,-70.6022C136.5513,-74.223 152.0476,-78.1516 166.7797,-81.8865"/>
<polygon fill="#191970" stroke="#191970" points="166.279,-85.3702 176.8324,-84.435 167.9992,-78.5848 166.279,-85.3702"/>
</g>
<!-- Node811 -->
<g id="node3" class="node">
<title>Node811</title>
<g id="a_node3"><a xlink:href="_meeting_client_session_8cxx.html#ab06e713e85f5d00e42ad86367c03f278" target="_top" xlink:title=" ">
<polygon fill="none" stroke="#000000" points="202.9082,-47.5 202.9082,-65.5 261.7158,-65.5 261.7158,-47.5 202.9082,-47.5"/>
<text text-anchor="middle" x="232.312" y="-53.5" font-family="Helvetica,sans-Serif" font-size="10.00" fill="#000000">asio_post</text>
</a>
</g>
</g>
<!-- Node809&#45;&gt;Node811 -->
<g id="edge2" class="edge">
<title>Node809&#45;&gt;Node811</title>
<path fill="none" stroke="#191970" d="M133.5491,-56.5C153.4799,-56.5 174.6891,-56.5 192.3235,-56.5"/>
<polygon fill="#191970" stroke="#191970" points="192.7981,-60.0001 202.7981,-56.5 192.7981,-53.0001 192.7981,-60.0001"/>
</g>
<!-- Node812 -->
<g id="node4" class="node">
<title>Node812</title>
<g id="a_node4"><a xlink:href="classfs_1_1_meeting_client_session.html#a75e9c574fb9a84a95e9629dd91689dc0" target="_top" xlink:title=" ">
<polygon fill="none" stroke="#000000" points="169.2852,-.5 169.2852,-28.5 295.3389,-28.5 295.3389,-.5 169.2852,-.5"/>
<text text-anchor="start" x="177.2852" y="-16.5" font-family="Helvetica,sans-Serif" font-size="10.00" fill="#000000">fs::MeetingClientSession</text>
<text text-anchor="middle" x="232.312" y="-6.5" font-family="Helvetica,sans-Serif" font-size="10.00" fill="#000000">::ioService</text>
</a>
</g>
</g>
<!-- Node809&#45;&gt;Node812 -->
<g id="edge3" class="edge">
<title>Node809&#45;&gt;Node812</title>
<path fill="none" stroke="#191970" d="M122.269,-42.3978C136.5513,-38.777 152.0476,-34.8484 166.7797,-31.1135"/>
<polygon fill="#191970" stroke="#191970" points="167.9992,-34.4152 176.8324,-28.565 166.279,-27.6298 167.9992,-34.4152"/>
</g>
</g>
</svg>
