<?xml version="1.0" encoding="UTF-8" standalone="no"?>
<!DOCTYPE svg PUBLIC "-//W3C//DTD SVG 1.1//EN"
 "http://www.w3.org/Graphics/SVG/1.1/DTD/svg11.dtd">
<!-- Generated by graphviz version 2.40.1 (20161225.0304)
 -->
<!-- Title: fs::ScreenSharingController::getPresenterTransferState Pages: 1 -->
<svg width="322pt" height="84pt"
 viewBox="0.00 0.00 321.86 84.00" xmlns="http://www.w3.org/2000/svg" xmlns:xlink="http://www.w3.org/1999/xlink">
<g id="graph0" class="graph" transform="scale(1 1) rotate(0) translate(4 80)">
<title>fs::ScreenSharingController::getPresenterTransferState</title>
<!-- Node56 -->
<g id="node1" class="node">
<title>Node56</title>
<g id="a_node1"><a xlink:title=" ">
<polygon fill="#bfbfbf" stroke="#000000" points="0,-23.5 0,-51.5 139.0273,-51.5 139.0273,-23.5 0,-23.5"/>
<text text-anchor="start" x="8" y="-39.5" font-family="Helvetica,sans-Serif" font-size="10.00" fill="#000000">fs::ScreenSharingController</text>
<text text-anchor="middle" x="69.5137" y="-29.5" font-family="Helvetica,sans-Serif" font-size="10.00" fill="#000000">::getPresenterTransferState</text>
</a>
</g>
</g>
<!-- Node57 -->
<g id="node2" class="node">
<title>Node57</title>
<g id="a_node2"><a xlink:href="classfs_1_1_screen_sharing_controller.html#a6eb0fb1a51284b7dc85c2291aaa84fe1" target="_top" xlink:title=" ">
<polygon fill="none" stroke="#000000" points="175.0273,-47.5 175.0273,-75.5 313.8643,-75.5 313.8643,-47.5 175.0273,-47.5"/>
<text text-anchor="start" x="183.0273" y="-63.5" font-family="Helvetica,sans-Serif" font-size="10.00" fill="#000000">fs::ScreenSharingController</text>
<text text-anchor="middle" x="244.4458" y="-53.5" font-family="Helvetica,sans-Serif" font-size="10.00" fill="#000000">::getPromoterId</text>
</a>
</g>
</g>
<!-- Node56&#45;&gt;Node57 -->
<g id="edge1" class="edge">
<title>Node56&#45;&gt;Node57</title>
<path fill="none" stroke="#191970" d="M139.1541,-47.0544C147.5774,-48.21 156.231,-49.3973 164.7843,-50.5708"/>
<polygon fill="#191970" stroke="#191970" points="164.3762,-54.0475 174.7592,-51.9393 165.3277,-47.1124 164.3762,-54.0475"/>
</g>
<!-- Node58 -->
<g id="node3" class="node">
<title>Node58</title>
<g id="a_node3"><a xlink:href="classfs_1_1_screen_sharing_controller.html#a2d72cac3855bd476bf5d61e6e342c079" target="_top" xlink:title=" ">
<polygon fill="none" stroke="#000000" points="175.0273,-.5 175.0273,-28.5 313.8643,-28.5 313.8643,-.5 175.0273,-.5"/>
<text text-anchor="start" x="183.0273" y="-16.5" font-family="Helvetica,sans-Serif" font-size="10.00" fill="#000000">fs::ScreenSharingController</text>
<text text-anchor="middle" x="244.4458" y="-6.5" font-family="Helvetica,sans-Serif" font-size="10.00" fill="#000000">::getPromotedAttendeeId</text>
</a>
</g>
</g>
<!-- Node56&#45;&gt;Node58 -->
<g id="edge2" class="edge">
<title>Node56&#45;&gt;Node58</title>
<path fill="none" stroke="#191970" d="M139.1541,-28.3437C147.5774,-27.2362 156.231,-26.0984 164.7843,-24.9739"/>
<polygon fill="#191970" stroke="#191970" points="165.3008,-28.4362 174.7592,-23.6624 164.3882,-21.4959 165.3008,-28.4362"/>
</g>
</g>
</svg>
