<?xml version="1.0" encoding="UTF-8" standalone="no"?>
<!DOCTYPE svg PUBLIC "-//W3C//DTD SVG 1.1//EN"
 "http://www.w3.org/Graphics/SVG/1.1/DTD/svg11.dtd">
<!-- Generated by graphviz version 2.40.1 (20161225.0304)
 -->
<!-- Title: fs::VideoEngineProxy::startVideoCapturing Pages: 1 -->
<svg width="278pt" height="84pt"
 viewBox="0.00 0.00 277.99 84.00" xmlns="http://www.w3.org/2000/svg" xmlns:xlink="http://www.w3.org/1999/xlink">
<g id="graph0" class="graph" transform="scale(1 1) rotate(0) translate(4 80)">
<title>fs::VideoEngineProxy::startVideoCapturing</title>
<!-- Node71 -->
<g id="node1" class="node">
<title>Node71</title>
<g id="a_node1"><a xlink:title=" ">
<polygon fill="#bfbfbf" stroke="#000000" points="0,-23.5 0,-51.5 111.4346,-51.5 111.4346,-23.5 0,-23.5"/>
<text text-anchor="start" x="8" y="-39.5" font-family="Helvetica,sans-Serif" font-size="10.00" fill="#000000">fs::VideoEngineProxy</text>
<text text-anchor="middle" x="55.7173" y="-29.5" font-family="Helvetica,sans-Serif" font-size="10.00" fill="#000000">::startVideoCapturing</text>
</a>
</g>
</g>
<!-- Node72 -->
<g id="node2" class="node">
<title>Node72</title>
<g id="a_node2"><a xlink:href="classfs_1_1_video_engine_proxy.html#af3f186080747a546142c5183e29a1683" target="_top" xlink:title=" ">
<polygon fill="none" stroke="#000000" points="152.9961,-47.5 152.9961,-75.5 264.4307,-75.5 264.4307,-47.5 152.9961,-47.5"/>
<text text-anchor="start" x="160.9961" y="-63.5" font-family="Helvetica,sans-Serif" font-size="10.00" fill="#000000">fs::VideoEngineProxy</text>
<text text-anchor="middle" x="208.7134" y="-53.5" font-family="Helvetica,sans-Serif" font-size="10.00" fill="#000000">::dispatch</text>
</a>
</g>
</g>
<!-- Node71&#45;&gt;Node72 -->
<g id="edge1" class="edge">
<title>Node71&#45;&gt;Node72</title>
<path fill="none" stroke="#191970" d="M111.8186,-46.3004C121.8607,-47.8757 132.4087,-49.5303 142.6988,-51.1445"/>
<polygon fill="#191970" stroke="#191970" points="142.4529,-54.6487 152.8745,-52.7407 143.5378,-47.7332 142.4529,-54.6487"/>
</g>
<!-- Node73 -->
<g id="node3" class="node">
<title>Node73</title>
<g id="a_node3"><a xlink:href="classfs_1_1_video_engine_proxy.html#aad5c1884afb98026f228c8ca77cf920b" target="_top" xlink:title=" ">
<polygon fill="none" stroke="#000000" points="147.4346,-.5 147.4346,-28.5 269.9922,-28.5 269.9922,-.5 147.4346,-.5"/>
<text text-anchor="start" x="155.4346" y="-16.5" font-family="Helvetica,sans-Serif" font-size="10.00" fill="#000000">fs::VideoEngineProxy</text>
<text text-anchor="middle" x="208.7134" y="-6.5" font-family="Helvetica,sans-Serif" font-size="10.00" fill="#000000">::onStartVideoCapturing</text>
</a>
</g>
</g>
<!-- Node71&#45;&gt;Node73 -->
<g id="edge2" class="edge">
<title>Node71&#45;&gt;Node73</title>
<path fill="none" stroke="#191970" d="M111.8186,-29.0662C120.0938,-27.8222 128.7124,-26.5266 137.2472,-25.2436"/>
<polygon fill="#191970" stroke="#191970" points="137.8336,-28.6948 147.2021,-23.747 136.7929,-21.7726 137.8336,-28.6948"/>
</g>
</g>
</svg>
