<?xml version="1.0" encoding="UTF-8" standalone="no"?>
<!DOCTYPE svg PUBLIC "-//W3C//DTD SVG 1.1//EN"
 "http://www.w3.org/Graphics/SVG/1.1/DTD/svg11.dtd">
<!-- Generated by graphviz version 2.40.1 (20161225.0304)
 -->
<!-- Title: fs::VoIPClientProxy::onCallHeld Pages: 1 -->
<svg width="414pt" height="37pt"
 viewBox="0.00 0.00 413.72 37.00" xmlns="http://www.w3.org/2000/svg" xmlns:xlink="http://www.w3.org/1999/xlink">
<g id="graph0" class="graph" transform="scale(1 1) rotate(0) translate(4 33)">
<title>fs::VoIPClientProxy::onCallHeld</title>
<!-- Node8 -->
<g id="node1" class="node">
<title>Node8</title>
<g id="a_node1"><a xlink:title=" ">
<polygon fill="#bfbfbf" stroke="#000000" points="0,-.5 0,-28.5 101.5957,-28.5 101.5957,-.5 0,-.5"/>
<text text-anchor="start" x="8" y="-16.5" font-family="Helvetica,sans-Serif" font-size="10.00" fill="#000000">fs::VoIPClientProxy</text>
<text text-anchor="middle" x="50.7979" y="-6.5" font-family="Helvetica,sans-Serif" font-size="10.00" fill="#000000">::onCallHeld</text>
</a>
</g>
</g>
<!-- Node9 -->
<g id="node2" class="node">
<title>Node9</title>
<g id="a_node2"><a xlink:href="classfs_1_1_vo_i_p_client_delegate.html#adf8b665bed12155925b5916e5379ccd7" target="_top" xlink:title=" ">
<polygon fill="none" stroke="#000000" points="137.5957,-.5 137.5957,-28.5 253.6592,-28.5 253.6592,-.5 137.5957,-.5"/>
<text text-anchor="start" x="145.5957" y="-16.5" font-family="Helvetica,sans-Serif" font-size="10.00" fill="#000000">fs::VoIPClientDelegate</text>
<text text-anchor="middle" x="195.6274" y="-6.5" font-family="Helvetica,sans-Serif" font-size="10.00" fill="#000000">::fireTransportCallHeld</text>
</a>
</g>
</g>
<!-- Node8&#45;&gt;Node9 -->
<g id="edge1" class="edge">
<title>Node8&#45;&gt;Node9</title>
<path fill="none" stroke="#191970" d="M101.8593,-14.5C110.1128,-14.5 118.7727,-14.5 127.3547,-14.5"/>
<polygon fill="#191970" stroke="#191970" points="127.3645,-18.0001 137.3645,-14.5 127.3644,-11.0001 127.3645,-18.0001"/>
</g>
<!-- Node10 -->
<g id="node3" class="node">
<title>Node10</title>
<g id="a_node3"><a xlink:href="classfs_1_1_vo_i_p_client_delegate.html#a87504cff2033db3195c9a4a2ea6bde66" target="_top" xlink:title=" ">
<polygon fill="none" stroke="#000000" points="289.6592,-.5 289.6592,-28.5 405.7227,-28.5 405.7227,-.5 289.6592,-.5"/>
<text text-anchor="start" x="297.6592" y="-16.5" font-family="Helvetica,sans-Serif" font-size="10.00" fill="#000000">fs::VoIPClientDelegate</text>
<text text-anchor="middle" x="347.6909" y="-6.5" font-family="Helvetica,sans-Serif" font-size="10.00" fill="#000000">::onTransportCallHeld</text>
</a>
</g>
</g>
<!-- Node9&#45;&gt;Node10 -->
<g id="edge2" class="edge">
<title>Node9&#45;&gt;Node10</title>
<path fill="none" stroke="#191970" d="M253.9843,-14.5C262.261,-14.5 270.8335,-14.5 279.2794,-14.5"/>
<polygon fill="#191970" stroke="#191970" points="279.4903,-18.0001 289.4903,-14.5 279.4902,-11.0001 279.4903,-18.0001"/>
</g>
</g>
</svg>
