<?xml version="1.0" encoding="UTF-8" standalone="no"?>
<!DOCTYPE svg PUBLIC "-//W3C//DTD SVG 1.1//EN"
 "http://www.w3.org/Graphics/SVG/1.1/DTD/svg11.dtd">
<!-- Generated by graphviz version 2.40.1 (20161225.0304)
 -->
<!-- Title: fs::Buffer::fetch Pages: 1 -->
<svg width="603pt" height="116pt"
 viewBox="0.00 0.00 602.79 116.00" xmlns="http://www.w3.org/2000/svg" xmlns:xlink="http://www.w3.org/1999/xlink">
<g id="graph0" class="graph" transform="scale(1 1) rotate(0) translate(4 112)">
<title>fs::Buffer::fetch</title>
<!-- Node33 -->
<g id="node1" class="node">
<title>Node33</title>
<g id="a_node1"><a xlink:title=" ">
<polygon fill="#bfbfbf" stroke="#000000" points="511.7178,-47.5 511.7178,-65.5 594.793,-65.5 594.793,-47.5 511.7178,-47.5"/>
<text text-anchor="middle" x="553.2554" y="-53.5" font-family="Helvetica,sans-Serif" font-size="10.00" fill="#000000">fs::Buffer::fetch</text>
</a>
</g>
</g>
<!-- Node34 -->
<g id="node2" class="node">
<title>Node34</title>
<g id="a_node2"><a xlink:href="classfs_1_1_f_s_pkt_entry.html#ab5cb14265d25eed33e19335231468ca4" target="_top" xlink:title=" ">
<polygon fill="none" stroke="#000000" points="359.9595,-89.5 359.9595,-107.5 465.4321,-107.5 465.4321,-89.5 359.9595,-89.5"/>
<text text-anchor="middle" x="412.6958" y="-95.5" font-family="Helvetica,sans-Serif" font-size="10.00" fill="#000000">fs::FSPktEntry::read</text>
</a>
</g>
</g>
<!-- Node33&#45;&gt;Node34 -->
<g id="edge1" class="edge">
<title>Node33&#45;&gt;Node34</title>
<path fill="none" stroke="#191970" d="M514.9275,-68.5463C502.4425,-72.4213 488.5066,-76.6949 475.7178,-80.5 465.6839,-83.4854 454.7226,-86.6497 444.7963,-89.4788"/>
<polygon fill="#191970" stroke="#191970" points="516.0723,-71.8556 524.5794,-65.5406 513.991,-65.1722 516.0723,-71.8556"/>
</g>
<!-- Node35 -->
<g id="node3" class="node">
<title>Node35</title>
<g id="a_node3"><a xlink:href="classfs_1_1_f_s_pkt_array_entry.html#abe2f37ecb6503f762b45159e8b20eeac" target="_top" xlink:title=" ">
<polygon fill="none" stroke="#000000" points="360.7993,-42.5 360.7993,-70.5 464.5923,-70.5 464.5923,-42.5 360.7993,-42.5"/>
<text text-anchor="start" x="368.7993" y="-58.5" font-family="Helvetica,sans-Serif" font-size="10.00" fill="#000000">fs::FSPktArrayEntry</text>
<text text-anchor="middle" x="412.6958" y="-48.5" font-family="Helvetica,sans-Serif" font-size="10.00" fill="#000000">::read</text>
</a>
</g>
</g>
<!-- Node33&#45;&gt;Node35 -->
<g id="edge2" class="edge">
<title>Node33&#45;&gt;Node35</title>
<path fill="none" stroke="#191970" d="M501.2395,-56.5C489.3427,-56.5 476.6957,-56.5 464.7955,-56.5"/>
<polygon fill="#191970" stroke="#191970" points="501.4635,-60.0001 511.4634,-56.5 501.4634,-53.0001 501.4635,-60.0001"/>
</g>
<!-- Node36 -->
<g id="node4" class="node">
<title>Node36</title>
<g id="a_node4"><a xlink:href="classfs_1_1_f_s_packet.html#a5fbe0bc7898355774cf37d22a7278cd5" target="_top" xlink:title=" ">
<polygon fill="none" stroke="#000000" points="349.6738,-5.5 349.6738,-23.5 475.7178,-23.5 475.7178,-5.5 349.6738,-5.5"/>
<text text-anchor="middle" x="412.6958" y="-11.5" font-family="Helvetica,sans-Serif" font-size="10.00" fill="#000000">fs::FSPacket::deserialize</text>
</a>
</g>
</g>
<!-- Node33&#45;&gt;Node36 -->
<g id="edge3" class="edge">
<title>Node33&#45;&gt;Node36</title>
<path fill="none" stroke="#191970" d="M513.2804,-44.5552C491.0461,-37.9115 463.8064,-29.7721 443.2845,-23.6401"/>
<polygon fill="#191970" stroke="#191970" points="512.5183,-47.9804 523.1018,-47.4899 514.5225,-41.2734 512.5183,-47.9804"/>
</g>
<!-- Node37 -->
<g id="node5" class="node">
<title>Node37</title>
<g id="a_node5"><a xlink:href="classfs_1_1_screen_sharing_controller.html#a869e5a50dd78a97f7bc9042d9a6f52ba" target="_top" xlink:title=" ">
<polygon fill="none" stroke="#000000" points="174.8369,-.5 174.8369,-28.5 313.6738,-28.5 313.6738,-.5 174.8369,-.5"/>
<text text-anchor="start" x="182.8369" y="-16.5" font-family="Helvetica,sans-Serif" font-size="10.00" fill="#000000">fs::ScreenSharingController</text>
<text text-anchor="middle" x="244.2554" y="-6.5" font-family="Helvetica,sans-Serif" font-size="10.00" fill="#000000">::onFSDataAvailable</text>
</a>
</g>
</g>
<!-- Node36&#45;&gt;Node37 -->
<g id="edge4" class="edge">
<title>Node36&#45;&gt;Node37</title>
<path fill="none" stroke="#191970" d="M339.2559,-14.5C330.7817,-14.5 322.1594,-14.5 313.74,-14.5"/>
<polygon fill="#191970" stroke="#191970" points="339.4956,-18.0001 349.4956,-14.5 339.4955,-11.0001 339.4956,-18.0001"/>
</g>
<!-- Node38 -->
<g id="node6" class="node">
<title>Node38</title>
<g id="a_node6"><a xlink:href="classfs_1_1_screen_sharing_controller.html#aba97ae6754ab50d12fac104a78cd86b4" target="_top" xlink:title=" ">
<polygon fill="none" stroke="#000000" points="0,-.5 0,-28.5 138.8369,-28.5 138.8369,-.5 0,-.5"/>
<text text-anchor="start" x="8" y="-16.5" font-family="Helvetica,sans-Serif" font-size="10.00" fill="#000000">fs::ScreenSharingController</text>
<text text-anchor="middle" x="69.4185" y="-6.5" font-family="Helvetica,sans-Serif" font-size="10.00" fill="#000000">::onFSPropertyChanged</text>
</a>
</g>
</g>
<!-- Node37&#45;&gt;Node38 -->
<g id="edge5" class="edge">
<title>Node37&#45;&gt;Node38</title>
<path fill="none" stroke="#191970" d="M164.4053,-14.5C155.9478,-14.5 147.3952,-14.5 139.0671,-14.5"/>
<polygon fill="#191970" stroke="#191970" points="164.6529,-18.0001 174.6528,-14.5 164.6528,-11.0001 164.6529,-18.0001"/>
</g>
</g>
</svg>
