<?xml version="1.0" encoding="UTF-8" standalone="no"?>
<!DOCTYPE svg PUBLIC "-//W3C//DTD SVG 1.1//EN"
 "http://www.w3.org/Graphics/SVG/1.1/DTD/svg11.dtd">
<!-- Generated by graphviz version 2.40.1 (20161225.0304)
 -->
<!-- Title: fs::ScreenSharingController::getPresenterId Pages: 1 -->
<!--zoomable 319 -->
<svg id="main" version="1.1" xmlns="http://www.w3.org/2000/svg" xmlns:xlink="http://www.w3.org/1999/xlink" xml:space="preserve" onload="init(evt)">
<style type="text/css"><![CDATA[
.edge:hover path { stroke: red; }
.edge:hover polygon { stroke: red; fill: red; }
]]></style>
<script type="text/javascript"><![CDATA[
var edges = document.getElementsByTagName('g');
if (edges && edges.length) {
  for (var i=0;i<edges.length;i++) {
    if (edges[i].id.substr(0,4)=='edge') {
      edges[i].setAttribute('class','edge');
    }
  }
}
]]></script>
        <defs>
                <circle id="rim" cx="0" cy="0" r="7"/>
                <circle id="rim2" cx="0" cy="0" r="3.5"/>
                <g id="zoomPlus">
                        <use xlink:href="#rim" fill="#404040">
                                <set attributeName="fill" to="#808080" begin="zoomplus.mouseover" end="zoomplus.mouseout"/>
                        </use>
                        <path d="M-4,0h8M0,-4v8" fill="none" stroke="white" stroke-width="1.5" pointer-events="none"/>
                </g>
                <g id="zoomMin">
                        <use xlink:href="#rim" fill="#404040">
                                <set attributeName="fill" to="#808080" begin="zoomminus.mouseover" end="zoomminus.mouseout"/>
                        </use>
                        <path d="M-4,0h8" fill="none" stroke="white" stroke-width="1.5" pointer-events="none"/>
                </g>
                <g id="dirArrow">
                        <path fill="none" stroke="white" stroke-width="1.5" d="M0,-3.0v7 M-2.5,-0.5L0,-3.0L2.5,-0.5"/>
                </g>
               <g id="resetDef">
                       <use xlink:href="#rim2" fill="#404040">
                               <set attributeName="fill" to="#808080" begin="reset.mouseover" end="reset.mouseout"/>
                       </use>
               </g>
        </defs>

<script type="text/javascript">
var viewWidth = 540;
var viewHeight = 319;
var sectionId = 'dynsection-9';
</script>
<script xlink:href="svgpan.js"/>
<svg id="graph" class="graph">
<g id="viewport">
<title>fs::ScreenSharingController::getPresenterId</title>
<!-- Node45 -->
<g id="node1" class="node">
<title>Node45</title>
<g id="a_node1"><a xlink:title=" ">
<polygon fill="#bfbfbf" stroke="#000000" points="393.1016,-141.5 393.1016,-169.5 531.9385,-169.5 531.9385,-141.5 393.1016,-141.5"/>
<text text-anchor="start" x="401.1016" y="-157.5" font-family="Helvetica,sans-Serif" font-size="10.00" fill="#000000">fs::ScreenSharingController</text>
<text text-anchor="middle" x="462.52" y="-147.5" font-family="Helvetica,sans-Serif" font-size="10.00" fill="#000000">::getPresenterId</text>
</a>
</g>
</g>
<!-- Node46 -->
<g id="node2" class="node">
<title>Node46</title>
<g id="a_node2"><a xlink:href="classfs_1_1_screen_sharing_controller.html#ac9f469ea14aa984f4bea1d57fec65089" target="_top" xlink:title=" ">
<polygon fill="none" stroke="#000000" points="210.186,-282.5 210.186,-310.5 349.0229,-310.5 349.0229,-282.5 210.186,-282.5"/>
<text text-anchor="start" x="218.186" y="-298.5" font-family="Helvetica,sans-Serif" font-size="10.00" fill="#000000">fs::ScreenSharingController</text>
<text text-anchor="middle" x="279.6045" y="-288.5" font-family="Helvetica,sans-Serif" font-size="10.00" fill="#000000">::startScreenSharing</text>
</a>
</g>
</g>
<!-- Node45&#45;&gt;Node46 -->
<g id="edge1" class="edge">
<title>Node45&#45;&gt;Node46</title>
<path fill="none" stroke="#191970" d="M447.8762,-178.4769C429.7193,-205.1437 396.3254,-248.6302 357.1016,-273.5 351.6493,-276.957 345.6543,-279.9142 339.4876,-282.4397"/>
<polygon fill="#191970" stroke="#191970" points="451.0213,-180.0682 453.6476,-169.8041 445.1937,-176.1902 451.0213,-180.0682"/>
</g>
<!-- Node47 -->
<g id="node3" class="node">
<title>Node47</title>
<g id="a_node3"><a xlink:href="classfs_1_1_screen_sharing_controller.html#a7545ce28f9fdc33090bb8cc3b5cde8c0" target="_top" xlink:title=" ">
<polygon fill="none" stroke="#000000" points="210.186,-235.5 210.186,-263.5 349.0229,-263.5 349.0229,-235.5 210.186,-235.5"/>
<text text-anchor="start" x="218.186" y="-251.5" font-family="Helvetica,sans-Serif" font-size="10.00" fill="#000000">fs::ScreenSharingController</text>
<text text-anchor="middle" x="279.6045" y="-241.5" font-family="Helvetica,sans-Serif" font-size="10.00" fill="#000000">::stopPresenter</text>
</a>
</g>
</g>
<!-- Node45&#45;&gt;Node47 -->
<g id="edge2" class="edge">
<title>Node45&#45;&gt;Node47</title>
<path fill="none" stroke="#191970" d="M437.3234,-175.7011C416.7524,-191.3735 386.3957,-212.6869 357.1016,-226.5 349.9929,-229.8519 342.286,-232.838 334.5826,-235.4578"/>
<polygon fill="#191970" stroke="#191970" points="439.4709,-178.4649 445.2405,-169.5788 435.1887,-172.9275 439.4709,-178.4649"/>
</g>
<!-- Node48 -->
<g id="node4" class="node">
<title>Node48</title>
<g id="a_node4"><a xlink:href="classfs_1_1_screen_sharing_controller.html#a9e9c38a80d4f7e5ca8ff6f2093eff8b3" target="_top" xlink:title=" ">
<polygon fill="none" stroke="#000000" points="210.186,-188.5 210.186,-216.5 349.0229,-216.5 349.0229,-188.5 210.186,-188.5"/>
<text text-anchor="start" x="218.186" y="-204.5" font-family="Helvetica,sans-Serif" font-size="10.00" fill="#000000">fs::ScreenSharingController</text>
<text text-anchor="middle" x="279.6045" y="-194.5" font-family="Helvetica,sans-Serif" font-size="10.00" fill="#000000">::stopScreenSharing</text>
</a>
</g>
</g>
<!-- Node45&#45;&gt;Node48 -->
<g id="edge3" class="edge">
<title>Node45&#45;&gt;Node48</title>
<path fill="none" stroke="#191970" d="M397.9082,-172.102C377.0622,-177.4583 354.1745,-183.3393 334.131,-188.4894"/>
<polygon fill="#191970" stroke="#191970" points="398.825,-175.4802 407.6393,-169.6015 397.0829,-168.7004 398.825,-175.4802"/>
</g>
<!-- Node52 -->
<g id="node8" class="node">
<title>Node52</title>
<g id="a_node8"><a xlink:href="classfs_1_1_screen_sharing_controller.html#ac1ac63e46fdbd646abce05fc491253ad" target="_top" xlink:title=" ">
<polygon fill="none" stroke="#000000" points="203.2329,-141.5 203.2329,-169.5 355.9761,-169.5 355.9761,-141.5 203.2329,-141.5"/>
<text text-anchor="start" x="211.2329" y="-157.5" font-family="Helvetica,sans-Serif" font-size="10.00" fill="#000000">fs::ScreenSharingController</text>
<text text-anchor="middle" x="279.6045" y="-147.5" font-family="Helvetica,sans-Serif" font-size="10.00" fill="#000000">::broadcastPromotionAccepted</text>
</a>
</g>
</g>
<!-- Node45&#45;&gt;Node52 -->
<g id="edge7" class="edge">
<title>Node45&#45;&gt;Node52</title>
<path fill="none" stroke="#191970" d="M382.6022,-155.5C373.8026,-155.5 364.8582,-155.5 356.1018,-155.5"/>
<polygon fill="#191970" stroke="#191970" points="382.8457,-159.0001 392.8457,-155.5 382.8457,-152.0001 382.8457,-159.0001"/>
</g>
<!-- Node53 -->
<g id="node9" class="node">
<title>Node53</title>
<g id="a_node9"><a xlink:href="classfs_1_1_screen_sharing_controller.html#a85a33dada9b1df2d1f2f406249d19d23" target="_top" xlink:title=" ">
<polygon fill="none" stroke="#000000" points="202.1074,-94.5 202.1074,-122.5 357.1016,-122.5 357.1016,-94.5 202.1074,-94.5"/>
<text text-anchor="start" x="210.1074" y="-110.5" font-family="Helvetica,sans-Serif" font-size="10.00" fill="#000000">fs::ScreenSharingController</text>
<text text-anchor="middle" x="279.6045" y="-100.5" font-family="Helvetica,sans-Serif" font-size="10.00" fill="#000000">::onAttendeeBroadcastStopped</text>
</a>
</g>
</g>
<!-- Node45&#45;&gt;Node53 -->
<g id="edge8" class="edge">
<title>Node45&#45;&gt;Node53</title>
<path fill="none" stroke="#191970" d="M397.9082,-138.898C377.0622,-133.5417 354.1745,-127.6607 334.131,-122.5106"/>
<polygon fill="#191970" stroke="#191970" points="397.0829,-142.2996 407.6393,-141.3985 398.825,-135.5198 397.0829,-142.2996"/>
</g>
<!-- Node54 -->
<g id="node10" class="node">
<title>Node54</title>
<g id="a_node10"><a xlink:href="classfs_1_1_screen_sharing_controller.html#aff3d1cb9bf6b29f7d8be367d15689a37" target="_top" xlink:title=" ">
<polygon fill="none" stroke="#000000" points="203.2207,-47.5 203.2207,-75.5 355.9883,-75.5 355.9883,-47.5 203.2207,-47.5"/>
<text text-anchor="start" x="211.2207" y="-63.5" font-family="Helvetica,sans-Serif" font-size="10.00" fill="#000000">fs::ScreenSharingController</text>
<text text-anchor="middle" x="279.6045" y="-53.5" font-family="Helvetica,sans-Serif" font-size="10.00" fill="#000000">::onAttendeeBroadcastHangup</text>
</a>
</g>
</g>
<!-- Node45&#45;&gt;Node54 -->
<g id="edge9" class="edge">
<title>Node45&#45;&gt;Node54</title>
<path fill="none" stroke="#191970" d="M436.5867,-135.2164C415.98,-119.8758 385.9282,-99.1855 357.1016,-85.5 349.2129,-81.7548 340.5997,-78.416 332.0757,-75.5064"/>
<polygon fill="#191970" stroke="#191970" points="434.7199,-138.1925 444.8088,-141.4274 438.9392,-132.607 434.7199,-138.1925"/>
</g>
<!-- Node55 -->
<g id="node11" class="node">
<title>Node55</title>
<g id="a_node11"><a xlink:href="classfs_1_1_screen_sharing_controller.html#a3d467c4be5540b6724573253c6820b6c" target="_top" xlink:title=" ">
<polygon fill="none" stroke="#000000" points="210.186,-.5 210.186,-28.5 349.0229,-28.5 349.0229,-.5 210.186,-.5"/>
<text text-anchor="start" x="218.186" y="-16.5" font-family="Helvetica,sans-Serif" font-size="10.00" fill="#000000">fs::ScreenSharingController</text>
<text text-anchor="middle" x="279.6045" y="-6.5" font-family="Helvetica,sans-Serif" font-size="10.00" fill="#000000">::handleAttendeeDropped</text>
</a>
</g>
</g>
<!-- Node45&#45;&gt;Node55 -->
<g id="edge10" class="edge">
<title>Node45&#45;&gt;Node55</title>
<path fill="none" stroke="#191970" d="M447.8762,-132.5231C429.7193,-105.8563 396.3254,-62.3698 357.1016,-37.5 351.6493,-34.043 345.6543,-31.0858 339.4876,-28.5603"/>
<polygon fill="#191970" stroke="#191970" points="445.1937,-134.8098 453.6476,-141.1959 451.0213,-130.9318 445.1937,-134.8098"/>
</g>
<!-- Node49 -->
<g id="node5" class="node">
<title>Node49</title>
<g id="a_node5"><a xlink:href="classfs_1_1_screen_sharing_controller.html#ac13f35c4160d6b4bab246153d8389a0e" target="_top" xlink:title=" ">
<polygon fill="none" stroke="#000000" points="13.6353,-235.5 13.6353,-263.5 152.4722,-263.5 152.4722,-235.5 13.6353,-235.5"/>
<text text-anchor="start" x="21.6353" y="-251.5" font-family="Helvetica,sans-Serif" font-size="10.00" fill="#000000">fs::ScreenSharingController</text>
<text text-anchor="middle" x="83.0537" y="-241.5" font-family="Helvetica,sans-Serif" font-size="10.00" fill="#000000">::disableScreenSharing</text>
</a>
</g>
</g>
<!-- Node48&#45;&gt;Node49 -->
<g id="edge4" class="edge">
<title>Node48&#45;&gt;Node49</title>
<path fill="none" stroke="#191970" d="M211.0444,-218.8944C188.4654,-224.2935 163.5763,-230.2451 141.7961,-235.4533"/>
<polygon fill="#191970" stroke="#191970" points="211.9872,-222.2677 220.899,-216.5379 210.3592,-215.4596 211.9872,-222.2677"/>
</g>
<!-- Node50 -->
<g id="node6" class="node">
<title>Node50</title>
<g id="a_node6"><a xlink:href="classfs_1_1_screen_sharing_controller.html#a1a90e070b34064df0d721f97fc236c6c" target="_top" xlink:title=" ">
<polygon fill="none" stroke="#000000" points="4.4507,-188.5 4.4507,-216.5 161.6567,-216.5 161.6567,-188.5 4.4507,-188.5"/>
<text text-anchor="start" x="12.4507" y="-204.5" font-family="Helvetica,sans-Serif" font-size="10.00" fill="#000000">fs::ScreenSharingController</text>
<text text-anchor="middle" x="83.0537" y="-194.5" font-family="Helvetica,sans-Serif" font-size="10.00" fill="#000000">::onAttendeeBroadcastRevoked</text>
</a>
</g>
</g>
<!-- Node48&#45;&gt;Node50 -->
<g id="edge5" class="edge">
<title>Node48&#45;&gt;Node50</title>
<path fill="none" stroke="#191970" d="M199.6801,-202.5C187.2209,-202.5 174.3537,-202.5 161.9184,-202.5"/>
<polygon fill="#191970" stroke="#191970" points="200.0315,-206.0001 210.0314,-202.5 200.0314,-199.0001 200.0315,-206.0001"/>
</g>
<!-- Node51 -->
<g id="node7" class="node">
<title>Node51</title>
<g id="a_node7"><a xlink:href="classfs_1_1_screen_sharing_controller.html#ac1c08f9109bd64e3767d3e70b459fd8e" target="_top" xlink:title=" ">
<polygon fill="none" stroke="#000000" points="0,-141.5 0,-169.5 166.1074,-169.5 166.1074,-141.5 0,-141.5"/>
<text text-anchor="start" x="8" y="-157.5" font-family="Helvetica,sans-Serif" font-size="10.00" fill="#000000">fs::ScreenSharingController</text>
<text text-anchor="middle" x="83.0537" y="-147.5" font-family="Helvetica,sans-Serif" font-size="10.00" fill="#000000">::onAttendeeSubConferenceEnter</text>
</a>
</g>
</g>
<!-- Node48&#45;&gt;Node51 -->
<g id="edge6" class="edge">
<title>Node48&#45;&gt;Node51</title>
<path fill="none" stroke="#191970" d="M211.0444,-186.1056C188.4654,-180.7065 163.5763,-174.7549 141.7961,-169.5467"/>
<polygon fill="#191970" stroke="#191970" points="210.3592,-189.5404 220.899,-188.4621 211.9872,-182.7323 210.3592,-189.5404"/>
</g>
</g>
</svg>
        <g id="navigator" transform="translate(0 0)" fill="#404254">
                <rect fill="#f2f5e9" fill-opacity="0.5" stroke="#606060" stroke-width=".5" x="0" y="0" width="60" height="60"/>
                <use id="zoomplus" xlink:href="#zoomPlus" x="17" y="9" onmousedown="handleZoom(evt,'in')"/>
                <use id="zoomminus" xlink:href="#zoomMin" x="42" y="9" onmousedown="handleZoom(evt,'out')"/>
                <use id="reset" xlink:href="#resetDef" x="30" y="36" onmousedown="handleReset()"/>
                <g id="arrowUp" xlink:href="#dirArrow" transform="translate(30 24)" onmousedown="handlePan(0,-1)">
                  <use xlink:href="#rim" fill="#404040">
                        <set attributeName="fill" to="#808080" begin="arrowUp.mouseover" end="arrowUp.mouseout"/>
                  </use>
                  <path fill="none" stroke="white" stroke-width="1.5" d="M0,-3.0v7 M-2.5,-0.5L0,-3.0L2.5,-0.5"/>
                </g>
                <g id="arrowRight" xlink:href="#dirArrow" transform="rotate(90) translate(36 -43)" onmousedown="handlePan(1,0)">
                  <use xlink:href="#rim" fill="#404040">
                        <set attributeName="fill" to="#808080" begin="arrowRight.mouseover" end="arrowRight.mouseout"/>
                  </use>
                  <path fill="none" stroke="white" stroke-width="1.5" d="M0,-3.0v7 M-2.5,-0.5L0,-3.0L2.5,-0.5"/>
                </g>
                <g id="arrowDown" xlink:href="#dirArrow" transform="rotate(180) translate(-30 -48)" onmousedown="handlePan(0,1)">
                  <use xlink:href="#rim" fill="#404040">
                        <set attributeName="fill" to="#808080" begin="arrowDown.mouseover" end="arrowDown.mouseout"/>
                  </use>
                  <path fill="none" stroke="white" stroke-width="1.5" d="M0,-3.0v7 M-2.5,-0.5L0,-3.0L2.5,-0.5"/>
                </g>
                <g id="arrowLeft" xlink:href="#dirArrow" transform="rotate(270) translate(-36 17)" onmousedown="handlePan(-1,0)">
                  <use xlink:href="#rim" fill="#404040">
                        <set attributeName="fill" to="#808080" begin="arrowLeft.mouseover" end="arrowLeft.mouseout"/>
                  </use>
                  <path fill="none" stroke="white" stroke-width="1.5" d="M0,-3.0v7 M-2.5,-0.5L0,-3.0L2.5,-0.5"/>
                </g>
        </g>
        <svg viewBox="0 0 15 15" width="100%" height="30px" preserveAspectRatio="xMaxYMin meet">
         <g id="arrow_out" transform="scale(0.3 0.3)">
          <a xlink:href="classfs_1_1_screen_sharing_controller_af3820fa110e9ee3579a100f59f3488cc_icgraph_org.svg" target="_base">
           <rect id="button" ry="5" rx="5" y="6" x="6" height="38" width="38"
                fill="#f2f5e9" fill-opacity="0.5" stroke="#606060" stroke-width="1.0"/>
           <path id="arrow"
             d="M 11.500037,31.436501 C 11.940474,20.09759 22.043105,11.32322 32.158766,21.979434 L 37.068811,17.246167 C 37.068811,17.246167 37.088388,32 37.088388,32 L 22.160133,31.978069 C 22.160133,31.978069 26.997745,27.140456 26.997745,27.140456 C 18.528582,18.264221 13.291696,25.230495 11.500037,31.436501 z"
             style="fill:#404040;"/>
          </a>
         </g>
        </svg>
</svg>
