<?xml version="1.0" encoding="UTF-8" standalone="no"?>
<!DOCTYPE svg PUBLIC "-//W3C//DTD SVG 1.1//EN"
 "http://www.w3.org/Graphics/SVG/1.1/DTD/svg11.dtd">
<!-- Generated by graphviz version 2.40.1 (20161225.0304)
 -->
<!-- Title: cx::web::APIv3Wrapper::generateSIG Pages: 1 -->
<svg width="330pt" height="366pt"
 viewBox="0.00 0.00 329.83 366.00" xmlns="http://www.w3.org/2000/svg" xmlns:xlink="http://www.w3.org/1999/xlink">
<g id="graph0" class="graph" transform="scale(1 1) rotate(0) translate(4 362)">
<title>cx::web::APIv3Wrapper::generateSIG</title>
<!-- Node6 -->
<g id="node1" class="node">
<title>Node6</title>
<g id="a_node1"><a xlink:title=" ">
<polygon fill="#bfbfbf" stroke="#000000" points="201.5264,-164.5 201.5264,-192.5 321.833,-192.5 321.833,-164.5 201.5264,-164.5"/>
<text text-anchor="start" x="209.5264" y="-180.5" font-family="Helvetica,sans-Serif" font-size="10.00" fill="#000000">cx::web::APIv3Wrapper</text>
<text text-anchor="middle" x="261.6797" y="-170.5" font-family="Helvetica,sans-Serif" font-size="10.00" fill="#000000">::generateSIG</text>
</a>
</g>
</g>
<!-- Node7 -->
<g id="node2" class="node">
<title>Node7</title>
<g id="a_node2"><a xlink:href="classcx_1_1web_1_1_a_p_iv3_wrapper.html#a937e3d64d57196fd9185d0d4bcb06dad" target="_top" xlink:title=" ">
<polygon fill="none" stroke="#000000" points="0,-329.5 0,-357.5 165.5264,-357.5 165.5264,-329.5 0,-329.5"/>
<text text-anchor="start" x="8" y="-345.5" font-family="Helvetica,sans-Serif" font-size="10.00" fill="#000000">cx::web::APIv3Wrapper</text>
<text text-anchor="middle" x="82.7632" y="-335.5" font-family="Helvetica,sans-Serif" font-size="10.00" fill="#000000">::getSubscriptionBySubscriptionId</text>
</a>
</g>
</g>
<!-- Node6&#45;&gt;Node7 -->
<g id="edge1" class="edge">
<title>Node6&#45;&gt;Node7</title>
<path fill="none" stroke="#191970" d="M252.0512,-202.0093C237.8529,-233.7214 208.2802,-289.7628 165.5264,-320.5 160.6829,-323.9821 155.3325,-326.9376 149.7517,-329.446"/>
<polygon fill="#191970" stroke="#191970" points="255.3507,-203.198 256.1181,-192.631 248.9285,-200.413 255.3507,-203.198"/>
</g>
<!-- Node8 -->
<g id="node3" class="node">
<title>Node8</title>
<g id="a_node3"><a xlink:href="classcx_1_1web_1_1_a_p_iv3_wrapper.html#ac795190d94caa2f3c1588660e2e21852" target="_top" xlink:title=" ">
<polygon fill="none" stroke="#000000" points="22.6099,-282.5 22.6099,-310.5 142.9165,-310.5 142.9165,-282.5 22.6099,-282.5"/>
<text text-anchor="start" x="30.6099" y="-298.5" font-family="Helvetica,sans-Serif" font-size="10.00" fill="#000000">cx::web::APIv3Wrapper</text>
<text text-anchor="middle" x="82.7632" y="-288.5" font-family="Helvetica,sans-Serif" font-size="10.00" fill="#000000">::getRecording</text>
</a>
</g>
</g>
<!-- Node6&#45;&gt;Node8 -->
<g id="edge2" class="edge">
<title>Node6&#45;&gt;Node8</title>
<path fill="none" stroke="#191970" d="M244.8919,-200.7021C227.3732,-222.3567 197.9696,-254.699 165.5264,-273.5 158.5587,-277.5378 150.848,-280.8955 143.0178,-283.6804"/>
<polygon fill="#191970" stroke="#191970" points="247.7621,-202.7152 251.2195,-192.7003 242.2714,-198.3733 247.7621,-202.7152"/>
</g>
<!-- Node9 -->
<g id="node4" class="node">
<title>Node9</title>
<g id="a_node4"><a xlink:href="classcx_1_1web_1_1_a_p_iv3_wrapper.html#a28aba70474689688512404b7f5673fd9" target="_top" xlink:title=" ">
<polygon fill="none" stroke="#000000" points="22.6099,-235.5 22.6099,-263.5 142.9165,-263.5 142.9165,-235.5 22.6099,-235.5"/>
<text text-anchor="start" x="30.6099" y="-251.5" font-family="Helvetica,sans-Serif" font-size="10.00" fill="#000000">cx::web::APIv3Wrapper</text>
<text text-anchor="middle" x="82.7632" y="-241.5" font-family="Helvetica,sans-Serif" font-size="10.00" fill="#000000">::getInvitationText</text>
</a>
</g>
</g>
<!-- Node6&#45;&gt;Node9 -->
<g id="edge3" class="edge">
<title>Node6&#45;&gt;Node9</title>
<path fill="none" stroke="#191970" d="M227.588,-197.5256C209.5214,-207.0894 186.7332,-218.3469 165.5264,-226.5 157.0353,-229.7645 147.8916,-232.7791 138.8884,-235.4776"/>
<polygon fill="#191970" stroke="#191970" points="229.4157,-200.517 236.5719,-192.7042 226.1055,-194.3491 229.4157,-200.517"/>
</g>
<!-- Node10 -->
<g id="node5" class="node">
<title>Node10</title>
<g id="a_node5"><a xlink:href="classcx_1_1web_1_1_a_p_iv3_wrapper.html#ab108956a5ec8d0331fce4e35a2f60674" target="_top" xlink:title=" ">
<polygon fill="none" stroke="#000000" points="22.6099,-188.5 22.6099,-216.5 142.9165,-216.5 142.9165,-188.5 22.6099,-188.5"/>
<text text-anchor="start" x="30.6099" y="-204.5" font-family="Helvetica,sans-Serif" font-size="10.00" fill="#000000">cx::web::APIv3Wrapper</text>
<text text-anchor="middle" x="82.7632" y="-194.5" font-family="Helvetica,sans-Serif" font-size="10.00" fill="#000000">::updateSubscription</text>
</a>
</g>
</g>
<!-- Node6&#45;&gt;Node10 -->
<g id="edge4" class="edge">
<title>Node6&#45;&gt;Node10</title>
<path fill="none" stroke="#191970" d="M190.8351,-188.0031C174.9921,-190.1283 158.3342,-192.3628 142.9699,-194.4238"/>
<polygon fill="#191970" stroke="#191970" points="191.6608,-191.4238 201.1067,-186.6253 190.7301,-184.486 191.6608,-191.4238"/>
</g>
<!-- Node11 -->
<g id="node6" class="node">
<title>Node11</title>
<g id="a_node6"><a xlink:href="classcx_1_1web_1_1_a_p_iv3_wrapper.html#a55232aed215cb4059828f3c4f9ce7916" target="_top" xlink:title=" ">
<polygon fill="none" stroke="#000000" points="22.6099,-141.5 22.6099,-169.5 142.9165,-169.5 142.9165,-141.5 22.6099,-141.5"/>
<text text-anchor="start" x="30.6099" y="-157.5" font-family="Helvetica,sans-Serif" font-size="10.00" fill="#000000">cx::web::APIv3Wrapper</text>
<text text-anchor="middle" x="82.7632" y="-147.5" font-family="Helvetica,sans-Serif" font-size="10.00" fill="#000000">::getShortURL</text>
</a>
</g>
</g>
<!-- Node6&#45;&gt;Node11 -->
<g id="edge5" class="edge">
<title>Node6&#45;&gt;Node11</title>
<path fill="none" stroke="#191970" d="M190.8351,-169.3928C174.9921,-167.3562 158.3342,-165.2148 142.9699,-163.2397"/>
<polygon fill="#191970" stroke="#191970" points="190.742,-172.9096 201.1067,-170.7132 191.6346,-165.9667 190.742,-172.9096"/>
</g>
<!-- Node12 -->
<g id="node7" class="node">
<title>Node12</title>
<g id="a_node7"><a xlink:href="classcx_1_1web_1_1_a_p_iv3_wrapper.html#a17fc26dfd4b3f549035137650c770fb9" target="_top" xlink:title=" ">
<polygon fill="none" stroke="#000000" points="22.6099,-94.5 22.6099,-122.5 142.9165,-122.5 142.9165,-94.5 22.6099,-94.5"/>
<text text-anchor="start" x="30.6099" y="-110.5" font-family="Helvetica,sans-Serif" font-size="10.00" fill="#000000">cx::web::APIv3Wrapper</text>
<text text-anchor="middle" x="82.7632" y="-100.5" font-family="Helvetica,sans-Serif" font-size="10.00" fill="#000000">::getConference</text>
</a>
</g>
</g>
<!-- Node6&#45;&gt;Node12 -->
<g id="edge6" class="edge">
<title>Node6&#45;&gt;Node12</title>
<path fill="none" stroke="#191970" d="M226.3184,-159.8677C208.4082,-150.8745 186.1408,-140.3591 165.5264,-132.5 156.1604,-128.9293 146.0279,-125.5837 136.1717,-122.59"/>
<polygon fill="#191970" stroke="#191970" points="224.7547,-162.999 235.2552,-164.4097 227.9262,-156.7587 224.7547,-162.999"/>
</g>
<!-- Node13 -->
<g id="node8" class="node">
<title>Node13</title>
<g id="a_node8"><a xlink:href="classcx_1_1web_1_1_a_p_iv3_wrapper.html#aac6bfa4ded9f356944533fd4915c9cf4" target="_top" xlink:title=" ">
<polygon fill="none" stroke="#000000" points="22.6099,-47.5 22.6099,-75.5 142.9165,-75.5 142.9165,-47.5 22.6099,-47.5"/>
<text text-anchor="start" x="30.6099" y="-63.5" font-family="Helvetica,sans-Serif" font-size="10.00" fill="#000000">cx::web::APIv3Wrapper</text>
<text text-anchor="middle" x="82.7632" y="-53.5" font-family="Helvetica,sans-Serif" font-size="10.00" fill="#000000">::getConferenceList</text>
</a>
</g>
</g>
<!-- Node6&#45;&gt;Node13 -->
<g id="edge7" class="edge">
<title>Node6&#45;&gt;Node13</title>
<path fill="none" stroke="#191970" d="M244.4543,-156.5031C226.7912,-135.3757 197.4516,-104.0125 165.5264,-85.5 158.5376,-81.4475 150.8148,-78.0367 142.9784,-75.1773"/>
<polygon fill="#191970" stroke="#191970" points="241.8091,-158.7973 250.8497,-164.3216 247.2273,-154.3653 241.8091,-158.7973"/>
</g>
<!-- Node14 -->
<g id="node9" class="node">
<title>Node14</title>
<g id="a_node9"><a xlink:href="classcx_1_1web_1_1_a_p_iv3_wrapper.html#a6381ebf52cbeff37e6a4c0a103117f0c" target="_top" xlink:title=" ">
<polygon fill="none" stroke="#000000" points="18.623,-.5 18.623,-28.5 146.9033,-28.5 146.9033,-.5 18.623,-.5"/>
<text text-anchor="start" x="26.623" y="-16.5" font-family="Helvetica,sans-Serif" font-size="10.00" fill="#000000">cx::web::APIv3Wrapper</text>
<text text-anchor="middle" x="82.7632" y="-6.5" font-family="Helvetica,sans-Serif" font-size="10.00" fill="#000000">::getBroadcastResources</text>
</a>
</g>
</g>
<!-- Node6&#45;&gt;Node14 -->
<g id="edge8" class="edge">
<title>Node6&#45;&gt;Node14</title>
<path fill="none" stroke="#191970" d="M251.6922,-154.9096C237.251,-123.6386 207.5828,-68.8821 165.5264,-38.5 159.9479,-34.47 153.702,-31.1134 147.2086,-28.3183"/>
<polygon fill="#191970" stroke="#191970" points="248.5607,-156.4805 255.8422,-164.1766 254.9493,-153.6194 248.5607,-156.4805"/>
</g>
</g>
</svg>
