<?xml version="1.0" encoding="UTF-8" standalone="no"?>
<!DOCTYPE svg PUBLIC "-//W3C//DTD SVG 1.1//EN"
 "http://www.w3.org/Graphics/SVG/1.1/DTD/svg11.dtd">
<!-- Generated by graphviz version 2.40.1 (20161225.0304)
 -->
<!-- Title: cx::web::APIv3Wrapper::getSubscriptionBySubscriptionId Pages: 1 -->
<svg width="522pt" height="84pt"
 viewBox="0.00 0.00 521.51 84.00" xmlns="http://www.w3.org/2000/svg" xmlns:xlink="http://www.w3.org/1999/xlink">
<g id="graph0" class="graph" transform="scale(1 1) rotate(0) translate(4 80)">
<title>cx::web::APIv3Wrapper::getSubscriptionBySubscriptionId</title>
<!-- Node83 -->
<g id="node1" class="node">
<title>Node83</title>
<g id="a_node1"><a xlink:title=" ">
<polygon fill="#bfbfbf" stroke="#000000" points="0,-23.5 0,-51.5 165.5264,-51.5 165.5264,-23.5 0,-23.5"/>
<text text-anchor="start" x="8" y="-39.5" font-family="Helvetica,sans-Serif" font-size="10.00" fill="#000000">cx::web::APIv3Wrapper</text>
<text text-anchor="middle" x="82.7632" y="-29.5" font-family="Helvetica,sans-Serif" font-size="10.00" fill="#000000">::getSubscriptionBySubscriptionId</text>
</a>
</g>
</g>
<!-- Node84 -->
<g id="node2" class="node">
<title>Node84</title>
<g id="a_node2"><a xlink:href="classcx_1_1web_1_1_a_p_iv3_wrapper.html#a35f4cbf1d298182aadcfcb8d68c75748" target="_top" xlink:title=" ">
<polygon fill="none" stroke="#000000" points="210.5083,-47.5 210.5083,-75.5 330.8149,-75.5 330.8149,-47.5 210.5083,-47.5"/>
<text text-anchor="start" x="218.5083" y="-63.5" font-family="Helvetica,sans-Serif" font-size="10.00" fill="#000000">cx::web::APIv3Wrapper</text>
<text text-anchor="middle" x="270.6616" y="-53.5" font-family="Helvetica,sans-Serif" font-size="10.00" fill="#000000">::generateSIG</text>
</a>
</g>
</g>
<!-- Node83&#45;&gt;Node84 -->
<g id="edge1" class="edge">
<title>Node83&#45;&gt;Node84</title>
<path fill="none" stroke="#191970" d="M165.7251,-48.0966C177.2414,-49.5676 188.9809,-51.067 200.2387,-52.505"/>
<polygon fill="#191970" stroke="#191970" points="200.059,-56.0104 210.4219,-53.8057 200.946,-49.0668 200.059,-56.0104"/>
</g>
<!-- Node85 -->
<g id="node3" class="node">
<title>Node85</title>
<g id="a_node3"><a xlink:href="classcx_1_1_h_t_t_p_request_container.html#a88443e3419255d1d2bb8503829c4bcaa" target="_top" xlink:title=" ">
<polygon fill="none" stroke="#000000" points="201.5264,-.5 201.5264,-28.5 339.7969,-28.5 339.7969,-.5 201.5264,-.5"/>
<text text-anchor="start" x="209.5264" y="-16.5" font-family="Helvetica,sans-Serif" font-size="10.00" fill="#000000">cx::HTTPRequestContainer</text>
<text text-anchor="middle" x="270.6616" y="-6.5" font-family="Helvetica,sans-Serif" font-size="10.00" fill="#000000">::request</text>
</a>
</g>
</g>
<!-- Node83&#45;&gt;Node85 -->
<g id="edge2" class="edge">
<title>Node83&#45;&gt;Node85</title>
<path fill="none" stroke="#191970" d="M165.7251,-27.3449C174.1822,-26.3097 182.7597,-25.2598 191.1784,-24.2293"/>
<polygon fill="#191970" stroke="#191970" points="191.8492,-27.6734 201.3499,-22.9842 190.9987,-20.7252 191.8492,-27.6734"/>
</g>
<!-- Node86 -->
<g id="node4" class="node">
<title>Node86</title>
<g id="a_node4"><a xlink:href="structcx_1_1_h_t_t_p_request_1_1_request_params.html#aad683476ac9a2874f8a98a530d2b791b" target="_top" xlink:title=" ">
<polygon fill="none" stroke="#000000" points="375.7969,-.5 375.7969,-28.5 513.5107,-28.5 513.5107,-.5 375.7969,-.5"/>
<text text-anchor="start" x="383.7969" y="-16.5" font-family="Helvetica,sans-Serif" font-size="10.00" fill="#000000">cx::HTTPRequest::Request</text>
<text text-anchor="middle" x="444.6538" y="-6.5" font-family="Helvetica,sans-Serif" font-size="10.00" fill="#000000">Params::start</text>
</a>
</g>
</g>
<!-- Node85&#45;&gt;Node86 -->
<g id="edge3" class="edge">
<title>Node85&#45;&gt;Node86</title>
<path fill="none" stroke="#191970" d="M339.9279,-14.5C348.2822,-14.5 356.8643,-14.5 365.3482,-14.5"/>
<polygon fill="#191970" stroke="#191970" points="365.6259,-18.0001 375.6259,-14.5 365.6258,-11.0001 365.6259,-18.0001"/>
</g>
</g>
</svg>
