<?xml version="1.0" encoding="UTF-8" standalone="no"?>
<!DOCTYPE svg PUBLIC "-//W3C//DTD SVG 1.1//EN"
 "http://www.w3.org/Graphics/SVG/1.1/DTD/svg11.dtd">
<!-- Generated by graphviz version 2.40.1 (20161225.0304)
 -->
<!-- Title: fs::MeetingClientSession::startMeetingSession Pages: 1 -->
<svg width="458pt" height="168pt"
 viewBox="0.00 0.00 458.16 168.00" xmlns="http://www.w3.org/2000/svg" xmlns:xlink="http://www.w3.org/1999/xlink">
<g id="graph0" class="graph" transform="scale(1 1) rotate(0) translate(4 164)">
<title>fs::MeetingClientSession::startMeetingSession</title>
<!-- Node916 -->
<g id="node1" class="node">
<title>Node916</title>
<g id="a_node1"><a xlink:title=" ">
<polygon fill="#bfbfbf" stroke="#000000" points="0,-88.5 0,-116.5 126.0537,-116.5 126.0537,-88.5 0,-88.5"/>
<text text-anchor="start" x="8" y="-104.5" font-family="Helvetica,sans-Serif" font-size="10.00" fill="#000000">fs::MeetingClientSession</text>
<text text-anchor="middle" x="63.0269" y="-94.5" font-family="Helvetica,sans-Serif" font-size="10.00" fill="#000000">::startMeetingSession</text>
</a>
</g>
</g>
<!-- Node917 -->
<g id="node2" class="node">
<title>Node917</title>
<g id="a_node2"><a xlink:href="classfs_1_1_meeting_client_session.html#a8f3b81d8110dc200c275393372b7e091" target="_top" xlink:title=" ">
<polygon fill="none" stroke="#000000" points="162.0537,-121.5 162.0537,-149.5 288.1074,-149.5 288.1074,-121.5 162.0537,-121.5"/>
<text text-anchor="start" x="170.0537" y="-137.5" font-family="Helvetica,sans-Serif" font-size="10.00" fill="#000000">fs::MeetingClientSession</text>
<text text-anchor="middle" x="225.0806" y="-127.5" font-family="Helvetica,sans-Serif" font-size="10.00" fill="#000000">::isPresenter</text>
</a>
</g>
</g>
<!-- Node916&#45;&gt;Node917 -->
<g id="edge1" class="edge">
<title>Node916&#45;&gt;Node917</title>
<path fill="none" stroke="#191970" d="M126.1451,-115.3532C134.5767,-117.0701 143.2807,-118.8426 151.8666,-120.591"/>
<polygon fill="#191970" stroke="#191970" points="151.3707,-124.0618 161.868,-122.6276 152.7675,-117.2025 151.3707,-124.0618"/>
</g>
<!-- Node919 -->
<g id="node4" class="node">
<title>Node919</title>
<g id="a_node4"><a xlink:href="classfs_1_1_meeting_client_session.html#ac5bc83d6f765d33e203460c17009a8be" target="_top" xlink:title=" ">
<polygon fill="none" stroke="#000000" points="162.0537,-65.5 162.0537,-93.5 288.1074,-93.5 288.1074,-65.5 162.0537,-65.5"/>
<text text-anchor="start" x="170.0537" y="-81.5" font-family="Helvetica,sans-Serif" font-size="10.00" fill="#000000">fs::MeetingClientSession</text>
<text text-anchor="middle" x="225.0806" y="-71.5" font-family="Helvetica,sans-Serif" font-size="10.00" fill="#000000">::startMeetingSession</text>
</a>
</g>
</g>
<!-- Node916&#45;&gt;Node919 -->
<g id="edge3" class="edge">
<title>Node916&#45;&gt;Node919</title>
<path fill="none" stroke="#191970" d="M126.1451,-93.5417C134.5767,-92.3451 143.2807,-91.1097 151.8666,-89.8911"/>
<polygon fill="#191970" stroke="#191970" points="152.4591,-93.3422 161.868,-88.4716 151.4754,-86.4117 152.4591,-93.3422"/>
</g>
<!-- Node918 -->
<g id="node3" class="node">
<title>Node918</title>
<g id="a_node3"><a xlink:href="classfs_1_1_meeting_client_session.html#ad2db541bceb2f60d39d34b3e443801d2" target="_top" xlink:title=" ">
<polygon fill="none" stroke="#000000" points="324.1074,-131.5 324.1074,-159.5 450.1611,-159.5 450.1611,-131.5 324.1074,-131.5"/>
<text text-anchor="start" x="332.1074" y="-147.5" font-family="Helvetica,sans-Serif" font-size="10.00" fill="#000000">fs::MeetingClientSession</text>
<text text-anchor="middle" x="387.1343" y="-137.5" font-family="Helvetica,sans-Serif" font-size="10.00" fill="#000000">::isInitialized</text>
</a>
</g>
</g>
<!-- Node917&#45;&gt;Node918 -->
<g id="edge2" class="edge">
<title>Node917&#45;&gt;Node918</title>
<path fill="none" stroke="#191970" d="M288.1988,-139.3949C296.6304,-139.9152 305.3344,-140.4523 313.9203,-140.9821"/>
<polygon fill="#191970" stroke="#191970" points="313.7251,-144.4766 323.9217,-141.5993 314.1563,-137.4899 313.7251,-144.4766"/>
</g>
<!-- Node920 -->
<g id="node5" class="node">
<title>Node920</title>
<g id="a_node5"><a xlink:href="_meeting_client_session_8cxx.html#ab06e713e85f5d00e42ad86367c03f278" target="_top" xlink:title=" ">
<polygon fill="none" stroke="#000000" points="357.7305,-94.5 357.7305,-112.5 416.5381,-112.5 416.5381,-94.5 357.7305,-94.5"/>
<text text-anchor="middle" x="387.1343" y="-100.5" font-family="Helvetica,sans-Serif" font-size="10.00" fill="#000000">asio_post</text>
</a>
</g>
</g>
<!-- Node919&#45;&gt;Node920 -->
<g id="edge4" class="edge">
<title>Node919&#45;&gt;Node920</title>
<path fill="none" stroke="#191970" d="M288.1988,-88.8477C308.1087,-91.7964 329.5371,-94.9699 347.3433,-97.607"/>
<polygon fill="#191970" stroke="#191970" points="346.965,-101.0891 357.3699,-99.0919 347.9905,-94.1646 346.965,-101.0891"/>
</g>
<!-- Node921 -->
<g id="node6" class="node">
<title>Node921</title>
<g id="a_node6"><a xlink:href="classfs_1_1_meeting_client_session.html#a75e9c574fb9a84a95e9629dd91689dc0" target="_top" xlink:title=" ">
<polygon fill="none" stroke="#000000" points="324.1074,-47.5 324.1074,-75.5 450.1611,-75.5 450.1611,-47.5 324.1074,-47.5"/>
<text text-anchor="start" x="332.1074" y="-63.5" font-family="Helvetica,sans-Serif" font-size="10.00" fill="#000000">fs::MeetingClientSession</text>
<text text-anchor="middle" x="387.1343" y="-53.5" font-family="Helvetica,sans-Serif" font-size="10.00" fill="#000000">::ioService</text>
</a>
</g>
</g>
<!-- Node919&#45;&gt;Node921 -->
<g id="edge5" class="edge">
<title>Node919&#45;&gt;Node921</title>
<path fill="none" stroke="#191970" d="M288.1988,-72.4892C296.6304,-71.5527 305.3344,-70.5859 313.9203,-69.6322"/>
<polygon fill="#191970" stroke="#191970" points="314.3693,-73.1039 323.9217,-68.5213 313.5964,-66.1467 314.3693,-73.1039"/>
</g>
<!-- Node922 -->
<g id="node7" class="node">
<title>Node922</title>
<g id="a_node7"><a xlink:href="classfs_1_1_meeting_client_session.html#aa7a012a69ee6e0fe62486e4df12eac45" target="_top" xlink:title=" ">
<polygon fill="none" stroke="#000000" points="324.1074,-.5 324.1074,-28.5 450.1611,-28.5 450.1611,-.5 324.1074,-.5"/>
<text text-anchor="start" x="332.1074" y="-16.5" font-family="Helvetica,sans-Serif" font-size="10.00" fill="#000000">fs::MeetingClientSession</text>
<text text-anchor="middle" x="387.1343" y="-6.5" font-family="Helvetica,sans-Serif" font-size="10.00" fill="#000000">::onCleanUp</text>
</a>
</g>
</g>
<!-- Node919&#45;&gt;Node922 -->
<g id="edge6" class="edge">
<title>Node919&#45;&gt;Node922</title>
<path fill="none" stroke="#191970" d="M258.4447,-65.4067C277.6029,-57.3843 302.1459,-47.2256 324.1074,-38.5 329.276,-36.4464 334.6964,-34.3287 340.0973,-32.2413"/>
<polygon fill="#191970" stroke="#191970" points="341.6595,-35.3906 349.7391,-28.537 339.1491,-28.8562 341.6595,-35.3906"/>
</g>
</g>
</svg>
