<?xml version="1.0" encoding="UTF-8" standalone="no"?>
<!DOCTYPE svg PUBLIC "-//W3C//DTD SVG 1.1//EN"
 "http://www.w3.org/Graphics/SVG/1.1/DTD/svg11.dtd">
<!-- Generated by graphviz version 2.40.1 (20161225.0304)
 -->
<!-- Title: fs::IDelegatesGetter::getRawRTMessageDelegate Pages: 1 -->
<svg width="481pt" height="37pt"
 viewBox="0.00 0.00 481.33 37.00" xmlns="http://www.w3.org/2000/svg" xmlns:xlink="http://www.w3.org/1999/xlink">
<g id="graph0" class="graph" transform="scale(1 1) rotate(0) translate(4 33)">
<title>fs::IDelegatesGetter::getRawRTMessageDelegate</title>
<!-- Node19 -->
<g id="node1" class="node">
<title>Node19</title>
<g id="a_node1"><a xlink:title=" ">
<polygon fill="#bfbfbf" stroke="#000000" points="324.1074,-.5 324.1074,-28.5 473.3301,-28.5 473.3301,-.5 324.1074,-.5"/>
<text text-anchor="start" x="332.1074" y="-16.5" font-family="Helvetica,sans-Serif" font-size="10.00" fill="#000000">fs::IDelegatesGetter</text>
<text text-anchor="middle" x="398.7188" y="-6.5" font-family="Helvetica,sans-Serif" font-size="10.00" fill="#000000">::getRawRTMessageDelegate</text>
</a>
</g>
</g>
<!-- Node20 -->
<g id="node2" class="node">
<title>Node20</title>
<g id="a_node2"><a xlink:href="classfs_1_1_meeting_client_session.html#a5f7fdbdd34d2719f4d0ebf5a8ec139c9" target="_top" xlink:title=" ">
<polygon fill="none" stroke="#000000" points="162.0537,-.5 162.0537,-28.5 288.1074,-28.5 288.1074,-.5 162.0537,-.5"/>
<text text-anchor="start" x="170.0537" y="-16.5" font-family="Helvetica,sans-Serif" font-size="10.00" fill="#000000">fs::MeetingClientSession</text>
<text text-anchor="middle" x="225.0806" y="-6.5" font-family="Helvetica,sans-Serif" font-size="10.00" fill="#000000">::configureDelegates</text>
</a>
</g>
</g>
<!-- Node19&#45;&gt;Node20 -->
<g id="edge1" class="edge">
<title>Node19&#45;&gt;Node20</title>
<path fill="none" stroke="#191970" d="M313.9368,-14.5C305.2742,-14.5 296.5845,-14.5 288.213,-14.5"/>
<polygon fill="#191970" stroke="#191970" points="314.0729,-18.0001 324.0728,-14.5 314.0728,-11.0001 314.0729,-18.0001"/>
</g>
<!-- Node21 -->
<g id="node3" class="node">
<title>Node21</title>
<g id="a_node3"><a xlink:href="classfs_1_1_meeting_client_session.html#a9e7c4897c38348a6068a28c1deb3dbc4" target="_top" xlink:title=" ">
<polygon fill="none" stroke="#000000" points="0,-.5 0,-28.5 126.0537,-28.5 126.0537,-.5 0,-.5"/>
<text text-anchor="start" x="8" y="-16.5" font-family="Helvetica,sans-Serif" font-size="10.00" fill="#000000">fs::MeetingClientSession</text>
<text text-anchor="middle" x="63.0269" y="-6.5" font-family="Helvetica,sans-Serif" font-size="10.00" fill="#000000">::setDelegatesProvider</text>
</a>
</g>
</g>
<!-- Node20&#45;&gt;Node21 -->
<g id="edge2" class="edge">
<title>Node20&#45;&gt;Node21</title>
<path fill="none" stroke="#191970" d="M151.6826,-14.5C143.1884,-14.5 134.5814,-14.5 126.2394,-14.5"/>
<polygon fill="#191970" stroke="#191970" points="151.9624,-18.0001 161.9623,-14.5 151.9623,-11.0001 151.9624,-18.0001"/>
</g>
</g>
</svg>
