<?xml version="1.0" encoding="UTF-8" standalone="no"?>
<!DOCTYPE svg PUBLIC "-//W3C//DTD SVG 1.1//EN"
 "http://www.w3.org/Graphics/SVG/1.1/DTD/svg11.dtd">
<!-- Generated by graphviz version 2.40.1 (20161225.0304)
 -->
<!-- Title: fs::VideoController::isVideoEnabled Pages: 1 -->
<svg width="302pt" height="84pt"
 viewBox="0.00 0.00 301.53 84.00" xmlns="http://www.w3.org/2000/svg" xmlns:xlink="http://www.w3.org/1999/xlink">
<g id="graph0" class="graph" transform="scale(1 1) rotate(0) translate(4 80)">
<title>fs::VideoController::isVideoEnabled</title>
<!-- Node41 -->
<g id="node1" class="node">
<title>Node41</title>
<g id="a_node1"><a xlink:title=" ">
<polygon fill="#bfbfbf" stroke="#000000" points="195.4473,-23.5 195.4473,-51.5 293.5322,-51.5 293.5322,-23.5 195.4473,-23.5"/>
<text text-anchor="start" x="203.4473" y="-39.5" font-family="Helvetica,sans-Serif" font-size="10.00" fill="#000000">fs::VideoController</text>
<text text-anchor="middle" x="244.4897" y="-29.5" font-family="Helvetica,sans-Serif" font-size="10.00" fill="#000000">::isVideoEnabled</text>
</a>
</g>
</g>
<!-- Node42 -->
<g id="node2" class="node">
<title>Node42</title>
<g id="a_node2"><a xlink:href="classfs_1_1_video_controller.html#ab29575083102767499c81b9609791997" target="_top" xlink:title=" ">
<polygon fill="none" stroke="#000000" points="19.1797,-47.5 19.1797,-75.5 140.2676,-75.5 140.2676,-47.5 19.1797,-47.5"/>
<text text-anchor="start" x="27.1797" y="-63.5" font-family="Helvetica,sans-Serif" font-size="10.00" fill="#000000">fs::VideoController</text>
<text text-anchor="middle" x="79.7236" y="-53.5" font-family="Helvetica,sans-Serif" font-size="10.00" fill="#000000">::handleAttendeeJoined</text>
</a>
</g>
</g>
<!-- Node41&#45;&gt;Node42 -->
<g id="edge1" class="edge">
<title>Node41&#45;&gt;Node42</title>
<path fill="none" stroke="#191970" d="M184.7682,-46.1991C170.36,-48.2978 154.9489,-50.5426 140.4932,-52.6482"/>
<polygon fill="#191970" stroke="#191970" points="185.6634,-49.6057 195.0545,-44.7008 184.6544,-42.6788 185.6634,-49.6057"/>
</g>
<!-- Node43 -->
<g id="node3" class="node">
<title>Node43</title>
<g id="a_node3"><a xlink:href="classfs_1_1_video_controller.html#aa268aa4fb79b9a4aba70550a61a87f54" target="_top" xlink:title=" ">
<polygon fill="none" stroke="#000000" points="0,-.5 0,-28.5 159.4473,-28.5 159.4473,-.5 0,-.5"/>
<text text-anchor="start" x="8" y="-16.5" font-family="Helvetica,sans-Serif" font-size="10.00" fill="#000000">fs::VideoController</text>
<text text-anchor="middle" x="79.7236" y="-6.5" font-family="Helvetica,sans-Serif" font-size="10.00" fill="#000000">::handleAttendeeMediaChanged</text>
</a>
</g>
</g>
<!-- Node41&#45;&gt;Node43 -->
<g id="edge2" class="edge">
<title>Node41&#45;&gt;Node43</title>
<path fill="none" stroke="#191970" d="M185.1367,-29.2148C176.8477,-28.0577 168.2206,-26.8534 159.6293,-25.6542"/>
<polygon fill="#191970" stroke="#191970" points="184.6666,-32.683 195.0545,-30.5992 185.6344,-25.7503 184.6666,-32.683"/>
</g>
</g>
</svg>
