<?xml version="1.0" encoding="UTF-8" standalone="no"?>
<!DOCTYPE svg PUBLIC "-//W3C//DTD SVG 1.1//EN"
 "http://www.w3.org/Graphics/SVG/1.1/DTD/svg11.dtd">
<!-- Generated by graphviz version 2.40.1 (20161225.0304)
 -->
<!-- Title: cx::details::SubscriptionQueryHelper Pages: 1 -->
<svg width="153pt" height="376pt"
 viewBox="0.00 0.00 152.61 376.00" xmlns="http://www.w3.org/2000/svg" xmlns:xlink="http://www.w3.org/1999/xlink">
<g id="graph0" class="graph" transform="scale(1 1) rotate(0) translate(4 372)">
<title>cx::details::SubscriptionQueryHelper</title>
<!-- Node1 -->
<g id="node1" class="node">
<title>Node1</title>
<g id="a_node1"><a xlink:title=" ">
<polygon fill="#bfbfbf" stroke="#000000" points="0,-.5 0,-124.5 142.9971,-124.5 142.9971,-.5 0,-.5"/>
<text text-anchor="start" x="8" y="-112.5" font-family="Helvetica,sans-Serif" font-size="10.00" fill="#000000">cx::details::Subscription</text>
<text text-anchor="middle" x="71.4985" y="-102.5" font-family="Helvetica,sans-Serif" font-size="10.00" fill="#000000">QueryHelper</text>
<polyline fill="none" stroke="#000000" points="0,-96.5 142.9971,-96.5 "/>
<text text-anchor="middle" x="71.4985" y="-84.5" font-family="Helvetica,sans-Serif" font-size="10.00" fill="#000000"> </text>
<polyline fill="none" stroke="#000000" points="0,-78.5 142.9971,-78.5 "/>
<text text-anchor="start" x="8" y="-66.5" font-family="Helvetica,sans-Serif" font-size="10.00" fill="#000000">+ SubscriptionQueryHelper()</text>
<text text-anchor="start" x="8" y="-56.5" font-family="Helvetica,sans-Serif" font-size="10.00" fill="#000000">+ authorise()</text>
<text text-anchor="start" x="8" y="-46.5" font-family="Helvetica,sans-Serif" font-size="10.00" fill="#000000">+ getCountryCode()</text>
<text text-anchor="start" x="8" y="-36.5" font-family="Helvetica,sans-Serif" font-size="10.00" fill="#000000">+ getFullSubscription()</text>
<text text-anchor="start" x="8" y="-26.5" font-family="Helvetica,sans-Serif" font-size="10.00" fill="#000000">+ getPublicSubscription()</text>
<text text-anchor="start" x="8" y="-16.5" font-family="Helvetica,sans-Serif" font-size="10.00" fill="#000000">+ getEquipment()</text>
<text text-anchor="start" x="8" y="-6.5" font-family="Helvetica,sans-Serif" font-size="10.00" fill="#000000"># getPhoneNumber()</text>
</a>
</g>
</g>
<!-- Node2 -->
<g id="node2" class="node">
<title>Node2</title>
<g id="a_node2"><a xlink:title="STL class.">
<polygon fill="none" stroke="#bfbfbf" points="41.8237,-211.5 41.8237,-265.5 101.1733,-265.5 101.1733,-211.5 41.8237,-211.5"/>
<text text-anchor="middle" x="71.4985" y="-253.5" font-family="Helvetica,sans-Serif" font-size="10.00" fill="#000000">std::string</text>
<polyline fill="none" stroke="#bfbfbf" points="41.8237,-247.5 101.1733,-247.5 "/>
<text text-anchor="middle" x="71.4985" y="-235.5" font-family="Helvetica,sans-Serif" font-size="10.00" fill="#000000"> </text>
<polyline fill="none" stroke="#bfbfbf" points="41.8237,-229.5 101.1733,-229.5 "/>
<text text-anchor="middle" x="71.4985" y="-217.5" font-family="Helvetica,sans-Serif" font-size="10.00" fill="#000000"> </text>
</a>
</g>
</g>
<!-- Node2&#45;&gt;Node1 -->
<g id="edge1" class="edge">
<title>Node2&#45;&gt;Node1</title>
<path fill="none" stroke="#404040" d="M71.4985,-211.3857C71.4985,-191.401 71.4985,-163.199 71.4985,-136.7072"/>
<polygon fill="none" stroke="#404040" points="71.4986,-136.6913 67.4986,-130.6913 71.4985,-124.6913 75.4986,-130.6912 71.4986,-136.6913"/>
<text text-anchor="middle" x="108.0562" y="-185" font-family="Helvetica,sans-Serif" font-size="10.00" fill="#000000"> +meeting_url</text>
<text text-anchor="middle" x="108.0562" y="-175" font-family="Helvetica,sans-Serif" font-size="10.00" fill="#000000">+access_code</text>
<text text-anchor="middle" x="108.0562" y="-165" font-family="Helvetica,sans-Serif" font-size="10.00" fill="#000000">+phone_number</text>
<text text-anchor="middle" x="108.0562" y="-155" font-family="Helvetica,sans-Serif" font-size="10.00" fill="#000000">+subscriber_pin</text>
<text text-anchor="middle" x="108.0562" y="-145" font-family="Helvetica,sans-Serif" font-size="10.00" fill="#000000">+refresh_token</text>
</g>
<!-- Node3 -->
<g id="node3" class="node">
<title>Node3</title>
<g id="a_node3"><a xlink:title="STL class.">
<polygon fill="none" stroke="#bfbfbf" points="24.4507,-303.5 24.4507,-367.5 118.5464,-367.5 118.5464,-303.5 24.4507,-303.5"/>
<text text-anchor="start" x="32.4507" y="-355.5" font-family="Helvetica,sans-Serif" font-size="10.00" fill="#000000">std::basic_string&lt;</text>
<text text-anchor="middle" x="71.4985" y="-345.5" font-family="Helvetica,sans-Serif" font-size="10.00" fill="#000000"> char &gt;</text>
<polyline fill="none" stroke="#bfbfbf" points="24.4507,-339.5 118.5464,-339.5 "/>
<text text-anchor="middle" x="71.4985" y="-327.5" font-family="Helvetica,sans-Serif" font-size="10.00" fill="#000000"> </text>
<polyline fill="none" stroke="#bfbfbf" points="24.4507,-321.5 118.5464,-321.5 "/>
<text text-anchor="middle" x="71.4985" y="-309.5" font-family="Helvetica,sans-Serif" font-size="10.00" fill="#000000"> </text>
</a>
</g>
</g>
<!-- Node3&#45;&gt;Node2 -->
<g id="edge2" class="edge">
<title>Node3&#45;&gt;Node2</title>
<path fill="none" stroke="#191970" d="M71.4985,-293.4397C71.4985,-284.0133 71.4985,-274.2564 71.4985,-265.6277"/>
<polygon fill="none" stroke="#191970" points="67.9986,-293.4697 71.4985,-303.4697 74.9986,-293.4698 67.9986,-293.4697"/>
</g>
</g>
</svg>
