<?xml version="1.0" encoding="UTF-8" standalone="no"?>
<!DOCTYPE svg PUBLIC "-//W3C//DTD SVG 1.1//EN"
 "http://www.w3.org/Graphics/SVG/1.1/DTD/svg11.dtd">
<!-- Generated by graphviz version 2.40.1 (20161225.0304)
 -->
<!-- Title: fs::ScreenSharingController::onAttendeeBroadcastRevoked Pages: 1 -->
<svg width="515pt" height="84pt"
 viewBox="0.00 0.00 514.88 84.00" xmlns="http://www.w3.org/2000/svg" xmlns:xlink="http://www.w3.org/1999/xlink">
<g id="graph0" class="graph" transform="scale(1 1) rotate(0) translate(4 80)">
<title>fs::ScreenSharingController::onAttendeeBroadcastRevoked</title>
<!-- Node154 -->
<g id="node1" class="node">
<title>Node154</title>
<g id="a_node1"><a xlink:title=" ">
<polygon fill="#bfbfbf" stroke="#000000" points="0,-23.5 0,-51.5 157.2061,-51.5 157.2061,-23.5 0,-23.5"/>
<text text-anchor="start" x="8" y="-39.5" font-family="Helvetica,sans-Serif" font-size="10.00" fill="#000000">fs::ScreenSharingController</text>
<text text-anchor="middle" x="78.603" y="-29.5" font-family="Helvetica,sans-Serif" font-size="10.00" fill="#000000">::onAttendeeBroadcastRevoked</text>
</a>
</g>
</g>
<!-- Node155 -->
<g id="node2" class="node">
<title>Node155</title>
<g id="a_node2"><a xlink:href="classfs_1_1_screen_sharing_controller.html#a9e9c38a80d4f7e5ca8ff6f2093eff8b3" target="_top" xlink:title=" ">
<polygon fill="none" stroke="#000000" points="193.2061,-23.5 193.2061,-51.5 332.043,-51.5 332.043,-23.5 193.2061,-23.5"/>
<text text-anchor="start" x="201.2061" y="-39.5" font-family="Helvetica,sans-Serif" font-size="10.00" fill="#000000">fs::ScreenSharingController</text>
<text text-anchor="middle" x="262.6245" y="-29.5" font-family="Helvetica,sans-Serif" font-size="10.00" fill="#000000">::stopScreenSharing</text>
</a>
</g>
</g>
<!-- Node154&#45;&gt;Node155 -->
<g id="edge1" class="edge">
<title>Node154&#45;&gt;Node155</title>
<path fill="none" stroke="#191970" d="M157.4455,-37.5C165.8373,-37.5 174.3782,-37.5 182.7814,-37.5"/>
<polygon fill="#191970" stroke="#191970" points="182.9437,-41.0001 192.9437,-37.5 182.9437,-34.0001 182.9437,-41.0001"/>
</g>
<!-- Node156 -->
<g id="node3" class="node">
<title>Node156</title>
<g id="a_node3"><a xlink:href="classfs_1_1_screen_sharing_controller.html#af3820fa110e9ee3579a100f59f3488cc" target="_top" xlink:title=" ">
<polygon fill="none" stroke="#000000" points="368.043,-47.5 368.043,-75.5 506.8799,-75.5 506.8799,-47.5 368.043,-47.5"/>
<text text-anchor="start" x="376.043" y="-63.5" font-family="Helvetica,sans-Serif" font-size="10.00" fill="#000000">fs::ScreenSharingController</text>
<text text-anchor="middle" x="437.4614" y="-53.5" font-family="Helvetica,sans-Serif" font-size="10.00" fill="#000000">::getPresenterId</text>
</a>
</g>
</g>
<!-- Node155&#45;&gt;Node156 -->
<g id="edge2" class="edge">
<title>Node155&#45;&gt;Node156</title>
<path fill="none" stroke="#191970" d="M332.2271,-47.0544C340.6457,-48.21 349.2947,-49.3973 357.8433,-50.5708"/>
<polygon fill="#191970" stroke="#191970" points="357.4296,-54.0467 367.8127,-51.9393 358.3817,-47.1117 357.4296,-54.0467"/>
</g>
<!-- Node157 -->
<g id="node4" class="node">
<title>Node157</title>
<g id="a_node4"><a xlink:href="classfs_1_1_screen_sharing_controller.html#a1099e31f1e66a059b03ec205d466cbbc" target="_top" xlink:title=" ">
<polygon fill="none" stroke="#000000" points="368.043,-.5 368.043,-28.5 506.8799,-28.5 506.8799,-.5 368.043,-.5"/>
<text text-anchor="start" x="376.043" y="-16.5" font-family="Helvetica,sans-Serif" font-size="10.00" fill="#000000">fs::ScreenSharingController</text>
<text text-anchor="middle" x="437.4614" y="-6.5" font-family="Helvetica,sans-Serif" font-size="10.00" fill="#000000">::isPresenter</text>
</a>
</g>
</g>
<!-- Node155&#45;&gt;Node157 -->
<g id="edge3" class="edge">
<title>Node155&#45;&gt;Node157</title>
<path fill="none" stroke="#191970" d="M332.2271,-28.3437C340.6457,-27.2362 349.2947,-26.0984 357.8433,-24.9739"/>
<polygon fill="#191970" stroke="#191970" points="358.3547,-28.4368 367.8127,-23.6624 357.4416,-21.4966 358.3547,-28.4368"/>
</g>
</g>
</svg>
