<?xml version="1.0" encoding="UTF-8" standalone="no"?>
<!DOCTYPE svg PUBLIC "-//W3C//DTD SVG 1.1//EN"
 "http://www.w3.org/Graphics/SVG/1.1/DTD/svg11.dtd">
<!-- Generated by graphviz version 2.40.1 (20161225.0304)
 -->
<!-- Title: fs::MeetingClient::startScreenSharingMedia Pages: 1 -->
<svg width="269pt" height="84pt"
 viewBox="0.00 0.00 268.87 84.00" xmlns="http://www.w3.org/2000/svg" xmlns:xlink="http://www.w3.org/1999/xlink">
<g id="graph0" class="graph" transform="scale(1 1) rotate(0) translate(4 80)">
<title>fs::MeetingClient::startScreenSharingMedia</title>
<!-- Node337 -->
<g id="node1" class="node">
<title>Node337</title>
<g id="a_node1"><a xlink:title=" ">
<polygon fill="#bfbfbf" stroke="#000000" points="0,-23.5 0,-51.5 128.8369,-51.5 128.8369,-23.5 0,-23.5"/>
<text text-anchor="start" x="8" y="-39.5" font-family="Helvetica,sans-Serif" font-size="10.00" fill="#000000">fs::MeetingClient::</text>
<text text-anchor="middle" x="64.4185" y="-29.5" font-family="Helvetica,sans-Serif" font-size="10.00" fill="#000000">startScreenSharingMedia</text>
</a>
</g>
</g>
<!-- Node338 -->
<g id="node2" class="node">
<title>Node338</title>
<g id="a_node2"><a xlink:href="classfs_1_1_meeting_client.html#aab12c46889f26ffbe1a0810471d00e56" target="_top" xlink:title=" ">
<polygon fill="none" stroke="#000000" points="164.8369,-47.5 164.8369,-75.5 260.8711,-75.5 260.8711,-47.5 164.8369,-47.5"/>
<text text-anchor="start" x="172.8369" y="-63.5" font-family="Helvetica,sans-Serif" font-size="10.00" fill="#000000">fs::MeetingClient::</text>
<text text-anchor="middle" x="212.854" y="-53.5" font-family="Helvetica,sans-Serif" font-size="10.00" fill="#000000">hasAudio</text>
</a>
</g>
</g>
<!-- Node337&#45;&gt;Node338 -->
<g id="edge1" class="edge">
<title>Node337&#45;&gt;Node338</title>
<path fill="none" stroke="#191970" d="M129.0926,-47.9569C137.5351,-49.322 146.1451,-50.7141 154.4758,-52.061"/>
<polygon fill="#191970" stroke="#191970" points="154.0384,-55.5357 164.4689,-53.6768 155.1558,-48.6254 154.0384,-55.5357"/>
</g>
<!-- Node339 -->
<g id="node3" class="node">
<title>Node339</title>
<g id="a_node3"><a xlink:href="classfs_1_1_meeting_client.html#a7df90bde41869ea3d4a68b6aa3a5fa6f" target="_top" xlink:title=" ">
<polygon fill="none" stroke="#000000" points="164.8369,-.5 164.8369,-28.5 260.8711,-28.5 260.8711,-.5 164.8369,-.5"/>
<text text-anchor="start" x="172.8369" y="-16.5" font-family="Helvetica,sans-Serif" font-size="10.00" fill="#000000">fs::MeetingClient::</text>
<text text-anchor="middle" x="212.854" y="-6.5" font-family="Helvetica,sans-Serif" font-size="10.00" fill="#000000">isWelcomePlayed</text>
</a>
</g>
</g>
<!-- Node337&#45;&gt;Node339 -->
<g id="edge2" class="edge">
<title>Node337&#45;&gt;Node339</title>
<path fill="none" stroke="#191970" d="M129.0926,-27.4788C137.5351,-26.1706 146.1451,-24.8365 154.4758,-23.5457"/>
<polygon fill="#191970" stroke="#191970" points="155.1228,-26.9873 164.4689,-21.9972 154.0508,-20.0698 155.1228,-26.9873"/>
</g>
</g>
</svg>
