<?xml version="1.0" encoding="UTF-8" standalone="no"?>
<!DOCTYPE svg PUBLIC "-//W3C//DTD SVG 1.1//EN"
 "http://www.w3.org/Graphics/SVG/1.1/DTD/svg11.dtd">
<!-- Generated by graphviz version 2.40.1 (20161225.0304)
 -->
<!-- Title: fs::MeetingClientSession::directorCancelRemoteControl Pages: 1 -->
<svg width="323pt" height="121pt"
 viewBox="0.00 0.00 323.33 121.00" xmlns="http://www.w3.org/2000/svg" xmlns:xlink="http://www.w3.org/1999/xlink">
<g id="graph0" class="graph" transform="scale(1 1) rotate(0) translate(4 117)">
<title>fs::MeetingClientSession::directorCancelRemoteControl</title>
<!-- Node37 -->
<g id="node1" class="node">
<title>Node37</title>
<g id="a_node1"><a xlink:title=" ">
<polygon fill="#bfbfbf" stroke="#000000" points="0,-42.5 0,-70.5 153.2803,-70.5 153.2803,-42.5 0,-42.5"/>
<text text-anchor="start" x="8" y="-58.5" font-family="Helvetica,sans-Serif" font-size="10.00" fill="#000000">fs::MeetingClientSession</text>
<text text-anchor="middle" x="76.6401" y="-48.5" font-family="Helvetica,sans-Serif" font-size="10.00" fill="#000000">::directorCancelRemoteControl</text>
</a>
</g>
</g>
<!-- Node38 -->
<g id="node2" class="node">
<title>Node38</title>
<g id="a_node2"><a xlink:href="classfs_1_1_meeting_client_session.html#ad2db541bceb2f60d39d34b3e443801d2" target="_top" xlink:title=" ">
<polygon fill="none" stroke="#000000" points="189.2803,-84.5 189.2803,-112.5 315.334,-112.5 315.334,-84.5 189.2803,-84.5"/>
<text text-anchor="start" x="197.2803" y="-100.5" font-family="Helvetica,sans-Serif" font-size="10.00" fill="#000000">fs::MeetingClientSession</text>
<text text-anchor="middle" x="252.3071" y="-90.5" font-family="Helvetica,sans-Serif" font-size="10.00" fill="#000000">::isInitialized</text>
</a>
</g>
</g>
<!-- Node37&#45;&gt;Node38 -->
<g id="edge1" class="edge">
<title>Node37&#45;&gt;Node38</title>
<path fill="none" stroke="#191970" d="M135.6234,-70.6022C151.0588,-74.2927 167.8315,-78.3028 183.7205,-82.1017"/>
<polygon fill="#191970" stroke="#191970" points="182.9398,-85.5136 193.4796,-84.435 184.5676,-78.7055 182.9398,-85.5136"/>
</g>
<!-- Node39 -->
<g id="node3" class="node">
<title>Node39</title>
<g id="a_node3"><a xlink:href="_meeting_client_session_8cxx.html#ab06e713e85f5d00e42ad86367c03f278" target="_top" xlink:title=" ">
<polygon fill="none" stroke="#000000" points="222.9033,-47.5 222.9033,-65.5 281.7109,-65.5 281.7109,-47.5 222.9033,-47.5"/>
<text text-anchor="middle" x="252.3071" y="-53.5" font-family="Helvetica,sans-Serif" font-size="10.00" fill="#000000">asio_post</text>
</a>
</g>
</g>
<!-- Node37&#45;&gt;Node39 -->
<g id="edge2" class="edge">
<title>Node37&#45;&gt;Node39</title>
<path fill="none" stroke="#191970" d="M153.4347,-56.5C173.7717,-56.5 194.9109,-56.5 212.3976,-56.5"/>
<polygon fill="#191970" stroke="#191970" points="212.7737,-60.0001 222.7737,-56.5 212.7736,-53.0001 212.7737,-60.0001"/>
</g>
<!-- Node40 -->
<g id="node4" class="node">
<title>Node40</title>
<g id="a_node4"><a xlink:href="classfs_1_1_meeting_client_session.html#a75e9c574fb9a84a95e9629dd91689dc0" target="_top" xlink:title=" ">
<polygon fill="none" stroke="#000000" points="189.2803,-.5 189.2803,-28.5 315.334,-28.5 315.334,-.5 189.2803,-.5"/>
<text text-anchor="start" x="197.2803" y="-16.5" font-family="Helvetica,sans-Serif" font-size="10.00" fill="#000000">fs::MeetingClientSession</text>
<text text-anchor="middle" x="252.3071" y="-6.5" font-family="Helvetica,sans-Serif" font-size="10.00" fill="#000000">::ioService</text>
</a>
</g>
</g>
<!-- Node37&#45;&gt;Node40 -->
<g id="edge3" class="edge">
<title>Node37&#45;&gt;Node40</title>
<path fill="none" stroke="#191970" d="M135.6234,-42.3978C151.0588,-38.7073 167.8315,-34.6972 183.7205,-30.8983"/>
<polygon fill="#191970" stroke="#191970" points="184.5676,-34.2945 193.4796,-28.565 182.9398,-27.4864 184.5676,-34.2945"/>
</g>
</g>
</svg>
