<?xml version="1.0" encoding="UTF-8" standalone="no"?>
<!DOCTYPE svg PUBLIC "-//W3C//DTD SVG 1.1//EN"
 "http://www.w3.org/Graphics/SVG/1.1/DTD/svg11.dtd">
<!-- Generated by graphviz version 2.40.1 (20161225.0304)
 -->
<!-- Title: cx::web::SubscriptionEntity Pages: 1 -->
<svg width="217pt" height="711pt"
 viewBox="0.00 0.00 217.44 711.00" xmlns="http://www.w3.org/2000/svg" xmlns:xlink="http://www.w3.org/1999/xlink">
<g id="graph0" class="graph" transform="scale(1 1) rotate(0) translate(4 707)">
<title>cx::web::SubscriptionEntity</title>
<!-- Node5 -->
<g id="node1" class="node">
<title>Node5</title>
<g id="a_node1"><a xlink:title=" ">
<polygon fill="#bfbfbf" stroke="#000000" points="28.9385,-.5 28.9385,-84.5 164.4355,-84.5 164.4355,-.5 28.9385,-.5"/>
<text text-anchor="middle" x="96.687" y="-72.5" font-family="Helvetica,sans-Serif" font-size="10.00" fill="#000000">cx::web::SubscriptionEntity</text>
<polyline fill="none" stroke="#000000" points="28.9385,-66.5 164.4355,-66.5 "/>
<text text-anchor="middle" x="96.687" y="-54.5" font-family="Helvetica,sans-Serif" font-size="10.00" fill="#000000"> </text>
<polyline fill="none" stroke="#000000" points="28.9385,-48.5 164.4355,-48.5 "/>
<text text-anchor="start" x="36.9385" y="-36.5" font-family="Helvetica,sans-Serif" font-size="10.00" fill="#000000">+ SubscriptionEntity()</text>
<text text-anchor="start" x="36.9385" y="-26.5" font-family="Helvetica,sans-Serif" font-size="10.00" fill="#000000">+ SubscriptionEntity()</text>
<text text-anchor="start" x="36.9385" y="-16.5" font-family="Helvetica,sans-Serif" font-size="10.00" fill="#000000">+ valid()</text>
<text text-anchor="start" x="36.9385" y="-6.5" font-family="Helvetica,sans-Serif" font-size="10.00" fill="#000000">+ printOn()</text>
</a>
</g>
</g>
<!-- Node6 -->
<g id="node2" class="node">
<title>Node6</title>
<g id="a_node2"><a xlink:href="structcx_1_1web_1_1data__entity.html" target="_top" xlink:title=" ">
<polygon fill="none" stroke="#000000" points="44.4951,-122.5 44.4951,-196.5 148.8789,-196.5 148.8789,-122.5 44.4951,-122.5"/>
<text text-anchor="middle" x="96.687" y="-184.5" font-family="Helvetica,sans-Serif" font-size="10.00" fill="#000000">cx::web::data_entity</text>
<polyline fill="none" stroke="#000000" points="44.4951,-178.5 148.8789,-178.5 "/>
<text text-anchor="start" x="52.4951" y="-166.5" font-family="Helvetica,sans-Serif" font-size="10.00" fill="#000000">+ retcode</text>
<polyline fill="none" stroke="#000000" points="44.4951,-160.5 148.8789,-160.5 "/>
<text text-anchor="start" x="52.4951" y="-148.5" font-family="Helvetica,sans-Serif" font-size="10.00" fill="#000000">+ data_entity()</text>
<text text-anchor="start" x="52.4951" y="-138.5" font-family="Helvetica,sans-Serif" font-size="10.00" fill="#000000">+ data_entity()</text>
<text text-anchor="start" x="52.4951" y="-128.5" font-family="Helvetica,sans-Serif" font-size="10.00" fill="#000000">+ update()</text>
</a>
</g>
</g>
<!-- Node6&#45;&gt;Node5 -->
<g id="edge1" class="edge">
<title>Node6&#45;&gt;Node5</title>
<path fill="none" stroke="#191970" d="M96.687,-112.3292C96.687,-103.1474 96.687,-93.5784 96.687,-84.5744"/>
<polygon fill="none" stroke="#191970" points="93.1871,-112.4804 96.687,-122.4805 100.1871,-112.4805 93.1871,-112.4804"/>
</g>
<!-- Node7 -->
<g id="node3" class="node">
<title>Node7</title>
<g id="a_node3"><a xlink:href="structcx_1_1web_1_1json__entity.html" target="_top" xlink:title=" ">
<polygon fill="none" stroke="#000000" points="5.0542,-234.5 5.0542,-318.5 108.3198,-318.5 108.3198,-234.5 5.0542,-234.5"/>
<text text-anchor="middle" x="56.687" y="-306.5" font-family="Helvetica,sans-Serif" font-size="10.00" fill="#000000">cx::web::json_entity</text>
<polyline fill="none" stroke="#000000" points="5.0542,-300.5 108.3198,-300.5 "/>
<text text-anchor="start" x="13.0542" y="-288.5" font-family="Helvetica,sans-Serif" font-size="10.00" fill="#000000">+ json</text>
<polyline fill="none" stroke="#000000" points="5.0542,-282.5 108.3198,-282.5 "/>
<text text-anchor="start" x="13.0542" y="-270.5" font-family="Helvetica,sans-Serif" font-size="10.00" fill="#000000">+ json_entity()</text>
<text text-anchor="start" x="13.0542" y="-260.5" font-family="Helvetica,sans-Serif" font-size="10.00" fill="#000000">+ json_entity()</text>
<text text-anchor="start" x="13.0542" y="-250.5" font-family="Helvetica,sans-Serif" font-size="10.00" fill="#000000">+ valid()</text>
<text text-anchor="start" x="13.0542" y="-240.5" font-family="Helvetica,sans-Serif" font-size="10.00" fill="#000000">+ get_json()</text>
</a>
</g>
</g>
<!-- Node7&#45;&gt;Node6 -->
<g id="edge2" class="edge">
<title>Node7&#45;&gt;Node6</title>
<path fill="none" stroke="#191970" d="M74.4387,-224.5763C77.6567,-215.1638 80.9532,-205.5213 83.9895,-196.6401"/>
<polygon fill="none" stroke="#191970" points="71.0512,-223.6658 71.1279,-234.2603 77.6748,-225.9303 71.0512,-223.6658"/>
</g>
<!-- Node8 -->
<g id="node4" class="node">
<title>Node8</title>
<g id="a_node4"><a xlink:href="structcx_1_1web_1_1string__entity.html" target="_top" xlink:title=" ">
<polygon fill="none" stroke="#000000" points="0,-375.5 0,-499.5 109.374,-499.5 109.374,-375.5 0,-375.5"/>
<text text-anchor="middle" x="54.687" y="-487.5" font-family="Helvetica,sans-Serif" font-size="10.00" fill="#000000">cx::web::string_entity</text>
<polyline fill="none" stroke="#000000" points="0,-481.5 109.374,-481.5 "/>
<text text-anchor="start" x="8" y="-469.5" font-family="Helvetica,sans-Serif" font-size="10.00" fill="#000000">+ error_reason</text>
<text text-anchor="start" x="8" y="-459.5" font-family="Helvetica,sans-Serif" font-size="10.00" fill="#000000">+ status</text>
<polyline fill="none" stroke="#000000" points="0,-453.5 109.374,-453.5 "/>
<text text-anchor="start" x="8" y="-441.5" font-family="Helvetica,sans-Serif" font-size="10.00" fill="#000000">+ string_entity()</text>
<text text-anchor="start" x="8" y="-431.5" font-family="Helvetica,sans-Serif" font-size="10.00" fill="#000000">+ string_entity()</text>
<text text-anchor="start" x="8" y="-421.5" font-family="Helvetica,sans-Serif" font-size="10.00" fill="#000000">+ copy_from()</text>
<text text-anchor="start" x="8" y="-411.5" font-family="Helvetica,sans-Serif" font-size="10.00" fill="#000000">+ valid()</text>
<text text-anchor="start" x="8" y="-401.5" font-family="Helvetica,sans-Serif" font-size="10.00" fill="#000000">+ update()</text>
<text text-anchor="start" x="8" y="-391.5" font-family="Helvetica,sans-Serif" font-size="10.00" fill="#000000">+ get_string()</text>
<text text-anchor="start" x="8" y="-381.5" font-family="Helvetica,sans-Serif" font-size="10.00" fill="#000000">+ printOn()</text>
</a>
</g>
</g>
<!-- Node8&#45;&gt;Node7 -->
<g id="edge3" class="edge">
<title>Node8&#45;&gt;Node7</title>
<path fill="none" stroke="#191970" d="M55.5885,-364.9337C55.7852,-349.0998 55.987,-332.8526 56.1631,-318.6743"/>
<polygon fill="none" stroke="#191970" points="52.0848,-365.2105 55.4603,-375.2532 59.0843,-365.2975 52.0848,-365.2105"/>
</g>
<!-- Node9 -->
<g id="node5" class="node">
<title>Node9</title>
<g id="a_node5"><a xlink:title=" ">
<polygon fill="none" stroke="#bfbfbf" points="20.9531,-546.5 20.9531,-600.5 76.4209,-600.5 76.4209,-546.5 20.9531,-546.5"/>
<text text-anchor="middle" x="48.687" y="-588.5" font-family="Helvetica,sans-Serif" font-size="10.00" fill="#000000">Printable</text>
<polyline fill="none" stroke="#bfbfbf" points="20.9531,-582.5 76.4209,-582.5 "/>
<text text-anchor="middle" x="48.687" y="-570.5" font-family="Helvetica,sans-Serif" font-size="10.00" fill="#000000"> </text>
<polyline fill="none" stroke="#bfbfbf" points="20.9531,-564.5 76.4209,-564.5 "/>
<text text-anchor="middle" x="48.687" y="-552.5" font-family="Helvetica,sans-Serif" font-size="10.00" fill="#000000"> </text>
</a>
</g>
</g>
<!-- Node9&#45;&gt;Node8 -->
<g id="edge4" class="edge">
<title>Node9&#45;&gt;Node8</title>
<path fill="none" stroke="#191970" d="M50.3277,-536.3113C50.8299,-524.9276 51.3966,-512.0829 51.9511,-499.5132"/>
<polygon fill="none" stroke="#191970" points="46.831,-536.1607 49.8868,-546.3052 53.8242,-536.4692 46.831,-536.1607"/>
</g>
<!-- Node10 -->
<g id="node6" class="node">
<title>Node10</title>
<g id="a_node6"><a xlink:title="STL class.">
<polygon fill="none" stroke="#bfbfbf" points="101.0122,-546.5 101.0122,-600.5 160.3618,-600.5 160.3618,-546.5 101.0122,-546.5"/>
<text text-anchor="middle" x="130.687" y="-588.5" font-family="Helvetica,sans-Serif" font-size="10.00" fill="#000000">std::string</text>
<polyline fill="none" stroke="#bfbfbf" points="101.0122,-582.5 160.3618,-582.5 "/>
<text text-anchor="middle" x="130.687" y="-570.5" font-family="Helvetica,sans-Serif" font-size="10.00" fill="#000000"> </text>
<polyline fill="none" stroke="#bfbfbf" points="101.0122,-564.5 160.3618,-564.5 "/>
<text text-anchor="middle" x="130.687" y="-552.5" font-family="Helvetica,sans-Serif" font-size="10.00" fill="#000000"> </text>
</a>
</g>
</g>
<!-- Node10&#45;&gt;Node6 -->
<g id="edge7" class="edge">
<title>Node10&#45;&gt;Node6</title>
<path fill="none" stroke="#404040" d="M131.8054,-546.4437C133.7234,-488.6569 135.8453,-349.0698 117.687,-234 116.363,-225.6095 114.4125,-216.8204 112.2256,-208.3411"/>
<polygon fill="none" stroke="#404040" points="112.1889,-208.2069 106.7452,-203.4775 109.0171,-196.6336 114.4607,-201.363 112.1889,-208.2069"/>
<text text-anchor="middle" x="169.5625" y="-349" font-family="Helvetica,sans-Serif" font-size="10.00" fill="#000000"> +errorDescription</text>
<text text-anchor="middle" x="169.5625" y="-339" font-family="Helvetica,sans-Serif" font-size="10.00" fill="#000000">+errorStatus</text>
</g>
<!-- Node10&#45;&gt;Node8 -->
<g id="edge5" class="edge">
<title>Node10&#45;&gt;Node8</title>
<path fill="none" stroke="#404040" d="M100.9082,-550.1482C94.0223,-543.5889 87.2597,-536.0336 82.2661,-528 78.9901,-522.7296 76.0803,-517.0436 73.5001,-511.1796"/>
<polygon fill="none" stroke="#404040" points="73.3845,-510.8902 67.4448,-506.8013 68.9346,-499.7457 74.8744,-503.8347 73.3845,-510.8902"/>
<text text-anchor="middle" x="102.3975" y="-520" font-family="Helvetica,sans-Serif" font-size="10.00" fill="#000000"> +content</text>
</g>
<!-- Node11 -->
<g id="node7" class="node">
<title>Node11</title>
<g id="a_node7"><a xlink:title="STL class.">
<polygon fill="none" stroke="#bfbfbf" points="83.6392,-638.5 83.6392,-702.5 177.7349,-702.5 177.7349,-638.5 83.6392,-638.5"/>
<text text-anchor="start" x="91.6392" y="-690.5" font-family="Helvetica,sans-Serif" font-size="10.00" fill="#000000">std::basic_string&lt;</text>
<text text-anchor="middle" x="130.687" y="-680.5" font-family="Helvetica,sans-Serif" font-size="10.00" fill="#000000"> char &gt;</text>
<polyline fill="none" stroke="#bfbfbf" points="83.6392,-674.5 177.7349,-674.5 "/>
<text text-anchor="middle" x="130.687" y="-662.5" font-family="Helvetica,sans-Serif" font-size="10.00" fill="#000000"> </text>
<polyline fill="none" stroke="#bfbfbf" points="83.6392,-656.5 177.7349,-656.5 "/>
<text text-anchor="middle" x="130.687" y="-644.5" font-family="Helvetica,sans-Serif" font-size="10.00" fill="#000000"> </text>
</a>
</g>
</g>
<!-- Node11&#45;&gt;Node10 -->
<g id="edge6" class="edge">
<title>Node11&#45;&gt;Node10</title>
<path fill="none" stroke="#191970" d="M130.687,-628.4397C130.687,-619.0133 130.687,-609.2564 130.687,-600.6277"/>
<polygon fill="none" stroke="#191970" points="127.1871,-628.4697 130.687,-638.4697 134.1871,-628.4698 127.1871,-628.4697"/>
</g>
</g>
</svg>
