<?xml version="1.0" encoding="UTF-8" standalone="no"?>
<!DOCTYPE svg PUBLIC "-//W3C//DTD SVG 1.1//EN"
 "http://www.w3.org/Graphics/SVG/1.1/DTD/svg11.dtd">
<!-- Generated by graphviz version 2.40.1 (20161225.0304)
 -->
<!-- Title: fs::AttendeesController::onAttendeeCallingNumberChanged Pages: 1 -->
<svg width="345pt" height="84pt"
 viewBox="0.00 0.00 345.06 84.00" xmlns="http://www.w3.org/2000/svg" xmlns:xlink="http://www.w3.org/1999/xlink">
<g id="graph0" class="graph" transform="scale(1 1) rotate(0) translate(4 80)">
<title>fs::AttendeesController::onAttendeeCallingNumberChanged</title>
<!-- Node20 -->
<g id="node1" class="node">
<title>Node20</title>
<g id="a_node1"><a xlink:title=" ">
<polygon fill="#bfbfbf" stroke="#000000" points="0,-23.5 0,-51.5 179.4424,-51.5 179.4424,-23.5 0,-23.5"/>
<text text-anchor="start" x="8" y="-39.5" font-family="Helvetica,sans-Serif" font-size="10.00" fill="#000000">fs::AttendeesController</text>
<text text-anchor="middle" x="89.7212" y="-29.5" font-family="Helvetica,sans-Serif" font-size="10.00" fill="#000000">::onAttendeeCallingNumberChanged</text>
</a>
</g>
</g>
<!-- Node21 -->
<g id="node2" class="node">
<title>Node21</title>
<g id="a_node2"><a xlink:href="classfs_1_1_attendee_decorator.html#acc2cf422616b1dfff9d5f0589b31d13c" target="_top" xlink:title=" ">
<polygon fill="none" stroke="#000000" points="219.6147,-47.5 219.6147,-75.5 332.8901,-75.5 332.8901,-47.5 219.6147,-47.5"/>
<text text-anchor="start" x="227.6147" y="-63.5" font-family="Helvetica,sans-Serif" font-size="10.00" fill="#000000">fs::AttendeeDecorator</text>
<text text-anchor="middle" x="276.2524" y="-53.5" font-family="Helvetica,sans-Serif" font-size="10.00" fill="#000000">::getPrimaryIdentifier</text>
</a>
</g>
</g>
<!-- Node20&#45;&gt;Node21 -->
<g id="edge1" class="edge">
<title>Node20&#45;&gt;Node21</title>
<path fill="none" stroke="#191970" d="M179.7085,-49.0782C189.629,-50.3546 199.5989,-51.6374 209.1687,-52.8687"/>
<polygon fill="#191970" stroke="#191970" points="209.0096,-56.377 219.3745,-54.1818 209.903,-49.4342 209.0096,-56.377"/>
</g>
<!-- Node22 -->
<g id="node3" class="node">
<title>Node22</title>
<g id="a_node3"><a xlink:href="classfs_1_1_attendee_decorator.html#a8206a4a93ea54117e753e148f79a216f" target="_top" xlink:title=" ">
<polygon fill="none" stroke="#000000" points="215.4424,-.5 215.4424,-28.5 337.0625,-28.5 337.0625,-.5 215.4424,-.5"/>
<text text-anchor="start" x="223.4424" y="-16.5" font-family="Helvetica,sans-Serif" font-size="10.00" fill="#000000">fs::AttendeeDecorator</text>
<text text-anchor="middle" x="276.2524" y="-6.5" font-family="Helvetica,sans-Serif" font-size="10.00" fill="#000000">::getSecondaryIdentifier</text>
</a>
</g>
</g>
<!-- Node20&#45;&gt;Node22 -->
<g id="edge2" class="edge">
<title>Node20&#45;&gt;Node22</title>
<path fill="none" stroke="#191970" d="M179.7085,-26.4042C188.2526,-25.3507 196.8334,-24.2927 205.1637,-23.2655"/>
<polygon fill="#191970" stroke="#191970" points="205.6847,-26.7279 215.1812,-22.0303 204.828,-19.7805 205.6847,-26.7279"/>
</g>
</g>
</svg>
