<?xml version="1.0" encoding="UTF-8" standalone="no"?>
<!DOCTYPE svg PUBLIC "-//W3C//DTD SVG 1.1//EN"
 "http://www.w3.org/Graphics/SVG/1.1/DTD/svg11.dtd">
<!-- Generated by graphviz version 2.40.1 (20161225.0304)
 -->
<!-- Title: ActiveSpeakerManagerImpl::sortActiveSpeakersPresence Pages: 1 -->
<svg width="508pt" height="37pt"
 viewBox="0.00 0.00 507.62 37.00" xmlns="http://www.w3.org/2000/svg" xmlns:xlink="http://www.w3.org/1999/xlink">
<g id="graph0" class="graph" transform="scale(1 1) rotate(0) translate(4 33)">
<title>ActiveSpeakerManagerImpl::sortActiveSpeakersPresence</title>
<!-- Node52 -->
<g id="node1" class="node">
<title>Node52</title>
<g id="a_node1"><a xlink:title=" ">
<polygon fill="#bfbfbf" stroke="#000000" points="0,-.5 0,-28.5 149.9502,-28.5 149.9502,-.5 0,-.5"/>
<text text-anchor="start" x="8" y="-16.5" font-family="Helvetica,sans-Serif" font-size="10.00" fill="#000000">ActiveSpeakerManagerImpl</text>
<text text-anchor="middle" x="74.9751" y="-6.5" font-family="Helvetica,sans-Serif" font-size="10.00" fill="#000000">::sortActiveSpeakersPresence</text>
</a>
</g>
</g>
<!-- Node53 -->
<g id="node2" class="node">
<title>Node53</title>
<g id="a_node2"><a xlink:href="class_active_speaker_manager_impl.html#acc68efed176a54631940a426b3008513" target="_top" xlink:title=" ">
<polygon fill="none" stroke="#000000" points="185.9502,-.5 185.9502,-28.5 324.7871,-28.5 324.7871,-.5 185.9502,-.5"/>
<text text-anchor="start" x="193.9502" y="-16.5" font-family="Helvetica,sans-Serif" font-size="10.00" fill="#000000">ActiveSpeakerManagerImpl</text>
<text text-anchor="middle" x="255.3687" y="-6.5" font-family="Helvetica,sans-Serif" font-size="10.00" fill="#000000">::sortActiveSpeakersBase</text>
</a>
</g>
</g>
<!-- Node52&#45;&gt;Node53 -->
<g id="edge1" class="edge">
<title>Node52&#45;&gt;Node53</title>
<path fill="none" stroke="#191970" d="M150.1719,-14.5C158.557,-14.5 167.1201,-14.5 175.5602,-14.5"/>
<polygon fill="#191970" stroke="#191970" points="175.774,-18.0001 185.774,-14.5 175.774,-11.0001 175.774,-18.0001"/>
</g>
<!-- Node54 -->
<g id="node3" class="node">
<title>Node54</title>
<g id="a_node3"><a xlink:href="class_active_speaker_manager_impl.html#a762f0de9c5c836a18eb9e6c4d786639d" target="_top" xlink:title=" ">
<polygon fill="none" stroke="#000000" points="360.7871,-.5 360.7871,-28.5 499.624,-28.5 499.624,-.5 360.7871,-.5"/>
<text text-anchor="start" x="368.7871" y="-16.5" font-family="Helvetica,sans-Serif" font-size="10.00" fill="#000000">ActiveSpeakerManagerImpl</text>
<text text-anchor="middle" x="430.2056" y="-6.5" font-family="Helvetica,sans-Serif" font-size="10.00" fill="#000000">::availableSpeakerSeat</text>
</a>
</g>
</g>
<!-- Node53&#45;&gt;Node54 -->
<g id="edge2" class="edge">
<title>Node53&#45;&gt;Node54</title>
<path fill="none" stroke="#191970" d="M324.9712,-14.5C333.2984,-14.5 341.8508,-14.5 350.3086,-14.5"/>
<polygon fill="#191970" stroke="#191970" points="350.5569,-18.0001 360.5569,-14.5 350.5568,-11.0001 350.5569,-18.0001"/>
</g>
</g>
</svg>
