<?xml version="1.0" encoding="UTF-8" standalone="no"?>
<!DOCTYPE svg PUBLIC "-//W3C//DTD SVG 1.1//EN"
 "http://www.w3.org/Graphics/SVG/1.1/DTD/svg11.dtd">
<!-- Generated by graphviz version 2.40.1 (20161225.0304)
 -->
<!-- Title: fs::MeetingAttendeeReadonly::getId Pages: 1 -->
<svg width="309pt" height="84pt"
 viewBox="0.00 0.00 308.92 84.00" xmlns="http://www.w3.org/2000/svg" xmlns:xlink="http://www.w3.org/1999/xlink">
<g id="graph0" class="graph" transform="scale(1 1) rotate(0) translate(4 80)">
<title>fs::MeetingAttendeeReadonly::getId</title>
<!-- Node17 -->
<g id="node1" class="node">
<title>Node17</title>
<g id="a_node1"><a xlink:title=" ">
<polygon fill="#bfbfbf" stroke="#000000" points="153.7188,-23.5 153.7188,-51.5 300.915,-51.5 300.915,-23.5 153.7188,-23.5"/>
<text text-anchor="start" x="161.7188" y="-39.5" font-family="Helvetica,sans-Serif" font-size="10.00" fill="#000000">fs::MeetingAttendeeReadonly</text>
<text text-anchor="middle" x="227.3169" y="-29.5" font-family="Helvetica,sans-Serif" font-size="10.00" fill="#000000">::getId</text>
</a>
</g>
</g>
<!-- Node18 -->
<g id="node2" class="node">
<title>Node18</title>
<g id="a_node2"><a xlink:href="classfs_1_1_attendees_controller.html#a36c0099b3d5b2488207271e1e2b75a6c" target="_top" xlink:title=" ">
<polygon fill="none" stroke="#000000" points="0,-47.5 0,-75.5 117.7188,-75.5 117.7188,-47.5 0,-47.5"/>
<text text-anchor="start" x="8" y="-63.5" font-family="Helvetica,sans-Serif" font-size="10.00" fill="#000000">fs::AttendeesController</text>
<text text-anchor="middle" x="58.8594" y="-53.5" font-family="Helvetica,sans-Serif" font-size="10.00" fill="#000000">::onAttendeeJoined</text>
</a>
</g>
</g>
<!-- Node17&#45;&gt;Node18 -->
<g id="edge1" class="edge">
<title>Node17&#45;&gt;Node18</title>
<path fill="none" stroke="#191970" d="M143.3143,-49.4678C134.6784,-50.6981 126.0392,-51.9289 117.7601,-53.1085"/>
<polygon fill="#191970" stroke="#191970" points="144.0226,-52.9023 153.429,-48.0267 143.0353,-45.9723 144.0226,-52.9023"/>
</g>
<!-- Node19 -->
<g id="node3" class="node">
<title>Node19</title>
<g id="a_node3"><a xlink:href="classfs_1_1_attendees_manager.html#ab593a1b7ab27433fd008f7a38092f979" target="_top" xlink:title=" ">
<polygon fill="none" stroke="#000000" points="1.9409,-.5 1.9409,-28.5 115.7778,-28.5 115.7778,-.5 1.9409,-.5"/>
<text text-anchor="start" x="9.9409" y="-16.5" font-family="Helvetica,sans-Serif" font-size="10.00" fill="#000000">fs::AttendeesManager</text>
<text text-anchor="middle" x="58.8594" y="-6.5" font-family="Helvetica,sans-Serif" font-size="10.00" fill="#000000">::addAttendee</text>
</a>
</g>
</g>
<!-- Node17&#45;&gt;Node19 -->
<g id="edge2" class="edge">
<title>Node17&#45;&gt;Node19</title>
<path fill="none" stroke="#191970" d="M143.3811,-26.04C134.0999,-24.7728 124.8139,-23.505 115.974,-22.298"/>
<polygon fill="#191970" stroke="#191970" points="143.0474,-29.5268 153.429,-27.4119 143.9944,-22.5912 143.0474,-29.5268"/>
</g>
</g>
</svg>
