<?xml version="1.0" encoding="UTF-8" standalone="no"?>
<!DOCTYPE svg PUBLIC "-//W3C//DTD SVG 1.1//EN"
 "http://www.w3.org/Graphics/SVG/1.1/DTD/svg11.dtd">
<!-- Generated by graphviz version 2.40.1 (20161225.0304)
 -->
<!-- Title: fs::VideoEngineProxy::stopVideoRenderer Pages: 1 -->
<svg width="267pt" height="84pt"
 viewBox="0.00 0.00 266.87 84.00" xmlns="http://www.w3.org/2000/svg" xmlns:xlink="http://www.w3.org/1999/xlink">
<g id="graph0" class="graph" transform="scale(1 1) rotate(0) translate(4 80)">
<title>fs::VideoEngineProxy::stopVideoRenderer</title>
<!-- Node81 -->
<g id="node1" class="node">
<title>Node81</title>
<g id="a_node1"><a xlink:title=" ">
<polygon fill="#bfbfbf" stroke="#000000" points="0,-23.5 0,-51.5 111.4346,-51.5 111.4346,-23.5 0,-23.5"/>
<text text-anchor="start" x="8" y="-39.5" font-family="Helvetica,sans-Serif" font-size="10.00" fill="#000000">fs::VideoEngineProxy</text>
<text text-anchor="middle" x="55.7173" y="-29.5" font-family="Helvetica,sans-Serif" font-size="10.00" fill="#000000">::stopVideoRenderer</text>
</a>
</g>
</g>
<!-- Node82 -->
<g id="node2" class="node">
<title>Node82</title>
<g id="a_node2"><a xlink:href="classfs_1_1_video_engine_proxy.html#af3f186080747a546142c5183e29a1683" target="_top" xlink:title=" ">
<polygon fill="none" stroke="#000000" points="147.4346,-47.5 147.4346,-75.5 258.8691,-75.5 258.8691,-47.5 147.4346,-47.5"/>
<text text-anchor="start" x="155.4346" y="-63.5" font-family="Helvetica,sans-Serif" font-size="10.00" fill="#000000">fs::VideoEngineProxy</text>
<text text-anchor="middle" x="203.1519" y="-53.5" font-family="Helvetica,sans-Serif" font-size="10.00" fill="#000000">::dispatch</text>
</a>
</g>
</g>
<!-- Node81&#45;&gt;Node82 -->
<g id="edge1" class="edge">
<title>Node81&#45;&gt;Node82</title>
<path fill="none" stroke="#191970" d="M111.456,-46.5734C119.8959,-47.9472 128.6706,-49.3756 137.2999,-50.7803"/>
<polygon fill="#191970" stroke="#191970" points="136.9019,-54.2616 147.3343,-52.4138 138.0266,-47.3525 136.9019,-54.2616"/>
</g>
<!-- Node83 -->
<g id="node3" class="node">
<title>Node83</title>
<g id="a_node3"><a xlink:href="classfs_1_1_video_renderer.html#ac04677d579b52c43bf8e27a20def31e3" target="_top" xlink:title=" ">
<polygon fill="none" stroke="#000000" points="152.1611,-.5 152.1611,-28.5 254.1426,-28.5 254.1426,-.5 152.1611,-.5"/>
<text text-anchor="start" x="160.1611" y="-16.5" font-family="Helvetica,sans-Serif" font-size="10.00" fill="#000000">fs::VideoRenderer::</text>
<text text-anchor="middle" x="203.1519" y="-6.5" font-family="Helvetica,sans-Serif" font-size="10.00" fill="#000000">getSourceType</text>
</a>
</g>
</g>
<!-- Node81&#45;&gt;Node83 -->
<g id="edge2" class="edge">
<title>Node81&#45;&gt;Node83</title>
<path fill="none" stroke="#191970" d="M111.456,-28.8047C121.3637,-27.2591 131.7328,-25.6415 141.7864,-24.0731"/>
<polygon fill="#191970" stroke="#191970" points="142.3651,-27.5252 151.7061,-22.5256 141.2861,-20.6089 142.3651,-27.5252"/>
</g>
</g>
</svg>
