<?xml version="1.0" encoding="UTF-8" standalone="no"?>
<!DOCTYPE svg PUBLIC "-//W3C//DTD SVG 1.1//EN"
 "http://www.w3.org/Graphics/SVG/1.1/DTD/svg11.dtd">
<!-- Generated by graphviz version 2.40.1 (20161225.0304)
 -->
<!-- Title: /Users/oskryp/Projects/freesee&#45;native&#45;client/libs/fcc_sdk/engine/meetingclient/src/webservices Pages: 1 -->
<svg width="115pt" height="222pt"
 viewBox="0.00 0.00 115.00 222.00" xmlns="http://www.w3.org/2000/svg" xmlns:xlink="http://www.w3.org/1999/xlink">
<g id="graph0" class="graph" transform="scale(1 1) rotate(0) translate(4 218)">
<title>/Users/oskryp/Projects/freesee&#45;native&#45;client/libs/fcc_sdk/engine/meetingclient/src/webservices</title>
<g id="clust1" class="cluster">
<title>clusterdir_94aca882455021ea464d71da998ebb2a</title>
<g id="a_clust1"><a xlink:href="dir_94aca882455021ea464d71da998ebb2a.html" target="_top" xlink:title="src">
<polygon fill="#ddddee" stroke="#000000" points="11,-136 11,-206 99,-206 99,-136 11,-136"/>
<text text-anchor="middle" x="55" y="-194" font-family="Helvetica,sans-Serif" font-size="10.00" fill="#000000">src</text>
</a>
</g>
</g>
<!-- dir_b7f8ab7c2f9df4048173945b80e3668f -->
<g id="node1" class="node">
<title>dir_b7f8ab7c2f9df4048173945b80e3668f</title>
<g id="a_node1"><a xlink:href="dir_b7f8ab7c2f9df4048173945b80e3668f.html" target="_top" xlink:title="webservices">
<polygon fill="#eeeeff" stroke="#000000" points="90.5195,-180 19.4805,-180 19.4805,-144 90.5195,-144 90.5195,-180"/>
<text text-anchor="middle" x="55" y="-159" font-family="Helvetica,sans-Serif" font-size="10.00" fill="#000000">webservices</text>
</a>
</g>
</g>
<!-- dir_0261552305db45ab4b0e9dcdc5abd617 -->
<g id="node2" class="node">
<title>dir_0261552305db45ab4b0e9dcdc5abd617</title>
<g id="a_node2"><a xlink:href="dir_0261552305db45ab4b0e9dcdc5abd617.html" target="_top" xlink:title="headers">
<polygon fill="none" stroke="#ff0000" points="54,-108 0,-108 0,-72 54,-72 54,-108"/>
<text text-anchor="middle" x="27" y="-87" font-family="Helvetica,sans-Serif" font-size="10.00" fill="#000000">headers</text>
</a>
</g>
</g>
<!-- dir_b7f8ab7c2f9df4048173945b80e3668f&#45;&gt;dir_0261552305db45ab4b0e9dcdc5abd617 -->
<g id="edge1" class="edge">
<title>dir_b7f8ab7c2f9df4048173945b80e3668f&#45;&gt;dir_0261552305db45ab4b0e9dcdc5abd617</title>
<path fill="none" stroke="#000000" d="M47.9344,-143.8314C44.874,-135.9617 41.2221,-126.5712 37.8318,-117.8533"/>
<polygon fill="#000000" stroke="#000000" points="41.0473,-116.4647 34.1607,-108.4133 34.5232,-119.0019 41.0473,-116.4647"/>
<g id="a_edge1&#45;headlabel"><a xlink:href="dir_000020_000013.html" target="_top" xlink:title="9">
<text text-anchor="middle" x="44.9963" y="-115.7859" font-family="Helvetica,sans-Serif" font-size="10.00" fill="#000000">9</text>
</a>
</g>
</g>
<!-- dir_2d3b0f5cbdcc5834399a3c4e945ce472 -->
<g id="node3" class="node">
<title>dir_2d3b0f5cbdcc5834399a3c4e945ce472</title>
<g id="a_node3"><a xlink:href="dir_2d3b0f5cbdcc5834399a3c4e945ce472.html" target="_top" xlink:title="include">
<polygon fill="none" stroke="#ff0000" points="81,-36 27,-36 27,0 81,0 81,-36"/>
<text text-anchor="middle" x="54" y="-15" font-family="Helvetica,sans-Serif" font-size="10.00" fill="#000000">include</text>
</a>
</g>
</g>
<!-- dir_b7f8ab7c2f9df4048173945b80e3668f&#45;&gt;dir_2d3b0f5cbdcc5834399a3c4e945ce472 -->
<g id="edge2" class="edge">
<title>dir_b7f8ab7c2f9df4048173945b80e3668f&#45;&gt;dir_2d3b0f5cbdcc5834399a3c4e945ce472</title>
<path fill="none" stroke="#000000" d="M58.415,-143.5804C60.1709,-133.1767 62.1226,-119.9092 63,-108 64.1756,-92.0432 64.3197,-87.9455 63,-72 62.3055,-63.6085 61.0138,-54.5578 59.6214,-46.3092"/>
<polygon fill="#000000" stroke="#000000" points="63.0544,-45.6235 57.8413,-36.3999 56.1647,-46.8612 63.0544,-45.6235"/>
<g id="a_edge2&#45;headlabel"><a xlink:href="dir_000020_000002.html" target="_top" xlink:title="6">
<text text-anchor="middle" x="66.4844" y="-45.6595" font-family="Helvetica,sans-Serif" font-size="10.00" fill="#000000">6</text>
</a>
</g>
</g>
<!-- dir_0261552305db45ab4b0e9dcdc5abd617&#45;&gt;dir_2d3b0f5cbdcc5834399a3c4e945ce472 -->
<g id="edge3" class="edge">
<title>dir_0261552305db45ab4b0e9dcdc5abd617&#45;&gt;dir_2d3b0f5cbdcc5834399a3c4e945ce472</title>
<path fill="none" stroke="#000000" d="M33.8132,-71.8314C36.7644,-63.9617 40.2858,-54.5712 43.555,-45.8533"/>
<polygon fill="#000000" stroke="#000000" points="46.8609,-47.0055 47.095,-36.4133 40.3066,-44.5476 46.8609,-47.0055"/>
<g id="a_edge3&#45;headlabel"><a xlink:href="dir_000013_000002.html" target="_top" xlink:title="67">
<text text-anchor="middle" x="48.2573" y="-48.3682" font-family="Helvetica,sans-Serif" font-size="10.00" fill="#000000">67</text>
</a>
</g>
</g>
</g>
</svg>
