<?xml version="1.0" encoding="UTF-8" standalone="no"?>
<!DOCTYPE svg PUBLIC "-//W3C//DTD SVG 1.1//EN"
 "http://www.w3.org/Graphics/SVG/1.1/DTD/svg11.dtd">
<!-- Generated by graphviz version 2.40.1 (20161225.0304)
 -->
<!-- Title: Native API Pages: 1 -->
<svg width="202pt" height="98pt"
 viewBox="0.00 0.00 202.19 98.00" xmlns="http://www.w3.org/2000/svg" xmlns:xlink="http://www.w3.org/1999/xlink">
<g id="graph0" class="graph" transform="scale(1 1) rotate(0) translate(4 94)">
<title>Native API</title>
<!-- Node3 -->
<g id="node1" class="node">
<title>Node3</title>
<g id="a_node1"><a xlink:href="group__group__capture.html" target="_top" xlink:title=" ">
<polygon fill="none" stroke="#000000" points="181.3663,-90 111.5146,-90 111.5146,-72 181.3663,-72 181.3663,-90"/>
<text text-anchor="middle" x="146.4404" y="-78" font-family="Helvetica,sans-Serif" font-size="10.00" fill="#000000">Capture API</text>
</a>
</g>
</g>
<!-- Node0 -->
<g id="node2" class="node">
<title>Node0</title>
<g id="a_node2"><a xlink:title=" ">
<polygon fill="#bfbfbf" stroke="#000000" points="62.5422,-54 .1521,-54 .1521,-36 62.5422,-36 62.5422,-54"/>
<text text-anchor="middle" x="31.3472" y="-42" font-family="Helvetica,sans-Serif" font-size="10.00" fill="#000000">Native API</text>
</a>
</g>
</g>
<!-- Node0&#45;&gt;Node3 -->
<g id="edge3" class="edge">
<title>Node0&#45;&gt;Node3</title>
<path fill="none" stroke="#000000" d="M70.1939,-57.1509C85.6371,-61.9813 103.096,-67.4423 117.4068,-71.9186"/>
<polygon fill="#000000" stroke="#000000" points="70.9789,-53.7293 60.3901,-54.0843 68.8892,-60.4101 70.9789,-53.7293"/>
</g>
<!-- Node2 -->
<g id="node3" class="node">
<title>Node2</title>
<g id="a_node3"><a xlink:href="group__group__webservices.html" target="_top" xlink:title=" ">
<polygon fill="none" stroke="#000000" points="193.0205,-54 99.8603,-54 99.8603,-36 193.0205,-36 193.0205,-54"/>
<text text-anchor="middle" x="146.4404" y="-42" font-family="Helvetica,sans-Serif" font-size="10.00" fill="#000000">WebServices API</text>
</a>
</g>
</g>
<!-- Node0&#45;&gt;Node2 -->
<g id="edge2" class="edge">
<title>Node0&#45;&gt;Node2</title>
<path fill="none" stroke="#000000" d="M72.9793,-45C81.5837,-45 90.7033,-45 99.4823,-45"/>
<polygon fill="#000000" stroke="#000000" points="72.7969,-41.5001 62.7969,-45 72.7969,-48.5001 72.7969,-41.5001"/>
</g>
<!-- Node1 -->
<g id="node4" class="node">
<title>Node1</title>
<g id="a_node4"><a xlink:href="group__group__meeting_client.html" target="_top" xlink:title=" ">
<polygon fill="none" stroke="#000000" points="194.4339,-18 98.447,-18 98.447,0 194.4339,0 194.4339,-18"/>
<text text-anchor="middle" x="146.4404" y="-6" font-family="Helvetica,sans-Serif" font-size="10.00" fill="#000000">MeetingClient API</text>
</a>
</g>
</g>
<!-- Node0&#45;&gt;Node1 -->
<g id="edge1" class="edge">
<title>Node0&#45;&gt;Node1</title>
<path fill="none" stroke="#000000" d="M70.1939,-32.8491C85.6371,-28.0187 103.096,-22.5577 117.4068,-18.0814"/>
<polygon fill="#000000" stroke="#000000" points="68.8892,-29.5899 60.3901,-35.9157 70.9789,-36.2707 68.8892,-29.5899"/>
</g>
</g>
</svg>
