<?xml version="1.0" encoding="UTF-8" standalone="no"?>
<!DOCTYPE svg PUBLIC "-//W3C//DTD SVG 1.1//EN"
 "http://www.w3.org/Graphics/SVG/1.1/DTD/svg11.dtd">
<!-- Generated by graphviz version 2.40.1 (20161225.0304)
 -->
<!-- Title: Graphical Class Hierarchy Pages: 1 -->
<svg width="642pt" height="87pt"
 viewBox="0.00 0.00 642.40 87.00" xmlns="http://www.w3.org/2000/svg" xmlns:xlink="http://www.w3.org/1999/xlink">
<g id="graph0" class="graph" transform="scale(1 1) rotate(0) translate(4 83)">
<title>Graphical Class Hierarchy</title>
<!-- Node0 -->
<g id="node1" class="node">
<title>Node0</title>
<g id="a_node1"><a xlink:href="structcx_1_1web_1_1_service_methods.html" target="_top" xlink:title=" ">
<polygon fill="none" stroke="#000000" points="0,-39.5 0,-57.5 127.1572,-57.5 127.1572,-39.5 0,-39.5"/>
<text text-anchor="middle" x="63.5786" y="-45.5" font-family="Helvetica,sans-Serif" font-size="10.00" fill="#000000">cx::web::ServiceMethods</text>
</a>
</g>
</g>
<!-- Node1 -->
<g id="node2" class="node">
<title>Node1</title>
<g id="a_node2"><a xlink:href="classcx_1_1web_1_1_services_a_p_i.html" target="_top" xlink:title=" ">
<polygon fill="none" stroke="#000000" points="163.1572,-60.5 163.1572,-78.5 273.0781,-78.5 273.0781,-60.5 163.1572,-60.5"/>
<text text-anchor="middle" x="218.1177" y="-66.5" font-family="Helvetica,sans-Serif" font-size="10.00" fill="#000000">cx::web::ServicesAPI</text>
</a>
</g>
</g>
<!-- Node0&#45;&gt;Node1 -->
<g id="edge1" class="edge">
<title>Node0&#45;&gt;Node1</title>
<path fill="none" stroke="#191970" d="M137.367,-58.527C145.9632,-59.6951 154.6171,-60.871 162.9017,-61.9968"/>
<polygon fill="#191970" stroke="#191970" points="137.708,-55.0412 127.3278,-57.1627 136.7654,-61.9775 137.708,-55.0412"/>
</g>
<!-- Node3 -->
<g id="node4" class="node">
<title>Node3</title>
<g id="a_node4"><a xlink:href="classcx_1_1web_1_1_services_a_p_i___private.html" target="_top" xlink:title=" ">
<polygon fill="none" stroke="#000000" points="163.1572,-13.5 163.1572,-41.5 273.0781,-41.5 273.0781,-13.5 163.1572,-13.5"/>
<text text-anchor="start" x="171.1572" y="-29.5" font-family="Helvetica,sans-Serif" font-size="10.00" fill="#000000">cx::web::ServicesAPI</text>
<text text-anchor="middle" x="218.1177" y="-19.5" font-family="Helvetica,sans-Serif" font-size="10.00" fill="#000000">_Private</text>
</a>
</g>
</g>
<!-- Node0&#45;&gt;Node3 -->
<g id="edge3" class="edge">
<title>Node0&#45;&gt;Node3</title>
<path fill="none" stroke="#191970" d="M137.367,-38.473C145.9632,-37.3049 154.6171,-36.129 162.9017,-35.0032"/>
<polygon fill="#191970" stroke="#191970" points="136.7654,-35.0225 127.3278,-39.8373 137.708,-41.9588 136.7654,-35.0225"/>
</g>
<!-- Node2 -->
<g id="node3" class="node">
<title>Node2</title>
<g id="a_node3"><a xlink:href="classcx_1_1web_1_1_services_proxy.html" target="_top" xlink:title=" ">
<polygon fill="none" stroke="#000000" points="324.3638,-60.5 324.3638,-78.5 443.728,-78.5 443.728,-60.5 324.3638,-60.5"/>
<text text-anchor="middle" x="384.0459" y="-66.5" font-family="Helvetica,sans-Serif" font-size="10.00" fill="#000000">cx::web::ServicesProxy</text>
</a>
</g>
</g>
<!-- Node1&#45;&gt;Node2 -->
<g id="edge2" class="edge">
<title>Node1&#45;&gt;Node2</title>
<path fill="none" stroke="#191970" d="M283.483,-69.5C296.9052,-69.5 310.9715,-69.5 324.1878,-69.5"/>
<polygon fill="#191970" stroke="#191970" points="283.3694,-66.0001 273.3694,-69.5 283.3693,-73.0001 283.3694,-66.0001"/>
</g>
<!-- Node4 -->
<g id="node5" class="node">
<title>Node4</title>
<g id="a_node5"><a xlink:href="classcx_1_1web_1_1_services_strategy_impl.html" target="_top" xlink:title=" ">
<polygon fill="none" stroke="#000000" points="309.0781,-18.5 309.0781,-36.5 459.0137,-36.5 459.0137,-18.5 309.0781,-18.5"/>
<text text-anchor="middle" x="384.0459" y="-24.5" font-family="Helvetica,sans-Serif" font-size="10.00" fill="#000000">cx::web::ServicesStrategyImpl</text>
</a>
</g>
</g>
<!-- Node3&#45;&gt;Node4 -->
<g id="edge4" class="edge">
<title>Node3&#45;&gt;Node4</title>
<path fill="none" stroke="#191970" d="M283.4351,-27.5C291.8095,-27.5 300.4354,-27.5 308.9498,-27.5"/>
<polygon fill="#191970" stroke="#191970" points="283.3694,-24.0001 273.3694,-27.5 283.3693,-31.0001 283.3694,-24.0001"/>
</g>
<!-- Node5 -->
<g id="node6" class="node">
<title>Node5</title>
<g id="a_node6"><a xlink:href="classcx_1_1web_1_1_servicesv3_adapter.html" target="_top" xlink:title=" ">
<polygon fill="none" stroke="#000000" points="495.0137,-37.5 495.0137,-55.5 634.4023,-55.5 634.4023,-37.5 495.0137,-37.5"/>
<text text-anchor="middle" x="564.708" y="-43.5" font-family="Helvetica,sans-Serif" font-size="10.00" fill="#000000">cx::web::Servicesv3Adapter</text>
</a>
</g>
</g>
<!-- Node4&#45;&gt;Node5 -->
<g id="edge5" class="edge">
<title>Node4&#45;&gt;Node5</title>
<path fill="none" stroke="#191970" d="M469.1395,-36.4492C477.7382,-37.3535 486.4003,-38.2645 494.8129,-39.1492"/>
<polygon fill="#191970" stroke="#191970" points="469.4046,-32.9579 459.0934,-35.3926 468.6724,-39.9195 469.4046,-32.9579"/>
</g>
<!-- Node6 -->
<g id="node7" class="node">
<title>Node6</title>
<g id="a_node7"><a xlink:href="classcx_1_1web_1_1_servicesv4_adapter.html" target="_top" xlink:title=" ">
<polygon fill="none" stroke="#000000" points="495.0137,-.5 495.0137,-18.5 634.4023,-18.5 634.4023,-.5 495.0137,-.5"/>
<text text-anchor="middle" x="564.708" y="-6.5" font-family="Helvetica,sans-Serif" font-size="10.00" fill="#000000">cx::web::Servicesv4Adapter</text>
</a>
</g>
</g>
<!-- Node4&#45;&gt;Node6 -->
<g id="edge6" class="edge">
<title>Node4&#45;&gt;Node6</title>
<path fill="none" stroke="#191970" d="M469.1395,-19.0218C477.7382,-18.1651 486.4003,-17.3021 494.8129,-16.4639"/>
<polygon fill="#191970" stroke="#191970" points="468.6971,-15.5485 459.0934,-20.0228 469.3912,-22.514 468.6971,-15.5485"/>
</g>
</g>
</svg>
