<?xml version="1.0" encoding="UTF-8" standalone="no"?>
<!DOCTYPE svg PUBLIC "-//W3C//DTD SVG 1.1//EN"
 "http://www.w3.org/Graphics/SVG/1.1/DTD/svg11.dtd">
<!-- Generated by graphviz version 2.40.1 (20161225.0304)
 -->
<!-- Title: Graphical Class Hierarchy Pages: 1 -->
<svg width="260pt" height="64pt"
 viewBox="0.00 0.00 259.58 64.00" xmlns="http://www.w3.org/2000/svg" xmlns:xlink="http://www.w3.org/1999/xlink">
<g id="graph0" class="graph" transform="scale(1 1) rotate(0) translate(4 60)">
<title>Graphical Class Hierarchy</title>
<!-- Node0 -->
<g id="node1" class="node">
<title>Node0</title>
<g id="a_node1"><a xlink:href="classfs_1_1_f_s_pkt_stream.html" target="_top" xlink:title=" ">
<polygon fill="none" stroke="#000000" points="0,-18.5 0,-36.5 88.793,-36.5 88.793,-18.5 0,-18.5"/>
<text text-anchor="middle" x="44.3965" y="-24.5" font-family="Helvetica,sans-Serif" font-size="10.00" fill="#000000">fs::FSPktStream</text>
</a>
</g>
</g>
<!-- Node1 -->
<g id="node2" class="node">
<title>Node1</title>
<g id="a_node2"><a xlink:href="classfs_1_1_f_s_pkt_array_entry.html" target="_top" xlink:title=" ">
<polygon fill="none" stroke="#000000" points="124.793,-37.5 124.793,-55.5 251.5791,-55.5 251.5791,-37.5 124.793,-37.5"/>
<text text-anchor="middle" x="188.186" y="-43.5" font-family="Helvetica,sans-Serif" font-size="10.00" fill="#000000">fs::FSPktArrayEntry&lt; T &gt;</text>
</a>
</g>
</g>
<!-- Node0&#45;&gt;Node1 -->
<g id="edge1" class="edge">
<title>Node0&#45;&gt;Node1</title>
<path fill="none" stroke="#191970" d="M99.1286,-34.7322C107.5083,-35.8394 116.2184,-36.9904 124.7663,-38.1199"/>
<polygon fill="#191970" stroke="#191970" points="99.4766,-31.2478 89.1042,-33.4076 98.5595,-38.1875 99.4766,-31.2478"/>
</g>
<!-- Node2 -->
<g id="node3" class="node">
<title>Node2</title>
<g id="a_node3"><a xlink:href="classfs_1_1_f_s_pkt_entry.html" target="_top" xlink:title=" ">
<polygon fill="none" stroke="#000000" points="136.7388,-.5 136.7388,-18.5 239.6333,-18.5 239.6333,-.5 136.7388,-.5"/>
<text text-anchor="middle" x="188.186" y="-6.5" font-family="Helvetica,sans-Serif" font-size="10.00" fill="#000000">fs::FSPktEntry&lt; T &gt;</text>
</a>
</g>
</g>
<!-- Node0&#45;&gt;Node2 -->
<g id="edge2" class="edge">
<title>Node0&#45;&gt;Node2</title>
<path fill="none" stroke="#191970" d="M99.2395,-20.6346C111.5441,-19.0943 124.5559,-17.4654 136.7173,-15.943"/>
<polygon fill="#191970" stroke="#191970" points="98.592,-17.1882 89.1042,-21.9034 99.4615,-24.134 98.592,-17.1882"/>
</g>
</g>
</svg>
