<?xml version="1.0" encoding="UTF-8" standalone="no"?>
<!DOCTYPE svg PUBLIC "-//W3C//DTD SVG 1.1//EN"
 "http://www.w3.org/Graphics/SVG/1.1/DTD/svg11.dtd">
<!-- Generated by graphviz version 2.40.1 (20161225.0304)
 -->
<!-- Title: Graphical Class Hierarchy Pages: 1 -->
<svg width="286pt" height="703pt"
 viewBox="0.00 0.00 286.08 703.00" xmlns="http://www.w3.org/2000/svg" xmlns:xlink="http://www.w3.org/1999/xlink">
<g id="graph0" class="graph" transform="scale(1 1) rotate(0) translate(4 699)">
<title>Graphical Class Hierarchy</title>
<!-- Node0 -->
<g id="node1" class="node">
<title>Node0</title>
<g id="a_node1"><a xlink:href="classfs_1_1_f_s_packet.html" target="_top" xlink:title=" ">
<polygon fill="none" stroke="#000000" points="0,-333.5 0,-351.5 72.6846,-351.5 72.6846,-333.5 0,-333.5"/>
<text text-anchor="middle" x="36.3423" y="-339.5" font-family="Helvetica,sans-Serif" font-size="10.00" fill="#000000">fs::FSPacket</text>
</a>
</g>
</g>
<!-- Node1 -->
<g id="node2" class="node">
<title>Node1</title>
<g id="a_node2"><a xlink:href="classfs_1_1_f_s_capabilities_pkt.html" target="_top" xlink:title=" ">
<polygon fill="none" stroke="#000000" points="139.2534,-676.5 139.2534,-694.5 247.5093,-694.5 247.5093,-676.5 139.2534,-676.5"/>
<text text-anchor="middle" x="193.3813" y="-682.5" font-family="Helvetica,sans-Serif" font-size="10.00" fill="#000000">fs::FSCapabilitiesPkt</text>
</a>
</g>
</g>
<!-- Node0&#45;&gt;Node1 -->
<g id="edge1" class="edge">
<title>Node0&#45;&gt;Node1</title>
<path fill="none" stroke="#191970" d="M37.9455,-361.7897C43.5873,-424.9253 64.6081,-623.8453 108.6846,-667.5 116.9087,-675.6455 127.848,-680.5194 139.125,-683.3528"/>
<polygon fill="#191970" stroke="#191970" points="41.4172,-361.3105 37.0689,-351.6491 34.4432,-361.9134 41.4172,-361.3105"/>
</g>
<!-- Node2 -->
<g id="node3" class="node">
<title>Node2</title>
<g id="a_node3"><a xlink:href="classfs_1_1_f_s_compound_msg_pkt.html" target="_top" xlink:title=" ">
<polygon fill="none" stroke="#000000" points="131.1943,-639.5 131.1943,-657.5 255.5684,-657.5 255.5684,-639.5 131.1943,-639.5"/>
<text text-anchor="middle" x="193.3813" y="-645.5" font-family="Helvetica,sans-Serif" font-size="10.00" fill="#000000">fs::FSCompoundMsgPkt</text>
</a>
</g>
</g>
<!-- Node0&#45;&gt;Node2 -->
<g id="edge2" class="edge">
<title>Node0&#45;&gt;Node2</title>
<path fill="none" stroke="#191970" d="M38.5446,-361.8409C45.5767,-420.1588 69.3646,-592.5968 108.6846,-630.5 114.9619,-636.5511 122.7423,-640.7843 131.0225,-643.7126"/>
<polygon fill="#191970" stroke="#191970" points="42.0047,-361.296 37.3619,-351.7726 35.0525,-362.1127 42.0047,-361.296"/>
</g>
<!-- Node3 -->
<g id="node4" class="node">
<title>Node3</title>
<g id="a_node4"><a xlink:href="classfs_1_1_f_s_director_clipboard_content_pkt.html" target="_top" xlink:title=" ">
<polygon fill="none" stroke="#000000" points="108.6846,-602.5 108.6846,-620.5 278.0781,-620.5 278.0781,-602.5 108.6846,-602.5"/>
<text text-anchor="middle" x="193.3813" y="-608.5" font-family="Helvetica,sans-Serif" font-size="10.00" fill="#000000">fs::FSDirectorClipboardContentPkt</text>
</a>
</g>
</g>
<!-- Node0&#45;&gt;Node3 -->
<g id="edge3" class="edge">
<title>Node0&#45;&gt;Node3</title>
<path fill="none" stroke="#191970" d="M39.2933,-361.7464C47.8108,-414.7838 74.0544,-561.2518 108.6846,-593.5 112.535,-597.0856 116.9158,-600.0273 121.6099,-602.434"/>
<polygon fill="#191970" stroke="#191970" points="42.7187,-360.9979 37.7083,-351.6626 35.8036,-362.0848 42.7187,-360.9979"/>
</g>
<!-- Node4 -->
<g id="node5" class="node">
<title>Node4</title>
<g id="a_node5"><a xlink:href="classfs_1_1_f_s_director_keyboard_event_pkt.html" target="_top" xlink:title=" ">
<polygon fill="none" stroke="#000000" points="113.4087,-565.5 113.4087,-583.5 273.354,-583.5 273.354,-565.5 113.4087,-565.5"/>
<text text-anchor="middle" x="193.3813" y="-571.5" font-family="Helvetica,sans-Serif" font-size="10.00" fill="#000000">fs::FSDirectorKeyboardEventPkt</text>
</a>
</g>
</g>
<!-- Node0&#45;&gt;Node4 -->
<g id="edge4" class="edge">
<title>Node0&#45;&gt;Node4</title>
<path fill="none" stroke="#191970" d="M40.227,-361.3725C50.3123,-408.5543 78.6433,-529.7716 108.6846,-556.5 112.7277,-560.0973 117.3086,-563.0388 122.1961,-565.4378"/>
<polygon fill="#191970" stroke="#191970" points="43.6425,-360.6063 38.1617,-351.5392 36.792,-362.0451 43.6425,-360.6063"/>
</g>
<!-- Node5 -->
<g id="node6" class="node">
<title>Node5</title>
<g id="a_node6"><a xlink:href="classfs_1_1_f_s_director_mouse_event_pkt.html" target="_top" xlink:title=" ">
<polygon fill="none" stroke="#000000" points="119.8052,-528.5 119.8052,-546.5 266.9575,-546.5 266.9575,-528.5 119.8052,-528.5"/>
<text text-anchor="middle" x="193.3813" y="-534.5" font-family="Helvetica,sans-Serif" font-size="10.00" fill="#000000">fs::FSDirectorMouseEventPkt</text>
</a>
</g>
</g>
<!-- Node0&#45;&gt;Node5 -->
<g id="edge5" class="edge">
<title>Node0&#45;&gt;Node5</title>
<path fill="none" stroke="#191970" d="M38.3893,-361.8602C43.3524,-398.5929 59.4951,-478.3948 108.6846,-519.5 112.9526,-523.0666 117.7562,-525.9782 122.8513,-528.3497"/>
<polygon fill="#191970" stroke="#191970" points="41.818,-361.0586 37.1431,-351.551 34.8686,-361.8988 41.818,-361.0586"/>
</g>
<!-- Node6 -->
<g id="node7" class="node">
<title>Node6</title>
<g id="a_node7"><a xlink:href="classfs_1_1_f_s_director_promote_pkt.html" target="_top" xlink:title=" ">
<polygon fill="none" stroke="#000000" points="128.7017,-491.5 128.7017,-509.5 258.061,-509.5 258.061,-491.5 128.7017,-491.5"/>
<text text-anchor="middle" x="193.3813" y="-497.5" font-family="Helvetica,sans-Serif" font-size="10.00" fill="#000000">fs::FSDirectorPromotePkt</text>
</a>
</g>
</g>
<!-- Node0&#45;&gt;Node6 -->
<g id="edge6" class="edge">
<title>Node0&#45;&gt;Node6</title>
<path fill="none" stroke="#191970" d="M40.6309,-361.6255C48.5294,-392.1999 68.3875,-451.7622 108.6846,-482.5 114.5413,-486.9674 121.2589,-490.384 128.2934,-492.9885"/>
<polygon fill="#191970" stroke="#191970" points="44.002,-360.6751 38.2464,-351.7799 37.1987,-362.3228 44.002,-360.6751"/>
</g>
<!-- Node7 -->
<g id="node8" class="node">
<title>Node7</title>
<g id="a_node8"><a xlink:href="classfs_1_1_f_s_director_promote_status_pkt.html" target="_top" xlink:title=" ">
<polygon fill="none" stroke="#000000" points="114.5269,-454.5 114.5269,-472.5 272.2358,-472.5 272.2358,-454.5 114.5269,-454.5"/>
<text text-anchor="middle" x="193.3813" y="-460.5" font-family="Helvetica,sans-Serif" font-size="10.00" fill="#000000">fs::FSDirectorPromoteStatusPkt</text>
</a>
</g>
</g>
<!-- Node0&#45;&gt;Node7 -->
<g id="edge7" class="edge">
<title>Node0&#45;&gt;Node7</title>
<path fill="none" stroke="#191970" d="M44.0495,-360.8926C54.8872,-384.3867 76.9231,-424.5111 108.6846,-445.5 114.2029,-449.1467 120.3263,-452.0715 126.6838,-454.415"/>
<polygon fill="#191970" stroke="#191970" points="47.2191,-359.4057 39.9786,-351.6709 40.8153,-362.2326 47.2191,-359.4057"/>
</g>
<!-- Node8 -->
<g id="node9" class="node">
<title>Node8</title>
<g id="a_node9"><a xlink:href="classfs_1_1_f_s_director_request_pkt.html" target="_top" xlink:title=" ">
<polygon fill="none" stroke="#000000" points="128.9751,-417.5 128.9751,-435.5 257.7876,-435.5 257.7876,-417.5 128.9751,-417.5"/>
<text text-anchor="middle" x="193.3813" y="-423.5" font-family="Helvetica,sans-Serif" font-size="10.00" fill="#000000">fs::FSDirectorRequestPkt</text>
</a>
</g>
</g>
<!-- Node0&#45;&gt;Node8 -->
<g id="edge8" class="edge">
<title>Node0&#45;&gt;Node8</title>
<path fill="none" stroke="#191970" d="M50.228,-359.5178C63.599,-374.7349 85.2065,-396.4408 108.6846,-408.5 115.9054,-412.2089 123.8485,-415.154 131.8879,-417.4925"/>
<polygon fill="#191970" stroke="#191970" points="52.8344,-357.1801 43.6874,-351.8338 47.504,-361.7174 52.8344,-357.1801"/>
</g>
<!-- Node9 -->
<g id="node10" class="node">
<title>Node9</title>
<g id="a_node10"><a xlink:href="classfs_1_1_f_s_director_scroll_wheel_event_pkt.html" target="_top" xlink:title=" ">
<polygon fill="none" stroke="#000000" points="128.1475,-370.5 128.1475,-398.5 258.6152,-398.5 258.6152,-370.5 128.1475,-370.5"/>
<text text-anchor="start" x="136.1475" y="-386.5" font-family="Helvetica,sans-Serif" font-size="10.00" fill="#000000">fs::FSDirectorScrollWheel</text>
<text text-anchor="middle" x="193.3813" y="-376.5" font-family="Helvetica,sans-Serif" font-size="10.00" fill="#000000">EventPkt</text>
</a>
</g>
</g>
<!-- Node0&#45;&gt;Node9 -->
<g id="edge9" class="edge">
<title>Node0&#45;&gt;Node9</title>
<path fill="none" stroke="#191970" d="M79.8619,-354.1393C98.7704,-359.1964 121.0836,-365.164 140.9011,-370.4642"/>
<polygon fill="#191970" stroke="#191970" points="80.5959,-350.7126 70.0311,-351.5101 78.7873,-357.475 80.5959,-350.7126"/>
</g>
<!-- Node10 -->
<g id="node11" class="node">
<title>Node10</title>
<g id="a_node11"><a xlink:href="classfs_1_1_f_s_drop_pkt.html" target="_top" xlink:title=" ">
<polygon fill="none" stroke="#000000" points="154.2632,-333.5 154.2632,-351.5 232.4995,-351.5 232.4995,-333.5 154.2632,-333.5"/>
<text text-anchor="middle" x="193.3813" y="-339.5" font-family="Helvetica,sans-Serif" font-size="10.00" fill="#000000">fs::FSDropPkt</text>
</a>
</g>
</g>
<!-- Node0&#45;&gt;Node10 -->
<g id="edge10" class="edge">
<title>Node0&#45;&gt;Node10</title>
<path fill="none" stroke="#191970" d="M82.8481,-342.5C105.5278,-342.5 132.5071,-342.5 154.1336,-342.5"/>
<polygon fill="#191970" stroke="#191970" points="82.765,-339.0001 72.7649,-342.5 82.7649,-346.0001 82.765,-339.0001"/>
</g>
<!-- Node11 -->
<g id="node12" class="node">
<title>Node11</title>
<g id="a_node12"><a xlink:href="classfs_1_1_f_s_end_of_frame_pkt.html" target="_top" xlink:title=" ">
<polygon fill="none" stroke="#000000" points="136.48,-296.5 136.48,-314.5 250.2827,-314.5 250.2827,-296.5 136.48,-296.5"/>
<text text-anchor="middle" x="193.3813" y="-302.5" font-family="Helvetica,sans-Serif" font-size="10.00" fill="#000000">fs::FSEndOfFramePkt</text>
</a>
</g>
</g>
<!-- Node0&#45;&gt;Node11 -->
<g id="edge11" class="edge">
<title>Node0&#45;&gt;Node11</title>
<path fill="none" stroke="#191970" d="M81.8309,-331.0108C90.7267,-328.8123 99.9912,-326.5563 108.6846,-324.5 122.763,-321.1699 138.1931,-317.6655 151.9814,-314.5858"/>
<polygon fill="#191970" stroke="#191970" points="80.8551,-327.6468 71.9942,-333.4549 82.5431,-334.4402 80.8551,-327.6468"/>
</g>
<!-- Node12 -->
<g id="node13" class="node">
<title>Node12</title>
<g id="a_node13"><a xlink:href="classfs_1_1_f_s_info_block_pkt.html" target="_top" xlink:title=" ">
<polygon fill="none" stroke="#000000" points="144.5342,-259.5 144.5342,-277.5 242.2285,-277.5 242.2285,-259.5 144.5342,-259.5"/>
<text text-anchor="middle" x="193.3813" y="-265.5" font-family="Helvetica,sans-Serif" font-size="10.00" fill="#000000">fs::FSInfoBlockPkt</text>
</a>
</g>
</g>
<!-- Node0&#45;&gt;Node12 -->
<g id="edge12" class="edge">
<title>Node0&#45;&gt;Node12</title>
<path fill="none" stroke="#191970" d="M53.4365,-326.0796C67.2766,-313.6809 87.8345,-297.1979 108.6846,-287.5 119.7524,-282.3521 132.2956,-278.5597 144.2726,-275.7804"/>
<polygon fill="#191970" stroke="#191970" points="50.7222,-323.8217 45.7447,-333.1745 55.4683,-328.9671 50.7222,-323.8217"/>
</g>
<!-- Node13 -->
<g id="node14" class="node">
<title>Node13</title>
<g id="a_node14"><a xlink:href="classfs_1_1_f_s_participant_click_pkt.html" target="_top" xlink:title=" ">
<polygon fill="none" stroke="#000000" points="130.645,-222.5 130.645,-240.5 256.1177,-240.5 256.1177,-222.5 130.645,-222.5"/>
<text text-anchor="middle" x="193.3813" y="-228.5" font-family="Helvetica,sans-Serif" font-size="10.00" fill="#000000">fs::FSParticipantClickPkt</text>
</a>
</g>
</g>
<!-- Node0&#45;&gt;Node13 -->
<g id="edge13" class="edge">
<title>Node0&#45;&gt;Node13</title>
<path fill="none" stroke="#191970" d="M45.4433,-324.5902C57.1344,-303.475 79.4545,-268.9303 108.6846,-250.5 115.3132,-246.3205 122.7435,-243.055 130.3764,-240.5046"/>
<polygon fill="#191970" stroke="#191970" points="42.3129,-323.0225 40.7033,-333.4944 48.4919,-326.3119 42.3129,-323.0225"/>
</g>
<!-- Node14 -->
<g id="node15" class="node">
<title>Node14</title>
<g id="a_node15"><a xlink:href="classfs_1_1_f_s_presenter_cursor_pkt.html" target="_top" xlink:title=" ">
<polygon fill="none" stroke="#000000" points="128.4209,-185.5 128.4209,-203.5 258.3418,-203.5 258.3418,-185.5 128.4209,-185.5"/>
<text text-anchor="middle" x="193.3813" y="-191.5" font-family="Helvetica,sans-Serif" font-size="10.00" fill="#000000">fs::FSPresenterCursorPkt</text>
</a>
</g>
</g>
<!-- Node0&#45;&gt;Node14 -->
<g id="edge14" class="edge">
<title>Node0&#45;&gt;Node14</title>
<path fill="none" stroke="#191970" d="M41.6076,-323.3263C50.4853,-294.7568 71.2351,-241.3939 108.6846,-213.5 114.4857,-209.1791 121.089,-205.8106 127.9898,-203.1892"/>
<polygon fill="#191970" stroke="#191970" points="38.1455,-322.6944 38.6886,-333.2753 44.8624,-324.6652 38.1455,-322.6944"/>
</g>
<!-- Node15 -->
<g id="node16" class="node">
<title>Node15</title>
<g id="a_node16"><a xlink:href="classfs_1_1_f_s_presenter_release_control_pkt.html" target="_top" xlink:title=" ">
<polygon fill="none" stroke="#000000" points="108.9604,-148.5 108.9604,-166.5 277.8022,-166.5 277.8022,-148.5 108.9604,-148.5"/>
<text text-anchor="middle" x="193.3813" y="-154.5" font-family="Helvetica,sans-Serif" font-size="10.00" fill="#000000">fs::FSPresenterReleaseControlPkt</text>
</a>
</g>
</g>
<!-- Node0&#45;&gt;Node15 -->
<g id="edge15" class="edge">
<title>Node0&#45;&gt;Node15</title>
<path fill="none" stroke="#191970" d="M39.0601,-322.9314C45.0005,-287.9107 62.5132,-214.626 108.6846,-176.5 113.6812,-172.374 119.3889,-169.098 125.4278,-166.5029"/>
<polygon fill="#191970" stroke="#191970" points="35.5361,-322.8172 37.4645,-333.2351 42.4537,-323.8885 35.5361,-322.8172"/>
</g>
<!-- Node16 -->
<g id="node17" class="node">
<title>Node16</title>
<g id="a_node17"><a xlink:href="classfs_1_1_f_s_presenter_take_control_pkt.html" target="_top" xlink:title=" ">
<polygon fill="none" stroke="#000000" points="116.7437,-111.5 116.7437,-129.5 270.019,-129.5 270.019,-111.5 116.7437,-111.5"/>
<text text-anchor="middle" x="193.3813" y="-117.5" font-family="Helvetica,sans-Serif" font-size="10.00" fill="#000000">fs::FSPresenterTakeControlPkt</text>
</a>
</g>
</g>
<!-- Node0&#45;&gt;Node16 -->
<g id="edge16" class="edge">
<title>Node0&#45;&gt;Node16</title>
<path fill="none" stroke="#191970" d="M37.3036,-322.9168C40.4039,-282.2453 53.4905,-188.357 108.6846,-139.5 113.311,-135.4047 118.628,-132.1339 124.2957,-129.5284"/>
<polygon fill="#191970" stroke="#191970" points="33.7976,-322.9021 36.6568,-333.1038 40.7835,-323.3457 33.7976,-322.9021"/>
</g>
<!-- Node17 -->
<g id="node18" class="node">
<title>Node17</title>
<g id="a_node18"><a xlink:href="classfs_1_1_f_s_reconnect_ctrl_pkt.html" target="_top" xlink:title=" ">
<polygon fill="none" stroke="#000000" points="133.4209,-74.5 133.4209,-92.5 253.3418,-92.5 253.3418,-74.5 133.4209,-74.5"/>
<text text-anchor="middle" x="193.3813" y="-80.5" font-family="Helvetica,sans-Serif" font-size="10.00" fill="#000000">fs::FSReconnectCtrlPkt</text>
</a>
</g>
</g>
<!-- Node0&#45;&gt;Node17 -->
<g id="edge17" class="edge">
<title>Node0&#45;&gt;Node17</title>
<path fill="none" stroke="#191970" d="M39.5515,-323.4444C48.5574,-272.211 75.5833,-133.2971 108.6846,-102.5 115.6354,-96.0331 124.2945,-91.5984 133.4001,-88.5874"/>
<polygon fill="#191970" stroke="#191970" points="36.0714,-323.0304 37.8226,-333.4795 42.9697,-324.219 36.0714,-323.0304"/>
</g>
<!-- Node18 -->
<g id="node19" class="node">
<title>Node18</title>
<g id="a_node19"><a xlink:href="classfs_1_1_f_s_screen_blocks_pkt.html" target="_top" xlink:title=" ">
<polygon fill="none" stroke="#000000" points="134.5317,-37.5 134.5317,-55.5 252.231,-55.5 252.231,-37.5 134.5317,-37.5"/>
<text text-anchor="middle" x="193.3813" y="-43.5" font-family="Helvetica,sans-Serif" font-size="10.00" fill="#000000">fs::FSScreenBlocksPkt</text>
</a>
</g>
</g>
<!-- Node0&#45;&gt;Node18 -->
<g id="edge18" class="edge">
<title>Node0&#45;&gt;Node18</title>
<path fill="none" stroke="#191970" d="M38.7697,-323.1811C46.2877,-266.4297 70.973,-101.9222 108.6846,-65.5 115.8387,-58.5905 124.9336,-53.9808 134.4929,-50.9443"/>
<polygon fill="#191970" stroke="#191970" points="35.2727,-322.9329 37.4617,-333.2991 42.215,-323.8304 35.2727,-322.9329"/>
</g>
<!-- Node19 -->
<g id="node20" class="node">
<title>Node19</title>
<g id="a_node20"><a xlink:href="classfs_1_1_f_s_session_status_pkt.html" target="_top" xlink:title=" ">
<polygon fill="none" stroke="#000000" points="133.1377,-.5 133.1377,-18.5 253.625,-18.5 253.625,-.5 133.1377,-.5"/>
<text text-anchor="middle" x="193.3813" y="-6.5" font-family="Helvetica,sans-Serif" font-size="10.00" fill="#000000">fs::FSSessionStatusPkt</text>
</a>
</g>
</g>
<!-- Node0&#45;&gt;Node19 -->
<g id="edge19" class="edge">
<title>Node0&#45;&gt;Node19</title>
<path fill="none" stroke="#191970" d="M38.1408,-323.0884C44.2608,-261.2789 66.2913,-70.6497 108.6846,-28.5 115.4171,-21.8061 123.9654,-17.2562 133.028,-14.2004"/>
<polygon fill="#191970" stroke="#191970" points="34.6265,-323.0708 37.1546,-333.3596 41.5945,-323.7399 34.6265,-323.0708"/>
</g>
</g>
</svg>
