<?xml version="1.0" encoding="UTF-8" standalone="no"?>
<!DOCTYPE svg PUBLIC "-//W3C//DTD SVG 1.1//EN"
 "http://www.w3.org/Graphics/SVG/1.1/DTD/svg11.dtd">
<!-- Generated by graphviz version 2.40.1 (20161225.0304)
 -->
<!-- Title: Graphical Class Hierarchy Pages: 1 -->
<svg width="533pt" height="575pt"
 viewBox="0.00 0.00 533.19 575.00" xmlns="http://www.w3.org/2000/svg" xmlns:xlink="http://www.w3.org/1999/xlink">
<g id="graph0" class="graph" transform="scale(1 1) rotate(0) translate(4 571)">
<title>Graphical Class Hierarchy</title>
<!-- Node0 -->
<g id="node1" class="node">
<title>Node0</title>
<g id="a_node1"><a xlink:href="structcx_1_1web_1_1_cached_parameters.html" target="_top" xlink:title=" ">
<polygon fill="none" stroke="#000000" points="0,-269.5 0,-287.5 141.6104,-287.5 141.6104,-269.5 0,-269.5"/>
<text text-anchor="middle" x="70.8052" y="-275.5" font-family="Helvetica,sans-Serif" font-size="10.00" fill="#000000">cx::web::CachedParameters</text>
</a>
</g>
</g>
<!-- Node1 -->
<g id="node2" class="node">
<title>Node1</title>
<g id="a_node2"><a xlink:href="structcx_1_1web_1_1_access_token_cache.html" target="_top" xlink:title=" ">
<polygon fill="none" stroke="#000000" points="177.6104,-269.5 177.6104,-287.5 320.8906,-287.5 320.8906,-269.5 177.6104,-269.5"/>
<text text-anchor="middle" x="249.2505" y="-275.5" font-family="Helvetica,sans-Serif" font-size="10.00" fill="#000000">cx::web::AccessTokenCache</text>
</a>
</g>
</g>
<!-- Node0&#45;&gt;Node1 -->
<g id="edge1" class="edge">
<title>Node0&#45;&gt;Node1</title>
<path fill="none" stroke="#191970" d="M151.8522,-278.5C160.4337,-278.5 169.1169,-278.5 177.5808,-278.5"/>
<polygon fill="#191970" stroke="#191970" points="151.8443,-275.0001 141.8442,-278.5 151.8442,-282.0001 151.8443,-275.0001"/>
</g>
<!-- Node2 -->
<g id="node3" class="node">
<title>Node2</title>
<g id="a_node3"><a xlink:href="structcx_1_1web_1_1_access_token_upgrade_parameters.html" target="_top" xlink:title=" ">
<polygon fill="none" stroke="#000000" points="364.6714,-538.5 364.6714,-566.5 517.4048,-566.5 517.4048,-538.5 364.6714,-538.5"/>
<text text-anchor="start" x="372.6714" y="-554.5" font-family="Helvetica,sans-Serif" font-size="10.00" fill="#000000">cx::web::AccessTokenUpgrade</text>
<text text-anchor="middle" x="441.0381" y="-544.5" font-family="Helvetica,sans-Serif" font-size="10.00" fill="#000000">Parameters</text>
</a>
</g>
</g>
<!-- Node1&#45;&gt;Node2 -->
<g id="edge2" class="edge">
<title>Node1&#45;&gt;Node2</title>
<path fill="none" stroke="#191970" d="M251.8197,-298.0255C259.0856,-345.2166 284.2039,-466.2303 356.8906,-529.5 360.8888,-532.9802 365.3666,-535.9387 370.1182,-538.4531"/>
<polygon fill="#191970" stroke="#191970" points="255.2562,-297.3326 250.3699,-287.9318 248.3273,-298.3279 255.2562,-297.3326"/>
</g>
<!-- Node3 -->
<g id="node4" class="node">
<title>Node3</title>
<g id="a_node4"><a xlink:href="structcx_1_1web_1_1_authorization_parameters.html" target="_top" xlink:title=" ">
<polygon fill="none" stroke="#000000" points="358.2822,-501.5 358.2822,-519.5 523.7939,-519.5 523.7939,-501.5 358.2822,-501.5"/>
<text text-anchor="middle" x="441.0381" y="-507.5" font-family="Helvetica,sans-Serif" font-size="10.00" fill="#000000">cx::web::AuthorizationParameters</text>
</a>
</g>
</g>
<!-- Node1&#45;&gt;Node3 -->
<g id="edge3" class="edge">
<title>Node1&#45;&gt;Node3</title>
<path fill="none" stroke="#191970" d="M252.9836,-297.367C262.3612,-339.5191 291.0291,-441.6219 356.8906,-492.5 361.6197,-496.1532 366.9253,-499.1042 372.5118,-501.4833"/>
<polygon fill="#191970" stroke="#191970" points="256.4082,-296.6441 250.919,-287.5822 249.559,-298.0894 256.4082,-296.6441"/>
</g>
<!-- Node4 -->
<g id="node5" class="node">
<title>Node4</title>
<g id="a_node5"><a xlink:href="structcx_1_1web_1_1_broadcast_parameters.html" target="_top" xlink:title=" ">
<polygon fill="none" stroke="#000000" points="364.9546,-464.5 364.9546,-482.5 517.1216,-482.5 517.1216,-464.5 364.9546,-464.5"/>
<text text-anchor="middle" x="441.0381" y="-470.5" font-family="Helvetica,sans-Serif" font-size="10.00" fill="#000000">cx::web::BroadcastParameters</text>
</a>
</g>
</g>
<!-- Node1&#45;&gt;Node4 -->
<g id="edge4" class="edge">
<title>Node1&#45;&gt;Node4</title>
<path fill="none" stroke="#191970" d="M255.1355,-297.5431C267.5425,-334.3345 300.0243,-415.1104 356.8906,-455.5 362.0062,-459.1333 367.7082,-462.059 373.6664,-464.4114"/>
<polygon fill="#191970" stroke="#191970" points="258.3359,-296.0654 251.9247,-287.6306 251.6766,-298.2225 258.3359,-296.0654"/>
</g>
<!-- Node5 -->
<g id="node6" class="node">
<title>Node5</title>
<g id="a_node6"><a xlink:href="structcx_1_1web_1_1_conference_parameters.html" target="_top" xlink:title=" ">
<polygon fill="none" stroke="#000000" points="361.6172,-427.5 361.6172,-445.5 520.459,-445.5 520.459,-427.5 361.6172,-427.5"/>
<text text-anchor="middle" x="441.0381" y="-433.5" font-family="Helvetica,sans-Serif" font-size="10.00" fill="#000000">cx::web::ConferenceParameters</text>
</a>
</g>
</g>
<!-- Node1&#45;&gt;Node5 -->
<g id="edge5" class="edge">
<title>Node1&#45;&gt;Node5</title>
<path fill="none" stroke="#191970" d="M257.9589,-296.9209C273.3672,-327.383 308.4403,-387.9189 356.8906,-418.5 362.702,-422.168 369.1418,-425.099 375.7966,-427.4395"/>
<polygon fill="#191970" stroke="#191970" points="261.0448,-295.2645 253.4964,-287.83 254.761,-298.3491 261.0448,-295.2645"/>
</g>
<!-- Node6 -->
<g id="node7" class="node">
<title>Node6</title>
<g id="a_node7"><a xlink:href="structcx_1_1web_1_1_customer_service_parameters.html" target="_top" xlink:title=" ">
<polygon fill="none" stroke="#000000" points="374.9644,-380.5 374.9644,-408.5 507.1118,-408.5 507.1118,-380.5 374.9644,-380.5"/>
<text text-anchor="start" x="382.9644" y="-396.5" font-family="Helvetica,sans-Serif" font-size="10.00" fill="#000000">cx::web::CustomerService</text>
<text text-anchor="middle" x="441.0381" y="-386.5" font-family="Helvetica,sans-Serif" font-size="10.00" fill="#000000">Parameters</text>
</a>
</g>
</g>
<!-- Node1&#45;&gt;Node6 -->
<g id="edge6" class="edge">
<title>Node1&#45;&gt;Node6</title>
<path fill="none" stroke="#191970" d="M263.9577,-295.1403C283.272,-315.9852 319.1801,-351.4008 356.8906,-371.5 363.3058,-374.9192 370.2736,-377.8648 377.3613,-380.3942"/>
<polygon fill="#191970" stroke="#191970" points="266.4934,-292.7264 257.1779,-287.6793 261.3128,-297.434 266.4934,-292.7264"/>
</g>
<!-- Node7 -->
<g id="node8" class="node">
<title>Node7</title>
<g id="a_node8"><a xlink:href="structcx_1_1web_1_1_equipment_parameters.html" target="_top" xlink:title=" ">
<polygon fill="none" stroke="#000000" points="363.563,-343.5 363.563,-361.5 518.5132,-361.5 518.5132,-343.5 363.563,-343.5"/>
<text text-anchor="middle" x="441.0381" y="-349.5" font-family="Helvetica,sans-Serif" font-size="10.00" fill="#000000">cx::web::EquipmentParameters</text>
</a>
</g>
</g>
<!-- Node1&#45;&gt;Node7 -->
<g id="edge7" class="edge">
<title>Node1&#45;&gt;Node7</title>
<path fill="none" stroke="#191970" d="M272.2834,-292.8125C293.5342,-305.4436 326.3278,-323.5087 356.8906,-334.5 366.7312,-338.0389 377.4818,-340.9884 387.9089,-343.406"/>
<polygon fill="#191970" stroke="#191970" points="274.022,-289.7738 263.6521,-287.6025 270.4046,-295.7667 274.022,-289.7738"/>
</g>
<!-- Node8 -->
<g id="node9" class="node">
<title>Node8</title>
<g id="a_node9"><a xlink:href="structcx_1_1web_1_1_invitation_parameters.html" target="_top" xlink:title=" ">
<polygon fill="none" stroke="#000000" points="367.4546,-306.5 367.4546,-324.5 514.6216,-324.5 514.6216,-306.5 367.4546,-306.5"/>
<text text-anchor="middle" x="441.0381" y="-312.5" font-family="Helvetica,sans-Serif" font-size="10.00" fill="#000000">cx::web::InvitationParameters</text>
</a>
</g>
</g>
<!-- Node1&#45;&gt;Node8 -->
<g id="edge8" class="edge">
<title>Node1&#45;&gt;Node8</title>
<path fill="none" stroke="#191970" d="M306.2428,-289.4951C334.3105,-294.9099 367.7321,-301.3577 394.2739,-306.4782"/>
<polygon fill="#191970" stroke="#191970" points="306.649,-286.009 296.167,-287.5512 305.3229,-292.8822 306.649,-286.009"/>
</g>
<!-- Node9 -->
<g id="node10" class="node">
<title>Node9</title>
<g id="a_node10"><a xlink:href="structcx_1_1web_1_1_recording_parameters.html" target="_top" xlink:title=" ">
<polygon fill="none" stroke="#000000" points="364.6763,-269.5 364.6763,-287.5 517.3999,-287.5 517.3999,-269.5 364.6763,-269.5"/>
<text text-anchor="middle" x="441.0381" y="-275.5" font-family="Helvetica,sans-Serif" font-size="10.00" fill="#000000">cx::web::RecordingParameters</text>
</a>
</g>
</g>
<!-- Node1&#45;&gt;Node9 -->
<g id="edge9" class="edge">
<title>Node1&#45;&gt;Node9</title>
<path fill="none" stroke="#191970" d="M331.0704,-278.5C342.2022,-278.5 353.5926,-278.5 364.6239,-278.5"/>
<polygon fill="#191970" stroke="#191970" points="330.9379,-275.0001 320.9378,-278.5 330.9378,-282.0001 330.9379,-275.0001"/>
</g>
<!-- Node10 -->
<g id="node11" class="node">
<title>Node10</title>
<g id="a_node11"><a xlink:href="structcx_1_1web_1_1_shared_config_parameters.html" target="_top" xlink:title=" ">
<polygon fill="none" stroke="#000000" points="356.8906,-232.5 356.8906,-250.5 525.1855,-250.5 525.1855,-232.5 356.8906,-232.5"/>
<text text-anchor="middle" x="441.0381" y="-238.5" font-family="Helvetica,sans-Serif" font-size="10.00" fill="#000000">cx::web::SharedConfigParameters</text>
</a>
</g>
</g>
<!-- Node1&#45;&gt;Node10 -->
<g id="edge10" class="edge">
<title>Node1&#45;&gt;Node10</title>
<path fill="none" stroke="#191970" d="M306.2428,-267.5049C334.3105,-262.0901 367.7321,-255.6423 394.2739,-250.5218"/>
<polygon fill="#191970" stroke="#191970" points="305.3229,-264.1178 296.167,-269.4488 306.649,-270.991 305.3229,-264.1178"/>
</g>
<!-- Node11 -->
<g id="node12" class="node">
<title>Node11</title>
<g id="a_node12"><a xlink:href="structcx_1_1web_1_1_short_url_parameters.html" target="_top" xlink:title=" ">
<polygon fill="none" stroke="#000000" points="369.1294,-195.5 369.1294,-213.5 512.9468,-213.5 512.9468,-195.5 369.1294,-195.5"/>
<text text-anchor="middle" x="441.0381" y="-201.5" font-family="Helvetica,sans-Serif" font-size="10.00" fill="#000000">cx::web::ShortUrlParameters</text>
</a>
</g>
</g>
<!-- Node1&#45;&gt;Node11 -->
<g id="edge11" class="edge">
<title>Node1&#45;&gt;Node11</title>
<path fill="none" stroke="#191970" d="M272.7106,-264.3358C294.0143,-252.0092 326.637,-234.4484 356.8906,-223.5 367.8753,-219.5248 379.978,-216.2081 391.4976,-213.5177"/>
<polygon fill="#191970" stroke="#191970" points="270.8924,-261.3445 264.0409,-269.4258 274.4365,-267.3811 270.8924,-261.3445"/>
</g>
<!-- Node12 -->
<g id="node13" class="node">
<title>Node12</title>
<g id="a_node13"><a xlink:href="structcx_1_1web_1_1_subscription_parameters.html" target="_top" xlink:title=" ">
<polygon fill="none" stroke="#000000" points="359.9521,-158.5 359.9521,-176.5 522.124,-176.5 522.124,-158.5 359.9521,-158.5"/>
<text text-anchor="middle" x="441.0381" y="-164.5" font-family="Helvetica,sans-Serif" font-size="10.00" fill="#000000">cx::web::SubscriptionParameters</text>
</a>
</g>
</g>
<!-- Node1&#45;&gt;Node12 -->
<g id="edge12" class="edge">
<title>Node1&#45;&gt;Node12</title>
<path fill="none" stroke="#191970" d="M263.858,-261.7796C283.0669,-240.8849 318.8636,-205.5608 356.8906,-186.5 365.1917,-182.3391 374.4077,-179.0792 383.6084,-176.5279"/>
<polygon fill="#191970" stroke="#191970" points="261.208,-259.492 257.1189,-269.2659 266.4106,-264.1753 261.208,-259.492"/>
</g>
<!-- Node13 -->
<g id="node14" class="node">
<title>Node13</title>
<g id="a_node14"><a xlink:href="structcx_1_1web_1_1_update_subscription_parameters.html" target="_top" xlink:title=" ">
<polygon fill="none" stroke="#000000" points="369.6714,-111.5 369.6714,-139.5 512.4048,-139.5 512.4048,-111.5 369.6714,-111.5"/>
<text text-anchor="start" x="377.6714" y="-127.5" font-family="Helvetica,sans-Serif" font-size="10.00" fill="#000000">cx::web::UpdateSubscription</text>
<text text-anchor="middle" x="441.0381" y="-117.5" font-family="Helvetica,sans-Serif" font-size="10.00" fill="#000000">Parameters</text>
</a>
</g>
</g>
<!-- Node1&#45;&gt;Node13 -->
<g id="edge13" class="edge">
<title>Node1&#45;&gt;Node13</title>
<path fill="none" stroke="#191970" d="M259.2537,-260.6958C275.8689,-232.7609 311.8319,-178.8043 356.8906,-149.5 362.8761,-145.6073 369.5002,-142.3349 376.3265,-139.5864"/>
<polygon fill="#191970" stroke="#191970" points="256.19,-259.002 254.2004,-269.4084 262.2453,-262.5141 256.19,-259.002"/>
</g>
<!-- Node14 -->
<g id="node15" class="node">
<title>Node14</title>
<g id="a_node15"><a xlink:href="structcx_1_1web_1_1_user_parameters.html" target="_top" xlink:title=" ">
<polygon fill="none" stroke="#000000" points="376.9102,-74.5 376.9102,-92.5 505.166,-92.5 505.166,-74.5 376.9102,-74.5"/>
<text text-anchor="middle" x="441.0381" y="-80.5" font-family="Helvetica,sans-Serif" font-size="10.00" fill="#000000">cx::web::UserParameters</text>
</a>
</g>
</g>
<!-- Node1&#45;&gt;Node14 -->
<g id="edge14" class="edge">
<title>Node1&#45;&gt;Node14</title>
<path fill="none" stroke="#191970" d="M255.2082,-259.6193C267.7424,-223.1317 300.4365,-142.9724 356.8906,-102.5 362.8549,-98.2242 369.6188,-94.8891 376.6577,-92.2913"/>
<polygon fill="#191970" stroke="#191970" points="251.7745,-258.8555 251.9615,-269.4487 258.4213,-261.051 251.7745,-258.8555"/>
</g>
<!-- Node15 -->
<g id="node16" class="node">
<title>Node15</title>
<g id="a_node16"><a xlink:href="structcx_1_1web_1_1_voting_parameters.html" target="_top" xlink:title=" ">
<polygon fill="none" stroke="#000000" points="373.563,-37.5 373.563,-55.5 508.5132,-55.5 508.5132,-37.5 373.563,-37.5"/>
<text text-anchor="middle" x="441.0381" y="-43.5" font-family="Helvetica,sans-Serif" font-size="10.00" fill="#000000">cx::web::VotingParameters</text>
</a>
</g>
</g>
<!-- Node1&#45;&gt;Node15 -->
<g id="edge15" class="edge">
<title>Node1&#45;&gt;Node15</title>
<path fill="none" stroke="#191970" d="M253.1141,-259.5044C262.6966,-217.4908 291.654,-116.3895 356.8906,-65.5 362.0865,-61.4469 367.982,-58.2257 374.1833,-55.6703"/>
<polygon fill="#191970" stroke="#191970" points="249.6483,-258.9719 250.9539,-269.486 256.49,-260.4526 249.6483,-258.9719"/>
</g>
<!-- Node16 -->
<g id="node17" class="node">
<title>Node16</title>
<g id="a_node17"><a xlink:href="structcx_1_1web_1_1_wall_parameters.html" target="_top" xlink:title=" ">
<polygon fill="none" stroke="#000000" points="377.9282,-.5 377.9282,-18.5 504.1479,-18.5 504.1479,-.5 377.9282,-.5"/>
<text text-anchor="middle" x="441.0381" y="-6.5" font-family="Helvetica,sans-Serif" font-size="10.00" fill="#000000">cx::web::WallParameters</text>
</a>
</g>
</g>
<!-- Node1&#45;&gt;Node16 -->
<g id="edge16" class="edge">
<title>Node1&#45;&gt;Node16</title>
<path fill="none" stroke="#191970" d="M251.6678,-258.842C258.5942,-211.3689 283.0115,-89.8671 356.8906,-28.5 362.9966,-23.4281 370.181,-19.642 377.7356,-16.8265"/>
<polygon fill="#191970" stroke="#191970" points="248.1659,-258.6207 250.2933,-268.9998 255.1027,-259.5594 248.1659,-258.6207"/>
</g>
</g>
</svg>
