<?xml version="1.0" encoding="UTF-8" standalone="no"?>
<!DOCTYPE svg PUBLIC "-//W3C//DTD SVG 1.1//EN"
 "http://www.w3.org/Graphics/SVG/1.1/DTD/svg11.dtd">
<!-- Generated by graphviz version 2.40.1 (20161225.0304)
 -->
<!-- Title: fs::trim Pages: 1 -->
<svg width="221pt" height="64pt"
 viewBox="0.00 0.00 221.32 64.00" xmlns="http://www.w3.org/2000/svg" xmlns:xlink="http://www.w3.org/1999/xlink">
<g id="graph0" class="graph" transform="scale(1 1) rotate(0) translate(4 60)">
<title>fs::trim</title>
<!-- Node30 -->
<g id="node1" class="node">
<title>Node30</title>
<g id="a_node1"><a xlink:title=" ">
<polygon fill="#bfbfbf" stroke="#000000" points="0,-18.5 0,-36.5 45.9951,-36.5 45.9951,-18.5 0,-18.5"/>
<text text-anchor="middle" x="22.9976" y="-24.5" font-family="Helvetica,sans-Serif" font-size="10.00" fill="#000000">fs::trim</text>
</a>
</g>
</g>
<!-- Node31 -->
<g id="node2" class="node">
<title>Node31</title>
<g id="a_node2"><a xlink:href="namespacefs.html#a05bb0868d7698918cf5d72709d1cf294" target="_top" xlink:title=" ">
<polygon fill="none" stroke="#000000" points="81.9951,-18.5 81.9951,-36.5 127.9902,-36.5 127.9902,-18.5 81.9951,-18.5"/>
<text text-anchor="middle" x="104.9927" y="-24.5" font-family="Helvetica,sans-Serif" font-size="10.00" fill="#000000">fs::trim</text>
</a>
</g>
</g>
<!-- Node30&#45;&gt;Node31 -->
<g id="edge1" class="edge">
<title>Node30&#45;&gt;Node31</title>
<path fill="none" stroke="#191970" d="M46.2747,-27.5C54.2186,-27.5 63.2615,-27.5 71.8302,-27.5"/>
<polygon fill="#191970" stroke="#191970" points="71.9411,-31.0001 81.9411,-27.5 71.9411,-24.0001 71.9411,-31.0001"/>
</g>
<!-- Node32 -->
<g id="node3" class="node">
<title>Node32</title>
<g id="a_node3"><a xlink:href="namespacefs.html#a5dee950e0b394ea681d608df084bf3de" target="_top" xlink:title=" ">
<polygon fill="none" stroke="#000000" points="163.9902,-37.5 163.9902,-55.5 213.3154,-55.5 213.3154,-37.5 163.9902,-37.5"/>
<text text-anchor="middle" x="188.6528" y="-43.5" font-family="Helvetica,sans-Serif" font-size="10.00" fill="#000000">fs::rtrim</text>
</a>
</g>
</g>
<!-- Node31&#45;&gt;Node32 -->
<g id="edge2" class="edge">
<title>Node31&#45;&gt;Node32</title>
<path fill="none" stroke="#191970" d="M128.2967,-32.7926C136.2198,-34.592 145.2541,-36.6437 153.8767,-38.602"/>
<polygon fill="#191970" stroke="#191970" points="153.1916,-42.0355 163.7184,-40.8372 154.7419,-35.2093 153.1916,-42.0355"/>
</g>
<!-- Node33 -->
<g id="node4" class="node">
<title>Node33</title>
<g id="a_node4"><a xlink:href="namespacefs.html#a4f06348a785373f59b915caad5084986" target="_top" xlink:title=" ">
<polygon fill="none" stroke="#000000" points="164.5444,-.5 164.5444,-18.5 212.7612,-18.5 212.7612,-.5 164.5444,-.5"/>
<text text-anchor="middle" x="188.6528" y="-6.5" font-family="Helvetica,sans-Serif" font-size="10.00" fill="#000000">fs::ltrim</text>
</a>
</g>
</g>
<!-- Node31&#45;&gt;Node33 -->
<g id="edge3" class="edge">
<title>Node31&#45;&gt;Node33</title>
<path fill="none" stroke="#191970" d="M128.2967,-22.486C136.3588,-20.7514 145.5715,-18.7692 154.3301,-16.8847"/>
<polygon fill="#191970" stroke="#191970" points="155.2673,-20.2633 164.3073,-14.7381 153.7948,-13.4199 155.2673,-20.2633"/>
</g>
</g>
</svg>
