<?xml version="1.0" encoding="UTF-8" standalone="no"?>
<!DOCTYPE svg PUBLIC "-//W3C//DTD SVG 1.1//EN"
 "http://www.w3.org/Graphics/SVG/1.1/DTD/svg11.dtd">
<!-- Generated by graphviz version 2.40.1 (20161225.0304)
 -->
<!-- Title: cx::InitAPI Pages: 1 -->
<svg width="420pt" height="154pt"
 viewBox="0.00 0.00 420.44 154.00" xmlns="http://www.w3.org/2000/svg" xmlns:xlink="http://www.w3.org/1999/xlink">
<g id="graph0" class="graph" transform="scale(1 1) rotate(0) translate(4 150)">
<title>cx::InitAPI</title>
<!-- Node0 -->
<g id="node1" class="node">
<title>Node0</title>
<g id="a_node1"><a xlink:title=" ">
<polygon fill="#bfbfbf" stroke="#000000" points="0,-75.5 0,-93.5 61.0146,-93.5 61.0146,-75.5 0,-75.5"/>
<text text-anchor="middle" x="30.5073" y="-81.5" font-family="Helvetica,sans-Serif" font-size="10.00" fill="#000000">cx::InitAPI</text>
</a>
</g>
</g>
<!-- Node1 -->
<g id="node2" class="node">
<title>Node1</title>
<g id="a_node2"><a xlink:href="classfs_1_1_i_o_service_controller.html#aa292589c665877d65067cb3047e95240" target="_top" xlink:title=" ">
<polygon fill="none" stroke="#000000" points="97.0146,-117.5 97.0146,-145.5 213.6006,-145.5 213.6006,-117.5 97.0146,-117.5"/>
<text text-anchor="start" x="105.0146" y="-133.5" font-family="Helvetica,sans-Serif" font-size="10.00" fill="#000000">fs::IOServiceController</text>
<text text-anchor="middle" x="155.3076" y="-123.5" font-family="Helvetica,sans-Serif" font-size="10.00" fill="#000000">::instance</text>
</a>
</g>
</g>
<!-- Node0&#45;&gt;Node1 -->
<g id="edge1" class="edge">
<title>Node0&#45;&gt;Node1</title>
<path fill="none" stroke="#191970" d="M54.5701,-93.5621C69.8906,-99.3318 90.2451,-106.9974 108.6461,-113.9272"/>
<polygon fill="#191970" stroke="#191970" points="107.4617,-117.2211 118.0536,-117.4701 109.9288,-110.6702 107.4617,-117.2211"/>
</g>
<!-- Node2 -->
<g id="node3" class="node">
<title>Node2</title>
<g id="a_node3"><a xlink:href="classfs_1_1_i_o_service_controller.html#acab822484935d3cd59ed2280ca659af1" target="_top" xlink:title=" ">
<polygon fill="none" stroke="#000000" points="97.0146,-70.5 97.0146,-98.5 213.6006,-98.5 213.6006,-70.5 97.0146,-70.5"/>
<text text-anchor="start" x="105.0146" y="-86.5" font-family="Helvetica,sans-Serif" font-size="10.00" fill="#000000">fs::IOServiceController</text>
<text text-anchor="middle" x="155.3076" y="-76.5" font-family="Helvetica,sans-Serif" font-size="10.00" fill="#000000">::setIOService</text>
</a>
</g>
</g>
<!-- Node0&#45;&gt;Node2 -->
<g id="edge2" class="edge">
<title>Node0&#45;&gt;Node2</title>
<path fill="none" stroke="#191970" d="M61.0369,-84.5C68.9014,-84.5 77.6892,-84.5 86.6509,-84.5"/>
<polygon fill="#191970" stroke="#191970" points="86.8029,-88.0001 96.8028,-84.5 86.8028,-81.0001 86.8029,-88.0001"/>
</g>
<!-- Node3 -->
<g id="node4" class="node">
<title>Node3</title>
<g id="a_node4"><a xlink:href="classfs_1_1_i_o_service_controller.html#a1e7fbc06f1c9df1bee7ecddb342bda42" target="_top" xlink:title=" ">
<polygon fill="none" stroke="#000000" points="97.0146,-23.5 97.0146,-51.5 213.6006,-51.5 213.6006,-23.5 97.0146,-23.5"/>
<text text-anchor="start" x="105.0146" y="-39.5" font-family="Helvetica,sans-Serif" font-size="10.00" fill="#000000">fs::IOServiceController</text>
<text text-anchor="middle" x="155.3076" y="-29.5" font-family="Helvetica,sans-Serif" font-size="10.00" fill="#000000">::start</text>
</a>
</g>
</g>
<!-- Node0&#45;&gt;Node3 -->
<g id="edge3" class="edge">
<title>Node0&#45;&gt;Node3</title>
<path fill="none" stroke="#191970" d="M54.5701,-75.4379C69.8906,-69.6682 90.2451,-62.0026 108.6461,-55.0728"/>
<polygon fill="#191970" stroke="#191970" points="109.9288,-58.3298 118.0536,-51.5299 107.4617,-51.7789 109.9288,-58.3298"/>
</g>
<!-- Node4 -->
<g id="node5" class="node">
<title>Node4</title>
<g id="a_node5"><a xlink:href="classfs_1_1_t_singleton.html#ae708a5769fa3ee0f126250329fb022d3" target="_top" xlink:title=" ">
<polygon fill="none" stroke="#000000" points="249.6006,-47.5 249.6006,-75.5 412.4365,-75.5 412.4365,-47.5 249.6006,-47.5"/>
<text text-anchor="start" x="257.6006" y="-63.5" font-family="Helvetica,sans-Serif" font-size="10.00" fill="#000000">fs::TSingleton&lt; ThreadDescriptor</text>
<text text-anchor="middle" x="331.0186" y="-53.5" font-family="Helvetica,sans-Serif" font-size="10.00" fill="#000000"> &gt;::instance</text>
</a>
</g>
</g>
<!-- Node3&#45;&gt;Node4 -->
<g id="edge4" class="edge">
<title>Node3&#45;&gt;Node4</title>
<path fill="none" stroke="#191970" d="M213.8168,-45.4917C221.9969,-46.6089 230.5604,-47.7786 239.1752,-48.9553"/>
<polygon fill="#191970" stroke="#191970" points="238.9101,-52.4515 249.2918,-50.3371 239.8574,-45.5159 238.9101,-52.4515"/>
</g>
<!-- Node5 -->
<g id="node6" class="node">
<title>Node5</title>
<g id="a_node6"><a xlink:href="classfs_1_1_thread_descriptor.html#a55204737c84db61b6628abd39f341f1c" target="_top" xlink:title=" ">
<polygon fill="none" stroke="#000000" points="266.0508,-.5 266.0508,-28.5 395.9863,-28.5 395.9863,-.5 266.0508,-.5"/>
<text text-anchor="start" x="274.0508" y="-16.5" font-family="Helvetica,sans-Serif" font-size="10.00" fill="#000000">fs::ThreadDescriptor</text>
<text text-anchor="middle" x="331.0186" y="-6.5" font-family="Helvetica,sans-Serif" font-size="10.00" fill="#000000">::setIOServiceThreadFlag</text>
</a>
</g>
</g>
<!-- Node3&#45;&gt;Node5 -->
<g id="edge5" class="edge">
<title>Node3&#45;&gt;Node5</title>
<path fill="none" stroke="#191970" d="M213.8168,-29.8413C227.2326,-28.0852 241.6799,-26.1941 255.693,-24.3599"/>
<polygon fill="#191970" stroke="#191970" points="256.3379,-27.8054 265.799,-23.037 255.4293,-20.8646 256.3379,-27.8054"/>
</g>
</g>
</svg>
