<?xml version="1.0" encoding="UTF-8" standalone="no"?>
<!DOCTYPE svg PUBLIC "-//W3C//DTD SVG 1.1//EN"
 "http://www.w3.org/Graphics/SVG/1.1/DTD/svg11.dtd">
<!-- Generated by graphviz version 2.40.1 (20161225.0304)
 -->
<!-- Title: fs::rtrim Pages: 1 -->
<svg width="221pt" height="27pt"
 viewBox="0.00 0.00 221.32 27.00" xmlns="http://www.w3.org/2000/svg" xmlns:xlink="http://www.w3.org/1999/xlink">
<g id="graph0" class="graph" transform="scale(1 1) rotate(0) translate(4 23)">
<title>fs::rtrim</title>
<!-- Node18 -->
<g id="node1" class="node">
<title>Node18</title>
<g id="a_node1"><a xlink:title=" ">
<polygon fill="#bfbfbf" stroke="#000000" points="163.9902,-.5 163.9902,-18.5 213.3154,-18.5 213.3154,-.5 163.9902,-.5"/>
<text text-anchor="middle" x="188.6528" y="-6.5" font-family="Helvetica,sans-Serif" font-size="10.00" fill="#000000">fs::rtrim</text>
</a>
</g>
</g>
<!-- Node19 -->
<g id="node2" class="node">
<title>Node19</title>
<g id="a_node2"><a xlink:href="namespacefs.html#a05bb0868d7698918cf5d72709d1cf294" target="_top" xlink:title=" ">
<polygon fill="none" stroke="#000000" points="81.9951,-.5 81.9951,-18.5 127.9902,-18.5 127.9902,-.5 81.9951,-.5"/>
<text text-anchor="middle" x="104.9927" y="-6.5" font-family="Helvetica,sans-Serif" font-size="10.00" fill="#000000">fs::trim</text>
</a>
</g>
</g>
<!-- Node18&#45;&gt;Node19 -->
<g id="edge1" class="edge">
<title>Node18&#45;&gt;Node19</title>
<path fill="none" stroke="#191970" d="M153.3994,-9.5C144.8412,-9.5 135.9064,-9.5 128.0764,-9.5"/>
<polygon fill="#191970" stroke="#191970" points="153.5521,-13.0001 163.552,-9.5 153.552,-6.0001 153.5521,-13.0001"/>
</g>
<!-- Node20 -->
<g id="node3" class="node">
<title>Node20</title>
<g id="a_node3"><a xlink:href="namespacefs.html#a4c79f0020b8e578416dbcb94fdaab325" target="_top" xlink:title=" ">
<polygon fill="none" stroke="#000000" points="0,-.5 0,-18.5 45.9951,-18.5 45.9951,-.5 0,-.5"/>
<text text-anchor="middle" x="22.9976" y="-6.5" font-family="Helvetica,sans-Serif" font-size="10.00" fill="#000000">fs::trim</text>
</a>
</g>
</g>
<!-- Node19&#45;&gt;Node20 -->
<g id="edge2" class="edge">
<title>Node19&#45;&gt;Node20</title>
<path fill="none" stroke="#191970" d="M71.5864,-9.5C63.0089,-9.5 53.972,-9.5 46.0491,-9.5"/>
<polygon fill="#191970" stroke="#191970" points="71.7155,-13.0001 81.7155,-9.5 71.7155,-6.0001 71.7155,-13.0001"/>
</g>
</g>
</svg>
