<?xml version="1.0" encoding="UTF-8" standalone="no"?>
<!DOCTYPE svg PUBLIC "-//W3C//DTD SVG 1.1//EN"
 "http://www.w3.org/Graphics/SVG/1.1/DTD/svg11.dtd">
<!-- Generated by graphviz version 2.40.1 (20161225.0304)
 -->
<!-- Title: cx::web::SharedConfigParameters Pages: 1 -->
<svg width="176pt" height="325pt"
 viewBox="0.00 0.00 176.29 325.00" xmlns="http://www.w3.org/2000/svg" xmlns:xlink="http://www.w3.org/1999/xlink">
<g id="graph0" class="graph" transform="scale(1 1) rotate(0) translate(4 321)">
<title>cx::web::SharedConfigParameters</title>
<!-- Node0 -->
<g id="node1" class="node">
<title>Node0</title>
<g id="a_node1"><a xlink:title=" ">
<polygon fill="#bfbfbf" stroke="#000000" points="0,-.5 0,-64.5 168.2949,-64.5 168.2949,-.5 0,-.5"/>
<text text-anchor="middle" x="84.1475" y="-52.5" font-family="Helvetica,sans-Serif" font-size="10.00" fill="#000000">cx::web::SharedConfigParameters</text>
<polyline fill="none" stroke="#000000" points="0,-46.5 168.2949,-46.5 "/>
<text text-anchor="start" x="8" y="-34.5" font-family="Helvetica,sans-Serif" font-size="10.00" fill="#000000">+ token</text>
<text text-anchor="start" x="8" y="-24.5" font-family="Helvetica,sans-Serif" font-size="10.00" fill="#000000">+ check</text>
<polyline fill="none" stroke="#000000" points="0,-18.5 168.2949,-18.5 "/>
<text text-anchor="middle" x="84.1475" y="-6.5" font-family="Helvetica,sans-Serif" font-size="10.00" fill="#000000"> </text>
</a>
</g>
</g>
<!-- Node1 -->
<g id="node2" class="node">
<title>Node1</title>
<g id="a_node2"><a xlink:href="structcx_1_1web_1_1_access_token_cache.html" target="_top" xlink:title=" ">
<polygon fill="none" stroke="#000000" points="12.5073,-101.5 12.5073,-195.5 155.7876,-195.5 155.7876,-101.5 12.5073,-101.5"/>
<text text-anchor="middle" x="84.1475" y="-183.5" font-family="Helvetica,sans-Serif" font-size="10.00" fill="#000000">cx::web::AccessTokenCache</text>
<polyline fill="none" stroke="#000000" points="12.5073,-177.5 155.7876,-177.5 "/>
<text text-anchor="start" x="20.5073" y="-165.5" font-family="Helvetica,sans-Serif" font-size="10.00" fill="#000000">+ access_token</text>
<text text-anchor="start" x="20.5073" y="-155.5" font-family="Helvetica,sans-Serif" font-size="10.00" fill="#000000">+ refresh_token</text>
<polyline fill="none" stroke="#000000" points="12.5073,-149.5 155.7876,-149.5 "/>
<text text-anchor="start" x="20.5073" y="-137.5" font-family="Helvetica,sans-Serif" font-size="10.00" fill="#000000">+ AccessTokenCache()</text>
<text text-anchor="start" x="20.5073" y="-127.5" font-family="Helvetica,sans-Serif" font-size="10.00" fill="#000000">+ AccessTokenCache()</text>
<text text-anchor="start" x="20.5073" y="-117.5" font-family="Helvetica,sans-Serif" font-size="10.00" fill="#000000">+ serialize()</text>
<text text-anchor="start" x="20.5073" y="-107.5" font-family="Helvetica,sans-Serif" font-size="10.00" fill="#000000">+ deserialize()</text>
</a>
</g>
</g>
<!-- Node1&#45;&gt;Node0 -->
<g id="edge1" class="edge">
<title>Node1&#45;&gt;Node0</title>
<path fill="none" stroke="#191970" d="M84.1475,-91.1299C84.1475,-82.0561 84.1475,-72.9618 84.1475,-64.7354"/>
<polygon fill="none" stroke="#191970" points="80.6476,-91.3183 84.1475,-101.3184 87.6476,-91.3184 80.6476,-91.3183"/>
</g>
<!-- Node2 -->
<g id="node3" class="node">
<title>Node2</title>
<g id="a_node3"><a xlink:href="structcx_1_1web_1_1_cached_parameters.html" target="_top" xlink:title=" ">
<polygon fill="none" stroke="#000000" points="13.3423,-232.5 13.3423,-316.5 154.9526,-316.5 154.9526,-232.5 13.3423,-232.5"/>
<text text-anchor="middle" x="84.1475" y="-304.5" font-family="Helvetica,sans-Serif" font-size="10.00" fill="#000000">cx::web::CachedParameters</text>
<polyline fill="none" stroke="#000000" points="13.3423,-298.5 154.9526,-298.5 "/>
<text text-anchor="middle" x="84.1475" y="-286.5" font-family="Helvetica,sans-Serif" font-size="10.00" fill="#000000"> </text>
<polyline fill="none" stroke="#000000" points="13.3423,-280.5 154.9526,-280.5 "/>
<text text-anchor="start" x="21.3423" y="-268.5" font-family="Helvetica,sans-Serif" font-size="10.00" fill="#000000">+ serialize()</text>
<text text-anchor="start" x="21.3423" y="-258.5" font-family="Helvetica,sans-Serif" font-size="10.00" fill="#000000">+ deserialize()</text>
<text text-anchor="start" x="21.3423" y="-248.5" font-family="Helvetica,sans-Serif" font-size="10.00" fill="#000000">+ operator&gt;&gt;()</text>
<text text-anchor="start" x="21.3423" y="-238.5" font-family="Helvetica,sans-Serif" font-size="10.00" fill="#000000">+ operator&lt;&lt;()</text>
</a>
</g>
</g>
<!-- Node2&#45;&gt;Node1 -->
<g id="edge2" class="edge">
<title>Node2&#45;&gt;Node1</title>
<path fill="none" stroke="#191970" d="M84.1475,-222.0873C84.1475,-213.3328 84.1475,-204.2974 84.1475,-195.6838"/>
<polygon fill="none" stroke="#191970" points="80.6476,-222.1933 84.1475,-232.1933 87.6476,-222.1933 80.6476,-222.1933"/>
</g>
</g>
</svg>
