<?xml version="1.0" encoding="UTF-8" standalone="no"?>
<!DOCTYPE svg PUBLIC "-//W3C//DTD SVG 1.1//EN"
 "http://www.w3.org/Graphics/SVG/1.1/DTD/svg11.dtd">
<!-- Generated by graphviz version 2.40.1 (20161225.0304)
 -->
<!-- Title: cx::web::SubscriptionParameters Pages: 1 -->
<svg width="394pt" height="437pt"
 viewBox="0.00 0.00 393.82 437.00" xmlns="http://www.w3.org/2000/svg" xmlns:xlink="http://www.w3.org/1999/xlink">
<g id="graph0" class="graph" transform="scale(1 1) rotate(0) translate(4 433)">
<title>cx::web::SubscriptionParameters</title>
<!-- Node3 -->
<g id="node1" class="node">
<title>Node3</title>
<g id="a_node1"><a xlink:title=" ">
<polygon fill="#bfbfbf" stroke="#000000" points="107.7192,-.5 107.7192,-54.5 269.8911,-54.5 269.8911,-.5 107.7192,-.5"/>
<text text-anchor="middle" x="188.8052" y="-42.5" font-family="Helvetica,sans-Serif" font-size="10.00" fill="#000000">cx::web::SubscriptionParameters</text>
<polyline fill="none" stroke="#000000" points="107.7192,-36.5 269.8911,-36.5 "/>
<text text-anchor="middle" x="188.8052" y="-24.5" font-family="Helvetica,sans-Serif" font-size="10.00" fill="#000000"> </text>
<polyline fill="none" stroke="#000000" points="107.7192,-18.5 269.8911,-18.5 "/>
<text text-anchor="middle" x="188.8052" y="-6.5" font-family="Helvetica,sans-Serif" font-size="10.00" fill="#000000"> </text>
</a>
</g>
</g>
<!-- Node4 -->
<g id="node2" class="node">
<title>Node4</title>
<g id="a_node2"><a xlink:href="structcx_1_1web_1_1_access_token_cache.html" target="_top" xlink:title=" ">
<polygon fill="none" stroke="#000000" points="9.165,-101.5 9.165,-185.5 152.4453,-185.5 152.4453,-101.5 9.165,-101.5"/>
<text text-anchor="middle" x="80.8052" y="-173.5" font-family="Helvetica,sans-Serif" font-size="10.00" fill="#000000">cx::web::AccessTokenCache</text>
<polyline fill="none" stroke="#000000" points="9.165,-167.5 152.4453,-167.5 "/>
<text text-anchor="middle" x="80.8052" y="-155.5" font-family="Helvetica,sans-Serif" font-size="10.00" fill="#000000"> </text>
<polyline fill="none" stroke="#000000" points="9.165,-149.5 152.4453,-149.5 "/>
<text text-anchor="start" x="17.165" y="-137.5" font-family="Helvetica,sans-Serif" font-size="10.00" fill="#000000">+ AccessTokenCache()</text>
<text text-anchor="start" x="17.165" y="-127.5" font-family="Helvetica,sans-Serif" font-size="10.00" fill="#000000">+ AccessTokenCache()</text>
<text text-anchor="start" x="17.165" y="-117.5" font-family="Helvetica,sans-Serif" font-size="10.00" fill="#000000">+ serialize()</text>
<text text-anchor="start" x="17.165" y="-107.5" font-family="Helvetica,sans-Serif" font-size="10.00" fill="#000000">+ deserialize()</text>
</a>
</g>
</g>
<!-- Node4&#45;&gt;Node3 -->
<g id="edge1" class="edge">
<title>Node4&#45;&gt;Node3</title>
<path fill="none" stroke="#191970" d="M126.9805,-93.9043C139.501,-80.4563 152.5949,-66.3925 163.4925,-54.6877"/>
<polygon fill="none" stroke="#191970" points="124.3537,-91.5893 120.1012,-101.2932 129.477,-96.3592 124.3537,-91.5893"/>
</g>
<!-- Node5 -->
<g id="node3" class="node">
<title>Node5</title>
<g id="a_node3"><a xlink:href="structcx_1_1web_1_1_cached_parameters.html" target="_top" xlink:title=" ">
<polygon fill="none" stroke="#000000" points="0,-242.5 0,-326.5 141.6104,-326.5 141.6104,-242.5 0,-242.5"/>
<text text-anchor="middle" x="70.8052" y="-314.5" font-family="Helvetica,sans-Serif" font-size="10.00" fill="#000000">cx::web::CachedParameters</text>
<polyline fill="none" stroke="#000000" points="0,-308.5 141.6104,-308.5 "/>
<text text-anchor="middle" x="70.8052" y="-296.5" font-family="Helvetica,sans-Serif" font-size="10.00" fill="#000000"> </text>
<polyline fill="none" stroke="#000000" points="0,-290.5 141.6104,-290.5 "/>
<text text-anchor="start" x="8" y="-278.5" font-family="Helvetica,sans-Serif" font-size="10.00" fill="#000000">+ serialize()</text>
<text text-anchor="start" x="8" y="-268.5" font-family="Helvetica,sans-Serif" font-size="10.00" fill="#000000">+ deserialize()</text>
<text text-anchor="start" x="8" y="-258.5" font-family="Helvetica,sans-Serif" font-size="10.00" fill="#000000">+ operator&gt;&gt;()</text>
<text text-anchor="start" x="8" y="-248.5" font-family="Helvetica,sans-Serif" font-size="10.00" fill="#000000">+ operator&lt;&lt;()</text>
</a>
</g>
</g>
<!-- Node5&#45;&gt;Node4 -->
<g id="edge2" class="edge">
<title>Node5&#45;&gt;Node4</title>
<path fill="none" stroke="#191970" d="M74.5363,-231.8907C75.6154,-216.6765 76.7788,-200.272 77.807,-185.7748"/>
<polygon fill="none" stroke="#191970" points="71.0218,-231.9728 73.8055,-242.1954 78.0043,-232.468 71.0218,-231.9728"/>
</g>
<!-- Node6 -->
<g id="node4" class="node">
<title>Node6</title>
<g id="a_node4"><a xlink:title="STL class.">
<polygon fill="none" stroke="#bfbfbf" points="159.1304,-257.5 159.1304,-311.5 218.48,-311.5 218.48,-257.5 159.1304,-257.5"/>
<text text-anchor="middle" x="188.8052" y="-299.5" font-family="Helvetica,sans-Serif" font-size="10.00" fill="#000000">std::string</text>
<polyline fill="none" stroke="#bfbfbf" points="159.1304,-293.5 218.48,-293.5 "/>
<text text-anchor="middle" x="188.8052" y="-281.5" font-family="Helvetica,sans-Serif" font-size="10.00" fill="#000000"> </text>
<polyline fill="none" stroke="#bfbfbf" points="159.1304,-275.5 218.48,-275.5 "/>
<text text-anchor="middle" x="188.8052" y="-263.5" font-family="Helvetica,sans-Serif" font-size="10.00" fill="#000000"> </text>
</a>
</g>
</g>
<!-- Node6&#45;&gt;Node3 -->
<g id="edge5" class="edge">
<title>Node6&#45;&gt;Node3</title>
<path fill="none" stroke="#404040" d="M188.8052,-257.4822C188.8052,-211.8831 188.8052,-119.4747 188.8052,-66.7306"/>
<polygon fill="none" stroke="#404040" points="188.8053,-66.5414 184.8052,-60.5414 188.8052,-54.5414 192.8052,-60.5414 188.8053,-66.5414"/>
<text text-anchor="middle" x="225.0771" y="-145.5" font-family="Helvetica,sans-Serif" font-size="10.00" fill="#000000"> +meeting_id</text>
<text text-anchor="middle" x="225.0771" y="-135.5" font-family="Helvetica,sans-Serif" font-size="10.00" fill="#000000">+subscription_id</text>
</g>
<!-- Node6&#45;&gt;Node4 -->
<g id="edge3" class="edge">
<title>Node6&#45;&gt;Node4</title>
<path fill="none" stroke="#404040" d="M168.0214,-257.386C162.8369,-251.7881 156.9795,-246.2968 150.8052,-242 132.8649,-229.515 119.8458,-240.078 105.0396,-224 98.0753,-216.4376 93.1088,-206.9425 89.5679,-197.1507"/>
<polygon fill="none" stroke="#404040" points="89.5495,-197.0905 83.9663,-192.5267 86.0317,-185.6177 91.6149,-190.1815 89.5495,-197.0905"/>
<text text-anchor="middle" x="139.688" y="-216" font-family="Helvetica,sans-Serif" font-size="10.00" fill="#000000"> +access_token</text>
<text text-anchor="middle" x="139.688" y="-206" font-family="Helvetica,sans-Serif" font-size="10.00" fill="#000000">+refresh_token</text>
</g>
<!-- Node8 -->
<g id="node6" class="node">
<title>Node8</title>
<g id="a_node6"><a xlink:href="structcx_1_1web_1_1_credentials.html" target="_top" xlink:title=" ">
<polygon fill="none" stroke="#000000" points="279.7856,-116.5 279.7856,-170.5 385.8247,-170.5 385.8247,-116.5 279.7856,-116.5"/>
<text text-anchor="middle" x="332.8052" y="-158.5" font-family="Helvetica,sans-Serif" font-size="10.00" fill="#000000">cx::web::Credentials</text>
<polyline fill="none" stroke="#000000" points="279.7856,-152.5 385.8247,-152.5 "/>
<text text-anchor="middle" x="332.8052" y="-140.5" font-family="Helvetica,sans-Serif" font-size="10.00" fill="#000000"> </text>
<polyline fill="none" stroke="#000000" points="279.7856,-134.5 385.8247,-134.5 "/>
<text text-anchor="start" x="287.7856" y="-122.5" font-family="Helvetica,sans-Serif" font-size="10.00" fill="#000000">+ valid()</text>
</a>
</g>
</g>
<!-- Node6&#45;&gt;Node8 -->
<g id="edge7" class="edge">
<title>Node6&#45;&gt;Node8</title>
<path fill="none" stroke="#404040" d="M216.5698,-257.3138C239.28,-235.0767 271.5765,-203.453 296.3647,-179.1813"/>
<polygon fill="none" stroke="#404040" points="296.5516,-178.9983 298.0402,-171.9425 305.1258,-170.6028 303.6372,-177.6586 296.5516,-178.9983"/>
<text text-anchor="middle" x="294.5132" y="-216" font-family="Helvetica,sans-Serif" font-size="10.00" fill="#000000"> +password</text>
<text text-anchor="middle" x="294.5132" y="-206" font-family="Helvetica,sans-Serif" font-size="10.00" fill="#000000">+login</text>
</g>
<!-- Node7 -->
<g id="node5" class="node">
<title>Node7</title>
<g id="a_node5"><a xlink:title="STL class.">
<polygon fill="none" stroke="#bfbfbf" points="141.7573,-364.5 141.7573,-428.5 235.853,-428.5 235.853,-364.5 141.7573,-364.5"/>
<text text-anchor="start" x="149.7573" y="-416.5" font-family="Helvetica,sans-Serif" font-size="10.00" fill="#000000">std::basic_string&lt;</text>
<text text-anchor="middle" x="188.8052" y="-406.5" font-family="Helvetica,sans-Serif" font-size="10.00" fill="#000000"> char &gt;</text>
<polyline fill="none" stroke="#bfbfbf" points="141.7573,-400.5 235.853,-400.5 "/>
<text text-anchor="middle" x="188.8052" y="-388.5" font-family="Helvetica,sans-Serif" font-size="10.00" fill="#000000"> </text>
<polyline fill="none" stroke="#bfbfbf" points="141.7573,-382.5 235.853,-382.5 "/>
<text text-anchor="middle" x="188.8052" y="-370.5" font-family="Helvetica,sans-Serif" font-size="10.00" fill="#000000"> </text>
</a>
</g>
</g>
<!-- Node7&#45;&gt;Node6 -->
<g id="edge4" class="edge">
<title>Node7&#45;&gt;Node6</title>
<path fill="none" stroke="#191970" d="M188.8052,-354.2927C188.8052,-340.0159 188.8052,-324.4638 188.8052,-311.6713"/>
<polygon fill="none" stroke="#191970" points="185.3053,-354.4053 188.8052,-364.4053 192.3053,-354.4053 185.3053,-354.4053"/>
</g>
<!-- Node8&#45;&gt;Node3 -->
<g id="edge6" class="edge">
<title>Node8&#45;&gt;Node3</title>
<path fill="none" stroke="#404040" d="M299.0436,-116.3032C279.003,-100.1593 253.3944,-79.5302 231.9044,-62.2188"/>
<polygon fill="none" stroke="#404040" points="231.7003,-62.0544 224.5185,-61.4055 222.3553,-54.5265 229.5371,-55.1754 231.7003,-62.0544"/>
<text text-anchor="middle" x="284.2939" y="-75" font-family="Helvetica,sans-Serif" font-size="10.00" fill="#000000"> +credentials</text>
</g>
</g>
</svg>
