<?xml version="1.0" encoding="UTF-8" standalone="no"?>
<!DOCTYPE svg PUBLIC "-//W3C//DTD SVG 1.1//EN"
 "http://www.w3.org/Graphics/SVG/1.1/DTD/svg11.dtd">
<!-- Generated by graphviz version 2.40.1 (20161225.0304)
 -->
<!-- Title: cx::web::string_entity Pages: 1 -->
<svg width="158pt" height="336pt"
 viewBox="0.00 0.00 157.78 336.00" xmlns="http://www.w3.org/2000/svg" xmlns:xlink="http://www.w3.org/1999/xlink">
<g id="graph0" class="graph" transform="scale(1 1) rotate(0) translate(4 332)">
<title>cx::web::string_entity</title>
<!-- Node6 -->
<g id="node1" class="node">
<title>Node6</title>
<g id="a_node1"><a xlink:title=" ">
<polygon fill="#bfbfbf" stroke="#000000" points=".0469,-.5 .0469,-124.5 109.4209,-124.5 109.4209,-.5 .0469,-.5"/>
<text text-anchor="middle" x="54.7339" y="-112.5" font-family="Helvetica,sans-Serif" font-size="10.00" fill="#000000">cx::web::string_entity</text>
<polyline fill="none" stroke="#000000" points=".0469,-106.5 109.4209,-106.5 "/>
<text text-anchor="start" x="8.0469" y="-94.5" font-family="Helvetica,sans-Serif" font-size="10.00" fill="#000000">+ error_reason</text>
<text text-anchor="start" x="8.0469" y="-84.5" font-family="Helvetica,sans-Serif" font-size="10.00" fill="#000000">+ status</text>
<polyline fill="none" stroke="#000000" points=".0469,-78.5 109.4209,-78.5 "/>
<text text-anchor="start" x="8.0469" y="-66.5" font-family="Helvetica,sans-Serif" font-size="10.00" fill="#000000">+ string_entity()</text>
<text text-anchor="start" x="8.0469" y="-56.5" font-family="Helvetica,sans-Serif" font-size="10.00" fill="#000000">+ string_entity()</text>
<text text-anchor="start" x="8.0469" y="-46.5" font-family="Helvetica,sans-Serif" font-size="10.00" fill="#000000">+ copy_from()</text>
<text text-anchor="start" x="8.0469" y="-36.5" font-family="Helvetica,sans-Serif" font-size="10.00" fill="#000000">+ valid()</text>
<text text-anchor="start" x="8.0469" y="-26.5" font-family="Helvetica,sans-Serif" font-size="10.00" fill="#000000">+ update()</text>
<text text-anchor="start" x="8.0469" y="-16.5" font-family="Helvetica,sans-Serif" font-size="10.00" fill="#000000">+ get_string()</text>
<text text-anchor="start" x="8.0469" y="-6.5" font-family="Helvetica,sans-Serif" font-size="10.00" fill="#000000">+ printOn()</text>
</a>
</g>
</g>
<!-- Node7 -->
<g id="node2" class="node">
<title>Node7</title>
<g id="a_node2"><a xlink:title=" ">
<polygon fill="none" stroke="#bfbfbf" points="0,-171.5 0,-225.5 55.4678,-225.5 55.4678,-171.5 0,-171.5"/>
<text text-anchor="middle" x="27.7339" y="-213.5" font-family="Helvetica,sans-Serif" font-size="10.00" fill="#000000">Printable</text>
<polyline fill="none" stroke="#bfbfbf" points="0,-207.5 55.4678,-207.5 "/>
<text text-anchor="middle" x="27.7339" y="-195.5" font-family="Helvetica,sans-Serif" font-size="10.00" fill="#000000"> </text>
<polyline fill="none" stroke="#bfbfbf" points="0,-189.5 55.4678,-189.5 "/>
<text text-anchor="middle" x="27.7339" y="-177.5" font-family="Helvetica,sans-Serif" font-size="10.00" fill="#000000"> </text>
</a>
</g>
</g>
<!-- Node7&#45;&gt;Node6 -->
<g id="edge1" class="edge">
<title>Node7&#45;&gt;Node6</title>
<path fill="none" stroke="#191970" d="M35.1169,-161.3113C37.3769,-149.9276 39.927,-137.0829 42.4224,-124.5132"/>
<polygon fill="none" stroke="#191970" points="31.6472,-160.8151 33.1328,-171.3052 38.5132,-162.1782 31.6472,-160.8151"/>
</g>
<!-- Node8 -->
<g id="node3" class="node">
<title>Node8</title>
<g id="a_node3"><a xlink:title="STL class.">
<polygon fill="none" stroke="#bfbfbf" points="73.0591,-171.5 73.0591,-225.5 132.4087,-225.5 132.4087,-171.5 73.0591,-171.5"/>
<text text-anchor="middle" x="102.7339" y="-213.5" font-family="Helvetica,sans-Serif" font-size="10.00" fill="#000000">std::string</text>
<polyline fill="none" stroke="#bfbfbf" points="73.0591,-207.5 132.4087,-207.5 "/>
<text text-anchor="middle" x="102.7339" y="-195.5" font-family="Helvetica,sans-Serif" font-size="10.00" fill="#000000"> </text>
<polyline fill="none" stroke="#bfbfbf" points="73.0591,-189.5 132.4087,-189.5 "/>
<text text-anchor="middle" x="102.7339" y="-177.5" font-family="Helvetica,sans-Serif" font-size="10.00" fill="#000000"> </text>
</a>
</g>
</g>
<!-- Node8&#45;&gt;Node6 -->
<g id="edge2" class="edge">
<title>Node8&#45;&gt;Node6</title>
<path fill="none" stroke="#404040" d="M93.1357,-171.3052C89.4911,-160.9786 85.1432,-148.6597 80.7048,-136.0843"/>
<polygon fill="none" stroke="#404040" points="80.6148,-135.8291 74.8459,-131.5025 76.6209,-124.5132 82.3898,-128.8399 80.6148,-135.8291"/>
<text text-anchor="middle" x="106.4443" y="-145" font-family="Helvetica,sans-Serif" font-size="10.00" fill="#000000"> +content</text>
</g>
<!-- Node9 -->
<g id="node4" class="node">
<title>Node9</title>
<g id="a_node4"><a xlink:title="STL class.">
<polygon fill="none" stroke="#bfbfbf" points="55.686,-263.5 55.686,-327.5 149.7817,-327.5 149.7817,-263.5 55.686,-263.5"/>
<text text-anchor="start" x="63.686" y="-315.5" font-family="Helvetica,sans-Serif" font-size="10.00" fill="#000000">std::basic_string&lt;</text>
<text text-anchor="middle" x="102.7339" y="-305.5" font-family="Helvetica,sans-Serif" font-size="10.00" fill="#000000"> char &gt;</text>
<polyline fill="none" stroke="#bfbfbf" points="55.686,-299.5 149.7817,-299.5 "/>
<text text-anchor="middle" x="102.7339" y="-287.5" font-family="Helvetica,sans-Serif" font-size="10.00" fill="#000000"> </text>
<polyline fill="none" stroke="#bfbfbf" points="55.686,-281.5 149.7817,-281.5 "/>
<text text-anchor="middle" x="102.7339" y="-269.5" font-family="Helvetica,sans-Serif" font-size="10.00" fill="#000000"> </text>
</a>
</g>
</g>
<!-- Node9&#45;&gt;Node8 -->
<g id="edge3" class="edge">
<title>Node9&#45;&gt;Node8</title>
<path fill="none" stroke="#191970" d="M102.7339,-253.4397C102.7339,-244.0133 102.7339,-234.2564 102.7339,-225.6277"/>
<polygon fill="none" stroke="#191970" points="99.234,-253.4697 102.7339,-263.4697 106.234,-253.4698 99.234,-253.4697"/>
</g>
</g>
</svg>
