<?xml version="1.0" encoding="UTF-8" standalone="no"?>
<!DOCTYPE svg PUBLIC "-//W3C//DTD SVG 1.1//EN"
 "http://www.w3.org/Graphics/SVG/1.1/DTD/svg11.dtd">
<!-- Generated by graphviz version 2.40.1 (20161225.0304)
 -->
<!-- Title: fs::null_impl&lt; IActiveSpeakerNotificationsDelegate &gt; Pages: 1 -->
<svg width="164pt" height="406pt"
 viewBox="0.00 0.00 164.06 406.00" xmlns="http://www.w3.org/2000/svg" xmlns:xlink="http://www.w3.org/1999/xlink">
<g id="graph0" class="graph" transform="scale(1 1) rotate(0) translate(4 402)">
<title>fs::null_impl&lt; IActiveSpeakerNotificationsDelegate &gt;</title>
<!-- Node6 -->
<g id="node1" class="node">
<title>Node6</title>
<g id="a_node1"><a xlink:title=" ">
<polygon fill="#bfbfbf" stroke="#000000" points="5.6958,-.5 5.6958,-64.5 150.3677,-64.5 150.3677,-.5 5.6958,-.5"/>
<text text-anchor="start" x="13.6958" y="-52.5" font-family="Helvetica,sans-Serif" font-size="10.00" fill="#000000">fs::null_impl&lt; IActiveSpeaker</text>
<text text-anchor="middle" x="78.0317" y="-42.5" font-family="Helvetica,sans-Serif" font-size="10.00" fill="#000000">NotificationsDelegate &gt;</text>
<polyline fill="none" stroke="#000000" points="5.6958,-36.5 150.3677,-36.5 "/>
<text text-anchor="middle" x="78.0317" y="-24.5" font-family="Helvetica,sans-Serif" font-size="10.00" fill="#000000"> </text>
<polyline fill="none" stroke="#000000" points="5.6958,-18.5 150.3677,-18.5 "/>
<text text-anchor="middle" x="78.0317" y="-6.5" font-family="Helvetica,sans-Serif" font-size="10.00" fill="#000000"> </text>
</a>
</g>
</g>
<!-- Node7 -->
<g id="node2" class="node">
<title>Node7</title>
<g id="a_node2"><a xlink:href="classfs_1_1_active_speaker_notifications_null_delegate.html" target="_top" xlink:title=" ">
<polygon fill="none" stroke="#000000" points="3.8916,-101.5 3.8916,-175.5 152.1719,-175.5 152.1719,-101.5 3.8916,-101.5"/>
<text text-anchor="start" x="11.8916" y="-163.5" font-family="Helvetica,sans-Serif" font-size="10.00" fill="#000000">fs::ActiveSpeakerNotifications</text>
<text text-anchor="middle" x="78.0317" y="-153.5" font-family="Helvetica,sans-Serif" font-size="10.00" fill="#000000">NullDelegate</text>
<polyline fill="none" stroke="#000000" points="3.8916,-147.5 152.1719,-147.5 "/>
<text text-anchor="middle" x="78.0317" y="-135.5" font-family="Helvetica,sans-Serif" font-size="10.00" fill="#000000"> </text>
<polyline fill="none" stroke="#000000" points="3.8916,-129.5 152.1719,-129.5 "/>
<text text-anchor="start" x="11.8916" y="-117.5" font-family="Helvetica,sans-Serif" font-size="10.00" fill="#000000">+ EMPTY_METHOD()</text>
<text text-anchor="start" x="11.8916" y="-107.5" font-family="Helvetica,sans-Serif" font-size="10.00" fill="#000000">+ EMPTY_METHOD()</text>
</a>
</g>
</g>
<!-- Node7&#45;&gt;Node6 -->
<g id="edge1" class="edge">
<title>Node7&#45;&gt;Node6</title>
<path fill="none" stroke="#191970" d="M78.0317,-91.4211C78.0317,-82.4227 78.0317,-73.1937 78.0317,-64.7893"/>
<polygon fill="none" stroke="#191970" points="74.5318,-91.4263 78.0317,-101.4263 81.5318,-91.4264 74.5318,-91.4263"/>
</g>
<!-- Node8 -->
<g id="node3" class="node">
<title>Node8</title>
<g id="a_node3"><a xlink:href="classfs_1_1_i_active_speaker_notifications_delegate.html" target="_top" xlink:title=" ">
<polygon fill="none" stroke="#000000" points="1.9409,-212.5 1.9409,-286.5 154.1226,-286.5 154.1226,-212.5 1.9409,-212.5"/>
<text text-anchor="start" x="9.9409" y="-274.5" font-family="Helvetica,sans-Serif" font-size="10.00" fill="#000000">fs::IActiveSpeakerNotifications</text>
<text text-anchor="middle" x="78.0317" y="-264.5" font-family="Helvetica,sans-Serif" font-size="10.00" fill="#000000">Delegate</text>
<polyline fill="none" stroke="#000000" points="1.9409,-258.5 154.1226,-258.5 "/>
<text text-anchor="middle" x="78.0317" y="-246.5" font-family="Helvetica,sans-Serif" font-size="10.00" fill="#000000"> </text>
<polyline fill="none" stroke="#000000" points="1.9409,-240.5 154.1226,-240.5 "/>
<text text-anchor="start" x="9.9409" y="-228.5" font-family="Helvetica,sans-Serif" font-size="10.00" fill="#000000">+ ~IActiveSpeakerNotifications</text>
<text text-anchor="start" x="9.9409" y="-218.5" font-family="Helvetica,sans-Serif" font-size="10.00" fill="#000000">Delegate()</text>
</a>
</g>
</g>
<!-- Node8&#45;&gt;Node7 -->
<g id="edge2" class="edge">
<title>Node8&#45;&gt;Node7</title>
<path fill="none" stroke="#191970" d="M78.0317,-202.1104C78.0317,-193.336 78.0317,-184.2851 78.0317,-175.8608"/>
<polygon fill="none" stroke="#191970" points="74.5318,-202.2298 78.0317,-212.2298 81.5318,-202.2299 74.5318,-202.2298"/>
</g>
<!-- Node9 -->
<g id="node4" class="node">
<title>Node9</title>
<g id="a_node4"><a xlink:href="classfs_1_1_active_speaker_notifications.html" target="_top" xlink:title=" ">
<polygon fill="none" stroke="#000000" points="0,-323.5 0,-397.5 156.0635,-397.5 156.0635,-323.5 0,-323.5"/>
<text text-anchor="middle" x="78.0317" y="-385.5" font-family="Helvetica,sans-Serif" font-size="10.00" fill="#000000">fs::ActiveSpeakerNotifications</text>
<polyline fill="none" stroke="#000000" points="0,-379.5 156.0635,-379.5 "/>
<text text-anchor="middle" x="78.0317" y="-367.5" font-family="Helvetica,sans-Serif" font-size="10.00" fill="#000000"> </text>
<polyline fill="none" stroke="#000000" points="0,-361.5 156.0635,-361.5 "/>
<text text-anchor="start" x="8" y="-349.5" font-family="Helvetica,sans-Serif" font-size="10.00" fill="#000000">+ ~ActiveSpeakerNotifications()</text>
<text text-anchor="start" x="8" y="-339.5" font-family="Helvetica,sans-Serif" font-size="10.00" fill="#000000">+ ABSTRACT_METHOD()</text>
<text text-anchor="start" x="8" y="-329.5" font-family="Helvetica,sans-Serif" font-size="10.00" fill="#000000">+ ABSTRACT_METHOD()</text>
</a>
</g>
</g>
<!-- Node9&#45;&gt;Node8 -->
<g id="edge3" class="edge">
<title>Node9&#45;&gt;Node8</title>
<path fill="none" stroke="#191970" d="M78.0317,-313.1104C78.0317,-304.336 78.0317,-295.2851 78.0317,-286.8608"/>
<polygon fill="none" stroke="#191970" points="74.5318,-313.2298 78.0317,-323.2298 81.5318,-313.2299 74.5318,-313.2298"/>
</g>
</g>
</svg>
