<?xml version="1.0" encoding="UTF-8" standalone="no"?>
<!DOCTYPE svg PUBLIC "-//W3C//DTD SVG 1.1//EN"
 "http://www.w3.org/Graphics/SVG/1.1/DTD/svg11.dtd">
<!-- Generated by graphviz version 2.40.1 (20161225.0304)
 -->
<!-- Title: fs::null_impl&lt; I &gt; Pages: 1 -->
<svg width="97pt" height="154pt"
 viewBox="0.00 0.00 96.81 154.00" xmlns="http://www.w3.org/2000/svg" xmlns:xlink="http://www.w3.org/1999/xlink">
<g id="graph0" class="graph" transform="scale(1 1) rotate(0) translate(4 150)">
<title>fs::null_impl&lt; I &gt;</title>
<!-- Node0 -->
<g id="node1" class="node">
<title>Node0</title>
<g id="a_node1"><a xlink:title=" ">
<polygon fill="#bfbfbf" stroke="#000000" points="0,-.5 0,-54.5 88.8125,-54.5 88.8125,-.5 0,-.5"/>
<text text-anchor="middle" x="44.4063" y="-42.5" font-family="Helvetica,sans-Serif" font-size="10.00" fill="#000000">fs::null_impl&lt; I &gt;</text>
<polyline fill="none" stroke="#000000" points="0,-36.5 88.8125,-36.5 "/>
<text text-anchor="middle" x="44.4063" y="-24.5" font-family="Helvetica,sans-Serif" font-size="10.00" fill="#000000"> </text>
<polyline fill="none" stroke="#000000" points="0,-18.5 88.8125,-18.5 "/>
<text text-anchor="middle" x="44.4063" y="-6.5" font-family="Helvetica,sans-Serif" font-size="10.00" fill="#000000"> </text>
</a>
</g>
</g>
<!-- Node1 -->
<g id="node2" class="node">
<title>Node1</title>
<g id="a_node2"><a xlink:title=" ">
<polygon fill="none" stroke="#bfbfbf" points="29.9063,-91.5 29.9063,-145.5 58.9063,-145.5 58.9063,-91.5 29.9063,-91.5"/>
<text text-anchor="middle" x="44.2954" y="-133.5" font-family="Helvetica,sans-Serif" font-size="10.00" fill="#000000">I</text>
<polyline fill="none" stroke="#bfbfbf" points="29.9063,-127.5 58.6846,-127.5 "/>
<text text-anchor="middle" x="44.2954" y="-115.5" font-family="Helvetica,sans-Serif" font-size="10.00" fill="#000000"> </text>
<polyline fill="none" stroke="#bfbfbf" points="29.9063,-109.5 58.6846,-109.5 "/>
<text text-anchor="middle" x="44.2954" y="-97.5" font-family="Helvetica,sans-Serif" font-size="10.00" fill="#000000"> </text>
</a>
</g>
</g>
<!-- Node1&#45;&gt;Node0 -->
<g id="edge1" class="edge">
<title>Node1&#45;&gt;Node0</title>
<path fill="none" stroke="#191970" d="M44.4063,-81.12C44.4063,-72.3006 44.4063,-63.0605 44.4063,-54.7837"/>
<polygon fill="none" stroke="#191970" points="40.9063,-81.197 44.4063,-91.197 47.9063,-81.197 40.9063,-81.197"/>
</g>
</g>
</svg>
