<?xml version="1.0" encoding="UTF-8" standalone="no"?>
<!DOCTYPE svg PUBLIC "-//W3C//DTD SVG 1.1//EN"
 "http://www.w3.org/Graphics/SVG/1.1/DTD/svg11.dtd">
<!-- Generated by graphviz version 2.40.1 (20161225.0304)
 -->
<!-- Title: cx::web::Credentials Pages: 1 -->
<svg width="114pt" height="276pt"
 viewBox="0.00 0.00 114.04 276.00" xmlns="http://www.w3.org/2000/svg" xmlns:xlink="http://www.w3.org/1999/xlink">
<g id="graph0" class="graph" transform="scale(1 1) rotate(0) translate(4 272)">
<title>cx::web::Credentials</title>
<!-- Node1 -->
<g id="node1" class="node">
<title>Node1</title>
<g id="a_node1"><a xlink:title=" ">
<polygon fill="#bfbfbf" stroke="#000000" points="0,-.5 0,-54.5 106.0391,-54.5 106.0391,-.5 0,-.5"/>
<text text-anchor="middle" x="53.0195" y="-42.5" font-family="Helvetica,sans-Serif" font-size="10.00" fill="#000000">cx::web::Credentials</text>
<polyline fill="none" stroke="#000000" points="0,-36.5 106.0391,-36.5 "/>
<text text-anchor="middle" x="53.0195" y="-24.5" font-family="Helvetica,sans-Serif" font-size="10.00" fill="#000000"> </text>
<polyline fill="none" stroke="#000000" points="0,-18.5 106.0391,-18.5 "/>
<text text-anchor="start" x="8" y="-6.5" font-family="Helvetica,sans-Serif" font-size="10.00" fill="#000000">+ valid()</text>
</a>
</g>
</g>
<!-- Node2 -->
<g id="node2" class="node">
<title>Node2</title>
<g id="a_node2"><a xlink:title="STL class.">
<polygon fill="none" stroke="#bfbfbf" points="23.3447,-111.5 23.3447,-165.5 82.6943,-165.5 82.6943,-111.5 23.3447,-111.5"/>
<text text-anchor="middle" x="53.0195" y="-153.5" font-family="Helvetica,sans-Serif" font-size="10.00" fill="#000000">std::string</text>
<polyline fill="none" stroke="#bfbfbf" points="23.3447,-147.5 82.6943,-147.5 "/>
<text text-anchor="middle" x="53.0195" y="-135.5" font-family="Helvetica,sans-Serif" font-size="10.00" fill="#000000"> </text>
<polyline fill="none" stroke="#bfbfbf" points="23.3447,-129.5 82.6943,-129.5 "/>
<text text-anchor="middle" x="53.0195" y="-117.5" font-family="Helvetica,sans-Serif" font-size="10.00" fill="#000000"> </text>
</a>
</g>
</g>
<!-- Node2&#45;&gt;Node1 -->
<g id="edge1" class="edge">
<title>Node2&#45;&gt;Node1</title>
<path fill="none" stroke="#404040" d="M53.0195,-111.3463C53.0195,-98.0425 53.0195,-81.7683 53.0195,-67.1092"/>
<polygon fill="none" stroke="#404040" points="53.0196,-66.758 49.0196,-60.7581 53.0195,-54.758 57.0196,-60.758 53.0196,-66.758"/>
<text text-anchor="middle" x="78.7275" y="-85" font-family="Helvetica,sans-Serif" font-size="10.00" fill="#000000"> +password</text>
<text text-anchor="middle" x="78.7275" y="-75" font-family="Helvetica,sans-Serif" font-size="10.00" fill="#000000">+login</text>
</g>
<!-- Node3 -->
<g id="node3" class="node">
<title>Node3</title>
<g id="a_node3"><a xlink:title="STL class.">
<polygon fill="none" stroke="#bfbfbf" points="5.9717,-203.5 5.9717,-267.5 100.0674,-267.5 100.0674,-203.5 5.9717,-203.5"/>
<text text-anchor="start" x="13.9717" y="-255.5" font-family="Helvetica,sans-Serif" font-size="10.00" fill="#000000">std::basic_string&lt;</text>
<text text-anchor="middle" x="53.0195" y="-245.5" font-family="Helvetica,sans-Serif" font-size="10.00" fill="#000000"> char &gt;</text>
<polyline fill="none" stroke="#bfbfbf" points="5.9717,-239.5 100.0674,-239.5 "/>
<text text-anchor="middle" x="53.0195" y="-227.5" font-family="Helvetica,sans-Serif" font-size="10.00" fill="#000000"> </text>
<polyline fill="none" stroke="#bfbfbf" points="5.9717,-221.5 100.0674,-221.5 "/>
<text text-anchor="middle" x="53.0195" y="-209.5" font-family="Helvetica,sans-Serif" font-size="10.00" fill="#000000"> </text>
</a>
</g>
</g>
<!-- Node3&#45;&gt;Node2 -->
<g id="edge2" class="edge">
<title>Node3&#45;&gt;Node2</title>
<path fill="none" stroke="#191970" d="M53.0195,-193.4397C53.0195,-184.0133 53.0195,-174.2564 53.0195,-165.6277"/>
<polygon fill="none" stroke="#191970" points="49.5196,-193.4697 53.0195,-203.4697 56.5196,-193.4698 49.5196,-193.4697"/>
</g>
</g>
</svg>
