<?xml version="1.0" encoding="UTF-8" standalone="no"?>
<!DOCTYPE svg PUBLIC "-//W3C//DTD SVG 1.1//EN"
 "http://www.w3.org/Graphics/SVG/1.1/DTD/svg11.dtd">
<!-- Generated by graphviz version 2.40.1 (20161225.0304)
 -->
<!-- Title: fs::CountryCallingCode Pages: 1 -->
<svg width="166pt" height="276pt"
 viewBox="0.00 0.00 166.50 276.00" xmlns="http://www.w3.org/2000/svg" xmlns:xlink="http://www.w3.org/1999/xlink">
<g id="graph0" class="graph" transform="scale(1 1) rotate(0) translate(4 272)">
<title>fs::CountryCallingCode</title>
<!-- Node1 -->
<g id="node1" class="node">
<title>Node1</title>
<g id="a_node1"><a xlink:title=" ">
<polygon fill="#bfbfbf" stroke="#000000" points="0,-.5 0,-54.5 120.7705,-54.5 120.7705,-.5 0,-.5"/>
<text text-anchor="middle" x="60.3853" y="-42.5" font-family="Helvetica,sans-Serif" font-size="10.00" fill="#000000">fs::CountryCallingCode</text>
<polyline fill="none" stroke="#000000" points="0,-36.5 120.7705,-36.5 "/>
<text text-anchor="start" x="8" y="-24.5" font-family="Helvetica,sans-Serif" font-size="10.00" fill="#000000">+ m_callingCode</text>
<polyline fill="none" stroke="#000000" points="0,-18.5 120.7705,-18.5 "/>
<text text-anchor="start" x="8" y="-6.5" font-family="Helvetica,sans-Serif" font-size="10.00" fill="#000000">+ CountryCallingCode()</text>
</a>
</g>
</g>
<!-- Node2 -->
<g id="node2" class="node">
<title>Node2</title>
<g id="a_node2"><a xlink:title="STL class.">
<polygon fill="none" stroke="#bfbfbf" points="30.7104,-111.5 30.7104,-165.5 90.0601,-165.5 90.0601,-111.5 30.7104,-111.5"/>
<text text-anchor="middle" x="60.3853" y="-153.5" font-family="Helvetica,sans-Serif" font-size="10.00" fill="#000000">std::string</text>
<polyline fill="none" stroke="#bfbfbf" points="30.7104,-147.5 90.0601,-147.5 "/>
<text text-anchor="middle" x="60.3853" y="-135.5" font-family="Helvetica,sans-Serif" font-size="10.00" fill="#000000"> </text>
<polyline fill="none" stroke="#bfbfbf" points="30.7104,-129.5 90.0601,-129.5 "/>
<text text-anchor="middle" x="60.3853" y="-117.5" font-family="Helvetica,sans-Serif" font-size="10.00" fill="#000000"> </text>
</a>
</g>
</g>
<!-- Node2&#45;&gt;Node1 -->
<g id="edge1" class="edge">
<title>Node2&#45;&gt;Node1</title>
<path fill="none" stroke="#404040" d="M60.3853,-111.3463C60.3853,-98.0425 60.3853,-81.7683 60.3853,-67.1092"/>
<polygon fill="none" stroke="#404040" points="60.3854,-66.758 56.3853,-60.7581 60.3853,-54.758 64.3853,-60.758 60.3854,-66.758"/>
<text text-anchor="middle" x="109.4404" y="-85" font-family="Helvetica,sans-Serif" font-size="10.00" fill="#000000"> +m_countryIso2Code</text>
<text text-anchor="middle" x="109.4404" y="-75" font-family="Helvetica,sans-Serif" font-size="10.00" fill="#000000">+m_countryIso3Code</text>
</g>
<!-- Node3 -->
<g id="node3" class="node">
<title>Node3</title>
<g id="a_node3"><a xlink:title="STL class.">
<polygon fill="none" stroke="#bfbfbf" points="13.3374,-203.5 13.3374,-267.5 107.4331,-267.5 107.4331,-203.5 13.3374,-203.5"/>
<text text-anchor="start" x="21.3374" y="-255.5" font-family="Helvetica,sans-Serif" font-size="10.00" fill="#000000">std::basic_string&lt;</text>
<text text-anchor="middle" x="60.3853" y="-245.5" font-family="Helvetica,sans-Serif" font-size="10.00" fill="#000000"> char &gt;</text>
<polyline fill="none" stroke="#bfbfbf" points="13.3374,-239.5 107.4331,-239.5 "/>
<text text-anchor="middle" x="60.3853" y="-227.5" font-family="Helvetica,sans-Serif" font-size="10.00" fill="#000000"> </text>
<polyline fill="none" stroke="#bfbfbf" points="13.3374,-221.5 107.4331,-221.5 "/>
<text text-anchor="middle" x="60.3853" y="-209.5" font-family="Helvetica,sans-Serif" font-size="10.00" fill="#000000"> </text>
</a>
</g>
</g>
<!-- Node3&#45;&gt;Node2 -->
<g id="edge2" class="edge">
<title>Node3&#45;&gt;Node2</title>
<path fill="none" stroke="#191970" d="M60.3853,-193.4397C60.3853,-184.0133 60.3853,-174.2564 60.3853,-165.6277"/>
<polygon fill="none" stroke="#191970" points="56.8854,-193.4697 60.3853,-203.4697 63.8854,-193.4698 56.8854,-193.4697"/>
</g>
</g>
</svg>
