<?xml version="1.0" encoding="UTF-8" standalone="no"?>
<!DOCTYPE svg PUBLIC "-//W3C//DTD SVG 1.1//EN"
 "http://www.w3.org/Graphics/SVG/1.1/DTD/svg11.dtd">
<!-- Generated by graphviz version 2.40.1 (20161225.0304)
 -->
<!-- Title: fs::MeetingSessionParameters Pages: 1 -->
<!--zoomable 811 -->
<svg id="main" version="1.1" xmlns="http://www.w3.org/2000/svg" xmlns:xlink="http://www.w3.org/1999/xlink" xml:space="preserve" onload="init(evt)">
<style type="text/css"><![CDATA[
.edge:hover path { stroke: red; }
.edge:hover polygon { stroke: red; fill: red; }
]]></style>
<script type="text/javascript"><![CDATA[
var edges = document.getElementsByTagName('g');
if (edges && edges.length) {
  for (var i=0;i<edges.length;i++) {
    if (edges[i].id.substr(0,4)=='edge') {
      edges[i].setAttribute('class','edge');
    }
  }
}
]]></script>
        <defs>
                <circle id="rim" cx="0" cy="0" r="7"/>
                <circle id="rim2" cx="0" cy="0" r="3.5"/>
                <g id="zoomPlus">
                        <use xlink:href="#rim" fill="#404040">
                                <set attributeName="fill" to="#808080" begin="zoomplus.mouseover" end="zoomplus.mouseout"/>
                        </use>
                        <path d="M-4,0h8M0,-4v8" fill="none" stroke="white" stroke-width="1.5" pointer-events="none"/>
                </g>
                <g id="zoomMin">
                        <use xlink:href="#rim" fill="#404040">
                                <set attributeName="fill" to="#808080" begin="zoomminus.mouseover" end="zoomminus.mouseout"/>
                        </use>
                        <path d="M-4,0h8" fill="none" stroke="white" stroke-width="1.5" pointer-events="none"/>
                </g>
                <g id="dirArrow">
                        <path fill="none" stroke="white" stroke-width="1.5" d="M0,-3.0v7 M-2.5,-0.5L0,-3.0L2.5,-0.5"/>
                </g>
               <g id="resetDef">
                       <use xlink:href="#rim2" fill="#404040">
                               <set attributeName="fill" to="#808080" begin="reset.mouseover" end="reset.mouseout"/>
                       </use>
               </g>
        </defs>

<script type="text/javascript">
var viewWidth = 475;
var viewHeight = 811;
var sectionId = 'dynsection-1';
</script>
<script xlink:href="svgpan.js"/>
<svg id="graph" class="graph">
<g id="viewport">
<title>fs::MeetingSessionParameters</title>
<!-- Node2 -->
<g id="node1" class="node">
<title>Node2</title>
<g id="a_node1"><a xlink:title=" ">
<polygon fill="#bfbfbf" stroke="#000000" points="99.4629,-.5 99.4629,-174.5 253.5781,-174.5 253.5781,-.5 99.4629,-.5"/>
<text text-anchor="middle" x="176.5205" y="-162.5" font-family="Helvetica,sans-Serif" font-size="10.00" fill="#000000">fs::MeetingSessionParameters</text>
<polyline fill="none" stroke="#000000" points="99.4629,-156.5 253.5781,-156.5 "/>
<text text-anchor="start" x="107.4629" y="-144.5" font-family="Helvetica,sans-Serif" font-size="10.00" fill="#000000">+ isModerator</text>
<text text-anchor="start" x="107.4629" y="-134.5" font-family="Helvetica,sans-Serif" font-size="10.00" fill="#000000">+ enableWelcomePrompt</text>
<text text-anchor="start" x="107.4629" y="-124.5" font-family="Helvetica,sans-Serif" font-size="10.00" fill="#000000">+ isPresenter</text>
<text text-anchor="start" x="107.4629" y="-114.5" font-family="Helvetica,sans-Serif" font-size="10.00" fill="#000000">+ enableRingingMode</text>
<text text-anchor="start" x="107.4629" y="-104.5" font-family="Helvetica,sans-Serif" font-size="10.00" fill="#000000">+ chatEnabled</text>
<text text-anchor="start" x="107.4629" y="-94.5" font-family="Helvetica,sans-Serif" font-size="10.00" fill="#000000">+ sessionKey</text>
<text text-anchor="start" x="107.4629" y="-84.5" font-family="Helvetica,sans-Serif" font-size="10.00" fill="#000000">+ media</text>
<polyline fill="none" stroke="#000000" points="99.4629,-78.5 253.5781,-78.5 "/>
<text text-anchor="start" x="107.4629" y="-66.5" font-family="Helvetica,sans-Serif" font-size="10.00" fill="#000000">+ MeetingSessionParameters()</text>
<text text-anchor="start" x="107.4629" y="-56.5" font-family="Helvetica,sans-Serif" font-size="10.00" fill="#000000">+ MeetingSessionParameters()</text>
<text text-anchor="start" x="107.4629" y="-46.5" font-family="Helvetica,sans-Serif" font-size="10.00" fill="#000000">+ operator=()</text>
<text text-anchor="start" x="107.4629" y="-36.5" font-family="Helvetica,sans-Serif" font-size="10.00" fill="#000000">+ operator==()</text>
<text text-anchor="start" x="107.4629" y="-26.5" font-family="Helvetica,sans-Serif" font-size="10.00" fill="#000000">+ areValidForStart()</text>
<text text-anchor="start" x="107.4629" y="-16.5" font-family="Helvetica,sans-Serif" font-size="10.00" fill="#000000">+ serialize()</text>
<text text-anchor="start" x="107.4629" y="-6.5" font-family="Helvetica,sans-Serif" font-size="10.00" fill="#000000">+ printOn()</text>
</a>
</g>
</g>
<!-- Node3 -->
<g id="node2" class="node">
<title>Node3</title>
<g id="a_node2"><a xlink:title=" ">
<polygon fill="none" stroke="#bfbfbf" points="30.7866,-226.5 30.7866,-280.5 86.2544,-280.5 86.2544,-226.5 30.7866,-226.5"/>
<text text-anchor="middle" x="58.5205" y="-268.5" font-family="Helvetica,sans-Serif" font-size="10.00" fill="#000000">Printable</text>
<polyline fill="none" stroke="#bfbfbf" points="30.7866,-262.5 86.2544,-262.5 "/>
<text text-anchor="middle" x="58.5205" y="-250.5" font-family="Helvetica,sans-Serif" font-size="10.00" fill="#000000"> </text>
<polyline fill="none" stroke="#bfbfbf" points="30.7866,-244.5 86.2544,-244.5 "/>
<text text-anchor="middle" x="58.5205" y="-232.5" font-family="Helvetica,sans-Serif" font-size="10.00" fill="#000000"> </text>
</a>
</g>
</g>
<!-- Node3&#45;&gt;Node2 -->
<g id="edge1" class="edge">
<title>Node3&#45;&gt;Node2</title>
<path fill="none" stroke="#191970" d="M83.7667,-217.9841C92.8682,-205.1804 103.5844,-190.105 114.4401,-174.8334"/>
<polygon fill="none" stroke="#191970" points="80.683,-216.2813 77.7419,-226.4598 86.3884,-220.337 80.683,-216.2813"/>
</g>
<!-- Node4 -->
<g id="node3" class="node">
<title>Node4</title>
<g id="a_node3"><a xlink:href="struct_meeting_id.html" target="_top" xlink:title=" ">
<polygon fill="none" stroke="#000000" points="104.0859,-221.5 104.0859,-285.5 180.9551,-285.5 180.9551,-221.5 104.0859,-221.5"/>
<text text-anchor="middle" x="142.5205" y="-273.5" font-family="Helvetica,sans-Serif" font-size="10.00" fill="#000000">MeetingId</text>
<polyline fill="none" stroke="#000000" points="104.0859,-267.5 180.9551,-267.5 "/>
<text text-anchor="middle" x="142.5205" y="-255.5" font-family="Helvetica,sans-Serif" font-size="10.00" fill="#000000"> </text>
<polyline fill="none" stroke="#000000" points="104.0859,-249.5 180.9551,-249.5 "/>
<text text-anchor="start" x="112.0859" y="-237.5" font-family="Helvetica,sans-Serif" font-size="10.00" fill="#000000">+ is_empty()</text>
<text text-anchor="start" x="112.0859" y="-227.5" font-family="Helvetica,sans-Serif" font-size="10.00" fill="#000000">+ is_defined()</text>
</a>
</g>
</g>
<!-- Node4&#45;&gt;Node2 -->
<g id="edge2" class="edge">
<title>Node4&#45;&gt;Node2</title>
<path fill="none" stroke="#404040" d="M141.6629,-221.3216C141.8597,-212.1257 142.498,-202.1252 143.9863,-193 144.3411,-190.8245 144.7297,-188.6316 145.1484,-186.4272"/>
<polygon fill="none" stroke="#404040" points="145.1743,-186.3041 142.4993,-179.6075 147.652,-174.5627 150.327,-181.2593 145.1743,-186.3041"/>
<text text-anchor="middle" x="170.7876" y="-195" font-family="Helvetica,sans-Serif" font-size="10.00" fill="#000000"> +meetingId</text>
</g>
<!-- Node5 -->
<g id="node4" class="node">
<title>Node5</title>
<g id="a_node4"><a xlink:href="struct_strong_identity.html" target="_top" xlink:title=" ">
<polygon fill="none" stroke="#000000" points="41.0122,-323.5 41.0122,-417.5 174.0288,-417.5 174.0288,-323.5 41.0122,-323.5"/>
<text text-anchor="start" x="49.0122" y="-405.5" font-family="Helvetica,sans-Serif" font-size="10.00" fill="#000000">StrongIdentity&lt; MeetingId,</text>
<text text-anchor="middle" x="107.5205" y="-395.5" font-family="Helvetica,sans-Serif" font-size="10.00" fill="#000000"> String &gt;</text>
<polyline fill="none" stroke="#000000" points="41.0122,-389.5 174.0288,-389.5 "/>
<text text-anchor="middle" x="107.5205" y="-377.5" font-family="Helvetica,sans-Serif" font-size="10.00" fill="#000000"> </text>
<polyline fill="none" stroke="#000000" points="41.0122,-371.5 174.0288,-371.5 "/>
<text text-anchor="start" x="49.0122" y="-359.5" font-family="Helvetica,sans-Serif" font-size="10.00" fill="#000000">+ get_value()</text>
<text text-anchor="start" x="49.0122" y="-349.5" font-family="Helvetica,sans-Serif" font-size="10.00" fill="#000000">+ get_value()</text>
<text text-anchor="start" x="49.0122" y="-339.5" font-family="Helvetica,sans-Serif" font-size="10.00" fill="#000000">+ is_empty()</text>
<text text-anchor="start" x="49.0122" y="-329.5" font-family="Helvetica,sans-Serif" font-size="10.00" fill="#000000">+ is_defined()</text>
</a>
</g>
</g>
<!-- Node5&#45;&gt;Node4 -->
<g id="edge3" class="edge">
<title>Node5&#45;&gt;Node4</title>
<path fill="none" stroke="#191970" d="M124.5307,-313.6374C127.4236,-303.9667 130.3344,-294.2364 132.9465,-285.5046"/>
<polygon fill="none" stroke="#191970" points="121.1683,-312.6652 121.6555,-323.2489 127.8747,-314.6715 121.1683,-312.6652"/>
</g>
<!-- Node6 -->
<g id="node5" class="node">
<title>Node6</title>
<g id="a_node5"><a xlink:href="structdetails_1_1strong__typedef.html" target="_top" xlink:title=" ">
<polygon fill="none" stroke="#000000" points="40.7437,-455.5 40.7437,-579.5 174.2974,-579.5 174.2974,-455.5 40.7437,-455.5"/>
<text text-anchor="start" x="48.7437" y="-567.5" font-family="Helvetica,sans-Serif" font-size="10.00" fill="#000000">details::strong_typedef</text>
<text text-anchor="middle" x="107.5205" y="-557.5" font-family="Helvetica,sans-Serif" font-size="10.00" fill="#000000">&lt; MeetingId, String &gt;</text>
<polyline fill="none" stroke="#000000" points="40.7437,-551.5 174.2974,-551.5 "/>
<text text-anchor="middle" x="107.5205" y="-539.5" font-family="Helvetica,sans-Serif" font-size="10.00" fill="#000000"> </text>
<polyline fill="none" stroke="#000000" points="40.7437,-533.5 174.2974,-533.5 "/>
<text text-anchor="start" x="48.7437" y="-521.5" font-family="Helvetica,sans-Serif" font-size="10.00" fill="#000000">+ strong_typedef()</text>
<text text-anchor="start" x="48.7437" y="-511.5" font-family="Helvetica,sans-Serif" font-size="10.00" fill="#000000">+ strong_typedef()</text>
<text text-anchor="start" x="48.7437" y="-501.5" font-family="Helvetica,sans-Serif" font-size="10.00" fill="#000000">+ strong_typedef()</text>
<text text-anchor="start" x="48.7437" y="-491.5" font-family="Helvetica,sans-Serif" font-size="10.00" fill="#000000">+ operator const String &amp;()</text>
<text text-anchor="start" x="48.7437" y="-481.5" font-family="Helvetica,sans-Serif" font-size="10.00" fill="#000000">+ operator String &amp;()</text>
<text text-anchor="start" x="48.7437" y="-471.5" font-family="Helvetica,sans-Serif" font-size="10.00" fill="#000000">+ operator==()</text>
<text text-anchor="start" x="48.7437" y="-461.5" font-family="Helvetica,sans-Serif" font-size="10.00" fill="#000000">+ operator&lt;()</text>
</a>
</g>
</g>
<!-- Node6&#45;&gt;Node5 -->
<g id="edge4" class="edge">
<title>Node6&#45;&gt;Node5</title>
<path fill="none" stroke="#191970" d="M107.5205,-445.1162C107.5205,-435.8267 107.5205,-426.5135 107.5205,-417.7702"/>
<polygon fill="none" stroke="#191970" points="104.0206,-445.1587 107.5205,-455.1588 111.0206,-445.1588 104.0206,-445.1587"/>
</g>
<!-- Node7 -->
<g id="node6" class="node">
<title>Node7</title>
<g id="a_node6"><a xlink:title=" ">
<polygon fill="none" stroke="#bfbfbf" points="0,-626.5 0,-700.5 163.041,-700.5 163.041,-626.5 0,-626.5"/>
<text text-anchor="start" x="8" y="-688.5" font-family="Helvetica,sans-Serif" font-size="10.00" fill="#000000">boost::totally_ordered1</text>
<text text-anchor="start" x="8" y="-678.5" font-family="Helvetica,sans-Serif" font-size="10.00" fill="#000000">&lt; MeetingId, boost::totally</text>
<text text-anchor="middle" x="81.5205" y="-668.5" font-family="Helvetica,sans-Serif" font-size="10.00" fill="#000000">_ordered2&lt; MeetingId, String &gt; &gt;</text>
<polyline fill="none" stroke="#bfbfbf" points="0,-662.5 163.041,-662.5 "/>
<text text-anchor="middle" x="81.5205" y="-650.5" font-family="Helvetica,sans-Serif" font-size="10.00" fill="#000000"> </text>
<polyline fill="none" stroke="#bfbfbf" points="0,-644.5 163.041,-644.5 "/>
<text text-anchor="middle" x="81.5205" y="-632.5" font-family="Helvetica,sans-Serif" font-size="10.00" fill="#000000"> </text>
</a>
</g>
</g>
<!-- Node7&#45;&gt;Node6 -->
<g id="edge5" class="edge">
<title>Node7&#45;&gt;Node6</title>
<path fill="none" stroke="#191970" d="M89.926,-616.3001C92.0086,-604.6052 94.2718,-591.8965 96.46,-579.609"/>
<polygon fill="none" stroke="#191970" points="86.4562,-615.8215 88.1487,-626.2803 93.3478,-617.0488 86.4562,-615.8215"/>
</g>
<!-- Node8 -->
<g id="node7" class="node">
<title>Node8</title>
<g id="a_node7"><a xlink:title="STL class.">
<polygon fill="none" stroke="#bfbfbf" points="180.8457,-636.5 180.8457,-690.5 240.1953,-690.5 240.1953,-636.5 180.8457,-636.5"/>
<text text-anchor="middle" x="210.5205" y="-678.5" font-family="Helvetica,sans-Serif" font-size="10.00" fill="#000000">std::string</text>
<polyline fill="none" stroke="#bfbfbf" points="180.8457,-672.5 240.1953,-672.5 "/>
<text text-anchor="middle" x="210.5205" y="-660.5" font-family="Helvetica,sans-Serif" font-size="10.00" fill="#000000"> </text>
<polyline fill="none" stroke="#bfbfbf" points="180.8457,-654.5 240.1953,-654.5 "/>
<text text-anchor="middle" x="210.5205" y="-642.5" font-family="Helvetica,sans-Serif" font-size="10.00" fill="#000000"> </text>
</a>
</g>
</g>
<!-- Node8&#45;&gt;Node2 -->
<g id="edge8" class="edge">
<title>Node8&#45;&gt;Node2</title>
<path fill="none" stroke="#404040" d="M210.5205,-636.3225C210.5205,-607.0025 210.5205,-558.9427 210.5205,-517.5 210.5205,-517.5 210.5205,-517.5 210.5205,-253.5 210.5205,-231.6573 207.6603,-208.5208 203.5991,-186.6783"/>
<polygon fill="none" stroke="#404040" points="203.5571,-186.4654 198.4694,-181.355 201.2299,-174.6932 206.3175,-179.8035 203.5571,-186.4654"/>
<text text-anchor="middle" x="248.7334" y="-402.5" font-family="Helvetica,sans-Serif" font-size="10.00" fill="#000000"> +remoteAddress</text>
<text text-anchor="middle" x="248.7334" y="-392.5" font-family="Helvetica,sans-Serif" font-size="10.00" fill="#000000">+wsURL</text>
<text text-anchor="middle" x="248.7334" y="-382.5" font-family="Helvetica,sans-Serif" font-size="10.00" fill="#000000">+locale</text>
<text text-anchor="middle" x="248.7334" y="-372.5" font-family="Helvetica,sans-Serif" font-size="10.00" fill="#000000">+callingName</text>
<text text-anchor="middle" x="248.7334" y="-362.5" font-family="Helvetica,sans-Serif" font-size="10.00" fill="#000000">+phoneNumber</text>
<text text-anchor="middle" x="248.7334" y="-352.5" font-family="Helvetica,sans-Serif" font-size="10.00" fill="#000000">+userToken</text>
<text text-anchor="middle" x="248.7334" y="-342.5" font-family="Helvetica,sans-Serif" font-size="10.00" fill="#000000">+hostPin</text>
<text text-anchor="middle" x="248.7334" y="-332.5" font-family="Helvetica,sans-Serif" font-size="10.00" fill="#000000">+email</text>
</g>
<!-- Node8&#45;&gt;Node6 -->
<g id="edge6" class="edge">
<title>Node8&#45;&gt;Node6</title>
<path fill="none" stroke="#404040" d="M191.3884,-636.3807C181.9536,-623.0072 170.0816,-606.1788 158.2627,-589.4259"/>
<polygon fill="none" stroke="#404040" points="158.2466,-589.4029 151.5193,-586.806 151.329,-579.5974 158.0563,-582.1943 158.2466,-589.4029"/>
<text text-anchor="middle" x="177.2188" y="-600" font-family="Helvetica,sans-Serif" font-size="10.00" fill="#000000"> +t</text>
</g>
<!-- Node9 -->
<g id="node8" class="node">
<title>Node9</title>
<g id="a_node8"><a xlink:title="STL class.">
<polygon fill="none" stroke="#bfbfbf" points="163.4727,-738.5 163.4727,-802.5 257.5684,-802.5 257.5684,-738.5 163.4727,-738.5"/>
<text text-anchor="start" x="171.4727" y="-790.5" font-family="Helvetica,sans-Serif" font-size="10.00" fill="#000000">std::basic_string&lt;</text>
<text text-anchor="middle" x="210.5205" y="-780.5" font-family="Helvetica,sans-Serif" font-size="10.00" fill="#000000"> char &gt;</text>
<polyline fill="none" stroke="#bfbfbf" points="163.4727,-774.5 257.5684,-774.5 "/>
<text text-anchor="middle" x="210.5205" y="-762.5" font-family="Helvetica,sans-Serif" font-size="10.00" fill="#000000"> </text>
<polyline fill="none" stroke="#bfbfbf" points="163.4727,-756.5 257.5684,-756.5 "/>
<text text-anchor="middle" x="210.5205" y="-744.5" font-family="Helvetica,sans-Serif" font-size="10.00" fill="#000000"> </text>
</a>
</g>
</g>
<!-- Node9&#45;&gt;Node8 -->
<g id="edge7" class="edge">
<title>Node9&#45;&gt;Node8</title>
<path fill="none" stroke="#191970" d="M210.5205,-728.0442C210.5205,-715.4009 210.5205,-701.8972 210.5205,-690.5265"/>
<polygon fill="none" stroke="#191970" points="207.0206,-728.3964 210.5205,-738.3965 214.0206,-728.3965 207.0206,-728.3964"/>
</g>
<!-- Node10 -->
<g id="node9" class="node">
<title>Node10</title>
<g id="a_node9"><a xlink:href="struct_session_id.html" target="_top" xlink:title=" ">
<polygon fill="none" stroke="#000000" points="289.5625,-226.5 289.5625,-280.5 349.4785,-280.5 349.4785,-226.5 289.5625,-226.5"/>
<text text-anchor="middle" x="319.5205" y="-268.5" font-family="Helvetica,sans-Serif" font-size="10.00" fill="#000000">SessionId</text>
<polyline fill="none" stroke="#000000" points="289.5625,-262.5 349.4785,-262.5 "/>
<text text-anchor="middle" x="319.5205" y="-250.5" font-family="Helvetica,sans-Serif" font-size="10.00" fill="#000000"> </text>
<polyline fill="none" stroke="#000000" points="289.5625,-244.5 349.4785,-244.5 "/>
<text text-anchor="middle" x="319.5205" y="-232.5" font-family="Helvetica,sans-Serif" font-size="10.00" fill="#000000"> </text>
</a>
</g>
</g>
<!-- Node10&#45;&gt;Node2 -->
<g id="edge9" class="edge">
<title>Node10&#45;&gt;Node2</title>
<path fill="none" stroke="#404040" d="M296.2268,-226.4598C285.9062,-214.4792 273.0773,-199.5869 259.6874,-184.0434"/>
<polygon fill="none" stroke="#404040" points="259.5856,-183.9252 252.639,-181.99 251.7535,-174.8334 258.7001,-176.7686 259.5856,-183.9252"/>
<text text-anchor="middle" x="298.9526" y="-195" font-family="Helvetica,sans-Serif" font-size="10.00" fill="#000000"> +sessionId</text>
</g>
<!-- Node11 -->
<g id="node10" class="node">
<title>Node11</title>
<g id="a_node10"><a xlink:href="struct_strong_identity.html" target="_top" xlink:title=" ">
<polygon fill="none" stroke="#000000" points="305.0122,-323.5 305.0122,-417.5 438.0288,-417.5 438.0288,-323.5 305.0122,-323.5"/>
<text text-anchor="start" x="313.0122" y="-405.5" font-family="Helvetica,sans-Serif" font-size="10.00" fill="#000000">StrongIdentity&lt; SessionId,</text>
<text text-anchor="middle" x="371.5205" y="-395.5" font-family="Helvetica,sans-Serif" font-size="10.00" fill="#000000"> BaseIdentity &gt;</text>
<polyline fill="none" stroke="#000000" points="305.0122,-389.5 438.0288,-389.5 "/>
<text text-anchor="middle" x="371.5205" y="-377.5" font-family="Helvetica,sans-Serif" font-size="10.00" fill="#000000"> </text>
<polyline fill="none" stroke="#000000" points="305.0122,-371.5 438.0288,-371.5 "/>
<text text-anchor="start" x="313.0122" y="-359.5" font-family="Helvetica,sans-Serif" font-size="10.00" fill="#000000">+ get_value()</text>
<text text-anchor="start" x="313.0122" y="-349.5" font-family="Helvetica,sans-Serif" font-size="10.00" fill="#000000">+ get_value()</text>
<text text-anchor="start" x="313.0122" y="-339.5" font-family="Helvetica,sans-Serif" font-size="10.00" fill="#000000">+ is_empty()</text>
<text text-anchor="start" x="313.0122" y="-329.5" font-family="Helvetica,sans-Serif" font-size="10.00" fill="#000000">+ is_defined()</text>
</a>
</g>
</g>
<!-- Node11&#45;&gt;Node10 -->
<g id="edge10" class="edge">
<title>Node11&#45;&gt;Node10</title>
<path fill="none" stroke="#191970" d="M346.4121,-314.006C341.258,-302.4094 336.0572,-290.7075 331.621,-280.726"/>
<polygon fill="none" stroke="#191970" points="343.2602,-315.5323 350.52,-323.2489 349.6569,-312.6892 343.2602,-315.5323"/>
</g>
<!-- Node12 -->
<g id="node11" class="node">
<title>Node12</title>
<g id="a_node11"><a xlink:href="structdetails_1_1strong__typedef.html" target="_top" xlink:title=" ">
<polygon fill="none" stroke="#000000" points="290.2881,-455.5 290.2881,-579.5 452.7529,-579.5 452.7529,-455.5 290.2881,-455.5"/>
<text text-anchor="start" x="298.2881" y="-567.5" font-family="Helvetica,sans-Serif" font-size="10.00" fill="#000000">details::strong_typedef</text>
<text text-anchor="middle" x="371.5205" y="-557.5" font-family="Helvetica,sans-Serif" font-size="10.00" fill="#000000">&lt; SessionId, BaseIdentity &gt;</text>
<polyline fill="none" stroke="#000000" points="290.2881,-551.5 452.7529,-551.5 "/>
<text text-anchor="start" x="298.2881" y="-539.5" font-family="Helvetica,sans-Serif" font-size="10.00" fill="#000000">+ t</text>
<polyline fill="none" stroke="#000000" points="290.2881,-533.5 452.7529,-533.5 "/>
<text text-anchor="start" x="298.2881" y="-521.5" font-family="Helvetica,sans-Serif" font-size="10.00" fill="#000000">+ strong_typedef()</text>
<text text-anchor="start" x="298.2881" y="-511.5" font-family="Helvetica,sans-Serif" font-size="10.00" fill="#000000">+ strong_typedef()</text>
<text text-anchor="start" x="298.2881" y="-501.5" font-family="Helvetica,sans-Serif" font-size="10.00" fill="#000000">+ strong_typedef()</text>
<text text-anchor="start" x="298.2881" y="-491.5" font-family="Helvetica,sans-Serif" font-size="10.00" fill="#000000">+ operator const BaseIdentity &amp;()</text>
<text text-anchor="start" x="298.2881" y="-481.5" font-family="Helvetica,sans-Serif" font-size="10.00" fill="#000000">+ operator BaseIdentity &amp;()</text>
<text text-anchor="start" x="298.2881" y="-471.5" font-family="Helvetica,sans-Serif" font-size="10.00" fill="#000000">+ operator==()</text>
<text text-anchor="start" x="298.2881" y="-461.5" font-family="Helvetica,sans-Serif" font-size="10.00" fill="#000000">+ operator&lt;()</text>
</a>
</g>
</g>
<!-- Node12&#45;&gt;Node11 -->
<g id="edge11" class="edge">
<title>Node12&#45;&gt;Node11</title>
<path fill="none" stroke="#191970" d="M371.5205,-445.1162C371.5205,-435.8267 371.5205,-426.5135 371.5205,-417.7702"/>
<polygon fill="none" stroke="#191970" points="368.0206,-445.1587 371.5205,-455.1588 375.0206,-445.1588 368.0206,-445.1587"/>
</g>
<!-- Node13 -->
<g id="node12" class="node">
<title>Node13</title>
<g id="a_node12"><a xlink:title=" ">
<polygon fill="none" stroke="#bfbfbf" points="275.5444,-626.5 275.5444,-700.5 467.4966,-700.5 467.4966,-626.5 275.5444,-626.5"/>
<text text-anchor="start" x="283.5444" y="-688.5" font-family="Helvetica,sans-Serif" font-size="10.00" fill="#000000">boost::totally_ordered1</text>
<text text-anchor="start" x="283.5444" y="-678.5" font-family="Helvetica,sans-Serif" font-size="10.00" fill="#000000">&lt; SessionId, boost::totally</text>
<text text-anchor="middle" x="371.5205" y="-668.5" font-family="Helvetica,sans-Serif" font-size="10.00" fill="#000000">_ordered2&lt; SessionId, BaseIdentity &gt; &gt;</text>
<polyline fill="none" stroke="#bfbfbf" points="275.5444,-662.5 467.4966,-662.5 "/>
<text text-anchor="middle" x="371.5205" y="-650.5" font-family="Helvetica,sans-Serif" font-size="10.00" fill="#000000"> </text>
<polyline fill="none" stroke="#bfbfbf" points="275.5444,-644.5 467.4966,-644.5 "/>
<text text-anchor="middle" x="371.5205" y="-632.5" font-family="Helvetica,sans-Serif" font-size="10.00" fill="#000000"> </text>
</a>
</g>
</g>
<!-- Node13&#45;&gt;Node12 -->
<g id="edge12" class="edge">
<title>Node13&#45;&gt;Node12</title>
<path fill="none" stroke="#191970" d="M371.5205,-615.9454C371.5205,-604.3485 371.5205,-591.7724 371.5205,-579.609"/>
<polygon fill="none" stroke="#191970" points="368.0206,-616.2802 371.5205,-626.2803 375.0206,-616.2803 368.0206,-616.2802"/>
</g>
</g>
</svg>
        <g id="navigator" transform="translate(0 0)" fill="#404254">
                <rect fill="#f2f5e9" fill-opacity="0.5" stroke="#606060" stroke-width=".5" x="0" y="0" width="60" height="60"/>
                <use id="zoomplus" xlink:href="#zoomPlus" x="17" y="9" onmousedown="handleZoom(evt,'in')"/>
                <use id="zoomminus" xlink:href="#zoomMin" x="42" y="9" onmousedown="handleZoom(evt,'out')"/>
                <use id="reset" xlink:href="#resetDef" x="30" y="36" onmousedown="handleReset()"/>
                <g id="arrowUp" xlink:href="#dirArrow" transform="translate(30 24)" onmousedown="handlePan(0,-1)">
                  <use xlink:href="#rim" fill="#404040">
                        <set attributeName="fill" to="#808080" begin="arrowUp.mouseover" end="arrowUp.mouseout"/>
                  </use>
                  <path fill="none" stroke="white" stroke-width="1.5" d="M0,-3.0v7 M-2.5,-0.5L0,-3.0L2.5,-0.5"/>
                </g>
                <g id="arrowRight" xlink:href="#dirArrow" transform="rotate(90) translate(36 -43)" onmousedown="handlePan(1,0)">
                  <use xlink:href="#rim" fill="#404040">
                        <set attributeName="fill" to="#808080" begin="arrowRight.mouseover" end="arrowRight.mouseout"/>
                  </use>
                  <path fill="none" stroke="white" stroke-width="1.5" d="M0,-3.0v7 M-2.5,-0.5L0,-3.0L2.5,-0.5"/>
                </g>
                <g id="arrowDown" xlink:href="#dirArrow" transform="rotate(180) translate(-30 -48)" onmousedown="handlePan(0,1)">
                  <use xlink:href="#rim" fill="#404040">
                        <set attributeName="fill" to="#808080" begin="arrowDown.mouseover" end="arrowDown.mouseout"/>
                  </use>
                  <path fill="none" stroke="white" stroke-width="1.5" d="M0,-3.0v7 M-2.5,-0.5L0,-3.0L2.5,-0.5"/>
                </g>
                <g id="arrowLeft" xlink:href="#dirArrow" transform="rotate(270) translate(-36 17)" onmousedown="handlePan(-1,0)">
                  <use xlink:href="#rim" fill="#404040">
                        <set attributeName="fill" to="#808080" begin="arrowLeft.mouseover" end="arrowLeft.mouseout"/>
                  </use>
                  <path fill="none" stroke="white" stroke-width="1.5" d="M0,-3.0v7 M-2.5,-0.5L0,-3.0L2.5,-0.5"/>
                </g>
        </g>
        <svg viewBox="0 0 15 15" width="100%" height="30px" preserveAspectRatio="xMaxYMin meet">
         <g id="arrow_out" transform="scale(0.3 0.3)">
          <a xlink:href="structfs_1_1_meeting_session_parameters__coll__graph_org.svg" target="_base">
           <rect id="button" ry="5" rx="5" y="6" x="6" height="38" width="38"
                fill="#f2f5e9" fill-opacity="0.5" stroke="#606060" stroke-width="1.0"/>
           <path id="arrow"
             d="M 11.500037,31.436501 C 11.940474,20.09759 22.043105,11.32322 32.158766,21.979434 L 37.068811,17.246167 C 37.068811,17.246167 37.088388,32 37.088388,32 L 22.160133,31.978069 C 22.160133,31.978069 26.997745,27.140456 26.997745,27.140456 C 18.528582,18.264221 13.291696,25.230495 11.500037,31.436501 z"
             style="fill:#404040;"/>
          </a>
         </g>
        </svg>
</svg>
