<?xml version="1.0" encoding="UTF-8" standalone="no"?>
<!DOCTYPE svg PUBLIC "-//W3C//DTD SVG 1.1//EN"
 "http://www.w3.org/Graphics/SVG/1.1/DTD/svg11.dtd">
<!-- Generated by graphviz version 2.40.1 (20161225.0304)
 -->
<!-- Title: fs::null_impl&lt; IBroadcasterRecordingNotificationsDelegate &gt; Pages: 1 -->
<svg width="199pt" height="527pt"
 viewBox="0.00 0.00 199.08 527.00" xmlns="http://www.w3.org/2000/svg" xmlns:xlink="http://www.w3.org/1999/xlink">
<g id="graph0" class="graph" transform="scale(1 1) rotate(0) translate(4 523)">
<title>fs::null_impl&lt; IBroadcasterRecordingNotificationsDelegate &gt;</title>
<!-- Node7 -->
<g id="node1" class="node">
<title>Node7</title>
<g id="a_node1"><a xlink:title=" ">
<polygon fill="#bfbfbf" stroke="#000000" points="13.1934,-.5 13.1934,-64.5 177.8896,-64.5 177.8896,-.5 13.1934,-.5"/>
<text text-anchor="start" x="21.1934" y="-52.5" font-family="Helvetica,sans-Serif" font-size="10.00" fill="#000000">fs::null_impl&lt; IBroadcaster</text>
<text text-anchor="middle" x="95.5415" y="-42.5" font-family="Helvetica,sans-Serif" font-size="10.00" fill="#000000">RecordingNotificationsDelegate &gt;</text>
<polyline fill="none" stroke="#000000" points="13.1934,-36.5 177.8896,-36.5 "/>
<text text-anchor="middle" x="95.5415" y="-24.5" font-family="Helvetica,sans-Serif" font-size="10.00" fill="#000000"> </text>
<polyline fill="none" stroke="#000000" points="13.1934,-18.5 177.8896,-18.5 "/>
<text text-anchor="middle" x="95.5415" y="-6.5" font-family="Helvetica,sans-Serif" font-size="10.00" fill="#000000"> </text>
</a>
</g>
</g>
<!-- Node8 -->
<g id="node2" class="node">
<title>Node8</title>
<g id="a_node2"><a xlink:href="classfs_1_1_broadcaster_recording_notifications_null_delegate.html" target="_top" xlink:title=" ">
<polygon fill="none" stroke="#000000" points="31.1255,-101.5 31.1255,-185.5 159.9575,-185.5 159.9575,-101.5 31.1255,-101.5"/>
<text text-anchor="start" x="39.1255" y="-173.5" font-family="Helvetica,sans-Serif" font-size="10.00" fill="#000000">fs::BroadcasterRecording</text>
<text text-anchor="middle" x="95.5415" y="-163.5" font-family="Helvetica,sans-Serif" font-size="10.00" fill="#000000">NotificationsNullDelegate</text>
<polyline fill="none" stroke="#000000" points="31.1255,-157.5 159.9575,-157.5 "/>
<text text-anchor="middle" x="95.5415" y="-145.5" font-family="Helvetica,sans-Serif" font-size="10.00" fill="#000000"> </text>
<polyline fill="none" stroke="#000000" points="31.1255,-139.5 159.9575,-139.5 "/>
<text text-anchor="start" x="39.1255" y="-127.5" font-family="Helvetica,sans-Serif" font-size="10.00" fill="#000000">+ EMPTY_METHOD()</text>
<text text-anchor="start" x="39.1255" y="-117.5" font-family="Helvetica,sans-Serif" font-size="10.00" fill="#000000">+ EMPTY_METHOD()</text>
<text text-anchor="start" x="39.1255" y="-107.5" font-family="Helvetica,sans-Serif" font-size="10.00" fill="#000000">+ EMPTY_METHOD()</text>
</a>
</g>
</g>
<!-- Node8&#45;&gt;Node7 -->
<g id="edge1" class="edge">
<title>Node8&#45;&gt;Node7</title>
<path fill="none" stroke="#191970" d="M95.5415,-91.1185C95.5415,-82.0854 95.5415,-72.9418 95.5415,-64.6489"/>
<polygon fill="none" stroke="#191970" points="92.0416,-91.219 95.5415,-101.219 99.0416,-91.219 92.0416,-91.219"/>
</g>
<!-- Node9 -->
<g id="node3" class="node">
<title>Node9</title>
<g id="a_node3"><a xlink:href="classfs_1_1_i_broadcaster_recording_notifications_delegate.html" target="_top" xlink:title=" ">
<polygon fill="none" stroke="#000000" points="1.9409,-222.5 1.9409,-296.5 189.1421,-296.5 189.1421,-222.5 1.9409,-222.5"/>
<text text-anchor="start" x="9.9409" y="-284.5" font-family="Helvetica,sans-Serif" font-size="10.00" fill="#000000">fs::IBroadcasterRecording</text>
<text text-anchor="middle" x="95.5415" y="-274.5" font-family="Helvetica,sans-Serif" font-size="10.00" fill="#000000">NotificationsDelegate</text>
<polyline fill="none" stroke="#000000" points="1.9409,-268.5 189.1421,-268.5 "/>
<text text-anchor="middle" x="95.5415" y="-256.5" font-family="Helvetica,sans-Serif" font-size="10.00" fill="#000000"> </text>
<polyline fill="none" stroke="#000000" points="1.9409,-250.5 189.1421,-250.5 "/>
<text text-anchor="start" x="9.9409" y="-238.5" font-family="Helvetica,sans-Serif" font-size="10.00" fill="#000000">+ ~IBroadcasterRecordingNotifications</text>
<text text-anchor="start" x="9.9409" y="-228.5" font-family="Helvetica,sans-Serif" font-size="10.00" fill="#000000">Delegate()</text>
</a>
</g>
</g>
<!-- Node9&#45;&gt;Node8 -->
<g id="edge2" class="edge">
<title>Node9&#45;&gt;Node8</title>
<path fill="none" stroke="#191970" d="M95.5415,-212.3716C95.5415,-203.5842 95.5415,-194.4515 95.5415,-185.8197"/>
<polygon fill="none" stroke="#191970" points="92.0416,-212.4779 95.5415,-222.4779 99.0416,-212.478 92.0416,-212.4779"/>
</g>
<!-- Node10 -->
<g id="node4" class="node">
<title>Node10</title>
<g id="a_node4"><a xlink:href="classfs_1_1_broadcaster_recording_notifications.html" target="_top" xlink:title=" ">
<polygon fill="none" stroke="#000000" points="0,-333.5 0,-417.5 191.083,-417.5 191.083,-333.5 0,-333.5"/>
<text text-anchor="start" x="8" y="-405.5" font-family="Helvetica,sans-Serif" font-size="10.00" fill="#000000">fs::BroadcasterRecording</text>
<text text-anchor="middle" x="95.5415" y="-395.5" font-family="Helvetica,sans-Serif" font-size="10.00" fill="#000000">Notifications</text>
<polyline fill="none" stroke="#000000" points="0,-389.5 191.083,-389.5 "/>
<text text-anchor="middle" x="95.5415" y="-377.5" font-family="Helvetica,sans-Serif" font-size="10.00" fill="#000000"> </text>
<polyline fill="none" stroke="#000000" points="0,-371.5 191.083,-371.5 "/>
<text text-anchor="start" x="8" y="-359.5" font-family="Helvetica,sans-Serif" font-size="10.00" fill="#000000">+ ~BroadcasterRecordingNotifications()</text>
<text text-anchor="start" x="8" y="-349.5" font-family="Helvetica,sans-Serif" font-size="10.00" fill="#000000">+ ABSTRACT_METHOD()</text>
<text text-anchor="start" x="8" y="-339.5" font-family="Helvetica,sans-Serif" font-size="10.00" fill="#000000">+ ABSTRACT_METHOD()</text>
</a>
</g>
</g>
<!-- Node10&#45;&gt;Node9 -->
<g id="edge3" class="edge">
<title>Node10&#45;&gt;Node9</title>
<path fill="none" stroke="#191970" d="M95.5415,-323.0572C95.5415,-314.2275 95.5415,-305.2244 95.5415,-296.8766"/>
<polygon fill="none" stroke="#191970" points="92.0416,-323.2932 95.5415,-333.2932 99.0416,-323.2932 92.0416,-323.2932"/>
</g>
<!-- Node11 -->
<g id="node5" class="node">
<title>Node11</title>
<g id="a_node5"><a xlink:href="classfs_1_1_broadcaster_notifications.html" target="_top" xlink:title=" ">
<polygon fill="none" stroke="#000000" points="22.7905,-454.5 22.7905,-518.5 168.2925,-518.5 168.2925,-454.5 22.7905,-454.5"/>
<text text-anchor="middle" x="95.5415" y="-506.5" font-family="Helvetica,sans-Serif" font-size="10.00" fill="#000000">fs::BroadcasterNotifications</text>
<polyline fill="none" stroke="#000000" points="22.7905,-500.5 168.2925,-500.5 "/>
<text text-anchor="middle" x="95.5415" y="-488.5" font-family="Helvetica,sans-Serif" font-size="10.00" fill="#000000"> </text>
<polyline fill="none" stroke="#000000" points="22.7905,-482.5 168.2925,-482.5 "/>
<text text-anchor="start" x="30.7905" y="-470.5" font-family="Helvetica,sans-Serif" font-size="10.00" fill="#000000">+ ~BroadcasterNotifications()</text>
<text text-anchor="start" x="30.7905" y="-460.5" font-family="Helvetica,sans-Serif" font-size="10.00" fill="#000000">+ ABSTRACT_METHOD()</text>
</a>
</g>
</g>
<!-- Node11&#45;&gt;Node10 -->
<g id="edge4" class="edge">
<title>Node11&#45;&gt;Node10</title>
<path fill="none" stroke="#191970" d="M95.5415,-444.1673C95.5415,-435.5509 95.5415,-426.4852 95.5415,-417.8676"/>
<polygon fill="none" stroke="#191970" points="92.0416,-444.3942 95.5415,-454.3942 99.0416,-444.3942 92.0416,-444.3942"/>
</g>
</g>
</svg>
