<?xml version="1.0" encoding="UTF-8" standalone="no"?>
<!DOCTYPE svg PUBLIC "-//W3C//DTD SVG 1.1//EN"
 "http://www.w3.org/Graphics/SVG/1.1/DTD/svg11.dtd">
<!-- Generated by graphviz version 2.40.1 (20161225.0304)
 -->
<!-- Title: cx::web::string_entity Pages: 1 -->
<!--zoomable 617 -->
<svg id="main" version="1.1" xmlns="http://www.w3.org/2000/svg" xmlns:xlink="http://www.w3.org/1999/xlink" xml:space="preserve" onload="init(evt)">
<style type="text/css"><![CDATA[
.edge:hover path { stroke: red; }
.edge:hover polygon { stroke: red; fill: red; }
]]></style>
<script type="text/javascript"><![CDATA[
var edges = document.getElementsByTagName('g');
if (edges && edges.length) {
  for (var i=0;i<edges.length;i++) {
    if (edges[i].id.substr(0,4)=='edge') {
      edges[i].setAttribute('class','edge');
    }
  }
}
]]></script>
        <defs>
                <circle id="rim" cx="0" cy="0" r="7"/>
                <circle id="rim2" cx="0" cy="0" r="3.5"/>
                <g id="zoomPlus">
                        <use xlink:href="#rim" fill="#404040">
                                <set attributeName="fill" to="#808080" begin="zoomplus.mouseover" end="zoomplus.mouseout"/>
                        </use>
                        <path d="M-4,0h8M0,-4v8" fill="none" stroke="white" stroke-width="1.5" pointer-events="none"/>
                </g>
                <g id="zoomMin">
                        <use xlink:href="#rim" fill="#404040">
                                <set attributeName="fill" to="#808080" begin="zoomminus.mouseover" end="zoomminus.mouseout"/>
                        </use>
                        <path d="M-4,0h8" fill="none" stroke="white" stroke-width="1.5" pointer-events="none"/>
                </g>
                <g id="dirArrow">
                        <path fill="none" stroke="white" stroke-width="1.5" d="M0,-3.0v7 M-2.5,-0.5L0,-3.0L2.5,-0.5"/>
                </g>
               <g id="resetDef">
                       <use xlink:href="#rim2" fill="#404040">
                               <set attributeName="fill" to="#808080" begin="reset.mouseover" end="reset.mouseout"/>
                       </use>
               </g>
        </defs>

<script type="text/javascript">
var viewWidth = 300;
var viewHeight = 617;
var sectionId = 'dynsection-0';
</script>
<script xlink:href="svgpan.js"/>
<svg id="graph" class="graph">
<g id="viewport">
<title>cx::web::string_entity</title>
<!-- Node0 -->
<g id="node1" class="node">
<title>Node0</title>
<g id="a_node1"><a xlink:title=" ">
<polygon fill="#bfbfbf" stroke="#000000" points="92.0073,-383.5 92.0073,-517.5 201.3813,-517.5 201.3813,-383.5 92.0073,-383.5"/>
<text text-anchor="middle" x="146.6943" y="-505.5" font-family="Helvetica,sans-Serif" font-size="10.00" fill="#000000">cx::web::string_entity</text>
<polyline fill="none" stroke="#000000" points="92.0073,-499.5 201.3813,-499.5 "/>
<text text-anchor="start" x="100.0073" y="-487.5" font-family="Helvetica,sans-Serif" font-size="10.00" fill="#000000">+ error_reason</text>
<text text-anchor="start" x="100.0073" y="-477.5" font-family="Helvetica,sans-Serif" font-size="10.00" fill="#000000">+ status</text>
<text text-anchor="start" x="100.0073" y="-467.5" font-family="Helvetica,sans-Serif" font-size="10.00" fill="#000000">+ content</text>
<polyline fill="none" stroke="#000000" points="92.0073,-461.5 201.3813,-461.5 "/>
<text text-anchor="start" x="100.0073" y="-449.5" font-family="Helvetica,sans-Serif" font-size="10.00" fill="#000000">+ string_entity()</text>
<text text-anchor="start" x="100.0073" y="-439.5" font-family="Helvetica,sans-Serif" font-size="10.00" fill="#000000">+ string_entity()</text>
<text text-anchor="start" x="100.0073" y="-429.5" font-family="Helvetica,sans-Serif" font-size="10.00" fill="#000000">+ copy_from()</text>
<text text-anchor="start" x="100.0073" y="-419.5" font-family="Helvetica,sans-Serif" font-size="10.00" fill="#000000">+ valid()</text>
<text text-anchor="start" x="100.0073" y="-409.5" font-family="Helvetica,sans-Serif" font-size="10.00" fill="#000000">+ update()</text>
<text text-anchor="start" x="100.0073" y="-399.5" font-family="Helvetica,sans-Serif" font-size="10.00" fill="#000000">+ get_string()</text>
<text text-anchor="start" x="100.0073" y="-389.5" font-family="Helvetica,sans-Serif" font-size="10.00" fill="#000000">+ printOn()</text>
</a>
</g>
</g>
<!-- Node2 -->
<g id="node3" class="node">
<title>Node2</title>
<g id="a_node3"><a xlink:href="structcx_1_1web_1_1json__entity.html" target="_top" xlink:title=" ">
<polygon fill="none" stroke="#000000" points="95.0615,-262.5 95.0615,-346.5 198.3271,-346.5 198.3271,-262.5 95.0615,-262.5"/>
<text text-anchor="middle" x="146.6943" y="-334.5" font-family="Helvetica,sans-Serif" font-size="10.00" fill="#000000">cx::web::json_entity</text>
<polyline fill="none" stroke="#000000" points="95.0615,-328.5 198.3271,-328.5 "/>
<text text-anchor="start" x="103.0615" y="-316.5" font-family="Helvetica,sans-Serif" font-size="10.00" fill="#000000">+ json</text>
<polyline fill="none" stroke="#000000" points="95.0615,-310.5 198.3271,-310.5 "/>
<text text-anchor="start" x="103.0615" y="-298.5" font-family="Helvetica,sans-Serif" font-size="10.00" fill="#000000">+ json_entity()</text>
<text text-anchor="start" x="103.0615" y="-288.5" font-family="Helvetica,sans-Serif" font-size="10.00" fill="#000000">+ json_entity()</text>
<text text-anchor="start" x="103.0615" y="-278.5" font-family="Helvetica,sans-Serif" font-size="10.00" fill="#000000">+ valid()</text>
<text text-anchor="start" x="103.0615" y="-268.5" font-family="Helvetica,sans-Serif" font-size="10.00" fill="#000000">+ get_json()</text>
</a>
</g>
</g>
<!-- Node0&#45;&gt;Node2 -->
<g id="edge2" class="edge">
<title>Node0&#45;&gt;Node2</title>
<path fill="none" stroke="#191970" d="M146.6943,-373.252C146.6943,-364.1973 146.6943,-355.2301 146.6943,-346.91"/>
<polygon fill="none" stroke="#191970" points="143.1944,-373.4823 146.6943,-383.4823 150.1944,-373.4823 143.1944,-373.4823"/>
</g>
<!-- Node1 -->
<g id="node2" class="node">
<title>Node1</title>
<g id="a_node2"><a xlink:title=" ">
<polygon fill="none" stroke="#bfbfbf" points="118.9604,-554.5 118.9604,-608.5 174.4282,-608.5 174.4282,-554.5 118.9604,-554.5"/>
<text text-anchor="middle" x="146.6943" y="-596.5" font-family="Helvetica,sans-Serif" font-size="10.00" fill="#000000">Printable</text>
<polyline fill="none" stroke="#bfbfbf" points="118.9604,-590.5 174.4282,-590.5 "/>
<text text-anchor="middle" x="146.6943" y="-578.5" font-family="Helvetica,sans-Serif" font-size="10.00" fill="#000000"> </text>
<polyline fill="none" stroke="#bfbfbf" points="118.9604,-572.5 174.4282,-572.5 "/>
<text text-anchor="middle" x="146.6943" y="-560.5" font-family="Helvetica,sans-Serif" font-size="10.00" fill="#000000"> </text>
</a>
</g>
</g>
<!-- Node1&#45;&gt;Node0 -->
<g id="edge1" class="edge">
<title>Node1&#45;&gt;Node0</title>
<path fill="none" stroke="#191970" d="M146.6943,-544.2321C146.6943,-535.8764 146.6943,-526.7626 146.6943,-517.607"/>
<polygon fill="none" stroke="#191970" points="143.1944,-544.3567 146.6943,-554.3567 150.1944,-544.3567 143.1944,-544.3567"/>
</g>
<!-- Node3 -->
<g id="node4" class="node">
<title>Node3</title>
<g id="a_node4"><a xlink:href="structcx_1_1web_1_1data__entity.html" target="_top" xlink:title=" ">
<polygon fill="none" stroke="#000000" points="94.5024,-131.5 94.5024,-225.5 198.8862,-225.5 198.8862,-131.5 94.5024,-131.5"/>
<text text-anchor="middle" x="146.6943" y="-213.5" font-family="Helvetica,sans-Serif" font-size="10.00" fill="#000000">cx::web::data_entity</text>
<polyline fill="none" stroke="#000000" points="94.5024,-207.5 198.8862,-207.5 "/>
<text text-anchor="start" x="102.5024" y="-195.5" font-family="Helvetica,sans-Serif" font-size="10.00" fill="#000000">+ retcode</text>
<text text-anchor="start" x="102.5024" y="-185.5" font-family="Helvetica,sans-Serif" font-size="10.00" fill="#000000">+ errorStatus</text>
<text text-anchor="start" x="102.5024" y="-175.5" font-family="Helvetica,sans-Serif" font-size="10.00" fill="#000000">+ errorDescription</text>
<polyline fill="none" stroke="#000000" points="94.5024,-169.5 198.8862,-169.5 "/>
<text text-anchor="start" x="102.5024" y="-157.5" font-family="Helvetica,sans-Serif" font-size="10.00" fill="#000000">+ data_entity()</text>
<text text-anchor="start" x="102.5024" y="-147.5" font-family="Helvetica,sans-Serif" font-size="10.00" fill="#000000">+ data_entity()</text>
<text text-anchor="start" x="102.5024" y="-137.5" font-family="Helvetica,sans-Serif" font-size="10.00" fill="#000000">+ update()</text>
</a>
</g>
</g>
<!-- Node2&#45;&gt;Node3 -->
<g id="edge3" class="edge">
<title>Node2&#45;&gt;Node3</title>
<path fill="none" stroke="#191970" d="M146.6943,-252.0873C146.6943,-243.3328 146.6943,-234.2974 146.6943,-225.6838"/>
<polygon fill="none" stroke="#191970" points="143.1944,-252.1933 146.6943,-262.1933 150.1944,-252.1933 143.1944,-252.1933"/>
</g>
<!-- Node4 -->
<g id="node5" class="node">
<title>Node4</title>
<g id="a_node5"><a xlink:href="classcx_1_1web_1_1_country_code_entity.html" target="_top" xlink:title=" ">
<polygon fill="none" stroke="#000000" points="0,-.5 0,-94.5 139.3887,-94.5 139.3887,-.5 0,-.5"/>
<text text-anchor="middle" x="69.6943" y="-82.5" font-family="Helvetica,sans-Serif" font-size="10.00" fill="#000000">cx::web::CountryCodeEntity</text>
<polyline fill="none" stroke="#000000" points="0,-76.5 139.3887,-76.5 "/>
<text text-anchor="start" x="8" y="-64.5" font-family="Helvetica,sans-Serif" font-size="10.00" fill="#000000">+ country_code</text>
<polyline fill="none" stroke="#000000" points="0,-58.5 139.3887,-58.5 "/>
<text text-anchor="start" x="8" y="-46.5" font-family="Helvetica,sans-Serif" font-size="10.00" fill="#000000">+ CountryCodeEntity()</text>
<text text-anchor="start" x="8" y="-36.5" font-family="Helvetica,sans-Serif" font-size="10.00" fill="#000000">+ CountryCodeEntity()</text>
<text text-anchor="start" x="8" y="-26.5" font-family="Helvetica,sans-Serif" font-size="10.00" fill="#000000">+ valid()</text>
<text text-anchor="start" x="8" y="-16.5" font-family="Helvetica,sans-Serif" font-size="10.00" fill="#000000">+ update()</text>
<text text-anchor="start" x="8" y="-6.5" font-family="Helvetica,sans-Serif" font-size="10.00" fill="#000000">+ printOn()</text>
</a>
</g>
</g>
<!-- Node3&#45;&gt;Node4 -->
<g id="edge4" class="edge">
<title>Node3&#45;&gt;Node4</title>
<path fill="none" stroke="#191970" d="M113.75,-122.4519C108.3199,-113.2137 102.7392,-103.7192 97.4523,-94.7246"/>
<polygon fill="none" stroke="#191970" points="110.8108,-124.3585 118.8956,-131.206 116.8456,-120.8114 110.8108,-124.3585"/>
</g>
<!-- Node5 -->
<g id="node6" class="node">
<title>Node5</title>
<g id="a_node6"><a xlink:href="classcx_1_1web_1_1_subscription_entity.html" target="_top" xlink:title=" ">
<polygon fill="none" stroke="#000000" points="156.9458,-5.5 156.9458,-89.5 292.4429,-89.5 292.4429,-5.5 156.9458,-5.5"/>
<text text-anchor="middle" x="224.6943" y="-77.5" font-family="Helvetica,sans-Serif" font-size="10.00" fill="#000000">cx::web::SubscriptionEntity</text>
<polyline fill="none" stroke="#000000" points="156.9458,-71.5 292.4429,-71.5 "/>
<text text-anchor="middle" x="224.6943" y="-59.5" font-family="Helvetica,sans-Serif" font-size="10.00" fill="#000000"> </text>
<polyline fill="none" stroke="#000000" points="156.9458,-53.5 292.4429,-53.5 "/>
<text text-anchor="start" x="164.9458" y="-41.5" font-family="Helvetica,sans-Serif" font-size="10.00" fill="#000000">+ SubscriptionEntity()</text>
<text text-anchor="start" x="164.9458" y="-31.5" font-family="Helvetica,sans-Serif" font-size="10.00" fill="#000000">+ SubscriptionEntity()</text>
<text text-anchor="start" x="164.9458" y="-21.5" font-family="Helvetica,sans-Serif" font-size="10.00" fill="#000000">+ valid()</text>
<text text-anchor="start" x="164.9458" y="-11.5" font-family="Helvetica,sans-Serif" font-size="10.00" fill="#000000">+ printOn()</text>
</a>
</g>
</g>
<!-- Node3&#45;&gt;Node5 -->
<g id="edge5" class="edge">
<title>Node3&#45;&gt;Node5</title>
<path fill="none" stroke="#191970" d="M180.0665,-122.4519C186.6424,-111.4077 193.4364,-99.9972 199.6794,-89.5123"/>
<polygon fill="none" stroke="#191970" points="176.9629,-120.8231 174.8541,-131.206 182.9775,-124.4044 176.9629,-120.8231"/>
</g>
</g>
</svg>
        <g id="navigator" transform="translate(0 0)" fill="#404254">
                <rect fill="#f2f5e9" fill-opacity="0.5" stroke="#606060" stroke-width=".5" x="0" y="0" width="60" height="60"/>
                <use id="zoomplus" xlink:href="#zoomPlus" x="17" y="9" onmousedown="handleZoom(evt,'in')"/>
                <use id="zoomminus" xlink:href="#zoomMin" x="42" y="9" onmousedown="handleZoom(evt,'out')"/>
                <use id="reset" xlink:href="#resetDef" x="30" y="36" onmousedown="handleReset()"/>
                <g id="arrowUp" xlink:href="#dirArrow" transform="translate(30 24)" onmousedown="handlePan(0,-1)">
                  <use xlink:href="#rim" fill="#404040">
                        <set attributeName="fill" to="#808080" begin="arrowUp.mouseover" end="arrowUp.mouseout"/>
                  </use>
                  <path fill="none" stroke="white" stroke-width="1.5" d="M0,-3.0v7 M-2.5,-0.5L0,-3.0L2.5,-0.5"/>
                </g>
                <g id="arrowRight" xlink:href="#dirArrow" transform="rotate(90) translate(36 -43)" onmousedown="handlePan(1,0)">
                  <use xlink:href="#rim" fill="#404040">
                        <set attributeName="fill" to="#808080" begin="arrowRight.mouseover" end="arrowRight.mouseout"/>
                  </use>
                  <path fill="none" stroke="white" stroke-width="1.5" d="M0,-3.0v7 M-2.5,-0.5L0,-3.0L2.5,-0.5"/>
                </g>
                <g id="arrowDown" xlink:href="#dirArrow" transform="rotate(180) translate(-30 -48)" onmousedown="handlePan(0,1)">
                  <use xlink:href="#rim" fill="#404040">
                        <set attributeName="fill" to="#808080" begin="arrowDown.mouseover" end="arrowDown.mouseout"/>
                  </use>
                  <path fill="none" stroke="white" stroke-width="1.5" d="M0,-3.0v7 M-2.5,-0.5L0,-3.0L2.5,-0.5"/>
                </g>
                <g id="arrowLeft" xlink:href="#dirArrow" transform="rotate(270) translate(-36 17)" onmousedown="handlePan(-1,0)">
                  <use xlink:href="#rim" fill="#404040">
                        <set attributeName="fill" to="#808080" begin="arrowLeft.mouseover" end="arrowLeft.mouseout"/>
                  </use>
                  <path fill="none" stroke="white" stroke-width="1.5" d="M0,-3.0v7 M-2.5,-0.5L0,-3.0L2.5,-0.5"/>
                </g>
        </g>
        <svg viewBox="0 0 15 15" width="100%" height="30px" preserveAspectRatio="xMaxYMin meet">
         <g id="arrow_out" transform="scale(0.3 0.3)">
          <a xlink:href="structcx_1_1web_1_1string__entity__inherit__graph_org.svg" target="_base">
           <rect id="button" ry="5" rx="5" y="6" x="6" height="38" width="38"
                fill="#f2f5e9" fill-opacity="0.5" stroke="#606060" stroke-width="1.0"/>
           <path id="arrow"
             d="M 11.500037,31.436501 C 11.940474,20.09759 22.043105,11.32322 32.158766,21.979434 L 37.068811,17.246167 C 37.068811,17.246167 37.088388,32 37.088388,32 L 22.160133,31.978069 C 22.160133,31.978069 26.997745,27.140456 26.997745,27.140456 C 18.528582,18.264221 13.291696,25.230495 11.500037,31.436501 z"
             style="fill:#404040;"/>
          </a>
         </g>
        </svg>
</svg>
