<?xml version="1.0" encoding="UTF-8" standalone="no"?>
<!DOCTYPE svg PUBLIC "-//W3C//DTD SVG 1.1//EN"
 "http://www.w3.org/Graphics/SVG/1.1/DTD/svg11.dtd">
<!-- Generated by graphviz version 2.40.1 (20161225.0304)
 -->
<!-- Title: cx::web::data_entity::update Pages: 1 -->
<svg width="403pt" height="84pt"
 viewBox="0.00 0.00 403.13 84.00" xmlns="http://www.w3.org/2000/svg" xmlns:xlink="http://www.w3.org/1999/xlink">
<g id="graph0" class="graph" transform="scale(1 1) rotate(0) translate(4 80)">
<title>cx::web::data_entity::update</title>
<!-- Node4 -->
<g id="node1" class="node">
<title>Node4</title>
<g id="a_node1"><a xlink:title=" ">
<polygon fill="#bfbfbf" stroke="#000000" points="0,-23.5 0,-51.5 104.3838,-51.5 104.3838,-23.5 0,-23.5"/>
<text text-anchor="start" x="8" y="-39.5" font-family="Helvetica,sans-Serif" font-size="10.00" fill="#000000">cx::web::data_entity</text>
<text text-anchor="middle" x="52.1919" y="-29.5" font-family="Helvetica,sans-Serif" font-size="10.00" fill="#000000">::update</text>
</a>
</g>
</g>
<!-- Node5 -->
<g id="node2" class="node">
<title>Node5</title>
<g id="a_node2"><a xlink:href="structcx_1_1web_1_1string__entity.html#ad1e200dd478daf44692124233963aec6" target="_top" xlink:title=" ">
<polygon fill="none" stroke="#000000" points="140.3838,-47.5 140.3838,-75.5 249.7578,-75.5 249.7578,-47.5 140.3838,-47.5"/>
<text text-anchor="start" x="148.3838" y="-63.5" font-family="Helvetica,sans-Serif" font-size="10.00" fill="#000000">cx::web::string_entity</text>
<text text-anchor="middle" x="195.0708" y="-53.5" font-family="Helvetica,sans-Serif" font-size="10.00" fill="#000000">::update</text>
</a>
</g>
</g>
<!-- Node4&#45;&gt;Node5 -->
<g id="edge1" class="edge">
<title>Node4&#45;&gt;Node5</title>
<path fill="none" stroke="#191970" d="M104.5834,-46.3004C112.941,-47.7043 121.6739,-49.1712 130.277,-50.6163"/>
<polygon fill="#191970" stroke="#191970" points="129.8449,-54.0927 140.2866,-52.2976 131.0045,-47.1894 129.8449,-54.0927"/>
</g>
<!-- Node6 -->
<g id="node3" class="node">
<title>Node6</title>
<g id="a_node3"><a xlink:href="structcx_1_1web_1_1json__entity.html#a1fbed015492bb7a0c4ec31550fc3de1d" target="_top" xlink:title=" ">
<polygon fill="none" stroke="#000000" points="143.438,-.5 143.438,-28.5 246.7036,-28.5 246.7036,-.5 143.438,-.5"/>
<text text-anchor="start" x="151.438" y="-16.5" font-family="Helvetica,sans-Serif" font-size="10.00" fill="#000000">cx::web::json_entity</text>
<text text-anchor="middle" x="195.0708" y="-6.5" font-family="Helvetica,sans-Serif" font-size="10.00" fill="#000000">::get_json</text>
</a>
</g>
</g>
<!-- Node4&#45;&gt;Node6 -->
<g id="edge2" class="edge">
<title>Node4&#45;&gt;Node6</title>
<path fill="none" stroke="#191970" d="M104.5834,-29.0662C113.8246,-27.5786 123.5245,-26.0172 133.0006,-24.4918"/>
<polygon fill="#191970" stroke="#191970" points="133.8464,-27.9008 143.163,-22.8559 132.7339,-20.9897 133.8464,-27.9008"/>
</g>
<!-- Node7 -->
<g id="node4" class="node">
<title>Node7</title>
<g id="a_node4"><a xlink:href="structcx_1_1web_1_1string__entity.html#a532443f26d829f9d361289d856513ff4" target="_top" xlink:title=" ">
<polygon fill="none" stroke="#000000" points="285.7578,-.5 285.7578,-28.5 395.1318,-28.5 395.1318,-.5 285.7578,-.5"/>
<text text-anchor="start" x="293.7578" y="-16.5" font-family="Helvetica,sans-Serif" font-size="10.00" fill="#000000">cx::web::string_entity</text>
<text text-anchor="middle" x="340.4448" y="-6.5" font-family="Helvetica,sans-Serif" font-size="10.00" fill="#000000">::get_string</text>
</a>
</g>
</g>
<!-- Node6&#45;&gt;Node7 -->
<g id="edge3" class="edge">
<title>Node6&#45;&gt;Node7</title>
<path fill="none" stroke="#191970" d="M246.7336,-14.5C255.9632,-14.5 265.6877,-14.5 275.2381,-14.5"/>
<polygon fill="#191970" stroke="#191970" points="275.5014,-18.0001 285.5013,-14.5 275.5013,-11.0001 275.5014,-18.0001"/>
</g>
</g>
</svg>
