<?xml version="1.0" encoding="UTF-8" standalone="no"?>
<!DOCTYPE svg PUBLIC "-//W3C//DTD SVG 1.1//EN"
 "http://www.w3.org/Graphics/SVG/1.1/DTD/svg11.dtd">
<!-- Generated by graphviz version 2.40.1 (20161225.0304)
 -->
<!-- Title: cx::web::string_entity::valid Pages: 1 -->
<svg width="654pt" height="225pt"
 viewBox="0.00 0.00 654.12 225.00" xmlns="http://www.w3.org/2000/svg" xmlns:xlink="http://www.w3.org/1999/xlink">
<g id="graph0" class="graph" transform="scale(1 1) rotate(0) translate(4 221)">
<title>cx::web::string_entity::valid</title>
<!-- Node33 -->
<g id="node1" class="node">
<title>Node33</title>
<g id="a_node1"><a xlink:title=" ">
<polygon fill="#bfbfbf" stroke="#000000" points="536.7471,-94.5 536.7471,-122.5 646.1211,-122.5 646.1211,-94.5 536.7471,-94.5"/>
<text text-anchor="start" x="544.7471" y="-110.5" font-family="Helvetica,sans-Serif" font-size="10.00" fill="#000000">cx::web::string_entity</text>
<text text-anchor="middle" x="591.4341" y="-100.5" font-family="Helvetica,sans-Serif" font-size="10.00" fill="#000000">::valid</text>
</a>
</g>
</g>
<!-- Node34 -->
<g id="node2" class="node">
<title>Node34</title>
<g id="a_node2"><a xlink:href="structcx_1_1web_1_1json__entity.html#aa681ca07ba01ea1346649b9bb01c71af" target="_top" xlink:title=" ">
<polygon fill="none" stroke="#000000" points="397.4814,-94.5 397.4814,-122.5 500.7471,-122.5 500.7471,-94.5 397.4814,-94.5"/>
<text text-anchor="start" x="405.4814" y="-110.5" font-family="Helvetica,sans-Serif" font-size="10.00" fill="#000000">cx::web::json_entity</text>
<text text-anchor="middle" x="449.1143" y="-100.5" font-family="Helvetica,sans-Serif" font-size="10.00" fill="#000000">::valid</text>
</a>
</g>
</g>
<!-- Node33&#45;&gt;Node34 -->
<g id="edge1" class="edge">
<title>Node33&#45;&gt;Node34</title>
<path fill="none" stroke="#191970" d="M526.2514,-108.5C517.8521,-108.5 509.341,-108.5 501.1905,-108.5"/>
<polygon fill="#191970" stroke="#191970" points="526.4096,-112.0001 536.4095,-108.5 526.4095,-105.0001 526.4096,-112.0001"/>
</g>
<!-- Node35 -->
<g id="node3" class="node">
<title>Node35</title>
<g id="a_node3"><a xlink:href="classcx_1_1web_1_1_country_code_entity.html#a6ffe3c92cfa3fd68176b29aa83c61e2e" target="_top" xlink:title=" ">
<polygon fill="none" stroke="#000000" points="216.2529,-188.5 216.2529,-216.5 355.6416,-216.5 355.6416,-188.5 216.2529,-188.5"/>
<text text-anchor="start" x="224.2529" y="-204.5" font-family="Helvetica,sans-Serif" font-size="10.00" fill="#000000">cx::web::CountryCodeEntity</text>
<text text-anchor="middle" x="285.9473" y="-194.5" font-family="Helvetica,sans-Serif" font-size="10.00" fill="#000000">::valid</text>
</a>
</g>
</g>
<!-- Node34&#45;&gt;Node35 -->
<g id="edge2" class="edge">
<title>Node34&#45;&gt;Node35</title>
<path fill="none" stroke="#191970" d="M427.6001,-129.9419C410.8324,-145.6019 386.2994,-166.318 361.4814,-179.5 355.0651,-182.908 348.068,-185.8907 341.0056,-188.4782"/>
<polygon fill="#191970" stroke="#191970" points="430.3553,-132.1507 435.175,-122.7156 425.5235,-127.0858 430.3553,-132.1507"/>
</g>
<!-- Node36 -->
<g id="node4" class="node">
<title>Node36</title>
<g id="a_node4"><a xlink:href="classcx_1_1web_1_1_subscription_entity.html#a5a5594f78e58387470a8453c62dab7f4" target="_top" xlink:title=" ">
<polygon fill="none" stroke="#000000" points="218.1987,-141.5 218.1987,-169.5 353.6958,-169.5 353.6958,-141.5 218.1987,-141.5"/>
<text text-anchor="start" x="226.1987" y="-157.5" font-family="Helvetica,sans-Serif" font-size="10.00" fill="#000000">cx::web::SubscriptionEntity</text>
<text text-anchor="middle" x="285.9473" y="-147.5" font-family="Helvetica,sans-Serif" font-size="10.00" fill="#000000">::valid</text>
</a>
</g>
</g>
<!-- Node34&#45;&gt;Node36 -->
<g id="edge3" class="edge">
<title>Node34&#45;&gt;Node36</title>
<path fill="none" stroke="#191970" d="M390.4668,-125.3933C372.1447,-130.671 352.1427,-136.4325 334.5868,-141.4894"/>
<polygon fill="#191970" stroke="#191970" points="391.5183,-128.7328 400.1588,-122.6015 389.5807,-122.0063 391.5183,-128.7328"/>
</g>
<!-- Node39 -->
<g id="node7" class="node">
<title>Node39</title>
<g id="a_node7"><a xlink:href="classcx_1_1details_1_1_subscription_query_helper.html#a090aacc3c4e2b581bd052a65d21b627c" target="_top" xlink:title=" ">
<polygon fill="none" stroke="#000000" points="225.4229,-94.5 225.4229,-122.5 346.4717,-122.5 346.4717,-94.5 225.4229,-94.5"/>
<text text-anchor="start" x="233.4229" y="-110.5" font-family="Helvetica,sans-Serif" font-size="10.00" fill="#000000">cx::details::Subscription</text>
<text text-anchor="middle" x="285.9473" y="-100.5" font-family="Helvetica,sans-Serif" font-size="10.00" fill="#000000">QueryHelper::authorise</text>
</a>
</g>
</g>
<!-- Node34&#45;&gt;Node39 -->
<g id="edge6" class="edge">
<title>Node34&#45;&gt;Node39</title>
<path fill="none" stroke="#191970" d="M386.6805,-108.5C373.5421,-108.5 359.7014,-108.5 346.6285,-108.5"/>
<polygon fill="#191970" stroke="#191970" points="387.0386,-112.0001 397.0386,-108.5 387.0386,-105.0001 387.0386,-112.0001"/>
</g>
<!-- Node40 -->
<g id="node8" class="node">
<title>Node40</title>
<g id="a_node8"><a xlink:href="classcx_1_1details_1_1_subscription_query_helper.html#a11b95f11ce0d7a8b6c512ff21343a0ae" target="_top" xlink:title=" ">
<polygon fill="none" stroke="#000000" points="210.4131,-47.5 210.4131,-75.5 361.4814,-75.5 361.4814,-47.5 210.4131,-47.5"/>
<text text-anchor="start" x="218.4131" y="-63.5" font-family="Helvetica,sans-Serif" font-size="10.00" fill="#000000">cx::details::Subscription</text>
<text text-anchor="middle" x="285.9473" y="-53.5" font-family="Helvetica,sans-Serif" font-size="10.00" fill="#000000">QueryHelper::getCountryCode</text>
</a>
</g>
</g>
<!-- Node34&#45;&gt;Node40 -->
<g id="edge7" class="edge">
<title>Node34&#45;&gt;Node40</title>
<path fill="none" stroke="#191970" d="M390.4668,-91.6067C372.1447,-86.329 352.1427,-80.5675 334.5868,-75.5106"/>
<polygon fill="#191970" stroke="#191970" points="389.5807,-94.9937 400.1588,-94.3985 391.5183,-88.2672 389.5807,-94.9937"/>
</g>
<!-- Node41 -->
<g id="node9" class="node">
<title>Node41</title>
<g id="a_node9"><a xlink:href="classcx_1_1details_1_1_subscription_query_helper.html#af5b40ae5c6920ce53be8108dc910db58" target="_top" xlink:title=" ">
<polygon fill="none" stroke="#000000" points="215.9697,-.5 215.9697,-28.5 355.9248,-28.5 355.9248,-.5 215.9697,-.5"/>
<text text-anchor="start" x="223.9697" y="-16.5" font-family="Helvetica,sans-Serif" font-size="10.00" fill="#000000">cx::details::Subscription</text>
<text text-anchor="middle" x="285.9473" y="-6.5" font-family="Helvetica,sans-Serif" font-size="10.00" fill="#000000">QueryHelper::getEquipment</text>
</a>
</g>
</g>
<!-- Node34&#45;&gt;Node41 -->
<g id="edge8" class="edge">
<title>Node34&#45;&gt;Node41</title>
<path fill="none" stroke="#191970" d="M427.1977,-87.185C410.3874,-71.831 385.98,-51.5932 361.4814,-38.5 354.443,-34.7383 346.7167,-31.4492 338.9754,-28.6117"/>
<polygon fill="#191970" stroke="#191970" points="425.1053,-90.0193 434.8069,-94.2773 429.8781,-84.8987 425.1053,-90.0193"/>
</g>
<!-- Node37 -->
<g id="node5" class="node">
<title>Node37</title>
<g id="a_node5"><a xlink:href="classcx_1_1details_1_1_subscription_query_helper.html#a57ed35c96c2167ac90c88d869798d4c4" target="_top" xlink:title=" ">
<polygon fill="none" stroke="#000000" points="5.5615,-164.5 5.5615,-192.5 168.8516,-192.5 168.8516,-164.5 5.5615,-164.5"/>
<text text-anchor="start" x="13.5615" y="-180.5" font-family="Helvetica,sans-Serif" font-size="10.00" fill="#000000">cx::details::Subscription</text>
<text text-anchor="middle" x="87.2065" y="-170.5" font-family="Helvetica,sans-Serif" font-size="10.00" fill="#000000">QueryHelper::getFullSubscription</text>
</a>
</g>
</g>
<!-- Node36&#45;&gt;Node37 -->
<g id="edge4" class="edge">
<title>Node36&#45;&gt;Node37</title>
<path fill="none" stroke="#191970" d="M208.0055,-164.5201C195.2553,-165.9957 182.0108,-167.5284 169.167,-169.0148"/>
<polygon fill="#191970" stroke="#191970" points="208.5765,-167.9775 218.1078,-163.351 207.7717,-161.0239 208.5765,-167.9775"/>
</g>
<!-- Node38 -->
<g id="node6" class="node">
<title>Node38</title>
<g id="a_node6"><a xlink:href="classcx_1_1details_1_1_subscription_query_helper.html#a10fcdbea096ccde2ba79ccccb87cd293" target="_top" xlink:title=" ">
<polygon fill="none" stroke="#000000" points="0,-117.5 0,-145.5 174.4131,-145.5 174.4131,-117.5 0,-117.5"/>
<text text-anchor="start" x="8" y="-133.5" font-family="Helvetica,sans-Serif" font-size="10.00" fill="#000000">cx::details::Subscription</text>
<text text-anchor="middle" x="87.2065" y="-123.5" font-family="Helvetica,sans-Serif" font-size="10.00" fill="#000000">QueryHelper::getPublicSubscription</text>
</a>
</g>
</g>
<!-- Node36&#45;&gt;Node38 -->
<g id="edge5" class="edge">
<title>Node36&#45;&gt;Node38</title>
<path fill="none" stroke="#191970" d="M208.0866,-146.0975C197.0425,-144.7638 185.626,-143.3852 174.4189,-142.0318"/>
<polygon fill="#191970" stroke="#191970" points="207.7603,-149.5835 218.1078,-147.3077 208.5996,-142.634 207.7603,-149.5835"/>
</g>
</g>
</svg>
