<?xml version="1.0" encoding="UTF-8" standalone="no"?>
<!DOCTYPE svg PUBLIC "-//W3C//DTD SVG 1.1//EN"
 "http://www.w3.org/Graphics/SVG/1.1/DTD/svg11.dtd">
<!-- Generated by graphviz version 2.40.1 (20161225.0304)
 -->
<!-- Title: cx::web::Credentials::valid Pages: 1 -->
<svg width="304pt" height="84pt"
 viewBox="0.00 0.00 304.43 84.00" xmlns="http://www.w3.org/2000/svg" xmlns:xlink="http://www.w3.org/1999/xlink">
<g id="graph0" class="graph" transform="scale(1 1) rotate(0) translate(4 80)">
<title>cx::web::Credentials::valid</title>
<!-- Node1 -->
<g id="node1" class="node">
<title>Node1</title>
<g id="a_node1"><a xlink:title=" ">
<polygon fill="#bfbfbf" stroke="#000000" points="190.3936,-23.5 190.3936,-51.5 296.4326,-51.5 296.4326,-23.5 190.3936,-23.5"/>
<text text-anchor="start" x="198.3936" y="-39.5" font-family="Helvetica,sans-Serif" font-size="10.00" fill="#000000">cx::web::Credentials</text>
<text text-anchor="middle" x="243.4131" y="-29.5" font-family="Helvetica,sans-Serif" font-size="10.00" fill="#000000">::valid</text>
</a>
</g>
</g>
<!-- Node2 -->
<g id="node2" class="node">
<title>Node2</title>
<g id="a_node2"><a xlink:href="classcx_1_1_session_authorization_facade.html#a629a99ac2bd1d40335c61c540f8fc729" target="_top" xlink:title=" ">
<polygon fill="none" stroke="#000000" points="14.4458,-47.5 14.4458,-75.5 139.9478,-75.5 139.9478,-47.5 14.4458,-47.5"/>
<text text-anchor="start" x="22.4458" y="-63.5" font-family="Helvetica,sans-Serif" font-size="10.00" fill="#000000">cx::SessionAuthorization</text>
<text text-anchor="middle" x="77.1968" y="-53.5" font-family="Helvetica,sans-Serif" font-size="10.00" fill="#000000">Facade::construct</text>
</a>
</g>
</g>
<!-- Node1&#45;&gt;Node2 -->
<g id="edge1" class="edge">
<title>Node1&#45;&gt;Node2</title>
<path fill="none" stroke="#191970" d="M180.4499,-46.5913C167.2706,-48.4942 153.372,-50.501 140.1916,-52.4042"/>
<polygon fill="#191970" stroke="#191970" points="180.9671,-50.053 190.3642,-45.1597 179.9666,-43.1248 180.9671,-50.053"/>
</g>
<!-- Node3 -->
<g id="node3" class="node">
<title>Node3</title>
<g id="a_node3"><a xlink:href="classcx_1_1_meeting_session_parameters_builder.html#af7a2cd17d0f412d3d866a4a8f8b0ec54" target="_top" xlink:title=" ">
<polygon fill="none" stroke="#000000" points="0,-.5 0,-28.5 154.3936,-28.5 154.3936,-.5 0,-.5"/>
<text text-anchor="start" x="8" y="-16.5" font-family="Helvetica,sans-Serif" font-size="10.00" fill="#000000">cx::MeetingSessionParameters</text>
<text text-anchor="middle" x="77.1968" y="-6.5" font-family="Helvetica,sans-Serif" font-size="10.00" fill="#000000">Builder::construct</text>
</a>
</g>
</g>
<!-- Node1&#45;&gt;Node3 -->
<g id="edge2" class="edge">
<title>Node1&#45;&gt;Node3</title>
<path fill="none" stroke="#191970" d="M180.2837,-28.7645C171.8813,-27.6019 163.1893,-26.3991 154.5796,-25.2078"/>
<polygon fill="#191970" stroke="#191970" points="179.9788,-32.2556 190.3642,-30.1594 180.9384,-25.3217 179.9788,-32.2556"/>
</g>
</g>
</svg>
