<?xml version="1.0" encoding="UTF-8" standalone="no"?>
<!DOCTYPE svg PUBLIC "-//W3C//DTD SVG 1.1//EN"
 "http://www.w3.org/Graphics/SVG/1.1/DTD/svg11.dtd">
<!-- Generated by graphviz version 2.40.1 (20161225.0304)
 -->
<!-- Title: cx::web::string_entity::update Pages: 1 -->
<svg width="468pt" height="84pt"
 viewBox="0.00 0.00 468.17 84.00" xmlns="http://www.w3.org/2000/svg" xmlns:xlink="http://www.w3.org/1999/xlink">
<g id="graph0" class="graph" transform="scale(1 1) rotate(0) translate(4 80)">
<title>cx::web::string_entity::update</title>
<!-- Node28 -->
<g id="node1" class="node">
<title>Node28</title>
<g id="a_node1"><a xlink:title=" ">
<polygon fill="#bfbfbf" stroke="#000000" points="350.7969,-23.5 350.7969,-51.5 460.1709,-51.5 460.1709,-23.5 350.7969,-23.5"/>
<text text-anchor="start" x="358.7969" y="-39.5" font-family="Helvetica,sans-Serif" font-size="10.00" fill="#000000">cx::web::string_entity</text>
<text text-anchor="middle" x="405.4839" y="-29.5" font-family="Helvetica,sans-Serif" font-size="10.00" fill="#000000">::update</text>
</a>
</g>
</g>
<!-- Node29 -->
<g id="node2" class="node">
<title>Node29</title>
<g id="a_node2"><a xlink:href="structcx_1_1web_1_1data__entity.html#a6ee3f7541c9752790cf992a277d34cb7" target="_top" xlink:title=" ">
<polygon fill="none" stroke="#000000" points="210.4131,-23.5 210.4131,-51.5 314.7969,-51.5 314.7969,-23.5 210.4131,-23.5"/>
<text text-anchor="start" x="218.4131" y="-39.5" font-family="Helvetica,sans-Serif" font-size="10.00" fill="#000000">cx::web::data_entity</text>
<text text-anchor="middle" x="262.605" y="-29.5" font-family="Helvetica,sans-Serif" font-size="10.00" fill="#000000">::update</text>
</a>
</g>
</g>
<!-- Node28&#45;&gt;Node29 -->
<g id="edge1" class="edge">
<title>Node28&#45;&gt;Node29</title>
<path fill="none" stroke="#191970" d="M340.4275,-37.5C331.9701,-37.5 323.3925,-37.5 315.1738,-37.5"/>
<polygon fill="#191970" stroke="#191970" points="340.6518,-41.0001 350.6518,-37.5 340.6518,-34.0001 340.6518,-41.0001"/>
</g>
<!-- Node30 -->
<g id="node3" class="node">
<title>Node30</title>
<g id="a_node3"><a xlink:href="classcx_1_1web_1_1_country_code_entity.html#a2869734b7e749da471dc8eb4ada06a0e" target="_top" xlink:title=" ">
<polygon fill="none" stroke="#000000" points="17.5122,-47.5 17.5122,-75.5 156.9009,-75.5 156.9009,-47.5 17.5122,-47.5"/>
<text text-anchor="start" x="25.5122" y="-63.5" font-family="Helvetica,sans-Serif" font-size="10.00" fill="#000000">cx::web::CountryCodeEntity</text>
<text text-anchor="middle" x="87.2065" y="-53.5" font-family="Helvetica,sans-Serif" font-size="10.00" fill="#000000">::update</text>
</a>
</g>
</g>
<!-- Node29&#45;&gt;Node30 -->
<g id="edge2" class="edge">
<title>Node29&#45;&gt;Node30</title>
<path fill="none" stroke="#191970" d="M200.0154,-46.0642C186.0759,-47.9716 171.212,-50.0054 157.0031,-51.9496"/>
<polygon fill="#191970" stroke="#191970" points="200.5465,-49.5242 209.9797,-44.7008 199.5975,-42.5889 200.5465,-49.5242"/>
</g>
<!-- Node31 -->
<g id="node4" class="node">
<title>Node31</title>
<g id="a_node4"><a xlink:href="classcx_1_1details_1_1_subscription_query_helper.html#a10fcdbea096ccde2ba79ccccb87cd293" target="_top" xlink:title=" ">
<polygon fill="none" stroke="#000000" points="0,-.5 0,-28.5 174.4131,-28.5 174.4131,-.5 0,-.5"/>
<text text-anchor="start" x="8" y="-16.5" font-family="Helvetica,sans-Serif" font-size="10.00" fill="#000000">cx::details::Subscription</text>
<text text-anchor="middle" x="87.2065" y="-6.5" font-family="Helvetica,sans-Serif" font-size="10.00" fill="#000000">QueryHelper::getPublicSubscription</text>
</a>
</g>
</g>
<!-- Node29&#45;&gt;Node31 -->
<g id="edge3" class="edge">
<title>Node29&#45;&gt;Node31</title>
<path fill="none" stroke="#191970" d="M200.0597,-29.2984C191.7759,-28.2122 183.165,-27.083 174.5585,-25.9545"/>
<polygon fill="#191970" stroke="#191970" points="199.6095,-32.7693 209.9797,-30.5992 200.5196,-25.8287 199.6095,-32.7693"/>
</g>
</g>
</svg>
