<?xml version="1.0" encoding="UTF-8" standalone="no"?>
<!DOCTYPE svg PUBLIC "-//W3C//DTD SVG 1.1//EN"
 "http://www.w3.org/Graphics/SVG/1.1/DTD/svg11.dtd">
<!-- Generated by graphviz version 2.40.1 (20161225.0304)
 -->
<!-- Title: cx::web::json_entity::valid Pages: 1 -->
<svg width="402pt" height="84pt"
 viewBox="0.00 0.00 402.01 84.00" xmlns="http://www.w3.org/2000/svg" xmlns:xlink="http://www.w3.org/1999/xlink">
<g id="graph0" class="graph" transform="scale(1 1) rotate(0) translate(4 80)">
<title>cx::web::json_entity::valid</title>
<!-- Node18 -->
<g id="node1" class="node">
<title>Node18</title>
<g id="a_node1"><a xlink:title=" ">
<polygon fill="#bfbfbf" stroke="#000000" points="0,-23.5 0,-51.5 103.2656,-51.5 103.2656,-23.5 0,-23.5"/>
<text text-anchor="start" x="8" y="-39.5" font-family="Helvetica,sans-Serif" font-size="10.00" fill="#000000">cx::web::json_entity</text>
<text text-anchor="middle" x="51.6328" y="-29.5" font-family="Helvetica,sans-Serif" font-size="10.00" fill="#000000">::valid</text>
</a>
</g>
</g>
<!-- Node19 -->
<g id="node2" class="node">
<title>Node19</title>
<g id="a_node2"><a xlink:href="structcx_1_1web_1_1string__entity.html#adbe62e791cc18ea9f4ae7fc45468c32c" target="_top" xlink:title=" ">
<polygon fill="none" stroke="#000000" points="139.2656,-47.5 139.2656,-75.5 248.6396,-75.5 248.6396,-47.5 139.2656,-47.5"/>
<text text-anchor="start" x="147.2656" y="-63.5" font-family="Helvetica,sans-Serif" font-size="10.00" fill="#000000">cx::web::string_entity</text>
<text text-anchor="middle" x="193.9526" y="-53.5" font-family="Helvetica,sans-Serif" font-size="10.00" fill="#000000">::valid</text>
</a>
</g>
</g>
<!-- Node18&#45;&gt;Node19 -->
<g id="edge1" class="edge">
<title>Node18&#45;&gt;Node19</title>
<path fill="none" stroke="#191970" d="M103.4161,-46.2324C111.7564,-47.6389 120.481,-49.1102 129.0821,-50.5606"/>
<polygon fill="#191970" stroke="#191970" points="128.6491,-54.0369 139.0919,-52.2486 129.8132,-47.1344 128.6491,-54.0369"/>
</g>
<!-- Node20 -->
<g id="node3" class="node">
<title>Node20</title>
<g id="a_node3"><a xlink:href="structcx_1_1web_1_1json__entity.html#a1fbed015492bb7a0c4ec31550fc3de1d" target="_top" xlink:title=" ">
<polygon fill="none" stroke="#000000" points="142.3198,-.5 142.3198,-28.5 245.5854,-28.5 245.5854,-.5 142.3198,-.5"/>
<text text-anchor="start" x="150.3198" y="-16.5" font-family="Helvetica,sans-Serif" font-size="10.00" fill="#000000">cx::web::json_entity</text>
<text text-anchor="middle" x="193.9526" y="-6.5" font-family="Helvetica,sans-Serif" font-size="10.00" fill="#000000">::get_json</text>
</a>
</g>
</g>
<!-- Node18&#45;&gt;Node20 -->
<g id="edge2" class="edge">
<title>Node18&#45;&gt;Node20</title>
<path fill="none" stroke="#191970" d="M103.4161,-29.1314C112.6381,-27.6411 122.33,-26.0748 131.8052,-24.5435"/>
<polygon fill="#191970" stroke="#191970" points="132.6559,-27.9515 141.9694,-22.9009 131.539,-21.0412 132.6559,-27.9515"/>
</g>
<!-- Node21 -->
<g id="node4" class="node">
<title>Node21</title>
<g id="a_node4"><a xlink:href="structcx_1_1web_1_1string__entity.html#a532443f26d829f9d361289d856513ff4" target="_top" xlink:title=" ">
<polygon fill="none" stroke="#000000" points="284.6396,-.5 284.6396,-28.5 394.0137,-28.5 394.0137,-.5 284.6396,-.5"/>
<text text-anchor="start" x="292.6396" y="-16.5" font-family="Helvetica,sans-Serif" font-size="10.00" fill="#000000">cx::web::string_entity</text>
<text text-anchor="middle" x="339.3267" y="-6.5" font-family="Helvetica,sans-Serif" font-size="10.00" fill="#000000">::get_string</text>
</a>
</g>
</g>
<!-- Node20&#45;&gt;Node21 -->
<g id="edge3" class="edge">
<title>Node20&#45;&gt;Node21</title>
<path fill="none" stroke="#191970" d="M245.6154,-14.5C254.8451,-14.5 264.5696,-14.5 274.12,-14.5"/>
<polygon fill="#191970" stroke="#191970" points="274.3832,-18.0001 284.3832,-14.5 274.3831,-11.0001 274.3832,-18.0001"/>
</g>
</g>
</svg>
