<?xml version="1.0" encoding="UTF-8" standalone="no"?>
<!DOCTYPE svg PUBLIC "-//W3C//DTD SVG 1.1//EN"
 "http://www.w3.org/Graphics/SVG/1.1/DTD/svg11.dtd">
<!-- Generated by graphviz version 2.40.1 (20161225.0304)
 -->
<!-- Title: StrongIdentity&lt; Tag, T &gt; Pages: 1 -->
<svg width="130pt" height="365pt"
 viewBox="0.00 0.00 130.20 365.00" xmlns="http://www.w3.org/2000/svg" xmlns:xlink="http://www.w3.org/1999/xlink">
<g id="graph0" class="graph" transform="scale(1 1) rotate(0) translate(4 361)">
<title>StrongIdentity&lt; Tag, T &gt;</title>
<!-- Node0 -->
<g id="node1" class="node">
<title>Node0</title>
<g id="a_node1"><a xlink:title=" ">
<polygon fill="#bfbfbf" stroke="#000000" points="0,-.5 0,-84.5 122.2012,-84.5 122.2012,-.5 0,-.5"/>
<text text-anchor="middle" x="61.1006" y="-72.5" font-family="Helvetica,sans-Serif" font-size="10.00" fill="#000000">StrongIdentity&lt; Tag, T &gt;</text>
<polyline fill="none" stroke="#000000" points="0,-66.5 122.2012,-66.5 "/>
<text text-anchor="middle" x="61.1006" y="-54.5" font-family="Helvetica,sans-Serif" font-size="10.00" fill="#000000"> </text>
<polyline fill="none" stroke="#000000" points="0,-48.5 122.2012,-48.5 "/>
<text text-anchor="start" x="8" y="-36.5" font-family="Helvetica,sans-Serif" font-size="10.00" fill="#000000">+ get_value()</text>
<text text-anchor="start" x="8" y="-26.5" font-family="Helvetica,sans-Serif" font-size="10.00" fill="#000000">+ get_value()</text>
<text text-anchor="start" x="8" y="-16.5" font-family="Helvetica,sans-Serif" font-size="10.00" fill="#000000">+ is_empty()</text>
<text text-anchor="start" x="8" y="-6.5" font-family="Helvetica,sans-Serif" font-size="10.00" fill="#000000">+ is_defined()</text>
</a>
</g>
</g>
<!-- Node1 -->
<g id="node2" class="node">
<title>Node1</title>
<g id="a_node2"><a xlink:href="structdetails_1_1strong__typedef.html" target="_top" xlink:title=" ">
<polygon fill="none" stroke="#000000" points="2.7905,-121.5 2.7905,-245.5 119.4106,-245.5 119.4106,-121.5 2.7905,-121.5"/>
<text text-anchor="start" x="10.7905" y="-233.5" font-family="Helvetica,sans-Serif" font-size="10.00" fill="#000000">details::strong_typedef</text>
<text text-anchor="middle" x="61.1006" y="-223.5" font-family="Helvetica,sans-Serif" font-size="10.00" fill="#000000">&lt; Tag, T &gt;</text>
<polyline fill="none" stroke="#000000" points="2.7905,-217.5 119.4106,-217.5 "/>
<text text-anchor="start" x="10.7905" y="-205.5" font-family="Helvetica,sans-Serif" font-size="10.00" fill="#000000">+ t</text>
<polyline fill="none" stroke="#000000" points="2.7905,-199.5 119.4106,-199.5 "/>
<text text-anchor="start" x="10.7905" y="-187.5" font-family="Helvetica,sans-Serif" font-size="10.00" fill="#000000">+ strong_typedef()</text>
<text text-anchor="start" x="10.7905" y="-177.5" font-family="Helvetica,sans-Serif" font-size="10.00" fill="#000000">+ strong_typedef()</text>
<text text-anchor="start" x="10.7905" y="-167.5" font-family="Helvetica,sans-Serif" font-size="10.00" fill="#000000">+ strong_typedef()</text>
<text text-anchor="start" x="10.7905" y="-157.5" font-family="Helvetica,sans-Serif" font-size="10.00" fill="#000000">+ operator const T &amp;()</text>
<text text-anchor="start" x="10.7905" y="-147.5" font-family="Helvetica,sans-Serif" font-size="10.00" fill="#000000">+ operator T &amp;()</text>
<text text-anchor="start" x="10.7905" y="-137.5" font-family="Helvetica,sans-Serif" font-size="10.00" fill="#000000">+ operator==()</text>
<text text-anchor="start" x="10.7905" y="-127.5" font-family="Helvetica,sans-Serif" font-size="10.00" fill="#000000">+ operator&lt;()</text>
</a>
</g>
</g>
<!-- Node1&#45;&gt;Node0 -->
<g id="edge1" class="edge">
<title>Node1&#45;&gt;Node0</title>
<path fill="none" stroke="#191970" d="M61.1006,-111.0326C61.1006,-101.9755 61.1006,-92.9617 61.1006,-84.5898"/>
<polygon fill="none" stroke="#191970" points="57.6007,-111.2449 61.1006,-121.2449 64.6007,-111.2449 57.6007,-111.2449"/>
</g>
<!-- Node2 -->
<g id="node3" class="node">
<title>Node2</title>
<g id="a_node3"><a xlink:title=" ">
<polygon fill="none" stroke="#bfbfbf" points="2.2339,-282.5 2.2339,-356.5 119.9673,-356.5 119.9673,-282.5 2.2339,-282.5"/>
<text text-anchor="start" x="10.2339" y="-344.5" font-family="Helvetica,sans-Serif" font-size="10.00" fill="#000000">boost::totally_ordered1</text>
<text text-anchor="start" x="10.2339" y="-334.5" font-family="Helvetica,sans-Serif" font-size="10.00" fill="#000000">&lt; Tag, boost::totally</text>
<text text-anchor="middle" x="61.1006" y="-324.5" font-family="Helvetica,sans-Serif" font-size="10.00" fill="#000000">_ordered2&lt; Tag, T &gt; &gt;</text>
<polyline fill="none" stroke="#bfbfbf" points="2.2339,-318.5 119.9673,-318.5 "/>
<text text-anchor="middle" x="61.1006" y="-306.5" font-family="Helvetica,sans-Serif" font-size="10.00" fill="#000000"> </text>
<polyline fill="none" stroke="#bfbfbf" points="2.2339,-300.5 119.9673,-300.5 "/>
<text text-anchor="middle" x="61.1006" y="-288.5" font-family="Helvetica,sans-Serif" font-size="10.00" fill="#000000"> </text>
</a>
</g>
</g>
<!-- Node2&#45;&gt;Node1 -->
<g id="edge2" class="edge">
<title>Node2&#45;&gt;Node1</title>
<path fill="none" stroke="#191970" d="M61.1006,-272.1948C61.1006,-263.6499 61.1006,-254.623 61.1006,-245.7288"/>
<polygon fill="none" stroke="#191970" points="57.6007,-272.3374 61.1006,-282.3374 64.6007,-272.3374 57.6007,-272.3374"/>
</g>
</g>
</svg>
