<?xml version="1.0" encoding="UTF-8" standalone="no"?>
<!DOCTYPE svg PUBLIC "-//W3C//DTD SVG 1.1//EN"
 "http://www.w3.org/Graphics/SVG/1.1/DTD/svg11.dtd">
<!-- Generated by graphviz version 2.40.1 (20161225.0304)
 -->
<!-- Title: cx::web::AuthorizationParameters Pages: 1 -->
<svg width="174pt" height="345pt"
 viewBox="0.00 0.00 173.51 345.00" xmlns="http://www.w3.org/2000/svg" xmlns:xlink="http://www.w3.org/1999/xlink">
<g id="graph0" class="graph" transform="scale(1 1) rotate(0) translate(4 341)">
<title>cx::web::AuthorizationParameters</title>
<!-- Node0 -->
<g id="node1" class="node">
<title>Node0</title>
<g id="a_node1"><a xlink:title=" ">
<polygon fill="#bfbfbf" stroke="#000000" points="0,-.5 0,-84.5 165.5117,-84.5 165.5117,-.5 0,-.5"/>
<text text-anchor="middle" x="82.7559" y="-72.5" font-family="Helvetica,sans-Serif" font-size="10.00" fill="#000000">cx::web::AuthorizationParameters</text>
<polyline fill="none" stroke="#000000" points="0,-66.5 165.5117,-66.5 "/>
<text text-anchor="start" x="8" y="-54.5" font-family="Helvetica,sans-Serif" font-size="10.00" fill="#000000">+ code</text>
<text text-anchor="start" x="8" y="-44.5" font-family="Helvetica,sans-Serif" font-size="10.00" fill="#000000">+ redirect_uri</text>
<text text-anchor="start" x="8" y="-34.5" font-family="Helvetica,sans-Serif" font-size="10.00" fill="#000000">+ login</text>
<text text-anchor="start" x="8" y="-24.5" font-family="Helvetica,sans-Serif" font-size="10.00" fill="#000000">+ password</text>
<polyline fill="none" stroke="#000000" points="0,-18.5 165.5117,-18.5 "/>
<text text-anchor="middle" x="82.7559" y="-6.5" font-family="Helvetica,sans-Serif" font-size="10.00" fill="#000000"> </text>
</a>
</g>
</g>
<!-- Node1 -->
<g id="node2" class="node">
<title>Node1</title>
<g id="a_node2"><a xlink:href="structcx_1_1web_1_1_access_token_cache.html" target="_top" xlink:title=" ">
<polygon fill="none" stroke="#000000" points="11.1157,-121.5 11.1157,-215.5 154.396,-215.5 154.396,-121.5 11.1157,-121.5"/>
<text text-anchor="middle" x="82.7559" y="-203.5" font-family="Helvetica,sans-Serif" font-size="10.00" fill="#000000">cx::web::AccessTokenCache</text>
<polyline fill="none" stroke="#000000" points="11.1157,-197.5 154.396,-197.5 "/>
<text text-anchor="start" x="19.1157" y="-185.5" font-family="Helvetica,sans-Serif" font-size="10.00" fill="#000000">+ access_token</text>
<text text-anchor="start" x="19.1157" y="-175.5" font-family="Helvetica,sans-Serif" font-size="10.00" fill="#000000">+ refresh_token</text>
<polyline fill="none" stroke="#000000" points="11.1157,-169.5 154.396,-169.5 "/>
<text text-anchor="start" x="19.1157" y="-157.5" font-family="Helvetica,sans-Serif" font-size="10.00" fill="#000000">+ AccessTokenCache()</text>
<text text-anchor="start" x="19.1157" y="-147.5" font-family="Helvetica,sans-Serif" font-size="10.00" fill="#000000">+ AccessTokenCache()</text>
<text text-anchor="start" x="19.1157" y="-137.5" font-family="Helvetica,sans-Serif" font-size="10.00" fill="#000000">+ serialize()</text>
<text text-anchor="start" x="19.1157" y="-127.5" font-family="Helvetica,sans-Serif" font-size="10.00" fill="#000000">+ deserialize()</text>
</a>
</g>
</g>
<!-- Node1&#45;&gt;Node0 -->
<g id="edge1" class="edge">
<title>Node1&#45;&gt;Node0</title>
<path fill="none" stroke="#191970" d="M82.7559,-110.9387C82.7559,-102.0848 82.7559,-93.0866 82.7559,-84.6505"/>
<polygon fill="none" stroke="#191970" points="79.256,-111.2237 82.7559,-121.2238 86.256,-111.2238 79.256,-111.2237"/>
</g>
<!-- Node2 -->
<g id="node3" class="node">
<title>Node2</title>
<g id="a_node3"><a xlink:href="structcx_1_1web_1_1_cached_parameters.html" target="_top" xlink:title=" ">
<polygon fill="none" stroke="#000000" points="11.9507,-252.5 11.9507,-336.5 153.561,-336.5 153.561,-252.5 11.9507,-252.5"/>
<text text-anchor="middle" x="82.7559" y="-324.5" font-family="Helvetica,sans-Serif" font-size="10.00" fill="#000000">cx::web::CachedParameters</text>
<polyline fill="none" stroke="#000000" points="11.9507,-318.5 153.561,-318.5 "/>
<text text-anchor="middle" x="82.7559" y="-306.5" font-family="Helvetica,sans-Serif" font-size="10.00" fill="#000000"> </text>
<polyline fill="none" stroke="#000000" points="11.9507,-300.5 153.561,-300.5 "/>
<text text-anchor="start" x="19.9507" y="-288.5" font-family="Helvetica,sans-Serif" font-size="10.00" fill="#000000">+ serialize()</text>
<text text-anchor="start" x="19.9507" y="-278.5" font-family="Helvetica,sans-Serif" font-size="10.00" fill="#000000">+ deserialize()</text>
<text text-anchor="start" x="19.9507" y="-268.5" font-family="Helvetica,sans-Serif" font-size="10.00" fill="#000000">+ operator&gt;&gt;()</text>
<text text-anchor="start" x="19.9507" y="-258.5" font-family="Helvetica,sans-Serif" font-size="10.00" fill="#000000">+ operator&lt;&lt;()</text>
</a>
</g>
</g>
<!-- Node2&#45;&gt;Node1 -->
<g id="edge2" class="edge">
<title>Node2&#45;&gt;Node1</title>
<path fill="none" stroke="#191970" d="M82.7559,-242.0873C82.7559,-233.3328 82.7559,-224.2974 82.7559,-215.6838"/>
<polygon fill="none" stroke="#191970" points="79.256,-242.1933 82.7559,-252.1933 86.256,-242.1933 79.256,-242.1933"/>
</g>
</g>
</svg>
