<?xml version="1.0" encoding="UTF-8" standalone="no"?>
<!DOCTYPE svg PUBLIC "-//W3C//DTD SVG 1.1//EN"
 "http://www.w3.org/Graphics/SVG/1.1/DTD/svg11.dtd">
<!-- Generated by graphviz version 2.40.1 (20161225.0304)
 -->
<!-- Title: cx::web::string_entity::valid Pages: 1 -->
<!--zoomable 225 -->
<svg id="main" version="1.1" xmlns="http://www.w3.org/2000/svg" xmlns:xlink="http://www.w3.org/1999/xlink" xml:space="preserve" onload="init(evt)">
<style type="text/css"><![CDATA[
.edge:hover path { stroke: red; }
.edge:hover polygon { stroke: red; fill: red; }
]]></style>
<script type="text/javascript"><![CDATA[
var edges = document.getElementsByTagName('g');
if (edges && edges.length) {
  for (var i=0;i<edges.length;i++) {
    if (edges[i].id.substr(0,4)=='edge') {
      edges[i].setAttribute('class','edge');
    }
  }
}
]]></script>
        <defs>
                <circle id="rim" cx="0" cy="0" r="7"/>
                <circle id="rim2" cx="0" cy="0" r="3.5"/>
                <g id="zoomPlus">
                        <use xlink:href="#rim" fill="#404040">
                                <set attributeName="fill" to="#808080" begin="zoomplus.mouseover" end="zoomplus.mouseout"/>
                        </use>
                        <path d="M-4,0h8M0,-4v8" fill="none" stroke="white" stroke-width="1.5" pointer-events="none"/>
                </g>
                <g id="zoomMin">
                        <use xlink:href="#rim" fill="#404040">
                                <set attributeName="fill" to="#808080" begin="zoomminus.mouseover" end="zoomminus.mouseout"/>
                        </use>
                        <path d="M-4,0h8" fill="none" stroke="white" stroke-width="1.5" pointer-events="none"/>
                </g>
                <g id="dirArrow">
                        <path fill="none" stroke="white" stroke-width="1.5" d="M0,-3.0v7 M-2.5,-0.5L0,-3.0L2.5,-0.5"/>
                </g>
               <g id="resetDef">
                       <use xlink:href="#rim2" fill="#404040">
                               <set attributeName="fill" to="#808080" begin="reset.mouseover" end="reset.mouseout"/>
                       </use>
               </g>
        </defs>

<script type="text/javascript">
var viewWidth = 654;
var viewHeight = 225;
var sectionId = 'dynsection-5';
</script>
<script xlink:href="svgpan.js"/>
<svg id="graph" class="graph">
<g id="viewport">
<title>cx::web::string_entity::valid</title>
<!-- Node33 -->
<g id="node1" class="node">
<title>Node33</title>
<g id="a_node1"><a xlink:title=" ">
<polygon fill="#bfbfbf" stroke="#000000" points="536.7471,-94.5 536.7471,-122.5 646.1211,-122.5 646.1211,-94.5 536.7471,-94.5"/>
<text text-anchor="start" x="544.7471" y="-110.5" font-family="Helvetica,sans-Serif" font-size="10.00" fill="#000000">cx::web::string_entity</text>
<text text-anchor="middle" x="591.4341" y="-100.5" font-family="Helvetica,sans-Serif" font-size="10.00" fill="#000000">::valid</text>
</a>
</g>
</g>
<!-- Node34 -->
<g id="node2" class="node">
<title>Node34</title>
<g id="a_node2"><a xlink:href="structcx_1_1web_1_1json__entity.html#aa681ca07ba01ea1346649b9bb01c71af" target="_top" xlink:title=" ">
<polygon fill="none" stroke="#000000" points="397.4814,-94.5 397.4814,-122.5 500.7471,-122.5 500.7471,-94.5 397.4814,-94.5"/>
<text text-anchor="start" x="405.4814" y="-110.5" font-family="Helvetica,sans-Serif" font-size="10.00" fill="#000000">cx::web::json_entity</text>
<text text-anchor="middle" x="449.1143" y="-100.5" font-family="Helvetica,sans-Serif" font-size="10.00" fill="#000000">::valid</text>
</a>
</g>
</g>
<!-- Node33&#45;&gt;Node34 -->
<g id="edge1" class="edge">
<title>Node33&#45;&gt;Node34</title>
<path fill="none" stroke="#191970" d="M526.2514,-108.5C517.8521,-108.5 509.341,-108.5 501.1905,-108.5"/>
<polygon fill="#191970" stroke="#191970" points="526.4096,-112.0001 536.4095,-108.5 526.4095,-105.0001 526.4096,-112.0001"/>
</g>
<!-- Node35 -->
<g id="node3" class="node">
<title>Node35</title>
<g id="a_node3"><a xlink:href="classcx_1_1web_1_1_country_code_entity.html#a6ffe3c92cfa3fd68176b29aa83c61e2e" target="_top" xlink:title=" ">
<polygon fill="none" stroke="#000000" points="216.2529,-188.5 216.2529,-216.5 355.6416,-216.5 355.6416,-188.5 216.2529,-188.5"/>
<text text-anchor="start" x="224.2529" y="-204.5" font-family="Helvetica,sans-Serif" font-size="10.00" fill="#000000">cx::web::CountryCodeEntity</text>
<text text-anchor="middle" x="285.9473" y="-194.5" font-family="Helvetica,sans-Serif" font-size="10.00" fill="#000000">::valid</text>
</a>
</g>
</g>
<!-- Node34&#45;&gt;Node35 -->
<g id="edge2" class="edge">
<title>Node34&#45;&gt;Node35</title>
<path fill="none" stroke="#191970" d="M427.6001,-129.9419C410.8324,-145.6019 386.2994,-166.318 361.4814,-179.5 355.0651,-182.908 348.068,-185.8907 341.0056,-188.4782"/>
<polygon fill="#191970" stroke="#191970" points="430.3553,-132.1507 435.175,-122.7156 425.5235,-127.0858 430.3553,-132.1507"/>
</g>
<!-- Node36 -->
<g id="node4" class="node">
<title>Node36</title>
<g id="a_node4"><a xlink:href="classcx_1_1web_1_1_subscription_entity.html#a5a5594f78e58387470a8453c62dab7f4" target="_top" xlink:title=" ">
<polygon fill="none" stroke="#000000" points="218.1987,-141.5 218.1987,-169.5 353.6958,-169.5 353.6958,-141.5 218.1987,-141.5"/>
<text text-anchor="start" x="226.1987" y="-157.5" font-family="Helvetica,sans-Serif" font-size="10.00" fill="#000000">cx::web::SubscriptionEntity</text>
<text text-anchor="middle" x="285.9473" y="-147.5" font-family="Helvetica,sans-Serif" font-size="10.00" fill="#000000">::valid</text>
</a>
</g>
</g>
<!-- Node34&#45;&gt;Node36 -->
<g id="edge3" class="edge">
<title>Node34&#45;&gt;Node36</title>
<path fill="none" stroke="#191970" d="M390.4668,-125.3933C372.1447,-130.671 352.1427,-136.4325 334.5868,-141.4894"/>
<polygon fill="#191970" stroke="#191970" points="391.5183,-128.7328 400.1588,-122.6015 389.5807,-122.0063 391.5183,-128.7328"/>
</g>
<!-- Node39 -->
<g id="node7" class="node">
<title>Node39</title>
<g id="a_node7"><a xlink:href="classcx_1_1details_1_1_subscription_query_helper.html#a090aacc3c4e2b581bd052a65d21b627c" target="_top" xlink:title=" ">
<polygon fill="none" stroke="#000000" points="225.4229,-94.5 225.4229,-122.5 346.4717,-122.5 346.4717,-94.5 225.4229,-94.5"/>
<text text-anchor="start" x="233.4229" y="-110.5" font-family="Helvetica,sans-Serif" font-size="10.00" fill="#000000">cx::details::Subscription</text>
<text text-anchor="middle" x="285.9473" y="-100.5" font-family="Helvetica,sans-Serif" font-size="10.00" fill="#000000">QueryHelper::authorise</text>
</a>
</g>
</g>
<!-- Node34&#45;&gt;Node39 -->
<g id="edge6" class="edge">
<title>Node34&#45;&gt;Node39</title>
<path fill="none" stroke="#191970" d="M386.6805,-108.5C373.5421,-108.5 359.7014,-108.5 346.6285,-108.5"/>
<polygon fill="#191970" stroke="#191970" points="387.0386,-112.0001 397.0386,-108.5 387.0386,-105.0001 387.0386,-112.0001"/>
</g>
<!-- Node40 -->
<g id="node8" class="node">
<title>Node40</title>
<g id="a_node8"><a xlink:href="classcx_1_1details_1_1_subscription_query_helper.html#a11b95f11ce0d7a8b6c512ff21343a0ae" target="_top" xlink:title=" ">
<polygon fill="none" stroke="#000000" points="210.4131,-47.5 210.4131,-75.5 361.4814,-75.5 361.4814,-47.5 210.4131,-47.5"/>
<text text-anchor="start" x="218.4131" y="-63.5" font-family="Helvetica,sans-Serif" font-size="10.00" fill="#000000">cx::details::Subscription</text>
<text text-anchor="middle" x="285.9473" y="-53.5" font-family="Helvetica,sans-Serif" font-size="10.00" fill="#000000">QueryHelper::getCountryCode</text>
</a>
</g>
</g>
<!-- Node34&#45;&gt;Node40 -->
<g id="edge7" class="edge">
<title>Node34&#45;&gt;Node40</title>
<path fill="none" stroke="#191970" d="M390.4668,-91.6067C372.1447,-86.329 352.1427,-80.5675 334.5868,-75.5106"/>
<polygon fill="#191970" stroke="#191970" points="389.5807,-94.9937 400.1588,-94.3985 391.5183,-88.2672 389.5807,-94.9937"/>
</g>
<!-- Node41 -->
<g id="node9" class="node">
<title>Node41</title>
<g id="a_node9"><a xlink:href="classcx_1_1details_1_1_subscription_query_helper.html#af5b40ae5c6920ce53be8108dc910db58" target="_top" xlink:title=" ">
<polygon fill="none" stroke="#000000" points="215.9697,-.5 215.9697,-28.5 355.9248,-28.5 355.9248,-.5 215.9697,-.5"/>
<text text-anchor="start" x="223.9697" y="-16.5" font-family="Helvetica,sans-Serif" font-size="10.00" fill="#000000">cx::details::Subscription</text>
<text text-anchor="middle" x="285.9473" y="-6.5" font-family="Helvetica,sans-Serif" font-size="10.00" fill="#000000">QueryHelper::getEquipment</text>
</a>
</g>
</g>
<!-- Node34&#45;&gt;Node41 -->
<g id="edge8" class="edge">
<title>Node34&#45;&gt;Node41</title>
<path fill="none" stroke="#191970" d="M427.1977,-87.185C410.3874,-71.831 385.98,-51.5932 361.4814,-38.5 354.443,-34.7383 346.7167,-31.4492 338.9754,-28.6117"/>
<polygon fill="#191970" stroke="#191970" points="425.1053,-90.0193 434.8069,-94.2773 429.8781,-84.8987 425.1053,-90.0193"/>
</g>
<!-- Node37 -->
<g id="node5" class="node">
<title>Node37</title>
<g id="a_node5"><a xlink:href="classcx_1_1details_1_1_subscription_query_helper.html#a57ed35c96c2167ac90c88d869798d4c4" target="_top" xlink:title=" ">
<polygon fill="none" stroke="#000000" points="5.5615,-164.5 5.5615,-192.5 168.8516,-192.5 168.8516,-164.5 5.5615,-164.5"/>
<text text-anchor="start" x="13.5615" y="-180.5" font-family="Helvetica,sans-Serif" font-size="10.00" fill="#000000">cx::details::Subscription</text>
<text text-anchor="middle" x="87.2065" y="-170.5" font-family="Helvetica,sans-Serif" font-size="10.00" fill="#000000">QueryHelper::getFullSubscription</text>
</a>
</g>
</g>
<!-- Node36&#45;&gt;Node37 -->
<g id="edge4" class="edge">
<title>Node36&#45;&gt;Node37</title>
<path fill="none" stroke="#191970" d="M208.0055,-164.5201C195.2553,-165.9957 182.0108,-167.5284 169.167,-169.0148"/>
<polygon fill="#191970" stroke="#191970" points="208.5765,-167.9775 218.1078,-163.351 207.7717,-161.0239 208.5765,-167.9775"/>
</g>
<!-- Node38 -->
<g id="node6" class="node">
<title>Node38</title>
<g id="a_node6"><a xlink:href="classcx_1_1details_1_1_subscription_query_helper.html#a10fcdbea096ccde2ba79ccccb87cd293" target="_top" xlink:title=" ">
<polygon fill="none" stroke="#000000" points="0,-117.5 0,-145.5 174.4131,-145.5 174.4131,-117.5 0,-117.5"/>
<text text-anchor="start" x="8" y="-133.5" font-family="Helvetica,sans-Serif" font-size="10.00" fill="#000000">cx::details::Subscription</text>
<text text-anchor="middle" x="87.2065" y="-123.5" font-family="Helvetica,sans-Serif" font-size="10.00" fill="#000000">QueryHelper::getPublicSubscription</text>
</a>
</g>
</g>
<!-- Node36&#45;&gt;Node38 -->
<g id="edge5" class="edge">
<title>Node36&#45;&gt;Node38</title>
<path fill="none" stroke="#191970" d="M208.0866,-146.0975C197.0425,-144.7638 185.626,-143.3852 174.4189,-142.0318"/>
<polygon fill="#191970" stroke="#191970" points="207.7603,-149.5835 218.1078,-147.3077 208.5996,-142.634 207.7603,-149.5835"/>
</g>
</g>
</svg>
        <g id="navigator" transform="translate(0 0)" fill="#404254">
                <rect fill="#f2f5e9" fill-opacity="0.5" stroke="#606060" stroke-width=".5" x="0" y="0" width="60" height="60"/>
                <use id="zoomplus" xlink:href="#zoomPlus" x="17" y="9" onmousedown="handleZoom(evt,'in')"/>
                <use id="zoomminus" xlink:href="#zoomMin" x="42" y="9" onmousedown="handleZoom(evt,'out')"/>
                <use id="reset" xlink:href="#resetDef" x="30" y="36" onmousedown="handleReset()"/>
                <g id="arrowUp" xlink:href="#dirArrow" transform="translate(30 24)" onmousedown="handlePan(0,-1)">
                  <use xlink:href="#rim" fill="#404040">
                        <set attributeName="fill" to="#808080" begin="arrowUp.mouseover" end="arrowUp.mouseout"/>
                  </use>
                  <path fill="none" stroke="white" stroke-width="1.5" d="M0,-3.0v7 M-2.5,-0.5L0,-3.0L2.5,-0.5"/>
                </g>
                <g id="arrowRight" xlink:href="#dirArrow" transform="rotate(90) translate(36 -43)" onmousedown="handlePan(1,0)">
                  <use xlink:href="#rim" fill="#404040">
                        <set attributeName="fill" to="#808080" begin="arrowRight.mouseover" end="arrowRight.mouseout"/>
                  </use>
                  <path fill="none" stroke="white" stroke-width="1.5" d="M0,-3.0v7 M-2.5,-0.5L0,-3.0L2.5,-0.5"/>
                </g>
                <g id="arrowDown" xlink:href="#dirArrow" transform="rotate(180) translate(-30 -48)" onmousedown="handlePan(0,1)">
                  <use xlink:href="#rim" fill="#404040">
                        <set attributeName="fill" to="#808080" begin="arrowDown.mouseover" end="arrowDown.mouseout"/>
                  </use>
                  <path fill="none" stroke="white" stroke-width="1.5" d="M0,-3.0v7 M-2.5,-0.5L0,-3.0L2.5,-0.5"/>
                </g>
                <g id="arrowLeft" xlink:href="#dirArrow" transform="rotate(270) translate(-36 17)" onmousedown="handlePan(-1,0)">
                  <use xlink:href="#rim" fill="#404040">
                        <set attributeName="fill" to="#808080" begin="arrowLeft.mouseover" end="arrowLeft.mouseout"/>
                  </use>
                  <path fill="none" stroke="white" stroke-width="1.5" d="M0,-3.0v7 M-2.5,-0.5L0,-3.0L2.5,-0.5"/>
                </g>
        </g>
        <svg viewBox="0 0 15 15" width="100%" height="30px" preserveAspectRatio="xMaxYMin meet">
         <g id="arrow_out" transform="scale(0.3 0.3)">
          <a xlink:href="structcx_1_1web_1_1string__entity_adbe62e791cc18ea9f4ae7fc45468c32c_icgraph_org.svg" target="_base">
           <rect id="button" ry="5" rx="5" y="6" x="6" height="38" width="38"
                fill="#f2f5e9" fill-opacity="0.5" stroke="#606060" stroke-width="1.0"/>
           <path id="arrow"
             d="M 11.500037,31.436501 C 11.940474,20.09759 22.043105,11.32322 32.158766,21.979434 L 37.068811,17.246167 C 37.068811,17.246167 37.088388,32 37.088388,32 L 22.160133,31.978069 C 22.160133,31.978069 26.997745,27.140456 26.997745,27.140456 C 18.528582,18.264221 13.291696,25.230495 11.500037,31.436501 z"
             style="fill:#404040;"/>
          </a>
         </g>
        </svg>
</svg>
