<?xml version="1.0" encoding="UTF-8" standalone="no"?>
<!DOCTYPE svg PUBLIC "-//W3C//DTD SVG 1.1//EN"
 "http://www.w3.org/Graphics/SVG/1.1/DTD/svg11.dtd">
<!-- Generated by graphviz version 2.40.1 (20161225.0304)
 -->
<!-- Title: cx::HTTPRequest::RequestParams Pages: 1 -->
<!--zoomable 532 -->
<svg id="main" version="1.1" xmlns="http://www.w3.org/2000/svg" xmlns:xlink="http://www.w3.org/1999/xlink" xml:space="preserve" onload="init(evt)">
<style type="text/css"><![CDATA[
.edge:hover path { stroke: red; }
.edge:hover polygon { stroke: red; fill: red; }
]]></style>
<script type="text/javascript"><![CDATA[
var edges = document.getElementsByTagName('g');
if (edges && edges.length) {
  for (var i=0;i<edges.length;i++) {
    if (edges[i].id.substr(0,4)=='edge') {
      edges[i].setAttribute('class','edge');
    }
  }
}
]]></script>
        <defs>
                <circle id="rim" cx="0" cy="0" r="7"/>
                <circle id="rim2" cx="0" cy="0" r="3.5"/>
                <g id="zoomPlus">
                        <use xlink:href="#rim" fill="#404040">
                                <set attributeName="fill" to="#808080" begin="zoomplus.mouseover" end="zoomplus.mouseout"/>
                        </use>
                        <path d="M-4,0h8M0,-4v8" fill="none" stroke="white" stroke-width="1.5" pointer-events="none"/>
                </g>
                <g id="zoomMin">
                        <use xlink:href="#rim" fill="#404040">
                                <set attributeName="fill" to="#808080" begin="zoomminus.mouseover" end="zoomminus.mouseout"/>
                        </use>
                        <path d="M-4,0h8" fill="none" stroke="white" stroke-width="1.5" pointer-events="none"/>
                </g>
                <g id="dirArrow">
                        <path fill="none" stroke="white" stroke-width="1.5" d="M0,-3.0v7 M-2.5,-0.5L0,-3.0L2.5,-0.5"/>
                </g>
               <g id="resetDef">
                       <use xlink:href="#rim2" fill="#404040">
                               <set attributeName="fill" to="#808080" begin="reset.mouseover" end="reset.mouseout"/>
                       </use>
               </g>
        </defs>

<script type="text/javascript">
var viewWidth = 263;
var viewHeight = 532;
var sectionId = 'dynsection-0';
</script>
<script xlink:href="svgpan.js"/>
<svg id="graph" class="graph">
<g id="viewport">
<title>cx::HTTPRequest::RequestParams</title>
<!-- Node1 -->
<g id="node1" class="node">
<title>Node1</title>
<g id="a_node1"><a xlink:title=" ">
<polygon fill="#bfbfbf" stroke="#000000" points="0,-.5 0,-144.5 137.7139,-144.5 137.7139,-.5 0,-.5"/>
<text text-anchor="start" x="8" y="-132.5" font-family="Helvetica,sans-Serif" font-size="10.00" fill="#000000">cx::HTTPRequest::Request</text>
<text text-anchor="middle" x="68.8569" y="-122.5" font-family="Helvetica,sans-Serif" font-size="10.00" fill="#000000">Params</text>
<polyline fill="none" stroke="#000000" points="0,-116.5 137.7139,-116.5 "/>
<text text-anchor="start" x="8" y="-104.5" font-family="Helvetica,sans-Serif" font-size="10.00" fill="#000000">+ output</text>
<text text-anchor="start" x="8" y="-94.5" font-family="Helvetica,sans-Serif" font-size="10.00" fill="#000000">+ fileName</text>
<text text-anchor="start" x="8" y="-84.5" font-family="Helvetica,sans-Serif" font-size="10.00" fill="#000000">+ method</text>
<text text-anchor="start" x="8" y="-74.5" font-family="Helvetica,sans-Serif" font-size="10.00" fill="#000000">+ proxyPort</text>
<text text-anchor="start" x="8" y="-64.5" font-family="Helvetica,sans-Serif" font-size="10.00" fill="#000000">+ needProgress</text>
<text text-anchor="start" x="8" y="-54.5" font-family="Helvetica,sans-Serif" font-size="10.00" fill="#000000">+ needUploadProgress</text>
<text text-anchor="start" x="8" y="-44.5" font-family="Helvetica,sans-Serif" font-size="10.00" fill="#000000">+ upload</text>
<polyline fill="none" stroke="#000000" points="0,-38.5 137.7139,-38.5 "/>
<text text-anchor="start" x="8" y="-26.5" font-family="Helvetica,sans-Serif" font-size="10.00" fill="#000000">+ RequestParams()</text>
<text text-anchor="start" x="8" y="-16.5" font-family="Helvetica,sans-Serif" font-size="10.00" fill="#000000">+ RequestParams()</text>
<text text-anchor="start" x="8" y="-6.5" font-family="Helvetica,sans-Serif" font-size="10.00" fill="#000000">+ start()</text>
</a>
</g>
</g>
<!-- Node2 -->
<g id="node2" class="node">
<title>Node2</title>
<g id="a_node2"><a xlink:title=" ">
<polygon fill="none" stroke="#bfbfbf" points="146.3091,-224 146.3091,-288 255.4048,-288 255.4048,-224 146.3091,-224"/>
<text text-anchor="start" x="154.3091" y="-276" font-family="Helvetica,sans-Serif" font-size="10.00" fill="#000000">std::map&lt; std::string,</text>
<text text-anchor="middle" x="200.8569" y="-266" font-family="Helvetica,sans-Serif" font-size="10.00" fill="#000000"> std::string &gt;</text>
<polyline fill="none" stroke="#bfbfbf" points="146.3091,-260 255.4048,-260 "/>
<text text-anchor="middle" x="200.8569" y="-248" font-family="Helvetica,sans-Serif" font-size="10.00" fill="#000000"> </text>
<polyline fill="none" stroke="#bfbfbf" points="146.3091,-242 255.4048,-242 "/>
<text text-anchor="middle" x="200.8569" y="-230" font-family="Helvetica,sans-Serif" font-size="10.00" fill="#000000"> </text>
</a>
</g>
</g>
<!-- Node2&#45;&gt;Node1 -->
<g id="edge1" class="edge">
<title>Node2&#45;&gt;Node1</title>
<path fill="none" stroke="#404040" d="M177.5618,-223.6163C163.7712,-204.4452 145.6211,-179.2139 128.1111,-154.8723"/>
<polygon fill="none" stroke="#404040" points="127.9307,-154.6214 121.1798,-152.0865 120.9232,-144.88 127.6741,-147.4149 127.9307,-154.6214"/>
<text text-anchor="middle" x="166.8457" y="-175" font-family="Helvetica,sans-Serif" font-size="10.00" fill="#000000"> +params</text>
<text text-anchor="middle" x="166.8457" y="-165" font-family="Helvetica,sans-Serif" font-size="10.00" fill="#000000">+headers</text>
</g>
<!-- Node3 -->
<g id="node3" class="node">
<title>Node3</title>
<g id="a_node3"><a xlink:title="STL class.">
<polygon fill="none" stroke="#bfbfbf" points="39.1821,-367.5 39.1821,-421.5 98.5317,-421.5 98.5317,-367.5 39.1821,-367.5"/>
<text text-anchor="middle" x="68.8569" y="-409.5" font-family="Helvetica,sans-Serif" font-size="10.00" fill="#000000">std::string</text>
<polyline fill="none" stroke="#bfbfbf" points="39.1821,-403.5 98.5317,-403.5 "/>
<text text-anchor="middle" x="68.8569" y="-391.5" font-family="Helvetica,sans-Serif" font-size="10.00" fill="#000000"> </text>
<polyline fill="none" stroke="#bfbfbf" points="39.1821,-385.5 98.5317,-385.5 "/>
<text text-anchor="middle" x="68.8569" y="-373.5" font-family="Helvetica,sans-Serif" font-size="10.00" fill="#000000"> </text>
</a>
</g>
</g>
<!-- Node3&#45;&gt;Node1 -->
<g id="edge4" class="edge">
<title>Node3&#45;&gt;Node1</title>
<path fill="none" stroke="#404040" d="M65.6606,-367.4698C63.8921,-351.1451 61.8768,-329.9081 60.9878,-311 58.5817,-259.8248 60.3364,-202.4384 62.7935,-156.7828"/>
<polygon fill="none" stroke="#404040" points="62.8085,-156.5157 59.1528,-150.2999 63.4844,-144.5347 67.1401,-150.7505 62.8085,-156.5157"/>
<text text-anchor="middle" x="99.7915" y="-303" font-family="Helvetica,sans-Serif" font-size="10.00" fill="#000000"> +auth</text>
<text text-anchor="middle" x="99.7915" y="-293" font-family="Helvetica,sans-Serif" font-size="10.00" fill="#000000">+url</text>
<text text-anchor="middle" x="99.7915" y="-283" font-family="Helvetica,sans-Serif" font-size="10.00" fill="#000000">+password</text>
<text text-anchor="middle" x="99.7915" y="-273" font-family="Helvetica,sans-Serif" font-size="10.00" fill="#000000">+strHeaders</text>
<text text-anchor="middle" x="99.7915" y="-263" font-family="Helvetica,sans-Serif" font-size="10.00" fill="#000000">+attachFileName</text>
<text text-anchor="middle" x="99.7915" y="-253" font-family="Helvetica,sans-Serif" font-size="10.00" fill="#000000">+globalProxy</text>
<text text-anchor="middle" x="99.7915" y="-243" font-family="Helvetica,sans-Serif" font-size="10.00" fill="#000000">+body</text>
<text text-anchor="middle" x="99.7915" y="-233" font-family="Helvetica,sans-Serif" font-size="10.00" fill="#000000">+proxyHost</text>
<text text-anchor="middle" x="99.7915" y="-223" font-family="Helvetica,sans-Serif" font-size="10.00" fill="#000000">+strContentType</text>
<text text-anchor="middle" x="99.7915" y="-213" font-family="Helvetica,sans-Serif" font-size="10.00" fill="#000000">+username</text>
<text text-anchor="middle" x="99.7915" y="-203" font-family="Helvetica,sans-Serif" font-size="10.00" fill="#000000">...</text>
</g>
<!-- Node3&#45;&gt;Node2 -->
<g id="edge2" class="edge">
<title>Node3&#45;&gt;Node2</title>
<path fill="none" stroke="#404040" d="M94.6212,-367.467C113.6971,-347.4518 140.0246,-319.8279 161.6976,-297.0876"/>
<polygon fill="none" stroke="#404040" points="161.7756,-297.0058 163.0195,-289.9028 170.0546,-288.3191 168.8106,-295.4222 161.7756,-297.0058"/>
<text text-anchor="middle" x="155.4541" y="-341" font-family="Helvetica,sans-Serif" font-size="10.00" fill="#000000"> +elements</text>
<text text-anchor="middle" x="155.4541" y="-331" font-family="Helvetica,sans-Serif" font-size="10.00" fill="#000000">+keys</text>
</g>
<!-- Node4 -->
<g id="node4" class="node">
<title>Node4</title>
<g id="a_node4"><a xlink:title="STL class.">
<polygon fill="none" stroke="#bfbfbf" points="21.8091,-459.5 21.8091,-523.5 115.9048,-523.5 115.9048,-459.5 21.8091,-459.5"/>
<text text-anchor="start" x="29.8091" y="-511.5" font-family="Helvetica,sans-Serif" font-size="10.00" fill="#000000">std::basic_string&lt;</text>
<text text-anchor="middle" x="68.8569" y="-501.5" font-family="Helvetica,sans-Serif" font-size="10.00" fill="#000000"> char &gt;</text>
<polyline fill="none" stroke="#bfbfbf" points="21.8091,-495.5 115.9048,-495.5 "/>
<text text-anchor="middle" x="68.8569" y="-483.5" font-family="Helvetica,sans-Serif" font-size="10.00" fill="#000000"> </text>
<polyline fill="none" stroke="#bfbfbf" points="21.8091,-477.5 115.9048,-477.5 "/>
<text text-anchor="middle" x="68.8569" y="-465.5" font-family="Helvetica,sans-Serif" font-size="10.00" fill="#000000"> </text>
</a>
</g>
</g>
<!-- Node4&#45;&gt;Node3 -->
<g id="edge3" class="edge">
<title>Node4&#45;&gt;Node3</title>
<path fill="none" stroke="#191970" d="M68.8569,-449.4397C68.8569,-440.0133 68.8569,-430.2564 68.8569,-421.6277"/>
<polygon fill="none" stroke="#191970" points="65.357,-449.4697 68.8569,-459.4697 72.357,-449.4698 65.357,-449.4697"/>
</g>
</g>
</svg>
        <g id="navigator" transform="translate(0 0)" fill="#404254">
                <rect fill="#f2f5e9" fill-opacity="0.5" stroke="#606060" stroke-width=".5" x="0" y="0" width="60" height="60"/>
                <use id="zoomplus" xlink:href="#zoomPlus" x="17" y="9" onmousedown="handleZoom(evt,'in')"/>
                <use id="zoomminus" xlink:href="#zoomMin" x="42" y="9" onmousedown="handleZoom(evt,'out')"/>
                <use id="reset" xlink:href="#resetDef" x="30" y="36" onmousedown="handleReset()"/>
                <g id="arrowUp" xlink:href="#dirArrow" transform="translate(30 24)" onmousedown="handlePan(0,-1)">
                  <use xlink:href="#rim" fill="#404040">
                        <set attributeName="fill" to="#808080" begin="arrowUp.mouseover" end="arrowUp.mouseout"/>
                  </use>
                  <path fill="none" stroke="white" stroke-width="1.5" d="M0,-3.0v7 M-2.5,-0.5L0,-3.0L2.5,-0.5"/>
                </g>
                <g id="arrowRight" xlink:href="#dirArrow" transform="rotate(90) translate(36 -43)" onmousedown="handlePan(1,0)">
                  <use xlink:href="#rim" fill="#404040">
                        <set attributeName="fill" to="#808080" begin="arrowRight.mouseover" end="arrowRight.mouseout"/>
                  </use>
                  <path fill="none" stroke="white" stroke-width="1.5" d="M0,-3.0v7 M-2.5,-0.5L0,-3.0L2.5,-0.5"/>
                </g>
                <g id="arrowDown" xlink:href="#dirArrow" transform="rotate(180) translate(-30 -48)" onmousedown="handlePan(0,1)">
                  <use xlink:href="#rim" fill="#404040">
                        <set attributeName="fill" to="#808080" begin="arrowDown.mouseover" end="arrowDown.mouseout"/>
                  </use>
                  <path fill="none" stroke="white" stroke-width="1.5" d="M0,-3.0v7 M-2.5,-0.5L0,-3.0L2.5,-0.5"/>
                </g>
                <g id="arrowLeft" xlink:href="#dirArrow" transform="rotate(270) translate(-36 17)" onmousedown="handlePan(-1,0)">
                  <use xlink:href="#rim" fill="#404040">
                        <set attributeName="fill" to="#808080" begin="arrowLeft.mouseover" end="arrowLeft.mouseout"/>
                  </use>
                  <path fill="none" stroke="white" stroke-width="1.5" d="M0,-3.0v7 M-2.5,-0.5L0,-3.0L2.5,-0.5"/>
                </g>
        </g>
        <svg viewBox="0 0 15 15" width="100%" height="30px" preserveAspectRatio="xMaxYMin meet">
         <g id="arrow_out" transform="scale(0.3 0.3)">
          <a xlink:href="structcx_1_1_h_t_t_p_request_1_1_request_params__coll__graph_org.svg" target="_base">
           <rect id="button" ry="5" rx="5" y="6" x="6" height="38" width="38"
                fill="#f2f5e9" fill-opacity="0.5" stroke="#606060" stroke-width="1.0"/>
           <path id="arrow"
             d="M 11.500037,31.436501 C 11.940474,20.09759 22.043105,11.32322 32.158766,21.979434 L 37.068811,17.246167 C 37.068811,17.246167 37.088388,32 37.088388,32 L 22.160133,31.978069 C 22.160133,31.978069 26.997745,27.140456 26.997745,27.140456 C 18.528582,18.264221 13.291696,25.230495 11.500037,31.436501 z"
             style="fill:#404040;"/>
          </a>
         </g>
        </svg>
</svg>
