<?xml version="1.0" encoding="UTF-8" standalone="no"?>
<!DOCTYPE svg PUBLIC "-//W3C//DTD SVG 1.1//EN"
 "http://www.w3.org/Graphics/SVG/1.1/DTD/svg11.dtd">
<!-- Generated by graphviz version 2.40.1 (20161225.0304)
 -->
<!-- Title: cx::web::data_entity Pages: 1 -->
<!--zoomable 589 -->
<svg id="main" version="1.1" xmlns="http://www.w3.org/2000/svg" xmlns:xlink="http://www.w3.org/1999/xlink" xml:space="preserve" onload="init(evt)">
<style type="text/css"><![CDATA[
.edge:hover path { stroke: red; }
.edge:hover polygon { stroke: red; fill: red; }
]]></style>
<script type="text/javascript"><![CDATA[
var edges = document.getElementsByTagName('g');
if (edges && edges.length) {
  for (var i=0;i<edges.length;i++) {
    if (edges[i].id.substr(0,4)=='edge') {
      edges[i].setAttribute('class','edge');
    }
  }
}
]]></script>
        <defs>
                <circle id="rim" cx="0" cy="0" r="7"/>
                <circle id="rim2" cx="0" cy="0" r="3.5"/>
                <g id="zoomPlus">
                        <use xlink:href="#rim" fill="#404040">
                                <set attributeName="fill" to="#808080" begin="zoomplus.mouseover" end="zoomplus.mouseout"/>
                        </use>
                        <path d="M-4,0h8M0,-4v8" fill="none" stroke="white" stroke-width="1.5" pointer-events="none"/>
                </g>
                <g id="zoomMin">
                        <use xlink:href="#rim" fill="#404040">
                                <set attributeName="fill" to="#808080" begin="zoomminus.mouseover" end="zoomminus.mouseout"/>
                        </use>
                        <path d="M-4,0h8" fill="none" stroke="white" stroke-width="1.5" pointer-events="none"/>
                </g>
                <g id="dirArrow">
                        <path fill="none" stroke="white" stroke-width="1.5" d="M0,-3.0v7 M-2.5,-0.5L0,-3.0L2.5,-0.5"/>
                </g>
               <g id="resetDef">
                       <use xlink:href="#rim2" fill="#404040">
                               <set attributeName="fill" to="#808080" begin="reset.mouseover" end="reset.mouseout"/>
                       </use>
               </g>
        </defs>

<script type="text/javascript">
var viewWidth = 217;
var viewHeight = 589;
var sectionId = 'dynsection-1';
</script>
<script xlink:href="svgpan.js"/>
<svg id="graph" class="graph">
<g id="viewport">
<title>cx::web::data_entity</title>
<!-- Node6 -->
<g id="node1" class="node">
<title>Node6</title>
<g id="a_node1"><a xlink:title=" ">
<polygon fill="#bfbfbf" stroke="#000000" points="44.4951,-.5 44.4951,-74.5 148.8789,-74.5 148.8789,-.5 44.4951,-.5"/>
<text text-anchor="middle" x="96.687" y="-62.5" font-family="Helvetica,sans-Serif" font-size="10.00" fill="#000000">cx::web::data_entity</text>
<polyline fill="none" stroke="#000000" points="44.4951,-56.5 148.8789,-56.5 "/>
<text text-anchor="start" x="52.4951" y="-44.5" font-family="Helvetica,sans-Serif" font-size="10.00" fill="#000000">+ retcode</text>
<polyline fill="none" stroke="#000000" points="44.4951,-38.5 148.8789,-38.5 "/>
<text text-anchor="start" x="52.4951" y="-26.5" font-family="Helvetica,sans-Serif" font-size="10.00" fill="#000000">+ data_entity()</text>
<text text-anchor="start" x="52.4951" y="-16.5" font-family="Helvetica,sans-Serif" font-size="10.00" fill="#000000">+ data_entity()</text>
<text text-anchor="start" x="52.4951" y="-6.5" font-family="Helvetica,sans-Serif" font-size="10.00" fill="#000000">+ update()</text>
</a>
</g>
</g>
<!-- Node7 -->
<g id="node2" class="node">
<title>Node7</title>
<g id="a_node2"><a xlink:href="structcx_1_1web_1_1json__entity.html" target="_top" xlink:title=" ">
<polygon fill="none" stroke="#000000" points="5.0542,-112.5 5.0542,-196.5 108.3198,-196.5 108.3198,-112.5 5.0542,-112.5"/>
<text text-anchor="middle" x="56.687" y="-184.5" font-family="Helvetica,sans-Serif" font-size="10.00" fill="#000000">cx::web::json_entity</text>
<polyline fill="none" stroke="#000000" points="5.0542,-178.5 108.3198,-178.5 "/>
<text text-anchor="start" x="13.0542" y="-166.5" font-family="Helvetica,sans-Serif" font-size="10.00" fill="#000000">+ json</text>
<polyline fill="none" stroke="#000000" points="5.0542,-160.5 108.3198,-160.5 "/>
<text text-anchor="start" x="13.0542" y="-148.5" font-family="Helvetica,sans-Serif" font-size="10.00" fill="#000000">+ json_entity()</text>
<text text-anchor="start" x="13.0542" y="-138.5" font-family="Helvetica,sans-Serif" font-size="10.00" fill="#000000">+ json_entity()</text>
<text text-anchor="start" x="13.0542" y="-128.5" font-family="Helvetica,sans-Serif" font-size="10.00" fill="#000000">+ valid()</text>
<text text-anchor="start" x="13.0542" y="-118.5" font-family="Helvetica,sans-Serif" font-size="10.00" fill="#000000">+ get_json()</text>
</a>
</g>
</g>
<!-- Node7&#45;&gt;Node6 -->
<g id="edge1" class="edge">
<title>Node7&#45;&gt;Node6</title>
<path fill="none" stroke="#191970" d="M74.4387,-102.5763C77.6567,-93.1638 80.9532,-83.5213 83.9895,-74.6401"/>
<polygon fill="none" stroke="#191970" points="71.0512,-101.6658 71.1279,-112.2603 77.6748,-103.9303 71.0512,-101.6658"/>
</g>
<!-- Node8 -->
<g id="node3" class="node">
<title>Node8</title>
<g id="a_node3"><a xlink:href="structcx_1_1web_1_1string__entity.html" target="_top" xlink:title=" ">
<polygon fill="none" stroke="#000000" points="0,-253.5 0,-377.5 109.374,-377.5 109.374,-253.5 0,-253.5"/>
<text text-anchor="middle" x="54.687" y="-365.5" font-family="Helvetica,sans-Serif" font-size="10.00" fill="#000000">cx::web::string_entity</text>
<polyline fill="none" stroke="#000000" points="0,-359.5 109.374,-359.5 "/>
<text text-anchor="start" x="8" y="-347.5" font-family="Helvetica,sans-Serif" font-size="10.00" fill="#000000">+ error_reason</text>
<text text-anchor="start" x="8" y="-337.5" font-family="Helvetica,sans-Serif" font-size="10.00" fill="#000000">+ status</text>
<polyline fill="none" stroke="#000000" points="0,-331.5 109.374,-331.5 "/>
<text text-anchor="start" x="8" y="-319.5" font-family="Helvetica,sans-Serif" font-size="10.00" fill="#000000">+ string_entity()</text>
<text text-anchor="start" x="8" y="-309.5" font-family="Helvetica,sans-Serif" font-size="10.00" fill="#000000">+ string_entity()</text>
<text text-anchor="start" x="8" y="-299.5" font-family="Helvetica,sans-Serif" font-size="10.00" fill="#000000">+ copy_from()</text>
<text text-anchor="start" x="8" y="-289.5" font-family="Helvetica,sans-Serif" font-size="10.00" fill="#000000">+ valid()</text>
<text text-anchor="start" x="8" y="-279.5" font-family="Helvetica,sans-Serif" font-size="10.00" fill="#000000">+ update()</text>
<text text-anchor="start" x="8" y="-269.5" font-family="Helvetica,sans-Serif" font-size="10.00" fill="#000000">+ get_string()</text>
<text text-anchor="start" x="8" y="-259.5" font-family="Helvetica,sans-Serif" font-size="10.00" fill="#000000">+ printOn()</text>
</a>
</g>
</g>
<!-- Node8&#45;&gt;Node7 -->
<g id="edge2" class="edge">
<title>Node8&#45;&gt;Node7</title>
<path fill="none" stroke="#191970" d="M55.5885,-242.9337C55.7852,-227.0998 55.987,-210.8526 56.1631,-196.6743"/>
<polygon fill="none" stroke="#191970" points="52.0848,-243.2105 55.4603,-253.2532 59.0843,-243.2975 52.0848,-243.2105"/>
</g>
<!-- Node9 -->
<g id="node4" class="node">
<title>Node9</title>
<g id="a_node4"><a xlink:title=" ">
<polygon fill="none" stroke="#bfbfbf" points="20.9531,-424.5 20.9531,-478.5 76.4209,-478.5 76.4209,-424.5 20.9531,-424.5"/>
<text text-anchor="middle" x="48.687" y="-466.5" font-family="Helvetica,sans-Serif" font-size="10.00" fill="#000000">Printable</text>
<polyline fill="none" stroke="#bfbfbf" points="20.9531,-460.5 76.4209,-460.5 "/>
<text text-anchor="middle" x="48.687" y="-448.5" font-family="Helvetica,sans-Serif" font-size="10.00" fill="#000000"> </text>
<polyline fill="none" stroke="#bfbfbf" points="20.9531,-442.5 76.4209,-442.5 "/>
<text text-anchor="middle" x="48.687" y="-430.5" font-family="Helvetica,sans-Serif" font-size="10.00" fill="#000000"> </text>
</a>
</g>
</g>
<!-- Node9&#45;&gt;Node8 -->
<g id="edge3" class="edge">
<title>Node9&#45;&gt;Node8</title>
<path fill="none" stroke="#191970" d="M50.3277,-414.3113C50.8299,-402.9276 51.3966,-390.0829 51.9511,-377.5132"/>
<polygon fill="none" stroke="#191970" points="46.831,-414.1607 49.8868,-424.3052 53.8242,-414.4692 46.831,-414.1607"/>
</g>
<!-- Node10 -->
<g id="node5" class="node">
<title>Node10</title>
<g id="a_node5"><a xlink:title="STL class.">
<polygon fill="none" stroke="#bfbfbf" points="101.0122,-424.5 101.0122,-478.5 160.3618,-478.5 160.3618,-424.5 101.0122,-424.5"/>
<text text-anchor="middle" x="130.687" y="-466.5" font-family="Helvetica,sans-Serif" font-size="10.00" fill="#000000">std::string</text>
<polyline fill="none" stroke="#bfbfbf" points="101.0122,-460.5 160.3618,-460.5 "/>
<text text-anchor="middle" x="130.687" y="-448.5" font-family="Helvetica,sans-Serif" font-size="10.00" fill="#000000"> </text>
<polyline fill="none" stroke="#bfbfbf" points="101.0122,-442.5 160.3618,-442.5 "/>
<text text-anchor="middle" x="130.687" y="-430.5" font-family="Helvetica,sans-Serif" font-size="10.00" fill="#000000"> </text>
</a>
</g>
</g>
<!-- Node10&#45;&gt;Node6 -->
<g id="edge6" class="edge">
<title>Node10&#45;&gt;Node6</title>
<path fill="none" stroke="#404040" d="M131.8054,-424.4437C133.7234,-366.6569 135.8453,-227.0698 117.687,-112 116.363,-103.6095 114.4125,-94.8204 112.2256,-86.3411"/>
<polygon fill="none" stroke="#404040" points="112.1889,-86.2069 106.7452,-81.4775 109.0171,-74.6336 114.4607,-79.363 112.1889,-86.2069"/>
<text text-anchor="middle" x="169.5625" y="-227" font-family="Helvetica,sans-Serif" font-size="10.00" fill="#000000"> +errorDescription</text>
<text text-anchor="middle" x="169.5625" y="-217" font-family="Helvetica,sans-Serif" font-size="10.00" fill="#000000">+errorStatus</text>
</g>
<!-- Node10&#45;&gt;Node8 -->
<g id="edge4" class="edge">
<title>Node10&#45;&gt;Node8</title>
<path fill="none" stroke="#404040" d="M100.9082,-428.1482C94.0223,-421.5889 87.2597,-414.0336 82.2661,-406 78.9901,-400.7296 76.0803,-395.0436 73.5001,-389.1796"/>
<polygon fill="none" stroke="#404040" points="73.3845,-388.8902 67.4448,-384.8013 68.9346,-377.7457 74.8744,-381.8347 73.3845,-388.8902"/>
<text text-anchor="middle" x="102.3975" y="-398" font-family="Helvetica,sans-Serif" font-size="10.00" fill="#000000"> +content</text>
</g>
<!-- Node11 -->
<g id="node6" class="node">
<title>Node11</title>
<g id="a_node6"><a xlink:title="STL class.">
<polygon fill="none" stroke="#bfbfbf" points="83.6392,-516.5 83.6392,-580.5 177.7349,-580.5 177.7349,-516.5 83.6392,-516.5"/>
<text text-anchor="start" x="91.6392" y="-568.5" font-family="Helvetica,sans-Serif" font-size="10.00" fill="#000000">std::basic_string&lt;</text>
<text text-anchor="middle" x="130.687" y="-558.5" font-family="Helvetica,sans-Serif" font-size="10.00" fill="#000000"> char &gt;</text>
<polyline fill="none" stroke="#bfbfbf" points="83.6392,-552.5 177.7349,-552.5 "/>
<text text-anchor="middle" x="130.687" y="-540.5" font-family="Helvetica,sans-Serif" font-size="10.00" fill="#000000"> </text>
<polyline fill="none" stroke="#bfbfbf" points="83.6392,-534.5 177.7349,-534.5 "/>
<text text-anchor="middle" x="130.687" y="-522.5" font-family="Helvetica,sans-Serif" font-size="10.00" fill="#000000"> </text>
</a>
</g>
</g>
<!-- Node11&#45;&gt;Node10 -->
<g id="edge5" class="edge">
<title>Node11&#45;&gt;Node10</title>
<path fill="none" stroke="#191970" d="M130.687,-506.4397C130.687,-497.0133 130.687,-487.2564 130.687,-478.6277"/>
<polygon fill="none" stroke="#191970" points="127.1871,-506.4697 130.687,-516.4697 134.1871,-506.4698 127.1871,-506.4697"/>
</g>
</g>
</svg>
        <g id="navigator" transform="translate(0 0)" fill="#404254">
                <rect fill="#f2f5e9" fill-opacity="0.5" stroke="#606060" stroke-width=".5" x="0" y="0" width="60" height="60"/>
                <use id="zoomplus" xlink:href="#zoomPlus" x="17" y="9" onmousedown="handleZoom(evt,'in')"/>
                <use id="zoomminus" xlink:href="#zoomMin" x="42" y="9" onmousedown="handleZoom(evt,'out')"/>
                <use id="reset" xlink:href="#resetDef" x="30" y="36" onmousedown="handleReset()"/>
                <g id="arrowUp" xlink:href="#dirArrow" transform="translate(30 24)" onmousedown="handlePan(0,-1)">
                  <use xlink:href="#rim" fill="#404040">
                        <set attributeName="fill" to="#808080" begin="arrowUp.mouseover" end="arrowUp.mouseout"/>
                  </use>
                  <path fill="none" stroke="white" stroke-width="1.5" d="M0,-3.0v7 M-2.5,-0.5L0,-3.0L2.5,-0.5"/>
                </g>
                <g id="arrowRight" xlink:href="#dirArrow" transform="rotate(90) translate(36 -43)" onmousedown="handlePan(1,0)">
                  <use xlink:href="#rim" fill="#404040">
                        <set attributeName="fill" to="#808080" begin="arrowRight.mouseover" end="arrowRight.mouseout"/>
                  </use>
                  <path fill="none" stroke="white" stroke-width="1.5" d="M0,-3.0v7 M-2.5,-0.5L0,-3.0L2.5,-0.5"/>
                </g>
                <g id="arrowDown" xlink:href="#dirArrow" transform="rotate(180) translate(-30 -48)" onmousedown="handlePan(0,1)">
                  <use xlink:href="#rim" fill="#404040">
                        <set attributeName="fill" to="#808080" begin="arrowDown.mouseover" end="arrowDown.mouseout"/>
                  </use>
                  <path fill="none" stroke="white" stroke-width="1.5" d="M0,-3.0v7 M-2.5,-0.5L0,-3.0L2.5,-0.5"/>
                </g>
                <g id="arrowLeft" xlink:href="#dirArrow" transform="rotate(270) translate(-36 17)" onmousedown="handlePan(-1,0)">
                  <use xlink:href="#rim" fill="#404040">
                        <set attributeName="fill" to="#808080" begin="arrowLeft.mouseover" end="arrowLeft.mouseout"/>
                  </use>
                  <path fill="none" stroke="white" stroke-width="1.5" d="M0,-3.0v7 M-2.5,-0.5L0,-3.0L2.5,-0.5"/>
                </g>
        </g>
        <svg viewBox="0 0 15 15" width="100%" height="30px" preserveAspectRatio="xMaxYMin meet">
         <g id="arrow_out" transform="scale(0.3 0.3)">
          <a xlink:href="structcx_1_1web_1_1data__entity__coll__graph_org.svg" target="_base">
           <rect id="button" ry="5" rx="5" y="6" x="6" height="38" width="38"
                fill="#f2f5e9" fill-opacity="0.5" stroke="#606060" stroke-width="1.0"/>
           <path id="arrow"
             d="M 11.500037,31.436501 C 11.940474,20.09759 22.043105,11.32322 32.158766,21.979434 L 37.068811,17.246167 C 37.068811,17.246167 37.088388,32 37.088388,32 L 22.160133,31.978069 C 22.160133,31.978069 26.997745,27.140456 26.997745,27.140456 C 18.528582,18.264221 13.291696,25.230495 11.500037,31.436501 z"
             style="fill:#404040;"/>
          </a>
         </g>
        </svg>
</svg>
