<?xml version="1.0" encoding="UTF-8" standalone="no"?>
<!DOCTYPE svg PUBLIC "-//W3C//DTD SVG 1.1//EN"
 "http://www.w3.org/Graphics/SVG/1.1/DTD/svg11.dtd">
<!-- Generated by graphviz version 2.40.1 (20161225.0304)
 -->
<!-- Title: cx::web::Configuration Pages: 1 -->
<svg width="127pt" height="316pt"
 viewBox="0.00 0.00 127.45 316.00" xmlns="http://www.w3.org/2000/svg" xmlns:xlink="http://www.w3.org/1999/xlink">
<g id="graph0" class="graph" transform="scale(1 1) rotate(0) translate(4 312)">
<title>cx::web::Configuration</title>
<!-- Node1 -->
<g id="node1" class="node">
<title>Node1</title>
<g id="a_node1"><a xlink:title=" ">
<polygon fill="#bfbfbf" stroke="#000000" points="0,-.5 0,-84.5 114.9404,-84.5 114.9404,-.5 0,-.5"/>
<text text-anchor="middle" x="57.4702" y="-72.5" font-family="Helvetica,sans-Serif" font-size="10.00" fill="#000000">cx::web::Configuration</text>
<polyline fill="none" stroke="#000000" points="0,-66.5 114.9404,-66.5 "/>
<text text-anchor="start" x="8" y="-54.5" font-family="Helvetica,sans-Serif" font-size="10.00" fill="#000000">+ version</text>
<polyline fill="none" stroke="#000000" points="0,-48.5 114.9404,-48.5 "/>
<text text-anchor="start" x="8" y="-36.5" font-family="Helvetica,sans-Serif" font-size="10.00" fill="#000000">+ Configuration()</text>
<text text-anchor="start" x="8" y="-26.5" font-family="Helvetica,sans-Serif" font-size="10.00" fill="#000000">+ Configuration()</text>
<text text-anchor="start" x="8" y="-16.5" font-family="Helvetica,sans-Serif" font-size="10.00" fill="#000000">+ Configuration()</text>
<text text-anchor="start" x="8" y="-6.5" font-family="Helvetica,sans-Serif" font-size="10.00" fill="#000000">* version</text>
</a>
</g>
</g>
<!-- Node2 -->
<g id="node2" class="node">
<title>Node2</title>
<g id="a_node2"><a xlink:title="STL class.">
<polygon fill="none" stroke="#bfbfbf" points="27.7954,-151.5 27.7954,-205.5 87.145,-205.5 87.145,-151.5 27.7954,-151.5"/>
<text text-anchor="middle" x="57.4702" y="-193.5" font-family="Helvetica,sans-Serif" font-size="10.00" fill="#000000">std::string</text>
<polyline fill="none" stroke="#bfbfbf" points="27.7954,-187.5 87.145,-187.5 "/>
<text text-anchor="middle" x="57.4702" y="-175.5" font-family="Helvetica,sans-Serif" font-size="10.00" fill="#000000"> </text>
<polyline fill="none" stroke="#bfbfbf" points="27.7954,-169.5 87.145,-169.5 "/>
<text text-anchor="middle" x="57.4702" y="-157.5" font-family="Helvetica,sans-Serif" font-size="10.00" fill="#000000"> </text>
</a>
</g>
</g>
<!-- Node2&#45;&gt;Node1 -->
<g id="edge1" class="edge">
<title>Node2&#45;&gt;Node1</title>
<path fill="none" stroke="#404040" d="M57.4702,-151.3052C57.4702,-135.6627 57.4702,-115.4487 57.4702,-96.6967"/>
<polygon fill="none" stroke="#404040" points="57.4703,-96.6478 53.4703,-90.6478 57.4702,-84.6478 61.4703,-90.6477 57.4703,-96.6478"/>
<text text-anchor="middle" x="88.459" y="-125" font-family="Helvetica,sans-Serif" font-size="10.00" fill="#000000"> +client_id</text>
<text text-anchor="middle" x="88.459" y="-115" font-family="Helvetica,sans-Serif" font-size="10.00" fill="#000000">+client_secret</text>
<text text-anchor="middle" x="88.459" y="-105" font-family="Helvetica,sans-Serif" font-size="10.00" fill="#000000">+base_url</text>
</g>
<!-- Node3 -->
<g id="node3" class="node">
<title>Node3</title>
<g id="a_node3"><a xlink:title="STL class.">
<polygon fill="none" stroke="#bfbfbf" points="10.4224,-243.5 10.4224,-307.5 104.5181,-307.5 104.5181,-243.5 10.4224,-243.5"/>
<text text-anchor="start" x="18.4224" y="-295.5" font-family="Helvetica,sans-Serif" font-size="10.00" fill="#000000">std::basic_string&lt;</text>
<text text-anchor="middle" x="57.4702" y="-285.5" font-family="Helvetica,sans-Serif" font-size="10.00" fill="#000000"> char &gt;</text>
<polyline fill="none" stroke="#bfbfbf" points="10.4224,-279.5 104.5181,-279.5 "/>
<text text-anchor="middle" x="57.4702" y="-267.5" font-family="Helvetica,sans-Serif" font-size="10.00" fill="#000000"> </text>
<polyline fill="none" stroke="#bfbfbf" points="10.4224,-261.5 104.5181,-261.5 "/>
<text text-anchor="middle" x="57.4702" y="-249.5" font-family="Helvetica,sans-Serif" font-size="10.00" fill="#000000"> </text>
</a>
</g>
</g>
<!-- Node3&#45;&gt;Node2 -->
<g id="edge2" class="edge">
<title>Node3&#45;&gt;Node2</title>
<path fill="none" stroke="#191970" d="M57.4702,-233.4397C57.4702,-224.0133 57.4702,-214.2564 57.4702,-205.6277"/>
<polygon fill="none" stroke="#191970" points="53.9703,-233.4697 57.4702,-243.4697 60.9703,-233.4698 53.9703,-233.4697"/>
</g>
</g>
</svg>
