<?xml version="1.0" encoding="UTF-8" standalone="no"?>
<!DOCTYPE svg PUBLIC "-//W3C//DTD SVG 1.1//EN"
 "http://www.w3.org/Graphics/SVG/1.1/DTD/svg11.dtd">
<!-- Generated by graphviz version 2.40.1 (20161225.0304)
 -->
<!-- Title: MeetingId Pages: 1 -->
<svg width="266pt" height="590pt"
 viewBox="0.00 0.00 265.57 590.00" xmlns="http://www.w3.org/2000/svg" xmlns:xlink="http://www.w3.org/1999/xlink">
<g id="graph0" class="graph" transform="scale(1 1) rotate(0) translate(4 586)">
<title>MeetingId</title>
<!-- Node4 -->
<g id="node1" class="node">
<title>Node4</title>
<g id="a_node1"><a xlink:title=" ">
<polygon fill="#bfbfbf" stroke="#000000" points="83.0859,-.5 83.0859,-64.5 159.9551,-64.5 159.9551,-.5 83.0859,-.5"/>
<text text-anchor="middle" x="121.5205" y="-52.5" font-family="Helvetica,sans-Serif" font-size="10.00" fill="#000000">MeetingId</text>
<polyline fill="none" stroke="#000000" points="83.0859,-46.5 159.9551,-46.5 "/>
<text text-anchor="middle" x="121.5205" y="-34.5" font-family="Helvetica,sans-Serif" font-size="10.00" fill="#000000"> </text>
<polyline fill="none" stroke="#000000" points="83.0859,-28.5 159.9551,-28.5 "/>
<text text-anchor="start" x="91.0859" y="-16.5" font-family="Helvetica,sans-Serif" font-size="10.00" fill="#000000">+ is_empty()</text>
<text text-anchor="start" x="91.0859" y="-6.5" font-family="Helvetica,sans-Serif" font-size="10.00" fill="#000000">+ is_defined()</text>
</a>
</g>
</g>
<!-- Node5 -->
<g id="node2" class="node">
<title>Node5</title>
<g id="a_node2"><a xlink:href="struct_strong_identity.html" target="_top" xlink:title=" ">
<polygon fill="none" stroke="#000000" points="55.0122,-102.5 55.0122,-196.5 188.0288,-196.5 188.0288,-102.5 55.0122,-102.5"/>
<text text-anchor="start" x="63.0122" y="-184.5" font-family="Helvetica,sans-Serif" font-size="10.00" fill="#000000">StrongIdentity&lt; MeetingId,</text>
<text text-anchor="middle" x="121.5205" y="-174.5" font-family="Helvetica,sans-Serif" font-size="10.00" fill="#000000"> String &gt;</text>
<polyline fill="none" stroke="#000000" points="55.0122,-168.5 188.0288,-168.5 "/>
<text text-anchor="middle" x="121.5205" y="-156.5" font-family="Helvetica,sans-Serif" font-size="10.00" fill="#000000"> </text>
<polyline fill="none" stroke="#000000" points="55.0122,-150.5 188.0288,-150.5 "/>
<text text-anchor="start" x="63.0122" y="-138.5" font-family="Helvetica,sans-Serif" font-size="10.00" fill="#000000">+ get_value()</text>
<text text-anchor="start" x="63.0122" y="-128.5" font-family="Helvetica,sans-Serif" font-size="10.00" fill="#000000">+ get_value()</text>
<text text-anchor="start" x="63.0122" y="-118.5" font-family="Helvetica,sans-Serif" font-size="10.00" fill="#000000">+ is_empty()</text>
<text text-anchor="start" x="63.0122" y="-108.5" font-family="Helvetica,sans-Serif" font-size="10.00" fill="#000000">+ is_defined()</text>
</a>
</g>
</g>
<!-- Node5&#45;&gt;Node4 -->
<g id="edge1" class="edge">
<title>Node5&#45;&gt;Node4</title>
<path fill="none" stroke="#191970" d="M121.5205,-92.0329C121.5205,-82.5618 121.5205,-73.0545 121.5205,-64.5046"/>
<polygon fill="none" stroke="#191970" points="118.0206,-92.2488 121.5205,-102.2489 125.0206,-92.2489 118.0206,-92.2488"/>
</g>
<!-- Node6 -->
<g id="node3" class="node">
<title>Node6</title>
<g id="a_node3"><a xlink:href="structdetails_1_1strong__typedef.html" target="_top" xlink:title=" ">
<polygon fill="none" stroke="#000000" points="54.7437,-234.5 54.7437,-358.5 188.2974,-358.5 188.2974,-234.5 54.7437,-234.5"/>
<text text-anchor="start" x="62.7437" y="-346.5" font-family="Helvetica,sans-Serif" font-size="10.00" fill="#000000">details::strong_typedef</text>
<text text-anchor="middle" x="121.5205" y="-336.5" font-family="Helvetica,sans-Serif" font-size="10.00" fill="#000000">&lt; MeetingId, String &gt;</text>
<polyline fill="none" stroke="#000000" points="54.7437,-330.5 188.2974,-330.5 "/>
<text text-anchor="middle" x="121.5205" y="-318.5" font-family="Helvetica,sans-Serif" font-size="10.00" fill="#000000"> </text>
<polyline fill="none" stroke="#000000" points="54.7437,-312.5 188.2974,-312.5 "/>
<text text-anchor="start" x="62.7437" y="-300.5" font-family="Helvetica,sans-Serif" font-size="10.00" fill="#000000">+ strong_typedef()</text>
<text text-anchor="start" x="62.7437" y="-290.5" font-family="Helvetica,sans-Serif" font-size="10.00" fill="#000000">+ strong_typedef()</text>
<text text-anchor="start" x="62.7437" y="-280.5" font-family="Helvetica,sans-Serif" font-size="10.00" fill="#000000">+ strong_typedef()</text>
<text text-anchor="start" x="62.7437" y="-270.5" font-family="Helvetica,sans-Serif" font-size="10.00" fill="#000000">+ operator const String &amp;()</text>
<text text-anchor="start" x="62.7437" y="-260.5" font-family="Helvetica,sans-Serif" font-size="10.00" fill="#000000">+ operator String &amp;()</text>
<text text-anchor="start" x="62.7437" y="-250.5" font-family="Helvetica,sans-Serif" font-size="10.00" fill="#000000">+ operator==()</text>
<text text-anchor="start" x="62.7437" y="-240.5" font-family="Helvetica,sans-Serif" font-size="10.00" fill="#000000">+ operator&lt;()</text>
</a>
</g>
</g>
<!-- Node6&#45;&gt;Node5 -->
<g id="edge2" class="edge">
<title>Node6&#45;&gt;Node5</title>
<path fill="none" stroke="#191970" d="M121.5205,-224.1162C121.5205,-214.8267 121.5205,-205.5135 121.5205,-196.7702"/>
<polygon fill="none" stroke="#191970" points="118.0206,-224.1587 121.5205,-234.1588 125.0206,-224.1588 118.0206,-224.1587"/>
</g>
<!-- Node7 -->
<g id="node4" class="node">
<title>Node7</title>
<g id="a_node4"><a xlink:title=" ">
<polygon fill="none" stroke="#bfbfbf" points="0,-405.5 0,-479.5 163.041,-479.5 163.041,-405.5 0,-405.5"/>
<text text-anchor="start" x="8" y="-467.5" font-family="Helvetica,sans-Serif" font-size="10.00" fill="#000000">boost::totally_ordered1</text>
<text text-anchor="start" x="8" y="-457.5" font-family="Helvetica,sans-Serif" font-size="10.00" fill="#000000">&lt; MeetingId, boost::totally</text>
<text text-anchor="middle" x="81.5205" y="-447.5" font-family="Helvetica,sans-Serif" font-size="10.00" fill="#000000">_ordered2&lt; MeetingId, String &gt; &gt;</text>
<polyline fill="none" stroke="#bfbfbf" points="0,-441.5 163.041,-441.5 "/>
<text text-anchor="middle" x="81.5205" y="-429.5" font-family="Helvetica,sans-Serif" font-size="10.00" fill="#000000"> </text>
<polyline fill="none" stroke="#bfbfbf" points="0,-423.5 163.041,-423.5 "/>
<text text-anchor="middle" x="81.5205" y="-411.5" font-family="Helvetica,sans-Serif" font-size="10.00" fill="#000000"> </text>
</a>
</g>
</g>
<!-- Node7&#45;&gt;Node6 -->
<g id="edge3" class="edge">
<title>Node7&#45;&gt;Node6</title>
<path fill="none" stroke="#191970" d="M94.452,-395.3001C97.6561,-383.6052 101.1379,-370.8965 104.5043,-358.609"/>
<polygon fill="none" stroke="#191970" points="90.9845,-394.7108 91.7177,-405.2803 97.7357,-396.5605 90.9845,-394.7108"/>
</g>
<!-- Node8 -->
<g id="node5" class="node">
<title>Node8</title>
<g id="a_node5"><a xlink:title="STL class.">
<polygon fill="none" stroke="#bfbfbf" points="180.8457,-415.5 180.8457,-469.5 240.1953,-469.5 240.1953,-415.5 180.8457,-415.5"/>
<text text-anchor="middle" x="210.5205" y="-457.5" font-family="Helvetica,sans-Serif" font-size="10.00" fill="#000000">std::string</text>
<polyline fill="none" stroke="#bfbfbf" points="180.8457,-451.5 240.1953,-451.5 "/>
<text text-anchor="middle" x="210.5205" y="-439.5" font-family="Helvetica,sans-Serif" font-size="10.00" fill="#000000"> </text>
<polyline fill="none" stroke="#bfbfbf" points="180.8457,-433.5 240.1953,-433.5 "/>
<text text-anchor="middle" x="210.5205" y="-421.5" font-family="Helvetica,sans-Serif" font-size="10.00" fill="#000000"> </text>
</a>
</g>
</g>
<!-- Node8&#45;&gt;Node6 -->
<g id="edge4" class="edge">
<title>Node8&#45;&gt;Node6</title>
<path fill="none" stroke="#404040" d="M193.9889,-415.3807C185.9127,-402.1322 175.7697,-385.4931 165.6521,-368.8956"/>
<polygon fill="none" stroke="#404040" points="165.6205,-368.8437 159.082,-365.8026 159.3744,-358.5974 165.9129,-361.6386 165.6205,-368.8437"/>
<text text-anchor="middle" x="182.2188" y="-379" font-family="Helvetica,sans-Serif" font-size="10.00" fill="#000000"> +t</text>
</g>
<!-- Node9 -->
<g id="node6" class="node">
<title>Node9</title>
<g id="a_node6"><a xlink:title="STL class.">
<polygon fill="none" stroke="#bfbfbf" points="163.4727,-517.5 163.4727,-581.5 257.5684,-581.5 257.5684,-517.5 163.4727,-517.5"/>
<text text-anchor="start" x="171.4727" y="-569.5" font-family="Helvetica,sans-Serif" font-size="10.00" fill="#000000">std::basic_string&lt;</text>
<text text-anchor="middle" x="210.5205" y="-559.5" font-family="Helvetica,sans-Serif" font-size="10.00" fill="#000000"> char &gt;</text>
<polyline fill="none" stroke="#bfbfbf" points="163.4727,-553.5 257.5684,-553.5 "/>
<text text-anchor="middle" x="210.5205" y="-541.5" font-family="Helvetica,sans-Serif" font-size="10.00" fill="#000000"> </text>
<polyline fill="none" stroke="#bfbfbf" points="163.4727,-535.5 257.5684,-535.5 "/>
<text text-anchor="middle" x="210.5205" y="-523.5" font-family="Helvetica,sans-Serif" font-size="10.00" fill="#000000"> </text>
</a>
</g>
</g>
<!-- Node9&#45;&gt;Node8 -->
<g id="edge5" class="edge">
<title>Node9&#45;&gt;Node8</title>
<path fill="none" stroke="#191970" d="M210.5205,-507.0442C210.5205,-494.4009 210.5205,-480.8972 210.5205,-469.5265"/>
<polygon fill="none" stroke="#191970" points="207.0206,-507.3964 210.5205,-517.3965 214.0206,-507.3965 207.0206,-507.3964"/>
</g>
</g>
</svg>
