<?xml version="1.0" encoding="UTF-8" standalone="no"?>
<!DOCTYPE svg PUBLIC "-//W3C//DTD SVG 1.1//EN"
 "http://www.w3.org/Graphics/SVG/1.1/DTD/svg11.dtd">
<!-- Generated by graphviz version 2.40.1 (20161225.0304)
 -->
<!-- Title: cx::toolkit::measure::execution Pages: 1 -->
<svg width="248pt" height="84pt"
 viewBox="0.00 0.00 248.29 84.00" xmlns="http://www.w3.org/2000/svg" xmlns:xlink="http://www.w3.org/1999/xlink">
<g id="graph0" class="graph" transform="scale(1 1) rotate(0) translate(4 80)">
<title>cx::toolkit::measure::execution</title>
<!-- Node3 -->
<g id="node1" class="node">
<title>Node3</title>
<g id="a_node1"><a xlink:title=" ">
<polygon fill="#bfbfbf" stroke="#000000" points="0,-23.5 0,-51.5 102.1426,-51.5 102.1426,-23.5 0,-23.5"/>
<text text-anchor="start" x="8" y="-39.5" font-family="Helvetica,sans-Serif" font-size="10.00" fill="#000000">cx::toolkit::measure</text>
<text text-anchor="middle" x="51.0713" y="-29.5" font-family="Helvetica,sans-Serif" font-size="10.00" fill="#000000">::execution</text>
</a>
</g>
</g>
<!-- Node4 -->
<g id="node2" class="node">
<title>Node4</title>
<g id="a_node2"><a xlink:href="structcx_1_1toolkit_1_1measure.html#a2fa652a54097f34d66b7235a6a84747c" target="_top" xlink:title=" ">
<polygon fill="none" stroke="#000000" points="138.1426,-47.5 138.1426,-75.5 240.2852,-75.5 240.2852,-47.5 138.1426,-47.5"/>
<text text-anchor="start" x="146.1426" y="-63.5" font-family="Helvetica,sans-Serif" font-size="10.00" fill="#000000">cx::toolkit::measure</text>
<text text-anchor="middle" x="189.2139" y="-53.5" font-family="Helvetica,sans-Serif" font-size="10.00" fill="#000000">::get_time_point</text>
</a>
</g>
</g>
<!-- Node3&#45;&gt;Node4 -->
<g id="edge1" class="edge">
<title>Node3&#45;&gt;Node4</title>
<path fill="none" stroke="#191970" d="M102.5105,-46.4367C110.691,-47.8579 119.2251,-49.3406 127.6106,-50.7974"/>
<polygon fill="#191970" stroke="#191970" points="127.2802,-54.2924 137.7317,-52.5558 128.4784,-47.3957 127.2802,-54.2924"/>
</g>
<!-- Node5 -->
<g id="node3" class="node">
<title>Node5</title>
<g id="a_node3"><a xlink:href="structcx_1_1toolkit_1_1measure.html#a69bfaefdbddc964ea3c560b81a6008f1" target="_top" xlink:title=" ">
<polygon fill="none" stroke="#000000" points="138.1426,-.5 138.1426,-28.5 240.2852,-28.5 240.2852,-.5 138.1426,-.5"/>
<text text-anchor="start" x="146.1426" y="-16.5" font-family="Helvetica,sans-Serif" font-size="10.00" fill="#000000">cx::toolkit::measure</text>
<text text-anchor="middle" x="189.2139" y="-6.5" font-family="Helvetica,sans-Serif" font-size="10.00" fill="#000000">::duration</text>
</a>
</g>
</g>
<!-- Node3&#45;&gt;Node5 -->
<g id="edge2" class="edge">
<title>Node3&#45;&gt;Node5</title>
<path fill="none" stroke="#191970" d="M102.5105,-28.9356C110.691,-27.5736 119.2251,-26.1528 127.6106,-24.7566"/>
<polygon fill="#191970" stroke="#191970" points="128.4423,-28.1664 137.7317,-23.0715 127.2926,-21.2614 128.4423,-28.1664"/>
</g>
</g>
</svg>
