<?xml version="1.0" encoding="UTF-8" standalone="no"?>
<!DOCTYPE svg PUBLIC "-//W3C//DTD SVG 1.1//EN"
 "http://www.w3.org/Graphics/SVG/1.1/DTD/svg11.dtd">
<!-- Generated by graphviz version 2.40.1 (20161225.0304)
 -->
<!-- Title: cx::web::UserParameters Pages: 1 -->
<svg width="244pt" height="428pt"
 viewBox="0.00 0.00 243.85 428.00" xmlns="http://www.w3.org/2000/svg" xmlns:xlink="http://www.w3.org/1999/xlink">
<g id="graph0" class="graph" transform="scale(1 1) rotate(0) translate(4 424)">
<title>cx::web::UserParameters</title>
<!-- Node3 -->
<g id="node1" class="node">
<title>Node3</title>
<g id="a_node1"><a xlink:title=" ">
<polygon fill="#bfbfbf" stroke="#000000" points="43.6772,-.5 43.6772,-54.5 171.9331,-54.5 171.9331,-.5 43.6772,-.5"/>
<text text-anchor="middle" x="107.8052" y="-42.5" font-family="Helvetica,sans-Serif" font-size="10.00" fill="#000000">cx::web::UserParameters</text>
<polyline fill="none" stroke="#000000" points="43.6772,-36.5 171.9331,-36.5 "/>
<text text-anchor="middle" x="107.8052" y="-24.5" font-family="Helvetica,sans-Serif" font-size="10.00" fill="#000000"> </text>
<polyline fill="none" stroke="#000000" points="43.6772,-18.5 171.9331,-18.5 "/>
<text text-anchor="middle" x="107.8052" y="-6.5" font-family="Helvetica,sans-Serif" font-size="10.00" fill="#000000"> </text>
</a>
</g>
</g>
<!-- Node4 -->
<g id="node2" class="node">
<title>Node4</title>
<g id="a_node2"><a xlink:href="structcx_1_1web_1_1_access_token_cache.html" target="_top" xlink:title=" ">
<polygon fill="none" stroke="#000000" points="36.165,-92.5 36.165,-176.5 179.4453,-176.5 179.4453,-92.5 36.165,-92.5"/>
<text text-anchor="middle" x="107.8052" y="-164.5" font-family="Helvetica,sans-Serif" font-size="10.00" fill="#000000">cx::web::AccessTokenCache</text>
<polyline fill="none" stroke="#000000" points="36.165,-158.5 179.4453,-158.5 "/>
<text text-anchor="middle" x="107.8052" y="-146.5" font-family="Helvetica,sans-Serif" font-size="10.00" fill="#000000"> </text>
<polyline fill="none" stroke="#000000" points="36.165,-140.5 179.4453,-140.5 "/>
<text text-anchor="start" x="44.165" y="-128.5" font-family="Helvetica,sans-Serif" font-size="10.00" fill="#000000">+ AccessTokenCache()</text>
<text text-anchor="start" x="44.165" y="-118.5" font-family="Helvetica,sans-Serif" font-size="10.00" fill="#000000">+ AccessTokenCache()</text>
<text text-anchor="start" x="44.165" y="-108.5" font-family="Helvetica,sans-Serif" font-size="10.00" fill="#000000">+ serialize()</text>
<text text-anchor="start" x="44.165" y="-98.5" font-family="Helvetica,sans-Serif" font-size="10.00" fill="#000000">+ deserialize()</text>
</a>
</g>
</g>
<!-- Node4&#45;&gt;Node3 -->
<g id="edge1" class="edge">
<title>Node4&#45;&gt;Node3</title>
<path fill="none" stroke="#191970" d="M107.8052,-82.0276C107.8052,-72.5762 107.8052,-63.082 107.8052,-54.7255"/>
<polygon fill="none" stroke="#191970" points="104.3053,-82.2107 107.8052,-92.2108 111.3053,-82.2108 104.3053,-82.2107"/>
</g>
<!-- Node5 -->
<g id="node3" class="node">
<title>Node5</title>
<g id="a_node3"><a xlink:href="structcx_1_1web_1_1_cached_parameters.html" target="_top" xlink:title=" ">
<polygon fill="none" stroke="#000000" points="0,-233.5 0,-317.5 141.6104,-317.5 141.6104,-233.5 0,-233.5"/>
<text text-anchor="middle" x="70.8052" y="-305.5" font-family="Helvetica,sans-Serif" font-size="10.00" fill="#000000">cx::web::CachedParameters</text>
<polyline fill="none" stroke="#000000" points="0,-299.5 141.6104,-299.5 "/>
<text text-anchor="middle" x="70.8052" y="-287.5" font-family="Helvetica,sans-Serif" font-size="10.00" fill="#000000"> </text>
<polyline fill="none" stroke="#000000" points="0,-281.5 141.6104,-281.5 "/>
<text text-anchor="start" x="8" y="-269.5" font-family="Helvetica,sans-Serif" font-size="10.00" fill="#000000">+ serialize()</text>
<text text-anchor="start" x="8" y="-259.5" font-family="Helvetica,sans-Serif" font-size="10.00" fill="#000000">+ deserialize()</text>
<text text-anchor="start" x="8" y="-249.5" font-family="Helvetica,sans-Serif" font-size="10.00" fill="#000000">+ operator&gt;&gt;()</text>
<text text-anchor="start" x="8" y="-239.5" font-family="Helvetica,sans-Serif" font-size="10.00" fill="#000000">+ operator&lt;&lt;()</text>
</a>
</g>
</g>
<!-- Node5&#45;&gt;Node4 -->
<g id="edge2" class="edge">
<title>Node5&#45;&gt;Node4</title>
<path fill="none" stroke="#191970" d="M84.4954,-223.3292C88.52,-207.9922 92.871,-191.4114 96.7118,-176.7748"/>
<polygon fill="none" stroke="#191970" points="81.0593,-222.6344 81.9064,-233.1954 87.83,-224.4112 81.0593,-222.6344"/>
</g>
<!-- Node6 -->
<g id="node4" class="node">
<title>Node6</title>
<g id="a_node4"><a xlink:title="STL class.">
<polygon fill="none" stroke="#bfbfbf" points="159.1304,-248.5 159.1304,-302.5 218.48,-302.5 218.48,-248.5 159.1304,-248.5"/>
<text text-anchor="middle" x="188.8052" y="-290.5" font-family="Helvetica,sans-Serif" font-size="10.00" fill="#000000">std::string</text>
<polyline fill="none" stroke="#bfbfbf" points="159.1304,-284.5 218.48,-284.5 "/>
<text text-anchor="middle" x="188.8052" y="-272.5" font-family="Helvetica,sans-Serif" font-size="10.00" fill="#000000"> </text>
<polyline fill="none" stroke="#bfbfbf" points="159.1304,-266.5 218.48,-266.5 "/>
<text text-anchor="middle" x="188.8052" y="-254.5" font-family="Helvetica,sans-Serif" font-size="10.00" fill="#000000"> </text>
</a>
</g>
</g>
<!-- Node6&#45;&gt;Node4 -->
<g id="edge3" class="edge">
<title>Node6&#45;&gt;Node4</title>
<path fill="none" stroke="#404040" d="M173.1876,-248.3138C163.244,-231.0046 150.0331,-208.0079 138.0902,-187.2184"/>
<polygon fill="none" stroke="#404040" points="137.962,-186.9951 131.5048,-183.785 131.9844,-176.5898 138.4416,-179.7999 137.962,-186.9951"/>
<text text-anchor="middle" x="187.688" y="-207" font-family="Helvetica,sans-Serif" font-size="10.00" fill="#000000"> +access_token</text>
<text text-anchor="middle" x="187.688" y="-197" font-family="Helvetica,sans-Serif" font-size="10.00" fill="#000000">+refresh_token</text>
</g>
<!-- Node7 -->
<g id="node5" class="node">
<title>Node7</title>
<g id="a_node5"><a xlink:title="STL class.">
<polygon fill="none" stroke="#bfbfbf" points="141.7573,-355.5 141.7573,-419.5 235.853,-419.5 235.853,-355.5 141.7573,-355.5"/>
<text text-anchor="start" x="149.7573" y="-407.5" font-family="Helvetica,sans-Serif" font-size="10.00" fill="#000000">std::basic_string&lt;</text>
<text text-anchor="middle" x="188.8052" y="-397.5" font-family="Helvetica,sans-Serif" font-size="10.00" fill="#000000"> char &gt;</text>
<polyline fill="none" stroke="#bfbfbf" points="141.7573,-391.5 235.853,-391.5 "/>
<text text-anchor="middle" x="188.8052" y="-379.5" font-family="Helvetica,sans-Serif" font-size="10.00" fill="#000000"> </text>
<polyline fill="none" stroke="#bfbfbf" points="141.7573,-373.5 235.853,-373.5 "/>
<text text-anchor="middle" x="188.8052" y="-361.5" font-family="Helvetica,sans-Serif" font-size="10.00" fill="#000000"> </text>
</a>
</g>
</g>
<!-- Node7&#45;&gt;Node6 -->
<g id="edge4" class="edge">
<title>Node7&#45;&gt;Node6</title>
<path fill="none" stroke="#191970" d="M188.8052,-345.2927C188.8052,-331.0159 188.8052,-315.4638 188.8052,-302.6713"/>
<polygon fill="none" stroke="#191970" points="185.3053,-345.4053 188.8052,-355.4053 192.3053,-345.4053 185.3053,-345.4053"/>
</g>
</g>
</svg>
