<?xml version="1.0" encoding="UTF-8" standalone="no"?>
<!DOCTYPE svg PUBLIC "-//W3C//DTD SVG 1.1//EN"
 "http://www.w3.org/Graphics/SVG/1.1/DTD/svg11.dtd">
<!-- Generated by graphviz version 2.40.1 (20161225.0304)
 -->
<!-- Title: cx::web::SubscriptionParameters Pages: 1 -->
<svg width="170pt" height="335pt"
 viewBox="0.00 0.00 170.17 335.00" xmlns="http://www.w3.org/2000/svg" xmlns:xlink="http://www.w3.org/1999/xlink">
<g id="graph0" class="graph" transform="scale(1 1) rotate(0) translate(4 331)">
<title>cx::web::SubscriptionParameters</title>
<!-- Node0 -->
<g id="node1" class="node">
<title>Node0</title>
<g id="a_node1"><a xlink:title=" ">
<polygon fill="#bfbfbf" stroke="#000000" points="0,-.5 0,-74.5 162.1719,-74.5 162.1719,-.5 0,-.5"/>
<text text-anchor="middle" x="81.0859" y="-62.5" font-family="Helvetica,sans-Serif" font-size="10.00" fill="#000000">cx::web::SubscriptionParameters</text>
<polyline fill="none" stroke="#000000" points="0,-56.5 162.1719,-56.5 "/>
<text text-anchor="start" x="8" y="-44.5" font-family="Helvetica,sans-Serif" font-size="10.00" fill="#000000">+ meeting_id</text>
<text text-anchor="start" x="8" y="-34.5" font-family="Helvetica,sans-Serif" font-size="10.00" fill="#000000">+ subscription_id</text>
<text text-anchor="start" x="8" y="-24.5" font-family="Helvetica,sans-Serif" font-size="10.00" fill="#000000">+ credentials</text>
<polyline fill="none" stroke="#000000" points="0,-18.5 162.1719,-18.5 "/>
<text text-anchor="middle" x="81.0859" y="-6.5" font-family="Helvetica,sans-Serif" font-size="10.00" fill="#000000"> </text>
</a>
</g>
</g>
<!-- Node1 -->
<g id="node2" class="node">
<title>Node1</title>
<g id="a_node2"><a xlink:href="structcx_1_1web_1_1_access_token_cache.html" target="_top" xlink:title=" ">
<polygon fill="none" stroke="#000000" points="9.4458,-111.5 9.4458,-205.5 152.7261,-205.5 152.7261,-111.5 9.4458,-111.5"/>
<text text-anchor="middle" x="81.0859" y="-193.5" font-family="Helvetica,sans-Serif" font-size="10.00" fill="#000000">cx::web::AccessTokenCache</text>
<polyline fill="none" stroke="#000000" points="9.4458,-187.5 152.7261,-187.5 "/>
<text text-anchor="start" x="17.4458" y="-175.5" font-family="Helvetica,sans-Serif" font-size="10.00" fill="#000000">+ access_token</text>
<text text-anchor="start" x="17.4458" y="-165.5" font-family="Helvetica,sans-Serif" font-size="10.00" fill="#000000">+ refresh_token</text>
<polyline fill="none" stroke="#000000" points="9.4458,-159.5 152.7261,-159.5 "/>
<text text-anchor="start" x="17.4458" y="-147.5" font-family="Helvetica,sans-Serif" font-size="10.00" fill="#000000">+ AccessTokenCache()</text>
<text text-anchor="start" x="17.4458" y="-137.5" font-family="Helvetica,sans-Serif" font-size="10.00" fill="#000000">+ AccessTokenCache()</text>
<text text-anchor="start" x="17.4458" y="-127.5" font-family="Helvetica,sans-Serif" font-size="10.00" fill="#000000">+ serialize()</text>
<text text-anchor="start" x="17.4458" y="-117.5" font-family="Helvetica,sans-Serif" font-size="10.00" fill="#000000">+ deserialize()</text>
</a>
</g>
</g>
<!-- Node1&#45;&gt;Node0 -->
<g id="edge1" class="edge">
<title>Node1&#45;&gt;Node0</title>
<path fill="none" stroke="#191970" d="M81.0859,-101.2279C81.0859,-92.1684 81.0859,-83.0122 81.0859,-74.5748"/>
<polygon fill="none" stroke="#191970" points="77.586,-101.3717 81.0859,-111.3718 84.586,-101.3718 77.586,-101.3717"/>
</g>
<!-- Node2 -->
<g id="node3" class="node">
<title>Node2</title>
<g id="a_node3"><a xlink:href="structcx_1_1web_1_1_cached_parameters.html" target="_top" xlink:title=" ">
<polygon fill="none" stroke="#000000" points="10.2808,-242.5 10.2808,-326.5 151.8911,-326.5 151.8911,-242.5 10.2808,-242.5"/>
<text text-anchor="middle" x="81.0859" y="-314.5" font-family="Helvetica,sans-Serif" font-size="10.00" fill="#000000">cx::web::CachedParameters</text>
<polyline fill="none" stroke="#000000" points="10.2808,-308.5 151.8911,-308.5 "/>
<text text-anchor="middle" x="81.0859" y="-296.5" font-family="Helvetica,sans-Serif" font-size="10.00" fill="#000000"> </text>
<polyline fill="none" stroke="#000000" points="10.2808,-290.5 151.8911,-290.5 "/>
<text text-anchor="start" x="18.2808" y="-278.5" font-family="Helvetica,sans-Serif" font-size="10.00" fill="#000000">+ serialize()</text>
<text text-anchor="start" x="18.2808" y="-268.5" font-family="Helvetica,sans-Serif" font-size="10.00" fill="#000000">+ deserialize()</text>
<text text-anchor="start" x="18.2808" y="-258.5" font-family="Helvetica,sans-Serif" font-size="10.00" fill="#000000">+ operator&gt;&gt;()</text>
<text text-anchor="start" x="18.2808" y="-248.5" font-family="Helvetica,sans-Serif" font-size="10.00" fill="#000000">+ operator&lt;&lt;()</text>
</a>
</g>
</g>
<!-- Node2&#45;&gt;Node1 -->
<g id="edge2" class="edge">
<title>Node2&#45;&gt;Node1</title>
<path fill="none" stroke="#191970" d="M81.0859,-232.0873C81.0859,-223.3328 81.0859,-214.2974 81.0859,-205.6838"/>
<polygon fill="none" stroke="#191970" points="77.586,-232.1933 81.0859,-242.1933 84.586,-232.1933 77.586,-232.1933"/>
</g>
</g>
</svg>
