<?xml version="1.0" encoding="UTF-8" standalone="no"?>
<!DOCTYPE svg PUBLIC "-//W3C//DTD SVG 1.1//EN"
 "http://www.w3.org/Graphics/SVG/1.1/DTD/svg11.dtd">
<!-- Generated by graphviz version 2.40.1 (20161225.0304)
 -->
<!-- Title: /Users/oskryp/Projects/freesee&#45;native&#45;client/libs/fcc_sdk/engine/meetingclient/src/headers/MeetingClient/webservices/uri_string.hxx Pages: 1 -->
<svg width="201pt" height="122pt"
 viewBox="0.00 0.00 200.74 122.00" xmlns="http://www.w3.org/2000/svg" xmlns:xlink="http://www.w3.org/1999/xlink">
<g id="graph0" class="graph" transform="scale(1 1) rotate(0) translate(4 118)">
<title>/Users/oskryp/Projects/freesee&#45;native&#45;client/libs/fcc_sdk/engine/meetingclient/src/headers/MeetingClient/webservices/uri_string.hxx</title>
<!-- Node0 -->
<g id="node1" class="node">
<title>Node0</title>
<g id="a_node1"><a xlink:title=" ">
<polygon fill="#bfbfbf" stroke="#000000" points="0,-55.5 0,-113.5 192.7432,-113.5 192.7432,-55.5 0,-55.5"/>
<text text-anchor="start" x="8" y="-101.5" font-family="Helvetica,sans-Serif" font-size="10.00" fill="#000000">/Users/oskryp/Projects</text>
<text text-anchor="start" x="8" y="-91.5" font-family="Helvetica,sans-Serif" font-size="10.00" fill="#000000">/freesee&#45;native&#45;client</text>
<text text-anchor="start" x="8" y="-81.5" font-family="Helvetica,sans-Serif" font-size="10.00" fill="#000000">/libs/fcc_sdk/engine/meetingclient</text>
<text text-anchor="start" x="8" y="-71.5" font-family="Helvetica,sans-Serif" font-size="10.00" fill="#000000">/src/headers/MeetingClient/webservices</text>
<text text-anchor="middle" x="96.3716" y="-61.5" font-family="Helvetica,sans-Serif" font-size="10.00" fill="#000000">/uri_string.hxx</text>
</a>
</g>
</g>
<!-- Node1 -->
<g id="node2" class="node">
<title>Node1</title>
<g id="a_node2"><a xlink:title=" ">
<polygon fill="none" stroke="#bfbfbf" points="36.5908,-.5 36.5908,-18.5 88.1523,-18.5 88.1523,-.5 36.5908,-.5"/>
<text text-anchor="middle" x="62.3716" y="-6.5" font-family="Helvetica,sans-Serif" font-size="10.00" fill="#000000">sstream</text>
</a>
</g>
</g>
<!-- Node0&#45;&gt;Node1 -->
<g id="edge1" class="edge">
<title>Node0&#45;&gt;Node1</title>
<path fill="none" stroke="#191970" d="M83.1289,-55.2883C78.9861,-46.1496 74.5298,-36.3197 70.8124,-28.1194"/>
<polygon fill="#191970" stroke="#191970" points="73.8946,-26.4415 66.578,-18.7788 67.5191,-29.3317 73.8946,-26.4415"/>
</g>
<!-- Node2 -->
<g id="node3" class="node">
<title>Node2</title>
<g id="a_node3"><a xlink:title=" ">
<polygon fill="none" stroke="#bfbfbf" points="105.8618,-.5 105.8618,-18.5 156.8813,-18.5 156.8813,-.5 105.8618,-.5"/>
<text text-anchor="middle" x="131.3716" y="-6.5" font-family="Helvetica,sans-Serif" font-size="10.00" fill="#000000">iomanip</text>
</a>
</g>
</g>
<!-- Node0&#45;&gt;Node2 -->
<g id="edge2" class="edge">
<title>Node0&#45;&gt;Node2</title>
<path fill="none" stroke="#191970" d="M110.0037,-55.2883C114.3158,-46.0481 118.9577,-36.1012 122.8098,-27.8467"/>
<polygon fill="#191970" stroke="#191970" points="125.9842,-29.3207 127.0415,-18.7788 119.6409,-26.3605 125.9842,-29.3207"/>
</g>
</g>
</svg>
