<?xml version="1.0" encoding="UTF-8" standalone="no"?>
<!DOCTYPE svg PUBLIC "-//W3C//DTD SVG 1.1//EN"
 "http://www.w3.org/Graphics/SVG/1.1/DTD/svg11.dtd">
<!-- Generated by graphviz version 2.40.1 (20161225.0304)
 -->
<!-- Title: /Users/oskryp/Projects/freesee&#45;native&#45;client/libs/fcc_sdk/engine/meetingclient/src/headers/MeetingClient/webservices/uri_string.hxx Pages: 1 -->
<svg width="1007pt" height="427pt"
 viewBox="0.00 0.00 1006.88 427.00" xmlns="http://www.w3.org/2000/svg" xmlns:xlink="http://www.w3.org/1999/xlink">
<g id="graph0" class="graph" transform="scale(1 1) rotate(0) translate(4 423)">
<title>/Users/oskryp/Projects/freesee&#45;native&#45;client/libs/fcc_sdk/engine/meetingclient/src/headers/MeetingClient/webservices/uri_string.hxx</title>
<!-- Node3 -->
<g id="node1" class="node">
<title>Node3</title>
<g id="a_node1"><a xlink:title=" ">
<polygon fill="#bfbfbf" stroke="#000000" points="455.2036,-360.5 455.2036,-418.5 647.9468,-418.5 647.9468,-360.5 455.2036,-360.5"/>
<text text-anchor="start" x="463.2036" y="-406.5" font-family="Helvetica,sans-Serif" font-size="10.00" fill="#000000">/Users/oskryp/Projects</text>
<text text-anchor="start" x="463.2036" y="-396.5" font-family="Helvetica,sans-Serif" font-size="10.00" fill="#000000">/freesee&#45;native&#45;client</text>
<text text-anchor="start" x="463.2036" y="-386.5" font-family="Helvetica,sans-Serif" font-size="10.00" fill="#000000">/libs/fcc_sdk/engine/meetingclient</text>
<text text-anchor="start" x="463.2036" y="-376.5" font-family="Helvetica,sans-Serif" font-size="10.00" fill="#000000">/src/headers/MeetingClient/webservices</text>
<text text-anchor="middle" x="551.5752" y="-366.5" font-family="Helvetica,sans-Serif" font-size="10.00" fill="#000000">/uri_string.hxx</text>
</a>
</g>
</g>
<!-- Node4 -->
<g id="node2" class="node">
<title>Node4</title>
<g id="a_node2"><a xlink:href="_h_t_t_p_request_8hxx.html" target="_top" xlink:title=" ">
<polygon fill="none" stroke="#000000" points="303.8662,-275.5 303.8662,-323.5 523.2842,-323.5 523.2842,-275.5 303.8662,-275.5"/>
<text text-anchor="start" x="311.8662" y="-311.5" font-family="Helvetica,sans-Serif" font-size="10.00" fill="#000000">/Users/oskryp/Projects</text>
<text text-anchor="start" x="311.8662" y="-301.5" font-family="Helvetica,sans-Serif" font-size="10.00" fill="#000000">/freesee&#45;native&#45;client</text>
<text text-anchor="start" x="311.8662" y="-291.5" font-family="Helvetica,sans-Serif" font-size="10.00" fill="#000000">/libs/fcc_sdk/engine/meetingclient</text>
<text text-anchor="middle" x="413.5752" y="-281.5" font-family="Helvetica,sans-Serif" font-size="10.00" fill="#000000">/src/headers/MeetingClient/HTTPRequest.hxx</text>
</a>
</g>
</g>
<!-- Node3&#45;&gt;Node4 -->
<g id="edge1" class="edge">
<title>Node3&#45;&gt;Node4</title>
<path fill="none" stroke="#191970" d="M498.1219,-354.6392C482.3005,-344.3209 465.3288,-333.2524 450.7737,-323.7599"/>
<polygon fill="#191970" stroke="#191970" points="496.4825,-357.7485 506.7705,-360.2796 500.3064,-351.8852 496.4825,-357.7485"/>
</g>
<!-- Node10 -->
<g id="node8" class="node">
<title>Node10</title>
<g id="a_node8"><a xlink:href="_web_a_p_iv4_wrapper_8cxx.html" target="_top" xlink:title=" ">
<polygon fill="none" stroke="#000000" points="412,-.5 412,-48.5 607.1504,-48.5 607.1504,-.5 412,-.5"/>
<text text-anchor="start" x="420" y="-36.5" font-family="Helvetica,sans-Serif" font-size="10.00" fill="#000000">/Users/oskryp/Projects</text>
<text text-anchor="start" x="420" y="-26.5" font-family="Helvetica,sans-Serif" font-size="10.00" fill="#000000">/freesee&#45;native&#45;client</text>
<text text-anchor="start" x="420" y="-16.5" font-family="Helvetica,sans-Serif" font-size="10.00" fill="#000000">/libs/fcc_sdk/engine/meetingclient</text>
<text text-anchor="middle" x="509.5752" y="-6.5" font-family="Helvetica,sans-Serif" font-size="10.00" fill="#000000">/src/webservices/WebAPIv4Wrapper.cxx</text>
</a>
</g>
</g>
<!-- Node3&#45;&gt;Node10 -->
<g id="edge15" class="edge">
<title>Node3&#45;&gt;Node10</title>
<path fill="none" stroke="#191970" d="M552.865,-349.8362C553.9281,-291.2218 552.7427,-178.3353 532.5752,-85 529.9172,-72.6986 525.1826,-59.5808 520.6972,-48.7156"/>
<polygon fill="#191970" stroke="#191970" points="549.3595,-350.0595 552.6444,-360.1323 556.3579,-350.2096 549.3595,-350.0595"/>
</g>
<!-- Node15 -->
<g id="node13" class="node">
<title>Node15</title>
<g id="a_node13"><a xlink:href="uri__string_8cxx.html" target="_top" xlink:title=" ">
<polygon fill="none" stroke="#000000" points="579.0903,-275.5 579.0903,-323.5 744.0601,-323.5 744.0601,-275.5 579.0903,-275.5"/>
<text text-anchor="start" x="587.0903" y="-311.5" font-family="Helvetica,sans-Serif" font-size="10.00" fill="#000000">/Users/oskryp/Projects</text>
<text text-anchor="start" x="587.0903" y="-301.5" font-family="Helvetica,sans-Serif" font-size="10.00" fill="#000000">/freesee&#45;native&#45;client</text>
<text text-anchor="start" x="587.0903" y="-291.5" font-family="Helvetica,sans-Serif" font-size="10.00" fill="#000000">/libs/fcc_sdk/engine/meetingclient</text>
<text text-anchor="middle" x="661.5752" y="-281.5" font-family="Helvetica,sans-Serif" font-size="10.00" fill="#000000">/src/webservices/uri_string.cxx</text>
</a>
</g>
</g>
<!-- Node3&#45;&gt;Node15 -->
<g id="edge14" class="edge">
<title>Node3&#45;&gt;Node15</title>
<path fill="none" stroke="#191970" d="M595.2359,-353.7776C607.5442,-343.7072 620.6446,-332.9887 631.9242,-323.7599"/>
<polygon fill="#191970" stroke="#191970" points="592.8123,-351.2383 587.289,-360.2796 597.245,-356.656 592.8123,-351.2383"/>
</g>
<!-- Node5 -->
<g id="node3" class="node">
<title>Node5</title>
<g id="a_node3"><a xlink:href="result__builder_8hxx.html" target="_top" xlink:title=" ">
<polygon fill="none" stroke="#000000" points="324.2036,-180.5 324.2036,-238.5 516.9468,-238.5 516.9468,-180.5 324.2036,-180.5"/>
<text text-anchor="start" x="332.2036" y="-226.5" font-family="Helvetica,sans-Serif" font-size="10.00" fill="#000000">/Users/oskryp/Projects</text>
<text text-anchor="start" x="332.2036" y="-216.5" font-family="Helvetica,sans-Serif" font-size="10.00" fill="#000000">/freesee&#45;native&#45;client</text>
<text text-anchor="start" x="332.2036" y="-206.5" font-family="Helvetica,sans-Serif" font-size="10.00" fill="#000000">/libs/fcc_sdk/engine/meetingclient</text>
<text text-anchor="start" x="332.2036" y="-196.5" font-family="Helvetica,sans-Serif" font-size="10.00" fill="#000000">/src/headers/MeetingClient/webservices</text>
<text text-anchor="middle" x="420.5752" y="-186.5" font-family="Helvetica,sans-Serif" font-size="10.00" fill="#000000">/result_builder.hxx</text>
</a>
</g>
</g>
<!-- Node4&#45;&gt;Node5 -->
<g id="edge2" class="edge">
<title>Node4&#45;&gt;Node5</title>
<path fill="none" stroke="#191970" d="M416.2459,-265.162C416.9213,-256.4781 417.6405,-247.2323 418.2946,-238.8215"/>
<polygon fill="#191970" stroke="#191970" points="412.7371,-265.1403 415.4511,-275.3817 419.7161,-265.6832 412.7371,-265.1403"/>
</g>
<!-- Node14 -->
<g id="node12" class="node">
<title>Node14</title>
<g id="a_node12"><a xlink:href="_h_t_t_p_request_8cxx.html" target="_top" xlink:title=" ">
<polygon fill="none" stroke="#000000" points="141.0903,-185.5 141.0903,-233.5 306.0601,-233.5 306.0601,-185.5 141.0903,-185.5"/>
<text text-anchor="start" x="149.0903" y="-221.5" font-family="Helvetica,sans-Serif" font-size="10.00" fill="#000000">/Users/oskryp/Projects</text>
<text text-anchor="start" x="149.0903" y="-211.5" font-family="Helvetica,sans-Serif" font-size="10.00" fill="#000000">/freesee&#45;native&#45;client</text>
<text text-anchor="start" x="149.0903" y="-201.5" font-family="Helvetica,sans-Serif" font-size="10.00" fill="#000000">/libs/fcc_sdk/engine/meetingclient</text>
<text text-anchor="middle" x="223.5752" y="-191.5" font-family="Helvetica,sans-Serif" font-size="10.00" fill="#000000">/src/HTTPRequest.cxx</text>
</a>
</g>
</g>
<!-- Node4&#45;&gt;Node14 -->
<g id="edge13" class="edge">
<title>Node4&#45;&gt;Node14</title>
<path fill="none" stroke="#191970" d="M353.469,-271.0286C328.0038,-258.9662 298.6537,-245.0635 274.3025,-233.5287"/>
<polygon fill="#191970" stroke="#191970" points="352.123,-274.2638 362.6587,-275.3817 355.1196,-267.9376 352.123,-274.2638"/>
</g>
<!-- Node6 -->
<g id="node4" class="node">
<title>Node6</title>
<g id="a_node4"><a xlink:href="apiv3_8hxx.html" target="_top" xlink:title=" ">
<polygon fill="none" stroke="#000000" points="83.2036,-85.5 83.2036,-143.5 275.9468,-143.5 275.9468,-85.5 83.2036,-85.5"/>
<text text-anchor="start" x="91.2036" y="-131.5" font-family="Helvetica,sans-Serif" font-size="10.00" fill="#000000">/Users/oskryp/Projects</text>
<text text-anchor="start" x="91.2036" y="-121.5" font-family="Helvetica,sans-Serif" font-size="10.00" fill="#000000">/freesee&#45;native&#45;client</text>
<text text-anchor="start" x="91.2036" y="-111.5" font-family="Helvetica,sans-Serif" font-size="10.00" fill="#000000">/libs/fcc_sdk/engine/meetingclient</text>
<text text-anchor="start" x="91.2036" y="-101.5" font-family="Helvetica,sans-Serif" font-size="10.00" fill="#000000">/src/headers/MeetingClient/webservices</text>
<text text-anchor="middle" x="179.5752" y="-91.5" font-family="Helvetica,sans-Serif" font-size="10.00" fill="#000000">/apiv3.hxx</text>
</a>
</g>
</g>
<!-- Node5&#45;&gt;Node6 -->
<g id="edge3" class="edge">
<title>Node5&#45;&gt;Node6</title>
<path fill="none" stroke="#191970" d="M337.4008,-176.7134C310.0153,-165.9183 279.776,-153.9983 253.1568,-143.5052"/>
<polygon fill="#191970" stroke="#191970" points="336.3709,-180.0695 346.9577,-180.4807 338.938,-173.5572 336.3709,-180.0695"/>
</g>
<!-- Node8 -->
<g id="node6" class="node">
<title>Node8</title>
<g id="a_node6"><a xlink:href="_web_service_a_p_i_8cxx.html" target="_top" xlink:title=" ">
<polygon fill="none" stroke="#000000" points="213.4194,-.5 213.4194,-48.5 393.731,-48.5 393.731,-.5 213.4194,-.5"/>
<text text-anchor="start" x="221.4194" y="-36.5" font-family="Helvetica,sans-Serif" font-size="10.00" fill="#000000">/Users/oskryp/Projects</text>
<text text-anchor="start" x="221.4194" y="-26.5" font-family="Helvetica,sans-Serif" font-size="10.00" fill="#000000">/freesee&#45;native&#45;client</text>
<text text-anchor="start" x="221.4194" y="-16.5" font-family="Helvetica,sans-Serif" font-size="10.00" fill="#000000">/libs/fcc_sdk/engine/meetingclient</text>
<text text-anchor="middle" x="303.5752" y="-6.5" font-family="Helvetica,sans-Serif" font-size="10.00" fill="#000000">/src/webservices/WebServiceAPI.cxx</text>
</a>
</g>
</g>
<!-- Node5&#45;&gt;Node8 -->
<g id="edge12" class="edge">
<title>Node5&#45;&gt;Node8</title>
<path fill="none" stroke="#191970" d="M351.9866,-174.5183C340.6354,-165.9511 330.1244,-155.7869 322.5752,-144 304.1075,-115.1654 301.4545,-74.6033 301.9641,-48.9378"/>
<polygon fill="#191970" stroke="#191970" points="350.191,-177.536 360.3702,-180.4747 354.2453,-171.8296 350.191,-177.536"/>
</g>
<!-- Node9 -->
<g id="node7" class="node">
<title>Node9</title>
<g id="a_node7"><a xlink:href="apiv4_8hxx.html" target="_top" xlink:title=" ">
<polygon fill="none" stroke="#000000" points="331.2036,-85.5 331.2036,-143.5 523.9468,-143.5 523.9468,-85.5 331.2036,-85.5"/>
<text text-anchor="start" x="339.2036" y="-131.5" font-family="Helvetica,sans-Serif" font-size="10.00" fill="#000000">/Users/oskryp/Projects</text>
<text text-anchor="start" x="339.2036" y="-121.5" font-family="Helvetica,sans-Serif" font-size="10.00" fill="#000000">/freesee&#45;native&#45;client</text>
<text text-anchor="start" x="339.2036" y="-111.5" font-family="Helvetica,sans-Serif" font-size="10.00" fill="#000000">/libs/fcc_sdk/engine/meetingclient</text>
<text text-anchor="start" x="339.2036" y="-101.5" font-family="Helvetica,sans-Serif" font-size="10.00" fill="#000000">/src/headers/MeetingClient/webservices</text>
<text text-anchor="middle" x="427.5752" y="-91.5" font-family="Helvetica,sans-Serif" font-size="10.00" fill="#000000">/apiv4.hxx</text>
</a>
</g>
</g>
<!-- Node5&#45;&gt;Node9 -->
<g id="edge6" class="edge">
<title>Node5&#45;&gt;Node9</title>
<path fill="none" stroke="#191970" d="M423.4645,-170.2874C424.1208,-161.3806 424.8067,-152.0727 425.4259,-143.669"/>
<polygon fill="#191970" stroke="#191970" points="419.9579,-170.2505 422.7135,-180.4807 426.9389,-170.7649 419.9579,-170.2505"/>
</g>
<!-- Node11 -->
<g id="node9" class="node">
<title>Node11</title>
<g id="a_node9"><a xlink:href="_web_service_proxy_8hxx.html" target="_top" xlink:title=" ">
<polygon fill="none" stroke="#000000" points="623.2036,-85.5 623.2036,-143.5 815.9468,-143.5 815.9468,-85.5 623.2036,-85.5"/>
<text text-anchor="start" x="631.2036" y="-131.5" font-family="Helvetica,sans-Serif" font-size="10.00" fill="#000000">/Users/oskryp/Projects</text>
<text text-anchor="start" x="631.2036" y="-121.5" font-family="Helvetica,sans-Serif" font-size="10.00" fill="#000000">/freesee&#45;native&#45;client</text>
<text text-anchor="start" x="631.2036" y="-111.5" font-family="Helvetica,sans-Serif" font-size="10.00" fill="#000000">/libs/fcc_sdk/engine/meetingclient</text>
<text text-anchor="start" x="631.2036" y="-101.5" font-family="Helvetica,sans-Serif" font-size="10.00" fill="#000000">/src/headers/MeetingClient/webservices</text>
<text text-anchor="middle" x="719.5752" y="-91.5" font-family="Helvetica,sans-Serif" font-size="10.00" fill="#000000">/WebServiceProxy.hxx</text>
</a>
</g>
</g>
<!-- Node5&#45;&gt;Node11 -->
<g id="edge9" class="edge">
<title>Node5&#45;&gt;Node11</title>
<path fill="none" stroke="#191970" d="M521.5463,-177.4189C556.1024,-166.4395 594.5386,-154.2274 628.2852,-143.5052"/>
<polygon fill="#191970" stroke="#191970" points="520.3804,-174.1168 511.9097,-180.4807 522.5001,-180.7882 520.3804,-174.1168"/>
</g>
<!-- Node7 -->
<g id="node5" class="node">
<title>Node7</title>
<g id="a_node5"><a xlink:href="_web_a_p_iv3_wrapper_8cxx.html" target="_top" xlink:title=" ">
<polygon fill="none" stroke="#000000" points="0,-.5 0,-48.5 195.1504,-48.5 195.1504,-.5 0,-.5"/>
<text text-anchor="start" x="8" y="-36.5" font-family="Helvetica,sans-Serif" font-size="10.00" fill="#000000">/Users/oskryp/Projects</text>
<text text-anchor="start" x="8" y="-26.5" font-family="Helvetica,sans-Serif" font-size="10.00" fill="#000000">/freesee&#45;native&#45;client</text>
<text text-anchor="start" x="8" y="-16.5" font-family="Helvetica,sans-Serif" font-size="10.00" fill="#000000">/libs/fcc_sdk/engine/meetingclient</text>
<text text-anchor="middle" x="97.5752" y="-6.5" font-family="Helvetica,sans-Serif" font-size="10.00" fill="#000000">/src/webservices/WebAPIv3Wrapper.cxx</text>
</a>
</g>
</g>
<!-- Node6&#45;&gt;Node7 -->
<g id="edge4" class="edge">
<title>Node6&#45;&gt;Node7</title>
<path fill="none" stroke="#191970" d="M145.7627,-77.3887C136.9168,-67.6798 127.6101,-57.4652 119.5598,-48.6294"/>
<polygon fill="#191970" stroke="#191970" points="143.4032,-79.9959 152.7253,-85.0306 148.5776,-75.2814 143.4032,-79.9959"/>
</g>
<!-- Node6&#45;&gt;Node8 -->
<g id="edge5" class="edge">
<title>Node6&#45;&gt;Node8</title>
<path fill="none" stroke="#191970" d="M228.0008,-79.3523C242.1042,-69.116 257.193,-58.1645 270.1505,-48.7599"/>
<polygon fill="#191970" stroke="#191970" points="225.8716,-76.573 219.8344,-85.2796 229.9834,-82.2381 225.8716,-76.573"/>
</g>
<!-- Node9&#45;&gt;Node8 -->
<g id="edge8" class="edge">
<title>Node9&#45;&gt;Node8</title>
<path fill="none" stroke="#191970" d="M379.1495,-79.3523C365.0462,-69.116 349.9574,-58.1645 336.9999,-48.7599"/>
<polygon fill="#191970" stroke="#191970" points="377.167,-82.2381 387.3159,-85.2796 381.2788,-76.573 377.167,-82.2381"/>
</g>
<!-- Node9&#45;&gt;Node10 -->
<g id="edge7" class="edge">
<title>Node9&#45;&gt;Node10</title>
<path fill="none" stroke="#191970" d="M461.3877,-77.3887C470.2336,-67.6798 479.5403,-57.4652 487.5906,-48.6294"/>
<polygon fill="#191970" stroke="#191970" points="458.5728,-75.2814 454.4251,-85.0306 463.7472,-79.9959 458.5728,-75.2814"/>
</g>
<!-- Node12 -->
<g id="node10" class="node">
<title>Node12</title>
<g id="a_node10"><a xlink:href="_free_see_a_p_i2_impl_8cxx.html" target="_top" xlink:title=" ">
<polygon fill="none" stroke="#000000" points="832.2725,-.5 832.2725,-48.5 998.8779,-48.5 998.8779,-.5 832.2725,-.5"/>
<text text-anchor="start" x="840.2725" y="-36.5" font-family="Helvetica,sans-Serif" font-size="10.00" fill="#000000">/Users/oskryp/Projects</text>
<text text-anchor="start" x="840.2725" y="-26.5" font-family="Helvetica,sans-Serif" font-size="10.00" fill="#000000">/freesee&#45;native&#45;client</text>
<text text-anchor="start" x="840.2725" y="-16.5" font-family="Helvetica,sans-Serif" font-size="10.00" fill="#000000">/libs/fcc_sdk/engine/meetingclient</text>
<text text-anchor="middle" x="915.5752" y="-6.5" font-family="Helvetica,sans-Serif" font-size="10.00" fill="#000000">/src/proxies/FreeSeeAPI2Impl.cxx</text>
</a>
</g>
</g>
<!-- Node11&#45;&gt;Node12 -->
<g id="edge10" class="edge">
<title>Node11&#45;&gt;Node12</title>
<path fill="none" stroke="#191970" d="M792.2016,-81.1512C815.7724,-70.3278 841.4464,-58.5387 863.2399,-48.5315"/>
<polygon fill="#191970" stroke="#191970" points="790.5673,-78.0502 782.9401,-85.4039 793.4884,-84.4116 790.5673,-78.0502"/>
</g>
<!-- Node13 -->
<g id="node11" class="node">
<title>Node13</title>
<g id="a_node11"><a xlink:href="_web_service_proxy_8cxx.html" target="_top" xlink:title=" ">
<polygon fill="none" stroke="#000000" points="625.0664,-.5 625.0664,-48.5 814.084,-48.5 814.084,-.5 625.0664,-.5"/>
<text text-anchor="start" x="633.0664" y="-36.5" font-family="Helvetica,sans-Serif" font-size="10.00" fill="#000000">/Users/oskryp/Projects</text>
<text text-anchor="start" x="633.0664" y="-26.5" font-family="Helvetica,sans-Serif" font-size="10.00" fill="#000000">/freesee&#45;native&#45;client</text>
<text text-anchor="start" x="633.0664" y="-16.5" font-family="Helvetica,sans-Serif" font-size="10.00" fill="#000000">/libs/fcc_sdk/engine/meetingclient</text>
<text text-anchor="middle" x="719.5752" y="-6.5" font-family="Helvetica,sans-Serif" font-size="10.00" fill="#000000">/src/webservices/WebServiceProxy.cxx</text>
</a>
</g>
</g>
<!-- Node11&#45;&gt;Node13 -->
<g id="edge11" class="edge">
<title>Node11&#45;&gt;Node13</title>
<path fill="none" stroke="#191970" d="M719.5752,-74.7825C719.5752,-65.8703 719.5752,-56.6778 719.5752,-48.6294"/>
<polygon fill="#191970" stroke="#191970" points="716.0753,-75.0306 719.5752,-85.0306 723.0753,-75.0307 716.0753,-75.0306"/>
</g>
</g>
</svg>
