<?xml version="1.0" encoding="UTF-8" standalone="no"?>
<!DOCTYPE svg PUBLIC "-//W3C//DTD SVG 1.1//EN"
 "http://www.w3.org/Graphics/SVG/1.1/DTD/svg11.dtd">
<!-- Generated by graphviz version 2.40.1 (20161225.0304)
 -->
<!-- Title: /Users/oskryp/Projects/freesee&#45;native&#45;client/libs/fcc_sdk/engine/meetingclient/src/headers/MeetingClient/proxies/ActiveSpeakerManagerImpl.hxx Pages: 1 -->
<!--zoomable 437 -->
<svg id="main" version="1.1" xmlns="http://www.w3.org/2000/svg" xmlns:xlink="http://www.w3.org/1999/xlink" xml:space="preserve" onload="init(evt)">
<style type="text/css"><![CDATA[
.edge:hover path { stroke: red; }
.edge:hover polygon { stroke: red; fill: red; }
]]></style>
<script type="text/javascript"><![CDATA[
var edges = document.getElementsByTagName('g');
if (edges && edges.length) {
  for (var i=0;i<edges.length;i++) {
    if (edges[i].id.substr(0,4)=='edge') {
      edges[i].setAttribute('class','edge');
    }
  }
}
]]></script>
        <defs>
                <circle id="rim" cx="0" cy="0" r="7"/>
                <circle id="rim2" cx="0" cy="0" r="3.5"/>
                <g id="zoomPlus">
                        <use xlink:href="#rim" fill="#404040">
                                <set attributeName="fill" to="#808080" begin="zoomplus.mouseover" end="zoomplus.mouseout"/>
                        </use>
                        <path d="M-4,0h8M0,-4v8" fill="none" stroke="white" stroke-width="1.5" pointer-events="none"/>
                </g>
                <g id="zoomMin">
                        <use xlink:href="#rim" fill="#404040">
                                <set attributeName="fill" to="#808080" begin="zoomminus.mouseover" end="zoomminus.mouseout"/>
                        </use>
                        <path d="M-4,0h8" fill="none" stroke="white" stroke-width="1.5" pointer-events="none"/>
                </g>
                <g id="dirArrow">
                        <path fill="none" stroke="white" stroke-width="1.5" d="M0,-3.0v7 M-2.5,-0.5L0,-3.0L2.5,-0.5"/>
                </g>
               <g id="resetDef">
                       <use xlink:href="#rim2" fill="#404040">
                               <set attributeName="fill" to="#808080" begin="reset.mouseover" end="reset.mouseout"/>
                       </use>
               </g>
        </defs>

<script type="text/javascript">
var viewWidth = 1401;
var viewHeight = 437;
var sectionId = 'dynsection-1';
</script>
<script xlink:href="svgpan.js"/>
<svg id="graph" class="graph">
<g id="viewport">
<title>/Users/oskryp/Projects/freesee&#45;native&#45;client/libs/fcc_sdk/engine/meetingclient/src/headers/MeetingClient/proxies/ActiveSpeakerManagerImpl.hxx</title>
<!-- Node41 -->
<g id="node1" class="node">
<title>Node41</title>
<g id="a_node1"><a xlink:title=" ">
<polygon fill="#bfbfbf" stroke="#000000" points="631.3423,-370.5 631.3423,-428.5 801.3022,-428.5 801.3022,-370.5 631.3423,-370.5"/>
<text text-anchor="start" x="639.3423" y="-416.5" font-family="Helvetica,sans-Serif" font-size="10.00" fill="#000000">/Users/oskryp/Projects</text>
<text text-anchor="start" x="639.3423" y="-406.5" font-family="Helvetica,sans-Serif" font-size="10.00" fill="#000000">/freesee&#45;native&#45;client</text>
<text text-anchor="start" x="639.3423" y="-396.5" font-family="Helvetica,sans-Serif" font-size="10.00" fill="#000000">/libs/fcc_sdk/engine/meetingclient</text>
<text text-anchor="start" x="639.3423" y="-386.5" font-family="Helvetica,sans-Serif" font-size="10.00" fill="#000000">/src/headers/MeetingClient/proxies</text>
<text text-anchor="middle" x="716.3223" y="-376.5" font-family="Helvetica,sans-Serif" font-size="10.00" fill="#000000">/ActiveSpeakerManagerImpl.hxx</text>
</a>
</g>
</g>
<!-- Node42 -->
<g id="node2" class="node">
<title>Node42</title>
<g id="a_node2"><a xlink:href="_meeting_client_impl_8hxx.html" target="_top" xlink:title=" ">
<polygon fill="none" stroke="#000000" points="530.3423,-275.5 530.3423,-333.5 700.3022,-333.5 700.3022,-275.5 530.3423,-275.5"/>
<text text-anchor="start" x="538.3423" y="-321.5" font-family="Helvetica,sans-Serif" font-size="10.00" fill="#000000">/Users/oskryp/Projects</text>
<text text-anchor="start" x="538.3423" y="-311.5" font-family="Helvetica,sans-Serif" font-size="10.00" fill="#000000">/freesee&#45;native&#45;client</text>
<text text-anchor="start" x="538.3423" y="-301.5" font-family="Helvetica,sans-Serif" font-size="10.00" fill="#000000">/libs/fcc_sdk/engine/meetingclient</text>
<text text-anchor="start" x="538.3423" y="-291.5" font-family="Helvetica,sans-Serif" font-size="10.00" fill="#000000">/src/headers/MeetingClient/proxies</text>
<text text-anchor="middle" x="615.3223" y="-281.5" font-family="Helvetica,sans-Serif" font-size="10.00" fill="#000000">/MeetingClientImpl.hxx</text>
</a>
</g>
</g>
<!-- Node41&#45;&gt;Node42 -->
<g id="edge1" class="edge">
<title>Node41&#45;&gt;Node42</title>
<path fill="none" stroke="#191970" d="M678.009,-363.4628C667.5439,-353.6194 656.3362,-343.0775 646.3335,-333.669"/>
<polygon fill="#191970" stroke="#191970" points="675.788,-366.1787 685.4701,-370.4807 680.584,-361.0798 675.788,-366.1787"/>
</g>
<!-- Node55 -->
<g id="node15" class="node">
<title>Node55</title>
<g id="a_node15"><a xlink:href="_active_speaker_manager2_8cxx.html" target="_top" xlink:title=" ">
<polygon fill="none" stroke="#000000" points="718.729,-280.5 718.729,-328.5 915.9155,-328.5 915.9155,-280.5 718.729,-280.5"/>
<text text-anchor="start" x="726.729" y="-316.5" font-family="Helvetica,sans-Serif" font-size="10.00" fill="#000000">/Users/oskryp/Projects</text>
<text text-anchor="start" x="726.729" y="-306.5" font-family="Helvetica,sans-Serif" font-size="10.00" fill="#000000">/freesee&#45;native&#45;client</text>
<text text-anchor="start" x="726.729" y="-296.5" font-family="Helvetica,sans-Serif" font-size="10.00" fill="#000000">/libs/fcc_sdk/engine/meetingclient</text>
<text text-anchor="middle" x="817.3223" y="-286.5" font-family="Helvetica,sans-Serif" font-size="10.00" fill="#000000">/src/proxies/ActiveSpeakerManager2.cxx</text>
</a>
</g>
</g>
<!-- Node41&#45;&gt;Node55 -->
<g id="edge22" class="edge">
<title>Node41&#45;&gt;Node55</title>
<path fill="none" stroke="#191970" d="M754.7239,-363.3797C767.1091,-351.7302 780.526,-339.1103 791.75,-328.5531"/>
<polygon fill="#191970" stroke="#191970" points="752.0605,-361.0798 747.1744,-370.4807 756.8565,-366.1787 752.0605,-361.0798"/>
</g>
<!-- Node43 -->
<g id="node3" class="node">
<title>Node43</title>
<g id="a_node3"><a xlink:href="_meeting_attendee_impl_8hxx.html" target="_top" xlink:title=" ">
<polygon fill="none" stroke="#000000" points="217.3423,-180.5 217.3423,-238.5 387.3022,-238.5 387.3022,-180.5 217.3423,-180.5"/>
<text text-anchor="start" x="225.3423" y="-226.5" font-family="Helvetica,sans-Serif" font-size="10.00" fill="#000000">/Users/oskryp/Projects</text>
<text text-anchor="start" x="225.3423" y="-216.5" font-family="Helvetica,sans-Serif" font-size="10.00" fill="#000000">/freesee&#45;native&#45;client</text>
<text text-anchor="start" x="225.3423" y="-206.5" font-family="Helvetica,sans-Serif" font-size="10.00" fill="#000000">/libs/fcc_sdk/engine/meetingclient</text>
<text text-anchor="start" x="225.3423" y="-196.5" font-family="Helvetica,sans-Serif" font-size="10.00" fill="#000000">/src/headers/MeetingClient/proxies</text>
<text text-anchor="middle" x="302.3223" y="-186.5" font-family="Helvetica,sans-Serif" font-size="10.00" fill="#000000">/MeetingAttendeeImpl.hxx</text>
</a>
</g>
</g>
<!-- Node42&#45;&gt;Node43 -->
<g id="edge2" class="edge">
<title>Node42&#45;&gt;Node43</title>
<path fill="none" stroke="#191970" d="M520.4467,-275.7039C478.0893,-262.8478 428.5646,-247.8164 387.4205,-235.3285"/>
<polygon fill="#191970" stroke="#191970" points="519.6216,-279.1111 530.2071,-278.6663 521.6547,-272.4128 519.6216,-279.1111"/>
</g>
<!-- Node44 -->
<g id="node4" class="node">
<title>Node44</title>
<g id="a_node4"><a xlink:href="_meeting_attendee_feature_impl_8hxx.html" target="_top" xlink:title=" ">
<polygon fill="none" stroke="#000000" points="23.3423,-85.5 23.3423,-143.5 193.3022,-143.5 193.3022,-85.5 23.3423,-85.5"/>
<text text-anchor="start" x="31.3423" y="-131.5" font-family="Helvetica,sans-Serif" font-size="10.00" fill="#000000">/Users/oskryp/Projects</text>
<text text-anchor="start" x="31.3423" y="-121.5" font-family="Helvetica,sans-Serif" font-size="10.00" fill="#000000">/freesee&#45;native&#45;client</text>
<text text-anchor="start" x="31.3423" y="-111.5" font-family="Helvetica,sans-Serif" font-size="10.00" fill="#000000">/libs/fcc_sdk/engine/meetingclient</text>
<text text-anchor="start" x="31.3423" y="-101.5" font-family="Helvetica,sans-Serif" font-size="10.00" fill="#000000">/src/headers/MeetingClient/proxies</text>
<text text-anchor="middle" x="108.3223" y="-91.5" font-family="Helvetica,sans-Serif" font-size="10.00" fill="#000000">/MeetingAttendeeFeatureImpl.hxx</text>
</a>
</g>
</g>
<!-- Node42&#45;&gt;Node44 -->
<g id="edge7" class="edge">
<title>Node42&#45;&gt;Node44</title>
<path fill="none" stroke="#191970" d="M520.1217,-297.0987C416.8724,-287.6984 259.886,-268.9931 208.3223,-239 169.6198,-216.4879 139.9506,-172.8308 123.3202,-143.6672"/>
<polygon fill="#191970" stroke="#191970" points="519.979,-300.5999 530.2516,-298.0069 520.6041,-293.6278 519.979,-300.5999"/>
</g>
<!-- Node46 -->
<g id="node6" class="node">
<title>Node46</title>
<g id="a_node6"><a xlink:href="_meeting_client_impl_8cxx.html" target="_top" xlink:title=" ">
<polygon fill="none" stroke="#000000" points="739.4653,-.5 739.4653,-48.5 907.1792,-48.5 907.1792,-.5 739.4653,-.5"/>
<text text-anchor="start" x="747.4653" y="-36.5" font-family="Helvetica,sans-Serif" font-size="10.00" fill="#000000">/Users/oskryp/Projects</text>
<text text-anchor="start" x="747.4653" y="-26.5" font-family="Helvetica,sans-Serif" font-size="10.00" fill="#000000">/freesee&#45;native&#45;client</text>
<text text-anchor="start" x="747.4653" y="-16.5" font-family="Helvetica,sans-Serif" font-size="10.00" fill="#000000">/libs/fcc_sdk/engine/meetingclient</text>
<text text-anchor="middle" x="823.3223" y="-6.5" font-family="Helvetica,sans-Serif" font-size="10.00" fill="#000000">/src/proxies/MeetingClientImpl.cxx</text>
</a>
</g>
</g>
<!-- Node42&#45;&gt;Node46 -->
<g id="edge21" class="edge">
<title>Node42&#45;&gt;Node46</title>
<path fill="none" stroke="#191970" d="M554.0341,-269.9837C484.014,-226.2483 385.7484,-148.8712 440.3223,-85 459.5087,-62.5449 632.389,-42.4444 739.2173,-32.0234"/>
<polygon fill="#191970" stroke="#191970" points="552.498,-273.148 562.8492,-275.4071 556.1661,-267.186 552.498,-273.148"/>
</g>
<!-- Node48 -->
<g id="node8" class="node">
<title>Node48</title>
<g id="a_node8"><a xlink:href="_meeting_broadcast_feature_impl_8hxx.html" target="_top" xlink:title=" ">
<polygon fill="none" stroke="#000000" points="449.7856,-85.5 449.7856,-143.5 620.8589,-143.5 620.8589,-85.5 449.7856,-85.5"/>
<text text-anchor="start" x="457.7856" y="-131.5" font-family="Helvetica,sans-Serif" font-size="10.00" fill="#000000">/Users/oskryp/Projects</text>
<text text-anchor="start" x="457.7856" y="-121.5" font-family="Helvetica,sans-Serif" font-size="10.00" fill="#000000">/freesee&#45;native&#45;client</text>
<text text-anchor="start" x="457.7856" y="-111.5" font-family="Helvetica,sans-Serif" font-size="10.00" fill="#000000">/libs/fcc_sdk/engine/meetingclient</text>
<text text-anchor="start" x="457.7856" y="-101.5" font-family="Helvetica,sans-Serif" font-size="10.00" fill="#000000">/src/headers/MeetingClient/proxies</text>
<text text-anchor="middle" x="535.3223" y="-91.5" font-family="Helvetica,sans-Serif" font-size="10.00" fill="#000000">/MeetingBroadcastFeatureImpl.hxx</text>
</a>
</g>
</g>
<!-- Node42&#45;&gt;Node48 -->
<g id="edge8" class="edge">
<title>Node42&#45;&gt;Node48</title>
<path fill="none" stroke="#191970" d="M595.298,-266.4442C590.8435,-257.5257 586.2745,-247.9988 582.3223,-239 568.2008,-206.8471 554.2793,-168.9846 545.2986,-143.5279"/>
<polygon fill="#191970" stroke="#191970" points="592.2282,-268.1296 599.868,-275.4703 598.4734,-264.9676 592.2282,-268.1296"/>
</g>
<!-- Node49 -->
<g id="node9" class="node">
<title>Node49</title>
<g id="a_node9"><a xlink:href="_meeting_chat_feature_impl_8hxx.html" target="_top" xlink:title=" ">
<polygon fill="none" stroke="#000000" points="639.3423,-85.5 639.3423,-143.5 809.3022,-143.5 809.3022,-85.5 639.3423,-85.5"/>
<text text-anchor="start" x="647.3423" y="-131.5" font-family="Helvetica,sans-Serif" font-size="10.00" fill="#000000">/Users/oskryp/Projects</text>
<text text-anchor="start" x="647.3423" y="-121.5" font-family="Helvetica,sans-Serif" font-size="10.00" fill="#000000">/freesee&#45;native&#45;client</text>
<text text-anchor="start" x="647.3423" y="-111.5" font-family="Helvetica,sans-Serif" font-size="10.00" fill="#000000">/libs/fcc_sdk/engine/meetingclient</text>
<text text-anchor="start" x="647.3423" y="-101.5" font-family="Helvetica,sans-Serif" font-size="10.00" fill="#000000">/src/headers/MeetingClient/proxies</text>
<text text-anchor="middle" x="724.3223" y="-91.5" font-family="Helvetica,sans-Serif" font-size="10.00" fill="#000000">/MeetingChatFeatureImpl.hxx</text>
</a>
</g>
</g>
<!-- Node42&#45;&gt;Node49 -->
<g id="edge10" class="edge">
<title>Node42&#45;&gt;Node49</title>
<path fill="none" stroke="#191970" d="M607.9189,-265.2463C605.0961,-239.3419 605.5184,-205.5911 620.3223,-180 628.9768,-165.039 642.5664,-152.9882 657.1017,-143.5036"/>
<polygon fill="#191970" stroke="#191970" points="604.4868,-265.9966 609.2414,-275.4647 611.4289,-265.0981 604.4868,-265.9966"/>
</g>
<!-- Node50 -->
<g id="node10" class="node">
<title>Node50</title>
<g id="a_node10"><a xlink:href="_meeting_screen_sharing_feature_impl_8hxx.html" target="_top" xlink:title=" ">
<polygon fill="none" stroke="#000000" points="827.2217,-85.5 827.2217,-143.5 1019.4229,-143.5 1019.4229,-85.5 827.2217,-85.5"/>
<text text-anchor="start" x="835.2217" y="-131.5" font-family="Helvetica,sans-Serif" font-size="10.00" fill="#000000">/Users/oskryp/Projects</text>
<text text-anchor="start" x="835.2217" y="-121.5" font-family="Helvetica,sans-Serif" font-size="10.00" fill="#000000">/freesee&#45;native&#45;client</text>
<text text-anchor="start" x="835.2217" y="-111.5" font-family="Helvetica,sans-Serif" font-size="10.00" fill="#000000">/libs/fcc_sdk/engine/meetingclient</text>
<text text-anchor="start" x="835.2217" y="-101.5" font-family="Helvetica,sans-Serif" font-size="10.00" fill="#000000">/src/headers/MeetingClient/proxies</text>
<text text-anchor="middle" x="923.3223" y="-91.5" font-family="Helvetica,sans-Serif" font-size="10.00" fill="#000000">/MeetingScreenSharingFeatureImpl.hxx</text>
</a>
</g>
</g>
<!-- Node42&#45;&gt;Node50 -->
<g id="edge12" class="edge">
<title>Node42&#45;&gt;Node50</title>
<path fill="none" stroke="#191970" d="M617.189,-265.2878C620.6312,-237.613 629.7468,-201.7299 653.3223,-180 708.5128,-129.1298 745.4935,-162.1588 818.3223,-144 821.17,-143.29 824.0578,-142.5578 826.9704,-141.8087"/>
<polygon fill="#191970" stroke="#191970" points="613.6858,-265.1367 616.1292,-275.4459 620.6481,-265.8631 613.6858,-265.1367"/>
</g>
<!-- Node51 -->
<g id="node11" class="node">
<title>Node51</title>
<g id="a_node11"><a xlink:href="_meeting_video_feature_impl_8hxx.html" target="_top" xlink:title=" ">
<polygon fill="none" stroke="#000000" points="662.3423,-180.5 662.3423,-238.5 832.3022,-238.5 832.3022,-180.5 662.3423,-180.5"/>
<text text-anchor="start" x="670.3423" y="-226.5" font-family="Helvetica,sans-Serif" font-size="10.00" fill="#000000">/Users/oskryp/Projects</text>
<text text-anchor="start" x="670.3423" y="-216.5" font-family="Helvetica,sans-Serif" font-size="10.00" fill="#000000">/freesee&#45;native&#45;client</text>
<text text-anchor="start" x="670.3423" y="-206.5" font-family="Helvetica,sans-Serif" font-size="10.00" fill="#000000">/libs/fcc_sdk/engine/meetingclient</text>
<text text-anchor="start" x="670.3423" y="-196.5" font-family="Helvetica,sans-Serif" font-size="10.00" fill="#000000">/src/headers/MeetingClient/proxies</text>
<text text-anchor="middle" x="747.3223" y="-186.5" font-family="Helvetica,sans-Serif" font-size="10.00" fill="#000000">/MeetingVideoFeatureImpl.hxx</text>
</a>
</g>
</g>
<!-- Node42&#45;&gt;Node51 -->
<g id="edge14" class="edge">
<title>Node42&#45;&gt;Node51</title>
<path fill="none" stroke="#191970" d="M663.8061,-269.6063C677.9321,-259.4399 693.2122,-248.4429 706.7927,-238.669"/>
<polygon fill="#191970" stroke="#191970" points="661.7159,-266.7984 655.6439,-275.4807 665.8049,-272.48 661.7159,-266.7984"/>
</g>
<!-- Node52 -->
<g id="node12" class="node">
<title>Node52</title>
<g id="a_node12"><a xlink:href="_meeting_vo_i_p_feature_impl_8hxx.html" target="_top" xlink:title=" ">
<polygon fill="none" stroke="#000000" points="850.3423,-180.5 850.3423,-238.5 1020.3022,-238.5 1020.3022,-180.5 850.3423,-180.5"/>
<text text-anchor="start" x="858.3423" y="-226.5" font-family="Helvetica,sans-Serif" font-size="10.00" fill="#000000">/Users/oskryp/Projects</text>
<text text-anchor="start" x="858.3423" y="-216.5" font-family="Helvetica,sans-Serif" font-size="10.00" fill="#000000">/freesee&#45;native&#45;client</text>
<text text-anchor="start" x="858.3423" y="-206.5" font-family="Helvetica,sans-Serif" font-size="10.00" fill="#000000">/libs/fcc_sdk/engine/meetingclient</text>
<text text-anchor="start" x="858.3423" y="-196.5" font-family="Helvetica,sans-Serif" font-size="10.00" fill="#000000">/src/headers/MeetingClient/proxies</text>
<text text-anchor="middle" x="935.3223" y="-186.5" font-family="Helvetica,sans-Serif" font-size="10.00" fill="#000000">/MeetingVoIPFeatureImpl.hxx</text>
</a>
</g>
</g>
<!-- Node42&#45;&gt;Node52 -->
<g id="edge16" class="edge">
<title>Node42&#45;&gt;Node52</title>
<path fill="none" stroke="#191970" d="M710.2018,-274.7858C769.3399,-257.672 785.9321,-255.2384 841.3223,-239 844.2767,-238.1339 847.2804,-237.2437 850.3118,-236.3371"/>
<polygon fill="#191970" stroke="#191970" points="708.9536,-271.5039 700.3328,-277.6629 710.9127,-278.2242 708.9536,-271.5039"/>
</g>
<!-- Node53 -->
<g id="node13" class="node">
<title>Node53</title>
<g id="a_node13"><a xlink:href="_raw_r_t_messages_feature_impl_8hxx.html" target="_top" xlink:title=" ">
<polygon fill="none" stroke="#000000" points="1038.3423,-180.5 1038.3423,-238.5 1208.3022,-238.5 1208.3022,-180.5 1038.3423,-180.5"/>
<text text-anchor="start" x="1046.3423" y="-226.5" font-family="Helvetica,sans-Serif" font-size="10.00" fill="#000000">/Users/oskryp/Projects</text>
<text text-anchor="start" x="1046.3423" y="-216.5" font-family="Helvetica,sans-Serif" font-size="10.00" fill="#000000">/freesee&#45;native&#45;client</text>
<text text-anchor="start" x="1046.3423" y="-206.5" font-family="Helvetica,sans-Serif" font-size="10.00" fill="#000000">/libs/fcc_sdk/engine/meetingclient</text>
<text text-anchor="start" x="1046.3423" y="-196.5" font-family="Helvetica,sans-Serif" font-size="10.00" fill="#000000">/src/headers/MeetingClient/proxies</text>
<text text-anchor="middle" x="1123.3223" y="-186.5" font-family="Helvetica,sans-Serif" font-size="10.00" fill="#000000">/RawRTMessagesFeatureImpl.hxx</text>
</a>
</g>
</g>
<!-- Node42&#45;&gt;Node53 -->
<g id="edge18" class="edge">
<title>Node42&#45;&gt;Node53</title>
<path fill="none" stroke="#191970" d="M710.3105,-274.9591C851.1994,-246.4489 892.4348,-267.8994 1029.3223,-239 1032.2509,-238.3817 1035.2185,-237.7101 1038.2059,-236.9953"/>
<polygon fill="#191970" stroke="#191970" points="709.5204,-271.5484 700.4386,-277.0047 710.9408,-278.4028 709.5204,-271.5484"/>
</g>
<!-- Node54 -->
<g id="node14" class="node">
<title>Node54</title>
<g id="a_node14"><a xlink:href="_free_see_a_p_i2_impl_8cxx.html" target="_top" xlink:title=" ">
<polygon fill="none" stroke="#000000" points="1226.0195,-185.5 1226.0195,-233.5 1392.625,-233.5 1392.625,-185.5 1226.0195,-185.5"/>
<text text-anchor="start" x="1234.0195" y="-221.5" font-family="Helvetica,sans-Serif" font-size="10.00" fill="#000000">/Users/oskryp/Projects</text>
<text text-anchor="start" x="1234.0195" y="-211.5" font-family="Helvetica,sans-Serif" font-size="10.00" fill="#000000">/freesee&#45;native&#45;client</text>
<text text-anchor="start" x="1234.0195" y="-201.5" font-family="Helvetica,sans-Serif" font-size="10.00" fill="#000000">/libs/fcc_sdk/engine/meetingclient</text>
<text text-anchor="middle" x="1309.3223" y="-191.5" font-family="Helvetica,sans-Serif" font-size="10.00" fill="#000000">/src/proxies/FreeSeeAPI2Impl.cxx</text>
</a>
</g>
</g>
<!-- Node42&#45;&gt;Node54 -->
<g id="edge20" class="edge">
<title>Node42&#45;&gt;Node54</title>
<path fill="none" stroke="#191970" d="M710.4643,-274.9718C933.5932,-234.243 998.3294,-281.235 1217.3223,-239 1224.8984,-237.5389 1232.7222,-235.6504 1240.4603,-233.5352"/>
<polygon fill="#191970" stroke="#191970" points="709.5961,-271.5732 700.407,-276.8469 710.8792,-278.4546 709.5961,-271.5732"/>
</g>
<!-- Node43&#45;&gt;Node44 -->
<g id="edge3" class="edge">
<title>Node43&#45;&gt;Node44</title>
<path fill="none" stroke="#191970" d="M233.9214,-176.0047C212.2623,-165.3985 188.514,-153.7691 167.5539,-143.5052"/>
<polygon fill="#191970" stroke="#191970" points="232.5414,-179.2261 243.0617,-180.4807 235.62,-172.9393 232.5414,-179.2261"/>
</g>
<!-- Node47 -->
<g id="node7" class="node">
<title>Node47</title>
<g id="a_node7"><a xlink:href="_meeting_attendee_impl_8cxx.html" target="_top" xlink:title=" ">
<polygon fill="none" stroke="#000000" points="211.2314,-90.5 211.2314,-138.5 393.4131,-138.5 393.4131,-90.5 211.2314,-90.5"/>
<text text-anchor="start" x="219.2314" y="-126.5" font-family="Helvetica,sans-Serif" font-size="10.00" fill="#000000">/Users/oskryp/Projects</text>
<text text-anchor="start" x="219.2314" y="-116.5" font-family="Helvetica,sans-Serif" font-size="10.00" fill="#000000">/freesee&#45;native&#45;client</text>
<text text-anchor="start" x="219.2314" y="-106.5" font-family="Helvetica,sans-Serif" font-size="10.00" fill="#000000">/libs/fcc_sdk/engine/meetingclient</text>
<text text-anchor="middle" x="302.3223" y="-96.5" font-family="Helvetica,sans-Serif" font-size="10.00" fill="#000000">/src/proxies/MeetingAttendeeImpl.cxx</text>
</a>
</g>
</g>
<!-- Node43&#45;&gt;Node47 -->
<g id="edge6" class="edge">
<title>Node43&#45;&gt;Node47</title>
<path fill="none" stroke="#191970" d="M302.3223,-170.3932C302.3223,-159.602 302.3223,-148.214 302.3223,-138.5531"/>
<polygon fill="#191970" stroke="#191970" points="298.8224,-170.4806 302.3223,-180.4807 305.8224,-170.4807 298.8224,-170.4806"/>
</g>
<!-- Node45 -->
<g id="node5" class="node">
<title>Node45</title>
<g id="a_node5"><a xlink:href="_meeting_attendee_feature_impl_8cxx.html" target="_top" xlink:title=" ">
<polygon fill="none" stroke="#000000" points="0,-.5 0,-48.5 216.6445,-48.5 216.6445,-.5 0,-.5"/>
<text text-anchor="start" x="8" y="-36.5" font-family="Helvetica,sans-Serif" font-size="10.00" fill="#000000">/Users/oskryp/Projects</text>
<text text-anchor="start" x="8" y="-26.5" font-family="Helvetica,sans-Serif" font-size="10.00" fill="#000000">/freesee&#45;native&#45;client</text>
<text text-anchor="start" x="8" y="-16.5" font-family="Helvetica,sans-Serif" font-size="10.00" fill="#000000">/libs/fcc_sdk/engine/meetingclient</text>
<text text-anchor="middle" x="108.3223" y="-6.5" font-family="Helvetica,sans-Serif" font-size="10.00" fill="#000000">/src/proxies/MeetingAttendeeFeatureImpl.cxx</text>
</a>
</g>
</g>
<!-- Node44&#45;&gt;Node45 -->
<g id="edge4" class="edge">
<title>Node44&#45;&gt;Node45</title>
<path fill="none" stroke="#191970" d="M108.3223,-74.7825C108.3223,-65.8703 108.3223,-56.6778 108.3223,-48.6294"/>
<polygon fill="#191970" stroke="#191970" points="104.8224,-75.0306 108.3223,-85.0306 111.8224,-75.0307 104.8224,-75.0306"/>
</g>
<!-- Node44&#45;&gt;Node46 -->
<g id="edge5" class="edge">
<title>Node44&#45;&gt;Node46</title>
<path fill="none" stroke="#191970" d="M203.3367,-84.9522C399.4529,-45.9749 621.2753,-32.1541 739.3896,-27.173"/>
<polygon fill="#191970" stroke="#191970" points="202.5391,-81.5424 193.4269,-86.9478 203.921,-88.4047 202.5391,-81.5424"/>
</g>
<!-- Node48&#45;&gt;Node46 -->
<g id="edge9" class="edge">
<title>Node48&#45;&gt;Node46</title>
<path fill="none" stroke="#191970" d="M630.8811,-84.6379C668.3938,-72.9152 710.8707,-59.6411 746.3564,-48.5518"/>
<polygon fill="#191970" stroke="#191970" points="629.4528,-81.4172 620.952,-87.7407 631.5408,-88.0986 629.4528,-81.4172"/>
</g>
<!-- Node49&#45;&gt;Node46 -->
<g id="edge11" class="edge">
<title>Node49&#45;&gt;Node46</title>
<path fill="none" stroke="#191970" d="M763.9336,-78.4897C774.9188,-68.5031 786.5814,-57.9008 796.6364,-48.7599"/>
<polygon fill="#191970" stroke="#191970" points="761.5098,-75.963 756.4647,-85.2796 766.2185,-81.1426 761.5098,-75.963"/>
</g>
<!-- Node50&#45;&gt;Node46 -->
<g id="edge13" class="edge">
<title>Node50&#45;&gt;Node46</title>
<path fill="none" stroke="#191970" d="M883.3108,-78.4897C872.2147,-68.5031 860.4343,-57.9008 850.2777,-48.7599"/>
<polygon fill="#191970" stroke="#191970" points="881.0808,-81.1914 890.8551,-85.2796 885.7636,-75.9884 881.0808,-81.1914"/>
</g>
<!-- Node51&#45;&gt;Node46 -->
<g id="edge15" class="edge">
<title>Node51&#45;&gt;Node46</title>
<path fill="none" stroke="#191970" d="M842.4625,-180.032C927.1799,-162.8446 976.4276,-206.8379 1028.3223,-144 1045.0198,-123.7813 1044.0222,-106.0028 1028.3223,-85 1013.3255,-64.9379 957.1369,-49.2105 907.3714,-38.8252"/>
<polygon fill="#191970" stroke="#191970" points="841.4793,-176.6662 832.5074,-182.3014 843.0352,-183.4911 841.4793,-176.6662"/>
</g>
<!-- Node52&#45;&gt;Node46 -->
<g id="edge17" class="edge">
<title>Node52&#45;&gt;Node46</title>
<path fill="none" stroke="#191970" d="M1019.578,-174.6355C1031.0691,-166.2915 1041.3077,-156.1737 1048.3223,-144 1061.4138,-121.2796 1064.2762,-105.8105 1048.3223,-85 1030.8797,-62.2478 963.7694,-46.1428 907.3422,-36.2995"/>
<polygon fill="#191970" stroke="#191970" points="1017.356,-171.9121 1011.0174,-180.4017 1021.2667,-177.7179 1017.356,-171.9121"/>
</g>
<!-- Node53&#45;&gt;Node46 -->
<g id="edge19" class="edge">
<title>Node53&#45;&gt;Node46</title>
<path fill="none" stroke="#191970" d="M1115.349,-170.5452C1107.6638,-142.7673 1093.2493,-106.6429 1067.3223,-85 1043.0314,-64.723 967.9784,-48.0066 907.4602,-37.3226"/>
<polygon fill="#191970" stroke="#191970" points="1111.9943,-171.5529 1117.8848,-180.3593 1118.7717,-169.8017 1111.9943,-171.5529"/>
</g>
</g>
</svg>
        <g id="navigator" transform="translate(0 0)" fill="#404254">
                <rect fill="#f2f5e9" fill-opacity="0.5" stroke="#606060" stroke-width=".5" x="0" y="0" width="60" height="60"/>
                <use id="zoomplus" xlink:href="#zoomPlus" x="17" y="9" onmousedown="handleZoom(evt,'in')"/>
                <use id="zoomminus" xlink:href="#zoomMin" x="42" y="9" onmousedown="handleZoom(evt,'out')"/>
                <use id="reset" xlink:href="#resetDef" x="30" y="36" onmousedown="handleReset()"/>
                <g id="arrowUp" xlink:href="#dirArrow" transform="translate(30 24)" onmousedown="handlePan(0,-1)">
                  <use xlink:href="#rim" fill="#404040">
                        <set attributeName="fill" to="#808080" begin="arrowUp.mouseover" end="arrowUp.mouseout"/>
                  </use>
                  <path fill="none" stroke="white" stroke-width="1.5" d="M0,-3.0v7 M-2.5,-0.5L0,-3.0L2.5,-0.5"/>
                </g>
                <g id="arrowRight" xlink:href="#dirArrow" transform="rotate(90) translate(36 -43)" onmousedown="handlePan(1,0)">
                  <use xlink:href="#rim" fill="#404040">
                        <set attributeName="fill" to="#808080" begin="arrowRight.mouseover" end="arrowRight.mouseout"/>
                  </use>
                  <path fill="none" stroke="white" stroke-width="1.5" d="M0,-3.0v7 M-2.5,-0.5L0,-3.0L2.5,-0.5"/>
                </g>
                <g id="arrowDown" xlink:href="#dirArrow" transform="rotate(180) translate(-30 -48)" onmousedown="handlePan(0,1)">
                  <use xlink:href="#rim" fill="#404040">
                        <set attributeName="fill" to="#808080" begin="arrowDown.mouseover" end="arrowDown.mouseout"/>
                  </use>
                  <path fill="none" stroke="white" stroke-width="1.5" d="M0,-3.0v7 M-2.5,-0.5L0,-3.0L2.5,-0.5"/>
                </g>
                <g id="arrowLeft" xlink:href="#dirArrow" transform="rotate(270) translate(-36 17)" onmousedown="handlePan(-1,0)">
                  <use xlink:href="#rim" fill="#404040">
                        <set attributeName="fill" to="#808080" begin="arrowLeft.mouseover" end="arrowLeft.mouseout"/>
                  </use>
                  <path fill="none" stroke="white" stroke-width="1.5" d="M0,-3.0v7 M-2.5,-0.5L0,-3.0L2.5,-0.5"/>
                </g>
        </g>
        <svg viewBox="0 0 15 15" width="100%" height="30px" preserveAspectRatio="xMaxYMin meet">
         <g id="arrow_out" transform="scale(0.3 0.3)">
          <a xlink:href="_active_speaker_manager_impl_8hxx__dep__incl_org.svg" target="_base">
           <rect id="button" ry="5" rx="5" y="6" x="6" height="38" width="38"
                fill="#f2f5e9" fill-opacity="0.5" stroke="#606060" stroke-width="1.0"/>
           <path id="arrow"
             d="M 11.500037,31.436501 C 11.940474,20.09759 22.043105,11.32322 32.158766,21.979434 L 37.068811,17.246167 C 37.068811,17.246167 37.088388,32 37.088388,32 L 22.160133,31.978069 C 22.160133,31.978069 26.997745,27.140456 26.997745,27.140456 C 18.528582,18.264221 13.291696,25.230495 11.500037,31.436501 z"
             style="fill:#404040;"/>
          </a>
         </g>
        </svg>
</svg>
