<?xml version="1.0" encoding="UTF-8" standalone="no"?>
<!DOCTYPE svg PUBLIC "-//W3C//DTD SVG 1.1//EN"
 "http://www.w3.org/Graphics/SVG/1.1/DTD/svg11.dtd">
<!-- Generated by graphviz version 2.40.1 (20161225.0304)
 -->
<!-- Title: /Users/oskryp/Projects/freesee&#45;native&#45;client/libs/fcc_sdk/engine/meetingclient/include/MeetingClient/ActiveSpeakerManagerAbstract.hxx Pages: 1 -->
<svg width="1508pt" height="467pt"
 viewBox="0.00 0.00 1507.81 467.00" xmlns="http://www.w3.org/2000/svg" xmlns:xlink="http://www.w3.org/1999/xlink">
<g id="graph0" class="graph" transform="scale(1 1) rotate(0) translate(4 463)">
<title>/Users/oskryp/Projects/freesee&#45;native&#45;client/libs/fcc_sdk/engine/meetingclient/include/MeetingClient/ActiveSpeakerManagerAbstract.hxx</title>
<!-- Node0 -->
<g id="node1" class="node">
<title>Node0</title>
<g id="a_node1"><a xlink:title=" ">
<polygon fill="#bfbfbf" stroke="#000000" points="796.1309,-400.5 796.1309,-458.5 1017.2432,-458.5 1017.2432,-400.5 796.1309,-400.5"/>
<text text-anchor="start" x="804.1309" y="-446.5" font-family="Helvetica,sans-Serif" font-size="10.00" fill="#000000">/Users/oskryp/Projects</text>
<text text-anchor="start" x="804.1309" y="-436.5" font-family="Helvetica,sans-Serif" font-size="10.00" fill="#000000">/freesee&#45;native&#45;client</text>
<text text-anchor="start" x="804.1309" y="-426.5" font-family="Helvetica,sans-Serif" font-size="10.00" fill="#000000">/libs/fcc_sdk/engine/meetingclient</text>
<text text-anchor="start" x="804.1309" y="-416.5" font-family="Helvetica,sans-Serif" font-size="10.00" fill="#000000">/include/MeetingClient/ActiveSpeakerManager</text>
<text text-anchor="middle" x="906.687" y="-406.5" font-family="Helvetica,sans-Serif" font-size="10.00" fill="#000000">Abstract.hxx</text>
</a>
</g>
</g>
<!-- Node1 -->
<g id="node2" class="node">
<title>Node1</title>
<g id="a_node2"><a xlink:title=" ">
<polygon fill="none" stroke="#bfbfbf" points="671.8228,-335.5 671.8228,-353.5 769.5513,-353.5 769.5513,-335.5 671.8228,-335.5"/>
<text text-anchor="middle" x="720.687" y="-341.5" font-family="Helvetica,sans-Serif" font-size="10.00" fill="#000000">boost/function.hpp</text>
</a>
</g>
</g>
<!-- Node0&#45;&gt;Node1 -->
<g id="edge1" class="edge">
<title>Node0&#45;&gt;Node1</title>
<path fill="none" stroke="#191970" d="M843.1966,-400.4856C811.6082,-386.05 774.9526,-369.2988 750.0273,-357.9082"/>
<polygon fill="#191970" stroke="#191970" points="751.3108,-354.6466 740.7607,-353.6735 748.4012,-361.0133 751.3108,-354.6466"/>
</g>
<!-- Node2 -->
<g id="node3" class="node">
<title>Node2</title>
<g id="a_node3"><a xlink:title=" ">
<polygon fill="none" stroke="#bfbfbf" points="934.0713,-200.5 934.0713,-218.5 977.3027,-218.5 977.3027,-200.5 934.0713,-200.5"/>
<text text-anchor="middle" x="955.687" y="-206.5" font-family="Helvetica,sans-Serif" font-size="10.00" fill="#000000">vector</text>
</a>
</g>
</g>
<!-- Node0&#45;&gt;Node2 -->
<g id="edge2" class="edge">
<title>Node0&#45;&gt;Node2</title>
<path fill="none" stroke="#191970" d="M922.4211,-400.235C927.7427,-389.1667 933.2113,-376.2751 936.687,-364 950.0769,-316.7117 954.0311,-258.6409 955.1984,-228.9712"/>
<polygon fill="#191970" stroke="#191970" points="958.7039,-228.8575 955.5315,-218.7488 951.7076,-228.6295 958.7039,-228.8575"/>
</g>
<!-- Node3 -->
<g id="node4" class="node">
<title>Node3</title>
<g id="a_node4"><a xlink:href="_i_active_speaker_notifications_delegate_8hxx.html" target="_top" xlink:title=" ">
<polygon fill="none" stroke="#000000" points="787.436,-325.5 787.436,-363.5 927.938,-363.5 927.938,-325.5 787.436,-325.5"/>
<text text-anchor="start" x="795.436" y="-351.5" font-family="Helvetica,sans-Serif" font-size="10.00" fill="#000000">MeetingClient/Delegates</text>
<text text-anchor="start" x="795.436" y="-341.5" font-family="Helvetica,sans-Serif" font-size="10.00" fill="#000000">/IActiveSpeakerNotifications</text>
<text text-anchor="middle" x="857.687" y="-331.5" font-family="Helvetica,sans-Serif" font-size="10.00" fill="#000000">Delegate.hxx</text>
</a>
</g>
</g>
<!-- Node0&#45;&gt;Node3 -->
<g id="edge3" class="edge">
<title>Node0&#45;&gt;Node3</title>
<path fill="none" stroke="#191970" d="M889.824,-400.2478C884.6463,-391.2661 878.963,-381.4074 873.8344,-372.5108"/>
<polygon fill="#191970" stroke="#191970" points="876.7617,-370.5806 868.7351,-363.6651 870.6972,-374.0767 876.7617,-370.5806"/>
</g>
<!-- Node21 -->
<g id="node22" class="node">
<title>Node21</title>
<g id="a_node22"><a xlink:href="_meeting_attendee_struct_8hxx.html" target="_top" xlink:title=" ">
<polygon fill="none" stroke="#000000" points="997.9214,-330.5 997.9214,-358.5 1153.4526,-358.5 1153.4526,-330.5 997.9214,-330.5"/>
<text text-anchor="start" x="1005.9214" y="-346.5" font-family="Helvetica,sans-Serif" font-size="10.00" fill="#000000">MeetingClient/MeetingAttendee</text>
<text text-anchor="middle" x="1075.687" y="-336.5" font-family="Helvetica,sans-Serif" font-size="10.00" fill="#000000">Struct.hxx</text>
</a>
</g>
</g>
<!-- Node0&#45;&gt;Node21 -->
<g id="edge25" class="edge">
<title>Node0&#45;&gt;Node21</title>
<path fill="none" stroke="#191970" d="M964.3745,-400.4856C988.8633,-388.1688 1016.7037,-374.1661 1038.4159,-363.2458"/>
<polygon fill="#191970" stroke="#191970" points="1040.2605,-366.2359 1047.6215,-358.6158 1037.1152,-359.9823 1040.2605,-366.2359"/>
</g>
<!-- Node3&#45;&gt;Node2 -->
<g id="edge24" class="edge">
<title>Node3&#45;&gt;Node2</title>
<path fill="none" stroke="#191970" d="M871.5202,-325.4441C890.5983,-299.163 924.7091,-252.1737 943.1036,-226.8342"/>
<polygon fill="#191970" stroke="#191970" points="946.0703,-228.7053 949.1125,-218.5567 940.4055,-224.5931 946.0703,-228.7053"/>
</g>
<!-- Node4 -->
<g id="node5" class="node">
<title>Node4</title>
<g id="a_node5"><a xlink:href="_notifications_8hxx.html" target="_top" xlink:title=" ">
<polygon fill="none" stroke="#000000" points="609.2119,-260.5 609.2119,-288.5 734.1621,-288.5 734.1621,-260.5 609.2119,-260.5"/>
<text text-anchor="start" x="617.2119" y="-276.5" font-family="Helvetica,sans-Serif" font-size="10.00" fill="#000000">MeetingClient/Delegates</text>
<text text-anchor="middle" x="671.687" y="-266.5" font-family="Helvetica,sans-Serif" font-size="10.00" fill="#000000">/Notifications.hxx</text>
</a>
</g>
</g>
<!-- Node3&#45;&gt;Node4 -->
<g id="edge4" class="edge">
<title>Node3&#45;&gt;Node4</title>
<path fill="none" stroke="#191970" d="M806.8617,-325.3722C779.3681,-315.0252 745.6356,-302.3301 718.7459,-292.2103"/>
<polygon fill="#191970" stroke="#191970" points="719.765,-288.8543 709.173,-288.6076 717.2994,-295.4057 719.765,-288.8543"/>
</g>
<!-- Node6 -->
<g id="node7" class="node">
<title>Node6</title>
<g id="a_node7"><a xlink:title=" ">
<polygon fill="none" stroke="#bfbfbf" points="731.9604,-200.5 731.9604,-218.5 767.4136,-218.5 767.4136,-200.5 731.9604,-200.5"/>
<text text-anchor="middle" x="749.687" y="-206.5" font-family="Helvetica,sans-Serif" font-size="10.00" fill="#000000">map</text>
</a>
</g>
</g>
<!-- Node3&#45;&gt;Node6 -->
<g id="edge23" class="edge">
<title>Node3&#45;&gt;Node6</title>
<path fill="none" stroke="#191970" d="M842.4423,-325.4441C821.3252,-299.0477 783.4959,-251.7611 763.2887,-226.5021"/>
<polygon fill="#191970" stroke="#191970" points="765.9124,-224.1789 756.9323,-218.5567 760.4463,-228.5518 765.9124,-224.1789"/>
</g>
<!-- Node4&#45;&gt;Node2 -->
<g id="edge7" class="edge">
<title>Node4&#45;&gt;Node2</title>
<path fill="none" stroke="#191970" d="M734.4223,-266.5604C786.5419,-258.8955 862.1655,-245.2792 925.687,-224 926.9212,-223.5866 928.1702,-223.1338 929.4218,-222.6518"/>
<polygon fill="#191970" stroke="#191970" points="931.0873,-225.7444 938.8673,-218.5526 928.3005,-219.3231 931.0873,-225.7444"/>
</g>
<!-- Node5 -->
<g id="node6" class="node">
<title>Node5</title>
<g id="a_node6"><a xlink:title=" ">
<polygon fill="none" stroke="#bfbfbf" points="562.0469,-195.5 562.0469,-223.5 675.3271,-223.5 675.3271,-195.5 562.0469,-195.5"/>
<text text-anchor="start" x="570.0469" y="-211.5" font-family="Helvetica,sans-Serif" font-size="10.00" fill="#000000">boost/date_time/posix</text>
<text text-anchor="middle" x="618.687" y="-201.5" font-family="Helvetica,sans-Serif" font-size="10.00" fill="#000000">_time/posix_time.hpp</text>
</a>
</g>
</g>
<!-- Node4&#45;&gt;Node5 -->
<g id="edge5" class="edge">
<title>Node4&#45;&gt;Node5</title>
<path fill="none" stroke="#191970" d="M660.1868,-260.396C653.311,-251.9634 644.4265,-241.0673 636.6431,-231.5216"/>
<polygon fill="#191970" stroke="#191970" points="639.1968,-229.1149 630.1648,-223.5765 633.7716,-233.5385 639.1968,-229.1149"/>
</g>
<!-- Node4&#45;&gt;Node6 -->
<g id="edge6" class="edge">
<title>Node4&#45;&gt;Node6</title>
<path fill="none" stroke="#191970" d="M688.6119,-260.396C701.1084,-249.9822 718.1137,-235.8111 731.0073,-225.0664"/>
<polygon fill="#191970" stroke="#191970" points="733.3563,-227.665 738.7978,-218.5743 728.875,-222.2874 733.3563,-227.665"/>
</g>
<!-- Node7 -->
<g id="node8" class="node">
<title>Node7</title>
<g id="a_node8"><a xlink:title=" ">
<polygon fill="none" stroke="#bfbfbf" points="0,-200.5 0,-218.5 89.374,-218.5 89.374,-200.5 0,-200.5"/>
<text text-anchor="middle" x="44.687" y="-206.5" font-family="Helvetica,sans-Serif" font-size="10.00" fill="#000000">FSSnapshot.hxx</text>
</a>
</g>
</g>
<!-- Node4&#45;&gt;Node7 -->
<g id="edge8" class="edge">
<title>Node4&#45;&gt;Node7</title>
<path fill="none" stroke="#191970" d="M609.1978,-272.6665C503.2246,-268.742 281.8216,-257.0128 97.687,-224 93.1814,-223.1922 88.5027,-222.1778 83.8742,-221.0626"/>
<polygon fill="#191970" stroke="#191970" points="84.4649,-217.6007 73.9084,-218.5014 82.7225,-224.3804 84.4649,-217.6007"/>
</g>
<!-- Node8 -->
<g id="node9" class="node">
<title>Node8</title>
<g id="a_node9"><a xlink:href="macros_8hxx.html" target="_top" xlink:title=" ">
<polygon fill="none" stroke="#000000" points="785.165,-200.5 785.165,-218.5 916.209,-218.5 916.209,-200.5 785.165,-200.5"/>
<text text-anchor="middle" x="850.687" y="-206.5" font-family="Helvetica,sans-Serif" font-size="10.00" fill="#000000">MeetingClient/macros.hxx</text>
</a>
</g>
</g>
<!-- Node4&#45;&gt;Node8 -->
<g id="edge9" class="edge">
<title>Node4&#45;&gt;Node8</title>
<path fill="none" stroke="#191970" d="M710.5273,-260.396C741.9365,-248.9904 785.7575,-233.0778 815.9998,-222.0959"/>
<polygon fill="#191970" stroke="#191970" points="817.4929,-225.2774 825.6978,-218.5743 815.1036,-218.6978 817.4929,-225.2774"/>
</g>
<!-- Node9 -->
<g id="node10" class="node">
<title>Node9</title>
<g id="a_node10"><a xlink:href="_f_s_base_8hxx.html" target="_top" xlink:title=" ">
<polygon fill="none" stroke="#000000" points="106.9951,-195.5 106.9951,-223.5 226.3789,-223.5 226.3789,-195.5 106.9951,-195.5"/>
<text text-anchor="start" x="114.9951" y="-211.5" font-family="Helvetica,sans-Serif" font-size="10.00" fill="#000000">MeetingClient/transport</text>
<text text-anchor="middle" x="166.687" y="-201.5" font-family="Helvetica,sans-Serif" font-size="10.00" fill="#000000">/FSBase.hxx</text>
</a>
</g>
</g>
<!-- Node4&#45;&gt;Node9 -->
<g id="edge10" class="edge">
<title>Node4&#45;&gt;Node9</title>
<path fill="none" stroke="#191970" d="M609.1926,-269.1611C526.1338,-261.6469 374.6421,-246.4879 236.6119,-224.2343"/>
<polygon fill="#191970" stroke="#191970" points="237.1307,-220.7728 226.6981,-222.6198 236.0055,-227.6817 237.1307,-220.7728"/>
</g>
<!-- Node10 -->
<g id="node11" class="node">
<title>Node10</title>
<g id="a_node11"><a xlink:href="_meeting_types_8hxx.html" target="_top" xlink:title=" ">
<polygon fill="none" stroke="#000000" points="723.7759,-130.5 723.7759,-158.5 827.5981,-158.5 827.5981,-130.5 723.7759,-130.5"/>
<text text-anchor="start" x="731.7759" y="-146.5" font-family="Helvetica,sans-Serif" font-size="10.00" fill="#000000">MeetingClient/types</text>
<text text-anchor="middle" x="775.687" y="-136.5" font-family="Helvetica,sans-Serif" font-size="10.00" fill="#000000">/MeetingTypes.hxx</text>
</a>
</g>
</g>
<!-- Node4&#45;&gt;Node10 -->
<g id="edge11" class="edge">
<title>Node4&#45;&gt;Node10</title>
<path fill="none" stroke="#191970" d="M679.407,-260.3083C688.6678,-243.8454 705.152,-216.2474 722.687,-195 731.2824,-184.5849 741.8726,-174.1161 751.3211,-165.4323"/>
<polygon fill="#191970" stroke="#191970" points="753.8254,-167.8874 758.9205,-158.5981 749.1446,-162.6826 753.8254,-167.8874"/>
</g>
<!-- Node16 -->
<g id="node17" class="node">
<title>Node16</title>
<g id="a_node17"><a xlink:href="_conference_attribute_definitions_8hxx.html" target="_top" xlink:title=" ">
<polygon fill="none" stroke="#000000" points="412.877,-195.5 412.877,-223.5 544.4971,-223.5 544.4971,-195.5 412.877,-195.5"/>
<text text-anchor="start" x="420.877" y="-211.5" font-family="Helvetica,sans-Serif" font-size="10.00" fill="#000000">MeetingClient/Conference</text>
<text text-anchor="middle" x="478.687" y="-201.5" font-family="Helvetica,sans-Serif" font-size="10.00" fill="#000000">AttributeDefinitions.hxx</text>
</a>
</g>
</g>
<!-- Node4&#45;&gt;Node16 -->
<g id="edge17" class="edge">
<title>Node4&#45;&gt;Node16</title>
<path fill="none" stroke="#191970" d="M629.8089,-260.396C600.5977,-250.558 561.4299,-237.3668 530.2892,-226.879"/>
<polygon fill="#191970" stroke="#191970" points="531.0775,-223.4514 520.4834,-223.5765 528.8433,-230.0852 531.0775,-223.4514"/>
</g>
<!-- Node17 -->
<g id="node18" class="node">
<title>Node17</title>
<g id="a_node18"><a xlink:href="_meeting_session_parameters_8hxx.html" target="_top" xlink:title=" ">
<polygon fill="none" stroke="#000000" points="244.1504,-195.5 244.1504,-223.5 395.2236,-223.5 395.2236,-195.5 244.1504,-195.5"/>
<text text-anchor="start" x="252.1504" y="-211.5" font-family="Helvetica,sans-Serif" font-size="10.00" fill="#000000">MeetingClient/MeetingSession</text>
<text text-anchor="middle" x="319.687" y="-201.5" font-family="Helvetica,sans-Serif" font-size="10.00" fill="#000000">Parameters.hxx</text>
</a>
</g>
</g>
<!-- Node4&#45;&gt;Node17 -->
<g id="edge18" class="edge">
<title>Node4&#45;&gt;Node17</title>
<path fill="none" stroke="#191970" d="M609.1621,-262.9542C552.4349,-252.479 468.2903,-236.9409 405.3222,-225.3133"/>
<polygon fill="#191970" stroke="#191970" points="405.8748,-221.8563 395.4055,-223.4821 404.6036,-228.7399 405.8748,-221.8563"/>
</g>
<!-- Node11 -->
<g id="node12" class="node">
<title>Node11</title>
<g id="a_node12"><a xlink:href="_common_data_types_8hxx.html" target="_top" xlink:title=" ">
<polygon fill="none" stroke="#000000" points="1130.9409,-65.5 1130.9409,-93.5 1256.4331,-93.5 1256.4331,-65.5 1130.9409,-65.5"/>
<text text-anchor="start" x="1138.9409" y="-81.5" font-family="Helvetica,sans-Serif" font-size="10.00" fill="#000000">MeetingClient/types</text>
<text text-anchor="middle" x="1193.687" y="-71.5" font-family="Helvetica,sans-Serif" font-size="10.00" fill="#000000">/CommonDataTypes.hxx</text>
</a>
</g>
</g>
<!-- Node10&#45;&gt;Node11 -->
<g id="edge12" class="edge">
<title>Node10&#45;&gt;Node11</title>
<path fill="none" stroke="#191970" d="M827.7818,-136.3991C901.5982,-124.9205 1036.9526,-103.8726 1120.732,-90.8447"/>
<polygon fill="#191970" stroke="#191970" points="1121.3423,-94.2919 1130.6857,-89.2969 1120.2666,-87.3751 1121.3423,-94.2919"/>
</g>
<!-- Node14 -->
<g id="node15" class="node">
<title>Node14</title>
<g id="a_node15"><a xlink:href="strong__identity_8hxx.html" target="_top" xlink:title=" ">
<polygon fill="none" stroke="#000000" points="724.9771,-65.5 724.9771,-93.5 826.397,-93.5 826.397,-65.5 724.9771,-65.5"/>
<text text-anchor="start" x="732.9771" y="-81.5" font-family="Helvetica,sans-Serif" font-size="10.00" fill="#000000">MeetingClient/utils</text>
<text text-anchor="middle" x="775.687" y="-71.5" font-family="Helvetica,sans-Serif" font-size="10.00" fill="#000000">/strong_identity.hxx</text>
</a>
</g>
</g>
<!-- Node10&#45;&gt;Node14 -->
<g id="edge15" class="edge">
<title>Node10&#45;&gt;Node14</title>
<path fill="none" stroke="#191970" d="M775.687,-130.396C775.687,-122.6448 775.687,-112.8122 775.687,-103.8601"/>
<polygon fill="#191970" stroke="#191970" points="779.1871,-103.5765 775.687,-93.5765 772.1871,-103.5765 779.1871,-103.5765"/>
</g>
<!-- Node12 -->
<g id="node13" class="node">
<title>Node12</title>
<g id="a_node13"><a xlink:title=" ">
<polygon fill="none" stroke="#bfbfbf" points="1406.4604,-5.5 1406.4604,-23.5 1446.9136,-23.5 1446.9136,-5.5 1406.4604,-5.5"/>
<text text-anchor="middle" x="1426.687" y="-11.5" font-family="Helvetica,sans-Serif" font-size="10.00" fill="#000000">string</text>
</a>
</g>
</g>
<!-- Node11&#45;&gt;Node12 -->
<g id="edge13" class="edge">
<title>Node11&#45;&gt;Node12</title>
<path fill="none" stroke="#191970" d="M1243.9577,-65.476C1290.3032,-52.547 1357.5884,-33.7764 1396.2591,-22.9885"/>
<polygon fill="#191970" stroke="#191970" points="1397.6745,-26.2273 1406.3662,-20.1689 1395.7935,-19.4848 1397.6745,-26.2273"/>
</g>
<!-- Node13 -->
<g id="node14" class="node">
<title>Node13</title>
<g id="a_node14"><a xlink:title=" ">
<polygon fill="none" stroke="#bfbfbf" points="1142.8916,-5.5 1142.8916,-23.5 1244.4824,-23.5 1244.4824,-5.5 1142.8916,-5.5"/>
<text text-anchor="middle" x="1193.687" y="-11.5" font-family="Helvetica,sans-Serif" font-size="10.00" fill="#000000">CommonTypes.hxx</text>
</a>
</g>
</g>
<!-- Node11&#45;&gt;Node13 -->
<g id="edge14" class="edge">
<title>Node11&#45;&gt;Node13</title>
<path fill="none" stroke="#191970" d="M1193.687,-65.396C1193.687,-56.1723 1193.687,-44.0011 1193.687,-33.8738"/>
<polygon fill="#191970" stroke="#191970" points="1197.1871,-33.5743 1193.687,-23.5743 1190.1871,-33.5743 1197.1871,-33.5743"/>
</g>
<!-- Node15 -->
<g id="node16" class="node">
<title>Node15</title>
<g id="a_node16"><a xlink:title=" ">
<polygon fill="none" stroke="#bfbfbf" points="723.4878,-.5 723.4878,-28.5 827.8862,-28.5 827.8862,-.5 723.4878,-.5"/>
<text text-anchor="start" x="731.4878" y="-16.5" font-family="Helvetica,sans-Serif" font-size="10.00" fill="#000000">boost/serialization</text>
<text text-anchor="middle" x="775.687" y="-6.5" font-family="Helvetica,sans-Serif" font-size="10.00" fill="#000000">/strong_typedef.hpp</text>
</a>
</g>
</g>
<!-- Node14&#45;&gt;Node15 -->
<g id="edge16" class="edge">
<title>Node14&#45;&gt;Node15</title>
<path fill="none" stroke="#191970" d="M775.687,-65.396C775.687,-57.6448 775.687,-47.8122 775.687,-38.8601"/>
<polygon fill="#191970" stroke="#191970" points="779.1871,-38.5765 775.687,-28.5765 772.1871,-38.5765 779.1871,-38.5765"/>
</g>
<!-- Node17&#45;&gt;Node10 -->
<g id="edge19" class="edge">
<title>Node17&#45;&gt;Node10</title>
<path fill="none" stroke="#191970" d="M395.673,-196.2572C398.3765,-195.8262 401.0543,-195.4058 403.687,-195 512.4261,-178.2395 639.5127,-161.6245 713.4669,-152.251"/>
<polygon fill="#191970" stroke="#191970" points="714.0601,-155.7039 723.542,-150.9771 713.182,-148.7592 714.0601,-155.7039"/>
</g>
<!-- Node18 -->
<g id="node19" class="node">
<title>Node18</title>
<g id="a_node19"><a xlink:title=" ">
<polygon fill="none" stroke="#bfbfbf" points="291.123,-135.5 291.123,-153.5 348.251,-153.5 348.251,-135.5 291.123,-135.5"/>
<text text-anchor="middle" x="319.687" y="-141.5" font-family="Helvetica,sans-Serif" font-size="10.00" fill="#000000">algorithm</text>
</a>
</g>
</g>
<!-- Node17&#45;&gt;Node18 -->
<g id="edge20" class="edge">
<title>Node17&#45;&gt;Node18</title>
<path fill="none" stroke="#191970" d="M319.687,-195.396C319.687,-186.1723 319.687,-174.0011 319.687,-163.8738"/>
<polygon fill="#191970" stroke="#191970" points="323.1871,-163.5743 319.687,-153.5743 316.1871,-163.5743 323.1871,-163.5743"/>
</g>
<!-- Node19 -->
<g id="node20" class="node">
<title>Node19</title>
<g id="a_node20"><a xlink:title=" ">
<polygon fill="none" stroke="#bfbfbf" points="365.7832,-135.5 365.7832,-153.5 439.5908,-153.5 439.5908,-135.5 365.7832,-135.5"/>
<text text-anchor="middle" x="402.687" y="-141.5" font-family="Helvetica,sans-Serif" font-size="10.00" fill="#000000">Printable.hxx</text>
</a>
</g>
</g>
<!-- Node17&#45;&gt;Node19 -->
<g id="edge21" class="edge">
<title>Node17&#45;&gt;Node19</title>
<path fill="none" stroke="#191970" d="M337.6968,-195.396C351.121,-184.883 369.4349,-170.5408 383.2007,-159.7603"/>
<polygon fill="#191970" stroke="#191970" points="385.3847,-162.4956 391.0998,-153.5743 381.0688,-156.9844 385.3847,-162.4956"/>
</g>
<!-- Node20 -->
<g id="node21" class="node">
<title>Node20</title>
<g id="a_node21"><a xlink:title=" ">
<polygon fill="none" stroke="#bfbfbf" points="192.1675,-135.5 192.1675,-153.5 273.2065,-153.5 273.2065,-135.5 192.1675,-135.5"/>
<text text-anchor="middle" x="232.687" y="-141.5" font-family="Helvetica,sans-Serif" font-size="10.00" fill="#000000">VoIPClient.hxx</text>
</a>
</g>
</g>
<!-- Node17&#45;&gt;Node20 -->
<g id="edge22" class="edge">
<title>Node17&#45;&gt;Node20</title>
<path fill="none" stroke="#191970" d="M300.8093,-195.396C286.7381,-184.883 267.5417,-170.5408 253.1124,-159.7603"/>
<polygon fill="#191970" stroke="#191970" points="254.9385,-156.7557 244.8326,-153.5743 250.7488,-162.3635 254.9385,-156.7557"/>
</g>
<!-- Node22 -->
<g id="node23" class="node">
<title>Node22</title>
<g id="a_node23"><a xlink:href="_meeting_attendee_readonly_8hxx.html" target="_top" xlink:title=" ">
<polygon fill="none" stroke="#000000" points="1010.9214,-260.5 1010.9214,-288.5 1166.4526,-288.5 1166.4526,-260.5 1010.9214,-260.5"/>
<text text-anchor="start" x="1018.9214" y="-276.5" font-family="Helvetica,sans-Serif" font-size="10.00" fill="#000000">MeetingClient/MeetingAttendee</text>
<text text-anchor="middle" x="1088.687" y="-266.5" font-family="Helvetica,sans-Serif" font-size="10.00" fill="#000000">Readonly.hxx</text>
</a>
</g>
</g>
<!-- Node21&#45;&gt;Node22 -->
<g id="edge26" class="edge">
<title>Node21&#45;&gt;Node22</title>
<path fill="none" stroke="#191970" d="M1078.3178,-330.3345C1080.0093,-321.2259 1082.2506,-309.1575 1084.2166,-298.5717"/>
<polygon fill="#191970" stroke="#191970" points="1087.6753,-299.1155 1086.0602,-288.6445 1080.793,-297.8373 1087.6753,-299.1155"/>
</g>
<!-- Node22&#45;&gt;Node2 -->
<g id="edge32" class="edge">
<title>Node22&#45;&gt;Node2</title>
<path fill="none" stroke="#191970" d="M1059.828,-260.396C1037.0992,-249.2879 1005.6232,-233.9049 983.239,-222.9653"/>
<polygon fill="#191970" stroke="#191970" points="984.7757,-219.8207 974.2544,-218.5743 981.7021,-226.1098 984.7757,-219.8207"/>
</g>
<!-- Node22&#45;&gt;Node8 -->
<g id="edge34" class="edge">
<title>Node22&#45;&gt;Node8</title>
<path fill="none" stroke="#191970" d="M1037.3376,-260.476C994.3799,-248.7439 933.8102,-232.2017 893.4494,-221.1788"/>
<polygon fill="#191970" stroke="#191970" points="894.2154,-217.7599 883.6466,-218.5016 892.3711,-224.5126 894.2154,-217.7599"/>
</g>
<!-- Node22&#45;&gt;Node10 -->
<g id="edge33" class="edge">
<title>Node22&#45;&gt;Node10</title>
<path fill="none" stroke="#191970" d="M1070.5062,-260.1723C1041.8183,-237.5864 989.0389,-196.1317 986.687,-195 939.3964,-172.2441 881.0806,-159.2994 837.749,-152.227"/>
<polygon fill="#191970" stroke="#191970" points="838.0519,-148.7317 827.6298,-150.6372 836.9654,-155.6469 838.0519,-148.7317"/>
</g>
<!-- Node22&#45;&gt;Node12 -->
<g id="edge31" class="edge">
<title>Node22&#45;&gt;Node12</title>
<path fill="none" stroke="#191970" d="M1166.8804,-269.891C1275.2957,-262.6905 1460.3238,-247.1549 1480.687,-224 1530.2882,-167.599 1469.4509,-71.4821 1440.4437,-32.1094"/>
<polygon fill="#191970" stroke="#191970" points="1442.9747,-29.6532 1434.1542,-23.7838 1437.3893,-33.8727 1442.9747,-29.6532"/>
</g>
<!-- Node23 -->
<g id="node24" class="node">
<title>Node23</title>
<g id="a_node24"><a xlink:title=" ">
<polygon fill="none" stroke="#bfbfbf" points="1033.7046,-200.5 1033.7046,-218.5 1143.6694,-218.5 1143.6694,-200.5 1033.7046,-200.5"/>
<text text-anchor="middle" x="1088.687" y="-206.5" font-family="Helvetica,sans-Serif" font-size="10.00" fill="#000000">boost/shared_ptr.hpp</text>
</a>
</g>
</g>
<!-- Node22&#45;&gt;Node23 -->
<g id="edge27" class="edge">
<title>Node22&#45;&gt;Node23</title>
<path fill="none" stroke="#191970" d="M1088.687,-260.396C1088.687,-251.1723 1088.687,-239.0011 1088.687,-228.8738"/>
<polygon fill="#191970" stroke="#191970" points="1092.1871,-228.5743 1088.687,-218.5743 1085.1871,-228.5743 1092.1871,-228.5743"/>
</g>
<!-- Node24 -->
<g id="node25" class="node">
<title>Node24</title>
<g id="a_node25"><a xlink:title=" ">
<polygon fill="none" stroke="#bfbfbf" points="1161.377,-200.5 1161.377,-218.5 1277.9971,-218.5 1277.9971,-200.5 1161.377,-200.5"/>
<text text-anchor="middle" x="1219.687" y="-206.5" font-family="Helvetica,sans-Serif" font-size="10.00" fill="#000000">boost/thread/locks.hpp</text>
</a>
</g>
</g>
<!-- Node22&#45;&gt;Node24 -->
<g id="edge28" class="edge">
<title>Node22&#45;&gt;Node24</title>
<path fill="none" stroke="#191970" d="M1117.1121,-260.396C1139.3991,-249.3375 1170.2251,-234.0422 1192.2535,-223.112"/>
<polygon fill="#191970" stroke="#191970" points="1193.9966,-226.1544 1201.3988,-218.5743 1190.8852,-219.8839 1193.9966,-226.1544"/>
</g>
<!-- Node25 -->
<g id="node26" class="node">
<title>Node25</title>
<g id="a_node26"><a xlink:title=" ">
<polygon fill="none" stroke="#bfbfbf" points="1296.2119,-195.5 1296.2119,-223.5 1401.1621,-223.5 1401.1621,-195.5 1296.2119,-195.5"/>
<text text-anchor="start" x="1304.2119" y="-211.5" font-family="Helvetica,sans-Serif" font-size="10.00" fill="#000000">boost/thread/shared</text>
<text text-anchor="middle" x="1348.687" y="-201.5" font-family="Helvetica,sans-Serif" font-size="10.00" fill="#000000">_mutex.hpp</text>
</a>
</g>
</g>
<!-- Node22&#45;&gt;Node25 -->
<g id="edge29" class="edge">
<title>Node22&#45;&gt;Node25</title>
<path fill="none" stroke="#191970" d="M1144.783,-260.476C1186.3315,-250.0889 1242.9615,-235.9314 1285.9992,-225.1719"/>
<polygon fill="#191970" stroke="#191970" points="1286.943,-228.5438 1295.7955,-222.7229 1285.2452,-221.7528 1286.943,-228.5438"/>
</g>
<!-- Node26 -->
<g id="node27" class="node">
<title>Node26</title>
<g id="a_node27"><a xlink:title=" ">
<polygon fill="none" stroke="#bfbfbf" points="1419.6255,-200.5 1419.6255,-218.5 1471.7485,-218.5 1471.7485,-200.5 1419.6255,-200.5"/>
<text text-anchor="middle" x="1445.687" y="-206.5" font-family="Helvetica,sans-Serif" font-size="10.00" fill="#000000">ostream</text>
</a>
</g>
</g>
<!-- Node22&#45;&gt;Node26 -->
<g id="edge30" class="edge">
<title>Node22&#45;&gt;Node26</title>
<path fill="none" stroke="#191970" d="M1166.5902,-267.2464C1232.2524,-259.949 1328.2549,-246.4906 1409.687,-224 1411.6354,-223.4619 1413.6216,-222.8507 1415.6099,-222.1911"/>
<polygon fill="#191970" stroke="#191970" points="1417.2189,-225.3291 1425.4041,-218.6021 1414.8104,-218.7565 1417.2189,-225.3291"/>
</g>
</g>
</svg>
