<?xml version="1.0" encoding="UTF-8" standalone="no"?>
<!DOCTYPE svg PUBLIC "-//W3C//DTD SVG 1.1//EN"
 "http://www.w3.org/Graphics/SVG/1.1/DTD/svg11.dtd">
<!-- Generated by graphviz version 2.40.1 (20161225.0304)
 -->
<!-- Title: /Users/oskryp/Projects/freesee&#45;native&#45;client/libs/fcc_sdk/engine/meetingclient/src/headers/MeetingClient/AttendeesController.hxx Pages: 1 -->
<!--zoomable 447 -->
<svg id="main" version="1.1" xmlns="http://www.w3.org/2000/svg" xmlns:xlink="http://www.w3.org/1999/xlink" xml:space="preserve" onload="init(evt)">
<style type="text/css"><![CDATA[
.edge:hover path { stroke: red; }
.edge:hover polygon { stroke: red; fill: red; }
]]></style>
<script type="text/javascript"><![CDATA[
var edges = document.getElementsByTagName('g');
if (edges && edges.length) {
  for (var i=0;i<edges.length;i++) {
    if (edges[i].id.substr(0,4)=='edge') {
      edges[i].setAttribute('class','edge');
    }
  }
}
]]></script>
        <defs>
                <circle id="rim" cx="0" cy="0" r="7"/>
                <circle id="rim2" cx="0" cy="0" r="3.5"/>
                <g id="zoomPlus">
                        <use xlink:href="#rim" fill="#404040">
                                <set attributeName="fill" to="#808080" begin="zoomplus.mouseover" end="zoomplus.mouseout"/>
                        </use>
                        <path d="M-4,0h8M0,-4v8" fill="none" stroke="white" stroke-width="1.5" pointer-events="none"/>
                </g>
                <g id="zoomMin">
                        <use xlink:href="#rim" fill="#404040">
                                <set attributeName="fill" to="#808080" begin="zoomminus.mouseover" end="zoomminus.mouseout"/>
                        </use>
                        <path d="M-4,0h8" fill="none" stroke="white" stroke-width="1.5" pointer-events="none"/>
                </g>
                <g id="dirArrow">
                        <path fill="none" stroke="white" stroke-width="1.5" d="M0,-3.0v7 M-2.5,-0.5L0,-3.0L2.5,-0.5"/>
                </g>
               <g id="resetDef">
                       <use xlink:href="#rim2" fill="#404040">
                               <set attributeName="fill" to="#808080" begin="reset.mouseover" end="reset.mouseout"/>
                       </use>
               </g>
        </defs>

<script type="text/javascript">
var viewWidth = 1412;
var viewHeight = 447;
var sectionId = 'dynsection-0';
</script>
<script xlink:href="svgpan.js"/>
<svg id="graph" class="graph">
<g id="viewport">
<title>/Users/oskryp/Projects/freesee&#45;native&#45;client/libs/fcc_sdk/engine/meetingclient/src/headers/MeetingClient/AttendeesController.hxx</title>
<!-- Node0 -->
<g id="node1" class="node">
<title>Node0</title>
<g id="a_node1"><a xlink:title=" ">
<polygon fill="#bfbfbf" stroke="#000000" points="207.7539,-390.5 207.7539,-438.5 451.6543,-438.5 451.6543,-390.5 207.7539,-390.5"/>
<text text-anchor="start" x="215.7539" y="-426.5" font-family="Helvetica,sans-Serif" font-size="10.00" fill="#000000">/Users/oskryp/Projects</text>
<text text-anchor="start" x="215.7539" y="-416.5" font-family="Helvetica,sans-Serif" font-size="10.00" fill="#000000">/freesee&#45;native&#45;client</text>
<text text-anchor="start" x="215.7539" y="-406.5" font-family="Helvetica,sans-Serif" font-size="10.00" fill="#000000">/libs/fcc_sdk/engine/meetingclient</text>
<text text-anchor="middle" x="329.7041" y="-396.5" font-family="Helvetica,sans-Serif" font-size="10.00" fill="#000000">/src/headers/MeetingClient/AttendeesController.hxx</text>
</a>
</g>
</g>
<!-- Node1 -->
<g id="node2" class="node">
<title>Node1</title>
<g id="a_node2"><a xlink:title=" ">
<polygon fill="none" stroke="#bfbfbf" points="0,-325.5 0,-353.5 109.4082,-353.5 109.4082,-325.5 0,-325.5"/>
<text text-anchor="start" x="8" y="-341.5" font-family="Helvetica,sans-Serif" font-size="10.00" fill="#000000">boost/enable_shared</text>
<text text-anchor="middle" x="54.7041" y="-331.5" font-family="Helvetica,sans-Serif" font-size="10.00" fill="#000000">_from_this.hpp</text>
</a>
</g>
</g>
<!-- Node0&#45;&gt;Node1 -->
<g id="edge1" class="edge">
<title>Node0&#45;&gt;Node1</title>
<path fill="none" stroke="#191970" d="M241.5577,-390.4601C200.7749,-379.3375 153.3133,-366.3934 116.4294,-356.3342"/>
<polygon fill="#191970" stroke="#191970" points="116.8896,-352.8319 106.321,-353.5773 115.0478,-359.5853 116.8896,-352.8319"/>
</g>
<!-- Node2 -->
<g id="node3" class="node">
<title>Node2</title>
<g id="a_node3"><a xlink:title=" ">
<polygon fill="none" stroke="#bfbfbf" points="130.7217,-265.5 130.7217,-283.5 240.6865,-283.5 240.6865,-265.5 130.7217,-265.5"/>
<text text-anchor="middle" x="185.7041" y="-271.5" font-family="Helvetica,sans-Serif" font-size="10.00" fill="#000000">boost/shared_ptr.hpp</text>
</a>
</g>
</g>
<!-- Node0&#45;&gt;Node2 -->
<g id="edge2" class="edge">
<title>Node0&#45;&gt;Node2</title>
<path fill="none" stroke="#191970" d="M230.2312,-390.4032C197.2125,-380.2484 166.3718,-367.6228 156.7041,-354 143.0917,-334.8188 157.8462,-308.5371 170.8117,-291.5371"/>
<polygon fill="#191970" stroke="#191970" points="173.6854,-293.5504 177.2691,-283.5801 168.25,-289.1394 173.6854,-293.5504"/>
</g>
<!-- Node3 -->
<g id="node4" class="node">
<title>Node3</title>
<g id="a_node4"><a xlink:title=" ">
<polygon fill="none" stroke="#bfbfbf" points="310.4775,-5.5 310.4775,-23.5 350.9307,-23.5 350.9307,-5.5 310.4775,-5.5"/>
<text text-anchor="middle" x="330.7041" y="-11.5" font-family="Helvetica,sans-Serif" font-size="10.00" fill="#000000">string</text>
</a>
</g>
</g>
<!-- Node0&#45;&gt;Node3 -->
<g id="edge3" class="edge">
<title>Node0&#45;&gt;Node3</title>
<path fill="none" stroke="#191970" d="M329.7041,-390.4703C329.7041,-362.583 329.7041,-315.2118 329.7041,-274.5 329.7041,-274.5 329.7041,-274.5 329.7041,-144.5 329.7041,-105.1592 330.1677,-59.1237 330.4636,-33.7482"/>
<polygon fill="#191970" stroke="#191970" points="333.9645,-33.6827 330.5855,-23.6412 326.965,-33.5983 333.9645,-33.6827"/>
</g>
<!-- Node4 -->
<g id="node5" class="node">
<title>Node4</title>
<g id="a_node5"><a xlink:href="_i_attendee_notifications_delegate_8hxx.html" target="_top" xlink:title=" ">
<polygon fill="none" stroke="#000000" points="396.1602,-325.5 396.1602,-353.5 557.248,-353.5 557.248,-325.5 396.1602,-325.5"/>
<text text-anchor="start" x="404.1602" y="-341.5" font-family="Helvetica,sans-Serif" font-size="10.00" fill="#000000">Delegates/IAttendeeNotifications</text>
<text text-anchor="middle" x="476.7041" y="-331.5" font-family="Helvetica,sans-Serif" font-size="10.00" fill="#000000">Delegate.hxx</text>
</a>
</g>
</g>
<!-- Node0&#45;&gt;Node4 -->
<g id="edge4" class="edge">
<title>Node0&#45;&gt;Node4</title>
<path fill="none" stroke="#191970" d="M377.025,-390.3567C397.5094,-379.9054 421.1146,-367.862 440.2105,-358.1192"/>
<polygon fill="#191970" stroke="#191970" points="441.8723,-361.2006 449.1893,-353.5382 438.691,-354.9653 441.8723,-361.2006"/>
</g>
<!-- Node7 -->
<g id="node8" class="node">
<title>Node7</title>
<g id="a_node8"><a xlink:title=" ">
<polygon fill="none" stroke="#bfbfbf" points="448.9775,-200.5 448.9775,-218.5 484.4307,-218.5 484.4307,-200.5 448.9775,-200.5"/>
<text text-anchor="middle" x="466.7041" y="-206.5" font-family="Helvetica,sans-Serif" font-size="10.00" fill="#000000">map</text>
</a>
</g>
</g>
<!-- Node0&#45;&gt;Node7 -->
<g id="edge28" class="edge">
<title>Node0&#45;&gt;Node7</title>
<path fill="none" stroke="#191970" d="M451.9128,-397.3337C501.9479,-387.5735 551.6599,-373.3671 566.7041,-354 602.2983,-308.1781 529.8139,-250.6872 490.1916,-224.1554"/>
<polygon fill="#191970" stroke="#191970" points="491.883,-221.0797 481.5973,-218.5391 488.0537,-226.9394 491.883,-221.0797"/>
</g>
<!-- Node13 -->
<g id="node14" class="node">
<title>Node13</title>
<g id="a_node14"><a xlink:href="_common_data_types_8hxx.html" target="_top" xlink:title=" ">
<polygon fill="none" stroke="#000000" points="357.958,-65.5 357.958,-93.5 483.4502,-93.5 483.4502,-65.5 357.958,-65.5"/>
<text text-anchor="start" x="365.958" y="-81.5" font-family="Helvetica,sans-Serif" font-size="10.00" fill="#000000">MeetingClient/types</text>
<text text-anchor="middle" x="420.7041" y="-71.5" font-family="Helvetica,sans-Serif" font-size="10.00" fill="#000000">/CommonDataTypes.hxx</text>
</a>
</g>
</g>
<!-- Node0&#45;&gt;Node13 -->
<g id="edge25" class="edge">
<title>Node0&#45;&gt;Node13</title>
<path fill="none" stroke="#191970" d="M340.4917,-390.2577C351.7262,-362.7616 367.7041,-316.3071 367.7041,-274.5 367.7041,-274.5 367.7041,-274.5 367.7041,-209.5 367.7041,-169.3416 389.6589,-127.025 405.3076,-101.9636"/>
<polygon fill="#191970" stroke="#191970" points="408.257,-103.848 410.7352,-93.5471 402.3741,-100.0542 408.257,-103.848"/>
</g>
<!-- Node22 -->
<g id="node23" class="node">
<title>Node22</title>
<g id="a_node23"><a xlink:href="_meeting_controller_base_8hxx.html" target="_top" xlink:title=" ">
<polygon fill="none" stroke="#000000" points="165.6748,-330.5 165.6748,-348.5 301.7334,-348.5 301.7334,-330.5 165.6748,-330.5"/>
<text text-anchor="middle" x="233.7041" y="-336.5" font-family="Helvetica,sans-Serif" font-size="10.00" fill="#000000">MeetingControllerBase.hxx</text>
</a>
</g>
</g>
<!-- Node0&#45;&gt;Node22 -->
<g id="edge26" class="edge">
<title>Node0&#45;&gt;Node22</title>
<path fill="none" stroke="#191970" d="M298.8007,-390.3567C283.8729,-378.6944 266.4075,-365.0495 253.3278,-354.831"/>
<polygon fill="#191970" stroke="#191970" points="255.4716,-352.0644 245.4366,-348.666 251.1621,-357.5806 255.4716,-352.0644"/>
</g>
<!-- Node5 -->
<g id="node6" class="node">
<title>Node5</title>
<g id="a_node6"><a xlink:href="_notifications_8hxx.html" target="_top" xlink:title=" ">
<polygon fill="none" stroke="#000000" points="877.229,-260.5 877.229,-288.5 1002.1792,-288.5 1002.1792,-260.5 877.229,-260.5"/>
<text text-anchor="start" x="885.229" y="-276.5" font-family="Helvetica,sans-Serif" font-size="10.00" fill="#000000">MeetingClient/Delegates</text>
<text text-anchor="middle" x="939.7041" y="-266.5" font-family="Helvetica,sans-Serif" font-size="10.00" fill="#000000">/Notifications.hxx</text>
</a>
</g>
</g>
<!-- Node4&#45;&gt;Node5 -->
<g id="edge5" class="edge">
<title>Node4&#45;&gt;Node5</title>
<path fill="none" stroke="#191970" d="M557.3525,-328.1779C644.7398,-315.9097 782.9222,-296.5104 867.0515,-284.6996"/>
<polygon fill="#191970" stroke="#191970" points="867.6199,-288.1542 877.0362,-283.2979 866.6467,-281.2222 867.6199,-288.1542"/>
</g>
<!-- Node4&#45;&gt;Node13 -->
<g id="edge24" class="edge">
<title>Node4&#45;&gt;Node13</title>
<path fill="none" stroke="#191970" d="M471.1828,-325.1443C463.0816,-303.5283 448.0351,-261.1894 439.7041,-224 430.3364,-182.1829 425.0476,-132.4511 422.5408,-103.5795"/>
<polygon fill="#191970" stroke="#191970" points="426.0275,-103.2724 421.7136,-93.5956 419.0514,-103.8504 426.0275,-103.2724"/>
</g>
<!-- Node6 -->
<g id="node7" class="node">
<title>Node6</title>
<g id="a_node7"><a xlink:title=" ">
<polygon fill="none" stroke="#bfbfbf" points="958.064,-195.5 958.064,-223.5 1071.3442,-223.5 1071.3442,-195.5 958.064,-195.5"/>
<text text-anchor="start" x="966.064" y="-211.5" font-family="Helvetica,sans-Serif" font-size="10.00" fill="#000000">boost/date_time/posix</text>
<text text-anchor="middle" x="1014.7041" y="-201.5" font-family="Helvetica,sans-Serif" font-size="10.00" fill="#000000">_time/posix_time.hpp</text>
</a>
</g>
</g>
<!-- Node5&#45;&gt;Node6 -->
<g id="edge6" class="edge">
<title>Node5&#45;&gt;Node6</title>
<path fill="none" stroke="#191970" d="M955.978,-260.396C966.101,-251.6227 979.3009,-240.1827 990.6217,-230.3714"/>
<polygon fill="#191970" stroke="#191970" points="993.1973,-232.7708 998.462,-223.5765 988.6128,-227.4809 993.1973,-232.7708"/>
</g>
<!-- Node5&#45;&gt;Node7 -->
<g id="edge7" class="edge">
<title>Node5&#45;&gt;Node7</title>
<path fill="none" stroke="#191970" d="M877.0594,-270.4821C771.4622,-263.1996 562.696,-246.4677 492.7041,-224 491.6707,-223.6683 490.6318,-223.2934 489.5954,-222.8847"/>
<polygon fill="#191970" stroke="#191970" points="491.0753,-219.7128 480.5452,-218.544 488.0482,-226.0244 491.0753,-219.7128"/>
</g>
<!-- Node8 -->
<g id="node9" class="node">
<title>Node8</title>
<g id="a_node9"><a xlink:title=" ">
<polygon fill="none" stroke="#bfbfbf" points="1089.0884,-200.5 1089.0884,-218.5 1132.3198,-218.5 1132.3198,-200.5 1089.0884,-200.5"/>
<text text-anchor="middle" x="1110.7041" y="-206.5" font-family="Helvetica,sans-Serif" font-size="10.00" fill="#000000">vector</text>
</a>
</g>
</g>
<!-- Node5&#45;&gt;Node8 -->
<g id="edge8" class="edge">
<title>Node5&#45;&gt;Node8</title>
<path fill="none" stroke="#191970" d="M982.731,-260.4173C1010.8921,-250.8761 1048.3327,-237.5749 1080.7041,-224 1081.5677,-223.6379 1082.442,-223.2636 1083.3222,-222.8801"/>
<polygon fill="#191970" stroke="#191970" points="1085.1276,-225.9028 1092.7609,-218.5555 1082.2118,-219.539 1085.1276,-225.9028"/>
</g>
<!-- Node9 -->
<g id="node10" class="node">
<title>Node9</title>
<g id="a_node10"><a xlink:title=" ">
<polygon fill="none" stroke="#bfbfbf" points="1150.0171,-200.5 1150.0171,-218.5 1239.3911,-218.5 1239.3911,-200.5 1150.0171,-200.5"/>
<text text-anchor="middle" x="1194.7041" y="-206.5" font-family="Helvetica,sans-Serif" font-size="10.00" fill="#000000">FSSnapshot.hxx</text>
</a>
</g>
</g>
<!-- Node5&#45;&gt;Node9 -->
<g id="edge9" class="edge">
<title>Node5&#45;&gt;Node9</title>
<path fill="none" stroke="#191970" d="M997.2566,-260.47C1037.7197,-250.5185 1093.095,-236.7238 1141.7041,-224 1145.234,-223.076 1148.8923,-222.1044 1152.5618,-221.1201"/>
<polygon fill="#191970" stroke="#191970" points="1153.4809,-224.4974 1162.2209,-218.5087 1151.654,-217.74 1153.4809,-224.4974"/>
</g>
<!-- Node10 -->
<g id="node11" class="node">
<title>Node10</title>
<g id="a_node11"><a xlink:href="macros_8hxx.html" target="_top" xlink:title=" ">
<polygon fill="none" stroke="#000000" points="1257.1821,-200.5 1257.1821,-218.5 1388.2261,-218.5 1388.2261,-200.5 1257.1821,-200.5"/>
<text text-anchor="middle" x="1322.7041" y="-206.5" font-family="Helvetica,sans-Serif" font-size="10.00" fill="#000000">MeetingClient/macros.hxx</text>
</a>
</g>
</g>
<!-- Node5&#45;&gt;Node10 -->
<g id="edge10" class="edge">
<title>Node5&#45;&gt;Node10</title>
<path fill="none" stroke="#191970" d="M1002.2409,-264.8714C1064.7303,-255.1109 1163.5036,-239.3056 1248.7041,-224 1254.877,-222.8911 1261.3309,-221.6894 1267.7446,-220.4686"/>
<polygon fill="#191970" stroke="#191970" points="1268.5853,-223.8711 1277.7439,-218.5449 1267.2628,-216.9972 1268.5853,-223.8711"/>
</g>
<!-- Node11 -->
<g id="node12" class="node">
<title>Node11</title>
<g id="a_node12"><a xlink:href="_f_s_base_8hxx.html" target="_top" xlink:title=" ">
<polygon fill="none" stroke="#000000" points="502.0122,-195.5 502.0122,-223.5 621.396,-223.5 621.396,-195.5 502.0122,-195.5"/>
<text text-anchor="start" x="510.0122" y="-211.5" font-family="Helvetica,sans-Serif" font-size="10.00" fill="#000000">MeetingClient/transport</text>
<text text-anchor="middle" x="561.7041" y="-201.5" font-family="Helvetica,sans-Serif" font-size="10.00" fill="#000000">/FSBase.hxx</text>
</a>
</g>
</g>
<!-- Node5&#45;&gt;Node11 -->
<g id="edge11" class="edge">
<title>Node5&#45;&gt;Node11</title>
<path fill="none" stroke="#191970" d="M877.1218,-265.1202C816.7956,-255.8862 722.7003,-240.98 631.4698,-224.0939"/>
<polygon fill="#191970" stroke="#191970" points="631.982,-220.6292 621.5104,-222.2403 630.7012,-227.511 631.982,-220.6292"/>
</g>
<!-- Node12 -->
<g id="node13" class="node">
<title>Node12</title>
<g id="a_node13"><a xlink:href="_meeting_types_8hxx.html" target="_top" xlink:title=" ">
<polygon fill="none" stroke="#000000" points="953.793,-130.5 953.793,-158.5 1057.6152,-158.5 1057.6152,-130.5 953.793,-130.5"/>
<text text-anchor="start" x="961.793" y="-146.5" font-family="Helvetica,sans-Serif" font-size="10.00" fill="#000000">MeetingClient/types</text>
<text text-anchor="middle" x="1005.7041" y="-136.5" font-family="Helvetica,sans-Serif" font-size="10.00" fill="#000000">/MeetingTypes.hxx</text>
</a>
</g>
</g>
<!-- Node5&#45;&gt;Node12 -->
<g id="edge12" class="edge">
<title>Node5&#45;&gt;Node12</title>
<path fill="none" stroke="#191970" d="M1002.2673,-272.1535C1121.5009,-267.0352 1371.7834,-252.9358 1397.7041,-224 1406.304,-214.3997 1406.2158,-204.6786 1397.7041,-195 1376.2977,-170.659 1172.9244,-154.7378 1067.8722,-148.0682"/>
<polygon fill="#191970" stroke="#191970" points="1067.9141,-144.564 1057.715,-147.4327 1067.4769,-151.5504 1067.9141,-144.564"/>
</g>
<!-- Node17 -->
<g id="node18" class="node">
<title>Node17</title>
<g id="a_node18"><a xlink:href="_conference_attribute_definitions_8hxx.html" target="_top" xlink:title=" ">
<polygon fill="none" stroke="#000000" points="639.894,-195.5 639.894,-223.5 771.5142,-223.5 771.5142,-195.5 639.894,-195.5"/>
<text text-anchor="start" x="647.894" y="-211.5" font-family="Helvetica,sans-Serif" font-size="10.00" fill="#000000">MeetingClient/Conference</text>
<text text-anchor="middle" x="705.7041" y="-201.5" font-family="Helvetica,sans-Serif" font-size="10.00" fill="#000000">AttributeDefinitions.hxx</text>
</a>
</g>
</g>
<!-- Node5&#45;&gt;Node17 -->
<g id="edge18" class="edge">
<title>Node5&#45;&gt;Node17</title>
<path fill="none" stroke="#191970" d="M889.2177,-260.476C853.2043,-250.4723 804.6012,-236.9714 766.4611,-226.3769"/>
<polygon fill="#191970" stroke="#191970" points="767.0754,-222.9151 756.5034,-223.6109 765.2018,-229.6597 767.0754,-222.9151"/>
</g>
<!-- Node18 -->
<g id="node19" class="node">
<title>Node18</title>
<g id="a_node19"><a xlink:href="_meeting_session_parameters_8hxx.html" target="_top" xlink:title=" ">
<polygon fill="none" stroke="#000000" points="789.1675,-195.5 789.1675,-223.5 940.2407,-223.5 940.2407,-195.5 789.1675,-195.5"/>
<text text-anchor="start" x="797.1675" y="-211.5" font-family="Helvetica,sans-Serif" font-size="10.00" fill="#000000">MeetingClient/MeetingSession</text>
<text text-anchor="middle" x="864.7041" y="-201.5" font-family="Helvetica,sans-Serif" font-size="10.00" fill="#000000">Parameters.hxx</text>
</a>
</g>
</g>
<!-- Node5&#45;&gt;Node18 -->
<g id="edge19" class="edge">
<title>Node5&#45;&gt;Node18</title>
<path fill="none" stroke="#191970" d="M923.4302,-260.396C913.3072,-251.6227 900.1073,-240.1827 888.7865,-230.3714"/>
<polygon fill="#191970" stroke="#191970" points="890.7954,-227.4809 880.9462,-223.5765 886.2109,-232.7708 890.7954,-227.4809"/>
</g>
<!-- Node12&#45;&gt;Node13 -->
<g id="edge13" class="edge">
<title>Node12&#45;&gt;Node13</title>
<path fill="none" stroke="#191970" d="M953.7627,-131.4725C951.0444,-130.9396 948.3462,-130.444 945.7041,-130 785.7234,-103.113 595.7309,-89.2541 493.8868,-83.2683"/>
<polygon fill="#191970" stroke="#191970" points="493.8961,-79.763 483.7105,-82.6792 493.4915,-86.7513 493.8961,-79.763"/>
</g>
<!-- Node15 -->
<g id="node16" class="node">
<title>Node15</title>
<g id="a_node16"><a xlink:href="strong__identity_8hxx.html" target="_top" xlink:title=" ">
<polygon fill="none" stroke="#000000" points="954.9941,-65.5 954.9941,-93.5 1056.4141,-93.5 1056.4141,-65.5 954.9941,-65.5"/>
<text text-anchor="start" x="962.9941" y="-81.5" font-family="Helvetica,sans-Serif" font-size="10.00" fill="#000000">MeetingClient/utils</text>
<text text-anchor="middle" x="1005.7041" y="-71.5" font-family="Helvetica,sans-Serif" font-size="10.00" fill="#000000">/strong_identity.hxx</text>
</a>
</g>
</g>
<!-- Node12&#45;&gt;Node15 -->
<g id="edge16" class="edge">
<title>Node12&#45;&gt;Node15</title>
<path fill="none" stroke="#191970" d="M1005.7041,-130.396C1005.7041,-122.6448 1005.7041,-112.8122 1005.7041,-103.8601"/>
<polygon fill="#191970" stroke="#191970" points="1009.2042,-103.5765 1005.7041,-93.5765 1002.2042,-103.5765 1009.2042,-103.5765"/>
</g>
<!-- Node13&#45;&gt;Node3 -->
<g id="edge14" class="edge">
<title>Node13&#45;&gt;Node3</title>
<path fill="none" stroke="#191970" d="M401.1754,-65.396C386.4817,-54.7838 366.3855,-40.2699 351.4127,-29.4562"/>
<polygon fill="#191970" stroke="#191970" points="353.4246,-26.5919 343.2685,-23.5743 349.3261,-32.2666 353.4246,-26.5919"/>
</g>
<!-- Node14 -->
<g id="node15" class="node">
<title>Node14</title>
<g id="a_node15"><a xlink:title=" ">
<polygon fill="none" stroke="#bfbfbf" points="369.9087,-5.5 369.9087,-23.5 471.4995,-23.5 471.4995,-5.5 369.9087,-5.5"/>
<text text-anchor="middle" x="420.7041" y="-11.5" font-family="Helvetica,sans-Serif" font-size="10.00" fill="#000000">CommonTypes.hxx</text>
</a>
</g>
</g>
<!-- Node13&#45;&gt;Node14 -->
<g id="edge15" class="edge">
<title>Node13&#45;&gt;Node14</title>
<path fill="none" stroke="#191970" d="M420.7041,-65.396C420.7041,-56.1723 420.7041,-44.0011 420.7041,-33.8738"/>
<polygon fill="#191970" stroke="#191970" points="424.2042,-33.5743 420.7041,-23.5743 417.2042,-33.5743 424.2042,-33.5743"/>
</g>
<!-- Node16 -->
<g id="node17" class="node">
<title>Node16</title>
<g id="a_node17"><a xlink:title=" ">
<polygon fill="none" stroke="#bfbfbf" points="953.5049,-.5 953.5049,-28.5 1057.9033,-28.5 1057.9033,-.5 953.5049,-.5"/>
<text text-anchor="start" x="961.5049" y="-16.5" font-family="Helvetica,sans-Serif" font-size="10.00" fill="#000000">boost/serialization</text>
<text text-anchor="middle" x="1005.7041" y="-6.5" font-family="Helvetica,sans-Serif" font-size="10.00" fill="#000000">/strong_typedef.hpp</text>
</a>
</g>
</g>
<!-- Node15&#45;&gt;Node16 -->
<g id="edge17" class="edge">
<title>Node15&#45;&gt;Node16</title>
<path fill="none" stroke="#191970" d="M1005.7041,-65.396C1005.7041,-57.6448 1005.7041,-47.8122 1005.7041,-38.8601"/>
<polygon fill="#191970" stroke="#191970" points="1009.2042,-38.5765 1005.7041,-28.5765 1002.2042,-38.5765 1009.2042,-38.5765"/>
</g>
<!-- Node18&#45;&gt;Node12 -->
<g id="edge20" class="edge">
<title>Node18&#45;&gt;Node12</title>
<path fill="none" stroke="#191970" d="M895.299,-195.396C915.9931,-185.8561 943.5271,-173.1632 965.9211,-162.8397"/>
<polygon fill="#191970" stroke="#191970" points="967.5527,-165.9416 975.1689,-158.5765 964.6221,-159.5845 967.5527,-165.9416"/>
</g>
<!-- Node19 -->
<g id="node20" class="node">
<title>Node19</title>
<g id="a_node20"><a xlink:title=" ">
<polygon fill="none" stroke="#bfbfbf" points="879.1401,-135.5 879.1401,-153.5 936.2681,-153.5 936.2681,-135.5 879.1401,-135.5"/>
<text text-anchor="middle" x="907.7041" y="-141.5" font-family="Helvetica,sans-Serif" font-size="10.00" fill="#000000">algorithm</text>
</a>
</g>
</g>
<!-- Node18&#45;&gt;Node19 -->
<g id="edge21" class="edge">
<title>Node18&#45;&gt;Node19</title>
<path fill="none" stroke="#191970" d="M874.0345,-195.396C880.5299,-185.5773 889.235,-172.4184 896.1665,-161.9406"/>
<polygon fill="#191970" stroke="#191970" points="899.1028,-163.8456 901.7011,-153.5743 893.2646,-159.9834 899.1028,-163.8456"/>
</g>
<!-- Node20 -->
<g id="node21" class="node">
<title>Node20</title>
<g id="a_node21"><a xlink:title=" ">
<polygon fill="none" stroke="#bfbfbf" points="688.8003,-135.5 688.8003,-153.5 762.6079,-153.5 762.6079,-135.5 688.8003,-135.5"/>
<text text-anchor="middle" x="725.7041" y="-141.5" font-family="Helvetica,sans-Serif" font-size="10.00" fill="#000000">Printable.hxx</text>
</a>
</g>
</g>
<!-- Node18&#45;&gt;Node20 -->
<g id="edge22" class="edge">
<title>Node18&#45;&gt;Node20</title>
<path fill="none" stroke="#191970" d="M834.5432,-195.396C810.683,-184.2383 777.5992,-168.7675 754.1863,-157.819"/>
<polygon fill="#191970" stroke="#191970" points="755.6503,-154.6399 745.1092,-153.5743 752.685,-160.9808 755.6503,-154.6399"/>
</g>
<!-- Node21 -->
<g id="node22" class="node">
<title>Node21</title>
<g id="a_node22"><a xlink:title=" ">
<polygon fill="none" stroke="#bfbfbf" points="780.1846,-135.5 780.1846,-153.5 861.2236,-153.5 861.2236,-135.5 780.1846,-135.5"/>
<text text-anchor="middle" x="820.7041" y="-141.5" font-family="Helvetica,sans-Serif" font-size="10.00" fill="#000000">VoIPClient.hxx</text>
</a>
</g>
</g>
<!-- Node18&#45;&gt;Node21 -->
<g id="edge23" class="edge">
<title>Node18&#45;&gt;Node21</title>
<path fill="none" stroke="#191970" d="M855.1568,-195.396C848.5102,-185.5773 839.6027,-172.4184 832.51,-161.9406"/>
<polygon fill="#191970" stroke="#191970" points="835.3508,-159.8934 826.8467,-153.5743 829.554,-163.8174 835.3508,-159.8934"/>
</g>
<!-- Node22&#45;&gt;Node2 -->
<g id="edge27" class="edge">
<title>Node22&#45;&gt;Node2</title>
<path fill="none" stroke="#191970" d="M227.0299,-330.462C219.7334,-320.5813 207.8621,-304.5056 198.7109,-292.1134"/>
<polygon fill="#191970" stroke="#191970" points="201.3884,-289.8473 192.6325,-283.8821 195.7574,-294.0057 201.3884,-289.8473"/>
</g>
</g>
</svg>
        <g id="navigator" transform="translate(0 0)" fill="#404254">
                <rect fill="#f2f5e9" fill-opacity="0.5" stroke="#606060" stroke-width=".5" x="0" y="0" width="60" height="60"/>
                <use id="zoomplus" xlink:href="#zoomPlus" x="17" y="9" onmousedown="handleZoom(evt,'in')"/>
                <use id="zoomminus" xlink:href="#zoomMin" x="42" y="9" onmousedown="handleZoom(evt,'out')"/>
                <use id="reset" xlink:href="#resetDef" x="30" y="36" onmousedown="handleReset()"/>
                <g id="arrowUp" xlink:href="#dirArrow" transform="translate(30 24)" onmousedown="handlePan(0,-1)">
                  <use xlink:href="#rim" fill="#404040">
                        <set attributeName="fill" to="#808080" begin="arrowUp.mouseover" end="arrowUp.mouseout"/>
                  </use>
                  <path fill="none" stroke="white" stroke-width="1.5" d="M0,-3.0v7 M-2.5,-0.5L0,-3.0L2.5,-0.5"/>
                </g>
                <g id="arrowRight" xlink:href="#dirArrow" transform="rotate(90) translate(36 -43)" onmousedown="handlePan(1,0)">
                  <use xlink:href="#rim" fill="#404040">
                        <set attributeName="fill" to="#808080" begin="arrowRight.mouseover" end="arrowRight.mouseout"/>
                  </use>
                  <path fill="none" stroke="white" stroke-width="1.5" d="M0,-3.0v7 M-2.5,-0.5L0,-3.0L2.5,-0.5"/>
                </g>
                <g id="arrowDown" xlink:href="#dirArrow" transform="rotate(180) translate(-30 -48)" onmousedown="handlePan(0,1)">
                  <use xlink:href="#rim" fill="#404040">
                        <set attributeName="fill" to="#808080" begin="arrowDown.mouseover" end="arrowDown.mouseout"/>
                  </use>
                  <path fill="none" stroke="white" stroke-width="1.5" d="M0,-3.0v7 M-2.5,-0.5L0,-3.0L2.5,-0.5"/>
                </g>
                <g id="arrowLeft" xlink:href="#dirArrow" transform="rotate(270) translate(-36 17)" onmousedown="handlePan(-1,0)">
                  <use xlink:href="#rim" fill="#404040">
                        <set attributeName="fill" to="#808080" begin="arrowLeft.mouseover" end="arrowLeft.mouseout"/>
                  </use>
                  <path fill="none" stroke="white" stroke-width="1.5" d="M0,-3.0v7 M-2.5,-0.5L0,-3.0L2.5,-0.5"/>
                </g>
        </g>
        <svg viewBox="0 0 15 15" width="100%" height="30px" preserveAspectRatio="xMaxYMin meet">
         <g id="arrow_out" transform="scale(0.3 0.3)">
          <a xlink:href="_attendees_controller_8hxx__incl_org.svg" target="_base">
           <rect id="button" ry="5" rx="5" y="6" x="6" height="38" width="38"
                fill="#f2f5e9" fill-opacity="0.5" stroke="#606060" stroke-width="1.0"/>
           <path id="arrow"
             d="M 11.500037,31.436501 C 11.940474,20.09759 22.043105,11.32322 32.158766,21.979434 L 37.068811,17.246167 C 37.068811,17.246167 37.088388,32 37.088388,32 L 22.160133,31.978069 C 22.160133,31.978069 26.997745,27.140456 26.997745,27.140456 C 18.528582,18.264221 13.291696,25.230495 11.500037,31.436501 z"
             style="fill:#404040;"/>
          </a>
         </g>
        </svg>
</svg>
