<?xml version="1.0" encoding="UTF-8" standalone="no"?>
<!DOCTYPE svg PUBLIC "-//W3C//DTD SVG 1.1//EN"
 "http://www.w3.org/Graphics/SVG/1.1/DTD/svg11.dtd">
<!-- Generated by graphviz version 2.40.1 (20161225.0304)
 -->
<!-- Title: /Users/oskryp/Projects/freesee&#45;native&#45;client/libs/fcc_sdk/engine/meetingclient/src/webservices/Entities.cxx Pages: 1 -->
<!--zoomable 242 -->
<svg id="main" version="1.1" xmlns="http://www.w3.org/2000/svg" xmlns:xlink="http://www.w3.org/1999/xlink" xml:space="preserve" onload="init(evt)">
<style type="text/css"><![CDATA[
.edge:hover path { stroke: red; }
.edge:hover polygon { stroke: red; fill: red; }
]]></style>
<script type="text/javascript"><![CDATA[
var edges = document.getElementsByTagName('g');
if (edges && edges.length) {
  for (var i=0;i<edges.length;i++) {
    if (edges[i].id.substr(0,4)=='edge') {
      edges[i].setAttribute('class','edge');
    }
  }
}
]]></script>
        <defs>
                <circle id="rim" cx="0" cy="0" r="7"/>
                <circle id="rim2" cx="0" cy="0" r="3.5"/>
                <g id="zoomPlus">
                        <use xlink:href="#rim" fill="#404040">
                                <set attributeName="fill" to="#808080" begin="zoomplus.mouseover" end="zoomplus.mouseout"/>
                        </use>
                        <path d="M-4,0h8M0,-4v8" fill="none" stroke="white" stroke-width="1.5" pointer-events="none"/>
                </g>
                <g id="zoomMin">
                        <use xlink:href="#rim" fill="#404040">
                                <set attributeName="fill" to="#808080" begin="zoomminus.mouseover" end="zoomminus.mouseout"/>
                        </use>
                        <path d="M-4,0h8" fill="none" stroke="white" stroke-width="1.5" pointer-events="none"/>
                </g>
                <g id="dirArrow">
                        <path fill="none" stroke="white" stroke-width="1.5" d="M0,-3.0v7 M-2.5,-0.5L0,-3.0L2.5,-0.5"/>
                </g>
               <g id="resetDef">
                       <use xlink:href="#rim2" fill="#404040">
                               <set attributeName="fill" to="#808080" begin="reset.mouseover" end="reset.mouseout"/>
                       </use>
               </g>
        </defs>

<script type="text/javascript">
var viewWidth = 600;
var viewHeight = 242;
var sectionId = 'dynsection-0';
</script>
<script xlink:href="svgpan.js"/>
<svg id="graph" class="graph">
<g id="viewport">
<title>/Users/oskryp/Projects/freesee&#45;native&#45;client/libs/fcc_sdk/engine/meetingclient/src/webservices/Entities.cxx</title>
<!-- Node0 -->
<g id="node1" class="node">
<title>Node0</title>
<g id="a_node1"><a xlink:title=" ">
<polygon fill="#bfbfbf" stroke="#000000" points="335.7417,-185.5 335.7417,-233.5 500.7114,-233.5 500.7114,-185.5 335.7417,-185.5"/>
<text text-anchor="start" x="343.7417" y="-221.5" font-family="Helvetica,sans-Serif" font-size="10.00" fill="#000000">/Users/oskryp/Projects</text>
<text text-anchor="start" x="343.7417" y="-211.5" font-family="Helvetica,sans-Serif" font-size="10.00" fill="#000000">/freesee&#45;native&#45;client</text>
<text text-anchor="start" x="343.7417" y="-201.5" font-family="Helvetica,sans-Serif" font-size="10.00" fill="#000000">/libs/fcc_sdk/engine/meetingclient</text>
<text text-anchor="middle" x="418.2266" y="-191.5" font-family="Helvetica,sans-Serif" font-size="10.00" fill="#000000">/src/webservices/Entities.cxx</text>
</a>
</g>
</g>
<!-- Node1 -->
<g id="node2" class="node">
<title>Node1</title>
<g id="a_node2"><a xlink:href="json__entities_8hxx.html" target="_top" xlink:title=" ">
<polygon fill="none" stroke="#000000" points="220.7563,-120.5 220.7563,-148.5 355.6968,-148.5 355.6968,-120.5 220.7563,-120.5"/>
<text text-anchor="start" x="228.7563" y="-136.5" font-family="Helvetica,sans-Serif" font-size="10.00" fill="#000000">MeetingClient/webservices</text>
<text text-anchor="middle" x="288.2266" y="-126.5" font-family="Helvetica,sans-Serif" font-size="10.00" fill="#000000">/json_entities.hxx</text>
</a>
</g>
</g>
<!-- Node0&#45;&gt;Node1 -->
<g id="edge1" class="edge">
<title>Node0&#45;&gt;Node1</title>
<path fill="none" stroke="#191970" d="M376.3782,-185.3567C358.592,-175.0955 338.1456,-163.2994 321.4248,-153.6529"/>
<polygon fill="#191970" stroke="#191970" points="322.9703,-150.5038 312.5594,-148.5382 319.4722,-156.5671 322.9703,-150.5038"/>
</g>
<!-- Node10 -->
<g id="node11" class="node">
<title>Node10</title>
<g id="a_node11"><a xlink:title=" ">
<polygon fill="none" stroke="#bfbfbf" points="373.5542,-125.5 373.5542,-143.5 462.8989,-143.5 462.8989,-125.5 373.5542,-125.5"/>
<text text-anchor="middle" x="418.2266" y="-131.5" font-family="Helvetica,sans-Serif" font-size="10.00" fill="#000000">NCrypt/MD5.hxx</text>
</a>
</g>
</g>
<!-- Node0&#45;&gt;Node10 -->
<g id="edge10" class="edge">
<title>Node0&#45;&gt;Node10</title>
<path fill="none" stroke="#191970" d="M418.2266,-185.3567C418.2266,-175.1383 418.2266,-163.3979 418.2266,-153.7737"/>
<polygon fill="#191970" stroke="#191970" points="421.7267,-153.6659 418.2266,-143.666 414.7267,-153.666 421.7267,-153.6659"/>
</g>
<!-- Node11 -->
<g id="node12" class="node">
<title>Node11</title>
<g id="a_node12"><a xlink:title=" ">
<polygon fill="none" stroke="#bfbfbf" points="480.4263,-120.5 480.4263,-148.5 592.0269,-148.5 592.0269,-120.5 480.4263,-120.5"/>
<text text-anchor="start" x="488.4263" y="-136.5" font-family="Helvetica,sans-Serif" font-size="10.00" fill="#000000">boost/algorithm/string</text>
<text text-anchor="middle" x="536.2266" y="-126.5" font-family="Helvetica,sans-Serif" font-size="10.00" fill="#000000">/join.hpp</text>
</a>
</g>
</g>
<!-- Node0&#45;&gt;Node11 -->
<g id="edge11" class="edge">
<title>Node0&#45;&gt;Node11</title>
<path fill="none" stroke="#191970" d="M456.212,-185.3567C472.2069,-175.1905 490.572,-163.5177 505.6703,-153.9214"/>
<polygon fill="#191970" stroke="#191970" points="507.5777,-156.8562 514.1398,-148.5382 503.8228,-150.9485 507.5777,-156.8562"/>
</g>
<!-- Node2 -->
<g id="node3" class="node">
<title>Node2</title>
<g id="a_node3"><a xlink:href="_common_data_types_8hxx.html" target="_top" xlink:title=" ">
<polygon fill="none" stroke="#000000" points="46.4805,-55.5 46.4805,-83.5 171.9727,-83.5 171.9727,-55.5 46.4805,-55.5"/>
<text text-anchor="start" x="54.4805" y="-71.5" font-family="Helvetica,sans-Serif" font-size="10.00" fill="#000000">MeetingClient/types</text>
<text text-anchor="middle" x="109.2266" y="-61.5" font-family="Helvetica,sans-Serif" font-size="10.00" fill="#000000">/CommonDataTypes.hxx</text>
</a>
</g>
</g>
<!-- Node1&#45;&gt;Node2 -->
<g id="edge2" class="edge">
<title>Node1&#45;&gt;Node2</title>
<path fill="none" stroke="#191970" d="M249.3862,-120.396C222.4113,-110.6006 186.2817,-97.4809 157.4611,-87.0153"/>
<polygon fill="#191970" stroke="#191970" points="158.5852,-83.7 147.9911,-83.5765 156.1959,-90.2796 158.5852,-83.7"/>
</g>
<!-- Node5 -->
<g id="node6" class="node">
<title>Node5</title>
<g id="a_node6"><a xlink:href="_entities_8hxx.html" target="_top" xlink:title=" ">
<polygon fill="none" stroke="#000000" points="220.7563,-55.5 220.7563,-83.5 355.6968,-83.5 355.6968,-55.5 220.7563,-55.5"/>
<text text-anchor="start" x="228.7563" y="-71.5" font-family="Helvetica,sans-Serif" font-size="10.00" fill="#000000">MeetingClient/webservices</text>
<text text-anchor="middle" x="288.2266" y="-61.5" font-family="Helvetica,sans-Serif" font-size="10.00" fill="#000000">/Entities.hxx</text>
</a>
</g>
</g>
<!-- Node1&#45;&gt;Node5 -->
<g id="edge5" class="edge">
<title>Node1&#45;&gt;Node5</title>
<path fill="none" stroke="#191970" d="M288.2266,-120.396C288.2266,-112.6448 288.2266,-102.8122 288.2266,-93.8601"/>
<polygon fill="#191970" stroke="#191970" points="291.7267,-93.5765 288.2266,-83.5765 284.7267,-93.5765 291.7267,-93.5765"/>
</g>
<!-- Node9 -->
<g id="node10" class="node">
<title>Node9</title>
<g id="a_node10"><a xlink:title=" ">
<polygon fill="none" stroke="#bfbfbf" points="373.4189,-60.5 373.4189,-78.5 485.0342,-78.5 485.0342,-60.5 373.4189,-60.5"/>
<text text-anchor="middle" x="429.2266" y="-66.5" font-family="Helvetica,sans-Serif" font-size="10.00" fill="#000000">rapidjson/document.h</text>
</a>
</g>
</g>
<!-- Node1&#45;&gt;Node9 -->
<g id="edge9" class="edge">
<title>Node1&#45;&gt;Node9</title>
<path fill="none" stroke="#191970" d="M318.8215,-120.396C343.0249,-109.2383 376.5848,-93.7675 400.3345,-82.819"/>
<polygon fill="#191970" stroke="#191970" points="401.9261,-85.9394 409.5423,-78.5743 398.9955,-79.5823 401.9261,-85.9394"/>
</g>
<!-- Node3 -->
<g id="node4" class="node">
<title>Node3</title>
<g id="a_node4"><a xlink:title=" ">
<polygon fill="none" stroke="#bfbfbf" points="0,-.5 0,-18.5 40.4531,-18.5 40.4531,-.5 0,-.5"/>
<text text-anchor="middle" x="20.2266" y="-6.5" font-family="Helvetica,sans-Serif" font-size="10.00" fill="#000000">string</text>
</a>
</g>
</g>
<!-- Node2&#45;&gt;Node3 -->
<g id="edge3" class="edge">
<title>Node2&#45;&gt;Node3</title>
<path fill="none" stroke="#191970" d="M88.1348,-55.2808C74.3041,-45.9568 56.256,-33.7895 42.2427,-24.3423"/>
<polygon fill="#191970" stroke="#191970" points="43.9497,-21.272 33.7014,-18.5842 40.0367,-27.0763 43.9497,-21.272"/>
</g>
<!-- Node4 -->
<g id="node5" class="node">
<title>Node4</title>
<g id="a_node5"><a xlink:title=" ">
<polygon fill="none" stroke="#bfbfbf" points="58.4312,-.5 58.4312,-18.5 160.022,-18.5 160.022,-.5 58.4312,-.5"/>
<text text-anchor="middle" x="109.2266" y="-6.5" font-family="Helvetica,sans-Serif" font-size="10.00" fill="#000000">CommonTypes.hxx</text>
</a>
</g>
</g>
<!-- Node2&#45;&gt;Node4 -->
<g id="edge4" class="edge">
<title>Node2&#45;&gt;Node4</title>
<path fill="none" stroke="#191970" d="M109.2266,-55.2808C109.2266,-47.3776 109.2266,-37.4316 109.2266,-28.8308"/>
<polygon fill="#191970" stroke="#191970" points="112.7267,-28.5842 109.2266,-18.5842 105.7267,-28.5842 112.7267,-28.5842"/>
</g>
<!-- Node6 -->
<g id="node7" class="node">
<title>Node6</title>
<g id="a_node7"><a xlink:title=" ">
<polygon fill="none" stroke="#bfbfbf" points="178.3228,-.5 178.3228,-18.5 252.1304,-18.5 252.1304,-.5 178.3228,-.5"/>
<text text-anchor="middle" x="215.2266" y="-6.5" font-family="Helvetica,sans-Serif" font-size="10.00" fill="#000000">Printable.hxx</text>
</a>
</g>
</g>
<!-- Node5&#45;&gt;Node6 -->
<g id="edge6" class="edge">
<title>Node5&#45;&gt;Node6</title>
<path fill="none" stroke="#191970" d="M270.9266,-55.2808C259.9064,-46.2232 245.6219,-34.4825 234.2779,-25.1586"/>
<polygon fill="#191970" stroke="#191970" points="236.2268,-22.23 226.279,-18.5842 231.782,-27.6378 236.2268,-22.23"/>
</g>
<!-- Node7 -->
<g id="node8" class="node">
<title>Node7</title>
<g id="a_node8"><a xlink:title=" ">
<polygon fill="none" stroke="#bfbfbf" points="270.3623,-.5 270.3623,-18.5 368.0908,-18.5 368.0908,-.5 270.3623,-.5"/>
<text text-anchor="middle" x="319.2266" y="-6.5" font-family="Helvetica,sans-Serif" font-size="10.00" fill="#000000">boost/function.hpp</text>
</a>
</g>
</g>
<!-- Node5&#45;&gt;Node7 -->
<g id="edge7" class="edge">
<title>Node5&#45;&gt;Node7</title>
<path fill="none" stroke="#191970" d="M295.5731,-55.2808C299.84,-47.0224 305.2593,-36.5335 309.8337,-27.6796"/>
<polygon fill="#191970" stroke="#191970" points="313.0523,-29.075 314.5331,-18.5842 306.8333,-25.8619 313.0523,-29.075"/>
</g>
<!-- Node8 -->
<g id="node9" class="node">
<title>Node8</title>
<g id="a_node9"><a xlink:title=" ">
<polygon fill="none" stroke="#bfbfbf" points="386.2441,-.5 386.2441,-18.5 496.209,-18.5 496.209,-.5 386.2441,-.5"/>
<text text-anchor="middle" x="441.2266" y="-6.5" font-family="Helvetica,sans-Serif" font-size="10.00" fill="#000000">boost/shared_ptr.hpp</text>
</a>
</g>
</g>
<!-- Node5&#45;&gt;Node8 -->
<g id="edge8" class="edge">
<title>Node5&#45;&gt;Node8</title>
<path fill="none" stroke="#191970" d="M324.0983,-55.4327C349.6738,-45.4031 383.7841,-32.0265 408.5951,-22.2966"/>
<polygon fill="#191970" stroke="#191970" points="409.9104,-25.5404 417.9424,-18.6311 407.3548,-19.0236 409.9104,-25.5404"/>
</g>
</g>
</svg>
        <g id="navigator" transform="translate(0 0)" fill="#404254">
                <rect fill="#f2f5e9" fill-opacity="0.5" stroke="#606060" stroke-width=".5" x="0" y="0" width="60" height="60"/>
                <use id="zoomplus" xlink:href="#zoomPlus" x="17" y="9" onmousedown="handleZoom(evt,'in')"/>
                <use id="zoomminus" xlink:href="#zoomMin" x="42" y="9" onmousedown="handleZoom(evt,'out')"/>
                <use id="reset" xlink:href="#resetDef" x="30" y="36" onmousedown="handleReset()"/>
                <g id="arrowUp" xlink:href="#dirArrow" transform="translate(30 24)" onmousedown="handlePan(0,-1)">
                  <use xlink:href="#rim" fill="#404040">
                        <set attributeName="fill" to="#808080" begin="arrowUp.mouseover" end="arrowUp.mouseout"/>
                  </use>
                  <path fill="none" stroke="white" stroke-width="1.5" d="M0,-3.0v7 M-2.5,-0.5L0,-3.0L2.5,-0.5"/>
                </g>
                <g id="arrowRight" xlink:href="#dirArrow" transform="rotate(90) translate(36 -43)" onmousedown="handlePan(1,0)">
                  <use xlink:href="#rim" fill="#404040">
                        <set attributeName="fill" to="#808080" begin="arrowRight.mouseover" end="arrowRight.mouseout"/>
                  </use>
                  <path fill="none" stroke="white" stroke-width="1.5" d="M0,-3.0v7 M-2.5,-0.5L0,-3.0L2.5,-0.5"/>
                </g>
                <g id="arrowDown" xlink:href="#dirArrow" transform="rotate(180) translate(-30 -48)" onmousedown="handlePan(0,1)">
                  <use xlink:href="#rim" fill="#404040">
                        <set attributeName="fill" to="#808080" begin="arrowDown.mouseover" end="arrowDown.mouseout"/>
                  </use>
                  <path fill="none" stroke="white" stroke-width="1.5" d="M0,-3.0v7 M-2.5,-0.5L0,-3.0L2.5,-0.5"/>
                </g>
                <g id="arrowLeft" xlink:href="#dirArrow" transform="rotate(270) translate(-36 17)" onmousedown="handlePan(-1,0)">
                  <use xlink:href="#rim" fill="#404040">
                        <set attributeName="fill" to="#808080" begin="arrowLeft.mouseover" end="arrowLeft.mouseout"/>
                  </use>
                  <path fill="none" stroke="white" stroke-width="1.5" d="M0,-3.0v7 M-2.5,-0.5L0,-3.0L2.5,-0.5"/>
                </g>
        </g>
        <svg viewBox="0 0 15 15" width="100%" height="30px" preserveAspectRatio="xMaxYMin meet">
         <g id="arrow_out" transform="scale(0.3 0.3)">
          <a xlink:href="_entities_8cxx__incl_org.svg" target="_base">
           <rect id="button" ry="5" rx="5" y="6" x="6" height="38" width="38"
                fill="#f2f5e9" fill-opacity="0.5" stroke="#606060" stroke-width="1.0"/>
           <path id="arrow"
             d="M 11.500037,31.436501 C 11.940474,20.09759 22.043105,11.32322 32.158766,21.979434 L 37.068811,17.246167 C 37.068811,17.246167 37.088388,32 37.088388,32 L 22.160133,31.978069 C 22.160133,31.978069 26.997745,27.140456 26.997745,27.140456 C 18.528582,18.264221 13.291696,25.230495 11.500037,31.436501 z"
             style="fill:#404040;"/>
          </a>
         </g>
        </svg>
</svg>
