<?xml version="1.0" encoding="UTF-8" standalone="no"?>
<!DOCTYPE svg PUBLIC "-//W3C//DTD SVG 1.1//EN"
 "http://www.w3.org/Graphics/SVG/1.1/DTD/svg11.dtd">
<!-- Generated by graphviz version 2.40.1 (20161225.0304)
 -->
<!-- Title: /Users/oskryp/Projects/freesee&#45;native&#45;client/libs/fcc_sdk/engine/meetingclient/include/MeetingClient/transport/FSPacket.hxx Pages: 1 -->
<svg width="322pt" height="122pt"
 viewBox="0.00 0.00 321.72 122.00" xmlns="http://www.w3.org/2000/svg" xmlns:xlink="http://www.w3.org/1999/xlink">
<g id="graph0" class="graph" transform="scale(1 1) rotate(0) translate(4 118)">
<title>/Users/oskryp/Projects/freesee&#45;native&#45;client/libs/fcc_sdk/engine/meetingclient/include/MeetingClient/transport/FSPacket.hxx</title>
<!-- Node0 -->
<g id="node1" class="node">
<title>Node0</title>
<g id="a_node1"><a xlink:title=" ">
<polygon fill="#bfbfbf" stroke="#000000" points="34.1309,-55.5 34.1309,-113.5 199.1006,-113.5 199.1006,-55.5 34.1309,-55.5"/>
<text text-anchor="start" x="42.1309" y="-101.5" font-family="Helvetica,sans-Serif" font-size="10.00" fill="#000000">/Users/oskryp/Projects</text>
<text text-anchor="start" x="42.1309" y="-91.5" font-family="Helvetica,sans-Serif" font-size="10.00" fill="#000000">/freesee&#45;native&#45;client</text>
<text text-anchor="start" x="42.1309" y="-81.5" font-family="Helvetica,sans-Serif" font-size="10.00" fill="#000000">/libs/fcc_sdk/engine/meetingclient</text>
<text text-anchor="start" x="42.1309" y="-71.5" font-family="Helvetica,sans-Serif" font-size="10.00" fill="#000000">/include/MeetingClient/transport</text>
<text text-anchor="middle" x="116.6157" y="-61.5" font-family="Helvetica,sans-Serif" font-size="10.00" fill="#000000">/FSPacket.hxx</text>
</a>
</g>
</g>
<!-- Node1 -->
<g id="node2" class="node">
<title>Node1</title>
<g id="a_node2"><a xlink:title=" ">
<polygon fill="none" stroke="#bfbfbf" points="0,-.5 0,-18.5 43.2314,-18.5 43.2314,-.5 0,-.5"/>
<text text-anchor="middle" x="21.6157" y="-6.5" font-family="Helvetica,sans-Serif" font-size="10.00" fill="#000000">vector</text>
</a>
</g>
</g>
<!-- Node0&#45;&gt;Node1 -->
<g id="edge1" class="edge">
<title>Node0&#45;&gt;Node1</title>
<path fill="none" stroke="#191970" d="M79.6142,-55.2883C66.6238,-45.0327 52.5306,-33.9065 41.4897,-25.19"/>
<polygon fill="#191970" stroke="#191970" points="43.3864,-22.2281 33.3688,-18.7788 39.0489,-27.7223 43.3864,-22.2281"/>
</g>
<!-- Node2 -->
<g id="node3" class="node">
<title>Node2</title>
<g id="a_node3"><a xlink:title=" ">
<polygon fill="none" stroke="#bfbfbf" points="61.6333,-.5 61.6333,-18.5 171.5981,-18.5 171.5981,-.5 61.6333,-.5"/>
<text text-anchor="middle" x="116.6157" y="-6.5" font-family="Helvetica,sans-Serif" font-size="10.00" fill="#000000">boost/shared_ptr.hpp</text>
</a>
</g>
</g>
<!-- Node0&#45;&gt;Node2 -->
<g id="edge2" class="edge">
<title>Node0&#45;&gt;Node2</title>
<path fill="none" stroke="#191970" d="M116.6157,-55.2883C116.6157,-46.4543 116.6157,-36.9743 116.6157,-28.9448"/>
<polygon fill="#191970" stroke="#191970" points="120.1158,-28.7787 116.6157,-18.7788 113.1158,-28.7788 120.1158,-28.7787"/>
</g>
<!-- Node3 -->
<g id="node4" class="node">
<title>Node3</title>
<g id="a_node4"><a xlink:href="_buffer_8hxx.html" target="_top" xlink:title=" ">
<polygon fill="none" stroke="#000000" points="189.5068,-.5 189.5068,-18.5 313.7246,-18.5 313.7246,-.5 189.5068,-.5"/>
<text text-anchor="middle" x="251.6157" y="-6.5" font-family="Helvetica,sans-Serif" font-size="10.00" fill="#000000">MeetingClient/Buffer.hxx</text>
</a>
</g>
</g>
<!-- Node0&#45;&gt;Node3 -->
<g id="edge3" class="edge">
<title>Node0&#45;&gt;Node3</title>
<path fill="none" stroke="#191970" d="M169.1968,-55.2883C188.8773,-44.3547 210.3389,-32.4316 226.427,-23.4937"/>
<polygon fill="#191970" stroke="#191970" points="228.1826,-26.5223 235.2244,-18.6063 224.783,-20.4032 228.1826,-26.5223"/>
</g>
</g>
</svg>
