<?xml version="1.0" encoding="UTF-8" standalone="no"?>
<!DOCTYPE svg PUBLIC "-//W3C//DTD SVG 1.1//EN"
 "http://www.w3.org/Graphics/SVG/1.1/DTD/svg11.dtd">
<!-- Generated by graphviz version 2.40.1 (20161225.0304)
 -->
<!-- Title: /Users/oskryp/Projects/freesee&#45;native&#45;client/libs/fcc_sdk/engine/meetingclient/src/transport/FSPacket.cxx Pages: 1 -->
<svg width="364pt" height="167pt"
 viewBox="0.00 0.00 364.08 167.00" xmlns="http://www.w3.org/2000/svg" xmlns:xlink="http://www.w3.org/1999/xlink">
<g id="graph0" class="graph" transform="scale(1 1) rotate(0) translate(4 163)">
<title>/Users/oskryp/Projects/freesee&#45;native&#45;client/libs/fcc_sdk/engine/meetingclient/src/transport/FSPacket.cxx</title>
<!-- Node0 -->
<g id="node1" class="node">
<title>Node0</title>
<g id="a_node1"><a xlink:title=" ">
<polygon fill="#bfbfbf" stroke="#000000" points="151.1309,-110.5 151.1309,-158.5 316.1006,-158.5 316.1006,-110.5 151.1309,-110.5"/>
<text text-anchor="start" x="159.1309" y="-146.5" font-family="Helvetica,sans-Serif" font-size="10.00" fill="#000000">/Users/oskryp/Projects</text>
<text text-anchor="start" x="159.1309" y="-136.5" font-family="Helvetica,sans-Serif" font-size="10.00" fill="#000000">/freesee&#45;native&#45;client</text>
<text text-anchor="start" x="159.1309" y="-126.5" font-family="Helvetica,sans-Serif" font-size="10.00" fill="#000000">/libs/fcc_sdk/engine/meetingclient</text>
<text text-anchor="middle" x="233.6157" y="-116.5" font-family="Helvetica,sans-Serif" font-size="10.00" fill="#000000">/src/transport/FSPacket.cxx</text>
</a>
</g>
</g>
<!-- Node1 -->
<g id="node2" class="node">
<title>Node1</title>
<g id="a_node2"><a xlink:href="_f_s_packet_8hxx.html" target="_top" xlink:title=" ">
<polygon fill="none" stroke="#000000" points="56.6504,-55.5 56.6504,-73.5 176.5811,-73.5 176.5811,-55.5 56.6504,-55.5"/>
<text text-anchor="middle" x="116.6157" y="-61.5" font-family="Helvetica,sans-Serif" font-size="10.00" fill="#000000">transport/FSPacket.hxx</text>
</a>
</g>
</g>
<!-- Node0&#45;&gt;Node1 -->
<g id="edge1" class="edge">
<title>Node0&#45;&gt;Node1</title>
<path fill="none" stroke="#191970" d="M193.351,-110.41C175.7246,-99.8643 155.6442,-87.8504 140.447,-78.758"/>
<polygon fill="#191970" stroke="#191970" points="142.0596,-75.6443 131.6812,-73.5136 138.4657,-81.6513 142.0596,-75.6443"/>
</g>
<!-- Node5 -->
<g id="node6" class="node">
<title>Node5</title>
<g id="a_node6"><a xlink:title=" ">
<polygon fill="none" stroke="#bfbfbf" points="194.4878,-55.5 194.4878,-73.5 272.7437,-73.5 272.7437,-55.5 194.4878,-55.5"/>
<text text-anchor="middle" x="233.6157" y="-61.5" font-family="Helvetica,sans-Serif" font-size="10.00" fill="#000000">Exception.hxx</text>
</a>
</g>
</g>
<!-- Node0&#45;&gt;Node5 -->
<g id="edge5" class="edge">
<title>Node0&#45;&gt;Node5</title>
<path fill="none" stroke="#191970" d="M233.6157,-110.41C233.6157,-101.7094 233.6157,-92.0095 233.6157,-83.7754"/>
<polygon fill="#191970" stroke="#191970" points="237.1158,-83.6872 233.6157,-73.6872 230.1158,-83.6873 237.1158,-83.6872"/>
</g>
<!-- Node6 -->
<g id="node7" class="node">
<title>Node6</title>
<g id="a_node7"><a xlink:title=" ">
<polygon fill="none" stroke="#bfbfbf" points="291.1504,-55.5 291.1504,-73.5 356.0811,-73.5 356.0811,-55.5 291.1504,-55.5"/>
<text text-anchor="middle" x="323.6157" y="-61.5" font-family="Helvetica,sans-Serif" font-size="10.00" fill="#000000">Logger.hxx</text>
</a>
</g>
</g>
<!-- Node0&#45;&gt;Node6 -->
<g id="edge6" class="edge">
<title>Node0&#45;&gt;Node6</title>
<path fill="none" stroke="#191970" d="M264.5886,-110.41C277.5547,-100.3253 292.247,-88.8979 303.7299,-79.9668"/>
<polygon fill="#191970" stroke="#191970" points="306.0588,-82.5894 311.8036,-73.6872 301.7612,-77.0639 306.0588,-82.5894"/>
</g>
<!-- Node2 -->
<g id="node3" class="node">
<title>Node2</title>
<g id="a_node3"><a xlink:title=" ">
<polygon fill="none" stroke="#bfbfbf" points="0,-.5 0,-18.5 43.2314,-18.5 43.2314,-.5 0,-.5"/>
<text text-anchor="middle" x="21.6157" y="-6.5" font-family="Helvetica,sans-Serif" font-size="10.00" fill="#000000">vector</text>
</a>
</g>
</g>
<!-- Node1&#45;&gt;Node2 -->
<g id="edge2" class="edge">
<title>Node1&#45;&gt;Node2</title>
<path fill="none" stroke="#191970" d="M100.9284,-55.4179C86.0767,-46.8195 63.5459,-33.7754 46.2888,-23.7844"/>
<polygon fill="#191970" stroke="#191970" points="47.7343,-20.577 37.3263,-18.5956 44.227,-26.635 47.7343,-20.577"/>
</g>
<!-- Node3 -->
<g id="node4" class="node">
<title>Node3</title>
<g id="a_node4"><a xlink:title=" ">
<polygon fill="none" stroke="#bfbfbf" points="61.6333,-.5 61.6333,-18.5 171.5981,-18.5 171.5981,-.5 61.6333,-.5"/>
<text text-anchor="middle" x="116.6157" y="-6.5" font-family="Helvetica,sans-Serif" font-size="10.00" fill="#000000">boost/shared_ptr.hpp</text>
</a>
</g>
</g>
<!-- Node1&#45;&gt;Node3 -->
<g id="edge3" class="edge">
<title>Node1&#45;&gt;Node3</title>
<path fill="none" stroke="#191970" d="M116.6157,-55.4179C116.6157,-48.2164 116.6157,-37.8962 116.6157,-28.8632"/>
<polygon fill="#191970" stroke="#191970" points="120.1158,-28.7794 116.6157,-18.7795 113.1158,-28.7795 120.1158,-28.7794"/>
</g>
<!-- Node4 -->
<g id="node5" class="node">
<title>Node4</title>
<g id="a_node5"><a xlink:href="_buffer_8hxx.html" target="_top" xlink:title=" ">
<polygon fill="none" stroke="#000000" points="189.5068,-.5 189.5068,-18.5 313.7246,-18.5 313.7246,-.5 189.5068,-.5"/>
<text text-anchor="middle" x="251.6157" y="-6.5" font-family="Helvetica,sans-Serif" font-size="10.00" fill="#000000">MeetingClient/Buffer.hxx</text>
</a>
</g>
</g>
<!-- Node1&#45;&gt;Node4 -->
<g id="edge4" class="edge">
<title>Node1&#45;&gt;Node4</title>
<path fill="none" stroke="#191970" d="M138.9082,-55.4179C160.9903,-46.4215 195.0187,-32.5581 219.91,-22.4172"/>
<polygon fill="#191970" stroke="#191970" points="221.3497,-25.61 229.2901,-18.5956 218.7086,-19.1273 221.3497,-25.61"/>
</g>
</g>
</svg>
