<?xml version="1.0" encoding="UTF-8" standalone="no"?>
<!DOCTYPE svg PUBLIC "-//W3C//DTD SVG 1.1//EN"
 "http://www.w3.org/Graphics/SVG/1.1/DTD/svg11.dtd">
<!-- Generated by graphviz version 2.40.1 (20161225.0304)
 -->
<!-- Title: /Users/oskryp/Projects/freesee&#45;native&#45;client/libs/fcc_sdk/engine/meetingclient/src/HTTPRequest.cxx Pages: 1 -->
<!--zoomable 232 -->
<svg id="main" version="1.1" xmlns="http://www.w3.org/2000/svg" xmlns:xlink="http://www.w3.org/1999/xlink" xml:space="preserve" onload="init(evt)">
<style type="text/css"><![CDATA[
.edge:hover path { stroke: red; }
.edge:hover polygon { stroke: red; fill: red; }
]]></style>
<script type="text/javascript"><![CDATA[
var edges = document.getElementsByTagName('g');
if (edges && edges.length) {
  for (var i=0;i<edges.length;i++) {
    if (edges[i].id.substr(0,4)=='edge') {
      edges[i].setAttribute('class','edge');
    }
  }
}
]]></script>
        <defs>
                <circle id="rim" cx="0" cy="0" r="7"/>
                <circle id="rim2" cx="0" cy="0" r="3.5"/>
                <g id="zoomPlus">
                        <use xlink:href="#rim" fill="#404040">
                                <set attributeName="fill" to="#808080" begin="zoomplus.mouseover" end="zoomplus.mouseout"/>
                        </use>
                        <path d="M-4,0h8M0,-4v8" fill="none" stroke="white" stroke-width="1.5" pointer-events="none"/>
                </g>
                <g id="zoomMin">
                        <use xlink:href="#rim" fill="#404040">
                                <set attributeName="fill" to="#808080" begin="zoomminus.mouseover" end="zoomminus.mouseout"/>
                        </use>
                        <path d="M-4,0h8" fill="none" stroke="white" stroke-width="1.5" pointer-events="none"/>
                </g>
                <g id="dirArrow">
                        <path fill="none" stroke="white" stroke-width="1.5" d="M0,-3.0v7 M-2.5,-0.5L0,-3.0L2.5,-0.5"/>
                </g>
               <g id="resetDef">
                       <use xlink:href="#rim2" fill="#404040">
                               <set attributeName="fill" to="#808080" begin="reset.mouseover" end="reset.mouseout"/>
                       </use>
               </g>
        </defs>

<script type="text/javascript">
var viewWidth = 1068;
var viewHeight = 232;
var sectionId = 'dynsection-0';
</script>
<script xlink:href="svgpan.js"/>
<svg id="graph" class="graph">
<g id="viewport">
<title>/Users/oskryp/Projects/freesee&#45;native&#45;client/libs/fcc_sdk/engine/meetingclient/src/HTTPRequest.cxx</title>
<!-- Node0 -->
<g id="node1" class="node">
<title>Node0</title>
<g id="a_node1"><a xlink:title=" ">
<polygon fill="#bfbfbf" stroke="#000000" points="538.3721,-175.5 538.3721,-223.5 703.3418,-223.5 703.3418,-175.5 538.3721,-175.5"/>
<text text-anchor="start" x="546.3721" y="-211.5" font-family="Helvetica,sans-Serif" font-size="10.00" fill="#000000">/Users/oskryp/Projects</text>
<text text-anchor="start" x="546.3721" y="-201.5" font-family="Helvetica,sans-Serif" font-size="10.00" fill="#000000">/freesee&#45;native&#45;client</text>
<text text-anchor="start" x="546.3721" y="-191.5" font-family="Helvetica,sans-Serif" font-size="10.00" fill="#000000">/libs/fcc_sdk/engine/meetingclient</text>
<text text-anchor="middle" x="620.8569" y="-181.5" font-family="Helvetica,sans-Serif" font-size="10.00" fill="#000000">/src/HTTPRequest.cxx</text>
</a>
</g>
</g>
<!-- Node1 -->
<g id="node2" class="node">
<title>Node1</title>
<g id="a_node2"><a xlink:title=" ">
<polygon fill="none" stroke="#bfbfbf" points="201.187,-120.5 201.187,-138.5 250.5269,-138.5 250.5269,-120.5 201.187,-120.5"/>
<text text-anchor="middle" x="225.8569" y="-126.5" font-family="Helvetica,sans-Serif" font-size="10.00" fill="#000000">fstream</text>
</a>
</g>
</g>
<!-- Node0&#45;&gt;Node1 -->
<g id="edge1" class="edge">
<title>Node0&#45;&gt;Node1</title>
<path fill="none" stroke="#191970" d="M538.0217,-188.4163C466.6818,-178.2377 360.8642,-161.6333 260.6367,-139.2239"/>
<polygon fill="#191970" stroke="#191970" points="261.1696,-135.7562 250.6441,-136.9659 259.6267,-142.584 261.1696,-135.7562"/>
</g>
<!-- Node2 -->
<g id="node3" class="node">
<title>Node2</title>
<g id="a_node3"><a xlink:href="_h_t_t_p_request_8hxx.html" target="_top" xlink:title=" ">
<polygon fill="none" stroke="#000000" points="268.0493,-120.5 268.0493,-138.5 429.6646,-138.5 429.6646,-120.5 268.0493,-120.5"/>
<text text-anchor="middle" x="348.8569" y="-126.5" font-family="Helvetica,sans-Serif" font-size="10.00" fill="#000000">MeetingClient/HTTPRequest.hxx</text>
</a>
</g>
</g>
<!-- Node0&#45;&gt;Node2 -->
<g id="edge2" class="edge">
<title>Node0&#45;&gt;Node2</title>
<path fill="none" stroke="#191970" d="M538.1401,-178.2126C490.6925,-166.0018 432.9671,-151.146 393.832,-141.0745"/>
<polygon fill="#191970" stroke="#191970" points="394.6104,-137.6608 384.0536,-138.558 392.8657,-144.4399 394.6104,-137.6608"/>
</g>
<!-- Node14 -->
<g id="node15" class="node">
<title>Node14</title>
<g id="a_node15"><a xlink:title=" ">
<polygon fill="none" stroke="#bfbfbf" points="447.3169,-120.5 447.3169,-138.5 550.397,-138.5 550.397,-120.5 447.3169,-120.5"/>
<text text-anchor="middle" x="498.8569" y="-126.5" font-family="Helvetica,sans-Serif" font-size="10.00" fill="#000000">Auth/AutoHTTP.hxx</text>
</a>
</g>
</g>
<!-- Node0&#45;&gt;Node14 -->
<g id="edge14" class="edge">
<title>Node0&#45;&gt;Node14</title>
<path fill="none" stroke="#191970" d="M578.8715,-175.41C560.3184,-164.7648 539.158,-152.6235 523.2595,-143.5015"/>
<polygon fill="#191970" stroke="#191970" points="524.9818,-140.4545 514.5663,-138.5136 521.4981,-146.5261 524.9818,-140.4545"/>
</g>
<!-- Node15 -->
<g id="node16" class="node">
<title>Node15</title>
<g id="a_node16"><a xlink:title=" ">
<polygon fill="none" stroke="#bfbfbf" points="568.2061,-120.5 568.2061,-138.5 673.5078,-138.5 673.5078,-120.5 568.2061,-120.5"/>
<text text-anchor="middle" x="620.8569" y="-126.5" font-family="Helvetica,sans-Serif" font-size="10.00" fill="#000000">Auth/BaseHTTP.hxx</text>
</a>
</g>
</g>
<!-- Node0&#45;&gt;Node15 -->
<g id="edge15" class="edge">
<title>Node0&#45;&gt;Node15</title>
<path fill="none" stroke="#191970" d="M620.8569,-175.41C620.8569,-166.7094 620.8569,-157.0095 620.8569,-148.7754"/>
<polygon fill="#191970" stroke="#191970" points="624.357,-148.6872 620.8569,-138.6872 617.357,-148.6873 624.357,-148.6872"/>
</g>
<!-- Node16 -->
<g id="node17" class="node">
<title>Node16</title>
<g id="a_node17"><a xlink:title=" ">
<polygon fill="none" stroke="#bfbfbf" points="691.4014,-120.5 691.4014,-138.5 776.3125,-138.5 776.3125,-120.5 691.4014,-120.5"/>
<text text-anchor="middle" x="733.8569" y="-126.5" font-family="Helvetica,sans-Serif" font-size="10.00" fill="#000000">Auth/NTLM.hxx</text>
</a>
</g>
</g>
<!-- Node0&#45;&gt;Node16 -->
<g id="edge16" class="edge">
<title>Node0&#45;&gt;Node16</title>
<path fill="none" stroke="#191970" d="M659.7451,-175.41C676.6083,-164.9638 695.7971,-153.0769 710.4238,-144.0161"/>
<polygon fill="#191970" stroke="#191970" points="712.6486,-146.7551 719.3065,-138.5136 708.9623,-140.8044 712.6486,-146.7551"/>
</g>
<!-- Node17 -->
<g id="node18" class="node">
<title>Node17</title>
<g id="a_node18"><a xlink:title=" ">
<polygon fill="none" stroke="#bfbfbf" points="794.1846,-120.5 794.1846,-138.5 883.5293,-138.5 883.5293,-120.5 794.1846,-120.5"/>
<text text-anchor="middle" x="838.8569" y="-126.5" font-family="Helvetica,sans-Serif" font-size="10.00" fill="#000000">NCrypt/MD5.hxx</text>
</a>
</g>
</g>
<!-- Node0&#45;&gt;Node17 -->
<g id="edge17" class="edge">
<title>Node0&#45;&gt;Node17</title>
<path fill="none" stroke="#191970" d="M695.8802,-175.41C731.356,-164.0186 772.1671,-150.9142 801.0827,-141.6293"/>
<polygon fill="#191970" stroke="#191970" points="802.335,-144.9033 810.7862,-138.5136 800.1949,-138.2385 802.335,-144.9033"/>
</g>
<!-- Node18 -->
<g id="node19" class="node">
<title>Node18</title>
<g id="a_node19"><a xlink:title=" ">
<polygon fill="none" stroke="#bfbfbf" points="901.7192,-120.5 901.7192,-138.5 1059.9946,-138.5 1059.9946,-120.5 901.7192,-120.5"/>
<text text-anchor="middle" x="980.8569" y="-126.5" font-family="Helvetica,sans-Serif" font-size="10.00" fill="#000000">Protocols/HTTP/URLBuilder.hxx</text>
</a>
</g>
</g>
<!-- Node0&#45;&gt;Node18 -->
<g id="edge18" class="edge">
<title>Node0&#45;&gt;Node18</title>
<path fill="none" stroke="#191970" d="M703.4482,-183.4406C771.149,-170.2765 865.1581,-151.997 924.4908,-140.4601"/>
<polygon fill="#191970" stroke="#191970" points="925.2802,-143.8722 934.4283,-138.5278 923.9441,-137.0009 925.2802,-143.8722"/>
</g>
<!-- Node3 -->
<g id="node4" class="node">
<title>Node3</title>
<g id="a_node4"><a xlink:title=" ">
<polygon fill="none" stroke="#bfbfbf" points="0,-60.5 0,-78.5 117.7139,-78.5 117.7139,-60.5 0,-60.5"/>
<text text-anchor="middle" x="58.8569" y="-66.5" font-family="Helvetica,sans-Serif" font-size="10.00" fill="#000000">ASIO/HTTPLoader.hxx</text>
</a>
</g>
</g>
<!-- Node2&#45;&gt;Node3 -->
<g id="edge3" class="edge">
<title>Node2&#45;&gt;Node3</title>
<path fill="none" stroke="#191970" d="M304.188,-120.4532C259.3421,-111.3451 188.2804,-96.8431 126.8569,-84 121.7449,-82.9311 116.4185,-81.8094 111.0962,-80.6831"/>
<polygon fill="#191970" stroke="#191970" points="111.4324,-77.1766 100.9237,-78.5246 109.9794,-84.0242 111.4324,-77.1766"/>
</g>
<!-- Node4 -->
<g id="node5" class="node">
<title>Node4</title>
<g id="a_node5"><a xlink:title=" ">
<polygon fill="none" stroke="#bfbfbf" points="135.3916,-60.5 135.3916,-78.5 200.3223,-78.5 200.3223,-60.5 135.3916,-60.5"/>
<text text-anchor="middle" x="167.8569" y="-66.5" font-family="Helvetica,sans-Serif" font-size="10.00" fill="#000000">Logger.hxx</text>
</a>
</g>
</g>
<!-- Node2&#45;&gt;Node4 -->
<g id="edge4" class="edge">
<title>Node2&#45;&gt;Node4</title>
<path fill="none" stroke="#191970" d="M320.8583,-120.4811C292.7559,-111.3943 248.2448,-96.9085 209.8569,-84 207.9376,-83.3546 205.9703,-82.6891 203.985,-82.0144"/>
<polygon fill="#191970" stroke="#191970" points="204.6425,-78.5403 194.0479,-78.6149 202.3767,-85.1634 204.6425,-78.5403"/>
</g>
<!-- Node5 -->
<g id="node6" class="node">
<title>Node5</title>
<g id="a_node6"><a xlink:href="uri__string_8hxx.html" target="_top" xlink:title=" ">
<polygon fill="none" stroke="#000000" points="218.3867,-55.5 218.3867,-83.5 353.3271,-83.5 353.3271,-55.5 218.3867,-55.5"/>
<text text-anchor="start" x="226.3867" y="-71.5" font-family="Helvetica,sans-Serif" font-size="10.00" fill="#000000">MeetingClient/webservices</text>
<text text-anchor="middle" x="285.8569" y="-61.5" font-family="Helvetica,sans-Serif" font-size="10.00" fill="#000000">/uri_string.hxx</text>
</a>
</g>
</g>
<!-- Node2&#45;&gt;Node5 -->
<g id="edge5" class="edge">
<title>Node2&#45;&gt;Node5</title>
<path fill="none" stroke="#191970" d="M339.2886,-120.3873C331.0897,-112.5788 318.9555,-101.0225 308.3219,-90.8952"/>
<polygon fill="#191970" stroke="#191970" points="310.5772,-88.2097 300.922,-83.8477 305.7496,-93.2787 310.5772,-88.2097"/>
</g>
<!-- Node8 -->
<g id="node9" class="node">
<title>Node8</title>
<g id="a_node9"><a xlink:title=" ">
<polygon fill="none" stroke="#bfbfbf" points="371.3325,-60.5 371.3325,-78.5 452.3813,-78.5 452.3813,-60.5 371.3325,-60.5"/>
<text text-anchor="middle" x="411.8569" y="-66.5" font-family="Helvetica,sans-Serif" font-size="10.00" fill="#000000">boost/asio.hpp</text>
</a>
</g>
</g>
<!-- Node2&#45;&gt;Node8 -->
<g id="edge8" class="edge">
<title>Node2&#45;&gt;Node8</title>
<path fill="none" stroke="#191970" d="M358.4253,-120.3873C368.0462,-111.2245 383.086,-96.9009 394.7612,-85.7817"/>
<polygon fill="#191970" stroke="#191970" points="397.3709,-88.1295 402.1985,-78.6985 392.5433,-83.0606 397.3709,-88.1295"/>
</g>
<!-- Node9 -->
<g id="node10" class="node">
<title>Node9</title>
<g id="a_node10"><a xlink:title=" ">
<polygon fill="none" stroke="#bfbfbf" points="470.7783,-60.5 470.7783,-78.5 562.9355,-78.5 562.9355,-60.5 470.7783,-60.5"/>
<text text-anchor="middle" x="516.8569" y="-66.5" font-family="Helvetica,sans-Serif" font-size="10.00" fill="#000000">boost/atomic.hpp</text>
</a>
</g>
</g>
<!-- Node2&#45;&gt;Node9 -->
<g id="edge9" class="edge">
<title>Node2&#45;&gt;Node9</title>
<path fill="none" stroke="#191970" d="M374.3725,-120.3873C403.155,-110.1078 450.1243,-93.3331 482.2089,-81.8743"/>
<polygon fill="#191970" stroke="#191970" points="483.4115,-85.1614 491.6517,-78.5019 481.0571,-78.5692 483.4115,-85.1614"/>
</g>
<!-- Node10 -->
<g id="node11" class="node">
<title>Node10</title>
<g id="a_node11"><a xlink:href="_s_c_upload_data_8hxx.html" target="_top" xlink:title=" ">
<polygon fill="none" stroke="#000000" points="581.3745,-60.5 581.3745,-78.5 746.3394,-78.5 746.3394,-60.5 581.3745,-60.5"/>
<text text-anchor="middle" x="663.8569" y="-66.5" font-family="Helvetica,sans-Serif" font-size="10.00" fill="#000000">MeetingClient/SCUploadData.hxx</text>
</a>
</g>
</g>
<!-- Node2&#45;&gt;Node10 -->
<g id="edge10" class="edge">
<title>Node2&#45;&gt;Node10</title>
<path fill="none" stroke="#191970" d="M396.3567,-120.4524C452.572,-109.7447 546.1299,-91.9242 606.3783,-80.4483"/>
<polygon fill="#191970" stroke="#191970" points="607.3181,-83.8323 616.4865,-78.5229 606.0082,-76.9559 607.3181,-83.8323"/>
</g>
<!-- Node6 -->
<g id="node7" class="node">
<title>Node6</title>
<g id="a_node7"><a xlink:title=" ">
<polygon fill="none" stroke="#bfbfbf" points="226.0762,-.5 226.0762,-18.5 277.6377,-18.5 277.6377,-.5 226.0762,-.5"/>
<text text-anchor="middle" x="251.8569" y="-6.5" font-family="Helvetica,sans-Serif" font-size="10.00" fill="#000000">sstream</text>
</a>
</g>
</g>
<!-- Node5&#45;&gt;Node6 -->
<g id="edge6" class="edge">
<title>Node5&#45;&gt;Node6</title>
<path fill="none" stroke="#191970" d="M277.7994,-55.2808C273.0693,-46.9336 267.0479,-36.3076 261.9972,-27.3946"/>
<polygon fill="#191970" stroke="#191970" points="264.9799,-25.5589 257.0046,-18.5842 258.8897,-29.01 264.9799,-25.5589"/>
</g>
<!-- Node7 -->
<g id="node8" class="node">
<title>Node7</title>
<g id="a_node8"><a xlink:title=" ">
<polygon fill="none" stroke="#bfbfbf" points="295.3472,-.5 295.3472,-18.5 346.3667,-18.5 346.3667,-.5 295.3472,-.5"/>
<text text-anchor="middle" x="320.8569" y="-6.5" font-family="Helvetica,sans-Serif" font-size="10.00" fill="#000000">iomanip</text>
</a>
</g>
</g>
<!-- Node5&#45;&gt;Node7 -->
<g id="edge7" class="edge">
<title>Node5&#45;&gt;Node7</title>
<path fill="none" stroke="#191970" d="M294.1514,-55.2808C299.0207,-46.9336 305.2191,-36.3076 310.4184,-27.3946"/>
<polygon fill="#191970" stroke="#191970" points="313.5423,-28.9856 315.5578,-18.5842 307.4958,-25.4584 313.5423,-28.9856"/>
</g>
<!-- Node11 -->
<g id="node12" class="node">
<title>Node11</title>
<g id="a_node12"><a xlink:title=" ">
<polygon fill="none" stroke="#bfbfbf" points="518.5977,-.5 518.5977,-18.5 601.1162,-18.5 601.1162,-.5 518.5977,-.5"/>
<text text-anchor="middle" x="559.8569" y="-6.5" font-family="Helvetica,sans-Serif" font-size="10.00" fill="#000000">Utils/Buffer.hxx</text>
</a>
</g>
</g>
<!-- Node10&#45;&gt;Node11 -->
<g id="edge11" class="edge">
<title>Node10&#45;&gt;Node11</title>
<path fill="none" stroke="#191970" d="M648.0616,-60.3873C631.0886,-50.5952 603.8995,-34.9092 584.1909,-23.5388"/>
<polygon fill="#191970" stroke="#191970" points="585.8711,-20.4675 575.4602,-18.5019 582.373,-26.5308 585.8711,-20.4675"/>
</g>
<!-- Node12 -->
<g id="node13" class="node">
<title>Node12</title>
<g id="a_node13"><a xlink:title=" ">
<polygon fill="none" stroke="#bfbfbf" points="619.1797,-.5 619.1797,-18.5 708.5342,-18.5 708.5342,-.5 619.1797,-.5"/>
<text text-anchor="middle" x="663.8569" y="-6.5" font-family="Helvetica,sans-Serif" font-size="10.00" fill="#000000">Utils/EString.hxx</text>
</a>
</g>
</g>
<!-- Node10&#45;&gt;Node12 -->
<g id="edge12" class="edge">
<title>Node10&#45;&gt;Node12</title>
<path fill="none" stroke="#191970" d="M663.8569,-60.3873C663.8569,-52.0174 663.8569,-39.3414 663.8569,-28.735"/>
<polygon fill="#191970" stroke="#191970" points="667.357,-28.6984 663.8569,-18.6985 660.357,-28.6985 667.357,-28.6984"/>
</g>
<!-- Node13 -->
<g id="node14" class="node">
<title>Node13</title>
<g id="a_node14"><a xlink:title=" ">
<polygon fill="none" stroke="#bfbfbf" points="726.1255,-.5 726.1255,-18.5 771.5884,-18.5 771.5884,-.5 726.1255,-.5"/>
<text text-anchor="middle" x="748.8569" y="-6.5" font-family="Helvetica,sans-Serif" font-size="10.00" fill="#000000">stdio.h</text>
</a>
</g>
</g>
<!-- Node10&#45;&gt;Node13 -->
<g id="edge13" class="edge">
<title>Node10&#45;&gt;Node13</title>
<path fill="none" stroke="#191970" d="M676.7666,-60.3873C690.3249,-50.8168 711.8593,-35.6159 727.8661,-24.3171"/>
<polygon fill="#191970" stroke="#191970" points="729.953,-27.1281 736.1043,-18.5019 725.9162,-21.4094 729.953,-27.1281"/>
</g>
</g>
</svg>
        <g id="navigator" transform="translate(0 0)" fill="#404254">
                <rect fill="#f2f5e9" fill-opacity="0.5" stroke="#606060" stroke-width=".5" x="0" y="0" width="60" height="60"/>
                <use id="zoomplus" xlink:href="#zoomPlus" x="17" y="9" onmousedown="handleZoom(evt,'in')"/>
                <use id="zoomminus" xlink:href="#zoomMin" x="42" y="9" onmousedown="handleZoom(evt,'out')"/>
                <use id="reset" xlink:href="#resetDef" x="30" y="36" onmousedown="handleReset()"/>
                <g id="arrowUp" xlink:href="#dirArrow" transform="translate(30 24)" onmousedown="handlePan(0,-1)">
                  <use xlink:href="#rim" fill="#404040">
                        <set attributeName="fill" to="#808080" begin="arrowUp.mouseover" end="arrowUp.mouseout"/>
                  </use>
                  <path fill="none" stroke="white" stroke-width="1.5" d="M0,-3.0v7 M-2.5,-0.5L0,-3.0L2.5,-0.5"/>
                </g>
                <g id="arrowRight" xlink:href="#dirArrow" transform="rotate(90) translate(36 -43)" onmousedown="handlePan(1,0)">
                  <use xlink:href="#rim" fill="#404040">
                        <set attributeName="fill" to="#808080" begin="arrowRight.mouseover" end="arrowRight.mouseout"/>
                  </use>
                  <path fill="none" stroke="white" stroke-width="1.5" d="M0,-3.0v7 M-2.5,-0.5L0,-3.0L2.5,-0.5"/>
                </g>
                <g id="arrowDown" xlink:href="#dirArrow" transform="rotate(180) translate(-30 -48)" onmousedown="handlePan(0,1)">
                  <use xlink:href="#rim" fill="#404040">
                        <set attributeName="fill" to="#808080" begin="arrowDown.mouseover" end="arrowDown.mouseout"/>
                  </use>
                  <path fill="none" stroke="white" stroke-width="1.5" d="M0,-3.0v7 M-2.5,-0.5L0,-3.0L2.5,-0.5"/>
                </g>
                <g id="arrowLeft" xlink:href="#dirArrow" transform="rotate(270) translate(-36 17)" onmousedown="handlePan(-1,0)">
                  <use xlink:href="#rim" fill="#404040">
                        <set attributeName="fill" to="#808080" begin="arrowLeft.mouseover" end="arrowLeft.mouseout"/>
                  </use>
                  <path fill="none" stroke="white" stroke-width="1.5" d="M0,-3.0v7 M-2.5,-0.5L0,-3.0L2.5,-0.5"/>
                </g>
        </g>
        <svg viewBox="0 0 15 15" width="100%" height="30px" preserveAspectRatio="xMaxYMin meet">
         <g id="arrow_out" transform="scale(0.3 0.3)">
          <a xlink:href="_h_t_t_p_request_8cxx__incl_org.svg" target="_base">
           <rect id="button" ry="5" rx="5" y="6" x="6" height="38" width="38"
                fill="#f2f5e9" fill-opacity="0.5" stroke="#606060" stroke-width="1.0"/>
           <path id="arrow"
             d="M 11.500037,31.436501 C 11.940474,20.09759 22.043105,11.32322 32.158766,21.979434 L 37.068811,17.246167 C 37.068811,17.246167 37.088388,32 37.088388,32 L 22.160133,31.978069 C 22.160133,31.978069 26.997745,27.140456 26.997745,27.140456 C 18.528582,18.264221 13.291696,25.230495 11.500037,31.436501 z"
             style="fill:#404040;"/>
          </a>
         </g>
        </svg>
</svg>
