<?xml version="1.0" encoding="UTF-8" standalone="no"?>
<!DOCTYPE svg PUBLIC "-//W3C//DTD SVG 1.1//EN"
 "http://www.w3.org/Graphics/SVG/1.1/DTD/svg11.dtd">
<!-- Generated by graphviz version 2.40.1 (20161225.0304)
 -->
<!-- Title: /Users/oskryp/Projects/freesee&#45;native&#45;client/libs/fcc_sdk/engine/meetingclient/include/MeetingClient/Delegates/INetworkInspectorNotificationsDelegate.hxx Pages: 1 -->
<svg width="367pt" height="342pt"
 viewBox="0.00 0.00 367.12 342.00" xmlns="http://www.w3.org/2000/svg" xmlns:xlink="http://www.w3.org/1999/xlink">
<g id="graph0" class="graph" transform="scale(1 1) rotate(0) translate(4 338)">
<title>/Users/oskryp/Projects/freesee&#45;native&#45;client/libs/fcc_sdk/engine/meetingclient/include/MeetingClient/Delegates/INetworkInspectorNotificationsDelegate.hxx</title>
<!-- Node20 -->
<g id="node1" class="node">
<title>Node20</title>
<g id="a_node1"><a xlink:title=" ">
<polygon fill="#bfbfbf" stroke="#000000" points="53.3867,-275.5 53.3867,-333.5 265.5879,-333.5 265.5879,-275.5 53.3867,-275.5"/>
<text text-anchor="start" x="61.3867" y="-321.5" font-family="Helvetica,sans-Serif" font-size="10.00" fill="#000000">/Users/oskryp/Projects</text>
<text text-anchor="start" x="61.3867" y="-311.5" font-family="Helvetica,sans-Serif" font-size="10.00" fill="#000000">/freesee&#45;native&#45;client</text>
<text text-anchor="start" x="61.3867" y="-301.5" font-family="Helvetica,sans-Serif" font-size="10.00" fill="#000000">/libs/fcc_sdk/engine/meetingclient</text>
<text text-anchor="start" x="61.3867" y="-291.5" font-family="Helvetica,sans-Serif" font-size="10.00" fill="#000000">/include/MeetingClient/Delegates</text>
<text text-anchor="middle" x="159.4873" y="-281.5" font-family="Helvetica,sans-Serif" font-size="10.00" fill="#000000">/INetworkInspectorNotificationsDelegate.hxx</text>
</a>
</g>
</g>
<!-- Node21 -->
<g id="node2" class="node">
<title>Node21</title>
<g id="a_node2"><a xlink:href="_network_inspector_client_8hxx.html" target="_top" xlink:title=" ">
<polygon fill="none" stroke="#000000" points="125,-180.5 125,-238.5 319.9746,-238.5 319.9746,-180.5 125,-180.5"/>
<text text-anchor="start" x="133" y="-226.5" font-family="Helvetica,sans-Serif" font-size="10.00" fill="#000000">/Users/oskryp/Projects</text>
<text text-anchor="start" x="133" y="-216.5" font-family="Helvetica,sans-Serif" font-size="10.00" fill="#000000">/freesee&#45;native&#45;client</text>
<text text-anchor="start" x="133" y="-206.5" font-family="Helvetica,sans-Serif" font-size="10.00" fill="#000000">/libs/fcc_sdk/engine/meetingclient</text>
<text text-anchor="start" x="133" y="-196.5" font-family="Helvetica,sans-Serif" font-size="10.00" fill="#000000">/include/MeetingClient/NetworkInspector</text>
<text text-anchor="middle" x="222.4873" y="-186.5" font-family="Helvetica,sans-Serif" font-size="10.00" fill="#000000">Client.hxx</text>
</a>
</g>
</g>
<!-- Node20&#45;&gt;Node21 -->
<g id="edge1" class="edge">
<title>Node20&#45;&gt;Node21</title>
<path fill="none" stroke="#191970" d="M184.3395,-267.0245C190.5904,-257.5986 197.2072,-247.6208 203.1437,-238.669"/>
<polygon fill="#191970" stroke="#191970" points="181.3416,-265.2123 178.7317,-275.4807 187.1754,-269.0811 181.3416,-265.2123"/>
</g>
<!-- Node22 -->
<g id="node3" class="node">
<title>Node22</title>
<g id="a_node3"><a xlink:href="_network_inspector_controller_8hxx.html" target="_top" xlink:title=" ">
<polygon fill="none" stroke="#000000" points="0,-85.5 0,-143.5 194.9746,-143.5 194.9746,-85.5 0,-85.5"/>
<text text-anchor="start" x="8" y="-131.5" font-family="Helvetica,sans-Serif" font-size="10.00" fill="#000000">/Users/oskryp/Projects</text>
<text text-anchor="start" x="8" y="-121.5" font-family="Helvetica,sans-Serif" font-size="10.00" fill="#000000">/freesee&#45;native&#45;client</text>
<text text-anchor="start" x="8" y="-111.5" font-family="Helvetica,sans-Serif" font-size="10.00" fill="#000000">/libs/fcc_sdk/engine/meetingclient</text>
<text text-anchor="start" x="8" y="-101.5" font-family="Helvetica,sans-Serif" font-size="10.00" fill="#000000">/include/MeetingClient/NetworkInspector</text>
<text text-anchor="middle" x="97.4873" y="-91.5" font-family="Helvetica,sans-Serif" font-size="10.00" fill="#000000">Controller.hxx</text>
</a>
</g>
</g>
<!-- Node20&#45;&gt;Node22 -->
<g id="edge7" class="edge">
<title>Node20&#45;&gt;Node22</title>
<path fill="none" stroke="#191970" d="M130.8752,-266.8574C125.3435,-258.0921 120.1403,-248.5259 116.4873,-239 104.5093,-207.7647 100.0621,-169.3948 98.4225,-143.5754"/>
<polygon fill="#191970" stroke="#191970" points="128.0375,-268.9116 136.4711,-275.3246 133.8774,-265.0521 128.0375,-268.9116"/>
</g>
<!-- Node21&#45;&gt;Node22 -->
<g id="edge2" class="edge">
<title>Node21&#45;&gt;Node22</title>
<path fill="none" stroke="#191970" d="M176.1992,-174.3211C162.9273,-164.2344 148.6077,-153.3515 135.8675,-143.669"/>
<polygon fill="#191970" stroke="#191970" points="174.2245,-177.2164 184.304,-180.4807 178.4601,-171.6432 174.2245,-177.2164"/>
</g>
<!-- Node23 -->
<g id="node4" class="node">
<title>Node23</title>
<g id="a_node4"><a xlink:href="_network_inspector_client_8cxx.html" target="_top" xlink:title=" ">
<polygon fill="none" stroke="#000000" points="3.0024,-.5 3.0024,-48.5 167.9722,-48.5 167.9722,-.5 3.0024,-.5"/>
<text text-anchor="start" x="11.0024" y="-36.5" font-family="Helvetica,sans-Serif" font-size="10.00" fill="#000000">/Users/oskryp/Projects</text>
<text text-anchor="start" x="11.0024" y="-26.5" font-family="Helvetica,sans-Serif" font-size="10.00" fill="#000000">/freesee&#45;native&#45;client</text>
<text text-anchor="start" x="11.0024" y="-16.5" font-family="Helvetica,sans-Serif" font-size="10.00" fill="#000000">/libs/fcc_sdk/engine/meetingclient</text>
<text text-anchor="middle" x="85.4873" y="-6.5" font-family="Helvetica,sans-Serif" font-size="10.00" fill="#000000">/src/NetworkInspectorClient.cxx</text>
</a>
</g>
</g>
<!-- Node21&#45;&gt;Node23 -->
<g id="edge5" class="edge">
<title>Node21&#45;&gt;Node23</title>
<path fill="none" stroke="#191970" d="M225.3394,-170.2272C225.276,-143.8281 221.1435,-109.5115 203.4873,-85 192.2518,-69.4021 175.7919,-57.5429 158.711,-48.6429"/>
<polygon fill="#191970" stroke="#191970" points="221.8391,-170.223 225.1716,-180.2801 228.8381,-170.3399 221.8391,-170.223"/>
</g>
<!-- Node24 -->
<g id="node5" class="node">
<title>Node24</title>
<g id="a_node5"><a xlink:href="_network_inspector_controller_8cxx.html" target="_top" xlink:title=" ">
<polygon fill="none" stroke="#000000" points="185.8496,-.5 185.8496,-48.5 359.125,-48.5 359.125,-.5 185.8496,-.5"/>
<text text-anchor="start" x="193.8496" y="-36.5" font-family="Helvetica,sans-Serif" font-size="10.00" fill="#000000">/Users/oskryp/Projects</text>
<text text-anchor="start" x="193.8496" y="-26.5" font-family="Helvetica,sans-Serif" font-size="10.00" fill="#000000">/freesee&#45;native&#45;client</text>
<text text-anchor="start" x="193.8496" y="-16.5" font-family="Helvetica,sans-Serif" font-size="10.00" fill="#000000">/libs/fcc_sdk/engine/meetingclient</text>
<text text-anchor="middle" x="272.4873" y="-6.5" font-family="Helvetica,sans-Serif" font-size="10.00" fill="#000000">/src/NetworkInspectorController.cxx</text>
</a>
</g>
</g>
<!-- Node21&#45;&gt;Node24 -->
<g id="edge6" class="edge">
<title>Node21&#45;&gt;Node24</title>
<path fill="none" stroke="#191970" d="M233.0849,-170.289C243.035,-133.4737 257.6044,-79.5669 265.9561,-48.6655"/>
<polygon fill="#191970" stroke="#191970" points="229.6403,-169.6194 230.41,-180.1862 236.3979,-171.4458 229.6403,-169.6194"/>
</g>
<!-- Node22&#45;&gt;Node23 -->
<g id="edge3" class="edge">
<title>Node22&#45;&gt;Node23</title>
<path fill="none" stroke="#191970" d="M92.2304,-75.0731C91.03,-66.0703 89.7893,-56.7653 88.7046,-48.6294"/>
<polygon fill="#191970" stroke="#191970" points="88.767,-75.581 93.5581,-85.0306 95.7056,-74.6558 88.767,-75.581"/>
</g>
<!-- Node22&#45;&gt;Node24 -->
<g id="edge4" class="edge">
<title>Node22&#45;&gt;Node24</title>
<path fill="none" stroke="#191970" d="M163.3662,-80.6194C184.069,-69.9723 206.4946,-58.4391 225.6004,-48.6133"/>
<polygon fill="#191970" stroke="#191970" points="161.5969,-77.5935 154.3048,-85.2796 164.7984,-83.8186 161.5969,-77.5935"/>
</g>
</g>
</svg>
