<?xml version="1.0" encoding="UTF-8" standalone="no"?>
<!DOCTYPE svg PUBLIC "-//W3C//DTD SVG 1.1//EN"
 "http://www.w3.org/Graphics/SVG/1.1/DTD/svg11.dtd">
<!-- Generated by graphviz version 2.40.1 (20161225.0304)
 -->
<!-- Title: /Users/oskryp/Projects/freesee&#45;native&#45;client/libs/fcc_sdk/engine/meetingclient/src/headers/MeetingClient/MeetingAttendee.hxx Pages: 1 -->
<svg width="2024pt" height="607pt"
 viewBox="0.00 0.00 2023.99 607.00" xmlns="http://www.w3.org/2000/svg" xmlns:xlink="http://www.w3.org/1999/xlink">
<g id="graph0" class="graph" transform="scale(1 1) rotate(0) translate(4 603)">
<title>/Users/oskryp/Projects/freesee&#45;native&#45;client/libs/fcc_sdk/engine/meetingclient/src/headers/MeetingClient/MeetingAttendee.hxx</title>
<!-- Node18 -->
<g id="node1" class="node">
<title>Node18</title>
<g id="a_node1"><a xlink:title=" ">
<polygon fill="#bfbfbf" stroke="#000000" points="848.672,-550.5 848.672,-598.5 1080.3458,-598.5 1080.3458,-550.5 848.672,-550.5"/>
<text text-anchor="start" x="856.672" y="-586.5" font-family="Helvetica,sans-Serif" font-size="10.00" fill="#000000">/Users/oskryp/Projects</text>
<text text-anchor="start" x="856.672" y="-576.5" font-family="Helvetica,sans-Serif" font-size="10.00" fill="#000000">/freesee&#45;native&#45;client</text>
<text text-anchor="start" x="856.672" y="-566.5" font-family="Helvetica,sans-Serif" font-size="10.00" fill="#000000">/libs/fcc_sdk/engine/meetingclient</text>
<text text-anchor="middle" x="964.5089" y="-556.5" font-family="Helvetica,sans-Serif" font-size="10.00" fill="#000000">/src/headers/MeetingClient/MeetingAttendee.hxx</text>
</a>
</g>
</g>
<!-- Node19 -->
<g id="node2" class="node">
<title>Node19</title>
<g id="a_node2"><a xlink:href="_attendees_controller_8cxx.html" target="_top" xlink:title=" ">
<polygon fill="none" stroke="#000000" points="90.0241,-370.5 90.0241,-418.5 254.9938,-418.5 254.9938,-370.5 90.0241,-370.5"/>
<text text-anchor="start" x="98.0241" y="-406.5" font-family="Helvetica,sans-Serif" font-size="10.00" fill="#000000">/Users/oskryp/Projects</text>
<text text-anchor="start" x="98.0241" y="-396.5" font-family="Helvetica,sans-Serif" font-size="10.00" fill="#000000">/freesee&#45;native&#45;client</text>
<text text-anchor="start" x="98.0241" y="-386.5" font-family="Helvetica,sans-Serif" font-size="10.00" fill="#000000">/libs/fcc_sdk/engine/meetingclient</text>
<text text-anchor="middle" x="172.5089" y="-376.5" font-family="Helvetica,sans-Serif" font-size="10.00" fill="#000000">/src/AttendeesController.cxx</text>
</a>
</g>
</g>
<!-- Node18&#45;&gt;Node19 -->
<g id="edge1" class="edge">
<title>Node18&#45;&gt;Node19</title>
<path fill="none" stroke="#191970" d="M838.2693,-571.0103C585.8032,-563.4137 40.3319,-543.6473 12.5089,-514 -5.4354,-494.8791 -2.3976,-476.5731 12.5089,-455 22.2583,-440.8905 55.7793,-427.1975 89.6373,-416.4172"/>
<polygon fill="#191970" stroke="#191970" points="838.4966,-574.5186 848.5968,-571.3192 838.706,-567.5217 838.4966,-574.5186"/>
</g>
<!-- Node20 -->
<g id="node3" class="node">
<title>Node20</title>
<g id="a_node3"><a xlink:href="_attendees_manager_8cxx.html" target="_top" xlink:title=" ">
<polygon fill="none" stroke="#000000" points="21.0241,-460.5 21.0241,-508.5 185.9938,-508.5 185.9938,-460.5 21.0241,-460.5"/>
<text text-anchor="start" x="29.0241" y="-496.5" font-family="Helvetica,sans-Serif" font-size="10.00" fill="#000000">/Users/oskryp/Projects</text>
<text text-anchor="start" x="29.0241" y="-486.5" font-family="Helvetica,sans-Serif" font-size="10.00" fill="#000000">/freesee&#45;native&#45;client</text>
<text text-anchor="start" x="29.0241" y="-476.5" font-family="Helvetica,sans-Serif" font-size="10.00" fill="#000000">/libs/fcc_sdk/engine/meetingclient</text>
<text text-anchor="middle" x="103.5089" y="-466.5" font-family="Helvetica,sans-Serif" font-size="10.00" fill="#000000">/src/AttendeesManager.cxx</text>
</a>
</g>
</g>
<!-- Node18&#45;&gt;Node20 -->
<g id="edge2" class="edge">
<title>Node18&#45;&gt;Node20</title>
<path fill="none" stroke="#191970" d="M838.5672,-568.1424C652.9536,-558.1671 315.0165,-537.5298 195.5089,-514 188.0209,-512.5257 180.2883,-510.6435 172.6348,-508.5451"/>
<polygon fill="#191970" stroke="#191970" points="838.4826,-571.6428 848.6554,-568.6821 838.8567,-564.6528 838.4826,-571.6428"/>
</g>
<!-- Node21 -->
<g id="node4" class="node">
<title>Node21</title>
<g id="a_node4"><a xlink:href="_basic_handler_8cxx.html" target="_top" xlink:title=" ">
<polygon fill="none" stroke="#000000" points="204.0241,-460.5 204.0241,-508.5 368.9938,-508.5 368.9938,-460.5 204.0241,-460.5"/>
<text text-anchor="start" x="212.0241" y="-496.5" font-family="Helvetica,sans-Serif" font-size="10.00" fill="#000000">/Users/oskryp/Projects</text>
<text text-anchor="start" x="212.0241" y="-486.5" font-family="Helvetica,sans-Serif" font-size="10.00" fill="#000000">/freesee&#45;native&#45;client</text>
<text text-anchor="start" x="212.0241" y="-476.5" font-family="Helvetica,sans-Serif" font-size="10.00" fill="#000000">/libs/fcc_sdk/engine/meetingclient</text>
<text text-anchor="middle" x="286.5089" y="-466.5" font-family="Helvetica,sans-Serif" font-size="10.00" fill="#000000">/src/BasicHandler.cxx</text>
</a>
</g>
</g>
<!-- Node18&#45;&gt;Node21 -->
<g id="edge3" class="edge">
<title>Node18&#45;&gt;Node21</title>
<path fill="none" stroke="#191970" d="M838.3323,-569.0414C718.8627,-562.0966 534.9876,-546.7942 378.5089,-514 371.2035,-512.469 363.658,-510.5788 356.1766,-508.5007"/>
<polygon fill="#191970" stroke="#191970" points="838.4289,-572.5525 848.6119,-569.6276 838.8274,-565.5639 838.4289,-572.5525"/>
</g>
<!-- Node22 -->
<g id="node5" class="node">
<title>Node22</title>
<g id="a_node5"><a xlink:href="_bundled_attendee_8cxx.html" target="_top" xlink:title=" ">
<polygon fill="none" stroke="#000000" points="387.0241,-460.5 387.0241,-508.5 551.9938,-508.5 551.9938,-460.5 387.0241,-460.5"/>
<text text-anchor="start" x="395.0241" y="-496.5" font-family="Helvetica,sans-Serif" font-size="10.00" fill="#000000">/Users/oskryp/Projects</text>
<text text-anchor="start" x="395.0241" y="-486.5" font-family="Helvetica,sans-Serif" font-size="10.00" fill="#000000">/freesee&#45;native&#45;client</text>
<text text-anchor="start" x="395.0241" y="-476.5" font-family="Helvetica,sans-Serif" font-size="10.00" fill="#000000">/libs/fcc_sdk/engine/meetingclient</text>
<text text-anchor="middle" x="469.5089" y="-466.5" font-family="Helvetica,sans-Serif" font-size="10.00" fill="#000000">/src/BundledAttendee.cxx</text>
</a>
</g>
</g>
<!-- Node18&#45;&gt;Node22 -->
<g id="edge4" class="edge">
<title>Node18&#45;&gt;Node22</title>
<path fill="none" stroke="#191970" d="M838.4673,-561.0486C758.259,-551.1574 652.5332,-535.6505 560.5089,-514 553.7189,-512.4025 546.7075,-510.5352 539.7301,-508.5295"/>
<polygon fill="#191970" stroke="#191970" points="838.2653,-564.5498 848.6157,-562.287 839.1133,-557.6014 838.2653,-564.5498"/>
</g>
<!-- Node23 -->
<g id="node6" class="node">
<title>Node23</title>
<g id="a_node6"><a xlink:href="_attendee_decorator_8hxx.html" target="_top" xlink:title=" ">
<polygon fill="none" stroke="#000000" points="569.7804,-460.5 569.7804,-508.5 809.2374,-508.5 809.2374,-460.5 569.7804,-460.5"/>
<text text-anchor="start" x="577.7804" y="-496.5" font-family="Helvetica,sans-Serif" font-size="10.00" fill="#000000">/Users/oskryp/Projects</text>
<text text-anchor="start" x="577.7804" y="-486.5" font-family="Helvetica,sans-Serif" font-size="10.00" fill="#000000">/freesee&#45;native&#45;client</text>
<text text-anchor="start" x="577.7804" y="-476.5" font-family="Helvetica,sans-Serif" font-size="10.00" fill="#000000">/libs/fcc_sdk/engine/meetingclient</text>
<text text-anchor="middle" x="689.5089" y="-466.5" font-family="Helvetica,sans-Serif" font-size="10.00" fill="#000000">/src/headers/MeetingClient/AttendeeDecorator.hxx</text>
</a>
</g>
</g>
<!-- Node18&#45;&gt;Node23 -->
<g id="edge5" class="edge">
<title>Node18&#45;&gt;Node23</title>
<path fill="none" stroke="#191970" d="M881.2505,-547.2518C843.615,-534.9347 799.5228,-520.5045 763.1156,-508.5895"/>
<polygon fill="#191970" stroke="#191970" points="880.5826,-550.7158 891.1752,-550.4999 882.7599,-544.063 880.5826,-550.7158"/>
</g>
<!-- Node25 -->
<g id="node8" class="node">
<title>Node25</title>
<g id="a_node8"><a xlink:href="_meeting_attendee_8cxx.html" target="_top" xlink:title=" ">
<polygon fill="none" stroke="#000000" points="621.0241,-370.5 621.0241,-418.5 785.9938,-418.5 785.9938,-370.5 621.0241,-370.5"/>
<text text-anchor="start" x="629.0241" y="-406.5" font-family="Helvetica,sans-Serif" font-size="10.00" fill="#000000">/Users/oskryp/Projects</text>
<text text-anchor="start" x="629.0241" y="-396.5" font-family="Helvetica,sans-Serif" font-size="10.00" fill="#000000">/freesee&#45;native&#45;client</text>
<text text-anchor="start" x="629.0241" y="-386.5" font-family="Helvetica,sans-Serif" font-size="10.00" fill="#000000">/libs/fcc_sdk/engine/meetingclient</text>
<text text-anchor="middle" x="703.5089" y="-376.5" font-family="Helvetica,sans-Serif" font-size="10.00" fill="#000000">/src/MeetingAttendee.cxx</text>
</a>
</g>
</g>
<!-- Node18&#45;&gt;Node25 -->
<g id="edge37" class="edge">
<title>Node18&#45;&gt;Node25</title>
<path fill="none" stroke="#191970" d="M900.6381,-545.485C885.1729,-536.705 869.4011,-526.122 856.5089,-514 833.7857,-492.6343 841.5115,-476.0647 818.5089,-455 802.4538,-440.2974 782.1619,-428.0826 763.1088,-418.569"/>
<polygon fill="#191970" stroke="#191970" points="899.233,-548.7061 909.6843,-550.4442 902.598,-542.5679 899.233,-548.7061"/>
</g>
<!-- Node26 -->
<g id="node9" class="node">
<title>Node26</title>
<g id="a_node9"><a xlink:href="_meeting_client_session_8hxx.html" target="_top" xlink:title=" ">
<polygon fill="none" stroke="#000000" points="865.0758,-455.5 865.0758,-513.5 1063.942,-513.5 1063.942,-455.5 865.0758,-455.5"/>
<text text-anchor="start" x="873.0758" y="-501.5" font-family="Helvetica,sans-Serif" font-size="10.00" fill="#000000">/Users/oskryp/Projects</text>
<text text-anchor="start" x="873.0758" y="-491.5" font-family="Helvetica,sans-Serif" font-size="10.00" fill="#000000">/freesee&#45;native&#45;client</text>
<text text-anchor="start" x="873.0758" y="-481.5" font-family="Helvetica,sans-Serif" font-size="10.00" fill="#000000">/libs/fcc_sdk/engine/meetingclient</text>
<text text-anchor="start" x="873.0758" y="-471.5" font-family="Helvetica,sans-Serif" font-size="10.00" fill="#000000">/src/headers/MeetingClient/MeetingClient</text>
<text text-anchor="middle" x="964.5089" y="-461.5" font-family="Helvetica,sans-Serif" font-size="10.00" fill="#000000">Session.hxx</text>
</a>
</g>
</g>
<!-- Node18&#45;&gt;Node26 -->
<g id="edge9" class="edge">
<title>Node18&#45;&gt;Node26</title>
<path fill="none" stroke="#191970" d="M964.5089,-540.162C964.5089,-531.4781 964.5089,-522.2323 964.5089,-513.8215"/>
<polygon fill="#191970" stroke="#191970" points="961.009,-540.3816 964.5089,-550.3817 968.009,-540.3817 961.009,-540.3816"/>
</g>
<!-- Node43 -->
<g id="node26" class="node">
<title>Node43</title>
<g id="a_node26"><a xlink:href="_meeting_client_session_8cxx.html" target="_top" xlink:title=" ">
<polygon fill="none" stroke="#000000" points="1115.0241,-370.5 1115.0241,-418.5 1279.9938,-418.5 1279.9938,-370.5 1115.0241,-370.5"/>
<text text-anchor="start" x="1123.0241" y="-406.5" font-family="Helvetica,sans-Serif" font-size="10.00" fill="#000000">/Users/oskryp/Projects</text>
<text text-anchor="start" x="1123.0241" y="-396.5" font-family="Helvetica,sans-Serif" font-size="10.00" fill="#000000">/freesee&#45;native&#45;client</text>
<text text-anchor="start" x="1123.0241" y="-386.5" font-family="Helvetica,sans-Serif" font-size="10.00" fill="#000000">/libs/fcc_sdk/engine/meetingclient</text>
<text text-anchor="middle" x="1197.5089" y="-376.5" font-family="Helvetica,sans-Serif" font-size="10.00" fill="#000000">/src/MeetingClientSession.cxx</text>
</a>
</g>
</g>
<!-- Node18&#45;&gt;Node43 -->
<g id="edge39" class="edge">
<title>Node18&#45;&gt;Node43</title>
<path fill="none" stroke="#191970" d="M1028.3797,-545.485C1043.845,-536.705 1059.6167,-526.122 1072.5089,-514 1095.2322,-492.6343 1088.8482,-477.4423 1110.5089,-455 1123.7962,-441.2332 1140.646,-428.6671 1155.9708,-418.5981"/>
<polygon fill="#191970" stroke="#191970" points="1026.4198,-542.5679 1019.3336,-550.4442 1029.7849,-548.7061 1026.4198,-542.5679"/>
</g>
<!-- Node44 -->
<g id="node27" class="node">
<title>Node44</title>
<g id="a_node27"><a xlink:href="_meeting_client_8cxx.html" target="_top" xlink:title=" ">
<polygon fill="none" stroke="#000000" points="1119.0241,-460.5 1119.0241,-508.5 1283.9938,-508.5 1283.9938,-460.5 1119.0241,-460.5"/>
<text text-anchor="start" x="1127.0241" y="-496.5" font-family="Helvetica,sans-Serif" font-size="10.00" fill="#000000">/Users/oskryp/Projects</text>
<text text-anchor="start" x="1127.0241" y="-486.5" font-family="Helvetica,sans-Serif" font-size="10.00" fill="#000000">/freesee&#45;native&#45;client</text>
<text text-anchor="start" x="1127.0241" y="-476.5" font-family="Helvetica,sans-Serif" font-size="10.00" fill="#000000">/libs/fcc_sdk/engine/meetingclient</text>
<text text-anchor="middle" x="1201.5089" y="-466.5" font-family="Helvetica,sans-Serif" font-size="10.00" fill="#000000">/src/MeetingClient.cxx</text>
</a>
</g>
</g>
<!-- Node18&#45;&gt;Node44 -->
<g id="edge38" class="edge">
<title>Node18&#45;&gt;Node44</title>
<path fill="none" stroke="#191970" d="M1037.0919,-546.9368C1069.3439,-534.6893 1106.964,-520.4031 1138.0733,-508.5895"/>
<polygon fill="#191970" stroke="#191970" points="1035.8153,-543.6777 1027.7092,-550.4999 1038.3004,-550.2217 1035.8153,-543.6777"/>
</g>
<!-- Node45 -->
<g id="node28" class="node">
<title>Node45</title>
<g id="a_node28"><a xlink:href="_r_t_notifications_controller_8cxx.html" target="_top" xlink:title=" ">
<polygon fill="none" stroke="#000000" points="1302.0241,-460.5 1302.0241,-508.5 1466.9938,-508.5 1466.9938,-460.5 1302.0241,-460.5"/>
<text text-anchor="start" x="1310.0241" y="-496.5" font-family="Helvetica,sans-Serif" font-size="10.00" fill="#000000">/Users/oskryp/Projects</text>
<text text-anchor="start" x="1310.0241" y="-486.5" font-family="Helvetica,sans-Serif" font-size="10.00" fill="#000000">/freesee&#45;native&#45;client</text>
<text text-anchor="start" x="1310.0241" y="-476.5" font-family="Helvetica,sans-Serif" font-size="10.00" fill="#000000">/libs/fcc_sdk/engine/meetingclient</text>
<text text-anchor="middle" x="1384.5089" y="-466.5" font-family="Helvetica,sans-Serif" font-size="10.00" fill="#000000">/src/RTNotificationsController.cxx</text>
</a>
</g>
</g>
<!-- Node18&#45;&gt;Node45 -->
<g id="edge40" class="edge">
<title>Node18&#45;&gt;Node45</title>
<path fill="none" stroke="#191970" d="M1090.7641,-555.0952C1152.0627,-544.6891 1226.5466,-530.5866 1292.5089,-514 1299.0157,-512.3638 1305.7351,-510.5188 1312.442,-508.57"/>
<polygon fill="#191970" stroke="#191970" points="1089.9325,-551.6859 1080.6529,-556.7986 1091.0954,-558.5886 1089.9325,-551.6859"/>
</g>
<!-- Node46 -->
<g id="node29" class="node">
<title>Node46</title>
<g id="a_node29"><a xlink:href="_screen_sharing_controller_8cxx.html" target="_top" xlink:title=" ">
<polygon fill="none" stroke="#000000" points="1485.0241,-460.5 1485.0241,-508.5 1649.9938,-508.5 1649.9938,-460.5 1485.0241,-460.5"/>
<text text-anchor="start" x="1493.0241" y="-496.5" font-family="Helvetica,sans-Serif" font-size="10.00" fill="#000000">/Users/oskryp/Projects</text>
<text text-anchor="start" x="1493.0241" y="-486.5" font-family="Helvetica,sans-Serif" font-size="10.00" fill="#000000">/freesee&#45;native&#45;client</text>
<text text-anchor="start" x="1493.0241" y="-476.5" font-family="Helvetica,sans-Serif" font-size="10.00" fill="#000000">/libs/fcc_sdk/engine/meetingclient</text>
<text text-anchor="middle" x="1567.5089" y="-466.5" font-family="Helvetica,sans-Serif" font-size="10.00" fill="#000000">/src/ScreenSharingController.cxx</text>
</a>
</g>
</g>
<!-- Node18&#45;&gt;Node46 -->
<g id="edge41" class="edge">
<title>Node18&#45;&gt;Node46</title>
<path fill="none" stroke="#191970" d="M1090.7195,-566.3523C1194.8277,-558.0123 1345.9339,-542.1698 1475.5089,-514 1482.6387,-512.45 1490.0019,-510.5749 1497.3132,-508.5301"/>
<polygon fill="#191970" stroke="#191970" points="1090.1716,-562.8845 1080.478,-567.1607 1090.7224,-569.8628 1090.1716,-562.8845"/>
</g>
<!-- Node47 -->
<g id="node30" class="node">
<title>Node47</title>
<g id="a_node30"><a xlink:href="_video_controller_8cxx.html" target="_top" xlink:title=" ">
<polygon fill="none" stroke="#000000" points="1668.0241,-460.5 1668.0241,-508.5 1832.9938,-508.5 1832.9938,-460.5 1668.0241,-460.5"/>
<text text-anchor="start" x="1676.0241" y="-496.5" font-family="Helvetica,sans-Serif" font-size="10.00" fill="#000000">/Users/oskryp/Projects</text>
<text text-anchor="start" x="1676.0241" y="-486.5" font-family="Helvetica,sans-Serif" font-size="10.00" fill="#000000">/freesee&#45;native&#45;client</text>
<text text-anchor="start" x="1676.0241" y="-476.5" font-family="Helvetica,sans-Serif" font-size="10.00" fill="#000000">/libs/fcc_sdk/engine/meetingclient</text>
<text text-anchor="middle" x="1750.5089" y="-466.5" font-family="Helvetica,sans-Serif" font-size="10.00" fill="#000000">/src/VideoController.cxx</text>
</a>
</g>
</g>
<!-- Node18&#45;&gt;Node47 -->
<g id="edge42" class="edge">
<title>Node18&#45;&gt;Node47</title>
<path fill="none" stroke="#191970" d="M1090.6741,-566.8907C1260.4529,-556.0662 1553.3032,-535.1757 1658.5089,-514 1665.9085,-512.5106 1673.5493,-510.6333 1681.118,-508.5505"/>
<polygon fill="#191970" stroke="#191970" points="1090.4349,-563.3988 1080.6769,-567.5256 1090.8786,-570.3847 1090.4349,-563.3988"/>
</g>
<!-- Node48 -->
<g id="node31" class="node">
<title>Node48</title>
<g id="a_node31"><a xlink:href="_vo_i_p_controller_8cxx.html" target="_top" xlink:title=" ">
<polygon fill="none" stroke="#000000" points="1851.0241,-460.5 1851.0241,-508.5 2015.9938,-508.5 2015.9938,-460.5 1851.0241,-460.5"/>
<text text-anchor="start" x="1859.0241" y="-496.5" font-family="Helvetica,sans-Serif" font-size="10.00" fill="#000000">/Users/oskryp/Projects</text>
<text text-anchor="start" x="1859.0241" y="-486.5" font-family="Helvetica,sans-Serif" font-size="10.00" fill="#000000">/freesee&#45;native&#45;client</text>
<text text-anchor="start" x="1859.0241" y="-476.5" font-family="Helvetica,sans-Serif" font-size="10.00" fill="#000000">/libs/fcc_sdk/engine/meetingclient</text>
<text text-anchor="middle" x="1933.5089" y="-466.5" font-family="Helvetica,sans-Serif" font-size="10.00" fill="#000000">/src/VoIPController.cxx</text>
</a>
</g>
</g>
<!-- Node18&#45;&gt;Node48 -->
<g id="edge43" class="edge">
<title>Node18&#45;&gt;Node48</title>
<path fill="none" stroke="#191970" d="M1090.552,-569.5533C1297.7449,-560.7913 1701.3211,-540.9006 1841.5089,-514 1849.0864,-512.546 1856.9111,-510.662 1864.6497,-508.5495"/>
<polygon fill="#191970" stroke="#191970" points="1090.3763,-566.0575 1080.5323,-569.9748 1090.6706,-573.0513 1090.3763,-566.0575"/>
</g>
<!-- Node23&#45;&gt;Node19 -->
<g id="edge7" class="edge">
<title>Node23&#45;&gt;Node19</title>
<path fill="none" stroke="#191970" d="M577.7261,-458.4329C571.9111,-457.2349 566.1458,-456.0826 560.5089,-455 455.7299,-434.8762 334.0554,-416.7467 255.3011,-405.6939"/>
<polygon fill="#191970" stroke="#191970" points="577.0404,-461.8652 587.5453,-460.4881 578.4745,-455.0136 577.0404,-461.8652"/>
</g>
<!-- Node24 -->
<g id="node7" class="node">
<title>Node24</title>
<g id="a_node7"><a xlink:href="_attendee_decorator_8cxx.html" target="_top" xlink:title=" ">
<polygon fill="none" stroke="#000000" points="438.0241,-370.5 438.0241,-418.5 602.9938,-418.5 602.9938,-370.5 438.0241,-370.5"/>
<text text-anchor="start" x="446.0241" y="-406.5" font-family="Helvetica,sans-Serif" font-size="10.00" fill="#000000">/Users/oskryp/Projects</text>
<text text-anchor="start" x="446.0241" y="-396.5" font-family="Helvetica,sans-Serif" font-size="10.00" fill="#000000">/freesee&#45;native&#45;client</text>
<text text-anchor="start" x="446.0241" y="-386.5" font-family="Helvetica,sans-Serif" font-size="10.00" fill="#000000">/libs/fcc_sdk/engine/meetingclient</text>
<text text-anchor="middle" x="520.5089" y="-376.5" font-family="Helvetica,sans-Serif" font-size="10.00" fill="#000000">/src/AttendeeDecorator.cxx</text>
</a>
</g>
</g>
<!-- Node23&#45;&gt;Node24 -->
<g id="edge6" class="edge">
<title>Node23&#45;&gt;Node24</title>
<path fill="none" stroke="#191970" d="M635.1502,-455.5515C612.7092,-443.6007 587.0043,-429.9117 565.6296,-418.5287"/>
<polygon fill="#191970" stroke="#191970" points="633.7484,-458.7704 644.22,-460.3817 637.0388,-452.5919 633.7484,-458.7704"/>
</g>
<!-- Node23&#45;&gt;Node25 -->
<g id="edge8" class="edge">
<title>Node23&#45;&gt;Node25</title>
<path fill="none" stroke="#191970" d="M694.8388,-450.2362C696.4744,-439.7219 698.2391,-428.3773 699.7468,-418.6849"/>
<polygon fill="#191970" stroke="#191970" points="691.3394,-449.9625 693.2607,-460.3817 698.2562,-451.0385 691.3394,-449.9625"/>
</g>
<!-- Node27 -->
<g id="node10" class="node">
<title>Node27</title>
<g id="a_node10"><a xlink:href="_meeting_lobby_8hxx.html" target="_top" xlink:title=" ">
<polygon fill="none" stroke="#000000" points="841.4347,-370.5 841.4347,-418.5 1059.5831,-418.5 1059.5831,-370.5 841.4347,-370.5"/>
<text text-anchor="start" x="849.4347" y="-406.5" font-family="Helvetica,sans-Serif" font-size="10.00" fill="#000000">/Users/oskryp/Projects</text>
<text text-anchor="start" x="849.4347" y="-396.5" font-family="Helvetica,sans-Serif" font-size="10.00" fill="#000000">/freesee&#45;native&#45;client</text>
<text text-anchor="start" x="849.4347" y="-386.5" font-family="Helvetica,sans-Serif" font-size="10.00" fill="#000000">/libs/fcc_sdk/engine/meetingclient</text>
<text text-anchor="middle" x="950.5089" y="-376.5" font-family="Helvetica,sans-Serif" font-size="10.00" fill="#000000">/src/headers/MeetingClient/MeetingLobby.hxx</text>
</a>
</g>
</g>
<!-- Node26&#45;&gt;Node27 -->
<g id="edge10" class="edge">
<title>Node26&#45;&gt;Node27</title>
<path fill="none" stroke="#191970" d="M958.3758,-445.0731C956.9754,-436.0703 955.528,-426.7653 954.2624,-418.6294"/>
<polygon fill="#191970" stroke="#191970" points="954.9292,-445.6875 959.9248,-455.0306 961.8461,-444.6115 954.9292,-445.6875"/>
</g>
<!-- Node28 -->
<g id="node11" class="node">
<title>Node28</title>
<g id="a_node11"><a xlink:href="_meeting_lobby_impl_8hxx.html" target="_top" xlink:title=" ">
<polygon fill="none" stroke="#000000" points="713.236,-275.5 713.236,-333.5 913.7819,-333.5 913.7819,-275.5 713.236,-275.5"/>
<text text-anchor="start" x="721.236" y="-321.5" font-family="Helvetica,sans-Serif" font-size="10.00" fill="#000000">/Users/oskryp/Projects</text>
<text text-anchor="start" x="721.236" y="-311.5" font-family="Helvetica,sans-Serif" font-size="10.00" fill="#000000">/freesee&#45;native&#45;client</text>
<text text-anchor="start" x="721.236" y="-301.5" font-family="Helvetica,sans-Serif" font-size="10.00" fill="#000000">/libs/fcc_sdk/engine/meetingclient</text>
<text text-anchor="start" x="721.236" y="-291.5" font-family="Helvetica,sans-Serif" font-size="10.00" fill="#000000">/src/headers/MeetingClient/MeetingLobby</text>
<text text-anchor="middle" x="813.5089" y="-281.5" font-family="Helvetica,sans-Serif" font-size="10.00" fill="#000000">Impl.hxx</text>
</a>
</g>
</g>
<!-- Node26&#45;&gt;Node28 -->
<g id="edge34" class="edge">
<title>Node26&#45;&gt;Node28</title>
<path fill="none" stroke="#191970" d="M867.3887,-450.0934C854.0299,-441.726 841.7496,-431.4811 832.5089,-419 814.2838,-394.384 811.0028,-358.6338 811.3448,-333.6493"/>
<polygon fill="#191970" stroke="#191970" points="865.9061,-453.2816 876.302,-455.3255 869.4498,-447.2448 865.9061,-453.2816"/>
</g>
<!-- Node30 -->
<g id="node13" class="node">
<title>Node30</title>
<g id="a_node13"><a xlink:href="_meeting_client_impl_8hxx.html" target="_top" xlink:title=" ">
<polygon fill="none" stroke="#000000" points="1002.5289,-275.5 1002.5289,-333.5 1172.4889,-333.5 1172.4889,-275.5 1002.5289,-275.5"/>
<text text-anchor="start" x="1010.5289" y="-321.5" font-family="Helvetica,sans-Serif" font-size="10.00" fill="#000000">/Users/oskryp/Projects</text>
<text text-anchor="start" x="1010.5289" y="-311.5" font-family="Helvetica,sans-Serif" font-size="10.00" fill="#000000">/freesee&#45;native&#45;client</text>
<text text-anchor="start" x="1010.5289" y="-301.5" font-family="Helvetica,sans-Serif" font-size="10.00" fill="#000000">/libs/fcc_sdk/engine/meetingclient</text>
<text text-anchor="start" x="1010.5289" y="-291.5" font-family="Helvetica,sans-Serif" font-size="10.00" fill="#000000">/src/headers/MeetingClient/proxies</text>
<text text-anchor="middle" x="1087.5089" y="-281.5" font-family="Helvetica,sans-Serif" font-size="10.00" fill="#000000">/MeetingClientImpl.hxx</text>
</a>
</g>
</g>
<!-- Node26&#45;&gt;Node30 -->
<g id="edge35" class="edge">
<title>Node26&#45;&gt;Node30</title>
<path fill="none" stroke="#191970" d="M1037.696,-449.7471C1049.558,-441.2 1060.5437,-430.9843 1068.5089,-419 1085.3511,-393.6595 1088.9351,-358.3765 1089.0419,-333.6965"/>
<polygon fill="#191970" stroke="#191970" points="1035.678,-446.8867 1029.3701,-455.3991 1039.6096,-452.6783 1035.678,-446.8867"/>
</g>
<!-- Node26&#45;&gt;Node43 -->
<g id="edge36" class="edge">
<title>Node26&#45;&gt;Node43</title>
<path fill="none" stroke="#191970" d="M1049.3599,-451.7249C1077.784,-440.7457 1108.9279,-428.7158 1135.294,-418.5315"/>
<polygon fill="#191970" stroke="#191970" points="1047.9027,-448.5357 1039.8356,-455.4039 1050.425,-455.0655 1047.9027,-448.5357"/>
</g>
<!-- Node27&#45;&gt;Node28 -->
<g id="edge11" class="edge">
<title>Node27&#45;&gt;Node28</title>
<path fill="none" stroke="#191970" d="M905.1204,-364.6827C890.0086,-354.7553 873.1969,-343.7111 858.1428,-333.8215"/>
<polygon fill="#191970" stroke="#191970" points="903.5159,-367.8163 913.7954,-370.3817 907.3593,-361.9658 903.5159,-367.8163"/>
</g>
<!-- Node27&#45;&gt;Node30 -->
<g id="edge13" class="edge">
<title>Node27&#45;&gt;Node30</title>
<path fill="none" stroke="#191970" d="M995.8974,-364.6827C1011.0092,-354.7553 1027.821,-343.7111 1042.8751,-333.8215"/>
<polygon fill="#191970" stroke="#191970" points="993.6586,-361.9658 987.2224,-370.3817 997.502,-367.8163 993.6586,-361.9658"/>
</g>
<!-- Node29 -->
<g id="node12" class="node">
<title>Node29</title>
<g id="a_node12"><a xlink:href="_meeting_lobby_imp_8cxx.html" target="_top" xlink:title=" ">
<polygon fill="none" stroke="#000000" points="401.0241,-185.5 401.0241,-233.5 565.9938,-233.5 565.9938,-185.5 401.0241,-185.5"/>
<text text-anchor="start" x="409.0241" y="-221.5" font-family="Helvetica,sans-Serif" font-size="10.00" fill="#000000">/Users/oskryp/Projects</text>
<text text-anchor="start" x="409.0241" y="-211.5" font-family="Helvetica,sans-Serif" font-size="10.00" fill="#000000">/freesee&#45;native&#45;client</text>
<text text-anchor="start" x="409.0241" y="-201.5" font-family="Helvetica,sans-Serif" font-size="10.00" fill="#000000">/libs/fcc_sdk/engine/meetingclient</text>
<text text-anchor="middle" x="483.5089" y="-191.5" font-family="Helvetica,sans-Serif" font-size="10.00" fill="#000000">/src/MeetingLobbyImp.cxx</text>
</a>
</g>
</g>
<!-- Node28&#45;&gt;Node29 -->
<g id="edge12" class="edge">
<title>Node28&#45;&gt;Node29</title>
<path fill="none" stroke="#191970" d="M703.3084,-274.269C664.1578,-263.3662 619.8103,-250.8306 579.5089,-239 573.5698,-237.2566 567.4318,-235.4294 561.2643,-233.5752"/>
<polygon fill="#191970" stroke="#191970" points="702.5722,-277.697 713.1444,-277.0043 704.4477,-270.9529 702.5722,-277.697"/>
</g>
<!-- Node31 -->
<g id="node14" class="node">
<title>Node31</title>
<g id="a_node14"><a xlink:href="_meeting_attendee_impl_8hxx.html" target="_top" xlink:title=" ">
<polygon fill="none" stroke="#000000" points="621.5289,-180.5 621.5289,-238.5 791.4889,-238.5 791.4889,-180.5 621.5289,-180.5"/>
<text text-anchor="start" x="629.5289" y="-226.5" font-family="Helvetica,sans-Serif" font-size="10.00" fill="#000000">/Users/oskryp/Projects</text>
<text text-anchor="start" x="629.5289" y="-216.5" font-family="Helvetica,sans-Serif" font-size="10.00" fill="#000000">/freesee&#45;native&#45;client</text>
<text text-anchor="start" x="629.5289" y="-206.5" font-family="Helvetica,sans-Serif" font-size="10.00" fill="#000000">/libs/fcc_sdk/engine/meetingclient</text>
<text text-anchor="start" x="629.5289" y="-196.5" font-family="Helvetica,sans-Serif" font-size="10.00" fill="#000000">/src/headers/MeetingClient/proxies</text>
<text text-anchor="middle" x="706.5089" y="-186.5" font-family="Helvetica,sans-Serif" font-size="10.00" fill="#000000">/MeetingAttendeeImpl.hxx</text>
</a>
</g>
</g>
<!-- Node30&#45;&gt;Node31 -->
<g id="edge14" class="edge">
<title>Node30&#45;&gt;Node31</title>
<path fill="none" stroke="#191970" d="M992.4516,-283.4466C938.3641,-271.1516 869.4535,-254.9559 808.5089,-239 802.9807,-237.5527 797.2956,-236.0233 791.5728,-234.4529"/>
<polygon fill="#191970" stroke="#191970" points="991.8467,-286.8982 1002.3731,-285.696 993.3945,-280.0714 991.8467,-286.8982"/>
</g>
<!-- Node32 -->
<g id="node15" class="node">
<title>Node32</title>
<g id="a_node15"><a xlink:href="_meeting_attendee_feature_impl_8hxx.html" target="_top" xlink:title=" ">
<polygon fill="none" stroke="#000000" points="424.5289,-85.5 424.5289,-143.5 594.4889,-143.5 594.4889,-85.5 424.5289,-85.5"/>
<text text-anchor="start" x="432.5289" y="-131.5" font-family="Helvetica,sans-Serif" font-size="10.00" fill="#000000">/Users/oskryp/Projects</text>
<text text-anchor="start" x="432.5289" y="-121.5" font-family="Helvetica,sans-Serif" font-size="10.00" fill="#000000">/freesee&#45;native&#45;client</text>
<text text-anchor="start" x="432.5289" y="-111.5" font-family="Helvetica,sans-Serif" font-size="10.00" fill="#000000">/libs/fcc_sdk/engine/meetingclient</text>
<text text-anchor="start" x="432.5289" y="-101.5" font-family="Helvetica,sans-Serif" font-size="10.00" fill="#000000">/src/headers/MeetingClient/proxies</text>
<text text-anchor="middle" x="509.5089" y="-91.5" font-family="Helvetica,sans-Serif" font-size="10.00" fill="#000000">/MeetingAttendeeFeatureImpl.hxx</text>
</a>
</g>
</g>
<!-- Node30&#45;&gt;Node32 -->
<g id="edge19" class="edge">
<title>Node30&#45;&gt;Node32</title>
<path fill="none" stroke="#191970" d="M992.4228,-286.4735C969.5694,-282.4252 945.2047,-278.3435 922.5089,-275 853.8976,-264.8924 671.374,-275.6686 612.5089,-239 586.0349,-222.5086 594.0455,-204.3139 574.5089,-180 564.3739,-167.3866 552.1185,-154.5306 540.9933,-143.5867"/>
<polygon fill="#191970" stroke="#191970" points="991.9993,-289.9532 1002.4589,-288.266 993.2301,-283.0622 991.9993,-289.9532"/>
</g>
<!-- Node34 -->
<g id="node17" class="node">
<title>Node34</title>
<g id="a_node17"><a xlink:href="_meeting_client_impl_8cxx.html" target="_top" xlink:title=" ">
<polygon fill="none" stroke="#000000" points="1140.652,-.5 1140.652,-48.5 1308.3659,-48.5 1308.3659,-.5 1140.652,-.5"/>
<text text-anchor="start" x="1148.652" y="-36.5" font-family="Helvetica,sans-Serif" font-size="10.00" fill="#000000">/Users/oskryp/Projects</text>
<text text-anchor="start" x="1148.652" y="-26.5" font-family="Helvetica,sans-Serif" font-size="10.00" fill="#000000">/freesee&#45;native&#45;client</text>
<text text-anchor="start" x="1148.652" y="-16.5" font-family="Helvetica,sans-Serif" font-size="10.00" fill="#000000">/libs/fcc_sdk/engine/meetingclient</text>
<text text-anchor="middle" x="1224.5089" y="-6.5" font-family="Helvetica,sans-Serif" font-size="10.00" fill="#000000">/src/proxies/MeetingClientImpl.cxx</text>
</a>
</g>
</g>
<!-- Node30&#45;&gt;Node34 -->
<g id="edge33" class="edge">
<title>Node30&#45;&gt;Node34</title>
<path fill="none" stroke="#191970" d="M1000.4129,-271.418C906.5512,-230.9532 778.5372,-158.6997 841.5089,-85 860.6953,-62.5449 1033.5756,-42.4444 1140.4039,-32.0234"/>
<polygon fill="#191970" stroke="#191970" points="999.0955,-274.661 1009.6677,-275.3535 1001.8349,-268.2193 999.0955,-274.661"/>
</g>
<!-- Node36 -->
<g id="node19" class="node">
<title>Node36</title>
<g id="a_node19"><a xlink:href="_meeting_broadcast_feature_impl_8hxx.html" target="_top" xlink:title=" ">
<polygon fill="none" stroke="#000000" points="850.9723,-85.5 850.9723,-143.5 1022.0455,-143.5 1022.0455,-85.5 850.9723,-85.5"/>
<text text-anchor="start" x="858.9723" y="-131.5" font-family="Helvetica,sans-Serif" font-size="10.00" fill="#000000">/Users/oskryp/Projects</text>
<text text-anchor="start" x="858.9723" y="-121.5" font-family="Helvetica,sans-Serif" font-size="10.00" fill="#000000">/freesee&#45;native&#45;client</text>
<text text-anchor="start" x="858.9723" y="-111.5" font-family="Helvetica,sans-Serif" font-size="10.00" fill="#000000">/libs/fcc_sdk/engine/meetingclient</text>
<text text-anchor="start" x="858.9723" y="-101.5" font-family="Helvetica,sans-Serif" font-size="10.00" fill="#000000">/src/headers/MeetingClient/proxies</text>
<text text-anchor="middle" x="936.5089" y="-91.5" font-family="Helvetica,sans-Serif" font-size="10.00" fill="#000000">/MeetingBroadcastFeatureImpl.hxx</text>
</a>
</g>
</g>
<!-- Node30&#45;&gt;Node36 -->
<g id="edge20" class="edge">
<title>Node30&#45;&gt;Node36</title>
<path fill="none" stroke="#191970" d="M1057.9876,-267.354C1029.2602,-231.2069 986.1899,-177.0124 959.7982,-143.8044"/>
<polygon fill="#191970" stroke="#191970" points="1055.2842,-269.5778 1064.2461,-275.2289 1060.7643,-265.2225 1055.2842,-269.5778"/>
</g>
<!-- Node37 -->
<g id="node20" class="node">
<title>Node37</title>
<g id="a_node20"><a xlink:href="_meeting_chat_feature_impl_8hxx.html" target="_top" xlink:title=" ">
<polygon fill="none" stroke="#000000" points="1040.5289,-85.5 1040.5289,-143.5 1210.4889,-143.5 1210.4889,-85.5 1040.5289,-85.5"/>
<text text-anchor="start" x="1048.5289" y="-131.5" font-family="Helvetica,sans-Serif" font-size="10.00" fill="#000000">/Users/oskryp/Projects</text>
<text text-anchor="start" x="1048.5289" y="-121.5" font-family="Helvetica,sans-Serif" font-size="10.00" fill="#000000">/freesee&#45;native&#45;client</text>
<text text-anchor="start" x="1048.5289" y="-111.5" font-family="Helvetica,sans-Serif" font-size="10.00" fill="#000000">/libs/fcc_sdk/engine/meetingclient</text>
<text text-anchor="start" x="1048.5289" y="-101.5" font-family="Helvetica,sans-Serif" font-size="10.00" fill="#000000">/src/headers/MeetingClient/proxies</text>
<text text-anchor="middle" x="1125.5089" y="-91.5" font-family="Helvetica,sans-Serif" font-size="10.00" fill="#000000">/MeetingChatFeatureImpl.hxx</text>
</a>
</g>
</g>
<!-- Node30&#45;&gt;Node37 -->
<g id="edge22" class="edge">
<title>Node30&#45;&gt;Node37</title>
<path fill="none" stroke="#191970" d="M1094.8602,-265.2786C1099.5102,-240.7463 1105.7165,-208.5014 1111.5089,-180 1113.9175,-168.1488 1116.6797,-155.1166 1119.1106,-143.8189"/>
<polygon fill="#191970" stroke="#191970" points="1091.3867,-264.8107 1092.9684,-275.2868 1098.2649,-266.111 1091.3867,-264.8107"/>
</g>
<!-- Node38 -->
<g id="node21" class="node">
<title>Node38</title>
<g id="a_node21"><a xlink:href="_meeting_screen_sharing_feature_impl_8hxx.html" target="_top" xlink:title=" ">
<polygon fill="none" stroke="#000000" points="1228.4083,-85.5 1228.4083,-143.5 1420.6095,-143.5 1420.6095,-85.5 1228.4083,-85.5"/>
<text text-anchor="start" x="1236.4083" y="-131.5" font-family="Helvetica,sans-Serif" font-size="10.00" fill="#000000">/Users/oskryp/Projects</text>
<text text-anchor="start" x="1236.4083" y="-121.5" font-family="Helvetica,sans-Serif" font-size="10.00" fill="#000000">/freesee&#45;native&#45;client</text>
<text text-anchor="start" x="1236.4083" y="-111.5" font-family="Helvetica,sans-Serif" font-size="10.00" fill="#000000">/libs/fcc_sdk/engine/meetingclient</text>
<text text-anchor="start" x="1236.4083" y="-101.5" font-family="Helvetica,sans-Serif" font-size="10.00" fill="#000000">/src/headers/MeetingClient/proxies</text>
<text text-anchor="middle" x="1324.5089" y="-91.5" font-family="Helvetica,sans-Serif" font-size="10.00" fill="#000000">/MeetingScreenSharingFeatureImpl.hxx</text>
</a>
</g>
</g>
<!-- Node30&#45;&gt;Node38 -->
<g id="edge24" class="edge">
<title>Node30&#45;&gt;Node38</title>
<path fill="none" stroke="#191970" d="M1103.0764,-265.7918C1116.5115,-234.0096 1135.8539,-192.3052 1149.5089,-180 1162.3416,-168.4358 1194.7842,-155.1574 1228.2996,-143.5924"/>
<polygon fill="#191970" stroke="#191970" points="1099.7325,-264.7167 1099.1093,-275.2932 1106.1921,-267.4138 1099.7325,-264.7167"/>
</g>
<!-- Node39 -->
<g id="node22" class="node">
<title>Node39</title>
<g id="a_node22"><a xlink:href="_meeting_video_feature_impl_8hxx.html" target="_top" xlink:title=" ">
<polygon fill="none" stroke="#000000" points="1438.5289,-85.5 1438.5289,-143.5 1608.4889,-143.5 1608.4889,-85.5 1438.5289,-85.5"/>
<text text-anchor="start" x="1446.5289" y="-131.5" font-family="Helvetica,sans-Serif" font-size="10.00" fill="#000000">/Users/oskryp/Projects</text>
<text text-anchor="start" x="1446.5289" y="-121.5" font-family="Helvetica,sans-Serif" font-size="10.00" fill="#000000">/freesee&#45;native&#45;client</text>
<text text-anchor="start" x="1446.5289" y="-111.5" font-family="Helvetica,sans-Serif" font-size="10.00" fill="#000000">/libs/fcc_sdk/engine/meetingclient</text>
<text text-anchor="start" x="1446.5289" y="-101.5" font-family="Helvetica,sans-Serif" font-size="10.00" fill="#000000">/src/headers/MeetingClient/proxies</text>
<text text-anchor="middle" x="1523.5089" y="-91.5" font-family="Helvetica,sans-Serif" font-size="10.00" fill="#000000">/MeetingVideoFeatureImpl.hxx</text>
</a>
</g>
</g>
<!-- Node30&#45;&gt;Node39 -->
<g id="edge26" class="edge">
<title>Node30&#45;&gt;Node39</title>
<path fill="none" stroke="#191970" d="M1122.5457,-268.0032C1130.7524,-258.8156 1139.2202,-248.7783 1146.5089,-239 1164.8672,-214.3712 1156.879,-196.9326 1182.5089,-180 1275.0705,-118.8484 1321.353,-168.6874 1429.5089,-144 1432.4271,-143.3339 1435.3856,-142.621 1438.3652,-141.8709"/>
<polygon fill="#191970" stroke="#191970" points="1119.8738,-265.7394 1115.7451,-275.4967 1125.0574,-270.4437 1119.8738,-265.7394"/>
</g>
<!-- Node40 -->
<g id="node23" class="node">
<title>Node40</title>
<g id="a_node23"><a xlink:href="_meeting_vo_i_p_feature_impl_8hxx.html" target="_top" xlink:title=" ">
<polygon fill="none" stroke="#000000" points="1191.5289,-180.5 1191.5289,-238.5 1361.4889,-238.5 1361.4889,-180.5 1191.5289,-180.5"/>
<text text-anchor="start" x="1199.5289" y="-226.5" font-family="Helvetica,sans-Serif" font-size="10.00" fill="#000000">/Users/oskryp/Projects</text>
<text text-anchor="start" x="1199.5289" y="-216.5" font-family="Helvetica,sans-Serif" font-size="10.00" fill="#000000">/freesee&#45;native&#45;client</text>
<text text-anchor="start" x="1199.5289" y="-206.5" font-family="Helvetica,sans-Serif" font-size="10.00" fill="#000000">/libs/fcc_sdk/engine/meetingclient</text>
<text text-anchor="start" x="1199.5289" y="-196.5" font-family="Helvetica,sans-Serif" font-size="10.00" fill="#000000">/src/headers/MeetingClient/proxies</text>
<text text-anchor="middle" x="1276.5089" y="-186.5" font-family="Helvetica,sans-Serif" font-size="10.00" fill="#000000">/MeetingVoIPFeatureImpl.hxx</text>
</a>
</g>
</g>
<!-- Node30&#45;&gt;Node40 -->
<g id="edge28" class="edge">
<title>Node30&#45;&gt;Node40</title>
<path fill="none" stroke="#191970" d="M1154.4296,-270.8626C1175.4543,-260.2947 1198.4751,-248.7233 1218.8039,-238.5052"/>
<polygon fill="#191970" stroke="#191970" points="1152.605,-267.8624 1145.2421,-275.4807 1155.7488,-274.1168 1152.605,-267.8624"/>
</g>
<!-- Node41 -->
<g id="node24" class="node">
<title>Node41</title>
<g id="a_node24"><a xlink:href="_raw_r_t_messages_feature_impl_8hxx.html" target="_top" xlink:title=" ">
<polygon fill="none" stroke="#000000" points="1379.5289,-180.5 1379.5289,-238.5 1549.4889,-238.5 1549.4889,-180.5 1379.5289,-180.5"/>
<text text-anchor="start" x="1387.5289" y="-226.5" font-family="Helvetica,sans-Serif" font-size="10.00" fill="#000000">/Users/oskryp/Projects</text>
<text text-anchor="start" x="1387.5289" y="-216.5" font-family="Helvetica,sans-Serif" font-size="10.00" fill="#000000">/freesee&#45;native&#45;client</text>
<text text-anchor="start" x="1387.5289" y="-206.5" font-family="Helvetica,sans-Serif" font-size="10.00" fill="#000000">/libs/fcc_sdk/engine/meetingclient</text>
<text text-anchor="start" x="1387.5289" y="-196.5" font-family="Helvetica,sans-Serif" font-size="10.00" fill="#000000">/src/headers/MeetingClient/proxies</text>
<text text-anchor="middle" x="1464.5089" y="-186.5" font-family="Helvetica,sans-Serif" font-size="10.00" fill="#000000">/RawRTMessagesFeatureImpl.hxx</text>
</a>
</g>
</g>
<!-- Node30&#45;&gt;Node41 -->
<g id="edge30" class="edge">
<title>Node30&#45;&gt;Node41</title>
<path fill="none" stroke="#191970" d="M1182.8641,-284.3408C1237.9596,-272.2171 1308.4378,-255.8963 1370.5089,-239 1373.3971,-238.2138 1376.3296,-237.3973 1379.287,-236.5582"/>
<polygon fill="#191970" stroke="#191970" points="1181.7799,-280.9952 1172.761,-286.5549 1183.2785,-287.8329 1181.7799,-280.9952"/>
</g>
<!-- Node42 -->
<g id="node25" class="node">
<title>Node42</title>
<g id="a_node25"><a xlink:href="_free_see_a_p_i2_impl_8cxx.html" target="_top" xlink:title=" ">
<polygon fill="none" stroke="#000000" points="1567.2062,-185.5 1567.2062,-233.5 1733.8117,-233.5 1733.8117,-185.5 1567.2062,-185.5"/>
<text text-anchor="start" x="1575.2062" y="-221.5" font-family="Helvetica,sans-Serif" font-size="10.00" fill="#000000">/Users/oskryp/Projects</text>
<text text-anchor="start" x="1575.2062" y="-211.5" font-family="Helvetica,sans-Serif" font-size="10.00" fill="#000000">/freesee&#45;native&#45;client</text>
<text text-anchor="start" x="1575.2062" y="-201.5" font-family="Helvetica,sans-Serif" font-size="10.00" fill="#000000">/libs/fcc_sdk/engine/meetingclient</text>
<text text-anchor="middle" x="1650.5089" y="-191.5" font-family="Helvetica,sans-Serif" font-size="10.00" fill="#000000">/src/proxies/FreeSeeAPI2Impl.cxx</text>
</a>
</g>
</g>
<!-- Node30&#45;&gt;Node42 -->
<g id="edge32" class="edge">
<title>Node30&#45;&gt;Node42</title>
<path fill="none" stroke="#191970" d="M1182.4865,-296.1388C1278.2329,-286.5795 1429.8498,-268.3436 1558.5089,-239 1565.4591,-237.4149 1572.6372,-235.543 1579.776,-233.5233"/>
<polygon fill="#191970" stroke="#191970" points="1182.1424,-292.6556 1172.5347,-297.1212 1182.8302,-299.6218 1182.1424,-292.6556"/>
</g>
<!-- Node31&#45;&gt;Node32 -->
<g id="edge15" class="edge">
<title>Node31&#45;&gt;Node32</title>
<path fill="none" stroke="#191970" d="M637.0503,-176.0047C615.0563,-165.3985 590.9407,-153.7691 569.6565,-143.5052"/>
<polygon fill="#191970" stroke="#191970" points="635.8043,-179.2895 646.332,-180.4807 638.8449,-172.9844 635.8043,-179.2895"/>
</g>
<!-- Node35 -->
<g id="node18" class="node">
<title>Node35</title>
<g id="a_node18"><a xlink:href="_meeting_attendee_impl_8cxx.html" target="_top" xlink:title=" ">
<polygon fill="none" stroke="#000000" points="612.4181,-90.5 612.4181,-138.5 794.5997,-138.5 794.5997,-90.5 612.4181,-90.5"/>
<text text-anchor="start" x="620.4181" y="-126.5" font-family="Helvetica,sans-Serif" font-size="10.00" fill="#000000">/Users/oskryp/Projects</text>
<text text-anchor="start" x="620.4181" y="-116.5" font-family="Helvetica,sans-Serif" font-size="10.00" fill="#000000">/freesee&#45;native&#45;client</text>
<text text-anchor="start" x="620.4181" y="-106.5" font-family="Helvetica,sans-Serif" font-size="10.00" fill="#000000">/libs/fcc_sdk/engine/meetingclient</text>
<text text-anchor="middle" x="703.5089" y="-96.5" font-family="Helvetica,sans-Serif" font-size="10.00" fill="#000000">/src/proxies/MeetingAttendeeImpl.cxx</text>
</a>
</g>
</g>
<!-- Node31&#45;&gt;Node35 -->
<g id="edge18" class="edge">
<title>Node31&#45;&gt;Node35</title>
<path fill="none" stroke="#191970" d="M705.274,-170.3932C704.9332,-159.602 704.5736,-148.214 704.2685,-138.5531"/>
<polygon fill="#191970" stroke="#191970" points="701.7785,-170.5962 705.5925,-180.4807 708.775,-170.3751 701.7785,-170.5962"/>
</g>
<!-- Node33 -->
<g id="node16" class="node">
<title>Node33</title>
<g id="a_node16"><a xlink:href="_meeting_attendee_feature_impl_8cxx.html" target="_top" xlink:title=" ">
<polygon fill="none" stroke="#000000" points="401.1867,-.5 401.1867,-48.5 617.8312,-48.5 617.8312,-.5 401.1867,-.5"/>
<text text-anchor="start" x="409.1867" y="-36.5" font-family="Helvetica,sans-Serif" font-size="10.00" fill="#000000">/Users/oskryp/Projects</text>
<text text-anchor="start" x="409.1867" y="-26.5" font-family="Helvetica,sans-Serif" font-size="10.00" fill="#000000">/freesee&#45;native&#45;client</text>
<text text-anchor="start" x="409.1867" y="-16.5" font-family="Helvetica,sans-Serif" font-size="10.00" fill="#000000">/libs/fcc_sdk/engine/meetingclient</text>
<text text-anchor="middle" x="509.5089" y="-6.5" font-family="Helvetica,sans-Serif" font-size="10.00" fill="#000000">/src/proxies/MeetingAttendeeFeatureImpl.cxx</text>
</a>
</g>
</g>
<!-- Node32&#45;&gt;Node33 -->
<g id="edge16" class="edge">
<title>Node32&#45;&gt;Node33</title>
<path fill="none" stroke="#191970" d="M509.5089,-74.7825C509.5089,-65.8703 509.5089,-56.6778 509.5089,-48.6294"/>
<polygon fill="#191970" stroke="#191970" points="506.009,-75.0306 509.5089,-85.0306 513.009,-75.0307 506.009,-75.0306"/>
</g>
<!-- Node32&#45;&gt;Node34 -->
<g id="edge17" class="edge">
<title>Node32&#45;&gt;Node34</title>
<path fill="none" stroke="#191970" d="M604.5233,-84.9522C800.6396,-45.9749 1022.462,-32.1541 1140.5763,-27.173"/>
<polygon fill="#191970" stroke="#191970" points="603.7257,-81.5424 594.6135,-86.9478 605.1077,-88.4047 603.7257,-81.5424"/>
</g>
<!-- Node36&#45;&gt;Node34 -->
<g id="edge21" class="edge">
<title>Node36&#45;&gt;Node34</title>
<path fill="none" stroke="#191970" d="M1032.0678,-84.6379C1069.5804,-72.9152 1112.0573,-59.6411 1147.5431,-48.5518"/>
<polygon fill="#191970" stroke="#191970" points="1030.6395,-81.4172 1022.1387,-87.7407 1032.7274,-88.0986 1030.6395,-81.4172"/>
</g>
<!-- Node37&#45;&gt;Node34 -->
<g id="edge23" class="edge">
<title>Node37&#45;&gt;Node34</title>
<path fill="none" stroke="#191970" d="M1165.1202,-78.4897C1176.1055,-68.5031 1187.768,-57.9008 1197.823,-48.7599"/>
<polygon fill="#191970" stroke="#191970" points="1162.6964,-75.963 1157.6514,-85.2796 1167.4052,-81.1426 1162.6964,-75.963"/>
</g>
<!-- Node38&#45;&gt;Node34 -->
<g id="edge25" class="edge">
<title>Node38&#45;&gt;Node34</title>
<path fill="none" stroke="#191970" d="M1284.4975,-78.4897C1273.4013,-68.5031 1261.6209,-57.9008 1251.4643,-48.7599"/>
<polygon fill="#191970" stroke="#191970" points="1282.2674,-81.1914 1292.0418,-85.2796 1286.9502,-75.9884 1282.2674,-81.1914"/>
</g>
<!-- Node39&#45;&gt;Node34 -->
<g id="edge27" class="edge">
<title>Node39&#45;&gt;Node34</title>
<path fill="none" stroke="#191970" d="M1428.7567,-84.7859C1383.498,-71.0416 1342.2712,-58.8406 1307.3941,-48.6109"/>
<polygon fill="#191970" stroke="#191970" points="1427.889,-88.1803 1438.4747,-87.7421 1429.9262,-81.4833 1427.889,-88.1803"/>
</g>
<!-- Node40&#45;&gt;Node34 -->
<g id="edge29" class="edge">
<title>Node40&#45;&gt;Node34</title>
<path fill="none" stroke="#191970" d="M1371.5168,-180.2327C1439.5966,-169.2997 1582.9967,-183.907 1617.5089,-144 1634.6617,-124.166 1634.5821,-104.9026 1617.5089,-85 1597.648,-61.8476 1417.8718,-41.8255 1308.4684,-31.6478"/>
<polygon fill="#191970" stroke="#191970" points="1370.812,-176.804 1361.6526,-182.1291 1372.1336,-183.6781 1370.812,-176.804"/>
</g>
<!-- Node41&#45;&gt;Node34 -->
<g id="edge31" class="edge">
<title>Node41&#45;&gt;Node34</title>
<path fill="none" stroke="#191970" d="M1559.137,-178.7722C1596.6733,-165.6437 1632.2511,-151.6128 1637.5089,-144 1652.4109,-122.4237 1654.6545,-104.8402 1637.5089,-85 1616.3051,-60.4638 1422.835,-40.6611 1308.3689,-30.9683"/>
<polygon fill="#191970" stroke="#191970" points="1557.8728,-175.506 1549.5689,-182.086 1560.1637,-182.1205 1557.8728,-175.506"/>
</g>
</g>
</svg>
