<?xml version="1.0" encoding="UTF-8" standalone="no"?>
<!DOCTYPE svg PUBLIC "-//W3C//DTD SVG 1.1//EN"
 "http://www.w3.org/Graphics/SVG/1.1/DTD/svg11.dtd">
<!-- Generated by graphviz version 2.40.1 (20161225.0304)
 -->
<!-- Title: /Users/oskryp/Projects/freesee&#45;native&#45;client/libs/fcc_sdk/engine/meetingclient/src/MeetingTypes.cxx Pages: 1 -->
<svg width="295pt" height="252pt"
 viewBox="0.00 0.00 295.43 252.00" xmlns="http://www.w3.org/2000/svg" xmlns:xlink="http://www.w3.org/1999/xlink">
<g id="graph0" class="graph" transform="scale(1 1) rotate(0) translate(4 248)">
<title>/Users/oskryp/Projects/freesee&#45;native&#45;client/libs/fcc_sdk/engine/meetingclient/src/MeetingTypes.cxx</title>
<!-- Node0 -->
<g id="node1" class="node">
<title>Node0</title>
<g id="a_node1"><a xlink:title=" ">
<polygon fill="#bfbfbf" stroke="#000000" points="39.7417,-195.5 39.7417,-243.5 204.7114,-243.5 204.7114,-195.5 39.7417,-195.5"/>
<text text-anchor="start" x="47.7417" y="-231.5" font-family="Helvetica,sans-Serif" font-size="10.00" fill="#000000">/Users/oskryp/Projects</text>
<text text-anchor="start" x="47.7417" y="-221.5" font-family="Helvetica,sans-Serif" font-size="10.00" fill="#000000">/freesee&#45;native&#45;client</text>
<text text-anchor="start" x="47.7417" y="-211.5" font-family="Helvetica,sans-Serif" font-size="10.00" fill="#000000">/libs/fcc_sdk/engine/meetingclient</text>
<text text-anchor="middle" x="122.2266" y="-201.5" font-family="Helvetica,sans-Serif" font-size="10.00" fill="#000000">/src/MeetingTypes.cxx</text>
</a>
</g>
</g>
<!-- Node1 -->
<g id="node2" class="node">
<title>Node1</title>
<g id="a_node2"><a xlink:title=" ">
<polygon fill="none" stroke="#bfbfbf" points="48.165,-135.5 48.165,-153.5 100.2881,-153.5 100.2881,-135.5 48.165,-135.5"/>
<text text-anchor="middle" x="74.2266" y="-141.5" font-family="Helvetica,sans-Serif" font-size="10.00" fill="#000000">ostream</text>
</a>
</g>
</g>
<!-- Node0&#45;&gt;Node1 -->
<g id="edge1" class="edge">
<title>Node0&#45;&gt;Node1</title>
<path fill="none" stroke="#191970" d="M106.7748,-195.3567C99.8796,-184.5829 91.9016,-172.1172 85.5699,-162.2239"/>
<polygon fill="#191970" stroke="#191970" points="88.4313,-160.202 80.0928,-153.666 82.5354,-163.9754 88.4313,-160.202"/>
</g>
<!-- Node2 -->
<g id="node3" class="node">
<title>Node2</title>
<g id="a_node3"><a xlink:href="_meeting_types_8hxx.html" target="_top" xlink:title=" ">
<polygon fill="none" stroke="#000000" points="118.3154,-130.5 118.3154,-158.5 222.1377,-158.5 222.1377,-130.5 118.3154,-130.5"/>
<text text-anchor="start" x="126.3154" y="-146.5" font-family="Helvetica,sans-Serif" font-size="10.00" fill="#000000">MeetingClient/types</text>
<text text-anchor="middle" x="170.2266" y="-136.5" font-family="Helvetica,sans-Serif" font-size="10.00" fill="#000000">/MeetingTypes.hxx</text>
</a>
</g>
</g>
<!-- Node0&#45;&gt;Node2 -->
<g id="edge2" class="edge">
<title>Node0&#45;&gt;Node2</title>
<path fill="none" stroke="#191970" d="M137.6783,-195.3567C143.455,-186.3306 149.9917,-176.117 155.6836,-167.2233"/>
<polygon fill="#191970" stroke="#191970" points="158.7995,-168.8476 161.2421,-158.5382 152.9036,-165.0742 158.7995,-168.8476"/>
</g>
<!-- Node3 -->
<g id="node4" class="node">
<title>Node3</title>
<g id="a_node4"><a xlink:href="_common_data_types_8hxx.html" target="_top" xlink:title=" ">
<polygon fill="none" stroke="#000000" points="41.4805,-65.5 41.4805,-93.5 166.9727,-93.5 166.9727,-65.5 41.4805,-65.5"/>
<text text-anchor="start" x="49.4805" y="-81.5" font-family="Helvetica,sans-Serif" font-size="10.00" fill="#000000">MeetingClient/types</text>
<text text-anchor="middle" x="104.2266" y="-71.5" font-family="Helvetica,sans-Serif" font-size="10.00" fill="#000000">/CommonDataTypes.hxx</text>
</a>
</g>
</g>
<!-- Node2&#45;&gt;Node3 -->
<g id="edge3" class="edge">
<title>Node2&#45;&gt;Node3</title>
<path fill="none" stroke="#191970" d="M155.9055,-130.396C147.0838,-121.7079 135.6066,-110.4046 125.7097,-100.6576"/>
<polygon fill="#191970" stroke="#191970" points="128.1004,-98.0997 118.5196,-93.5765 123.1886,-103.0871 128.1004,-98.0997"/>
</g>
<!-- Node6 -->
<g id="node7" class="node">
<title>Node6</title>
<g id="a_node7"><a xlink:href="strong__identity_8hxx.html" target="_top" xlink:title=" ">
<polygon fill="none" stroke="#000000" points="184.5166,-65.5 184.5166,-93.5 285.9365,-93.5 285.9365,-65.5 184.5166,-65.5"/>
<text text-anchor="start" x="192.5166" y="-81.5" font-family="Helvetica,sans-Serif" font-size="10.00" fill="#000000">MeetingClient/utils</text>
<text text-anchor="middle" x="235.2266" y="-71.5" font-family="Helvetica,sans-Serif" font-size="10.00" fill="#000000">/strong_identity.hxx</text>
</a>
</g>
</g>
<!-- Node2&#45;&gt;Node6 -->
<g id="edge6" class="edge">
<title>Node2&#45;&gt;Node6</title>
<path fill="none" stroke="#191970" d="M184.3306,-130.396C193.0187,-121.7079 204.3219,-110.4046 214.0689,-100.6576"/>
<polygon fill="#191970" stroke="#191970" points="216.5538,-103.1225 221.1501,-93.5765 211.6041,-98.1727 216.5538,-103.1225"/>
</g>
<!-- Node4 -->
<g id="node5" class="node">
<title>Node4</title>
<g id="a_node5"><a xlink:title=" ">
<polygon fill="none" stroke="#bfbfbf" points="0,-5.5 0,-23.5 40.4531,-23.5 40.4531,-5.5 0,-5.5"/>
<text text-anchor="middle" x="20.2266" y="-11.5" font-family="Helvetica,sans-Serif" font-size="10.00" fill="#000000">string</text>
</a>
</g>
</g>
<!-- Node3&#45;&gt;Node4 -->
<g id="edge4" class="edge">
<title>Node3&#45;&gt;Node4</title>
<path fill="none" stroke="#191970" d="M85.9998,-65.396C72.4138,-54.883 53.8793,-40.5408 39.9476,-29.7603"/>
<polygon fill="#191970" stroke="#191970" points="42.004,-26.9261 31.9534,-23.5743 37.7201,-32.4622 42.004,-26.9261"/>
</g>
<!-- Node5 -->
<g id="node6" class="node">
<title>Node5</title>
<g id="a_node6"><a xlink:title=" ">
<polygon fill="none" stroke="#bfbfbf" points="58.4312,-5.5 58.4312,-23.5 160.022,-23.5 160.022,-5.5 58.4312,-5.5"/>
<text text-anchor="middle" x="109.2266" y="-11.5" font-family="Helvetica,sans-Serif" font-size="10.00" fill="#000000">CommonTypes.hxx</text>
</a>
</g>
</g>
<!-- Node3&#45;&gt;Node5 -->
<g id="edge5" class="edge">
<title>Node3&#45;&gt;Node5</title>
<path fill="none" stroke="#191970" d="M105.3115,-65.396C106.0286,-56.0732 106.9774,-43.739 107.7613,-33.5479"/>
<polygon fill="#191970" stroke="#191970" points="111.2512,-33.8133 108.5285,-23.5743 104.2718,-33.2764 111.2512,-33.8133"/>
</g>
<!-- Node7 -->
<g id="node8" class="node">
<title>Node7</title>
<g id="a_node8"><a xlink:title=" ">
<polygon fill="none" stroke="#bfbfbf" points="183.0273,-.5 183.0273,-28.5 287.4258,-28.5 287.4258,-.5 183.0273,-.5"/>
<text text-anchor="start" x="191.0273" y="-16.5" font-family="Helvetica,sans-Serif" font-size="10.00" fill="#000000">boost/serialization</text>
<text text-anchor="middle" x="235.2266" y="-6.5" font-family="Helvetica,sans-Serif" font-size="10.00" fill="#000000">/strong_typedef.hpp</text>
</a>
</g>
</g>
<!-- Node6&#45;&gt;Node7 -->
<g id="edge7" class="edge">
<title>Node6&#45;&gt;Node7</title>
<path fill="none" stroke="#191970" d="M235.2266,-65.396C235.2266,-57.6448 235.2266,-47.8122 235.2266,-38.8601"/>
<polygon fill="#191970" stroke="#191970" points="238.7267,-38.5765 235.2266,-28.5765 231.7267,-38.5765 238.7267,-38.5765"/>
</g>
</g>
</svg>
