<?xml version="1.0" encoding="UTF-8" standalone="no"?>
<!DOCTYPE svg PUBLIC "-//W3C//DTD SVG 1.1//EN"
 "http://www.w3.org/Graphics/SVG/1.1/DTD/svg11.dtd">
<!-- Generated by graphviz version 2.40.1 (20161225.0304)
 -->
<!-- Title: /Users/oskryp/Projects/freesee&#45;native&#45;client/libs/fcc_sdk/engine/meetingclient/include/MeetingClient/ModuleVersion.hxx Pages: 1 -->
<!--zoomable 607 -->
<svg id="main" version="1.1" xmlns="http://www.w3.org/2000/svg" xmlns:xlink="http://www.w3.org/1999/xlink" xml:space="preserve" onload="init(evt)">
<style type="text/css"><![CDATA[
.edge:hover path { stroke: red; }
.edge:hover polygon { stroke: red; fill: red; }
]]></style>
<script type="text/javascript"><![CDATA[
var edges = document.getElementsByTagName('g');
if (edges && edges.length) {
  for (var i=0;i<edges.length;i++) {
    if (edges[i].id.substr(0,4)=='edge') {
      edges[i].setAttribute('class','edge');
    }
  }
}
]]></script>
        <defs>
                <circle id="rim" cx="0" cy="0" r="7"/>
                <circle id="rim2" cx="0" cy="0" r="3.5"/>
                <g id="zoomPlus">
                        <use xlink:href="#rim" fill="#404040">
                                <set attributeName="fill" to="#808080" begin="zoomplus.mouseover" end="zoomplus.mouseout"/>
                        </use>
                        <path d="M-4,0h8M0,-4v8" fill="none" stroke="white" stroke-width="1.5" pointer-events="none"/>
                </g>
                <g id="zoomMin">
                        <use xlink:href="#rim" fill="#404040">
                                <set attributeName="fill" to="#808080" begin="zoomminus.mouseover" end="zoomminus.mouseout"/>
                        </use>
                        <path d="M-4,0h8" fill="none" stroke="white" stroke-width="1.5" pointer-events="none"/>
                </g>
                <g id="dirArrow">
                        <path fill="none" stroke="white" stroke-width="1.5" d="M0,-3.0v7 M-2.5,-0.5L0,-3.0L2.5,-0.5"/>
                </g>
               <g id="resetDef">
                       <use xlink:href="#rim2" fill="#404040">
                               <set attributeName="fill" to="#808080" begin="reset.mouseover" end="reset.mouseout"/>
                       </use>
               </g>
        </defs>

<script type="text/javascript">
var viewWidth = 1848;
var viewHeight = 607;
var sectionId = 'dynsection-1';
</script>
<script xlink:href="svgpan.js"/>
<svg id="graph" class="graph">
<g id="viewport">
<title>/Users/oskryp/Projects/freesee&#45;native&#45;client/libs/fcc_sdk/engine/meetingclient/include/MeetingClient/ModuleVersion.hxx</title>
<!-- Node5 -->
<g id="node1" class="node">
<title>Node5</title>
<g id="a_node1"><a xlink:title=" ">
<polygon fill="#bfbfbf" stroke="#000000" points="1352.6005,-550.5 1352.6005,-598.5 1554.2646,-598.5 1554.2646,-550.5 1352.6005,-550.5"/>
<text text-anchor="start" x="1360.6005" y="-586.5" font-family="Helvetica,sans-Serif" font-size="10.00" fill="#000000">/Users/oskryp/Projects</text>
<text text-anchor="start" x="1360.6005" y="-576.5" font-family="Helvetica,sans-Serif" font-size="10.00" fill="#000000">/freesee&#45;native&#45;client</text>
<text text-anchor="start" x="1360.6005" y="-566.5" font-family="Helvetica,sans-Serif" font-size="10.00" fill="#000000">/libs/fcc_sdk/engine/meetingclient</text>
<text text-anchor="middle" x="1453.4325" y="-556.5" font-family="Helvetica,sans-Serif" font-size="10.00" fill="#000000">/include/MeetingClient/ModuleVersion.hxx</text>
</a>
</g>
</g>
<!-- Node6 -->
<g id="node2" class="node">
<title>Node6</title>
<g id="a_node2"><a xlink:href="_meeting_client_a_p_i_8hxx.html" target="_top" xlink:title=" ">
<polygon fill="none" stroke="#000000" points="1032.0487,-465.5 1032.0487,-513.5 1244.8163,-513.5 1244.8163,-465.5 1032.0487,-465.5"/>
<text text-anchor="start" x="1040.0487" y="-501.5" font-family="Helvetica,sans-Serif" font-size="10.00" fill="#000000">/Users/oskryp/Projects</text>
<text text-anchor="start" x="1040.0487" y="-491.5" font-family="Helvetica,sans-Serif" font-size="10.00" fill="#000000">/freesee&#45;native&#45;client</text>
<text text-anchor="start" x="1040.0487" y="-481.5" font-family="Helvetica,sans-Serif" font-size="10.00" fill="#000000">/libs/fcc_sdk/engine/meetingclient</text>
<text text-anchor="middle" x="1138.4325" y="-471.5" font-family="Helvetica,sans-Serif" font-size="10.00" fill="#000000">/include/MeetingClient/MeetingClientAPI.hxx</text>
</a>
</g>
</g>
<!-- Node5&#45;&gt;Node6 -->
<g id="edge1" class="edge">
<title>Node5&#45;&gt;Node6</title>
<path fill="none" stroke="#191970" d="M1354.7576,-547.8734C1314.0241,-536.8818 1267.1602,-524.236 1227.4888,-513.531"/>
<polygon fill="#191970" stroke="#191970" points="1353.8627,-551.2571 1364.4292,-550.4832 1355.6864,-544.4988 1353.8627,-551.2571"/>
</g>
<!-- Node26 -->
<g id="node22" class="node">
<title>Node26</title>
<g id="a_node22"><a xlink:href="_meeting_lobby_8hxx.html" target="_top" xlink:title=" ">
<polygon fill="none" stroke="#000000" points="1344.3583,-465.5 1344.3583,-513.5 1562.5068,-513.5 1562.5068,-465.5 1344.3583,-465.5"/>
<text text-anchor="start" x="1352.3583" y="-501.5" font-family="Helvetica,sans-Serif" font-size="10.00" fill="#000000">/Users/oskryp/Projects</text>
<text text-anchor="start" x="1352.3583" y="-491.5" font-family="Helvetica,sans-Serif" font-size="10.00" fill="#000000">/freesee&#45;native&#45;client</text>
<text text-anchor="start" x="1352.3583" y="-481.5" font-family="Helvetica,sans-Serif" font-size="10.00" fill="#000000">/libs/fcc_sdk/engine/meetingclient</text>
<text text-anchor="middle" x="1453.4325" y="-471.5" font-family="Helvetica,sans-Serif" font-size="10.00" fill="#000000">/src/headers/MeetingClient/MeetingLobby.hxx</text>
</a>
</g>
</g>
<!-- Node5&#45;&gt;Node26 -->
<g id="edge38" class="edge">
<title>Node5&#45;&gt;Node26</title>
<path fill="none" stroke="#191970" d="M1453.4325,-540.2518C1453.4325,-531.3524 1453.4325,-521.951 1453.4325,-513.6906"/>
<polygon fill="#191970" stroke="#191970" points="1449.9326,-540.3697 1453.4325,-550.3698 1456.9326,-540.3698 1449.9326,-540.3697"/>
</g>
<!-- Node29 -->
<g id="node25" class="node">
<title>Node29</title>
<g id="a_node25"><a xlink:href="_module_version_8cxx.html" target="_top" xlink:title=" ">
<polygon fill="none" stroke="#000000" points="1580.9477,-465.5 1580.9477,-513.5 1745.9174,-513.5 1745.9174,-465.5 1580.9477,-465.5"/>
<text text-anchor="start" x="1588.9477" y="-501.5" font-family="Helvetica,sans-Serif" font-size="10.00" fill="#000000">/Users/oskryp/Projects</text>
<text text-anchor="start" x="1588.9477" y="-491.5" font-family="Helvetica,sans-Serif" font-size="10.00" fill="#000000">/freesee&#45;native&#45;client</text>
<text text-anchor="start" x="1588.9477" y="-481.5" font-family="Helvetica,sans-Serif" font-size="10.00" fill="#000000">/libs/fcc_sdk/engine/meetingclient</text>
<text text-anchor="middle" x="1663.4325" y="-471.5" font-family="Helvetica,sans-Serif" font-size="10.00" fill="#000000">/src/ModuleVersion.cxx</text>
</a>
</g>
</g>
<!-- Node5&#45;&gt;Node29 -->
<g id="edge42" class="edge">
<title>Node5&#45;&gt;Node29</title>
<path fill="none" stroke="#191970" d="M1522.306,-546.6226C1548.6589,-535.956 1578.4694,-523.8899 1603.8797,-513.6047"/>
<polygon fill="#191970" stroke="#191970" points="1520.7243,-543.4869 1512.7681,-550.4832 1523.3507,-549.9756 1520.7243,-543.4869"/>
</g>
<!-- Node7 -->
<g id="node3" class="node">
<title>Node7</title>
<g id="a_node3"><a xlink:href="_services_8hxx.html" target="_top" xlink:title=" ">
<polygon fill="none" stroke="#000000" points="254.5068,-375.5 254.5068,-423.5 428.3583,-423.5 428.3583,-375.5 254.5068,-375.5"/>
<text text-anchor="start" x="262.5068" y="-411.5" font-family="Helvetica,sans-Serif" font-size="10.00" fill="#000000">/Users/oskryp/Projects</text>
<text text-anchor="start" x="262.5068" y="-401.5" font-family="Helvetica,sans-Serif" font-size="10.00" fill="#000000">/freesee&#45;native&#45;client</text>
<text text-anchor="start" x="262.5068" y="-391.5" font-family="Helvetica,sans-Serif" font-size="10.00" fill="#000000">/libs/fcc_sdk/engine/meetingclient</text>
<text text-anchor="middle" x="341.4325" y="-381.5" font-family="Helvetica,sans-Serif" font-size="10.00" fill="#000000">/include/MeetingClient/Services.hxx</text>
</a>
</g>
</g>
<!-- Node6&#45;&gt;Node7 -->
<g id="edge2" class="edge">
<title>Node6&#45;&gt;Node7</title>
<path fill="none" stroke="#191970" d="M1021.7328,-476.7493C911.3634,-464.6419 741.1062,-445.84 593.4325,-429 538.6167,-422.7491 477.117,-415.5533 428.5951,-409.8335"/>
<polygon fill="#191970" stroke="#191970" points="1021.5699,-480.2523 1031.8919,-477.8634 1022.3331,-473.2941 1021.5699,-480.2523"/>
</g>
<!-- Node11 -->
<g id="node7" class="node">
<title>Node11</title>
<g id="a_node7"><a xlink:href="_bundled_attendee_8cxx.html" target="_top" xlink:title=" ">
<polygon fill="none" stroke="#000000" points="1184.9477,-375.5 1184.9477,-423.5 1349.9174,-423.5 1349.9174,-375.5 1184.9477,-375.5"/>
<text text-anchor="start" x="1192.9477" y="-411.5" font-family="Helvetica,sans-Serif" font-size="10.00" fill="#000000">/Users/oskryp/Projects</text>
<text text-anchor="start" x="1192.9477" y="-401.5" font-family="Helvetica,sans-Serif" font-size="10.00" fill="#000000">/freesee&#45;native&#45;client</text>
<text text-anchor="start" x="1192.9477" y="-391.5" font-family="Helvetica,sans-Serif" font-size="10.00" fill="#000000">/libs/fcc_sdk/engine/meetingclient</text>
<text text-anchor="middle" x="1267.4325" y="-381.5" font-family="Helvetica,sans-Serif" font-size="10.00" fill="#000000">/src/BundledAttendee.cxx</text>
</a>
</g>
</g>
<!-- Node6&#45;&gt;Node11 -->
<g id="edge6" class="edge">
<title>Node6&#45;&gt;Node11</title>
<path fill="none" stroke="#191970" d="M1181.496,-459.4557C1198.167,-447.8248 1216.9939,-434.6898 1232.7675,-423.6849"/>
<polygon fill="#191970" stroke="#191970" points="1179.2008,-456.7893 1173.0022,-465.3817 1183.2061,-462.5302 1179.2008,-456.7893"/>
</g>
<!-- Node12 -->
<g id="node8" class="node">
<title>Node12</title>
<g id="a_node8"><a xlink:href="_active_speaker_manager_impl_8hxx.html" target="_top" xlink:title=" ">
<polygon fill="none" stroke="#000000" points="921.4526,-370.5 921.4526,-428.5 1091.4125,-428.5 1091.4125,-370.5 921.4526,-370.5"/>
<text text-anchor="start" x="929.4526" y="-416.5" font-family="Helvetica,sans-Serif" font-size="10.00" fill="#000000">/Users/oskryp/Projects</text>
<text text-anchor="start" x="929.4526" y="-406.5" font-family="Helvetica,sans-Serif" font-size="10.00" fill="#000000">/freesee&#45;native&#45;client</text>
<text text-anchor="start" x="929.4526" y="-396.5" font-family="Helvetica,sans-Serif" font-size="10.00" fill="#000000">/libs/fcc_sdk/engine/meetingclient</text>
<text text-anchor="start" x="929.4526" y="-386.5" font-family="Helvetica,sans-Serif" font-size="10.00" fill="#000000">/src/headers/MeetingClient/proxies</text>
<text text-anchor="middle" x="1006.4325" y="-376.5" font-family="Helvetica,sans-Serif" font-size="10.00" fill="#000000">/ActiveSpeakerManagerImpl.hxx</text>
</a>
</g>
</g>
<!-- Node6&#45;&gt;Node12 -->
<g id="edge7" class="edge">
<title>Node6&#45;&gt;Node12</title>
<path fill="none" stroke="#191970" d="M1094.7005,-459.6827C1080.1403,-449.7553 1063.9421,-438.7111 1049.4374,-428.8215"/>
<polygon fill="#191970" stroke="#191970" points="1092.825,-462.64 1103.059,-465.3817 1096.7684,-456.8564 1092.825,-462.64"/>
</g>
<!-- Node13 -->
<g id="node9" class="node">
<title>Node13</title>
<g id="a_node9"><a xlink:href="_meeting_client_impl_8hxx.html" target="_top" xlink:title=" ">
<polygon fill="none" stroke="#000000" points="970.4526,-275.5 970.4526,-333.5 1140.4125,-333.5 1140.4125,-275.5 970.4526,-275.5"/>
<text text-anchor="start" x="978.4526" y="-321.5" font-family="Helvetica,sans-Serif" font-size="10.00" fill="#000000">/Users/oskryp/Projects</text>
<text text-anchor="start" x="978.4526" y="-311.5" font-family="Helvetica,sans-Serif" font-size="10.00" fill="#000000">/freesee&#45;native&#45;client</text>
<text text-anchor="start" x="978.4526" y="-301.5" font-family="Helvetica,sans-Serif" font-size="10.00" fill="#000000">/libs/fcc_sdk/engine/meetingclient</text>
<text text-anchor="start" x="978.4526" y="-291.5" font-family="Helvetica,sans-Serif" font-size="10.00" fill="#000000">/src/headers/MeetingClient/proxies</text>
<text text-anchor="middle" x="1055.4325" y="-281.5" font-family="Helvetica,sans-Serif" font-size="10.00" fill="#000000">/MeetingClientImpl.hxx</text>
</a>
</g>
</g>
<!-- Node6&#45;&gt;Node13 -->
<g id="edge31" class="edge">
<title>Node6&#45;&gt;Node13</title>
<path fill="none" stroke="#191970" d="M1130.4653,-455.4492C1124.0599,-430.9658 1113.9081,-397.5496 1100.4325,-370 1094.3098,-357.4826 1086.0138,-344.6468 1078.2124,-333.6923"/>
<polygon fill="#191970" stroke="#191970" points="1127.1264,-456.5211 1132.9799,-465.3521 1133.9111,-454.7982 1127.1264,-456.5211"/>
</g>
<!-- Node15 -->
<g id="node11" class="node">
<title>Node15</title>
<g id="a_node11"><a xlink:href="_meeting_attendee_feature_impl_8hxx.html" target="_top" xlink:title=" ">
<polygon fill="none" stroke="#000000" points="605.4526,-85.5 605.4526,-143.5 775.4125,-143.5 775.4125,-85.5 605.4526,-85.5"/>
<text text-anchor="start" x="613.4526" y="-131.5" font-family="Helvetica,sans-Serif" font-size="10.00" fill="#000000">/Users/oskryp/Projects</text>
<text text-anchor="start" x="613.4526" y="-121.5" font-family="Helvetica,sans-Serif" font-size="10.00" fill="#000000">/freesee&#45;native&#45;client</text>
<text text-anchor="start" x="613.4526" y="-111.5" font-family="Helvetica,sans-Serif" font-size="10.00" fill="#000000">/libs/fcc_sdk/engine/meetingclient</text>
<text text-anchor="start" x="613.4526" y="-101.5" font-family="Helvetica,sans-Serif" font-size="10.00" fill="#000000">/src/headers/MeetingClient/proxies</text>
<text text-anchor="middle" x="690.4325" y="-91.5" font-family="Helvetica,sans-Serif" font-size="10.00" fill="#000000">/MeetingAttendeeFeatureImpl.hxx</text>
</a>
</g>
</g>
<!-- Node6&#45;&gt;Node15 -->
<g id="edge30" class="edge">
<title>Node6&#45;&gt;Node15</title>
<path fill="none" stroke="#191970" d="M1021.9137,-487.0137C814.3259,-481.6866 388.8238,-466.4623 245.4325,-429 150.2212,-404.1252 106.3429,-411.2909 45.4325,-334 2.7122,-279.7909 -20.9178,-231.14 25.4325,-180 63.6802,-137.8 434.5529,-121.8004 605.2381,-116.6367"/>
<polygon fill="#191970" stroke="#191970" points="1021.8499,-490.5131 1031.9353,-487.2675 1022.0272,-483.5153 1021.8499,-490.5131"/>
</g>
<!-- Node19 -->
<g id="node15" class="node">
<title>Node19</title>
<g id="a_node15"><a xlink:href="_meeting_broadcast_feature_impl_8hxx.html" target="_top" xlink:title=" ">
<polygon fill="none" stroke="#000000" points="1668.8959,-180.5 1668.8959,-238.5 1839.9692,-238.5 1839.9692,-180.5 1668.8959,-180.5"/>
<text text-anchor="start" x="1676.8959" y="-226.5" font-family="Helvetica,sans-Serif" font-size="10.00" fill="#000000">/Users/oskryp/Projects</text>
<text text-anchor="start" x="1676.8959" y="-216.5" font-family="Helvetica,sans-Serif" font-size="10.00" fill="#000000">/freesee&#45;native&#45;client</text>
<text text-anchor="start" x="1676.8959" y="-206.5" font-family="Helvetica,sans-Serif" font-size="10.00" fill="#000000">/libs/fcc_sdk/engine/meetingclient</text>
<text text-anchor="start" x="1676.8959" y="-196.5" font-family="Helvetica,sans-Serif" font-size="10.00" fill="#000000">/src/headers/MeetingClient/proxies</text>
<text text-anchor="middle" x="1754.4325" y="-186.5" font-family="Helvetica,sans-Serif" font-size="10.00" fill="#000000">/MeetingBroadcastFeatureImpl.hxx</text>
</a>
</g>
</g>
<!-- Node6&#45;&gt;Node19 -->
<g id="edge32" class="edge">
<title>Node6&#45;&gt;Node19</title>
<path fill="none" stroke="#191970" d="M1254.9713,-473.416C1320.2774,-462.706 1393.9795,-447.2658 1421.4325,-429 1490.8209,-382.8327 1460.4018,-323.1455 1528.4325,-275 1577.7193,-240.1196 1601.4814,-255.9555 1659.4325,-239 1662.4989,-238.1028 1665.6182,-237.1813 1668.7668,-236.2435"/>
<polygon fill="#191970" stroke="#191970" points="1254.302,-469.9787 1244.9877,-475.0278 1255.4177,-476.8892 1254.302,-469.9787"/>
</g>
<!-- Node20 -->
<g id="node16" class="node">
<title>Node20</title>
<g id="a_node16"><a xlink:href="_meeting_chat_feature_impl_8hxx.html" target="_top" xlink:title=" ">
<polygon fill="none" stroke="#000000" points="442.4526,-180.5 442.4526,-238.5 612.4125,-238.5 612.4125,-180.5 442.4526,-180.5"/>
<text text-anchor="start" x="450.4526" y="-226.5" font-family="Helvetica,sans-Serif" font-size="10.00" fill="#000000">/Users/oskryp/Projects</text>
<text text-anchor="start" x="450.4526" y="-216.5" font-family="Helvetica,sans-Serif" font-size="10.00" fill="#000000">/freesee&#45;native&#45;client</text>
<text text-anchor="start" x="450.4526" y="-206.5" font-family="Helvetica,sans-Serif" font-size="10.00" fill="#000000">/libs/fcc_sdk/engine/meetingclient</text>
<text text-anchor="start" x="450.4526" y="-196.5" font-family="Helvetica,sans-Serif" font-size="10.00" fill="#000000">/src/headers/MeetingClient/proxies</text>
<text text-anchor="middle" x="527.4325" y="-186.5" font-family="Helvetica,sans-Serif" font-size="10.00" fill="#000000">/MeetingChatFeatureImpl.hxx</text>
</a>
</g>
</g>
<!-- Node6&#45;&gt;Node20 -->
<g id="edge33" class="edge">
<title>Node6&#45;&gt;Node20</title>
<path fill="none" stroke="#191970" d="M1022.0409,-477.3331C932.2805,-466.6351 816.4331,-449.5808 773.4325,-429 676.8859,-382.7911 590.126,-286.9687 550.3709,-238.6714"/>
<polygon fill="#191970" stroke="#191970" points="1021.6794,-480.8146 1032.0203,-478.5093 1022.4988,-473.8627 1021.6794,-480.8146"/>
</g>
<!-- Node21 -->
<g id="node17" class="node">
<title>Node21</title>
<g id="a_node17"><a xlink:href="_meeting_screen_sharing_feature_impl_8hxx.html" target="_top" xlink:title=" ">
<polygon fill="none" stroke="#000000" points="630.3319,-180.5 630.3319,-238.5 822.5331,-238.5 822.5331,-180.5 630.3319,-180.5"/>
<text text-anchor="start" x="638.3319" y="-226.5" font-family="Helvetica,sans-Serif" font-size="10.00" fill="#000000">/Users/oskryp/Projects</text>
<text text-anchor="start" x="638.3319" y="-216.5" font-family="Helvetica,sans-Serif" font-size="10.00" fill="#000000">/freesee&#45;native&#45;client</text>
<text text-anchor="start" x="638.3319" y="-206.5" font-family="Helvetica,sans-Serif" font-size="10.00" fill="#000000">/libs/fcc_sdk/engine/meetingclient</text>
<text text-anchor="start" x="638.3319" y="-196.5" font-family="Helvetica,sans-Serif" font-size="10.00" fill="#000000">/src/headers/MeetingClient/proxies</text>
<text text-anchor="middle" x="726.4325" y="-186.5" font-family="Helvetica,sans-Serif" font-size="10.00" fill="#000000">/MeetingScreenSharingFeatureImpl.hxx</text>
</a>
</g>
</g>
<!-- Node6&#45;&gt;Node21 -->
<g id="edge34" class="edge">
<title>Node6&#45;&gt;Node21</title>
<path fill="none" stroke="#191970" d="M1022.0083,-477.8662C930.0741,-461.8893 807.3198,-423.9741 745.4325,-334 726.0404,-305.807 723.2574,-265.5559 724.0236,-238.526"/>
<polygon fill="#191970" stroke="#191970" points="1021.49,-481.328 1031.9306,-479.5267 1022.6455,-474.424 1021.49,-481.328"/>
</g>
<!-- Node22 -->
<g id="node18" class="node">
<title>Node22</title>
<g id="a_node18"><a xlink:href="_meeting_video_feature_impl_8hxx.html" target="_top" xlink:title=" ">
<polygon fill="none" stroke="#000000" points="1104.4526,-180.5 1104.4526,-238.5 1274.4125,-238.5 1274.4125,-180.5 1104.4526,-180.5"/>
<text text-anchor="start" x="1112.4526" y="-226.5" font-family="Helvetica,sans-Serif" font-size="10.00" fill="#000000">/Users/oskryp/Projects</text>
<text text-anchor="start" x="1112.4526" y="-216.5" font-family="Helvetica,sans-Serif" font-size="10.00" fill="#000000">/freesee&#45;native&#45;client</text>
<text text-anchor="start" x="1112.4526" y="-206.5" font-family="Helvetica,sans-Serif" font-size="10.00" fill="#000000">/libs/fcc_sdk/engine/meetingclient</text>
<text text-anchor="start" x="1112.4526" y="-196.5" font-family="Helvetica,sans-Serif" font-size="10.00" fill="#000000">/src/headers/MeetingClient/proxies</text>
<text text-anchor="middle" x="1189.4325" y="-186.5" font-family="Helvetica,sans-Serif" font-size="10.00" fill="#000000">/MeetingVideoFeatureImpl.hxx</text>
</a>
</g>
</g>
<!-- Node6&#45;&gt;Node22 -->
<g id="edge35" class="edge">
<title>Node6&#45;&gt;Node22</title>
<path fill="none" stroke="#191970" d="M1144.7041,-455.068C1154.8452,-399.391 1174.6621,-290.5924 1184.1386,-238.5649"/>
<polygon fill="#191970" stroke="#191970" points="1141.2179,-454.6763 1142.8692,-465.1417 1148.1046,-455.9307 1141.2179,-454.6763"/>
</g>
<!-- Node23 -->
<g id="node19" class="node">
<title>Node23</title>
<g id="a_node19"><a xlink:href="_meeting_vo_i_p_feature_impl_8hxx.html" target="_top" xlink:title=" ">
<polygon fill="none" stroke="#000000" points="1292.4526,-180.5 1292.4526,-238.5 1462.4125,-238.5 1462.4125,-180.5 1292.4526,-180.5"/>
<text text-anchor="start" x="1300.4526" y="-226.5" font-family="Helvetica,sans-Serif" font-size="10.00" fill="#000000">/Users/oskryp/Projects</text>
<text text-anchor="start" x="1300.4526" y="-216.5" font-family="Helvetica,sans-Serif" font-size="10.00" fill="#000000">/freesee&#45;native&#45;client</text>
<text text-anchor="start" x="1300.4526" y="-206.5" font-family="Helvetica,sans-Serif" font-size="10.00" fill="#000000">/libs/fcc_sdk/engine/meetingclient</text>
<text text-anchor="start" x="1300.4526" y="-196.5" font-family="Helvetica,sans-Serif" font-size="10.00" fill="#000000">/src/headers/MeetingClient/proxies</text>
<text text-anchor="middle" x="1377.4325" y="-186.5" font-family="Helvetica,sans-Serif" font-size="10.00" fill="#000000">/MeetingVoIPFeatureImpl.hxx</text>
</a>
</g>
</g>
<!-- Node6&#45;&gt;Node23 -->
<g id="edge36" class="edge">
<title>Node6&#45;&gt;Node23</title>
<path fill="none" stroke="#191970" d="M1254.88,-469.9213C1299.9646,-459.8785 1344.1745,-446.1218 1358.4325,-429 1403.5923,-374.7696 1393.5273,-284.6961 1384.3824,-238.6119"/>
<polygon fill="#191970" stroke="#191970" points="1253.9852,-466.5339 1244.953,-472.0719 1255.4674,-473.3752 1253.9852,-466.5339"/>
</g>
<!-- Node24 -->
<g id="node20" class="node">
<title>Node24</title>
<g id="a_node20"><a xlink:href="_raw_r_t_messages_feature_impl_8hxx.html" target="_top" xlink:title=" ">
<polygon fill="none" stroke="#000000" points="1480.4526,-180.5 1480.4526,-238.5 1650.4125,-238.5 1650.4125,-180.5 1480.4526,-180.5"/>
<text text-anchor="start" x="1488.4526" y="-226.5" font-family="Helvetica,sans-Serif" font-size="10.00" fill="#000000">/Users/oskryp/Projects</text>
<text text-anchor="start" x="1488.4526" y="-216.5" font-family="Helvetica,sans-Serif" font-size="10.00" fill="#000000">/freesee&#45;native&#45;client</text>
<text text-anchor="start" x="1488.4526" y="-206.5" font-family="Helvetica,sans-Serif" font-size="10.00" fill="#000000">/libs/fcc_sdk/engine/meetingclient</text>
<text text-anchor="start" x="1488.4526" y="-196.5" font-family="Helvetica,sans-Serif" font-size="10.00" fill="#000000">/src/headers/MeetingClient/proxies</text>
<text text-anchor="middle" x="1565.4325" y="-186.5" font-family="Helvetica,sans-Serif" font-size="10.00" fill="#000000">/RawRTMessagesFeatureImpl.hxx</text>
</a>
</g>
</g>
<!-- Node6&#45;&gt;Node24 -->
<g id="edge37" class="edge">
<title>Node6&#45;&gt;Node24</title>
<path fill="none" stroke="#191970" d="M1254.7926,-469.8782C1308.058,-459.1359 1364.0373,-444.8053 1385.4325,-429 1449.5601,-381.627 1423.9843,-334.1594 1477.4325,-275 1489.5618,-261.5747 1504.8074,-249.0935 1519.1861,-238.7044"/>
<polygon fill="#191970" stroke="#191970" points="1254.0158,-466.464 1244.8873,-471.8418 1255.3771,-473.3304 1254.0158,-466.464"/>
</g>
<!-- Node8 -->
<g id="node4" class="node">
<title>Node8</title>
<g id="a_node4"><a xlink:href="_meeting_session_parameters_builder_8hxx.html" target="_top" xlink:title=" ">
<polygon fill="none" stroke="#000000" points="54.4306,-275.5 54.4306,-333.5 294.4345,-333.5 294.4345,-275.5 54.4306,-275.5"/>
<text text-anchor="start" x="62.4306" y="-321.5" font-family="Helvetica,sans-Serif" font-size="10.00" fill="#000000">/Users/oskryp/Projects</text>
<text text-anchor="start" x="62.4306" y="-311.5" font-family="Helvetica,sans-Serif" font-size="10.00" fill="#000000">/freesee&#45;native&#45;client</text>
<text text-anchor="start" x="62.4306" y="-301.5" font-family="Helvetica,sans-Serif" font-size="10.00" fill="#000000">/libs/fcc_sdk/engine/meetingclient</text>
<text text-anchor="start" x="62.4306" y="-291.5" font-family="Helvetica,sans-Serif" font-size="10.00" fill="#000000">/include/MeetingClient/MeetingSessionParameters</text>
<text text-anchor="middle" x="174.4325" y="-281.5" font-family="Helvetica,sans-Serif" font-size="10.00" fill="#000000">Builder.hxx</text>
</a>
</g>
</g>
<!-- Node7&#45;&gt;Node8 -->
<g id="edge3" class="edge">
<title>Node7&#45;&gt;Node8</title>
<path fill="none" stroke="#191970" d="M289.9878,-370.2351C269.5115,-358.5868 246.003,-345.2137 225.5583,-333.5835"/>
<polygon fill="#191970" stroke="#191970" points="288.4366,-373.3793 298.8593,-375.2817 291.8979,-367.2949 288.4366,-373.3793"/>
</g>
<!-- Node10 -->
<g id="node6" class="node">
<title>Node10</title>
<g id="a_node6"><a xlink:href="_free_see_a_p_i2_impl_8cxx.html" target="_top" xlink:title=" ">
<polygon fill="none" stroke="#000000" points="258.1298,-185.5 258.1298,-233.5 424.7353,-233.5 424.7353,-185.5 258.1298,-185.5"/>
<text text-anchor="start" x="266.1298" y="-221.5" font-family="Helvetica,sans-Serif" font-size="10.00" fill="#000000">/Users/oskryp/Projects</text>
<text text-anchor="start" x="266.1298" y="-211.5" font-family="Helvetica,sans-Serif" font-size="10.00" fill="#000000">/freesee&#45;native&#45;client</text>
<text text-anchor="start" x="266.1298" y="-201.5" font-family="Helvetica,sans-Serif" font-size="10.00" fill="#000000">/libs/fcc_sdk/engine/meetingclient</text>
<text text-anchor="middle" x="341.4325" y="-191.5" font-family="Helvetica,sans-Serif" font-size="10.00" fill="#000000">/src/proxies/FreeSeeAPI2Impl.cxx</text>
</a>
</g>
</g>
<!-- Node7&#45;&gt;Node10 -->
<g id="edge5" class="edge">
<title>Node7&#45;&gt;Node10</title>
<path fill="none" stroke="#191970" d="M341.4325,-365.3637C341.4325,-327.4003 341.4325,-267.039 341.4325,-233.6676"/>
<polygon fill="#191970" stroke="#191970" points="337.9326,-365.4363 341.4325,-375.4364 344.9326,-365.4364 337.9326,-365.4363"/>
</g>
<!-- Node9 -->
<g id="node5" class="node">
<title>Node9</title>
<g id="a_node5"><a xlink:href="_meeting_session_parameters_builder_8cxx.html" target="_top" xlink:title=" ">
<polygon fill="none" stroke="#000000" points="34.391,-185.5 34.391,-233.5 240.474,-233.5 240.474,-185.5 34.391,-185.5"/>
<text text-anchor="start" x="42.391" y="-221.5" font-family="Helvetica,sans-Serif" font-size="10.00" fill="#000000">/Users/oskryp/Projects</text>
<text text-anchor="start" x="42.391" y="-211.5" font-family="Helvetica,sans-Serif" font-size="10.00" fill="#000000">/freesee&#45;native&#45;client</text>
<text text-anchor="start" x="42.391" y="-201.5" font-family="Helvetica,sans-Serif" font-size="10.00" fill="#000000">/libs/fcc_sdk/engine/meetingclient</text>
<text text-anchor="middle" x="137.4325" y="-191.5" font-family="Helvetica,sans-Serif" font-size="10.00" fill="#000000">/src/MeetingSessionParametersBuilder.cxx</text>
</a>
</g>
</g>
<!-- Node8&#45;&gt;Node9 -->
<g id="edge4" class="edge">
<title>Node8&#45;&gt;Node9</title>
<path fill="none" stroke="#191970" d="M159.4611,-266.06C155.1818,-255.0724 150.6408,-243.4131 146.8006,-233.5531"/>
<polygon fill="#191970" stroke="#191970" points="156.2396,-267.4327 163.1303,-275.4807 162.7624,-264.8922 156.2396,-267.4327"/>
</g>
<!-- Node12&#45;&gt;Node13 -->
<g id="edge8" class="edge">
<title>Node12&#45;&gt;Node13</title>
<path fill="none" stroke="#191970" d="M1026.06,-361.4468C1030.8336,-352.1917 1035.8645,-342.4381 1040.3875,-333.669"/>
<polygon fill="#191970" stroke="#191970" points="1022.8739,-359.9888 1021.4004,-370.4807 1029.0951,-363.1977 1022.8739,-359.9888"/>
</g>
<!-- Node25 -->
<g id="node21" class="node">
<title>Node25</title>
<g id="a_node21"><a xlink:href="_active_speaker_manager2_8cxx.html" target="_top" xlink:title=" ">
<polygon fill="none" stroke="#000000" points="754.8393,-280.5 754.8393,-328.5 952.0258,-328.5 952.0258,-280.5 754.8393,-280.5"/>
<text text-anchor="start" x="762.8393" y="-316.5" font-family="Helvetica,sans-Serif" font-size="10.00" fill="#000000">/Users/oskryp/Projects</text>
<text text-anchor="start" x="762.8393" y="-306.5" font-family="Helvetica,sans-Serif" font-size="10.00" fill="#000000">/freesee&#45;native&#45;client</text>
<text text-anchor="start" x="762.8393" y="-296.5" font-family="Helvetica,sans-Serif" font-size="10.00" fill="#000000">/libs/fcc_sdk/engine/meetingclient</text>
<text text-anchor="middle" x="853.4325" y="-286.5" font-family="Helvetica,sans-Serif" font-size="10.00" fill="#000000">/src/proxies/ActiveSpeakerManager2.cxx</text>
</a>
</g>
</g>
<!-- Node12&#45;&gt;Node25 -->
<g id="edge29" class="edge">
<title>Node12&#45;&gt;Node25</title>
<path fill="none" stroke="#191970" d="M951.167,-365.1848C931.6161,-353.0453 910.0556,-339.6581 892.1707,-328.5531"/>
<polygon fill="#191970" stroke="#191970" points="949.3543,-368.1791 959.6961,-370.4807 953.0468,-362.2322 949.3543,-368.1791"/>
</g>
<!-- Node13&#45;&gt;Node10 -->
<g id="edge27" class="edge">
<title>Node13&#45;&gt;Node10</title>
<path fill="none" stroke="#191970" d="M960.2553,-274.9679C728.3842,-232.9289 661.1761,-282.6073 433.4325,-239 425.8545,-237.549 418.0294,-235.667 410.2906,-233.5556"/>
<polygon fill="#191970" stroke="#191970" points="959.8796,-278.4577 970.3497,-276.8367 961.1539,-271.5747 959.8796,-278.4577"/>
</g>
<!-- Node14 -->
<g id="node10" class="node">
<title>Node14</title>
<g id="a_node10"><a xlink:href="_meeting_attendee_impl_8hxx.html" target="_top" xlink:title=" ">
<polygon fill="none" stroke="#000000" points="878.4526,-180.5 878.4526,-238.5 1048.4125,-238.5 1048.4125,-180.5 878.4526,-180.5"/>
<text text-anchor="start" x="886.4526" y="-226.5" font-family="Helvetica,sans-Serif" font-size="10.00" fill="#000000">/Users/oskryp/Projects</text>
<text text-anchor="start" x="886.4526" y="-216.5" font-family="Helvetica,sans-Serif" font-size="10.00" fill="#000000">/freesee&#45;native&#45;client</text>
<text text-anchor="start" x="886.4526" y="-206.5" font-family="Helvetica,sans-Serif" font-size="10.00" fill="#000000">/libs/fcc_sdk/engine/meetingclient</text>
<text text-anchor="start" x="886.4526" y="-196.5" font-family="Helvetica,sans-Serif" font-size="10.00" fill="#000000">/src/headers/MeetingClient/proxies</text>
<text text-anchor="middle" x="963.4325" y="-186.5" font-family="Helvetica,sans-Serif" font-size="10.00" fill="#000000">/MeetingAttendeeImpl.hxx</text>
</a>
</g>
</g>
<!-- Node13&#45;&gt;Node14 -->
<g id="edge9" class="edge">
<title>Node13&#45;&gt;Node14</title>
<path fill="none" stroke="#191970" d="M1020.2555,-268.1759C1010.8026,-258.4148 1000.7033,-247.9861 991.6804,-238.669"/>
<polygon fill="#191970" stroke="#191970" points="1017.8586,-270.7319 1027.3296,-275.4807 1022.8871,-265.8622 1017.8586,-270.7319"/>
</g>
<!-- Node13&#45;&gt;Node15 -->
<g id="edge14" class="edge">
<title>Node13&#45;&gt;Node15</title>
<path fill="none" stroke="#191970" d="M960.6963,-274.1234C918.9624,-260.1915 877.5013,-245.3741 869.4325,-239 844.9577,-219.6656 854.9485,-200.4899 831.4325,-180 814.5418,-165.2828 793.7821,-153.2236 773.4376,-143.6458"/>
<polygon fill="#191970" stroke="#191970" points="959.8447,-277.5285 970.4382,-277.3586 962.0509,-270.8852 959.8447,-277.5285"/>
</g>
<!-- Node17 -->
<g id="node13" class="node">
<title>Node17</title>
<g id="a_node13"><a xlink:href="_meeting_client_impl_8cxx.html" target="_top" xlink:title=" ">
<polygon fill="none" stroke="#000000" points="1032.5756,-.5 1032.5756,-48.5 1200.2895,-48.5 1200.2895,-.5 1032.5756,-.5"/>
<text text-anchor="start" x="1040.5756" y="-36.5" font-family="Helvetica,sans-Serif" font-size="10.00" fill="#000000">/Users/oskryp/Projects</text>
<text text-anchor="start" x="1040.5756" y="-26.5" font-family="Helvetica,sans-Serif" font-size="10.00" fill="#000000">/freesee&#45;native&#45;client</text>
<text text-anchor="start" x="1040.5756" y="-16.5" font-family="Helvetica,sans-Serif" font-size="10.00" fill="#000000">/libs/fcc_sdk/engine/meetingclient</text>
<text text-anchor="middle" x="1116.4325" y="-6.5" font-family="Helvetica,sans-Serif" font-size="10.00" fill="#000000">/src/proxies/MeetingClientImpl.cxx</text>
</a>
</g>
</g>
<!-- Node13&#45;&gt;Node17 -->
<g id="edge28" class="edge">
<title>Node13&#45;&gt;Node17</title>
<path fill="none" stroke="#191970" d="M1063.9708,-265.3082C1076.7785,-206.5184 1100.5864,-97.2364 1111.1495,-48.7498"/>
<polygon fill="#191970" stroke="#191970" points="1060.4969,-264.8116 1061.788,-275.3275 1067.3365,-266.3017 1060.4969,-264.8116"/>
</g>
<!-- Node13&#45;&gt;Node19 -->
<g id="edge15" class="edge">
<title>Node13&#45;&gt;Node19</title>
<path fill="none" stroke="#191970" d="M1150.7514,-299.8579C1270.5335,-292.7252 1481.9348,-275.8228 1659.4325,-239 1662.4763,-238.3686 1665.5617,-237.6801 1668.6679,-236.9457"/>
<polygon fill="#191970" stroke="#191970" points="1150.293,-296.3786 1140.5146,-300.4569 1150.702,-303.3667 1150.293,-296.3786"/>
</g>
<!-- Node13&#45;&gt;Node20 -->
<g id="edge17" class="edge">
<title>Node13&#45;&gt;Node20</title>
<path fill="none" stroke="#191970" d="M960.3165,-274.9405C810.7795,-245.1803 767.0165,-269.2384 621.4325,-239 618.5018,-238.3913 615.5326,-237.7279 612.5437,-237.0203"/>
<polygon fill="#191970" stroke="#191970" points="959.8238,-278.412 970.3214,-276.9797 961.2219,-271.553 959.8238,-278.412"/>
</g>
<!-- Node13&#45;&gt;Node21 -->
<g id="edge19" class="edge">
<title>Node13&#45;&gt;Node21</title>
<path fill="none" stroke="#191970" d="M960.5652,-274.771C909.8438,-259.8153 862.7039,-246.5966 822.6757,-235.571"/>
<polygon fill="#191970" stroke="#191970" points="959.8337,-278.2045 970.4157,-277.6842 961.8189,-271.4919 959.8337,-278.2045"/>
</g>
<!-- Node13&#45;&gt;Node22 -->
<g id="edge21" class="edge">
<title>Node13&#45;&gt;Node22</title>
<path fill="none" stroke="#191970" d="M1104.651,-269.6063C1118.991,-259.4399 1134.5026,-248.4429 1148.2889,-238.669"/>
<polygon fill="#191970" stroke="#191970" points="1102.4987,-266.8418 1096.3651,-275.4807 1106.5472,-272.5523 1102.4987,-266.8418"/>
</g>
<!-- Node13&#45;&gt;Node23 -->
<g id="edge23" class="edge">
<title>Node13&#45;&gt;Node23</title>
<path fill="none" stroke="#191970" d="M1150.2837,-277.8094C1191.2963,-266.1244 1239.7976,-252.1126 1283.4325,-239 1286.381,-238.114 1289.3796,-237.2067 1292.4067,-236.2855"/>
<polygon fill="#191970" stroke="#191970" points="1149.231,-274.4699 1140.5707,-280.5732 1151.1468,-281.2027 1149.231,-274.4699"/>
</g>
<!-- Node13&#45;&gt;Node24 -->
<g id="edge25" class="edge">
<title>Node13&#45;&gt;Node24</title>
<path fill="none" stroke="#191970" d="M1150.7287,-293.5703C1235.551,-282.878 1362.6705,-264.4812 1471.4325,-239 1474.3469,-238.3172 1477.302,-237.5899 1480.2788,-236.8274"/>
<polygon fill="#191970" stroke="#191970" points="1150.0872,-290.1231 1140.5982,-294.836 1150.955,-297.0691 1150.0872,-290.1231"/>
</g>
<!-- Node14&#45;&gt;Node15 -->
<g id="edge10" class="edge">
<title>Node14&#45;&gt;Node15</title>
<path fill="none" stroke="#191970" d="M870.4317,-177.1371C839.0907,-166.2309 804.3331,-154.1357 773.7843,-143.5052"/>
<polygon fill="#191970" stroke="#191970" points="869.4453,-180.4996 880.0401,-180.4807 871.7459,-173.8885 869.4453,-180.4996"/>
</g>
<!-- Node18 -->
<g id="node14" class="node">
<title>Node18</title>
<g id="a_node14"><a xlink:href="_meeting_attendee_impl_8cxx.html" target="_top" xlink:title=" ">
<polygon fill="none" stroke="#000000" points="869.3417,-90.5 869.3417,-138.5 1051.5234,-138.5 1051.5234,-90.5 869.3417,-90.5"/>
<text text-anchor="start" x="877.3417" y="-126.5" font-family="Helvetica,sans-Serif" font-size="10.00" fill="#000000">/Users/oskryp/Projects</text>
<text text-anchor="start" x="877.3417" y="-116.5" font-family="Helvetica,sans-Serif" font-size="10.00" fill="#000000">/freesee&#45;native&#45;client</text>
<text text-anchor="start" x="877.3417" y="-106.5" font-family="Helvetica,sans-Serif" font-size="10.00" fill="#000000">/libs/fcc_sdk/engine/meetingclient</text>
<text text-anchor="middle" x="960.4325" y="-96.5" font-family="Helvetica,sans-Serif" font-size="10.00" fill="#000000">/src/proxies/MeetingAttendeeImpl.cxx</text>
</a>
</g>
</g>
<!-- Node14&#45;&gt;Node18 -->
<g id="edge13" class="edge">
<title>Node14&#45;&gt;Node18</title>
<path fill="none" stroke="#191970" d="M962.1976,-170.3932C961.8568,-159.602 961.4972,-148.214 961.1921,-138.5531"/>
<polygon fill="#191970" stroke="#191970" points="958.7021,-170.5962 962.5161,-180.4807 965.6987,-170.3751 958.7021,-170.5962"/>
</g>
<!-- Node16 -->
<g id="node12" class="node">
<title>Node16</title>
<g id="a_node12"><a xlink:href="_meeting_attendee_feature_impl_8cxx.html" target="_top" xlink:title=" ">
<polygon fill="none" stroke="#000000" points="582.1103,-.5 582.1103,-48.5 798.7548,-48.5 798.7548,-.5 582.1103,-.5"/>
<text text-anchor="start" x="590.1103" y="-36.5" font-family="Helvetica,sans-Serif" font-size="10.00" fill="#000000">/Users/oskryp/Projects</text>
<text text-anchor="start" x="590.1103" y="-26.5" font-family="Helvetica,sans-Serif" font-size="10.00" fill="#000000">/freesee&#45;native&#45;client</text>
<text text-anchor="start" x="590.1103" y="-16.5" font-family="Helvetica,sans-Serif" font-size="10.00" fill="#000000">/libs/fcc_sdk/engine/meetingclient</text>
<text text-anchor="middle" x="690.4325" y="-6.5" font-family="Helvetica,sans-Serif" font-size="10.00" fill="#000000">/src/proxies/MeetingAttendeeFeatureImpl.cxx</text>
</a>
</g>
</g>
<!-- Node15&#45;&gt;Node16 -->
<g id="edge11" class="edge">
<title>Node15&#45;&gt;Node16</title>
<path fill="none" stroke="#191970" d="M690.4325,-74.7825C690.4325,-65.8703 690.4325,-56.6778 690.4325,-48.6294"/>
<polygon fill="#191970" stroke="#191970" points="686.9326,-75.0306 690.4325,-85.0306 693.9326,-75.0307 686.9326,-75.0306"/>
</g>
<!-- Node15&#45;&gt;Node17 -->
<g id="edge12" class="edge">
<title>Node15&#45;&gt;Node17</title>
<path fill="none" stroke="#191970" d="M785.5852,-85.9399C786.8746,-85.6205 788.1575,-85.307 789.4325,-85 871.2424,-65.3025 965.8926,-48.4233 1032.244,-37.5381"/>
<polygon fill="#191970" stroke="#191970" points="784.4194,-82.6254 775.5985,-88.4942 786.154,-89.4071 784.4194,-82.6254"/>
</g>
<!-- Node19&#45;&gt;Node17 -->
<g id="edge16" class="edge">
<title>Node19&#45;&gt;Node17</title>
<path fill="none" stroke="#191970" d="M1658.9416,-179.8494C1519.3033,-136.8019 1483.7717,-123.5945 1347.4325,-85 1298.8672,-71.2523 1244.2478,-56.897 1200.3174,-45.6215"/>
<polygon fill="#191970" stroke="#191970" points="1658.1472,-183.2669 1668.7344,-182.8646 1660.2071,-176.5768 1658.1472,-183.2669"/>
</g>
<!-- Node20&#45;&gt;Node17 -->
<g id="edge18" class="edge">
<title>Node20&#45;&gt;Node17</title>
<path fill="none" stroke="#191970" d="M622.7538,-179.89C695.8968,-163.0951 727.4435,-186.3509 784.4325,-144 808.5479,-126.0789 793.1593,-102.7067 817.4325,-85 851.074,-60.4594 956.2029,-43.2399 1032.3024,-33.6069"/>
<polygon fill="#191970" stroke="#191970" points="621.5041,-176.5941 612.6442,-182.4039 623.1934,-183.3872 621.5041,-176.5941"/>
</g>
<!-- Node21&#45;&gt;Node17 -->
<g id="edge20" class="edge">
<title>Node21&#45;&gt;Node17</title>
<path fill="none" stroke="#191970" d="M780.8712,-174.6097C793.5003,-165.3793 806.4479,-154.9197 817.4325,-144 840.4442,-121.1242 833.4081,-102.9589 860.4325,-85 888.484,-66.3586 969.1959,-49.114 1032.5729,-37.8452"/>
<polygon fill="#191970" stroke="#191970" points="778.743,-171.8286 772.6419,-180.4904 782.8129,-177.5239 778.743,-171.8286"/>
</g>
<!-- Node22&#45;&gt;Node17 -->
<g id="edge22" class="edge">
<title>Node22&#45;&gt;Node17</title>
<path fill="none" stroke="#191970" d="M1174.1459,-170.76C1159.6149,-133.9348 1138.2137,-79.699 1125.9681,-48.6655"/>
<polygon fill="#191970" stroke="#191970" points="1170.9392,-172.1689 1177.8655,-180.1862 1177.4506,-169.5995 1170.9392,-172.1689"/>
</g>
<!-- Node23&#45;&gt;Node17 -->
<g id="edge24" class="edge">
<title>Node23&#45;&gt;Node17</title>
<path fill="none" stroke="#191970" d="M1327.9714,-174.4413C1276.0777,-137.6584 1195.887,-80.8183 1150.6066,-48.723"/>
<polygon fill="#191970" stroke="#191970" points="1326.1818,-177.4629 1336.3642,-180.3902 1330.2297,-171.752 1326.1818,-177.4629"/>
</g>
<!-- Node24&#45;&gt;Node17 -->
<g id="edge26" class="edge">
<title>Node24&#45;&gt;Node17</title>
<path fill="none" stroke="#191970" d="M1485.52,-176.5739C1396.3553,-139.8357 1254.2289,-81.2758 1174.8773,-48.5808"/>
<polygon fill="#191970" stroke="#191970" points="1484.2031,-179.8167 1494.7824,-180.3902 1486.8698,-173.3445 1484.2031,-179.8167"/>
</g>
<!-- Node26&#45;&gt;Node13 -->
<g id="edge41" class="edge">
<title>Node26&#45;&gt;Node13</title>
<path fill="none" stroke="#191970" d="M1435.7324,-456.3075C1419.3463,-428.872 1392.4105,-391.1141 1358.4325,-370 1322.6055,-347.7369 1217.0527,-328.1803 1140.5932,-316.3627"/>
<polygon fill="#191970" stroke="#191970" points="1432.8332,-458.2848 1440.8799,-465.177 1438.8875,-454.7712 1432.8332,-458.2848"/>
</g>
<!-- Node27 -->
<g id="node23" class="node">
<title>Node27</title>
<g id="a_node23"><a xlink:href="_meeting_lobby_impl_8hxx.html" target="_top" xlink:title=" ">
<polygon fill="none" stroke="#000000" points="1519.1596,-370.5 1519.1596,-428.5 1719.7055,-428.5 1719.7055,-370.5 1519.1596,-370.5"/>
<text text-anchor="start" x="1527.1596" y="-416.5" font-family="Helvetica,sans-Serif" font-size="10.00" fill="#000000">/Users/oskryp/Projects</text>
<text text-anchor="start" x="1527.1596" y="-406.5" font-family="Helvetica,sans-Serif" font-size="10.00" fill="#000000">/freesee&#45;native&#45;client</text>
<text text-anchor="start" x="1527.1596" y="-396.5" font-family="Helvetica,sans-Serif" font-size="10.00" fill="#000000">/libs/fcc_sdk/engine/meetingclient</text>
<text text-anchor="start" x="1527.1596" y="-386.5" font-family="Helvetica,sans-Serif" font-size="10.00" fill="#000000">/src/headers/MeetingClient/MeetingLobby</text>
<text text-anchor="middle" x="1619.4325" y="-376.5" font-family="Helvetica,sans-Serif" font-size="10.00" fill="#000000">Impl.hxx</text>
</a>
</g>
</g>
<!-- Node26&#45;&gt;Node27 -->
<g id="edge39" class="edge">
<title>Node26&#45;&gt;Node27</title>
<path fill="none" stroke="#191970" d="M1506.9361,-460.492C1525.7281,-450.3036 1546.839,-438.8579 1565.6535,-428.6573"/>
<polygon fill="#191970" stroke="#191970" points="1505.0404,-457.5385 1497.9175,-465.3817 1508.3768,-463.6922 1505.0404,-457.5385"/>
</g>
<!-- Node28 -->
<g id="node24" class="node">
<title>Node28</title>
<g id="a_node24"><a xlink:href="_meeting_lobby_imp_8cxx.html" target="_top" xlink:title=" ">
<polygon fill="none" stroke="#000000" points="1536.9477,-280.5 1536.9477,-328.5 1701.9174,-328.5 1701.9174,-280.5 1536.9477,-280.5"/>
<text text-anchor="start" x="1544.9477" y="-316.5" font-family="Helvetica,sans-Serif" font-size="10.00" fill="#000000">/Users/oskryp/Projects</text>
<text text-anchor="start" x="1544.9477" y="-306.5" font-family="Helvetica,sans-Serif" font-size="10.00" fill="#000000">/freesee&#45;native&#45;client</text>
<text text-anchor="start" x="1544.9477" y="-296.5" font-family="Helvetica,sans-Serif" font-size="10.00" fill="#000000">/libs/fcc_sdk/engine/meetingclient</text>
<text text-anchor="middle" x="1619.4325" y="-286.5" font-family="Helvetica,sans-Serif" font-size="10.00" fill="#000000">/src/MeetingLobbyImp.cxx</text>
</a>
</g>
</g>
<!-- Node27&#45;&gt;Node28 -->
<g id="edge40" class="edge">
<title>Node27&#45;&gt;Node28</title>
<path fill="none" stroke="#191970" d="M1619.4325,-360.3932C1619.4325,-349.602 1619.4325,-338.214 1619.4325,-328.5531"/>
<polygon fill="#191970" stroke="#191970" points="1615.9326,-360.4806 1619.4325,-370.4807 1622.9326,-360.4807 1615.9326,-360.4806"/>
</g>
</g>
</svg>
        <g id="navigator" transform="translate(0 0)" fill="#404254">
                <rect fill="#f2f5e9" fill-opacity="0.5" stroke="#606060" stroke-width=".5" x="0" y="0" width="60" height="60"/>
                <use id="zoomplus" xlink:href="#zoomPlus" x="17" y="9" onmousedown="handleZoom(evt,'in')"/>
                <use id="zoomminus" xlink:href="#zoomMin" x="42" y="9" onmousedown="handleZoom(evt,'out')"/>
                <use id="reset" xlink:href="#resetDef" x="30" y="36" onmousedown="handleReset()"/>
                <g id="arrowUp" xlink:href="#dirArrow" transform="translate(30 24)" onmousedown="handlePan(0,-1)">
                  <use xlink:href="#rim" fill="#404040">
                        <set attributeName="fill" to="#808080" begin="arrowUp.mouseover" end="arrowUp.mouseout"/>
                  </use>
                  <path fill="none" stroke="white" stroke-width="1.5" d="M0,-3.0v7 M-2.5,-0.5L0,-3.0L2.5,-0.5"/>
                </g>
                <g id="arrowRight" xlink:href="#dirArrow" transform="rotate(90) translate(36 -43)" onmousedown="handlePan(1,0)">
                  <use xlink:href="#rim" fill="#404040">
                        <set attributeName="fill" to="#808080" begin="arrowRight.mouseover" end="arrowRight.mouseout"/>
                  </use>
                  <path fill="none" stroke="white" stroke-width="1.5" d="M0,-3.0v7 M-2.5,-0.5L0,-3.0L2.5,-0.5"/>
                </g>
                <g id="arrowDown" xlink:href="#dirArrow" transform="rotate(180) translate(-30 -48)" onmousedown="handlePan(0,1)">
                  <use xlink:href="#rim" fill="#404040">
                        <set attributeName="fill" to="#808080" begin="arrowDown.mouseover" end="arrowDown.mouseout"/>
                  </use>
                  <path fill="none" stroke="white" stroke-width="1.5" d="M0,-3.0v7 M-2.5,-0.5L0,-3.0L2.5,-0.5"/>
                </g>
                <g id="arrowLeft" xlink:href="#dirArrow" transform="rotate(270) translate(-36 17)" onmousedown="handlePan(-1,0)">
                  <use xlink:href="#rim" fill="#404040">
                        <set attributeName="fill" to="#808080" begin="arrowLeft.mouseover" end="arrowLeft.mouseout"/>
                  </use>
                  <path fill="none" stroke="white" stroke-width="1.5" d="M0,-3.0v7 M-2.5,-0.5L0,-3.0L2.5,-0.5"/>
                </g>
        </g>
        <svg viewBox="0 0 15 15" width="100%" height="30px" preserveAspectRatio="xMaxYMin meet">
         <g id="arrow_out" transform="scale(0.3 0.3)">
          <a xlink:href="_module_version_8hxx__dep__incl_org.svg" target="_base">
           <rect id="button" ry="5" rx="5" y="6" x="6" height="38" width="38"
                fill="#f2f5e9" fill-opacity="0.5" stroke="#606060" stroke-width="1.0"/>
           <path id="arrow"
             d="M 11.500037,31.436501 C 11.940474,20.09759 22.043105,11.32322 32.158766,21.979434 L 37.068811,17.246167 C 37.068811,17.246167 37.088388,32 37.088388,32 L 22.160133,31.978069 C 22.160133,31.978069 26.997745,27.140456 26.997745,27.140456 C 18.528582,18.264221 13.291696,25.230495 11.500037,31.436501 z"
             style="fill:#404040;"/>
          </a>
         </g>
        </svg>
</svg>
