<?xml version="1.0" encoding="UTF-8" standalone="no"?>
<!DOCTYPE svg PUBLIC "-//W3C//DTD SVG 1.1//EN"
 "http://www.w3.org/Graphics/SVG/1.1/DTD/svg11.dtd">
<!-- Generated by graphviz version 2.40.1 (20161225.0304)
 -->
<!-- Title: /Users/oskryp/Projects/freesee&#45;native&#45;client/libs/fcc_sdk/engine/meetingclient/src/NetworkInspectorClient.cxx Pages: 1 -->
<svg width="1509pt" height="557pt"
 viewBox="0.00 0.00 1508.50 557.00" xmlns="http://www.w3.org/2000/svg" xmlns:xlink="http://www.w3.org/1999/xlink">
<g id="graph0" class="graph" transform="scale(1 1) rotate(0) translate(4 553)">
<title>/Users/oskryp/Projects/freesee&#45;native&#45;client/libs/fcc_sdk/engine/meetingclient/src/NetworkInspectorClient.cxx</title>
<!-- Node0 -->
<g id="node1" class="node">
<title>Node0</title>
<g id="a_node1"><a xlink:title=" ">
<polygon fill="#bfbfbf" stroke="#000000" points="564.4976,-500.5 564.4976,-548.5 729.4673,-548.5 729.4673,-500.5 564.4976,-500.5"/>
<text text-anchor="start" x="572.4976" y="-536.5" font-family="Helvetica,sans-Serif" font-size="10.00" fill="#000000">/Users/oskryp/Projects</text>
<text text-anchor="start" x="572.4976" y="-526.5" font-family="Helvetica,sans-Serif" font-size="10.00" fill="#000000">/freesee&#45;native&#45;client</text>
<text text-anchor="start" x="572.4976" y="-516.5" font-family="Helvetica,sans-Serif" font-size="10.00" fill="#000000">/libs/fcc_sdk/engine/meetingclient</text>
<text text-anchor="middle" x="646.9824" y="-506.5" font-family="Helvetica,sans-Serif" font-size="10.00" fill="#000000">/src/NetworkInspectorClient.cxx</text>
</a>
</g>
</g>
<!-- Node1 -->
<g id="node2" class="node">
<title>Node1</title>
<g id="a_node2"><a xlink:title=" ">
<polygon fill="none" stroke="#bfbfbf" points="341.1772,-445.5 341.1772,-463.5 422.7876,-463.5 422.7876,-445.5 341.1772,-445.5"/>
<text text-anchor="middle" x="381.9824" y="-451.5" font-family="Helvetica,sans-Serif" font-size="10.00" fill="#000000">boost/bind.hpp</text>
</a>
</g>
</g>
<!-- Node0&#45;&gt;Node1 -->
<g id="edge1" class="edge">
<title>Node0&#45;&gt;Node1</title>
<path fill="none" stroke="#191970" d="M564.2248,-502.6395C518.6943,-490.6126 463.9967,-476.1642 426.4802,-466.2541"/>
<polygon fill="#191970" stroke="#191970" points="426.9383,-462.7552 416.3761,-463.5851 425.1506,-469.523 426.9383,-462.7552"/>
</g>
<!-- Node2 -->
<g id="node3" class="node">
<title>Node2</title>
<g id="a_node3"><a xlink:href="_network_inspector_client_8hxx.html" target="_top" xlink:title=" ">
<polygon fill="none" stroke="#000000" points="367.1255,-385.5 367.1255,-403.5 504.8394,-403.5 504.8394,-385.5 367.1255,-385.5"/>
<text text-anchor="middle" x="435.9824" y="-391.5" font-family="Helvetica,sans-Serif" font-size="10.00" fill="#000000">NetworkInspectorClient.hxx</text>
</a>
</g>
</g>
<!-- Node0&#45;&gt;Node2 -->
<g id="edge2" class="edge">
<title>Node0&#45;&gt;Node2</title>
<path fill="none" stroke="#191970" d="M564.2876,-510.4747C531.9031,-501.5864 496.2903,-487.1945 469.9824,-464 454.7556,-450.5752 445.6578,-428.7804 440.7592,-413.1762"/>
<polygon fill="#191970" stroke="#191970" points="444.1204,-412.2 438.0149,-403.5412 437.3882,-414.1175 444.1204,-412.2"/>
</g>
<!-- Node29 -->
<g id="node30" class="node">
<title>Node29</title>
<g id="a_node30"><a xlink:href="_network_inspector_controller_8hxx.html" target="_top" xlink:title=" ">
<polygon fill="none" stroke="#000000" points="478.5073,-445.5 478.5073,-463.5 633.4575,-463.5 633.4575,-445.5 478.5073,-445.5"/>
<text text-anchor="middle" x="555.9824" y="-451.5" font-family="Helvetica,sans-Serif" font-size="10.00" fill="#000000">NetworkInspectorController.hxx</text>
</a>
</g>
</g>
<!-- Node0&#45;&gt;Node29 -->
<g id="edge31" class="edge">
<title>Node0&#45;&gt;Node29</title>
<path fill="none" stroke="#191970" d="M615.6654,-500.41C602.5553,-490.3253 587.6997,-478.8979 576.0892,-469.9668"/>
<polygon fill="#191970" stroke="#191970" points="577.9861,-467.0102 567.9258,-463.6872 573.7181,-472.5586 577.9861,-467.0102"/>
</g>
<!-- Node30 -->
<g id="node31" class="node">
<title>Node30</title>
<g id="a_node31"><a xlink:href="_thread_descriptor_8hxx.html" target="_top" xlink:title=" ">
<polygon fill="none" stroke="#000000" points="666.4604,-445.5 666.4604,-463.5 777.5044,-463.5 777.5044,-445.5 666.4604,-445.5"/>
<text text-anchor="middle" x="721.9824" y="-451.5" font-family="Helvetica,sans-Serif" font-size="10.00" fill="#000000">ThreadDescriptor.hxx</text>
</a>
</g>
</g>
<!-- Node0&#45;&gt;Node30 -->
<g id="edge36" class="edge">
<title>Node0&#45;&gt;Node30</title>
<path fill="none" stroke="#191970" d="M672.7932,-500.41C683.2804,-490.6219 695.1229,-479.5689 704.5597,-470.7612"/>
<polygon fill="#191970" stroke="#191970" points="707.2165,-473.0692 712.1389,-463.6872 702.4402,-467.9518 707.2165,-473.0692"/>
</g>
<!-- Node36 -->
<g id="node37" class="node">
<title>Node36</title>
<g id="a_node37"><a xlink:title=" ">
<polygon fill="none" stroke="#bfbfbf" points="795.5171,-445.5 795.5171,-463.5 860.4478,-463.5 860.4478,-445.5 795.5171,-445.5"/>
<text text-anchor="middle" x="827.9824" y="-451.5" font-family="Helvetica,sans-Serif" font-size="10.00" fill="#000000">Logger.hxx</text>
</a>
</g>
</g>
<!-- Node0&#45;&gt;Node36 -->
<g id="edge46" class="edge">
<title>Node0&#45;&gt;Node36</title>
<path fill="none" stroke="#191970" d="M709.2724,-500.41C738.084,-489.2674 771.134,-476.4856 795.0329,-467.2429"/>
<polygon fill="#191970" stroke="#191970" points="796.6116,-470.385 804.6759,-463.5136 794.0867,-463.8563 796.6116,-470.385"/>
</g>
<!-- Node37 -->
<g id="node38" class="node">
<title>Node37</title>
<g id="a_node38"><a xlink:title=" ">
<polygon fill="none" stroke="#bfbfbf" points="878.2017,-445.5 878.2017,-463.5 929.7632,-463.5 929.7632,-445.5 878.2017,-445.5"/>
<text text-anchor="middle" x="903.9824" y="-451.5" font-family="Helvetica,sans-Serif" font-size="10.00" fill="#000000">sstream</text>
</a>
</g>
</g>
<!-- Node0&#45;&gt;Node37 -->
<g id="edge47" class="edge">
<title>Node0&#45;&gt;Node37</title>
<path fill="none" stroke="#191970" d="M729.7135,-501.9662C776.4572,-489.2345 832.4954,-473.9712 868.1678,-464.2549"/>
<polygon fill="#191970" stroke="#191970" points="869.3792,-467.5526 878.1079,-461.5475 867.5396,-460.7986 869.3792,-467.5526"/>
</g>
<!-- Node3 -->
<g id="node4" class="node">
<title>Node3</title>
<g id="a_node4"><a xlink:title=" ">
<polygon fill="none" stroke="#bfbfbf" points="128.458,-320.5 128.458,-338.5 209.5068,-338.5 209.5068,-320.5 128.458,-320.5"/>
<text text-anchor="middle" x="168.9824" y="-326.5" font-family="Helvetica,sans-Serif" font-size="10.00" fill="#000000">boost/asio.hpp</text>
</a>
</g>
</g>
<!-- Node2&#45;&gt;Node3 -->
<g id="edge3" class="edge">
<title>Node2&#45;&gt;Node3</title>
<path fill="none" stroke="#191970" d="M393.5982,-385.4723C349.5347,-375.9022 278.6529,-359.9885 217.9824,-344 214.8083,-343.1635 211.5281,-342.2659 208.2389,-341.3424"/>
<polygon fill="#191970" stroke="#191970" points="209.0183,-337.9249 198.4407,-338.529 207.0864,-344.653 209.0183,-337.9249"/>
</g>
<!-- Node4 -->
<g id="node5" class="node">
<title>Node4</title>
<g id="a_node5"><a xlink:title=" ">
<polygon fill="none" stroke="#bfbfbf" points="227.2783,-315.5 227.2783,-343.5 336.6865,-343.5 336.6865,-315.5 227.2783,-315.5"/>
<text text-anchor="start" x="235.2783" y="-331.5" font-family="Helvetica,sans-Serif" font-size="10.00" fill="#000000">boost/enable_shared</text>
<text text-anchor="middle" x="281.9824" y="-321.5" font-family="Helvetica,sans-Serif" font-size="10.00" fill="#000000">_from_this.hpp</text>
</a>
</g>
</g>
<!-- Node2&#45;&gt;Node4 -->
<g id="edge4" class="edge">
<title>Node2&#45;&gt;Node4</title>
<path fill="none" stroke="#191970" d="M414.5694,-385.462C391.4768,-375.7152 354.1016,-359.9399 324.9101,-347.6188"/>
<polygon fill="#191970" stroke="#191970" points="325.9306,-344.2506 315.3566,-343.5865 323.2086,-350.6997 325.9306,-344.2506"/>
</g>
<!-- Node5 -->
<g id="node6" class="node">
<title>Node5</title>
<g id="a_node6"><a xlink:title=" ">
<polygon fill="none" stroke="#bfbfbf" points="0,-320.5 0,-338.5 109.9648,-338.5 109.9648,-320.5 0,-320.5"/>
<text text-anchor="middle" x="54.9824" y="-326.5" font-family="Helvetica,sans-Serif" font-size="10.00" fill="#000000">boost/shared_ptr.hpp</text>
</a>
</g>
</g>
<!-- Node2&#45;&gt;Node5 -->
<g id="edge5" class="edge">
<title>Node2&#45;&gt;Node5</title>
<path fill="none" stroke="#191970" d="M371.4117,-385.4658C307.2029,-376.1881 205.9899,-360.7684 118.9824,-344 113.8697,-343.0147 108.5427,-341.919 103.2408,-340.7838"/>
<polygon fill="#191970" stroke="#191970" points="103.6564,-337.2919 93.1391,-338.5706 102.1583,-344.1297 103.6564,-337.2919"/>
</g>
<!-- Node6 -->
<g id="node7" class="node">
<title>Node6</title>
<g id="a_node7"><a xlink:title=" ">
<polygon fill="none" stroke="#bfbfbf" points="625.6724,-320.5 625.6724,-338.5 742.2925,-338.5 742.2925,-320.5 625.6724,-320.5"/>
<text text-anchor="middle" x="683.9824" y="-326.5" font-family="Helvetica,sans-Serif" font-size="10.00" fill="#000000">boost/thread/locks.hpp</text>
</a>
</g>
</g>
<!-- Node2&#45;&gt;Node6 -->
<g id="edge6" class="edge">
<title>Node2&#45;&gt;Node6</title>
<path fill="none" stroke="#191970" d="M470.4658,-385.462C514.5762,-373.9008 591.0472,-353.858 639.5006,-341.1585"/>
<polygon fill="#191970" stroke="#191970" points="640.6072,-344.4868 649.3931,-338.5658 638.8324,-337.7155 640.6072,-344.4868"/>
</g>
<!-- Node7 -->
<g id="node8" class="node">
<title>Node7</title>
<g id="a_node8"><a xlink:title=" ">
<polygon fill="none" stroke="#bfbfbf" points="797.5073,-315.5 797.5073,-343.5 902.4575,-343.5 902.4575,-315.5 797.5073,-315.5"/>
<text text-anchor="start" x="805.5073" y="-331.5" font-family="Helvetica,sans-Serif" font-size="10.00" fill="#000000">boost/thread/shared</text>
<text text-anchor="middle" x="849.9824" y="-321.5" font-family="Helvetica,sans-Serif" font-size="10.00" fill="#000000">_mutex.hpp</text>
</a>
</g>
</g>
<!-- Node2&#45;&gt;Node7 -->
<g id="edge7" class="edge">
<title>Node2&#45;&gt;Node7</title>
<path fill="none" stroke="#191970" d="M493.5473,-385.462C570.8905,-373.3188 707.8312,-351.8184 787.5746,-339.2983"/>
<polygon fill="#191970" stroke="#191970" points="788.1473,-342.7514 797.4834,-337.7426 787.0615,-335.8361 788.1473,-342.7514"/>
</g>
<!-- Node8 -->
<g id="node9" class="node">
<title>Node8</title>
<g id="a_node9"><a xlink:title=" ">
<polygon fill="none" stroke="#bfbfbf" points="354.9209,-320.5 354.9209,-338.5 407.0439,-338.5 407.0439,-320.5 354.9209,-320.5"/>
<text text-anchor="middle" x="380.9824" y="-326.5" font-family="Helvetica,sans-Serif" font-size="10.00" fill="#000000">ostream</text>
</a>
</g>
</g>
<!-- Node2&#45;&gt;Node8 -->
<g id="edge8" class="edge">
<title>Node2&#45;&gt;Node8</title>
<path fill="none" stroke="#191970" d="M428.3349,-385.462C419.8932,-375.4854 406.1072,-359.1929 395.5815,-346.7535"/>
<polygon fill="#191970" stroke="#191970" points="398.0525,-344.2552 388.9212,-338.8821 392.7088,-348.7768 398.0525,-344.2552"/>
</g>
<!-- Node9 -->
<g id="node10" class="node">
<title>Node9</title>
<g id="a_node10"><a xlink:title=" ">
<polygon fill="none" stroke="#bfbfbf" points="642.7559,-5.5 642.7559,-23.5 683.209,-23.5 683.209,-5.5 642.7559,-5.5"/>
<text text-anchor="middle" x="662.9824" y="-11.5" font-family="Helvetica,sans-Serif" font-size="10.00" fill="#000000">string</text>
</a>
</g>
</g>
<!-- Node2&#45;&gt;Node9 -->
<g id="edge9" class="edge">
<title>Node2&#45;&gt;Node9</title>
<path fill="none" stroke="#191970" d="M435.8598,-385.4034C435.5928,-364.7833 434.9824,-312.9042 434.9824,-269.5 434.9824,-269.5 434.9824,-269.5 434.9824,-144.5 434.9824,-54.476 570.782,-25.9761 632.772,-17.6561"/>
<polygon fill="#191970" stroke="#191970" points="633.2614,-21.1223 642.7489,-16.4068 632.3915,-14.1765 633.2614,-21.1223"/>
</g>
<!-- Node10 -->
<g id="node11" class="node">
<title>Node10</title>
<g id="a_node11"><a xlink:href="_i_network_inspector_notifications_delegate_8hxx.html" target="_top" xlink:title=" ">
<polygon fill="none" stroke="#000000" points="462.7856,-315.5 462.7856,-343.5 607.1792,-343.5 607.1792,-315.5 462.7856,-315.5"/>
<text text-anchor="start" x="470.7856" y="-331.5" font-family="Helvetica,sans-Serif" font-size="10.00" fill="#000000">Delegates/INetworkInspector</text>
<text text-anchor="middle" x="534.9824" y="-321.5" font-family="Helvetica,sans-Serif" font-size="10.00" fill="#000000">NotificationsDelegate.hxx</text>
</a>
</g>
</g>
<!-- Node2&#45;&gt;Node10 -->
<g id="edge10" class="edge">
<title>Node2&#45;&gt;Node10</title>
<path fill="none" stroke="#191970" d="M449.7479,-385.462C463.9021,-376.1689 486.4029,-361.3956 504.7324,-349.3611"/>
<polygon fill="#191970" stroke="#191970" points="506.9023,-352.1235 513.3406,-343.7093 503.0603,-346.272 506.9023,-352.1235"/>
</g>
<!-- Node11 -->
<g id="node12" class="node">
<title>Node11</title>
<g id="a_node12"><a xlink:title=" ">
<polygon fill="none" stroke="#bfbfbf" points="773.1821,-260.5 773.1821,-278.5 884.7827,-278.5 884.7827,-260.5 773.1821,-260.5"/>
<text text-anchor="middle" x="828.9824" y="-266.5" font-family="Helvetica,sans-Serif" font-size="10.00" fill="#000000">NetworkInspector.hxx</text>
</a>
</g>
</g>
<!-- Node10&#45;&gt;Node11 -->
<g id="edge11" class="edge">
<title>Node10&#45;&gt;Node11</title>
<path fill="none" stroke="#191970" d="M603.9124,-315.4327C656.0428,-304.7938 726.6265,-290.389 774.7619,-280.5654"/>
<polygon fill="#191970" stroke="#191970" points="775.5798,-283.9707 784.678,-278.5417 774.18,-277.1121 775.5798,-283.9707"/>
</g>
<!-- Node12 -->
<g id="node13" class="node">
<title>Node12</title>
<g id="a_node13"><a xlink:href="_notifications_8hxx.html" target="_top" xlink:title=" ">
<polygon fill="none" stroke="#000000" points="666.5786,-260.5 666.5786,-278.5 755.3862,-278.5 755.3862,-260.5 666.5786,-260.5"/>
<text text-anchor="middle" x="710.9824" y="-266.5" font-family="Helvetica,sans-Serif" font-size="10.00" fill="#000000">Notifications.hxx</text>
</a>
</g>
</g>
<!-- Node10&#45;&gt;Node12 -->
<g id="edge12" class="edge">
<title>Node10&#45;&gt;Node12</title>
<path fill="none" stroke="#191970" d="M576.2466,-315.4327C606.1482,-305.2389 646.1916,-291.5878 674.838,-281.822"/>
<polygon fill="#191970" stroke="#191970" points="676.1243,-285.0813 684.46,-278.5417 673.8655,-278.4557 676.1243,-285.0813"/>
</g>
<!-- Node13 -->
<g id="node14" class="node">
<title>Node13</title>
<g id="a_node14"><a xlink:title=" ">
<polygon fill="none" stroke="#bfbfbf" points="463.3423,-195.5 463.3423,-223.5 576.6226,-223.5 576.6226,-195.5 463.3423,-195.5"/>
<text text-anchor="start" x="471.3423" y="-211.5" font-family="Helvetica,sans-Serif" font-size="10.00" fill="#000000">boost/date_time/posix</text>
<text text-anchor="middle" x="519.9824" y="-201.5" font-family="Helvetica,sans-Serif" font-size="10.00" fill="#000000">_time/posix_time.hpp</text>
</a>
</g>
</g>
<!-- Node12&#45;&gt;Node13 -->
<g id="edge13" class="edge">
<title>Node12&#45;&gt;Node13</title>
<path fill="none" stroke="#191970" d="M681.9736,-260.3873C653.4519,-251.4276 609.222,-237.5334 574.1809,-226.5257"/>
<polygon fill="#191970" stroke="#191970" points="575.1512,-223.1619 564.5619,-223.504 573.0533,-229.8402 575.1512,-223.1619"/>
</g>
<!-- Node14 -->
<g id="node15" class="node">
<title>Node14</title>
<g id="a_node15"><a xlink:title=" ">
<polygon fill="none" stroke="#bfbfbf" points="594.2559,-200.5 594.2559,-218.5 629.709,-218.5 629.709,-200.5 594.2559,-200.5"/>
<text text-anchor="middle" x="611.9824" y="-206.5" font-family="Helvetica,sans-Serif" font-size="10.00" fill="#000000">map</text>
</a>
</g>
</g>
<!-- Node12&#45;&gt;Node14 -->
<g id="edge14" class="edge">
<title>Node12&#45;&gt;Node14</title>
<path fill="none" stroke="#191970" d="M695.9465,-260.3873C679.8626,-250.6395 654.1416,-235.051 635.4016,-223.6934"/>
<polygon fill="#191970" stroke="#191970" points="637.2016,-220.6917 626.8355,-218.5019 633.5734,-226.6781 637.2016,-220.6917"/>
</g>
<!-- Node15 -->
<g id="node16" class="node">
<title>Node15</title>
<g id="a_node16"><a xlink:title=" ">
<polygon fill="none" stroke="#bfbfbf" points="647.3667,-200.5 647.3667,-218.5 690.5981,-218.5 690.5981,-200.5 647.3667,-200.5"/>
<text text-anchor="middle" x="668.9824" y="-206.5" font-family="Helvetica,sans-Serif" font-size="10.00" fill="#000000">vector</text>
</a>
</g>
</g>
<!-- Node12&#45;&gt;Node15 -->
<g id="edge15" class="edge">
<title>Node12&#45;&gt;Node15</title>
<path fill="none" stroke="#191970" d="M704.6035,-260.3873C698.4363,-251.5769 688.929,-237.9951 681.2873,-227.0784"/>
<polygon fill="#191970" stroke="#191970" points="684.0233,-224.8837 675.4213,-218.6985 678.2887,-228.8979 684.0233,-224.8837"/>
</g>
<!-- Node16 -->
<g id="node17" class="node">
<title>Node16</title>
<g id="a_node17"><a xlink:title=" ">
<polygon fill="none" stroke="#bfbfbf" points="708.2954,-200.5 708.2954,-218.5 797.6694,-218.5 797.6694,-200.5 708.2954,-200.5"/>
<text text-anchor="middle" x="752.9824" y="-206.5" font-family="Helvetica,sans-Serif" font-size="10.00" fill="#000000">FSSnapshot.hxx</text>
</a>
</g>
</g>
<!-- Node12&#45;&gt;Node16 -->
<g id="edge16" class="edge">
<title>Node12&#45;&gt;Node16</title>
<path fill="none" stroke="#191970" d="M717.3613,-260.3873C723.5286,-251.5769 733.0358,-237.9951 740.6775,-227.0784"/>
<polygon fill="#191970" stroke="#191970" points="743.6761,-228.8979 746.5435,-218.6985 737.9415,-224.8837 743.6761,-228.8979"/>
</g>
<!-- Node17 -->
<g id="node18" class="node">
<title>Node17</title>
<g id="a_node18"><a xlink:href="macros_8hxx.html" target="_top" xlink:title=" ">
<polygon fill="none" stroke="#000000" points="815.4604,-200.5 815.4604,-218.5 946.5044,-218.5 946.5044,-200.5 815.4604,-200.5"/>
<text text-anchor="middle" x="880.9824" y="-206.5" font-family="Helvetica,sans-Serif" font-size="10.00" fill="#000000">MeetingClient/macros.hxx</text>
</a>
</g>
</g>
<!-- Node12&#45;&gt;Node17 -->
<g id="edge17" class="edge">
<title>Node12&#45;&gt;Node17</title>
<path fill="none" stroke="#191970" d="M736.8018,-260.3873C765.9269,-250.1078 813.4554,-233.3331 845.9219,-221.8743"/>
<polygon fill="#191970" stroke="#191970" points="847.2121,-225.1306 855.4771,-218.5019 844.8823,-218.5297 847.2121,-225.1306"/>
</g>
<!-- Node18 -->
<g id="node19" class="node">
<title>Node18</title>
<g id="a_node19"><a xlink:href="_f_s_base_8hxx.html" target="_top" xlink:title=" ">
<polygon fill="none" stroke="#000000" points="964.2905,-195.5 964.2905,-223.5 1083.6743,-223.5 1083.6743,-195.5 964.2905,-195.5"/>
<text text-anchor="start" x="972.2905" y="-211.5" font-family="Helvetica,sans-Serif" font-size="10.00" fill="#000000">MeetingClient/transport</text>
<text text-anchor="middle" x="1023.9824" y="-201.5" font-family="Helvetica,sans-Serif" font-size="10.00" fill="#000000">/FSBase.hxx</text>
</a>
</g>
</g>
<!-- Node12&#45;&gt;Node18 -->
<g id="edge18" class="edge">
<title>Node12&#45;&gt;Node18</title>
<path fill="none" stroke="#191970" d="M755.5965,-261.361C811.3098,-251.1736 904.5039,-234.0493 953.8165,-224.3942"/>
<polygon fill="#191970" stroke="#191970" points="954.7989,-227.7679 963.9305,-222.3952 953.4416,-220.9007 954.7989,-227.7679"/>
</g>
<!-- Node19 -->
<g id="node20" class="node">
<title>Node19</title>
<g id="a_node20"><a xlink:href="_meeting_types_8hxx.html" target="_top" xlink:title=" ">
<polygon fill="none" stroke="#000000" points="1060.0713,-130.5 1060.0713,-158.5 1163.8936,-158.5 1163.8936,-130.5 1060.0713,-130.5"/>
<text text-anchor="start" x="1068.0713" y="-146.5" font-family="Helvetica,sans-Serif" font-size="10.00" fill="#000000">MeetingClient/types</text>
<text text-anchor="middle" x="1111.9824" y="-136.5" font-family="Helvetica,sans-Serif" font-size="10.00" fill="#000000">/MeetingTypes.hxx</text>
</a>
</g>
</g>
<!-- Node12&#45;&gt;Node19 -->
<g id="edge19" class="edge">
<title>Node12&#45;&gt;Node19</title>
<path fill="none" stroke="#191970" d="M755.4796,-261.2964C758.3537,-260.837 761.2067,-260.4002 763.9824,-260 836.7774,-249.5058 1037.8151,-272.6395 1092.9824,-224 1108.3927,-210.4132 1112.4497,-186.7684 1113.0661,-168.7869"/>
<polygon fill="#191970" stroke="#191970" points="1116.5662,-168.7247 1113.0839,-158.7185 1109.5662,-168.7122 1116.5662,-168.7247"/>
</g>
<!-- Node24 -->
<g id="node25" class="node">
<title>Node24</title>
<g id="a_node25"><a xlink:href="_conference_attribute_definitions_8hxx.html" target="_top" xlink:title=" ">
<polygon fill="none" stroke="#000000" points="1140.1724,-195.5 1140.1724,-223.5 1271.7925,-223.5 1271.7925,-195.5 1140.1724,-195.5"/>
<text text-anchor="start" x="1148.1724" y="-211.5" font-family="Helvetica,sans-Serif" font-size="10.00" fill="#000000">MeetingClient/Conference</text>
<text text-anchor="middle" x="1205.9824" y="-201.5" font-family="Helvetica,sans-Serif" font-size="10.00" fill="#000000">AttributeDefinitions.hxx</text>
</a>
</g>
</g>
<!-- Node12&#45;&gt;Node24 -->
<g id="edge25" class="edge">
<title>Node12&#45;&gt;Node24</title>
<path fill="none" stroke="#191970" d="M755.4751,-261.2644C758.3503,-260.8128 761.2048,-260.3865 763.9824,-260 924.1225,-237.7199 965.8641,-246.4356 1125.9824,-224 1127.2798,-223.8182 1128.5883,-223.6305 1129.9053,-223.4377"/>
<polygon fill="#191970" stroke="#191970" points="1130.7758,-226.8451 1140.1287,-221.8679 1129.7133,-219.9262 1130.7758,-226.8451"/>
</g>
<!-- Node25 -->
<g id="node26" class="node">
<title>Node25</title>
<g id="a_node26"><a xlink:href="_meeting_session_parameters_8hxx.html" target="_top" xlink:title=" ">
<polygon fill="none" stroke="#000000" points="1289.4458,-195.5 1289.4458,-223.5 1440.519,-223.5 1440.519,-195.5 1289.4458,-195.5"/>
<text text-anchor="start" x="1297.4458" y="-211.5" font-family="Helvetica,sans-Serif" font-size="10.00" fill="#000000">MeetingClient/MeetingSession</text>
<text text-anchor="middle" x="1364.9824" y="-201.5" font-family="Helvetica,sans-Serif" font-size="10.00" fill="#000000">Parameters.hxx</text>
</a>
</g>
</g>
<!-- Node12&#45;&gt;Node25 -->
<g id="edge26" class="edge">
<title>Node12&#45;&gt;Node25</title>
<path fill="none" stroke="#191970" d="M755.4625,-261.1681C758.3407,-260.7401 761.1994,-260.3453 763.9824,-260 989.3272,-232.0411 1050.585,-251.0695 1279.0768,-224.1551"/>
<polygon fill="#191970" stroke="#191970" points="1279.5129,-227.6279 1289.0272,-222.9666 1278.6826,-220.6774 1279.5129,-227.6279"/>
</g>
<!-- Node20 -->
<g id="node21" class="node">
<title>Node20</title>
<g id="a_node21"><a xlink:href="_common_data_types_8hxx.html" target="_top" xlink:title=" ">
<polygon fill="none" stroke="#000000" points="690.2363,-65.5 690.2363,-93.5 815.7285,-93.5 815.7285,-65.5 690.2363,-65.5"/>
<text text-anchor="start" x="698.2363" y="-81.5" font-family="Helvetica,sans-Serif" font-size="10.00" fill="#000000">MeetingClient/types</text>
<text text-anchor="middle" x="752.9824" y="-71.5" font-family="Helvetica,sans-Serif" font-size="10.00" fill="#000000">/CommonDataTypes.hxx</text>
</a>
</g>
</g>
<!-- Node19&#45;&gt;Node20 -->
<g id="edge20" class="edge">
<title>Node19&#45;&gt;Node20</title>
<path fill="none" stroke="#191970" d="M1059.7807,-135.0484C998.151,-123.8899 895.2727,-105.2629 825.8214,-92.6881"/>
<polygon fill="#191970" stroke="#191970" points="826.2895,-89.216 815.8259,-90.8783 825.0423,-96.104 826.2895,-89.216"/>
</g>
<!-- Node22 -->
<g id="node23" class="node">
<title>Node22</title>
<g id="a_node23"><a xlink:href="strong__identity_8hxx.html" target="_top" xlink:title=" ">
<polygon fill="none" stroke="#000000" points="1061.2725,-65.5 1061.2725,-93.5 1162.6924,-93.5 1162.6924,-65.5 1061.2725,-65.5"/>
<text text-anchor="start" x="1069.2725" y="-81.5" font-family="Helvetica,sans-Serif" font-size="10.00" fill="#000000">MeetingClient/utils</text>
<text text-anchor="middle" x="1111.9824" y="-71.5" font-family="Helvetica,sans-Serif" font-size="10.00" fill="#000000">/strong_identity.hxx</text>
</a>
</g>
</g>
<!-- Node19&#45;&gt;Node22 -->
<g id="edge23" class="edge">
<title>Node19&#45;&gt;Node22</title>
<path fill="none" stroke="#191970" d="M1111.9824,-130.396C1111.9824,-122.6448 1111.9824,-112.8122 1111.9824,-103.8601"/>
<polygon fill="#191970" stroke="#191970" points="1115.4825,-103.5765 1111.9824,-93.5765 1108.4825,-103.5765 1115.4825,-103.5765"/>
</g>
<!-- Node20&#45;&gt;Node9 -->
<g id="edge21" class="edge">
<title>Node20&#45;&gt;Node9</title>
<path fill="none" stroke="#191970" d="M733.4538,-65.396C718.76,-54.7838 698.6638,-40.2699 683.691,-29.4562"/>
<polygon fill="#191970" stroke="#191970" points="685.7029,-26.5919 675.5468,-23.5743 681.6044,-32.2666 685.7029,-26.5919"/>
</g>
<!-- Node21 -->
<g id="node22" class="node">
<title>Node21</title>
<g id="a_node22"><a xlink:title=" ">
<polygon fill="none" stroke="#bfbfbf" points="702.187,-5.5 702.187,-23.5 803.7778,-23.5 803.7778,-5.5 702.187,-5.5"/>
<text text-anchor="middle" x="752.9824" y="-11.5" font-family="Helvetica,sans-Serif" font-size="10.00" fill="#000000">CommonTypes.hxx</text>
</a>
</g>
</g>
<!-- Node20&#45;&gt;Node21 -->
<g id="edge22" class="edge">
<title>Node20&#45;&gt;Node21</title>
<path fill="none" stroke="#191970" d="M752.9824,-65.396C752.9824,-56.1723 752.9824,-44.0011 752.9824,-33.8738"/>
<polygon fill="#191970" stroke="#191970" points="756.4825,-33.5743 752.9824,-23.5743 749.4825,-33.5743 756.4825,-33.5743"/>
</g>
<!-- Node23 -->
<g id="node24" class="node">
<title>Node23</title>
<g id="a_node24"><a xlink:title=" ">
<polygon fill="none" stroke="#bfbfbf" points="1059.7832,-.5 1059.7832,-28.5 1164.1816,-28.5 1164.1816,-.5 1059.7832,-.5"/>
<text text-anchor="start" x="1067.7832" y="-16.5" font-family="Helvetica,sans-Serif" font-size="10.00" fill="#000000">boost/serialization</text>
<text text-anchor="middle" x="1111.9824" y="-6.5" font-family="Helvetica,sans-Serif" font-size="10.00" fill="#000000">/strong_typedef.hpp</text>
</a>
</g>
</g>
<!-- Node22&#45;&gt;Node23 -->
<g id="edge24" class="edge">
<title>Node22&#45;&gt;Node23</title>
<path fill="none" stroke="#191970" d="M1111.9824,-65.396C1111.9824,-57.6448 1111.9824,-47.8122 1111.9824,-38.8601"/>
<polygon fill="#191970" stroke="#191970" points="1115.4825,-38.5765 1111.9824,-28.5765 1108.4825,-38.5765 1115.4825,-38.5765"/>
</g>
<!-- Node25&#45;&gt;Node19 -->
<g id="edge27" class="edge">
<title>Node25&#45;&gt;Node19</title>
<path fill="none" stroke="#191970" d="M1310.3967,-195.476C1270.3209,-185.1798 1215.8255,-171.1791 1174.0858,-160.4554"/>
<polygon fill="#191970" stroke="#191970" points="1174.8635,-157.0416 1164.3071,-157.9431 1173.1216,-163.8214 1174.8635,-157.0416"/>
</g>
<!-- Node26 -->
<g id="node27" class="node">
<title>Node26</title>
<g id="a_node27"><a xlink:title=" ">
<polygon fill="none" stroke="#bfbfbf" points="1253.4185,-135.5 1253.4185,-153.5 1310.5464,-153.5 1310.5464,-135.5 1253.4185,-135.5"/>
<text text-anchor="middle" x="1281.9824" y="-141.5" font-family="Helvetica,sans-Serif" font-size="10.00" fill="#000000">algorithm</text>
</a>
</g>
</g>
<!-- Node25&#45;&gt;Node26 -->
<g id="edge28" class="edge">
<title>Node25&#45;&gt;Node26</title>
<path fill="none" stroke="#191970" d="M1346.9727,-195.396C1333.5484,-184.883 1315.2346,-170.5408 1301.4687,-159.7603"/>
<polygon fill="#191970" stroke="#191970" points="1303.6007,-156.9844 1293.5696,-153.5743 1299.2847,-162.4956 1303.6007,-156.9844"/>
</g>
<!-- Node27 -->
<g id="node28" class="node">
<title>Node27</title>
<g id="a_node28"><a xlink:title=" ">
<polygon fill="none" stroke="#bfbfbf" points="1328.0786,-135.5 1328.0786,-153.5 1401.8862,-153.5 1401.8862,-135.5 1328.0786,-135.5"/>
<text text-anchor="middle" x="1364.9824" y="-141.5" font-family="Helvetica,sans-Serif" font-size="10.00" fill="#000000">Printable.hxx</text>
</a>
</g>
</g>
<!-- Node25&#45;&gt;Node27 -->
<g id="edge29" class="edge">
<title>Node25&#45;&gt;Node27</title>
<path fill="none" stroke="#191970" d="M1364.9824,-195.396C1364.9824,-186.1723 1364.9824,-174.0011 1364.9824,-163.8738"/>
<polygon fill="#191970" stroke="#191970" points="1368.4825,-163.5743 1364.9824,-153.5743 1361.4825,-163.5743 1368.4825,-163.5743"/>
</g>
<!-- Node28 -->
<g id="node29" class="node">
<title>Node28</title>
<g id="a_node29"><a xlink:title=" ">
<polygon fill="none" stroke="#bfbfbf" points="1419.4629,-135.5 1419.4629,-153.5 1500.502,-153.5 1500.502,-135.5 1419.4629,-135.5"/>
<text text-anchor="middle" x="1459.9824" y="-141.5" font-family="Helvetica,sans-Serif" font-size="10.00" fill="#000000">VoIPClient.hxx</text>
</a>
</g>
</g>
<!-- Node25&#45;&gt;Node28 -->
<g id="edge30" class="edge">
<title>Node25&#45;&gt;Node28</title>
<path fill="none" stroke="#191970" d="M1385.596,-195.396C1401.1061,-184.7838 1422.3187,-170.2699 1438.1234,-159.4562"/>
<polygon fill="#191970" stroke="#191970" points="1440.4433,-162.1098 1446.72,-153.5743 1436.4905,-156.3326 1440.4433,-162.1098"/>
</g>
<!-- Node29&#45;&gt;Node2 -->
<g id="edge35" class="edge">
<title>Node29&#45;&gt;Node2</title>
<path fill="none" stroke="#191970" d="M537.757,-445.3873C517.907,-435.4623 485.9469,-419.4822 463.1388,-408.0782"/>
<polygon fill="#191970" stroke="#191970" points="464.4957,-404.8436 453.9862,-403.5019 461.3652,-411.1046 464.4957,-404.8436"/>
</g>
<!-- Node29&#45;&gt;Node5 -->
<g id="edge32" class="edge">
<title>Node29&#45;&gt;Node5</title>
<path fill="none" stroke="#191970" d="M514.9405,-445.4547C474.836,-436.5251 412.0968,-422.3135 357.9824,-409 264.8781,-386.094 156.3062,-357.0328 97.7279,-341.1581"/>
<polygon fill="#191970" stroke="#191970" points="98.6437,-337.78 88.0761,-338.5391 96.8105,-344.5358 98.6437,-337.78"/>
</g>
<!-- Node29&#45;&gt;Node10 -->
<g id="edge33" class="edge">
<title>Node29&#45;&gt;Node10</title>
<path fill="none" stroke="#191970" d="M554.404,-445.1047C551.1872,-425.9573 543.7822,-381.8799 539.1018,-354.0202"/>
<polygon fill="#191970" stroke="#191970" points="542.5066,-353.161 537.3981,-343.8791 535.6033,-354.3208 542.5066,-353.161"/>
</g>
<!-- Node29&#45;&gt;Node11 -->
<g id="edge34" class="edge">
<title>Node29&#45;&gt;Node11</title>
<path fill="none" stroke="#191970" d="M575.4898,-445.4543C611.725,-428.227 691.1688,-388.4409 750.9824,-344 774.7906,-326.3108 798.9968,-301.9916 813.9945,-286.0181"/>
<polygon fill="#191970" stroke="#191970" points="816.7239,-288.2218 820.9472,-278.5051 811.5863,-283.4674 816.7239,-288.2218"/>
</g>
<!-- Node30&#45;&gt;Node6 -->
<g id="edge37" class="edge">
<title>Node30&#45;&gt;Node6</title>
<path fill="none" stroke="#191970" d="M719.1792,-445.4399C716.3427,-436.2603 711.8377,-421.6492 707.9824,-409 701.6985,-388.3825 694.5691,-364.7331 689.7247,-348.6243"/>
<polygon fill="#191970" stroke="#191970" points="693.0044,-347.3764 686.7745,-338.8067 686.3006,-349.3909 693.0044,-347.3764"/>
</g>
<!-- Node30&#45;&gt;Node7 -->
<g id="edge38" class="edge">
<title>Node30&#45;&gt;Node7</title>
<path fill="none" stroke="#191970" d="M721.9083,-445.1187C722.2752,-429.7708 725.1154,-399.0954 740.9824,-380 753.1284,-365.3828 770.4384,-354.7731 787.6971,-347.1701"/>
<polygon fill="#191970" stroke="#191970" points="789.3256,-350.2851 797.2469,-343.2492 786.6668,-343.8096 789.3256,-350.2851"/>
</g>
<!-- Node31 -->
<g id="node32" class="node">
<title>Node31</title>
<g id="a_node32"><a xlink:title=" ">
<polygon fill="none" stroke="#bfbfbf" points="749.8867,-385.5 749.8867,-403.5 872.0781,-403.5 872.0781,-385.5 749.8867,-385.5"/>
<text text-anchor="middle" x="810.9824" y="-391.5" font-family="Helvetica,sans-Serif" font-size="10.00" fill="#000000">boost/thread/thread.hpp</text>
</a>
</g>
</g>
<!-- Node30&#45;&gt;Node31 -->
<g id="edge39" class="edge">
<title>Node30&#45;&gt;Node31</title>
<path fill="none" stroke="#191970" d="M735.4996,-445.3873C749.6959,-435.8168 772.2438,-420.6159 789.0038,-409.3171"/>
<polygon fill="#191970" stroke="#191970" points="791.2944,-411.994 797.6296,-403.5019 787.3814,-406.1897 791.2944,-411.994"/>
</g>
<!-- Node32 -->
<g id="node33" class="node">
<title>Node32</title>
<g id="a_node33"><a xlink:title=" ">
<polygon fill="none" stroke="#bfbfbf" points="889.6748,-385.5 889.6748,-403.5 996.29,-403.5 996.29,-385.5 889.6748,-385.5"/>
<text text-anchor="middle" x="942.9824" y="-391.5" font-family="Helvetica,sans-Serif" font-size="10.00" fill="#000000">boost/thread/tss.hpp</text>
</a>
</g>
</g>
<!-- Node30&#45;&gt;Node32 -->
<g id="edge40" class="edge">
<title>Node30&#45;&gt;Node32</title>
<path fill="none" stroke="#191970" d="M755.5476,-445.3873C794.2263,-434.8863 857.8716,-417.607 900.1049,-406.141"/>
<polygon fill="#191970" stroke="#191970" points="901.0919,-409.4998 909.8255,-403.5019 899.2578,-402.7443 901.0919,-409.4998"/>
</g>
<!-- Node33 -->
<g id="node34" class="node">
<title>Node33</title>
<g id="a_node34"><a xlink:href="_invalid_execution_thead_exception_8hxx.html" target="_top" xlink:title=" ">
<polygon fill="none" stroke="#000000" points="1113.7241,-380.5 1113.7241,-408.5 1254.2407,-408.5 1254.2407,-380.5 1113.7241,-380.5"/>
<text text-anchor="start" x="1121.7241" y="-396.5" font-family="Helvetica,sans-Serif" font-size="10.00" fill="#000000">Exceptions/InvalidExecution</text>
<text text-anchor="middle" x="1183.9824" y="-386.5" font-family="Helvetica,sans-Serif" font-size="10.00" fill="#000000">TheadException.hxx</text>
</a>
</g>
</g>
<!-- Node30&#45;&gt;Node33 -->
<g id="edge41" class="edge">
<title>Node30&#45;&gt;Node33</title>
<path fill="none" stroke="#191970" d="M777.6353,-446.2451C780.7961,-445.814 783.9287,-445.3959 786.9824,-445 924.732,-427.1413 962.5264,-429.7158 1103.0865,-409.222"/>
<polygon fill="#191970" stroke="#191970" points="1104.0034,-412.6248 1113.3872,-407.706 1102.9841,-405.6994 1104.0034,-412.6248"/>
</g>
<!-- Node35 -->
<g id="node36" class="node">
<title>Node35</title>
<g id="a_node36"><a xlink:href="_t_singleton_8hxx.html" target="_top" xlink:title=" ">
<polygon fill="none" stroke="#000000" points="1013.9087,-385.5 1013.9087,-403.5 1096.0562,-403.5 1096.0562,-385.5 1013.9087,-385.5"/>
<text text-anchor="middle" x="1054.9824" y="-391.5" font-family="Helvetica,sans-Serif" font-size="10.00" fill="#000000">TSingleton.hxx</text>
</a>
</g>
</g>
<!-- Node30&#45;&gt;Node35 -->
<g id="edge43" class="edge">
<title>Node30&#45;&gt;Node35</title>
<path fill="none" stroke="#191970" d="M777.7873,-446.3602C847.5139,-436.0445 962.8008,-418.4696 1004.9824,-409 1008.6367,-408.1796 1012.418,-407.2449 1016.1894,-406.2544"/>
<polygon fill="#191970" stroke="#191970" points="1017.341,-409.5678 1026.0556,-403.5423 1015.4855,-402.8181 1017.341,-409.5678"/>
</g>
<!-- Node34 -->
<g id="node35" class="node">
<title>Node34</title>
<g id="a_node35"><a xlink:title=" ">
<polygon fill="none" stroke="#bfbfbf" points="1090.5786,-320.5 1090.5786,-338.5 1149.3862,-338.5 1149.3862,-320.5 1090.5786,-320.5"/>
<text text-anchor="middle" x="1119.9824" y="-326.5" font-family="Helvetica,sans-Serif" font-size="10.00" fill="#000000">exception</text>
</a>
</g>
</g>
<!-- Node33&#45;&gt;Node34 -->
<g id="edge42" class="edge">
<title>Node33&#45;&gt;Node34</title>
<path fill="none" stroke="#191970" d="M1170.0954,-380.396C1160.1348,-370.2797 1146.683,-356.6178 1136.2242,-345.9956"/>
<polygon fill="#191970" stroke="#191970" points="1138.4272,-343.2444 1128.9171,-338.5743 1133.4392,-348.1556 1138.4272,-343.2444"/>
</g>
<!-- Node35&#45;&gt;Node7 -->
<g id="edge44" class="edge">
<title>Node35&#45;&gt;Node7</title>
<path fill="none" stroke="#191970" d="M1026.4781,-385.462C994.936,-375.4609 943.3765,-359.1127 904.1081,-346.6618"/>
<polygon fill="#191970" stroke="#191970" points="904.9993,-343.2727 894.4091,-343.5865 902.8836,-349.9453 904.9993,-343.2727"/>
</g>
<!-- Node35&#45;&gt;Node34 -->
<g id="edge45" class="edge">
<title>Node35&#45;&gt;Node34</title>
<path fill="none" stroke="#191970" d="M1064.0204,-385.462C1074.1889,-375.2936 1090.9185,-358.5639 1103.4423,-346.0402"/>
<polygon fill="#191970" stroke="#191970" points="1106.0041,-348.4281 1110.6003,-338.8821 1101.0543,-343.4784 1106.0041,-348.4281"/>
</g>
</g>
</svg>
