<?xml version="1.0" encoding="UTF-8" standalone="no"?>
<!DOCTYPE svg PUBLIC "-//W3C//DTD SVG 1.1//EN"
 "http://www.w3.org/Graphics/SVG/1.1/DTD/svg11.dtd">
<!-- Generated by graphviz version 2.40.1 (20161225.0304)
 -->
<!-- Title: /Users/oskryp/Projects/freesee&#45;native&#45;client/libs/fcc_sdk/engine/meetingclient/src/headers/MeetingClient/NotificationHandler.hxx Pages: 1 -->
<svg width="437pt" height="262pt"
 viewBox="0.00 0.00 437.14 262.00" xmlns="http://www.w3.org/2000/svg" xmlns:xlink="http://www.w3.org/1999/xlink">
<g id="graph0" class="graph" transform="scale(1 1) rotate(0) translate(4 258)">
<title>/Users/oskryp/Projects/freesee&#45;native&#45;client/libs/fcc_sdk/engine/meetingclient/src/headers/MeetingClient/NotificationHandler.hxx</title>
<!-- Node0 -->
<g id="node1" class="node">
<title>Node0</title>
<g id="a_node1"><a xlink:title=" ">
<polygon fill="#bfbfbf" stroke="#000000" points="75.02,-195.5 75.02,-253.5 262.2114,-253.5 262.2114,-195.5 75.02,-195.5"/>
<text text-anchor="start" x="83.02" y="-241.5" font-family="Helvetica,sans-Serif" font-size="10.00" fill="#000000">/Users/oskryp/Projects</text>
<text text-anchor="start" x="83.02" y="-231.5" font-family="Helvetica,sans-Serif" font-size="10.00" fill="#000000">/freesee&#45;native&#45;client</text>
<text text-anchor="start" x="83.02" y="-221.5" font-family="Helvetica,sans-Serif" font-size="10.00" fill="#000000">/libs/fcc_sdk/engine/meetingclient</text>
<text text-anchor="start" x="83.02" y="-211.5" font-family="Helvetica,sans-Serif" font-size="10.00" fill="#000000">/src/headers/MeetingClient/Notification</text>
<text text-anchor="middle" x="168.6157" y="-201.5" font-family="Helvetica,sans-Serif" font-size="10.00" fill="#000000">Handler.hxx</text>
</a>
</g>
</g>
<!-- Node1 -->
<g id="node2" class="node">
<title>Node1</title>
<g id="a_node2"><a xlink:title=" ">
<polygon fill="none" stroke="#bfbfbf" points="0,-135.5 0,-153.5 43.2314,-153.5 43.2314,-135.5 0,-135.5"/>
<text text-anchor="middle" x="21.6157" y="-141.5" font-family="Helvetica,sans-Serif" font-size="10.00" fill="#000000">vector</text>
</a>
</g>
</g>
<!-- Node0&#45;&gt;Node1 -->
<g id="edge1" class="edge">
<title>Node0&#45;&gt;Node1</title>
<path fill="none" stroke="#191970" d="M115.1295,-195.3919C91.9547,-182.7797 65.9063,-168.6037 47.1986,-158.4227"/>
<polygon fill="#191970" stroke="#191970" points="48.8512,-155.3373 38.3946,-153.6313 45.505,-161.4858 48.8512,-155.3373"/>
</g>
<!-- Node2 -->
<g id="node3" class="node">
<title>Node2</title>
<g id="a_node3"><a xlink:title=" ">
<polygon fill="none" stroke="#bfbfbf" points="60.7515,-135.5 60.7515,-153.5 158.48,-153.5 158.48,-135.5 60.7515,-135.5"/>
<text text-anchor="middle" x="109.6157" y="-141.5" font-family="Helvetica,sans-Serif" font-size="10.00" fill="#000000">boost/function.hpp</text>
</a>
</g>
</g>
<!-- Node0&#45;&gt;Node2 -->
<g id="edge2" class="edge">
<title>Node0&#45;&gt;Node2</title>
<path fill="none" stroke="#191970" d="M146.9813,-195.1652C138.7224,-183.9666 129.5761,-171.5649 122.3997,-161.8343"/>
<polygon fill="#191970" stroke="#191970" points="125.1973,-159.7307 116.445,-153.7601 119.5637,-163.8855 125.1973,-159.7307"/>
</g>
<!-- Node3 -->
<g id="node4" class="node">
<title>Node3</title>
<g id="a_node4"><a xlink:href="_meeting_types_8hxx.html" target="_top" xlink:title=" ">
<polygon fill="none" stroke="#000000" points="176.7046,-130.5 176.7046,-158.5 280.5269,-158.5 280.5269,-130.5 176.7046,-130.5"/>
<text text-anchor="start" x="184.7046" y="-146.5" font-family="Helvetica,sans-Serif" font-size="10.00" fill="#000000">MeetingClient/types</text>
<text text-anchor="middle" x="228.6157" y="-136.5" font-family="Helvetica,sans-Serif" font-size="10.00" fill="#000000">/MeetingTypes.hxx</text>
</a>
</g>
</g>
<!-- Node0&#45;&gt;Node3 -->
<g id="edge3" class="edge">
<title>Node0&#45;&gt;Node3</title>
<path fill="none" stroke="#191970" d="M190.6168,-195.1652C197.6403,-185.8005 205.2948,-175.5945 211.8812,-166.8127"/>
<polygon fill="#191970" stroke="#191970" points="214.8485,-168.6896 218.0486,-158.5895 209.2485,-164.4895 214.8485,-168.6896"/>
</g>
<!-- Node9 -->
<g id="node10" class="node">
<title>Node9</title>
<g id="a_node10"><a xlink:href="macros_8hxx.html" target="_top" xlink:title=" ">
<polygon fill="none" stroke="#000000" points="298.0938,-135.5 298.0938,-153.5 429.1377,-153.5 429.1377,-135.5 298.0938,-135.5"/>
<text text-anchor="middle" x="363.6157" y="-141.5" font-family="Helvetica,sans-Serif" font-size="10.00" fill="#000000">MeetingClient/macros.hxx</text>
</a>
</g>
</g>
<!-- Node0&#45;&gt;Node9 -->
<g id="edge9" class="edge">
<title>Node0&#45;&gt;Node9</title>
<path fill="none" stroke="#191970" d="M239.5668,-195.3919C271.2916,-182.3766 307.0758,-167.6959 332.0285,-157.4588"/>
<polygon fill="#191970" stroke="#191970" points="333.4348,-160.6651 341.3581,-153.6313 330.7779,-154.1889 333.4348,-160.6651"/>
</g>
<!-- Node4 -->
<g id="node5" class="node">
<title>Node4</title>
<g id="a_node5"><a xlink:href="_common_data_types_8hxx.html" target="_top" xlink:title=" ">
<polygon fill="none" stroke="#000000" points="99.8696,-65.5 99.8696,-93.5 225.3618,-93.5 225.3618,-65.5 99.8696,-65.5"/>
<text text-anchor="start" x="107.8696" y="-81.5" font-family="Helvetica,sans-Serif" font-size="10.00" fill="#000000">MeetingClient/types</text>
<text text-anchor="middle" x="162.6157" y="-71.5" font-family="Helvetica,sans-Serif" font-size="10.00" fill="#000000">/CommonDataTypes.hxx</text>
</a>
</g>
</g>
<!-- Node3&#45;&gt;Node4 -->
<g id="edge4" class="edge">
<title>Node3&#45;&gt;Node4</title>
<path fill="none" stroke="#191970" d="M214.2947,-130.396C205.473,-121.7079 193.9958,-110.4046 184.0989,-100.6576"/>
<polygon fill="#191970" stroke="#191970" points="186.4896,-98.0997 176.9088,-93.5765 181.5777,-103.0871 186.4896,-98.0997"/>
</g>
<!-- Node7 -->
<g id="node8" class="node">
<title>Node7</title>
<g id="a_node8"><a xlink:href="strong__identity_8hxx.html" target="_top" xlink:title=" ">
<polygon fill="none" stroke="#000000" points="242.9058,-65.5 242.9058,-93.5 344.3257,-93.5 344.3257,-65.5 242.9058,-65.5"/>
<text text-anchor="start" x="250.9058" y="-81.5" font-family="Helvetica,sans-Serif" font-size="10.00" fill="#000000">MeetingClient/utils</text>
<text text-anchor="middle" x="293.6157" y="-71.5" font-family="Helvetica,sans-Serif" font-size="10.00" fill="#000000">/strong_identity.hxx</text>
</a>
</g>
</g>
<!-- Node3&#45;&gt;Node7 -->
<g id="edge7" class="edge">
<title>Node3&#45;&gt;Node7</title>
<path fill="none" stroke="#191970" d="M242.7198,-130.396C251.4078,-121.7079 262.7111,-110.4046 272.4581,-100.6576"/>
<polygon fill="#191970" stroke="#191970" points="274.943,-103.1225 279.5392,-93.5765 269.9932,-98.1727 274.943,-103.1225"/>
</g>
<!-- Node5 -->
<g id="node6" class="node">
<title>Node5</title>
<g id="a_node6"><a xlink:title=" ">
<polygon fill="none" stroke="#bfbfbf" points="58.3892,-5.5 58.3892,-23.5 98.8423,-23.5 98.8423,-5.5 58.3892,-5.5"/>
<text text-anchor="middle" x="78.6157" y="-11.5" font-family="Helvetica,sans-Serif" font-size="10.00" fill="#000000">string</text>
</a>
</g>
</g>
<!-- Node4&#45;&gt;Node5 -->
<g id="edge5" class="edge">
<title>Node4&#45;&gt;Node5</title>
<path fill="none" stroke="#191970" d="M144.389,-65.396C130.803,-54.883 112.2685,-40.5408 98.3368,-29.7603"/>
<polygon fill="#191970" stroke="#191970" points="100.3932,-26.9261 90.3425,-23.5743 96.1093,-32.4622 100.3932,-26.9261"/>
</g>
<!-- Node6 -->
<g id="node7" class="node">
<title>Node6</title>
<g id="a_node7"><a xlink:title=" ">
<polygon fill="none" stroke="#bfbfbf" points="116.8203,-5.5 116.8203,-23.5 218.4111,-23.5 218.4111,-5.5 116.8203,-5.5"/>
<text text-anchor="middle" x="167.6157" y="-11.5" font-family="Helvetica,sans-Serif" font-size="10.00" fill="#000000">CommonTypes.hxx</text>
</a>
</g>
</g>
<!-- Node4&#45;&gt;Node6 -->
<g id="edge6" class="edge">
<title>Node4&#45;&gt;Node6</title>
<path fill="none" stroke="#191970" d="M163.7006,-65.396C164.4178,-56.0732 165.3666,-43.739 166.1505,-33.5479"/>
<polygon fill="#191970" stroke="#191970" points="169.6403,-33.8133 166.9177,-23.5743 162.661,-33.2764 169.6403,-33.8133"/>
</g>
<!-- Node8 -->
<g id="node9" class="node">
<title>Node8</title>
<g id="a_node9"><a xlink:title=" ">
<polygon fill="none" stroke="#bfbfbf" points="241.4165,-.5 241.4165,-28.5 345.8149,-28.5 345.8149,-.5 241.4165,-.5"/>
<text text-anchor="start" x="249.4165" y="-16.5" font-family="Helvetica,sans-Serif" font-size="10.00" fill="#000000">boost/serialization</text>
<text text-anchor="middle" x="293.6157" y="-6.5" font-family="Helvetica,sans-Serif" font-size="10.00" fill="#000000">/strong_typedef.hpp</text>
</a>
</g>
</g>
<!-- Node7&#45;&gt;Node8 -->
<g id="edge8" class="edge">
<title>Node7&#45;&gt;Node8</title>
<path fill="none" stroke="#191970" d="M293.6157,-65.396C293.6157,-57.6448 293.6157,-47.8122 293.6157,-38.8601"/>
<polygon fill="#191970" stroke="#191970" points="297.1158,-38.5765 293.6157,-28.5765 290.1158,-38.5765 297.1158,-38.5765"/>
</g>
</g>
</svg>
