<?xml version="1.0" encoding="UTF-8" standalone="no"?>
<!DOCTYPE svg PUBLIC "-//W3C//DTD SVG 1.1//EN"
 "http://www.w3.org/Graphics/SVG/1.1/DTD/svg11.dtd">
<!-- Generated by graphviz version 2.40.1 (20161225.0304)
 -->
<!-- Title: /Users/oskryp/Projects/freesee&#45;native&#45;client/libs/fcc_sdk/engine/meetingclient/src/PhoneNumberUtils.cxx Pages: 1 -->
<svg width="580pt" height="222pt"
 viewBox="0.00 0.00 580.16 222.00" xmlns="http://www.w3.org/2000/svg" xmlns:xlink="http://www.w3.org/1999/xlink">
<g id="graph0" class="graph" transform="scale(1 1) rotate(0) translate(4 218)">
<title>/Users/oskryp/Projects/freesee&#45;native&#45;client/libs/fcc_sdk/engine/meetingclient/src/PhoneNumberUtils.cxx</title>
<!-- Node0 -->
<g id="node1" class="node">
<title>Node0</title>
<g id="a_node1"><a xlink:title=" ">
<polygon fill="#bfbfbf" stroke="#000000" points="278.2119,-165.5 278.2119,-213.5 443.1816,-213.5 443.1816,-165.5 278.2119,-165.5"/>
<text text-anchor="start" x="286.2119" y="-201.5" font-family="Helvetica,sans-Serif" font-size="10.00" fill="#000000">/Users/oskryp/Projects</text>
<text text-anchor="start" x="286.2119" y="-191.5" font-family="Helvetica,sans-Serif" font-size="10.00" fill="#000000">/freesee&#45;native&#45;client</text>
<text text-anchor="start" x="286.2119" y="-181.5" font-family="Helvetica,sans-Serif" font-size="10.00" fill="#000000">/libs/fcc_sdk/engine/meetingclient</text>
<text text-anchor="middle" x="360.6968" y="-171.5" font-family="Helvetica,sans-Serif" font-size="10.00" fill="#000000">/src/PhoneNumberUtils.cxx</text>
</a>
</g>
</g>
<!-- Node1 -->
<g id="node2" class="node">
<title>Node1</title>
<g id="a_node2"><a xlink:href="_phone_number_utils_8hxx.html" target="_top" xlink:title=" ">
<polygon fill="none" stroke="#000000" points="88.564,-110.5 88.564,-128.5 206.8296,-128.5 206.8296,-110.5 88.564,-110.5"/>
<text text-anchor="middle" x="147.6968" y="-116.5" font-family="Helvetica,sans-Serif" font-size="10.00" fill="#000000">PhoneNumberUtils.hxx</text>
</a>
</g>
</g>
<!-- Node0&#45;&gt;Node1 -->
<g id="edge1" class="edge">
<title>Node0&#45;&gt;Node1</title>
<path fill="none" stroke="#191970" d="M287.3943,-165.41C252.8834,-154.0684 213.2051,-141.0286 184.9754,-131.7512"/>
<polygon fill="#191970" stroke="#191970" points="185.7166,-128.3107 175.1237,-128.5136 183.5311,-134.9608 185.7166,-128.3107"/>
</g>
<!-- Node6 -->
<g id="node7" class="node">
<title>Node6</title>
<g id="a_node7"><a xlink:title=" ">
<polygon fill="none" stroke="#bfbfbf" points="225.165,-110.5 225.165,-128.5 356.2285,-128.5 356.2285,-110.5 225.165,-110.5"/>
<text text-anchor="middle" x="290.6968" y="-116.5" font-family="Helvetica,sans-Serif" font-size="10.00" fill="#000000">boost/algorithm/string.hpp</text>
</a>
</g>
</g>
<!-- Node0&#45;&gt;Node6 -->
<g id="edge6" class="edge">
<title>Node0&#45;&gt;Node6</title>
<path fill="none" stroke="#191970" d="M336.6067,-165.41C326.8187,-155.6219 315.7657,-144.5689 306.958,-135.7612"/>
<polygon fill="#191970" stroke="#191970" points="309.43,-133.2835 299.884,-128.6872 304.4802,-138.2332 309.43,-133.2835"/>
</g>
<!-- Node7 -->
<g id="node8" class="node">
<title>Node7</title>
<g id="a_node8"><a xlink:title=" ">
<polygon fill="none" stroke="#bfbfbf" points="374.5,-110.5 374.5,-128.5 488.8936,-128.5 488.8936,-110.5 374.5,-110.5"/>
<text text-anchor="middle" x="431.6968" y="-116.5" font-family="Helvetica,sans-Serif" font-size="10.00" fill="#000000">boost/lexical_cast.hpp</text>
</a>
</g>
</g>
<!-- Node0&#45;&gt;Node7 -->
<g id="edge7" class="edge">
<title>Node0&#45;&gt;Node7</title>
<path fill="none" stroke="#191970" d="M385.1309,-165.41C395.0589,-155.6219 406.2697,-144.5689 415.2033,-135.7612"/>
<polygon fill="#191970" stroke="#191970" points="417.7145,-138.2004 422.3783,-128.6872 412.8,-133.2156 417.7145,-138.2004"/>
</g>
<!-- Node8 -->
<g id="node9" class="node">
<title>Node8</title>
<g id="a_node9"><a xlink:title=" ">
<polygon fill="none" stroke="#bfbfbf" points="507.2314,-110.5 507.2314,-128.5 572.1621,-128.5 572.1621,-110.5 507.2314,-110.5"/>
<text text-anchor="middle" x="539.6968" y="-116.5" font-family="Helvetica,sans-Serif" font-size="10.00" fill="#000000">Logger.hxx</text>
</a>
</g>
</g>
<!-- Node0&#45;&gt;Node8 -->
<g id="edge8" class="edge">
<title>Node0&#45;&gt;Node8</title>
<path fill="none" stroke="#191970" d="M422.2984,-165.41C450.7917,-154.2674 483.4765,-141.4856 507.1113,-132.2429"/>
<polygon fill="#191970" stroke="#191970" points="508.6094,-135.4153 516.6478,-128.5136 506.0599,-128.896 508.6094,-135.4153"/>
</g>
<!-- Node2 -->
<g id="node3" class="node">
<title>Node2</title>
<g id="a_node3"><a xlink:href="_common_data_types_8hxx.html" target="_top" xlink:title=" ">
<polygon fill="none" stroke="#000000" points="0,-55.5 0,-73.5 149.3936,-73.5 149.3936,-55.5 0,-55.5"/>
<text text-anchor="middle" x="74.6968" y="-61.5" font-family="Helvetica,sans-Serif" font-size="10.00" fill="#000000">types/CommonDataTypes.hxx</text>
</a>
</g>
</g>
<!-- Node1&#45;&gt;Node2 -->
<g id="edge2" class="edge">
<title>Node1&#45;&gt;Node2</title>
<path fill="none" stroke="#191970" d="M135.6423,-110.4179C124.6134,-102.1084 108.0736,-89.6469 95.0061,-79.8015"/>
<polygon fill="#191970" stroke="#191970" points="97.1062,-77.0016 87.0131,-73.7795 92.8939,-82.5924 97.1062,-77.0016"/>
</g>
<!-- Node5 -->
<g id="node6" class="node">
<title>Node5</title>
<g id="a_node6"><a xlink:title=" ">
<polygon fill="none" stroke="#bfbfbf" points="167.3892,-55.5 167.3892,-73.5 274.0044,-73.5 274.0044,-55.5 167.3892,-55.5"/>
<text text-anchor="middle" x="220.6968" y="-61.5" font-family="Helvetica,sans-Serif" font-size="10.00" fill="#000000">boost/thread/tss.hpp</text>
</a>
</g>
</g>
<!-- Node1&#45;&gt;Node5 -->
<g id="edge5" class="edge">
<title>Node1&#45;&gt;Node5</title>
<path fill="none" stroke="#191970" d="M159.7512,-110.4179C170.7801,-102.1084 187.32,-89.6469 200.3874,-79.8015"/>
<polygon fill="#191970" stroke="#191970" points="202.4997,-82.5924 208.3804,-73.7795 198.2874,-77.0016 202.4997,-82.5924"/>
</g>
<!-- Node3 -->
<g id="node4" class="node">
<title>Node3</title>
<g id="a_node4"><a xlink:title=" ">
<polygon fill="none" stroke="#bfbfbf" points="10.4702,-.5 10.4702,-18.5 50.9233,-18.5 50.9233,-.5 10.4702,-.5"/>
<text text-anchor="middle" x="30.6968" y="-6.5" font-family="Helvetica,sans-Serif" font-size="10.00" fill="#000000">string</text>
</a>
</g>
</g>
<!-- Node2&#45;&gt;Node3 -->
<g id="edge3" class="edge">
<title>Node2&#45;&gt;Node3</title>
<path fill="none" stroke="#191970" d="M67.4311,-55.4179C61.2267,-47.6624 52.1288,-36.29 44.5396,-26.8035"/>
<polygon fill="#191970" stroke="#191970" points="47.1004,-24.4017 38.1203,-18.7795 41.6343,-28.7746 47.1004,-24.4017"/>
</g>
<!-- Node4 -->
<g id="node5" class="node">
<title>Node4</title>
<g id="a_node5"><a xlink:title=" ">
<polygon fill="none" stroke="#bfbfbf" points="68.9014,-.5 68.9014,-18.5 170.4922,-18.5 170.4922,-.5 68.9014,-.5"/>
<text text-anchor="middle" x="119.6968" y="-6.5" font-family="Helvetica,sans-Serif" font-size="10.00" fill="#000000">CommonTypes.hxx</text>
</a>
</g>
</g>
<!-- Node2&#45;&gt;Node4 -->
<g id="edge4" class="edge">
<title>Node2&#45;&gt;Node4</title>
<path fill="none" stroke="#191970" d="M82.1276,-55.4179C88.473,-47.6624 97.7777,-36.29 105.5394,-26.8035"/>
<polygon fill="#191970" stroke="#191970" points="108.4809,-28.7354 112.1045,-18.7795 103.0632,-24.3027 108.4809,-28.7354"/>
</g>
</g>
</svg>
