<?xml version="1.0" encoding="UTF-8" standalone="no"?>
<!DOCTYPE svg PUBLIC "-//W3C//DTD SVG 1.1//EN"
 "http://www.w3.org/Graphics/SVG/1.1/DTD/svg11.dtd">
<!-- Generated by graphviz version 2.40.1 (20161225.0304)
 -->
<!-- Title: /Users/oskryp/Projects/freesee&#45;native&#45;client/libs/fcc_sdk/engine/meetingclient/src/headers/MeetingClient/PresentationController.hxx Pages: 1 -->
<!--zoomable 457 -->
<svg id="main" version="1.1" xmlns="http://www.w3.org/2000/svg" xmlns:xlink="http://www.w3.org/1999/xlink" xml:space="preserve" onload="init(evt)">
<style type="text/css"><![CDATA[
.edge:hover path { stroke: red; }
.edge:hover polygon { stroke: red; fill: red; }
]]></style>
<script type="text/javascript"><![CDATA[
var edges = document.getElementsByTagName('g');
if (edges && edges.length) {
  for (var i=0;i<edges.length;i++) {
    if (edges[i].id.substr(0,4)=='edge') {
      edges[i].setAttribute('class','edge');
    }
  }
}
]]></script>
        <defs>
                <circle id="rim" cx="0" cy="0" r="7"/>
                <circle id="rim2" cx="0" cy="0" r="3.5"/>
                <g id="zoomPlus">
                        <use xlink:href="#rim" fill="#404040">
                                <set attributeName="fill" to="#808080" begin="zoomplus.mouseover" end="zoomplus.mouseout"/>
                        </use>
                        <path d="M-4,0h8M0,-4v8" fill="none" stroke="white" stroke-width="1.5" pointer-events="none"/>
                </g>
                <g id="zoomMin">
                        <use xlink:href="#rim" fill="#404040">
                                <set attributeName="fill" to="#808080" begin="zoomminus.mouseover" end="zoomminus.mouseout"/>
                        </use>
                        <path d="M-4,0h8" fill="none" stroke="white" stroke-width="1.5" pointer-events="none"/>
                </g>
                <g id="dirArrow">
                        <path fill="none" stroke="white" stroke-width="1.5" d="M0,-3.0v7 M-2.5,-0.5L0,-3.0L2.5,-0.5"/>
                </g>
               <g id="resetDef">
                       <use xlink:href="#rim2" fill="#404040">
                               <set attributeName="fill" to="#808080" begin="reset.mouseover" end="reset.mouseout"/>
                       </use>
               </g>
        </defs>

<script type="text/javascript">
var viewWidth = 1578;
var viewHeight = 457;
var sectionId = 'dynsection-0';
</script>
<script xlink:href="svgpan.js"/>
<svg id="graph" class="graph">
<g id="viewport">
<title>/Users/oskryp/Projects/freesee&#45;native&#45;client/libs/fcc_sdk/engine/meetingclient/src/headers/MeetingClient/PresentationController.hxx</title>
<!-- Node0 -->
<g id="node1" class="node">
<title>Node0</title>
<g id="a_node1"><a xlink:title=" ">
<polygon fill="#bfbfbf" stroke="#000000" points="595.7686,-390.5 595.7686,-448.5 789.6396,-448.5 789.6396,-390.5 595.7686,-390.5"/>
<text text-anchor="start" x="603.7686" y="-436.5" font-family="Helvetica,sans-Serif" font-size="10.00" fill="#000000">/Users/oskryp/Projects</text>
<text text-anchor="start" x="603.7686" y="-426.5" font-family="Helvetica,sans-Serif" font-size="10.00" fill="#000000">/freesee&#45;native&#45;client</text>
<text text-anchor="start" x="603.7686" y="-416.5" font-family="Helvetica,sans-Serif" font-size="10.00" fill="#000000">/libs/fcc_sdk/engine/meetingclient</text>
<text text-anchor="start" x="603.7686" y="-406.5" font-family="Helvetica,sans-Serif" font-size="10.00" fill="#000000">/src/headers/MeetingClient/Presentation</text>
<text text-anchor="middle" x="692.7041" y="-396.5" font-family="Helvetica,sans-Serif" font-size="10.00" fill="#000000">Controller.hxx</text>
</a>
</g>
</g>
<!-- Node1 -->
<g id="node2" class="node">
<title>Node1</title>
<g id="a_node2"><a xlink:title=" ">
<polygon fill="none" stroke="#bfbfbf" points="0,-325.5 0,-353.5 109.4082,-353.5 109.4082,-325.5 0,-325.5"/>
<text text-anchor="start" x="8" y="-341.5" font-family="Helvetica,sans-Serif" font-size="10.00" fill="#000000">boost/enable_shared</text>
<text text-anchor="middle" x="54.7041" y="-331.5" font-family="Helvetica,sans-Serif" font-size="10.00" fill="#000000">_from_this.hpp</text>
</a>
</g>
</g>
<!-- Node0&#45;&gt;Node1 -->
<g id="edge1" class="edge">
<title>Node0&#45;&gt;Node1</title>
<path fill="none" stroke="#191970" d="M595.6772,-411.0875C482.1189,-400.6048 288.6014,-380.7583 123.7041,-354 122.4128,-353.7904 121.109,-353.5731 119.796,-353.349"/>
<polygon fill="#191970" stroke="#191970" points="120.0677,-349.8418 109.6059,-351.5155 118.828,-356.7311 120.0677,-349.8418"/>
</g>
<!-- Node2 -->
<g id="node3" class="node">
<title>Node2</title>
<g id="a_node3"><a xlink:title=" ">
<polygon fill="none" stroke="#bfbfbf" points="990.7217,-200.5 990.7217,-218.5 1100.6865,-218.5 1100.6865,-200.5 990.7217,-200.5"/>
<text text-anchor="middle" x="1045.7041" y="-206.5" font-family="Helvetica,sans-Serif" font-size="10.00" fill="#000000">boost/shared_ptr.hpp</text>
</a>
</g>
</g>
<!-- Node0&#45;&gt;Node2 -->
<g id="edge2" class="edge">
<title>Node0&#45;&gt;Node2</title>
<path fill="none" stroke="#191970" d="M701.3278,-390.4362C714.5284,-346.8189 739.3065,-268.5948 749.7041,-260 830.1294,-193.5194 879.2048,-243.5398 981.7041,-224 987.0199,-222.9866 992.5664,-221.8501 998.075,-220.671"/>
<polygon fill="#191970" stroke="#191970" points="998.8724,-224.0794 1007.8915,-218.5202 997.3741,-217.2417 998.8724,-224.0794"/>
</g>
<!-- Node3 -->
<g id="node4" class="node">
<title>Node3</title>
<g id="a_node4"><a xlink:title=" ">
<polygon fill="none" stroke="#bfbfbf" points="1511.4775,-5.5 1511.4775,-23.5 1551.9307,-23.5 1551.9307,-5.5 1511.4775,-5.5"/>
<text text-anchor="middle" x="1531.7041" y="-11.5" font-family="Helvetica,sans-Serif" font-size="10.00" fill="#000000">string</text>
</a>
</g>
</g>
<!-- Node0&#45;&gt;Node3 -->
<g id="edge3" class="edge">
<title>Node0&#45;&gt;Node3</title>
<path fill="none" stroke="#191970" d="M789.9093,-413.4992C1018.247,-398.1051 1569.7041,-352.8194 1569.7041,-274.5 1569.7041,-274.5 1569.7041,-274.5 1569.7041,-144.5 1569.7041,-103.3507 1551.9467,-57.7111 1540.7096,-32.9495"/>
<polygon fill="#191970" stroke="#191970" points="1543.7807,-31.2551 1536.3636,-23.6895 1537.4439,-34.2291 1543.7807,-31.2551"/>
</g>
<!-- Node4 -->
<g id="node5" class="node">
<title>Node4</title>
<g id="a_node5"><a xlink:title=" ">
<polygon fill="none" stroke="#bfbfbf" points="606.6992,-330.5 606.6992,-348.5 702.709,-348.5 702.709,-330.5 606.6992,-330.5"/>
<text text-anchor="middle" x="654.7041" y="-336.5" font-family="Helvetica,sans-Serif" font-size="10.00" fill="#000000">Utils/HRClock.hxx</text>
</a>
</g>
</g>
<!-- Node0&#45;&gt;Node4 -->
<g id="edge4" class="edge">
<title>Node0&#45;&gt;Node4</title>
<path fill="none" stroke="#191970" d="M678.7701,-390.1652C673.6679,-379.4237 668.0399,-367.5753 663.5101,-358.0389"/>
<polygon fill="#191970" stroke="#191970" points="666.5547,-356.2911 659.1026,-348.7601 660.2318,-359.2946 666.5547,-356.2911"/>
</g>
<!-- Node5 -->
<g id="node6" class="node">
<title>Node5</title>
<g id="a_node6"><a xlink:href="_i_broadcaster_notifications_delegate_8hxx.html" target="_top" xlink:title=" ">
<polygon fill="none" stroke="#000000" points="414.2192,-325.5 414.2192,-353.5 589.189,-353.5 589.189,-325.5 414.2192,-325.5"/>
<text text-anchor="start" x="422.2192" y="-341.5" font-family="Helvetica,sans-Serif" font-size="10.00" fill="#000000">Delegates/IBroadcasterNotifications</text>
<text text-anchor="middle" x="501.7041" y="-331.5" font-family="Helvetica,sans-Serif" font-size="10.00" fill="#000000">Delegate.hxx</text>
</a>
</g>
</g>
<!-- Node0&#45;&gt;Node5 -->
<g id="edge5" class="edge">
<title>Node0&#45;&gt;Node5</title>
<path fill="none" stroke="#191970" d="M623.2084,-390.3919C596.9826,-379.4072 567.9245,-367.2363 544.8025,-357.5517"/>
<polygon fill="#191970" stroke="#191970" points="545.8579,-354.1992 535.2821,-353.5641 543.1536,-360.6557 545.8579,-354.1992"/>
</g>
<!-- Node14 -->
<g id="node15" class="node">
<title>Node14</title>
<g id="a_node15"><a xlink:href="_common_data_types_8hxx.html" target="_top" xlink:title=" ">
<polygon fill="none" stroke="#000000" points="413.958,-65.5 413.958,-93.5 539.4502,-93.5 539.4502,-65.5 413.958,-65.5"/>
<text text-anchor="start" x="421.958" y="-81.5" font-family="Helvetica,sans-Serif" font-size="10.00" fill="#000000">MeetingClient/types</text>
<text text-anchor="middle" x="476.7041" y="-71.5" font-family="Helvetica,sans-Serif" font-size="10.00" fill="#000000">/CommonDataTypes.hxx</text>
</a>
</g>
</g>
<!-- Node0&#45;&gt;Node14 -->
<g id="edge26" class="edge">
<title>Node0&#45;&gt;Node14</title>
<path fill="none" stroke="#191970" d="M595.7131,-414.0348C436.6214,-402.3857 137.7041,-368.0508 137.7041,-274.5 137.7041,-274.5 137.7041,-274.5 137.7041,-209.5 137.7041,-170.5274 143.6891,-153.5995 174.7041,-130 209.7756,-103.3139 326.1022,-90.0117 403.7174,-83.951"/>
<polygon fill="#191970" stroke="#191970" points="404.2196,-87.4231 413.9268,-83.1779 403.691,-80.443 404.2196,-87.4231"/>
</g>
<!-- Node23 -->
<g id="node24" class="node">
<title>Node23</title>
<g id="a_node24"><a xlink:href="_meeting_controller_base_8hxx.html" target="_top" xlink:title=" ">
<polygon fill="none" stroke="#000000" points="758.6748,-265.5 758.6748,-283.5 894.7334,-283.5 894.7334,-265.5 758.6748,-265.5"/>
<text text-anchor="middle" x="826.7041" y="-271.5" font-family="Helvetica,sans-Serif" font-size="10.00" fill="#000000">MeetingControllerBase.hxx</text>
</a>
</g>
</g>
<!-- Node0&#45;&gt;Node23 -->
<g id="edge27" class="edge">
<title>Node0&#45;&gt;Node23</title>
<path fill="none" stroke="#191970" d="M719.821,-390.1571C747.3215,-360.3991 788.9167,-315.3893 811.2421,-291.2312"/>
<polygon fill="#191970" stroke="#191970" points="814.064,-293.3347 818.2806,-283.615 808.9231,-288.5837 814.064,-293.3347"/>
</g>
<!-- Node24 -->
<g id="node25" class="node">
<title>Node24</title>
<g id="a_node25"><a xlink:href="_r_t_notifications_controller_8hxx.html" target="_top" xlink:title=" ">
<polygon fill="none" stroke="#000000" points="1149.3218,-330.5 1149.3218,-348.5 1294.0864,-348.5 1294.0864,-330.5 1149.3218,-330.5"/>
<text text-anchor="middle" x="1221.7041" y="-336.5" font-family="Helvetica,sans-Serif" font-size="10.00" fill="#000000">RTNotificationsController.hxx</text>
</a>
</g>
</g>
<!-- Node0&#45;&gt;Node24 -->
<g id="edge29" class="edge">
<title>Node0&#45;&gt;Node24</title>
<path fill="none" stroke="#191970" d="M789.7309,-404.8268C894.5244,-388.979 1058.8991,-364.1208 1151.7441,-350.08"/>
<polygon fill="#191970" stroke="#191970" points="1152.513,-353.5036 1161.8772,-348.5476 1151.4662,-346.5823 1152.513,-353.5036"/>
</g>
<!-- Node6 -->
<g id="node7" class="node">
<title>Node6</title>
<g id="a_node7"><a xlink:href="_notifications_8hxx.html" target="_top" xlink:title=" ">
<polygon fill="none" stroke="#000000" points="540.229,-260.5 540.229,-288.5 665.1792,-288.5 665.1792,-260.5 540.229,-260.5"/>
<text text-anchor="start" x="548.229" y="-276.5" font-family="Helvetica,sans-Serif" font-size="10.00" fill="#000000">MeetingClient/Delegates</text>
<text text-anchor="middle" x="602.7041" y="-266.5" font-family="Helvetica,sans-Serif" font-size="10.00" fill="#000000">/Notifications.hxx</text>
</a>
</g>
</g>
<!-- Node5&#45;&gt;Node6 -->
<g id="edge6" class="edge">
<title>Node5&#45;&gt;Node6</title>
<path fill="none" stroke="#191970" d="M523.6196,-325.396C537.7813,-316.282 556.4148,-304.2902 572.0374,-294.236"/>
<polygon fill="#191970" stroke="#191970" points="574.3164,-296.9315 580.8314,-288.5765 570.5281,-291.0452 574.3164,-296.9315"/>
</g>
<!-- Node5&#45;&gt;Node14 -->
<g id="edge25" class="edge">
<title>Node5&#45;&gt;Node14</title>
<path fill="none" stroke="#191970" d="M441.6045,-325.4726C360.7041,-305.2335 223.5499,-265.6721 194.7041,-224 170.9261,-189.649 167.8926,-162.0394 194.7041,-130 220.8456,-98.7613 328.98,-86.8237 403.4829,-82.2769"/>
<polygon fill="#191970" stroke="#191970" points="403.9788,-85.7542 413.7603,-81.6832 403.575,-78.7659 403.9788,-85.7542"/>
</g>
<!-- Node7 -->
<g id="node8" class="node">
<title>Node7</title>
<g id="a_node8"><a xlink:title=" ">
<polygon fill="none" stroke="#bfbfbf" points="373.064,-195.5 373.064,-223.5 486.3442,-223.5 486.3442,-195.5 373.064,-195.5"/>
<text text-anchor="start" x="381.064" y="-211.5" font-family="Helvetica,sans-Serif" font-size="10.00" fill="#000000">boost/date_time/posix</text>
<text text-anchor="middle" x="429.7041" y="-201.5" font-family="Helvetica,sans-Serif" font-size="10.00" fill="#000000">_time/posix_time.hpp</text>
</a>
</g>
</g>
<!-- Node6&#45;&gt;Node7 -->
<g id="edge7" class="edge">
<title>Node6&#45;&gt;Node7</title>
<path fill="none" stroke="#191970" d="M565.1657,-260.396C539.2083,-250.6432 504.4799,-237.5949 476.6855,-227.152"/>
<polygon fill="#191970" stroke="#191970" points="477.7614,-223.8174 467.1693,-223.5765 475.2993,-230.3701 477.7614,-223.8174"/>
</g>
<!-- Node8 -->
<g id="node9" class="node">
<title>Node8</title>
<g id="a_node9"><a xlink:title=" ">
<polygon fill="none" stroke="#bfbfbf" points="936.9775,-200.5 936.9775,-218.5 972.4307,-218.5 972.4307,-200.5 936.9775,-200.5"/>
<text text-anchor="middle" x="954.7041" y="-206.5" font-family="Helvetica,sans-Serif" font-size="10.00" fill="#000000">map</text>
</a>
</g>
</g>
<!-- Node6&#45;&gt;Node8 -->
<g id="edge8" class="edge">
<title>Node6&#45;&gt;Node8</title>
<path fill="none" stroke="#191970" d="M665.2916,-262.343C669.8267,-261.5285 674.3334,-260.739 678.7041,-260 786.7883,-241.7242 817.5374,-254.9217 922.7041,-224 924.3535,-223.515 926.0277,-222.9611 927.7011,-222.3592"/>
<polygon fill="#191970" stroke="#191970" points="929.157,-225.5455 937.1005,-218.5347 926.5188,-219.0617 929.157,-225.5455"/>
</g>
<!-- Node9 -->
<g id="node10" class="node">
<title>Node9</title>
<g id="a_node10"><a xlink:title=" ">
<polygon fill="none" stroke="#bfbfbf" points="1119.0884,-200.5 1119.0884,-218.5 1162.3198,-218.5 1162.3198,-200.5 1119.0884,-200.5"/>
<text text-anchor="middle" x="1140.7041" y="-206.5" font-family="Helvetica,sans-Serif" font-size="10.00" fill="#000000">vector</text>
</a>
</g>
</g>
<!-- Node6&#45;&gt;Node9 -->
<g id="edge9" class="edge">
<title>Node6&#45;&gt;Node9</title>
<path fill="none" stroke="#191970" d="M665.188,-268.3101C800.4441,-254.9066 1108.3731,-224.3661 1109.7041,-224 1111.3583,-223.545 1113.0337,-223.0082 1114.7046,-222.4139"/>
<polygon fill="#191970" stroke="#191970" points="1116.1422,-225.6068 1124.0437,-218.5487 1113.4653,-219.1389 1116.1422,-225.6068"/>
</g>
<!-- Node10 -->
<g id="node11" class="node">
<title>Node10</title>
<g id="a_node11"><a xlink:title=" ">
<polygon fill="none" stroke="#bfbfbf" points="504.0171,-200.5 504.0171,-218.5 593.3911,-218.5 593.3911,-200.5 504.0171,-200.5"/>
<text text-anchor="middle" x="548.7041" y="-206.5" font-family="Helvetica,sans-Serif" font-size="10.00" fill="#000000">FSSnapshot.hxx</text>
</a>
</g>
</g>
<!-- Node6&#45;&gt;Node10 -->
<g id="edge10" class="edge">
<title>Node6&#45;&gt;Node10</title>
<path fill="none" stroke="#191970" d="M590.9869,-260.396C582.665,-250.3789 571.455,-236.8853 562.6684,-226.3089"/>
<polygon fill="#191970" stroke="#191970" points="565.3252,-224.0297 556.2428,-218.5743 559.9408,-228.5028 565.3252,-224.0297"/>
</g>
<!-- Node11 -->
<g id="node12" class="node">
<title>Node11</title>
<g id="a_node12"><a xlink:href="macros_8hxx.html" target="_top" xlink:title=" ">
<polygon fill="none" stroke="#000000" points="1180.1821,-200.5 1180.1821,-218.5 1311.2261,-218.5 1311.2261,-200.5 1180.1821,-200.5"/>
<text text-anchor="middle" x="1245.7041" y="-206.5" font-family="Helvetica,sans-Serif" font-size="10.00" fill="#000000">MeetingClient/macros.hxx</text>
</a>
</g>
</g>
<!-- Node6&#45;&gt;Node11 -->
<g id="edge11" class="edge">
<title>Node6&#45;&gt;Node11</title>
<path fill="none" stroke="#191970" d="M665.2755,-268.1439C691.3698,-265.5411 721.9965,-262.5483 749.7041,-260 937.1498,-242.7607 985.2906,-250.1363 1171.7041,-224 1178.8347,-223.0002 1186.317,-221.7608 1193.6709,-220.4308"/>
<polygon fill="#191970" stroke="#191970" points="1194.3898,-223.857 1203.574,-218.575 1193.1004,-216.9768 1194.3898,-223.857"/>
</g>
<!-- Node12 -->
<g id="node13" class="node">
<title>Node12</title>
<g id="a_node13"><a xlink:href="_f_s_base_8hxx.html" target="_top" xlink:title=" ">
<polygon fill="none" stroke="#000000" points="611.0122,-195.5 611.0122,-223.5 730.396,-223.5 730.396,-195.5 611.0122,-195.5"/>
<text text-anchor="start" x="619.0122" y="-211.5" font-family="Helvetica,sans-Serif" font-size="10.00" fill="#000000">MeetingClient/transport</text>
<text text-anchor="middle" x="670.7041" y="-201.5" font-family="Helvetica,sans-Serif" font-size="10.00" fill="#000000">/FSBase.hxx</text>
</a>
</g>
</g>
<!-- Node6&#45;&gt;Node12 -->
<g id="edge12" class="edge">
<title>Node6&#45;&gt;Node12</title>
<path fill="none" stroke="#191970" d="M617.4591,-260.396C626.5481,-251.7079 638.3731,-240.4046 648.57,-230.6576"/>
<polygon fill="#191970" stroke="#191970" points="651.1676,-233.0164 655.9779,-223.5765 646.3307,-227.9563 651.1676,-233.0164"/>
</g>
<!-- Node13 -->
<g id="node14" class="node">
<title>Node13</title>
<g id="a_node14"><a xlink:href="_meeting_types_8hxx.html" target="_top" xlink:title=" ">
<polygon fill="none" stroke="#000000" points="856.793,-130.5 856.793,-158.5 960.6152,-158.5 960.6152,-130.5 856.793,-130.5"/>
<text text-anchor="start" x="864.793" y="-146.5" font-family="Helvetica,sans-Serif" font-size="10.00" fill="#000000">MeetingClient/types</text>
<text text-anchor="middle" x="908.7041" y="-136.5" font-family="Helvetica,sans-Serif" font-size="10.00" fill="#000000">/MeetingTypes.hxx</text>
</a>
</g>
</g>
<!-- Node6&#45;&gt;Node13 -->
<g id="edge13" class="edge">
<title>Node6&#45;&gt;Node13</title>
<path fill="none" stroke="#191970" d="M665.5003,-265.2327C747.4755,-252.8764 881.5537,-231.6723 889.7041,-224 904.5932,-209.9844 908.7407,-186.5595 909.5216,-168.7581"/>
<polygon fill="#191970" stroke="#191970" points="913.0239,-168.5748 909.6388,-158.5354 906.0243,-168.4946 913.0239,-168.5748"/>
</g>
<!-- Node18 -->
<g id="node19" class="node">
<title>Node18</title>
<g id="a_node19"><a xlink:href="_conference_attribute_definitions_8hxx.html" target="_top" xlink:title=" ">
<polygon fill="none" stroke="#000000" points="748.894,-195.5 748.894,-223.5 880.5142,-223.5 880.5142,-195.5 748.894,-195.5"/>
<text text-anchor="start" x="756.894" y="-211.5" font-family="Helvetica,sans-Serif" font-size="10.00" fill="#000000">MeetingClient/Conference</text>
<text text-anchor="middle" x="814.7041" y="-201.5" font-family="Helvetica,sans-Serif" font-size="10.00" fill="#000000">AttributeDefinitions.hxx</text>
</a>
</g>
</g>
<!-- Node6&#45;&gt;Node18 -->
<g id="edge19" class="edge">
<title>Node6&#45;&gt;Node18</title>
<path fill="none" stroke="#191970" d="M648.4439,-260.476C680.7937,-250.5574 724.3564,-237.201 758.775,-226.6481"/>
<polygon fill="#191970" stroke="#191970" points="760.1461,-229.8886 768.6808,-223.6109 758.0941,-223.1961 760.1461,-229.8886"/>
</g>
<!-- Node19 -->
<g id="node20" class="node">
<title>Node19</title>
<g id="a_node20"><a xlink:href="_meeting_session_parameters_8hxx.html" target="_top" xlink:title=" ">
<polygon fill="none" stroke="#000000" points="204.1675,-195.5 204.1675,-223.5 355.2407,-223.5 355.2407,-195.5 204.1675,-195.5"/>
<text text-anchor="start" x="212.1675" y="-211.5" font-family="Helvetica,sans-Serif" font-size="10.00" fill="#000000">MeetingClient/MeetingSession</text>
<text text-anchor="middle" x="279.7041" y="-201.5" font-family="Helvetica,sans-Serif" font-size="10.00" fill="#000000">Parameters.hxx</text>
</a>
</g>
</g>
<!-- Node6&#45;&gt;Node19 -->
<g id="edge20" class="edge">
<title>Node6&#45;&gt;Node19</title>
<path fill="none" stroke="#191970" d="M540.0435,-261.8903C488.4697,-251.5117 415.0456,-236.7359 359.3137,-225.5205"/>
<polygon fill="#191970" stroke="#191970" points="359.9689,-222.0823 349.4749,-223.5406 358.5878,-228.9447 359.9689,-222.0823"/>
</g>
<!-- Node13&#45;&gt;Node14 -->
<g id="edge14" class="edge">
<title>Node13&#45;&gt;Node14</title>
<path fill="none" stroke="#191970" d="M856.5948,-136.6595C779.9628,-125.1292 636.5656,-103.5532 549.5494,-90.4605"/>
<polygon fill="#191970" stroke="#191970" points="549.8958,-86.9733 539.4863,-88.9464 548.8542,-93.8954 549.8958,-86.9733"/>
</g>
<!-- Node16 -->
<g id="node17" class="node">
<title>Node16</title>
<g id="a_node17"><a xlink:href="strong__identity_8hxx.html" target="_top" xlink:title=" ">
<polygon fill="none" stroke="#000000" points="857.9941,-65.5 857.9941,-93.5 959.4141,-93.5 959.4141,-65.5 857.9941,-65.5"/>
<text text-anchor="start" x="865.9941" y="-81.5" font-family="Helvetica,sans-Serif" font-size="10.00" fill="#000000">MeetingClient/utils</text>
<text text-anchor="middle" x="908.7041" y="-71.5" font-family="Helvetica,sans-Serif" font-size="10.00" fill="#000000">/strong_identity.hxx</text>
</a>
</g>
</g>
<!-- Node13&#45;&gt;Node16 -->
<g id="edge17" class="edge">
<title>Node13&#45;&gt;Node16</title>
<path fill="none" stroke="#191970" d="M908.7041,-130.396C908.7041,-122.6448 908.7041,-112.8122 908.7041,-103.8601"/>
<polygon fill="#191970" stroke="#191970" points="912.2042,-103.5765 908.7041,-93.5765 905.2042,-103.5765 912.2042,-103.5765"/>
</g>
<!-- Node14&#45;&gt;Node3 -->
<g id="edge15" class="edge">
<title>Node14&#45;&gt;Node3</title>
<path fill="none" stroke="#191970" d="M539.5397,-75.6286C739.4944,-63.3091 1356.3787,-25.302 1501.0956,-16.3858"/>
<polygon fill="#191970" stroke="#191970" points="1501.6633,-19.8576 1511.4291,-15.7492 1501.2327,-12.8708 1501.6633,-19.8576"/>
</g>
<!-- Node15 -->
<g id="node16" class="node">
<title>Node15</title>
<g id="a_node16"><a xlink:title=" ">
<polygon fill="none" stroke="#bfbfbf" points="425.9087,-5.5 425.9087,-23.5 527.4995,-23.5 527.4995,-5.5 425.9087,-5.5"/>
<text text-anchor="middle" x="476.7041" y="-11.5" font-family="Helvetica,sans-Serif" font-size="10.00" fill="#000000">CommonTypes.hxx</text>
</a>
</g>
</g>
<!-- Node14&#45;&gt;Node15 -->
<g id="edge16" class="edge">
<title>Node14&#45;&gt;Node15</title>
<path fill="none" stroke="#191970" d="M476.7041,-65.396C476.7041,-56.1723 476.7041,-44.0011 476.7041,-33.8738"/>
<polygon fill="#191970" stroke="#191970" points="480.2042,-33.5743 476.7041,-23.5743 473.2042,-33.5743 480.2042,-33.5743"/>
</g>
<!-- Node17 -->
<g id="node18" class="node">
<title>Node17</title>
<g id="a_node18"><a xlink:title=" ">
<polygon fill="none" stroke="#bfbfbf" points="856.5049,-.5 856.5049,-28.5 960.9033,-28.5 960.9033,-.5 856.5049,-.5"/>
<text text-anchor="start" x="864.5049" y="-16.5" font-family="Helvetica,sans-Serif" font-size="10.00" fill="#000000">boost/serialization</text>
<text text-anchor="middle" x="908.7041" y="-6.5" font-family="Helvetica,sans-Serif" font-size="10.00" fill="#000000">/strong_typedef.hpp</text>
</a>
</g>
</g>
<!-- Node16&#45;&gt;Node17 -->
<g id="edge18" class="edge">
<title>Node16&#45;&gt;Node17</title>
<path fill="none" stroke="#191970" d="M908.7041,-65.396C908.7041,-57.6448 908.7041,-47.8122 908.7041,-38.8601"/>
<polygon fill="#191970" stroke="#191970" points="912.2042,-38.5765 908.7041,-28.5765 905.2042,-38.5765 912.2042,-38.5765"/>
</g>
<!-- Node19&#45;&gt;Node13 -->
<g id="edge21" class="edge">
<title>Node19&#45;&gt;Node13</title>
<path fill="none" stroke="#191970" d="M355.6693,-196.1118C358.3786,-195.7219 361.0633,-195.3497 363.7041,-195 538.1092,-171.9032 745.3038,-155.801 846.6412,-148.6566"/>
<polygon fill="#191970" stroke="#191970" points="846.9707,-152.1421 856.7018,-147.9522 846.4818,-145.1592 846.9707,-152.1421"/>
</g>
<!-- Node20 -->
<g id="node21" class="node">
<title>Node20</title>
<g id="a_node21"><a xlink:title=" ">
<polygon fill="none" stroke="#bfbfbf" points="303.1401,-135.5 303.1401,-153.5 360.2681,-153.5 360.2681,-135.5 303.1401,-135.5"/>
<text text-anchor="middle" x="331.7041" y="-141.5" font-family="Helvetica,sans-Serif" font-size="10.00" fill="#000000">algorithm</text>
</a>
</g>
</g>
<!-- Node19&#45;&gt;Node20 -->
<g id="edge22" class="edge">
<title>Node19&#45;&gt;Node20</title>
<path fill="none" stroke="#191970" d="M290.9873,-195.396C298.9216,-185.4781 309.5823,-172.1522 318.005,-161.6239"/>
<polygon fill="#191970" stroke="#191970" points="320.9307,-163.5695 324.4447,-153.5743 315.4646,-159.1966 320.9307,-163.5695"/>
</g>
<!-- Node21 -->
<g id="node22" class="node">
<title>Node21</title>
<g id="a_node22"><a xlink:title=" ">
<polygon fill="none" stroke="#bfbfbf" points="377.8003,-135.5 377.8003,-153.5 451.6079,-153.5 451.6079,-135.5 377.8003,-135.5"/>
<text text-anchor="middle" x="414.7041" y="-141.5" font-family="Helvetica,sans-Serif" font-size="10.00" fill="#000000">Printable.hxx</text>
</a>
</g>
</g>
<!-- Node19&#45;&gt;Node21 -->
<g id="edge23" class="edge">
<title>Node19&#45;&gt;Node21</title>
<path fill="none" stroke="#191970" d="M308.9971,-195.396C332.0676,-184.2879 364.017,-168.9049 386.7378,-157.9653"/>
<polygon fill="#191970" stroke="#191970" points="388.3658,-161.066 395.8575,-153.5743 385.3291,-154.759 388.3658,-161.066"/>
</g>
<!-- Node22 -->
<g id="node23" class="node">
<title>Node22</title>
<g id="a_node23"><a xlink:title=" ">
<polygon fill="none" stroke="#bfbfbf" points="204.1846,-135.5 204.1846,-153.5 285.2236,-153.5 285.2236,-135.5 204.1846,-135.5"/>
<text text-anchor="middle" x="244.7041" y="-141.5" font-family="Helvetica,sans-Serif" font-size="10.00" fill="#000000">VoIPClient.hxx</text>
</a>
</g>
</g>
<!-- Node19&#45;&gt;Node22 -->
<g id="edge24" class="edge">
<title>Node19&#45;&gt;Node22</title>
<path fill="none" stroke="#191970" d="M272.1096,-195.396C266.9294,-185.7756 260.0226,-172.9487 254.4389,-162.5788"/>
<polygon fill="#191970" stroke="#191970" points="257.413,-160.7197 249.5903,-153.5743 251.2497,-164.0384 257.413,-160.7197"/>
</g>
<!-- Node23&#45;&gt;Node2 -->
<g id="edge28" class="edge">
<title>Node23&#45;&gt;Node2</title>
<path fill="none" stroke="#191970" d="M857.1551,-265.462C895.7815,-253.9976 962.5081,-234.1929 1005.3445,-221.4789"/>
<polygon fill="#191970" stroke="#191970" points="1006.5687,-224.7665 1015.1595,-218.5658 1004.5769,-218.0558 1006.5687,-224.7665"/>
</g>
<!-- Node24&#45;&gt;Node2 -->
<g id="edge31" class="edge">
<title>Node24&#45;&gt;Node2</title>
<path fill="none" stroke="#191970" d="M1225.2764,-330.2917C1230.8493,-314.229 1239.4372,-280.8177 1223.7041,-260 1219.6074,-254.5793 1143.1521,-234.2597 1091.7879,-221.1063"/>
<polygon fill="#191970" stroke="#191970" points="1092.4334,-217.6589 1081.8785,-218.5777 1090.7026,-224.4416 1092.4334,-217.6589"/>
</g>
<!-- Node24&#45;&gt;Node3 -->
<g id="edge36" class="edge">
<title>Node24&#45;&gt;Node3</title>
<path fill="none" stroke="#191970" d="M1294.2853,-331.7865C1359.9902,-323.6643 1450.9045,-309.2338 1480.7041,-289 1515.4337,-265.4188 1531.7041,-251.4788 1531.7041,-209.5 1531.7041,-209.5 1531.7041,-209.5 1531.7041,-144.5 1531.7041,-105.1604 1531.7041,-59.1244 1531.7041,-33.7485"/>
<polygon fill="#191970" stroke="#191970" points="1535.2042,-33.6414 1531.7041,-23.6414 1528.2042,-33.6414 1535.2042,-33.6414"/>
</g>
<!-- Node24&#45;&gt;Node8 -->
<g id="edge35" class="edge">
<title>Node24&#45;&gt;Node8</title>
<path fill="none" stroke="#191970" d="M1148.9805,-336.9666C1023.1937,-331.8302 775.8706,-318.1154 749.7041,-289 664.9735,-194.7204 649.6995,-313.0511 922.7041,-224 924.1538,-223.5271 925.6254,-223.0084 927.101,-222.4571"/>
<polygon fill="#191970" stroke="#191970" points="928.797,-225.5435 936.7038,-218.4914 926.1249,-219.0736 928.797,-225.5435"/>
</g>
<!-- Node24&#45;&gt;Node9 -->
<g id="edge37" class="edge">
<title>Node24&#45;&gt;Node9</title>
<path fill="none" stroke="#191970" d="M1231.8199,-330.1737C1247.2645,-314.7803 1273.365,-283.4291 1257.7041,-260 1234.4493,-225.2103 1208.8916,-241.1123 1170.7041,-224 1169.8727,-223.6274 1169.03,-223.2458 1168.1806,-222.8577"/>
<polygon fill="#191970" stroke="#191970" points="1169.569,-219.6431 1159.0292,-218.5646 1166.596,-225.9804 1169.569,-219.6431"/>
</g>
<!-- Node24&#45;&gt;Node13 -->
<g id="edge38" class="edge">
<title>Node24&#45;&gt;Node13</title>
<path fill="none" stroke="#191970" d="M1294.3511,-331.8032C1353.7377,-324.0912 1431.5351,-310.2775 1454.7041,-289 1486.1636,-260.1089 1503.5334,-226.5161 1474.7041,-195 1441.2083,-158.3825 1110.6999,-148.1291 970.7727,-145.4175"/>
<polygon fill="#191970" stroke="#191970" points="970.6971,-141.9156 960.6333,-145.2278 970.5661,-148.9143 970.6971,-141.9156"/>
</g>
<!-- Node24&#45;&gt;Node23 -->
<g id="edge39" class="edge">
<title>Node24&#45;&gt;Node23</title>
<path fill="none" stroke="#191970" d="M1161.5429,-330.4712C1097.5323,-320.7419 993.3421,-304.5541 903.7041,-289 897.1305,-287.8593 890.2493,-286.6235 883.4198,-285.3708"/>
<polygon fill="#191970" stroke="#191970" points="883.9626,-281.9119 873.4925,-283.5326 882.688,-288.7949 883.9626,-281.9119"/>
</g>
<!-- Node25 -->
<g id="node26" class="node">
<title>Node25</title>
<g id="a_node26"><a xlink:title=" ">
<polygon fill="none" stroke="#bfbfbf" points="1367.8398,-200.5 1367.8398,-218.5 1465.5684,-218.5 1465.5684,-200.5 1367.8398,-200.5"/>
<text text-anchor="middle" x="1416.7041" y="-206.5" font-family="Helvetica,sans-Serif" font-size="10.00" fill="#000000">boost/function.hpp</text>
</a>
</g>
</g>
<!-- Node24&#45;&gt;Node25 -->
<g id="edge30" class="edge">
<title>Node24&#45;&gt;Node25</title>
<path fill="none" stroke="#191970" d="M1294.247,-332.0682C1349.5102,-324.7329 1419.0241,-311.3139 1436.7041,-289 1450.7987,-271.2112 1439.5729,-244.7358 1429.1028,-227.2986"/>
<polygon fill="#191970" stroke="#191970" points="1431.8897,-225.162 1423.5295,-218.6537 1426.0064,-228.955 1431.8897,-225.162"/>
</g>
<!-- Node26 -->
<g id="node27" class="node">
<title>Node26</title>
<g id="a_node27"><a xlink:title=" ">
<polygon fill="none" stroke="#bfbfbf" points="912.394,-265.5 912.394,-283.5 1029.0142,-283.5 1029.0142,-265.5 912.394,-265.5"/>
<text text-anchor="middle" x="970.7041" y="-271.5" font-family="Helvetica,sans-Serif" font-size="10.00" fill="#000000">boost/thread/locks.hpp</text>
</a>
</g>
</g>
<!-- Node24&#45;&gt;Node26 -->
<g id="edge32" class="edge">
<title>Node24&#45;&gt;Node26</title>
<path fill="none" stroke="#191970" d="M1186.8036,-330.462C1142.0662,-318.8766 1064.4396,-298.7741 1015.4166,-286.0789"/>
<polygon fill="#191970" stroke="#191970" points="1016.27,-282.6845 1005.7119,-283.5658 1014.5151,-289.461 1016.27,-282.6845"/>
</g>
<!-- Node27 -->
<g id="node28" class="node">
<title>Node27</title>
<g id="a_node28"><a xlink:title=" ">
<polygon fill="none" stroke="#bfbfbf" points="1047.1699,-265.5 1047.1699,-283.5 1168.2383,-283.5 1168.2383,-265.5 1047.1699,-265.5"/>
<text text-anchor="middle" x="1107.7041" y="-271.5" font-family="Helvetica,sans-Serif" font-size="10.00" fill="#000000">boost/thread/mutex.hpp</text>
</a>
</g>
</g>
<!-- Node24&#45;&gt;Node27 -->
<g id="edge33" class="edge">
<title>Node24&#45;&gt;Node27</title>
<path fill="none" stroke="#191970" d="M1205.8529,-330.462C1186.9024,-319.6569 1154.9587,-301.4434 1132.6789,-288.74"/>
<polygon fill="#191970" stroke="#191970" points="1134.209,-285.5835 1123.7882,-283.6708 1130.7417,-291.6645 1134.209,-285.5835"/>
</g>
<!-- Node28 -->
<g id="node29" class="node">
<title>Node28</title>
<g id="a_node29"><a xlink:title=" ">
<polygon fill="none" stroke="#bfbfbf" points="1186.2041,-265.5 1186.2041,-283.5 1215.2041,-283.5 1215.2041,-265.5 1186.2041,-265.5"/>
<text text-anchor="middle" x="1200.3149" y="-271.5" font-family="Helvetica,sans-Serif" font-size="10.00" fill="#000000">list</text>
</a>
</g>
</g>
<!-- Node24&#45;&gt;Node28 -->
<g id="edge34" class="edge">
<title>Node24&#45;&gt;Node28</title>
<path fill="none" stroke="#191970" d="M1218.7841,-330.462C1215.7159,-320.9651 1210.7986,-305.7449 1206.8662,-293.5732"/>
<polygon fill="#191970" stroke="#191970" points="1210.1401,-292.3218 1203.7353,-283.8821 1203.4791,-294.4739 1210.1401,-292.3218"/>
</g>
<!-- Node29 -->
<g id="node30" class="node">
<title>Node29</title>
<g id="a_node30"><a xlink:href="_notification_handler_8hxx.html" target="_top" xlink:title=" ">
<polygon fill="none" stroke="#000000" points="1309.564,-265.5 1309.564,-283.5 1427.8442,-283.5 1427.8442,-265.5 1309.564,-265.5"/>
<text text-anchor="middle" x="1368.7041" y="-271.5" font-family="Helvetica,sans-Serif" font-size="10.00" fill="#000000">NotificationHandler.hxx</text>
</a>
</g>
</g>
<!-- Node24&#45;&gt;Node29 -->
<g id="edge40" class="edge">
<title>Node24&#45;&gt;Node29</title>
<path fill="none" stroke="#191970" d="M1242.1438,-330.462C1267.2345,-319.3675 1309.9892,-300.4624 1338.7809,-287.7313"/>
<polygon fill="#191970" stroke="#191970" points="1340.2337,-290.9159 1347.9641,-283.6708 1337.4028,-284.5138 1340.2337,-290.9159"/>
</g>
<!-- Node29&#45;&gt;Node9 -->
<g id="edge41" class="edge">
<title>Node29&#45;&gt;Node9</title>
<path fill="none" stroke="#191970" d="M1322.3012,-265.4224C1281.6632,-256.8253 1221.358,-242.4888 1170.7041,-224 1169.512,-223.5649 1168.3039,-223.0979 1167.0913,-222.6076"/>
<polygon fill="#191970" stroke="#191970" points="1168.4594,-219.3857 1157.8985,-218.5381 1165.6258,-225.7865 1168.4594,-219.3857"/>
</g>
<!-- Node29&#45;&gt;Node11 -->
<g id="edge44" class="edge">
<title>Node29&#45;&gt;Node11</title>
<path fill="none" stroke="#191970" d="M1351.6015,-265.462C1330.9724,-254.5605 1296.0727,-236.1176 1272.0093,-223.4011"/>
<polygon fill="#191970" stroke="#191970" points="1273.5347,-220.2486 1263.058,-218.6708 1270.2641,-226.4376 1273.5347,-220.2486"/>
</g>
<!-- Node29&#45;&gt;Node13 -->
<g id="edge43" class="edge">
<title>Node29&#45;&gt;Node13</title>
<path fill="none" stroke="#191970" d="M1366.159,-265.4992C1360.8404,-248.512 1346.8207,-211.9168 1320.7041,-195 1264.2758,-158.449 1071.2276,-148.3517 970.6949,-145.5632"/>
<polygon fill="#191970" stroke="#191970" points="970.7618,-142.0638 960.6737,-145.301 970.5787,-149.0614 970.7618,-142.0638"/>
</g>
<!-- Node29&#45;&gt;Node25 -->
<g id="edge42" class="edge">
<title>Node29&#45;&gt;Node25</title>
<path fill="none" stroke="#191970" d="M1375.3783,-265.462C1382.6748,-255.5813 1394.5461,-239.5056 1403.6973,-227.1134"/>
<polygon fill="#191970" stroke="#191970" points="1406.6508,-229.0057 1409.7758,-218.8821 1401.0198,-224.8473 1406.6508,-229.0057"/>
</g>
</g>
</svg>
        <g id="navigator" transform="translate(0 0)" fill="#404254">
                <rect fill="#f2f5e9" fill-opacity="0.5" stroke="#606060" stroke-width=".5" x="0" y="0" width="60" height="60"/>
                <use id="zoomplus" xlink:href="#zoomPlus" x="17" y="9" onmousedown="handleZoom(evt,'in')"/>
                <use id="zoomminus" xlink:href="#zoomMin" x="42" y="9" onmousedown="handleZoom(evt,'out')"/>
                <use id="reset" xlink:href="#resetDef" x="30" y="36" onmousedown="handleReset()"/>
                <g id="arrowUp" xlink:href="#dirArrow" transform="translate(30 24)" onmousedown="handlePan(0,-1)">
                  <use xlink:href="#rim" fill="#404040">
                        <set attributeName="fill" to="#808080" begin="arrowUp.mouseover" end="arrowUp.mouseout"/>
                  </use>
                  <path fill="none" stroke="white" stroke-width="1.5" d="M0,-3.0v7 M-2.5,-0.5L0,-3.0L2.5,-0.5"/>
                </g>
                <g id="arrowRight" xlink:href="#dirArrow" transform="rotate(90) translate(36 -43)" onmousedown="handlePan(1,0)">
                  <use xlink:href="#rim" fill="#404040">
                        <set attributeName="fill" to="#808080" begin="arrowRight.mouseover" end="arrowRight.mouseout"/>
                  </use>
                  <path fill="none" stroke="white" stroke-width="1.5" d="M0,-3.0v7 M-2.5,-0.5L0,-3.0L2.5,-0.5"/>
                </g>
                <g id="arrowDown" xlink:href="#dirArrow" transform="rotate(180) translate(-30 -48)" onmousedown="handlePan(0,1)">
                  <use xlink:href="#rim" fill="#404040">
                        <set attributeName="fill" to="#808080" begin="arrowDown.mouseover" end="arrowDown.mouseout"/>
                  </use>
                  <path fill="none" stroke="white" stroke-width="1.5" d="M0,-3.0v7 M-2.5,-0.5L0,-3.0L2.5,-0.5"/>
                </g>
                <g id="arrowLeft" xlink:href="#dirArrow" transform="rotate(270) translate(-36 17)" onmousedown="handlePan(-1,0)">
                  <use xlink:href="#rim" fill="#404040">
                        <set attributeName="fill" to="#808080" begin="arrowLeft.mouseover" end="arrowLeft.mouseout"/>
                  </use>
                  <path fill="none" stroke="white" stroke-width="1.5" d="M0,-3.0v7 M-2.5,-0.5L0,-3.0L2.5,-0.5"/>
                </g>
        </g>
        <svg viewBox="0 0 15 15" width="100%" height="30px" preserveAspectRatio="xMaxYMin meet">
         <g id="arrow_out" transform="scale(0.3 0.3)">
          <a xlink:href="_presentation_controller_8hxx__incl_org.svg" target="_base">
           <rect id="button" ry="5" rx="5" y="6" x="6" height="38" width="38"
                fill="#f2f5e9" fill-opacity="0.5" stroke="#606060" stroke-width="1.0"/>
           <path id="arrow"
             d="M 11.500037,31.436501 C 11.940474,20.09759 22.043105,11.32322 32.158766,21.979434 L 37.068811,17.246167 C 37.068811,17.246167 37.088388,32 37.088388,32 L 22.160133,31.978069 C 22.160133,31.978069 26.997745,27.140456 26.997745,27.140456 C 18.528582,18.264221 13.291696,25.230495 11.500037,31.436501 z"
             style="fill:#404040;"/>
          </a>
         </g>
        </svg>
</svg>
