<?xml version="1.0" encoding="UTF-8" standalone="no"?>
<!DOCTYPE svg PUBLIC "-//W3C//DTD SVG 1.1//EN"
 "http://www.w3.org/Graphics/SVG/1.1/DTD/svg11.dtd">
<!-- Generated by graphviz version 2.40.1 (20161225.0304)
 -->
<!-- Title: /Users/oskryp/Projects/freesee&#45;native&#45;client/libs/fcc_sdk/engine/meetingclient/src/headers/MeetingClient/RTNotificationsController.hxx Pages: 1 -->
<svg width="1454pt" height="247pt"
 viewBox="0.00 0.00 1453.97 247.00" xmlns="http://www.w3.org/2000/svg" xmlns:xlink="http://www.w3.org/1999/xlink">
<g id="graph0" class="graph" transform="scale(1 1) rotate(0) translate(4 243)">
<title>/Users/oskryp/Projects/freesee&#45;native&#45;client/libs/fcc_sdk/engine/meetingclient/src/headers/MeetingClient/RTNotificationsController.hxx</title>
<!-- Node17 -->
<g id="node1" class="node">
<title>Node17</title>
<g id="a_node1"><a xlink:title=" ">
<polygon fill="#bfbfbf" stroke="#000000" points="605.812,-180.5 605.812,-238.5 811.1577,-238.5 811.1577,-180.5 605.812,-180.5"/>
<text text-anchor="start" x="613.812" y="-226.5" font-family="Helvetica,sans-Serif" font-size="10.00" fill="#000000">/Users/oskryp/Projects</text>
<text text-anchor="start" x="613.812" y="-216.5" font-family="Helvetica,sans-Serif" font-size="10.00" fill="#000000">/freesee&#45;native&#45;client</text>
<text text-anchor="start" x="613.812" y="-206.5" font-family="Helvetica,sans-Serif" font-size="10.00" fill="#000000">/libs/fcc_sdk/engine/meetingclient</text>
<text text-anchor="start" x="613.812" y="-196.5" font-family="Helvetica,sans-Serif" font-size="10.00" fill="#000000">/src/headers/MeetingClient/RTNotifications</text>
<text text-anchor="middle" x="708.4849" y="-186.5" font-family="Helvetica,sans-Serif" font-size="10.00" fill="#000000">Controller.hxx</text>
</a>
</g>
</g>
<!-- Node18 -->
<g id="node2" class="node">
<title>Node18</title>
<g id="a_node2"><a xlink:href="_attendees_controller_8cxx.html" target="_top" xlink:title=" ">
<polygon fill="none" stroke="#000000" points="0,-90.5 0,-138.5 164.9697,-138.5 164.9697,-90.5 0,-90.5"/>
<text text-anchor="start" x="8" y="-126.5" font-family="Helvetica,sans-Serif" font-size="10.00" fill="#000000">/Users/oskryp/Projects</text>
<text text-anchor="start" x="8" y="-116.5" font-family="Helvetica,sans-Serif" font-size="10.00" fill="#000000">/freesee&#45;native&#45;client</text>
<text text-anchor="start" x="8" y="-106.5" font-family="Helvetica,sans-Serif" font-size="10.00" fill="#000000">/libs/fcc_sdk/engine/meetingclient</text>
<text text-anchor="middle" x="82.4849" y="-96.5" font-family="Helvetica,sans-Serif" font-size="10.00" fill="#000000">/src/AttendeesController.cxx</text>
</a>
</g>
</g>
<!-- Node17&#45;&gt;Node18 -->
<g id="edge1" class="edge">
<title>Node17&#45;&gt;Node18</title>
<path fill="none" stroke="#191970" d="M595.6336,-201.8583C486.8345,-193.0383 318.0233,-175.5215 174.4849,-144 167.4402,-142.453 160.1665,-140.5934 152.9394,-138.5698"/>
<polygon fill="#191970" stroke="#191970" points="595.3979,-205.3505 605.6452,-202.6591 595.9561,-198.3728 595.3979,-205.3505"/>
</g>
<!-- Node19 -->
<g id="node3" class="node">
<title>Node19</title>
<g id="a_node3"><a xlink:href="_basic_handler_8cxx.html" target="_top" xlink:title=" ">
<polygon fill="none" stroke="#000000" points="183,-90.5 183,-138.5 347.9697,-138.5 347.9697,-90.5 183,-90.5"/>
<text text-anchor="start" x="191" y="-126.5" font-family="Helvetica,sans-Serif" font-size="10.00" fill="#000000">/Users/oskryp/Projects</text>
<text text-anchor="start" x="191" y="-116.5" font-family="Helvetica,sans-Serif" font-size="10.00" fill="#000000">/freesee&#45;native&#45;client</text>
<text text-anchor="start" x="191" y="-106.5" font-family="Helvetica,sans-Serif" font-size="10.00" fill="#000000">/libs/fcc_sdk/engine/meetingclient</text>
<text text-anchor="middle" x="265.4849" y="-96.5" font-family="Helvetica,sans-Serif" font-size="10.00" fill="#000000">/src/BasicHandler.cxx</text>
</a>
</g>
</g>
<!-- Node17&#45;&gt;Node19 -->
<g id="edge2" class="edge">
<title>Node17&#45;&gt;Node19</title>
<path fill="none" stroke="#191970" d="M595.5551,-192.1388C526.36,-180.5848 436.2515,-163.8937 357.4849,-144 350.9798,-142.3571 344.2615,-140.5073 337.5554,-138.5555"/>
<polygon fill="#191970" stroke="#191970" points="595.1707,-195.6227 605.6086,-193.8059 596.316,-188.717 595.1707,-195.6227"/>
</g>
<!-- Node20 -->
<g id="node4" class="node">
<title>Node20</title>
<g id="a_node4"><a xlink:href="_chat_controller_8cxx.html" target="_top" xlink:title=" ">
<polygon fill="none" stroke="#000000" points="366,-90.5 366,-138.5 530.9697,-138.5 530.9697,-90.5 366,-90.5"/>
<text text-anchor="start" x="374" y="-126.5" font-family="Helvetica,sans-Serif" font-size="10.00" fill="#000000">/Users/oskryp/Projects</text>
<text text-anchor="start" x="374" y="-116.5" font-family="Helvetica,sans-Serif" font-size="10.00" fill="#000000">/freesee&#45;native&#45;client</text>
<text text-anchor="start" x="374" y="-106.5" font-family="Helvetica,sans-Serif" font-size="10.00" fill="#000000">/libs/fcc_sdk/engine/meetingclient</text>
<text text-anchor="middle" x="448.4849" y="-96.5" font-family="Helvetica,sans-Serif" font-size="10.00" fill="#000000">/src/ChatController.cxx</text>
</a>
</g>
</g>
<!-- Node17&#45;&gt;Node20 -->
<g id="edge3" class="edge">
<title>Node17&#45;&gt;Node20</title>
<path fill="none" stroke="#191970" d="M619.46,-176.9717C584.9756,-164.3716 546.2062,-150.2059 514.3144,-138.5531"/>
<polygon fill="#191970" stroke="#191970" points="618.4697,-180.3361 629.0635,-180.4807 620.8721,-173.7612 618.4697,-180.3361"/>
</g>
<!-- Node21 -->
<g id="node5" class="node">
<title>Node21</title>
<g id="a_node5"><a xlink:href="_presentation_controller_8hxx.html" target="_top" xlink:title=" ">
<polygon fill="none" stroke="#000000" points="848.5493,-85.5 848.5493,-143.5 1042.4204,-143.5 1042.4204,-85.5 848.5493,-85.5"/>
<text text-anchor="start" x="856.5493" y="-131.5" font-family="Helvetica,sans-Serif" font-size="10.00" fill="#000000">/Users/oskryp/Projects</text>
<text text-anchor="start" x="856.5493" y="-121.5" font-family="Helvetica,sans-Serif" font-size="10.00" fill="#000000">/freesee&#45;native&#45;client</text>
<text text-anchor="start" x="856.5493" y="-111.5" font-family="Helvetica,sans-Serif" font-size="10.00" fill="#000000">/libs/fcc_sdk/engine/meetingclient</text>
<text text-anchor="start" x="856.5493" y="-101.5" font-family="Helvetica,sans-Serif" font-size="10.00" fill="#000000">/src/headers/MeetingClient/Presentation</text>
<text text-anchor="middle" x="945.4849" y="-91.5" font-family="Helvetica,sans-Serif" font-size="10.00" fill="#000000">Controller.hxx</text>
</a>
</g>
</g>
<!-- Node17&#45;&gt;Node21 -->
<g id="edge4" class="edge">
<title>Node17&#45;&gt;Node21</title>
<path fill="none" stroke="#191970" d="M790.2788,-176.7134C817.2097,-165.9183 846.9471,-153.9983 873.1246,-143.5052"/>
<polygon fill="#191970" stroke="#191970" points="788.8603,-173.5112 780.8805,-180.4807 791.4648,-180.0087 788.8603,-173.5112"/>
</g>
<!-- Node23 -->
<g id="node7" class="node">
<title>Node23</title>
<g id="a_node7"><a xlink:href="_meeting_client_8cxx.html" target="_top" xlink:title=" ">
<polygon fill="none" stroke="#000000" points="287,-.5 287,-48.5 451.9697,-48.5 451.9697,-.5 287,-.5"/>
<text text-anchor="start" x="295" y="-36.5" font-family="Helvetica,sans-Serif" font-size="10.00" fill="#000000">/Users/oskryp/Projects</text>
<text text-anchor="start" x="295" y="-26.5" font-family="Helvetica,sans-Serif" font-size="10.00" fill="#000000">/freesee&#45;native&#45;client</text>
<text text-anchor="start" x="295" y="-16.5" font-family="Helvetica,sans-Serif" font-size="10.00" fill="#000000">/libs/fcc_sdk/engine/meetingclient</text>
<text text-anchor="middle" x="369.4849" y="-6.5" font-family="Helvetica,sans-Serif" font-size="10.00" fill="#000000">/src/MeetingClient.cxx</text>
</a>
</g>
</g>
<!-- Node17&#45;&gt;Node23 -->
<g id="edge16" class="edge">
<title>Node17&#45;&gt;Node23</title>
<path fill="none" stroke="#191970" d="M623.9612,-175.6259C607.5023,-166.7947 591.1402,-156.2481 577.4849,-144 554.266,-123.1739 563.9276,-104.375 539.4849,-85 525.0617,-73.5673 488.0653,-59.8841 452.2555,-48.4248"/>
<polygon fill="#191970" stroke="#191970" points="622.6086,-178.8669 633.0983,-180.3557 625.8265,-172.6504 622.6086,-178.8669"/>
</g>
<!-- Node26 -->
<g id="node10" class="node">
<title>Node26</title>
<g id="a_node10"><a xlink:href="_r_t_notifications_controller_8cxx.html" target="_top" xlink:title=" ">
<polygon fill="none" stroke="#000000" points="1019,-.5 1019,-48.5 1183.9697,-48.5 1183.9697,-.5 1019,-.5"/>
<text text-anchor="start" x="1027" y="-36.5" font-family="Helvetica,sans-Serif" font-size="10.00" fill="#000000">/Users/oskryp/Projects</text>
<text text-anchor="start" x="1027" y="-26.5" font-family="Helvetica,sans-Serif" font-size="10.00" fill="#000000">/freesee&#45;native&#45;client</text>
<text text-anchor="start" x="1027" y="-16.5" font-family="Helvetica,sans-Serif" font-size="10.00" fill="#000000">/libs/fcc_sdk/engine/meetingclient</text>
<text text-anchor="middle" x="1101.4849" y="-6.5" font-family="Helvetica,sans-Serif" font-size="10.00" fill="#000000">/src/RTNotificationsController.cxx</text>
</a>
</g>
</g>
<!-- Node17&#45;&gt;Node26 -->
<g id="edge17" class="edge">
<title>Node17&#45;&gt;Node26</title>
<path fill="none" stroke="#191970" d="M821.2806,-199.4815C907.2507,-189.7724 1016.6148,-172.2908 1051.4849,-144 1080.825,-120.1957 1093.1894,-76.1702 1098.223,-48.7155"/>
<polygon fill="#191970" stroke="#191970" points="820.7394,-196.02 811.185,-200.5984 821.5092,-202.9775 820.7394,-196.02"/>
</g>
<!-- Node27 -->
<g id="node11" class="node">
<title>Node27</title>
<g id="a_node11"><a xlink:href="_recording_controller_8hxx.html" target="_top" xlink:title=" ">
<polygon fill="none" stroke="#000000" points="586.2612,-90.5 586.2612,-138.5 830.7085,-138.5 830.7085,-90.5 586.2612,-90.5"/>
<text text-anchor="start" x="594.2612" y="-126.5" font-family="Helvetica,sans-Serif" font-size="10.00" fill="#000000">/Users/oskryp/Projects</text>
<text text-anchor="start" x="594.2612" y="-116.5" font-family="Helvetica,sans-Serif" font-size="10.00" fill="#000000">/freesee&#45;native&#45;client</text>
<text text-anchor="start" x="594.2612" y="-106.5" font-family="Helvetica,sans-Serif" font-size="10.00" fill="#000000">/libs/fcc_sdk/engine/meetingclient</text>
<text text-anchor="middle" x="708.4849" y="-96.5" font-family="Helvetica,sans-Serif" font-size="10.00" fill="#000000">/src/headers/MeetingClient/RecordingController.hxx</text>
</a>
</g>
</g>
<!-- Node17&#45;&gt;Node27 -->
<g id="edge10" class="edge">
<title>Node17&#45;&gt;Node27</title>
<path fill="none" stroke="#191970" d="M708.4849,-170.3932C708.4849,-159.602 708.4849,-148.214 708.4849,-138.5531"/>
<polygon fill="#191970" stroke="#191970" points="704.985,-170.4806 708.4849,-180.4807 711.985,-170.4807 704.985,-170.4806"/>
</g>
<!-- Node29 -->
<g id="node13" class="node">
<title>Node29</title>
<g id="a_node13"><a xlink:href="_screen_sharing_controller_8cxx.html" target="_top" xlink:title=" ">
<polygon fill="none" stroke="#000000" points="1098,-90.5 1098,-138.5 1262.9697,-138.5 1262.9697,-90.5 1098,-90.5"/>
<text text-anchor="start" x="1106" y="-126.5" font-family="Helvetica,sans-Serif" font-size="10.00" fill="#000000">/Users/oskryp/Projects</text>
<text text-anchor="start" x="1106" y="-116.5" font-family="Helvetica,sans-Serif" font-size="10.00" fill="#000000">/freesee&#45;native&#45;client</text>
<text text-anchor="start" x="1106" y="-106.5" font-family="Helvetica,sans-Serif" font-size="10.00" fill="#000000">/libs/fcc_sdk/engine/meetingclient</text>
<text text-anchor="middle" x="1180.4849" y="-96.5" font-family="Helvetica,sans-Serif" font-size="10.00" fill="#000000">/src/ScreenSharingController.cxx</text>
</a>
</g>
</g>
<!-- Node17&#45;&gt;Node29 -->
<g id="edge18" class="edge">
<title>Node17&#45;&gt;Node29</title>
<path fill="none" stroke="#191970" d="M821.2862,-193.6393C896.3634,-182.1562 996.9188,-164.9934 1084.4849,-144 1091.3518,-142.3537 1098.4487,-140.49 1105.5309,-138.5188"/>
<polygon fill="#191970" stroke="#191970" points="820.6922,-190.1893 811.3313,-195.1515 821.7435,-197.1099 820.6922,-190.1893"/>
</g>
<!-- Node30 -->
<g id="node14" class="node">
<title>Node30</title>
<g id="a_node14"><a xlink:href="_video_controller_8cxx.html" target="_top" xlink:title=" ">
<polygon fill="none" stroke="#000000" points="1281,-90.5 1281,-138.5 1445.9697,-138.5 1445.9697,-90.5 1281,-90.5"/>
<text text-anchor="start" x="1289" y="-126.5" font-family="Helvetica,sans-Serif" font-size="10.00" fill="#000000">/Users/oskryp/Projects</text>
<text text-anchor="start" x="1289" y="-116.5" font-family="Helvetica,sans-Serif" font-size="10.00" fill="#000000">/freesee&#45;native&#45;client</text>
<text text-anchor="start" x="1289" y="-106.5" font-family="Helvetica,sans-Serif" font-size="10.00" fill="#000000">/libs/fcc_sdk/engine/meetingclient</text>
<text text-anchor="middle" x="1363.4849" y="-96.5" font-family="Helvetica,sans-Serif" font-size="10.00" fill="#000000">/src/VideoController.cxx</text>
</a>
</g>
</g>
<!-- Node17&#45;&gt;Node30 -->
<g id="edge19" class="edge">
<title>Node17&#45;&gt;Node30</title>
<path fill="none" stroke="#191970" d="M821.3458,-202.8459C935.7736,-194.5902 1117.4414,-177.3259 1271.4849,-144 1278.6162,-142.4572 1285.9804,-140.5869 1293.2924,-138.545"/>
<polygon fill="#191970" stroke="#191970" points="820.8982,-199.3688 811.1715,-203.5689 821.3945,-206.3512 820.8982,-199.3688"/>
</g>
<!-- Node22 -->
<g id="node6" class="node">
<title>Node22</title>
<g id="a_node6"><a xlink:href="_broadcast_handler_8cxx.html" target="_top" xlink:title=" ">
<polygon fill="none" stroke="#000000" points="653,-.5 653,-48.5 817.9697,-48.5 817.9697,-.5 653,-.5"/>
<text text-anchor="start" x="661" y="-36.5" font-family="Helvetica,sans-Serif" font-size="10.00" fill="#000000">/Users/oskryp/Projects</text>
<text text-anchor="start" x="661" y="-26.5" font-family="Helvetica,sans-Serif" font-size="10.00" fill="#000000">/freesee&#45;native&#45;client</text>
<text text-anchor="start" x="661" y="-16.5" font-family="Helvetica,sans-Serif" font-size="10.00" fill="#000000">/libs/fcc_sdk/engine/meetingclient</text>
<text text-anchor="middle" x="735.4849" y="-6.5" font-family="Helvetica,sans-Serif" font-size="10.00" fill="#000000">/src/BroadcastHandler.cxx</text>
</a>
</g>
</g>
<!-- Node21&#45;&gt;Node22 -->
<g id="edge5" class="edge">
<title>Node21&#45;&gt;Node22</title>
<path fill="none" stroke="#191970" d="M868.3408,-81.4383C842.9036,-70.5366 815.1152,-58.6273 791.5584,-48.5315"/>
<polygon fill="#191970" stroke="#191970" points="867.0237,-84.6816 877.5939,-85.4039 869.7812,-78.2476 867.0237,-84.6816"/>
</g>
<!-- Node21&#45;&gt;Node23 -->
<g id="edge6" class="edge">
<title>Node21&#45;&gt;Node23</title>
<path fill="none" stroke="#191970" d="M838.2174,-84.9006C671.7074,-55.1956 624.3461,-78.2335 461.4849,-49 458.3938,-48.4452 455.2548,-47.8377 452.0919,-47.1885"/>
<polygon fill="#191970" stroke="#191970" points="837.8465,-88.3906 848.3118,-86.7394 839.101,-81.5039 837.8465,-88.3906"/>
</g>
<!-- Node24 -->
<g id="node8" class="node">
<title>Node24</title>
<g id="a_node8"><a xlink:href="_meeting_client_session_8cxx.html" target="_top" xlink:title=" ">
<polygon fill="none" stroke="#000000" points="836,-.5 836,-48.5 1000.9697,-48.5 1000.9697,-.5 836,-.5"/>
<text text-anchor="start" x="844" y="-36.5" font-family="Helvetica,sans-Serif" font-size="10.00" fill="#000000">/Users/oskryp/Projects</text>
<text text-anchor="start" x="844" y="-26.5" font-family="Helvetica,sans-Serif" font-size="10.00" fill="#000000">/freesee&#45;native&#45;client</text>
<text text-anchor="start" x="844" y="-16.5" font-family="Helvetica,sans-Serif" font-size="10.00" fill="#000000">/libs/fcc_sdk/engine/meetingclient</text>
<text text-anchor="middle" x="918.4849" y="-6.5" font-family="Helvetica,sans-Serif" font-size="10.00" fill="#000000">/src/MeetingClientSession.cxx</text>
</a>
</g>
</g>
<!-- Node21&#45;&gt;Node24 -->
<g id="edge7" class="edge">
<title>Node21&#45;&gt;Node24</title>
<path fill="none" stroke="#191970" d="M933.7439,-75.3634C931.016,-66.2705 928.1907,-56.8528 925.7237,-48.6294"/>
<polygon fill="#191970" stroke="#191970" points="930.4181,-76.4581 936.6441,-85.0306 937.1229,-74.4466 930.4181,-76.4581"/>
</g>
<!-- Node25 -->
<g id="node9" class="node">
<title>Node25</title>
<g id="a_node9"><a xlink:href="_presentation_controller_8cxx.html" target="_top" xlink:title=" ">
<polygon fill="none" stroke="#000000" points="1202,-.5 1202,-48.5 1366.9697,-48.5 1366.9697,-.5 1202,-.5"/>
<text text-anchor="start" x="1210" y="-36.5" font-family="Helvetica,sans-Serif" font-size="10.00" fill="#000000">/Users/oskryp/Projects</text>
<text text-anchor="start" x="1210" y="-26.5" font-family="Helvetica,sans-Serif" font-size="10.00" fill="#000000">/freesee&#45;native&#45;client</text>
<text text-anchor="start" x="1210" y="-16.5" font-family="Helvetica,sans-Serif" font-size="10.00" fill="#000000">/libs/fcc_sdk/engine/meetingclient</text>
<text text-anchor="middle" x="1284.4849" y="-6.5" font-family="Helvetica,sans-Serif" font-size="10.00" fill="#000000">/src/PresentationController.cxx</text>
</a>
</g>
</g>
<!-- Node21&#45;&gt;Node25 -->
<g id="edge8" class="edge">
<title>Node21&#45;&gt;Node25</title>
<path fill="none" stroke="#191970" d="M1052.3021,-86.2001C1095.7917,-74.6713 1146.5448,-61.2083 1192.4849,-49 1195.52,-48.1934 1198.6114,-47.3716 1201.734,-46.5413"/>
<polygon fill="#191970" stroke="#191970" points="1051.3339,-82.8358 1042.5646,-88.7813 1053.1276,-89.6021 1051.3339,-82.8358"/>
</g>
<!-- Node21&#45;&gt;Node26 -->
<g id="edge9" class="edge">
<title>Node21&#45;&gt;Node26</title>
<path fill="none" stroke="#191970" d="M1004.9568,-80.1892C1023.2036,-69.6623 1042.8862,-58.3069 1059.6885,-48.6133"/>
<polygon fill="#191970" stroke="#191970" points="1003.0464,-77.2507 996.1336,-85.2796 1006.5445,-83.314 1003.0464,-77.2507"/>
</g>
<!-- Node27&#45;&gt;Node22 -->
<g id="edge11" class="edge">
<title>Node27&#45;&gt;Node22</title>
<path fill="none" stroke="#191970" d="M718.6655,-80.5645C721.8473,-69.9585 725.2914,-58.4782 728.2294,-48.6849"/>
<polygon fill="#191970" stroke="#191970" points="715.2415,-79.7976 715.7204,-90.3817 721.9463,-81.8091 715.2415,-79.7976"/>
</g>
<!-- Node27&#45;&gt;Node23 -->
<g id="edge12" class="edge">
<title>Node27&#45;&gt;Node23</title>
<path fill="none" stroke="#191970" d="M608.1252,-87.9119C563.2576,-76.0186 509.7185,-61.8177 461.4849,-49 458.4497,-48.1934 455.3583,-47.3716 452.2358,-46.5413"/>
<polygon fill="#191970" stroke="#191970" points="607.2932,-91.3122 617.8562,-90.4912 609.0868,-84.5458 607.2932,-91.3122"/>
</g>
<!-- Node27&#45;&gt;Node24 -->
<g id="edge13" class="edge">
<title>Node27&#45;&gt;Node24</title>
<path fill="none" stroke="#191970" d="M773.9051,-86.4628C802.234,-74.3218 835.0658,-60.251 862.2761,-48.5895"/>
<polygon fill="#191970" stroke="#191970" points="772.2979,-83.3436 764.4851,-90.4999 775.0553,-89.7776 772.2979,-83.3436"/>
</g>
<!-- Node27&#45;&gt;Node26 -->
<g id="edge15" class="edge">
<title>Node27&#45;&gt;Node26</title>
<path fill="none" stroke="#191970" d="M824.4483,-88.3028C829.5282,-87.1815 834.5579,-86.0764 839.4849,-85 914.9364,-68.5162 934.367,-66.9431 1009.4849,-49 1012.5394,-48.2704 1015.6473,-47.5141 1018.7839,-46.7391"/>
<polygon fill="#191970" stroke="#191970" points="823.6384,-84.8973 814.6311,-90.4759 825.1513,-91.7319 823.6384,-84.8973"/>
</g>
<!-- Node28 -->
<g id="node12" class="node">
<title>Node28</title>
<g id="a_node12"><a xlink:href="_recording_controller_8cxx.html" target="_top" xlink:title=" ">
<polygon fill="none" stroke="#000000" points="470,-.5 470,-48.5 634.9697,-48.5 634.9697,-.5 470,-.5"/>
<text text-anchor="start" x="478" y="-36.5" font-family="Helvetica,sans-Serif" font-size="10.00" fill="#000000">/Users/oskryp/Projects</text>
<text text-anchor="start" x="478" y="-26.5" font-family="Helvetica,sans-Serif" font-size="10.00" fill="#000000">/freesee&#45;native&#45;client</text>
<text text-anchor="start" x="478" y="-16.5" font-family="Helvetica,sans-Serif" font-size="10.00" fill="#000000">/libs/fcc_sdk/engine/meetingclient</text>
<text text-anchor="middle" x="552.4849" y="-6.5" font-family="Helvetica,sans-Serif" font-size="10.00" fill="#000000">/src/RecordingController.cxx</text>
</a>
</g>
</g>
<!-- Node27&#45;&gt;Node28 -->
<g id="edge14" class="edge">
<title>Node27&#45;&gt;Node28</title>
<path fill="none" stroke="#191970" d="M657.7544,-85.2324C637.1713,-73.3576 613.6898,-59.8106 594.1347,-48.5287"/>
<polygon fill="#191970" stroke="#191970" points="656.2688,-88.416 666.6797,-90.3817 659.7669,-82.3527 656.2688,-88.416"/>
</g>
</g>
</svg>
