<?xml version="1.0" encoding="UTF-8" standalone="no"?>
<!DOCTYPE svg PUBLIC "-//W3C//DTD SVG 1.1//EN"
 "http://www.w3.org/Graphics/SVG/1.1/DTD/svg11.dtd">
<!-- Generated by graphviz version 2.40.1 (20161225.0304)
 -->
<!-- Title: /Users/oskryp/Projects/freesee&#45;native&#45;client/libs/fcc_sdk/engine/meetingclient/src/headers/MeetingClient/SCUploadData.hxx Pages: 1 -->
<svg width="1027pt" height="417pt"
 viewBox="0.00 0.00 1027.06 417.00" xmlns="http://www.w3.org/2000/svg" xmlns:xlink="http://www.w3.org/1999/xlink">
<g id="graph0" class="graph" transform="scale(1 1) rotate(0) translate(4 413)">
<title>/Users/oskryp/Projects/freesee&#45;native&#45;client/libs/fcc_sdk/engine/meetingclient/src/headers/MeetingClient/SCUploadData.hxx</title>
<!-- Node4 -->
<g id="node1" class="node">
<title>Node4</title>
<g id="a_node1"><a xlink:title=" ">
<polygon fill="#bfbfbf" stroke="#000000" points="620.1914,-360.5 620.1914,-408.5 842.959,-408.5 842.959,-360.5 620.1914,-360.5"/>
<text text-anchor="start" x="628.1914" y="-396.5" font-family="Helvetica,sans-Serif" font-size="10.00" fill="#000000">/Users/oskryp/Projects</text>
<text text-anchor="start" x="628.1914" y="-386.5" font-family="Helvetica,sans-Serif" font-size="10.00" fill="#000000">/freesee&#45;native&#45;client</text>
<text text-anchor="start" x="628.1914" y="-376.5" font-family="Helvetica,sans-Serif" font-size="10.00" fill="#000000">/libs/fcc_sdk/engine/meetingclient</text>
<text text-anchor="middle" x="731.5752" y="-366.5" font-family="Helvetica,sans-Serif" font-size="10.00" fill="#000000">/src/headers/MeetingClient/SCUploadData.hxx</text>
</a>
</g>
</g>
<!-- Node5 -->
<g id="node2" class="node">
<title>Node5</title>
<g id="a_node2"><a xlink:href="_h_t_t_p_request_8hxx.html" target="_top" xlink:title=" ">
<polygon fill="none" stroke="#000000" points="388.8662,-275.5 388.8662,-323.5 608.2842,-323.5 608.2842,-275.5 388.8662,-275.5"/>
<text text-anchor="start" x="396.8662" y="-311.5" font-family="Helvetica,sans-Serif" font-size="10.00" fill="#000000">/Users/oskryp/Projects</text>
<text text-anchor="start" x="396.8662" y="-301.5" font-family="Helvetica,sans-Serif" font-size="10.00" fill="#000000">/freesee&#45;native&#45;client</text>
<text text-anchor="start" x="396.8662" y="-291.5" font-family="Helvetica,sans-Serif" font-size="10.00" fill="#000000">/libs/fcc_sdk/engine/meetingclient</text>
<text text-anchor="middle" x="498.5752" y="-281.5" font-family="Helvetica,sans-Serif" font-size="10.00" fill="#000000">/src/headers/MeetingClient/HTTPRequest.hxx</text>
</a>
</g>
</g>
<!-- Node4&#45;&gt;Node5 -->
<g id="edge1" class="edge">
<title>Node4&#45;&gt;Node5</title>
<path fill="none" stroke="#191970" d="M656.3106,-357.043C626.7905,-346.2738 593.2148,-334.0252 564.6505,-323.6047"/>
<polygon fill="#191970" stroke="#191970" points="655.1471,-360.3441 665.741,-360.4832 657.5461,-353.768 655.1471,-360.3441"/>
</g>
<!-- Node16 -->
<g id="node13" class="node">
<title>Node16</title>
<g id="a_node13"><a xlink:href="_s_c_uploader_8hxx.html" target="_top" xlink:title=" ">
<polygon fill="none" stroke="#000000" points="626.5806,-275.5 626.5806,-323.5 836.5698,-323.5 836.5698,-275.5 626.5806,-275.5"/>
<text text-anchor="start" x="634.5806" y="-311.5" font-family="Helvetica,sans-Serif" font-size="10.00" fill="#000000">/Users/oskryp/Projects</text>
<text text-anchor="start" x="634.5806" y="-301.5" font-family="Helvetica,sans-Serif" font-size="10.00" fill="#000000">/freesee&#45;native&#45;client</text>
<text text-anchor="start" x="634.5806" y="-291.5" font-family="Helvetica,sans-Serif" font-size="10.00" fill="#000000">/libs/fcc_sdk/engine/meetingclient</text>
<text text-anchor="middle" x="731.5752" y="-281.5" font-family="Helvetica,sans-Serif" font-size="10.00" fill="#000000">/src/headers/MeetingClient/SCUploader.hxx</text>
</a>
</g>
</g>
<!-- Node4&#45;&gt;Node16 -->
<g id="edge14" class="edge">
<title>Node4&#45;&gt;Node16</title>
<path fill="none" stroke="#191970" d="M731.5752,-350.2518C731.5752,-341.3524 731.5752,-331.951 731.5752,-323.6906"/>
<polygon fill="#191970" stroke="#191970" points="728.0753,-350.3697 731.5752,-360.3698 735.0753,-350.3698 728.0753,-350.3697"/>
</g>
<!-- Node17 -->
<g id="node14" class="node">
<title>Node17</title>
<g id="a_node14"><a xlink:href="_s_c_upload_data_8cxx.html" target="_top" xlink:title=" ">
<polygon fill="none" stroke="#000000" points="854.0903,-275.5 854.0903,-323.5 1019.0601,-323.5 1019.0601,-275.5 854.0903,-275.5"/>
<text text-anchor="start" x="862.0903" y="-311.5" font-family="Helvetica,sans-Serif" font-size="10.00" fill="#000000">/Users/oskryp/Projects</text>
<text text-anchor="start" x="862.0903" y="-301.5" font-family="Helvetica,sans-Serif" font-size="10.00" fill="#000000">/freesee&#45;native&#45;client</text>
<text text-anchor="start" x="862.0903" y="-291.5" font-family="Helvetica,sans-Serif" font-size="10.00" fill="#000000">/libs/fcc_sdk/engine/meetingclient</text>
<text text-anchor="middle" x="936.5752" y="-281.5" font-family="Helvetica,sans-Serif" font-size="10.00" fill="#000000">/src/SCUploadData.cxx</text>
</a>
</g>
</g>
<!-- Node4&#45;&gt;Node17 -->
<g id="edge15" class="edge">
<title>Node4&#45;&gt;Node17</title>
<path fill="none" stroke="#191970" d="M798.8088,-356.6226C824.5343,-345.956 853.6349,-333.8899 878.4403,-323.6047"/>
<polygon fill="#191970" stroke="#191970" points="797.3948,-353.4199 789.498,-360.4832 800.076,-359.8861 797.3948,-353.4199"/>
</g>
<!-- Node6 -->
<g id="node3" class="node">
<title>Node6</title>
<g id="a_node3"><a xlink:href="result__builder_8hxx.html" target="_top" xlink:title=" ">
<polygon fill="none" stroke="#000000" points="304.2036,-180.5 304.2036,-238.5 496.9468,-238.5 496.9468,-180.5 304.2036,-180.5"/>
<text text-anchor="start" x="312.2036" y="-226.5" font-family="Helvetica,sans-Serif" font-size="10.00" fill="#000000">/Users/oskryp/Projects</text>
<text text-anchor="start" x="312.2036" y="-216.5" font-family="Helvetica,sans-Serif" font-size="10.00" fill="#000000">/freesee&#45;native&#45;client</text>
<text text-anchor="start" x="312.2036" y="-206.5" font-family="Helvetica,sans-Serif" font-size="10.00" fill="#000000">/libs/fcc_sdk/engine/meetingclient</text>
<text text-anchor="start" x="312.2036" y="-196.5" font-family="Helvetica,sans-Serif" font-size="10.00" fill="#000000">/src/headers/MeetingClient/webservices</text>
<text text-anchor="middle" x="400.5752" y="-186.5" font-family="Helvetica,sans-Serif" font-size="10.00" fill="#000000">/result_builder.hxx</text>
</a>
</g>
</g>
<!-- Node5&#45;&gt;Node6 -->
<g id="edge2" class="edge">
<title>Node5&#45;&gt;Node6</title>
<path fill="none" stroke="#191970" d="M464.8902,-268.5648C454.4002,-258.9311 442.8691,-248.3414 432.503,-238.8215"/>
<polygon fill="#191970" stroke="#191970" points="462.5802,-271.1954 472.313,-275.3817 467.3151,-266.0397 462.5802,-271.1954"/>
</g>
<!-- Node15 -->
<g id="node12" class="node">
<title>Node15</title>
<g id="a_node12"><a xlink:href="_h_t_t_p_request_8cxx.html" target="_top" xlink:title=" ">
<polygon fill="none" stroke="#000000" points="515.0903,-185.5 515.0903,-233.5 680.0601,-233.5 680.0601,-185.5 515.0903,-185.5"/>
<text text-anchor="start" x="523.0903" y="-221.5" font-family="Helvetica,sans-Serif" font-size="10.00" fill="#000000">/Users/oskryp/Projects</text>
<text text-anchor="start" x="523.0903" y="-211.5" font-family="Helvetica,sans-Serif" font-size="10.00" fill="#000000">/freesee&#45;native&#45;client</text>
<text text-anchor="start" x="523.0903" y="-201.5" font-family="Helvetica,sans-Serif" font-size="10.00" fill="#000000">/libs/fcc_sdk/engine/meetingclient</text>
<text text-anchor="middle" x="597.5752" y="-191.5" font-family="Helvetica,sans-Serif" font-size="10.00" fill="#000000">/src/HTTPRequest.cxx</text>
</a>
</g>
</g>
<!-- Node5&#45;&gt;Node15 -->
<g id="edge13" class="edge">
<title>Node5&#45;&gt;Node15</title>
<path fill="none" stroke="#191970" d="M532.6839,-268.492C545.2115,-257.1033 559.1996,-244.3869 570.9718,-233.6849"/>
<polygon fill="#191970" stroke="#191970" points="530.1504,-266.0651 525.1054,-275.3817 534.8592,-271.2447 530.1504,-266.0651"/>
</g>
<!-- Node7 -->
<g id="node4" class="node">
<title>Node7</title>
<g id="a_node4"><a xlink:href="apiv3_8hxx.html" target="_top" xlink:title=" ">
<polygon fill="none" stroke="#000000" points="118.2036,-85.5 118.2036,-143.5 310.9468,-143.5 310.9468,-85.5 118.2036,-85.5"/>
<text text-anchor="start" x="126.2036" y="-131.5" font-family="Helvetica,sans-Serif" font-size="10.00" fill="#000000">/Users/oskryp/Projects</text>
<text text-anchor="start" x="126.2036" y="-121.5" font-family="Helvetica,sans-Serif" font-size="10.00" fill="#000000">/freesee&#45;native&#45;client</text>
<text text-anchor="start" x="126.2036" y="-111.5" font-family="Helvetica,sans-Serif" font-size="10.00" fill="#000000">/libs/fcc_sdk/engine/meetingclient</text>
<text text-anchor="start" x="126.2036" y="-101.5" font-family="Helvetica,sans-Serif" font-size="10.00" fill="#000000">/src/headers/MeetingClient/webservices</text>
<text text-anchor="middle" x="214.5752" y="-91.5" font-family="Helvetica,sans-Serif" font-size="10.00" fill="#000000">/apiv3.hxx</text>
</a>
</g>
</g>
<!-- Node6&#45;&gt;Node7 -->
<g id="edge3" class="edge">
<title>Node6&#45;&gt;Node7</title>
<path fill="none" stroke="#191970" d="M334.7167,-175.8626C314.0258,-165.2947 291.3703,-153.7233 271.3643,-143.5052"/>
<polygon fill="#191970" stroke="#191970" points="333.2607,-179.049 343.7584,-180.4807 336.4448,-172.8151 333.2607,-179.049"/>
</g>
<!-- Node9 -->
<g id="node6" class="node">
<title>Node9</title>
<g id="a_node6"><a xlink:href="_web_service_a_p_i_8cxx.html" target="_top" xlink:title=" ">
<polygon fill="none" stroke="#000000" points="213.4194,-.5 213.4194,-48.5 393.731,-48.5 393.731,-.5 213.4194,-.5"/>
<text text-anchor="start" x="221.4194" y="-36.5" font-family="Helvetica,sans-Serif" font-size="10.00" fill="#000000">/Users/oskryp/Projects</text>
<text text-anchor="start" x="221.4194" y="-26.5" font-family="Helvetica,sans-Serif" font-size="10.00" fill="#000000">/freesee&#45;native&#45;client</text>
<text text-anchor="start" x="221.4194" y="-16.5" font-family="Helvetica,sans-Serif" font-size="10.00" fill="#000000">/libs/fcc_sdk/engine/meetingclient</text>
<text text-anchor="middle" x="303.5752" y="-6.5" font-family="Helvetica,sans-Serif" font-size="10.00" fill="#000000">/src/webservices/WebServiceAPI.cxx</text>
</a>
</g>
</g>
<!-- Node6&#45;&gt;Node9 -->
<g id="edge12" class="edge">
<title>Node6&#45;&gt;Node9</title>
<path fill="none" stroke="#191970" d="M374.5445,-172.0409C368.684,-163.0241 362.6905,-153.3044 357.5752,-144 340.0262,-112.0797 323.3197,-73.3801 313.2577,-48.8442"/>
<polygon fill="#191970" stroke="#191970" points="371.6571,-174.0199 380.0897,-180.434 377.4975,-170.1612 371.6571,-174.0199"/>
</g>
<!-- Node10 -->
<g id="node7" class="node">
<title>Node10</title>
<g id="a_node7"><a xlink:href="apiv4_8hxx.html" target="_top" xlink:title=" ">
<polygon fill="none" stroke="#000000" points="366.2036,-85.5 366.2036,-143.5 558.9468,-143.5 558.9468,-85.5 366.2036,-85.5"/>
<text text-anchor="start" x="374.2036" y="-131.5" font-family="Helvetica,sans-Serif" font-size="10.00" fill="#000000">/Users/oskryp/Projects</text>
<text text-anchor="start" x="374.2036" y="-121.5" font-family="Helvetica,sans-Serif" font-size="10.00" fill="#000000">/freesee&#45;native&#45;client</text>
<text text-anchor="start" x="374.2036" y="-111.5" font-family="Helvetica,sans-Serif" font-size="10.00" fill="#000000">/libs/fcc_sdk/engine/meetingclient</text>
<text text-anchor="start" x="374.2036" y="-101.5" font-family="Helvetica,sans-Serif" font-size="10.00" fill="#000000">/src/headers/MeetingClient/webservices</text>
<text text-anchor="middle" x="462.5752" y="-91.5" font-family="Helvetica,sans-Serif" font-size="10.00" fill="#000000">/apiv4.hxx</text>
</a>
</g>
</g>
<!-- Node6&#45;&gt;Node10 -->
<g id="edge6" class="edge">
<title>Node6&#45;&gt;Node10</title>
<path fill="none" stroke="#191970" d="M425.0329,-172.0245C431.1846,-162.5986 437.6964,-152.6208 443.5386,-143.669"/>
<polygon fill="#191970" stroke="#191970" points="422.0485,-170.1934 419.5141,-180.4807 427.9106,-174.0192 422.0485,-170.1934"/>
</g>
<!-- Node12 -->
<g id="node9" class="node">
<title>Node12</title>
<g id="a_node9"><a xlink:href="_web_service_proxy_8hxx.html" target="_top" xlink:title=" ">
<polygon fill="none" stroke="#000000" points="612.2036,-85.5 612.2036,-143.5 804.9468,-143.5 804.9468,-85.5 612.2036,-85.5"/>
<text text-anchor="start" x="620.2036" y="-131.5" font-family="Helvetica,sans-Serif" font-size="10.00" fill="#000000">/Users/oskryp/Projects</text>
<text text-anchor="start" x="620.2036" y="-121.5" font-family="Helvetica,sans-Serif" font-size="10.00" fill="#000000">/freesee&#45;native&#45;client</text>
<text text-anchor="start" x="620.2036" y="-111.5" font-family="Helvetica,sans-Serif" font-size="10.00" fill="#000000">/libs/fcc_sdk/engine/meetingclient</text>
<text text-anchor="start" x="620.2036" y="-101.5" font-family="Helvetica,sans-Serif" font-size="10.00" fill="#000000">/src/headers/MeetingClient/webservices</text>
<text text-anchor="middle" x="708.5752" y="-91.5" font-family="Helvetica,sans-Serif" font-size="10.00" fill="#000000">/WebServiceProxy.hxx</text>
</a>
</g>
</g>
<!-- Node6&#45;&gt;Node12 -->
<g id="edge9" class="edge">
<title>Node6&#45;&gt;Node12</title>
<path fill="none" stroke="#191970" d="M504.5856,-177.4189C540.1818,-166.4395 579.7749,-154.2274 614.5373,-143.5052"/>
<polygon fill="#191970" stroke="#191970" points="503.1831,-174.1887 494.6589,-180.4807 505.2463,-180.8777 503.1831,-174.1887"/>
</g>
<!-- Node8 -->
<g id="node5" class="node">
<title>Node8</title>
<g id="a_node5"><a xlink:href="_web_a_p_iv3_wrapper_8cxx.html" target="_top" xlink:title=" ">
<polygon fill="none" stroke="#000000" points="0,-.5 0,-48.5 195.1504,-48.5 195.1504,-.5 0,-.5"/>
<text text-anchor="start" x="8" y="-36.5" font-family="Helvetica,sans-Serif" font-size="10.00" fill="#000000">/Users/oskryp/Projects</text>
<text text-anchor="start" x="8" y="-26.5" font-family="Helvetica,sans-Serif" font-size="10.00" fill="#000000">/freesee&#45;native&#45;client</text>
<text text-anchor="start" x="8" y="-16.5" font-family="Helvetica,sans-Serif" font-size="10.00" fill="#000000">/libs/fcc_sdk/engine/meetingclient</text>
<text text-anchor="middle" x="97.5752" y="-6.5" font-family="Helvetica,sans-Serif" font-size="10.00" fill="#000000">/src/webservices/WebAPIv3Wrapper.cxx</text>
</a>
</g>
</g>
<!-- Node7&#45;&gt;Node8 -->
<g id="edge4" class="edge">
<title>Node7&#45;&gt;Node8</title>
<path fill="none" stroke="#191970" d="M168.5099,-79.0652C155.3101,-68.9115 141.2248,-58.0766 129.113,-48.7599"/>
<polygon fill="#191970" stroke="#191970" points="166.5284,-81.9566 176.5886,-85.2796 170.7964,-76.4082 166.5284,-81.9566"/>
</g>
<!-- Node7&#45;&gt;Node9 -->
<g id="edge5" class="edge">
<title>Node7&#45;&gt;Node9</title>
<path fill="none" stroke="#191970" d="M250.9891,-77.6769C260.675,-67.8822 270.8898,-57.5526 279.7139,-48.6294"/>
<polygon fill="#191970" stroke="#191970" points="248.2599,-75.4591 243.7171,-85.0306 253.2373,-80.3812 248.2599,-75.4591"/>
</g>
<!-- Node10&#45;&gt;Node9 -->
<g id="edge8" class="edge">
<title>Node10&#45;&gt;Node9</title>
<path fill="none" stroke="#191970" d="M402.213,-80.3327C383.5443,-69.7655 363.3786,-58.351 346.1753,-48.6133"/>
<polygon fill="#191970" stroke="#191970" points="400.5258,-83.3994 410.9525,-85.2796 403.974,-77.3076 400.5258,-83.3994"/>
</g>
<!-- Node11 -->
<g id="node8" class="node">
<title>Node11</title>
<g id="a_node8"><a xlink:href="_web_a_p_iv4_wrapper_8cxx.html" target="_top" xlink:title=" ">
<polygon fill="none" stroke="#000000" points="412,-.5 412,-48.5 607.1504,-48.5 607.1504,-.5 412,-.5"/>
<text text-anchor="start" x="420" y="-36.5" font-family="Helvetica,sans-Serif" font-size="10.00" fill="#000000">/Users/oskryp/Projects</text>
<text text-anchor="start" x="420" y="-26.5" font-family="Helvetica,sans-Serif" font-size="10.00" fill="#000000">/freesee&#45;native&#45;client</text>
<text text-anchor="start" x="420" y="-16.5" font-family="Helvetica,sans-Serif" font-size="10.00" fill="#000000">/libs/fcc_sdk/engine/meetingclient</text>
<text text-anchor="middle" x="509.5752" y="-6.5" font-family="Helvetica,sans-Serif" font-size="10.00" fill="#000000">/src/webservices/WebAPIv4Wrapper.cxx</text>
</a>
</g>
</g>
<!-- Node10&#45;&gt;Node11 -->
<g id="edge7" class="edge">
<title>Node10&#45;&gt;Node11</title>
<path fill="none" stroke="#191970" d="M482.7104,-75.9433C487.5521,-66.6718 492.5885,-57.0277 496.9743,-48.6294"/>
<polygon fill="#191970" stroke="#191970" points="479.4914,-74.5464 477.9648,-85.0306 485.6963,-77.7867 479.4914,-74.5464"/>
</g>
<!-- Node13 -->
<g id="node10" class="node">
<title>Node13</title>
<g id="a_node10"><a xlink:href="_free_see_a_p_i2_impl_8cxx.html" target="_top" xlink:title=" ">
<polygon fill="none" stroke="#000000" points="625.2725,-.5 625.2725,-48.5 791.8779,-48.5 791.8779,-.5 625.2725,-.5"/>
<text text-anchor="start" x="633.2725" y="-36.5" font-family="Helvetica,sans-Serif" font-size="10.00" fill="#000000">/Users/oskryp/Projects</text>
<text text-anchor="start" x="633.2725" y="-26.5" font-family="Helvetica,sans-Serif" font-size="10.00" fill="#000000">/freesee&#45;native&#45;client</text>
<text text-anchor="start" x="633.2725" y="-16.5" font-family="Helvetica,sans-Serif" font-size="10.00" fill="#000000">/libs/fcc_sdk/engine/meetingclient</text>
<text text-anchor="middle" x="708.5752" y="-6.5" font-family="Helvetica,sans-Serif" font-size="10.00" fill="#000000">/src/proxies/FreeSeeAPI2Impl.cxx</text>
</a>
</g>
</g>
<!-- Node12&#45;&gt;Node13 -->
<g id="edge10" class="edge">
<title>Node12&#45;&gt;Node13</title>
<path fill="none" stroke="#191970" d="M708.5752,-74.7825C708.5752,-65.8703 708.5752,-56.6778 708.5752,-48.6294"/>
<polygon fill="#191970" stroke="#191970" points="705.0753,-75.0306 708.5752,-85.0306 712.0753,-75.0307 705.0753,-75.0306"/>
</g>
<!-- Node14 -->
<g id="node11" class="node">
<title>Node14</title>
<g id="a_node11"><a xlink:href="_web_service_proxy_8cxx.html" target="_top" xlink:title=" ">
<polygon fill="none" stroke="#000000" points="810.0664,-.5 810.0664,-48.5 999.084,-48.5 999.084,-.5 810.0664,-.5"/>
<text text-anchor="start" x="818.0664" y="-36.5" font-family="Helvetica,sans-Serif" font-size="10.00" fill="#000000">/Users/oskryp/Projects</text>
<text text-anchor="start" x="818.0664" y="-26.5" font-family="Helvetica,sans-Serif" font-size="10.00" fill="#000000">/freesee&#45;native&#45;client</text>
<text text-anchor="start" x="818.0664" y="-16.5" font-family="Helvetica,sans-Serif" font-size="10.00" fill="#000000">/libs/fcc_sdk/engine/meetingclient</text>
<text text-anchor="middle" x="904.5752" y="-6.5" font-family="Helvetica,sans-Serif" font-size="10.00" fill="#000000">/src/webservices/WebServiceProxy.cxx</text>
</a>
</g>
</g>
<!-- Node12&#45;&gt;Node14 -->
<g id="edge11" class="edge">
<title>Node12&#45;&gt;Node14</title>
<path fill="none" stroke="#191970" d="M781.2016,-81.1512C804.7724,-70.3278 830.4464,-58.5387 852.2399,-48.5315"/>
<polygon fill="#191970" stroke="#191970" points="779.5673,-78.0502 771.9401,-85.4039 782.4884,-84.4116 779.5673,-78.0502"/>
</g>
</g>
</svg>
