<?xml version="1.0" encoding="UTF-8" standalone="no"?>
<!DOCTYPE svg PUBLIC "-//W3C//DTD SVG 1.1//EN"
 "http://www.w3.org/Graphics/SVG/1.1/DTD/svg11.dtd">
<!-- Generated by graphviz version 2.40.1 (20161225.0304)
 -->
<!-- Title: /Users/oskryp/Projects/freesee&#45;native&#45;client/libs/fcc_sdk/engine/meetingclient/src/headers/MeetingClient/ScreenSharingController.hxx Pages: 1 -->
<svg width="1420pt" height="187pt"
 viewBox="0.00 0.00 1419.60 187.00" xmlns="http://www.w3.org/2000/svg" xmlns:xlink="http://www.w3.org/1999/xlink">
<g id="graph0" class="graph" transform="scale(1 1) rotate(0) translate(4 183)">
<title>/Users/oskryp/Projects/freesee&#45;native&#45;client/libs/fcc_sdk/engine/meetingclient/src/headers/MeetingClient/ScreenSharingController.hxx</title>
<!-- Node0 -->
<g id="node1" class="node">
<title>Node0</title>
<g id="a_node1"><a xlink:title=" ">
<polygon fill="#bfbfbf" stroke="#000000" points="550.5864,-120.5 550.5864,-178.5 754.4624,-178.5 754.4624,-120.5 550.5864,-120.5"/>
<text text-anchor="start" x="558.5864" y="-166.5" font-family="Helvetica,sans-Serif" font-size="10.00" fill="#000000">/Users/oskryp/Projects</text>
<text text-anchor="start" x="558.5864" y="-156.5" font-family="Helvetica,sans-Serif" font-size="10.00" fill="#000000">/freesee&#45;native&#45;client</text>
<text text-anchor="start" x="558.5864" y="-146.5" font-family="Helvetica,sans-Serif" font-size="10.00" fill="#000000">/libs/fcc_sdk/engine/meetingclient</text>
<text text-anchor="start" x="558.5864" y="-136.5" font-family="Helvetica,sans-Serif" font-size="10.00" fill="#000000">/src/headers/MeetingClient/ScreenSharing</text>
<text text-anchor="middle" x="652.5244" y="-126.5" font-family="Helvetica,sans-Serif" font-size="10.00" fill="#000000">Controller.hxx</text>
</a>
</g>
</g>
<!-- Node1 -->
<g id="node2" class="node">
<title>Node1</title>
<g id="a_node2"><a xlink:title=" ">
<polygon fill="none" stroke="#bfbfbf" points="0,-60.5 0,-78.5 81.0488,-78.5 81.0488,-60.5 0,-60.5"/>
<text text-anchor="middle" x="40.5244" y="-66.5" font-family="Helvetica,sans-Serif" font-size="10.00" fill="#000000">boost/asio.hpp</text>
</a>
</g>
</g>
<!-- Node0&#45;&gt;Node1 -->
<g id="edge1" class="edge">
<title>Node0&#45;&gt;Node1</title>
<path fill="none" stroke="#191970" d="M550.4962,-142.9276C437.0646,-134.396 248.8356,-116.5867 89.5244,-84 85.6743,-83.2125 81.6895,-82.2633 77.7318,-81.2321"/>
<polygon fill="#191970" stroke="#191970" points="78.6141,-77.8447 68.0424,-78.5449 76.7433,-84.5901 78.6141,-77.8447"/>
</g>
<!-- Node2 -->
<g id="node3" class="node">
<title>Node2</title>
<g id="a_node3"><a xlink:title=" ">
<polygon fill="none" stroke="#bfbfbf" points="98.8203,-55.5 98.8203,-83.5 208.2285,-83.5 208.2285,-55.5 98.8203,-55.5"/>
<text text-anchor="start" x="106.8203" y="-71.5" font-family="Helvetica,sans-Serif" font-size="10.00" fill="#000000">boost/enable_shared</text>
<text text-anchor="middle" x="153.5244" y="-61.5" font-family="Helvetica,sans-Serif" font-size="10.00" fill="#000000">_from_this.hpp</text>
</a>
</g>
</g>
<!-- Node0&#45;&gt;Node2 -->
<g id="edge2" class="edge">
<title>Node0&#45;&gt;Node2</title>
<path fill="none" stroke="#191970" d="M550.1721,-135.553C462.8827,-123.2657 334.1682,-104.2174 222.5244,-84 221.2371,-83.7669 219.937,-83.528 218.6275,-83.2841"/>
<polygon fill="#191970" stroke="#191970" points="218.9378,-79.7799 208.4575,-81.3332 217.619,-86.6546 218.9378,-79.7799"/>
</g>
<!-- Node3 -->
<g id="node4" class="node">
<title>Node3</title>
<g id="a_node4"><a xlink:title=" ">
<polygon fill="none" stroke="#bfbfbf" points="275.542,-.5 275.542,-18.5 385.5068,-18.5 385.5068,-.5 275.542,-.5"/>
<text text-anchor="middle" x="330.5244" y="-6.5" font-family="Helvetica,sans-Serif" font-size="10.00" fill="#000000">boost/shared_ptr.hpp</text>
</a>
</g>
</g>
<!-- Node0&#45;&gt;Node3 -->
<g id="edge3" class="edge">
<title>Node0&#45;&gt;Node3</title>
<path fill="none" stroke="#191970" d="M550.2747,-139.4788C439.0576,-127.5254 274.4786,-106.3377 255.5244,-84 247.1853,-74.1723 249.2015,-66.2314 255.5244,-55 263.7369,-40.4122 278.7245,-29.963 293.1548,-22.788"/>
<polygon fill="#191970" stroke="#191970" points="294.8341,-25.869 302.4803,-18.5352 291.9295,-19.5001 294.8341,-25.869"/>
</g>
<!-- Node4 -->
<g id="node5" class="node">
<title>Node4</title>
<g id="a_node5"><a xlink:title=" ">
<polygon fill="none" stroke="#bfbfbf" points="594.2144,-60.5 594.2144,-78.5 710.8345,-78.5 710.8345,-60.5 594.2144,-60.5"/>
<text text-anchor="middle" x="652.5244" y="-66.5" font-family="Helvetica,sans-Serif" font-size="10.00" fill="#000000">boost/thread/locks.hpp</text>
</a>
</g>
</g>
<!-- Node0&#45;&gt;Node4 -->
<g id="edge4" class="edge">
<title>Node0&#45;&gt;Node4</title>
<path fill="none" stroke="#191970" d="M652.5244,-120.1652C652.5244,-109.7665 652.5244,-98.3304 652.5244,-88.9589"/>
<polygon fill="#191970" stroke="#191970" points="656.0245,-88.76 652.5244,-78.7601 649.0245,-88.7601 656.0245,-88.76"/>
</g>
<!-- Node5 -->
<g id="node6" class="node">
<title>Node5</title>
<g id="a_node6"><a xlink:title=" ">
<polygon fill="none" stroke="#bfbfbf" points="729.0493,-55.5 729.0493,-83.5 833.9995,-83.5 833.9995,-55.5 729.0493,-55.5"/>
<text text-anchor="start" x="737.0493" y="-71.5" font-family="Helvetica,sans-Serif" font-size="10.00" fill="#000000">boost/thread/shared</text>
<text text-anchor="middle" x="781.5244" y="-61.5" font-family="Helvetica,sans-Serif" font-size="10.00" fill="#000000">_mutex.hpp</text>
</a>
</g>
</g>
<!-- Node0&#45;&gt;Node5 -->
<g id="edge5" class="edge">
<title>Node0&#45;&gt;Node5</title>
<path fill="none" stroke="#191970" d="M699.4613,-120.3919C716.3231,-109.9349 734.9183,-98.403 750.1382,-88.9643"/>
<polygon fill="#191970" stroke="#191970" points="752.0169,-91.9177 758.6707,-83.6728 748.3276,-85.9688 752.0169,-91.9177"/>
</g>
<!-- Node6 -->
<g id="node7" class="node">
<title>Node6</title>
<g id="a_node7"><a xlink:title=" ">
<polygon fill="none" stroke="#bfbfbf" points="851.8545,-60.5 851.8545,-78.5 881.1943,-78.5 881.1943,-60.5 851.8545,-60.5"/>
<text text-anchor="middle" x="866.5244" y="-66.5" font-family="Helvetica,sans-Serif" font-size="10.00" fill="#000000">set</text>
</a>
</g>
</g>
<!-- Node0&#45;&gt;Node6 -->
<g id="edge6" class="edge">
<title>Node0&#45;&gt;Node6</title>
<path fill="none" stroke="#191970" d="M749.7738,-120.3808C780.0239,-110.1597 813.135,-97.7545 842.5244,-84 842.9433,-83.804 843.3641,-83.6025 843.7862,-83.3963"/>
<polygon fill="#191970" stroke="#191970" points="845.4801,-86.4592 852.5841,-78.599 842.1289,-80.3135 845.4801,-86.4592"/>
</g>
<!-- Node7 -->
<g id="node8" class="node">
<title>Node7</title>
<g id="a_node8"><a xlink:title=" ">
<polygon fill="none" stroke="#bfbfbf" points="545.9087,-.5 545.9087,-18.5 589.1401,-18.5 589.1401,-.5 545.9087,-.5"/>
<text text-anchor="middle" x="567.5244" y="-6.5" font-family="Helvetica,sans-Serif" font-size="10.00" fill="#000000">vector</text>
</a>
</g>
</g>
<!-- Node0&#45;&gt;Node7 -->
<g id="edge7" class="edge">
<title>Node0&#45;&gt;Node7</title>
<path fill="none" stroke="#191970" d="M615.4181,-120.3068C604.3568,-109.9184 593.1613,-97.4347 585.5244,-84 575.7883,-66.8723 571.2931,-44.6358 569.2333,-28.9295"/>
<polygon fill="#191970" stroke="#191970" points="572.6933,-28.3721 568.1238,-18.8134 565.735,-29.1354 572.6933,-28.3721"/>
</g>
<!-- Node8 -->
<g id="node9" class="node">
<title>Node8</title>
<g id="a_node9"><a xlink:title=" ">
<polygon fill="none" stroke="#bfbfbf" points="898.8374,-60.5 898.8374,-78.5 988.2114,-78.5 988.2114,-60.5 898.8374,-60.5"/>
<text text-anchor="middle" x="943.5244" y="-66.5" font-family="Helvetica,sans-Serif" font-size="10.00" fill="#000000">FSSnapshot.hxx</text>
</a>
</g>
</g>
<!-- Node0&#45;&gt;Node8 -->
<g id="edge8" class="edge">
<title>Node0&#45;&gt;Node8</title>
<path fill="none" stroke="#191970" d="M754.7109,-121.4075C804.9222,-107.6037 862.7056,-91.7182 900.9866,-81.1942"/>
<polygon fill="#191970" stroke="#191970" points="902.0481,-84.5323 910.7626,-78.5067 900.1925,-77.7828 902.0481,-84.5323"/>
</g>
<!-- Node9 -->
<g id="node10" class="node">
<title>Node9</title>
<g id="a_node10"><a xlink:href="_common_data_types_8hxx.html" target="_top" xlink:title=" ">
<polygon fill="none" stroke="#000000" points="1005.7783,-55.5 1005.7783,-83.5 1131.2705,-83.5 1131.2705,-55.5 1005.7783,-55.5"/>
<text text-anchor="start" x="1013.7783" y="-71.5" font-family="Helvetica,sans-Serif" font-size="10.00" fill="#000000">MeetingClient/types</text>
<text text-anchor="middle" x="1068.5244" y="-61.5" font-family="Helvetica,sans-Serif" font-size="10.00" fill="#000000">/CommonDataTypes.hxx</text>
</a>
</g>
</g>
<!-- Node0&#45;&gt;Node9 -->
<g id="edge9" class="edge">
<title>Node0&#45;&gt;Node9</title>
<path fill="none" stroke="#191970" d="M754.4936,-130.5236C820.6623,-118.119 909.0315,-101.3836 995.4507,-84.397"/>
<polygon fill="#191970" stroke="#191970" points="996.2966,-87.7978 1005.4323,-82.4322 994.9445,-80.9296 996.2966,-87.7978"/>
</g>
<!-- Node12 -->
<g id="node13" class="node">
<title>Node12</title>
<g id="a_node13"><a xlink:href="_meeting_controller_base_8hxx.html" target="_top" xlink:title=" ">
<polygon fill="none" stroke="#000000" points="264.4951,-60.5 264.4951,-78.5 400.5537,-78.5 400.5537,-60.5 264.4951,-60.5"/>
<text text-anchor="middle" x="332.5244" y="-66.5" font-family="Helvetica,sans-Serif" font-size="10.00" fill="#000000">MeetingControllerBase.hxx</text>
</a>
</g>
</g>
<!-- Node0&#45;&gt;Node12 -->
<g id="edge12" class="edge">
<title>Node0&#45;&gt;Node12</title>
<path fill="none" stroke="#191970" d="M550.3946,-123.9675C492.6992,-109.5437 423.4011,-92.2192 378.6947,-81.0426"/>
<polygon fill="#191970" stroke="#191970" points="379.2625,-77.5769 368.7122,-78.5469 377.5647,-84.3679 379.2625,-77.5769"/>
</g>
<!-- Node13 -->
<g id="node14" class="node">
<title>Node13</title>
<g id="a_node14"><a xlink:title=" ">
<polygon fill="none" stroke="#bfbfbf" points="1149.7095,-60.5 1149.7095,-78.5 1281.3394,-78.5 1281.3394,-60.5 1149.7095,-60.5"/>
<text text-anchor="middle" x="1215.5244" y="-66.5" font-family="Helvetica,sans-Serif" font-size="10.00" fill="#000000">ScreenSharingEngine.hxx</text>
</a>
</g>
</g>
<!-- Node0&#45;&gt;Node13 -->
<g id="edge14" class="edge">
<title>Node0&#45;&gt;Node13</title>
<path fill="none" stroke="#191970" d="M754.6556,-137.5277C853.5647,-125.5238 1007.6575,-105.7421 1140.5244,-84 1147.2074,-82.9064 1154.2083,-81.6722 1161.1344,-80.397"/>
<polygon fill="#191970" stroke="#191970" points="1162,-83.7957 1171.1826,-78.5108 1160.7085,-76.9158 1162,-83.7957"/>
</g>
<!-- Node14 -->
<g id="node15" class="node">
<title>Node14</title>
<g id="a_node15"><a xlink:href="_f_s_base_8hxx.html" target="_top" xlink:title=" ">
<polygon fill="none" stroke="#000000" points="1299.4482,-60.5 1299.4482,-78.5 1411.6006,-78.5 1411.6006,-60.5 1299.4482,-60.5"/>
<text text-anchor="middle" x="1355.5244" y="-66.5" font-family="Helvetica,sans-Serif" font-size="10.00" fill="#000000">transport/FSBase.hxx</text>
</a>
</g>
</g>
<!-- Node0&#45;&gt;Node14 -->
<g id="edge15" class="edge">
<title>Node0&#45;&gt;Node14</title>
<path fill="none" stroke="#191970" d="M754.6662,-142.7204C881.0545,-133.4806 1102.5818,-114.5026 1290.5244,-84 1296.3735,-83.0507 1302.4857,-81.9004 1308.5213,-80.6675"/>
<polygon fill="#191970" stroke="#191970" points="1309.4931,-84.0392 1318.5465,-78.5358 1308.0371,-77.1923 1309.4931,-84.0392"/>
</g>
<!-- Node15 -->
<g id="node16" class="node">
<title>Node15</title>
<g id="a_node16"><a xlink:href="_f_s_packet_8hxx.html" target="_top" xlink:title=" ">
<polygon fill="none" stroke="#000000" points="418.5591,-60.5 418.5591,-78.5 538.4897,-78.5 538.4897,-60.5 418.5591,-60.5"/>
<text text-anchor="middle" x="478.5244" y="-66.5" font-family="Helvetica,sans-Serif" font-size="10.00" fill="#000000">transport/FSPacket.hxx</text>
</a>
</g>
</g>
<!-- Node0&#45;&gt;Node15 -->
<g id="edge16" class="edge">
<title>Node0&#45;&gt;Node15</title>
<path fill="none" stroke="#191970" d="M589.2142,-120.3919C561.2817,-107.5493 529.8225,-93.0853 507.6017,-82.8688"/>
<polygon fill="#191970" stroke="#191970" points="508.9329,-79.6287 498.3851,-78.6313 506.0087,-85.9887 508.9329,-79.6287"/>
</g>
<!-- Node10 -->
<g id="node11" class="node">
<title>Node10</title>
<g id="a_node11"><a xlink:title=" ">
<polygon fill="none" stroke="#bfbfbf" points="1003.2979,-.5 1003.2979,-18.5 1043.751,-18.5 1043.751,-.5 1003.2979,-.5"/>
<text text-anchor="middle" x="1023.5244" y="-6.5" font-family="Helvetica,sans-Serif" font-size="10.00" fill="#000000">string</text>
</a>
</g>
</g>
<!-- Node9&#45;&gt;Node10 -->
<g id="edge10" class="edge">
<title>Node9&#45;&gt;Node10</title>
<path fill="none" stroke="#191970" d="M1057.86,-55.2808C1051.4664,-46.756 1043.2903,-35.8545 1036.5205,-26.8281"/>
<polygon fill="#191970" stroke="#191970" points="1039.1376,-24.4842 1030.3376,-18.5842 1033.5376,-28.6842 1039.1376,-24.4842"/>
</g>
<!-- Node11 -->
<g id="node12" class="node">
<title>Node11</title>
<g id="a_node12"><a xlink:title=" ">
<polygon fill="none" stroke="#bfbfbf" points="1061.729,-.5 1061.729,-18.5 1163.3198,-18.5 1163.3198,-.5 1061.729,-.5"/>
<text text-anchor="middle" x="1112.5244" y="-6.5" font-family="Helvetica,sans-Serif" font-size="10.00" fill="#000000">CommonTypes.hxx</text>
</a>
</g>
</g>
<!-- Node9&#45;&gt;Node11 -->
<g id="edge11" class="edge">
<title>Node9&#45;&gt;Node11</title>
<path fill="none" stroke="#191970" d="M1078.9518,-55.2808C1085.2034,-46.756 1093.1978,-35.8545 1099.8172,-26.8281"/>
<polygon fill="#191970" stroke="#191970" points="1102.7714,-28.718 1105.8627,-18.5842 1097.1266,-24.5785 1102.7714,-28.718"/>
</g>
<!-- Node12&#45;&gt;Node3 -->
<g id="edge13" class="edge">
<title>Node12&#45;&gt;Node3</title>
<path fill="none" stroke="#191970" d="M332.2207,-60.3873C331.9417,-52.0174 331.5191,-39.3414 331.1656,-28.735"/>
<polygon fill="#191970" stroke="#191970" points="334.6623,-28.5763 330.831,-18.6985 327.6662,-28.8096 334.6623,-28.5763"/>
</g>
<!-- Node15&#45;&gt;Node3 -->
<g id="edge18" class="edge">
<title>Node15&#45;&gt;Node3</title>
<path fill="none" stroke="#191970" d="M456.0464,-60.3873C431.0183,-50.2407 390.3801,-33.7658 362.1507,-22.3215"/>
<polygon fill="#191970" stroke="#191970" points="363.3114,-19.0154 352.729,-18.5019 360.6814,-25.5026 363.3114,-19.0154"/>
</g>
<!-- Node15&#45;&gt;Node7 -->
<g id="edge17" class="edge">
<title>Node15&#45;&gt;Node7</title>
<path fill="none" stroke="#191970" d="M492.0416,-60.3873C506.2379,-50.8168 528.7858,-35.6159 545.5458,-24.3171"/>
<polygon fill="#191970" stroke="#191970" points="547.8364,-26.994 554.1716,-18.5019 543.9234,-21.1897 547.8364,-26.994"/>
</g>
<!-- Node16 -->
<g id="node17" class="node">
<title>Node16</title>
<g id="a_node17"><a xlink:href="_buffer_8hxx.html" target="_top" xlink:title=" ">
<polygon fill="none" stroke="#000000" points="403.4155,-.5 403.4155,-18.5 527.6333,-18.5 527.6333,-.5 403.4155,-.5"/>
<text text-anchor="middle" x="465.5244" y="-6.5" font-family="Helvetica,sans-Serif" font-size="10.00" fill="#000000">MeetingClient/Buffer.hxx</text>
</a>
</g>
</g>
<!-- Node15&#45;&gt;Node16 -->
<g id="edge19" class="edge">
<title>Node15&#45;&gt;Node16</title>
<path fill="none" stroke="#191970" d="M476.55,-60.3873C474.7365,-52.0174 471.99,-39.3414 469.692,-28.735"/>
<polygon fill="#191970" stroke="#191970" points="473.0557,-27.7305 467.5174,-18.6985 466.2144,-29.2129 473.0557,-27.7305"/>
</g>
</g>
</svg>
