<?xml version="1.0" encoding="UTF-8" standalone="no"?>
<!DOCTYPE svg PUBLIC "-//W3C//DTD SVG 1.1//EN"
 "http://www.w3.org/Graphics/SVG/1.1/DTD/svg11.dtd">
<!-- Generated by graphviz version 2.40.1 (20161225.0304)
 -->
<!-- Title: /Users/oskryp/Projects/freesee&#45;native&#45;client/libs/fcc_sdk/engine/meetingclient/src/headers/MeetingClient/TSingleton.hxx Pages: 1 -->
<svg width="1454pt" height="227pt"
 viewBox="0.00 0.00 1453.97 227.00" xmlns="http://www.w3.org/2000/svg" xmlns:xlink="http://www.w3.org/1999/xlink">
<g id="graph0" class="graph" transform="scale(1 1) rotate(0) translate(4 223)">
<title>/Users/oskryp/Projects/freesee&#45;native&#45;client/libs/fcc_sdk/engine/meetingclient/src/headers/MeetingClient/TSingleton.hxx</title>
<!-- Node3 -->
<g id="node1" class="node">
<title>Node3</title>
<g id="a_node1"><a xlink:title=" ">
<polygon fill="#bfbfbf" stroke="#000000" points="820.5493,-170.5 820.5493,-218.5 1024.4204,-218.5 1024.4204,-170.5 820.5493,-170.5"/>
<text text-anchor="start" x="828.5493" y="-206.5" font-family="Helvetica,sans-Serif" font-size="10.00" fill="#000000">/Users/oskryp/Projects</text>
<text text-anchor="start" x="828.5493" y="-196.5" font-family="Helvetica,sans-Serif" font-size="10.00" fill="#000000">/freesee&#45;native&#45;client</text>
<text text-anchor="start" x="828.5493" y="-186.5" font-family="Helvetica,sans-Serif" font-size="10.00" fill="#000000">/libs/fcc_sdk/engine/meetingclient</text>
<text text-anchor="middle" x="922.4849" y="-176.5" font-family="Helvetica,sans-Serif" font-size="10.00" fill="#000000">/src/headers/MeetingClient/TSingleton.hxx</text>
</a>
</g>
</g>
<!-- Node4 -->
<g id="node2" class="node">
<title>Node4</title>
<g id="a_node2"><a xlink:href="_thread_descriptor_8hxx.html" target="_top" xlink:title=" ">
<polygon fill="none" stroke="#000000" points="698.1011,-85.5 698.1011,-133.5 930.8687,-133.5 930.8687,-85.5 698.1011,-85.5"/>
<text text-anchor="start" x="706.1011" y="-121.5" font-family="Helvetica,sans-Serif" font-size="10.00" fill="#000000">/Users/oskryp/Projects</text>
<text text-anchor="start" x="706.1011" y="-111.5" font-family="Helvetica,sans-Serif" font-size="10.00" fill="#000000">/freesee&#45;native&#45;client</text>
<text text-anchor="start" x="706.1011" y="-101.5" font-family="Helvetica,sans-Serif" font-size="10.00" fill="#000000">/libs/fcc_sdk/engine/meetingclient</text>
<text text-anchor="middle" x="814.4849" y="-91.5" font-family="Helvetica,sans-Serif" font-size="10.00" fill="#000000">/src/headers/MeetingClient/ThreadDescriptor.hxx</text>
</a>
</g>
</g>
<!-- Node3&#45;&gt;Node4 -->
<g id="edge1" class="edge">
<title>Node3&#45;&gt;Node4</title>
<path fill="none" stroke="#191970" d="M883.7187,-163.9896C871.0668,-154.0321 857.1998,-143.1183 845.2211,-133.6906"/>
<polygon fill="#191970" stroke="#191970" points="881.8025,-166.9355 891.8253,-170.3698 886.1318,-161.4347 881.8025,-166.9355"/>
</g>
<!-- Node13 -->
<g id="node11" class="node">
<title>Node13</title>
<g id="a_node11"><a xlink:href="_t_singleton_8cxx.html" target="_top" xlink:title=" ">
<polygon fill="none" stroke="#000000" points="1115,-85.5 1115,-133.5 1279.9697,-133.5 1279.9697,-85.5 1115,-85.5"/>
<text text-anchor="start" x="1123" y="-121.5" font-family="Helvetica,sans-Serif" font-size="10.00" fill="#000000">/Users/oskryp/Projects</text>
<text text-anchor="start" x="1123" y="-111.5" font-family="Helvetica,sans-Serif" font-size="10.00" fill="#000000">/freesee&#45;native&#45;client</text>
<text text-anchor="start" x="1123" y="-101.5" font-family="Helvetica,sans-Serif" font-size="10.00" fill="#000000">/libs/fcc_sdk/engine/meetingclient</text>
<text text-anchor="middle" x="1197.4849" y="-91.5" font-family="Helvetica,sans-Serif" font-size="10.00" fill="#000000">/src/TSingleton.cxx</text>
</a>
</g>
</g>
<!-- Node3&#45;&gt;Node13 -->
<g id="edge10" class="edge">
<title>Node3&#45;&gt;Node13</title>
<path fill="none" stroke="#191970" d="M1009.9615,-167.4618C1045.1275,-156.5923 1085.3479,-144.1605 1119.499,-133.6047"/>
<polygon fill="#191970" stroke="#191970" points="1008.7066,-164.1862 1000.1861,-170.4832 1010.7738,-170.874 1008.7066,-164.1862"/>
</g>
<!-- Node5 -->
<g id="node3" class="node">
<title>Node5</title>
<g id="a_node3"><a xlink:href="_attendees_controller_8cxx.html" target="_top" xlink:title=" ">
<polygon fill="none" stroke="#000000" points="0,-.5 0,-48.5 164.9697,-48.5 164.9697,-.5 0,-.5"/>
<text text-anchor="start" x="8" y="-36.5" font-family="Helvetica,sans-Serif" font-size="10.00" fill="#000000">/Users/oskryp/Projects</text>
<text text-anchor="start" x="8" y="-26.5" font-family="Helvetica,sans-Serif" font-size="10.00" fill="#000000">/freesee&#45;native&#45;client</text>
<text text-anchor="start" x="8" y="-16.5" font-family="Helvetica,sans-Serif" font-size="10.00" fill="#000000">/libs/fcc_sdk/engine/meetingclient</text>
<text text-anchor="middle" x="82.4849" y="-6.5" font-family="Helvetica,sans-Serif" font-size="10.00" fill="#000000">/src/AttendeesController.cxx</text>
</a>
</g>
</g>
<!-- Node4&#45;&gt;Node5 -->
<g id="edge2" class="edge">
<title>Node4&#45;&gt;Node5</title>
<path fill="none" stroke="#191970" d="M687.7158,-103.7308C557.9873,-96.3761 350.9706,-80.6153 174.4849,-49 171.3936,-48.4462 168.2544,-47.8397 165.0914,-47.1913"/>
<polygon fill="#191970" stroke="#191970" points="687.9036,-107.2467 698.0833,-104.31 688.2941,-100.2576 687.9036,-107.2467"/>
</g>
<!-- Node6 -->
<g id="node4" class="node">
<title>Node6</title>
<g id="a_node4"><a xlink:href="_i_o_service_provider_8cxx.html" target="_top" xlink:title=" ">
<polygon fill="none" stroke="#000000" points="183,-.5 183,-48.5 347.9697,-48.5 347.9697,-.5 183,-.5"/>
<text text-anchor="start" x="191" y="-36.5" font-family="Helvetica,sans-Serif" font-size="10.00" fill="#000000">/Users/oskryp/Projects</text>
<text text-anchor="start" x="191" y="-26.5" font-family="Helvetica,sans-Serif" font-size="10.00" fill="#000000">/freesee&#45;native&#45;client</text>
<text text-anchor="start" x="191" y="-16.5" font-family="Helvetica,sans-Serif" font-size="10.00" fill="#000000">/libs/fcc_sdk/engine/meetingclient</text>
<text text-anchor="middle" x="265.4849" y="-6.5" font-family="Helvetica,sans-Serif" font-size="10.00" fill="#000000">/src/IOServiceProvider.cxx</text>
</a>
</g>
</g>
<!-- Node4&#45;&gt;Node6 -->
<g id="edge3" class="edge">
<title>Node4&#45;&gt;Node6</title>
<path fill="none" stroke="#191970" d="M687.617,-97.1357C595.5031,-87.0841 468.1443,-70.9647 357.4849,-49 354.4045,-48.3886 351.2745,-47.733 348.1194,-47.0431"/>
<polygon fill="#191970" stroke="#191970" points="687.5064,-100.6441 697.825,-98.2405 688.2597,-93.6847 687.5064,-100.6441"/>
</g>
<!-- Node7 -->
<g id="node5" class="node">
<title>Node7</title>
<g id="a_node5"><a xlink:href="_meeting_client_8cxx.html" target="_top" xlink:title=" ">
<polygon fill="none" stroke="#000000" points="366,-.5 366,-48.5 530.9697,-48.5 530.9697,-.5 366,-.5"/>
<text text-anchor="start" x="374" y="-36.5" font-family="Helvetica,sans-Serif" font-size="10.00" fill="#000000">/Users/oskryp/Projects</text>
<text text-anchor="start" x="374" y="-26.5" font-family="Helvetica,sans-Serif" font-size="10.00" fill="#000000">/freesee&#45;native&#45;client</text>
<text text-anchor="start" x="374" y="-16.5" font-family="Helvetica,sans-Serif" font-size="10.00" fill="#000000">/libs/fcc_sdk/engine/meetingclient</text>
<text text-anchor="middle" x="448.4849" y="-6.5" font-family="Helvetica,sans-Serif" font-size="10.00" fill="#000000">/src/MeetingClient.cxx</text>
</a>
</g>
</g>
<!-- Node4&#45;&gt;Node7 -->
<g id="edge4" class="edge">
<title>Node4&#45;&gt;Node7</title>
<path fill="none" stroke="#191970" d="M690.6421,-83.3359C643.5289,-73.0729 589.425,-60.9137 540.4849,-49 537.4335,-48.2572 534.3283,-47.4897 531.194,-46.7052"/>
<polygon fill="#191970" stroke="#191970" points="690.0699,-86.7932 700.585,-85.4964 691.5562,-79.9528 690.0699,-86.7932"/>
</g>
<!-- Node8 -->
<g id="node6" class="node">
<title>Node8</title>
<g id="a_node6"><a xlink:href="_network_inspector_client_8cxx.html" target="_top" xlink:title=" ">
<polygon fill="none" stroke="#000000" points="549,-.5 549,-48.5 713.9697,-48.5 713.9697,-.5 549,-.5"/>
<text text-anchor="start" x="557" y="-36.5" font-family="Helvetica,sans-Serif" font-size="10.00" fill="#000000">/Users/oskryp/Projects</text>
<text text-anchor="start" x="557" y="-26.5" font-family="Helvetica,sans-Serif" font-size="10.00" fill="#000000">/freesee&#45;native&#45;client</text>
<text text-anchor="start" x="557" y="-16.5" font-family="Helvetica,sans-Serif" font-size="10.00" fill="#000000">/libs/fcc_sdk/engine/meetingclient</text>
<text text-anchor="middle" x="631.4849" y="-6.5" font-family="Helvetica,sans-Serif" font-size="10.00" fill="#000000">/src/NetworkInspectorClient.cxx</text>
</a>
</g>
</g>
<!-- Node4&#45;&gt;Node8 -->
<g id="edge5" class="edge">
<title>Node4&#45;&gt;Node8</title>
<path fill="none" stroke="#191970" d="M753.3182,-81.0893C730.5929,-70.5338 705.0528,-58.6709 683.2488,-48.5433"/>
<polygon fill="#191970" stroke="#191970" points="751.9901,-84.3314 762.5339,-85.3698 754.9389,-77.9829 751.9901,-84.3314"/>
</g>
<!-- Node9 -->
<g id="node7" class="node">
<title>Node9</title>
<g id="a_node7"><a xlink:href="_screen_sharing_controller_8cxx.html" target="_top" xlink:title=" ">
<polygon fill="none" stroke="#000000" points="732,-.5 732,-48.5 896.9697,-48.5 896.9697,-.5 732,-.5"/>
<text text-anchor="start" x="740" y="-36.5" font-family="Helvetica,sans-Serif" font-size="10.00" fill="#000000">/Users/oskryp/Projects</text>
<text text-anchor="start" x="740" y="-26.5" font-family="Helvetica,sans-Serif" font-size="10.00" fill="#000000">/freesee&#45;native&#45;client</text>
<text text-anchor="start" x="740" y="-16.5" font-family="Helvetica,sans-Serif" font-size="10.00" fill="#000000">/libs/fcc_sdk/engine/meetingclient</text>
<text text-anchor="middle" x="814.4849" y="-6.5" font-family="Helvetica,sans-Serif" font-size="10.00" fill="#000000">/src/ScreenSharingController.cxx</text>
</a>
</g>
</g>
<!-- Node4&#45;&gt;Node9 -->
<g id="edge6" class="edge">
<title>Node4&#45;&gt;Node9</title>
<path fill="none" stroke="#191970" d="M814.4849,-75.2518C814.4849,-66.3524 814.4849,-56.951 814.4849,-48.6906"/>
<polygon fill="#191970" stroke="#191970" points="810.985,-75.3697 814.4849,-85.3698 817.985,-75.3698 810.985,-75.3697"/>
</g>
<!-- Node10 -->
<g id="node8" class="node">
<title>Node10</title>
<g id="a_node8"><a xlink:href="_thread_descriptor_8cxx.html" target="_top" xlink:title=" ">
<polygon fill="none" stroke="#000000" points="915,-.5 915,-48.5 1079.9697,-48.5 1079.9697,-.5 915,-.5"/>
<text text-anchor="start" x="923" y="-36.5" font-family="Helvetica,sans-Serif" font-size="10.00" fill="#000000">/Users/oskryp/Projects</text>
<text text-anchor="start" x="923" y="-26.5" font-family="Helvetica,sans-Serif" font-size="10.00" fill="#000000">/freesee&#45;native&#45;client</text>
<text text-anchor="start" x="923" y="-16.5" font-family="Helvetica,sans-Serif" font-size="10.00" fill="#000000">/libs/fcc_sdk/engine/meetingclient</text>
<text text-anchor="middle" x="997.4849" y="-6.5" font-family="Helvetica,sans-Serif" font-size="10.00" fill="#000000">/src/ThreadDescriptor.cxx</text>
</a>
</g>
</g>
<!-- Node4&#45;&gt;Node10 -->
<g id="edge7" class="edge">
<title>Node4&#45;&gt;Node10</title>
<path fill="none" stroke="#191970" d="M875.6515,-81.0893C898.3768,-70.5338 923.917,-58.6709 945.721,-48.5433"/>
<polygon fill="#191970" stroke="#191970" points="874.0308,-77.9829 866.4358,-85.3698 876.9797,-84.3314 874.0308,-77.9829"/>
</g>
<!-- Node11 -->
<g id="node9" class="node">
<title>Node11</title>
<g id="a_node9"><a xlink:href="_t_singleton_impl_8cxx.html" target="_top" xlink:title=" ">
<polygon fill="none" stroke="#000000" points="1281,-.5 1281,-48.5 1445.9697,-48.5 1445.9697,-.5 1281,-.5"/>
<text text-anchor="start" x="1289" y="-36.5" font-family="Helvetica,sans-Serif" font-size="10.00" fill="#000000">/Users/oskryp/Projects</text>
<text text-anchor="start" x="1289" y="-26.5" font-family="Helvetica,sans-Serif" font-size="10.00" fill="#000000">/freesee&#45;native&#45;client</text>
<text text-anchor="start" x="1289" y="-16.5" font-family="Helvetica,sans-Serif" font-size="10.00" fill="#000000">/libs/fcc_sdk/engine/meetingclient</text>
<text text-anchor="middle" x="1363.4849" y="-6.5" font-family="Helvetica,sans-Serif" font-size="10.00" fill="#000000">/src/TSingletonImpl.cxx</text>
</a>
</g>
</g>
<!-- Node4&#45;&gt;Node11 -->
<g id="edge8" class="edge">
<title>Node4&#45;&gt;Node11</title>
<path fill="none" stroke="#191970" d="M941.3527,-97.1357C1033.4666,-87.0841 1160.8254,-70.9647 1271.4849,-49 1274.5653,-48.3886 1277.6952,-47.733 1280.8503,-47.0431"/>
<polygon fill="#191970" stroke="#191970" points="940.71,-93.6847 931.1447,-98.2405 941.4633,-100.6441 940.71,-93.6847"/>
</g>
<!-- Node12 -->
<g id="node10" class="node">
<title>Node12</title>
<g id="a_node10"><a xlink:href="_video_controller_8cxx.html" target="_top" xlink:title=" ">
<polygon fill="none" stroke="#000000" points="1098,-.5 1098,-48.5 1262.9697,-48.5 1262.9697,-.5 1098,-.5"/>
<text text-anchor="start" x="1106" y="-36.5" font-family="Helvetica,sans-Serif" font-size="10.00" fill="#000000">/Users/oskryp/Projects</text>
<text text-anchor="start" x="1106" y="-26.5" font-family="Helvetica,sans-Serif" font-size="10.00" fill="#000000">/freesee&#45;native&#45;client</text>
<text text-anchor="start" x="1106" y="-16.5" font-family="Helvetica,sans-Serif" font-size="10.00" fill="#000000">/libs/fcc_sdk/engine/meetingclient</text>
<text text-anchor="middle" x="1180.4849" y="-6.5" font-family="Helvetica,sans-Serif" font-size="10.00" fill="#000000">/src/VideoController.cxx</text>
</a>
</g>
</g>
<!-- Node4&#45;&gt;Node12 -->
<g id="edge9" class="edge">
<title>Node4&#45;&gt;Node12</title>
<path fill="none" stroke="#191970" d="M938.3276,-83.3359C985.4408,-73.0729 1039.5447,-60.9137 1088.4849,-49 1091.5362,-48.2572 1094.6415,-47.4897 1097.7757,-46.7052"/>
<polygon fill="#191970" stroke="#191970" points="937.4135,-79.9528 928.3847,-85.4964 938.8999,-86.7932 937.4135,-79.9528"/>
</g>
<!-- Node13&#45;&gt;Node11 -->
<g id="edge11" class="edge">
<title>Node13&#45;&gt;Node11</title>
<path fill="none" stroke="#191970" d="M1253.5197,-80.8075C1273.9952,-70.323 1296.927,-58.5809 1316.5296,-48.5433"/>
<polygon fill="#191970" stroke="#191970" points="1251.9155,-77.6967 1244.6098,-85.3698 1255.106,-83.9273 1251.9155,-77.6967"/>
</g>
</g>
</svg>
