<?xml version="1.0" encoding="UTF-8" standalone="no"?>
<!DOCTYPE svg PUBLIC "-//W3C//DTD SVG 1.1//EN"
 "http://www.w3.org/Graphics/SVG/1.1/DTD/svg11.dtd">
<!-- Generated by graphviz version 2.40.1 (20161225.0304)
 -->
<!-- Title: /Users/oskryp/Projects/freesee&#45;native&#45;client/libs/fcc_sdk/engine/meetingclient/src/TSingleton.cxx Pages: 1 -->
<svg width="286pt" height="177pt"
 viewBox="0.00 0.00 285.79 177.00" xmlns="http://www.w3.org/2000/svg" xmlns:xlink="http://www.w3.org/1999/xlink">
<g id="graph0" class="graph" transform="scale(1 1) rotate(0) translate(4 173)">
<title>/Users/oskryp/Projects/freesee&#45;native&#45;client/libs/fcc_sdk/engine/meetingclient/src/TSingleton.cxx</title>
<!-- Node0 -->
<g id="node1" class="node">
<title>Node0</title>
<g id="a_node1"><a xlink:title=" ">
<polygon fill="#bfbfbf" stroke="#000000" points="77.9902,-120.5 77.9902,-168.5 242.96,-168.5 242.96,-120.5 77.9902,-120.5"/>
<text text-anchor="start" x="85.9902" y="-156.5" font-family="Helvetica,sans-Serif" font-size="10.00" fill="#000000">/Users/oskryp/Projects</text>
<text text-anchor="start" x="85.9902" y="-146.5" font-family="Helvetica,sans-Serif" font-size="10.00" fill="#000000">/freesee&#45;native&#45;client</text>
<text text-anchor="start" x="85.9902" y="-136.5" font-family="Helvetica,sans-Serif" font-size="10.00" fill="#000000">/libs/fcc_sdk/engine/meetingclient</text>
<text text-anchor="middle" x="160.4751" y="-126.5" font-family="Helvetica,sans-Serif" font-size="10.00" fill="#000000">/src/TSingleton.cxx</text>
</a>
</g>
</g>
<!-- Node1 -->
<g id="node2" class="node">
<title>Node1</title>
<g id="a_node2"><a xlink:href="_t_singleton_8hxx.html" target="_top" xlink:title=" ">
<polygon fill="none" stroke="#000000" points="61.4014,-65.5 61.4014,-83.5 143.5488,-83.5 143.5488,-65.5 61.4014,-65.5"/>
<text text-anchor="middle" x="102.4751" y="-71.5" font-family="Helvetica,sans-Serif" font-size="10.00" fill="#000000">TSingleton.hxx</text>
</a>
</g>
</g>
<!-- Node0&#45;&gt;Node1 -->
<g id="edge1" class="edge">
<title>Node0&#45;&gt;Node1</title>
<path fill="none" stroke="#191970" d="M140.5148,-120.41C132.6504,-110.9185 123.8006,-100.2376 116.6171,-91.568"/>
<polygon fill="#191970" stroke="#191970" points="119.1627,-89.1544 110.0874,-83.6872 113.7725,-93.6206 119.1627,-89.1544"/>
</g>
<!-- Node4 -->
<g id="node5" class="node">
<title>Node4</title>
<g id="a_node5"><a xlink:title=" ">
<polygon fill="none" stroke="#bfbfbf" points="161.165,-65.5 161.165,-83.5 277.7852,-83.5 277.7852,-65.5 161.165,-65.5"/>
<text text-anchor="middle" x="219.4751" y="-71.5" font-family="Helvetica,sans-Serif" font-size="10.00" fill="#000000">boost/thread/locks.hpp</text>
</a>
</g>
</g>
<!-- Node0&#45;&gt;Node4 -->
<g id="edge4" class="edge">
<title>Node0&#45;&gt;Node4</title>
<path fill="none" stroke="#191970" d="M180.7796,-120.41C188.7795,-110.9185 197.782,-100.2376 205.0892,-91.568"/>
<polygon fill="#191970" stroke="#191970" points="207.963,-93.5892 211.7316,-83.6872 202.6106,-89.0779 207.963,-93.5892"/>
</g>
<!-- Node2 -->
<g id="node3" class="node">
<title>Node2</title>
<g id="a_node3"><a xlink:title=" ">
<polygon fill="none" stroke="#bfbfbf" points="0,-.5 0,-28.5 104.9502,-28.5 104.9502,-.5 0,-.5"/>
<text text-anchor="start" x="8" y="-16.5" font-family="Helvetica,sans-Serif" font-size="10.00" fill="#000000">boost/thread/shared</text>
<text text-anchor="middle" x="52.4751" y="-6.5" font-family="Helvetica,sans-Serif" font-size="10.00" fill="#000000">_mutex.hpp</text>
</a>
</g>
</g>
<!-- Node1&#45;&gt;Node2 -->
<g id="edge2" class="edge">
<title>Node1&#45;&gt;Node2</title>
<path fill="none" stroke="#191970" d="M94.8812,-65.3873C88.5636,-57.8063 79.3022,-46.6925 71.0448,-36.7837"/>
<polygon fill="#191970" stroke="#191970" points="73.5221,-34.2892 64.4315,-28.8477 68.1446,-38.7706 73.5221,-34.2892"/>
</g>
<!-- Node3 -->
<g id="node4" class="node">
<title>Node3</title>
<g id="a_node4"><a xlink:title=" ">
<polygon fill="none" stroke="#bfbfbf" points="123.0713,-5.5 123.0713,-23.5 181.8789,-23.5 181.8789,-5.5 123.0713,-5.5"/>
<text text-anchor="middle" x="152.4751" y="-11.5" font-family="Helvetica,sans-Serif" font-size="10.00" fill="#000000">exception</text>
</a>
</g>
</g>
<!-- Node1&#45;&gt;Node3 -->
<g id="edge3" class="edge">
<title>Node1&#45;&gt;Node3</title>
<path fill="none" stroke="#191970" d="M110.069,-65.3873C117.5579,-56.4007 129.1835,-42.4499 138.3695,-31.4267"/>
<polygon fill="#191970" stroke="#191970" points="141.0966,-33.6214 144.8097,-23.6985 135.719,-29.14 141.0966,-33.6214"/>
</g>
</g>
</svg>
