<?xml version="1.0" encoding="UTF-8" standalone="no"?>
<!DOCTYPE svg PUBLIC "-//W3C//DTD SVG 1.1//EN"
 "http://www.w3.org/Graphics/SVG/1.1/DTD/svg11.dtd">
<!-- Generated by graphviz version 2.40.1 (20161225.0304)
 -->
<!-- Title: /Users/oskryp/Projects/freesee&#45;native&#45;client/libs/fcc_sdk/engine/meetingclient/src/headers/MeetingClient/ThreadDescriptor.hxx Pages: 1 -->
<svg width="685pt" height="187pt"
 viewBox="0.00 0.00 684.57 187.00" xmlns="http://www.w3.org/2000/svg" xmlns:xlink="http://www.w3.org/1999/xlink">
<g id="graph0" class="graph" transform="scale(1 1) rotate(0) translate(4 183)">
<title>/Users/oskryp/Projects/freesee&#45;native&#45;client/libs/fcc_sdk/engine/meetingclient/src/headers/MeetingClient/ThreadDescriptor.hxx</title>
<!-- Node0 -->
<g id="node1" class="node">
<title>Node0</title>
<g id="a_node1"><a xlink:title=" ">
<polygon fill="#bfbfbf" stroke="#000000" points="182.9263,-130.5 182.9263,-178.5 415.6938,-178.5 415.6938,-130.5 182.9263,-130.5"/>
<text text-anchor="start" x="190.9263" y="-166.5" font-family="Helvetica,sans-Serif" font-size="10.00" fill="#000000">/Users/oskryp/Projects</text>
<text text-anchor="start" x="190.9263" y="-156.5" font-family="Helvetica,sans-Serif" font-size="10.00" fill="#000000">/freesee&#45;native&#45;client</text>
<text text-anchor="start" x="190.9263" y="-146.5" font-family="Helvetica,sans-Serif" font-size="10.00" fill="#000000">/libs/fcc_sdk/engine/meetingclient</text>
<text text-anchor="middle" x="299.3101" y="-136.5" font-family="Helvetica,sans-Serif" font-size="10.00" fill="#000000">/src/headers/MeetingClient/ThreadDescriptor.hxx</text>
</a>
</g>
</g>
<!-- Node1 -->
<g id="node2" class="node">
<title>Node1</title>
<g id="a_node2"><a xlink:title=" ">
<polygon fill="none" stroke="#bfbfbf" points="0,-70.5 0,-88.5 116.6201,-88.5 116.6201,-70.5 0,-70.5"/>
<text text-anchor="middle" x="58.3101" y="-76.5" font-family="Helvetica,sans-Serif" font-size="10.00" fill="#000000">boost/thread/locks.hpp</text>
</a>
</g>
</g>
<!-- Node0&#45;&gt;Node1 -->
<g id="edge1" class="edge">
<title>Node0&#45;&gt;Node1</title>
<path fill="none" stroke="#191970" d="M222.0617,-130.4601C180.3881,-117.4911 130.7568,-102.0457 97.1417,-91.5845"/>
<polygon fill="#191970" stroke="#191970" points="97.8386,-88.1359 87.2502,-88.5063 95.7585,-94.8197 97.8386,-88.1359"/>
</g>
<!-- Node2 -->
<g id="node3" class="node">
<title>Node2</title>
<g id="a_node3"><a xlink:title=" ">
<polygon fill="none" stroke="#bfbfbf" points="272.835,-.5 272.835,-28.5 377.7852,-28.5 377.7852,-.5 272.835,-.5"/>
<text text-anchor="start" x="280.835" y="-16.5" font-family="Helvetica,sans-Serif" font-size="10.00" fill="#000000">boost/thread/shared</text>
<text text-anchor="middle" x="325.3101" y="-6.5" font-family="Helvetica,sans-Serif" font-size="10.00" fill="#000000">_mutex.hpp</text>
</a>
</g>
</g>
<!-- Node0&#45;&gt;Node2 -->
<g id="edge2" class="edge">
<title>Node0&#45;&gt;Node2</title>
<path fill="none" stroke="#191970" d="M212.0139,-130.3523C174.0515,-115.2882 142.4557,-93.345 163.3101,-65 175.4872,-48.449 222.4962,-34.9407 262.7606,-26.0736"/>
<polygon fill="#191970" stroke="#191970" points="263.5137,-29.4918 272.5594,-23.9758 262.0483,-22.6469 263.5137,-29.4918"/>
</g>
<!-- Node3 -->
<g id="node4" class="node">
<title>Node3</title>
<g id="a_node4"><a xlink:title=" ">
<polygon fill="none" stroke="#bfbfbf" points="172.2144,-70.5 172.2144,-88.5 294.4058,-88.5 294.4058,-70.5 172.2144,-70.5"/>
<text text-anchor="middle" x="233.3101" y="-76.5" font-family="Helvetica,sans-Serif" font-size="10.00" fill="#000000">boost/thread/thread.hpp</text>
</a>
</g>
</g>
<!-- Node0&#45;&gt;Node3 -->
<g id="edge3" class="edge">
<title>Node0&#45;&gt;Node3</title>
<path fill="none" stroke="#191970" d="M278.0639,-130.3567C268.2898,-119.2497 256.9333,-106.3445 248.1059,-96.3135"/>
<polygon fill="#191970" stroke="#191970" points="250.6099,-93.8609 241.3761,-88.666 245.3549,-98.4854 250.6099,-93.8609"/>
</g>
<!-- Node4 -->
<g id="node5" class="node">
<title>Node4</title>
<g id="a_node5"><a xlink:title=" ">
<polygon fill="none" stroke="#bfbfbf" points="312.0024,-70.5 312.0024,-88.5 418.6177,-88.5 418.6177,-70.5 312.0024,-70.5"/>
<text text-anchor="middle" x="365.3101" y="-76.5" font-family="Helvetica,sans-Serif" font-size="10.00" fill="#000000">boost/thread/tss.hpp</text>
</a>
</g>
</g>
<!-- Node0&#45;&gt;Node4 -->
<g id="edge4" class="edge">
<title>Node0&#45;&gt;Node4</title>
<path fill="none" stroke="#191970" d="M320.5562,-130.3567C330.3303,-119.2497 341.6869,-106.3445 350.5142,-96.3135"/>
<polygon fill="#191970" stroke="#191970" points="353.2652,-98.4854 357.244,-88.666 348.0102,-93.8609 353.2652,-98.4854"/>
</g>
<!-- Node5 -->
<g id="node6" class="node">
<title>Node5</title>
<g id="a_node6"><a xlink:href="_invalid_execution_thead_exception_8hxx.html" target="_top" xlink:title=" ">
<polygon fill="none" stroke="#000000" points="536.0518,-65.5 536.0518,-93.5 676.5684,-93.5 676.5684,-65.5 536.0518,-65.5"/>
<text text-anchor="start" x="544.0518" y="-81.5" font-family="Helvetica,sans-Serif" font-size="10.00" fill="#000000">Exceptions/InvalidExecution</text>
<text text-anchor="middle" x="606.3101" y="-71.5" font-family="Helvetica,sans-Serif" font-size="10.00" fill="#000000">TheadException.hxx</text>
</a>
</g>
</g>
<!-- Node0&#45;&gt;Node5 -->
<g id="edge5" class="edge">
<title>Node0&#45;&gt;Node5</title>
<path fill="none" stroke="#191970" d="M397.7135,-130.4601C443.7284,-119.2187 497.3594,-106.1166 538.7179,-96.0127"/>
<polygon fill="#191970" stroke="#191970" points="539.8031,-99.3506 548.6868,-93.5773 538.1418,-92.5506 539.8031,-99.3506"/>
</g>
<!-- Node7 -->
<g id="node8" class="node">
<title>Node7</title>
<g id="a_node8"><a xlink:href="_t_singleton_8hxx.html" target="_top" xlink:title=" ">
<polygon fill="none" stroke="#000000" points="436.2363,-70.5 436.2363,-88.5 518.3838,-88.5 518.3838,-70.5 436.2363,-70.5"/>
<text text-anchor="middle" x="477.3101" y="-76.5" font-family="Helvetica,sans-Serif" font-size="10.00" fill="#000000">TSingleton.hxx</text>
</a>
</g>
</g>
<!-- Node0&#45;&gt;Node7 -->
<g id="edge7" class="edge">
<title>Node0&#45;&gt;Node7</title>
<path fill="none" stroke="#191970" d="M356.6102,-130.3567C386.3976,-117.8058 421.6345,-102.9588 446.3206,-92.5574"/>
<polygon fill="#191970" stroke="#191970" points="447.6998,-95.7743 455.5561,-88.666 444.9817,-89.3235 447.6998,-95.7743"/>
</g>
<!-- Node6 -->
<g id="node7" class="node">
<title>Node6</title>
<g id="a_node7"><a xlink:title=" ">
<polygon fill="none" stroke="#bfbfbf" points="511.9063,-5.5 511.9063,-23.5 570.7139,-23.5 570.7139,-5.5 511.9063,-5.5"/>
<text text-anchor="middle" x="541.3101" y="-11.5" font-family="Helvetica,sans-Serif" font-size="10.00" fill="#000000">exception</text>
</a>
</g>
</g>
<!-- Node5&#45;&gt;Node6 -->
<g id="edge6" class="edge">
<title>Node5&#45;&gt;Node6</title>
<path fill="none" stroke="#191970" d="M592.206,-65.396C581.9906,-55.1805 568.1596,-41.3496 557.4941,-30.6841"/>
<polygon fill="#191970" stroke="#191970" points="559.9303,-28.1705 550.3844,-23.5743 554.9806,-33.1203 559.9303,-28.1705"/>
</g>
<!-- Node7&#45;&gt;Node2 -->
<g id="edge8" class="edge">
<title>Node7&#45;&gt;Node2</title>
<path fill="none" stroke="#191970" d="M456.1751,-70.462C433.3824,-60.7152 396.4926,-44.9399 367.6803,-32.6188"/>
<polygon fill="#191970" stroke="#191970" points="368.8216,-29.3004 358.2508,-28.5865 366.0692,-35.7366 368.8216,-29.3004"/>
</g>
<!-- Node7&#45;&gt;Node6 -->
<g id="edge9" class="edge">
<title>Node7&#45;&gt;Node6</title>
<path fill="none" stroke="#191970" d="M486.209,-70.462C496.221,-60.2936 512.6933,-43.5639 525.0244,-31.0402"/>
<polygon fill="#191970" stroke="#191970" points="527.5502,-33.4635 532.0723,-23.8821 522.5622,-28.5522 527.5502,-33.4635"/>
</g>
</g>
</svg>
