<?xml version="1.0" encoding="UTF-8" standalone="no"?>
<!DOCTYPE svg PUBLIC "-//W3C//DTD SVG 1.1//EN"
 "http://www.w3.org/Graphics/SVG/1.1/DTD/svg11.dtd">
<!-- Generated by graphviz version 2.40.1 (20161225.0304)
 -->
<!-- Title: /Users/oskryp/Projects/freesee&#45;native&#45;client/libs/fcc_sdk/engine/meetingclient/src/VoIPClientDelegate.cxx Pages: 1 -->
<svg width="212pt" height="167pt"
 viewBox="0.00 0.00 212.00 167.00" xmlns="http://www.w3.org/2000/svg" xmlns:xlink="http://www.w3.org/1999/xlink">
<g id="graph0" class="graph" transform="scale(1 1) rotate(0) translate(4 163)">
<title>/Users/oskryp/Projects/freesee&#45;native&#45;client/libs/fcc_sdk/engine/meetingclient/src/VoIPClientDelegate.cxx</title>
<!-- Node0 -->
<g id="node1" class="node">
<title>Node0</title>
<g id="a_node1"><a xlink:title=" ">
<polygon fill="#bfbfbf" stroke="#000000" points="33.0493,-110.5 33.0493,-158.5 198.019,-158.5 198.019,-110.5 33.0493,-110.5"/>
<text text-anchor="start" x="41.0493" y="-146.5" font-family="Helvetica,sans-Serif" font-size="10.00" fill="#000000">/Users/oskryp/Projects</text>
<text text-anchor="start" x="41.0493" y="-136.5" font-family="Helvetica,sans-Serif" font-size="10.00" fill="#000000">/freesee&#45;native&#45;client</text>
<text text-anchor="start" x="41.0493" y="-126.5" font-family="Helvetica,sans-Serif" font-size="10.00" fill="#000000">/libs/fcc_sdk/engine/meetingclient</text>
<text text-anchor="middle" x="115.5342" y="-116.5" font-family="Helvetica,sans-Serif" font-size="10.00" fill="#000000">/src/VoIPClientDelegate.cxx</text>
</a>
</g>
</g>
<!-- Node1 -->
<g id="node2" class="node">
<title>Node1</title>
<g id="a_node2"><a xlink:href="_vo_i_p_client_delegate_8hxx.html" target="_top" xlink:title=" ">
<polygon fill="none" stroke="#000000" points="0,-55.5 0,-73.5 121.0684,-73.5 121.0684,-55.5 0,-55.5"/>
<text text-anchor="middle" x="60.5342" y="-61.5" font-family="Helvetica,sans-Serif" font-size="10.00" fill="#000000">VoIPClientDelegate.hxx</text>
</a>
</g>
</g>
<!-- Node0&#45;&gt;Node1 -->
<g id="edge1" class="edge">
<title>Node0&#45;&gt;Node1</title>
<path fill="none" stroke="#191970" d="M96.6063,-110.41C89.1487,-100.9185 80.7566,-90.2376 73.9447,-81.568"/>
<polygon fill="#191970" stroke="#191970" points="76.6831,-79.3881 67.7527,-73.6872 71.1789,-83.7128 76.6831,-79.3881"/>
</g>
<!-- Node3 -->
<g id="node4" class="node">
<title>Node3</title>
<g id="a_node4"><a xlink:title=" ">
<polygon fill="none" stroke="#bfbfbf" points="139.0688,-55.5 139.0688,-73.5 203.9995,-73.5 203.9995,-55.5 139.0688,-55.5"/>
<text text-anchor="middle" x="171.5342" y="-61.5" font-family="Helvetica,sans-Serif" font-size="10.00" fill="#000000">Logger.hxx</text>
</a>
</g>
</g>
<!-- Node0&#45;&gt;Node3 -->
<g id="edge3" class="edge">
<title>Node0&#45;&gt;Node3</title>
<path fill="none" stroke="#191970" d="M134.8062,-110.41C142.3994,-100.9185 150.9441,-90.2376 157.8798,-81.568"/>
<polygon fill="#191970" stroke="#191970" points="160.6704,-83.6824 164.1844,-73.6872 155.2044,-79.3095 160.6704,-83.6824"/>
</g>
<!-- Node2 -->
<g id="node3" class="node">
<title>Node2</title>
<g id="a_node3"><a xlink:title=" ">
<polygon fill="none" stroke="#bfbfbf" points="20.0146,-.5 20.0146,-18.5 101.0537,-18.5 101.0537,-.5 20.0146,-.5"/>
<text text-anchor="middle" x="60.5342" y="-6.5" font-family="Helvetica,sans-Serif" font-size="10.00" fill="#000000">VoIPClient.hxx</text>
</a>
</g>
</g>
<!-- Node1&#45;&gt;Node2 -->
<g id="edge2" class="edge">
<title>Node1&#45;&gt;Node2</title>
<path fill="none" stroke="#191970" d="M60.5342,-55.4179C60.5342,-48.2164 60.5342,-37.8962 60.5342,-28.8632"/>
<polygon fill="#191970" stroke="#191970" points="64.0343,-28.7794 60.5342,-18.7795 57.0343,-28.7795 64.0343,-28.7794"/>
</g>
</g>
</svg>
