<?xml version="1.0" encoding="UTF-8" standalone="no"?>
<!DOCTYPE svg PUBLIC "-//W3C//DTD SVG 1.1//EN"
 "http://www.w3.org/Graphics/SVG/1.1/DTD/svg11.dtd">
<!-- Generated by graphviz version 2.40.1 (20161225.0304)
 -->
<!-- Title: /Users/oskryp/Projects/freesee&#45;native&#45;client/libs/fcc_sdk/engine/meetingclient/src/webservices/WebServiceProxy.cxx Pages: 1 -->
<!--zoomable 437 -->
<svg id="main" version="1.1" xmlns="http://www.w3.org/2000/svg" xmlns:xlink="http://www.w3.org/1999/xlink" xml:space="preserve" onload="init(evt)">
<style type="text/css"><![CDATA[
.edge:hover path { stroke: red; }
.edge:hover polygon { stroke: red; fill: red; }
]]></style>
<script type="text/javascript"><![CDATA[
var edges = document.getElementsByTagName('g');
if (edges && edges.length) {
  for (var i=0;i<edges.length;i++) {
    if (edges[i].id.substr(0,4)=='edge') {
      edges[i].setAttribute('class','edge');
    }
  }
}
]]></script>
        <defs>
                <circle id="rim" cx="0" cy="0" r="7"/>
                <circle id="rim2" cx="0" cy="0" r="3.5"/>
                <g id="zoomPlus">
                        <use xlink:href="#rim" fill="#404040">
                                <set attributeName="fill" to="#808080" begin="zoomplus.mouseover" end="zoomplus.mouseout"/>
                        </use>
                        <path d="M-4,0h8M0,-4v8" fill="none" stroke="white" stroke-width="1.5" pointer-events="none"/>
                </g>
                <g id="zoomMin">
                        <use xlink:href="#rim" fill="#404040">
                                <set attributeName="fill" to="#808080" begin="zoomminus.mouseover" end="zoomminus.mouseout"/>
                        </use>
                        <path d="M-4,0h8" fill="none" stroke="white" stroke-width="1.5" pointer-events="none"/>
                </g>
                <g id="dirArrow">
                        <path fill="none" stroke="white" stroke-width="1.5" d="M0,-3.0v7 M-2.5,-0.5L0,-3.0L2.5,-0.5"/>
                </g>
               <g id="resetDef">
                       <use xlink:href="#rim2" fill="#404040">
                               <set attributeName="fill" to="#808080" begin="reset.mouseover" end="reset.mouseout"/>
                       </use>
               </g>
        </defs>

<script type="text/javascript">
var viewWidth = 1722;
var viewHeight = 437;
var sectionId = 'dynsection-0';
</script>
<script xlink:href="svgpan.js"/>
<svg id="graph" class="graph">
<g id="viewport">
<title>/Users/oskryp/Projects/freesee&#45;native&#45;client/libs/fcc_sdk/engine/meetingclient/src/webservices/WebServiceProxy.cxx</title>
<!-- Node0 -->
<g id="node1" class="node">
<title>Node0</title>
<g id="a_node1"><a xlink:title=" ">
<polygon fill="#bfbfbf" stroke="#000000" points="1145.3481,-380.5 1145.3481,-428.5 1334.3657,-428.5 1334.3657,-380.5 1145.3481,-380.5"/>
<text text-anchor="start" x="1153.3481" y="-416.5" font-family="Helvetica,sans-Serif" font-size="10.00" fill="#000000">/Users/oskryp/Projects</text>
<text text-anchor="start" x="1153.3481" y="-406.5" font-family="Helvetica,sans-Serif" font-size="10.00" fill="#000000">/freesee&#45;native&#45;client</text>
<text text-anchor="start" x="1153.3481" y="-396.5" font-family="Helvetica,sans-Serif" font-size="10.00" fill="#000000">/libs/fcc_sdk/engine/meetingclient</text>
<text text-anchor="middle" x="1239.8569" y="-386.5" font-family="Helvetica,sans-Serif" font-size="10.00" fill="#000000">/src/webservices/WebServiceProxy.cxx</text>
</a>
</g>
</g>
<!-- Node1 -->
<g id="node2" class="node">
<title>Node1</title>
<g id="a_node2"><a xlink:href="_web_service_proxy_8hxx.html" target="_top" xlink:title=" ">
<polygon fill="none" stroke="#000000" points="1125.3867,-315.5 1125.3867,-343.5 1260.3271,-343.5 1260.3271,-315.5 1125.3867,-315.5"/>
<text text-anchor="start" x="1133.3867" y="-331.5" font-family="Helvetica,sans-Serif" font-size="10.00" fill="#000000">MeetingClient/webservices</text>
<text text-anchor="middle" x="1192.8569" y="-321.5" font-family="Helvetica,sans-Serif" font-size="10.00" fill="#000000">/WebServiceProxy.hxx</text>
</a>
</g>
</g>
<!-- Node0&#45;&gt;Node1 -->
<g id="edge1" class="edge">
<title>Node0&#45;&gt;Node1</title>
<path fill="none" stroke="#191970" d="M1224.7271,-380.3567C1219.0708,-371.3306 1212.6702,-361.117 1207.0969,-352.2233"/>
<polygon fill="#191970" stroke="#191970" points="1209.9302,-350.1533 1201.6542,-343.5382 1203.9986,-353.8704 1209.9302,-350.1533"/>
</g>
<!-- Node32 -->
<g id="node33" class="node">
<title>Node32</title>
<g id="a_node33"><a xlink:href="json__entities_8hxx.html" target="_top" xlink:title=" ">
<polygon fill="none" stroke="#000000" points="1377.3867,-185.5 1377.3867,-213.5 1512.3271,-213.5 1512.3271,-185.5 1377.3867,-185.5"/>
<text text-anchor="start" x="1385.3867" y="-201.5" font-family="Helvetica,sans-Serif" font-size="10.00" fill="#000000">MeetingClient/webservices</text>
<text text-anchor="middle" x="1444.8569" y="-191.5" font-family="Helvetica,sans-Serif" font-size="10.00" fill="#000000">/json_entities.hxx</text>
</a>
</g>
</g>
<!-- Node0&#45;&gt;Node32 -->
<g id="edge35" class="edge">
<title>Node0&#45;&gt;Node32</title>
<path fill="none" stroke="#191970" d="M1264.1781,-380.1788C1304.6464,-339.7105 1385.1433,-259.2137 1423.5316,-220.8253"/>
<polygon fill="#191970" stroke="#191970" points="1426.0273,-223.2794 1430.6235,-213.7334 1421.0775,-218.3296 1426.0273,-223.2794"/>
</g>
<!-- Node2 -->
<g id="node3" class="node">
<title>Node2</title>
<g id="a_node3"><a xlink:href="_web_services_a_p_i_8hxx.html" target="_top" xlink:title=" ">
<polygon fill="none" stroke="#000000" points="1123.5313,-185.5 1123.5313,-213.5 1262.1826,-213.5 1262.1826,-185.5 1123.5313,-185.5"/>
<text text-anchor="start" x="1131.5313" y="-201.5" font-family="Helvetica,sans-Serif" font-size="10.00" fill="#000000">MeetingClient/WebServices</text>
<text text-anchor="middle" x="1192.8569" y="-191.5" font-family="Helvetica,sans-Serif" font-size="10.00" fill="#000000">API.hxx</text>
</a>
</g>
</g>
<!-- Node1&#45;&gt;Node2 -->
<g id="edge2" class="edge">
<title>Node1&#45;&gt;Node2</title>
<path fill="none" stroke="#191970" d="M1192.8569,-315.3402C1192.8569,-293.3618 1192.8569,-250.7655 1192.8569,-223.8021"/>
<polygon fill="#191970" stroke="#191970" points="1196.357,-223.6423 1192.8569,-213.6423 1189.357,-223.6423 1196.357,-223.6423"/>
</g>
<!-- Node19 -->
<g id="node20" class="node">
<title>Node19</title>
<g id="a_node20"><a xlink:href="result__builder_8hxx.html" target="_top" xlink:title=" ">
<polygon fill="none" stroke="#000000" points="1029.3867,-250.5 1029.3867,-278.5 1164.3271,-278.5 1164.3271,-250.5 1029.3867,-250.5"/>
<text text-anchor="start" x="1037.3867" y="-266.5" font-family="Helvetica,sans-Serif" font-size="10.00" fill="#000000">MeetingClient/webservices</text>
<text text-anchor="middle" x="1096.8569" y="-256.5" font-family="Helvetica,sans-Serif" font-size="10.00" fill="#000000">/result_builder.hxx</text>
</a>
</g>
</g>
<!-- Node1&#45;&gt;Node19 -->
<g id="edge20" class="edge">
<title>Node1&#45;&gt;Node19</title>
<path fill="none" stroke="#191970" d="M1172.0264,-315.396C1158.5658,-306.282 1140.8547,-294.2902 1126.0054,-284.236"/>
<polygon fill="#191970" stroke="#191970" points="1127.8897,-281.285 1117.6469,-278.5765 1123.965,-287.0813 1127.8897,-281.285"/>
</g>
<!-- Node3 -->
<g id="node4" class="node">
<title>Node3</title>
<g id="a_node4"><a xlink:href="_common_data_types_8hxx.html" target="_top" xlink:title=" ">
<polygon fill="none" stroke="#000000" points="1587.1108,-55.5 1587.1108,-83.5 1712.603,-83.5 1712.603,-55.5 1587.1108,-55.5"/>
<text text-anchor="start" x="1595.1108" y="-71.5" font-family="Helvetica,sans-Serif" font-size="10.00" fill="#000000">MeetingClient/types</text>
<text text-anchor="middle" x="1649.8569" y="-61.5" font-family="Helvetica,sans-Serif" font-size="10.00" fill="#000000">/CommonDataTypes.hxx</text>
</a>
</g>
</g>
<!-- Node2&#45;&gt;Node3 -->
<g id="edge3" class="edge">
<title>Node2&#45;&gt;Node3</title>
<path fill="none" stroke="#191970" d="M1262.2872,-193.0299C1312.4615,-186.4949 1380.9576,-173.6751 1436.8569,-149 1456.9453,-140.1326 1457.1389,-129.663 1476.8569,-120 1508.2936,-104.5942 1545.2986,-93.0082 1576.9991,-84.8459"/>
<polygon fill="#191970" stroke="#191970" points="1578.2427,-88.1425 1587.0913,-82.3156 1576.5403,-81.3527 1578.2427,-88.1425"/>
</g>
<!-- Node6 -->
<g id="node7" class="node">
<title>Node6</title>
<g id="a_node7"><a xlink:href="_entities_8hxx.html" target="_top" xlink:title=" ">
<polygon fill="none" stroke="#000000" points="947.3867,-120.5 947.3867,-148.5 1082.3271,-148.5 1082.3271,-120.5 947.3867,-120.5"/>
<text text-anchor="start" x="955.3867" y="-136.5" font-family="Helvetica,sans-Serif" font-size="10.00" fill="#000000">MeetingClient/webservices</text>
<text text-anchor="middle" x="1014.8569" y="-126.5" font-family="Helvetica,sans-Serif" font-size="10.00" fill="#000000">/Entities.hxx</text>
</a>
</g>
</g>
<!-- Node2&#45;&gt;Node6 -->
<g id="edge6" class="edge">
<title>Node2&#45;&gt;Node6</title>
<path fill="none" stroke="#191970" d="M1154.2336,-185.396C1127.4093,-175.6006 1091.4816,-162.4809 1062.822,-152.0153"/>
<polygon fill="#191970" stroke="#191970" points="1063.9988,-148.7191 1053.4049,-148.5765 1061.5976,-155.2944 1063.9988,-148.7191"/>
</g>
<!-- Node10 -->
<g id="node11" class="node">
<title>Node10</title>
<g id="a_node11"><a xlink:href="_web_parameters_8hxx.html" target="_top" xlink:title=" ">
<polygon fill="none" stroke="#000000" points="1293.3867,-120.5 1293.3867,-148.5 1428.3271,-148.5 1428.3271,-120.5 1293.3867,-120.5"/>
<text text-anchor="start" x="1301.3867" y="-136.5" font-family="Helvetica,sans-Serif" font-size="10.00" fill="#000000">MeetingClient/webservices</text>
<text text-anchor="middle" x="1360.8569" y="-126.5" font-family="Helvetica,sans-Serif" font-size="10.00" fill="#000000">/WebParameters.hxx</text>
</a>
</g>
</g>
<!-- Node2&#45;&gt;Node10 -->
<g id="edge10" class="edge">
<title>Node2&#45;&gt;Node10</title>
<path fill="none" stroke="#191970" d="M1229.3104,-185.396C1254.4076,-175.6858 1287.948,-162.7088 1314.8794,-152.2889"/>
<polygon fill="#191970" stroke="#191970" points="1316.4112,-155.4492 1324.4746,-148.5765 1313.8853,-148.9208 1316.4112,-155.4492"/>
</g>
<!-- Node17 -->
<g id="node18" class="node">
<title>Node17</title>
<g id="a_node18"><a xlink:title=" ">
<polygon fill="none" stroke="#bfbfbf" points="1099.8965,-125.5 1099.8965,-143.5 1189.8174,-143.5 1189.8174,-125.5 1099.8965,-125.5"/>
<text text-anchor="middle" x="1144.8569" y="-131.5" font-family="Helvetica,sans-Serif" font-size="10.00" fill="#000000">Utils/Version.hxx</text>
</a>
</g>
</g>
<!-- Node2&#45;&gt;Node17 -->
<g id="edge18" class="edge">
<title>Node2&#45;&gt;Node17</title>
<path fill="none" stroke="#191970" d="M1182.4416,-185.396C1175.1177,-175.4781 1165.277,-162.1522 1157.5023,-151.6239"/>
<polygon fill="#191970" stroke="#191970" points="1160.314,-149.5395 1151.558,-143.5743 1154.6829,-153.6978 1160.314,-149.5395"/>
</g>
<!-- Node18 -->
<g id="node19" class="node">
<title>Node18</title>
<g id="a_node19"><a xlink:href="macros_8hxx.html" target="_top" xlink:title=" ">
<polygon fill="none" stroke="#000000" points="1208.2954,-125.5 1208.2954,-143.5 1275.4185,-143.5 1275.4185,-125.5 1208.2954,-125.5"/>
<text text-anchor="middle" x="1241.8569" y="-131.5" font-family="Helvetica,sans-Serif" font-size="10.00" fill="#000000">macros.hxx</text>
</a>
</g>
</g>
<!-- Node2&#45;&gt;Node18 -->
<g id="edge19" class="edge">
<title>Node2&#45;&gt;Node18</title>
<path fill="none" stroke="#191970" d="M1203.4892,-185.396C1210.9658,-175.4781 1221.0114,-162.1522 1228.9482,-151.6239"/>
<polygon fill="#191970" stroke="#191970" points="1231.7915,-153.6664 1235.0163,-143.5743 1226.2018,-149.4527 1231.7915,-153.6664"/>
</g>
<!-- Node4 -->
<g id="node5" class="node">
<title>Node4</title>
<g id="a_node5"><a xlink:title=" ">
<polygon fill="none" stroke="#bfbfbf" points="1673.6304,-.5 1673.6304,-18.5 1714.0835,-18.5 1714.0835,-.5 1673.6304,-.5"/>
<text text-anchor="middle" x="1693.8569" y="-6.5" font-family="Helvetica,sans-Serif" font-size="10.00" fill="#000000">string</text>
</a>
</g>
</g>
<!-- Node3&#45;&gt;Node4 -->
<g id="edge4" class="edge">
<title>Node3&#45;&gt;Node4</title>
<path fill="none" stroke="#191970" d="M1660.2843,-55.2808C1666.5359,-46.756 1674.5303,-35.8545 1681.1497,-26.8281"/>
<polygon fill="#191970" stroke="#191970" points="1684.1039,-28.718 1687.1952,-18.5842 1678.4591,-24.5785 1684.1039,-28.718"/>
</g>
<!-- Node5 -->
<g id="node6" class="node">
<title>Node5</title>
<g id="a_node6"><a xlink:title=" ">
<polygon fill="none" stroke="#bfbfbf" points="1554.0615,-.5 1554.0615,-18.5 1655.6523,-18.5 1655.6523,-.5 1554.0615,-.5"/>
<text text-anchor="middle" x="1604.8569" y="-6.5" font-family="Helvetica,sans-Serif" font-size="10.00" fill="#000000">CommonTypes.hxx</text>
</a>
</g>
</g>
<!-- Node3&#45;&gt;Node5 -->
<g id="edge5" class="edge">
<title>Node3&#45;&gt;Node5</title>
<path fill="none" stroke="#191970" d="M1639.1926,-55.2808C1632.7989,-46.756 1624.6228,-35.8545 1617.853,-26.8281"/>
<polygon fill="#191970" stroke="#191970" points="1620.4701,-24.4842 1611.6701,-18.5842 1614.8701,-28.6842 1620.4701,-24.4842"/>
</g>
<!-- Node7 -->
<g id="node8" class="node">
<title>Node7</title>
<g id="a_node8"><a xlink:title=" ">
<polygon fill="none" stroke="#bfbfbf" points="906.9531,-60.5 906.9531,-78.5 980.7607,-78.5 980.7607,-60.5 906.9531,-60.5"/>
<text text-anchor="middle" x="943.8569" y="-66.5" font-family="Helvetica,sans-Serif" font-size="10.00" fill="#000000">Printable.hxx</text>
</a>
</g>
</g>
<!-- Node6&#45;&gt;Node7 -->
<g id="edge7" class="edge">
<title>Node6&#45;&gt;Node7</title>
<path fill="none" stroke="#191970" d="M999.451,-120.396C988.1843,-110.0814 972.8912,-96.0807 961.1966,-85.3743"/>
<polygon fill="#191970" stroke="#191970" points="963.5081,-82.7453 953.7689,-78.5743 958.7813,-87.9084 963.5081,-82.7453"/>
</g>
<!-- Node8 -->
<g id="node9" class="node">
<title>Node8</title>
<g id="a_node9"><a xlink:title=" ">
<polygon fill="none" stroke="#bfbfbf" points="998.9927,-60.5 998.9927,-78.5 1096.7212,-78.5 1096.7212,-60.5 998.9927,-60.5"/>
<text text-anchor="middle" x="1047.8569" y="-66.5" font-family="Helvetica,sans-Serif" font-size="10.00" fill="#000000">boost/function.hpp</text>
</a>
</g>
</g>
<!-- Node6&#45;&gt;Node8 -->
<g id="edge8" class="edge">
<title>Node6&#45;&gt;Node8</title>
<path fill="none" stroke="#191970" d="M1022.0174,-120.396C1026.9016,-110.7756 1033.4138,-97.9487 1038.6785,-87.5788"/>
<polygon fill="#191970" stroke="#191970" points="1041.8438,-89.0754 1043.25,-78.5743 1035.6022,-85.9065 1041.8438,-89.0754"/>
</g>
<!-- Node9 -->
<g id="node10" class="node">
<title>Node9</title>
<g id="a_node10"><a xlink:title=" ">
<polygon fill="none" stroke="#bfbfbf" points="778.8745,-60.5 778.8745,-78.5 888.8394,-78.5 888.8394,-60.5 778.8745,-60.5"/>
<text text-anchor="middle" x="833.8569" y="-66.5" font-family="Helvetica,sans-Serif" font-size="10.00" fill="#000000">boost/shared_ptr.hpp</text>
</a>
</g>
</g>
<!-- Node6&#45;&gt;Node9 -->
<g id="edge9" class="edge">
<title>Node6&#45;&gt;Node9</title>
<path fill="none" stroke="#191970" d="M975.5826,-120.396C943.8225,-108.9904 899.5119,-93.0778 868.9317,-82.0959"/>
<polygon fill="#191970" stroke="#191970" points="869.7199,-78.6602 859.1254,-78.5743 867.354,-85.2482 869.7199,-78.6602"/>
</g>
<!-- Node10&#45;&gt;Node3 -->
<g id="edge13" class="edge">
<title>Node10&#45;&gt;Node3</title>
<path fill="none" stroke="#191970" d="M1423.2098,-120.476C1468.4449,-110.302 1529.7628,-96.5108 1577.2134,-85.8385"/>
<polygon fill="#191970" stroke="#191970" points="1578.1294,-89.22 1587.1176,-83.6109 1576.5933,-82.3906 1578.1294,-89.22"/>
</g>
<!-- Node11 -->
<g id="node12" class="node">
<title>Node11</title>
<g id="a_node12"><a xlink:title=" ">
<polygon fill="none" stroke="#bfbfbf" points="1534.1304,-60.5 1534.1304,-78.5 1569.5835,-78.5 1569.5835,-60.5 1534.1304,-60.5"/>
<text text-anchor="middle" x="1551.8569" y="-66.5" font-family="Helvetica,sans-Serif" font-size="10.00" fill="#000000">map</text>
</a>
</g>
</g>
<!-- Node10&#45;&gt;Node11 -->
<g id="edge11" class="edge">
<title>Node10&#45;&gt;Node11</title>
<path fill="none" stroke="#191970" d="M1415.7147,-120.485C1448.0306,-111.5233 1489.3967,-98.8161 1524.8569,-84 1525.5565,-83.7077 1526.2619,-83.403 1526.9702,-83.0882"/>
<polygon fill="#191970" stroke="#191970" points="1528.6727,-86.1518 1536.1168,-78.6128 1525.5961,-79.8641 1528.6727,-86.1518"/>
</g>
<!-- Node12 -->
<g id="node13" class="node">
<title>Node12</title>
<g id="a_node13"><a xlink:title=" ">
<polygon fill="none" stroke="#bfbfbf" points="1114.3569,-60.5 1114.3569,-78.5 1143.3569,-78.5 1143.3569,-60.5 1114.3569,-60.5"/>
<text text-anchor="middle" x="1128.4678" y="-66.5" font-family="Helvetica,sans-Serif" font-size="10.00" fill="#000000">list</text>
</a>
</g>
</g>
<!-- Node10&#45;&gt;Node12 -->
<g id="edge12" class="edge">
<title>Node10&#45;&gt;Node12</title>
<path fill="none" stroke="#191970" d="M1293.1989,-120.6388C1242.2916,-109.7451 1177.1301,-94.6791 1151.8569,-84 1151.4221,-83.8163 1150.9862,-83.6248 1150.5499,-83.4264"/>
<polygon fill="#191970" stroke="#191970" points="1152.047,-80.2565 1141.5901,-78.5528 1148.7022,-86.4057 1152.047,-80.2565"/>
</g>
<!-- Node13 -->
<g id="node14" class="node">
<title>Node13</title>
<g id="a_node14"><a xlink:href="opt__value_8hxx.html" target="_top" xlink:title=" ">
<polygon fill="none" stroke="#000000" points="1161.0049,-55.5 1161.0049,-83.5 1258.709,-83.5 1258.709,-55.5 1161.0049,-55.5"/>
<text text-anchor="start" x="1169.0049" y="-71.5" font-family="Helvetica,sans-Serif" font-size="10.00" fill="#000000">MeetingClient/utils</text>
<text text-anchor="middle" x="1209.8569" y="-61.5" font-family="Helvetica,sans-Serif" font-size="10.00" fill="#000000">/opt_value.hxx</text>
</a>
</g>
</g>
<!-- Node10&#45;&gt;Node13 -->
<g id="edge14" class="edge">
<title>Node10&#45;&gt;Node13</title>
<path fill="none" stroke="#191970" d="M1328.0922,-120.396C1305.7325,-110.7709 1275.9165,-97.9362 1251.8204,-87.5637"/>
<polygon fill="#191970" stroke="#191970" points="1253.1268,-84.3156 1242.5577,-83.5765 1250.359,-90.7452 1253.1268,-84.3156"/>
</g>
<!-- Node15 -->
<g id="node16" class="node">
<title>Node15</title>
<g id="a_node16"><a xlink:title=" ">
<polygon fill="none" stroke="#bfbfbf" points="1276.3818,-55.5 1276.3818,-83.5 1381.332,-83.5 1381.332,-55.5 1276.3818,-55.5"/>
<text text-anchor="start" x="1284.3818" y="-71.5" font-family="Helvetica,sans-Serif" font-size="10.00" fill="#000000">boost/thread/shared</text>
<text text-anchor="middle" x="1328.8569" y="-61.5" font-family="Helvetica,sans-Serif" font-size="10.00" fill="#000000">_mutex.hpp</text>
</a>
</g>
</g>
<!-- Node10&#45;&gt;Node15 -->
<g id="edge16" class="edge">
<title>Node10&#45;&gt;Node15</title>
<path fill="none" stroke="#191970" d="M1353.9134,-120.396C1349.9297,-112.3041 1344.8292,-101.9437 1340.2711,-92.685"/>
<polygon fill="#191970" stroke="#191970" points="1343.3439,-91.0023 1335.7869,-83.5765 1337.0637,-94.0941 1343.3439,-91.0023"/>
</g>
<!-- Node16 -->
<g id="node17" class="node">
<title>Node16</title>
<g id="a_node17"><a xlink:title=" ">
<polygon fill="none" stroke="#bfbfbf" points="1399.5469,-60.5 1399.5469,-78.5 1516.167,-78.5 1516.167,-60.5 1399.5469,-60.5"/>
<text text-anchor="middle" x="1457.8569" y="-66.5" font-family="Helvetica,sans-Serif" font-size="10.00" fill="#000000">boost/thread/locks.hpp</text>
</a>
</g>
</g>
<!-- Node10&#45;&gt;Node16 -->
<g id="edge17" class="edge">
<title>Node10&#45;&gt;Node16</title>
<path fill="none" stroke="#191970" d="M1381.9045,-120.396C1397.8891,-109.6846 1419.8057,-94.9983 1435.9887,-84.154"/>
<polygon fill="#191970" stroke="#191970" points="1437.9563,-87.0487 1444.3153,-78.5743 1434.0596,-81.2335 1437.9563,-87.0487"/>
</g>
<!-- Node14 -->
<g id="node15" class="node">
<title>Node14</title>
<g id="a_node15"><a xlink:title=" ">
<polygon fill="none" stroke="#bfbfbf" points="1173.5146,-.5 1173.5146,-18.5 1246.1992,-18.5 1246.1992,-.5 1173.5146,-.5"/>
<text text-anchor="middle" x="1209.8569" y="-6.5" font-family="Helvetica,sans-Serif" font-size="10.00" fill="#000000">initializer_list</text>
</a>
</g>
</g>
<!-- Node13&#45;&gt;Node14 -->
<g id="edge15" class="edge">
<title>Node13&#45;&gt;Node14</title>
<path fill="none" stroke="#191970" d="M1209.8569,-55.2808C1209.8569,-47.3776 1209.8569,-37.4316 1209.8569,-28.8308"/>
<polygon fill="#191970" stroke="#191970" points="1213.357,-28.5842 1209.8569,-18.5842 1206.357,-28.5842 1213.357,-28.5842"/>
</g>
<!-- Node19&#45;&gt;Node2 -->
<g id="edge33" class="edge">
<title>Node19&#45;&gt;Node2</title>
<path fill="none" stroke="#191970" d="M1117.6875,-250.396C1131.1481,-241.282 1148.8591,-229.2902 1163.7084,-219.236"/>
<polygon fill="#191970" stroke="#191970" points="1165.7488,-222.0813 1172.067,-213.5765 1161.8242,-216.285 1165.7488,-222.0813"/>
</g>
<!-- Node19&#45;&gt;Node6 -->
<g id="edge34" class="edge">
<title>Node19&#45;&gt;Node6</title>
<path fill="none" stroke="#191970" d="M1087.9254,-250.3402C1073.8156,-227.971 1046.2342,-184.2445 1029.2884,-157.3791"/>
<polygon fill="#191970" stroke="#191970" points="1032.0728,-155.233 1023.7775,-148.6423 1026.1522,-158.9676 1032.0728,-155.233"/>
</g>
<!-- Node20 -->
<g id="node21" class="node">
<title>Node20</title>
<g id="a_node21"><a xlink:href="_h_t_t_p_request_8hxx.html" target="_top" xlink:title=" ">
<polygon fill="none" stroke="#000000" points="331.0493,-190.5 331.0493,-208.5 492.6646,-208.5 492.6646,-190.5 331.0493,-190.5"/>
<text text-anchor="middle" x="411.8569" y="-196.5" font-family="Helvetica,sans-Serif" font-size="10.00" fill="#000000">MeetingClient/HTTPRequest.hxx</text>
</a>
</g>
</g>
<!-- Node19&#45;&gt;Node20 -->
<g id="edge21" class="edge">
<title>Node19&#45;&gt;Node20</title>
<path fill="none" stroke="#191970" d="M1029.3018,-258.0897C905.5715,-246.3488 642.5055,-221.3864 503.0498,-208.1533"/>
<polygon fill="#191970" stroke="#191970" points="503.1025,-204.6427 492.8165,-207.1823 502.4411,-211.6114 503.1025,-204.6427"/>
</g>
<!-- Node21 -->
<g id="node22" class="node">
<title>Node21</title>
<g id="a_node22"><a xlink:title=" ">
<polygon fill="none" stroke="#bfbfbf" points="0,-125.5 0,-143.5 117.7139,-143.5 117.7139,-125.5 0,-125.5"/>
<text text-anchor="middle" x="58.8569" y="-131.5" font-family="Helvetica,sans-Serif" font-size="10.00" fill="#000000">ASIO/HTTPLoader.hxx</text>
</a>
</g>
</g>
<!-- Node20&#45;&gt;Node21 -->
<g id="edge22" class="edge">
<title>Node20&#45;&gt;Node21</title>
<path fill="none" stroke="#191970" d="M357.6469,-190.4704C300.2341,-180.7727 207.0012,-164.6404 126.8569,-149 121.4515,-147.9451 115.8129,-146.8057 110.196,-145.6453"/>
<polygon fill="#191970" stroke="#191970" points="110.6686,-142.1685 100.1639,-143.5478 109.2359,-149.0204 110.6686,-142.1685"/>
</g>
<!-- Node22 -->
<g id="node23" class="node">
<title>Node22</title>
<g id="a_node23"><a xlink:title=" ">
<polygon fill="none" stroke="#bfbfbf" points="135.3916,-125.5 135.3916,-143.5 200.3223,-143.5 200.3223,-125.5 135.3916,-125.5"/>
<text text-anchor="middle" x="167.8569" y="-131.5" font-family="Helvetica,sans-Serif" font-size="10.00" fill="#000000">Logger.hxx</text>
</a>
</g>
</g>
<!-- Node20&#45;&gt;Node22 -->
<g id="edge23" class="edge">
<title>Node20&#45;&gt;Node22</title>
<path fill="none" stroke="#191970" d="M371.3334,-190.4685C330.3464,-181.0768 265.3013,-165.467 209.8569,-149 207.5484,-148.3144 205.1783,-147.5803 202.796,-146.8199"/>
<polygon fill="#191970" stroke="#191970" points="203.6535,-143.4171 193.0603,-143.6014 201.4563,-150.0634 203.6535,-143.4171"/>
</g>
<!-- Node23 -->
<g id="node24" class="node">
<title>Node23</title>
<g id="a_node24"><a xlink:href="uri__string_8hxx.html" target="_top" xlink:title=" ">
<polygon fill="none" stroke="#000000" points="218.3867,-120.5 218.3867,-148.5 353.3271,-148.5 353.3271,-120.5 218.3867,-120.5"/>
<text text-anchor="start" x="226.3867" y="-136.5" font-family="Helvetica,sans-Serif" font-size="10.00" fill="#000000">MeetingClient/webservices</text>
<text text-anchor="middle" x="285.8569" y="-126.5" font-family="Helvetica,sans-Serif" font-size="10.00" fill="#000000">/uri_string.hxx</text>
</a>
</g>
</g>
<!-- Node20&#45;&gt;Node23 -->
<g id="edge24" class="edge">
<title>Node20&#45;&gt;Node23</title>
<path fill="none" stroke="#191970" d="M394.3372,-190.462C375.8315,-180.9155 346.1155,-165.5857 322.4604,-153.3828"/>
<polygon fill="#191970" stroke="#191970" points="323.8929,-150.1835 313.4011,-148.7093 320.6836,-156.4045 323.8929,-150.1835"/>
</g>
<!-- Node26 -->
<g id="node27" class="node">
<title>Node26</title>
<g id="a_node27"><a xlink:title=" ">
<polygon fill="none" stroke="#bfbfbf" points="371.3325,-125.5 371.3325,-143.5 452.3813,-143.5 452.3813,-125.5 371.3325,-125.5"/>
<text text-anchor="middle" x="411.8569" y="-131.5" font-family="Helvetica,sans-Serif" font-size="10.00" fill="#000000">boost/asio.hpp</text>
</a>
</g>
</g>
<!-- Node20&#45;&gt;Node26 -->
<g id="edge27" class="edge">
<title>Node20&#45;&gt;Node26</title>
<path fill="none" stroke="#191970" d="M411.8569,-190.462C411.8569,-181.061 411.8569,-166.0518 411.8569,-153.943"/>
<polygon fill="#191970" stroke="#191970" points="415.357,-153.8821 411.8569,-143.8821 408.357,-153.8822 415.357,-153.8821"/>
</g>
<!-- Node27 -->
<g id="node28" class="node">
<title>Node27</title>
<g id="a_node28"><a xlink:title=" ">
<polygon fill="none" stroke="#bfbfbf" points="470.7783,-125.5 470.7783,-143.5 562.9355,-143.5 562.9355,-125.5 470.7783,-125.5"/>
<text text-anchor="middle" x="516.8569" y="-131.5" font-family="Helvetica,sans-Serif" font-size="10.00" fill="#000000">boost/atomic.hpp</text>
</a>
</g>
</g>
<!-- Node20&#45;&gt;Node27 -->
<g id="edge28" class="edge">
<title>Node20&#45;&gt;Node27</title>
<path fill="none" stroke="#191970" d="M426.4567,-190.462C443.7553,-179.7534 472.8085,-161.7681 493.302,-149.0816"/>
<polygon fill="#191970" stroke="#191970" points="495.3822,-151.9103 502.0426,-143.6708 491.6977,-145.9584 495.3822,-151.9103"/>
</g>
<!-- Node28 -->
<g id="node29" class="node">
<title>Node28</title>
<g id="a_node29"><a xlink:href="_s_c_upload_data_8hxx.html" target="_top" xlink:title=" ">
<polygon fill="none" stroke="#000000" points="581.3745,-125.5 581.3745,-143.5 746.3394,-143.5 746.3394,-125.5 581.3745,-125.5"/>
<text text-anchor="middle" x="663.8569" y="-131.5" font-family="Helvetica,sans-Serif" font-size="10.00" fill="#000000">MeetingClient/SCUploadData.hxx</text>
</a>
</g>
</g>
<!-- Node20&#45;&gt;Node28 -->
<g id="edge29" class="edge">
<title>Node20&#45;&gt;Node28</title>
<path fill="none" stroke="#191970" d="M446.8965,-190.462C491.8121,-178.8766 569.748,-158.7741 618.9663,-146.0789"/>
<polygon fill="#191970" stroke="#191970" points="619.9008,-149.4525 628.7097,-143.5658 618.1524,-142.6744 619.9008,-149.4525"/>
</g>
<!-- Node24 -->
<g id="node25" class="node">
<title>Node24</title>
<g id="a_node25"><a xlink:title=" ">
<polygon fill="none" stroke="#bfbfbf" points="294.0762,-60.5 294.0762,-78.5 345.6377,-78.5 345.6377,-60.5 294.0762,-60.5"/>
<text text-anchor="middle" x="319.8569" y="-66.5" font-family="Helvetica,sans-Serif" font-size="10.00" fill="#000000">sstream</text>
</a>
</g>
</g>
<!-- Node23&#45;&gt;Node24 -->
<g id="edge25" class="edge">
<title>Node23&#45;&gt;Node24</title>
<path fill="none" stroke="#191970" d="M293.2344,-120.396C298.2666,-110.7756 304.9761,-97.9487 310.4003,-87.5788"/>
<polygon fill="#191970" stroke="#191970" points="313.5767,-89.0576 315.1104,-78.5743 307.374,-85.813 313.5767,-89.0576"/>
</g>
<!-- Node25 -->
<g id="node26" class="node">
<title>Node25</title>
<g id="a_node26"><a xlink:title=" ">
<polygon fill="none" stroke="#bfbfbf" points="225.3472,-60.5 225.3472,-78.5 276.3667,-78.5 276.3667,-60.5 225.3472,-60.5"/>
<text text-anchor="middle" x="250.8569" y="-66.5" font-family="Helvetica,sans-Serif" font-size="10.00" fill="#000000">iomanip</text>
</a>
</g>
</g>
<!-- Node23&#45;&gt;Node25 -->
<g id="edge26" class="edge">
<title>Node23&#45;&gt;Node25</title>
<path fill="none" stroke="#191970" d="M278.2625,-120.396C273.0823,-110.7756 266.1755,-97.9487 260.5917,-87.5788"/>
<polygon fill="#191970" stroke="#191970" points="263.5658,-85.7197 255.7431,-78.5743 257.4025,-89.0384 263.5658,-85.7197"/>
</g>
<!-- Node29 -->
<g id="node30" class="node">
<title>Node29</title>
<g id="a_node30"><a xlink:title=" ">
<polygon fill="none" stroke="#bfbfbf" points="570.5977,-60.5 570.5977,-78.5 653.1162,-78.5 653.1162,-60.5 570.5977,-60.5"/>
<text text-anchor="middle" x="611.8569" y="-66.5" font-family="Helvetica,sans-Serif" font-size="10.00" fill="#000000">Utils/Buffer.hxx</text>
</a>
</g>
</g>
<!-- Node28&#45;&gt;Node29 -->
<g id="edge30" class="edge">
<title>Node28&#45;&gt;Node29</title>
<path fill="none" stroke="#191970" d="M656.6266,-125.462C648.6453,-115.4854 635.6112,-99.1929 625.6597,-86.7535"/>
<polygon fill="#191970" stroke="#191970" points="628.3427,-84.5044 619.3626,-78.8821 622.8766,-88.8773 628.3427,-84.5044"/>
</g>
<!-- Node30 -->
<g id="node31" class="node">
<title>Node30</title>
<g id="a_node31"><a xlink:title=" ">
<polygon fill="none" stroke="#bfbfbf" points="671.1797,-60.5 671.1797,-78.5 760.5342,-78.5 760.5342,-60.5 671.1797,-60.5"/>
<text text-anchor="middle" x="715.8569" y="-66.5" font-family="Helvetica,sans-Serif" font-size="10.00" fill="#000000">Utils/EString.hxx</text>
</a>
</g>
</g>
<!-- Node28&#45;&gt;Node30 -->
<g id="edge31" class="edge">
<title>Node28&#45;&gt;Node30</title>
<path fill="none" stroke="#191970" d="M671.0873,-125.462C679.0686,-115.4854 692.1026,-99.1929 702.0541,-86.7535"/>
<polygon fill="#191970" stroke="#191970" points="704.8373,-88.8773 708.3512,-78.8821 699.3712,-84.5044 704.8373,-88.8773"/>
</g>
<!-- Node31 -->
<g id="node32" class="node">
<title>Node31</title>
<g id="a_node32"><a xlink:title=" ">
<polygon fill="none" stroke="#bfbfbf" points="507.1255,-60.5 507.1255,-78.5 552.5884,-78.5 552.5884,-60.5 507.1255,-60.5"/>
<text text-anchor="middle" x="529.8569" y="-66.5" font-family="Helvetica,sans-Serif" font-size="10.00" fill="#000000">stdio.h</text>
</a>
</g>
</g>
<!-- Node28&#45;&gt;Node31 -->
<g id="edge32" class="edge">
<title>Node28&#45;&gt;Node31</title>
<path fill="none" stroke="#191970" d="M645.2248,-125.462C622.5519,-114.464 584.0559,-95.7906 557.8214,-83.0648"/>
<polygon fill="#191970" stroke="#191970" points="559.2877,-79.8861 548.7628,-78.6708 556.2326,-86.1843 559.2877,-79.8861"/>
</g>
<!-- Node32&#45;&gt;Node3 -->
<g id="edge36" class="edge">
<title>Node32&#45;&gt;Node3</title>
<path fill="none" stroke="#191970" d="M1453.7353,-185.2041C1465.336,-167.6012 1487.2194,-137.8493 1512.8569,-120 1533.7927,-105.4241 1559.4394,-94.5041 1582.8579,-86.6181"/>
<polygon fill="#191970" stroke="#191970" points="1583.9577,-89.941 1592.3926,-83.5297 1581.8006,-83.2816 1583.9577,-89.941"/>
</g>
<!-- Node32&#45;&gt;Node6 -->
<g id="edge37" class="edge">
<title>Node32&#45;&gt;Node6</title>
<path fill="none" stroke="#191970" d="M1377.1774,-190.8035C1308.0548,-181.7044 1197.3953,-166.5402 1092.5038,-149.2327"/>
<polygon fill="#191970" stroke="#191970" points="1092.8107,-145.7358 1082.3726,-147.5512 1091.6645,-152.6414 1092.8107,-145.7358"/>
</g>
<!-- Node33 -->
<g id="node34" class="node">
<title>Node33</title>
<g id="a_node34"><a xlink:title=" ">
<polygon fill="none" stroke="#bfbfbf" points="1522.0493,-125.5 1522.0493,-143.5 1633.6646,-143.5 1633.6646,-125.5 1522.0493,-125.5"/>
<text text-anchor="middle" x="1577.8569" y="-131.5" font-family="Helvetica,sans-Serif" font-size="10.00" fill="#000000">rapidjson/document.h</text>
</a>
</g>
</g>
<!-- Node32&#45;&gt;Node33 -->
<g id="edge38" class="edge">
<title>Node32&#45;&gt;Node33</title>
<path fill="none" stroke="#191970" d="M1473.716,-185.396C1496.4447,-174.2879 1527.9207,-158.9049 1550.3049,-147.9653"/>
<polygon fill="#191970" stroke="#191970" points="1551.8419,-151.1098 1559.2895,-143.5743 1548.7682,-144.8207 1551.8419,-151.1098"/>
</g>
</g>
</svg>
        <g id="navigator" transform="translate(0 0)" fill="#404254">
                <rect fill="#f2f5e9" fill-opacity="0.5" stroke="#606060" stroke-width=".5" x="0" y="0" width="60" height="60"/>
                <use id="zoomplus" xlink:href="#zoomPlus" x="17" y="9" onmousedown="handleZoom(evt,'in')"/>
                <use id="zoomminus" xlink:href="#zoomMin" x="42" y="9" onmousedown="handleZoom(evt,'out')"/>
                <use id="reset" xlink:href="#resetDef" x="30" y="36" onmousedown="handleReset()"/>
                <g id="arrowUp" xlink:href="#dirArrow" transform="translate(30 24)" onmousedown="handlePan(0,-1)">
                  <use xlink:href="#rim" fill="#404040">
                        <set attributeName="fill" to="#808080" begin="arrowUp.mouseover" end="arrowUp.mouseout"/>
                  </use>
                  <path fill="none" stroke="white" stroke-width="1.5" d="M0,-3.0v7 M-2.5,-0.5L0,-3.0L2.5,-0.5"/>
                </g>
                <g id="arrowRight" xlink:href="#dirArrow" transform="rotate(90) translate(36 -43)" onmousedown="handlePan(1,0)">
                  <use xlink:href="#rim" fill="#404040">
                        <set attributeName="fill" to="#808080" begin="arrowRight.mouseover" end="arrowRight.mouseout"/>
                  </use>
                  <path fill="none" stroke="white" stroke-width="1.5" d="M0,-3.0v7 M-2.5,-0.5L0,-3.0L2.5,-0.5"/>
                </g>
                <g id="arrowDown" xlink:href="#dirArrow" transform="rotate(180) translate(-30 -48)" onmousedown="handlePan(0,1)">
                  <use xlink:href="#rim" fill="#404040">
                        <set attributeName="fill" to="#808080" begin="arrowDown.mouseover" end="arrowDown.mouseout"/>
                  </use>
                  <path fill="none" stroke="white" stroke-width="1.5" d="M0,-3.0v7 M-2.5,-0.5L0,-3.0L2.5,-0.5"/>
                </g>
                <g id="arrowLeft" xlink:href="#dirArrow" transform="rotate(270) translate(-36 17)" onmousedown="handlePan(-1,0)">
                  <use xlink:href="#rim" fill="#404040">
                        <set attributeName="fill" to="#808080" begin="arrowLeft.mouseover" end="arrowLeft.mouseout"/>
                  </use>
                  <path fill="none" stroke="white" stroke-width="1.5" d="M0,-3.0v7 M-2.5,-0.5L0,-3.0L2.5,-0.5"/>
                </g>
        </g>
        <svg viewBox="0 0 15 15" width="100%" height="30px" preserveAspectRatio="xMaxYMin meet">
         <g id="arrow_out" transform="scale(0.3 0.3)">
          <a xlink:href="_web_service_proxy_8cxx__incl_org.svg" target="_base">
           <rect id="button" ry="5" rx="5" y="6" x="6" height="38" width="38"
                fill="#f2f5e9" fill-opacity="0.5" stroke="#606060" stroke-width="1.0"/>
           <path id="arrow"
             d="M 11.500037,31.436501 C 11.940474,20.09759 22.043105,11.32322 32.158766,21.979434 L 37.068811,17.246167 C 37.068811,17.246167 37.088388,32 37.088388,32 L 22.160133,31.978069 C 22.160133,31.978069 26.997745,27.140456 26.997745,27.140456 C 18.528582,18.264221 13.291696,25.230495 11.500037,31.436501 z"
             style="fill:#404040;"/>
          </a>
         </g>
        </svg>
</svg>
