<?xml version="1.0" encoding="UTF-8" standalone="no"?>
<!DOCTYPE svg PUBLIC "-//W3C//DTD SVG 1.1//EN"
 "http://www.w3.org/Graphics/SVG/1.1/DTD/svg11.dtd">
<!-- Generated by graphviz version 2.40.1 (20161225.0304)
 -->
<!-- Title: /Users/oskryp/Projects/freesee&#45;native&#45;client/libs/fcc_sdk/engine/meetingclient/src/webservices/WebParameters.cxx Pages: 1 -->
<svg width="607pt" height="242pt"
 viewBox="0.00 0.00 607.04 242.00" xmlns="http://www.w3.org/2000/svg" xmlns:xlink="http://www.w3.org/1999/xlink">
<g id="graph0" class="graph" transform="scale(1 1) rotate(0) translate(4 238)">
<title>/Users/oskryp/Projects/freesee&#45;native&#45;client/libs/fcc_sdk/engine/meetingclient/src/webservices/WebParameters.cxx</title>
<!-- Node0 -->
<g id="node1" class="node">
<title>Node0</title>
<g id="a_node1"><a xlink:title=" ">
<polygon fill="#bfbfbf" stroke="#000000" points="136.46,-185.5 136.46,-233.5 318.9932,-233.5 318.9932,-185.5 136.46,-185.5"/>
<text text-anchor="start" x="144.46" y="-221.5" font-family="Helvetica,sans-Serif" font-size="10.00" fill="#000000">/Users/oskryp/Projects</text>
<text text-anchor="start" x="144.46" y="-211.5" font-family="Helvetica,sans-Serif" font-size="10.00" fill="#000000">/freesee&#45;native&#45;client</text>
<text text-anchor="start" x="144.46" y="-201.5" font-family="Helvetica,sans-Serif" font-size="10.00" fill="#000000">/libs/fcc_sdk/engine/meetingclient</text>
<text text-anchor="middle" x="227.7266" y="-191.5" font-family="Helvetica,sans-Serif" font-size="10.00" fill="#000000">/src/webservices/WebParameters.cxx</text>
</a>
</g>
</g>
<!-- Node1 -->
<g id="node2" class="node">
<title>Node1</title>
<g id="a_node2"><a xlink:href="_web_parameters_8hxx.html" target="_top" xlink:title=" ">
<polygon fill="none" stroke="#000000" points="160.2563,-120.5 160.2563,-148.5 295.1968,-148.5 295.1968,-120.5 160.2563,-120.5"/>
<text text-anchor="start" x="168.2563" y="-136.5" font-family="Helvetica,sans-Serif" font-size="10.00" fill="#000000">MeetingClient/webservices</text>
<text text-anchor="middle" x="227.7266" y="-126.5" font-family="Helvetica,sans-Serif" font-size="10.00" fill="#000000">/WebParameters.hxx</text>
</a>
</g>
</g>
<!-- Node0&#45;&gt;Node1 -->
<g id="edge1" class="edge">
<title>Node0&#45;&gt;Node1</title>
<path fill="none" stroke="#191970" d="M227.7266,-185.3567C227.7266,-176.8057 227.7266,-167.1888 227.7266,-158.6382"/>
<polygon fill="#191970" stroke="#191970" points="231.2267,-158.5381 227.7266,-148.5382 224.2267,-158.5382 231.2267,-158.5381"/>
</g>
<!-- Node2 -->
<g id="node3" class="node">
<title>Node2</title>
<g id="a_node3"><a xlink:title=" ">
<polygon fill="none" stroke="#bfbfbf" points="0,-60.5 0,-78.5 35.4531,-78.5 35.4531,-60.5 0,-60.5"/>
<text text-anchor="middle" x="17.7266" y="-66.5" font-family="Helvetica,sans-Serif" font-size="10.00" fill="#000000">map</text>
</a>
</g>
</g>
<!-- Node1&#45;&gt;Node2 -->
<g id="edge2" class="edge">
<title>Node1&#45;&gt;Node2</title>
<path fill="none" stroke="#191970" d="M161.7389,-120.471C126.1026,-111.8861 81.7446,-99.5518 43.7266,-84 43.027,-83.7138 42.3224,-83.413 41.6158,-83.1002"/>
<polygon fill="#191970" stroke="#191970" points="43.0546,-79.9065 32.5446,-78.5682 39.9261,-86.1685 43.0546,-79.9065"/>
</g>
<!-- Node3 -->
<g id="node4" class="node">
<title>Node3</title>
<g id="a_node4"><a xlink:title=" ">
<polygon fill="none" stroke="#bfbfbf" points="53.2266,-60.5 53.2266,-78.5 82.2266,-78.5 82.2266,-60.5 53.2266,-60.5"/>
<text text-anchor="middle" x="67.3374" y="-66.5" font-family="Helvetica,sans-Serif" font-size="10.00" fill="#000000">list</text>
</a>
</g>
</g>
<!-- Node1&#45;&gt;Node3 -->
<g id="edge3" class="edge">
<title>Node1&#45;&gt;Node3</title>
<path fill="none" stroke="#191970" d="M182.3146,-120.4273C155.1535,-111.3607 120.2867,-98.5657 90.7266,-84 90.4249,-83.8513 90.1222,-83.6997 89.8187,-83.5454"/>
<polygon fill="#191970" stroke="#191970" points="91.4989,-80.4746 81.0761,-78.5731 88.0382,-86.5593 91.4989,-80.4746"/>
</g>
<!-- Node4 -->
<g id="node5" class="node">
<title>Node4</title>
<g id="a_node5"><a xlink:href="_common_data_types_8hxx.html" target="_top" xlink:title=" ">
<polygon fill="none" stroke="#000000" points="99.9805,-55.5 99.9805,-83.5 225.4727,-83.5 225.4727,-55.5 99.9805,-55.5"/>
<text text-anchor="start" x="107.9805" y="-71.5" font-family="Helvetica,sans-Serif" font-size="10.00" fill="#000000">MeetingClient/types</text>
<text text-anchor="middle" x="162.7266" y="-61.5" font-family="Helvetica,sans-Serif" font-size="10.00" fill="#000000">/CommonDataTypes.hxx</text>
</a>
</g>
</g>
<!-- Node1&#45;&gt;Node4 -->
<g id="edge4" class="edge">
<title>Node1&#45;&gt;Node4</title>
<path fill="none" stroke="#191970" d="M213.6225,-120.396C204.9345,-111.7079 193.6312,-100.4046 183.8842,-90.6576"/>
<polygon fill="#191970" stroke="#191970" points="186.3491,-88.1727 176.8031,-83.5765 181.3993,-93.1225 186.3491,-88.1727"/>
</g>
<!-- Node7 -->
<g id="node8" class="node">
<title>Node7</title>
<g id="a_node8"><a xlink:href="opt__value_8hxx.html" target="_top" xlink:title=" ">
<polygon fill="none" stroke="#000000" points="243.8745,-55.5 243.8745,-83.5 341.5786,-83.5 341.5786,-55.5 243.8745,-55.5"/>
<text text-anchor="start" x="251.8745" y="-71.5" font-family="Helvetica,sans-Serif" font-size="10.00" fill="#000000">MeetingClient/utils</text>
<text text-anchor="middle" x="292.7266" y="-61.5" font-family="Helvetica,sans-Serif" font-size="10.00" fill="#000000">/opt_value.hxx</text>
</a>
</g>
</g>
<!-- Node1&#45;&gt;Node7 -->
<g id="edge7" class="edge">
<title>Node1&#45;&gt;Node7</title>
<path fill="none" stroke="#191970" d="M241.8306,-120.396C250.5187,-111.7079 261.8219,-100.4046 271.5689,-90.6576"/>
<polygon fill="#191970" stroke="#191970" points="274.0538,-93.1225 278.6501,-83.5765 269.1041,-88.1727 274.0538,-93.1225"/>
</g>
<!-- Node9 -->
<g id="node10" class="node">
<title>Node9</title>
<g id="a_node10"><a xlink:title=" ">
<polygon fill="none" stroke="#bfbfbf" points="359.2515,-55.5 359.2515,-83.5 464.2017,-83.5 464.2017,-55.5 359.2515,-55.5"/>
<text text-anchor="start" x="367.2515" y="-71.5" font-family="Helvetica,sans-Serif" font-size="10.00" fill="#000000">boost/thread/shared</text>
<text text-anchor="middle" x="411.7266" y="-61.5" font-family="Helvetica,sans-Serif" font-size="10.00" fill="#000000">_mutex.hpp</text>
</a>
</g>
</g>
<!-- Node1&#45;&gt;Node9 -->
<g id="edge9" class="edge">
<title>Node1&#45;&gt;Node9</title>
<path fill="none" stroke="#191970" d="M267.6518,-120.396C295.3803,-110.6006 332.5191,-97.4809 362.1447,-87.0153"/>
<polygon fill="#191970" stroke="#191970" points="363.6161,-90.2076 371.8792,-83.5765 361.2844,-83.6073 363.6161,-90.2076"/>
</g>
<!-- Node10 -->
<g id="node11" class="node">
<title>Node10</title>
<g id="a_node11"><a xlink:title=" ">
<polygon fill="none" stroke="#bfbfbf" points="482.4165,-60.5 482.4165,-78.5 599.0366,-78.5 599.0366,-60.5 482.4165,-60.5"/>
<text text-anchor="middle" x="540.7266" y="-66.5" font-family="Helvetica,sans-Serif" font-size="10.00" fill="#000000">boost/thread/locks.hpp</text>
</a>
</g>
</g>
<!-- Node1&#45;&gt;Node10 -->
<g id="edge10" class="edge">
<title>Node1&#45;&gt;Node10</title>
<path fill="none" stroke="#191970" d="M295.3465,-120.6909C344.5587,-110.6096 412.7951,-96.5662 472.7266,-84 477.838,-82.9283 483.164,-81.8046 488.486,-80.6772"/>
<polygon fill="#191970" stroke="#191970" points="489.6034,-84.0181 498.6583,-78.5172 488.1493,-77.1707 489.6034,-84.0181"/>
</g>
<!-- Node5 -->
<g id="node6" class="node">
<title>Node5</title>
<g id="a_node6"><a xlink:title=" ">
<polygon fill="none" stroke="#bfbfbf" points="66.5,-.5 66.5,-18.5 106.9531,-18.5 106.9531,-.5 66.5,-.5"/>
<text text-anchor="middle" x="86.7266" y="-6.5" font-family="Helvetica,sans-Serif" font-size="10.00" fill="#000000">string</text>
</a>
</g>
</g>
<!-- Node4&#45;&gt;Node5 -->
<g id="edge5" class="edge">
<title>Node4&#45;&gt;Node5</title>
<path fill="none" stroke="#191970" d="M144.7156,-55.2808C133.1301,-46.1344 118.0791,-34.252 106.2144,-24.8851"/>
<polygon fill="#191970" stroke="#191970" points="108.2508,-22.0336 98.2332,-18.5842 103.9133,-27.5278 108.2508,-22.0336"/>
</g>
<!-- Node6 -->
<g id="node7" class="node">
<title>Node6</title>
<g id="a_node7"><a xlink:title=" ">
<polygon fill="none" stroke="#bfbfbf" points="124.9312,-.5 124.9312,-18.5 226.522,-18.5 226.522,-.5 124.9312,-.5"/>
<text text-anchor="middle" x="175.7266" y="-6.5" font-family="Helvetica,sans-Serif" font-size="10.00" fill="#000000">CommonTypes.hxx</text>
</a>
</g>
</g>
<!-- Node4&#45;&gt;Node6 -->
<g id="edge6" class="edge">
<title>Node4&#45;&gt;Node6</title>
<path fill="none" stroke="#191970" d="M165.8074,-55.2808C167.539,-47.2888 169.7232,-37.2079 171.6009,-28.5414"/>
<polygon fill="#191970" stroke="#191970" points="175.0613,-29.0986 173.7583,-18.5842 168.2201,-27.6163 175.0613,-29.0986"/>
</g>
<!-- Node8 -->
<g id="node9" class="node">
<title>Node8</title>
<g id="a_node9"><a xlink:title=" ">
<polygon fill="none" stroke="#bfbfbf" points="256.3843,-.5 256.3843,-18.5 329.0688,-18.5 329.0688,-.5 256.3843,-.5"/>
<text text-anchor="middle" x="292.7266" y="-6.5" font-family="Helvetica,sans-Serif" font-size="10.00" fill="#000000">initializer_list</text>
</a>
</g>
</g>
<!-- Node7&#45;&gt;Node8 -->
<g id="edge8" class="edge">
<title>Node7&#45;&gt;Node8</title>
<path fill="none" stroke="#191970" d="M292.7266,-55.2808C292.7266,-47.3776 292.7266,-37.4316 292.7266,-28.8308"/>
<polygon fill="#191970" stroke="#191970" points="296.2267,-28.5842 292.7266,-18.5842 289.2267,-28.5842 296.2267,-28.5842"/>
</g>
</g>
</svg>
