<?xml version="1.0" encoding="UTF-8" standalone="no"?>
<!DOCTYPE svg PUBLIC "-//W3C//DTD SVG 1.1//EN"
 "http://www.w3.org/Graphics/SVG/1.1/DTD/svg11.dtd">
<!-- Generated by graphviz version 2.40.1 (20161225.0304)
 -->
<!-- Title: /Users/oskryp/Projects/freesee&#45;native&#45;client/libs/fcc_sdk/engine/meetingclient/src/headers/MeetingClient/webservices/WebCacheGuard.hxx Pages: 1 -->
<svg width="942pt" height="317pt"
 viewBox="0.00 0.00 942.38 317.00" xmlns="http://www.w3.org/2000/svg" xmlns:xlink="http://www.w3.org/1999/xlink">
<g id="graph0" class="graph" transform="scale(1 1) rotate(0) translate(4 313)">
<title>/Users/oskryp/Projects/freesee&#45;native&#45;client/libs/fcc_sdk/engine/meetingclient/src/headers/MeetingClient/webservices/WebCacheGuard.hxx</title>
<!-- Node0 -->
<g id="node1" class="node">
<title>Node0</title>
<g id="a_node1"><a xlink:title=" ">
<polygon fill="#bfbfbf" stroke="#000000" points="488.5322,-250.5 488.5322,-308.5 681.2754,-308.5 681.2754,-250.5 488.5322,-250.5"/>
<text text-anchor="start" x="496.5322" y="-296.5" font-family="Helvetica,sans-Serif" font-size="10.00" fill="#000000">/Users/oskryp/Projects</text>
<text text-anchor="start" x="496.5322" y="-286.5" font-family="Helvetica,sans-Serif" font-size="10.00" fill="#000000">/freesee&#45;native&#45;client</text>
<text text-anchor="start" x="496.5322" y="-276.5" font-family="Helvetica,sans-Serif" font-size="10.00" fill="#000000">/libs/fcc_sdk/engine/meetingclient</text>
<text text-anchor="start" x="496.5322" y="-266.5" font-family="Helvetica,sans-Serif" font-size="10.00" fill="#000000">/src/headers/MeetingClient/webservices</text>
<text text-anchor="middle" x="584.9038" y="-256.5" font-family="Helvetica,sans-Serif" font-size="10.00" fill="#000000">/WebCacheGuard.hxx</text>
</a>
</g>
</g>
<!-- Node1 -->
<g id="node2" class="node">
<title>Node1</title>
<g id="a_node2"><a xlink:href="_web_services_a_p_i_8hxx.html" target="_top" xlink:title=" ">
<polygon fill="none" stroke="#000000" points="515.5781,-185.5 515.5781,-213.5 654.2295,-213.5 654.2295,-185.5 515.5781,-185.5"/>
<text text-anchor="start" x="523.5781" y="-201.5" font-family="Helvetica,sans-Serif" font-size="10.00" fill="#000000">MeetingClient/WebServices</text>
<text text-anchor="middle" x="584.9038" y="-191.5" font-family="Helvetica,sans-Serif" font-size="10.00" fill="#000000">API.hxx</text>
</a>
</g>
</g>
<!-- Node0&#45;&gt;Node1 -->
<g id="edge1" class="edge">
<title>Node0&#45;&gt;Node1</title>
<path fill="none" stroke="#191970" d="M584.9038,-250.1652C584.9038,-241.4834 584.9038,-232.0784 584.9038,-223.7556"/>
<polygon fill="#191970" stroke="#191970" points="588.4039,-223.5895 584.9038,-213.5895 581.4039,-223.5896 588.4039,-223.5895"/>
</g>
<!-- Node2 -->
<g id="node3" class="node">
<title>Node2</title>
<g id="a_node3"><a xlink:href="_common_data_types_8hxx.html" target="_top" xlink:title=" ">
<polygon fill="none" stroke="#000000" points="336.1577,-55.5 336.1577,-83.5 461.6499,-83.5 461.6499,-55.5 336.1577,-55.5"/>
<text text-anchor="start" x="344.1577" y="-71.5" font-family="Helvetica,sans-Serif" font-size="10.00" fill="#000000">MeetingClient/types</text>
<text text-anchor="middle" x="398.9038" y="-61.5" font-family="Helvetica,sans-Serif" font-size="10.00" fill="#000000">/CommonDataTypes.hxx</text>
</a>
</g>
</g>
<!-- Node1&#45;&gt;Node2 -->
<g id="edge2" class="edge">
<title>Node1&#45;&gt;Node2</title>
<path fill="none" stroke="#191970" d="M563.1304,-185.3579C547.8516,-175.355 527.0009,-161.545 508.9038,-149 480.3541,-129.2093 448.2055,-105.8466 426.0718,-89.5899"/>
<polygon fill="#191970" stroke="#191970" points="427.9475,-86.6247 417.8188,-83.5166 423.7986,-92.2626 427.9475,-86.6247"/>
</g>
<!-- Node5 -->
<g id="node6" class="node">
<title>Node5</title>
<g id="a_node6"><a xlink:href="_entities_8hxx.html" target="_top" xlink:title=" ">
<polygon fill="none" stroke="#000000" points="134.4336,-120.5 134.4336,-148.5 269.374,-148.5 269.374,-120.5 134.4336,-120.5"/>
<text text-anchor="start" x="142.4336" y="-136.5" font-family="Helvetica,sans-Serif" font-size="10.00" fill="#000000">MeetingClient/webservices</text>
<text text-anchor="middle" x="201.9038" y="-126.5" font-family="Helvetica,sans-Serif" font-size="10.00" fill="#000000">/Entities.hxx</text>
</a>
</g>
</g>
<!-- Node1&#45;&gt;Node5 -->
<g id="edge5" class="edge">
<title>Node1&#45;&gt;Node5</title>
<path fill="none" stroke="#191970" d="M515.5454,-187.729C448.9757,-176.4313 348.6096,-159.3978 279.4329,-147.6577"/>
<polygon fill="#191970" stroke="#191970" points="279.9052,-144.1879 269.4605,-145.9652 278.7339,-151.0892 279.9052,-144.1879"/>
</g>
<!-- Node9 -->
<g id="node10" class="node">
<title>Node9</title>
<g id="a_node10"><a xlink:href="_web_parameters_8hxx.html" target="_top" xlink:title=" ">
<polygon fill="none" stroke="#000000" points="517.4336,-120.5 517.4336,-148.5 652.374,-148.5 652.374,-120.5 517.4336,-120.5"/>
<text text-anchor="start" x="525.4336" y="-136.5" font-family="Helvetica,sans-Serif" font-size="10.00" fill="#000000">MeetingClient/webservices</text>
<text text-anchor="middle" x="584.9038" y="-126.5" font-family="Helvetica,sans-Serif" font-size="10.00" fill="#000000">/WebParameters.hxx</text>
</a>
</g>
</g>
<!-- Node1&#45;&gt;Node9 -->
<g id="edge9" class="edge">
<title>Node1&#45;&gt;Node9</title>
<path fill="none" stroke="#191970" d="M584.9038,-185.396C584.9038,-177.6448 584.9038,-167.8122 584.9038,-158.8601"/>
<polygon fill="#191970" stroke="#191970" points="588.4039,-158.5765 584.9038,-148.5765 581.4039,-158.5765 588.4039,-158.5765"/>
</g>
<!-- Node16 -->
<g id="node17" class="node">
<title>Node16</title>
<g id="a_node17"><a xlink:title=" ">
<polygon fill="none" stroke="#bfbfbf" points="669.9434,-125.5 669.9434,-143.5 759.8643,-143.5 759.8643,-125.5 669.9434,-125.5"/>
<text text-anchor="middle" x="714.9038" y="-131.5" font-family="Helvetica,sans-Serif" font-size="10.00" fill="#000000">Utils/Version.hxx</text>
</a>
</g>
</g>
<!-- Node1&#45;&gt;Node16 -->
<g id="edge17" class="edge">
<title>Node1&#45;&gt;Node16</title>
<path fill="none" stroke="#191970" d="M613.1119,-185.396C635.2288,-174.3375 665.8194,-159.0422 687.6797,-148.112"/>
<polygon fill="#191970" stroke="#191970" points="689.3762,-151.177 696.7552,-143.5743 686.2456,-144.916 689.3762,-151.177"/>
</g>
<!-- Node17 -->
<g id="node18" class="node">
<title>Node17</title>
<g id="a_node18"><a xlink:href="macros_8hxx.html" target="_top" xlink:title=" ">
<polygon fill="none" stroke="#000000" points="778.3423,-125.5 778.3423,-143.5 845.4653,-143.5 845.4653,-125.5 778.3423,-125.5"/>
<text text-anchor="middle" x="811.9038" y="-131.5" font-family="Helvetica,sans-Serif" font-size="10.00" fill="#000000">macros.hxx</text>
</a>
</g>
</g>
<!-- Node1&#45;&gt;Node17 -->
<g id="edge18" class="edge">
<title>Node1&#45;&gt;Node17</title>
<path fill="none" stroke="#191970" d="M639.4854,-185.3989C676.2202,-175.6932 725.6608,-162.2132 768.9038,-149 771.1924,-148.3007 773.5432,-147.5632 775.9094,-146.8065"/>
<polygon fill="#191970" stroke="#191970" points="777.1861,-150.0714 785.602,-143.6353 775.0094,-143.4184 777.1861,-150.0714"/>
</g>
<!-- Node3 -->
<g id="node4" class="node">
<title>Node3</title>
<g id="a_node4"><a xlink:title=" ">
<polygon fill="none" stroke="#bfbfbf" points="422.6772,-.5 422.6772,-18.5 463.1304,-18.5 463.1304,-.5 422.6772,-.5"/>
<text text-anchor="middle" x="442.9038" y="-6.5" font-family="Helvetica,sans-Serif" font-size="10.00" fill="#000000">string</text>
</a>
</g>
</g>
<!-- Node2&#45;&gt;Node3 -->
<g id="edge3" class="edge">
<title>Node2&#45;&gt;Node3</title>
<path fill="none" stroke="#191970" d="M409.3312,-55.2808C415.5828,-46.756 423.5772,-35.8545 430.1966,-26.8281"/>
<polygon fill="#191970" stroke="#191970" points="433.1508,-28.718 436.2421,-18.5842 427.506,-24.5785 433.1508,-28.718"/>
</g>
<!-- Node4 -->
<g id="node5" class="node">
<title>Node4</title>
<g id="a_node5"><a xlink:title=" ">
<polygon fill="none" stroke="#bfbfbf" points="303.1084,-.5 303.1084,-18.5 404.6992,-18.5 404.6992,-.5 303.1084,-.5"/>
<text text-anchor="middle" x="353.9038" y="-6.5" font-family="Helvetica,sans-Serif" font-size="10.00" fill="#000000">CommonTypes.hxx</text>
</a>
</g>
</g>
<!-- Node2&#45;&gt;Node4 -->
<g id="edge4" class="edge">
<title>Node2&#45;&gt;Node4</title>
<path fill="none" stroke="#191970" d="M388.2394,-55.2808C381.8458,-46.756 373.6696,-35.8545 366.8999,-26.8281"/>
<polygon fill="#191970" stroke="#191970" points="369.517,-24.4842 360.717,-18.5842 363.917,-28.6842 369.517,-24.4842"/>
</g>
<!-- Node6 -->
<g id="node7" class="node">
<title>Node6</title>
<g id="a_node7"><a xlink:title=" ">
<polygon fill="none" stroke="#bfbfbf" points="0,-60.5 0,-78.5 73.8076,-78.5 73.8076,-60.5 0,-60.5"/>
<text text-anchor="middle" x="36.9038" y="-66.5" font-family="Helvetica,sans-Serif" font-size="10.00" fill="#000000">Printable.hxx</text>
</a>
</g>
</g>
<!-- Node5&#45;&gt;Node6 -->
<g id="edge6" class="edge">
<title>Node5&#45;&gt;Node6</title>
<path fill="none" stroke="#191970" d="M166.1013,-120.396C137.4004,-109.0896 97.4567,-93.3542 69.6081,-82.3835"/>
<polygon fill="#191970" stroke="#191970" points="70.5255,-78.9832 59.9386,-78.5743 67.9598,-85.496 70.5255,-78.9832"/>
</g>
<!-- Node7 -->
<g id="node8" class="node">
<title>Node7</title>
<g id="a_node8"><a xlink:title=" ">
<polygon fill="none" stroke="#bfbfbf" points="92.0396,-60.5 92.0396,-78.5 189.7681,-78.5 189.7681,-60.5 92.0396,-60.5"/>
<text text-anchor="middle" x="140.9038" y="-66.5" font-family="Helvetica,sans-Serif" font-size="10.00" fill="#000000">boost/function.hpp</text>
</a>
</g>
</g>
<!-- Node5&#45;&gt;Node7 -->
<g id="edge7" class="edge">
<title>Node5&#45;&gt;Node7</title>
<path fill="none" stroke="#191970" d="M188.6677,-120.396C179.174,-110.2797 166.3528,-96.6178 156.3843,-85.9956"/>
<polygon fill="#191970" stroke="#191970" points="158.815,-83.4711 149.4197,-78.5743 153.7107,-88.2613 158.815,-83.4711"/>
</g>
<!-- Node8 -->
<g id="node9" class="node">
<title>Node8</title>
<g id="a_node9"><a xlink:title=" ">
<polygon fill="none" stroke="#bfbfbf" points="207.9214,-60.5 207.9214,-78.5 317.8862,-78.5 317.8862,-60.5 207.9214,-60.5"/>
<text text-anchor="middle" x="262.9038" y="-66.5" font-family="Helvetica,sans-Serif" font-size="10.00" fill="#000000">boost/shared_ptr.hpp</text>
</a>
</g>
</g>
<!-- Node5&#45;&gt;Node8 -->
<g id="edge8" class="edge">
<title>Node5&#45;&gt;Node8</title>
<path fill="none" stroke="#191970" d="M215.1399,-120.396C224.6336,-110.2797 237.4548,-96.6178 247.4233,-85.9956"/>
<polygon fill="#191970" stroke="#191970" points="250.0969,-88.2613 254.3879,-78.5743 244.9926,-83.4711 250.0969,-88.2613"/>
</g>
<!-- Node9&#45;&gt;Node2 -->
<g id="edge12" class="edge">
<title>Node9&#45;&gt;Node2</title>
<path fill="none" stroke="#191970" d="M544.5446,-120.396C516.3929,-110.558 478.6456,-97.3668 448.6344,-86.879"/>
<polygon fill="#191970" stroke="#191970" points="449.7791,-83.5715 439.1843,-83.5765 447.4698,-90.1796 449.7791,-83.5715"/>
</g>
<!-- Node10 -->
<g id="node11" class="node">
<title>Node10</title>
<g id="a_node11"><a xlink:title=" ">
<polygon fill="none" stroke="#bfbfbf" points="614.1772,-60.5 614.1772,-78.5 649.6304,-78.5 649.6304,-60.5 614.1772,-60.5"/>
<text text-anchor="middle" x="631.9038" y="-66.5" font-family="Helvetica,sans-Serif" font-size="10.00" fill="#000000">map</text>
</a>
</g>
</g>
<!-- Node9&#45;&gt;Node10 -->
<g id="edge10" class="edge">
<title>Node9&#45;&gt;Node10</title>
<path fill="none" stroke="#191970" d="M595.1021,-120.396C602.2018,-110.5773 611.7167,-97.4184 619.2929,-86.9406"/>
<polygon fill="#191970" stroke="#191970" points="622.3191,-88.7287 625.3424,-78.5743 616.6467,-84.627 622.3191,-88.7287"/>
</g>
<!-- Node11 -->
<g id="node12" class="node">
<title>Node11</title>
<g id="a_node12"><a xlink:title=" ">
<polygon fill="none" stroke="#bfbfbf" points="667.4038,-60.5 667.4038,-78.5 696.4038,-78.5 696.4038,-60.5 667.4038,-60.5"/>
<text text-anchor="middle" x="681.5146" y="-66.5" font-family="Helvetica,sans-Serif" font-size="10.00" fill="#000000">list</text>
</a>
</g>
</g>
<!-- Node9&#45;&gt;Node11 -->
<g id="edge11" class="edge">
<title>Node9&#45;&gt;Node11</title>
<path fill="none" stroke="#191970" d="M605.9514,-120.396C621.9359,-109.6846 643.8526,-94.9983 660.0356,-84.154"/>
<polygon fill="#191970" stroke="#191970" points="662.0032,-87.0487 668.3622,-78.5743 658.1065,-81.2335 662.0032,-87.0487"/>
</g>
<!-- Node12 -->
<g id="node13" class="node">
<title>Node12</title>
<g id="a_node13"><a xlink:href="opt__value_8hxx.html" target="_top" xlink:title=" ">
<polygon fill="none" stroke="#000000" points="714.0518,-55.5 714.0518,-83.5 811.7559,-83.5 811.7559,-55.5 714.0518,-55.5"/>
<text text-anchor="start" x="722.0518" y="-71.5" font-family="Helvetica,sans-Serif" font-size="10.00" fill="#000000">MeetingClient/utils</text>
<text text-anchor="middle" x="762.9038" y="-61.5" font-family="Helvetica,sans-Serif" font-size="10.00" fill="#000000">/opt_value.hxx</text>
</a>
</g>
</g>
<!-- Node9&#45;&gt;Node12 -->
<g id="edge13" class="edge">
<title>Node9&#45;&gt;Node12</title>
<path fill="none" stroke="#191970" d="M623.5272,-120.396C650.3514,-110.6006 686.2792,-97.4809 714.9388,-87.0153"/>
<polygon fill="#191970" stroke="#191970" points="716.1631,-90.2944 724.3558,-83.5765 713.762,-83.7191 716.1631,-90.2944"/>
</g>
<!-- Node14 -->
<g id="node15" class="node">
<title>Node14</title>
<g id="a_node15"><a xlink:title=" ">
<polygon fill="none" stroke="#bfbfbf" points="829.4287,-55.5 829.4287,-83.5 934.3789,-83.5 934.3789,-55.5 829.4287,-55.5"/>
<text text-anchor="start" x="837.4287" y="-71.5" font-family="Helvetica,sans-Serif" font-size="10.00" fill="#000000">boost/thread/shared</text>
<text text-anchor="middle" x="881.9038" y="-61.5" font-family="Helvetica,sans-Serif" font-size="10.00" fill="#000000">_mutex.hpp</text>
</a>
</g>
</g>
<!-- Node9&#45;&gt;Node14 -->
<g id="edge15" class="edge">
<title>Node9&#45;&gt;Node14</title>
<path fill="none" stroke="#191970" d="M652.3864,-120.4821C697.2328,-111.0683 757.6832,-98.193 819.4299,-84.3087"/>
<polygon fill="#191970" stroke="#191970" points="820.3637,-87.6861 829.3488,-82.0721 818.8238,-80.8576 820.3637,-87.6861"/>
</g>
<!-- Node15 -->
<g id="node16" class="node">
<title>Node15</title>
<g id="a_node16"><a xlink:title=" ">
<polygon fill="none" stroke="#bfbfbf" points="479.5938,-60.5 479.5938,-78.5 596.2139,-78.5 596.2139,-60.5 479.5938,-60.5"/>
<text text-anchor="middle" x="537.9038" y="-66.5" font-family="Helvetica,sans-Serif" font-size="10.00" fill="#000000">boost/thread/locks.hpp</text>
</a>
</g>
</g>
<!-- Node9&#45;&gt;Node15 -->
<g id="edge16" class="edge">
<title>Node9&#45;&gt;Node15</title>
<path fill="none" stroke="#191970" d="M574.7055,-120.396C567.6058,-110.5773 558.0909,-97.4184 550.5147,-86.9406"/>
<polygon fill="#191970" stroke="#191970" points="553.161,-84.627 544.4652,-78.5743 547.4885,-88.7287 553.161,-84.627"/>
</g>
<!-- Node13 -->
<g id="node14" class="node">
<title>Node13</title>
<g id="a_node14"><a xlink:title=" ">
<polygon fill="none" stroke="#bfbfbf" points="726.5615,-.5 726.5615,-18.5 799.2461,-18.5 799.2461,-.5 726.5615,-.5"/>
<text text-anchor="middle" x="762.9038" y="-6.5" font-family="Helvetica,sans-Serif" font-size="10.00" fill="#000000">initializer_list</text>
</a>
</g>
</g>
<!-- Node12&#45;&gt;Node13 -->
<g id="edge14" class="edge">
<title>Node12&#45;&gt;Node13</title>
<path fill="none" stroke="#191970" d="M762.9038,-55.2808C762.9038,-47.3776 762.9038,-37.4316 762.9038,-28.8308"/>
<polygon fill="#191970" stroke="#191970" points="766.4039,-28.5842 762.9038,-18.5842 759.4039,-28.5842 766.4039,-28.5842"/>
</g>
</g>
</svg>
