<?xml version="1.0" encoding="UTF-8" standalone="no"?>
<!DOCTYPE svg PUBLIC "-//W3C//DTD SVG 1.1//EN"
 "http://www.w3.org/Graphics/SVG/1.1/DTD/svg11.dtd">
<!-- Generated by graphviz version 2.40.1 (20161225.0304)
 -->
<!-- Title: fs::Buffer::append Pages: 1 -->
<!--zoomable 153 -->
<svg id="main" version="1.1" xmlns="http://www.w3.org/2000/svg" xmlns:xlink="http://www.w3.org/1999/xlink" xml:space="preserve" onload="init(evt)">
<style type="text/css"><![CDATA[
.edge:hover path { stroke: red; }
.edge:hover polygon { stroke: red; fill: red; }
]]></style>
<script type="text/javascript"><![CDATA[
var edges = document.getElementsByTagName('g');
if (edges && edges.length) {
  for (var i=0;i<edges.length;i++) {
    if (edges[i].id.substr(0,4)=='edge') {
      edges[i].setAttribute('class','edge');
    }
  }
}
]]></script>
        <defs>
                <circle id="rim" cx="0" cy="0" r="7"/>
                <circle id="rim2" cx="0" cy="0" r="3.5"/>
                <g id="zoomPlus">
                        <use xlink:href="#rim" fill="#404040">
                                <set attributeName="fill" to="#808080" begin="zoomplus.mouseover" end="zoomplus.mouseout"/>
                        </use>
                        <path d="M-4,0h8M0,-4v8" fill="none" stroke="white" stroke-width="1.5" pointer-events="none"/>
                </g>
                <g id="zoomMin">
                        <use xlink:href="#rim" fill="#404040">
                                <set attributeName="fill" to="#808080" begin="zoomminus.mouseover" end="zoomminus.mouseout"/>
                        </use>
                        <path d="M-4,0h8" fill="none" stroke="white" stroke-width="1.5" pointer-events="none"/>
                </g>
                <g id="dirArrow">
                        <path fill="none" stroke="white" stroke-width="1.5" d="M0,-3.0v7 M-2.5,-0.5L0,-3.0L2.5,-0.5"/>
                </g>
               <g id="resetDef">
                       <use xlink:href="#rim2" fill="#404040">
                               <set attributeName="fill" to="#808080" begin="reset.mouseover" end="reset.mouseout"/>
                       </use>
               </g>
        </defs>

<script type="text/javascript">
var viewWidth = 603;
var viewHeight = 153;
var sectionId = 'dynsection-3';
</script>
<script xlink:href="svgpan.js"/>
<svg id="graph" class="graph">
<g id="viewport">
<title>fs::Buffer::append</title>
<!-- Node7 -->
<g id="node1" class="node">
<title>Node7</title>
<g id="a_node1"><a xlink:title=" ">
<polygon fill="#bfbfbf" stroke="#000000" points="500.5947,-63.5 500.5947,-81.5 595.3594,-81.5 595.3594,-63.5 500.5947,-63.5"/>
<text text-anchor="middle" x="547.9771" y="-69.5" font-family="Helvetica,sans-Serif" font-size="10.00" fill="#000000">fs::Buffer::append</text>
</a>
</g>
</g>
<!-- Node8 -->
<g id="node2" class="node">
<title>Node8</title>
<g id="a_node2"><a xlink:href="classfs_1_1_buffer.html#a6a6885855eee316313c5db69071b20aa" target="_top" xlink:title=" ">
<polygon fill="none" stroke="#000000" points="361.9834,-121.5 361.9834,-139.5 452.2852,-139.5 452.2852,-121.5 361.9834,-121.5"/>
<text text-anchor="middle" x="407.1343" y="-127.5" font-family="Helvetica,sans-Serif" font-size="10.00" fill="#000000">fs::Buffer::assign</text>
</a>
</g>
</g>
<!-- Node7&#45;&gt;Node8 -->
<g id="edge1" class="edge">
<title>Node7&#45;&gt;Node8</title>
<path fill="none" stroke="#191970" d="M522.1465,-86.0784C505.8901,-94.3247 484.3237,-104.7243 464.5947,-112.5 456.3279,-115.7582 447.2161,-118.8371 438.7317,-121.4967"/>
<polygon fill="#191970" stroke="#191970" points="523.7522,-89.1884 531.0504,-81.5081 520.5556,-82.9609 523.7522,-89.1884"/>
</g>
<!-- Node11 -->
<g id="node5" class="node">
<title>Node11</title>
<g id="a_node5"><a xlink:href="classfs_1_1_f_s_pkt_entry.html#af7a241d4127d1e289437d7c30b28ac3d" target="_top" xlink:title=" ">
<polygon fill="none" stroke="#000000" points="353.8486,-84.5 353.8486,-102.5 460.4199,-102.5 460.4199,-84.5 353.8486,-84.5"/>
<text text-anchor="middle" x="407.1343" y="-90.5" font-family="Helvetica,sans-Serif" font-size="10.00" fill="#000000">fs::FSPktEntry::write</text>
</a>
</g>
</g>
<!-- Node7&#45;&gt;Node11 -->
<g id="edge4" class="edge">
<title>Node7&#45;&gt;Node11</title>
<path fill="none" stroke="#191970" d="M490.2289,-81.1104C480.4206,-82.5728 470.2731,-84.0858 460.5817,-85.5309"/>
<polygon fill="#191970" stroke="#191970" points="490.9196,-84.5462 500.2941,-79.6096 489.8873,-77.6227 490.9196,-84.5462"/>
</g>
<!-- Node12 -->
<g id="node6" class="node">
<title>Node12</title>
<g id="a_node6"><a xlink:href="classfs_1_1_f_s_pkt_array_entry.html#abc215a9af9e0da98de5fa9a7a7ac1918" target="_top" xlink:title=" ">
<polygon fill="none" stroke="#000000" points="355.2378,-37.5 355.2378,-65.5 459.0308,-65.5 459.0308,-37.5 355.2378,-37.5"/>
<text text-anchor="start" x="363.2378" y="-53.5" font-family="Helvetica,sans-Serif" font-size="10.00" fill="#000000">fs::FSPktArrayEntry</text>
<text text-anchor="middle" x="407.1343" y="-43.5" font-family="Helvetica,sans-Serif" font-size="10.00" fill="#000000">::write</text>
</a>
</g>
</g>
<!-- Node7&#45;&gt;Node12 -->
<g id="edge5" class="edge">
<title>Node7&#45;&gt;Node12</title>
<path fill="none" stroke="#191970" d="M490.167,-63.8804C479.8823,-62.3469 469.2265,-60.7581 459.1163,-59.2506"/>
<polygon fill="#191970" stroke="#191970" points="489.8873,-67.3773 500.2941,-65.3904 490.9196,-60.4538 489.8873,-67.3773"/>
</g>
<!-- Node13 -->
<g id="node7" class="node">
<title>Node13</title>
<g id="a_node7"><a xlink:href="classfs_1_1_f_s_packet.html#afc831691bce05c6a17b4c3b9c6d05cc9" target="_top" xlink:title=" ">
<polygon fill="none" stroke="#000000" points="349.6738,-.5 349.6738,-18.5 464.5947,-18.5 464.5947,-.5 349.6738,-.5"/>
<text text-anchor="middle" x="407.1343" y="-6.5" font-family="Helvetica,sans-Serif" font-size="10.00" fill="#000000">fs::FSPacket::serialize</text>
</a>
</g>
</g>
<!-- Node7&#45;&gt;Node13 -->
<g id="edge6" class="edge">
<title>Node7&#45;&gt;Node13</title>
<path fill="none" stroke="#191970" d="M523.7836,-58.3595C507.4136,-49.1369 485.1155,-37.2353 464.5947,-28.5 455.9906,-24.8374 446.4241,-21.425 437.6043,-18.5315"/>
<polygon fill="#191970" stroke="#191970" points="522.2587,-61.519 532.6787,-63.4358 525.7283,-55.4394 522.2587,-61.519"/>
</g>
<!-- Node9 -->
<g id="node3" class="node">
<title>Node9</title>
<g id="a_node3"><a xlink:href="classfs_1_1_screen_sharing_controller.html#a869e5a50dd78a97f7bc9042d9a6f52ba" target="_top" xlink:title=" ">
<polygon fill="none" stroke="#000000" points="174.8369,-116.5 174.8369,-144.5 313.6738,-144.5 313.6738,-116.5 174.8369,-116.5"/>
<text text-anchor="start" x="182.8369" y="-132.5" font-family="Helvetica,sans-Serif" font-size="10.00" fill="#000000">fs::ScreenSharingController</text>
<text text-anchor="middle" x="244.2554" y="-122.5" font-family="Helvetica,sans-Serif" font-size="10.00" fill="#000000">::onFSDataAvailable</text>
</a>
</g>
</g>
<!-- Node8&#45;&gt;Node9 -->
<g id="edge2" class="edge">
<title>Node8&#45;&gt;Node9</title>
<path fill="none" stroke="#191970" d="M351.7424,-130.5C339.5352,-130.5 326.4553,-130.5 313.7699,-130.5"/>
<polygon fill="#191970" stroke="#191970" points="351.7635,-134.0001 361.7634,-130.5 351.7634,-127.0001 351.7635,-134.0001"/>
</g>
<!-- Node10 -->
<g id="node4" class="node">
<title>Node10</title>
<g id="a_node4"><a xlink:href="classfs_1_1_screen_sharing_controller.html#aba97ae6754ab50d12fac104a78cd86b4" target="_top" xlink:title=" ">
<polygon fill="none" stroke="#000000" points="0,-116.5 0,-144.5 138.8369,-144.5 138.8369,-116.5 0,-116.5"/>
<text text-anchor="start" x="8" y="-132.5" font-family="Helvetica,sans-Serif" font-size="10.00" fill="#000000">fs::ScreenSharingController</text>
<text text-anchor="middle" x="69.4185" y="-122.5" font-family="Helvetica,sans-Serif" font-size="10.00" fill="#000000">::onFSPropertyChanged</text>
</a>
</g>
</g>
<!-- Node9&#45;&gt;Node10 -->
<g id="edge3" class="edge">
<title>Node9&#45;&gt;Node10</title>
<path fill="none" stroke="#191970" d="M164.4053,-130.5C155.9478,-130.5 147.3952,-130.5 139.0671,-130.5"/>
<polygon fill="#191970" stroke="#191970" points="164.6529,-134.0001 174.6528,-130.5 164.6528,-127.0001 164.6529,-134.0001"/>
</g>
</g>
</svg>
        <g id="navigator" transform="translate(0 0)" fill="#404254">
                <rect fill="#f2f5e9" fill-opacity="0.5" stroke="#606060" stroke-width=".5" x="0" y="0" width="60" height="60"/>
                <use id="zoomplus" xlink:href="#zoomPlus" x="17" y="9" onmousedown="handleZoom(evt,'in')"/>
                <use id="zoomminus" xlink:href="#zoomMin" x="42" y="9" onmousedown="handleZoom(evt,'out')"/>
                <use id="reset" xlink:href="#resetDef" x="30" y="36" onmousedown="handleReset()"/>
                <g id="arrowUp" xlink:href="#dirArrow" transform="translate(30 24)" onmousedown="handlePan(0,-1)">
                  <use xlink:href="#rim" fill="#404040">
                        <set attributeName="fill" to="#808080" begin="arrowUp.mouseover" end="arrowUp.mouseout"/>
                  </use>
                  <path fill="none" stroke="white" stroke-width="1.5" d="M0,-3.0v7 M-2.5,-0.5L0,-3.0L2.5,-0.5"/>
                </g>
                <g id="arrowRight" xlink:href="#dirArrow" transform="rotate(90) translate(36 -43)" onmousedown="handlePan(1,0)">
                  <use xlink:href="#rim" fill="#404040">
                        <set attributeName="fill" to="#808080" begin="arrowRight.mouseover" end="arrowRight.mouseout"/>
                  </use>
                  <path fill="none" stroke="white" stroke-width="1.5" d="M0,-3.0v7 M-2.5,-0.5L0,-3.0L2.5,-0.5"/>
                </g>
                <g id="arrowDown" xlink:href="#dirArrow" transform="rotate(180) translate(-30 -48)" onmousedown="handlePan(0,1)">
                  <use xlink:href="#rim" fill="#404040">
                        <set attributeName="fill" to="#808080" begin="arrowDown.mouseover" end="arrowDown.mouseout"/>
                  </use>
                  <path fill="none" stroke="white" stroke-width="1.5" d="M0,-3.0v7 M-2.5,-0.5L0,-3.0L2.5,-0.5"/>
                </g>
                <g id="arrowLeft" xlink:href="#dirArrow" transform="rotate(270) translate(-36 17)" onmousedown="handlePan(-1,0)">
                  <use xlink:href="#rim" fill="#404040">
                        <set attributeName="fill" to="#808080" begin="arrowLeft.mouseover" end="arrowLeft.mouseout"/>
                  </use>
                  <path fill="none" stroke="white" stroke-width="1.5" d="M0,-3.0v7 M-2.5,-0.5L0,-3.0L2.5,-0.5"/>
                </g>
        </g>
        <svg viewBox="0 0 15 15" width="100%" height="30px" preserveAspectRatio="xMaxYMin meet">
         <g id="arrow_out" transform="scale(0.3 0.3)">
          <a xlink:href="classfs_1_1_buffer_aaeaf7aacea3679ca4956d6b50543f1aa_icgraph_org.svg" target="_base">
           <rect id="button" ry="5" rx="5" y="6" x="6" height="38" width="38"
                fill="#f2f5e9" fill-opacity="0.5" stroke="#606060" stroke-width="1.0"/>
           <path id="arrow"
             d="M 11.500037,31.436501 C 11.940474,20.09759 22.043105,11.32322 32.158766,21.979434 L 37.068811,17.246167 C 37.068811,17.246167 37.088388,32 37.088388,32 L 22.160133,31.978069 C 22.160133,31.978069 26.997745,27.140456 26.997745,27.140456 C 18.528582,18.264221 13.291696,25.230495 11.500037,31.436501 z"
             style="fill:#404040;"/>
          </a>
         </g>
        </svg>
</svg>
