<?xml version="1.0" encoding="UTF-8" standalone="no"?>
<!DOCTYPE svg PUBLIC "-//W3C//DTD SVG 1.1//EN"
 "http://www.w3.org/Graphics/SVG/1.1/DTD/svg11.dtd">
<!-- Generated by graphviz version 2.40.1 (20161225.0304)
 -->
<!-- Title: fs::IChatNotificationsDelegate Pages: 1 -->
<svg width="164pt" height="184pt"
 viewBox="0.00 0.00 163.52 184.00" xmlns="http://www.w3.org/2000/svg" xmlns:xlink="http://www.w3.org/1999/xlink">
<g id="graph0" class="graph" transform="scale(1 1) rotate(0) translate(4 180)">
<title>fs::IChatNotificationsDelegate</title>
<!-- Node6 -->
<g id="node1" class="node">
<title>Node6</title>
<g id="a_node1"><a xlink:title=" ">
<polygon fill="#bfbfbf" stroke="#000000" points="0,-.5 0,-54.5 155.5166,-54.5 155.5166,-.5 0,-.5"/>
<text text-anchor="middle" x="77.7583" y="-42.5" font-family="Helvetica,sans-Serif" font-size="10.00" fill="#000000">fs::IChatNotificationsDelegate</text>
<polyline fill="none" stroke="#000000" points="0,-36.5 155.5166,-36.5 "/>
<text text-anchor="middle" x="77.7583" y="-24.5" font-family="Helvetica,sans-Serif" font-size="10.00" fill="#000000"> </text>
<polyline fill="none" stroke="#000000" points="0,-18.5 155.5166,-18.5 "/>
<text text-anchor="start" x="8" y="-6.5" font-family="Helvetica,sans-Serif" font-size="10.00" fill="#000000">+ ~IChatNotificationsDelegate()</text>
</a>
</g>
</g>
<!-- Node7 -->
<g id="node2" class="node">
<title>Node7</title>
<g id="a_node2"><a xlink:href="classfs_1_1_chat_notifications.html" target="_top" xlink:title=" ">
<polygon fill="none" stroke="#000000" points="11.2769,-91.5 11.2769,-175.5 144.2397,-175.5 144.2397,-91.5 11.2769,-91.5"/>
<text text-anchor="middle" x="77.7583" y="-163.5" font-family="Helvetica,sans-Serif" font-size="10.00" fill="#000000">fs::ChatNotifications</text>
<polyline fill="none" stroke="#000000" points="11.2769,-157.5 144.2397,-157.5 "/>
<text text-anchor="middle" x="77.7583" y="-145.5" font-family="Helvetica,sans-Serif" font-size="10.00" fill="#000000"> </text>
<polyline fill="none" stroke="#000000" points="11.2769,-139.5 144.2397,-139.5 "/>
<text text-anchor="start" x="19.2769" y="-127.5" font-family="Helvetica,sans-Serif" font-size="10.00" fill="#000000">+ ~ChatNotifications()</text>
<text text-anchor="start" x="19.2769" y="-117.5" font-family="Helvetica,sans-Serif" font-size="10.00" fill="#000000">+ ABSTRACT_METHOD()</text>
<text text-anchor="start" x="19.2769" y="-107.5" font-family="Helvetica,sans-Serif" font-size="10.00" fill="#000000">+ ABSTRACT_METHOD()</text>
<text text-anchor="start" x="19.2769" y="-97.5" font-family="Helvetica,sans-Serif" font-size="10.00" fill="#000000">+ ABSTRACT_METHOD()</text>
</a>
</g>
</g>
<!-- Node7&#45;&gt;Node6 -->
<g id="edge1" class="edge">
<title>Node7&#45;&gt;Node6</title>
<path fill="none" stroke="#191970" d="M77.7583,-81.041C77.7583,-71.8936 77.7583,-62.7248 77.7583,-54.6245"/>
<polygon fill="none" stroke="#191970" points="74.2584,-81.3014 77.7583,-91.3014 81.2584,-81.3015 74.2584,-81.3014"/>
</g>
</g>
</svg>
