<?xml version="1.0" encoding="UTF-8" standalone="no"?>
<!DOCTYPE svg PUBLIC "-//W3C//DTD SVG 1.1//EN"
 "http://www.w3.org/Graphics/SVG/1.1/DTD/svg11.dtd">
<!-- Generated by graphviz version 2.40.1 (20161225.0304)
 -->
<!-- Title: fs::MeetingClientSession::enableScreenSharing Pages: 1 -->
<svg width="300pt" height="121pt"
 viewBox="0.00 0.00 300.02 121.00" xmlns="http://www.w3.org/2000/svg" xmlns:xlink="http://www.w3.org/1999/xlink">
<g id="graph0" class="graph" transform="scale(1 1) rotate(0) translate(4 117)">
<title>fs::MeetingClientSession::enableScreenSharing</title>
<!-- Node104 -->
<g id="node1" class="node">
<title>Node104</title>
<g id="a_node1"><a xlink:title=" ">
<polygon fill="#bfbfbf" stroke="#000000" points="0,-47.5 0,-75.5 126.0537,-75.5 126.0537,-47.5 0,-47.5"/>
<text text-anchor="start" x="8" y="-63.5" font-family="Helvetica,sans-Serif" font-size="10.00" fill="#000000">fs::MeetingClientSession</text>
<text text-anchor="middle" x="63.0269" y="-53.5" font-family="Helvetica,sans-Serif" font-size="10.00" fill="#000000">::enableScreenSharing</text>
</a>
</g>
</g>
<!-- Node105 -->
<g id="node2" class="node">
<title>Node105</title>
<g id="a_node2"><a xlink:href="_meeting_client_session_8cxx.html#ab06e713e85f5d00e42ad86367c03f278" target="_top" xlink:title=" ">
<polygon fill="none" stroke="#000000" points="197.6348,-94.5 197.6348,-112.5 256.4424,-112.5 256.4424,-94.5 197.6348,-94.5"/>
<text text-anchor="middle" x="227.0386" y="-100.5" font-family="Helvetica,sans-Serif" font-size="10.00" fill="#000000">asio_post</text>
</a>
</g>
</g>
<!-- Node104&#45;&gt;Node105 -->
<g id="edge1" class="edge">
<title>Node104&#45;&gt;Node105</title>
<path fill="none" stroke="#191970" d="M118.0966,-75.6022C140.8093,-81.4185 166.6231,-88.0288 187.4205,-93.3546"/>
<polygon fill="#191970" stroke="#191970" points="186.6359,-96.7666 197.1916,-95.8568 188.3725,-89.9854 186.6359,-96.7666"/>
</g>
<!-- Node106 -->
<g id="node3" class="node">
<title>Node106</title>
<g id="a_node3"><a xlink:href="classfs_1_1_meeting_client_session.html#a75e9c574fb9a84a95e9629dd91689dc0" target="_top" xlink:title=" ">
<polygon fill="none" stroke="#000000" points="164.0117,-47.5 164.0117,-75.5 290.0654,-75.5 290.0654,-47.5 164.0117,-47.5"/>
<text text-anchor="start" x="172.0117" y="-63.5" font-family="Helvetica,sans-Serif" font-size="10.00" fill="#000000">fs::MeetingClientSession</text>
<text text-anchor="middle" x="227.0386" y="-53.5" font-family="Helvetica,sans-Serif" font-size="10.00" fill="#000000">::ioService</text>
</a>
</g>
</g>
<!-- Node104&#45;&gt;Node106 -->
<g id="edge2" class="edge">
<title>Node104&#45;&gt;Node106</title>
<path fill="none" stroke="#191970" d="M126.4381,-61.5C135.3453,-61.5 144.5614,-61.5 153.6355,-61.5"/>
<polygon fill="#191970" stroke="#191970" points="153.796,-65.0001 163.796,-61.5 153.796,-58.0001 153.796,-65.0001"/>
</g>
<!-- Node107 -->
<g id="node4" class="node">
<title>Node107</title>
<g id="a_node4"><a xlink:href="classfs_1_1_meeting_client_session.html#a68f16b7368cf006ad4f92af458543cc2" target="_top" xlink:title=" ">
<polygon fill="none" stroke="#000000" points="162.0537,-.5 162.0537,-28.5 292.0234,-28.5 292.0234,-.5 162.0537,-.5"/>
<text text-anchor="start" x="170.0537" y="-16.5" font-family="Helvetica,sans-Serif" font-size="10.00" fill="#000000">fs::MeetingClientSession</text>
<text text-anchor="middle" x="227.0386" y="-6.5" font-family="Helvetica,sans-Serif" font-size="10.00" fill="#000000">::onEnableScreenSharing</text>
</a>
</g>
</g>
<!-- Node104&#45;&gt;Node107 -->
<g id="edge3" class="edge">
<title>Node104&#45;&gt;Node107</title>
<path fill="none" stroke="#191970" d="M112.2358,-47.3985C129.9118,-42.3331 150.0218,-36.5703 168.4184,-31.2985"/>
<polygon fill="#191970" stroke="#191970" points="169.4983,-34.63 178.1472,-28.5106 167.5699,-27.9008 169.4983,-34.63"/>
</g>
</g>
</svg>
