<?xml version="1.0" encoding="UTF-8" standalone="no"?>
<!DOCTYPE svg PUBLIC "-//W3C//DTD SVG 1.1//EN"
 "http://www.w3.org/Graphics/SVG/1.1/DTD/svg11.dtd">
<!-- Generated by graphviz version 2.40.1 (20161225.0304)
 -->
<!-- Title: fs::BroadcasterPresentationNotificationsNullDelegate Pages: 1 -->
<svg width="154pt" height="436pt"
 viewBox="0.00 0.00 153.50 436.00" xmlns="http://www.w3.org/2000/svg" xmlns:xlink="http://www.w3.org/1999/xlink">
<g id="graph0" class="graph" transform="scale(1 1) rotate(0) translate(4 432)">
<title>fs::BroadcasterPresentationNotificationsNullDelegate</title>
<!-- Node7 -->
<g id="node1" class="node">
<title>Node7</title>
<g id="a_node1"><a xlink:title=" ">
<polygon fill="#bfbfbf" stroke="#000000" points="3.0518,-.5 3.0518,-84.5 142.4502,-84.5 142.4502,-.5 3.0518,-.5"/>
<text text-anchor="start" x="11.0518" y="-72.5" font-family="Helvetica,sans-Serif" font-size="10.00" fill="#000000">fs::BroadcasterPresentation</text>
<text text-anchor="middle" x="72.751" y="-62.5" font-family="Helvetica,sans-Serif" font-size="10.00" fill="#000000">NotificationsNullDelegate</text>
<polyline fill="none" stroke="#000000" points="3.0518,-56.5 142.4502,-56.5 "/>
<text text-anchor="middle" x="72.751" y="-44.5" font-family="Helvetica,sans-Serif" font-size="10.00" fill="#000000"> </text>
<polyline fill="none" stroke="#000000" points="3.0518,-38.5 142.4502,-38.5 "/>
<text text-anchor="start" x="11.0518" y="-26.5" font-family="Helvetica,sans-Serif" font-size="10.00" fill="#000000">+ EMPTY_METHOD()</text>
<text text-anchor="start" x="11.0518" y="-16.5" font-family="Helvetica,sans-Serif" font-size="10.00" fill="#000000">+ EMPTY_METHOD()</text>
<text text-anchor="start" x="11.0518" y="-6.5" font-family="Helvetica,sans-Serif" font-size="10.00" fill="#000000">+ EMPTY_METHOD()</text>
</a>
</g>
</g>
<!-- Node8 -->
<g id="node2" class="node">
<title>Node8</title>
<g id="a_node2"><a xlink:href="classfs_1_1_i_broadcaster_presentation_notifications_delegate.html" target="_top" xlink:title=" ">
<polygon fill="none" stroke="#000000" points="1.1011,-121.5 1.1011,-195.5 144.4009,-195.5 144.4009,-121.5 1.1011,-121.5"/>
<text text-anchor="start" x="9.1011" y="-183.5" font-family="Helvetica,sans-Serif" font-size="10.00" fill="#000000">fs::IBroadcasterPresentation</text>
<text text-anchor="middle" x="72.751" y="-173.5" font-family="Helvetica,sans-Serif" font-size="10.00" fill="#000000">NotificationsDelegate</text>
<polyline fill="none" stroke="#000000" points="1.1011,-167.5 144.4009,-167.5 "/>
<text text-anchor="middle" x="72.751" y="-155.5" font-family="Helvetica,sans-Serif" font-size="10.00" fill="#000000"> </text>
<polyline fill="none" stroke="#000000" points="1.1011,-149.5 144.4009,-149.5 "/>
<text text-anchor="start" x="9.1011" y="-137.5" font-family="Helvetica,sans-Serif" font-size="10.00" fill="#000000">+ ~IBroadcasterPresentation</text>
<text text-anchor="start" x="9.1011" y="-127.5" font-family="Helvetica,sans-Serif" font-size="10.00" fill="#000000">NotificationsDelegate()</text>
</a>
</g>
</g>
<!-- Node8&#45;&gt;Node7 -->
<g id="edge1" class="edge">
<title>Node8&#45;&gt;Node7</title>
<path fill="none" stroke="#191970" d="M72.751,-111.3716C72.751,-102.5842 72.751,-93.4515 72.751,-84.8197"/>
<polygon fill="none" stroke="#191970" points="69.2511,-111.4779 72.751,-121.4779 76.2511,-111.478 69.2511,-111.4779"/>
</g>
<!-- Node9 -->
<g id="node3" class="node">
<title>Node9</title>
<g id="a_node3"><a xlink:href="classfs_1_1_broadcaster_presentation_notifications.html" target="_top" xlink:title=" ">
<polygon fill="none" stroke="#000000" points="2.4902,-232.5 2.4902,-326.5 143.0117,-326.5 143.0117,-232.5 2.4902,-232.5"/>
<text text-anchor="start" x="10.4902" y="-314.5" font-family="Helvetica,sans-Serif" font-size="10.00" fill="#000000">fs::BroadcasterPresentation</text>
<text text-anchor="middle" x="72.751" y="-304.5" font-family="Helvetica,sans-Serif" font-size="10.00" fill="#000000">Notifications</text>
<polyline fill="none" stroke="#000000" points="2.4902,-298.5 143.0117,-298.5 "/>
<text text-anchor="middle" x="72.751" y="-286.5" font-family="Helvetica,sans-Serif" font-size="10.00" fill="#000000"> </text>
<polyline fill="none" stroke="#000000" points="2.4902,-280.5 143.0117,-280.5 "/>
<text text-anchor="start" x="10.4902" y="-268.5" font-family="Helvetica,sans-Serif" font-size="10.00" fill="#000000">+ ~BroadcasterPresentation</text>
<text text-anchor="start" x="10.4902" y="-258.5" font-family="Helvetica,sans-Serif" font-size="10.00" fill="#000000">Notifications()</text>
<text text-anchor="start" x="10.4902" y="-248.5" font-family="Helvetica,sans-Serif" font-size="10.00" fill="#000000">+ ABSTRACT_METHOD()</text>
<text text-anchor="start" x="10.4902" y="-238.5" font-family="Helvetica,sans-Serif" font-size="10.00" fill="#000000">+ ABSTRACT_METHOD()</text>
</a>
</g>
</g>
<!-- Node9&#45;&gt;Node8 -->
<g id="edge2" class="edge">
<title>Node9&#45;&gt;Node8</title>
<path fill="none" stroke="#191970" d="M72.751,-222.2279C72.751,-213.1684 72.751,-204.0122 72.751,-195.5748"/>
<polygon fill="none" stroke="#191970" points="69.2511,-222.3717 72.751,-232.3718 76.2511,-222.3718 69.2511,-222.3717"/>
</g>
<!-- Node10 -->
<g id="node4" class="node">
<title>Node10</title>
<g id="a_node4"><a xlink:href="classfs_1_1_broadcaster_notifications.html" target="_top" xlink:title=" ">
<polygon fill="none" stroke="#000000" points="0,-363.5 0,-427.5 145.502,-427.5 145.502,-363.5 0,-363.5"/>
<text text-anchor="middle" x="72.751" y="-415.5" font-family="Helvetica,sans-Serif" font-size="10.00" fill="#000000">fs::BroadcasterNotifications</text>
<polyline fill="none" stroke="#000000" points="0,-409.5 145.502,-409.5 "/>
<text text-anchor="middle" x="72.751" y="-397.5" font-family="Helvetica,sans-Serif" font-size="10.00" fill="#000000"> </text>
<polyline fill="none" stroke="#000000" points="0,-391.5 145.502,-391.5 "/>
<text text-anchor="start" x="8" y="-379.5" font-family="Helvetica,sans-Serif" font-size="10.00" fill="#000000">+ ~BroadcasterNotifications()</text>
<text text-anchor="start" x="8" y="-369.5" font-family="Helvetica,sans-Serif" font-size="10.00" fill="#000000">+ ABSTRACT_METHOD()</text>
</a>
</g>
</g>
<!-- Node10&#45;&gt;Node9 -->
<g id="edge3" class="edge">
<title>Node10&#45;&gt;Node9</title>
<path fill="none" stroke="#191970" d="M72.751,-353.2431C72.751,-344.585 72.751,-335.4206 72.751,-326.6045"/>
<polygon fill="none" stroke="#191970" points="69.2511,-353.4954 72.751,-363.4954 76.2511,-353.4955 69.2511,-353.4954"/>
</g>
</g>
</svg>
