<?xml version="1.0" encoding="UTF-8" standalone="no"?>
<!DOCTYPE svg PUBLIC "-//W3C//DTD SVG 1.1//EN"
 "http://www.w3.org/Graphics/SVG/1.1/DTD/svg11.dtd">
<!-- Generated by graphviz version 2.40.1 (20161225.0304)
 -->
<!-- Title: fs::MeetingClientSession::toggleScreenSharingSuspended Pages: 1 -->
<svg width="336pt" height="121pt"
 viewBox="0.00 0.00 335.61 121.00" xmlns="http://www.w3.org/2000/svg" xmlns:xlink="http://www.w3.org/1999/xlink">
<g id="graph0" class="graph" transform="scale(1 1) rotate(0) translate(4 117)">
<title>fs::MeetingClientSession::toggleScreenSharingSuspended</title>
<!-- Node1012 -->
<g id="node1" class="node">
<title>Node1012</title>
<g id="a_node1"><a xlink:title=" ">
<polygon fill="#bfbfbf" stroke="#000000" points="0,-42.5 0,-70.5 165.5557,-70.5 165.5557,-42.5 0,-42.5"/>
<text text-anchor="start" x="8" y="-58.5" font-family="Helvetica,sans-Serif" font-size="10.00" fill="#000000">fs::MeetingClientSession</text>
<text text-anchor="middle" x="82.7778" y="-48.5" font-family="Helvetica,sans-Serif" font-size="10.00" fill="#000000">::toggleScreenSharingSuspended</text>
</a>
</g>
</g>
<!-- Node1013 -->
<g id="node2" class="node">
<title>Node1013</title>
<g id="a_node2"><a xlink:href="classfs_1_1_meeting_client_session.html#ad2db541bceb2f60d39d34b3e443801d2" target="_top" xlink:title=" ">
<polygon fill="none" stroke="#000000" points="201.5557,-84.5 201.5557,-112.5 327.6094,-112.5 327.6094,-84.5 201.5557,-84.5"/>
<text text-anchor="start" x="209.5557" y="-100.5" font-family="Helvetica,sans-Serif" font-size="10.00" fill="#000000">fs::MeetingClientSession</text>
<text text-anchor="middle" x="264.5825" y="-90.5" font-family="Helvetica,sans-Serif" font-size="10.00" fill="#000000">::isInitialized</text>
</a>
</g>
</g>
<!-- Node1012&#45;&gt;Node1013 -->
<g id="edge1" class="edge">
<title>Node1012&#45;&gt;Node1013</title>
<path fill="none" stroke="#191970" d="M143.5689,-70.5438C159.64,-74.2565 177.1266,-78.2962 193.682,-82.1208"/>
<polygon fill="#191970" stroke="#191970" points="193.3175,-85.6287 203.8487,-84.4694 194.8932,-78.8083 193.3175,-85.6287"/>
</g>
<!-- Node1014 -->
<g id="node3" class="node">
<title>Node1014</title>
<g id="a_node3"><a xlink:href="_meeting_client_session_8cxx.html#ab06e713e85f5d00e42ad86367c03f278" target="_top" xlink:title=" ">
<polygon fill="none" stroke="#000000" points="235.1787,-47.5 235.1787,-65.5 293.9863,-65.5 293.9863,-47.5 235.1787,-47.5"/>
<text text-anchor="middle" x="264.5825" y="-53.5" font-family="Helvetica,sans-Serif" font-size="10.00" fill="#000000">asio_post</text>
</a>
</g>
</g>
<!-- Node1012&#45;&gt;Node1014 -->
<g id="edge2" class="edge">
<title>Node1012&#45;&gt;Node1014</title>
<path fill="none" stroke="#191970" d="M165.6999,-56.5C186.1742,-56.5 207.1928,-56.5 224.5576,-56.5"/>
<polygon fill="#191970" stroke="#191970" points="224.86,-60.0001 234.86,-56.5 224.86,-53.0001 224.86,-60.0001"/>
</g>
<!-- Node1015 -->
<g id="node4" class="node">
<title>Node1015</title>
<g id="a_node4"><a xlink:href="classfs_1_1_meeting_client_session.html#a75e9c574fb9a84a95e9629dd91689dc0" target="_top" xlink:title=" ">
<polygon fill="none" stroke="#000000" points="201.5557,-.5 201.5557,-28.5 327.6094,-28.5 327.6094,-.5 201.5557,-.5"/>
<text text-anchor="start" x="209.5557" y="-16.5" font-family="Helvetica,sans-Serif" font-size="10.00" fill="#000000">fs::MeetingClientSession</text>
<text text-anchor="middle" x="264.5825" y="-6.5" font-family="Helvetica,sans-Serif" font-size="10.00" fill="#000000">::ioService</text>
</a>
</g>
</g>
<!-- Node1012&#45;&gt;Node1015 -->
<g id="edge3" class="edge">
<title>Node1012&#45;&gt;Node1015</title>
<path fill="none" stroke="#191970" d="M143.5689,-42.4562C159.64,-38.7435 177.1266,-34.7038 193.682,-30.8792"/>
<polygon fill="#191970" stroke="#191970" points="194.8932,-34.1917 203.8487,-28.5306 193.3175,-27.3713 194.8932,-34.1917"/>
</g>
</g>
</svg>
