<?xml version="1.0" encoding="UTF-8" standalone="no"?>
<!DOCTYPE svg PUBLIC "-//W3C//DTD SVG 1.1//EN"
 "http://www.w3.org/Graphics/SVG/1.1/DTD/svg11.dtd">
<!-- Generated by graphviz version 2.40.1 (20161225.0304)
 -->
<!-- Title: fs::RTNotificationsController::registerHandlers Pages: 1 -->
<svg width="501pt" height="107pt"
 viewBox="0.00 0.00 500.92 107.00" xmlns="http://www.w3.org/2000/svg" xmlns:xlink="http://www.w3.org/1999/xlink">
<g id="graph0" class="graph" transform="scale(1 1) rotate(0) translate(4 103)">
<title>fs::RTNotificationsController::registerHandlers</title>
<!-- Node46 -->
<g id="node1" class="node">
<title>Node46</title>
<g id="a_node1"><a xlink:title=" ">
<polygon fill="#bfbfbf" stroke="#000000" points="0,-23.5 0,-51.5 140.3066,-51.5 140.3066,-23.5 0,-23.5"/>
<text text-anchor="start" x="8" y="-39.5" font-family="Helvetica,sans-Serif" font-size="10.00" fill="#000000">fs::RTNotificationsController</text>
<text text-anchor="middle" x="70.1533" y="-29.5" font-family="Helvetica,sans-Serif" font-size="10.00" fill="#000000">::registerHandlers</text>
</a>
</g>
</g>
<!-- Node47 -->
<g id="node2" class="node">
<title>Node47</title>
<g id="a_node2"><a xlink:href="classfs_1_1_r_t_notifications_controller.html#abafaa0dbd85ee2ae7475cc385f744f78" target="_top" xlink:title=" ">
<polygon fill="none" stroke="#000000" points="176.3066,-47.5 176.3066,-75.5 316.6133,-75.5 316.6133,-47.5 176.3066,-47.5"/>
<text text-anchor="start" x="184.3066" y="-63.5" font-family="Helvetica,sans-Serif" font-size="10.00" fill="#000000">fs::RTNotificationsController</text>
<text text-anchor="middle" x="246.46" y="-53.5" font-family="Helvetica,sans-Serif" font-size="10.00" fill="#000000">::populatingHandler</text>
</a>
</g>
</g>
<!-- Node46&#45;&gt;Node47 -->
<g id="edge1" class="edge">
<title>Node46&#45;&gt;Node47</title>
<path fill="none" stroke="#191970" d="M140.341,-47.0544C148.8304,-48.21 157.552,-49.3973 166.1725,-50.5708"/>
<polygon fill="#191970" stroke="#191970" points="165.8451,-54.0584 176.2258,-51.9393 166.7893,-47.1223 165.8451,-54.0584"/>
</g>
<!-- Node50 -->
<g id="node5" class="node">
<title>Node50</title>
<g id="a_node5"><a xlink:href="classfs_1_1_r_t_notifications_controller.html#a1797180d99a32bd4c83abc3ed7952cc2" target="_top" xlink:title=" ">
<polygon fill="none" stroke="#000000" points="176.3066,-.5 176.3066,-28.5 316.6133,-28.5 316.6133,-.5 176.3066,-.5"/>
<text text-anchor="start" x="184.3066" y="-16.5" font-family="Helvetica,sans-Serif" font-size="10.00" fill="#000000">fs::RTNotificationsController</text>
<text text-anchor="middle" x="246.46" y="-6.5" font-family="Helvetica,sans-Serif" font-size="10.00" fill="#000000">::addHandler</text>
</a>
</g>
</g>
<!-- Node46&#45;&gt;Node50 -->
<g id="edge4" class="edge">
<title>Node46&#45;&gt;Node50</title>
<path fill="none" stroke="#191970" d="M140.341,-28.3437C148.8304,-27.2362 157.552,-26.0984 166.1725,-24.9739"/>
<polygon fill="#191970" stroke="#191970" points="166.7626,-28.4266 176.2258,-23.6624 165.857,-21.4854 166.7626,-28.4266"/>
</g>
<!-- Node48 -->
<g id="node3" class="node">
<title>Node48</title>
<g id="a_node3"><a xlink:href="classfs_1_1_r_t_notifications_controller.html#a63bcc0b97a8cc11b5efe3dcebafc29f9" target="_top" xlink:title=" ">
<polygon fill="none" stroke="#000000" points="352.6133,-70.5 352.6133,-98.5 492.9199,-98.5 492.9199,-70.5 352.6133,-70.5"/>
<text text-anchor="start" x="360.6133" y="-86.5" font-family="Helvetica,sans-Serif" font-size="10.00" fill="#000000">fs::RTNotificationsController</text>
<text text-anchor="middle" x="422.7666" y="-76.5" font-family="Helvetica,sans-Serif" font-size="10.00" fill="#000000">::handleResponse</text>
</a>
</g>
</g>
<!-- Node47&#45;&gt;Node48 -->
<g id="edge2" class="edge">
<title>Node47&#45;&gt;Node48</title>
<path fill="none" stroke="#191970" d="M316.6476,-70.6563C325.1371,-71.7638 333.8587,-72.9016 342.4792,-74.0261"/>
<polygon fill="#191970" stroke="#191970" points="342.1637,-77.5146 352.5324,-75.3376 343.0692,-70.5734 342.1637,-77.5146"/>
</g>
<!-- Node49 -->
<g id="node4" class="node">
<title>Node49</title>
<g id="a_node4"><a xlink:href="classfs_1_1_r_t_notifications_controller.html#adb900e48259e2382c3e12d9a177a7dc3" target="_top" xlink:title=" ">
<polygon fill="none" stroke="#000000" points="352.6133,-23.5 352.6133,-51.5 492.9199,-51.5 492.9199,-23.5 352.6133,-23.5"/>
<text text-anchor="start" x="360.6133" y="-39.5" font-family="Helvetica,sans-Serif" font-size="10.00" fill="#000000">fs::RTNotificationsController</text>
<text text-anchor="middle" x="422.7666" y="-29.5" font-family="Helvetica,sans-Serif" font-size="10.00" fill="#000000">::handleBridgeVersion</text>
</a>
</g>
</g>
<!-- Node47&#45;&gt;Node49 -->
<g id="edge3" class="edge">
<title>Node47&#45;&gt;Node49</title>
<path fill="none" stroke="#191970" d="M316.6476,-51.9456C325.1371,-50.79 333.8587,-49.6027 342.4792,-48.4292"/>
<polygon fill="#191970" stroke="#191970" points="343.0959,-51.8777 352.5324,-47.0607 342.1517,-44.9416 343.0959,-51.8777"/>
</g>
</g>
</svg>
