<?xml version="1.0" encoding="UTF-8" standalone="no"?>
<!DOCTYPE svg PUBLIC "-//W3C//DTD SVG 1.1//EN"
 "http://www.w3.org/Graphics/SVG/1.1/DTD/svg11.dtd">
<!-- Generated by graphviz version 2.40.1 (20161225.0304)
 -->
<!-- Title: fs::MeetingClient::startClient Pages: 1 -->
<svg width="401pt" height="107pt"
 viewBox="0.00 0.00 400.91 107.00" xmlns="http://www.w3.org/2000/svg" xmlns:xlink="http://www.w3.org/1999/xlink">
<g id="graph0" class="graph" transform="scale(1 1) rotate(0) translate(4 103)">
<title>fs::MeetingClient::startClient</title>
<!-- Node325 -->
<g id="node1" class="node">
<title>Node325</title>
<g id="a_node1"><a xlink:title=" ">
<polygon fill="#bfbfbf" stroke="#000000" points="0,-46.5 0,-74.5 96.0342,-74.5 96.0342,-46.5 0,-46.5"/>
<text text-anchor="start" x="8" y="-62.5" font-family="Helvetica,sans-Serif" font-size="10.00" fill="#000000">fs::MeetingClient::</text>
<text text-anchor="middle" x="48.0171" y="-52.5" font-family="Helvetica,sans-Serif" font-size="10.00" fill="#000000">startClient</text>
</a>
</g>
</g>
<!-- Node326 -->
<g id="node2" class="node">
<title>Node326</title>
<g id="a_node2"><a xlink:href="classfs_1_1_meeting_client.html#a4b96182bdaf092d0db0efcc58ee90c7f" target="_top" xlink:title=" ">
<polygon fill="none" stroke="#000000" points="139.8174,-70.5 139.8174,-98.5 253.0879,-98.5 253.0879,-70.5 139.8174,-70.5"/>
<text text-anchor="start" x="147.8174" y="-86.5" font-family="Helvetica,sans-Serif" font-size="10.00" fill="#000000">fs::MeetingClient::</text>
<text text-anchor="middle" x="196.4526" y="-76.5" font-family="Helvetica,sans-Serif" font-size="10.00" fill="#000000">createMeetingObjects</text>
</a>
</g>
</g>
<!-- Node325&#45;&gt;Node326 -->
<g id="edge1" class="edge">
<title>Node325&#45;&gt;Node326</title>
<path fill="none" stroke="#191970" d="M96.2099,-68.2921C106.8391,-70.0107 118.2837,-71.8612 129.5046,-73.6754"/>
<polygon fill="#191970" stroke="#191970" points="129.2862,-77.1855 139.7167,-75.3266 130.4036,-70.2752 129.2862,-77.1855"/>
</g>
<!-- Node327 -->
<g id="node3" class="node">
<title>Node327</title>
<g id="a_node3"><a xlink:href="classfs_1_1_meeting_client.html#a85c5e210f24c32230b8367588193fbee" target="_top" xlink:title=" ">
<polygon fill="none" stroke="#000000" points="132.0342,-23.5 132.0342,-51.5 260.8711,-51.5 260.8711,-23.5 132.0342,-23.5"/>
<text text-anchor="start" x="140.0342" y="-39.5" font-family="Helvetica,sans-Serif" font-size="10.00" fill="#000000">fs::MeetingClient::</text>
<text text-anchor="middle" x="196.4526" y="-29.5" font-family="Helvetica,sans-Serif" font-size="10.00" fill="#000000">startScreenSharingMedia</text>
</a>
</g>
</g>
<!-- Node325&#45;&gt;Node327 -->
<g id="edge2" class="edge">
<title>Node325&#45;&gt;Node327</title>
<path fill="none" stroke="#191970" d="M96.2099,-53.0326C104.5131,-51.746 113.314,-50.3823 122.117,-49.0183"/>
<polygon fill="#191970" stroke="#191970" points="122.6844,-52.4722 132.0305,-47.4822 121.6124,-45.5548 122.6844,-52.4722"/>
</g>
<!-- Node328 -->
<g id="node4" class="node">
<title>Node328</title>
<g id="a_node4"><a xlink:href="classfs_1_1_meeting_client.html#aab12c46889f26ffbe1a0810471d00e56" target="_top" xlink:title=" ">
<polygon fill="none" stroke="#000000" points="296.8711,-47.5 296.8711,-75.5 392.9053,-75.5 392.9053,-47.5 296.8711,-47.5"/>
<text text-anchor="start" x="304.8711" y="-63.5" font-family="Helvetica,sans-Serif" font-size="10.00" fill="#000000">fs::MeetingClient::</text>
<text text-anchor="middle" x="344.8882" y="-53.5" font-family="Helvetica,sans-Serif" font-size="10.00" fill="#000000">hasAudio</text>
</a>
</g>
</g>
<!-- Node327&#45;&gt;Node328 -->
<g id="edge3" class="edge">
<title>Node327&#45;&gt;Node328</title>
<path fill="none" stroke="#191970" d="M261.1268,-47.9569C269.5693,-49.322 278.1793,-50.7141 286.51,-52.061"/>
<polygon fill="#191970" stroke="#191970" points="286.0726,-55.5357 296.5031,-53.6768 287.1899,-48.6254 286.0726,-55.5357"/>
</g>
<!-- Node329 -->
<g id="node5" class="node">
<title>Node329</title>
<g id="a_node5"><a xlink:href="classfs_1_1_meeting_client.html#a7df90bde41869ea3d4a68b6aa3a5fa6f" target="_top" xlink:title=" ">
<polygon fill="none" stroke="#000000" points="296.8711,-.5 296.8711,-28.5 392.9053,-28.5 392.9053,-.5 296.8711,-.5"/>
<text text-anchor="start" x="304.8711" y="-16.5" font-family="Helvetica,sans-Serif" font-size="10.00" fill="#000000">fs::MeetingClient::</text>
<text text-anchor="middle" x="344.8882" y="-6.5" font-family="Helvetica,sans-Serif" font-size="10.00" fill="#000000">isWelcomePlayed</text>
</a>
</g>
</g>
<!-- Node327&#45;&gt;Node329 -->
<g id="edge4" class="edge">
<title>Node327&#45;&gt;Node329</title>
<path fill="none" stroke="#191970" d="M261.1268,-27.4788C269.5693,-26.1706 278.1793,-24.8365 286.51,-23.5457"/>
<polygon fill="#191970" stroke="#191970" points="287.1569,-26.9873 296.5031,-21.9972 286.085,-20.0698 287.1569,-26.9873"/>
</g>
</g>
</svg>
