<?xml version="1.0" encoding="UTF-8" standalone="no"?>
<!DOCTYPE svg PUBLIC "-//W3C//DTD SVG 1.1//EN"
 "http://www.w3.org/Graphics/SVG/1.1/DTD/svg11.dtd">
<!-- Generated by graphviz version 2.40.1 (20161225.0304)
 -->
<!-- Title: fs::AttendeesController::onAttendeeCustomNameChanged Pages: 1 -->
<svg width="340pt" height="84pt"
 viewBox="0.00 0.00 340.05 84.00" xmlns="http://www.w3.org/2000/svg" xmlns:xlink="http://www.w3.org/1999/xlink">
<g id="graph0" class="graph" transform="scale(1 1) rotate(0) translate(4 80)">
<title>fs::AttendeesController::onAttendeeCustomNameChanged</title>
<!-- Node24 -->
<g id="node1" class="node">
<title>Node24</title>
<g id="a_node1"><a xlink:title=" ">
<polygon fill="#bfbfbf" stroke="#000000" points="0,-23.5 0,-51.5 174.4326,-51.5 174.4326,-23.5 0,-23.5"/>
<text text-anchor="start" x="8" y="-39.5" font-family="Helvetica,sans-Serif" font-size="10.00" fill="#000000">fs::AttendeesController</text>
<text text-anchor="middle" x="87.2163" y="-29.5" font-family="Helvetica,sans-Serif" font-size="10.00" fill="#000000">::onAttendeeCustomNameChanged</text>
</a>
</g>
</g>
<!-- Node25 -->
<g id="node2" class="node">
<title>Node25</title>
<g id="a_node2"><a xlink:href="classfs_1_1_attendee_decorator.html#acc2cf422616b1dfff9d5f0589b31d13c" target="_top" xlink:title=" ">
<polygon fill="none" stroke="#000000" points="214.605,-47.5 214.605,-75.5 327.8804,-75.5 327.8804,-47.5 214.605,-47.5"/>
<text text-anchor="start" x="222.605" y="-63.5" font-family="Helvetica,sans-Serif" font-size="10.00" fill="#000000">fs::AttendeeDecorator</text>
<text text-anchor="middle" x="271.2427" y="-53.5" font-family="Helvetica,sans-Serif" font-size="10.00" fill="#000000">::getPrimaryIdentifier</text>
</a>
</g>
</g>
<!-- Node24&#45;&gt;Node25 -->
<g id="edge1" class="edge">
<title>Node24&#45;&gt;Node25</title>
<path fill="none" stroke="#191970" d="M174.6485,-48.9026C184.6975,-50.2131 194.8195,-51.5332 204.5336,-52.8001"/>
<polygon fill="#191970" stroke="#191970" points="204.1202,-56.2757 214.4888,-54.0984 205.0255,-49.3345 204.1202,-56.2757"/>
</g>
<!-- Node26 -->
<g id="node3" class="node">
<title>Node26</title>
<g id="a_node3"><a xlink:href="classfs_1_1_attendee_decorator.html#a8206a4a93ea54117e753e148f79a216f" target="_top" xlink:title=" ">
<polygon fill="none" stroke="#000000" points="210.4326,-.5 210.4326,-28.5 332.0527,-28.5 332.0527,-.5 210.4326,-.5"/>
<text text-anchor="start" x="218.4326" y="-16.5" font-family="Helvetica,sans-Serif" font-size="10.00" fill="#000000">fs::AttendeeDecorator</text>
<text text-anchor="middle" x="271.2427" y="-6.5" font-family="Helvetica,sans-Serif" font-size="10.00" fill="#000000">::getSecondaryIdentifier</text>
</a>
</g>
</g>
<!-- Node24&#45;&gt;Node26 -->
<g id="edge2" class="edge">
<title>Node24&#45;&gt;Node26</title>
<path fill="none" stroke="#191970" d="M174.6485,-26.5725C183.2195,-25.5013 191.8436,-24.4235 200.2224,-23.3763"/>
<polygon fill="#191970" stroke="#191970" points="200.8123,-26.8299 210.301,-22.1166 199.9441,-19.8839 200.8123,-26.8299"/>
</g>
</g>
</svg>
