<?xml version="1.0" encoding="UTF-8" standalone="no"?>
<!DOCTYPE svg PUBLIC "-//W3C//DTD SVG 1.1//EN"
 "http://www.w3.org/Graphics/SVG/1.1/DTD/svg11.dtd">
<!-- Generated by graphviz version 2.40.1 (20161225.0304)
 -->
<!-- Title: fs::FSDirectorPromoteStatusPkt Pages: 1 -->
<svg width="168pt" height="507pt"
 viewBox="0.00 0.00 167.65 507.00" xmlns="http://www.w3.org/2000/svg" xmlns:xlink="http://www.w3.org/1999/xlink">
<g id="graph0" class="graph" transform="scale(1 1) rotate(0) translate(4 503)">
<title>fs::FSDirectorPromoteStatusPkt</title>
<!-- Node2 -->
<g id="node1" class="node">
<title>Node2</title>
<g id="a_node1"><a xlink:title=" ">
<polygon fill="#bfbfbf" stroke="#000000" points="0,-.5 0,-114.5 159.6523,-114.5 159.6523,-.5 0,-.5"/>
<text text-anchor="middle" x="79.8262" y="-102.5" font-family="Helvetica,sans-Serif" font-size="10.00" fill="#000000">fs::FSDirectorPromoteStatusPkt</text>
<polyline fill="none" stroke="#000000" points="0,-96.5 159.6523,-96.5 "/>
<text text-anchor="middle" x="79.8262" y="-84.5" font-family="Helvetica,sans-Serif" font-size="10.00" fill="#000000"> </text>
<polyline fill="none" stroke="#000000" points="0,-78.5 159.6523,-78.5 "/>
<text text-anchor="start" x="8" y="-66.5" font-family="Helvetica,sans-Serif" font-size="10.00" fill="#000000">+ FSDirectorPromoteStatusPkt()</text>
<text text-anchor="start" x="8" y="-56.5" font-family="Helvetica,sans-Serif" font-size="10.00" fill="#000000">+ rcptID()</text>
<text text-anchor="start" x="8" y="-46.5" font-family="Helvetica,sans-Serif" font-size="10.00" fill="#000000">+ setRcptID()</text>
<text text-anchor="start" x="8" y="-36.5" font-family="Helvetica,sans-Serif" font-size="10.00" fill="#000000">+ status()</text>
<text text-anchor="start" x="8" y="-26.5" font-family="Helvetica,sans-Serif" font-size="10.00" fill="#000000">+ setStatus()</text>
<text text-anchor="start" x="8" y="-16.5" font-family="Helvetica,sans-Serif" font-size="10.00" fill="#000000">+ directorID()</text>
<text text-anchor="start" x="8" y="-6.5" font-family="Helvetica,sans-Serif" font-size="10.00" fill="#000000">+ setDirectorID()</text>
</a>
</g>
</g>
<!-- Node3 -->
<g id="node2" class="node">
<title>Node3</title>
<g id="a_node2"><a xlink:href="classfs_1_1_f_s_packet.html" target="_top" xlink:title=" ">
<polygon fill="none" stroke="#000000" points="39.5923,-152.5 39.5923,-266.5 120.0601,-266.5 120.0601,-152.5 39.5923,-152.5"/>
<text text-anchor="middle" x="79.8262" y="-254.5" font-family="Helvetica,sans-Serif" font-size="10.00" fill="#000000">fs::FSPacket</text>
<polyline fill="none" stroke="#000000" points="39.5923,-248.5 120.0601,-248.5 "/>
<text text-anchor="start" x="47.5923" y="-236.5" font-family="Helvetica,sans-Serif" font-size="10.00" fill="#000000"># m_iType</text>
<polyline fill="none" stroke="#000000" points="39.5923,-230.5 120.0601,-230.5 "/>
<text text-anchor="start" x="47.5923" y="-218.5" font-family="Helvetica,sans-Serif" font-size="10.00" fill="#000000">+ FSPacket()</text>
<text text-anchor="start" x="47.5923" y="-208.5" font-family="Helvetica,sans-Serif" font-size="10.00" fill="#000000">+ ~FSPacket()</text>
<text text-anchor="start" x="47.5923" y="-198.5" font-family="Helvetica,sans-Serif" font-size="10.00" fill="#000000">+ type()</text>
<text text-anchor="start" x="47.5923" y="-188.5" font-family="Helvetica,sans-Serif" font-size="10.00" fill="#000000">+ serialize()</text>
<text text-anchor="start" x="47.5923" y="-178.5" font-family="Helvetica,sans-Serif" font-size="10.00" fill="#000000">+ entry()</text>
<text text-anchor="start" x="47.5923" y="-168.5" font-family="Helvetica,sans-Serif" font-size="10.00" fill="#000000">+ setEntry()</text>
<text text-anchor="start" x="47.5923" y="-158.5" font-family="Helvetica,sans-Serif" font-size="10.00" fill="#000000">+ deserialize()</text>
</a>
</g>
</g>
<!-- Node3&#45;&gt;Node2 -->
<g id="edge1" class="edge">
<title>Node3&#45;&gt;Node2</title>
<path fill="none" stroke="#191970" d="M79.8262,-142.1786C79.8262,-132.974 79.8262,-123.5975 79.8262,-114.5984"/>
<polygon fill="none" stroke="#191970" points="76.3263,-142.4683 79.8262,-152.4684 83.3263,-142.4684 76.3263,-142.4683"/>
</g>
<!-- Node4 -->
<g id="node3" class="node">
<title>Node4</title>
<g id="a_node3"><a xlink:title=" ">
<polygon fill="none" stroke="#bfbfbf" points="7.0801,-313.5 7.0801,-367.5 152.5723,-367.5 152.5723,-313.5 7.0801,-313.5"/>
<text text-anchor="middle" x="79.8262" y="-355.5" font-family="Helvetica,sans-Serif" font-size="10.00" fill="#000000">std::vector&lt; FSPktStream * &gt;</text>
<polyline fill="none" stroke="#bfbfbf" points="7.0801,-349.5 152.5723,-349.5 "/>
<text text-anchor="middle" x="79.8262" y="-337.5" font-family="Helvetica,sans-Serif" font-size="10.00" fill="#000000"> </text>
<polyline fill="none" stroke="#bfbfbf" points="7.0801,-331.5 152.5723,-331.5 "/>
<text text-anchor="middle" x="79.8262" y="-319.5" font-family="Helvetica,sans-Serif" font-size="10.00" fill="#000000"> </text>
</a>
</g>
</g>
<!-- Node4&#45;&gt;Node3 -->
<g id="edge2" class="edge">
<title>Node4&#45;&gt;Node3</title>
<path fill="none" stroke="#404040" d="M79.8262,-313.3567C79.8262,-303.1832 79.8262,-291.1036 79.8262,-278.8438"/>
<polygon fill="none" stroke="#404040" points="79.8263,-278.5878 75.8262,-272.5879 79.8262,-266.5878 83.8262,-272.5878 79.8263,-278.5878"/>
<text text-anchor="middle" x="109.0034" y="-287" font-family="Helvetica,sans-Serif" font-size="10.00" fill="#000000"> #m_xEntries</text>
</g>
<!-- Node5 -->
<g id="node4" class="node">
<title>Node5</title>
<g id="a_node4"><a xlink:href="classfs_1_1_f_s_pkt_stream.html" target="_top" xlink:title=" ">
<polygon fill="none" stroke="#000000" points="31.5381,-414.5 31.5381,-498.5 128.1143,-498.5 128.1143,-414.5 31.5381,-414.5"/>
<text text-anchor="middle" x="79.8262" y="-486.5" font-family="Helvetica,sans-Serif" font-size="10.00" fill="#000000">fs::FSPktStream</text>
<polyline fill="none" stroke="#000000" points="31.5381,-480.5 128.1143,-480.5 "/>
<text text-anchor="start" x="39.5381" y="-468.5" font-family="Helvetica,sans-Serif" font-size="10.00" fill="#000000"># m_pxObj</text>
<polyline fill="none" stroke="#000000" points="31.5381,-462.5 128.1143,-462.5 "/>
<text text-anchor="start" x="39.5381" y="-450.5" font-family="Helvetica,sans-Serif" font-size="10.00" fill="#000000">+ ~FSPktStream()</text>
<text text-anchor="start" x="39.5381" y="-440.5" font-family="Helvetica,sans-Serif" font-size="10.00" fill="#000000">+ read()</text>
<text text-anchor="start" x="39.5381" y="-430.5" font-family="Helvetica,sans-Serif" font-size="10.00" fill="#000000">+ write()</text>
<text text-anchor="start" x="39.5381" y="-420.5" font-family="Helvetica,sans-Serif" font-size="10.00" fill="#000000">+ object()</text>
</a>
</g>
</g>
<!-- Node5&#45;&gt;Node4 -->
<g id="edge3" class="edge">
<title>Node5&#45;&gt;Node4</title>
<path fill="none" stroke="#404040" d="M79.8262,-414.2932C79.8262,-402.9972 79.8262,-390.8361 79.8262,-379.7094"/>
<polygon fill="none" stroke="#404040" points="79.8263,-379.6877 75.8262,-373.6877 79.8262,-367.6877 83.8262,-373.6877 79.8263,-379.6877"/>
<text text-anchor="middle" x="104.4233" y="-388" font-family="Helvetica,sans-Serif" font-size="10.00" fill="#000000"> +elements</text>
</g>
</g>
</svg>
