<?xml version="1.0" encoding="UTF-8" standalone="no"?>
<!DOCTYPE svg PUBLIC "-//W3C//DTD SVG 1.1//EN"
 "http://www.w3.org/Graphics/SVG/1.1/DTD/svg11.dtd">
<!-- Generated by graphviz version 2.40.1 (20161225.0304)
 -->
<!-- Title: fs::MeetingClient::toggleLock Pages: 1 -->
<svg width="300pt" height="84pt"
 viewBox="0.00 0.00 300.01 84.00" xmlns="http://www.w3.org/2000/svg" xmlns:xlink="http://www.w3.org/1999/xlink">
<g id="graph0" class="graph" transform="scale(1 1) rotate(0) translate(4 80)">
<title>fs::MeetingClient::toggleLock</title>
<!-- Node370 -->
<g id="node1" class="node">
<title>Node370</title>
<g id="a_node1"><a xlink:title=" ">
<polygon fill="#bfbfbf" stroke="#000000" points="0,-23.5 0,-51.5 96.0342,-51.5 96.0342,-23.5 0,-23.5"/>
<text text-anchor="start" x="8" y="-39.5" font-family="Helvetica,sans-Serif" font-size="10.00" fill="#000000">fs::MeetingClient::</text>
<text text-anchor="middle" x="48.0171" y="-29.5" font-family="Helvetica,sans-Serif" font-size="10.00" fill="#000000">toggleLock</text>
</a>
</g>
</g>
<!-- Node371 -->
<g id="node2" class="node">
<title>Node371</title>
<g id="a_node2"><a xlink:href="classfs_1_1_meeting_client.html#a635fd6781bf0ff1b7c77ae9d1b97b1cb" target="_top" xlink:title=" ">
<polygon fill="none" stroke="#000000" points="164.0044,-47.5 164.0044,-75.5 260.0386,-75.5 260.0386,-47.5 164.0044,-47.5"/>
<text text-anchor="start" x="172.0044" y="-63.5" font-family="Helvetica,sans-Serif" font-size="10.00" fill="#000000">fs::MeetingClient::</text>
<text text-anchor="middle" x="212.0215" y="-53.5" font-family="Helvetica,sans-Serif" font-size="10.00" fill="#000000">isLocked</text>
</a>
</g>
</g>
<!-- Node370&#45;&gt;Node371 -->
<g id="edge1" class="edge">
<title>Node370&#45;&gt;Node371</title>
<path fill="none" stroke="#191970" d="M96.3368,-44.571C114.3575,-47.2081 135.0051,-50.2296 153.8218,-52.9832"/>
<polygon fill="#191970" stroke="#191970" points="153.3626,-56.4532 163.764,-54.4381 154.3762,-49.527 153.3626,-56.4532"/>
</g>
<!-- Node372 -->
<g id="node3" class="node">
<title>Node372</title>
<g id="a_node3"><a xlink:href="classfs_1_1_meeting_client.html#a40d7135e01dc3c70625c21251d013857" target="_top" xlink:title=" ">
<polygon fill="none" stroke="#000000" points="132.0342,-.5 132.0342,-28.5 292.0088,-28.5 292.0088,-.5 132.0342,-.5"/>
<text text-anchor="start" x="140.0342" y="-16.5" font-family="Helvetica,sans-Serif" font-size="10.00" fill="#000000">fs::MeetingClient::</text>
<text text-anchor="middle" x="212.0215" y="-6.5" font-family="Helvetica,sans-Serif" font-size="10.00" fill="#000000">getSessionNotificationsDelegate</text>
</a>
</g>
</g>
<!-- Node370&#45;&gt;Node372 -->
<g id="edge2" class="edge">
<title>Node370&#45;&gt;Node372</title>
<path fill="none" stroke="#191970" d="M96.3368,-30.7236C104.4375,-29.5876 113.0691,-28.3771 121.8266,-27.149"/>
<polygon fill="#191970" stroke="#191970" points="122.3289,-30.6128 131.7459,-25.7579 121.3567,-23.6807 122.3289,-30.6128"/>
</g>
</g>
</svg>
