<?xml version="1.0" encoding="UTF-8" standalone="no"?>
<!DOCTYPE svg PUBLIC "-//W3C//DTD SVG 1.1//EN"
 "http://www.w3.org/Graphics/SVG/1.1/DTD/svg11.dtd">
<!-- Generated by graphviz version 2.40.1 (20161225.0304)
 -->
<!-- Title: fs::MeetingClientSession::stopBroadcastPromotion Pages: 1 -->
<svg width="301pt" height="121pt"
 viewBox="0.00 0.00 301.11 121.00" xmlns="http://www.w3.org/2000/svg" xmlns:xlink="http://www.w3.org/1999/xlink">
<g id="graph0" class="graph" transform="scale(1 1) rotate(0) translate(4 117)">
<title>fs::MeetingClientSession::stopBroadcastPromotion</title>
<!-- Node950 -->
<g id="node1" class="node">
<title>Node950</title>
<g id="a_node1"><a xlink:title=" ">
<polygon fill="#bfbfbf" stroke="#000000" points="0,-42.5 0,-70.5 131.0586,-70.5 131.0586,-42.5 0,-42.5"/>
<text text-anchor="start" x="8" y="-58.5" font-family="Helvetica,sans-Serif" font-size="10.00" fill="#000000">fs::MeetingClientSession</text>
<text text-anchor="middle" x="65.5293" y="-48.5" font-family="Helvetica,sans-Serif" font-size="10.00" fill="#000000">::stopBroadcastPromotion</text>
</a>
</g>
</g>
<!-- Node951 -->
<g id="node2" class="node">
<title>Node951</title>
<g id="a_node2"><a xlink:href="classfs_1_1_meeting_client_session.html#ad2db541bceb2f60d39d34b3e443801d2" target="_top" xlink:title=" ">
<polygon fill="none" stroke="#000000" points="167.0586,-84.5 167.0586,-112.5 293.1123,-112.5 293.1123,-84.5 167.0586,-84.5"/>
<text text-anchor="start" x="175.0586" y="-100.5" font-family="Helvetica,sans-Serif" font-size="10.00" fill="#000000">fs::MeetingClientSession</text>
<text text-anchor="middle" x="230.0854" y="-90.5" font-family="Helvetica,sans-Serif" font-size="10.00" fill="#000000">::isInitialized</text>
</a>
</g>
</g>
<!-- Node950&#45;&gt;Node951 -->
<g id="edge1" class="edge">
<title>Node950&#45;&gt;Node951</title>
<path fill="none" stroke="#191970" d="M120.7819,-70.6022C134.9682,-74.223 150.3604,-78.1516 164.9935,-81.8865"/>
<polygon fill="#191970" stroke="#191970" points="164.4237,-85.3532 174.9787,-84.435 166.1549,-78.5706 164.4237,-85.3532"/>
</g>
<!-- Node952 -->
<g id="node3" class="node">
<title>Node952</title>
<g id="a_node3"><a xlink:href="_meeting_client_session_8cxx.html#ab06e713e85f5d00e42ad86367c03f278" target="_top" xlink:title=" ">
<polygon fill="none" stroke="#000000" points="200.6816,-47.5 200.6816,-65.5 259.4893,-65.5 259.4893,-47.5 200.6816,-47.5"/>
<text text-anchor="middle" x="230.0854" y="-53.5" font-family="Helvetica,sans-Serif" font-size="10.00" fill="#000000">asio_post</text>
</a>
</g>
</g>
<!-- Node950&#45;&gt;Node952 -->
<g id="edge2" class="edge">
<title>Node950&#45;&gt;Node952</title>
<path fill="none" stroke="#191970" d="M131.5124,-56.5C151.3571,-56.5 172.5192,-56.5 190.1278,-56.5"/>
<polygon fill="#191970" stroke="#191970" points="190.589,-60.0001 200.589,-56.5 190.5889,-53.0001 190.589,-60.0001"/>
</g>
<!-- Node953 -->
<g id="node4" class="node">
<title>Node953</title>
<g id="a_node4"><a xlink:href="classfs_1_1_meeting_client_session.html#a75e9c574fb9a84a95e9629dd91689dc0" target="_top" xlink:title=" ">
<polygon fill="none" stroke="#000000" points="167.0586,-.5 167.0586,-28.5 293.1123,-28.5 293.1123,-.5 167.0586,-.5"/>
<text text-anchor="start" x="175.0586" y="-16.5" font-family="Helvetica,sans-Serif" font-size="10.00" fill="#000000">fs::MeetingClientSession</text>
<text text-anchor="middle" x="230.0854" y="-6.5" font-family="Helvetica,sans-Serif" font-size="10.00" fill="#000000">::ioService</text>
</a>
</g>
</g>
<!-- Node950&#45;&gt;Node953 -->
<g id="edge3" class="edge">
<title>Node950&#45;&gt;Node953</title>
<path fill="none" stroke="#191970" d="M120.7819,-42.3978C134.9682,-38.777 150.3604,-34.8484 164.9935,-31.1135"/>
<polygon fill="#191970" stroke="#191970" points="166.1549,-34.4294 174.9787,-28.565 164.4237,-27.6468 166.1549,-34.4294"/>
</g>
</g>
</svg>
