<?xml version="1.0" encoding="UTF-8" standalone="no"?>
<!DOCTYPE svg PUBLIC "-//W3C//DTD SVG 1.1//EN"
 "http://www.w3.org/Graphics/SVG/1.1/DTD/svg11.dtd">
<!-- Generated by graphviz version 2.40.1 (20161225.0304)
 -->
<!-- Title: fs::RawRTMessagesController Pages: 1 -->
<svg width="366pt" height="194pt"
 viewBox="0.00 0.00 366.42 194.00" xmlns="http://www.w3.org/2000/svg" xmlns:xlink="http://www.w3.org/1999/xlink">
<g id="graph0" class="graph" transform="scale(1 1) rotate(0) translate(4 190)">
<title>fs::RawRTMessagesController</title>
<!-- Node0 -->
<g id="node1" class="node">
<title>Node0</title>
<g id="a_node1"><a xlink:title=" ">
<polygon fill="#bfbfbf" stroke="#000000" points="83.8169,-.5 83.8169,-84.5 243.02,-84.5 243.02,-.5 83.8169,-.5"/>
<text text-anchor="middle" x="163.4185" y="-72.5" font-family="Helvetica,sans-Serif" font-size="10.00" fill="#000000">fs::RawRTMessagesController</text>
<polyline fill="none" stroke="#000000" points="83.8169,-66.5 243.02,-66.5 "/>
<text text-anchor="middle" x="163.4185" y="-54.5" font-family="Helvetica,sans-Serif" font-size="10.00" fill="#000000"> </text>
<polyline fill="none" stroke="#000000" points="83.8169,-48.5 243.02,-48.5 "/>
<text text-anchor="start" x="91.8169" y="-36.5" font-family="Helvetica,sans-Serif" font-size="10.00" fill="#000000">+ RawRTMessagesController()</text>
<text text-anchor="start" x="91.8169" y="-26.5" font-family="Helvetica,sans-Serif" font-size="10.00" fill="#000000">+ ~RawRTMessagesController()</text>
<text text-anchor="start" x="91.8169" y="-16.5" font-family="Helvetica,sans-Serif" font-size="10.00" fill="#000000">+ onRawRTMessageReceived()</text>
<text text-anchor="start" x="91.8169" y="-6.5" font-family="Helvetica,sans-Serif" font-size="10.00" fill="#000000">+ sendRawRTMessage()</text>
</a>
</g>
</g>
<!-- Node1 -->
<g id="node2" class="node">
<title>Node1</title>
<g id="a_node2"><a xlink:href="classfs_1_1_meeting_controller_base.html" target="_top" xlink:title=" ">
<polygon fill="none" stroke="#000000" points="0,-121.5 0,-185.5 138.8369,-185.5 138.8369,-121.5 0,-121.5"/>
<text text-anchor="middle" x="69.4185" y="-173.5" font-family="Helvetica,sans-Serif" font-size="10.00" fill="#000000">fs::MeetingControllerBase</text>
<polyline fill="none" stroke="#000000" points="0,-167.5 138.8369,-167.5 "/>
<text text-anchor="start" x="8" y="-155.5" font-family="Helvetica,sans-Serif" font-size="10.00" fill="#000000"># m_pClient</text>
<polyline fill="none" stroke="#000000" points="0,-149.5 138.8369,-149.5 "/>
<text text-anchor="start" x="8" y="-137.5" font-family="Helvetica,sans-Serif" font-size="10.00" fill="#000000">+ MeetingControllerBase()</text>
<text text-anchor="start" x="8" y="-127.5" font-family="Helvetica,sans-Serif" font-size="10.00" fill="#000000">+ ~MeetingControllerBase()</text>
</a>
</g>
</g>
<!-- Node1&#45;&gt;Node0 -->
<g id="edge1" class="edge">
<title>Node1&#45;&gt;Node0</title>
<path fill="none" stroke="#191970" d="M103.1147,-113.7098C111.0422,-104.3485 119.52,-94.3375 127.5396,-84.8676"/>
<polygon fill="none" stroke="#191970" points="100.3987,-111.501 96.6072,-121.3942 105.7406,-116.0248 100.3987,-111.501"/>
</g>
<!-- Node2 -->
<g id="node3" class="node">
<title>Node2</title>
<g id="a_node3"><a xlink:title=" ">
<polygon fill="none" stroke="#bfbfbf" points="156.4155,-121.5 156.4155,-185.5 358.4214,-185.5 358.4214,-121.5 156.4155,-121.5"/>
<text text-anchor="start" x="164.4155" y="-173.5" font-family="Helvetica,sans-Serif" font-size="10.00" fill="#000000">boost::enable_shared</text>
<text text-anchor="middle" x="257.4185" y="-163.5" font-family="Helvetica,sans-Serif" font-size="10.00" fill="#000000">_from_this&lt; RawRTMessagesController &gt;</text>
<polyline fill="none" stroke="#bfbfbf" points="156.4155,-157.5 358.4214,-157.5 "/>
<text text-anchor="middle" x="257.4185" y="-145.5" font-family="Helvetica,sans-Serif" font-size="10.00" fill="#000000"> </text>
<polyline fill="none" stroke="#bfbfbf" points="156.4155,-139.5 358.4214,-139.5 "/>
<text text-anchor="middle" x="257.4185" y="-127.5" font-family="Helvetica,sans-Serif" font-size="10.00" fill="#000000"> </text>
</a>
</g>
</g>
<!-- Node2&#45;&gt;Node0 -->
<g id="edge2" class="edge">
<title>Node2&#45;&gt;Node0</title>
<path fill="none" stroke="#191970" d="M223.7222,-113.7098C215.7947,-104.3485 207.3169,-94.3375 199.2974,-84.8676"/>
<polygon fill="none" stroke="#191970" points="221.0963,-116.0248 230.2298,-121.3942 226.4382,-111.501 221.0963,-116.0248"/>
</g>
</g>
</svg>
