<?xml version="1.0" encoding="UTF-8" standalone="no"?>
<!DOCTYPE svg PUBLIC "-//W3C//DTD SVG 1.1//EN"
 "http://www.w3.org/Graphics/SVG/1.1/DTD/svg11.dtd">
<!-- Generated by graphviz version 2.40.1 (20161225.0304)
 -->
<!-- Title: fs::BasicHandler Pages: 1 -->
<svg width="140pt" height="204pt"
 viewBox="0.00 0.00 140.40 204.00" xmlns="http://www.w3.org/2000/svg" xmlns:xlink="http://www.w3.org/1999/xlink">
<g id="graph0" class="graph" transform="scale(1 1) rotate(0) translate(4 200)">
<title>fs::BasicHandler</title>
<!-- Node0 -->
<g id="node1" class="node">
<title>Node0</title>
<g id="a_node1"><a xlink:title=" ">
<polygon fill="#bfbfbf" stroke="#000000" points="0,-.5 0,-84.5 132.4014,-84.5 132.4014,-.5 0,-.5"/>
<text text-anchor="middle" x="66.2007" y="-72.5" font-family="Helvetica,sans-Serif" font-size="10.00" fill="#000000">fs::BasicHandler</text>
<polyline fill="none" stroke="#000000" points="0,-66.5 132.4014,-66.5 "/>
<text text-anchor="middle" x="66.2007" y="-54.5" font-family="Helvetica,sans-Serif" font-size="10.00" fill="#000000"> </text>
<polyline fill="none" stroke="#000000" points="0,-48.5 132.4014,-48.5 "/>
<text text-anchor="start" x="8" y="-36.5" font-family="Helvetica,sans-Serif" font-size="10.00" fill="#000000">+ BasicHandler()</text>
<text text-anchor="start" x="8" y="-26.5" font-family="Helvetica,sans-Serif" font-size="10.00" fill="#000000">+ ~BasicHandler()</text>
<text text-anchor="start" x="8" y="-16.5" font-family="Helvetica,sans-Serif" font-size="10.00" fill="#000000">+ OVERRIDE_METHOD()</text>
<text text-anchor="start" x="8" y="-6.5" font-family="Helvetica,sans-Serif" font-size="10.00" fill="#000000">+ OVERRIDE_METHOD()</text>
</a>
</g>
</g>
<!-- Node1 -->
<g id="node2" class="node">
<title>Node1</title>
<g id="a_node2"><a xlink:href="classfs_1_1_notification_handler.html" target="_top" xlink:title=" ">
<polygon fill="none" stroke="#000000" points="4.5581,-121.5 4.5581,-195.5 127.8433,-195.5 127.8433,-121.5 4.5581,-121.5"/>
<text text-anchor="middle" x="66.2007" y="-183.5" font-family="Helvetica,sans-Serif" font-size="10.00" fill="#000000">fs::NotificationHandler</text>
<polyline fill="none" stroke="#000000" points="4.5581,-177.5 127.8433,-177.5 "/>
<text text-anchor="start" x="12.5581" y="-165.5" font-family="Helvetica,sans-Serif" font-size="10.00" fill="#000000"># supportedNotifications</text>
<text text-anchor="start" x="12.5581" y="-155.5" font-family="Helvetica,sans-Serif" font-size="10.00" fill="#000000"># _handlers</text>
<polyline fill="none" stroke="#000000" points="4.5581,-149.5 127.8433,-149.5 "/>
<text text-anchor="start" x="12.5581" y="-137.5" font-family="Helvetica,sans-Serif" font-size="10.00" fill="#000000">+ API_METHOD()</text>
<text text-anchor="start" x="12.5581" y="-127.5" font-family="Helvetica,sans-Serif" font-size="10.00" fill="#000000">+ API_METHOD()</text>
</a>
</g>
</g>
<!-- Node1&#45;&gt;Node0 -->
<g id="edge1" class="edge">
<title>Node1&#45;&gt;Node0</title>
<path fill="none" stroke="#191970" d="M66.2007,-111.3716C66.2007,-102.5842 66.2007,-93.4515 66.2007,-84.8197"/>
<polygon fill="none" stroke="#191970" points="62.7008,-111.4779 66.2007,-121.4779 69.7008,-111.478 62.7008,-111.4779"/>
</g>
</g>
</svg>
