<?xml version="1.0" encoding="UTF-8" standalone="no"?>
<!DOCTYPE svg PUBLIC "-//W3C//DTD SVG 1.1//EN"
 "http://www.w3.org/Graphics/SVG/1.1/DTD/svg11.dtd">
<!-- Generated by graphviz version 2.40.1 (20161225.0304)
 -->
<!-- Title: cx::HTTPRequestContainer::cancelAll Pages: 1 -->
<svg width="321pt" height="84pt"
 viewBox="0.00 0.00 320.54 84.00" xmlns="http://www.w3.org/2000/svg" xmlns:xlink="http://www.w3.org/1999/xlink">
<g id="graph0" class="graph" transform="scale(1 1) rotate(0) translate(4 80)">
<title>cx::HTTPRequestContainer::cancelAll</title>
<!-- Node6 -->
<g id="node1" class="node">
<title>Node6</title>
<g id="a_node1"><a xlink:title=" ">
<polygon fill="#bfbfbf" stroke="#000000" points="174.2705,-23.5 174.2705,-51.5 312.541,-51.5 312.541,-23.5 174.2705,-23.5"/>
<text text-anchor="start" x="182.2705" y="-39.5" font-family="Helvetica,sans-Serif" font-size="10.00" fill="#000000">cx::HTTPRequestContainer</text>
<text text-anchor="middle" x="243.4058" y="-29.5" font-family="Helvetica,sans-Serif" font-size="10.00" fill="#000000">::cancelAll</text>
</a>
</g>
</g>
<!-- Node7 -->
<g id="node2" class="node">
<title>Node7</title>
<g id="a_node2"><a xlink:href="classcx_1_1_h_t_t_p_request_container.html#ae22aec8b3cb82a9d3257a1028de6abcd" target="_top" xlink:title=" ">
<polygon fill="none" stroke="#000000" points="0,-47.5 0,-75.5 138.2705,-75.5 138.2705,-47.5 0,-47.5"/>
<text text-anchor="start" x="8" y="-63.5" font-family="Helvetica,sans-Serif" font-size="10.00" fill="#000000">cx::HTTPRequestContainer</text>
<text text-anchor="middle" x="69.1353" y="-53.5" font-family="Helvetica,sans-Serif" font-size="10.00" fill="#000000">::~HTTPRequestContainer</text>
</a>
</g>
</g>
<!-- Node6&#45;&gt;Node7 -->
<g id="edge1" class="edge">
<title>Node6&#45;&gt;Node7</title>
<path fill="none" stroke="#191970" d="M164.0109,-48.434C155.4204,-49.6171 146.7288,-50.8141 138.2736,-51.9785"/>
<polygon fill="#191970" stroke="#191970" points="164.5997,-51.886 174.0287,-47.0544 163.6447,-44.9515 164.5997,-51.886"/>
</g>
<!-- Node8 -->
<g id="node3" class="node">
<title>Node8</title>
<g id="a_node3"><a xlink:href="classcx_1_1web_1_1_a_p_iv3_wrapper.html#a6a5d9ab672e9efced5306761dfd45247" target="_top" xlink:title=" ">
<polygon fill="none" stroke="#000000" points="8.9819,-.5 8.9819,-28.5 129.2886,-28.5 129.2886,-.5 8.9819,-.5"/>
<text text-anchor="start" x="16.9819" y="-16.5" font-family="Helvetica,sans-Serif" font-size="10.00" fill="#000000">cx::web::APIv3Wrapper</text>
<text text-anchor="middle" x="69.1353" y="-6.5" font-family="Helvetica,sans-Serif" font-size="10.00" fill="#000000">::~APIv3Wrapper</text>
</a>
</g>
</g>
<!-- Node6&#45;&gt;Node8 -->
<g id="edge2" class="edge">
<title>Node6&#45;&gt;Node8</title>
<path fill="none" stroke="#191970" d="M163.9409,-27.0123C152.385,-25.4872 140.6478,-23.9381 129.5508,-22.4736"/>
<polygon fill="#191970" stroke="#191970" points="163.6567,-30.5051 174.0287,-28.3437 164.5727,-23.5653 163.6567,-30.5051"/>
</g>
</g>
</svg>
