<?xml version="1.0" encoding="UTF-8" standalone="no"?>
<!DOCTYPE svg PUBLIC "-//W3C//DTD SVG 1.1//EN"
 "http://www.w3.org/Graphics/SVG/1.1/DTD/svg11.dtd">
<!-- Generated by graphviz version 2.40.1 (20161225.0304)
 -->
<!-- Title: cx::HTTPRequest Pages: 1 -->
<!--zoomable 803 -->
<svg id="main" version="1.1" xmlns="http://www.w3.org/2000/svg" xmlns:xlink="http://www.w3.org/1999/xlink" xml:space="preserve" onload="init(evt)">
<style type="text/css"><![CDATA[
.edge:hover path { stroke: red; }
.edge:hover polygon { stroke: red; fill: red; }
]]></style>
<script type="text/javascript"><![CDATA[
var edges = document.getElementsByTagName('g');
if (edges && edges.length) {
  for (var i=0;i<edges.length;i++) {
    if (edges[i].id.substr(0,4)=='edge') {
      edges[i].setAttribute('class','edge');
    }
  }
}
]]></script>
        <defs>
                <circle id="rim" cx="0" cy="0" r="7"/>
                <circle id="rim2" cx="0" cy="0" r="3.5"/>
                <g id="zoomPlus">
                        <use xlink:href="#rim" fill="#404040">
                                <set attributeName="fill" to="#808080" begin="zoomplus.mouseover" end="zoomplus.mouseout"/>
                        </use>
                        <path d="M-4,0h8M0,-4v8" fill="none" stroke="white" stroke-width="1.5" pointer-events="none"/>
                </g>
                <g id="zoomMin">
                        <use xlink:href="#rim" fill="#404040">
                                <set attributeName="fill" to="#808080" begin="zoomminus.mouseover" end="zoomminus.mouseout"/>
                        </use>
                        <path d="M-4,0h8" fill="none" stroke="white" stroke-width="1.5" pointer-events="none"/>
                </g>
                <g id="dirArrow">
                        <path fill="none" stroke="white" stroke-width="1.5" d="M0,-3.0v7 M-2.5,-0.5L0,-3.0L2.5,-0.5"/>
                </g>
               <g id="resetDef">
                       <use xlink:href="#rim2" fill="#404040">
                               <set attributeName="fill" to="#808080" begin="reset.mouseover" end="reset.mouseout"/>
                       </use>
               </g>
        </defs>

<script type="text/javascript">
var viewWidth = 419;
var viewHeight = 803;
var sectionId = 'dynsection-1';
</script>
<script xlink:href="svgpan.js"/>
<svg id="graph" class="graph">
<g id="viewport">
<title>cx::HTTPRequest</title>
<!-- Node3 -->
<g id="node1" class="node">
<title>Node3</title>
<g id="a_node1"><a xlink:title=" ">
<polygon fill="#bfbfbf" stroke="#000000" points="84.3647,-.5 84.3647,-224.5 234.8813,-224.5 234.8813,-.5 84.3647,-.5"/>
<text text-anchor="middle" x="159.623" y="-212.5" font-family="Helvetica,sans-Serif" font-size="10.00" fill="#000000">cx::HTTPRequest</text>
<polyline fill="none" stroke="#000000" points="84.3647,-206.5 234.8813,-206.5 "/>
<text text-anchor="start" x="92.3647" y="-194.5" font-family="Helvetica,sans-Serif" font-size="10.00" fill="#000000"># response</text>
<text text-anchor="start" x="92.3647" y="-184.5" font-family="Helvetica,sans-Serif" font-size="10.00" fill="#000000"># cancelled</text>
<text text-anchor="start" x="92.3647" y="-174.5" font-family="Helvetica,sans-Serif" font-size="10.00" fill="#000000"># completed</text>
<text text-anchor="start" x="92.3647" y="-164.5" font-family="Helvetica,sans-Serif" font-size="10.00" fill="#000000"># httpFinalStatus</text>
<text text-anchor="start" x="92.3647" y="-154.5" font-family="Helvetica,sans-Serif" font-size="10.00" fill="#000000"># bytesArrived</text>
<polyline fill="none" stroke="#000000" points="84.3647,-148.5 234.8813,-148.5 "/>
<text text-anchor="start" x="92.3647" y="-136.5" font-family="Helvetica,sans-Serif" font-size="10.00" fill="#000000">+ execute()</text>
<text text-anchor="start" x="92.3647" y="-126.5" font-family="Helvetica,sans-Serif" font-size="10.00" fill="#000000">+ cancel()</text>
<text text-anchor="start" x="92.3647" y="-116.5" font-family="Helvetica,sans-Serif" font-size="10.00" fill="#000000">+ deliverError()</text>
<text text-anchor="start" x="92.3647" y="-106.5" font-family="Helvetica,sans-Serif" font-size="10.00" fill="#000000">+ getResponse()</text>
<text text-anchor="start" x="92.3647" y="-96.5" font-family="Helvetica,sans-Serif" font-size="10.00" fill="#000000">+ setProxy()</text>
<text text-anchor="start" x="92.3647" y="-86.5" font-family="Helvetica,sans-Serif" font-size="10.00" fill="#000000"># generateRequestHdr()</text>
<text text-anchor="start" x="92.3647" y="-76.5" font-family="Helvetica,sans-Serif" font-size="10.00" fill="#000000"># onFinalResponseReceived()</text>
<text text-anchor="start" x="92.3647" y="-66.5" font-family="Helvetica,sans-Serif" font-size="10.00" fill="#000000"># deliverError()</text>
<text text-anchor="start" x="92.3647" y="-56.5" font-family="Helvetica,sans-Serif" font-size="10.00" fill="#000000"># HTTPRequest()</text>
<text text-anchor="start" x="92.3647" y="-46.5" font-family="Helvetica,sans-Serif" font-size="10.00" fill="#000000"># ~HTTPRequest()</text>
<text text-anchor="start" x="92.3647" y="-36.5" font-family="Helvetica,sans-Serif" font-size="10.00" fill="#000000"># is_json_response()</text>
<text text-anchor="start" x="92.3647" y="-26.5" font-family="Helvetica,sans-Serif" font-size="10.00" fill="#000000"># is_text_response()</text>
<text text-anchor="start" x="92.3647" y="-16.5" font-family="Helvetica,sans-Serif" font-size="10.00" fill="#000000"># is_empty_content_type()</text>
<text text-anchor="start" x="92.3647" y="-6.5" font-family="Helvetica,sans-Serif" font-size="10.00" fill="#000000"># createAuth()</text>
</a>
</g>
</g>
<!-- Node4 -->
<g id="node2" class="node">
<title>Node4</title>
<g id="a_node2"><a xlink:title=" ">
<polygon fill="none" stroke="#bfbfbf" points="0,-316.5 0,-370.5 73.2461,-370.5 73.2461,-316.5 0,-316.5"/>
<text text-anchor="middle" x="36.623" y="-358.5" font-family="Helvetica,sans-Serif" font-size="10.00" fill="#000000">HTTPLoader</text>
<polyline fill="none" stroke="#bfbfbf" points="0,-352.5 73.2461,-352.5 "/>
<text text-anchor="middle" x="36.623" y="-340.5" font-family="Helvetica,sans-Serif" font-size="10.00" fill="#000000"> </text>
<polyline fill="none" stroke="#bfbfbf" points="0,-334.5 73.2461,-334.5 "/>
<text text-anchor="middle" x="36.623" y="-322.5" font-family="Helvetica,sans-Serif" font-size="10.00" fill="#000000"> </text>
</a>
</g>
</g>
<!-- Node4&#45;&gt;Node3 -->
<g id="edge1" class="edge">
<title>Node4&#45;&gt;Node3</title>
<path fill="none" stroke="#191970" d="M55.9236,-307.2526C67.9097,-284.7421 84.026,-254.475 99.9759,-224.5202"/>
<polygon fill="none" stroke="#191970" points="52.8264,-305.6224 51.2158,-316.0941 59.0051,-308.9124 52.8264,-305.6224"/>
</g>
<!-- Node5 -->
<g id="node3" class="node">
<title>Node5</title>
<g id="a_node3"><a xlink:href="structcx_1_1_h_t_t_p_request_1_1_request_params.html" target="_top" xlink:title=" ">
<polygon fill="none" stroke="#000000" points="90.7661,-271.5 90.7661,-415.5 228.48,-415.5 228.48,-271.5 90.7661,-271.5"/>
<text text-anchor="start" x="98.7661" y="-403.5" font-family="Helvetica,sans-Serif" font-size="10.00" fill="#000000">cx::HTTPRequest::Request</text>
<text text-anchor="middle" x="159.623" y="-393.5" font-family="Helvetica,sans-Serif" font-size="10.00" fill="#000000">Params</text>
<polyline fill="none" stroke="#000000" points="90.7661,-387.5 228.48,-387.5 "/>
<text text-anchor="start" x="98.7661" y="-375.5" font-family="Helvetica,sans-Serif" font-size="10.00" fill="#000000">+ output</text>
<text text-anchor="start" x="98.7661" y="-365.5" font-family="Helvetica,sans-Serif" font-size="10.00" fill="#000000">+ fileName</text>
<text text-anchor="start" x="98.7661" y="-355.5" font-family="Helvetica,sans-Serif" font-size="10.00" fill="#000000">+ method</text>
<text text-anchor="start" x="98.7661" y="-345.5" font-family="Helvetica,sans-Serif" font-size="10.00" fill="#000000">+ proxyPort</text>
<text text-anchor="start" x="98.7661" y="-335.5" font-family="Helvetica,sans-Serif" font-size="10.00" fill="#000000">+ needProgress</text>
<text text-anchor="start" x="98.7661" y="-325.5" font-family="Helvetica,sans-Serif" font-size="10.00" fill="#000000">+ needUploadProgress</text>
<text text-anchor="start" x="98.7661" y="-315.5" font-family="Helvetica,sans-Serif" font-size="10.00" fill="#000000">+ upload</text>
<polyline fill="none" stroke="#000000" points="90.7661,-309.5 228.48,-309.5 "/>
<text text-anchor="start" x="98.7661" y="-297.5" font-family="Helvetica,sans-Serif" font-size="10.00" fill="#000000">+ RequestParams()</text>
<text text-anchor="start" x="98.7661" y="-287.5" font-family="Helvetica,sans-Serif" font-size="10.00" fill="#000000">+ RequestParams()</text>
<text text-anchor="start" x="98.7661" y="-277.5" font-family="Helvetica,sans-Serif" font-size="10.00" fill="#000000">+ start()</text>
</a>
</g>
</g>
<!-- Node5&#45;&gt;Node3 -->
<g id="edge2" class="edge">
<title>Node5&#45;&gt;Node3</title>
<path fill="none" stroke="#404040" d="M159.623,-271.3603C159.623,-260.3563 159.623,-248.7381 159.623,-236.995"/>
<polygon fill="none" stroke="#404040" points="159.6231,-236.7329 155.6231,-230.7329 159.623,-224.7329 163.6231,-230.7329 159.6231,-236.7329"/>
<text text-anchor="middle" x="197.6968" y="-245" font-family="Helvetica,sans-Serif" font-size="10.00" fill="#000000"> #requestParams</text>
</g>
<!-- Node6 -->
<g id="node4" class="node">
<title>Node6</title>
<g id="a_node4"><a xlink:title=" ">
<polygon fill="none" stroke="#bfbfbf" points="208.0752,-495 208.0752,-559 317.1709,-559 317.1709,-495 208.0752,-495"/>
<text text-anchor="start" x="216.0752" y="-547" font-family="Helvetica,sans-Serif" font-size="10.00" fill="#000000">std::map&lt; std::string,</text>
<text text-anchor="middle" x="262.623" y="-537" font-family="Helvetica,sans-Serif" font-size="10.00" fill="#000000"> std::string &gt;</text>
<polyline fill="none" stroke="#bfbfbf" points="208.0752,-531 317.1709,-531 "/>
<text text-anchor="middle" x="262.623" y="-519" font-family="Helvetica,sans-Serif" font-size="10.00" fill="#000000"> </text>
<polyline fill="none" stroke="#bfbfbf" points="208.0752,-513 317.1709,-513 "/>
<text text-anchor="middle" x="262.623" y="-501" font-family="Helvetica,sans-Serif" font-size="10.00" fill="#000000"> </text>
</a>
</g>
</g>
<!-- Node6&#45;&gt;Node5 -->
<g id="edge3" class="edge">
<title>Node6&#45;&gt;Node5</title>
<path fill="none" stroke="#404040" d="M244.4458,-494.6163C233.7806,-475.6156 219.7739,-450.662 206.2237,-426.5216"/>
<polygon fill="none" stroke="#404040" points="206.1242,-426.3442 199.6993,-423.07 200.2505,-415.88 206.6754,-419.1542 206.1242,-426.3442"/>
<text text-anchor="middle" x="240.6118" y="-446" font-family="Helvetica,sans-Serif" font-size="10.00" fill="#000000"> +params</text>
<text text-anchor="middle" x="240.6118" y="-436" font-family="Helvetica,sans-Serif" font-size="10.00" fill="#000000">+headers</text>
</g>
<!-- Node7 -->
<g id="node5" class="node">
<title>Node7</title>
<g id="a_node5"><a xlink:title="STL class.">
<polygon fill="none" stroke="#bfbfbf" points="100.9482,-638.5 100.9482,-692.5 160.2979,-692.5 160.2979,-638.5 100.9482,-638.5"/>
<text text-anchor="middle" x="130.623" y="-680.5" font-family="Helvetica,sans-Serif" font-size="10.00" fill="#000000">std::string</text>
<polyline fill="none" stroke="#bfbfbf" points="100.9482,-674.5 160.2979,-674.5 "/>
<text text-anchor="middle" x="130.623" y="-662.5" font-family="Helvetica,sans-Serif" font-size="10.00" fill="#000000"> </text>
<polyline fill="none" stroke="#bfbfbf" points="100.9482,-656.5 160.2979,-656.5 "/>
<text text-anchor="middle" x="130.623" y="-644.5" font-family="Helvetica,sans-Serif" font-size="10.00" fill="#000000"> </text>
</a>
</g>
</g>
<!-- Node7&#45;&gt;Node5 -->
<g id="edge6" class="edge">
<title>Node7&#45;&gt;Node5</title>
<path fill="none" stroke="#404040" d="M127.4268,-638.4698C125.6583,-622.1451 123.6429,-600.9081 122.7539,-582 120.4579,-533.1651 115.946,-520.4126 122.7539,-472 124.8068,-457.4013 128.1108,-442.136 131.9187,-427.4338"/>
<polygon fill="none" stroke="#404040" points="131.9355,-427.3714 129.6394,-420.5356 135.0663,-415.787 137.3624,-422.6228 131.9355,-427.3714"/>
<text text-anchor="middle" x="161.5576" y="-574" font-family="Helvetica,sans-Serif" font-size="10.00" fill="#000000"> +auth</text>
<text text-anchor="middle" x="161.5576" y="-564" font-family="Helvetica,sans-Serif" font-size="10.00" fill="#000000">+url</text>
<text text-anchor="middle" x="161.5576" y="-554" font-family="Helvetica,sans-Serif" font-size="10.00" fill="#000000">+password</text>
<text text-anchor="middle" x="161.5576" y="-544" font-family="Helvetica,sans-Serif" font-size="10.00" fill="#000000">+strHeaders</text>
<text text-anchor="middle" x="161.5576" y="-534" font-family="Helvetica,sans-Serif" font-size="10.00" fill="#000000">+attachFileName</text>
<text text-anchor="middle" x="161.5576" y="-524" font-family="Helvetica,sans-Serif" font-size="10.00" fill="#000000">+globalProxy</text>
<text text-anchor="middle" x="161.5576" y="-514" font-family="Helvetica,sans-Serif" font-size="10.00" fill="#000000">+body</text>
<text text-anchor="middle" x="161.5576" y="-504" font-family="Helvetica,sans-Serif" font-size="10.00" fill="#000000">+proxyHost</text>
<text text-anchor="middle" x="161.5576" y="-494" font-family="Helvetica,sans-Serif" font-size="10.00" fill="#000000">+strContentType</text>
<text text-anchor="middle" x="161.5576" y="-484" font-family="Helvetica,sans-Serif" font-size="10.00" fill="#000000">+username</text>
<text text-anchor="middle" x="161.5576" y="-474" font-family="Helvetica,sans-Serif" font-size="10.00" fill="#000000">...</text>
</g>
<!-- Node7&#45;&gt;Node6 -->
<g id="edge4" class="edge">
<title>Node7&#45;&gt;Node6</title>
<path fill="none" stroke="#404040" d="M156.3873,-638.467C175.4632,-618.4518 201.7907,-590.8279 223.4637,-568.0876"/>
<polygon fill="none" stroke="#404040" points="223.5417,-568.0058 224.7856,-560.9028 231.8207,-559.3191 230.5767,-566.4222 223.5417,-568.0058"/>
<text text-anchor="middle" x="218.2202" y="-612" font-family="Helvetica,sans-Serif" font-size="10.00" fill="#000000"> +elements</text>
<text text-anchor="middle" x="218.2202" y="-602" font-family="Helvetica,sans-Serif" font-size="10.00" fill="#000000">+keys</text>
</g>
<!-- Node8 -->
<g id="node6" class="node">
<title>Node8</title>
<g id="a_node6"><a xlink:title="STL class.">
<polygon fill="none" stroke="#bfbfbf" points="83.5752,-730.5 83.5752,-794.5 177.6709,-794.5 177.6709,-730.5 83.5752,-730.5"/>
<text text-anchor="start" x="91.5752" y="-782.5" font-family="Helvetica,sans-Serif" font-size="10.00" fill="#000000">std::basic_string&lt;</text>
<text text-anchor="middle" x="130.623" y="-772.5" font-family="Helvetica,sans-Serif" font-size="10.00" fill="#000000"> char &gt;</text>
<polyline fill="none" stroke="#bfbfbf" points="83.5752,-766.5 177.6709,-766.5 "/>
<text text-anchor="middle" x="130.623" y="-754.5" font-family="Helvetica,sans-Serif" font-size="10.00" fill="#000000"> </text>
<polyline fill="none" stroke="#bfbfbf" points="83.5752,-748.5 177.6709,-748.5 "/>
<text text-anchor="middle" x="130.623" y="-736.5" font-family="Helvetica,sans-Serif" font-size="10.00" fill="#000000"> </text>
</a>
</g>
</g>
<!-- Node8&#45;&gt;Node7 -->
<g id="edge5" class="edge">
<title>Node8&#45;&gt;Node7</title>
<path fill="none" stroke="#191970" d="M130.623,-720.4397C130.623,-711.0133 130.623,-701.2564 130.623,-692.6277"/>
<polygon fill="none" stroke="#191970" points="127.1231,-720.4697 130.623,-730.4697 134.1231,-720.4698 127.1231,-720.4697"/>
</g>
<!-- Node9 -->
<g id="node7" class="node">
<title>Node9</title>
<g id="a_node7"><a xlink:href="structcx_1_1_h_t_t_p_request_1_1_h_t_t_p_request_delegate.html" target="_top" xlink:title=" ">
<polygon fill="none" stroke="#000000" points="246.7119,-296.5 246.7119,-390.5 410.5342,-390.5 410.5342,-296.5 246.7119,-296.5"/>
<text text-anchor="start" x="254.7119" y="-378.5" font-family="Helvetica,sans-Serif" font-size="10.00" fill="#000000">cx::HTTPRequest::HTTPRequest</text>
<text text-anchor="middle" x="328.623" y="-368.5" font-family="Helvetica,sans-Serif" font-size="10.00" fill="#000000">Delegate</text>
<polyline fill="none" stroke="#000000" points="246.7119,-362.5 410.5342,-362.5 "/>
<text text-anchor="middle" x="328.623" y="-350.5" font-family="Helvetica,sans-Serif" font-size="10.00" fill="#000000"> </text>
<polyline fill="none" stroke="#000000" points="246.7119,-344.5 410.5342,-344.5 "/>
<text text-anchor="start" x="254.7119" y="-332.5" font-family="Helvetica,sans-Serif" font-size="10.00" fill="#000000">+ ~HTTPRequestDelegate()</text>
<text text-anchor="start" x="254.7119" y="-322.5" font-family="Helvetica,sans-Serif" font-size="10.00" fill="#000000">+ onRequestSuccess()</text>
<text text-anchor="start" x="254.7119" y="-312.5" font-family="Helvetica,sans-Serif" font-size="10.00" fill="#000000">+ onRequestError()</text>
<text text-anchor="start" x="254.7119" y="-302.5" font-family="Helvetica,sans-Serif" font-size="10.00" fill="#000000">+ onRequestProgress()</text>
</a>
</g>
</g>
<!-- Node9&#45;&gt;Node3 -->
<g id="edge7" class="edge">
<title>Node9&#45;&gt;Node3</title>
<path fill="none" stroke="#404040" d="M294.2197,-296.4753C279.1392,-275.8624 260.7271,-250.6955 242.4215,-225.6742"/>
<polygon fill="none" stroke="#404040" points="242.2308,-225.4135 235.4597,-222.9329 235.1453,-215.7286 241.9163,-218.2092 242.2308,-225.4135"/>
<text text-anchor="middle" x="299.4849" y="-245" font-family="Helvetica,sans-Serif" font-size="10.00" fill="#000000"> #requestDelegate</text>
</g>
</g>
</svg>
        <g id="navigator" transform="translate(0 0)" fill="#404254">
                <rect fill="#f2f5e9" fill-opacity="0.5" stroke="#606060" stroke-width=".5" x="0" y="0" width="60" height="60"/>
                <use id="zoomplus" xlink:href="#zoomPlus" x="17" y="9" onmousedown="handleZoom(evt,'in')"/>
                <use id="zoomminus" xlink:href="#zoomMin" x="42" y="9" onmousedown="handleZoom(evt,'out')"/>
                <use id="reset" xlink:href="#resetDef" x="30" y="36" onmousedown="handleReset()"/>
                <g id="arrowUp" xlink:href="#dirArrow" transform="translate(30 24)" onmousedown="handlePan(0,-1)">
                  <use xlink:href="#rim" fill="#404040">
                        <set attributeName="fill" to="#808080" begin="arrowUp.mouseover" end="arrowUp.mouseout"/>
                  </use>
                  <path fill="none" stroke="white" stroke-width="1.5" d="M0,-3.0v7 M-2.5,-0.5L0,-3.0L2.5,-0.5"/>
                </g>
                <g id="arrowRight" xlink:href="#dirArrow" transform="rotate(90) translate(36 -43)" onmousedown="handlePan(1,0)">
                  <use xlink:href="#rim" fill="#404040">
                        <set attributeName="fill" to="#808080" begin="arrowRight.mouseover" end="arrowRight.mouseout"/>
                  </use>
                  <path fill="none" stroke="white" stroke-width="1.5" d="M0,-3.0v7 M-2.5,-0.5L0,-3.0L2.5,-0.5"/>
                </g>
                <g id="arrowDown" xlink:href="#dirArrow" transform="rotate(180) translate(-30 -48)" onmousedown="handlePan(0,1)">
                  <use xlink:href="#rim" fill="#404040">
                        <set attributeName="fill" to="#808080" begin="arrowDown.mouseover" end="arrowDown.mouseout"/>
                  </use>
                  <path fill="none" stroke="white" stroke-width="1.5" d="M0,-3.0v7 M-2.5,-0.5L0,-3.0L2.5,-0.5"/>
                </g>
                <g id="arrowLeft" xlink:href="#dirArrow" transform="rotate(270) translate(-36 17)" onmousedown="handlePan(-1,0)">
                  <use xlink:href="#rim" fill="#404040">
                        <set attributeName="fill" to="#808080" begin="arrowLeft.mouseover" end="arrowLeft.mouseout"/>
                  </use>
                  <path fill="none" stroke="white" stroke-width="1.5" d="M0,-3.0v7 M-2.5,-0.5L0,-3.0L2.5,-0.5"/>
                </g>
        </g>
        <svg viewBox="0 0 15 15" width="100%" height="30px" preserveAspectRatio="xMaxYMin meet">
         <g id="arrow_out" transform="scale(0.3 0.3)">
          <a xlink:href="classcx_1_1_h_t_t_p_request__coll__graph_org.svg" target="_base">
           <rect id="button" ry="5" rx="5" y="6" x="6" height="38" width="38"
                fill="#f2f5e9" fill-opacity="0.5" stroke="#606060" stroke-width="1.0"/>
           <path id="arrow"
             d="M 11.500037,31.436501 C 11.940474,20.09759 22.043105,11.32322 32.158766,21.979434 L 37.068811,17.246167 C 37.068811,17.246167 37.088388,32 37.088388,32 L 22.160133,31.978069 C 22.160133,31.978069 26.997745,27.140456 26.997745,27.140456 C 18.528582,18.264221 13.291696,25.230495 11.500037,31.436501 z"
             style="fill:#404040;"/>
          </a>
         </g>
        </svg>
</svg>
