<?xml version="1.0" encoding="UTF-8" standalone="no"?>
<!DOCTYPE svg PUBLIC "-//W3C//DTD SVG 1.1//EN"
 "http://www.w3.org/Graphics/SVG/1.1/DTD/svg11.dtd">
<!-- Generated by graphviz version 2.40.1 (20161225.0304)
 -->
<!-- Title: fs::FSDirectorMouseEventPkt Pages: 1 -->
<svg width="157pt" height="567pt"
 viewBox="0.00 0.00 157.10 567.00" xmlns="http://www.w3.org/2000/svg" xmlns:xlink="http://www.w3.org/1999/xlink">
<g id="graph0" class="graph" transform="scale(1 1) rotate(0) translate(4 563)">
<title>fs::FSDirectorMouseEventPkt</title>
<!-- Node2 -->
<g id="node1" class="node">
<title>Node2</title>
<g id="a_node1"><a xlink:title=" ">
<polygon fill="#bfbfbf" stroke="#000000" points="0,-.5 0,-174.5 149.0957,-174.5 149.0957,-.5 0,-.5"/>
<text text-anchor="middle" x="74.5479" y="-162.5" font-family="Helvetica,sans-Serif" font-size="10.00" fill="#000000">fs::FSDirectorMouseEventPkt</text>
<polyline fill="none" stroke="#000000" points="0,-156.5 149.0957,-156.5 "/>
<text text-anchor="middle" x="74.5479" y="-144.5" font-family="Helvetica,sans-Serif" font-size="10.00" fill="#000000"> </text>
<polyline fill="none" stroke="#000000" points="0,-138.5 149.0957,-138.5 "/>
<text text-anchor="start" x="8" y="-126.5" font-family="Helvetica,sans-Serif" font-size="10.00" fill="#000000">+ FSDirectorMouseEventPkt()</text>
<text text-anchor="start" x="8" y="-116.5" font-family="Helvetica,sans-Serif" font-size="10.00" fill="#000000">+ type()</text>
<text text-anchor="start" x="8" y="-106.5" font-family="Helvetica,sans-Serif" font-size="10.00" fill="#000000">+ button()</text>
<text text-anchor="start" x="8" y="-96.5" font-family="Helvetica,sans-Serif" font-size="10.00" fill="#000000">+ clicks()</text>
<text text-anchor="start" x="8" y="-86.5" font-family="Helvetica,sans-Serif" font-size="10.00" fill="#000000">+ modifiers()</text>
<text text-anchor="start" x="8" y="-76.5" font-family="Helvetica,sans-Serif" font-size="10.00" fill="#000000">+ x()</text>
<text text-anchor="start" x="8" y="-66.5" font-family="Helvetica,sans-Serif" font-size="10.00" fill="#000000">+ y()</text>
<text text-anchor="start" x="8" y="-56.5" font-family="Helvetica,sans-Serif" font-size="10.00" fill="#000000">+ setType()</text>
<text text-anchor="start" x="8" y="-46.5" font-family="Helvetica,sans-Serif" font-size="10.00" fill="#000000">+ setButton()</text>
<text text-anchor="start" x="8" y="-36.5" font-family="Helvetica,sans-Serif" font-size="10.00" fill="#000000">+ setClicks()</text>
<text text-anchor="start" x="8" y="-26.5" font-family="Helvetica,sans-Serif" font-size="10.00" fill="#000000">+ setModifiers()</text>
<text text-anchor="start" x="8" y="-16.5" font-family="Helvetica,sans-Serif" font-size="10.00" fill="#000000">+ setX()</text>
<text text-anchor="start" x="8" y="-6.5" font-family="Helvetica,sans-Serif" font-size="10.00" fill="#000000">+ setY()</text>
</a>
</g>
</g>
<!-- Node3 -->
<g id="node2" class="node">
<title>Node3</title>
<g id="a_node2"><a xlink:href="classfs_1_1_f_s_packet.html" target="_top" xlink:title=" ">
<polygon fill="none" stroke="#000000" points="34.314,-212.5 34.314,-326.5 114.7817,-326.5 114.7817,-212.5 34.314,-212.5"/>
<text text-anchor="middle" x="74.5479" y="-314.5" font-family="Helvetica,sans-Serif" font-size="10.00" fill="#000000">fs::FSPacket</text>
<polyline fill="none" stroke="#000000" points="34.314,-308.5 114.7817,-308.5 "/>
<text text-anchor="start" x="42.314" y="-296.5" font-family="Helvetica,sans-Serif" font-size="10.00" fill="#000000"># m_iType</text>
<polyline fill="none" stroke="#000000" points="34.314,-290.5 114.7817,-290.5 "/>
<text text-anchor="start" x="42.314" y="-278.5" font-family="Helvetica,sans-Serif" font-size="10.00" fill="#000000">+ FSPacket()</text>
<text text-anchor="start" x="42.314" y="-268.5" font-family="Helvetica,sans-Serif" font-size="10.00" fill="#000000">+ ~FSPacket()</text>
<text text-anchor="start" x="42.314" y="-258.5" font-family="Helvetica,sans-Serif" font-size="10.00" fill="#000000">+ type()</text>
<text text-anchor="start" x="42.314" y="-248.5" font-family="Helvetica,sans-Serif" font-size="10.00" fill="#000000">+ serialize()</text>
<text text-anchor="start" x="42.314" y="-238.5" font-family="Helvetica,sans-Serif" font-size="10.00" fill="#000000">+ entry()</text>
<text text-anchor="start" x="42.314" y="-228.5" font-family="Helvetica,sans-Serif" font-size="10.00" fill="#000000">+ setEntry()</text>
<text text-anchor="start" x="42.314" y="-218.5" font-family="Helvetica,sans-Serif" font-size="10.00" fill="#000000">+ deserialize()</text>
</a>
</g>
</g>
<!-- Node3&#45;&gt;Node2 -->
<g id="edge1" class="edge">
<title>Node3&#45;&gt;Node2</title>
<path fill="none" stroke="#191970" d="M74.5479,-202.3944C74.5479,-193.3751 74.5479,-184.0189 74.5479,-174.7154"/>
<polygon fill="none" stroke="#191970" points="71.048,-202.4134 74.5479,-212.4134 78.048,-202.4135 71.048,-202.4134"/>
</g>
<!-- Node4 -->
<g id="node3" class="node">
<title>Node4</title>
<g id="a_node3"><a xlink:title=" ">
<polygon fill="none" stroke="#bfbfbf" points="1.8018,-373.5 1.8018,-427.5 147.2939,-427.5 147.2939,-373.5 1.8018,-373.5"/>
<text text-anchor="middle" x="74.5479" y="-415.5" font-family="Helvetica,sans-Serif" font-size="10.00" fill="#000000">std::vector&lt; FSPktStream * &gt;</text>
<polyline fill="none" stroke="#bfbfbf" points="1.8018,-409.5 147.2939,-409.5 "/>
<text text-anchor="middle" x="74.5479" y="-397.5" font-family="Helvetica,sans-Serif" font-size="10.00" fill="#000000"> </text>
<polyline fill="none" stroke="#bfbfbf" points="1.8018,-391.5 147.2939,-391.5 "/>
<text text-anchor="middle" x="74.5479" y="-379.5" font-family="Helvetica,sans-Serif" font-size="10.00" fill="#000000"> </text>
</a>
</g>
</g>
<!-- Node4&#45;&gt;Node3 -->
<g id="edge2" class="edge">
<title>Node4&#45;&gt;Node3</title>
<path fill="none" stroke="#404040" d="M74.5479,-373.3567C74.5479,-363.1832 74.5479,-351.1036 74.5479,-338.8438"/>
<polygon fill="none" stroke="#404040" points="74.5479,-338.5878 70.5479,-332.5879 74.5479,-326.5878 78.5479,-332.5878 74.5479,-338.5878"/>
<text text-anchor="middle" x="103.7251" y="-347" font-family="Helvetica,sans-Serif" font-size="10.00" fill="#000000"> #m_xEntries</text>
</g>
<!-- Node5 -->
<g id="node4" class="node">
<title>Node5</title>
<g id="a_node4"><a xlink:href="classfs_1_1_f_s_pkt_stream.html" target="_top" xlink:title=" ">
<polygon fill="none" stroke="#000000" points="26.2598,-474.5 26.2598,-558.5 122.8359,-558.5 122.8359,-474.5 26.2598,-474.5"/>
<text text-anchor="middle" x="74.5479" y="-546.5" font-family="Helvetica,sans-Serif" font-size="10.00" fill="#000000">fs::FSPktStream</text>
<polyline fill="none" stroke="#000000" points="26.2598,-540.5 122.8359,-540.5 "/>
<text text-anchor="start" x="34.2598" y="-528.5" font-family="Helvetica,sans-Serif" font-size="10.00" fill="#000000"># m_pxObj</text>
<polyline fill="none" stroke="#000000" points="26.2598,-522.5 122.8359,-522.5 "/>
<text text-anchor="start" x="34.2598" y="-510.5" font-family="Helvetica,sans-Serif" font-size="10.00" fill="#000000">+ ~FSPktStream()</text>
<text text-anchor="start" x="34.2598" y="-500.5" font-family="Helvetica,sans-Serif" font-size="10.00" fill="#000000">+ read()</text>
<text text-anchor="start" x="34.2598" y="-490.5" font-family="Helvetica,sans-Serif" font-size="10.00" fill="#000000">+ write()</text>
<text text-anchor="start" x="34.2598" y="-480.5" font-family="Helvetica,sans-Serif" font-size="10.00" fill="#000000">+ object()</text>
</a>
</g>
</g>
<!-- Node5&#45;&gt;Node4 -->
<g id="edge3" class="edge">
<title>Node5&#45;&gt;Node4</title>
<path fill="none" stroke="#404040" d="M74.5479,-474.2932C74.5479,-462.9972 74.5479,-450.8361 74.5479,-439.7094"/>
<polygon fill="none" stroke="#404040" points="74.548,-439.6877 70.5479,-433.6877 74.5479,-427.6877 78.5479,-433.6877 74.548,-439.6877"/>
<text text-anchor="middle" x="99.145" y="-448" font-family="Helvetica,sans-Serif" font-size="10.00" fill="#000000"> +elements</text>
</g>
</g>
</svg>
