<?xml version="1.0" encoding="UTF-8" standalone="no"?>
<!DOCTYPE svg PUBLIC "-//W3C//DTD SVG 1.1//EN"
 "http://www.w3.org/Graphics/SVG/1.1/DTD/svg11.dtd">
<!-- Generated by graphviz version 2.40.1 (20161225.0304)
 -->
<!-- Title: fs::FSPresenterReleaseControlPkt Pages: 1 -->
<svg width="179pt" height="447pt"
 viewBox="0.00 0.00 178.79 447.00" xmlns="http://www.w3.org/2000/svg" xmlns:xlink="http://www.w3.org/1999/xlink">
<g id="graph0" class="graph" transform="scale(1 1) rotate(0) translate(4 443)">
<title>fs::FSPresenterReleaseControlPkt</title>
<!-- Node2 -->
<g id="node1" class="node">
<title>Node2</title>
<g id="a_node1"><a xlink:title=" ">
<polygon fill="#bfbfbf" stroke="#000000" points="0,-.5 0,-54.5 170.7852,-54.5 170.7852,-.5 0,-.5"/>
<text text-anchor="middle" x="85.3926" y="-42.5" font-family="Helvetica,sans-Serif" font-size="10.00" fill="#000000">fs::FSPresenterReleaseControlPkt</text>
<polyline fill="none" stroke="#000000" points="0,-36.5 170.7852,-36.5 "/>
<text text-anchor="middle" x="85.3926" y="-24.5" font-family="Helvetica,sans-Serif" font-size="10.00" fill="#000000"> </text>
<polyline fill="none" stroke="#000000" points="0,-18.5 170.7852,-18.5 "/>
<text text-anchor="start" x="8" y="-6.5" font-family="Helvetica,sans-Serif" font-size="10.00" fill="#000000">+ FSPresenterReleaseControlPkt()</text>
</a>
</g>
</g>
<!-- Node3 -->
<g id="node2" class="node">
<title>Node3</title>
<g id="a_node2"><a xlink:href="classfs_1_1_f_s_packet.html" target="_top" xlink:title=" ">
<polygon fill="none" stroke="#000000" points="45.1587,-92.5 45.1587,-206.5 125.6265,-206.5 125.6265,-92.5 45.1587,-92.5"/>
<text text-anchor="middle" x="85.3926" y="-194.5" font-family="Helvetica,sans-Serif" font-size="10.00" fill="#000000">fs::FSPacket</text>
<polyline fill="none" stroke="#000000" points="45.1587,-188.5 125.6265,-188.5 "/>
<text text-anchor="start" x="53.1587" y="-176.5" font-family="Helvetica,sans-Serif" font-size="10.00" fill="#000000"># m_iType</text>
<polyline fill="none" stroke="#000000" points="45.1587,-170.5 125.6265,-170.5 "/>
<text text-anchor="start" x="53.1587" y="-158.5" font-family="Helvetica,sans-Serif" font-size="10.00" fill="#000000">+ FSPacket()</text>
<text text-anchor="start" x="53.1587" y="-148.5" font-family="Helvetica,sans-Serif" font-size="10.00" fill="#000000">+ ~FSPacket()</text>
<text text-anchor="start" x="53.1587" y="-138.5" font-family="Helvetica,sans-Serif" font-size="10.00" fill="#000000">+ type()</text>
<text text-anchor="start" x="53.1587" y="-128.5" font-family="Helvetica,sans-Serif" font-size="10.00" fill="#000000">+ serialize()</text>
<text text-anchor="start" x="53.1587" y="-118.5" font-family="Helvetica,sans-Serif" font-size="10.00" fill="#000000">+ entry()</text>
<text text-anchor="start" x="53.1587" y="-108.5" font-family="Helvetica,sans-Serif" font-size="10.00" fill="#000000">+ setEntry()</text>
<text text-anchor="start" x="53.1587" y="-98.5" font-family="Helvetica,sans-Serif" font-size="10.00" fill="#000000">+ deserialize()</text>
</a>
</g>
</g>
<!-- Node3&#45;&gt;Node2 -->
<g id="edge1" class="edge">
<title>Node3&#45;&gt;Node2</title>
<path fill="none" stroke="#191970" d="M85.3926,-82.254C85.3926,-72.5239 85.3926,-63.0081 85.3926,-54.7107"/>
<polygon fill="none" stroke="#191970" points="81.8927,-82.4292 85.3926,-92.4292 88.8927,-82.4293 81.8927,-82.4292"/>
</g>
<!-- Node4 -->
<g id="node3" class="node">
<title>Node4</title>
<g id="a_node3"><a xlink:title=" ">
<polygon fill="none" stroke="#bfbfbf" points="12.6465,-253.5 12.6465,-307.5 158.1387,-307.5 158.1387,-253.5 12.6465,-253.5"/>
<text text-anchor="middle" x="85.3926" y="-295.5" font-family="Helvetica,sans-Serif" font-size="10.00" fill="#000000">std::vector&lt; FSPktStream * &gt;</text>
<polyline fill="none" stroke="#bfbfbf" points="12.6465,-289.5 158.1387,-289.5 "/>
<text text-anchor="middle" x="85.3926" y="-277.5" font-family="Helvetica,sans-Serif" font-size="10.00" fill="#000000"> </text>
<polyline fill="none" stroke="#bfbfbf" points="12.6465,-271.5 158.1387,-271.5 "/>
<text text-anchor="middle" x="85.3926" y="-259.5" font-family="Helvetica,sans-Serif" font-size="10.00" fill="#000000"> </text>
</a>
</g>
</g>
<!-- Node4&#45;&gt;Node3 -->
<g id="edge2" class="edge">
<title>Node4&#45;&gt;Node3</title>
<path fill="none" stroke="#404040" d="M85.3926,-253.3567C85.3926,-243.1832 85.3926,-231.1036 85.3926,-218.8438"/>
<polygon fill="none" stroke="#404040" points="85.3927,-218.5878 81.3926,-212.5879 85.3926,-206.5878 89.3926,-212.5878 85.3927,-218.5878"/>
<text text-anchor="middle" x="114.5698" y="-227" font-family="Helvetica,sans-Serif" font-size="10.00" fill="#000000"> #m_xEntries</text>
</g>
<!-- Node5 -->
<g id="node4" class="node">
<title>Node5</title>
<g id="a_node4"><a xlink:href="classfs_1_1_f_s_pkt_stream.html" target="_top" xlink:title=" ">
<polygon fill="none" stroke="#000000" points="37.1045,-354.5 37.1045,-438.5 133.6807,-438.5 133.6807,-354.5 37.1045,-354.5"/>
<text text-anchor="middle" x="85.3926" y="-426.5" font-family="Helvetica,sans-Serif" font-size="10.00" fill="#000000">fs::FSPktStream</text>
<polyline fill="none" stroke="#000000" points="37.1045,-420.5 133.6807,-420.5 "/>
<text text-anchor="start" x="45.1045" y="-408.5" font-family="Helvetica,sans-Serif" font-size="10.00" fill="#000000"># m_pxObj</text>
<polyline fill="none" stroke="#000000" points="37.1045,-402.5 133.6807,-402.5 "/>
<text text-anchor="start" x="45.1045" y="-390.5" font-family="Helvetica,sans-Serif" font-size="10.00" fill="#000000">+ ~FSPktStream()</text>
<text text-anchor="start" x="45.1045" y="-380.5" font-family="Helvetica,sans-Serif" font-size="10.00" fill="#000000">+ read()</text>
<text text-anchor="start" x="45.1045" y="-370.5" font-family="Helvetica,sans-Serif" font-size="10.00" fill="#000000">+ write()</text>
<text text-anchor="start" x="45.1045" y="-360.5" font-family="Helvetica,sans-Serif" font-size="10.00" fill="#000000">+ object()</text>
</a>
</g>
</g>
<!-- Node5&#45;&gt;Node4 -->
<g id="edge3" class="edge">
<title>Node5&#45;&gt;Node4</title>
<path fill="none" stroke="#404040" d="M85.3926,-354.2932C85.3926,-342.9972 85.3926,-330.8361 85.3926,-319.7094"/>
<polygon fill="none" stroke="#404040" points="85.3927,-319.6877 81.3926,-313.6877 85.3926,-307.6877 89.3926,-313.6877 85.3927,-319.6877"/>
<text text-anchor="middle" x="109.9897" y="-328" font-family="Helvetica,sans-Serif" font-size="10.00" fill="#000000"> +elements</text>
</g>
</g>
</svg>
