<?xml version="1.0" encoding="UTF-8" standalone="no"?>
<!DOCTYPE svg PUBLIC "-//W3C//DTD SVG 1.1//EN"
 "http://www.w3.org/Graphics/SVG/1.1/DTD/svg11.dtd">
<!-- Generated by graphviz version 2.40.1 (20161225.0304)
 -->
<!-- Title: cx::web::APIv4Wrapper::getUser Pages: 1 -->
<svg width="476pt" height="37pt"
 viewBox="0.00 0.00 476.29 37.00" xmlns="http://www.w3.org/2000/svg" xmlns:xlink="http://www.w3.org/1999/xlink">
<g id="graph0" class="graph" transform="scale(1 1) rotate(0) translate(4 33)">
<title>cx::web::APIv4Wrapper::getUser</title>
<!-- Node71 -->
<g id="node1" class="node">
<title>Node71</title>
<g id="a_node1"><a xlink:title=" ">
<polygon fill="#bfbfbf" stroke="#000000" points="0,-.5 0,-28.5 120.3066,-28.5 120.3066,-.5 0,-.5"/>
<text text-anchor="start" x="8" y="-16.5" font-family="Helvetica,sans-Serif" font-size="10.00" fill="#000000">cx::web::APIv4Wrapper</text>
<text text-anchor="middle" x="60.1533" y="-6.5" font-family="Helvetica,sans-Serif" font-size="10.00" fill="#000000">::getUser</text>
</a>
</g>
</g>
<!-- Node72 -->
<g id="node2" class="node">
<title>Node72</title>
<g id="a_node2"><a xlink:href="classcx_1_1_h_t_t_p_request_container.html#a88443e3419255d1d2bb8503829c4bcaa" target="_top" xlink:title=" ">
<polygon fill="none" stroke="#000000" points="156.3066,-.5 156.3066,-28.5 294.5771,-28.5 294.5771,-.5 156.3066,-.5"/>
<text text-anchor="start" x="164.3066" y="-16.5" font-family="Helvetica,sans-Serif" font-size="10.00" fill="#000000">cx::HTTPRequestContainer</text>
<text text-anchor="middle" x="225.4419" y="-6.5" font-family="Helvetica,sans-Serif" font-size="10.00" fill="#000000">::request</text>
</a>
</g>
</g>
<!-- Node71&#45;&gt;Node72 -->
<g id="edge1" class="edge">
<title>Node71&#45;&gt;Node72</title>
<path fill="none" stroke="#191970" d="M120.7621,-14.5C128.9499,-14.5 137.449,-14.5 145.9047,-14.5"/>
<polygon fill="#191970" stroke="#191970" points="146.1734,-18.0001 156.1734,-14.5 146.1734,-11.0001 146.1734,-18.0001"/>
</g>
<!-- Node73 -->
<g id="node3" class="node">
<title>Node73</title>
<g id="a_node3"><a xlink:href="structcx_1_1_h_t_t_p_request_1_1_request_params.html#aad683476ac9a2874f8a98a530d2b791b" target="_top" xlink:title=" ">
<polygon fill="none" stroke="#000000" points="330.5771,-.5 330.5771,-28.5 468.291,-28.5 468.291,-.5 330.5771,-.5"/>
<text text-anchor="start" x="338.5771" y="-16.5" font-family="Helvetica,sans-Serif" font-size="10.00" fill="#000000">cx::HTTPRequest::Request</text>
<text text-anchor="middle" x="399.4341" y="-6.5" font-family="Helvetica,sans-Serif" font-size="10.00" fill="#000000">Params::start</text>
</a>
</g>
</g>
<!-- Node72&#45;&gt;Node73 -->
<g id="edge2" class="edge">
<title>Node72&#45;&gt;Node73</title>
<path fill="none" stroke="#191970" d="M294.7082,-14.5C303.0625,-14.5 311.6446,-14.5 320.1284,-14.5"/>
<polygon fill="#191970" stroke="#191970" points="320.4062,-18.0001 330.4061,-14.5 320.4061,-11.0001 320.4062,-18.0001"/>
</g>
</g>
</svg>
