<?xml version="1.0" encoding="UTF-8" standalone="no"?>
<!DOCTYPE svg PUBLIC "-//W3C//DTD SVG 1.1//EN"
 "http://www.w3.org/Graphics/SVG/1.1/DTD/svg11.dtd">
<!-- Generated by graphviz version 2.40.1 (20161225.0304)
 -->
<!-- Title: fs::MeetingClient::getVoIPNotificationsDelegate Pages: 1 -->
<svg width="307pt" height="131pt"
 viewBox="0.00 0.00 307.42 131.00" xmlns="http://www.w3.org/2000/svg" xmlns:xlink="http://www.w3.org/1999/xlink">
<g id="graph0" class="graph" transform="scale(1 1) rotate(0) translate(4 127)">
<title>fs::MeetingClient::getVoIPNotificationsDelegate</title>
<!-- Node145 -->
<g id="node1" class="node">
<title>Node145</title>
<g id="a_node1"><a xlink:title=" ">
<polygon fill="#bfbfbf" stroke="#000000" points="153.8896,-47.5 153.8896,-75.5 299.4209,-75.5 299.4209,-47.5 153.8896,-47.5"/>
<text text-anchor="start" x="161.8896" y="-63.5" font-family="Helvetica,sans-Serif" font-size="10.00" fill="#000000">fs::MeetingClient::</text>
<text text-anchor="middle" x="226.6553" y="-53.5" font-family="Helvetica,sans-Serif" font-size="10.00" fill="#000000">getVoIPNotificationsDelegate</text>
</a>
</g>
</g>
<!-- Node146 -->
<g id="node2" class="node">
<title>Node146</title>
<g id="a_node2"><a xlink:href="classfs_1_1_meeting_client.html#a33ecd0d148c35d129bdc74524b740f3b" target="_top" xlink:title=" ">
<polygon fill="none" stroke="#000000" points="1.6602,-94.5 1.6602,-122.5 116.2295,-122.5 116.2295,-94.5 1.6602,-94.5"/>
<text text-anchor="start" x="9.6602" y="-110.5" font-family="Helvetica,sans-Serif" font-size="10.00" fill="#000000">fs::MeetingClient::</text>
<text text-anchor="middle" x="58.9448" y="-100.5" font-family="Helvetica,sans-Serif" font-size="10.00" fill="#000000">onTransportCallMuted</text>
</a>
</g>
</g>
<!-- Node145&#45;&gt;Node146 -->
<g id="edge1" class="edge">
<title>Node145&#45;&gt;Node146</title>
<path fill="none" stroke="#191970" d="M166.635,-78.3204C147.732,-83.6179 127.0666,-89.4092 108.9388,-94.4894"/>
<polygon fill="#191970" stroke="#191970" points="167.6521,-81.6703 176.3366,-75.6015 165.7631,-74.9299 167.6521,-81.6703"/>
</g>
<!-- Node147 -->
<g id="node3" class="node">
<title>Node147</title>
<g id="a_node3"><a xlink:href="classfs_1_1_meeting_client.html#a45f24c707a26fd679d3758161537e964" target="_top" xlink:title=" ">
<polygon fill="none" stroke="#000000" points="5.2734,-47.5 5.2734,-75.5 112.6162,-75.5 112.6162,-47.5 5.2734,-47.5"/>
<text text-anchor="start" x="13.2734" y="-63.5" font-family="Helvetica,sans-Serif" font-size="10.00" fill="#000000">fs::MeetingClient::</text>
<text text-anchor="middle" x="58.9448" y="-53.5" font-family="Helvetica,sans-Serif" font-size="10.00" fill="#000000">onTransportCallHeld</text>
</a>
</g>
</g>
<!-- Node145&#45;&gt;Node147 -->
<g id="edge2" class="edge">
<title>Node145&#45;&gt;Node147</title>
<path fill="none" stroke="#191970" d="M143.2717,-61.5C132.9341,-61.5 122.5869,-61.5 112.8586,-61.5"/>
<polygon fill="#191970" stroke="#191970" points="143.5829,-65.0001 153.5829,-61.5 143.5829,-58.0001 143.5829,-65.0001"/>
</g>
<!-- Node148 -->
<g id="node4" class="node">
<title>Node148</title>
<g id="a_node4"><a xlink:href="classfs_1_1_meeting_client.html#a8910f6e314a783a9a3382a4a153897e4" target="_top" xlink:title=" ">
<polygon fill="none" stroke="#000000" points="0,-.5 0,-28.5 117.8896,-28.5 117.8896,-.5 0,-.5"/>
<text text-anchor="start" x="8" y="-16.5" font-family="Helvetica,sans-Serif" font-size="10.00" fill="#000000">fs::MeetingClient::</text>
<text text-anchor="middle" x="58.9448" y="-6.5" font-family="Helvetica,sans-Serif" font-size="10.00" fill="#000000">onTransportDTMFSent</text>
</a>
</g>
</g>
<!-- Node145&#45;&gt;Node148 -->
<g id="edge3" class="edge">
<title>Node145&#45;&gt;Node148</title>
<path fill="none" stroke="#191970" d="M166.635,-44.6796C147.732,-39.3821 127.0666,-33.5908 108.9388,-28.5106"/>
<polygon fill="#191970" stroke="#191970" points="165.7631,-48.0701 176.3366,-47.3985 167.6521,-41.3297 165.7631,-48.0701"/>
</g>
</g>
</svg>
