<?xml version="1.0" encoding="UTF-8" standalone="no"?>
<!DOCTYPE svg PUBLIC "-//W3C//DTD SVG 1.1//EN"
 "http://www.w3.org/Graphics/SVG/1.1/DTD/svg11.dtd">
<!-- Generated by graphviz version 2.40.1 (20161225.0304)
 -->
<!-- Title: cx::details::SubscriptionQueryHelper::getPublicSubscription Pages: 1 -->
<svg width="811pt" height="217pt"
 viewBox="0.00 0.00 811.17 217.00" xmlns="http://www.w3.org/2000/svg" xmlns:xlink="http://www.w3.org/1999/xlink">
<g id="graph0" class="graph" transform="scale(1 1) rotate(0) translate(4 213)">
<title>cx::details::SubscriptionQueryHelper::getPublicSubscription</title>
<!-- Node36 -->
<g id="node1" class="node">
<title>Node36</title>
<g id="a_node1"><a xlink:title=" ">
<polygon fill="#bfbfbf" stroke="#000000" points="0,-90.5 0,-118.5 174.4131,-118.5 174.4131,-90.5 0,-90.5"/>
<text text-anchor="start" x="8" y="-106.5" font-family="Helvetica,sans-Serif" font-size="10.00" fill="#000000">cx::details::Subscription</text>
<text text-anchor="middle" x="87.2065" y="-96.5" font-family="Helvetica,sans-Serif" font-size="10.00" fill="#000000">QueryHelper::getPublicSubscription</text>
</a>
</g>
</g>
<!-- Node37 -->
<g id="node2" class="node">
<title>Node37</title>
<g id="a_node2"><a xlink:href="structcx_1_1web_1_1string__entity.html#a8f45125c509cee364d542be5ac1728d9" target="_top" xlink:title=" ">
<polygon fill="none" stroke="#000000" points="234.041,-180.5 234.041,-208.5 343.415,-208.5 343.415,-180.5 234.041,-180.5"/>
<text text-anchor="start" x="242.041" y="-196.5" font-family="Helvetica,sans-Serif" font-size="10.00" fill="#000000">cx::web::string_entity</text>
<text text-anchor="middle" x="288.728" y="-186.5" font-family="Helvetica,sans-Serif" font-size="10.00" fill="#000000">::copy_from</text>
</a>
</g>
</g>
<!-- Node36&#45;&gt;Node37 -->
<g id="edge1" class="edge">
<title>Node36&#45;&gt;Node37</title>
<path fill="none" stroke="#191970" d="M109.6505,-118.6012C133.8141,-133.3249 173.7339,-156.3429 210.4131,-171.5 215.2015,-173.4787 220.2196,-175.3614 225.3041,-177.1351"/>
<polygon fill="#191970" stroke="#191970" points="224.5272,-180.5654 235.1208,-180.4083 226.7414,-173.9248 224.5272,-180.5654"/>
</g>
<!-- Node38 -->
<g id="node3" class="node">
<title>Node38</title>
<g id="a_node3"><a xlink:href="classcx_1_1web_1_1_subscription_entity.html#a5a5594f78e58387470a8453c62dab7f4" target="_top" xlink:title=" ">
<polygon fill="none" stroke="#000000" points="220.9795,-133.5 220.9795,-161.5 356.4766,-161.5 356.4766,-133.5 220.9795,-133.5"/>
<text text-anchor="start" x="228.9795" y="-149.5" font-family="Helvetica,sans-Serif" font-size="10.00" fill="#000000">cx::web::SubscriptionEntity</text>
<text text-anchor="middle" x="288.728" y="-139.5" font-family="Helvetica,sans-Serif" font-size="10.00" fill="#000000">::valid</text>
</a>
</g>
</g>
<!-- Node36&#45;&gt;Node38 -->
<g id="edge2" class="edge">
<title>Node36&#45;&gt;Node38</title>
<path fill="none" stroke="#191970" d="M152.9134,-118.5203C172.172,-122.6297 193.3824,-127.1555 213.2008,-131.3843"/>
<polygon fill="#191970" stroke="#191970" points="212.6002,-134.8348 223.1105,-133.4987 214.061,-127.9889 212.6002,-134.8348"/>
</g>
<!-- Node41 -->
<g id="node6" class="node">
<title>Node41</title>
<g id="a_node6"><a xlink:href="structcx_1_1web_1_1json__entity.html#a1fbed015492bb7a0c4ec31550fc3de1d" target="_top" xlink:title=" ">
<polygon fill="none" stroke="#000000" points="551.4712,-107.5 551.4712,-135.5 654.7368,-135.5 654.7368,-107.5 551.4712,-107.5"/>
<text text-anchor="start" x="559.4712" y="-123.5" font-family="Helvetica,sans-Serif" font-size="10.00" fill="#000000">cx::web::json_entity</text>
<text text-anchor="middle" x="603.104" y="-113.5" font-family="Helvetica,sans-Serif" font-size="10.00" fill="#000000">::get_json</text>
</a>
</g>
</g>
<!-- Node36&#45;&gt;Node41 -->
<g id="edge11" class="edge">
<title>Node36&#45;&gt;Node41</title>
<path fill="none" stroke="#191970" d="M174.4297,-107.3742C278.4528,-110.802 449.7086,-116.4453 541.0996,-119.4568"/>
<polygon fill="#191970" stroke="#191970" points="541.1919,-122.9617 551.3018,-119.793 541.4225,-115.9655 541.1919,-122.9617"/>
</g>
<!-- Node43 -->
<g id="node8" class="node">
<title>Node43</title>
<g id="a_node8"><a xlink:href="structcx_1_1web_1_1data__entity.html#a6ee3f7541c9752790cf992a277d34cb7" target="_top" xlink:title=" ">
<polygon fill="none" stroke="#000000" points="236.5361,-47.5 236.5361,-75.5 340.9199,-75.5 340.9199,-47.5 236.5361,-47.5"/>
<text text-anchor="start" x="244.5361" y="-63.5" font-family="Helvetica,sans-Serif" font-size="10.00" fill="#000000">cx::web::data_entity</text>
<text text-anchor="middle" x="288.728" y="-53.5" font-family="Helvetica,sans-Serif" font-size="10.00" fill="#000000">::update</text>
</a>
</g>
</g>
<!-- Node36&#45;&gt;Node43 -->
<g id="edge8" class="edge">
<title>Node36&#45;&gt;Node43</title>
<path fill="none" stroke="#191970" d="M152.9134,-90.4797C176.6318,-85.4187 203.3106,-79.7261 226.7035,-74.7346"/>
<polygon fill="#191970" stroke="#191970" points="227.4603,-78.152 236.5097,-72.6422 225.9995,-71.3061 227.4603,-78.152"/>
</g>
<!-- Node45 -->
<g id="node10" class="node">
<title>Node45</title>
<g id="a_node10"><a xlink:href="classcx_1_1details_1_1_subscription_query_helper.html#af66f97d275d98a91a159b9687a88d518" target="_top" xlink:title=" ">
<polygon fill="none" stroke="#000000" points="210.4131,-.5 210.4131,-28.5 367.043,-28.5 367.043,-.5 210.4131,-.5"/>
<text text-anchor="start" x="218.4131" y="-16.5" font-family="Helvetica,sans-Serif" font-size="10.00" fill="#000000">cx::details::Subscription</text>
<text text-anchor="middle" x="288.728" y="-6.5" font-family="Helvetica,sans-Serif" font-size="10.00" fill="#000000">QueryHelper::getPhoneNumber</text>
</a>
</g>
</g>
<!-- Node36&#45;&gt;Node45 -->
<g id="edge12" class="edge">
<title>Node36&#45;&gt;Node45</title>
<path fill="none" stroke="#191970" d="M109.6505,-90.3988C133.8141,-75.6751 173.7339,-52.6571 210.4131,-37.5 215.2015,-35.5213 220.2196,-33.6386 225.3041,-31.8649"/>
<polygon fill="#191970" stroke="#191970" points="226.7414,-35.0752 235.1208,-28.5917 224.5272,-28.4346 226.7414,-35.0752"/>
</g>
<!-- Node39 -->
<g id="node4" class="node">
<title>Node39</title>
<g id="a_node4"><a xlink:href="structcx_1_1web_1_1json__entity.html#aa681ca07ba01ea1346649b9bb01c71af" target="_top" xlink:title=" ">
<polygon fill="none" stroke="#000000" points="406.0972,-171.5 406.0972,-199.5 509.3628,-199.5 509.3628,-171.5 406.0972,-171.5"/>
<text text-anchor="start" x="414.0972" y="-187.5" font-family="Helvetica,sans-Serif" font-size="10.00" fill="#000000">cx::web::json_entity</text>
<text text-anchor="middle" x="457.73" y="-177.5" font-family="Helvetica,sans-Serif" font-size="10.00" fill="#000000">::valid</text>
</a>
</g>
</g>
<!-- Node38&#45;&gt;Node39 -->
<g id="edge3" class="edge">
<title>Node38&#45;&gt;Node39</title>
<path fill="none" stroke="#191970" d="M351.178,-161.5418C365.8463,-164.84 381.4679,-168.3525 396.1,-171.6425"/>
<polygon fill="#191970" stroke="#191970" points="395.5237,-175.1003 406.048,-173.8793 397.0594,-168.2708 395.5237,-175.1003"/>
</g>
<!-- Node38&#45;&gt;Node41 -->
<g id="edge7" class="edge">
<title>Node38&#45;&gt;Node41</title>
<path fill="none" stroke="#191970" d="M356.5559,-141.8904C411.4981,-137.3465 488.2512,-130.9987 541.464,-126.5978"/>
<polygon fill="#191970" stroke="#191970" points="541.7696,-130.0846 551.4471,-125.7722 541.1926,-123.1084 541.7696,-130.0846"/>
</g>
<!-- Node40 -->
<g id="node5" class="node">
<title>Node40</title>
<g id="a_node5"><a xlink:href="structcx_1_1web_1_1string__entity.html#adbe62e791cc18ea9f4ae7fc45468c32c" target="_top" xlink:title=" ">
<polygon fill="none" stroke="#000000" points="548.417,-171.5 548.417,-199.5 657.791,-199.5 657.791,-171.5 548.417,-171.5"/>
<text text-anchor="start" x="556.417" y="-187.5" font-family="Helvetica,sans-Serif" font-size="10.00" fill="#000000">cx::web::string_entity</text>
<text text-anchor="middle" x="603.104" y="-177.5" font-family="Helvetica,sans-Serif" font-size="10.00" fill="#000000">::valid</text>
</a>
</g>
</g>
<!-- Node39&#45;&gt;Node40 -->
<g id="edge4" class="edge">
<title>Node39&#45;&gt;Node40</title>
<path fill="none" stroke="#191970" d="M509.3927,-185.5C518.6224,-185.5 528.3469,-185.5 537.8973,-185.5"/>
<polygon fill="#191970" stroke="#191970" points="538.1605,-189.0001 548.1605,-185.5 538.1605,-182.0001 538.1605,-189.0001"/>
</g>
<!-- Node39&#45;&gt;Node41 -->
<g id="edge5" class="edge">
<title>Node39&#45;&gt;Node41</title>
<path fill="none" stroke="#191970" d="M489.6329,-171.4549C510.9362,-162.0763 539.1498,-149.6554 562.1143,-139.5455"/>
<polygon fill="#191970" stroke="#191970" points="563.5334,-142.7449 571.2755,-135.5123 560.7129,-136.3383 563.5334,-142.7449"/>
</g>
<!-- Node42 -->
<g id="node7" class="node">
<title>Node42</title>
<g id="a_node7"><a xlink:href="structcx_1_1web_1_1string__entity.html#a532443f26d829f9d361289d856513ff4" target="_top" xlink:title=" ">
<polygon fill="none" stroke="#000000" points="693.791,-107.5 693.791,-135.5 803.165,-135.5 803.165,-107.5 693.791,-107.5"/>
<text text-anchor="start" x="701.791" y="-123.5" font-family="Helvetica,sans-Serif" font-size="10.00" fill="#000000">cx::web::string_entity</text>
<text text-anchor="middle" x="748.478" y="-113.5" font-family="Helvetica,sans-Serif" font-size="10.00" fill="#000000">::get_string</text>
</a>
</g>
</g>
<!-- Node41&#45;&gt;Node42 -->
<g id="edge6" class="edge">
<title>Node41&#45;&gt;Node42</title>
<path fill="none" stroke="#191970" d="M654.7668,-121.5C663.9964,-121.5 673.7209,-121.5 683.2713,-121.5"/>
<polygon fill="#191970" stroke="#191970" points="683.5346,-125.0001 693.5345,-121.5 683.5345,-118.0001 683.5346,-125.0001"/>
</g>
<!-- Node43&#45;&gt;Node41 -->
<g id="edge10" class="edge">
<title>Node43&#45;&gt;Node41</title>
<path fill="none" stroke="#191970" d="M341.2359,-65.315C386.9069,-69.3413 454.6406,-77.0236 512.417,-90.5 527.4257,-94.0008 543.4456,-99.0266 557.7801,-104.0155"/>
<polygon fill="#191970" stroke="#191970" points="556.8069,-107.3842 567.4016,-107.4442 559.1568,-100.7904 556.8069,-107.3842"/>
</g>
<!-- Node44 -->
<g id="node9" class="node">
<title>Node44</title>
<g id="a_node9"><a xlink:href="structcx_1_1web_1_1string__entity.html#ad1e200dd478daf44692124233963aec6" target="_top" xlink:title=" ">
<polygon fill="none" stroke="#000000" points="403.043,-9.5 403.043,-37.5 512.417,-37.5 512.417,-9.5 403.043,-9.5"/>
<text text-anchor="start" x="411.043" y="-25.5" font-family="Helvetica,sans-Serif" font-size="10.00" fill="#000000">cx::web::string_entity</text>
<text text-anchor="middle" x="457.73" y="-15.5" font-family="Helvetica,sans-Serif" font-size="10.00" fill="#000000">::update</text>
</a>
</g>
</g>
<!-- Node43&#45;&gt;Node44 -->
<g id="edge9" class="edge">
<title>Node43&#45;&gt;Node44</title>
<path fill="none" stroke="#191970" d="M341.2749,-49.6849C357.6367,-46.0059 375.8731,-41.9055 392.9678,-38.0618"/>
<polygon fill="#191970" stroke="#191970" points="393.8895,-41.442 402.8781,-35.8334 392.3539,-34.6125 393.8895,-41.442"/>
</g>
</g>
</svg>
