<?xml version="1.0" encoding="UTF-8" standalone="no"?>
<!DOCTYPE svg PUBLIC "-//W3C//DTD SVG 1.1//EN"
 "http://www.w3.org/Graphics/SVG/1.1/DTD/svg11.dtd">
<!-- Generated by graphviz version 2.40.1 (20161225.0304)
 -->
<!-- Title: cx::web::CacheGuard&lt; T &gt; Pages: 1 -->
<svg width="155pt" height="224pt"
 viewBox="0.00 0.00 154.76 224.00" xmlns="http://www.w3.org/2000/svg" xmlns:xlink="http://www.w3.org/1999/xlink">
<g id="graph0" class="graph" transform="scale(1 1) rotate(0) translate(4 220)">
<title>cx::web::CacheGuard&lt; T &gt;</title>
<!-- Node1 -->
<g id="node1" class="node">
<title>Node1</title>
<g id="a_node1"><a xlink:title=" ">
<polygon fill="#bfbfbf" stroke="#000000" points="11.6069,-.5 11.6069,-74.5 146.7573,-74.5 146.7573,-.5 11.6069,-.5"/>
<text text-anchor="middle" x="79.1821" y="-62.5" font-family="Helvetica,sans-Serif" font-size="10.00" fill="#000000">cx::web::CacheGuard&lt; T &gt;</text>
<polyline fill="none" stroke="#000000" points="11.6069,-56.5 146.7573,-56.5 "/>
<text text-anchor="middle" x="79.1821" y="-44.5" font-family="Helvetica,sans-Serif" font-size="10.00" fill="#000000"> </text>
<polyline fill="none" stroke="#000000" points="11.6069,-38.5 146.7573,-38.5 "/>
<text text-anchor="start" x="19.6069" y="-26.5" font-family="Helvetica,sans-Serif" font-size="10.00" fill="#000000">+ CacheGuard()</text>
<text text-anchor="start" x="19.6069" y="-16.5" font-family="Helvetica,sans-Serif" font-size="10.00" fill="#000000">+ ~CacheGuard()</text>
<text text-anchor="start" x="19.6069" y="-6.5" font-family="Helvetica,sans-Serif" font-size="10.00" fill="#000000">+ operator&#45;&gt;()</text>
</a>
</g>
</g>
<!-- Node2 -->
<g id="node2" class="node">
<title>Node2</title>
<g id="a_node2"><a xlink:href="classcx_1_1web_1_1_cache.html" target="_top" xlink:title=" ">
<polygon fill="none" stroke="#000000" points="0,-121.5 0,-215.5 84.3643,-215.5 84.3643,-121.5 0,-121.5"/>
<text text-anchor="middle" x="42.1821" y="-203.5" font-family="Helvetica,sans-Serif" font-size="10.00" fill="#000000">cx::web::Cache</text>
<polyline fill="none" stroke="#000000" points="0,-197.5 84.3643,-197.5 "/>
<text text-anchor="middle" x="42.1821" y="-185.5" font-family="Helvetica,sans-Serif" font-size="10.00" fill="#000000"> </text>
<polyline fill="none" stroke="#000000" points="0,-179.5 84.3643,-179.5 "/>
<text text-anchor="start" x="8" y="-167.5" font-family="Helvetica,sans-Serif" font-size="10.00" fill="#000000">+ Cache()</text>
<text text-anchor="start" x="8" y="-157.5" font-family="Helvetica,sans-Serif" font-size="10.00" fill="#000000">+ get()</text>
<text text-anchor="start" x="8" y="-147.5" font-family="Helvetica,sans-Serif" font-size="10.00" fill="#000000">+ get()</text>
<text text-anchor="start" x="8" y="-137.5" font-family="Helvetica,sans-Serif" font-size="10.00" fill="#000000">+ reset()</text>
<text text-anchor="start" x="8" y="-127.5" font-family="Helvetica,sans-Serif" font-size="10.00" fill="#000000">+ set()</text>
</a>
</g>
</g>
<!-- Node2&#45;&gt;Node1 -->
<g id="edge1" class="edge">
<title>Node2&#45;&gt;Node1</title>
<path fill="none" stroke="#404040" d="M47.8084,-121.3506C49.4851,-111.8608 51.62,-102.0315 54.3179,-93 55.0262,-90.629 55.8132,-88.2269 56.6585,-85.8193"/>
<polygon fill="none" stroke="#404040" points="56.6616,-85.8111 55.0786,-78.7759 60.9637,-74.6088 62.5468,-81.644 56.6616,-85.8111"/>
<text text-anchor="middle" x="74.6143" y="-95" font-family="Helvetica,sans-Serif" font-size="10.00" fill="#000000"> +_cache</text>
</g>
<!-- Node3 -->
<g id="node3" class="node">
<title>Node3</title>
<g id="a_node3"><a xlink:title=" ">
<polygon fill="none" stroke="#bfbfbf" points="102.6821,-141.5 102.6821,-195.5 131.6821,-195.5 131.6821,-141.5 102.6821,-141.5"/>
<text text-anchor="middle" x="116.7363" y="-183.5" font-family="Helvetica,sans-Serif" font-size="10.00" fill="#000000">T</text>
<polyline fill="none" stroke="#bfbfbf" points="102.6821,-177.5 130.7905,-177.5 "/>
<text text-anchor="middle" x="116.7363" y="-165.5" font-family="Helvetica,sans-Serif" font-size="10.00" fill="#000000"> </text>
<polyline fill="none" stroke="#bfbfbf" points="102.6821,-159.5 130.7905,-159.5 "/>
<text text-anchor="middle" x="116.7363" y="-147.5" font-family="Helvetica,sans-Serif" font-size="10.00" fill="#000000"> </text>
</a>
</g>
</g>
<!-- Node3&#45;&gt;Node1 -->
<g id="edge2" class="edge">
<title>Node3&#45;&gt;Node1</title>
<path fill="none" stroke="#404040" d="M109.3085,-141.3567C104.6857,-125.4202 98.7061,-104.8064 93.2942,-86.1496"/>
<polygon fill="none" stroke="#404040" points="93.2709,-86.069 87.7577,-81.421 89.9277,-74.5441 95.441,-79.1922 93.2709,-86.069"/>
<text text-anchor="middle" x="121.1143" y="-95" font-family="Helvetica,sans-Serif" font-size="10.00" fill="#000000"> +_subject</text>
</g>
</g>
</svg>
