<?xml version="1.0" encoding="UTF-8" standalone="no"?>
<!DOCTYPE svg PUBLIC "-//W3C//DTD SVG 1.1//EN"
 "http://www.w3.org/Graphics/SVG/1.1/DTD/svg11.dtd">
<!-- Generated by graphviz version 2.40.1 (20161225.0304)
 -->
<!-- Title: SCUploadData::init Pages: 1 -->
<svg width="460pt" height="64pt"
 viewBox="0.00 0.00 459.68 64.00" xmlns="http://www.w3.org/2000/svg" xmlns:xlink="http://www.w3.org/1999/xlink">
<g id="graph0" class="graph" transform="scale(1 1) rotate(0) translate(4 60)">
<title>SCUploadData::init</title>
<!-- Node8 -->
<g id="node1" class="node">
<title>Node8</title>
<g id="a_node1"><a xlink:title=" ">
<polygon fill="#bfbfbf" stroke="#000000" points="0,-18.5 0,-36.5 101.0439,-36.5 101.0439,-18.5 0,-18.5"/>
<text text-anchor="middle" x="50.522" y="-24.5" font-family="Helvetica,sans-Serif" font-size="10.00" fill="#000000">SCUploadData::init</text>
</a>
</g>
</g>
<!-- Node9 -->
<g id="node2" class="node">
<title>Node9</title>
<g id="a_node2"><a xlink:href="class_s_c_upload_data.html#a9f32f398da71ac8a1e2827a998666a96" target="_top" xlink:title=" ">
<polygon fill="none" stroke="#000000" points="137.0439,-18.5 137.0439,-36.5 284.2305,-36.5 284.2305,-18.5 137.0439,-18.5"/>
<text text-anchor="middle" x="210.6372" y="-24.5" font-family="Helvetica,sans-Serif" font-size="10.00" fill="#000000">SCUploadData::testBoundary</text>
</a>
</g>
</g>
<!-- Node8&#45;&gt;Node9 -->
<g id="edge1" class="edge">
<title>Node8&#45;&gt;Node9</title>
<path fill="none" stroke="#191970" d="M101.1834,-27.5C109.3489,-27.5 117.9883,-27.5 126.689,-27.5"/>
<polygon fill="#191970" stroke="#191970" points="126.9064,-31.0001 136.9064,-27.5 126.9064,-24.0001 126.9064,-31.0001"/>
</g>
<!-- Node10 -->
<g id="node3" class="node">
<title>Node10</title>
<g id="a_node3"><a xlink:href="class_s_c_upload_data.html#ad12b7c9d7b42f6f51d8df2d26c1768bf" target="_top" xlink:title=" ">
<polygon fill="none" stroke="#000000" points="320.9751,-37.5 320.9751,-55.5 450.9351,-55.5 450.9351,-37.5 320.9751,-37.5"/>
<text text-anchor="middle" x="385.9551" y="-43.5" font-family="Helvetica,sans-Serif" font-size="10.00" fill="#000000">SCUploadData::boundary</text>
</a>
</g>
</g>
<!-- Node9&#45;&gt;Node10 -->
<g id="edge2" class="edge">
<title>Node9&#45;&gt;Node10</title>
<path fill="none" stroke="#191970" d="M284.4796,-35.5026C293.1563,-36.443 302.0182,-37.4034 310.7137,-38.3458"/>
<polygon fill="#191970" stroke="#191970" points="310.5051,-41.8436 320.824,-39.4415 311.2594,-34.8843 310.5051,-41.8436"/>
</g>
<!-- Node11 -->
<g id="node4" class="node">
<title>Node11</title>
<g id="a_node4"><a xlink:href="class_upload_data.html#abf44b1dcd4b44691f59d5f41b042570c" target="_top" xlink:title=" ">
<polygon fill="none" stroke="#000000" points="320.2305,-.5 320.2305,-18.5 451.6797,-18.5 451.6797,-.5 320.2305,-.5"/>
<text text-anchor="middle" x="385.9551" y="-6.5" font-family="Helvetica,sans-Serif" font-size="10.00" fill="#000000">UploadData::readToBuffer</text>
</a>
</g>
</g>
<!-- Node9&#45;&gt;Node11 -->
<g id="edge3" class="edge">
<title>Node9&#45;&gt;Node11</title>
<path fill="none" stroke="#191970" d="M284.4796,-19.9185C292.8624,-19.0579 301.4181,-18.1795 309.8296,-17.3159"/>
<polygon fill="#191970" stroke="#191970" points="310.4067,-20.7751 319.9969,-16.272 309.6917,-13.8117 310.4067,-20.7751"/>
</g>
</g>
</svg>
