<?xml version="1.0" encoding="UTF-8" standalone="no"?>
<!DOCTYPE svg PUBLIC "-//W3C//DTD SVG 1.1//EN"
 "http://www.w3.org/Graphics/SVG/1.1/DTD/svg11.dtd">
<!-- Generated by graphviz version 2.40.1 (20161225.0304)
 -->
<!-- Title: fs::BroadcasterRecordingNotifications Pages: 1 -->
<svg width="199pt" height="194pt"
 viewBox="0.00 0.00 199.08 194.00" xmlns="http://www.w3.org/2000/svg" xmlns:xlink="http://www.w3.org/1999/xlink">
<g id="graph0" class="graph" transform="scale(1 1) rotate(0) translate(4 190)">
<title>fs::BroadcasterRecordingNotifications</title>
<!-- Node7 -->
<g id="node1" class="node">
<title>Node7</title>
<g id="a_node1"><a xlink:title=" ">
<polygon fill="#bfbfbf" stroke="#000000" points="0,-.5 0,-84.5 191.083,-84.5 191.083,-.5 0,-.5"/>
<text text-anchor="start" x="8" y="-72.5" font-family="Helvetica,sans-Serif" font-size="10.00" fill="#000000">fs::BroadcasterRecording</text>
<text text-anchor="middle" x="95.5415" y="-62.5" font-family="Helvetica,sans-Serif" font-size="10.00" fill="#000000">Notifications</text>
<polyline fill="none" stroke="#000000" points="0,-56.5 191.083,-56.5 "/>
<text text-anchor="middle" x="95.5415" y="-44.5" font-family="Helvetica,sans-Serif" font-size="10.00" fill="#000000"> </text>
<polyline fill="none" stroke="#000000" points="0,-38.5 191.083,-38.5 "/>
<text text-anchor="start" x="8" y="-26.5" font-family="Helvetica,sans-Serif" font-size="10.00" fill="#000000">+ ~BroadcasterRecordingNotifications()</text>
<text text-anchor="start" x="8" y="-16.5" font-family="Helvetica,sans-Serif" font-size="10.00" fill="#000000">+ ABSTRACT_METHOD()</text>
<text text-anchor="start" x="8" y="-6.5" font-family="Helvetica,sans-Serif" font-size="10.00" fill="#000000">+ ABSTRACT_METHOD()</text>
</a>
</g>
</g>
<!-- Node8 -->
<g id="node2" class="node">
<title>Node8</title>
<g id="a_node2"><a xlink:href="classfs_1_1_broadcaster_notifications.html" target="_top" xlink:title=" ">
<polygon fill="none" stroke="#000000" points="22.7905,-121.5 22.7905,-185.5 168.2925,-185.5 168.2925,-121.5 22.7905,-121.5"/>
<text text-anchor="middle" x="95.5415" y="-173.5" font-family="Helvetica,sans-Serif" font-size="10.00" fill="#000000">fs::BroadcasterNotifications</text>
<polyline fill="none" stroke="#000000" points="22.7905,-167.5 168.2925,-167.5 "/>
<text text-anchor="middle" x="95.5415" y="-155.5" font-family="Helvetica,sans-Serif" font-size="10.00" fill="#000000"> </text>
<polyline fill="none" stroke="#000000" points="22.7905,-149.5 168.2925,-149.5 "/>
<text text-anchor="start" x="30.7905" y="-137.5" font-family="Helvetica,sans-Serif" font-size="10.00" fill="#000000">+ ~BroadcasterNotifications()</text>
<text text-anchor="start" x="30.7905" y="-127.5" font-family="Helvetica,sans-Serif" font-size="10.00" fill="#000000">+ ABSTRACT_METHOD()</text>
</a>
</g>
</g>
<!-- Node8&#45;&gt;Node7 -->
<g id="edge1" class="edge">
<title>Node8&#45;&gt;Node7</title>
<path fill="none" stroke="#191970" d="M95.5415,-111.1673C95.5415,-102.5509 95.5415,-93.4852 95.5415,-84.8676"/>
<polygon fill="none" stroke="#191970" points="92.0416,-111.3942 95.5415,-121.3942 99.0416,-111.3942 92.0416,-111.3942"/>
</g>
</g>
</svg>
