<?xml version="1.0" encoding="UTF-8" standalone="no"?>
<!DOCTYPE svg PUBLIC "-//W3C//DTD SVG 1.1//EN"
 "http://www.w3.org/Graphics/SVG/1.1/DTD/svg11.dtd">
<!-- Generated by graphviz version 2.40.1 (20161225.0304)
 -->
<!-- Title: fs::FSDirectorKeyboardEventPkt Pages: 1 -->
<svg width="170pt" height="547pt"
 viewBox="0.00 0.00 169.89 547.00" xmlns="http://www.w3.org/2000/svg" xmlns:xlink="http://www.w3.org/1999/xlink">
<g id="graph0" class="graph" transform="scale(1 1) rotate(0) translate(4 543)">
<title>fs::FSDirectorKeyboardEventPkt</title>
<!-- Node2 -->
<g id="node1" class="node">
<title>Node2</title>
<g id="a_node1"><a xlink:title=" ">
<polygon fill="#bfbfbf" stroke="#000000" points="0,-.5 0,-154.5 161.8887,-154.5 161.8887,-.5 0,-.5"/>
<text text-anchor="middle" x="80.9443" y="-142.5" font-family="Helvetica,sans-Serif" font-size="10.00" fill="#000000">fs::FSDirectorKeyboardEventPkt</text>
<polyline fill="none" stroke="#000000" points="0,-136.5 161.8887,-136.5 "/>
<text text-anchor="middle" x="80.9443" y="-124.5" font-family="Helvetica,sans-Serif" font-size="10.00" fill="#000000"> </text>
<polyline fill="none" stroke="#000000" points="0,-118.5 161.8887,-118.5 "/>
<text text-anchor="start" x="8" y="-106.5" font-family="Helvetica,sans-Serif" font-size="10.00" fill="#000000">+ FSDirectorKeyboardEventPkt()</text>
<text text-anchor="start" x="8" y="-96.5" font-family="Helvetica,sans-Serif" font-size="10.00" fill="#000000">+ characters()</text>
<text text-anchor="start" x="8" y="-86.5" font-family="Helvetica,sans-Serif" font-size="10.00" fill="#000000">+ keyDown()</text>
<text text-anchor="start" x="8" y="-76.5" font-family="Helvetica,sans-Serif" font-size="10.00" fill="#000000">+ keyCode()</text>
<text text-anchor="start" x="8" y="-66.5" font-family="Helvetica,sans-Serif" font-size="10.00" fill="#000000">+ modifiers()</text>
<text text-anchor="start" x="8" y="-56.5" font-family="Helvetica,sans-Serif" font-size="10.00" fill="#000000">+ autorepeat()</text>
<text text-anchor="start" x="8" y="-46.5" font-family="Helvetica,sans-Serif" font-size="10.00" fill="#000000">+ setCharacters()</text>
<text text-anchor="start" x="8" y="-36.5" font-family="Helvetica,sans-Serif" font-size="10.00" fill="#000000">+ setKeyDown()</text>
<text text-anchor="start" x="8" y="-26.5" font-family="Helvetica,sans-Serif" font-size="10.00" fill="#000000">+ setKeyCode()</text>
<text text-anchor="start" x="8" y="-16.5" font-family="Helvetica,sans-Serif" font-size="10.00" fill="#000000">+ setModifiers()</text>
<text text-anchor="start" x="8" y="-6.5" font-family="Helvetica,sans-Serif" font-size="10.00" fill="#000000">+ setAutorepeat()</text>
</a>
</g>
</g>
<!-- Node3 -->
<g id="node2" class="node">
<title>Node3</title>
<g id="a_node2"><a xlink:href="classfs_1_1_f_s_packet.html" target="_top" xlink:title=" ">
<polygon fill="none" stroke="#000000" points="40.7104,-192.5 40.7104,-306.5 121.1782,-306.5 121.1782,-192.5 40.7104,-192.5"/>
<text text-anchor="middle" x="80.9443" y="-294.5" font-family="Helvetica,sans-Serif" font-size="10.00" fill="#000000">fs::FSPacket</text>
<polyline fill="none" stroke="#000000" points="40.7104,-288.5 121.1782,-288.5 "/>
<text text-anchor="start" x="48.7104" y="-276.5" font-family="Helvetica,sans-Serif" font-size="10.00" fill="#000000"># m_iType</text>
<polyline fill="none" stroke="#000000" points="40.7104,-270.5 121.1782,-270.5 "/>
<text text-anchor="start" x="48.7104" y="-258.5" font-family="Helvetica,sans-Serif" font-size="10.00" fill="#000000">+ FSPacket()</text>
<text text-anchor="start" x="48.7104" y="-248.5" font-family="Helvetica,sans-Serif" font-size="10.00" fill="#000000">+ ~FSPacket()</text>
<text text-anchor="start" x="48.7104" y="-238.5" font-family="Helvetica,sans-Serif" font-size="10.00" fill="#000000">+ type()</text>
<text text-anchor="start" x="48.7104" y="-228.5" font-family="Helvetica,sans-Serif" font-size="10.00" fill="#000000">+ serialize()</text>
<text text-anchor="start" x="48.7104" y="-218.5" font-family="Helvetica,sans-Serif" font-size="10.00" fill="#000000">+ entry()</text>
<text text-anchor="start" x="48.7104" y="-208.5" font-family="Helvetica,sans-Serif" font-size="10.00" fill="#000000">+ setEntry()</text>
<text text-anchor="start" x="48.7104" y="-198.5" font-family="Helvetica,sans-Serif" font-size="10.00" fill="#000000">+ deserialize()</text>
</a>
</g>
</g>
<!-- Node3&#45;&gt;Node2 -->
<g id="edge1" class="edge">
<title>Node3&#45;&gt;Node2</title>
<path fill="none" stroke="#191970" d="M80.9443,-182.199C80.9443,-173.1893 80.9443,-163.8919 80.9443,-154.7287"/>
<polygon fill="none" stroke="#191970" points="77.4444,-182.2265 80.9443,-192.2265 84.4444,-182.2265 77.4444,-182.2265"/>
</g>
<!-- Node4 -->
<g id="node3" class="node">
<title>Node4</title>
<g id="a_node3"><a xlink:title=" ">
<polygon fill="none" stroke="#bfbfbf" points="8.1982,-353.5 8.1982,-407.5 153.6904,-407.5 153.6904,-353.5 8.1982,-353.5"/>
<text text-anchor="middle" x="80.9443" y="-395.5" font-family="Helvetica,sans-Serif" font-size="10.00" fill="#000000">std::vector&lt; FSPktStream * &gt;</text>
<polyline fill="none" stroke="#bfbfbf" points="8.1982,-389.5 153.6904,-389.5 "/>
<text text-anchor="middle" x="80.9443" y="-377.5" font-family="Helvetica,sans-Serif" font-size="10.00" fill="#000000"> </text>
<polyline fill="none" stroke="#bfbfbf" points="8.1982,-371.5 153.6904,-371.5 "/>
<text text-anchor="middle" x="80.9443" y="-359.5" font-family="Helvetica,sans-Serif" font-size="10.00" fill="#000000"> </text>
</a>
</g>
</g>
<!-- Node4&#45;&gt;Node3 -->
<g id="edge2" class="edge">
<title>Node4&#45;&gt;Node3</title>
<path fill="none" stroke="#404040" d="M80.9443,-353.3567C80.9443,-343.1832 80.9443,-331.1036 80.9443,-318.8438"/>
<polygon fill="none" stroke="#404040" points="80.9444,-318.5878 76.9444,-312.5879 80.9443,-306.5878 84.9444,-312.5878 80.9444,-318.5878"/>
<text text-anchor="middle" x="110.1216" y="-327" font-family="Helvetica,sans-Serif" font-size="10.00" fill="#000000"> #m_xEntries</text>
</g>
<!-- Node5 -->
<g id="node4" class="node">
<title>Node5</title>
<g id="a_node4"><a xlink:href="classfs_1_1_f_s_pkt_stream.html" target="_top" xlink:title=" ">
<polygon fill="none" stroke="#000000" points="32.6563,-454.5 32.6563,-538.5 129.2324,-538.5 129.2324,-454.5 32.6563,-454.5"/>
<text text-anchor="middle" x="80.9443" y="-526.5" font-family="Helvetica,sans-Serif" font-size="10.00" fill="#000000">fs::FSPktStream</text>
<polyline fill="none" stroke="#000000" points="32.6563,-520.5 129.2324,-520.5 "/>
<text text-anchor="start" x="40.6563" y="-508.5" font-family="Helvetica,sans-Serif" font-size="10.00" fill="#000000"># m_pxObj</text>
<polyline fill="none" stroke="#000000" points="32.6563,-502.5 129.2324,-502.5 "/>
<text text-anchor="start" x="40.6563" y="-490.5" font-family="Helvetica,sans-Serif" font-size="10.00" fill="#000000">+ ~FSPktStream()</text>
<text text-anchor="start" x="40.6563" y="-480.5" font-family="Helvetica,sans-Serif" font-size="10.00" fill="#000000">+ read()</text>
<text text-anchor="start" x="40.6563" y="-470.5" font-family="Helvetica,sans-Serif" font-size="10.00" fill="#000000">+ write()</text>
<text text-anchor="start" x="40.6563" y="-460.5" font-family="Helvetica,sans-Serif" font-size="10.00" fill="#000000">+ object()</text>
</a>
</g>
</g>
<!-- Node5&#45;&gt;Node4 -->
<g id="edge3" class="edge">
<title>Node5&#45;&gt;Node4</title>
<path fill="none" stroke="#404040" d="M80.9443,-454.2932C80.9443,-442.9972 80.9443,-430.8361 80.9443,-419.7094"/>
<polygon fill="none" stroke="#404040" points="80.9444,-419.6877 76.9444,-413.6877 80.9443,-407.6877 84.9444,-413.6877 80.9444,-419.6877"/>
<text text-anchor="middle" x="105.5415" y="-428" font-family="Helvetica,sans-Serif" font-size="10.00" fill="#000000"> +elements</text>
</g>
</g>
</svg>
