<?xml version="1.0" encoding="UTF-8" standalone="no"?>
<!DOCTYPE svg PUBLIC "-//W3C//DTD SVG 1.1//EN"
 "http://www.w3.org/Graphics/SVG/1.1/DTD/svg11.dtd">
<!-- Generated by graphviz version 2.40.1 (20161225.0304)
 -->
<!-- Title: fs::RTNotificationsController::~RTNotificationsController Pages: 1 -->
<svg width="501pt" height="37pt"
 viewBox="0.00 0.00 500.92 37.00" xmlns="http://www.w3.org/2000/svg" xmlns:xlink="http://www.w3.org/1999/xlink">
<g id="graph0" class="graph" transform="scale(1 1) rotate(0) translate(4 33)">
<title>fs::RTNotificationsController::~RTNotificationsController</title>
<!-- Node7 -->
<g id="node1" class="node">
<title>Node7</title>
<g id="a_node1"><a xlink:title=" ">
<polygon fill="#bfbfbf" stroke="#000000" points="0,-.5 0,-28.5 140.3066,-28.5 140.3066,-.5 0,-.5"/>
<text text-anchor="start" x="8" y="-16.5" font-family="Helvetica,sans-Serif" font-size="10.00" fill="#000000">fs::RTNotificationsController</text>
<text text-anchor="middle" x="70.1533" y="-6.5" font-family="Helvetica,sans-Serif" font-size="10.00" fill="#000000">::~RTNotificationsController</text>
</a>
</g>
</g>
<!-- Node8 -->
<g id="node2" class="node">
<title>Node8</title>
<g id="a_node2"><a xlink:href="classfs_1_1_r_t_notifications_controller.html#a4ad87e0bc2da8731d60995a9b74a6000" target="_top" xlink:title=" ">
<polygon fill="none" stroke="#000000" points="176.3066,-.5 176.3066,-28.5 316.6133,-28.5 316.6133,-.5 176.3066,-.5"/>
<text text-anchor="start" x="184.3066" y="-16.5" font-family="Helvetica,sans-Serif" font-size="10.00" fill="#000000">fs::RTNotificationsController</text>
<text text-anchor="middle" x="246.46" y="-6.5" font-family="Helvetica,sans-Serif" font-size="10.00" fill="#000000">::unregisterHandlers</text>
</a>
</g>
</g>
<!-- Node7&#45;&gt;Node8 -->
<g id="edge1" class="edge">
<title>Node7&#45;&gt;Node8</title>
<path fill="none" stroke="#191970" d="M140.341,-14.5C148.8304,-14.5 157.552,-14.5 166.1725,-14.5"/>
<polygon fill="#191970" stroke="#191970" points="166.2258,-18.0001 176.2258,-14.5 166.2258,-11.0001 166.2258,-18.0001"/>
</g>
<!-- Node9 -->
<g id="node3" class="node">
<title>Node9</title>
<g id="a_node3"><a xlink:href="classfs_1_1_r_t_notifications_controller.html#a5ad9fe288198881a21b9a7f49d3e7b55" target="_top" xlink:title=" ">
<polygon fill="none" stroke="#000000" points="352.6133,-.5 352.6133,-28.5 492.9199,-28.5 492.9199,-.5 352.6133,-.5"/>
<text text-anchor="start" x="360.6133" y="-16.5" font-family="Helvetica,sans-Serif" font-size="10.00" fill="#000000">fs::RTNotificationsController</text>
<text text-anchor="middle" x="422.7666" y="-6.5" font-family="Helvetica,sans-Serif" font-size="10.00" fill="#000000">::deleteHandler</text>
</a>
</g>
</g>
<!-- Node8&#45;&gt;Node9 -->
<g id="edge2" class="edge">
<title>Node8&#45;&gt;Node9</title>
<path fill="none" stroke="#191970" d="M316.6476,-14.5C325.1371,-14.5 333.8587,-14.5 342.4792,-14.5"/>
<polygon fill="#191970" stroke="#191970" points="342.5325,-18.0001 352.5324,-14.5 342.5324,-11.0001 342.5325,-18.0001"/>
</g>
</g>
</svg>
