<?xml version="1.0" encoding="UTF-8" standalone="no"?>
<!DOCTYPE svg PUBLIC "-//W3C//DTD SVG 1.1//EN"
 "http://www.w3.org/Graphics/SVG/1.1/DTD/svg11.dtd">
<!-- Generated by graphviz version 2.40.1 (20161225.0304)
 -->
<!-- Title: fs::VideoRenderer::getSourceType Pages: 1 -->
<svg width="257pt" height="84pt"
 viewBox="0.00 0.00 257.42 84.00" xmlns="http://www.w3.org/2000/svg" xmlns:xlink="http://www.w3.org/1999/xlink">
<g id="graph0" class="graph" transform="scale(1 1) rotate(0) translate(4 80)">
<title>fs::VideoRenderer::getSourceType</title>
<!-- Node7 -->
<g id="node1" class="node">
<title>Node7</title>
<g id="a_node1"><a xlink:title=" ">
<polygon fill="#bfbfbf" stroke="#000000" points="147.4346,-23.5 147.4346,-51.5 249.416,-51.5 249.416,-23.5 147.4346,-23.5"/>
<text text-anchor="start" x="155.4346" y="-39.5" font-family="Helvetica,sans-Serif" font-size="10.00" fill="#000000">fs::VideoRenderer::</text>
<text text-anchor="middle" x="198.4253" y="-29.5" font-family="Helvetica,sans-Serif" font-size="10.00" fill="#000000">getSourceType</text>
</a>
</g>
</g>
<!-- Node8 -->
<g id="node2" class="node">
<title>Node8</title>
<g id="a_node2"><a xlink:href="classfs_1_1_video_controller.html#ad056ce4d435f3a17a2d77e22f5739f6d" target="_top" xlink:title=" ">
<polygon fill="none" stroke="#000000" points="4.7241,-47.5 4.7241,-75.5 106.7104,-75.5 106.7104,-47.5 4.7241,-47.5"/>
<text text-anchor="start" x="12.7241" y="-63.5" font-family="Helvetica,sans-Serif" font-size="10.00" fill="#000000">fs::VideoController</text>
<text text-anchor="middle" x="55.7173" y="-53.5" font-family="Helvetica,sans-Serif" font-size="10.00" fill="#000000">::setVideoRenderer</text>
</a>
</g>
</g>
<!-- Node7&#45;&gt;Node8 -->
<g id="edge1" class="edge">
<title>Node7&#45;&gt;Node8</title>
<path fill="none" stroke="#191970" d="M137.3148,-47.7773C127.1975,-49.4788 116.7997,-51.2274 106.9578,-52.8826"/>
<polygon fill="#191970" stroke="#191970" points="138.0265,-51.2068 147.3075,-46.0968 136.8655,-44.3038 138.0265,-51.2068"/>
</g>
<!-- Node9 -->
<g id="node3" class="node">
<title>Node9</title>
<g id="a_node3"><a xlink:href="classfs_1_1_video_engine_proxy.html#aaef63c0919ab409dcef08a20f63840cb" target="_top" xlink:title=" ">
<polygon fill="none" stroke="#000000" points="0,-.5 0,-28.5 111.4346,-28.5 111.4346,-.5 0,-.5"/>
<text text-anchor="start" x="8" y="-16.5" font-family="Helvetica,sans-Serif" font-size="10.00" fill="#000000">fs::VideoEngineProxy</text>
<text text-anchor="middle" x="55.7173" y="-6.5" font-family="Helvetica,sans-Serif" font-size="10.00" fill="#000000">::stopVideoRenderer</text>
</a>
</g>
</g>
<!-- Node7&#45;&gt;Node9 -->
<g id="edge2" class="edge">
<title>Node7&#45;&gt;Node9</title>
<path fill="none" stroke="#191970" d="M137.1605,-27.6261C128.7374,-26.2685 120.1229,-24.8801 111.7992,-23.5386"/>
<polygon fill="#191970" stroke="#191970" points="136.878,-31.1256 147.3075,-29.2614 137.9918,-24.2148 136.878,-31.1256"/>
</g>
</g>
</svg>
