<?xml version="1.0" encoding="UTF-8" standalone="no"?>
<!DOCTYPE svg PUBLIC "-//W3C//DTD SVG 1.1//EN"
 "http://www.w3.org/Graphics/SVG/1.1/DTD/svg11.dtd">
<!-- Generated by graphviz version 2.40.1 (20161225.0304)
 -->
<!-- Title: fs::ScreenSharingController::requestDisplayConfigurationUpdate Pages: 1 -->
<svg width="537pt" height="84pt"
 viewBox="0.00 0.00 537.10 84.00" xmlns="http://www.w3.org/2000/svg" xmlns:xlink="http://www.w3.org/1999/xlink">
<g id="graph0" class="graph" transform="scale(1 1) rotate(0) translate(4 80)">
<title>fs::ScreenSharingController::requestDisplayConfigurationUpdate</title>
<!-- Node264 -->
<g id="node1" class="node">
<title>Node264</title>
<g id="a_node1"><a xlink:title=" ">
<polygon fill="#bfbfbf" stroke="#000000" points="0,-23.5 0,-51.5 179.4277,-51.5 179.4277,-23.5 0,-23.5"/>
<text text-anchor="start" x="8" y="-39.5" font-family="Helvetica,sans-Serif" font-size="10.00" fill="#000000">fs::ScreenSharingController</text>
<text text-anchor="middle" x="89.7139" y="-29.5" font-family="Helvetica,sans-Serif" font-size="10.00" fill="#000000">::requestDisplayConfigurationUpdate</text>
</a>
</g>
</g>
<!-- Node265 -->
<g id="node2" class="node">
<title>Node265</title>
<g id="a_node2"><a xlink:href="classfs_1_1_screen_sharing_controller.html#a52b62b9e4e991919927cb0ca0065962b" target="_top" xlink:title=" ">
<polygon fill="none" stroke="#000000" points="215.4277,-23.5 215.4277,-51.5 354.2646,-51.5 354.2646,-23.5 215.4277,-23.5"/>
<text text-anchor="start" x="223.4277" y="-39.5" font-family="Helvetica,sans-Serif" font-size="10.00" fill="#000000">fs::ScreenSharingController</text>
<text text-anchor="middle" x="284.8462" y="-29.5" font-family="Helvetica,sans-Serif" font-size="10.00" fill="#000000">::isRunning</text>
</a>
</g>
</g>
<!-- Node264&#45;&gt;Node265 -->
<g id="edge1" class="edge">
<title>Node264&#45;&gt;Node265</title>
<path fill="none" stroke="#191970" d="M179.5695,-37.5C188.1029,-37.5 196.7155,-37.5 205.1439,-37.5"/>
<polygon fill="#191970" stroke="#191970" points="205.3157,-41.0001 215.3156,-37.5 205.3156,-34.0001 205.3157,-41.0001"/>
</g>
<!-- Node266 -->
<g id="node3" class="node">
<title>Node266</title>
<g id="a_node3"><a xlink:href="classfs_1_1_screen_sharing_controller.html#ad106f544261381323ae3ebfdc9544b8e" target="_top" xlink:title=" ">
<polygon fill="none" stroke="#000000" points="390.2646,-47.5 390.2646,-75.5 529.1016,-75.5 529.1016,-47.5 390.2646,-47.5"/>
<text text-anchor="start" x="398.2646" y="-63.5" font-family="Helvetica,sans-Serif" font-size="10.00" fill="#000000">fs::ScreenSharingController</text>
<text text-anchor="middle" x="459.6831" y="-53.5" font-family="Helvetica,sans-Serif" font-size="10.00" fill="#000000">::isActive</text>
</a>
</g>
</g>
<!-- Node265&#45;&gt;Node266 -->
<g id="edge2" class="edge">
<title>Node265&#45;&gt;Node266</title>
<path fill="none" stroke="#191970" d="M354.4487,-47.0544C362.8674,-48.21 371.5163,-49.3973 380.065,-50.5708"/>
<polygon fill="#191970" stroke="#191970" points="379.6513,-54.0467 390.0344,-51.9393 380.6033,-47.1117 379.6513,-54.0467"/>
</g>
<!-- Node267 -->
<g id="node4" class="node">
<title>Node267</title>
<g id="a_node4"><a xlink:href="classfs_1_1_screen_sharing_controller.html#a1099e31f1e66a059b03ec205d466cbbc" target="_top" xlink:title=" ">
<polygon fill="none" stroke="#000000" points="390.2646,-.5 390.2646,-28.5 529.1016,-28.5 529.1016,-.5 390.2646,-.5"/>
<text text-anchor="start" x="398.2646" y="-16.5" font-family="Helvetica,sans-Serif" font-size="10.00" fill="#000000">fs::ScreenSharingController</text>
<text text-anchor="middle" x="459.6831" y="-6.5" font-family="Helvetica,sans-Serif" font-size="10.00" fill="#000000">::isPresenter</text>
</a>
</g>
</g>
<!-- Node265&#45;&gt;Node267 -->
<g id="edge3" class="edge">
<title>Node265&#45;&gt;Node267</title>
<path fill="none" stroke="#191970" d="M354.4487,-28.3437C362.8674,-27.2362 371.5163,-26.0984 380.065,-24.9739"/>
<polygon fill="#191970" stroke="#191970" points="380.5764,-28.4368 390.0344,-23.6624 379.6633,-21.4966 380.5764,-28.4368"/>
</g>
</g>
</svg>
