<?xml version="1.0" encoding="UTF-8" standalone="no"?>
<!DOCTYPE svg PUBLIC "-//W3C//DTD SVG 1.1//EN"
 "http://www.w3.org/Graphics/SVG/1.1/DTD/svg11.dtd">
<!-- Generated by graphviz version 2.40.1 (20161225.0304)
 -->
<!-- Title: cx::web::APIv4Wrapper::getSubscriptionByMeetingUrl Pages: 1 -->
<!--zoomable 74 -->
<svg id="main" version="1.1" xmlns="http://www.w3.org/2000/svg" xmlns:xlink="http://www.w3.org/1999/xlink" xml:space="preserve" onload="init(evt)">
<style type="text/css"><![CDATA[
.edge:hover path { stroke: red; }
.edge:hover polygon { stroke: red; fill: red; }
]]></style>
<script type="text/javascript"><![CDATA[
var edges = document.getElementsByTagName('g');
if (edges && edges.length) {
  for (var i=0;i<edges.length;i++) {
    if (edges[i].id.substr(0,4)=='edge') {
      edges[i].setAttribute('class','edge');
    }
  }
}
]]></script>
        <defs>
                <circle id="rim" cx="0" cy="0" r="7"/>
                <circle id="rim2" cx="0" cy="0" r="3.5"/>
                <g id="zoomPlus">
                        <use xlink:href="#rim" fill="#404040">
                                <set attributeName="fill" to="#808080" begin="zoomplus.mouseover" end="zoomplus.mouseout"/>
                        </use>
                        <path d="M-4,0h8M0,-4v8" fill="none" stroke="white" stroke-width="1.5" pointer-events="none"/>
                </g>
                <g id="zoomMin">
                        <use xlink:href="#rim" fill="#404040">
                                <set attributeName="fill" to="#808080" begin="zoomminus.mouseover" end="zoomminus.mouseout"/>
                        </use>
                        <path d="M-4,0h8" fill="none" stroke="white" stroke-width="1.5" pointer-events="none"/>
                </g>
                <g id="dirArrow">
                        <path fill="none" stroke="white" stroke-width="1.5" d="M0,-3.0v7 M-2.5,-0.5L0,-3.0L2.5,-0.5"/>
                </g>
               <g id="resetDef">
                       <use xlink:href="#rim2" fill="#404040">
                               <set attributeName="fill" to="#808080" begin="reset.mouseover" end="reset.mouseout"/>
                       </use>
               </g>
        </defs>

<script type="text/javascript">
var viewWidth = 506;
var viewHeight = 74;
var sectionId = 'dynsection-17';
</script>
<script xlink:href="svgpan.js"/>
<svg id="graph" class="graph">
<g id="viewport">
<title>cx::web::APIv4Wrapper::getSubscriptionByMeetingUrl</title>
<!-- Node66 -->
<g id="node1" class="node">
<title>Node66</title>
<g id="a_node1"><a xlink:title=" ">
<polygon fill="#bfbfbf" stroke="#000000" points="0,-21.5 0,-49.5 150.5068,-49.5 150.5068,-21.5 0,-21.5"/>
<text text-anchor="start" x="8" y="-37.5" font-family="Helvetica,sans-Serif" font-size="10.00" fill="#000000">cx::web::APIv4Wrapper</text>
<text text-anchor="middle" x="75.2534" y="-27.5" font-family="Helvetica,sans-Serif" font-size="10.00" fill="#000000">::getSubscriptionByMeetingUrl</text>
</a>
</g>
</g>
<!-- Node67 -->
<g id="node2" class="node">
<title>Node67</title>
<g id="a_node2"><a xlink:href="namespacecx.html#a01607a1c3834d5f67640ace216bf4ce4" target="_top" xlink:title=" ">
<polygon fill="none" stroke="#000000" points="215.1226,-47.5 215.1226,-65.5 296.1616,-65.5 296.1616,-47.5 215.1226,-47.5"/>
<text text-anchor="middle" x="255.6421" y="-53.5" font-family="Helvetica,sans-Serif" font-size="10.00" fill="#000000">cx::url_encode</text>
</a>
</g>
</g>
<!-- Node66&#45;&gt;Node67 -->
<g id="edge1" class="edge">
<title>Node66&#45;&gt;Node67</title>
<path fill="none" stroke="#191970" d="M150.7093,-44.2842C168.9382,-46.4063 187.9927,-48.6246 204.7848,-50.5794"/>
<polygon fill="#191970" stroke="#191970" points="204.5827,-54.0795 214.9204,-51.7594 205.3922,-47.1264 204.5827,-54.0795"/>
</g>
<!-- Node68 -->
<g id="node3" class="node">
<title>Node68</title>
<g id="a_node3"><a xlink:href="classcx_1_1_h_t_t_p_request_container.html#a88443e3419255d1d2bb8503829c4bcaa" target="_top" xlink:title=" ">
<polygon fill="none" stroke="#000000" points="186.5068,-.5 186.5068,-28.5 324.7773,-28.5 324.7773,-.5 186.5068,-.5"/>
<text text-anchor="start" x="194.5068" y="-16.5" font-family="Helvetica,sans-Serif" font-size="10.00" fill="#000000">cx::HTTPRequestContainer</text>
<text text-anchor="middle" x="255.6421" y="-6.5" font-family="Helvetica,sans-Serif" font-size="10.00" fill="#000000">::request</text>
</a>
</g>
</g>
<!-- Node66&#45;&gt;Node68 -->
<g id="edge2" class="edge">
<title>Node66&#45;&gt;Node68</title>
<path fill="none" stroke="#191970" d="M150.7093,-26.7158C159.083,-25.7409 167.631,-24.7458 176.0539,-23.7653"/>
<polygon fill="#191970" stroke="#191970" points="176.7176,-27.2117 186.2458,-22.5788 175.9081,-20.2587 176.7176,-27.2117"/>
</g>
<!-- Node69 -->
<g id="node4" class="node">
<title>Node69</title>
<g id="a_node4"><a xlink:href="structcx_1_1_h_t_t_p_request_1_1_request_params.html#aad683476ac9a2874f8a98a530d2b791b" target="_top" xlink:title=" ">
<polygon fill="none" stroke="#000000" points="360.7773,-.5 360.7773,-28.5 498.4912,-28.5 498.4912,-.5 360.7773,-.5"/>
<text text-anchor="start" x="368.7773" y="-16.5" font-family="Helvetica,sans-Serif" font-size="10.00" fill="#000000">cx::HTTPRequest::Request</text>
<text text-anchor="middle" x="429.6343" y="-6.5" font-family="Helvetica,sans-Serif" font-size="10.00" fill="#000000">Params::start</text>
</a>
</g>
</g>
<!-- Node68&#45;&gt;Node69 -->
<g id="edge3" class="edge">
<title>Node68&#45;&gt;Node69</title>
<path fill="none" stroke="#191970" d="M324.9083,-14.5C333.2627,-14.5 341.8448,-14.5 350.3286,-14.5"/>
<polygon fill="#191970" stroke="#191970" points="350.6064,-18.0001 360.6063,-14.5 350.6063,-11.0001 350.6064,-18.0001"/>
</g>
</g>
</svg>
        <g id="navigator" transform="translate(0 0)" fill="#404254">
                <rect fill="#f2f5e9" fill-opacity="0.5" stroke="#606060" stroke-width=".5" x="0" y="0" width="60" height="60"/>
                <use id="zoomplus" xlink:href="#zoomPlus" x="17" y="9" onmousedown="handleZoom(evt,'in')"/>
                <use id="zoomminus" xlink:href="#zoomMin" x="42" y="9" onmousedown="handleZoom(evt,'out')"/>
                <use id="reset" xlink:href="#resetDef" x="30" y="36" onmousedown="handleReset()"/>
                <g id="arrowUp" xlink:href="#dirArrow" transform="translate(30 24)" onmousedown="handlePan(0,-1)">
                  <use xlink:href="#rim" fill="#404040">
                        <set attributeName="fill" to="#808080" begin="arrowUp.mouseover" end="arrowUp.mouseout"/>
                  </use>
                  <path fill="none" stroke="white" stroke-width="1.5" d="M0,-3.0v7 M-2.5,-0.5L0,-3.0L2.5,-0.5"/>
                </g>
                <g id="arrowRight" xlink:href="#dirArrow" transform="rotate(90) translate(36 -43)" onmousedown="handlePan(1,0)">
                  <use xlink:href="#rim" fill="#404040">
                        <set attributeName="fill" to="#808080" begin="arrowRight.mouseover" end="arrowRight.mouseout"/>
                  </use>
                  <path fill="none" stroke="white" stroke-width="1.5" d="M0,-3.0v7 M-2.5,-0.5L0,-3.0L2.5,-0.5"/>
                </g>
                <g id="arrowDown" xlink:href="#dirArrow" transform="rotate(180) translate(-30 -48)" onmousedown="handlePan(0,1)">
                  <use xlink:href="#rim" fill="#404040">
                        <set attributeName="fill" to="#808080" begin="arrowDown.mouseover" end="arrowDown.mouseout"/>
                  </use>
                  <path fill="none" stroke="white" stroke-width="1.5" d="M0,-3.0v7 M-2.5,-0.5L0,-3.0L2.5,-0.5"/>
                </g>
                <g id="arrowLeft" xlink:href="#dirArrow" transform="rotate(270) translate(-36 17)" onmousedown="handlePan(-1,0)">
                  <use xlink:href="#rim" fill="#404040">
                        <set attributeName="fill" to="#808080" begin="arrowLeft.mouseover" end="arrowLeft.mouseout"/>
                  </use>
                  <path fill="none" stroke="white" stroke-width="1.5" d="M0,-3.0v7 M-2.5,-0.5L0,-3.0L2.5,-0.5"/>
                </g>
        </g>
        <svg viewBox="0 0 15 15" width="100%" height="30px" preserveAspectRatio="xMaxYMin meet">
         <g id="arrow_out" transform="scale(0.3 0.3)">
          <a xlink:href="classcx_1_1web_1_1_a_p_iv4_wrapper_ab3d072c887b360689b60f66ab37beffa_cgraph_org.svg" target="_base">
           <rect id="button" ry="5" rx="5" y="6" x="6" height="38" width="38"
                fill="#f2f5e9" fill-opacity="0.5" stroke="#606060" stroke-width="1.0"/>
           <path id="arrow"
             d="M 11.500037,31.436501 C 11.940474,20.09759 22.043105,11.32322 32.158766,21.979434 L 37.068811,17.246167 C 37.068811,17.246167 37.088388,32 37.088388,32 L 22.160133,31.978069 C 22.160133,31.978069 26.997745,27.140456 26.997745,27.140456 C 18.528582,18.264221 13.291696,25.230495 11.500037,31.436501 z"
             style="fill:#404040;"/>
          </a>
         </g>
        </svg>
</svg>
