<?xml version="1.0" encoding="UTF-8" standalone="no"?>
<!DOCTYPE svg PUBLIC "-//W3C//DTD SVG 1.1//EN"
 "http://www.w3.org/Graphics/SVG/1.1/DTD/svg11.dtd">
<!-- Generated by graphviz version 2.40.1 (20161225.0304)
 -->
<!-- Title: fs::MeetingClientSession::setConferenceAttribute Pages: 1 -->
<svg width="458pt" height="173pt"
 viewBox="0.00 0.00 458.16 173.00" xmlns="http://www.w3.org/2000/svg" xmlns:xlink="http://www.w3.org/1999/xlink">
<g id="graph0" class="graph" transform="scale(1 1) rotate(0) translate(4 169)">
<title>fs::MeetingClientSession::setConferenceAttribute</title>
<!-- Node842 -->
<g id="node1" class="node">
<title>Node842</title>
<g id="a_node1"><a xlink:title=" ">
<polygon fill="#bfbfbf" stroke="#000000" points="0,-47.5 0,-75.5 126.0537,-75.5 126.0537,-47.5 0,-47.5"/>
<text text-anchor="start" x="8" y="-63.5" font-family="Helvetica,sans-Serif" font-size="10.00" fill="#000000">fs::MeetingClientSession</text>
<text text-anchor="middle" x="63.0269" y="-53.5" font-family="Helvetica,sans-Serif" font-size="10.00" fill="#000000">::setConferenceAttribute</text>
</a>
</g>
</g>
<!-- Node843 -->
<g id="node2" class="node">
<title>Node843</title>
<g id="a_node2"><a xlink:href="classfs_1_1_meeting_client_session.html#acb89f6f4b29eae9972038f35e46545c0" target="_top" xlink:title=" ">
<polygon fill="none" stroke="#000000" points="162.0537,-94.5 162.0537,-122.5 288.1074,-122.5 288.1074,-94.5 162.0537,-94.5"/>
<text text-anchor="start" x="170.0537" y="-110.5" font-family="Helvetica,sans-Serif" font-size="10.00" fill="#000000">fs::MeetingClientSession</text>
<text text-anchor="middle" x="225.0806" y="-100.5" font-family="Helvetica,sans-Serif" font-size="10.00" fill="#000000">::conferenceAttributeSet</text>
</a>
</g>
</g>
<!-- Node842&#45;&gt;Node843 -->
<g id="edge1" class="edge">
<title>Node842&#45;&gt;Node843</title>
<path fill="none" stroke="#191970" d="M111.6483,-75.6015C129.1133,-80.6669 148.9833,-86.4297 167.1602,-91.7015"/>
<polygon fill="#191970" stroke="#191970" points="166.1937,-95.0654 176.7729,-94.4894 168.1436,-88.3424 166.1937,-95.0654"/>
</g>
<!-- Node847 -->
<g id="node6" class="node">
<title>Node847</title>
<g id="a_node6"><a xlink:href="namespacefs_1_1meeting_1_1attribute.html#af6feb19539066711bf0a00a53cd1993f" target="_top" xlink:title=" ">
<polygon fill="none" stroke="#000000" points="171.7803,-47.5 171.7803,-75.5 278.3809,-75.5 278.3809,-47.5 171.7803,-47.5"/>
<text text-anchor="start" x="179.7803" y="-63.5" font-family="Helvetica,sans-Serif" font-size="10.00" fill="#000000">fs::meeting::attribute</text>
<text text-anchor="middle" x="225.0806" y="-53.5" font-family="Helvetica,sans-Serif" font-size="10.00" fill="#000000">::getName</text>
</a>
</g>
</g>
<!-- Node842&#45;&gt;Node847 -->
<g id="edge5" class="edge">
<title>Node842&#45;&gt;Node847</title>
<path fill="none" stroke="#191970" d="M126.1451,-61.5C137.7615,-61.5 149.8949,-61.5 161.5241,-61.5"/>
<polygon fill="#191970" stroke="#191970" points="161.5884,-65.0001 171.5883,-61.5 161.5883,-58.0001 161.5884,-65.0001"/>
</g>
<!-- Node848 -->
<g id="node7" class="node">
<title>Node848</title>
<g id="a_node7"><a xlink:href="namespacefs_1_1meeting_1_1attribute.html#a65366ef93118da5bb4bf7abae7dce25d" target="_top" xlink:title=" ">
<polygon fill="none" stroke="#000000" points="171.7803,-.5 171.7803,-28.5 278.3809,-28.5 278.3809,-.5 171.7803,-.5"/>
<text text-anchor="start" x="179.7803" y="-16.5" font-family="Helvetica,sans-Serif" font-size="10.00" fill="#000000">fs::meeting::attribute</text>
<text text-anchor="middle" x="225.0806" y="-6.5" font-family="Helvetica,sans-Serif" font-size="10.00" fill="#000000">::getValue</text>
</a>
</g>
</g>
<!-- Node842&#45;&gt;Node848 -->
<g id="edge6" class="edge">
<title>Node842&#45;&gt;Node848</title>
<path fill="none" stroke="#191970" d="M111.6483,-47.3985C129.1133,-42.3331 148.9833,-36.5703 167.1602,-31.2985"/>
<polygon fill="#191970" stroke="#191970" points="168.1436,-34.6576 176.7729,-28.5106 166.1937,-27.9346 168.1436,-34.6576"/>
</g>
<!-- Node844 -->
<g id="node3" class="node">
<title>Node844</title>
<g id="a_node3"><a xlink:href="classfs_1_1_meeting_client_session.html#ad2db541bceb2f60d39d34b3e443801d2" target="_top" xlink:title=" ">
<polygon fill="none" stroke="#000000" points="324.1074,-136.5 324.1074,-164.5 450.1611,-164.5 450.1611,-136.5 324.1074,-136.5"/>
<text text-anchor="start" x="332.1074" y="-152.5" font-family="Helvetica,sans-Serif" font-size="10.00" fill="#000000">fs::MeetingClientSession</text>
<text text-anchor="middle" x="387.1343" y="-142.5" font-family="Helvetica,sans-Serif" font-size="10.00" fill="#000000">::isInitialized</text>
</a>
</g>
</g>
<!-- Node843&#45;&gt;Node844 -->
<g id="edge2" class="edge">
<title>Node843&#45;&gt;Node844</title>
<path fill="none" stroke="#191970" d="M279.4929,-122.6022C293.4635,-126.223 308.6217,-130.1516 323.0322,-133.8865"/>
<polygon fill="#191970" stroke="#191970" points="322.3072,-137.3141 332.8655,-136.435 324.0635,-130.538 322.3072,-137.3141"/>
</g>
<!-- Node845 -->
<g id="node4" class="node">
<title>Node845</title>
<g id="a_node4"><a xlink:href="_meeting_client_session_8cxx.html#ab06e713e85f5d00e42ad86367c03f278" target="_top" xlink:title=" ">
<polygon fill="none" stroke="#000000" points="357.7305,-99.5 357.7305,-117.5 416.5381,-117.5 416.5381,-99.5 357.7305,-99.5"/>
<text text-anchor="middle" x="387.1343" y="-105.5" font-family="Helvetica,sans-Serif" font-size="10.00" fill="#000000">asio_post</text>
</a>
</g>
</g>
<!-- Node843&#45;&gt;Node845 -->
<g id="edge3" class="edge">
<title>Node843&#45;&gt;Node845</title>
<path fill="none" stroke="#191970" d="M288.1988,-108.5C308.1087,-108.5 329.5371,-108.5 347.3433,-108.5"/>
<polygon fill="#191970" stroke="#191970" points="347.3699,-112.0001 357.3699,-108.5 347.3698,-105.0001 347.3699,-112.0001"/>
</g>
<!-- Node846 -->
<g id="node5" class="node">
<title>Node846</title>
<g id="a_node5"><a xlink:href="classfs_1_1_meeting_client_session.html#a75e9c574fb9a84a95e9629dd91689dc0" target="_top" xlink:title=" ">
<polygon fill="none" stroke="#000000" points="324.1074,-52.5 324.1074,-80.5 450.1611,-80.5 450.1611,-52.5 324.1074,-52.5"/>
<text text-anchor="start" x="332.1074" y="-68.5" font-family="Helvetica,sans-Serif" font-size="10.00" fill="#000000">fs::MeetingClientSession</text>
<text text-anchor="middle" x="387.1343" y="-58.5" font-family="Helvetica,sans-Serif" font-size="10.00" fill="#000000">::ioService</text>
</a>
</g>
</g>
<!-- Node843&#45;&gt;Node846 -->
<g id="edge4" class="edge">
<title>Node843&#45;&gt;Node846</title>
<path fill="none" stroke="#191970" d="M279.4929,-94.3978C293.4635,-90.777 308.6217,-86.8484 323.0322,-83.1135"/>
<polygon fill="#191970" stroke="#191970" points="324.0635,-86.462 332.8655,-80.565 322.3072,-79.6859 324.0635,-86.462"/>
</g>
</g>
</svg>
