<?xml version="1.0" encoding="UTF-8" standalone="no"?>
<!DOCTYPE svg PUBLIC "-//W3C//DTD SVG 1.1//EN"
 "http://www.w3.org/Graphics/SVG/1.1/DTD/svg11.dtd">
<!-- Generated by graphviz version 2.40.1 (20161225.0304)
 -->
<!-- Title: fs::FSDirectorScrollWheelEventPkt Pages: 1 -->
<svg width="180pt" height="517pt"
 viewBox="0.00 0.00 180.43 517.00" xmlns="http://www.w3.org/2000/svg" xmlns:xlink="http://www.w3.org/1999/xlink">
<g id="graph0" class="graph" transform="scale(1 1) rotate(0) translate(4 513)">
<title>fs::FSDirectorScrollWheelEventPkt</title>
<!-- Node2 -->
<g id="node1" class="node">
<title>Node2</title>
<g id="a_node1"><a xlink:title=" ">
<polygon fill="#bfbfbf" stroke="#000000" points="0,-.5 0,-124.5 172.4307,-124.5 172.4307,-.5 0,-.5"/>
<text text-anchor="start" x="8" y="-112.5" font-family="Helvetica,sans-Serif" font-size="10.00" fill="#000000">fs::FSDirectorScrollWheel</text>
<text text-anchor="middle" x="86.2153" y="-102.5" font-family="Helvetica,sans-Serif" font-size="10.00" fill="#000000">EventPkt</text>
<polyline fill="none" stroke="#000000" points="0,-96.5 172.4307,-96.5 "/>
<text text-anchor="middle" x="86.2153" y="-84.5" font-family="Helvetica,sans-Serif" font-size="10.00" fill="#000000"> </text>
<polyline fill="none" stroke="#000000" points="0,-78.5 172.4307,-78.5 "/>
<text text-anchor="start" x="8" y="-66.5" font-family="Helvetica,sans-Serif" font-size="10.00" fill="#000000">+ FSDirectorScrollWheelEventPkt()</text>
<text text-anchor="start" x="8" y="-56.5" font-family="Helvetica,sans-Serif" font-size="10.00" fill="#000000">+ deltaX()</text>
<text text-anchor="start" x="8" y="-46.5" font-family="Helvetica,sans-Serif" font-size="10.00" fill="#000000">+ deltaY()</text>
<text text-anchor="start" x="8" y="-36.5" font-family="Helvetica,sans-Serif" font-size="10.00" fill="#000000">+ modifiers()</text>
<text text-anchor="start" x="8" y="-26.5" font-family="Helvetica,sans-Serif" font-size="10.00" fill="#000000">+ setDeltaX()</text>
<text text-anchor="start" x="8" y="-16.5" font-family="Helvetica,sans-Serif" font-size="10.00" fill="#000000">+ setDeltaY()</text>
<text text-anchor="start" x="8" y="-6.5" font-family="Helvetica,sans-Serif" font-size="10.00" fill="#000000">+ setModifiers()</text>
</a>
</g>
</g>
<!-- Node3 -->
<g id="node2" class="node">
<title>Node3</title>
<g id="a_node2"><a xlink:href="classfs_1_1_f_s_packet.html" target="_top" xlink:title=" ">
<polygon fill="none" stroke="#000000" points="45.9814,-162.5 45.9814,-276.5 126.4492,-276.5 126.4492,-162.5 45.9814,-162.5"/>
<text text-anchor="middle" x="86.2153" y="-264.5" font-family="Helvetica,sans-Serif" font-size="10.00" fill="#000000">fs::FSPacket</text>
<polyline fill="none" stroke="#000000" points="45.9814,-258.5 126.4492,-258.5 "/>
<text text-anchor="start" x="53.9814" y="-246.5" font-family="Helvetica,sans-Serif" font-size="10.00" fill="#000000"># m_iType</text>
<polyline fill="none" stroke="#000000" points="45.9814,-240.5 126.4492,-240.5 "/>
<text text-anchor="start" x="53.9814" y="-228.5" font-family="Helvetica,sans-Serif" font-size="10.00" fill="#000000">+ FSPacket()</text>
<text text-anchor="start" x="53.9814" y="-218.5" font-family="Helvetica,sans-Serif" font-size="10.00" fill="#000000">+ ~FSPacket()</text>
<text text-anchor="start" x="53.9814" y="-208.5" font-family="Helvetica,sans-Serif" font-size="10.00" fill="#000000">+ type()</text>
<text text-anchor="start" x="53.9814" y="-198.5" font-family="Helvetica,sans-Serif" font-size="10.00" fill="#000000">+ serialize()</text>
<text text-anchor="start" x="53.9814" y="-188.5" font-family="Helvetica,sans-Serif" font-size="10.00" fill="#000000">+ entry()</text>
<text text-anchor="start" x="53.9814" y="-178.5" font-family="Helvetica,sans-Serif" font-size="10.00" fill="#000000">+ setEntry()</text>
<text text-anchor="start" x="53.9814" y="-168.5" font-family="Helvetica,sans-Serif" font-size="10.00" fill="#000000">+ deserialize()</text>
</a>
</g>
</g>
<!-- Node3&#45;&gt;Node2 -->
<g id="edge1" class="edge">
<title>Node3&#45;&gt;Node2</title>
<path fill="none" stroke="#191970" d="M86.2153,-152.1641C86.2153,-143.0182 86.2153,-133.6659 86.2153,-124.6175"/>
<polygon fill="none" stroke="#191970" points="82.7154,-152.3752 86.2153,-162.3753 89.7154,-152.3753 82.7154,-152.3752"/>
</g>
<!-- Node4 -->
<g id="node3" class="node">
<title>Node4</title>
<g id="a_node3"><a xlink:title=" ">
<polygon fill="none" stroke="#bfbfbf" points="13.4692,-323.5 13.4692,-377.5 158.9614,-377.5 158.9614,-323.5 13.4692,-323.5"/>
<text text-anchor="middle" x="86.2153" y="-365.5" font-family="Helvetica,sans-Serif" font-size="10.00" fill="#000000">std::vector&lt; FSPktStream * &gt;</text>
<polyline fill="none" stroke="#bfbfbf" points="13.4692,-359.5 158.9614,-359.5 "/>
<text text-anchor="middle" x="86.2153" y="-347.5" font-family="Helvetica,sans-Serif" font-size="10.00" fill="#000000"> </text>
<polyline fill="none" stroke="#bfbfbf" points="13.4692,-341.5 158.9614,-341.5 "/>
<text text-anchor="middle" x="86.2153" y="-329.5" font-family="Helvetica,sans-Serif" font-size="10.00" fill="#000000"> </text>
</a>
</g>
</g>
<!-- Node4&#45;&gt;Node3 -->
<g id="edge2" class="edge">
<title>Node4&#45;&gt;Node3</title>
<path fill="none" stroke="#404040" d="M86.2153,-323.3567C86.2153,-313.1832 86.2153,-301.1036 86.2153,-288.8438"/>
<polygon fill="none" stroke="#404040" points="86.2154,-288.5878 82.2154,-282.5879 86.2153,-276.5878 90.2154,-282.5878 86.2154,-288.5878"/>
<text text-anchor="middle" x="115.3926" y="-297" font-family="Helvetica,sans-Serif" font-size="10.00" fill="#000000"> #m_xEntries</text>
</g>
<!-- Node5 -->
<g id="node4" class="node">
<title>Node5</title>
<g id="a_node4"><a xlink:href="classfs_1_1_f_s_pkt_stream.html" target="_top" xlink:title=" ">
<polygon fill="none" stroke="#000000" points="37.9272,-424.5 37.9272,-508.5 134.5034,-508.5 134.5034,-424.5 37.9272,-424.5"/>
<text text-anchor="middle" x="86.2153" y="-496.5" font-family="Helvetica,sans-Serif" font-size="10.00" fill="#000000">fs::FSPktStream</text>
<polyline fill="none" stroke="#000000" points="37.9272,-490.5 134.5034,-490.5 "/>
<text text-anchor="start" x="45.9272" y="-478.5" font-family="Helvetica,sans-Serif" font-size="10.00" fill="#000000"># m_pxObj</text>
<polyline fill="none" stroke="#000000" points="37.9272,-472.5 134.5034,-472.5 "/>
<text text-anchor="start" x="45.9272" y="-460.5" font-family="Helvetica,sans-Serif" font-size="10.00" fill="#000000">+ ~FSPktStream()</text>
<text text-anchor="start" x="45.9272" y="-450.5" font-family="Helvetica,sans-Serif" font-size="10.00" fill="#000000">+ read()</text>
<text text-anchor="start" x="45.9272" y="-440.5" font-family="Helvetica,sans-Serif" font-size="10.00" fill="#000000">+ write()</text>
<text text-anchor="start" x="45.9272" y="-430.5" font-family="Helvetica,sans-Serif" font-size="10.00" fill="#000000">+ object()</text>
</a>
</g>
</g>
<!-- Node5&#45;&gt;Node4 -->
<g id="edge3" class="edge">
<title>Node5&#45;&gt;Node4</title>
<path fill="none" stroke="#404040" d="M86.2153,-424.2932C86.2153,-412.9972 86.2153,-400.8361 86.2153,-389.7094"/>
<polygon fill="none" stroke="#404040" points="86.2154,-389.6877 82.2154,-383.6877 86.2153,-377.6877 90.2154,-383.6877 86.2154,-389.6877"/>
<text text-anchor="middle" x="110.8125" y="-398" font-family="Helvetica,sans-Serif" font-size="10.00" fill="#000000"> +elements</text>
</g>
</g>
</svg>
