<?xml version="1.0" encoding="UTF-8" standalone="no"?>
<!DOCTYPE svg PUBLIC "-//W3C//DTD SVG 1.1//EN"
 "http://www.w3.org/Graphics/SVG/1.1/DTD/svg11.dtd">
<!-- Generated by graphviz version 2.40.1 (20161225.0304)
 -->
<!-- Title: cx::web::CountryCodeEntity Pages: 1 -->
<!--zoomable 721 -->
<svg id="main" version="1.1" xmlns="http://www.w3.org/2000/svg" xmlns:xlink="http://www.w3.org/1999/xlink" xml:space="preserve" onload="init(evt)">
<style type="text/css"><![CDATA[
.edge:hover path { stroke: red; }
.edge:hover polygon { stroke: red; fill: red; }
]]></style>
<script type="text/javascript"><![CDATA[
var edges = document.getElementsByTagName('g');
if (edges && edges.length) {
  for (var i=0;i<edges.length;i++) {
    if (edges[i].id.substr(0,4)=='edge') {
      edges[i].setAttribute('class','edge');
    }
  }
}
]]></script>
        <defs>
                <circle id="rim" cx="0" cy="0" r="7"/>
                <circle id="rim2" cx="0" cy="0" r="3.5"/>
                <g id="zoomPlus">
                        <use xlink:href="#rim" fill="#404040">
                                <set attributeName="fill" to="#808080" begin="zoomplus.mouseover" end="zoomplus.mouseout"/>
                        </use>
                        <path d="M-4,0h8M0,-4v8" fill="none" stroke="white" stroke-width="1.5" pointer-events="none"/>
                </g>
                <g id="zoomMin">
                        <use xlink:href="#rim" fill="#404040">
                                <set attributeName="fill" to="#808080" begin="zoomminus.mouseover" end="zoomminus.mouseout"/>
                        </use>
                        <path d="M-4,0h8" fill="none" stroke="white" stroke-width="1.5" pointer-events="none"/>
                </g>
                <g id="dirArrow">
                        <path fill="none" stroke="white" stroke-width="1.5" d="M0,-3.0v7 M-2.5,-0.5L0,-3.0L2.5,-0.5"/>
                </g>
               <g id="resetDef">
                       <use xlink:href="#rim2" fill="#404040">
                               <set attributeName="fill" to="#808080" begin="reset.mouseover" end="reset.mouseout"/>
                       </use>
               </g>
        </defs>

<script type="text/javascript">
var viewWidth = 310;
var viewHeight = 721;
var sectionId = 'dynsection-1';
</script>
<script xlink:href="svgpan.js"/>
<svg id="graph" class="graph">
<g id="viewport">
<title>cx::web::CountryCodeEntity</title>
<!-- Node5 -->
<g id="node1" class="node">
<title>Node5</title>
<g id="a_node1"><a xlink:title=" ">
<polygon fill="#bfbfbf" stroke="#000000" points="0,-.5 0,-94.5 139.3887,-94.5 139.3887,-.5 0,-.5"/>
<text text-anchor="middle" x="69.6943" y="-82.5" font-family="Helvetica,sans-Serif" font-size="10.00" fill="#000000">cx::web::CountryCodeEntity</text>
<polyline fill="none" stroke="#000000" points="0,-76.5 139.3887,-76.5 "/>
<text text-anchor="middle" x="69.6943" y="-64.5" font-family="Helvetica,sans-Serif" font-size="10.00" fill="#000000"> </text>
<polyline fill="none" stroke="#000000" points="0,-58.5 139.3887,-58.5 "/>
<text text-anchor="start" x="8" y="-46.5" font-family="Helvetica,sans-Serif" font-size="10.00" fill="#000000">+ CountryCodeEntity()</text>
<text text-anchor="start" x="8" y="-36.5" font-family="Helvetica,sans-Serif" font-size="10.00" fill="#000000">+ CountryCodeEntity()</text>
<text text-anchor="start" x="8" y="-26.5" font-family="Helvetica,sans-Serif" font-size="10.00" fill="#000000">+ valid()</text>
<text text-anchor="start" x="8" y="-16.5" font-family="Helvetica,sans-Serif" font-size="10.00" fill="#000000">+ update()</text>
<text text-anchor="start" x="8" y="-6.5" font-family="Helvetica,sans-Serif" font-size="10.00" fill="#000000">+ printOn()</text>
</a>
</g>
</g>
<!-- Node6 -->
<g id="node2" class="node">
<title>Node6</title>
<g id="a_node2"><a xlink:href="structcx_1_1web_1_1data__entity.html" target="_top" xlink:title=" ">
<polygon fill="none" stroke="#000000" points="102.5024,-132.5 102.5024,-206.5 206.8862,-206.5 206.8862,-132.5 102.5024,-132.5"/>
<text text-anchor="middle" x="154.6943" y="-194.5" font-family="Helvetica,sans-Serif" font-size="10.00" fill="#000000">cx::web::data_entity</text>
<polyline fill="none" stroke="#000000" points="102.5024,-188.5 206.8862,-188.5 "/>
<text text-anchor="start" x="110.5024" y="-176.5" font-family="Helvetica,sans-Serif" font-size="10.00" fill="#000000">+ retcode</text>
<polyline fill="none" stroke="#000000" points="102.5024,-170.5 206.8862,-170.5 "/>
<text text-anchor="start" x="110.5024" y="-158.5" font-family="Helvetica,sans-Serif" font-size="10.00" fill="#000000">+ data_entity()</text>
<text text-anchor="start" x="110.5024" y="-148.5" font-family="Helvetica,sans-Serif" font-size="10.00" fill="#000000">+ data_entity()</text>
<text text-anchor="start" x="110.5024" y="-138.5" font-family="Helvetica,sans-Serif" font-size="10.00" fill="#000000">+ update()</text>
</a>
</g>
</g>
<!-- Node6&#45;&gt;Node5 -->
<g id="edge1" class="edge">
<title>Node6&#45;&gt;Node5</title>
<path fill="none" stroke="#191970" d="M122.8217,-123.7534C116.2566,-114.3306 109.33,-104.3888 102.7249,-94.9085"/>
<polygon fill="none" stroke="#191970" points="120.1413,-126.0289 128.7297,-132.2331 125.8848,-122.0273 120.1413,-126.0289"/>
</g>
<!-- Node7 -->
<g id="node3" class="node">
<title>Node7</title>
<g id="a_node3"><a xlink:href="structcx_1_1web_1_1json__entity.html" target="_top" xlink:title=" ">
<polygon fill="none" stroke="#000000" points="191.0615,-244.5 191.0615,-328.5 294.3271,-328.5 294.3271,-244.5 191.0615,-244.5"/>
<text text-anchor="middle" x="242.6943" y="-316.5" font-family="Helvetica,sans-Serif" font-size="10.00" fill="#000000">cx::web::json_entity</text>
<polyline fill="none" stroke="#000000" points="191.0615,-310.5 294.3271,-310.5 "/>
<text text-anchor="start" x="199.0615" y="-298.5" font-family="Helvetica,sans-Serif" font-size="10.00" fill="#000000">+ json</text>
<polyline fill="none" stroke="#000000" points="191.0615,-292.5 294.3271,-292.5 "/>
<text text-anchor="start" x="199.0615" y="-280.5" font-family="Helvetica,sans-Serif" font-size="10.00" fill="#000000">+ json_entity()</text>
<text text-anchor="start" x="199.0615" y="-270.5" font-family="Helvetica,sans-Serif" font-size="10.00" fill="#000000">+ json_entity()</text>
<text text-anchor="start" x="199.0615" y="-260.5" font-family="Helvetica,sans-Serif" font-size="10.00" fill="#000000">+ valid()</text>
<text text-anchor="start" x="199.0615" y="-250.5" font-family="Helvetica,sans-Serif" font-size="10.00" fill="#000000">+ get_json()</text>
</a>
</g>
</g>
<!-- Node7&#45;&gt;Node6 -->
<g id="edge2" class="edge">
<title>Node7&#45;&gt;Node6</title>
<path fill="none" stroke="#191970" d="M204.7569,-236.0604C197.3261,-226.1809 189.6602,-215.9887 182.6288,-206.6401"/>
<polygon fill="none" stroke="#191970" points="202.1162,-238.3723 210.9243,-244.2603 207.7105,-234.1647 202.1162,-238.3723"/>
</g>
<!-- Node8 -->
<g id="node4" class="node">
<title>Node8</title>
<g id="a_node4"><a xlink:href="structcx_1_1web_1_1string__entity.html" target="_top" xlink:title=" ">
<polygon fill="none" stroke="#000000" points="193.0073,-385.5 193.0073,-509.5 302.3813,-509.5 302.3813,-385.5 193.0073,-385.5"/>
<text text-anchor="middle" x="247.6943" y="-497.5" font-family="Helvetica,sans-Serif" font-size="10.00" fill="#000000">cx::web::string_entity</text>
<polyline fill="none" stroke="#000000" points="193.0073,-491.5 302.3813,-491.5 "/>
<text text-anchor="start" x="201.0073" y="-479.5" font-family="Helvetica,sans-Serif" font-size="10.00" fill="#000000">+ error_reason</text>
<text text-anchor="start" x="201.0073" y="-469.5" font-family="Helvetica,sans-Serif" font-size="10.00" fill="#000000">+ status</text>
<polyline fill="none" stroke="#000000" points="193.0073,-463.5 302.3813,-463.5 "/>
<text text-anchor="start" x="201.0073" y="-451.5" font-family="Helvetica,sans-Serif" font-size="10.00" fill="#000000">+ string_entity()</text>
<text text-anchor="start" x="201.0073" y="-441.5" font-family="Helvetica,sans-Serif" font-size="10.00" fill="#000000">+ string_entity()</text>
<text text-anchor="start" x="201.0073" y="-431.5" font-family="Helvetica,sans-Serif" font-size="10.00" fill="#000000">+ copy_from()</text>
<text text-anchor="start" x="201.0073" y="-421.5" font-family="Helvetica,sans-Serif" font-size="10.00" fill="#000000">+ valid()</text>
<text text-anchor="start" x="201.0073" y="-411.5" font-family="Helvetica,sans-Serif" font-size="10.00" fill="#000000">+ update()</text>
<text text-anchor="start" x="201.0073" y="-401.5" font-family="Helvetica,sans-Serif" font-size="10.00" fill="#000000">+ get_string()</text>
<text text-anchor="start" x="201.0073" y="-391.5" font-family="Helvetica,sans-Serif" font-size="10.00" fill="#000000">+ printOn()</text>
</a>
</g>
</g>
<!-- Node8&#45;&gt;Node7 -->
<g id="edge3" class="edge">
<title>Node8&#45;&gt;Node7</title>
<path fill="none" stroke="#191970" d="M245.4407,-374.9337C244.949,-359.0998 244.4444,-342.8526 244.0041,-328.6743"/>
<polygon fill="none" stroke="#191970" points="241.9524,-375.3667 245.7612,-385.2532 248.949,-375.1493 241.9524,-375.3667"/>
</g>
<!-- Node9 -->
<g id="node5" class="node">
<title>Node9</title>
<g id="a_node5"><a xlink:title=" ">
<polygon fill="none" stroke="#bfbfbf" points="219.9604,-556.5 219.9604,-610.5 275.4282,-610.5 275.4282,-556.5 219.9604,-556.5"/>
<text text-anchor="middle" x="247.6943" y="-598.5" font-family="Helvetica,sans-Serif" font-size="10.00" fill="#000000">Printable</text>
<polyline fill="none" stroke="#bfbfbf" points="219.9604,-592.5 275.4282,-592.5 "/>
<text text-anchor="middle" x="247.6943" y="-580.5" font-family="Helvetica,sans-Serif" font-size="10.00" fill="#000000"> </text>
<polyline fill="none" stroke="#bfbfbf" points="219.9604,-574.5 275.4282,-574.5 "/>
<text text-anchor="middle" x="247.6943" y="-562.5" font-family="Helvetica,sans-Serif" font-size="10.00" fill="#000000"> </text>
</a>
</g>
</g>
<!-- Node9&#45;&gt;Node8 -->
<g id="edge4" class="edge">
<title>Node9&#45;&gt;Node8</title>
<path fill="none" stroke="#191970" d="M247.6943,-545.9624C247.6943,-534.6655 247.6943,-521.9547 247.6943,-509.5132"/>
<polygon fill="none" stroke="#191970" points="244.1944,-546.3052 247.6943,-556.3052 251.1944,-546.3053 244.1944,-546.3052"/>
</g>
<!-- Node10 -->
<g id="node6" class="node">
<title>Node10</title>
<g id="a_node6"><a xlink:title="STL class.">
<polygon fill="none" stroke="#bfbfbf" points="125.0195,-556.5 125.0195,-610.5 184.3691,-610.5 184.3691,-556.5 125.0195,-556.5"/>
<text text-anchor="middle" x="154.6943" y="-598.5" font-family="Helvetica,sans-Serif" font-size="10.00" fill="#000000">std::string</text>
<polyline fill="none" stroke="#bfbfbf" points="125.0195,-592.5 184.3691,-592.5 "/>
<text text-anchor="middle" x="154.6943" y="-580.5" font-family="Helvetica,sans-Serif" font-size="10.00" fill="#000000"> </text>
<polyline fill="none" stroke="#bfbfbf" points="125.0195,-574.5 184.3691,-574.5 "/>
<text text-anchor="middle" x="154.6943" y="-562.5" font-family="Helvetica,sans-Serif" font-size="10.00" fill="#000000"> </text>
</a>
</g>
</g>
<!-- Node10&#45;&gt;Node5 -->
<g id="edge8" class="edge">
<title>Node10&#45;&gt;Node5</title>
<path fill="none" stroke="#404040" d="M124.7996,-560.7326C96.2987,-536.2048 57.6943,-494.3372 57.6943,-447.5 57.6943,-447.5 57.6943,-447.5 57.6943,-169.5 57.6943,-148.9671 59.3986,-126.5833 61.5227,-106.6599"/>
<polygon fill="none" stroke="#404040" points="61.5367,-106.5349 58.2378,-100.1227 62.8879,-94.6112 66.1869,-101.0235 61.5367,-106.5349"/>
<text text-anchor="middle" x="92.0229" y="-283.5" font-family="Helvetica,sans-Serif" font-size="10.00" fill="#000000"> +country_code</text>
</g>
<!-- Node10&#45;&gt;Node6 -->
<g id="edge7" class="edge">
<title>Node10&#45;&gt;Node6</title>
<path fill="none" stroke="#404040" d="M154.6943,-556.3363C154.6943,-487.6828 154.6943,-306.4471 154.6943,-218.6094"/>
<polygon fill="none" stroke="#404040" points="154.6944,-218.6041 150.6944,-212.6041 154.6943,-206.6041 158.6944,-212.604 154.6944,-218.6041"/>
<text text-anchor="middle" x="194.5698" y="-359" font-family="Helvetica,sans-Serif" font-size="10.00" fill="#000000"> +errorDescription</text>
<text text-anchor="middle" x="194.5698" y="-349" font-family="Helvetica,sans-Serif" font-size="10.00" fill="#000000">+errorStatus</text>
</g>
<!-- Node10&#45;&gt;Node8 -->
<g id="edge5" class="edge">
<title>Node10&#45;&gt;Node8</title>
<path fill="none" stroke="#404040" d="M173.2908,-556.3052C180.6406,-545.5571 189.4662,-532.6508 198.4294,-519.5433"/>
<polygon fill="none" stroke="#404040" points="198.5146,-519.4187 198.5996,-512.2081 205.2882,-509.5132 205.2033,-516.7238 198.5146,-519.4187"/>
<text text-anchor="middle" x="210.4048" y="-530" font-family="Helvetica,sans-Serif" font-size="10.00" fill="#000000"> +content</text>
</g>
<!-- Node11 -->
<g id="node7" class="node">
<title>Node11</title>
<g id="a_node7"><a xlink:title="STL class.">
<polygon fill="none" stroke="#bfbfbf" points="107.6465,-648.5 107.6465,-712.5 201.7422,-712.5 201.7422,-648.5 107.6465,-648.5"/>
<text text-anchor="start" x="115.6465" y="-700.5" font-family="Helvetica,sans-Serif" font-size="10.00" fill="#000000">std::basic_string&lt;</text>
<text text-anchor="middle" x="154.6943" y="-690.5" font-family="Helvetica,sans-Serif" font-size="10.00" fill="#000000"> char &gt;</text>
<polyline fill="none" stroke="#bfbfbf" points="107.6465,-684.5 201.7422,-684.5 "/>
<text text-anchor="middle" x="154.6943" y="-672.5" font-family="Helvetica,sans-Serif" font-size="10.00" fill="#000000"> </text>
<polyline fill="none" stroke="#bfbfbf" points="107.6465,-666.5 201.7422,-666.5 "/>
<text text-anchor="middle" x="154.6943" y="-654.5" font-family="Helvetica,sans-Serif" font-size="10.00" fill="#000000"> </text>
</a>
</g>
</g>
<!-- Node11&#45;&gt;Node10 -->
<g id="edge6" class="edge">
<title>Node11&#45;&gt;Node10</title>
<path fill="none" stroke="#191970" d="M154.6943,-638.4397C154.6943,-629.0133 154.6943,-619.2564 154.6943,-610.6277"/>
<polygon fill="none" stroke="#191970" points="151.1944,-638.4697 154.6943,-648.4697 158.1944,-638.4698 151.1944,-638.4697"/>
</g>
</g>
</svg>
        <g id="navigator" transform="translate(0 0)" fill="#404254">
                <rect fill="#f2f5e9" fill-opacity="0.5" stroke="#606060" stroke-width=".5" x="0" y="0" width="60" height="60"/>
                <use id="zoomplus" xlink:href="#zoomPlus" x="17" y="9" onmousedown="handleZoom(evt,'in')"/>
                <use id="zoomminus" xlink:href="#zoomMin" x="42" y="9" onmousedown="handleZoom(evt,'out')"/>
                <use id="reset" xlink:href="#resetDef" x="30" y="36" onmousedown="handleReset()"/>
                <g id="arrowUp" xlink:href="#dirArrow" transform="translate(30 24)" onmousedown="handlePan(0,-1)">
                  <use xlink:href="#rim" fill="#404040">
                        <set attributeName="fill" to="#808080" begin="arrowUp.mouseover" end="arrowUp.mouseout"/>
                  </use>
                  <path fill="none" stroke="white" stroke-width="1.5" d="M0,-3.0v7 M-2.5,-0.5L0,-3.0L2.5,-0.5"/>
                </g>
                <g id="arrowRight" xlink:href="#dirArrow" transform="rotate(90) translate(36 -43)" onmousedown="handlePan(1,0)">
                  <use xlink:href="#rim" fill="#404040">
                        <set attributeName="fill" to="#808080" begin="arrowRight.mouseover" end="arrowRight.mouseout"/>
                  </use>
                  <path fill="none" stroke="white" stroke-width="1.5" d="M0,-3.0v7 M-2.5,-0.5L0,-3.0L2.5,-0.5"/>
                </g>
                <g id="arrowDown" xlink:href="#dirArrow" transform="rotate(180) translate(-30 -48)" onmousedown="handlePan(0,1)">
                  <use xlink:href="#rim" fill="#404040">
                        <set attributeName="fill" to="#808080" begin="arrowDown.mouseover" end="arrowDown.mouseout"/>
                  </use>
                  <path fill="none" stroke="white" stroke-width="1.5" d="M0,-3.0v7 M-2.5,-0.5L0,-3.0L2.5,-0.5"/>
                </g>
                <g id="arrowLeft" xlink:href="#dirArrow" transform="rotate(270) translate(-36 17)" onmousedown="handlePan(-1,0)">
                  <use xlink:href="#rim" fill="#404040">
                        <set attributeName="fill" to="#808080" begin="arrowLeft.mouseover" end="arrowLeft.mouseout"/>
                  </use>
                  <path fill="none" stroke="white" stroke-width="1.5" d="M0,-3.0v7 M-2.5,-0.5L0,-3.0L2.5,-0.5"/>
                </g>
        </g>
        <svg viewBox="0 0 15 15" width="100%" height="30px" preserveAspectRatio="xMaxYMin meet">
         <g id="arrow_out" transform="scale(0.3 0.3)">
          <a xlink:href="classcx_1_1web_1_1_country_code_entity__coll__graph_org.svg" target="_base">
           <rect id="button" ry="5" rx="5" y="6" x="6" height="38" width="38"
                fill="#f2f5e9" fill-opacity="0.5" stroke="#606060" stroke-width="1.0"/>
           <path id="arrow"
             d="M 11.500037,31.436501 C 11.940474,20.09759 22.043105,11.32322 32.158766,21.979434 L 37.068811,17.246167 C 37.068811,17.246167 37.088388,32 37.088388,32 L 22.160133,31.978069 C 22.160133,31.978069 26.997745,27.140456 26.997745,27.140456 C 18.528582,18.264221 13.291696,25.230495 11.500037,31.436501 z"
             style="fill:#404040;"/>
          </a>
         </g>
        </svg>
</svg>
