<?xml version="1.0" encoding="UTF-8" standalone="no"?>
<!DOCTYPE svg PUBLIC "-//W3C//DTD SVG 1.1//EN"
 "http://www.w3.org/Graphics/SVG/1.1/DTD/svg11.dtd">
<!-- Generated by graphviz version 2.40.1 (20161225.0304)
 -->
<!-- Title: fs::FSPacket Pages: 1 -->
<svg width="153pt" height="355pt"
 viewBox="0.00 0.00 153.49 355.00" xmlns="http://www.w3.org/2000/svg" xmlns:xlink="http://www.w3.org/1999/xlink">
<g id="graph0" class="graph" transform="scale(1 1) rotate(0) translate(4 351)">
<title>fs::FSPacket</title>
<!-- Node20 -->
<g id="node1" class="node">
<title>Node20</title>
<g id="a_node1"><a xlink:title=" ">
<polygon fill="#bfbfbf" stroke="#000000" points="32.5122,-.5 32.5122,-114.5 112.98,-114.5 112.98,-.5 32.5122,-.5"/>
<text text-anchor="middle" x="72.7461" y="-102.5" font-family="Helvetica,sans-Serif" font-size="10.00" fill="#000000">fs::FSPacket</text>
<polyline fill="none" stroke="#000000" points="32.5122,-96.5 112.98,-96.5 "/>
<text text-anchor="start" x="40.5122" y="-84.5" font-family="Helvetica,sans-Serif" font-size="10.00" fill="#000000"># m_iType</text>
<polyline fill="none" stroke="#000000" points="32.5122,-78.5 112.98,-78.5 "/>
<text text-anchor="start" x="40.5122" y="-66.5" font-family="Helvetica,sans-Serif" font-size="10.00" fill="#000000">+ FSPacket()</text>
<text text-anchor="start" x="40.5122" y="-56.5" font-family="Helvetica,sans-Serif" font-size="10.00" fill="#000000">+ ~FSPacket()</text>
<text text-anchor="start" x="40.5122" y="-46.5" font-family="Helvetica,sans-Serif" font-size="10.00" fill="#000000">+ type()</text>
<text text-anchor="start" x="40.5122" y="-36.5" font-family="Helvetica,sans-Serif" font-size="10.00" fill="#000000">+ serialize()</text>
<text text-anchor="start" x="40.5122" y="-26.5" font-family="Helvetica,sans-Serif" font-size="10.00" fill="#000000">+ entry()</text>
<text text-anchor="start" x="40.5122" y="-16.5" font-family="Helvetica,sans-Serif" font-size="10.00" fill="#000000">+ setEntry()</text>
<text text-anchor="start" x="40.5122" y="-6.5" font-family="Helvetica,sans-Serif" font-size="10.00" fill="#000000">+ deserialize()</text>
</a>
</g>
</g>
<!-- Node21 -->
<g id="node2" class="node">
<title>Node21</title>
<g id="a_node2"><a xlink:title=" ">
<polygon fill="none" stroke="#bfbfbf" points="0,-161.5 0,-215.5 145.4922,-215.5 145.4922,-161.5 0,-161.5"/>
<text text-anchor="middle" x="72.7461" y="-203.5" font-family="Helvetica,sans-Serif" font-size="10.00" fill="#000000">std::vector&lt; FSPktStream * &gt;</text>
<polyline fill="none" stroke="#bfbfbf" points="0,-197.5 145.4922,-197.5 "/>
<text text-anchor="middle" x="72.7461" y="-185.5" font-family="Helvetica,sans-Serif" font-size="10.00" fill="#000000"> </text>
<polyline fill="none" stroke="#bfbfbf" points="0,-179.5 145.4922,-179.5 "/>
<text text-anchor="middle" x="72.7461" y="-167.5" font-family="Helvetica,sans-Serif" font-size="10.00" fill="#000000"> </text>
</a>
</g>
</g>
<!-- Node21&#45;&gt;Node20 -->
<g id="edge1" class="edge">
<title>Node21&#45;&gt;Node20</title>
<path fill="none" stroke="#404040" d="M72.7461,-161.3567C72.7461,-151.1832 72.7461,-139.1036 72.7461,-126.8438"/>
<polygon fill="none" stroke="#404040" points="72.7462,-126.5878 68.7461,-120.5879 72.7461,-114.5878 76.7461,-120.5878 72.7462,-126.5878"/>
<text text-anchor="middle" x="101.9233" y="-135" font-family="Helvetica,sans-Serif" font-size="10.00" fill="#000000"> #m_xEntries</text>
</g>
<!-- Node22 -->
<g id="node3" class="node">
<title>Node22</title>
<g id="a_node3"><a xlink:href="classfs_1_1_f_s_pkt_stream.html" target="_top" xlink:title=" ">
<polygon fill="none" stroke="#000000" points="24.458,-262.5 24.458,-346.5 121.0342,-346.5 121.0342,-262.5 24.458,-262.5"/>
<text text-anchor="middle" x="72.7461" y="-334.5" font-family="Helvetica,sans-Serif" font-size="10.00" fill="#000000">fs::FSPktStream</text>
<polyline fill="none" stroke="#000000" points="24.458,-328.5 121.0342,-328.5 "/>
<text text-anchor="start" x="32.458" y="-316.5" font-family="Helvetica,sans-Serif" font-size="10.00" fill="#000000"># m_pxObj</text>
<polyline fill="none" stroke="#000000" points="24.458,-310.5 121.0342,-310.5 "/>
<text text-anchor="start" x="32.458" y="-298.5" font-family="Helvetica,sans-Serif" font-size="10.00" fill="#000000">+ ~FSPktStream()</text>
<text text-anchor="start" x="32.458" y="-288.5" font-family="Helvetica,sans-Serif" font-size="10.00" fill="#000000">+ read()</text>
<text text-anchor="start" x="32.458" y="-278.5" font-family="Helvetica,sans-Serif" font-size="10.00" fill="#000000">+ write()</text>
<text text-anchor="start" x="32.458" y="-268.5" font-family="Helvetica,sans-Serif" font-size="10.00" fill="#000000">+ object()</text>
</a>
</g>
</g>
<!-- Node22&#45;&gt;Node21 -->
<g id="edge2" class="edge">
<title>Node22&#45;&gt;Node21</title>
<path fill="none" stroke="#404040" d="M72.7461,-262.2932C72.7461,-250.9972 72.7461,-238.8361 72.7461,-227.7094"/>
<polygon fill="none" stroke="#404040" points="72.7462,-227.6877 68.7461,-221.6877 72.7461,-215.6877 76.7461,-221.6877 72.7462,-227.6877"/>
<text text-anchor="middle" x="97.3433" y="-236" font-family="Helvetica,sans-Serif" font-size="10.00" fill="#000000"> +elements</text>
</g>
</g>
</svg>
