<?xml version="1.0" encoding="UTF-8" standalone="no"?>
<!DOCTYPE svg PUBLIC "-//W3C//DTD SVG 1.1//EN"
 "http://www.w3.org/Graphics/SVG/1.1/DTD/svg11.dtd">
<!-- Generated by graphviz version 2.40.1 (20161225.0304)
 -->
<!-- Title: fs::ScreenSharingController::stopBroadcasting Pages: 1 -->
<svg width="324pt" height="131pt"
 viewBox="0.00 0.00 323.90 131.00" xmlns="http://www.w3.org/2000/svg" xmlns:xlink="http://www.w3.org/1999/xlink">
<g id="graph0" class="graph" transform="scale(1 1) rotate(0) translate(4 127)">
<title>fs::ScreenSharingController::stopBroadcasting</title>
<!-- Node294 -->
<g id="node1" class="node">
<title>Node294</title>
<g id="a_node1"><a xlink:title=" ">
<polygon fill="#bfbfbf" stroke="#000000" points="177.0635,-47.5 177.0635,-75.5 315.9004,-75.5 315.9004,-47.5 177.0635,-47.5"/>
<text text-anchor="start" x="185.0635" y="-63.5" font-family="Helvetica,sans-Serif" font-size="10.00" fill="#000000">fs::ScreenSharingController</text>
<text text-anchor="middle" x="246.4819" y="-53.5" font-family="Helvetica,sans-Serif" font-size="10.00" fill="#000000">::stopBroadcasting</text>
</a>
</g>
</g>
<!-- Node295 -->
<g id="node2" class="node">
<title>Node295</title>
<g id="a_node2"><a xlink:href="classfs_1_1_screen_sharing_controller.html#a03c5318918528e5f1efae2ad1f5655f3" target="_top" xlink:title=" ">
<polygon fill="none" stroke="#000000" points="0,-94.5 0,-122.5 141.0635,-122.5 141.0635,-94.5 0,-94.5"/>
<text text-anchor="start" x="8" y="-110.5" font-family="Helvetica,sans-Serif" font-size="10.00" fill="#000000">fs::ScreenSharingController</text>
<text text-anchor="middle" x="70.5317" y="-100.5" font-family="Helvetica,sans-Serif" font-size="10.00" fill="#000000">::cancelBroadcastPromotion</text>
</a>
</g>
</g>
<!-- Node294&#45;&gt;Node295 -->
<g id="edge1" class="edge">
<title>Node294&#45;&gt;Node295</title>
<path fill="none" stroke="#191970" d="M183.7856,-78.2475C163.88,-83.5647 142.0877,-89.3859 122.9819,-94.4894"/>
<polygon fill="#191970" stroke="#191970" points="184.9331,-81.5638 193.6911,-75.6015 183.1265,-74.8009 184.9331,-81.5638"/>
</g>
<!-- Node296 -->
<g id="node3" class="node">
<title>Node296</title>
<g id="a_node3"><a xlink:href="classfs_1_1_screen_sharing_controller.html#a2f58e17961216f8c253889531cc18f6a" target="_top" xlink:title=" ">
<polygon fill="none" stroke="#000000" points="1.1133,-47.5 1.1133,-75.5 139.9502,-75.5 139.9502,-47.5 1.1133,-47.5"/>
<text text-anchor="start" x="9.1133" y="-63.5" font-family="Helvetica,sans-Serif" font-size="10.00" fill="#000000">fs::ScreenSharingController</text>
<text text-anchor="middle" x="70.5317" y="-53.5" font-family="Helvetica,sans-Serif" font-size="10.00" fill="#000000">::stopBroadcastPromotion</text>
</a>
</g>
</g>
<!-- Node294&#45;&gt;Node296 -->
<g id="edge2" class="edge">
<title>Node294&#45;&gt;Node296</title>
<path fill="none" stroke="#191970" d="M166.9239,-61.5C157.9894,-61.5 148.9381,-61.5 140.143,-61.5"/>
<polygon fill="#191970" stroke="#191970" points="166.9418,-65.0001 176.9418,-61.5 166.9417,-58.0001 166.9418,-65.0001"/>
</g>
<!-- Node297 -->
<g id="node4" class="node">
<title>Node297</title>
<g id="a_node4"><a xlink:href="classfs_1_1_screen_sharing_controller.html#a7545ce28f9fdc33090bb8cc3b5cde8c0" target="_top" xlink:title=" ">
<polygon fill="none" stroke="#000000" points="1.1133,-.5 1.1133,-28.5 139.9502,-28.5 139.9502,-.5 1.1133,-.5"/>
<text text-anchor="start" x="9.1133" y="-16.5" font-family="Helvetica,sans-Serif" font-size="10.00" fill="#000000">fs::ScreenSharingController</text>
<text text-anchor="middle" x="70.5317" y="-6.5" font-family="Helvetica,sans-Serif" font-size="10.00" fill="#000000">::stopPresenter</text>
</a>
</g>
</g>
<!-- Node294&#45;&gt;Node297 -->
<g id="edge3" class="edge">
<title>Node294&#45;&gt;Node297</title>
<path fill="none" stroke="#191970" d="M183.7856,-44.7525C163.88,-39.4353 142.0877,-33.6141 122.9819,-28.5106"/>
<polygon fill="#191970" stroke="#191970" points="183.1265,-48.1991 193.6911,-47.3985 184.9331,-41.4362 183.1265,-48.1991"/>
</g>
</g>
</svg>
