<?xml version="1.0" encoding="UTF-8" standalone="no"?>
<!DOCTYPE svg PUBLIC "-//W3C//DTD SVG 1.1//EN"
 "http://www.w3.org/Graphics/SVG/1.1/DTD/svg11.dtd">
<!-- Generated by graphviz version 2.40.1 (20161225.0304)
 -->
<!-- Title: cx::meeting::MeetingSessionProxy::rt Pages: 1 -->
<svg width="345pt" height="94pt"
 viewBox="0.00 0.00 344.55 94.00" xmlns="http://www.w3.org/2000/svg" xmlns:xlink="http://www.w3.org/1999/xlink">
<g id="graph0" class="graph" transform="scale(1 1) rotate(0) translate(4 90)">
<title>cx::meeting::MeetingSessionProxy::rt</title>
<!-- Node147 -->
<g id="node1" class="node">
<title>Node147</title>
<g id="a_node1"><a xlink:title=" ">
<polygon fill="#bfbfbf" stroke="#000000" points="0,-26.5 0,-54.5 143.8418,-54.5 143.8418,-26.5 0,-26.5"/>
<text text-anchor="start" x="8" y="-42.5" font-family="Helvetica,sans-Serif" font-size="10.00" fill="#000000">cx::meeting::MeetingSession</text>
<text text-anchor="middle" x="71.9209" y="-32.5" font-family="Helvetica,sans-Serif" font-size="10.00" fill="#000000">Proxy::rt</text>
</a>
</g>
</g>
<!-- Node148 -->
<g id="node2" class="node">
<title>Node148</title>
<g id="a_node2"><a xlink:href="classcx_1_1meeting_1_1_meeting_feature_impl.html#a544244b1b0c8e35a1b9d8b80ee1d6755" target="_top" xlink:title=" ">
<polygon fill="none" stroke="#000000" points="179.8418,-47.5 179.8418,-85.5 336.5498,-85.5 336.5498,-47.5 179.8418,-47.5"/>
<text text-anchor="start" x="187.8418" y="-73.5" font-family="Helvetica,sans-Serif" font-size="10.00" fill="#000000">cx::meeting::MeetingFeature</text>
<text text-anchor="start" x="187.8418" y="-63.5" font-family="Helvetica,sans-Serif" font-size="10.00" fill="#000000">Impl&lt; RawRTMessagesFeature</text>
<text text-anchor="middle" x="258.1958" y="-53.5" font-family="Helvetica,sans-Serif" font-size="10.00" fill="#000000"> &gt;::instance</text>
</a>
</g>
</g>
<!-- Node147&#45;&gt;Node148 -->
<g id="edge1" class="edge">
<title>Node147&#45;&gt;Node148</title>
<path fill="none" stroke="#191970" d="M143.9396,-50.5523C152.3283,-51.7232 160.9582,-52.9277 169.5373,-54.1252"/>
<polygon fill="#191970" stroke="#191970" points="169.1797,-57.6091 179.5676,-55.5252 170.1475,-50.6763 169.1797,-57.6091"/>
</g>
<!-- Node149 -->
<g id="node3" class="node">
<title>Node149</title>
<g id="a_node3"><a xlink:href="classcx_1_1meeting_1_1_meeting_session_proxy.html#a81e0a34d4a76c794a8a2a511bc7f2870" target="_top" xlink:title=" ">
<polygon fill="none" stroke="#000000" points="186.2749,-.5 186.2749,-28.5 330.1167,-28.5 330.1167,-.5 186.2749,-.5"/>
<text text-anchor="start" x="194.2749" y="-16.5" font-family="Helvetica,sans-Serif" font-size="10.00" fill="#000000">cx::meeting::MeetingSession</text>
<text text-anchor="middle" x="258.1958" y="-6.5" font-family="Helvetica,sans-Serif" font-size="10.00" fill="#000000">Proxy::requestFeature</text>
</a>
</g>
</g>
<!-- Node147&#45;&gt;Node149 -->
<g id="edge2" class="edge">
<title>Node147&#45;&gt;Node149</title>
<path fill="none" stroke="#191970" d="M143.9396,-30.4477C154.4134,-28.9858 165.2633,-27.4714 175.9209,-25.9838"/>
<polygon fill="#191970" stroke="#191970" points="176.6414,-29.4173 186.0615,-24.5684 175.6736,-22.4845 176.6414,-29.4173"/>
</g>
</g>
</svg>
