<?xml version="1.0" encoding="UTF-8" standalone="no"?>
<!DOCTYPE svg PUBLIC "-//W3C//DTD SVG 1.1//EN"
 "http://www.w3.org/Graphics/SVG/1.1/DTD/svg11.dtd">
<!-- Generated by graphviz version 2.40.1 (20161225.0304)
 -->
<!-- Title: fs::MeetingClientSession::disableScreenSharing Pages: 1 -->
<svg width="302pt" height="121pt"
 viewBox="0.00 0.00 302.24 121.00" xmlns="http://www.w3.org/2000/svg" xmlns:xlink="http://www.w3.org/1999/xlink">
<g id="graph0" class="graph" transform="scale(1 1) rotate(0) translate(4 117)">
<title>fs::MeetingClientSession::disableScreenSharing</title>
<!-- Node77 -->
<g id="node1" class="node">
<title>Node77</title>
<g id="a_node1"><a xlink:title=" ">
<polygon fill="#bfbfbf" stroke="#000000" points="0,-47.5 0,-75.5 126.0537,-75.5 126.0537,-47.5 0,-47.5"/>
<text text-anchor="start" x="8" y="-63.5" font-family="Helvetica,sans-Serif" font-size="10.00" fill="#000000">fs::MeetingClientSession</text>
<text text-anchor="middle" x="63.0269" y="-53.5" font-family="Helvetica,sans-Serif" font-size="10.00" fill="#000000">::disableScreenSharing</text>
</a>
</g>
</g>
<!-- Node78 -->
<g id="node2" class="node">
<title>Node78</title>
<g id="a_node2"><a xlink:href="_meeting_client_session_8cxx.html#ab06e713e85f5d00e42ad86367c03f278" target="_top" xlink:title=" ">
<polygon fill="none" stroke="#000000" points="198.7407,-94.5 198.7407,-112.5 257.5483,-112.5 257.5483,-94.5 198.7407,-94.5"/>
<text text-anchor="middle" x="228.1445" y="-100.5" font-family="Helvetica,sans-Serif" font-size="10.00" fill="#000000">asio_post</text>
</a>
</g>
</g>
<!-- Node77&#45;&gt;Node78 -->
<g id="edge1" class="edge">
<title>Node77&#45;&gt;Node78</title>
<path fill="none" stroke="#191970" d="M118.468,-75.6022C141.4948,-81.4594 167.6878,-88.122 188.7009,-93.467"/>
<polygon fill="#191970" stroke="#191970" points="188.0095,-96.9025 198.5638,-95.9757 189.7352,-90.1185 188.0095,-96.9025"/>
</g>
<!-- Node79 -->
<g id="node3" class="node">
<title>Node79</title>
<g id="a_node3"><a xlink:href="classfs_1_1_meeting_client_session.html#a75e9c574fb9a84a95e9629dd91689dc0" target="_top" xlink:title=" ">
<polygon fill="none" stroke="#000000" points="165.1177,-47.5 165.1177,-75.5 291.1714,-75.5 291.1714,-47.5 165.1177,-47.5"/>
<text text-anchor="start" x="173.1177" y="-63.5" font-family="Helvetica,sans-Serif" font-size="10.00" fill="#000000">fs::MeetingClientSession</text>
<text text-anchor="middle" x="228.1445" y="-53.5" font-family="Helvetica,sans-Serif" font-size="10.00" fill="#000000">::ioService</text>
</a>
</g>
</g>
<!-- Node77&#45;&gt;Node79 -->
<g id="edge2" class="edge">
<title>Node77&#45;&gt;Node79</title>
<path fill="none" stroke="#191970" d="M126.3934,-61.5C135.677,-61.5 145.3033,-61.5 154.7666,-61.5"/>
<polygon fill="#191970" stroke="#191970" points="154.9475,-65.0001 164.9475,-61.5 154.9475,-58.0001 154.9475,-65.0001"/>
</g>
<!-- Node80 -->
<g id="node4" class="node">
<title>Node80</title>
<g id="a_node4"><a xlink:href="classfs_1_1_meeting_client_session.html#a1d983786de74ae740ff6fa0e7775e12e" target="_top" xlink:title=" ">
<polygon fill="none" stroke="#000000" points="162.0537,-.5 162.0537,-28.5 294.2354,-28.5 294.2354,-.5 162.0537,-.5"/>
<text text-anchor="start" x="170.0537" y="-16.5" font-family="Helvetica,sans-Serif" font-size="10.00" fill="#000000">fs::MeetingClientSession</text>
<text text-anchor="middle" x="228.1445" y="-6.5" font-family="Helvetica,sans-Serif" font-size="10.00" fill="#000000">::onDisableScreenSharing</text>
</a>
</g>
</g>
<!-- Node77&#45;&gt;Node80 -->
<g id="edge3" class="edge">
<title>Node77&#45;&gt;Node80</title>
<path fill="none" stroke="#191970" d="M112.5676,-47.3985C130.3628,-42.3331 150.6085,-36.5703 169.1291,-31.2985"/>
<polygon fill="#191970" stroke="#191970" points="170.2637,-34.6146 178.9235,-28.5106 168.3473,-27.882 170.2637,-34.6146"/>
</g>
</g>
</svg>
