<?xml version="1.0" encoding="UTF-8" standalone="no"?>
<!DOCTYPE svg PUBLIC "-//W3C//DTD SVG 1.1//EN"
 "http://www.w3.org/Graphics/SVG/1.1/DTD/svg11.dtd">
<!-- Generated by graphviz version 2.40.1 (20161225.0304)
 -->
<!-- Title: cx::web::CountryCodeEntity::valid Pages: 1 -->
<svg width="577pt" height="84pt"
 viewBox="0.00 0.00 577.40 84.00" xmlns="http://www.w3.org/2000/svg" xmlns:xlink="http://www.w3.org/1999/xlink">
<g id="graph0" class="graph" transform="scale(1 1) rotate(0) translate(4 80)">
<title>cx::web::CountryCodeEntity::valid</title>
<!-- Node12 -->
<g id="node1" class="node">
<title>Node12</title>
<g id="a_node1"><a xlink:title=" ">
<polygon fill="#bfbfbf" stroke="#000000" points="0,-21.5 0,-49.5 139.3887,-49.5 139.3887,-21.5 0,-21.5"/>
<text text-anchor="start" x="8" y="-37.5" font-family="Helvetica,sans-Serif" font-size="10.00" fill="#000000">cx::web::CountryCodeEntity</text>
<text text-anchor="middle" x="69.6943" y="-27.5" font-family="Helvetica,sans-Serif" font-size="10.00" fill="#000000">::valid</text>
</a>
</g>
</g>
<!-- Node13 -->
<g id="node2" class="node">
<title>Node13</title>
<g id="a_node2"><a xlink:href="structcx_1_1web_1_1json__entity.html#aa681ca07ba01ea1346649b9bb01c71af" target="_top" xlink:title=" ">
<polygon fill="none" stroke="#000000" points="175.3887,-43.5 175.3887,-71.5 278.6543,-71.5 278.6543,-43.5 175.3887,-43.5"/>
<text text-anchor="start" x="183.3887" y="-59.5" font-family="Helvetica,sans-Serif" font-size="10.00" fill="#000000">cx::web::json_entity</text>
<text text-anchor="middle" x="227.0215" y="-49.5" font-family="Helvetica,sans-Serif" font-size="10.00" fill="#000000">::valid</text>
</a>
</g>
</g>
<!-- Node12&#45;&gt;Node13 -->
<g id="edge1" class="edge">
<title>Node12&#45;&gt;Node13</title>
<path fill="none" stroke="#191970" d="M139.6165,-45.2776C148.1348,-46.4688 156.7915,-47.6793 165.1805,-48.8524"/>
<polygon fill="#191970" stroke="#191970" points="164.8646,-52.3422 175.253,-50.2609 165.8341,-45.4097 164.8646,-52.3422"/>
</g>
<!-- Node15 -->
<g id="node4" class="node">
<title>Node15</title>
<g id="a_node4"><a xlink:href="structcx_1_1web_1_1json__entity.html#a1fbed015492bb7a0c4ec31550fc3de1d" target="_top" xlink:title=" ">
<polygon fill="none" stroke="#000000" points="317.7085,-.5 317.7085,-28.5 420.9741,-28.5 420.9741,-.5 317.7085,-.5"/>
<text text-anchor="start" x="325.7085" y="-16.5" font-family="Helvetica,sans-Serif" font-size="10.00" fill="#000000">cx::web::json_entity</text>
<text text-anchor="middle" x="369.3413" y="-6.5" font-family="Helvetica,sans-Serif" font-size="10.00" fill="#000000">::get_json</text>
</a>
</g>
</g>
<!-- Node12&#45;&gt;Node15 -->
<g id="edge5" class="edge">
<title>Node12&#45;&gt;Node15</title>
<path fill="none" stroke="#191970" d="M139.5701,-30.6029C190.4275,-27.0387 258.6661,-22.2564 307.5408,-18.8311"/>
<polygon fill="#191970" stroke="#191970" points="307.9321,-22.3124 317.663,-18.1217 307.4427,-15.3295 307.9321,-22.3124"/>
</g>
<!-- Node14 -->
<g id="node3" class="node">
<title>Node14</title>
<g id="a_node3"><a xlink:href="structcx_1_1web_1_1string__entity.html#adbe62e791cc18ea9f4ae7fc45468c32c" target="_top" xlink:title=" ">
<polygon fill="none" stroke="#000000" points="314.6543,-47.5 314.6543,-75.5 424.0283,-75.5 424.0283,-47.5 314.6543,-47.5"/>
<text text-anchor="start" x="322.6543" y="-63.5" font-family="Helvetica,sans-Serif" font-size="10.00" fill="#000000">cx::web::string_entity</text>
<text text-anchor="middle" x="369.3413" y="-53.5" font-family="Helvetica,sans-Serif" font-size="10.00" fill="#000000">::valid</text>
</a>
</g>
</g>
<!-- Node13&#45;&gt;Node14 -->
<g id="edge2" class="edge">
<title>Node13&#45;&gt;Node14</title>
<path fill="none" stroke="#191970" d="M278.8048,-58.9554C287.145,-59.1898 295.8697,-59.435 304.4708,-59.6768"/>
<polygon fill="#191970" stroke="#191970" points="304.3862,-63.1757 314.4806,-59.9581 304.5829,-56.1784 304.3862,-63.1757"/>
</g>
<!-- Node13&#45;&gt;Node15 -->
<g id="edge3" class="edge">
<title>Node13&#45;&gt;Node15</title>
<path fill="none" stroke="#191970" d="M273.6223,-43.4202C286.1548,-39.6337 299.8457,-35.4972 312.8529,-31.5672"/>
<polygon fill="#191970" stroke="#191970" points="314.0755,-34.8542 322.6358,-28.6114 312.0509,-28.1533 314.0755,-34.8542"/>
</g>
<!-- Node16 -->
<g id="node5" class="node">
<title>Node16</title>
<g id="a_node5"><a xlink:href="structcx_1_1web_1_1string__entity.html#a532443f26d829f9d361289d856513ff4" target="_top" xlink:title=" ">
<polygon fill="none" stroke="#000000" points="460.0283,-.5 460.0283,-28.5 569.4023,-28.5 569.4023,-.5 460.0283,-.5"/>
<text text-anchor="start" x="468.0283" y="-16.5" font-family="Helvetica,sans-Serif" font-size="10.00" fill="#000000">cx::web::string_entity</text>
<text text-anchor="middle" x="514.7153" y="-6.5" font-family="Helvetica,sans-Serif" font-size="10.00" fill="#000000">::get_string</text>
</a>
</g>
</g>
<!-- Node15&#45;&gt;Node16 -->
<g id="edge4" class="edge">
<title>Node15&#45;&gt;Node16</title>
<path fill="none" stroke="#191970" d="M421.0041,-14.5C430.2337,-14.5 439.9582,-14.5 449.5086,-14.5"/>
<polygon fill="#191970" stroke="#191970" points="449.7719,-18.0001 459.7718,-14.5 449.7718,-11.0001 449.7719,-18.0001"/>
</g>
</g>
</svg>
