<?xml version="1.0" encoding="UTF-8" standalone="no"?>
<!DOCTYPE svg PUBLIC "-//W3C//DTD SVG 1.1//EN"
 "http://www.w3.org/Graphics/SVG/1.1/DTD/svg11.dtd">
<!-- Generated by graphviz version 2.40.1 (20161225.0304)
 -->
<!-- Title: cx::web::APIv3Wrapper Pages: 1 -->
<!--zoomable 1607 -->
<svg id="main" version="1.1" xmlns="http://www.w3.org/2000/svg" xmlns:xlink="http://www.w3.org/1999/xlink" xml:space="preserve" onload="init(evt)">
<style type="text/css"><![CDATA[
.edge:hover path { stroke: red; }
.edge:hover polygon { stroke: red; fill: red; }
]]></style>
<script type="text/javascript"><![CDATA[
var edges = document.getElementsByTagName('g');
if (edges && edges.length) {
  for (var i=0;i<edges.length;i++) {
    if (edges[i].id.substr(0,4)=='edge') {
      edges[i].setAttribute('class','edge');
    }
  }
}
]]></script>
        <defs>
                <circle id="rim" cx="0" cy="0" r="7"/>
                <circle id="rim2" cx="0" cy="0" r="3.5"/>
                <g id="zoomPlus">
                        <use xlink:href="#rim" fill="#404040">
                                <set attributeName="fill" to="#808080" begin="zoomplus.mouseover" end="zoomplus.mouseout"/>
                        </use>
                        <path d="M-4,0h8M0,-4v8" fill="none" stroke="white" stroke-width="1.5" pointer-events="none"/>
                </g>
                <g id="zoomMin">
                        <use xlink:href="#rim" fill="#404040">
                                <set attributeName="fill" to="#808080" begin="zoomminus.mouseover" end="zoomminus.mouseout"/>
                        </use>
                        <path d="M-4,0h8" fill="none" stroke="white" stroke-width="1.5" pointer-events="none"/>
                </g>
                <g id="dirArrow">
                        <path fill="none" stroke="white" stroke-width="1.5" d="M0,-3.0v7 M-2.5,-0.5L0,-3.0L2.5,-0.5"/>
                </g>
               <g id="resetDef">
                       <use xlink:href="#rim2" fill="#404040">
                               <set attributeName="fill" to="#808080" begin="reset.mouseover" end="reset.mouseout"/>
                       </use>
               </g>
        </defs>

<script type="text/javascript">
var viewWidth = 504;
var viewHeight = 1607;
var sectionId = 'dynsection-1';
</script>
<script xlink:href="svgpan.js"/>
<svg id="graph" class="graph">
<g id="viewport">
<title>cx::web::APIv3Wrapper</title>
<!-- Node4 -->
<g id="node1" class="node">
<title>Node4</title>
<g id="a_node1"><a xlink:title=" ">
<polygon fill="#bfbfbf" stroke="#000000" points="160.5161,-.5 160.5161,-304.5 341.3062,-304.5 341.3062,-.5 160.5161,-.5"/>
<text text-anchor="middle" x="250.9111" y="-292.5" font-family="Helvetica,sans-Serif" font-size="10.00" fill="#000000">cx::web::APIv3Wrapper</text>
<polyline fill="none" stroke="#000000" points="160.5161,-286.5 341.3062,-286.5 "/>
<text text-anchor="middle" x="250.9111" y="-274.5" font-family="Helvetica,sans-Serif" font-size="10.00" fill="#000000"> </text>
<polyline fill="none" stroke="#000000" points="160.5161,-268.5 341.3062,-268.5 "/>
<text text-anchor="start" x="168.5161" y="-256.5" font-family="Helvetica,sans-Serif" font-size="10.00" fill="#000000">+ APIv3Wrapper()</text>
<text text-anchor="start" x="168.5161" y="-246.5" font-family="Helvetica,sans-Serif" font-size="10.00" fill="#000000">+ ~APIv3Wrapper()</text>
<text text-anchor="start" x="168.5161" y="-236.5" font-family="Helvetica,sans-Serif" font-size="10.00" fill="#000000">+ refreshAccessToken()</text>
<text text-anchor="start" x="168.5161" y="-226.5" font-family="Helvetica,sans-Serif" font-size="10.00" fill="#000000">+ getCountryCode()</text>
<text text-anchor="start" x="168.5161" y="-216.5" font-family="Helvetica,sans-Serif" font-size="10.00" fill="#000000">+ getAccessToken()</text>
<text text-anchor="start" x="168.5161" y="-206.5" font-family="Helvetica,sans-Serif" font-size="10.00" fill="#000000">+ getSharedConfig()</text>
<text text-anchor="start" x="168.5161" y="-196.5" font-family="Helvetica,sans-Serif" font-size="10.00" fill="#000000">+ getEquipment()</text>
<text text-anchor="start" x="168.5161" y="-186.5" font-family="Helvetica,sans-Serif" font-size="10.00" fill="#000000">+ getRecording()</text>
<text text-anchor="start" x="168.5161" y="-176.5" font-family="Helvetica,sans-Serif" font-size="10.00" fill="#000000">+ getWall()</text>
<text text-anchor="start" x="168.5161" y="-166.5" font-family="Helvetica,sans-Serif" font-size="10.00" fill="#000000">+ getCustomerService()</text>
<text text-anchor="start" x="168.5161" y="-156.5" font-family="Helvetica,sans-Serif" font-size="10.00" fill="#000000">+ getUser()</text>
<text text-anchor="start" x="168.5161" y="-146.5" font-family="Helvetica,sans-Serif" font-size="10.00" fill="#000000">+ getInvitationText()</text>
<text text-anchor="start" x="168.5161" y="-136.5" font-family="Helvetica,sans-Serif" font-size="10.00" fill="#000000">+ getShortURL()</text>
<text text-anchor="start" x="168.5161" y="-126.5" font-family="Helvetica,sans-Serif" font-size="10.00" fill="#000000">+ postVote()</text>
<text text-anchor="start" x="168.5161" y="-116.5" font-family="Helvetica,sans-Serif" font-size="10.00" fill="#000000">+ updateSubscription()</text>
<text text-anchor="start" x="168.5161" y="-106.5" font-family="Helvetica,sans-Serif" font-size="10.00" fill="#000000">+ getConference()</text>
<text text-anchor="start" x="168.5161" y="-96.5" font-family="Helvetica,sans-Serif" font-size="10.00" fill="#000000">+ getConferenceList()</text>
<text text-anchor="start" x="168.5161" y="-86.5" font-family="Helvetica,sans-Serif" font-size="10.00" fill="#000000">+ getSubscriptionByEmailPassword()</text>
<text text-anchor="start" x="168.5161" y="-76.5" font-family="Helvetica,sans-Serif" font-size="10.00" fill="#000000">+ getSubscriptionByMeetingId()</text>
<text text-anchor="start" x="168.5161" y="-66.5" font-family="Helvetica,sans-Serif" font-size="10.00" fill="#000000">+ getSubscriptionBySubscriptionId()</text>
<text text-anchor="start" x="168.5161" y="-56.5" font-family="Helvetica,sans-Serif" font-size="10.00" fill="#000000">+ getSubscriptionByAccessToken()</text>
<text text-anchor="start" x="168.5161" y="-46.5" font-family="Helvetica,sans-Serif" font-size="10.00" fill="#000000">+ getSubscriptionByFacebook</text>
<text text-anchor="start" x="168.5161" y="-36.5" font-family="Helvetica,sans-Serif" font-size="10.00" fill="#000000">Token()</text>
<text text-anchor="start" x="168.5161" y="-26.5" font-family="Helvetica,sans-Serif" font-size="10.00" fill="#000000">+ getBroadcastResources()</text>
<text text-anchor="start" x="168.5161" y="-16.5" font-family="Helvetica,sans-Serif" font-size="10.00" fill="#000000">+ sendUserVote()</text>
<text text-anchor="start" x="168.5161" y="-6.5" font-family="Helvetica,sans-Serif" font-size="10.00" fill="#000000"># generateSIG()</text>
</a>
</g>
</g>
<!-- Node5 -->
<g id="node2" class="node">
<title>Node5</title>
<g id="a_node2"><a xlink:href="classcx_1_1web_1_1_result_builder.html" target="_top" xlink:title=" ">
<polygon fill="none" stroke="#000000" points="184.7104,-342.5 184.7104,-476.5 317.1118,-476.5 317.1118,-342.5 184.7104,-342.5"/>
<text text-anchor="start" x="192.7104" y="-464.5" font-family="Helvetica,sans-Serif" font-size="10.00" fill="#000000">cx::web::ResultBuilder</text>
<text text-anchor="middle" x="250.9111" y="-454.5" font-family="Helvetica,sans-Serif" font-size="10.00" fill="#000000">&lt; ResponseHandler &gt;</text>
<polyline fill="none" stroke="#000000" points="184.7104,-448.5 317.1118,-448.5 "/>
<text text-anchor="middle" x="250.9111" y="-436.5" font-family="Helvetica,sans-Serif" font-size="10.00" fill="#000000"> </text>
<polyline fill="none" stroke="#000000" points="184.7104,-430.5 317.1118,-430.5 "/>
<text text-anchor="start" x="192.7104" y="-418.5" font-family="Helvetica,sans-Serif" font-size="10.00" fill="#000000">+ ResultBuilder()</text>
<text text-anchor="start" x="192.7104" y="-408.5" font-family="Helvetica,sans-Serif" font-size="10.00" fill="#000000">+ ResultBuilder()</text>
<text text-anchor="start" x="192.7104" y="-398.5" font-family="Helvetica,sans-Serif" font-size="10.00" fill="#000000">+ OVERRIDE_METHOD()</text>
<text text-anchor="start" x="192.7104" y="-388.5" font-family="Helvetica,sans-Serif" font-size="10.00" fill="#000000">+ OVERRIDE_METHOD()</text>
<text text-anchor="start" x="192.7104" y="-378.5" font-family="Helvetica,sans-Serif" font-size="10.00" fill="#000000">+ OVERRIDE_METHOD()</text>
<text text-anchor="start" x="192.7104" y="-368.5" font-family="Helvetica,sans-Serif" font-size="10.00" fill="#000000">+ onRequestProgress()</text>
<text text-anchor="start" x="192.7104" y="-358.5" font-family="Helvetica,sans-Serif" font-size="10.00" fill="#000000">+ onRequestSuccess()</text>
<text text-anchor="start" x="192.7104" y="-348.5" font-family="Helvetica,sans-Serif" font-size="10.00" fill="#000000">+ onRequestError()</text>
</a>
</g>
</g>
<!-- Node5&#45;&gt;Node4 -->
<g id="edge1" class="edge">
<title>Node5&#45;&gt;Node4</title>
<path fill="none" stroke="#006400" d="M250.9111,-332.199C250.9111,-323.4247 250.9111,-314.2696 250.9111,-304.94"/>
<polygon fill="none" stroke="#006400" points="247.4112,-332.3119 250.9111,-342.312 254.4112,-332.312 247.4112,-332.3119"/>
</g>
<!-- Node6 -->
<g id="node3" class="node">
<title>Node6</title>
<g id="a_node3"><a xlink:href="classcx_1_1_h_t_t_p_request_container.html" target="_top" xlink:title=" ">
<polygon fill="none" stroke="#000000" points="61.9951,-606.5 61.9951,-710.5 205.8271,-710.5 205.8271,-606.5 61.9951,-606.5"/>
<text text-anchor="middle" x="133.9111" y="-698.5" font-family="Helvetica,sans-Serif" font-size="10.00" fill="#000000">cx::HTTPRequestContainer</text>
<polyline fill="none" stroke="#000000" points="61.9951,-692.5 205.8271,-692.5 "/>
<text text-anchor="middle" x="133.9111" y="-680.5" font-family="Helvetica,sans-Serif" font-size="10.00" fill="#000000"> </text>
<polyline fill="none" stroke="#000000" points="61.9951,-674.5 205.8271,-674.5 "/>
<text text-anchor="start" x="69.9951" y="-662.5" font-family="Helvetica,sans-Serif" font-size="10.00" fill="#000000">+ HTTPRequestContainer()</text>
<text text-anchor="start" x="69.9951" y="-652.5" font-family="Helvetica,sans-Serif" font-size="10.00" fill="#000000">+ ~HTTPRequestContainer()</text>
<text text-anchor="start" x="69.9951" y="-642.5" font-family="Helvetica,sans-Serif" font-size="10.00" fill="#000000">+ request()</text>
<text text-anchor="start" x="69.9951" y="-632.5" font-family="Helvetica,sans-Serif" font-size="10.00" fill="#000000">+ cancelAll()</text>
<text text-anchor="start" x="69.9951" y="-622.5" font-family="Helvetica,sans-Serif" font-size="10.00" fill="#000000"># onRequestSuccess()</text>
<text text-anchor="start" x="69.9951" y="-612.5" font-family="Helvetica,sans-Serif" font-size="10.00" fill="#000000"># onRequestError()</text>
</a>
</g>
</g>
<!-- Node6&#45;&gt;Node5 -->
<g id="edge2" class="edge">
<title>Node6&#45;&gt;Node5</title>
<path fill="none" stroke="#191970" d="M151.0454,-596.3394C158.42,-572.8602 167.8947,-546.221 178.9111,-523 186.2627,-507.5041 195.3279,-491.5502 204.5168,-476.6786"/>
<polygon fill="none" stroke="#191970" points="147.6104,-595.6021 148.0151,-606.1892 154.3009,-597.6605 147.6104,-595.6021"/>
</g>
<!-- Node7 -->
<g id="node4" class="node">
<title>Node7</title>
<g id="a_node4"><a xlink:href="structcx_1_1_h_t_t_p_request_1_1_h_t_t_p_request_delegate.html" target="_top" xlink:title=" ">
<polygon fill="none" stroke="#000000" points="0,-1025.5 0,-1119.5 163.8223,-1119.5 163.8223,-1025.5 0,-1025.5"/>
<text text-anchor="start" x="8" y="-1107.5" font-family="Helvetica,sans-Serif" font-size="10.00" fill="#000000">cx::HTTPRequest::HTTPRequest</text>
<text text-anchor="middle" x="81.9111" y="-1097.5" font-family="Helvetica,sans-Serif" font-size="10.00" fill="#000000">Delegate</text>
<polyline fill="none" stroke="#000000" points="0,-1091.5 163.8223,-1091.5 "/>
<text text-anchor="middle" x="81.9111" y="-1079.5" font-family="Helvetica,sans-Serif" font-size="10.00" fill="#000000"> </text>
<polyline fill="none" stroke="#000000" points="0,-1073.5 163.8223,-1073.5 "/>
<text text-anchor="start" x="8" y="-1061.5" font-family="Helvetica,sans-Serif" font-size="10.00" fill="#000000">+ ~HTTPRequestDelegate()</text>
<text text-anchor="start" x="8" y="-1051.5" font-family="Helvetica,sans-Serif" font-size="10.00" fill="#000000">+ onRequestSuccess()</text>
<text text-anchor="start" x="8" y="-1041.5" font-family="Helvetica,sans-Serif" font-size="10.00" fill="#000000">+ onRequestError()</text>
<text text-anchor="start" x="8" y="-1031.5" font-family="Helvetica,sans-Serif" font-size="10.00" fill="#000000">+ onRequestProgress()</text>
</a>
</g>
</g>
<!-- Node7&#45;&gt;Node6 -->
<g id="edge3" class="edge">
<title>Node7&#45;&gt;Node6</title>
<path fill="none" stroke="#8b1a1a" d="M89.0787,-1015.4351C99.2073,-934.7961 117.5623,-788.662 127.35,-710.7367"/>
<polygon fill="none" stroke="#8b1a1a" points="85.5992,-1015.0537 87.8256,-1025.412 92.5446,-1015.9262 85.5992,-1015.0537"/>
</g>
<!-- Node12 -->
<g id="node9" class="node">
<title>Node12</title>
<g id="a_node9"><a xlink:href="classcx_1_1_h_t_t_p_request.html" target="_top" xlink:title=" ">
<polygon fill="none" stroke="#000000" points="175.6528,-729.5 175.6528,-953.5 326.1694,-953.5 326.1694,-729.5 175.6528,-729.5"/>
<text text-anchor="middle" x="250.9111" y="-941.5" font-family="Helvetica,sans-Serif" font-size="10.00" fill="#000000">cx::HTTPRequest</text>
<polyline fill="none" stroke="#000000" points="175.6528,-935.5 326.1694,-935.5 "/>
<text text-anchor="start" x="183.6528" y="-923.5" font-family="Helvetica,sans-Serif" font-size="10.00" fill="#000000"># response</text>
<text text-anchor="start" x="183.6528" y="-913.5" font-family="Helvetica,sans-Serif" font-size="10.00" fill="#000000"># cancelled</text>
<text text-anchor="start" x="183.6528" y="-903.5" font-family="Helvetica,sans-Serif" font-size="10.00" fill="#000000"># completed</text>
<text text-anchor="start" x="183.6528" y="-893.5" font-family="Helvetica,sans-Serif" font-size="10.00" fill="#000000"># httpFinalStatus</text>
<text text-anchor="start" x="183.6528" y="-883.5" font-family="Helvetica,sans-Serif" font-size="10.00" fill="#000000"># bytesArrived</text>
<polyline fill="none" stroke="#000000" points="175.6528,-877.5 326.1694,-877.5 "/>
<text text-anchor="start" x="183.6528" y="-865.5" font-family="Helvetica,sans-Serif" font-size="10.00" fill="#000000">+ execute()</text>
<text text-anchor="start" x="183.6528" y="-855.5" font-family="Helvetica,sans-Serif" font-size="10.00" fill="#000000">+ cancel()</text>
<text text-anchor="start" x="183.6528" y="-845.5" font-family="Helvetica,sans-Serif" font-size="10.00" fill="#000000">+ deliverError()</text>
<text text-anchor="start" x="183.6528" y="-835.5" font-family="Helvetica,sans-Serif" font-size="10.00" fill="#000000">+ getResponse()</text>
<text text-anchor="start" x="183.6528" y="-825.5" font-family="Helvetica,sans-Serif" font-size="10.00" fill="#000000">+ setProxy()</text>
<text text-anchor="start" x="183.6528" y="-815.5" font-family="Helvetica,sans-Serif" font-size="10.00" fill="#000000"># generateRequestHdr()</text>
<text text-anchor="start" x="183.6528" y="-805.5" font-family="Helvetica,sans-Serif" font-size="10.00" fill="#000000"># onFinalResponseReceived()</text>
<text text-anchor="start" x="183.6528" y="-795.5" font-family="Helvetica,sans-Serif" font-size="10.00" fill="#000000"># deliverError()</text>
<text text-anchor="start" x="183.6528" y="-785.5" font-family="Helvetica,sans-Serif" font-size="10.00" fill="#000000"># HTTPRequest()</text>
<text text-anchor="start" x="183.6528" y="-775.5" font-family="Helvetica,sans-Serif" font-size="10.00" fill="#000000"># ~HTTPRequest()</text>
<text text-anchor="start" x="183.6528" y="-765.5" font-family="Helvetica,sans-Serif" font-size="10.00" fill="#000000"># is_json_response()</text>
<text text-anchor="start" x="183.6528" y="-755.5" font-family="Helvetica,sans-Serif" font-size="10.00" fill="#000000"># is_text_response()</text>
<text text-anchor="start" x="183.6528" y="-745.5" font-family="Helvetica,sans-Serif" font-size="10.00" fill="#000000"># is_empty_content_type()</text>
<text text-anchor="start" x="183.6528" y="-735.5" font-family="Helvetica,sans-Serif" font-size="10.00" fill="#000000"># createAuth()</text>
</a>
</g>
</g>
<!-- Node7&#45;&gt;Node12 -->
<g id="edge14" class="edge">
<title>Node7&#45;&gt;Node12</title>
<path fill="none" stroke="#404040" d="M116.3145,-1025.4753C131.3949,-1004.8624 149.8071,-979.6955 168.1127,-954.6742"/>
<polygon fill="none" stroke="#404040" points="168.3034,-954.4135 168.6179,-947.2092 175.3889,-944.7286 175.0744,-951.9329 168.3034,-954.4135"/>
<text text-anchor="middle" x="192.7729" y="-974" font-family="Helvetica,sans-Serif" font-size="10.00" fill="#000000"> #requestDelegate</text>
</g>
<!-- Node8 -->
<g id="node5" class="node">
<title>Node8</title>
<g id="a_node5"><a xlink:href="structcx_1_1web_1_1_configuration.html" target="_top" xlink:title=" ">
<polygon fill="none" stroke="#000000" points="381.4409,-1163.5 381.4409,-1247.5 496.3813,-1247.5 496.3813,-1163.5 381.4409,-1163.5"/>
<text text-anchor="middle" x="438.9111" y="-1235.5" font-family="Helvetica,sans-Serif" font-size="10.00" fill="#000000">cx::web::Configuration</text>
<polyline fill="none" stroke="#000000" points="381.4409,-1229.5 496.3813,-1229.5 "/>
<text text-anchor="start" x="389.4409" y="-1217.5" font-family="Helvetica,sans-Serif" font-size="10.00" fill="#000000">+ version</text>
<polyline fill="none" stroke="#000000" points="381.4409,-1211.5 496.3813,-1211.5 "/>
<text text-anchor="start" x="389.4409" y="-1199.5" font-family="Helvetica,sans-Serif" font-size="10.00" fill="#000000">+ Configuration()</text>
<text text-anchor="start" x="389.4409" y="-1189.5" font-family="Helvetica,sans-Serif" font-size="10.00" fill="#000000">+ Configuration()</text>
<text text-anchor="start" x="389.4409" y="-1179.5" font-family="Helvetica,sans-Serif" font-size="10.00" fill="#000000">+ Configuration()</text>
<text text-anchor="start" x="389.4409" y="-1169.5" font-family="Helvetica,sans-Serif" font-size="10.00" fill="#000000">* version</text>
</a>
</g>
</g>
<!-- Node8&#45;&gt;Node5 -->
<g id="edge4" class="edge">
<title>Node8&#45;&gt;Node5</title>
<path fill="none" stroke="#404040" d="M438.9111,-1163.3855C438.9111,-1117.5377 438.9111,-1042.059 438.9111,-977 438.9111,-977 438.9111,-977 438.9111,-555.5 438.9111,-496.402 380.2445,-457.7704 328.4559,-435.1813"/>
<polygon fill="none" stroke="#404040" points="328.2621,-435.1002 321.1828,-436.4729 317.1929,-430.4662 324.2722,-429.0935 328.2621,-435.1002"/>
<text text-anchor="middle" x="456.4233" y="-838.5" font-family="Helvetica,sans-Serif" font-size="10.00" fill="#000000"> #config</text>
</g>
<!-- Node9 -->
<g id="node6" class="node">
<title>Node9</title>
<g id="a_node6"><a xlink:title="STL class.">
<polygon fill="none" stroke="#bfbfbf" points="326.2363,-1442.5 326.2363,-1496.5 385.5859,-1496.5 385.5859,-1442.5 326.2363,-1442.5"/>
<text text-anchor="middle" x="355.9111" y="-1484.5" font-family="Helvetica,sans-Serif" font-size="10.00" fill="#000000">std::string</text>
<polyline fill="none" stroke="#bfbfbf" points="326.2363,-1478.5 385.5859,-1478.5 "/>
<text text-anchor="middle" x="355.9111" y="-1466.5" font-family="Helvetica,sans-Serif" font-size="10.00" fill="#000000"> </text>
<polyline fill="none" stroke="#bfbfbf" points="326.2363,-1460.5 385.5859,-1460.5 "/>
<text text-anchor="middle" x="355.9111" y="-1448.5" font-family="Helvetica,sans-Serif" font-size="10.00" fill="#000000"> </text>
</a>
</g>
</g>
<!-- Node9&#45;&gt;Node8 -->
<g id="edge5" class="edge">
<title>Node9&#45;&gt;Node8</title>
<path fill="none" stroke="#404040" d="M385.6413,-1449.6213C394.3065,-1442.4843 403.0177,-1433.7578 408.9111,-1424 438.9854,-1374.2058 443.93,-1306.56 442.9796,-1259.7875"/>
<polygon fill="none" stroke="#404040" points="442.9792,-1259.7702 438.7903,-1253.9005 442.5974,-1247.7762 446.7863,-1253.6459 442.9792,-1259.7702"/>
<text text-anchor="middle" x="452.8999" y="-1416" font-family="Helvetica,sans-Serif" font-size="10.00" fill="#000000"> +client_id</text>
<text text-anchor="middle" x="452.8999" y="-1406" font-family="Helvetica,sans-Serif" font-size="10.00" fill="#000000">+client_secret</text>
<text text-anchor="middle" x="452.8999" y="-1396" font-family="Helvetica,sans-Serif" font-size="10.00" fill="#000000">+base_url</text>
</g>
<!-- Node14 -->
<g id="node11" class="node">
<title>Node14</title>
<g id="a_node11"><a xlink:href="structcx_1_1_h_t_t_p_request_1_1_request_params.html" target="_top" xlink:title=" ">
<polygon fill="none" stroke="#000000" points="182.0542,-1000.5 182.0542,-1144.5 319.7681,-1144.5 319.7681,-1000.5 182.0542,-1000.5"/>
<text text-anchor="start" x="190.0542" y="-1132.5" font-family="Helvetica,sans-Serif" font-size="10.00" fill="#000000">cx::HTTPRequest::Request</text>
<text text-anchor="middle" x="250.9111" y="-1122.5" font-family="Helvetica,sans-Serif" font-size="10.00" fill="#000000">Params</text>
<polyline fill="none" stroke="#000000" points="182.0542,-1116.5 319.7681,-1116.5 "/>
<text text-anchor="start" x="190.0542" y="-1104.5" font-family="Helvetica,sans-Serif" font-size="10.00" fill="#000000">+ output</text>
<text text-anchor="start" x="190.0542" y="-1094.5" font-family="Helvetica,sans-Serif" font-size="10.00" fill="#000000">+ fileName</text>
<text text-anchor="start" x="190.0542" y="-1084.5" font-family="Helvetica,sans-Serif" font-size="10.00" fill="#000000">+ method</text>
<text text-anchor="start" x="190.0542" y="-1074.5" font-family="Helvetica,sans-Serif" font-size="10.00" fill="#000000">+ proxyPort</text>
<text text-anchor="start" x="190.0542" y="-1064.5" font-family="Helvetica,sans-Serif" font-size="10.00" fill="#000000">+ needProgress</text>
<text text-anchor="start" x="190.0542" y="-1054.5" font-family="Helvetica,sans-Serif" font-size="10.00" fill="#000000">+ needUploadProgress</text>
<text text-anchor="start" x="190.0542" y="-1044.5" font-family="Helvetica,sans-Serif" font-size="10.00" fill="#000000">+ upload</text>
<polyline fill="none" stroke="#000000" points="182.0542,-1038.5 319.7681,-1038.5 "/>
<text text-anchor="start" x="190.0542" y="-1026.5" font-family="Helvetica,sans-Serif" font-size="10.00" fill="#000000">+ RequestParams()</text>
<text text-anchor="start" x="190.0542" y="-1016.5" font-family="Helvetica,sans-Serif" font-size="10.00" fill="#000000">+ RequestParams()</text>
<text text-anchor="start" x="190.0542" y="-1006.5" font-family="Helvetica,sans-Serif" font-size="10.00" fill="#000000">+ start()</text>
</a>
</g>
</g>
<!-- Node9&#45;&gt;Node14 -->
<g id="edge13" class="edge">
<title>Node9&#45;&gt;Node14</title>
<path fill="none" stroke="#404040" d="M326.1902,-1459.4109C292.4944,-1446.1804 239.2381,-1419.4078 216.042,-1376 179.8613,-1308.2935 195.7401,-1220.1285 216.3759,-1156.2831"/>
<polygon fill="none" stroke="#404040" points="216.4596,-1156.0332 214.5736,-1149.0731 220.2729,-1144.6552 222.1589,-1151.6153 216.4596,-1156.0332"/>
<text text-anchor="middle" x="254.8457" y="-1368" font-family="Helvetica,sans-Serif" font-size="10.00" fill="#000000"> +auth</text>
<text text-anchor="middle" x="254.8457" y="-1358" font-family="Helvetica,sans-Serif" font-size="10.00" fill="#000000">+url</text>
<text text-anchor="middle" x="254.8457" y="-1348" font-family="Helvetica,sans-Serif" font-size="10.00" fill="#000000">+password</text>
<text text-anchor="middle" x="254.8457" y="-1338" font-family="Helvetica,sans-Serif" font-size="10.00" fill="#000000">+strHeaders</text>
<text text-anchor="middle" x="254.8457" y="-1328" font-family="Helvetica,sans-Serif" font-size="10.00" fill="#000000">+attachFileName</text>
<text text-anchor="middle" x="254.8457" y="-1318" font-family="Helvetica,sans-Serif" font-size="10.00" fill="#000000">+globalProxy</text>
<text text-anchor="middle" x="254.8457" y="-1308" font-family="Helvetica,sans-Serif" font-size="10.00" fill="#000000">+body</text>
<text text-anchor="middle" x="254.8457" y="-1298" font-family="Helvetica,sans-Serif" font-size="10.00" fill="#000000">+proxyHost</text>
<text text-anchor="middle" x="254.8457" y="-1288" font-family="Helvetica,sans-Serif" font-size="10.00" fill="#000000">+strContentType</text>
<text text-anchor="middle" x="254.8457" y="-1278" font-family="Helvetica,sans-Serif" font-size="10.00" fill="#000000">+username</text>
<text text-anchor="middle" x="254.8457" y="-1268" font-family="Helvetica,sans-Serif" font-size="10.00" fill="#000000">...</text>
</g>
<!-- Node15 -->
<g id="node12" class="node">
<title>Node15</title>
<g id="a_node12"><a xlink:title=" ">
<polygon fill="none" stroke="#bfbfbf" points="301.3633,-1289 301.3633,-1353 410.459,-1353 410.459,-1289 301.3633,-1289"/>
<text text-anchor="start" x="309.3633" y="-1341" font-family="Helvetica,sans-Serif" font-size="10.00" fill="#000000">std::map&lt; std::string,</text>
<text text-anchor="middle" x="355.9111" y="-1331" font-family="Helvetica,sans-Serif" font-size="10.00" fill="#000000"> std::string &gt;</text>
<polyline fill="none" stroke="#bfbfbf" points="301.3633,-1325 410.459,-1325 "/>
<text text-anchor="middle" x="355.9111" y="-1313" font-family="Helvetica,sans-Serif" font-size="10.00" fill="#000000"> </text>
<polyline fill="none" stroke="#bfbfbf" points="301.3633,-1307 410.459,-1307 "/>
<text text-anchor="middle" x="355.9111" y="-1295" font-family="Helvetica,sans-Serif" font-size="10.00" fill="#000000"> </text>
</a>
</g>
</g>
<!-- Node9&#45;&gt;Node15 -->
<g id="edge12" class="edge">
<title>Node9&#45;&gt;Node15</title>
<path fill="none" stroke="#404040" d="M355.9111,-1442.2628C355.9111,-1420.7738 355.9111,-1390.36 355.9111,-1365.3676"/>
<polygon fill="none" stroke="#404040" points="355.9112,-1365.2337 351.9112,-1359.2338 355.9111,-1353.2337 359.9112,-1359.2337 355.9112,-1365.2337"/>
<text text-anchor="middle" x="380.5083" y="-1411" font-family="Helvetica,sans-Serif" font-size="10.00" fill="#000000"> +elements</text>
<text text-anchor="middle" x="380.5083" y="-1401" font-family="Helvetica,sans-Serif" font-size="10.00" fill="#000000">+keys</text>
</g>
<!-- Node10 -->
<g id="node7" class="node">
<title>Node10</title>
<g id="a_node7"><a xlink:title="STL class.">
<polygon fill="none" stroke="#bfbfbf" points="308.8633,-1534.5 308.8633,-1598.5 402.959,-1598.5 402.959,-1534.5 308.8633,-1534.5"/>
<text text-anchor="start" x="316.8633" y="-1586.5" font-family="Helvetica,sans-Serif" font-size="10.00" fill="#000000">std::basic_string&lt;</text>
<text text-anchor="middle" x="355.9111" y="-1576.5" font-family="Helvetica,sans-Serif" font-size="10.00" fill="#000000"> char &gt;</text>
<polyline fill="none" stroke="#bfbfbf" points="308.8633,-1570.5 402.959,-1570.5 "/>
<text text-anchor="middle" x="355.9111" y="-1558.5" font-family="Helvetica,sans-Serif" font-size="10.00" fill="#000000"> </text>
<polyline fill="none" stroke="#bfbfbf" points="308.8633,-1552.5 402.959,-1552.5 "/>
<text text-anchor="middle" x="355.9111" y="-1540.5" font-family="Helvetica,sans-Serif" font-size="10.00" fill="#000000"> </text>
</a>
</g>
</g>
<!-- Node10&#45;&gt;Node9 -->
<g id="edge6" class="edge">
<title>Node10&#45;&gt;Node9</title>
<path fill="none" stroke="#191970" d="M355.9111,-1524.4397C355.9111,-1515.0133 355.9111,-1505.2564 355.9111,-1496.6277"/>
<polygon fill="none" stroke="#191970" points="352.4112,-1524.4697 355.9111,-1534.4697 359.4112,-1524.4698 352.4112,-1524.4697"/>
</g>
<!-- Node11 -->
<g id="node8" class="node">
<title>Node11</title>
<g id="a_node8"><a xlink:title=" ">
<polygon fill="none" stroke="#bfbfbf" points="187.75,-523.5 187.75,-587.5 314.0723,-587.5 314.0723,-523.5 187.75,-523.5"/>
<text text-anchor="start" x="195.75" y="-575.5" font-family="Helvetica,sans-Serif" font-size="10.00" fill="#000000">std::map&lt; HTTPRequest</text>
<text text-anchor="middle" x="250.9111" y="-565.5" font-family="Helvetica,sans-Serif" font-size="10.00" fill="#000000"> *, Handler_t &gt;</text>
<polyline fill="none" stroke="#bfbfbf" points="187.75,-559.5 314.0723,-559.5 "/>
<text text-anchor="start" x="195.75" y="-547.5" font-family="Helvetica,sans-Serif" font-size="10.00" fill="#000000">+ elements</text>
<polyline fill="none" stroke="#bfbfbf" points="187.75,-541.5 314.0723,-541.5 "/>
<text text-anchor="middle" x="250.9111" y="-529.5" font-family="Helvetica,sans-Serif" font-size="10.00" fill="#000000"> </text>
</a>
</g>
</g>
<!-- Node11&#45;&gt;Node5 -->
<g id="edge7" class="edge">
<title>Node11&#45;&gt;Node5</title>
<path fill="none" stroke="#404040" d="M250.9111,-523.4597C250.9111,-513.135 250.9111,-501.1941 250.9111,-489.0094"/>
<polygon fill="none" stroke="#404040" points="250.9112,-488.7943 246.9112,-482.7943 250.9111,-476.7943 254.9112,-482.7942 250.9112,-488.7943"/>
<text text-anchor="middle" x="287.3223" y="-497" font-family="Helvetica,sans-Serif" font-size="10.00" fill="#000000"> #active_queries</text>
</g>
<!-- Node12&#45;&gt;Node11 -->
<g id="edge8" class="edge">
<title>Node12&#45;&gt;Node11</title>
<path fill="none" stroke="#404040" d="M250.9111,-729.2861C250.9111,-683.9886 250.9111,-634.3646 250.9111,-599.7834"/>
<polygon fill="none" stroke="#404040" points="250.9112,-599.7595 246.9112,-593.7595 250.9111,-587.7595 254.9112,-593.7594 250.9112,-599.7595"/>
<text text-anchor="middle" x="265.501" y="-655.5" font-family="Helvetica,sans-Serif" font-size="10.00" fill="#000000"> +keys</text>
</g>
<!-- Node13 -->
<g id="node10" class="node">
<title>Node13</title>
<g id="a_node10"><a xlink:title=" ">
<polygon fill="none" stroke="#bfbfbf" points="337.2881,-1045.5 337.2881,-1099.5 410.5342,-1099.5 410.5342,-1045.5 337.2881,-1045.5"/>
<text text-anchor="middle" x="373.9111" y="-1087.5" font-family="Helvetica,sans-Serif" font-size="10.00" fill="#000000">HTTPLoader</text>
<polyline fill="none" stroke="#bfbfbf" points="337.2881,-1081.5 410.5342,-1081.5 "/>
<text text-anchor="middle" x="373.9111" y="-1069.5" font-family="Helvetica,sans-Serif" font-size="10.00" fill="#000000"> </text>
<polyline fill="none" stroke="#bfbfbf" points="337.2881,-1063.5 410.5342,-1063.5 "/>
<text text-anchor="middle" x="373.9111" y="-1051.5" font-family="Helvetica,sans-Serif" font-size="10.00" fill="#000000"> </text>
</a>
</g>
</g>
<!-- Node13&#45;&gt;Node12 -->
<g id="edge9" class="edge">
<title>Node13&#45;&gt;Node12</title>
<path fill="none" stroke="#191970" d="M359.7038,-1035.7822C351.8635,-1016.4857 341.5724,-992.6233 330.9111,-972 327.7992,-965.9803 324.5135,-959.865 321.1195,-953.7328"/>
<polygon fill="none" stroke="#191970" points="356.4843,-1037.1575 363.4577,-1045.1339 362.9805,-1034.5498 356.4843,-1037.1575"/>
</g>
<!-- Node14&#45;&gt;Node12 -->
<g id="edge10" class="edge">
<title>Node14&#45;&gt;Node12</title>
<path fill="none" stroke="#404040" d="M250.9111,-1000.3603C250.9111,-989.3563 250.9111,-977.7381 250.9111,-965.995"/>
<polygon fill="none" stroke="#404040" points="250.9112,-965.7329 246.9112,-959.7329 250.9111,-953.7329 254.9112,-959.7329 250.9112,-965.7329"/>
<text text-anchor="middle" x="288.9849" y="-974" font-family="Helvetica,sans-Serif" font-size="10.00" fill="#000000"> #requestParams</text>
</g>
<!-- Node15&#45;&gt;Node14 -->
<g id="edge11" class="edge">
<title>Node15&#45;&gt;Node14</title>
<path fill="none" stroke="#404040" d="M342.2919,-1288.7677C328.1178,-1255.2225 305.3416,-1201.3189 286.0746,-1155.7202"/>
<polygon fill="none" stroke="#404040" points="286.0578,-1155.6802 280.0379,-1151.7103 281.3871,-1144.6265 287.407,-1148.5965 286.0578,-1155.6802"/>
<text text-anchor="middle" x="345.8999" y="-1207.5" font-family="Helvetica,sans-Serif" font-size="10.00" fill="#000000"> +params</text>
<text text-anchor="middle" x="345.8999" y="-1197.5" font-family="Helvetica,sans-Serif" font-size="10.00" fill="#000000">+headers</text>
</g>
</g>
</svg>
        <g id="navigator" transform="translate(0 0)" fill="#404254">
                <rect fill="#f2f5e9" fill-opacity="0.5" stroke="#606060" stroke-width=".5" x="0" y="0" width="60" height="60"/>
                <use id="zoomplus" xlink:href="#zoomPlus" x="17" y="9" onmousedown="handleZoom(evt,'in')"/>
                <use id="zoomminus" xlink:href="#zoomMin" x="42" y="9" onmousedown="handleZoom(evt,'out')"/>
                <use id="reset" xlink:href="#resetDef" x="30" y="36" onmousedown="handleReset()"/>
                <g id="arrowUp" xlink:href="#dirArrow" transform="translate(30 24)" onmousedown="handlePan(0,-1)">
                  <use xlink:href="#rim" fill="#404040">
                        <set attributeName="fill" to="#808080" begin="arrowUp.mouseover" end="arrowUp.mouseout"/>
                  </use>
                  <path fill="none" stroke="white" stroke-width="1.5" d="M0,-3.0v7 M-2.5,-0.5L0,-3.0L2.5,-0.5"/>
                </g>
                <g id="arrowRight" xlink:href="#dirArrow" transform="rotate(90) translate(36 -43)" onmousedown="handlePan(1,0)">
                  <use xlink:href="#rim" fill="#404040">
                        <set attributeName="fill" to="#808080" begin="arrowRight.mouseover" end="arrowRight.mouseout"/>
                  </use>
                  <path fill="none" stroke="white" stroke-width="1.5" d="M0,-3.0v7 M-2.5,-0.5L0,-3.0L2.5,-0.5"/>
                </g>
                <g id="arrowDown" xlink:href="#dirArrow" transform="rotate(180) translate(-30 -48)" onmousedown="handlePan(0,1)">
                  <use xlink:href="#rim" fill="#404040">
                        <set attributeName="fill" to="#808080" begin="arrowDown.mouseover" end="arrowDown.mouseout"/>
                  </use>
                  <path fill="none" stroke="white" stroke-width="1.5" d="M0,-3.0v7 M-2.5,-0.5L0,-3.0L2.5,-0.5"/>
                </g>
                <g id="arrowLeft" xlink:href="#dirArrow" transform="rotate(270) translate(-36 17)" onmousedown="handlePan(-1,0)">
                  <use xlink:href="#rim" fill="#404040">
                        <set attributeName="fill" to="#808080" begin="arrowLeft.mouseover" end="arrowLeft.mouseout"/>
                  </use>
                  <path fill="none" stroke="white" stroke-width="1.5" d="M0,-3.0v7 M-2.5,-0.5L0,-3.0L2.5,-0.5"/>
                </g>
        </g>
        <svg viewBox="0 0 15 15" width="100%" height="30px" preserveAspectRatio="xMaxYMin meet">
         <g id="arrow_out" transform="scale(0.3 0.3)">
          <a xlink:href="classcx_1_1web_1_1_a_p_iv3_wrapper__coll__graph_org.svg" target="_base">
           <rect id="button" ry="5" rx="5" y="6" x="6" height="38" width="38"
                fill="#f2f5e9" fill-opacity="0.5" stroke="#606060" stroke-width="1.0"/>
           <path id="arrow"
             d="M 11.500037,31.436501 C 11.940474,20.09759 22.043105,11.32322 32.158766,21.979434 L 37.068811,17.246167 C 37.068811,17.246167 37.088388,32 37.088388,32 L 22.160133,31.978069 C 22.160133,31.978069 26.997745,27.140456 26.997745,27.140456 C 18.528582,18.264221 13.291696,25.230495 11.500037,31.436501 z"
             style="fill:#404040;"/>
          </a>
         </g>
        </svg>
</svg>
