<?xml version="1.0" encoding="UTF-8" standalone="no"?>
<!DOCTYPE svg PUBLIC "-//W3C//DTD SVG 1.1//EN"
 "http://www.w3.org/Graphics/SVG/1.1/DTD/svg11.dtd">
<!-- Generated by graphviz version 2.40.1 (20161225.0304)
 -->
<!-- Title: ActiveSpeakerManagerImpl::sortActiveSpeakersBase Pages: 1 -->
<svg width="333pt" height="84pt"
 viewBox="0.00 0.00 332.79 84.00" xmlns="http://www.w3.org/2000/svg" xmlns:xlink="http://www.w3.org/1999/xlink">
<g id="graph0" class="graph" transform="scale(1 1) rotate(0) translate(4 80)">
<title>ActiveSpeakerManagerImpl::sortActiveSpeakersBase</title>
<!-- Node49 -->
<g id="node1" class="node">
<title>Node49</title>
<g id="a_node1"><a xlink:title=" ">
<polygon fill="#bfbfbf" stroke="#000000" points="185.9502,-23.5 185.9502,-51.5 324.7871,-51.5 324.7871,-23.5 185.9502,-23.5"/>
<text text-anchor="start" x="193.9502" y="-39.5" font-family="Helvetica,sans-Serif" font-size="10.00" fill="#000000">ActiveSpeakerManagerImpl</text>
<text text-anchor="middle" x="255.3687" y="-29.5" font-family="Helvetica,sans-Serif" font-size="10.00" fill="#000000">::sortActiveSpeakersBase</text>
</a>
</g>
</g>
<!-- Node50 -->
<g id="node2" class="node">
<title>Node50</title>
<g id="a_node2"><a xlink:href="class_active_speaker_manager_impl.html#a5059798b238422306d0911245ae0daa3" target="_top" xlink:title=" ">
<polygon fill="none" stroke="#000000" points="5.5566,-47.5 5.5566,-75.5 144.3936,-75.5 144.3936,-47.5 5.5566,-47.5"/>
<text text-anchor="start" x="13.5566" y="-63.5" font-family="Helvetica,sans-Serif" font-size="10.00" fill="#000000">ActiveSpeakerManagerImpl</text>
<text text-anchor="middle" x="74.9751" y="-53.5" font-family="Helvetica,sans-Serif" font-size="10.00" fill="#000000">::sortActiveSpeakers</text>
</a>
</g>
</g>
<!-- Node49&#45;&gt;Node50 -->
<g id="edge1" class="edge">
<title>Node49&#45;&gt;Node50</title>
<path fill="none" stroke="#191970" d="M175.9043,-48.0721C165.4152,-49.4676 154.7298,-50.8892 144.4261,-52.2601"/>
<polygon fill="#191970" stroke="#191970" points="176.4308,-51.533 185.8818,-46.7447 175.5076,-44.5942 176.4308,-51.533"/>
</g>
<!-- Node51 -->
<g id="node3" class="node">
<title>Node51</title>
<g id="a_node3"><a xlink:href="class_active_speaker_manager_impl.html#a37c06549032e695c9906c7a12226c074" target="_top" xlink:title=" ">
<polygon fill="none" stroke="#000000" points="0,-.5 0,-28.5 149.9502,-28.5 149.9502,-.5 0,-.5"/>
<text text-anchor="start" x="8" y="-16.5" font-family="Helvetica,sans-Serif" font-size="10.00" fill="#000000">ActiveSpeakerManagerImpl</text>
<text text-anchor="middle" x="74.9751" y="-6.5" font-family="Helvetica,sans-Serif" font-size="10.00" fill="#000000">::sortActiveSpeakersPresence</text>
</a>
</g>
</g>
<!-- Node49&#45;&gt;Node51 -->
<g id="edge2" class="edge">
<title>Node49&#45;&gt;Node51</title>
<path fill="none" stroke="#191970" d="M175.902,-27.3681C167.3332,-26.2756 158.6335,-25.1664 150.1179,-24.0806"/>
<polygon fill="#191970" stroke="#191970" points="175.5194,-30.8476 185.8818,-28.6405 176.4048,-23.9038 175.5194,-30.8476"/>
</g>
</g>
</svg>
