<?xml version="1.0" encoding="UTF-8" standalone="no"?>
<!DOCTYPE svg PUBLIC "-//W3C//DTD SVG 1.1//EN"
 "http://www.w3.org/Graphics/SVG/1.1/DTD/svg11.dtd">
<!-- Generated by graphviz version 2.40.1 (20161225.0304)
 -->
<!-- Title: fs::ChatController Pages: 1 -->
<svg width="310pt" height="204pt"
 viewBox="0.00 0.00 309.62 204.00" xmlns="http://www.w3.org/2000/svg" xmlns:xlink="http://www.w3.org/1999/xlink">
<g id="graph0" class="graph" transform="scale(1 1) rotate(0) translate(4 200)">
<title>fs::ChatController</title>
<!-- Node0 -->
<g id="node1" class="node">
<title>Node0</title>
<g id="a_node1"><a xlink:title=" ">
<polygon fill="#bfbfbf" stroke="#000000" points="80.1367,-.5 80.1367,-94.5 218.7002,-94.5 218.7002,-.5 80.1367,-.5"/>
<text text-anchor="middle" x="149.4185" y="-82.5" font-family="Helvetica,sans-Serif" font-size="10.00" fill="#000000">fs::ChatController</text>
<polyline fill="none" stroke="#000000" points="80.1367,-76.5 218.7002,-76.5 "/>
<text text-anchor="middle" x="149.4185" y="-64.5" font-family="Helvetica,sans-Serif" font-size="10.00" fill="#000000"> </text>
<polyline fill="none" stroke="#000000" points="80.1367,-58.5 218.7002,-58.5 "/>
<text text-anchor="start" x="88.1367" y="-46.5" font-family="Helvetica,sans-Serif" font-size="10.00" fill="#000000">+ ChatController()</text>
<text text-anchor="start" x="88.1367" y="-36.5" font-family="Helvetica,sans-Serif" font-size="10.00" fill="#000000">+ ~ChatController()</text>
<text text-anchor="start" x="88.1367" y="-26.5" font-family="Helvetica,sans-Serif" font-size="10.00" fill="#000000">+ onMessageReceived()</text>
<text text-anchor="start" x="88.1367" y="-16.5" font-family="Helvetica,sans-Serif" font-size="10.00" fill="#000000">+ sendPrivateMessage()</text>
<text text-anchor="start" x="88.1367" y="-6.5" font-family="Helvetica,sans-Serif" font-size="10.00" fill="#000000">+ sendBroadcastMessage()</text>
</a>
</g>
</g>
<!-- Node1 -->
<g id="node2" class="node">
<title>Node1</title>
<g id="a_node2"><a xlink:href="classfs_1_1_meeting_controller_base.html" target="_top" xlink:title=" ">
<polygon fill="none" stroke="#000000" points="0,-131.5 0,-195.5 138.8369,-195.5 138.8369,-131.5 0,-131.5"/>
<text text-anchor="middle" x="69.4185" y="-183.5" font-family="Helvetica,sans-Serif" font-size="10.00" fill="#000000">fs::MeetingControllerBase</text>
<polyline fill="none" stroke="#000000" points="0,-177.5 138.8369,-177.5 "/>
<text text-anchor="start" x="8" y="-165.5" font-family="Helvetica,sans-Serif" font-size="10.00" fill="#000000"># m_pClient</text>
<polyline fill="none" stroke="#000000" points="0,-159.5 138.8369,-159.5 "/>
<text text-anchor="start" x="8" y="-147.5" font-family="Helvetica,sans-Serif" font-size="10.00" fill="#000000">+ MeetingControllerBase()</text>
<text text-anchor="start" x="8" y="-137.5" font-family="Helvetica,sans-Serif" font-size="10.00" fill="#000000">+ ~MeetingControllerBase()</text>
</a>
</g>
</g>
<!-- Node1&#45;&gt;Node0 -->
<g id="edge1" class="edge">
<title>Node1&#45;&gt;Node0</title>
<path fill="none" stroke="#191970" d="M97.1897,-123.2317C103.5585,-113.997 110.3848,-104.0988 116.9326,-94.6045"/>
<polygon fill="none" stroke="#191970" points="94.2867,-121.2762 91.4906,-131.4954 100.0492,-125.2504 94.2867,-121.2762"/>
</g>
<!-- Node2 -->
<g id="node3" class="node">
<title>Node2</title>
<g id="a_node3"><a xlink:title=" ">
<polygon fill="none" stroke="#bfbfbf" points="157.2217,-131.5 157.2217,-195.5 301.6152,-195.5 301.6152,-131.5 157.2217,-131.5"/>
<text text-anchor="start" x="165.2217" y="-183.5" font-family="Helvetica,sans-Serif" font-size="10.00" fill="#000000">boost::enable_shared</text>
<text text-anchor="middle" x="229.4185" y="-173.5" font-family="Helvetica,sans-Serif" font-size="10.00" fill="#000000">_from_this&lt; ChatController &gt;</text>
<polyline fill="none" stroke="#bfbfbf" points="157.2217,-167.5 301.6152,-167.5 "/>
<text text-anchor="middle" x="229.4185" y="-155.5" font-family="Helvetica,sans-Serif" font-size="10.00" fill="#000000"> </text>
<polyline fill="none" stroke="#bfbfbf" points="157.2217,-149.5 301.6152,-149.5 "/>
<text text-anchor="middle" x="229.4185" y="-137.5" font-family="Helvetica,sans-Serif" font-size="10.00" fill="#000000"> </text>
</a>
</g>
</g>
<!-- Node2&#45;&gt;Node0 -->
<g id="edge2" class="edge">
<title>Node2&#45;&gt;Node0</title>
<path fill="none" stroke="#191970" d="M201.6472,-123.2317C195.2785,-113.997 188.4521,-104.0988 181.9044,-94.6045"/>
<polygon fill="none" stroke="#191970" points="198.7877,-125.2504 207.3463,-131.4954 204.5502,-121.2762 198.7877,-125.2504"/>
</g>
</g>
</svg>
