<?xml version="1.0" encoding="UTF-8" standalone="no"?>
<!DOCTYPE svg PUBLIC "-//W3C//DTD SVG 1.1//EN"
 "http://www.w3.org/Graphics/SVG/1.1/DTD/svg11.dtd">
<!-- Generated by graphviz version 2.40.1 (20161225.0304)
 -->
<!-- Title: fs::RTNotificationsController::RTNotificationsController Pages: 1 -->
<!--zoomable 107 -->
<svg id="main" version="1.1" xmlns="http://www.w3.org/2000/svg" xmlns:xlink="http://www.w3.org/1999/xlink" xml:space="preserve" onload="init(evt)">
<style type="text/css"><![CDATA[
.edge:hover path { stroke: red; }
.edge:hover polygon { stroke: red; fill: red; }
]]></style>
<script type="text/javascript"><![CDATA[
var edges = document.getElementsByTagName('g');
if (edges && edges.length) {
  for (var i=0;i<edges.length;i++) {
    if (edges[i].id.substr(0,4)=='edge') {
      edges[i].setAttribute('class','edge');
    }
  }
}
]]></script>
        <defs>
                <circle id="rim" cx="0" cy="0" r="7"/>
                <circle id="rim2" cx="0" cy="0" r="3.5"/>
                <g id="zoomPlus">
                        <use xlink:href="#rim" fill="#404040">
                                <set attributeName="fill" to="#808080" begin="zoomplus.mouseover" end="zoomplus.mouseout"/>
                        </use>
                        <path d="M-4,0h8M0,-4v8" fill="none" stroke="white" stroke-width="1.5" pointer-events="none"/>
                </g>
                <g id="zoomMin">
                        <use xlink:href="#rim" fill="#404040">
                                <set attributeName="fill" to="#808080" begin="zoomminus.mouseover" end="zoomminus.mouseout"/>
                        </use>
                        <path d="M-4,0h8" fill="none" stroke="white" stroke-width="1.5" pointer-events="none"/>
                </g>
                <g id="dirArrow">
                        <path fill="none" stroke="white" stroke-width="1.5" d="M0,-3.0v7 M-2.5,-0.5L0,-3.0L2.5,-0.5"/>
                </g>
               <g id="resetDef">
                       <use xlink:href="#rim2" fill="#404040">
                               <set attributeName="fill" to="#808080" begin="reset.mouseover" end="reset.mouseout"/>
                       </use>
               </g>
        </defs>

<script type="text/javascript">
var viewWidth = 677;
var viewHeight = 107;
var sectionId = 'dynsection-2';
</script>
<script xlink:href="svgpan.js"/>
<svg id="graph" class="graph">
<g id="viewport">
<title>fs::RTNotificationsController::RTNotificationsController</title>
<!-- Node0 -->
<g id="node1" class="node">
<title>Node0</title>
<g id="a_node1"><a xlink:title=" ">
<polygon fill="#bfbfbf" stroke="#000000" points="0,-23.5 0,-51.5 140.3066,-51.5 140.3066,-23.5 0,-23.5"/>
<text text-anchor="start" x="8" y="-39.5" font-family="Helvetica,sans-Serif" font-size="10.00" fill="#000000">fs::RTNotificationsController</text>
<text text-anchor="middle" x="70.1533" y="-29.5" font-family="Helvetica,sans-Serif" font-size="10.00" fill="#000000">::RTNotificationsController</text>
</a>
</g>
</g>
<!-- Node1 -->
<g id="node2" class="node">
<title>Node1</title>
<g id="a_node2"><a xlink:href="classfs_1_1_r_t_notifications_controller.html#adc65dfa3fa32ab0b796b3f7dabe2cfd5" target="_top" xlink:title=" ">
<polygon fill="none" stroke="#000000" points="176.3066,-23.5 176.3066,-51.5 316.6133,-51.5 316.6133,-23.5 176.3066,-23.5"/>
<text text-anchor="start" x="184.3066" y="-39.5" font-family="Helvetica,sans-Serif" font-size="10.00" fill="#000000">fs::RTNotificationsController</text>
<text text-anchor="middle" x="246.46" y="-29.5" font-family="Helvetica,sans-Serif" font-size="10.00" fill="#000000">::registerHandlers</text>
</a>
</g>
</g>
<!-- Node0&#45;&gt;Node1 -->
<g id="edge1" class="edge">
<title>Node0&#45;&gt;Node1</title>
<path fill="none" stroke="#191970" d="M140.341,-37.5C148.8304,-37.5 157.552,-37.5 166.1725,-37.5"/>
<polygon fill="#191970" stroke="#191970" points="166.2258,-41.0001 176.2258,-37.5 166.2258,-34.0001 166.2258,-41.0001"/>
</g>
<!-- Node2 -->
<g id="node3" class="node">
<title>Node2</title>
<g id="a_node3"><a xlink:href="classfs_1_1_r_t_notifications_controller.html#abafaa0dbd85ee2ae7475cc385f744f78" target="_top" xlink:title=" ">
<polygon fill="none" stroke="#000000" points="352.6133,-47.5 352.6133,-75.5 492.9199,-75.5 492.9199,-47.5 352.6133,-47.5"/>
<text text-anchor="start" x="360.6133" y="-63.5" font-family="Helvetica,sans-Serif" font-size="10.00" fill="#000000">fs::RTNotificationsController</text>
<text text-anchor="middle" x="422.7666" y="-53.5" font-family="Helvetica,sans-Serif" font-size="10.00" fill="#000000">::populatingHandler</text>
</a>
</g>
</g>
<!-- Node1&#45;&gt;Node2 -->
<g id="edge2" class="edge">
<title>Node1&#45;&gt;Node2</title>
<path fill="none" stroke="#191970" d="M316.6476,-47.0544C325.1371,-48.21 333.8587,-49.3973 342.4792,-50.5708"/>
<polygon fill="#191970" stroke="#191970" points="342.1517,-54.0584 352.5324,-51.9393 343.0959,-47.1223 342.1517,-54.0584"/>
</g>
<!-- Node5 -->
<g id="node6" class="node">
<title>Node5</title>
<g id="a_node6"><a xlink:href="classfs_1_1_r_t_notifications_controller.html#a1797180d99a32bd4c83abc3ed7952cc2" target="_top" xlink:title=" ">
<polygon fill="none" stroke="#000000" points="352.6133,-.5 352.6133,-28.5 492.9199,-28.5 492.9199,-.5 352.6133,-.5"/>
<text text-anchor="start" x="360.6133" y="-16.5" font-family="Helvetica,sans-Serif" font-size="10.00" fill="#000000">fs::RTNotificationsController</text>
<text text-anchor="middle" x="422.7666" y="-6.5" font-family="Helvetica,sans-Serif" font-size="10.00" fill="#000000">::addHandler</text>
</a>
</g>
</g>
<!-- Node1&#45;&gt;Node5 -->
<g id="edge5" class="edge">
<title>Node1&#45;&gt;Node5</title>
<path fill="none" stroke="#191970" d="M316.6476,-28.3437C325.1371,-27.2362 333.8587,-26.0984 342.4792,-24.9739"/>
<polygon fill="#191970" stroke="#191970" points="343.0692,-28.4266 352.5324,-23.6624 342.1637,-21.4854 343.0692,-28.4266"/>
</g>
<!-- Node3 -->
<g id="node4" class="node">
<title>Node3</title>
<g id="a_node4"><a xlink:href="classfs_1_1_r_t_notifications_controller.html#a63bcc0b97a8cc11b5efe3dcebafc29f9" target="_top" xlink:title=" ">
<polygon fill="none" stroke="#000000" points="528.9199,-70.5 528.9199,-98.5 669.2266,-98.5 669.2266,-70.5 528.9199,-70.5"/>
<text text-anchor="start" x="536.9199" y="-86.5" font-family="Helvetica,sans-Serif" font-size="10.00" fill="#000000">fs::RTNotificationsController</text>
<text text-anchor="middle" x="599.0732" y="-76.5" font-family="Helvetica,sans-Serif" font-size="10.00" fill="#000000">::handleResponse</text>
</a>
</g>
</g>
<!-- Node2&#45;&gt;Node3 -->
<g id="edge3" class="edge">
<title>Node2&#45;&gt;Node3</title>
<path fill="none" stroke="#191970" d="M492.9542,-70.6563C501.4437,-71.7638 510.1653,-72.9016 518.7858,-74.0261"/>
<polygon fill="#191970" stroke="#191970" points="518.4703,-77.5146 528.8391,-75.3376 519.3759,-70.5734 518.4703,-77.5146"/>
</g>
<!-- Node4 -->
<g id="node5" class="node">
<title>Node4</title>
<g id="a_node5"><a xlink:href="classfs_1_1_r_t_notifications_controller.html#adb900e48259e2382c3e12d9a177a7dc3" target="_top" xlink:title=" ">
<polygon fill="none" stroke="#000000" points="528.9199,-23.5 528.9199,-51.5 669.2266,-51.5 669.2266,-23.5 528.9199,-23.5"/>
<text text-anchor="start" x="536.9199" y="-39.5" font-family="Helvetica,sans-Serif" font-size="10.00" fill="#000000">fs::RTNotificationsController</text>
<text text-anchor="middle" x="599.0732" y="-29.5" font-family="Helvetica,sans-Serif" font-size="10.00" fill="#000000">::handleBridgeVersion</text>
</a>
</g>
</g>
<!-- Node2&#45;&gt;Node4 -->
<g id="edge4" class="edge">
<title>Node2&#45;&gt;Node4</title>
<path fill="none" stroke="#191970" d="M492.9542,-51.9456C501.4437,-50.79 510.1653,-49.6027 518.7858,-48.4292"/>
<polygon fill="#191970" stroke="#191970" points="519.4026,-51.8777 528.8391,-47.0607 518.4583,-44.9416 519.4026,-51.8777"/>
</g>
</g>
</svg>
        <g id="navigator" transform="translate(0 0)" fill="#404254">
                <rect fill="#f2f5e9" fill-opacity="0.5" stroke="#606060" stroke-width=".5" x="0" y="0" width="60" height="60"/>
                <use id="zoomplus" xlink:href="#zoomPlus" x="17" y="9" onmousedown="handleZoom(evt,'in')"/>
                <use id="zoomminus" xlink:href="#zoomMin" x="42" y="9" onmousedown="handleZoom(evt,'out')"/>
                <use id="reset" xlink:href="#resetDef" x="30" y="36" onmousedown="handleReset()"/>
                <g id="arrowUp" xlink:href="#dirArrow" transform="translate(30 24)" onmousedown="handlePan(0,-1)">
                  <use xlink:href="#rim" fill="#404040">
                        <set attributeName="fill" to="#808080" begin="arrowUp.mouseover" end="arrowUp.mouseout"/>
                  </use>
                  <path fill="none" stroke="white" stroke-width="1.5" d="M0,-3.0v7 M-2.5,-0.5L0,-3.0L2.5,-0.5"/>
                </g>
                <g id="arrowRight" xlink:href="#dirArrow" transform="rotate(90) translate(36 -43)" onmousedown="handlePan(1,0)">
                  <use xlink:href="#rim" fill="#404040">
                        <set attributeName="fill" to="#808080" begin="arrowRight.mouseover" end="arrowRight.mouseout"/>
                  </use>
                  <path fill="none" stroke="white" stroke-width="1.5" d="M0,-3.0v7 M-2.5,-0.5L0,-3.0L2.5,-0.5"/>
                </g>
                <g id="arrowDown" xlink:href="#dirArrow" transform="rotate(180) translate(-30 -48)" onmousedown="handlePan(0,1)">
                  <use xlink:href="#rim" fill="#404040">
                        <set attributeName="fill" to="#808080" begin="arrowDown.mouseover" end="arrowDown.mouseout"/>
                  </use>
                  <path fill="none" stroke="white" stroke-width="1.5" d="M0,-3.0v7 M-2.5,-0.5L0,-3.0L2.5,-0.5"/>
                </g>
                <g id="arrowLeft" xlink:href="#dirArrow" transform="rotate(270) translate(-36 17)" onmousedown="handlePan(-1,0)">
                  <use xlink:href="#rim" fill="#404040">
                        <set attributeName="fill" to="#808080" begin="arrowLeft.mouseover" end="arrowLeft.mouseout"/>
                  </use>
                  <path fill="none" stroke="white" stroke-width="1.5" d="M0,-3.0v7 M-2.5,-0.5L0,-3.0L2.5,-0.5"/>
                </g>
        </g>
        <svg viewBox="0 0 15 15" width="100%" height="30px" preserveAspectRatio="xMaxYMin meet">
         <g id="arrow_out" transform="scale(0.3 0.3)">
          <a xlink:href="classfs_1_1_r_t_notifications_controller_a3d8096cd94968d8a520db0240002f2aa_cgraph_org.svg" target="_base">
           <rect id="button" ry="5" rx="5" y="6" x="6" height="38" width="38"
                fill="#f2f5e9" fill-opacity="0.5" stroke="#606060" stroke-width="1.0"/>
           <path id="arrow"
             d="M 11.500037,31.436501 C 11.940474,20.09759 22.043105,11.32322 32.158766,21.979434 L 37.068811,17.246167 C 37.068811,17.246167 37.088388,32 37.088388,32 L 22.160133,31.978069 C 22.160133,31.978069 26.997745,27.140456 26.997745,27.140456 C 18.528582,18.264221 13.291696,25.230495 11.500037,31.436501 z"
             style="fill:#404040;"/>
          </a>
         </g>
        </svg>
</svg>
