<?xml version="1.0" encoding="UTF-8" standalone="no"?>
<!DOCTYPE svg PUBLIC "-//W3C//DTD SVG 1.1//EN"
 "http://www.w3.org/Graphics/SVG/1.1/DTD/svg11.dtd">
<!-- Generated by graphviz version 2.40.1 (20161225.0304)
 -->
<!-- Title: fs::ScreenSharingController::startBroadcasting Pages: 1 -->
<svg width="322pt" height="84pt"
 viewBox="0.00 0.00 321.69 84.00" xmlns="http://www.w3.org/2000/svg" xmlns:xlink="http://www.w3.org/1999/xlink">
<g id="graph0" class="graph" transform="scale(1 1) rotate(0) translate(4 80)">
<title>fs::ScreenSharingController::startBroadcasting</title>
<!-- Node283 -->
<g id="node1" class="node">
<title>Node283</title>
<g id="a_node1"><a xlink:title=" ">
<polygon fill="#bfbfbf" stroke="#000000" points="174.8564,-23.5 174.8564,-51.5 313.6934,-51.5 313.6934,-23.5 174.8564,-23.5"/>
<text text-anchor="start" x="182.8564" y="-39.5" font-family="Helvetica,sans-Serif" font-size="10.00" fill="#000000">fs::ScreenSharingController</text>
<text text-anchor="middle" x="244.2749" y="-29.5" font-family="Helvetica,sans-Serif" font-size="10.00" fill="#000000">::startBroadcasting</text>
</a>
</g>
</g>
<!-- Node284 -->
<g id="node2" class="node">
<title>Node284</title>
<g id="a_node2"><a xlink:href="classfs_1_1_screen_sharing_controller.html#ac9f469ea14aa984f4bea1d57fec65089" target="_top" xlink:title=" ">
<polygon fill="none" stroke="#000000" points=".0098,-47.5 .0098,-75.5 138.8467,-75.5 138.8467,-47.5 .0098,-47.5"/>
<text text-anchor="start" x="8.0098" y="-63.5" font-family="Helvetica,sans-Serif" font-size="10.00" fill="#000000">fs::ScreenSharingController</text>
<text text-anchor="middle" x="69.4282" y="-53.5" font-family="Helvetica,sans-Serif" font-size="10.00" fill="#000000">::startScreenSharing</text>
</a>
</g>
</g>
<!-- Node283&#45;&gt;Node284 -->
<g id="edge1" class="edge">
<title>Node283&#45;&gt;Node284</title>
<path fill="none" stroke="#191970" d="M164.6992,-48.4228C156.1504,-49.5962 147.5008,-50.7835 139.0808,-51.9393"/>
<polygon fill="#191970" stroke="#191970" points="165.2374,-51.8818 174.6685,-47.0544 164.2854,-44.9469 165.2374,-51.8818"/>
</g>
<!-- Node285 -->
<g id="node3" class="node">
<title>Node285</title>
<g id="a_node3"><a xlink:href="classfs_1_1_screen_sharing_controller.html#ae366128467c0c1562a62be7371763d09" target="_top" xlink:title=" ">
<polygon fill="none" stroke="#000000" points="0,-.5 0,-28.5 138.8564,-28.5 138.8564,-.5 0,-.5"/>
<text text-anchor="start" x="8" y="-16.5" font-family="Helvetica,sans-Serif" font-size="10.00" fill="#000000">fs::ScreenSharingController</text>
<text text-anchor="middle" x="69.4282" y="-6.5" font-family="Helvetica,sans-Serif" font-size="10.00" fill="#000000">::initiateTakeBackSequence</text>
</a>
</g>
</g>
<!-- Node283&#45;&gt;Node285 -->
<g id="edge2" class="edge">
<title>Node283&#45;&gt;Node285</title>
<path fill="none" stroke="#191970" d="M164.6992,-27.0323C156.1504,-25.9078 147.5008,-24.77 139.0808,-23.6624"/>
<polygon fill="#191970" stroke="#191970" points="164.2974,-30.5095 174.6685,-28.3437 165.2104,-23.5693 164.2974,-30.5095"/>
</g>
</g>
</svg>
