<?xml version="1.0" encoding="UTF-8" standalone="no"?>
<!DOCTYPE svg PUBLIC "-//W3C//DTD SVG 1.1//EN"
 "http://www.w3.org/Graphics/SVG/1.1/DTD/svg11.dtd">
<!-- Generated by graphviz version 2.40.1 (20161225.0304)
 -->
<!-- Title: fs::FSDirectorPromotePkt Pages: 1 -->
<svg width="153pt" height="487pt"
 viewBox="0.00 0.00 153.49 487.00" xmlns="http://www.w3.org/2000/svg" xmlns:xlink="http://www.w3.org/1999/xlink">
<g id="graph0" class="graph" transform="scale(1 1) rotate(0) translate(4 483)">
<title>fs::FSDirectorPromotePkt</title>
<!-- Node2 -->
<g id="node1" class="node">
<title>Node2</title>
<g id="a_node1"><a xlink:title=" ">
<polygon fill="#bfbfbf" stroke="#000000" points="7.0947,-.5 7.0947,-94.5 138.3975,-94.5 138.3975,-.5 7.0947,-.5"/>
<text text-anchor="middle" x="72.7461" y="-82.5" font-family="Helvetica,sans-Serif" font-size="10.00" fill="#000000">fs::FSDirectorPromotePkt</text>
<polyline fill="none" stroke="#000000" points="7.0947,-76.5 138.3975,-76.5 "/>
<text text-anchor="middle" x="72.7461" y="-64.5" font-family="Helvetica,sans-Serif" font-size="10.00" fill="#000000"> </text>
<polyline fill="none" stroke="#000000" points="7.0947,-58.5 138.3975,-58.5 "/>
<text text-anchor="start" x="15.0947" y="-46.5" font-family="Helvetica,sans-Serif" font-size="10.00" fill="#000000">+ FSDirectorPromotePkt()</text>
<text text-anchor="start" x="15.0947" y="-36.5" font-family="Helvetica,sans-Serif" font-size="10.00" fill="#000000">+ rcptID()</text>
<text text-anchor="start" x="15.0947" y="-26.5" font-family="Helvetica,sans-Serif" font-size="10.00" fill="#000000">+ setRcptID()</text>
<text text-anchor="start" x="15.0947" y="-16.5" font-family="Helvetica,sans-Serif" font-size="10.00" fill="#000000">+ senderID()</text>
<text text-anchor="start" x="15.0947" y="-6.5" font-family="Helvetica,sans-Serif" font-size="10.00" fill="#000000">+ setSenderID()</text>
</a>
</g>
</g>
<!-- Node3 -->
<g id="node2" class="node">
<title>Node3</title>
<g id="a_node2"><a xlink:href="classfs_1_1_f_s_packet.html" target="_top" xlink:title=" ">
<polygon fill="none" stroke="#000000" points="32.5122,-132.5 32.5122,-246.5 112.98,-246.5 112.98,-132.5 32.5122,-132.5"/>
<text text-anchor="middle" x="72.7461" y="-234.5" font-family="Helvetica,sans-Serif" font-size="10.00" fill="#000000">fs::FSPacket</text>
<polyline fill="none" stroke="#000000" points="32.5122,-228.5 112.98,-228.5 "/>
<text text-anchor="start" x="40.5122" y="-216.5" font-family="Helvetica,sans-Serif" font-size="10.00" fill="#000000"># m_iType</text>
<polyline fill="none" stroke="#000000" points="32.5122,-210.5 112.98,-210.5 "/>
<text text-anchor="start" x="40.5122" y="-198.5" font-family="Helvetica,sans-Serif" font-size="10.00" fill="#000000">+ FSPacket()</text>
<text text-anchor="start" x="40.5122" y="-188.5" font-family="Helvetica,sans-Serif" font-size="10.00" fill="#000000">+ ~FSPacket()</text>
<text text-anchor="start" x="40.5122" y="-178.5" font-family="Helvetica,sans-Serif" font-size="10.00" fill="#000000">+ type()</text>
<text text-anchor="start" x="40.5122" y="-168.5" font-family="Helvetica,sans-Serif" font-size="10.00" fill="#000000">+ serialize()</text>
<text text-anchor="start" x="40.5122" y="-158.5" font-family="Helvetica,sans-Serif" font-size="10.00" fill="#000000">+ entry()</text>
<text text-anchor="start" x="40.5122" y="-148.5" font-family="Helvetica,sans-Serif" font-size="10.00" fill="#000000">+ setEntry()</text>
<text text-anchor="start" x="40.5122" y="-138.5" font-family="Helvetica,sans-Serif" font-size="10.00" fill="#000000">+ deserialize()</text>
</a>
</g>
</g>
<!-- Node3&#45;&gt;Node2 -->
<g id="edge1" class="edge">
<title>Node3&#45;&gt;Node2</title>
<path fill="none" stroke="#191970" d="M72.7461,-122.1225C72.7461,-112.8211 72.7461,-103.4366 72.7461,-94.6098"/>
<polygon fill="none" stroke="#191970" points="69.2462,-122.1524 72.7461,-132.1525 76.2462,-122.1525 69.2462,-122.1524"/>
</g>
<!-- Node4 -->
<g id="node3" class="node">
<title>Node4</title>
<g id="a_node3"><a xlink:title=" ">
<polygon fill="none" stroke="#bfbfbf" points="0,-293.5 0,-347.5 145.4922,-347.5 145.4922,-293.5 0,-293.5"/>
<text text-anchor="middle" x="72.7461" y="-335.5" font-family="Helvetica,sans-Serif" font-size="10.00" fill="#000000">std::vector&lt; FSPktStream * &gt;</text>
<polyline fill="none" stroke="#bfbfbf" points="0,-329.5 145.4922,-329.5 "/>
<text text-anchor="middle" x="72.7461" y="-317.5" font-family="Helvetica,sans-Serif" font-size="10.00" fill="#000000"> </text>
<polyline fill="none" stroke="#bfbfbf" points="0,-311.5 145.4922,-311.5 "/>
<text text-anchor="middle" x="72.7461" y="-299.5" font-family="Helvetica,sans-Serif" font-size="10.00" fill="#000000"> </text>
</a>
</g>
</g>
<!-- Node4&#45;&gt;Node3 -->
<g id="edge2" class="edge">
<title>Node4&#45;&gt;Node3</title>
<path fill="none" stroke="#404040" d="M72.7461,-293.3567C72.7461,-283.1832 72.7461,-271.1036 72.7461,-258.8438"/>
<polygon fill="none" stroke="#404040" points="72.7462,-258.5878 68.7461,-252.5879 72.7461,-246.5878 76.7461,-252.5878 72.7462,-258.5878"/>
<text text-anchor="middle" x="101.9233" y="-267" font-family="Helvetica,sans-Serif" font-size="10.00" fill="#000000"> #m_xEntries</text>
</g>
<!-- Node5 -->
<g id="node4" class="node">
<title>Node5</title>
<g id="a_node4"><a xlink:href="classfs_1_1_f_s_pkt_stream.html" target="_top" xlink:title=" ">
<polygon fill="none" stroke="#000000" points="24.458,-394.5 24.458,-478.5 121.0342,-478.5 121.0342,-394.5 24.458,-394.5"/>
<text text-anchor="middle" x="72.7461" y="-466.5" font-family="Helvetica,sans-Serif" font-size="10.00" fill="#000000">fs::FSPktStream</text>
<polyline fill="none" stroke="#000000" points="24.458,-460.5 121.0342,-460.5 "/>
<text text-anchor="start" x="32.458" y="-448.5" font-family="Helvetica,sans-Serif" font-size="10.00" fill="#000000"># m_pxObj</text>
<polyline fill="none" stroke="#000000" points="24.458,-442.5 121.0342,-442.5 "/>
<text text-anchor="start" x="32.458" y="-430.5" font-family="Helvetica,sans-Serif" font-size="10.00" fill="#000000">+ ~FSPktStream()</text>
<text text-anchor="start" x="32.458" y="-420.5" font-family="Helvetica,sans-Serif" font-size="10.00" fill="#000000">+ read()</text>
<text text-anchor="start" x="32.458" y="-410.5" font-family="Helvetica,sans-Serif" font-size="10.00" fill="#000000">+ write()</text>
<text text-anchor="start" x="32.458" y="-400.5" font-family="Helvetica,sans-Serif" font-size="10.00" fill="#000000">+ object()</text>
</a>
</g>
</g>
<!-- Node5&#45;&gt;Node4 -->
<g id="edge3" class="edge">
<title>Node5&#45;&gt;Node4</title>
<path fill="none" stroke="#404040" d="M72.7461,-394.2932C72.7461,-382.9972 72.7461,-370.8361 72.7461,-359.7094"/>
<polygon fill="none" stroke="#404040" points="72.7462,-359.6877 68.7461,-353.6877 72.7461,-347.6877 76.7461,-353.6877 72.7462,-359.6877"/>
<text text-anchor="middle" x="97.3433" y="-368" font-family="Helvetica,sans-Serif" font-size="10.00" fill="#000000"> +elements</text>
</g>
</g>
</svg>
