<?xml version="1.0" encoding="UTF-8" standalone="no"?>
<!DOCTYPE svg PUBLIC "-//W3C//DTD SVG 1.1//EN"
 "http://www.w3.org/Graphics/SVG/1.1/DTD/svg11.dtd">
<!-- Generated by graphviz version 2.40.1 (20161225.0304)
 -->
<!-- Title: fs::RTRecordingBroadcastHandler Pages: 1 -->
<svg width="284pt" height="499pt"
 viewBox="0.00 0.00 284.12 499.00" xmlns="http://www.w3.org/2000/svg" xmlns:xlink="http://www.w3.org/1999/xlink">
<g id="graph0" class="graph" transform="scale(1 1) rotate(0) translate(4 495)">
<title>fs::RTRecordingBroadcastHandler</title>
<!-- Node2 -->
<g id="node1" class="node">
<title>Node2</title>
<g id="a_node1"><a xlink:title=" ">
<polygon fill="#bfbfbf" stroke="#000000" points="43.8848,-.5 43.8848,-74.5 219.7822,-74.5 219.7822,-.5 43.8848,-.5"/>
<text text-anchor="start" x="51.8848" y="-62.5" font-family="Helvetica,sans-Serif" font-size="10.00" fill="#000000">fs::RTRecordingBroadcast</text>
<text text-anchor="middle" x="131.8335" y="-52.5" font-family="Helvetica,sans-Serif" font-size="10.00" fill="#000000">Handler</text>
<polyline fill="none" stroke="#000000" points="43.8848,-46.5 219.7822,-46.5 "/>
<text text-anchor="middle" x="131.8335" y="-34.5" font-family="Helvetica,sans-Serif" font-size="10.00" fill="#000000"> </text>
<polyline fill="none" stroke="#000000" points="43.8848,-28.5 219.7822,-28.5 "/>
<text text-anchor="start" x="51.8848" y="-16.5" font-family="Helvetica,sans-Serif" font-size="10.00" fill="#000000">+ RTRecordingBroadcastHandler()</text>
<text text-anchor="start" x="51.8848" y="-6.5" font-family="Helvetica,sans-Serif" font-size="10.00" fill="#000000">+ ~RTRecordingBroadcastHandler()</text>
</a>
</g>
</g>
<!-- Node3 -->
<g id="node2" class="node">
<title>Node3</title>
<g id="a_node2"><a xlink:href="classfs_1_1_notification_handler.html" target="_top" xlink:title=" ">
<polygon fill="none" stroke="#000000" points="74.9224,-112.5 74.9224,-176.5 188.7446,-176.5 188.7446,-112.5 74.9224,-112.5"/>
<text text-anchor="middle" x="131.8335" y="-164.5" font-family="Helvetica,sans-Serif" font-size="10.00" fill="#000000">fs::NotificationHandler</text>
<polyline fill="none" stroke="#000000" points="74.9224,-158.5 188.7446,-158.5 "/>
<text text-anchor="middle" x="131.8335" y="-146.5" font-family="Helvetica,sans-Serif" font-size="10.00" fill="#000000"> </text>
<polyline fill="none" stroke="#000000" points="74.9224,-140.5 188.7446,-140.5 "/>
<text text-anchor="start" x="82.9224" y="-128.5" font-family="Helvetica,sans-Serif" font-size="10.00" fill="#000000">+ API_METHOD()</text>
<text text-anchor="start" x="82.9224" y="-118.5" font-family="Helvetica,sans-Serif" font-size="10.00" fill="#000000">+ API_METHOD()</text>
</a>
</g>
</g>
<!-- Node3&#45;&gt;Node2 -->
<g id="edge1" class="edge">
<title>Node3&#45;&gt;Node2</title>
<path fill="none" stroke="#191970" d="M131.8335,-102.3866C131.8335,-93.2947 131.8335,-83.7429 131.8335,-74.8483"/>
<polygon fill="none" stroke="#191970" points="128.3336,-102.3964 131.8335,-112.3965 135.3336,-102.3965 128.3336,-102.3964"/>
</g>
<!-- Node4 -->
<g id="node3" class="node">
<title>Node4</title>
<g id="a_node3"><a xlink:title=" ">
<polygon fill="none" stroke="#bfbfbf" points="0,-223.5 0,-287.5 129.667,-287.5 129.667,-223.5 0,-223.5"/>
<text text-anchor="start" x="8" y="-275.5" font-family="Helvetica,sans-Serif" font-size="10.00" fill="#000000">std::map&lt; String, Handler</text>
<text text-anchor="middle" x="64.8335" y="-265.5" font-family="Helvetica,sans-Serif" font-size="10.00" fill="#000000">Pointer &gt;</text>
<polyline fill="none" stroke="#bfbfbf" points="0,-259.5 129.667,-259.5 "/>
<text text-anchor="start" x="8" y="-247.5" font-family="Helvetica,sans-Serif" font-size="10.00" fill="#000000">+ elements</text>
<polyline fill="none" stroke="#bfbfbf" points="0,-241.5 129.667,-241.5 "/>
<text text-anchor="middle" x="64.8335" y="-229.5" font-family="Helvetica,sans-Serif" font-size="10.00" fill="#000000"> </text>
</a>
</g>
</g>
<!-- Node4&#45;&gt;Node3 -->
<g id="edge2" class="edge">
<title>Node4&#45;&gt;Node3</title>
<path fill="none" stroke="#404040" d="M84.2127,-223.3942C91.0877,-212.0042 98.934,-199.0051 106.2467,-186.89"/>
<polygon fill="none" stroke="#404040" points="106.2967,-186.8072 105.9728,-179.6034 112.4979,-176.5336 112.8218,-183.7375 106.2967,-186.8072"/>
<text text-anchor="middle" x="126.9639" y="-197" font-family="Helvetica,sans-Serif" font-size="10.00" fill="#000000"> #_handlers</text>
</g>
<!-- Node5 -->
<g id="node4" class="node">
<title>Node5</title>
<g id="a_node4"><a xlink:title="STL class.">
<polygon fill="none" stroke="#bfbfbf" points="103.1587,-334.5 103.1587,-388.5 162.5083,-388.5 162.5083,-334.5 103.1587,-334.5"/>
<text text-anchor="middle" x="132.8335" y="-376.5" font-family="Helvetica,sans-Serif" font-size="10.00" fill="#000000">std::string</text>
<polyline fill="none" stroke="#bfbfbf" points="103.1587,-370.5 162.5083,-370.5 "/>
<text text-anchor="middle" x="132.8335" y="-358.5" font-family="Helvetica,sans-Serif" font-size="10.00" fill="#000000"> </text>
<polyline fill="none" stroke="#bfbfbf" points="103.1587,-352.5 162.5083,-352.5 "/>
<text text-anchor="middle" x="132.8335" y="-340.5" font-family="Helvetica,sans-Serif" font-size="10.00" fill="#000000"> </text>
</a>
</g>
</g>
<!-- Node5&#45;&gt;Node4 -->
<g id="edge3" class="edge">
<title>Node5&#45;&gt;Node4</title>
<path fill="none" stroke="#404040" d="M115.4983,-334.4775C108.3663,-323.3599 99.9345,-310.2163 92.0171,-297.8744"/>
<polygon fill="none" stroke="#404040" points="92.0067,-297.8581 85.4001,-294.9678 85.5271,-287.7578 92.1337,-290.6481 92.0067,-297.8581"/>
<text text-anchor="middle" x="118.4233" y="-308" font-family="Helvetica,sans-Serif" font-size="10.00" fill="#000000"> +keys</text>
</g>
<!-- Node7 -->
<g id="node6" class="node">
<title>Node7</title>
<g id="a_node6"><a xlink:title=" ">
<polygon fill="none" stroke="#bfbfbf" points="148.0898,-228.5 148.0898,-282.5 253.5771,-282.5 253.5771,-228.5 148.0898,-228.5"/>
<text text-anchor="middle" x="200.8335" y="-270.5" font-family="Helvetica,sans-Serif" font-size="10.00" fill="#000000">std::vector&lt; String &gt;</text>
<polyline fill="none" stroke="#bfbfbf" points="148.0898,-264.5 253.5771,-264.5 "/>
<text text-anchor="middle" x="200.8335" y="-252.5" font-family="Helvetica,sans-Serif" font-size="10.00" fill="#000000"> </text>
<polyline fill="none" stroke="#bfbfbf" points="148.0898,-246.5 253.5771,-246.5 "/>
<text text-anchor="middle" x="200.8335" y="-234.5" font-family="Helvetica,sans-Serif" font-size="10.00" fill="#000000"> </text>
</a>
</g>
</g>
<!-- Node5&#45;&gt;Node7 -->
<g id="edge6" class="edge">
<title>Node5&#45;&gt;Node7</title>
<path fill="none" stroke="#404040" d="M150.1687,-334.4775C158.2586,-321.8667 168.0208,-306.6491 176.8079,-292.9516"/>
<polygon fill="none" stroke="#404040" points="176.814,-292.9421 176.687,-285.7321 183.2935,-282.8418 183.4205,-290.0518 176.814,-292.9421"/>
<text text-anchor="middle" x="191.4307" y="-308" font-family="Helvetica,sans-Serif" font-size="10.00" fill="#000000"> +elements</text>
</g>
<!-- Node6 -->
<g id="node5" class="node">
<title>Node6</title>
<g id="a_node5"><a xlink:title="STL class.">
<polygon fill="none" stroke="#bfbfbf" points="85.7856,-426.5 85.7856,-490.5 179.8813,-490.5 179.8813,-426.5 85.7856,-426.5"/>
<text text-anchor="start" x="93.7856" y="-478.5" font-family="Helvetica,sans-Serif" font-size="10.00" fill="#000000">std::basic_string&lt;</text>
<text text-anchor="middle" x="132.8335" y="-468.5" font-family="Helvetica,sans-Serif" font-size="10.00" fill="#000000"> char &gt;</text>
<polyline fill="none" stroke="#bfbfbf" points="85.7856,-462.5 179.8813,-462.5 "/>
<text text-anchor="middle" x="132.8335" y="-450.5" font-family="Helvetica,sans-Serif" font-size="10.00" fill="#000000"> </text>
<polyline fill="none" stroke="#bfbfbf" points="85.7856,-444.5 179.8813,-444.5 "/>
<text text-anchor="middle" x="132.8335" y="-432.5" font-family="Helvetica,sans-Serif" font-size="10.00" fill="#000000"> </text>
</a>
</g>
</g>
<!-- Node6&#45;&gt;Node5 -->
<g id="edge4" class="edge">
<title>Node6&#45;&gt;Node5</title>
<path fill="none" stroke="#191970" d="M132.8335,-416.4397C132.8335,-407.0133 132.8335,-397.2564 132.8335,-388.6277"/>
<polygon fill="none" stroke="#191970" points="129.3336,-416.4697 132.8335,-426.4697 136.3336,-416.4698 129.3336,-416.4697"/>
</g>
<!-- Node7&#45;&gt;Node3 -->
<g id="edge5" class="edge">
<title>Node7&#45;&gt;Node3</title>
<path fill="none" stroke="#404040" d="M183.9542,-228.3463C176.2603,-215.9692 166.9681,-201.0209 158.3732,-187.1942"/>
<polygon fill="none" stroke="#404040" points="158.3097,-187.0921 151.7449,-184.1082 151.9745,-176.9007 158.5392,-179.8847 158.3097,-187.0921"/>
<text text-anchor="middle" x="222.4761" y="-197" font-family="Helvetica,sans-Serif" font-size="10.00" fill="#000000"> #supportedNotifications</text>
</g>
</g>
</svg>
