<?xml version="1.0" encoding="UTF-8" standalone="no"?>
<!DOCTYPE svg PUBLIC "-//W3C//DTD SVG 1.1//EN"
 "http://www.w3.org/Graphics/SVG/1.1/DTD/svg11.dtd">
<!-- Generated by graphviz version 2.40.1 (20161225.0304)
 -->
<!-- Title: fs::FSDirectorClipboardContentPkt Pages: 1 -->
<svg width="179pt" height="517pt"
 viewBox="0.00 0.00 179.34 517.00" xmlns="http://www.w3.org/2000/svg" xmlns:xlink="http://www.w3.org/1999/xlink">
<g id="graph0" class="graph" transform="scale(1 1) rotate(0) translate(4 513)">
<title>fs::FSDirectorClipboardContentPkt</title>
<!-- Node2 -->
<g id="node1" class="node">
<title>Node2</title>
<g id="a_node1"><a xlink:title=" ">
<polygon fill="#bfbfbf" stroke="#000000" points="0,-.5 0,-124.5 171.3369,-124.5 171.3369,-.5 0,-.5"/>
<text text-anchor="middle" x="85.6685" y="-112.5" font-family="Helvetica,sans-Serif" font-size="10.00" fill="#000000">fs::FSDirectorClipboardContentPkt</text>
<polyline fill="none" stroke="#000000" points="0,-106.5 171.3369,-106.5 "/>
<text text-anchor="middle" x="85.6685" y="-94.5" font-family="Helvetica,sans-Serif" font-size="10.00" fill="#000000"> </text>
<polyline fill="none" stroke="#000000" points="0,-88.5 171.3369,-88.5 "/>
<text text-anchor="start" x="8" y="-76.5" font-family="Helvetica,sans-Serif" font-size="10.00" fill="#000000">+ FSDirectorClipboardContentPkt()</text>
<text text-anchor="start" x="8" y="-66.5" font-family="Helvetica,sans-Serif" font-size="10.00" fill="#000000">+ type()</text>
<text text-anchor="start" x="8" y="-56.5" font-family="Helvetica,sans-Serif" font-size="10.00" fill="#000000">+ data()</text>
<text text-anchor="start" x="8" y="-46.5" font-family="Helvetica,sans-Serif" font-size="10.00" fill="#000000">+ contentType()</text>
<text text-anchor="start" x="8" y="-36.5" font-family="Helvetica,sans-Serif" font-size="10.00" fill="#000000">+ setType()</text>
<text text-anchor="start" x="8" y="-26.5" font-family="Helvetica,sans-Serif" font-size="10.00" fill="#000000">+ setData()</text>
<text text-anchor="start" x="8" y="-16.5" font-family="Helvetica,sans-Serif" font-size="10.00" fill="#000000">+ setContentType()</text>
<text text-anchor="start" x="8" y="-6.5" font-family="Helvetica,sans-Serif" font-size="10.00" fill="#000000">+ sizeConstraint()</text>
</a>
</g>
</g>
<!-- Node3 -->
<g id="node2" class="node">
<title>Node3</title>
<g id="a_node2"><a xlink:href="classfs_1_1_f_s_packet.html" target="_top" xlink:title=" ">
<polygon fill="none" stroke="#000000" points="45.4346,-162.5 45.4346,-276.5 125.9023,-276.5 125.9023,-162.5 45.4346,-162.5"/>
<text text-anchor="middle" x="85.6685" y="-264.5" font-family="Helvetica,sans-Serif" font-size="10.00" fill="#000000">fs::FSPacket</text>
<polyline fill="none" stroke="#000000" points="45.4346,-258.5 125.9023,-258.5 "/>
<text text-anchor="start" x="53.4346" y="-246.5" font-family="Helvetica,sans-Serif" font-size="10.00" fill="#000000"># m_iType</text>
<polyline fill="none" stroke="#000000" points="45.4346,-240.5 125.9023,-240.5 "/>
<text text-anchor="start" x="53.4346" y="-228.5" font-family="Helvetica,sans-Serif" font-size="10.00" fill="#000000">+ FSPacket()</text>
<text text-anchor="start" x="53.4346" y="-218.5" font-family="Helvetica,sans-Serif" font-size="10.00" fill="#000000">+ ~FSPacket()</text>
<text text-anchor="start" x="53.4346" y="-208.5" font-family="Helvetica,sans-Serif" font-size="10.00" fill="#000000">+ type()</text>
<text text-anchor="start" x="53.4346" y="-198.5" font-family="Helvetica,sans-Serif" font-size="10.00" fill="#000000">+ serialize()</text>
<text text-anchor="start" x="53.4346" y="-188.5" font-family="Helvetica,sans-Serif" font-size="10.00" fill="#000000">+ entry()</text>
<text text-anchor="start" x="53.4346" y="-178.5" font-family="Helvetica,sans-Serif" font-size="10.00" fill="#000000">+ setEntry()</text>
<text text-anchor="start" x="53.4346" y="-168.5" font-family="Helvetica,sans-Serif" font-size="10.00" fill="#000000">+ deserialize()</text>
</a>
</g>
</g>
<!-- Node3&#45;&gt;Node2 -->
<g id="edge1" class="edge">
<title>Node3&#45;&gt;Node2</title>
<path fill="none" stroke="#191970" d="M85.6685,-152.1641C85.6685,-143.0182 85.6685,-133.6659 85.6685,-124.6175"/>
<polygon fill="none" stroke="#191970" points="82.1686,-152.3752 85.6685,-162.3753 89.1686,-152.3753 82.1686,-152.3752"/>
</g>
<!-- Node4 -->
<g id="node3" class="node">
<title>Node4</title>
<g id="a_node3"><a xlink:title=" ">
<polygon fill="none" stroke="#bfbfbf" points="12.9224,-323.5 12.9224,-377.5 158.4146,-377.5 158.4146,-323.5 12.9224,-323.5"/>
<text text-anchor="middle" x="85.6685" y="-365.5" font-family="Helvetica,sans-Serif" font-size="10.00" fill="#000000">std::vector&lt; FSPktStream * &gt;</text>
<polyline fill="none" stroke="#bfbfbf" points="12.9224,-359.5 158.4146,-359.5 "/>
<text text-anchor="middle" x="85.6685" y="-347.5" font-family="Helvetica,sans-Serif" font-size="10.00" fill="#000000"> </text>
<polyline fill="none" stroke="#bfbfbf" points="12.9224,-341.5 158.4146,-341.5 "/>
<text text-anchor="middle" x="85.6685" y="-329.5" font-family="Helvetica,sans-Serif" font-size="10.00" fill="#000000"> </text>
</a>
</g>
</g>
<!-- Node4&#45;&gt;Node3 -->
<g id="edge2" class="edge">
<title>Node4&#45;&gt;Node3</title>
<path fill="none" stroke="#404040" d="M85.6685,-323.3567C85.6685,-313.1832 85.6685,-301.1036 85.6685,-288.8438"/>
<polygon fill="none" stroke="#404040" points="85.6686,-288.5878 81.6685,-282.5879 85.6685,-276.5878 89.6685,-282.5878 85.6686,-288.5878"/>
<text text-anchor="middle" x="114.8457" y="-297" font-family="Helvetica,sans-Serif" font-size="10.00" fill="#000000"> #m_xEntries</text>
</g>
<!-- Node5 -->
<g id="node4" class="node">
<title>Node5</title>
<g id="a_node4"><a xlink:href="classfs_1_1_f_s_pkt_stream.html" target="_top" xlink:title=" ">
<polygon fill="none" stroke="#000000" points="37.3804,-424.5 37.3804,-508.5 133.9565,-508.5 133.9565,-424.5 37.3804,-424.5"/>
<text text-anchor="middle" x="85.6685" y="-496.5" font-family="Helvetica,sans-Serif" font-size="10.00" fill="#000000">fs::FSPktStream</text>
<polyline fill="none" stroke="#000000" points="37.3804,-490.5 133.9565,-490.5 "/>
<text text-anchor="start" x="45.3804" y="-478.5" font-family="Helvetica,sans-Serif" font-size="10.00" fill="#000000"># m_pxObj</text>
<polyline fill="none" stroke="#000000" points="37.3804,-472.5 133.9565,-472.5 "/>
<text text-anchor="start" x="45.3804" y="-460.5" font-family="Helvetica,sans-Serif" font-size="10.00" fill="#000000">+ ~FSPktStream()</text>
<text text-anchor="start" x="45.3804" y="-450.5" font-family="Helvetica,sans-Serif" font-size="10.00" fill="#000000">+ read()</text>
<text text-anchor="start" x="45.3804" y="-440.5" font-family="Helvetica,sans-Serif" font-size="10.00" fill="#000000">+ write()</text>
<text text-anchor="start" x="45.3804" y="-430.5" font-family="Helvetica,sans-Serif" font-size="10.00" fill="#000000">+ object()</text>
</a>
</g>
</g>
<!-- Node5&#45;&gt;Node4 -->
<g id="edge3" class="edge">
<title>Node5&#45;&gt;Node4</title>
<path fill="none" stroke="#404040" d="M85.6685,-424.2932C85.6685,-412.9972 85.6685,-400.8361 85.6685,-389.7094"/>
<polygon fill="none" stroke="#404040" points="85.6686,-389.6877 81.6685,-383.6877 85.6685,-377.6877 89.6685,-383.6877 85.6686,-389.6877"/>
<text text-anchor="middle" x="110.2656" y="-398" font-family="Helvetica,sans-Serif" font-size="10.00" fill="#000000"> +elements</text>
</g>
</g>
</svg>
