<?xml version="1.0" encoding="UTF-8" standalone="no"?>
<!DOCTYPE svg PUBLIC "-//W3C//DTD SVG 1.1//EN"
 "http://www.w3.org/Graphics/SVG/1.1/DTD/svg11.dtd">
<!-- Generated by graphviz version 2.40.1 (20161225.0304)
 -->
<!-- Title: cx::HTTPRequest::Response::set_text Pages: 1 -->
<svg width="335pt" height="84pt"
 viewBox="0.00 0.00 334.99 84.00" xmlns="http://www.w3.org/2000/svg" xmlns:xlink="http://www.w3.org/1999/xlink">
<g id="graph0" class="graph" transform="scale(1 1) rotate(0) translate(4 80)">
<title>cx::HTTPRequest::Response::set_text</title>
<!-- Node31 -->
<g id="node1" class="node">
<title>Node31</title>
<g id="a_node1"><a xlink:title=" ">
<polygon fill="#bfbfbf" stroke="#000000" points="181.4971,-23.5 181.4971,-51.5 326.9941,-51.5 326.9941,-23.5 181.4971,-23.5"/>
<text text-anchor="start" x="189.4971" y="-39.5" font-family="Helvetica,sans-Serif" font-size="10.00" fill="#000000">cx::HTTPRequest::Response</text>
<text text-anchor="middle" x="254.2456" y="-29.5" font-family="Helvetica,sans-Serif" font-size="10.00" fill="#000000">::set_text</text>
</a>
</g>
</g>
<!-- Node32 -->
<g id="node2" class="node">
<title>Node32</title>
<g id="a_node2"><a xlink:href="classcx_1_1_h_t_t_p_request_1_1_response.html#af6826e1148557770d05ae90ae275f095" target="_top" xlink:title=" ">
<polygon fill="none" stroke="#000000" points="0,-47.5 0,-75.5 145.4971,-75.5 145.4971,-47.5 0,-47.5"/>
<text text-anchor="start" x="8" y="-63.5" font-family="Helvetica,sans-Serif" font-size="10.00" fill="#000000">cx::HTTPRequest::Response</text>
<text text-anchor="middle" x="72.7485" y="-53.5" font-family="Helvetica,sans-Serif" font-size="10.00" fill="#000000">::set_error</text>
</a>
</g>
</g>
<!-- Node31&#45;&gt;Node32 -->
<g id="edge1" class="edge">
<title>Node31&#45;&gt;Node32</title>
<path fill="none" stroke="#191970" d="M171.4023,-48.4547C162.7728,-49.5958 154.0472,-50.7496 145.5409,-51.8744"/>
<polygon fill="#191970" stroke="#191970" points="172.0147,-51.9042 181.4696,-47.1234 171.097,-44.9646 172.0147,-51.9042"/>
</g>
<!-- Node33 -->
<g id="node3" class="node">
<title>Node33</title>
<g id="a_node3"><a xlink:href="classcx_1_1_h_t_t_p_request_1_1_response.html#ab3574a02c260afa972c48be2dae22566" target="_top" xlink:title=" ">
<polygon fill="none" stroke="#000000" points="0,-.5 0,-28.5 145.4971,-28.5 145.4971,-.5 0,-.5"/>
<text text-anchor="start" x="8" y="-16.5" font-family="Helvetica,sans-Serif" font-size="10.00" fill="#000000">cx::HTTPRequest::Response</text>
<text text-anchor="middle" x="72.7485" y="-6.5" font-family="Helvetica,sans-Serif" font-size="10.00" fill="#000000">::set_bytes</text>
</a>
</g>
</g>
<!-- Node31&#45;&gt;Node33 -->
<g id="edge2" class="edge">
<title>Node31&#45;&gt;Node33</title>
<path fill="none" stroke="#191970" d="M171.4023,-27.0018C162.7728,-25.9082 154.0472,-24.8025 145.5409,-23.7245"/>
<polygon fill="#191970" stroke="#191970" points="171.1089,-30.4925 181.4696,-28.2775 171.989,-23.548 171.1089,-30.4925"/>
</g>
</g>
</svg>
