<?xml version="1.0" encoding="UTF-8" standalone="no"?>
<!DOCTYPE svg PUBLIC "-//W3C//DTD SVG 1.1//EN"
 "http://www.w3.org/Graphics/SVG/1.1/DTD/svg11.dtd">
<!-- Generated by graphviz version 2.40.1 (20161225.0304)
 -->
<!-- Title: cx::meeting::MeetingSessionProxy::attendees Pages: 1 -->
<svg width="341pt" height="94pt"
 viewBox="0.00 0.00 341.42 94.00" xmlns="http://www.w3.org/2000/svg" xmlns:xlink="http://www.w3.org/1999/xlink">
<g id="graph0" class="graph" transform="scale(1 1) rotate(0) translate(4 90)">
<title>cx::meeting::MeetingSessionProxy::attendees</title>
<!-- Node5 -->
<g id="node1" class="node">
<title>Node5</title>
<g id="a_node1"><a xlink:title=" ">
<polygon fill="#bfbfbf" stroke="#000000" points="0,-26.5 0,-54.5 143.8418,-54.5 143.8418,-26.5 0,-26.5"/>
<text text-anchor="start" x="8" y="-42.5" font-family="Helvetica,sans-Serif" font-size="10.00" fill="#000000">cx::meeting::MeetingSession</text>
<text text-anchor="middle" x="71.9209" y="-32.5" font-family="Helvetica,sans-Serif" font-size="10.00" fill="#000000">Proxy::attendees</text>
</a>
</g>
</g>
<!-- Node6 -->
<g id="node2" class="node">
<title>Node6</title>
<g id="a_node2"><a xlink:href="classcx_1_1meeting_1_1_meeting_feature_impl.html#a544244b1b0c8e35a1b9d8b80ee1d6755" target="_top" xlink:title=" ">
<polygon fill="none" stroke="#000000" points="179.8418,-47.5 179.8418,-85.5 333.4248,-85.5 333.4248,-47.5 179.8418,-47.5"/>
<text text-anchor="start" x="187.8418" y="-73.5" font-family="Helvetica,sans-Serif" font-size="10.00" fill="#000000">cx::meeting::MeetingFeature</text>
<text text-anchor="start" x="187.8418" y="-63.5" font-family="Helvetica,sans-Serif" font-size="10.00" fill="#000000">Impl&lt; MeetingAttendeeFeature</text>
<text text-anchor="middle" x="256.6333" y="-53.5" font-family="Helvetica,sans-Serif" font-size="10.00" fill="#000000"> &gt;::instance</text>
</a>
</g>
</g>
<!-- Node5&#45;&gt;Node6 -->
<g id="edge1" class="edge">
<title>Node5&#45;&gt;Node6</title>
<path fill="none" stroke="#191970" d="M143.8644,-50.6267C152.3101,-51.8155 160.9955,-53.0381 169.6186,-54.2519"/>
<polygon fill="#191970" stroke="#191970" points="169.3043,-57.7421 179.6946,-55.6702 170.2801,-50.8104 169.3043,-57.7421"/>
</g>
<!-- Node7 -->
<g id="node3" class="node">
<title>Node7</title>
<g id="a_node3"><a xlink:href="classcx_1_1meeting_1_1_meeting_session_proxy.html#a81e0a34d4a76c794a8a2a511bc7f2870" target="_top" xlink:title=" ">
<polygon fill="none" stroke="#000000" points="184.7124,-.5 184.7124,-28.5 328.5542,-28.5 328.5542,-.5 184.7124,-.5"/>
<text text-anchor="start" x="192.7124" y="-16.5" font-family="Helvetica,sans-Serif" font-size="10.00" fill="#000000">cx::meeting::MeetingSession</text>
<text text-anchor="middle" x="256.6333" y="-6.5" font-family="Helvetica,sans-Serif" font-size="10.00" fill="#000000">Proxy::requestFeature</text>
</a>
</g>
</g>
<!-- Node5&#45;&gt;Node7 -->
<g id="edge2" class="edge">
<title>Node5&#45;&gt;Node7</title>
<path fill="none" stroke="#191970" d="M143.8644,-30.3733C153.8929,-28.9617 164.2593,-27.5025 174.4581,-26.0669"/>
<polygon fill="#191970" stroke="#191970" points="175.1677,-29.5016 184.5822,-24.6419 174.192,-22.57 175.1677,-29.5016"/>
</g>
</g>
</svg>
