<?xml version="1.0" encoding="UTF-8" standalone="no"?>
<!DOCTYPE svg PUBLIC "-//W3C//DTD SVG 1.1//EN"
 "http://www.w3.org/Graphics/SVG/1.1/DTD/svg11.dtd">
<!-- Generated by graphviz version 2.40.1 (20161225.0304)
 -->
<!-- Title: cx::details::SubscriptionQueryHelper::getFullSubscription Pages: 1 -->
<!--zoomable 170 -->
<svg id="main" version="1.1" xmlns="http://www.w3.org/2000/svg" xmlns:xlink="http://www.w3.org/1999/xlink" xml:space="preserve" onload="init(evt)">
<style type="text/css"><![CDATA[
.edge:hover path { stroke: red; }
.edge:hover polygon { stroke: red; fill: red; }
]]></style>
<script type="text/javascript"><![CDATA[
var edges = document.getElementsByTagName('g');
if (edges && edges.length) {
  for (var i=0;i<edges.length;i++) {
    if (edges[i].id.substr(0,4)=='edge') {
      edges[i].setAttribute('class','edge');
    }
  }
}
]]></script>
        <defs>
                <circle id="rim" cx="0" cy="0" r="7"/>
                <circle id="rim2" cx="0" cy="0" r="3.5"/>
                <g id="zoomPlus">
                        <use xlink:href="#rim" fill="#404040">
                                <set attributeName="fill" to="#808080" begin="zoomplus.mouseover" end="zoomplus.mouseout"/>
                        </use>
                        <path d="M-4,0h8M0,-4v8" fill="none" stroke="white" stroke-width="1.5" pointer-events="none"/>
                </g>
                <g id="zoomMin">
                        <use xlink:href="#rim" fill="#404040">
                                <set attributeName="fill" to="#808080" begin="zoomminus.mouseover" end="zoomminus.mouseout"/>
                        </use>
                        <path d="M-4,0h8" fill="none" stroke="white" stroke-width="1.5" pointer-events="none"/>
                </g>
                <g id="dirArrow">
                        <path fill="none" stroke="white" stroke-width="1.5" d="M0,-3.0v7 M-2.5,-0.5L0,-3.0L2.5,-0.5"/>
                </g>
               <g id="resetDef">
                       <use xlink:href="#rim2" fill="#404040">
                               <set attributeName="fill" to="#808080" begin="reset.mouseover" end="reset.mouseout"/>
                       </use>
               </g>
        </defs>

<script type="text/javascript">
var viewWidth = 794;
var viewHeight = 170;
var sectionId = 'dynsection-4';
</script>
<script xlink:href="svgpan.js"/>
<svg id="graph" class="graph">
<g id="viewport">
<title>cx::details::SubscriptionQueryHelper::getFullSubscription</title>
<!-- Node23 -->
<g id="node1" class="node">
<title>Node23</title>
<g id="a_node1"><a xlink:title=" ">
<polygon fill="#bfbfbf" stroke="#000000" points="0,-64.5 0,-92.5 163.29,-92.5 163.29,-64.5 0,-64.5"/>
<text text-anchor="start" x="8" y="-80.5" font-family="Helvetica,sans-Serif" font-size="10.00" fill="#000000">cx::details::Subscription</text>
<text text-anchor="middle" x="81.645" y="-70.5" font-family="Helvetica,sans-Serif" font-size="10.00" fill="#000000">QueryHelper::getFullSubscription</text>
</a>
</g>
</g>
<!-- Node24 -->
<g id="node2" class="node">
<title>Node24</title>
<g id="a_node2"><a xlink:href="structcx_1_1web_1_1string__entity.html#a8f45125c509cee364d542be5ac1728d9" target="_top" xlink:title=" ">
<polygon fill="none" stroke="#000000" points="222.918,-133.5 222.918,-161.5 332.292,-161.5 332.292,-133.5 222.918,-133.5"/>
<text text-anchor="start" x="230.918" y="-149.5" font-family="Helvetica,sans-Serif" font-size="10.00" fill="#000000">cx::web::string_entity</text>
<text text-anchor="middle" x="277.605" y="-139.5" font-family="Helvetica,sans-Serif" font-size="10.00" fill="#000000">::copy_from</text>
</a>
</g>
</g>
<!-- Node23&#45;&gt;Node24 -->
<g id="edge1" class="edge">
<title>Node23&#45;&gt;Node24</title>
<path fill="none" stroke="#191970" d="M116.4225,-92.5158C139.7229,-101.7294 171.1678,-113.8249 199.29,-123.5 206.0387,-125.8218 213.1512,-128.1556 220.2255,-130.4076"/>
<polygon fill="#191970" stroke="#191970" points="219.2216,-133.7608 229.8109,-133.4188 221.3196,-127.0825 219.2216,-133.7608"/>
</g>
<!-- Node25 -->
<g id="node3" class="node">
<title>Node25</title>
<g id="a_node3"><a xlink:href="classcx_1_1web_1_1_subscription_entity.html#a5a5594f78e58387470a8453c62dab7f4" target="_top" xlink:title=" ">
<polygon fill="none" stroke="#000000" points="209.8564,-86.5 209.8564,-114.5 345.3535,-114.5 345.3535,-86.5 209.8564,-86.5"/>
<text text-anchor="start" x="217.8564" y="-102.5" font-family="Helvetica,sans-Serif" font-size="10.00" fill="#000000">cx::web::SubscriptionEntity</text>
<text text-anchor="middle" x="277.605" y="-92.5" font-family="Helvetica,sans-Serif" font-size="10.00" fill="#000000">::valid</text>
</a>
</g>
</g>
<!-- Node23&#45;&gt;Node25 -->
<g id="edge2" class="edge">
<title>Node23&#45;&gt;Node25</title>
<path fill="none" stroke="#191970" d="M163.3307,-87.6707C175.3914,-89.0247 187.7909,-90.4168 199.7705,-91.7617"/>
<polygon fill="#191970" stroke="#191970" points="199.3899,-95.2409 209.718,-92.8785 200.1709,-88.2846 199.3899,-95.2409"/>
</g>
<!-- Node28 -->
<g id="node6" class="node">
<title>Node28</title>
<g id="a_node6"><a xlink:href="structcx_1_1web_1_1json__entity.html#a1fbed015492bb7a0c4ec31550fc3de1d" target="_top" xlink:title=" ">
<polygon fill="none" stroke="#000000" points="534.2397,-79.5 534.2397,-107.5 637.5054,-107.5 637.5054,-79.5 534.2397,-79.5"/>
<text text-anchor="start" x="542.2397" y="-95.5" font-family="Helvetica,sans-Serif" font-size="10.00" fill="#000000">cx::web::json_entity</text>
<text text-anchor="middle" x="585.8726" y="-85.5" font-family="Helvetica,sans-Serif" font-size="10.00" fill="#000000">::get_json</text>
</a>
</g>
</g>
<!-- Node23&#45;&gt;Node28 -->
<g id="edge8" class="edge">
<title>Node23&#45;&gt;Node28</title>
<path fill="none" stroke="#191970" d="M163.6013,-76.928C175.5717,-76.7503 187.749,-76.5981 199.29,-76.5 268.9008,-75.9083 286.354,-73.9321 355.9199,-76.5 412.8225,-78.6005 477.4841,-83.6152 523.7149,-87.6571"/>
<polygon fill="#191970" stroke="#191970" points="523.6072,-91.1611 533.8766,-88.5558 524.2239,-84.1884 523.6072,-91.1611"/>
</g>
<!-- Node30 -->
<g id="node8" class="node">
<title>Node30</title>
<g id="a_node8"><a xlink:href="classcx_1_1details_1_1_subscription_query_helper.html#af66f97d275d98a91a159b9687a88d518" target="_top" xlink:title=" ">
<polygon fill="none" stroke="#000000" points="199.29,-.5 199.29,-28.5 355.9199,-28.5 355.9199,-.5 199.29,-.5"/>
<text text-anchor="start" x="207.29" y="-16.5" font-family="Helvetica,sans-Serif" font-size="10.00" fill="#000000">cx::details::Subscription</text>
<text text-anchor="middle" x="277.605" y="-6.5" font-family="Helvetica,sans-Serif" font-size="10.00" fill="#000000">QueryHelper::getPhoneNumber</text>
</a>
</g>
</g>
<!-- Node23&#45;&gt;Node30 -->
<g id="edge9" class="edge">
<title>Node23&#45;&gt;Node30</title>
<path fill="none" stroke="#191970" d="M124.6493,-64.4549C154.1312,-54.8262 193.4316,-41.9908 224.813,-31.7417"/>
<polygon fill="#191970" stroke="#191970" points="226.2818,-34.944 234.7011,-28.5123 224.1086,-28.2899 226.2818,-34.944"/>
</g>
<!-- Node26 -->
<g id="node4" class="node">
<title>Node26</title>
<g id="a_node4"><a xlink:href="structcx_1_1web_1_1json__entity.html#aa681ca07ba01ea1346649b9bb01c71af" target="_top" xlink:title=" ">
<polygon fill="none" stroke="#000000" points="391.9199,-124.5 391.9199,-152.5 495.1855,-152.5 495.1855,-124.5 391.9199,-124.5"/>
<text text-anchor="start" x="399.9199" y="-140.5" font-family="Helvetica,sans-Serif" font-size="10.00" fill="#000000">cx::web::json_entity</text>
<text text-anchor="middle" x="443.5527" y="-130.5" font-family="Helvetica,sans-Serif" font-size="10.00" fill="#000000">::valid</text>
</a>
</g>
</g>
<!-- Node25&#45;&gt;Node26 -->
<g id="edge3" class="edge">
<title>Node25&#45;&gt;Node26</title>
<path fill="none" stroke="#191970" d="M338.9263,-114.5418C352.8939,-117.7402 367.7417,-121.1402 381.7301,-124.3434"/>
<polygon fill="#191970" stroke="#191970" points="381.2101,-127.8148 391.7391,-126.6353 382.7726,-120.9914 381.2101,-127.8148"/>
</g>
<!-- Node25&#45;&gt;Node28 -->
<g id="edge7" class="edge">
<title>Node25&#45;&gt;Node28</title>
<path fill="none" stroke="#191970" d="M345.6372,-98.9552C398.8295,-97.7473 472.1654,-96.082 523.7769,-94.91"/>
<polygon fill="#191970" stroke="#191970" points="523.8792,-98.4087 533.7971,-94.6825 523.7202,-91.4105 523.8792,-98.4087"/>
</g>
<!-- Node27 -->
<g id="node5" class="node">
<title>Node27</title>
<g id="a_node5"><a xlink:href="structcx_1_1web_1_1string__entity.html#adbe62e791cc18ea9f4ae7fc45468c32c" target="_top" xlink:title=" ">
<polygon fill="none" stroke="#000000" points="531.1855,-126.5 531.1855,-154.5 640.5596,-154.5 640.5596,-126.5 531.1855,-126.5"/>
<text text-anchor="start" x="539.1855" y="-142.5" font-family="Helvetica,sans-Serif" font-size="10.00" fill="#000000">cx::web::string_entity</text>
<text text-anchor="middle" x="585.8726" y="-132.5" font-family="Helvetica,sans-Serif" font-size="10.00" fill="#000000">::valid</text>
</a>
</g>
</g>
<!-- Node26&#45;&gt;Node27 -->
<g id="edge4" class="edge">
<title>Node26&#45;&gt;Node27</title>
<path fill="none" stroke="#191970" d="M495.3361,-139.2277C503.6763,-139.3449 512.4009,-139.4675 521.002,-139.5884"/>
<polygon fill="#191970" stroke="#191970" points="520.9636,-143.0881 531.0118,-139.729 521.062,-136.0888 520.9636,-143.0881"/>
</g>
<!-- Node26&#45;&gt;Node28 -->
<g id="edge5" class="edge">
<title>Node26&#45;&gt;Node28</title>
<path fill="none" stroke="#191970" d="M488.1931,-124.3852C501.9698,-120.0291 517.2941,-115.1838 531.6433,-110.6467"/>
<polygon fill="#191970" stroke="#191970" points="532.911,-113.9167 541.3906,-107.5647 530.8006,-107.2424 532.911,-113.9167"/>
</g>
<!-- Node29 -->
<g id="node7" class="node">
<title>Node29</title>
<g id="a_node7"><a xlink:href="structcx_1_1web_1_1string__entity.html#a532443f26d829f9d361289d856513ff4" target="_top" xlink:title=" ">
<polygon fill="none" stroke="#000000" points="676.5596,-79.5 676.5596,-107.5 785.9336,-107.5 785.9336,-79.5 676.5596,-79.5"/>
<text text-anchor="start" x="684.5596" y="-95.5" font-family="Helvetica,sans-Serif" font-size="10.00" fill="#000000">cx::web::string_entity</text>
<text text-anchor="middle" x="731.2466" y="-85.5" font-family="Helvetica,sans-Serif" font-size="10.00" fill="#000000">::get_string</text>
</a>
</g>
</g>
<!-- Node28&#45;&gt;Node29 -->
<g id="edge6" class="edge">
<title>Node28&#45;&gt;Node29</title>
<path fill="none" stroke="#191970" d="M637.5353,-93.5C646.765,-93.5 656.4895,-93.5 666.0399,-93.5"/>
<polygon fill="#191970" stroke="#191970" points="666.3031,-97.0001 676.3031,-93.5 666.3031,-90.0001 666.3031,-97.0001"/>
</g>
</g>
</svg>
        <g id="navigator" transform="translate(0 0)" fill="#404254">
                <rect fill="#f2f5e9" fill-opacity="0.5" stroke="#606060" stroke-width=".5" x="0" y="0" width="60" height="60"/>
                <use id="zoomplus" xlink:href="#zoomPlus" x="17" y="9" onmousedown="handleZoom(evt,'in')"/>
                <use id="zoomminus" xlink:href="#zoomMin" x="42" y="9" onmousedown="handleZoom(evt,'out')"/>
                <use id="reset" xlink:href="#resetDef" x="30" y="36" onmousedown="handleReset()"/>
                <g id="arrowUp" xlink:href="#dirArrow" transform="translate(30 24)" onmousedown="handlePan(0,-1)">
                  <use xlink:href="#rim" fill="#404040">
                        <set attributeName="fill" to="#808080" begin="arrowUp.mouseover" end="arrowUp.mouseout"/>
                  </use>
                  <path fill="none" stroke="white" stroke-width="1.5" d="M0,-3.0v7 M-2.5,-0.5L0,-3.0L2.5,-0.5"/>
                </g>
                <g id="arrowRight" xlink:href="#dirArrow" transform="rotate(90) translate(36 -43)" onmousedown="handlePan(1,0)">
                  <use xlink:href="#rim" fill="#404040">
                        <set attributeName="fill" to="#808080" begin="arrowRight.mouseover" end="arrowRight.mouseout"/>
                  </use>
                  <path fill="none" stroke="white" stroke-width="1.5" d="M0,-3.0v7 M-2.5,-0.5L0,-3.0L2.5,-0.5"/>
                </g>
                <g id="arrowDown" xlink:href="#dirArrow" transform="rotate(180) translate(-30 -48)" onmousedown="handlePan(0,1)">
                  <use xlink:href="#rim" fill="#404040">
                        <set attributeName="fill" to="#808080" begin="arrowDown.mouseover" end="arrowDown.mouseout"/>
                  </use>
                  <path fill="none" stroke="white" stroke-width="1.5" d="M0,-3.0v7 M-2.5,-0.5L0,-3.0L2.5,-0.5"/>
                </g>
                <g id="arrowLeft" xlink:href="#dirArrow" transform="rotate(270) translate(-36 17)" onmousedown="handlePan(-1,0)">
                  <use xlink:href="#rim" fill="#404040">
                        <set attributeName="fill" to="#808080" begin="arrowLeft.mouseover" end="arrowLeft.mouseout"/>
                  </use>
                  <path fill="none" stroke="white" stroke-width="1.5" d="M0,-3.0v7 M-2.5,-0.5L0,-3.0L2.5,-0.5"/>
                </g>
        </g>
        <svg viewBox="0 0 15 15" width="100%" height="30px" preserveAspectRatio="xMaxYMin meet">
         <g id="arrow_out" transform="scale(0.3 0.3)">
          <a xlink:href="classcx_1_1details_1_1_subscription_query_helper_a57ed35c96c2167ac90c88d869798d4c4_cgraph_org.svg" target="_base">
           <rect id="button" ry="5" rx="5" y="6" x="6" height="38" width="38"
                fill="#f2f5e9" fill-opacity="0.5" stroke="#606060" stroke-width="1.0"/>
           <path id="arrow"
             d="M 11.500037,31.436501 C 11.940474,20.09759 22.043105,11.32322 32.158766,21.979434 L 37.068811,17.246167 C 37.068811,17.246167 37.088388,32 37.088388,32 L 22.160133,31.978069 C 22.160133,31.978069 26.997745,27.140456 26.997745,27.140456 C 18.528582,18.264221 13.291696,25.230495 11.500037,31.436501 z"
             style="fill:#404040;"/>
          </a>
         </g>
        </svg>
</svg>
