<?xml version="1.0" encoding="UTF-8" standalone="no"?>
<!DOCTYPE svg PUBLIC "-//W3C//DTD SVG 1.1//EN"
 "http://www.w3.org/Graphics/SVG/1.1/DTD/svg11.dtd">
<!-- Generated by graphviz version 2.40.1 (20161225.0304)
 -->
<!-- Title: fs::ChatNotificationsNullDelegate Pages: 1 -->
<svg width="164pt" height="305pt"
 viewBox="0.00 0.00 163.52 305.00" xmlns="http://www.w3.org/2000/svg" xmlns:xlink="http://www.w3.org/1999/xlink">
<g id="graph0" class="graph" transform="scale(1 1) rotate(0) translate(4 301)">
<title>fs::ChatNotificationsNullDelegate</title>
<!-- Node6 -->
<g id="node1" class="node">
<title>Node6</title>
<g id="a_node1"><a xlink:title=" ">
<polygon fill="#bfbfbf" stroke="#000000" points="16.6821,-.5 16.6821,-84.5 138.8345,-84.5 138.8345,-.5 16.6821,-.5"/>
<text text-anchor="start" x="24.6821" y="-72.5" font-family="Helvetica,sans-Serif" font-size="10.00" fill="#000000">fs::ChatNotificationsNull</text>
<text text-anchor="middle" x="77.7583" y="-62.5" font-family="Helvetica,sans-Serif" font-size="10.00" fill="#000000">Delegate</text>
<polyline fill="none" stroke="#000000" points="16.6821,-56.5 138.8345,-56.5 "/>
<text text-anchor="middle" x="77.7583" y="-44.5" font-family="Helvetica,sans-Serif" font-size="10.00" fill="#000000"> </text>
<polyline fill="none" stroke="#000000" points="16.6821,-38.5 138.8345,-38.5 "/>
<text text-anchor="start" x="24.6821" y="-26.5" font-family="Helvetica,sans-Serif" font-size="10.00" fill="#000000">+ EMPTY_METHOD()</text>
<text text-anchor="start" x="24.6821" y="-16.5" font-family="Helvetica,sans-Serif" font-size="10.00" fill="#000000">+ EMPTY_METHOD()</text>
<text text-anchor="start" x="24.6821" y="-6.5" font-family="Helvetica,sans-Serif" font-size="10.00" fill="#000000">+ EMPTY_METHOD()</text>
</a>
</g>
</g>
<!-- Node7 -->
<g id="node2" class="node">
<title>Node7</title>
<g id="a_node2"><a xlink:href="classfs_1_1_i_chat_notifications_delegate.html" target="_top" xlink:title=" ">
<polygon fill="none" stroke="#000000" points="0,-121.5 0,-175.5 155.5166,-175.5 155.5166,-121.5 0,-121.5"/>
<text text-anchor="middle" x="77.7583" y="-163.5" font-family="Helvetica,sans-Serif" font-size="10.00" fill="#000000">fs::IChatNotificationsDelegate</text>
<polyline fill="none" stroke="#000000" points="0,-157.5 155.5166,-157.5 "/>
<text text-anchor="middle" x="77.7583" y="-145.5" font-family="Helvetica,sans-Serif" font-size="10.00" fill="#000000"> </text>
<polyline fill="none" stroke="#000000" points="0,-139.5 155.5166,-139.5 "/>
<text text-anchor="start" x="8" y="-127.5" font-family="Helvetica,sans-Serif" font-size="10.00" fill="#000000">+ ~IChatNotificationsDelegate()</text>
</a>
</g>
</g>
<!-- Node7&#45;&gt;Node6 -->
<g id="edge1" class="edge">
<title>Node7&#45;&gt;Node6</title>
<path fill="none" stroke="#191970" d="M77.7583,-111.3536C77.7583,-102.7475 77.7583,-93.5271 77.7583,-84.7212"/>
<polygon fill="none" stroke="#191970" points="74.2584,-111.4774 77.7583,-121.4775 81.2584,-111.4775 74.2584,-111.4774"/>
</g>
<!-- Node8 -->
<g id="node3" class="node">
<title>Node8</title>
<g id="a_node3"><a xlink:href="classfs_1_1_chat_notifications.html" target="_top" xlink:title=" ">
<polygon fill="none" stroke="#000000" points="11.2769,-212.5 11.2769,-296.5 144.2397,-296.5 144.2397,-212.5 11.2769,-212.5"/>
<text text-anchor="middle" x="77.7583" y="-284.5" font-family="Helvetica,sans-Serif" font-size="10.00" fill="#000000">fs::ChatNotifications</text>
<polyline fill="none" stroke="#000000" points="11.2769,-278.5 144.2397,-278.5 "/>
<text text-anchor="middle" x="77.7583" y="-266.5" font-family="Helvetica,sans-Serif" font-size="10.00" fill="#000000"> </text>
<polyline fill="none" stroke="#000000" points="11.2769,-260.5 144.2397,-260.5 "/>
<text text-anchor="start" x="19.2769" y="-248.5" font-family="Helvetica,sans-Serif" font-size="10.00" fill="#000000">+ ~ChatNotifications()</text>
<text text-anchor="start" x="19.2769" y="-238.5" font-family="Helvetica,sans-Serif" font-size="10.00" fill="#000000">+ ABSTRACT_METHOD()</text>
<text text-anchor="start" x="19.2769" y="-228.5" font-family="Helvetica,sans-Serif" font-size="10.00" fill="#000000">+ ABSTRACT_METHOD()</text>
<text text-anchor="start" x="19.2769" y="-218.5" font-family="Helvetica,sans-Serif" font-size="10.00" fill="#000000">+ ABSTRACT_METHOD()</text>
</a>
</g>
</g>
<!-- Node8&#45;&gt;Node7 -->
<g id="edge2" class="edge">
<title>Node8&#45;&gt;Node7</title>
<path fill="none" stroke="#191970" d="M77.7583,-202.041C77.7583,-192.8936 77.7583,-183.7248 77.7583,-175.6245"/>
<polygon fill="none" stroke="#191970" points="74.2584,-202.3014 77.7583,-212.3014 81.2584,-202.3015 74.2584,-202.3014"/>
</g>
</g>
</svg>
