<?xml version="1.0" encoding="UTF-8" standalone="no"?>
<!DOCTYPE svg PUBLIC "-//W3C//DTD SVG 1.1//EN"
 "http://www.w3.org/Graphics/SVG/1.1/DTD/svg11.dtd">
<!-- Generated by graphviz version 2.40.1 (20161225.0304)
 -->
<!-- Title: fs::VoIPClientProxy::onMediaStateChanged Pages: 1 -->
<svg width="539pt" height="37pt"
 viewBox="0.00 0.00 539.19 37.00" xmlns="http://www.w3.org/2000/svg" xmlns:xlink="http://www.w3.org/1999/xlink">
<g id="graph0" class="graph" transform="scale(1 1) rotate(0) translate(4 33)">
<title>fs::VoIPClientProxy::onMediaStateChanged</title>
<!-- Node36 -->
<g id="node1" class="node">
<title>Node36</title>
<g id="a_node1"><a xlink:title=" ">
<polygon fill="#bfbfbf" stroke="#000000" points="0,-.5 0,-28.5 123.8564,-28.5 123.8564,-.5 0,-.5"/>
<text text-anchor="start" x="8" y="-16.5" font-family="Helvetica,sans-Serif" font-size="10.00" fill="#000000">fs::VoIPClientProxy</text>
<text text-anchor="middle" x="61.9282" y="-6.5" font-family="Helvetica,sans-Serif" font-size="10.00" fill="#000000">::onMediaStateChanged</text>
</a>
</g>
</g>
<!-- Node37 -->
<g id="node2" class="node">
<title>Node37</title>
<g id="a_node2"><a xlink:href="classfs_1_1_vo_i_p_client_delegate.html#aca3a874472f78b0a61e7783dbf71aa32" target="_top" xlink:title=" ">
<polygon fill="none" stroke="#000000" points="159.8564,-.5 159.8564,-28.5 328.9082,-28.5 328.9082,-.5 159.8564,-.5"/>
<text text-anchor="start" x="167.8564" y="-16.5" font-family="Helvetica,sans-Serif" font-size="10.00" fill="#000000">fs::VoIPClientDelegate</text>
<text text-anchor="middle" x="244.3823" y="-6.5" font-family="Helvetica,sans-Serif" font-size="10.00" fill="#000000">::fireTransportMediaStateChanged</text>
</a>
</g>
</g>
<!-- Node36&#45;&gt;Node37 -->
<g id="edge1" class="edge">
<title>Node36&#45;&gt;Node37</title>
<path fill="none" stroke="#191970" d="M123.9534,-14.5C132.1955,-14.5 140.793,-14.5 149.4352,-14.5"/>
<polygon fill="#191970" stroke="#191970" points="149.5822,-18.0001 159.5822,-14.5 149.5821,-11.0001 149.5822,-18.0001"/>
</g>
<!-- Node38 -->
<g id="node3" class="node">
<title>Node38</title>
<g id="a_node3"><a xlink:href="classfs_1_1_vo_i_p_client_delegate.html#accad3de00605b17ed17c75dcf43e7e5f" target="_top" xlink:title=" ">
<polygon fill="none" stroke="#000000" points="364.9082,-.5 364.9082,-28.5 531.1914,-28.5 531.1914,-.5 364.9082,-.5"/>
<text text-anchor="start" x="372.9082" y="-16.5" font-family="Helvetica,sans-Serif" font-size="10.00" fill="#000000">fs::VoIPClientDelegate</text>
<text text-anchor="middle" x="448.0498" y="-6.5" font-family="Helvetica,sans-Serif" font-size="10.00" fill="#000000">::onTransportMediaStateChanged</text>
</a>
</g>
</g>
<!-- Node37&#45;&gt;Node38 -->
<g id="edge2" class="edge">
<title>Node37&#45;&gt;Node38</title>
<path fill="none" stroke="#191970" d="M328.9863,-14.5C337.4701,-14.5 346.1182,-14.5 354.6857,-14.5"/>
<polygon fill="#191970" stroke="#191970" points="354.6917,-18.0001 364.6917,-14.5 354.6917,-11.0001 354.6917,-18.0001"/>
</g>
</g>
</svg>
