<?xml version="1.0" encoding="UTF-8" standalone="no"?>
<!DOCTYPE svg PUBLIC "-//W3C//DTD SVG 1.1//EN"
 "http://www.w3.org/Graphics/SVG/1.1/DTD/svg11.dtd">
<!-- Generated by graphviz version 2.40.1 (20161225.0304)
 -->
<!-- Title: fs::FSInfoBlockPkt Pages: 1 -->
<svg width="153pt" height="497pt"
 viewBox="0.00 0.00 153.49 497.00" xmlns="http://www.w3.org/2000/svg" xmlns:xlink="http://www.w3.org/1999/xlink">
<g id="graph0" class="graph" transform="scale(1 1) rotate(0) translate(4 493)">
<title>fs::FSInfoBlockPkt</title>
<!-- Node2 -->
<g id="node1" class="node">
<title>Node2</title>
<g id="a_node1"><a xlink:title=" ">
<polygon fill="#bfbfbf" stroke="#000000" points="22.9272,-.5 22.9272,-104.5 122.5649,-104.5 122.5649,-.5 22.9272,-.5"/>
<text text-anchor="middle" x="72.7461" y="-92.5" font-family="Helvetica,sans-Serif" font-size="10.00" fill="#000000">fs::FSInfoBlockPkt</text>
<polyline fill="none" stroke="#000000" points="22.9272,-86.5 122.5649,-86.5 "/>
<text text-anchor="middle" x="72.7461" y="-74.5" font-family="Helvetica,sans-Serif" font-size="10.00" fill="#000000"> </text>
<polyline fill="none" stroke="#000000" points="22.9272,-68.5 122.5649,-68.5 "/>
<text text-anchor="start" x="30.9272" y="-56.5" font-family="Helvetica,sans-Serif" font-size="10.00" fill="#000000">+ FSInfoBlockPkt()</text>
<text text-anchor="start" x="30.9272" y="-46.5" font-family="Helvetica,sans-Serif" font-size="10.00" fill="#000000">+ block()</text>
<text text-anchor="start" x="30.9272" y="-36.5" font-family="Helvetica,sans-Serif" font-size="10.00" fill="#000000">+ setBlock()</text>
<text text-anchor="start" x="30.9272" y="-26.5" font-family="Helvetica,sans-Serif" font-size="10.00" fill="#000000">+ setStartTime()</text>
<text text-anchor="start" x="30.9272" y="-16.5" font-family="Helvetica,sans-Serif" font-size="10.00" fill="#000000">+ reason()</text>
<text text-anchor="start" x="30.9272" y="-6.5" font-family="Helvetica,sans-Serif" font-size="10.00" fill="#000000">+ setReason()</text>
</a>
</g>
</g>
<!-- Node3 -->
<g id="node2" class="node">
<title>Node3</title>
<g id="a_node2"><a xlink:href="classfs_1_1_f_s_packet.html" target="_top" xlink:title=" ">
<polygon fill="none" stroke="#000000" points="32.5122,-142.5 32.5122,-256.5 112.98,-256.5 112.98,-142.5 32.5122,-142.5"/>
<text text-anchor="middle" x="72.7461" y="-244.5" font-family="Helvetica,sans-Serif" font-size="10.00" fill="#000000">fs::FSPacket</text>
<polyline fill="none" stroke="#000000" points="32.5122,-238.5 112.98,-238.5 "/>
<text text-anchor="start" x="40.5122" y="-226.5" font-family="Helvetica,sans-Serif" font-size="10.00" fill="#000000"># m_iType</text>
<polyline fill="none" stroke="#000000" points="32.5122,-220.5 112.98,-220.5 "/>
<text text-anchor="start" x="40.5122" y="-208.5" font-family="Helvetica,sans-Serif" font-size="10.00" fill="#000000">+ FSPacket()</text>
<text text-anchor="start" x="40.5122" y="-198.5" font-family="Helvetica,sans-Serif" font-size="10.00" fill="#000000">+ ~FSPacket()</text>
<text text-anchor="start" x="40.5122" y="-188.5" font-family="Helvetica,sans-Serif" font-size="10.00" fill="#000000">+ type()</text>
<text text-anchor="start" x="40.5122" y="-178.5" font-family="Helvetica,sans-Serif" font-size="10.00" fill="#000000">+ serialize()</text>
<text text-anchor="start" x="40.5122" y="-168.5" font-family="Helvetica,sans-Serif" font-size="10.00" fill="#000000">+ entry()</text>
<text text-anchor="start" x="40.5122" y="-158.5" font-family="Helvetica,sans-Serif" font-size="10.00" fill="#000000">+ setEntry()</text>
<text text-anchor="start" x="40.5122" y="-148.5" font-family="Helvetica,sans-Serif" font-size="10.00" fill="#000000">+ deserialize()</text>
</a>
</g>
</g>
<!-- Node3&#45;&gt;Node2 -->
<g id="edge1" class="edge">
<title>Node3&#45;&gt;Node2</title>
<path fill="none" stroke="#191970" d="M72.7461,-132.2426C72.7461,-122.95 72.7461,-113.5234 72.7461,-104.5627"/>
<polygon fill="none" stroke="#191970" points="69.2462,-132.245 72.7461,-142.245 76.2462,-132.2451 69.2462,-132.245"/>
</g>
<!-- Node4 -->
<g id="node3" class="node">
<title>Node4</title>
<g id="a_node3"><a xlink:title=" ">
<polygon fill="none" stroke="#bfbfbf" points="0,-303.5 0,-357.5 145.4922,-357.5 145.4922,-303.5 0,-303.5"/>
<text text-anchor="middle" x="72.7461" y="-345.5" font-family="Helvetica,sans-Serif" font-size="10.00" fill="#000000">std::vector&lt; FSPktStream * &gt;</text>
<polyline fill="none" stroke="#bfbfbf" points="0,-339.5 145.4922,-339.5 "/>
<text text-anchor="middle" x="72.7461" y="-327.5" font-family="Helvetica,sans-Serif" font-size="10.00" fill="#000000"> </text>
<polyline fill="none" stroke="#bfbfbf" points="0,-321.5 145.4922,-321.5 "/>
<text text-anchor="middle" x="72.7461" y="-309.5" font-family="Helvetica,sans-Serif" font-size="10.00" fill="#000000"> </text>
</a>
</g>
</g>
<!-- Node4&#45;&gt;Node3 -->
<g id="edge2" class="edge">
<title>Node4&#45;&gt;Node3</title>
<path fill="none" stroke="#404040" d="M72.7461,-303.3567C72.7461,-293.1832 72.7461,-281.1036 72.7461,-268.8438"/>
<polygon fill="none" stroke="#404040" points="72.7462,-268.5878 68.7461,-262.5879 72.7461,-256.5878 76.7461,-262.5878 72.7462,-268.5878"/>
<text text-anchor="middle" x="101.9233" y="-277" font-family="Helvetica,sans-Serif" font-size="10.00" fill="#000000"> #m_xEntries</text>
</g>
<!-- Node5 -->
<g id="node4" class="node">
<title>Node5</title>
<g id="a_node4"><a xlink:href="classfs_1_1_f_s_pkt_stream.html" target="_top" xlink:title=" ">
<polygon fill="none" stroke="#000000" points="24.458,-404.5 24.458,-488.5 121.0342,-488.5 121.0342,-404.5 24.458,-404.5"/>
<text text-anchor="middle" x="72.7461" y="-476.5" font-family="Helvetica,sans-Serif" font-size="10.00" fill="#000000">fs::FSPktStream</text>
<polyline fill="none" stroke="#000000" points="24.458,-470.5 121.0342,-470.5 "/>
<text text-anchor="start" x="32.458" y="-458.5" font-family="Helvetica,sans-Serif" font-size="10.00" fill="#000000"># m_pxObj</text>
<polyline fill="none" stroke="#000000" points="24.458,-452.5 121.0342,-452.5 "/>
<text text-anchor="start" x="32.458" y="-440.5" font-family="Helvetica,sans-Serif" font-size="10.00" fill="#000000">+ ~FSPktStream()</text>
<text text-anchor="start" x="32.458" y="-430.5" font-family="Helvetica,sans-Serif" font-size="10.00" fill="#000000">+ read()</text>
<text text-anchor="start" x="32.458" y="-420.5" font-family="Helvetica,sans-Serif" font-size="10.00" fill="#000000">+ write()</text>
<text text-anchor="start" x="32.458" y="-410.5" font-family="Helvetica,sans-Serif" font-size="10.00" fill="#000000">+ object()</text>
</a>
</g>
</g>
<!-- Node5&#45;&gt;Node4 -->
<g id="edge3" class="edge">
<title>Node5&#45;&gt;Node4</title>
<path fill="none" stroke="#404040" d="M72.7461,-404.2932C72.7461,-392.9972 72.7461,-380.8361 72.7461,-369.7094"/>
<polygon fill="none" stroke="#404040" points="72.7462,-369.6877 68.7461,-363.6877 72.7461,-357.6877 76.7461,-363.6877 72.7462,-369.6877"/>
<text text-anchor="middle" x="97.3433" y="-378" font-family="Helvetica,sans-Serif" font-size="10.00" fill="#000000"> +elements</text>
</g>
</g>
</svg>
