<?xml version="1.0" encoding="UTF-8" standalone="no"?>
<!DOCTYPE svg PUBLIC "-//W3C//DTD SVG 1.1//EN"
 "http://www.w3.org/Graphics/SVG/1.1/DTD/svg11.dtd">
<!-- Generated by graphviz version 2.40.1 (20161225.0304)
 -->
<!-- Title: fs::VideoController::videoPresenter Pages: 1 -->
<svg width="303pt" height="104pt"
 viewBox="0.00 0.00 303.20 104.00" xmlns="http://www.w3.org/2000/svg" xmlns:xlink="http://www.w3.org/1999/xlink">
<g id="graph0" class="graph" transform="scale(1 1) rotate(0) translate(4 100)">
<title>fs::VideoController::videoPresenter</title>
<!-- Node78 -->
<g id="node1" class="node">
<title>Node78</title>
<g id="a_node1"><a xlink:title=" ">
<polygon fill="#bfbfbf" stroke="#000000" points="197.1123,-33.5 197.1123,-61.5 295.1973,-61.5 295.1973,-33.5 197.1123,-33.5"/>
<text text-anchor="start" x="205.1123" y="-49.5" font-family="Helvetica,sans-Serif" font-size="10.00" fill="#000000">fs::VideoController</text>
<text text-anchor="middle" x="246.1548" y="-39.5" font-family="Helvetica,sans-Serif" font-size="10.00" fill="#000000">::videoPresenter</text>
</a>
</g>
</g>
<!-- Node79 -->
<g id="node2" class="node">
<title>Node79</title>
<g id="a_node2"><a xlink:href="classfs_1_1_video_controller.html#a0e11a96cc2820d2e3338ee1d70653f48" target="_top" xlink:title=" ">
<polygon fill="none" stroke="#000000" points="0,-57.5 0,-95.5 161.1123,-95.5 161.1123,-57.5 0,-57.5"/>
<text text-anchor="start" x="8" y="-83.5" font-family="Helvetica,sans-Serif" font-size="10.00" fill="#000000">fs::VideoController</text>
<text text-anchor="start" x="8" y="-73.5" font-family="Helvetica,sans-Serif" font-size="10.00" fill="#000000">::handleAttendeeSubConference</text>
<text text-anchor="middle" x="80.5562" y="-63.5" font-family="Helvetica,sans-Serif" font-size="10.00" fill="#000000">Enter</text>
</a>
</g>
</g>
<!-- Node78&#45;&gt;Node79 -->
<g id="edge1" class="edge">
<title>Node78&#45;&gt;Node79</title>
<path fill="none" stroke="#191970" d="M186.9382,-57.8701C178.5939,-59.3314 169.9009,-60.8538 161.2388,-62.3707"/>
<polygon fill="#191970" stroke="#191970" points="187.6718,-61.295 196.9181,-56.1224 186.4642,-54.4 187.6718,-61.295"/>
</g>
<!-- Node80 -->
<g id="node3" class="node">
<title>Node80</title>
<g id="a_node3"><a xlink:href="classfs_1_1_video_controller.html#aff5996933fc35b9c6cacd3746934d734" target="_top" xlink:title=" ">
<polygon fill="none" stroke="#000000" points="0,-.5 0,-38.5 161.1123,-38.5 161.1123,-.5 0,-.5"/>
<text text-anchor="start" x="8" y="-26.5" font-family="Helvetica,sans-Serif" font-size="10.00" fill="#000000">fs::VideoController</text>
<text text-anchor="start" x="8" y="-16.5" font-family="Helvetica,sans-Serif" font-size="10.00" fill="#000000">::handleAttendeeSubConference</text>
<text text-anchor="middle" x="80.5562" y="-6.5" font-family="Helvetica,sans-Serif" font-size="10.00" fill="#000000">Leave</text>
</a>
</g>
</g>
<!-- Node78&#45;&gt;Node80 -->
<g id="edge2" class="edge">
<title>Node78&#45;&gt;Node80</title>
<path fill="none" stroke="#191970" d="M186.9382,-37.4875C178.5939,-36.0766 169.9009,-34.6067 161.2388,-33.1421"/>
<polygon fill="#191970" stroke="#191970" points="186.4745,-40.9586 196.9181,-39.1749 187.6416,-34.0566 186.4745,-40.9586"/>
</g>
</g>
</svg>
