<?xml version="1.0" encoding="UTF-8" standalone="no"?>
<!DOCTYPE svg PUBLIC "-//W3C//DTD SVG 1.1//EN"
 "http://www.w3.org/Graphics/SVG/1.1/DTD/svg11.dtd">
<!-- Generated by graphviz version 2.40.1 (20161225.0304)
 -->
<!-- Title: cx::web::APIv4Wrapper::getSubscriptionByMeetingUrl Pages: 1 -->
<svg width="506pt" height="74pt"
 viewBox="0.00 0.00 506.49 74.00" xmlns="http://www.w3.org/2000/svg" xmlns:xlink="http://www.w3.org/1999/xlink">
<g id="graph0" class="graph" transform="scale(1 1) rotate(0) translate(4 70)">
<title>cx::web::APIv4Wrapper::getSubscriptionByMeetingUrl</title>
<!-- Node66 -->
<g id="node1" class="node">
<title>Node66</title>
<g id="a_node1"><a xlink:title=" ">
<polygon fill="#bfbfbf" stroke="#000000" points="0,-21.5 0,-49.5 150.5068,-49.5 150.5068,-21.5 0,-21.5"/>
<text text-anchor="start" x="8" y="-37.5" font-family="Helvetica,sans-Serif" font-size="10.00" fill="#000000">cx::web::APIv4Wrapper</text>
<text text-anchor="middle" x="75.2534" y="-27.5" font-family="Helvetica,sans-Serif" font-size="10.00" fill="#000000">::getSubscriptionByMeetingUrl</text>
</a>
</g>
</g>
<!-- Node67 -->
<g id="node2" class="node">
<title>Node67</title>
<g id="a_node2"><a xlink:href="namespacecx.html#a01607a1c3834d5f67640ace216bf4ce4" target="_top" xlink:title=" ">
<polygon fill="none" stroke="#000000" points="215.1226,-47.5 215.1226,-65.5 296.1616,-65.5 296.1616,-47.5 215.1226,-47.5"/>
<text text-anchor="middle" x="255.6421" y="-53.5" font-family="Helvetica,sans-Serif" font-size="10.00" fill="#000000">cx::url_encode</text>
</a>
</g>
</g>
<!-- Node66&#45;&gt;Node67 -->
<g id="edge1" class="edge">
<title>Node66&#45;&gt;Node67</title>
<path fill="none" stroke="#191970" d="M150.7093,-44.2842C168.9382,-46.4063 187.9927,-48.6246 204.7848,-50.5794"/>
<polygon fill="#191970" stroke="#191970" points="204.5827,-54.0795 214.9204,-51.7594 205.3922,-47.1264 204.5827,-54.0795"/>
</g>
<!-- Node68 -->
<g id="node3" class="node">
<title>Node68</title>
<g id="a_node3"><a xlink:href="classcx_1_1_h_t_t_p_request_container.html#a88443e3419255d1d2bb8503829c4bcaa" target="_top" xlink:title=" ">
<polygon fill="none" stroke="#000000" points="186.5068,-.5 186.5068,-28.5 324.7773,-28.5 324.7773,-.5 186.5068,-.5"/>
<text text-anchor="start" x="194.5068" y="-16.5" font-family="Helvetica,sans-Serif" font-size="10.00" fill="#000000">cx::HTTPRequestContainer</text>
<text text-anchor="middle" x="255.6421" y="-6.5" font-family="Helvetica,sans-Serif" font-size="10.00" fill="#000000">::request</text>
</a>
</g>
</g>
<!-- Node66&#45;&gt;Node68 -->
<g id="edge2" class="edge">
<title>Node66&#45;&gt;Node68</title>
<path fill="none" stroke="#191970" d="M150.7093,-26.7158C159.083,-25.7409 167.631,-24.7458 176.0539,-23.7653"/>
<polygon fill="#191970" stroke="#191970" points="176.7176,-27.2117 186.2458,-22.5788 175.9081,-20.2587 176.7176,-27.2117"/>
</g>
<!-- Node69 -->
<g id="node4" class="node">
<title>Node69</title>
<g id="a_node4"><a xlink:href="structcx_1_1_h_t_t_p_request_1_1_request_params.html#aad683476ac9a2874f8a98a530d2b791b" target="_top" xlink:title=" ">
<polygon fill="none" stroke="#000000" points="360.7773,-.5 360.7773,-28.5 498.4912,-28.5 498.4912,-.5 360.7773,-.5"/>
<text text-anchor="start" x="368.7773" y="-16.5" font-family="Helvetica,sans-Serif" font-size="10.00" fill="#000000">cx::HTTPRequest::Request</text>
<text text-anchor="middle" x="429.6343" y="-6.5" font-family="Helvetica,sans-Serif" font-size="10.00" fill="#000000">Params::start</text>
</a>
</g>
</g>
<!-- Node68&#45;&gt;Node69 -->
<g id="edge3" class="edge">
<title>Node68&#45;&gt;Node69</title>
<path fill="none" stroke="#191970" d="M324.9083,-14.5C333.2627,-14.5 341.8448,-14.5 350.3286,-14.5"/>
<polygon fill="#191970" stroke="#191970" points="350.6064,-18.0001 360.6063,-14.5 350.6063,-11.0001 350.6064,-18.0001"/>
</g>
</g>
</svg>
