<?xml version="1.0" encoding="UTF-8" standalone="no"?>
<!DOCTYPE svg PUBLIC "-//W3C//DTD SVG 1.1//EN"
 "http://www.w3.org/Graphics/SVG/1.1/DTD/svg11.dtd">
<!-- Generated by graphviz version 2.40.1 (20161225.0304)
 -->
<!-- Title: fs::MeetingClientSession::initiateTakeBackSequence Pages: 1 -->
<svg width="309pt" height="121pt"
 viewBox="0.00 0.00 308.91 121.00" xmlns="http://www.w3.org/2000/svg" xmlns:xlink="http://www.w3.org/1999/xlink">
<g id="graph0" class="graph" transform="scale(1 1) rotate(0) translate(4 117)">
<title>fs::MeetingClientSession::initiateTakeBackSequence</title>
<!-- Node297 -->
<g id="node1" class="node">
<title>Node297</title>
<g id="a_node1"><a xlink:title=" ">
<polygon fill="#bfbfbf" stroke="#000000" points="0,-42.5 0,-70.5 138.8564,-70.5 138.8564,-42.5 0,-42.5"/>
<text text-anchor="start" x="8" y="-58.5" font-family="Helvetica,sans-Serif" font-size="10.00" fill="#000000">fs::MeetingClientSession</text>
<text text-anchor="middle" x="69.4282" y="-48.5" font-family="Helvetica,sans-Serif" font-size="10.00" fill="#000000">::initiateTakeBackSequence</text>
</a>
</g>
</g>
<!-- Node298 -->
<g id="node2" class="node">
<title>Node298</title>
<g id="a_node2"><a xlink:href="classfs_1_1_meeting_client_session.html#ad2db541bceb2f60d39d34b3e443801d2" target="_top" xlink:title=" ">
<polygon fill="none" stroke="#000000" points="174.8564,-84.5 174.8564,-112.5 300.9102,-112.5 300.9102,-84.5 174.8564,-84.5"/>
<text text-anchor="start" x="182.8564" y="-100.5" font-family="Helvetica,sans-Serif" font-size="10.00" fill="#000000">fs::MeetingClientSession</text>
<text text-anchor="middle" x="237.8833" y="-90.5" font-family="Helvetica,sans-Serif" font-size="10.00" fill="#000000">::isInitialized</text>
</a>
</g>
</g>
<!-- Node297&#45;&gt;Node298 -->
<g id="edge1" class="edge">
<title>Node297&#45;&gt;Node298</title>
<path fill="none" stroke="#191970" d="M125.9899,-70.6022C140.6521,-74.2579 156.5725,-78.2272 171.681,-81.9941"/>
<polygon fill="#191970" stroke="#191970" points="170.9212,-85.4118 181.4709,-84.435 172.6146,-78.6197 170.9212,-85.4118"/>
</g>
<!-- Node299 -->
<g id="node3" class="node">
<title>Node299</title>
<g id="a_node3"><a xlink:href="_meeting_client_session_8cxx.html#ab06e713e85f5d00e42ad86367c03f278" target="_top" xlink:title=" ">
<polygon fill="none" stroke="#000000" points="208.4795,-47.5 208.4795,-65.5 267.2871,-65.5 267.2871,-47.5 208.4795,-47.5"/>
<text text-anchor="middle" x="237.8833" y="-53.5" font-family="Helvetica,sans-Serif" font-size="10.00" fill="#000000">asio_post</text>
</a>
</g>
</g>
<!-- Node297&#45;&gt;Node299 -->
<g id="edge2" class="edge">
<title>Node297&#45;&gt;Node299</title>
<path fill="none" stroke="#191970" d="M138.9179,-56.5C159.0322,-56.5 180.304,-56.5 197.9502,-56.5"/>
<polygon fill="#191970" stroke="#191970" points="198.4263,-60.0001 208.4263,-56.5 198.4262,-53.0001 198.4263,-60.0001"/>
</g>
<!-- Node300 -->
<g id="node4" class="node">
<title>Node300</title>
<g id="a_node4"><a xlink:href="classfs_1_1_meeting_client_session.html#a75e9c574fb9a84a95e9629dd91689dc0" target="_top" xlink:title=" ">
<polygon fill="none" stroke="#000000" points="174.8564,-.5 174.8564,-28.5 300.9102,-28.5 300.9102,-.5 174.8564,-.5"/>
<text text-anchor="start" x="182.8564" y="-16.5" font-family="Helvetica,sans-Serif" font-size="10.00" fill="#000000">fs::MeetingClientSession</text>
<text text-anchor="middle" x="237.8833" y="-6.5" font-family="Helvetica,sans-Serif" font-size="10.00" fill="#000000">::ioService</text>
</a>
</g>
</g>
<!-- Node297&#45;&gt;Node300 -->
<g id="edge3" class="edge">
<title>Node297&#45;&gt;Node300</title>
<path fill="none" stroke="#191970" d="M125.9899,-42.3978C140.6521,-38.7421 156.5725,-34.7728 171.681,-31.0059"/>
<polygon fill="#191970" stroke="#191970" points="172.6146,-34.3803 181.4709,-28.565 170.9212,-27.5882 172.6146,-34.3803"/>
</g>
</g>
</svg>
