<?xml version="1.0" encoding="UTF-8" standalone="no"?>
<!DOCTYPE svg PUBLIC "-//W3C//DTD SVG 1.1//EN"
 "http://www.w3.org/Graphics/SVG/1.1/DTD/svg11.dtd">
<!-- Generated by graphviz version 2.40.1 (20161225.0304)
 -->
<!-- Title: SCUploadData Pages: 1 -->
<svg width="231pt" height="568pt"
 viewBox="0.00 0.00 231.01 568.00" xmlns="http://www.w3.org/2000/svg" xmlns:xlink="http://www.w3.org/1999/xlink">
<g id="graph0" class="graph" transform="scale(1 1) rotate(0) translate(4 564)">
<title>SCUploadData</title>
<!-- Node2 -->
<g id="node1" class="node">
<title>Node2</title>
<g id="a_node1"><a xlink:title=" ">
<polygon fill="#bfbfbf" stroke="#000000" points="0,-.5 0,-114.5 103.8223,-114.5 103.8223,-.5 0,-.5"/>
<text text-anchor="middle" x="51.9111" y="-102.5" font-family="Helvetica,sans-Serif" font-size="10.00" fill="#000000">SCUploadData</text>
<polyline fill="none" stroke="#000000" points="0,-96.5 103.8223,-96.5 "/>
<text text-anchor="middle" x="51.9111" y="-84.5" font-family="Helvetica,sans-Serif" font-size="10.00" fill="#000000"> </text>
<polyline fill="none" stroke="#000000" points="0,-78.5 103.8223,-78.5 "/>
<text text-anchor="start" x="8" y="-66.5" font-family="Helvetica,sans-Serif" font-size="10.00" fill="#000000">+ SCUploadData()</text>
<text text-anchor="start" x="8" y="-56.5" font-family="Helvetica,sans-Serif" font-size="10.00" fill="#000000">+ ~SCUploadData()</text>
<text text-anchor="start" x="8" y="-46.5" font-family="Helvetica,sans-Serif" font-size="10.00" fill="#000000">+ init()</text>
<text text-anchor="start" x="8" y="-36.5" font-family="Helvetica,sans-Serif" font-size="10.00" fill="#000000">+ nextBuffer()</text>
<text text-anchor="start" x="8" y="-26.5" font-family="Helvetica,sans-Serif" font-size="10.00" fill="#000000">+ boundary()</text>
<text text-anchor="start" x="8" y="-16.5" font-family="Helvetica,sans-Serif" font-size="10.00" fill="#000000">+ totalSize()</text>
<text text-anchor="start" x="8" y="-6.5" font-family="Helvetica,sans-Serif" font-size="10.00" fill="#000000"># testBoundary()</text>
</a>
</g>
</g>
<!-- Node3 -->
<g id="node2" class="node">
<title>Node3</title>
<g id="a_node2"><a xlink:href="class_upload_data.html" target="_top" xlink:title=" ">
<polygon fill="none" stroke="#000000" points="122.814,-152.5 122.814,-346.5 223.0083,-346.5 223.0083,-152.5 122.814,-152.5"/>
<text text-anchor="middle" x="172.9111" y="-334.5" font-family="Helvetica,sans-Serif" font-size="10.00" fill="#000000">UploadData</text>
<polyline fill="none" stroke="#000000" points="122.814,-328.5 223.0083,-328.5 "/>
<text text-anchor="start" x="130.814" y="-316.5" font-family="Helvetica,sans-Serif" font-size="10.00" fill="#000000"># m_file</text>
<text text-anchor="start" x="130.814" y="-306.5" font-family="Helvetica,sans-Serif" font-size="10.00" fill="#000000"># m_fileSize</text>
<text text-anchor="start" x="130.814" y="-296.5" font-family="Helvetica,sans-Serif" font-size="10.00" fill="#000000"># m_filePos</text>
<text text-anchor="start" x="130.814" y="-286.5" font-family="Helvetica,sans-Serif" font-size="10.00" fill="#000000"># m_isError</text>
<polyline fill="none" stroke="#000000" points="122.814,-280.5 223.0083,-280.5 "/>
<text text-anchor="start" x="130.814" y="-268.5" font-family="Helvetica,sans-Serif" font-size="10.00" fill="#000000">+ UploadData()</text>
<text text-anchor="start" x="130.814" y="-258.5" font-family="Helvetica,sans-Serif" font-size="10.00" fill="#000000">+ ~UploadData()</text>
<text text-anchor="start" x="130.814" y="-248.5" font-family="Helvetica,sans-Serif" font-size="10.00" fill="#000000">+ open()</text>
<text text-anchor="start" x="130.814" y="-238.5" font-family="Helvetica,sans-Serif" font-size="10.00" fill="#000000">+ init()</text>
<text text-anchor="start" x="130.814" y="-228.5" font-family="Helvetica,sans-Serif" font-size="10.00" fill="#000000">+ nextBuffer()</text>
<text text-anchor="start" x="130.814" y="-218.5" font-family="Helvetica,sans-Serif" font-size="10.00" fill="#000000">+ setFileInfo()</text>
<text text-anchor="start" x="130.814" y="-208.5" font-family="Helvetica,sans-Serif" font-size="10.00" fill="#000000">+ isHaveError()</text>
<text text-anchor="start" x="130.814" y="-198.5" font-family="Helvetica,sans-Serif" font-size="10.00" fill="#000000">+ totalSize()</text>
<text text-anchor="start" x="130.814" y="-188.5" font-family="Helvetica,sans-Serif" font-size="10.00" fill="#000000">+ fileSize()</text>
<text text-anchor="start" x="130.814" y="-178.5" font-family="Helvetica,sans-Serif" font-size="10.00" fill="#000000">+ filePos()</text>
<text text-anchor="start" x="130.814" y="-168.5" font-family="Helvetica,sans-Serif" font-size="10.00" fill="#000000">+ nameFromPath()</text>
<text text-anchor="start" x="130.814" y="-158.5" font-family="Helvetica,sans-Serif" font-size="10.00" fill="#000000"># readToBuffer()</text>
</a>
</g>
</g>
<!-- Node3&#45;&gt;Node2 -->
<g id="edge1" class="edge">
<title>Node3&#45;&gt;Node2</title>
<path fill="none" stroke="#191970" d="M117.1681,-161.0483C107.2614,-145.3285 97.1835,-129.3371 88.0058,-114.7742"/>
<polygon fill="none" stroke="#191970" points="114.3547,-163.1487 122.6474,-169.7427 120.2768,-159.4165 114.3547,-163.1487"/>
</g>
<!-- Node4 -->
<g id="node3" class="node">
<title>Node4</title>
<g id="a_node3"><a xlink:title="STL class.">
<polygon fill="none" stroke="#bfbfbf" points="26.2363,-403.5 26.2363,-457.5 85.5859,-457.5 85.5859,-403.5 26.2363,-403.5"/>
<text text-anchor="middle" x="55.9111" y="-445.5" font-family="Helvetica,sans-Serif" font-size="10.00" fill="#000000">std::string</text>
<polyline fill="none" stroke="#bfbfbf" points="26.2363,-439.5 85.5859,-439.5 "/>
<text text-anchor="middle" x="55.9111" y="-427.5" font-family="Helvetica,sans-Serif" font-size="10.00" fill="#000000"> </text>
<polyline fill="none" stroke="#bfbfbf" points="26.2363,-421.5 85.5859,-421.5 "/>
<text text-anchor="middle" x="55.9111" y="-409.5" font-family="Helvetica,sans-Serif" font-size="10.00" fill="#000000"> </text>
</a>
</g>
</g>
<!-- Node4&#45;&gt;Node2 -->
<g id="edge4" class="edge">
<title>Node4&#45;&gt;Node2</title>
<path fill="none" stroke="#404040" d="M53.2799,-403.4552C51.8241,-387.1253 50.1651,-365.8879 49.4336,-347 46.5189,-271.7426 47.8651,-185.402 49.4827,-126.7358"/>
<polygon fill="none" stroke="#404040" points="49.4852,-126.6461 45.6596,-120.5335 49.8306,-114.6511 53.6563,-120.7637 49.4852,-126.6461"/>
<text text-anchor="middle" x="82.1499" y="-256.5" font-family="Helvetica,sans-Serif" font-size="10.00" fill="#000000"> #m_boundary</text>
<text text-anchor="middle" x="82.1499" y="-246.5" font-family="Helvetica,sans-Serif" font-size="10.00" fill="#000000">#m_dataPrefix</text>
<text text-anchor="middle" x="82.1499" y="-236.5" font-family="Helvetica,sans-Serif" font-size="10.00" fill="#000000">#m_dataSufix</text>
</g>
<!-- Node4&#45;&gt;Node3 -->
<g id="edge2" class="edge">
<title>Node4&#45;&gt;Node3</title>
<path fill="none" stroke="#404040" d="M73.4272,-403.4025C84.862,-385.7127 100.4953,-361.5279 115.9816,-337.5704"/>
<polygon fill="none" stroke="#404040" points="116.0826,-337.4142 115.9805,-330.2038 122.597,-327.3364 122.6991,-334.5468 116.0826,-337.4142"/>
<text text-anchor="middle" x="120.5342" y="-377" font-family="Helvetica,sans-Serif" font-size="10.00" fill="#000000"> #m_name</text>
<text text-anchor="middle" x="120.5342" y="-367" font-family="Helvetica,sans-Serif" font-size="10.00" fill="#000000">#m_path</text>
</g>
<!-- Node5 -->
<g id="node4" class="node">
<title>Node5</title>
<g id="a_node4"><a xlink:title="STL class.">
<polygon fill="none" stroke="#bfbfbf" points="8.8633,-495.5 8.8633,-559.5 102.959,-559.5 102.959,-495.5 8.8633,-495.5"/>
<text text-anchor="start" x="16.8633" y="-547.5" font-family="Helvetica,sans-Serif" font-size="10.00" fill="#000000">std::basic_string&lt;</text>
<text text-anchor="middle" x="55.9111" y="-537.5" font-family="Helvetica,sans-Serif" font-size="10.00" fill="#000000"> char &gt;</text>
<polyline fill="none" stroke="#bfbfbf" points="8.8633,-531.5 102.959,-531.5 "/>
<text text-anchor="middle" x="55.9111" y="-519.5" font-family="Helvetica,sans-Serif" font-size="10.00" fill="#000000"> </text>
<polyline fill="none" stroke="#bfbfbf" points="8.8633,-513.5 102.959,-513.5 "/>
<text text-anchor="middle" x="55.9111" y="-501.5" font-family="Helvetica,sans-Serif" font-size="10.00" fill="#000000"> </text>
</a>
</g>
</g>
<!-- Node5&#45;&gt;Node4 -->
<g id="edge3" class="edge">
<title>Node5&#45;&gt;Node4</title>
<path fill="none" stroke="#191970" d="M55.9111,-485.4397C55.9111,-476.0133 55.9111,-466.2564 55.9111,-457.6277"/>
<polygon fill="none" stroke="#191970" points="52.4112,-485.4697 55.9111,-495.4697 59.4112,-485.4698 52.4112,-485.4697"/>
</g>
</g>
</svg>
