<?xml version="1.0" encoding="UTF-8" standalone="no"?>
<!DOCTYPE svg PUBLIC "-//W3C//DTD SVG 1.1//EN"
 "http://www.w3.org/Graphics/SVG/1.1/DTD/svg11.dtd">
<!-- Generated by graphviz version 2.40.1 (20161225.0304)
 -->
<!-- Title: fs::RTRecordingBroadcastHandler Pages: 1 -->
<svg width="184pt" height="194pt"
 viewBox="0.00 0.00 183.90 194.00" xmlns="http://www.w3.org/2000/svg" xmlns:xlink="http://www.w3.org/1999/xlink">
<g id="graph0" class="graph" transform="scale(1 1) rotate(0) translate(4 190)">
<title>fs::RTRecordingBroadcastHandler</title>
<!-- Node0 -->
<g id="node1" class="node">
<title>Node0</title>
<g id="a_node1"><a xlink:title=" ">
<polygon fill="#bfbfbf" stroke="#000000" points="0,-.5 0,-74.5 175.8975,-74.5 175.8975,-.5 0,-.5"/>
<text text-anchor="start" x="8" y="-62.5" font-family="Helvetica,sans-Serif" font-size="10.00" fill="#000000">fs::RTRecordingBroadcast</text>
<text text-anchor="middle" x="87.9487" y="-52.5" font-family="Helvetica,sans-Serif" font-size="10.00" fill="#000000">Handler</text>
<polyline fill="none" stroke="#000000" points="0,-46.5 175.8975,-46.5 "/>
<text text-anchor="middle" x="87.9487" y="-34.5" font-family="Helvetica,sans-Serif" font-size="10.00" fill="#000000"> </text>
<polyline fill="none" stroke="#000000" points="0,-28.5 175.8975,-28.5 "/>
<text text-anchor="start" x="8" y="-16.5" font-family="Helvetica,sans-Serif" font-size="10.00" fill="#000000">+ RTRecordingBroadcastHandler()</text>
<text text-anchor="start" x="8" y="-6.5" font-family="Helvetica,sans-Serif" font-size="10.00" fill="#000000">+ ~RTRecordingBroadcastHandler()</text>
</a>
</g>
</g>
<!-- Node1 -->
<g id="node2" class="node">
<title>Node1</title>
<g id="a_node2"><a xlink:href="classfs_1_1_notification_handler.html" target="_top" xlink:title=" ">
<polygon fill="none" stroke="#000000" points="26.3062,-111.5 26.3062,-185.5 149.5913,-185.5 149.5913,-111.5 26.3062,-111.5"/>
<text text-anchor="middle" x="87.9487" y="-173.5" font-family="Helvetica,sans-Serif" font-size="10.00" fill="#000000">fs::NotificationHandler</text>
<polyline fill="none" stroke="#000000" points="26.3062,-167.5 149.5913,-167.5 "/>
<text text-anchor="start" x="34.3062" y="-155.5" font-family="Helvetica,sans-Serif" font-size="10.00" fill="#000000"># supportedNotifications</text>
<text text-anchor="start" x="34.3062" y="-145.5" font-family="Helvetica,sans-Serif" font-size="10.00" fill="#000000"># _handlers</text>
<polyline fill="none" stroke="#000000" points="26.3062,-139.5 149.5913,-139.5 "/>
<text text-anchor="start" x="34.3062" y="-127.5" font-family="Helvetica,sans-Serif" font-size="10.00" fill="#000000">+ API_METHOD()</text>
<text text-anchor="start" x="34.3062" y="-117.5" font-family="Helvetica,sans-Serif" font-size="10.00" fill="#000000">+ API_METHOD()</text>
</a>
</g>
</g>
<!-- Node1&#45;&gt;Node0 -->
<g id="edge1" class="edge">
<title>Node1&#45;&gt;Node0</title>
<path fill="none" stroke="#191970" d="M87.9487,-101.1104C87.9487,-92.336 87.9487,-83.2851 87.9487,-74.8608"/>
<polygon fill="none" stroke="#191970" points="84.4488,-101.2298 87.9487,-111.2298 91.4488,-101.2299 84.4488,-101.2298"/>
</g>
</g>
</svg>
