<?xml version="1.0" encoding="UTF-8" standalone="no"?>
<!DOCTYPE svg PUBLIC "-//W3C//DTD SVG 1.1//EN"
 "http://www.w3.org/Graphics/SVG/1.1/DTD/svg11.dtd">
<!-- Generated by graphviz version 2.40.1 (20161225.0304)
 -->
<!-- Title: fs::ScreenSharingController::setDirectorId Pages: 1 -->
<svg width="322pt" height="84pt"
 viewBox="0.00 0.00 321.67 84.00" xmlns="http://www.w3.org/2000/svg" xmlns:xlink="http://www.w3.org/1999/xlink">
<g id="graph0" class="graph" transform="scale(1 1) rotate(0) translate(4 80)">
<title>fs::ScreenSharingController::setDirectorId</title>
<!-- Node275 -->
<g id="node1" class="node">
<title>Node275</title>
<g id="a_node1"><a xlink:title=" ">
<polygon fill="#bfbfbf" stroke="#000000" points="174.8369,-23.5 174.8369,-51.5 313.6738,-51.5 313.6738,-23.5 174.8369,-23.5"/>
<text text-anchor="start" x="182.8369" y="-39.5" font-family="Helvetica,sans-Serif" font-size="10.00" fill="#000000">fs::ScreenSharingController</text>
<text text-anchor="middle" x="244.2554" y="-29.5" font-family="Helvetica,sans-Serif" font-size="10.00" fill="#000000">::setDirectorId</text>
</a>
</g>
</g>
<!-- Node276 -->
<g id="node2" class="node">
<title>Node276</title>
<g id="a_node2"><a xlink:href="classfs_1_1_screen_sharing_controller.html#af7b5850c145b62dfac96790737f2a41d" target="_top" xlink:title=" ">
<polygon fill="none" stroke="#000000" points="0,-47.5 0,-75.5 138.8369,-75.5 138.8369,-47.5 0,-47.5"/>
<text text-anchor="start" x="8" y="-63.5" font-family="Helvetica,sans-Serif" font-size="10.00" fill="#000000">fs::ScreenSharingController</text>
<text text-anchor="middle" x="69.4185" y="-53.5" font-family="Helvetica,sans-Serif" font-size="10.00" fill="#000000">::onFSStreamStarted</text>
</a>
</g>
</g>
<!-- Node275&#45;&gt;Node276 -->
<g id="edge1" class="edge">
<title>Node275&#45;&gt;Node276</title>
<path fill="none" stroke="#191970" d="M164.6841,-48.4228C156.1358,-49.5962 147.4867,-50.7835 139.0671,-51.9393"/>
<polygon fill="#191970" stroke="#191970" points="165.2217,-51.8819 174.6528,-47.0544 164.2697,-44.947 165.2217,-51.8819"/>
</g>
<!-- Node277 -->
<g id="node3" class="node">
<title>Node277</title>
<g id="a_node3"><a xlink:href="classfs_1_1_screen_sharing_controller.html#a3d467c4be5540b6724573253c6820b6c" target="_top" xlink:title=" ">
<polygon fill="none" stroke="#000000" points="0,-.5 0,-28.5 138.8369,-28.5 138.8369,-.5 0,-.5"/>
<text text-anchor="start" x="8" y="-16.5" font-family="Helvetica,sans-Serif" font-size="10.00" fill="#000000">fs::ScreenSharingController</text>
<text text-anchor="middle" x="69.4185" y="-6.5" font-family="Helvetica,sans-Serif" font-size="10.00" fill="#000000">::handleAttendeeDropped</text>
</a>
</g>
</g>
<!-- Node275&#45;&gt;Node277 -->
<g id="edge2" class="edge">
<title>Node275&#45;&gt;Node277</title>
<path fill="none" stroke="#191970" d="M164.6841,-27.0323C156.1358,-25.9078 147.4867,-24.77 139.0671,-23.6624"/>
<polygon fill="#191970" stroke="#191970" points="164.2817,-30.5094 174.6528,-28.3437 165.1948,-23.5692 164.2817,-30.5094"/>
</g>
</g>
</svg>
