<?xml version="1.0" encoding="UTF-8" standalone="no"?>
<!DOCTYPE svg PUBLIC "-//W3C//DTD SVG 1.1//EN"
 "http://www.w3.org/Graphics/SVG/1.1/DTD/svg11.dtd">
<!-- Generated by graphviz version 2.40.1 (20161225.0304)
 -->
<!-- Title: fs::VoIPClientProxy::onCallHungUp Pages: 1 -->
<svg width="442pt" height="37pt"
 viewBox="0.00 0.00 442.41 37.00" xmlns="http://www.w3.org/2000/svg" xmlns:xlink="http://www.w3.org/1999/xlink">
<g id="graph0" class="graph" transform="scale(1 1) rotate(0) translate(4 33)">
<title>fs::VoIPClientProxy::onCallHungUp</title>
<!-- Node12 -->
<g id="node1" class="node">
<title>Node12</title>
<g id="a_node1"><a xlink:title=" ">
<polygon fill="#bfbfbf" stroke="#000000" points="0,-.5 0,-28.5 101.5957,-28.5 101.5957,-.5 0,-.5"/>
<text text-anchor="start" x="8" y="-16.5" font-family="Helvetica,sans-Serif" font-size="10.00" fill="#000000">fs::VoIPClientProxy</text>
<text text-anchor="middle" x="50.7979" y="-6.5" font-family="Helvetica,sans-Serif" font-size="10.00" fill="#000000">::onCallHungUp</text>
</a>
</g>
</g>
<!-- Node13 -->
<g id="node2" class="node">
<title>Node13</title>
<g id="a_node2"><a xlink:href="classfs_1_1_vo_i_p_client_delegate.html#a92eb501820932097e7d6a1f43635867e" target="_top" xlink:title=" ">
<polygon fill="none" stroke="#000000" points="137.5957,-.5 137.5957,-28.5 269.3867,-28.5 269.3867,-.5 137.5957,-.5"/>
<text text-anchor="start" x="145.5957" y="-16.5" font-family="Helvetica,sans-Serif" font-size="10.00" fill="#000000">fs::VoIPClientDelegate</text>
<text text-anchor="middle" x="203.4912" y="-6.5" font-family="Helvetica,sans-Serif" font-size="10.00" fill="#000000">::fireTransportCallHungUp</text>
</a>
</g>
</g>
<!-- Node12&#45;&gt;Node13 -->
<g id="edge1" class="edge">
<title>Node12&#45;&gt;Node13</title>
<path fill="none" stroke="#191970" d="M101.6425,-14.5C109.8734,-14.5 118.5511,-14.5 127.2273,-14.5"/>
<polygon fill="#191970" stroke="#191970" points="127.385,-18.0001 137.385,-14.5 127.3849,-11.0001 127.385,-18.0001"/>
</g>
<!-- Node14 -->
<g id="node3" class="node">
<title>Node14</title>
<g id="a_node3"><a xlink:href="classfs_1_1_vo_i_p_client_delegate.html#a453e9697b2f47380ec530bee4bc583ab" target="_top" xlink:title=" ">
<polygon fill="none" stroke="#000000" points="305.3867,-.5 305.3867,-28.5 434.4092,-28.5 434.4092,-.5 305.3867,-.5"/>
<text text-anchor="start" x="313.3867" y="-16.5" font-family="Helvetica,sans-Serif" font-size="10.00" fill="#000000">fs::VoIPClientDelegate</text>
<text text-anchor="middle" x="369.8979" y="-6.5" font-family="Helvetica,sans-Serif" font-size="10.00" fill="#000000">::onTransportCallHungUp</text>
</a>
</g>
</g>
<!-- Node13&#45;&gt;Node14 -->
<g id="edge2" class="edge">
<title>Node13&#45;&gt;Node14</title>
<path fill="none" stroke="#191970" d="M269.7377,-14.5C278.05,-14.5 286.5981,-14.5 295.0308,-14.5"/>
<polygon fill="#191970" stroke="#191970" points="295.2361,-18.0001 305.236,-14.5 295.236,-11.0001 295.2361,-18.0001"/>
</g>
</g>
</svg>
