<?xml version="1.0" encoding="UTF-8" standalone="no"?>
<!DOCTYPE svg PUBLIC "-//W3C//DTD SVG 1.1//EN"
 "http://www.w3.org/Graphics/SVG/1.1/DTD/svg11.dtd">
<!-- Generated by graphviz version 2.40.1 (20161225.0304)
 -->
<!-- Title: fs::MeetingClientSession::init Pages: 1 -->
<svg width="296pt" height="121pt"
 viewBox="0.00 0.00 296.11 121.00" xmlns="http://www.w3.org/2000/svg" xmlns:xlink="http://www.w3.org/1999/xlink">
<g id="graph0" class="graph" transform="scale(1 1) rotate(0) translate(4 117)">
<title>fs::MeetingClientSession::init</title>
<!-- Node292 -->
<g id="node1" class="node">
<title>Node292</title>
<g id="a_node1"><a xlink:title=" ">
<polygon fill="#bfbfbf" stroke="#000000" points="0,-47.5 0,-75.5 126.0537,-75.5 126.0537,-47.5 0,-47.5"/>
<text text-anchor="start" x="8" y="-63.5" font-family="Helvetica,sans-Serif" font-size="10.00" fill="#000000">fs::MeetingClientSession</text>
<text text-anchor="middle" x="63.0269" y="-53.5" font-family="Helvetica,sans-Serif" font-size="10.00" fill="#000000">::init</text>
</a>
</g>
</g>
<!-- Node293 -->
<g id="node2" class="node">
<title>Node293</title>
<g id="a_node2"><a xlink:href="_meeting_client_session_8cxx.html#ab06e713e85f5d00e42ad86367c03f278" target="_top" xlink:title=" ">
<polygon fill="none" stroke="#000000" points="195.6768,-94.5 195.6768,-112.5 254.4844,-112.5 254.4844,-94.5 195.6768,-94.5"/>
<text text-anchor="middle" x="225.0806" y="-100.5" font-family="Helvetica,sans-Serif" font-size="10.00" fill="#000000">asio_post</text>
</a>
</g>
</g>
<!-- Node292&#45;&gt;Node293 -->
<g id="edge1" class="edge">
<title>Node292&#45;&gt;Node293</title>
<path fill="none" stroke="#191970" d="M117.4392,-75.6022C139.7787,-81.392 165.1545,-87.9688 185.655,-93.2819"/>
<polygon fill="#191970" stroke="#191970" points="185.0317,-96.736 195.59,-95.8568 186.7879,-89.9598 185.0317,-96.736"/>
</g>
<!-- Node294 -->
<g id="node3" class="node">
<title>Node294</title>
<g id="a_node3"><a xlink:href="classfs_1_1_meeting_client_session.html#a75e9c574fb9a84a95e9629dd91689dc0" target="_top" xlink:title=" ">
<polygon fill="none" stroke="#000000" points="162.0537,-47.5 162.0537,-75.5 288.1074,-75.5 288.1074,-47.5 162.0537,-47.5"/>
<text text-anchor="start" x="170.0537" y="-63.5" font-family="Helvetica,sans-Serif" font-size="10.00" fill="#000000">fs::MeetingClientSession</text>
<text text-anchor="middle" x="225.0806" y="-53.5" font-family="Helvetica,sans-Serif" font-size="10.00" fill="#000000">::ioService</text>
</a>
</g>
</g>
<!-- Node292&#45;&gt;Node294 -->
<g id="edge2" class="edge">
<title>Node292&#45;&gt;Node294</title>
<path fill="none" stroke="#191970" d="M126.1451,-61.5C134.5767,-61.5 143.2807,-61.5 151.8666,-61.5"/>
<polygon fill="#191970" stroke="#191970" points="151.8681,-65.0001 161.868,-61.5 151.868,-58.0001 151.8681,-65.0001"/>
</g>
<!-- Node295 -->
<g id="node4" class="node">
<title>Node295</title>
<g id="a_node4"><a xlink:href="classfs_1_1_meeting_client_session.html#ad2db541bceb2f60d39d34b3e443801d2" target="_top" xlink:title=" ">
<polygon fill="none" stroke="#000000" points="162.0537,-.5 162.0537,-28.5 288.1074,-28.5 288.1074,-.5 162.0537,-.5"/>
<text text-anchor="start" x="170.0537" y="-16.5" font-family="Helvetica,sans-Serif" font-size="10.00" fill="#000000">fs::MeetingClientSession</text>
<text text-anchor="middle" x="225.0806" y="-6.5" font-family="Helvetica,sans-Serif" font-size="10.00" fill="#000000">::isInitialized</text>
</a>
</g>
</g>
<!-- Node292&#45;&gt;Node295 -->
<g id="edge3" class="edge">
<title>Node292&#45;&gt;Node295</title>
<path fill="none" stroke="#191970" d="M111.6483,-47.3985C129.1133,-42.3331 148.9833,-36.5703 167.1602,-31.2985"/>
<polygon fill="#191970" stroke="#191970" points="168.1436,-34.6576 176.7729,-28.5106 166.1937,-27.9346 168.1436,-34.6576"/>
</g>
</g>
</svg>
