<?xml version="1.0" encoding="UTF-8" standalone="no"?>
<!DOCTYPE svg PUBLIC "-//W3C//DTD SVG 1.1//EN"
 "http://www.w3.org/Graphics/SVG/1.1/DTD/svg11.dtd">
<!-- Generated by graphviz version 2.40.1 (20161225.0304)
 -->
<!-- Title: fs::AttendeesManager::getAbstractAttendee Pages: 1 -->
<svg width="333pt" height="272pt"
 viewBox="0.00 0.00 332.84 272.00" xmlns="http://www.w3.org/2000/svg" xmlns:xlink="http://www.w3.org/1999/xlink">
<g id="graph0" class="graph" transform="scale(1 1) rotate(0) translate(4 268)">
<title>fs::AttendeesManager::getAbstractAttendee</title>
<!-- Node10 -->
<g id="node1" class="node">
<title>Node10</title>
<g id="a_node1"><a xlink:title=" ">
<polygon fill="#bfbfbf" stroke="#000000" points="210.999,-117.5 210.999,-145.5 324.8359,-145.5 324.8359,-117.5 210.999,-117.5"/>
<text text-anchor="start" x="218.999" y="-133.5" font-family="Helvetica,sans-Serif" font-size="10.00" fill="#000000">fs::AttendeesManager</text>
<text text-anchor="middle" x="267.9175" y="-123.5" font-family="Helvetica,sans-Serif" font-size="10.00" fill="#000000">::getAbstractAttendee</text>
</a>
</g>
</g>
<!-- Node11 -->
<g id="node2" class="node">
<title>Node11</title>
<g id="a_node2"><a xlink:href="classfs_1_1_attendees_manager.html#ad49c5646c9f55068cc028452b23367ce" target="_top" xlink:title=" ">
<polygon fill="none" stroke="#000000" points="0,-235.5 0,-263.5 174.999,-263.5 174.999,-235.5 0,-235.5"/>
<text text-anchor="start" x="8" y="-251.5" font-family="Helvetica,sans-Serif" font-size="10.00" fill="#000000">fs::AttendeesManager</text>
<text text-anchor="middle" x="87.4995" y="-241.5" font-family="Helvetica,sans-Serif" font-size="10.00" fill="#000000">::onAttendeeActiveSpeakerUpdated</text>
</a>
</g>
</g>
<!-- Node10&#45;&gt;Node11 -->
<g id="edge1" class="edge">
<title>Node10&#45;&gt;Node11</title>
<path fill="none" stroke="#191970" d="M251.9128,-153.8157C235.1524,-175.5582 206.866,-207.9671 174.999,-226.5 169.0248,-229.9744 162.5194,-232.934 155.8419,-235.453"/>
<polygon fill="#191970" stroke="#191970" points="254.7444,-155.8738 257.9594,-145.7785 249.1506,-151.6654 254.7444,-155.8738"/>
</g>
<!-- Node12 -->
<g id="node3" class="node">
<title>Node12</title>
<g id="a_node3"><a xlink:href="classfs_1_1_attendees_manager.html#a9d6d8c6124bba4aab07e1e91c0cf5a7b" target="_top" xlink:title=" ">
<polygon fill="none" stroke="#000000" points="17.229,-188.5 17.229,-216.5 157.77,-216.5 157.77,-188.5 17.229,-188.5"/>
<text text-anchor="start" x="25.229" y="-204.5" font-family="Helvetica,sans-Serif" font-size="10.00" fill="#000000">fs::AttendeesManager</text>
<text text-anchor="middle" x="87.4995" y="-194.5" font-family="Helvetica,sans-Serif" font-size="10.00" fill="#000000">::onAttendeeMediaChanged</text>
</a>
</g>
</g>
<!-- Node10&#45;&gt;Node12 -->
<g id="edge2" class="edge">
<title>Node10&#45;&gt;Node12</title>
<path fill="none" stroke="#191970" d="M234.9749,-150.7726C217.5671,-160.3715 195.5912,-171.5856 174.999,-179.5 166.4954,-182.7683 157.3537,-185.7362 148.2993,-188.3721"/>
<polygon fill="#191970" stroke="#191970" points="237.1258,-153.5794 244.1381,-145.6372 233.7035,-147.473 237.1258,-153.5794"/>
</g>
<!-- Node13 -->
<g id="node4" class="node">
<title>Node13</title>
<g id="a_node4"><a xlink:href="classfs_1_1_attendees_manager.html#ab28ec82d2011e47c81c6c9321fe612a0" target="_top" xlink:title=" ">
<polygon fill="none" stroke="#000000" points="8.0566,-141.5 8.0566,-169.5 166.9424,-169.5 166.9424,-141.5 8.0566,-141.5"/>
<text text-anchor="start" x="16.0566" y="-157.5" font-family="Helvetica,sans-Serif" font-size="10.00" fill="#000000">fs::AttendeesManager</text>
<text text-anchor="middle" x="87.4995" y="-147.5" font-family="Helvetica,sans-Serif" font-size="10.00" fill="#000000">::onAttendeeMuteStateChanged</text>
</a>
</g>
</g>
<!-- Node10&#45;&gt;Node13 -->
<g id="edge3" class="edge">
<title>Node10&#45;&gt;Node13</title>
<path fill="none" stroke="#191970" d="M200.8517,-140.4214C189.8096,-141.8903 178.2713,-143.4251 166.9617,-144.9296"/>
<polygon fill="#191970" stroke="#191970" points="201.381,-143.8819 210.8321,-139.0938 200.4579,-136.943 201.381,-143.8819"/>
</g>
<!-- Node14 -->
<g id="node5" class="node">
<title>Node14</title>
<g id="a_node5"><a xlink:href="classfs_1_1_attendees_manager.html#a921cb14a266c47bdc8dd4ea30afef0bc" target="_top" xlink:title=" ">
<polygon fill="none" stroke="#000000" points="8.8892,-94.5 8.8892,-122.5 166.1099,-122.5 166.1099,-94.5 8.8892,-94.5"/>
<text text-anchor="start" x="16.8892" y="-110.5" font-family="Helvetica,sans-Serif" font-size="10.00" fill="#000000">fs::AttendeesManager</text>
<text text-anchor="middle" x="87.4995" y="-100.5" font-family="Helvetica,sans-Serif" font-size="10.00" fill="#000000">::onAttendeeHoldStateChanged</text>
</a>
</g>
</g>
<!-- Node10&#45;&gt;Node14 -->
<g id="edge4" class="edge">
<title>Node10&#45;&gt;Node14</title>
<path fill="none" stroke="#191970" d="M200.7014,-122.9312C189.4912,-121.5021 177.7734,-120.0083 166.3054,-118.5463"/>
<polygon fill="#191970" stroke="#191970" points="200.4698,-126.4299 210.8321,-124.2227 201.355,-119.4861 200.4698,-126.4299"/>
</g>
<!-- Node15 -->
<g id="node6" class="node">
<title>Node15</title>
<g id="a_node6"><a xlink:href="classfs_1_1_attendees_manager.html#a101a391edf65cbc6a3f9aa252f71475e" target="_top" xlink:title=" ">
<polygon fill="none" stroke="#000000" points="5,-47.5 5,-75.5 169.999,-75.5 169.999,-47.5 5,-47.5"/>
<text text-anchor="start" x="13" y="-63.5" font-family="Helvetica,sans-Serif" font-size="10.00" fill="#000000">fs::AttendeesManager</text>
<text text-anchor="middle" x="87.4995" y="-53.5" font-family="Helvetica,sans-Serif" font-size="10.00" fill="#000000">::onAttendeeQARequestChanged</text>
</a>
</g>
</g>
<!-- Node10&#45;&gt;Node15 -->
<g id="edge5" class="edge">
<title>Node10&#45;&gt;Node15</title>
<path fill="none" stroke="#191970" d="M233.7527,-112.6179C216.4923,-103.5898 195.0129,-93.1178 174.999,-85.5 165.43,-81.8578 155.0793,-78.5179 144.9607,-75.5616"/>
<polygon fill="#191970" stroke="#191970" points="232.3978,-115.8612 242.8717,-117.4577 235.6795,-109.678 232.3978,-115.8612"/>
</g>
<!-- Node16 -->
<g id="node7" class="node">
<title>Node16</title>
<g id="a_node7"><a xlink:href="classfs_1_1_attendees_manager.html#a68cfd499b1cecbed66fc37eea72666c5" target="_top" xlink:title=" ">
<polygon fill="none" stroke="#000000" points="15.1001,-.5 15.1001,-28.5 159.8989,-28.5 159.8989,-.5 15.1001,-.5"/>
<text text-anchor="start" x="23.1001" y="-16.5" font-family="Helvetica,sans-Serif" font-size="10.00" fill="#000000">fs::AttendeesManager</text>
<text text-anchor="middle" x="87.4995" y="-6.5" font-family="Helvetica,sans-Serif" font-size="10.00" fill="#000000">::onAttendeeQATalkChanged</text>
</a>
</g>
</g>
<!-- Node10&#45;&gt;Node16 -->
<g id="edge6" class="edge">
<title>Node10&#45;&gt;Node16</title>
<path fill="none" stroke="#191970" d="M251.2624,-109.1005C234.3324,-87.8863 206.2118,-56.6529 174.999,-38.5 168.3269,-34.6196 161.0033,-31.3454 153.522,-28.5875"/>
<polygon fill="#191970" stroke="#191970" points="248.6951,-111.5002 257.6017,-117.2381 254.2173,-107.1984 248.6951,-111.5002"/>
</g>
</g>
</svg>
