<?xml version="1.0" encoding="UTF-8" standalone="no"?>
<!DOCTYPE svg PUBLIC "-//W3C//DTD SVG 1.1//EN"
 "http://www.w3.org/Graphics/SVG/1.1/DTD/svg11.dtd">
<!-- Generated by graphviz version 2.40.1 (20161225.0304)
 -->
<!-- Title: fs::ScreenSharingController::onAttendeeBroadcastHangup Pages: 1 -->
<svg width="336pt" height="84pt"
 viewBox="0.00 0.00 335.60 84.00" xmlns="http://www.w3.org/2000/svg" xmlns:xlink="http://www.w3.org/1999/xlink">
<g id="graph0" class="graph" transform="scale(1 1) rotate(0) translate(4 80)">
<title>fs::ScreenSharingController::onAttendeeBroadcastHangup</title>
<!-- Node150 -->
<g id="node1" class="node">
<title>Node150</title>
<g id="a_node1"><a xlink:title=" ">
<polygon fill="#bfbfbf" stroke="#000000" points="0,-23.5 0,-51.5 152.7676,-51.5 152.7676,-23.5 0,-23.5"/>
<text text-anchor="start" x="8" y="-39.5" font-family="Helvetica,sans-Serif" font-size="10.00" fill="#000000">fs::ScreenSharingController</text>
<text text-anchor="middle" x="76.3838" y="-29.5" font-family="Helvetica,sans-Serif" font-size="10.00" fill="#000000">::onAttendeeBroadcastHangup</text>
</a>
</g>
</g>
<!-- Node151 -->
<g id="node2" class="node">
<title>Node151</title>
<g id="a_node2"><a xlink:href="classfs_1_1_screen_sharing_controller.html#af3820fa110e9ee3579a100f59f3488cc" target="_top" xlink:title=" ">
<polygon fill="none" stroke="#000000" points="188.7676,-47.5 188.7676,-75.5 327.6045,-75.5 327.6045,-47.5 188.7676,-47.5"/>
<text text-anchor="start" x="196.7676" y="-63.5" font-family="Helvetica,sans-Serif" font-size="10.00" fill="#000000">fs::ScreenSharingController</text>
<text text-anchor="middle" x="258.186" y="-53.5" font-family="Helvetica,sans-Serif" font-size="10.00" fill="#000000">::getPresenterId</text>
</a>
</g>
</g>
<!-- Node150&#45;&gt;Node151 -->
<g id="edge1" class="edge">
<title>Node150&#45;&gt;Node151</title>
<path fill="none" stroke="#191970" d="M152.9574,-47.6086C161.4667,-48.7319 170.1479,-49.8779 178.6924,-51.0059"/>
<polygon fill="#191970" stroke="#191970" points="178.2696,-54.4804 188.6417,-52.3193 179.1858,-47.5406 178.2696,-54.4804"/>
</g>
<!-- Node152 -->
<g id="node3" class="node">
<title>Node152</title>
<g id="a_node3"><a xlink:href="classfs_1_1_screen_sharing_controller.html#a2d72cac3855bd476bf5d61e6e342c079" target="_top" xlink:title=" ">
<polygon fill="none" stroke="#000000" points="188.7676,-.5 188.7676,-28.5 327.6045,-28.5 327.6045,-.5 188.7676,-.5"/>
<text text-anchor="start" x="196.7676" y="-16.5" font-family="Helvetica,sans-Serif" font-size="10.00" fill="#000000">fs::ScreenSharingController</text>
<text text-anchor="middle" x="258.186" y="-6.5" font-family="Helvetica,sans-Serif" font-size="10.00" fill="#000000">::getPromotedAttendeeId</text>
</a>
</g>
</g>
<!-- Node150&#45;&gt;Node152 -->
<g id="edge2" class="edge">
<title>Node150&#45;&gt;Node152</title>
<path fill="none" stroke="#191970" d="M152.9574,-27.8126C161.4667,-26.7361 170.1479,-25.6378 178.6924,-24.5568"/>
<polygon fill="#191970" stroke="#191970" points="179.1601,-28.0256 188.6417,-23.2981 178.2815,-21.081 179.1601,-28.0256"/>
</g>
</g>
</svg>
