<?xml version="1.0" encoding="UTF-8" standalone="no"?>
<!DOCTYPE svg PUBLIC "-//W3C//DTD SVG 1.1//EN"
 "http://www.w3.org/Graphics/SVG/1.1/DTD/svg11.dtd">
<!-- Generated by graphviz version 2.40.1 (20161225.0304)
 -->
<!-- Title: fs::ScreenSharingController::isPresenter Pages: 1 -->
<svg width="537pt" height="413pt"
 viewBox="0.00 0.00 537.12 413.00" xmlns="http://www.w3.org/2000/svg" xmlns:xlink="http://www.w3.org/1999/xlink">
<g id="graph0" class="graph" transform="scale(1 1) rotate(0) translate(4 409)">
<title>fs::ScreenSharingController::isPresenter</title>
<!-- Node110 -->
<g id="node1" class="node">
<title>Node110</title>
<g id="a_node1"><a xlink:title=" ">
<polygon fill="#bfbfbf" stroke="#000000" points="390.2842,-94.5 390.2842,-122.5 529.1211,-122.5 529.1211,-94.5 390.2842,-94.5"/>
<text text-anchor="start" x="398.2842" y="-110.5" font-family="Helvetica,sans-Serif" font-size="10.00" fill="#000000">fs::ScreenSharingController</text>
<text text-anchor="middle" x="459.7026" y="-100.5" font-family="Helvetica,sans-Serif" font-size="10.00" fill="#000000">::isPresenter</text>
</a>
</g>
</g>
<!-- Node111 -->
<g id="node2" class="node">
<title>Node111</title>
<g id="a_node2"><a xlink:href="classfs_1_1_screen_sharing_controller.html#a52b62b9e4e991919927cb0ca0065962b" target="_top" xlink:title=" ">
<polygon fill="none" stroke="#000000" points="215.4375,-258.5 215.4375,-286.5 354.2744,-286.5 354.2744,-258.5 215.4375,-258.5"/>
<text text-anchor="start" x="223.4375" y="-274.5" font-family="Helvetica,sans-Serif" font-size="10.00" fill="#000000">fs::ScreenSharingController</text>
<text text-anchor="middle" x="284.856" y="-264.5" font-family="Helvetica,sans-Serif" font-size="10.00" fill="#000000">::isRunning</text>
</a>
</g>
</g>
<!-- Node110&#45;&gt;Node111 -->
<g id="edge1" class="edge">
<title>Node110&#45;&gt;Node111</title>
<path fill="none" stroke="#191970" d="M436.8593,-129.9263C400.5368,-163.9955 330.5909,-229.6022 299.9069,-258.3827"/>
<polygon fill="#191970" stroke="#191970" points="439.5927,-132.1611 444.492,-122.767 434.8039,-127.0555 439.5927,-132.1611"/>
</g>
<!-- Node117 -->
<g id="node8" class="node">
<title>Node117</title>
<g id="a_node8"><a xlink:href="classfs_1_1_screen_sharing_controller.html#ae366128467c0c1562a62be7371763d09" target="_top" xlink:title=" ">
<polygon fill="none" stroke="#000000" points="215.4277,-141.5 215.4277,-169.5 354.2842,-169.5 354.2842,-141.5 215.4277,-141.5"/>
<text text-anchor="start" x="223.4277" y="-157.5" font-family="Helvetica,sans-Serif" font-size="10.00" fill="#000000">fs::ScreenSharingController</text>
<text text-anchor="middle" x="284.856" y="-147.5" font-family="Helvetica,sans-Serif" font-size="10.00" fill="#000000">::initiateTakeBackSequence</text>
</a>
</g>
</g>
<!-- Node110&#45;&gt;Node117 -->
<g id="edge7" class="edge">
<title>Node110&#45;&gt;Node117</title>
<path fill="none" stroke="#191970" d="M397.3995,-125.2475C377.6188,-130.5647 355.9631,-136.3859 336.9772,-141.4894"/>
<polygon fill="#191970" stroke="#191970" points="398.4943,-128.5776 407.2429,-122.6015 396.6771,-121.8175 398.4943,-128.5776"/>
</g>
<!-- Node118 -->
<g id="node9" class="node">
<title>Node118</title>
<g id="a_node9"><a xlink:href="classfs_1_1_screen_sharing_controller.html#a9e9c38a80d4f7e5ca8ff6f2093eff8b3" target="_top" xlink:title=" ">
<polygon fill="none" stroke="#000000" points="215.4375,-94.5 215.4375,-122.5 354.2744,-122.5 354.2744,-94.5 215.4375,-94.5"/>
<text text-anchor="start" x="223.4375" y="-110.5" font-family="Helvetica,sans-Serif" font-size="10.00" fill="#000000">fs::ScreenSharingController</text>
<text text-anchor="middle" x="284.856" y="-100.5" font-family="Helvetica,sans-Serif" font-size="10.00" fill="#000000">::stopScreenSharing</text>
</a>
</g>
</g>
<!-- Node110&#45;&gt;Node118 -->
<g id="edge8" class="edge">
<title>Node110&#45;&gt;Node118</title>
<path fill="none" stroke="#191970" d="M379.8481,-108.5C371.3902,-108.5 362.837,-108.5 354.5085,-108.5"/>
<polygon fill="#191970" stroke="#191970" points="380.0962,-112.0001 390.0962,-108.5 380.0962,-105.0001 380.0962,-112.0001"/>
</g>
<!-- Node122 -->
<g id="node13" class="node">
<title>Node122</title>
<g id="a_node13"><a xlink:href="classfs_1_1_screen_sharing_controller.html#a869e5a50dd78a97f7bc9042d9a6f52ba" target="_top" xlink:title=" ">
<polygon fill="none" stroke="#000000" points="215.4375,-47.5 215.4375,-75.5 354.2744,-75.5 354.2744,-47.5 215.4375,-47.5"/>
<text text-anchor="start" x="223.4375" y="-63.5" font-family="Helvetica,sans-Serif" font-size="10.00" fill="#000000">fs::ScreenSharingController</text>
<text text-anchor="middle" x="284.856" y="-53.5" font-family="Helvetica,sans-Serif" font-size="10.00" fill="#000000">::onFSDataAvailable</text>
</a>
</g>
</g>
<!-- Node110&#45;&gt;Node122 -->
<g id="edge12" class="edge">
<title>Node110&#45;&gt;Node122</title>
<path fill="none" stroke="#191970" d="M397.3995,-91.7525C377.6188,-86.4353 355.9631,-80.6141 336.9772,-75.5106"/>
<polygon fill="#191970" stroke="#191970" points="396.6771,-95.1825 407.2429,-94.3985 398.4943,-88.4224 396.6771,-95.1825"/>
</g>
<!-- Node124 -->
<g id="node15" class="node">
<title>Node124</title>
<g id="a_node15"><a xlink:href="classfs_1_1_screen_sharing_controller.html#a3d467c4be5540b6724573253c6820b6c" target="_top" xlink:title=" ">
<polygon fill="none" stroke="#000000" points="215.4375,-.5 215.4375,-28.5 354.2744,-28.5 354.2744,-.5 215.4375,-.5"/>
<text text-anchor="start" x="223.4375" y="-16.5" font-family="Helvetica,sans-Serif" font-size="10.00" fill="#000000">fs::ScreenSharingController</text>
<text text-anchor="middle" x="284.856" y="-6.5" font-family="Helvetica,sans-Serif" font-size="10.00" fill="#000000">::handleAttendeeDropped</text>
</a>
</g>
</g>
<!-- Node110&#45;&gt;Node124 -->
<g id="edge14" class="edge">
<title>Node110&#45;&gt;Node124</title>
<path fill="none" stroke="#191970" d="M433.2677,-88.2031C412.6045,-73.0312 382.7123,-52.5668 354.2842,-38.5 346.8543,-34.8236 338.7215,-31.4668 330.7217,-28.5045"/>
<polygon fill="#191970" stroke="#191970" points="431.4146,-91.1868 441.5271,-94.3472 435.5927,-85.5704 431.4146,-91.1868"/>
</g>
<!-- Node112 -->
<g id="node3" class="node">
<title>Node112</title>
<g id="a_node3"><a xlink:href="classfs_1_1_screen_sharing_controller.html#a90e3b25a4df8b6e7ccd7db4fe607031c" target="_top" xlink:title=" ">
<polygon fill="none" stroke="#000000" points="20.2954,-376.5 20.2954,-404.5 159.1323,-404.5 159.1323,-376.5 20.2954,-376.5"/>
<text text-anchor="start" x="28.2954" y="-392.5" font-family="Helvetica,sans-Serif" font-size="10.00" fill="#000000">fs::ScreenSharingController</text>
<text text-anchor="middle" x="89.7139" y="-382.5" font-family="Helvetica,sans-Serif" font-size="10.00" fill="#000000">::togglePaused</text>
</a>
</g>
</g>
<!-- Node111&#45;&gt;Node112 -->
<g id="edge2" class="edge">
<title>Node111&#45;&gt;Node112</title>
<path fill="none" stroke="#191970" d="M266.3354,-294.4979C246.8685,-316.2177 214.2772,-348.8135 179.4277,-367.5 173.051,-370.9192 166.1441,-373.847 159.0903,-376.3506"/>
<polygon fill="#191970" stroke="#191970" points="269.1635,-296.5817 273.131,-286.7577 263.9032,-291.9632 269.1635,-296.5817"/>
</g>
<!-- Node113 -->
<g id="node4" class="node">
<title>Node113</title>
<g id="a_node4"><a xlink:href="classfs_1_1_screen_sharing_controller.html#afc3beab906aa182dac6399e410b9566a" target="_top" xlink:title=" ">
<polygon fill="none" stroke="#000000" points="0,-329.5 0,-357.5 179.4277,-357.5 179.4277,-329.5 0,-329.5"/>
<text text-anchor="start" x="8" y="-345.5" font-family="Helvetica,sans-Serif" font-size="10.00" fill="#000000">fs::ScreenSharingController</text>
<text text-anchor="middle" x="89.7139" y="-335.5" font-family="Helvetica,sans-Serif" font-size="10.00" fill="#000000">::requestDisplayConfigurationUpdate</text>
</a>
</g>
</g>
<!-- Node111&#45;&gt;Node113 -->
<g id="edge3" class="edge">
<title>Node111&#45;&gt;Node113</title>
<path fill="none" stroke="#191970" d="M248.1627,-291.1372C228.1897,-300.7859 202.8411,-312.2414 179.4277,-320.5 170.1781,-323.7626 160.2427,-326.7763 150.4735,-329.4744"/>
<polygon fill="#191970" stroke="#191970" points="249.7727,-294.246 257.2185,-286.7088 246.6975,-287.9576 249.7727,-294.246"/>
</g>
<!-- Node114 -->
<g id="node5" class="node">
<title>Node114</title>
<g id="a_node5"><a xlink:href="classfs_1_1_screen_sharing_controller.html#ae42e6239bfe44a06d6f2f05010a971ee" target="_top" xlink:title=" ">
<polygon fill="none" stroke="#000000" points="14.7241,-282.5 14.7241,-310.5 164.7036,-310.5 164.7036,-282.5 14.7241,-282.5"/>
<text text-anchor="start" x="22.7241" y="-298.5" font-family="Helvetica,sans-Serif" font-size="10.00" fill="#000000">fs::ScreenSharingController</text>
<text text-anchor="middle" x="89.7139" y="-288.5" font-family="Helvetica,sans-Serif" font-size="10.00" fill="#000000">::onAttendeeBroadcastStarted</text>
</a>
</g>
</g>
<!-- Node111&#45;&gt;Node114 -->
<g id="edge4" class="edge">
<title>Node111&#45;&gt;Node114</title>
<path fill="none" stroke="#191970" d="M205.1696,-282.3004C191.8722,-283.9358 178.1158,-285.6277 164.9346,-287.2488"/>
<polygon fill="#191970" stroke="#191970" points="205.7337,-285.7575 215.2316,-281.0629 204.8792,-278.8098 205.7337,-285.7575"/>
</g>
<!-- Node115 -->
<g id="node6" class="node">
<title>Node115</title>
<g id="a_node6"><a xlink:href="classfs_1_1_screen_sharing_controller.html#a85a33dada9b1df2d1f2f406249d19d23" target="_top" xlink:title=" ">
<polygon fill="none" stroke="#000000" points="12.2168,-235.5 12.2168,-263.5 167.2109,-263.5 167.2109,-235.5 12.2168,-235.5"/>
<text text-anchor="start" x="20.2168" y="-251.5" font-family="Helvetica,sans-Serif" font-size="10.00" fill="#000000">fs::ScreenSharingController</text>
<text text-anchor="middle" x="89.7139" y="-241.5" font-family="Helvetica,sans-Serif" font-size="10.00" fill="#000000">::onAttendeeBroadcastStopped</text>
</a>
</g>
</g>
<!-- Node111&#45;&gt;Node115 -->
<g id="edge5" class="edge">
<title>Node111&#45;&gt;Node115</title>
<path fill="none" stroke="#191970" d="M205.2746,-263.1203C192.7284,-261.6416 179.7711,-260.1144 167.2717,-258.6412"/>
<polygon fill="#191970" stroke="#191970" points="204.8907,-266.5992 215.2316,-264.2939 205.7101,-259.6473 204.8907,-266.5992"/>
</g>
<!-- Node116 -->
<g id="node7" class="node">
<title>Node116</title>
<g id="a_node7"><a xlink:href="classfs_1_1_screen_sharing_controller.html#a98968642b600bf9c0b82472201ffddf0" target="_top" xlink:title=" ">
<polygon fill="none" stroke="#000000" points="20.2954,-188.5 20.2954,-216.5 159.1323,-216.5 159.1323,-188.5 20.2954,-188.5"/>
<text text-anchor="start" x="28.2954" y="-204.5" font-family="Helvetica,sans-Serif" font-size="10.00" fill="#000000">fs::ScreenSharingController</text>
<text text-anchor="middle" x="89.7139" y="-194.5" font-family="Helvetica,sans-Serif" font-size="10.00" fill="#000000">::captureCursor</text>
</a>
</g>
</g>
<!-- Node111&#45;&gt;Node116 -->
<g id="edge6" class="edge">
<title>Node111&#45;&gt;Node116</title>
<path fill="none" stroke="#191970" d="M246.5128,-254.1147C226.7556,-245.0675 202.1073,-234.431 179.4277,-226.5 169.2308,-222.9342 158.2262,-219.5909 147.5352,-216.5979"/>
<polygon fill="#191970" stroke="#191970" points="245.2438,-257.384 255.7889,-258.4095 248.1849,-251.0318 245.2438,-257.384"/>
</g>
<!-- Node119 -->
<g id="node10" class="node">
<title>Node119</title>
<g id="a_node10"><a xlink:href="classfs_1_1_screen_sharing_controller.html#ac13f35c4160d6b4bab246153d8389a0e" target="_top" xlink:title=" ">
<polygon fill="none" stroke="#000000" points="20.2954,-141.5 20.2954,-169.5 159.1323,-169.5 159.1323,-141.5 20.2954,-141.5"/>
<text text-anchor="start" x="28.2954" y="-157.5" font-family="Helvetica,sans-Serif" font-size="10.00" fill="#000000">fs::ScreenSharingController</text>
<text text-anchor="middle" x="89.7139" y="-147.5" font-family="Helvetica,sans-Serif" font-size="10.00" fill="#000000">::disableScreenSharing</text>
</a>
</g>
</g>
<!-- Node118&#45;&gt;Node119 -->
<g id="edge9" class="edge">
<title>Node118&#45;&gt;Node119</title>
<path fill="none" stroke="#191970" d="M216.7873,-124.8944C194.37,-130.2935 169.6594,-136.2451 148.0352,-141.4533"/>
<polygon fill="#191970" stroke="#191970" points="217.6688,-128.2822 226.5712,-122.5379 216.0297,-121.4768 217.6688,-128.2822"/>
</g>
<!-- Node120 -->
<g id="node11" class="node">
<title>Node120</title>
<g id="a_node11"><a xlink:href="classfs_1_1_screen_sharing_controller.html#a1a90e070b34064df0d721f97fc236c6c" target="_top" xlink:title=" ">
<polygon fill="none" stroke="#000000" points="11.1108,-94.5 11.1108,-122.5 168.3169,-122.5 168.3169,-94.5 11.1108,-94.5"/>
<text text-anchor="start" x="19.1108" y="-110.5" font-family="Helvetica,sans-Serif" font-size="10.00" fill="#000000">fs::ScreenSharingController</text>
<text text-anchor="middle" x="89.7139" y="-100.5" font-family="Helvetica,sans-Serif" font-size="10.00" fill="#000000">::onAttendeeBroadcastRevoked</text>
</a>
</g>
</g>
<!-- Node118&#45;&gt;Node120 -->
<g id="edge10" class="edge">
<title>Node118&#45;&gt;Node120</title>
<path fill="none" stroke="#191970" d="M205.1958,-108.5C193.1221,-108.5 180.6695,-108.5 168.6121,-108.5"/>
<polygon fill="#191970" stroke="#191970" points="205.2317,-112.0001 215.2316,-108.5 205.2316,-105.0001 205.2317,-112.0001"/>
</g>
<!-- Node121 -->
<g id="node12" class="node">
<title>Node121</title>
<g id="a_node12"><a xlink:href="classfs_1_1_screen_sharing_controller.html#ac1c08f9109bd64e3767d3e70b459fd8e" target="_top" xlink:title=" ">
<polygon fill="none" stroke="#000000" points="6.6602,-47.5 6.6602,-75.5 172.7676,-75.5 172.7676,-47.5 6.6602,-47.5"/>
<text text-anchor="start" x="14.6602" y="-63.5" font-family="Helvetica,sans-Serif" font-size="10.00" fill="#000000">fs::ScreenSharingController</text>
<text text-anchor="middle" x="89.7139" y="-53.5" font-family="Helvetica,sans-Serif" font-size="10.00" fill="#000000">::onAttendeeSubConferenceEnter</text>
</a>
</g>
</g>
<!-- Node118&#45;&gt;Node121 -->
<g id="edge11" class="edge">
<title>Node118&#45;&gt;Node121</title>
<path fill="none" stroke="#191970" d="M216.7873,-92.1056C194.37,-86.7065 169.6594,-80.7549 148.0352,-75.5467"/>
<polygon fill="#191970" stroke="#191970" points="216.0297,-95.5232 226.5712,-94.4621 217.6688,-88.7178 216.0297,-95.5232"/>
</g>
<!-- Node123 -->
<g id="node14" class="node">
<title>Node123</title>
<g id="a_node14"><a xlink:href="classfs_1_1_screen_sharing_controller.html#aba97ae6754ab50d12fac104a78cd86b4" target="_top" xlink:title=" ">
<polygon fill="none" stroke="#000000" points="20.2954,-.5 20.2954,-28.5 159.1323,-28.5 159.1323,-.5 20.2954,-.5"/>
<text text-anchor="start" x="28.2954" y="-16.5" font-family="Helvetica,sans-Serif" font-size="10.00" fill="#000000">fs::ScreenSharingController</text>
<text text-anchor="middle" x="89.7139" y="-6.5" font-family="Helvetica,sans-Serif" font-size="10.00" fill="#000000">::onFSPropertyChanged</text>
</a>
</g>
</g>
<!-- Node122&#45;&gt;Node123 -->
<g id="edge13" class="edge">
<title>Node122&#45;&gt;Node123</title>
<path fill="none" stroke="#191970" d="M216.7873,-45.1056C194.37,-39.7065 169.6594,-33.7549 148.0352,-28.5467"/>
<polygon fill="#191970" stroke="#191970" points="216.0297,-48.5232 226.5712,-47.4621 217.6688,-41.7178 216.0297,-48.5232"/>
</g>
</g>
</svg>
