<?xml version="1.0" encoding="UTF-8" standalone="no"?>
<!DOCTYPE svg PUBLIC "-//W3C//DTD SVG 1.1//EN"
 "http://www.w3.org/Graphics/SVG/1.1/DTD/svg11.dtd">
<!-- Generated by graphviz version 2.40.1 (20161225.0304)
 -->
<!-- Title: fs::RawRTMessageNotificationsNullDelegate Pages: 1 -->
<svg width="173pt" height="285pt"
 viewBox="0.00 0.00 173.32 285.00" xmlns="http://www.w3.org/2000/svg" xmlns:xlink="http://www.w3.org/1999/xlink">
<g id="graph0" class="graph" transform="scale(1 1) rotate(0) translate(4 281)">
<title>fs::RawRTMessageNotificationsNullDelegate</title>
<!-- Node6 -->
<g id="node1" class="node">
<title>Node6</title>
<g id="a_node1"><a xlink:title=" ">
<polygon fill="#bfbfbf" stroke="#000000" points="3.8916,-.5 3.8916,-64.5 161.4297,-64.5 161.4297,-.5 3.8916,-.5"/>
<text text-anchor="start" x="11.8916" y="-52.5" font-family="Helvetica,sans-Serif" font-size="10.00" fill="#000000">fs::RawRTMessageNotifications</text>
<text text-anchor="middle" x="82.6606" y="-42.5" font-family="Helvetica,sans-Serif" font-size="10.00" fill="#000000">NullDelegate</text>
<polyline fill="none" stroke="#000000" points="3.8916,-36.5 161.4297,-36.5 "/>
<text text-anchor="middle" x="82.6606" y="-24.5" font-family="Helvetica,sans-Serif" font-size="10.00" fill="#000000"> </text>
<polyline fill="none" stroke="#000000" points="3.8916,-18.5 161.4297,-18.5 "/>
<text text-anchor="start" x="11.8916" y="-6.5" font-family="Helvetica,sans-Serif" font-size="10.00" fill="#000000">+ EMPTY_METHOD()</text>
</a>
</g>
</g>
<!-- Node7 -->
<g id="node2" class="node">
<title>Node7</title>
<g id="a_node2"><a xlink:href="classfs_1_1_i_raw_r_t_message_notifications_delegate.html" target="_top" xlink:title=" ">
<polygon fill="none" stroke="#000000" points="1.9409,-101.5 1.9409,-175.5 163.3804,-175.5 163.3804,-101.5 1.9409,-101.5"/>
<text text-anchor="start" x="9.9409" y="-163.5" font-family="Helvetica,sans-Serif" font-size="10.00" fill="#000000">fs::IRawRTMessageNotifications</text>
<text text-anchor="middle" x="82.6606" y="-153.5" font-family="Helvetica,sans-Serif" font-size="10.00" fill="#000000">Delegate</text>
<polyline fill="none" stroke="#000000" points="1.9409,-147.5 163.3804,-147.5 "/>
<text text-anchor="middle" x="82.6606" y="-135.5" font-family="Helvetica,sans-Serif" font-size="10.00" fill="#000000"> </text>
<polyline fill="none" stroke="#000000" points="1.9409,-129.5 163.3804,-129.5 "/>
<text text-anchor="start" x="9.9409" y="-117.5" font-family="Helvetica,sans-Serif" font-size="10.00" fill="#000000">+ ~IRawRTMessageNotifications</text>
<text text-anchor="start" x="9.9409" y="-107.5" font-family="Helvetica,sans-Serif" font-size="10.00" fill="#000000">Delegate()</text>
</a>
</g>
</g>
<!-- Node7&#45;&gt;Node6 -->
<g id="edge1" class="edge">
<title>Node7&#45;&gt;Node6</title>
<path fill="none" stroke="#191970" d="M82.6606,-91.4211C82.6606,-82.4227 82.6606,-73.1937 82.6606,-64.7893"/>
<polygon fill="none" stroke="#191970" points="79.1607,-91.4263 82.6606,-101.4263 86.1607,-91.4264 79.1607,-91.4263"/>
</g>
<!-- Node8 -->
<g id="node3" class="node">
<title>Node8</title>
<g id="a_node3"><a xlink:href="classfs_1_1_raw_r_t_message_notifications.html" target="_top" xlink:title=" ">
<polygon fill="none" stroke="#000000" points="0,-212.5 0,-276.5 165.3213,-276.5 165.3213,-212.5 0,-212.5"/>
<text text-anchor="middle" x="82.6606" y="-264.5" font-family="Helvetica,sans-Serif" font-size="10.00" fill="#000000">fs::RawRTMessageNotifications</text>
<polyline fill="none" stroke="#000000" points="0,-258.5 165.3213,-258.5 "/>
<text text-anchor="middle" x="82.6606" y="-246.5" font-family="Helvetica,sans-Serif" font-size="10.00" fill="#000000"> </text>
<polyline fill="none" stroke="#000000" points="0,-240.5 165.3213,-240.5 "/>
<text text-anchor="start" x="8" y="-228.5" font-family="Helvetica,sans-Serif" font-size="10.00" fill="#000000">+ ~RawRTMessageNotifications()</text>
<text text-anchor="start" x="8" y="-218.5" font-family="Helvetica,sans-Serif" font-size="10.00" fill="#000000">+ ABSTRACT_METHOD()</text>
</a>
</g>
</g>
<!-- Node8&#45;&gt;Node7 -->
<g id="edge2" class="edge">
<title>Node8&#45;&gt;Node7</title>
<path fill="none" stroke="#191970" d="M82.6606,-202.3257C82.6606,-193.5209 82.6606,-184.2998 82.6606,-175.6912"/>
<polygon fill="none" stroke="#191970" points="79.1607,-202.4088 82.6606,-212.4088 86.1607,-202.4089 79.1607,-202.4088"/>
</g>
</g>
</svg>
