<?xml version="1.0" encoding="UTF-8" standalone="no"?>
<!DOCTYPE svg PUBLIC "-//W3C//DTD SVG 1.1//EN"
 "http://www.w3.org/Graphics/SVG/1.1/DTD/svg11.dtd">
<!-- Generated by graphviz version 2.40.1 (20161225.0304)
 -->
<!-- Title: fs::MeetingClientSession::startRecordingBroadcast Pages: 1 -->
<svg width="302pt" height="121pt"
 viewBox="0.00 0.00 301.66 121.00" xmlns="http://www.w3.org/2000/svg" xmlns:xlink="http://www.w3.org/1999/xlink">
<g id="graph0" class="graph" transform="scale(1 1) rotate(0) translate(4 117)">
<title>fs::MeetingClientSession::startRecordingBroadcast</title>
<!-- Node927 -->
<g id="node1" class="node">
<title>Node927</title>
<g id="a_node1"><a xlink:title=" ">
<polygon fill="#bfbfbf" stroke="#000000" points="0,-42.5 0,-70.5 131.6104,-70.5 131.6104,-42.5 0,-42.5"/>
<text text-anchor="start" x="8" y="-58.5" font-family="Helvetica,sans-Serif" font-size="10.00" fill="#000000">fs::MeetingClientSession</text>
<text text-anchor="middle" x="65.8052" y="-48.5" font-family="Helvetica,sans-Serif" font-size="10.00" fill="#000000">::startRecordingBroadcast</text>
</a>
</g>
</g>
<!-- Node928 -->
<g id="node2" class="node">
<title>Node928</title>
<g id="a_node2"><a xlink:href="classfs_1_1_meeting_client_session.html#ad2db541bceb2f60d39d34b3e443801d2" target="_top" xlink:title=" ">
<polygon fill="none" stroke="#000000" points="167.6104,-84.5 167.6104,-112.5 293.6641,-112.5 293.6641,-84.5 167.6104,-84.5"/>
<text text-anchor="start" x="175.6104" y="-100.5" font-family="Helvetica,sans-Serif" font-size="10.00" fill="#000000">fs::MeetingClientSession</text>
<text text-anchor="middle" x="230.6372" y="-90.5" font-family="Helvetica,sans-Serif" font-size="10.00" fill="#000000">::isInitialized</text>
</a>
</g>
</g>
<!-- Node927&#45;&gt;Node928 -->
<g id="edge1" class="edge">
<title>Node927&#45;&gt;Node928</title>
<path fill="none" stroke="#191970" d="M121.1504,-70.6022C135.3605,-74.223 150.7785,-78.1516 165.4362,-81.8865"/>
<polygon fill="#191970" stroke="#191970" points="164.8835,-85.3574 175.4381,-84.435 166.6119,-78.5741 164.8835,-85.3574"/>
</g>
<!-- Node929 -->
<g id="node3" class="node">
<title>Node929</title>
<g id="a_node3"><a xlink:href="_meeting_client_session_8cxx.html#ab06e713e85f5d00e42ad86367c03f278" target="_top" xlink:title=" ">
<polygon fill="none" stroke="#000000" points="201.2334,-47.5 201.2334,-65.5 260.041,-65.5 260.041,-47.5 201.2334,-47.5"/>
<text text-anchor="middle" x="230.6372" y="-53.5" font-family="Helvetica,sans-Serif" font-size="10.00" fill="#000000">asio_post</text>
</a>
</g>
</g>
<!-- Node927&#45;&gt;Node929 -->
<g id="edge2" class="edge">
<title>Node927&#45;&gt;Node929</title>
<path fill="none" stroke="#191970" d="M131.8989,-56.5C151.7769,-56.5 172.9744,-56.5 190.6126,-56.5"/>
<polygon fill="#191970" stroke="#191970" points="191.0913,-60.0001 201.0913,-56.5 191.0912,-53.0001 191.0913,-60.0001"/>
</g>
<!-- Node930 -->
<g id="node4" class="node">
<title>Node930</title>
<g id="a_node4"><a xlink:href="classfs_1_1_meeting_client_session.html#a75e9c574fb9a84a95e9629dd91689dc0" target="_top" xlink:title=" ">
<polygon fill="none" stroke="#000000" points="167.6104,-.5 167.6104,-28.5 293.6641,-28.5 293.6641,-.5 167.6104,-.5"/>
<text text-anchor="start" x="175.6104" y="-16.5" font-family="Helvetica,sans-Serif" font-size="10.00" fill="#000000">fs::MeetingClientSession</text>
<text text-anchor="middle" x="230.6372" y="-6.5" font-family="Helvetica,sans-Serif" font-size="10.00" fill="#000000">::ioService</text>
</a>
</g>
</g>
<!-- Node927&#45;&gt;Node930 -->
<g id="edge3" class="edge">
<title>Node927&#45;&gt;Node930</title>
<path fill="none" stroke="#191970" d="M121.1504,-42.3978C135.3605,-38.777 150.7785,-34.8484 165.4362,-31.1135"/>
<polygon fill="#191970" stroke="#191970" points="166.6119,-34.4259 175.4381,-28.565 164.8835,-27.6426 166.6119,-34.4259"/>
</g>
</g>
</svg>
