<?xml version="1.0" encoding="UTF-8" standalone="no"?>
<!DOCTYPE svg PUBLIC "-//W3C//DTD SVG 1.1//EN"
 "http://www.w3.org/Graphics/SVG/1.1/DTD/svg11.dtd">
<!-- Generated by graphviz version 2.40.1 (20161225.0304)
 -->
<!-- Title: fs::MeetingClientSession::directorPromoteStatus Pages: 1 -->
<svg width="304pt" height="121pt"
 viewBox="0.00 0.00 303.88 121.00" xmlns="http://www.w3.org/2000/svg" xmlns:xlink="http://www.w3.org/1999/xlink">
<g id="graph0" class="graph" transform="scale(1 1) rotate(0) translate(4 117)">
<title>fs::MeetingClientSession::directorPromoteStatus</title>
<!-- Node62 -->
<g id="node1" class="node">
<title>Node62</title>
<g id="a_node1"><a xlink:title=" ">
<polygon fill="#bfbfbf" stroke="#000000" points="0,-47.5 0,-75.5 126.0537,-75.5 126.0537,-47.5 0,-47.5"/>
<text text-anchor="start" x="8" y="-63.5" font-family="Helvetica,sans-Serif" font-size="10.00" fill="#000000">fs::MeetingClientSession</text>
<text text-anchor="middle" x="63.0269" y="-53.5" font-family="Helvetica,sans-Serif" font-size="10.00" fill="#000000">::directorPromoteStatus</text>
</a>
</g>
</g>
<!-- Node63 -->
<g id="node2" class="node">
<title>Node63</title>
<g id="a_node2"><a xlink:href="_meeting_client_session_8cxx.html#ab06e713e85f5d00e42ad86367c03f278" target="_top" xlink:title=" ">
<polygon fill="none" stroke="#000000" points="199.5635,-94.5 199.5635,-112.5 258.3711,-112.5 258.3711,-94.5 199.5635,-94.5"/>
<text text-anchor="middle" x="228.9673" y="-100.5" font-family="Helvetica,sans-Serif" font-size="10.00" fill="#000000">asio_post</text>
</a>
</g>
</g>
<!-- Node62&#45;&gt;Node63 -->
<g id="edge1" class="edge">
<title>Node62&#45;&gt;Node63</title>
<path fill="none" stroke="#191970" d="M118.7442,-75.6022C141.8858,-81.4594 168.2093,-88.122 189.3271,-93.467"/>
<polygon fill="#191970" stroke="#191970" points="188.686,-96.915 199.2391,-95.9757 190.4036,-90.129 188.686,-96.915"/>
</g>
<!-- Node64 -->
<g id="node3" class="node">
<title>Node64</title>
<g id="a_node3"><a xlink:href="classfs_1_1_meeting_client_session.html#a75e9c574fb9a84a95e9629dd91689dc0" target="_top" xlink:title=" ">
<polygon fill="none" stroke="#000000" points="165.9404,-47.5 165.9404,-75.5 291.9941,-75.5 291.9941,-47.5 165.9404,-47.5"/>
<text text-anchor="start" x="173.9404" y="-63.5" font-family="Helvetica,sans-Serif" font-size="10.00" fill="#000000">fs::MeetingClientSession</text>
<text text-anchor="middle" x="228.9673" y="-53.5" font-family="Helvetica,sans-Serif" font-size="10.00" fill="#000000">::ioService</text>
</a>
</g>
</g>
<!-- Node62&#45;&gt;Node64 -->
<g id="edge2" class="edge">
<title>Node62&#45;&gt;Node64</title>
<path fill="none" stroke="#191970" d="M126.2352,-61.5C135.888,-61.5 145.9198,-61.5 155.7655,-61.5"/>
<polygon fill="#191970" stroke="#191970" points="155.9347,-65.0001 165.9347,-61.5 155.9347,-58.0001 155.9347,-65.0001"/>
</g>
<!-- Node65 -->
<g id="node4" class="node">
<title>Node65</title>
<g id="a_node4"><a xlink:href="classfs_1_1_meeting_client_session.html#aaa779f9953ff2fba9db88ce732031034" target="_top" xlink:title=" ">
<polygon fill="none" stroke="#000000" points="162.0537,-.5 162.0537,-28.5 295.8809,-28.5 295.8809,-.5 162.0537,-.5"/>
<text text-anchor="start" x="170.0537" y="-16.5" font-family="Helvetica,sans-Serif" font-size="10.00" fill="#000000">fs::MeetingClientSession</text>
<text text-anchor="middle" x="228.9673" y="-6.5" font-family="Helvetica,sans-Serif" font-size="10.00" fill="#000000">::onDirectorPromoteStatus</text>
</a>
</g>
</g>
<!-- Node62&#45;&gt;Node65 -->
<g id="edge3" class="edge">
<title>Node62&#45;&gt;Node65</title>
<path fill="none" stroke="#191970" d="M112.8145,-47.3985C130.6984,-42.3331 151.0449,-36.5703 169.6578,-31.2985"/>
<polygon fill="#191970" stroke="#191970" points="170.8333,-34.6033 179.501,-28.5106 168.9256,-27.8682 170.8333,-34.6033"/>
</g>
</g>
</svg>
