<?xml version="1.0" encoding="UTF-8" standalone="no"?>
<!DOCTYPE svg PUBLIC "-//W3C//DTD SVG 1.1//EN"
 "http://www.w3.org/Graphics/SVG/1.1/DTD/svg11.dtd">
<!-- Generated by graphviz version 2.40.1 (20161225.0304)
 -->
<!-- Title: fs::BroadcasterRecordingNotificationsNullDelegate Pages: 1 -->
<svg width="199pt" height="426pt"
 viewBox="0.00 0.00 199.08 426.00" xmlns="http://www.w3.org/2000/svg" xmlns:xlink="http://www.w3.org/1999/xlink">
<g id="graph0" class="graph" transform="scale(1 1) rotate(0) translate(4 422)">
<title>fs::BroadcasterRecordingNotificationsNullDelegate</title>
<!-- Node7 -->
<g id="node1" class="node">
<title>Node7</title>
<g id="a_node1"><a xlink:title=" ">
<polygon fill="#bfbfbf" stroke="#000000" points="31.1255,-.5 31.1255,-84.5 159.9575,-84.5 159.9575,-.5 31.1255,-.5"/>
<text text-anchor="start" x="39.1255" y="-72.5" font-family="Helvetica,sans-Serif" font-size="10.00" fill="#000000">fs::BroadcasterRecording</text>
<text text-anchor="middle" x="95.5415" y="-62.5" font-family="Helvetica,sans-Serif" font-size="10.00" fill="#000000">NotificationsNullDelegate</text>
<polyline fill="none" stroke="#000000" points="31.1255,-56.5 159.9575,-56.5 "/>
<text text-anchor="middle" x="95.5415" y="-44.5" font-family="Helvetica,sans-Serif" font-size="10.00" fill="#000000"> </text>
<polyline fill="none" stroke="#000000" points="31.1255,-38.5 159.9575,-38.5 "/>
<text text-anchor="start" x="39.1255" y="-26.5" font-family="Helvetica,sans-Serif" font-size="10.00" fill="#000000">+ EMPTY_METHOD()</text>
<text text-anchor="start" x="39.1255" y="-16.5" font-family="Helvetica,sans-Serif" font-size="10.00" fill="#000000">+ EMPTY_METHOD()</text>
<text text-anchor="start" x="39.1255" y="-6.5" font-family="Helvetica,sans-Serif" font-size="10.00" fill="#000000">+ EMPTY_METHOD()</text>
</a>
</g>
</g>
<!-- Node8 -->
<g id="node2" class="node">
<title>Node8</title>
<g id="a_node2"><a xlink:href="classfs_1_1_i_broadcaster_recording_notifications_delegate.html" target="_top" xlink:title=" ">
<polygon fill="none" stroke="#000000" points="1.9409,-121.5 1.9409,-195.5 189.1421,-195.5 189.1421,-121.5 1.9409,-121.5"/>
<text text-anchor="start" x="9.9409" y="-183.5" font-family="Helvetica,sans-Serif" font-size="10.00" fill="#000000">fs::IBroadcasterRecording</text>
<text text-anchor="middle" x="95.5415" y="-173.5" font-family="Helvetica,sans-Serif" font-size="10.00" fill="#000000">NotificationsDelegate</text>
<polyline fill="none" stroke="#000000" points="1.9409,-167.5 189.1421,-167.5 "/>
<text text-anchor="middle" x="95.5415" y="-155.5" font-family="Helvetica,sans-Serif" font-size="10.00" fill="#000000"> </text>
<polyline fill="none" stroke="#000000" points="1.9409,-149.5 189.1421,-149.5 "/>
<text text-anchor="start" x="9.9409" y="-137.5" font-family="Helvetica,sans-Serif" font-size="10.00" fill="#000000">+ ~IBroadcasterRecordingNotifications</text>
<text text-anchor="start" x="9.9409" y="-127.5" font-family="Helvetica,sans-Serif" font-size="10.00" fill="#000000">Delegate()</text>
</a>
</g>
</g>
<!-- Node8&#45;&gt;Node7 -->
<g id="edge1" class="edge">
<title>Node8&#45;&gt;Node7</title>
<path fill="none" stroke="#191970" d="M95.5415,-111.3716C95.5415,-102.5842 95.5415,-93.4515 95.5415,-84.8197"/>
<polygon fill="none" stroke="#191970" points="92.0416,-111.4779 95.5415,-121.4779 99.0416,-111.478 92.0416,-111.4779"/>
</g>
<!-- Node9 -->
<g id="node3" class="node">
<title>Node9</title>
<g id="a_node3"><a xlink:href="classfs_1_1_broadcaster_recording_notifications.html" target="_top" xlink:title=" ">
<polygon fill="none" stroke="#000000" points="0,-232.5 0,-316.5 191.083,-316.5 191.083,-232.5 0,-232.5"/>
<text text-anchor="start" x="8" y="-304.5" font-family="Helvetica,sans-Serif" font-size="10.00" fill="#000000">fs::BroadcasterRecording</text>
<text text-anchor="middle" x="95.5415" y="-294.5" font-family="Helvetica,sans-Serif" font-size="10.00" fill="#000000">Notifications</text>
<polyline fill="none" stroke="#000000" points="0,-288.5 191.083,-288.5 "/>
<text text-anchor="middle" x="95.5415" y="-276.5" font-family="Helvetica,sans-Serif" font-size="10.00" fill="#000000"> </text>
<polyline fill="none" stroke="#000000" points="0,-270.5 191.083,-270.5 "/>
<text text-anchor="start" x="8" y="-258.5" font-family="Helvetica,sans-Serif" font-size="10.00" fill="#000000">+ ~BroadcasterRecordingNotifications()</text>
<text text-anchor="start" x="8" y="-248.5" font-family="Helvetica,sans-Serif" font-size="10.00" fill="#000000">+ ABSTRACT_METHOD()</text>
<text text-anchor="start" x="8" y="-238.5" font-family="Helvetica,sans-Serif" font-size="10.00" fill="#000000">+ ABSTRACT_METHOD()</text>
</a>
</g>
</g>
<!-- Node9&#45;&gt;Node8 -->
<g id="edge2" class="edge">
<title>Node9&#45;&gt;Node8</title>
<path fill="none" stroke="#191970" d="M95.5415,-222.0572C95.5415,-213.2275 95.5415,-204.2244 95.5415,-195.8766"/>
<polygon fill="none" stroke="#191970" points="92.0416,-222.2932 95.5415,-232.2932 99.0416,-222.2932 92.0416,-222.2932"/>
</g>
<!-- Node10 -->
<g id="node4" class="node">
<title>Node10</title>
<g id="a_node4"><a xlink:href="classfs_1_1_broadcaster_notifications.html" target="_top" xlink:title=" ">
<polygon fill="none" stroke="#000000" points="22.7905,-353.5 22.7905,-417.5 168.2925,-417.5 168.2925,-353.5 22.7905,-353.5"/>
<text text-anchor="middle" x="95.5415" y="-405.5" font-family="Helvetica,sans-Serif" font-size="10.00" fill="#000000">fs::BroadcasterNotifications</text>
<polyline fill="none" stroke="#000000" points="22.7905,-399.5 168.2925,-399.5 "/>
<text text-anchor="middle" x="95.5415" y="-387.5" font-family="Helvetica,sans-Serif" font-size="10.00" fill="#000000"> </text>
<polyline fill="none" stroke="#000000" points="22.7905,-381.5 168.2925,-381.5 "/>
<text text-anchor="start" x="30.7905" y="-369.5" font-family="Helvetica,sans-Serif" font-size="10.00" fill="#000000">+ ~BroadcasterNotifications()</text>
<text text-anchor="start" x="30.7905" y="-359.5" font-family="Helvetica,sans-Serif" font-size="10.00" fill="#000000">+ ABSTRACT_METHOD()</text>
</a>
</g>
</g>
<!-- Node10&#45;&gt;Node9 -->
<g id="edge3" class="edge">
<title>Node10&#45;&gt;Node9</title>
<path fill="none" stroke="#191970" d="M95.5415,-343.1673C95.5415,-334.5509 95.5415,-325.4852 95.5415,-316.8676"/>
<polygon fill="none" stroke="#191970" points="92.0416,-343.3942 95.5415,-353.3942 99.0416,-343.3942 92.0416,-343.3942"/>
</g>
</g>
</svg>
