<?xml version="1.0" encoding="UTF-8" standalone="no"?>
<!DOCTYPE svg PUBLIC "-//W3C//DTD SVG 1.1//EN"
 "http://www.w3.org/Graphics/SVG/1.1/DTD/svg11.dtd">
<!-- Generated by graphviz version 2.40.1 (20161225.0304)
 -->
<!-- Title: cx::HTTPRequest::Response::set_bytes Pages: 1 -->
<svg width="516pt" height="37pt"
 viewBox="0.00 0.00 516.49 37.00" xmlns="http://www.w3.org/2000/svg" xmlns:xlink="http://www.w3.org/1999/xlink">
<g id="graph0" class="graph" transform="scale(1 1) rotate(0) translate(4 33)">
<title>cx::HTTPRequest::Response::set_bytes</title>
<!-- Node21 -->
<g id="node1" class="node">
<title>Node21</title>
<g id="a_node1"><a xlink:title=" ">
<polygon fill="#bfbfbf" stroke="#000000" points="0,-.5 0,-28.5 145.4971,-28.5 145.4971,-.5 0,-.5"/>
<text text-anchor="start" x="8" y="-16.5" font-family="Helvetica,sans-Serif" font-size="10.00" fill="#000000">cx::HTTPRequest::Response</text>
<text text-anchor="middle" x="72.7485" y="-6.5" font-family="Helvetica,sans-Serif" font-size="10.00" fill="#000000">::set_bytes</text>
</a>
</g>
</g>
<!-- Node22 -->
<g id="node2" class="node">
<title>Node22</title>
<g id="a_node2"><a xlink:href="classcx_1_1_h_t_t_p_request_1_1_response.html#a61dfcfe1c942008361173c666d3089b1" target="_top" xlink:title=" ">
<polygon fill="none" stroke="#000000" points="181.4971,-.5 181.4971,-28.5 326.9941,-28.5 326.9941,-.5 181.4971,-.5"/>
<text text-anchor="start" x="189.4971" y="-16.5" font-family="Helvetica,sans-Serif" font-size="10.00" fill="#000000">cx::HTTPRequest::Response</text>
<text text-anchor="middle" x="254.2456" y="-6.5" font-family="Helvetica,sans-Serif" font-size="10.00" fill="#000000">::set_text</text>
</a>
</g>
</g>
<!-- Node21&#45;&gt;Node22 -->
<g id="edge1" class="edge">
<title>Node21&#45;&gt;Node22</title>
<path fill="none" stroke="#191970" d="M145.5246,-14.5C154.0306,-14.5 162.7561,-14.5 171.3857,-14.5"/>
<polygon fill="#191970" stroke="#191970" points="171.4533,-18.0001 181.4533,-14.5 171.4532,-11.0001 171.4533,-18.0001"/>
</g>
<!-- Node23 -->
<g id="node3" class="node">
<title>Node23</title>
<g id="a_node3"><a xlink:href="classcx_1_1_h_t_t_p_request_1_1_response.html#a522aa9b86fc9a55888f2ae0b78812204" target="_top" xlink:title=" ">
<polygon fill="none" stroke="#000000" points="362.9941,-.5 362.9941,-28.5 508.4912,-28.5 508.4912,-.5 362.9941,-.5"/>
<text text-anchor="start" x="370.9941" y="-16.5" font-family="Helvetica,sans-Serif" font-size="10.00" fill="#000000">cx::HTTPRequest::Response</text>
<text text-anchor="middle" x="435.7427" y="-6.5" font-family="Helvetica,sans-Serif" font-size="10.00" fill="#000000">::clean</text>
</a>
</g>
</g>
<!-- Node22&#45;&gt;Node23 -->
<g id="edge2" class="edge">
<title>Node22&#45;&gt;Node23</title>
<path fill="none" stroke="#191970" d="M327.0216,-14.5C335.5277,-14.5 344.2532,-14.5 352.8828,-14.5"/>
<polygon fill="#191970" stroke="#191970" points="352.9504,-18.0001 362.9503,-14.5 352.9503,-11.0001 352.9504,-18.0001"/>
</g>
</g>
</svg>
