<?xml version="1.0" encoding="UTF-8" standalone="no"?>
<!DOCTYPE svg PUBLIC "-//W3C//DTD SVG 1.1//EN"
 "http://www.w3.org/Graphics/SVG/1.1/DTD/svg11.dtd">
<!-- Generated by graphviz version 2.40.1 (20161225.0304)
 -->
<!-- Title: cx::web::CountryCodeEntity::update Pages: 1 -->
<svg width="579pt" height="84pt"
 viewBox="0.00 0.00 578.52 84.00" xmlns="http://www.w3.org/2000/svg" xmlns:xlink="http://www.w3.org/1999/xlink">
<g id="graph0" class="graph" transform="scale(1 1) rotate(0) translate(4 80)">
<title>cx::web::CountryCodeEntity::update</title>
<!-- Node6 -->
<g id="node1" class="node">
<title>Node6</title>
<g id="a_node1"><a xlink:title=" ">
<polygon fill="#bfbfbf" stroke="#000000" points="0,-21.5 0,-49.5 139.3887,-49.5 139.3887,-21.5 0,-21.5"/>
<text text-anchor="start" x="8" y="-37.5" font-family="Helvetica,sans-Serif" font-size="10.00" fill="#000000">cx::web::CountryCodeEntity</text>
<text text-anchor="middle" x="69.6943" y="-27.5" font-family="Helvetica,sans-Serif" font-size="10.00" fill="#000000">::update</text>
</a>
</g>
</g>
<!-- Node7 -->
<g id="node2" class="node">
<title>Node7</title>
<g id="a_node2"><a xlink:href="structcx_1_1web_1_1data__entity.html#a6ee3f7541c9752790cf992a277d34cb7" target="_top" xlink:title=" ">
<polygon fill="none" stroke="#000000" points="175.3887,-43.5 175.3887,-71.5 279.7725,-71.5 279.7725,-43.5 175.3887,-43.5"/>
<text text-anchor="start" x="183.3887" y="-59.5" font-family="Helvetica,sans-Serif" font-size="10.00" fill="#000000">cx::web::data_entity</text>
<text text-anchor="middle" x="227.5806" y="-49.5" font-family="Helvetica,sans-Serif" font-size="10.00" fill="#000000">::update</text>
</a>
</g>
</g>
<!-- Node6&#45;&gt;Node7 -->
<g id="edge1" class="edge">
<title>Node6&#45;&gt;Node7</title>
<path fill="none" stroke="#191970" d="M139.4051,-45.2136C147.9796,-46.4083 156.7014,-47.6236 165.1584,-48.802"/>
<polygon fill="#191970" stroke="#191970" points="164.9277,-52.3036 175.3151,-50.2173 165.8938,-45.3706 164.9277,-52.3036"/>
</g>
<!-- Node9 -->
<g id="node4" class="node">
<title>Node9</title>
<g id="a_node4"><a xlink:href="structcx_1_1web_1_1json__entity.html#a1fbed015492bb7a0c4ec31550fc3de1d" target="_top" xlink:title=" ">
<polygon fill="none" stroke="#000000" points="318.8267,-.5 318.8267,-28.5 422.0923,-28.5 422.0923,-.5 318.8267,-.5"/>
<text text-anchor="start" x="326.8267" y="-16.5" font-family="Helvetica,sans-Serif" font-size="10.00" fill="#000000">cx::web::json_entity</text>
<text text-anchor="middle" x="370.4595" y="-6.5" font-family="Helvetica,sans-Serif" font-size="10.00" fill="#000000">::get_json</text>
</a>
</g>
</g>
<!-- Node6&#45;&gt;Node9 -->
<g id="edge5" class="edge">
<title>Node6&#45;&gt;Node9</title>
<path fill="none" stroke="#191970" d="M139.4519,-30.6294C190.4849,-27.0662 259.1053,-22.275 308.2731,-18.842"/>
<polygon fill="#191970" stroke="#191970" points="308.7245,-22.3191 318.4564,-18.131 308.2369,-15.3361 308.7245,-22.3191"/>
</g>
<!-- Node8 -->
<g id="node3" class="node">
<title>Node8</title>
<g id="a_node3"><a xlink:href="structcx_1_1web_1_1string__entity.html#ad1e200dd478daf44692124233963aec6" target="_top" xlink:title=" ">
<polygon fill="none" stroke="#000000" points="315.7725,-47.5 315.7725,-75.5 425.1465,-75.5 425.1465,-47.5 315.7725,-47.5"/>
<text text-anchor="start" x="323.7725" y="-63.5" font-family="Helvetica,sans-Serif" font-size="10.00" fill="#000000">cx::web::string_entity</text>
<text text-anchor="middle" x="370.4595" y="-53.5" font-family="Helvetica,sans-Serif" font-size="10.00" fill="#000000">::update</text>
</a>
</g>
</g>
<!-- Node7&#45;&gt;Node8 -->
<g id="edge2" class="edge">
<title>Node7&#45;&gt;Node8</title>
<path fill="none" stroke="#191970" d="M279.9721,-58.9667C288.3297,-59.2007 297.0625,-59.4452 305.6657,-59.6861"/>
<polygon fill="#191970" stroke="#191970" points="305.5812,-63.185 315.6752,-59.9663 305.7771,-56.1877 305.5812,-63.185"/>
</g>
<!-- Node7&#45;&gt;Node9 -->
<g id="edge3" class="edge">
<title>Node7&#45;&gt;Node9</title>
<path fill="none" stroke="#191970" d="M274.3645,-43.4202C286.9462,-39.6337 300.6909,-35.4972 313.7491,-31.5672"/>
<polygon fill="#191970" stroke="#191970" points="315.0034,-34.8449 323.5705,-28.6114 312.986,-28.1419 315.0034,-34.8449"/>
</g>
<!-- Node10 -->
<g id="node5" class="node">
<title>Node10</title>
<g id="a_node5"><a xlink:href="structcx_1_1web_1_1string__entity.html#a532443f26d829f9d361289d856513ff4" target="_top" xlink:title=" ">
<polygon fill="none" stroke="#000000" points="461.1465,-.5 461.1465,-28.5 570.5205,-28.5 570.5205,-.5 461.1465,-.5"/>
<text text-anchor="start" x="469.1465" y="-16.5" font-family="Helvetica,sans-Serif" font-size="10.00" fill="#000000">cx::web::string_entity</text>
<text text-anchor="middle" x="515.8335" y="-6.5" font-family="Helvetica,sans-Serif" font-size="10.00" fill="#000000">::get_string</text>
</a>
</g>
</g>
<!-- Node9&#45;&gt;Node10 -->
<g id="edge4" class="edge">
<title>Node9&#45;&gt;Node10</title>
<path fill="none" stroke="#191970" d="M422.1222,-14.5C431.3519,-14.5 441.0764,-14.5 450.6268,-14.5"/>
<polygon fill="#191970" stroke="#191970" points="450.89,-18.0001 460.89,-14.5 450.89,-11.0001 450.89,-18.0001"/>
</g>
</g>
</svg>
