<?xml version="1.0" encoding="UTF-8" standalone="no"?>
<!DOCTYPE svg PUBLIC "-//W3C//DTD SVG 1.1//EN"
 "http://www.w3.org/Graphics/SVG/1.1/DTD/svg11.dtd">
<!-- Generated by graphviz version 2.40.1 (20161225.0304)
 -->
<!-- Title: /Users/oskryp/Projects/freesee&#45;native&#45;client/libs/fcc_sdk/engine/meetingclient/src/headers/MeetingClient Pages: 1 -->
<svg width="225pt" height="230pt"
 viewBox="0.00 0.00 225.33 230.00" xmlns="http://www.w3.org/2000/svg" xmlns:xlink="http://www.w3.org/1999/xlink">
<g id="graph0" class="graph" transform="scale(1 1) rotate(0) translate(4 226)">
<title>/Users/oskryp/Projects/freesee&#45;native&#45;client/libs/fcc_sdk/engine/meetingclient/src/headers/MeetingClient</title>
<g id="clust1" class="cluster">
<title>clusterdir_0261552305db45ab4b0e9dcdc5abd617</title>
<g id="a_clust1"><a xlink:href="dir_0261552305db45ab4b0e9dcdc5abd617.html" target="_top" xlink:title="headers">
<polygon fill="#ddddee" stroke="#000000" points="8,-56 8,-214 190,-214 190,-56 8,-56"/>
<text text-anchor="middle" x="99" y="-202" font-family="Helvetica,sans-Serif" font-size="10.00" fill="#000000">headers</text>
</a>
</g>
</g>
<g id="clust2" class="cluster">
<title>clusterdir_74bbe0da32ccc6ecf6d9706e32125091</title>
<g id="a_clust2"><a xlink:href="dir_74bbe0da32ccc6ecf6d9706e32125091.html" target="_top">
<polygon fill="#eeeeff" stroke="#000000" points="16,-64 16,-188 182,-188 182,-64 16,-64"/>
</a>
</g>
</g>
<!-- dir_74bbe0da32ccc6ecf6d9706e32125091 -->
<g id="node1" class="node">
<title>dir_74bbe0da32ccc6ecf6d9706e32125091</title>
<text text-anchor="middle" x="63" y="-159" font-family="Helvetica,sans-Serif" font-size="10.00" fill="#000000">MeetingClient</text>
</g>
<!-- dir_3ce4730a5819f2ea1367ada137898dc7 -->
<g id="node3" class="node">
<title>dir_3ce4730a5819f2ea1367ada137898dc7</title>
<g id="a_node3"><a xlink:href="dir_3ce4730a5819f2ea1367ada137898dc7.html" target="_top" xlink:title="types">
<polygon fill="#ffffff" stroke="#000000" points="78,-108 24,-108 24,-72 78,-72 78,-108"/>
<text text-anchor="middle" x="51" y="-87" font-family="Helvetica,sans-Serif" font-size="10.00" fill="#000000">types</text>
</a>
</g>
</g>
<!-- dir_74bbe0da32ccc6ecf6d9706e32125091&#45;&gt;dir_3ce4730a5819f2ea1367ada137898dc7 -->
<g id="edge4" class="edge">
<title>dir_74bbe0da32ccc6ecf6d9706e32125091&#45;&gt;dir_3ce4730a5819f2ea1367ada137898dc7</title>
<path fill="none" stroke="#000000" d="M59.9719,-143.8314C58.6885,-136.131 57.1624,-126.9743 55.7361,-118.4166"/>
<polygon fill="#000000" stroke="#000000" points="59.1653,-117.7018 54.0689,-108.4133 52.2606,-118.8526 59.1653,-117.7018"/>
<g id="a_edge4&#45;headlabel"><a xlink:href="dir_000014_000016.html" target="_top" xlink:title="1">
<text text-anchor="middle" x="62.5568" y="-117.7807" font-family="Helvetica,sans-Serif" font-size="10.00" fill="#000000">1</text>
</a>
</g>
</g>
<!-- dir_5f18bcb462ff98f622778b8b28f43718 -->
<g id="node4" class="node">
<title>dir_5f18bcb462ff98f622778b8b28f43718</title>
<g id="a_node4"><a xlink:href="dir_5f18bcb462ff98f622778b8b28f43718.html" target="_top" xlink:title="webservices">
<polygon fill="#ffffff" stroke="#000000" points="167.5195,-108 96.4805,-108 96.4805,-72 167.5195,-72 167.5195,-108"/>
<text text-anchor="middle" x="132" y="-87" font-family="Helvetica,sans-Serif" font-size="10.00" fill="#000000">webservices</text>
</a>
</g>
</g>
<!-- dir_74bbe0da32ccc6ecf6d9706e32125091&#45;&gt;dir_5f18bcb462ff98f622778b8b28f43718 -->
<g id="edge3" class="edge">
<title>dir_74bbe0da32ccc6ecf6d9706e32125091&#45;&gt;dir_5f18bcb462ff98f622778b8b28f43718</title>
<path fill="none" stroke="#000000" d="M80.4116,-143.8314C88.521,-135.3694 98.3156,-125.1489 107.182,-115.8971"/>
<polygon fill="#000000" stroke="#000000" points="109.9618,-118.0549 114.354,-108.4133 104.9079,-113.2115 109.9618,-118.0549"/>
<g id="a_edge3&#45;headlabel"><a xlink:href="dir_000014_000017.html" target="_top" xlink:title="1">
<text text-anchor="middle" x="109.5246" y="-119.6146" font-family="Helvetica,sans-Serif" font-size="10.00" fill="#000000">1</text>
</a>
</g>
</g>
<!-- dir_2d3b0f5cbdcc5834399a3c4e945ce472 -->
<g id="node5" class="node">
<title>dir_2d3b0f5cbdcc5834399a3c4e945ce472</title>
<g id="a_node5"><a xlink:href="dir_2d3b0f5cbdcc5834399a3c4e945ce472.html" target="_top" xlink:title="include">
<polygon fill="none" stroke="#ff0000" points="191,-36 137,-36 137,0 191,0 191,-36"/>
<text text-anchor="middle" x="164" y="-15" font-family="Helvetica,sans-Serif" font-size="10.00" fill="#000000">include</text>
</a>
</g>
</g>
<!-- dir_74bbe0da32ccc6ecf6d9706e32125091&#45;&gt;dir_2d3b0f5cbdcc5834399a3c4e945ce472 -->
<g id="edge5" class="edge">
<title>dir_74bbe0da32ccc6ecf6d9706e32125091&#45;&gt;dir_2d3b0f5cbdcc5834399a3c4e945ce472</title>
<path fill="none" stroke="#000000" d="M101.6452,-146.117C132.9355,-132.8674 172.5352,-115.0552 177,-108 188.79,-89.3694 183.8475,-64.2815 176.9199,-45.3262"/>
<polygon fill="#000000" stroke="#000000" points="180.1661,-44.0174 173.1944,-36.0395 173.6694,-46.6237 180.1661,-44.0174"/>
<g id="a_edge5&#45;headlabel"><a xlink:href="dir_000014_000002.html" target="_top" xlink:title="67">
<text text-anchor="middle" x="184.1395" y="-43.2964" font-family="Helvetica,sans-Serif" font-size="10.00" fill="#000000">67</text>
</a>
</g>
</g>
<!-- dir_b8cc0625669fd08878efda3878e6287b -->
<g id="node2" class="node">
<title>dir_b8cc0625669fd08878efda3878e6287b</title>
<g id="a_node2"><a xlink:href="dir_b8cc0625669fd08878efda3878e6287b.html" target="_top" xlink:title="proxies">
<polygon fill="#ffffff" stroke="#000000" points="174,-180 120,-180 120,-144 174,-144 174,-180"/>
<text text-anchor="middle" x="147" y="-159" font-family="Helvetica,sans-Serif" font-size="10.00" fill="#000000">proxies</text>
</a>
</g>
</g>
<!-- dir_b8cc0625669fd08878efda3878e6287b&#45;&gt;dir_2d3b0f5cbdcc5834399a3c4e945ce472 -->
<g id="edge6" class="edge">
<title>dir_b8cc0625669fd08878efda3878e6287b&#45;&gt;dir_2d3b0f5cbdcc5834399a3c4e945ce472</title>
<path fill="none" stroke="#000000" d="M174.0226,-146.6789C187.5216,-137.4052 202.5359,-124.2286 210,-108 219.6571,-87.0033 219.8476,-76.9081 210,-56 207.3986,-50.4768 203.5569,-45.4827 199.1838,-41.0667"/>
<polygon fill="#000000" stroke="#000000" points="201.2469,-38.2177 191.4478,-34.1894 196.5961,-43.4493 201.2469,-38.2177"/>
<g id="a_edge6&#45;headlabel"><a xlink:href="dir_000015_000002.html" target="_top" xlink:title="13">
<text text-anchor="middle" x="205.8198" y="-35.484" font-family="Helvetica,sans-Serif" font-size="10.00" fill="#000000">13</text>
</a>
</g>
</g>
<!-- dir_3ce4730a5819f2ea1367ada137898dc7&#45;&gt;dir_2d3b0f5cbdcc5834399a3c4e945ce472 -->
<g id="edge2" class="edge">
<title>dir_3ce4730a5819f2ea1367ada137898dc7&#45;&gt;dir_2d3b0f5cbdcc5834399a3c4e945ce472</title>
<path fill="none" stroke="#000000" d="M68.0328,-71.9285C73.7494,-66.4233 80.3655,-60.6137 87,-56 99.5076,-47.3021 114.2999,-39.4929 127.5596,-33.249"/>
<polygon fill="#000000" stroke="#000000" points="129.2466,-36.3263 136.8893,-28.9887 126.3389,-29.9588 129.2466,-36.3263"/>
<g id="a_edge2&#45;headlabel"><a xlink:href="dir_000016_000002.html" target="_top" xlink:title="1">
<text text-anchor="middle" x="127.1561" y="-37.4022" font-family="Helvetica,sans-Serif" font-size="10.00" fill="#000000">1</text>
</a>
</g>
</g>
<!-- dir_5f18bcb462ff98f622778b8b28f43718&#45;&gt;dir_2d3b0f5cbdcc5834399a3c4e945ce472 -->
<g id="edge1" class="edge">
<title>dir_5f18bcb462ff98f622778b8b28f43718&#45;&gt;dir_2d3b0f5cbdcc5834399a3c4e945ce472</title>
<path fill="none" stroke="#000000" d="M140.075,-71.8314C143.6102,-63.8771 147.836,-54.369 151.7456,-45.5723"/>
<polygon fill="#000000" stroke="#000000" points="154.9532,-46.9729 155.8163,-36.4133 148.5565,-44.1299 154.9532,-46.9729"/>
<g id="a_edge1&#45;headlabel"><a xlink:href="dir_000017_000002.html" target="_top" xlink:title="4">
<text text-anchor="middle" x="156.0879" y="-48.4108" font-family="Helvetica,sans-Serif" font-size="10.00" fill="#000000">4</text>
</a>
</g>
</g>
</g>
</svg>
