<?xml version="1.0" encoding="UTF-8" standalone="no"?>
<!DOCTYPE svg PUBLIC "-//W3C//DTD SVG 1.1//EN"
 "http://www.w3.org/Graphics/SVG/1.1/DTD/svg11.dtd">
<!-- Generated by graphviz version 2.40.1 (20161225.0304)
 -->
<!-- Title: Graphical Class Hierarchy Pages: 1 -->
<svg width="375pt" height="64pt"
 viewBox="0.00 0.00 374.76 64.00" xmlns="http://www.w3.org/2000/svg" xmlns:xlink="http://www.w3.org/1999/xlink">
<g id="graph0" class="graph" transform="scale(1 1) rotate(0) translate(4 60)">
<title>Graphical Class Hierarchy</title>
<!-- Node154 -->
<g id="node1" class="node">
<title>Node154</title>
<g id="a_node1"><a xlink:title=" ">
<polygon fill="none" stroke="#bfbfbf" points="0,-18.5 0,-36.5 73.2461,-36.5 73.2461,-18.5 0,-18.5"/>
<text text-anchor="middle" x="36.623" y="-24.5" font-family="Helvetica,sans-Serif" font-size="10.00" fill="#000000">HTTPLoader</text>
</a>
</g>
</g>
<!-- Node0 -->
<g id="node2" class="node">
<title>Node0</title>
<g id="a_node2"><a xlink:href="classcx_1_1_h_t_t_p_request.html" target="_top" xlink:title=" ">
<polygon fill="none" stroke="#000000" points="109.2461,-37.5 109.2461,-55.5 204.1572,-55.5 204.1572,-37.5 109.2461,-37.5"/>
<text text-anchor="middle" x="156.7017" y="-43.5" font-family="Helvetica,sans-Serif" font-size="10.00" fill="#000000">cx::HTTPRequest</text>
</a>
</g>
</g>
<!-- Node154&#45;&gt;Node0 -->
<g id="edge1" class="edge">
<title>Node154&#45;&gt;Node0</title>
<path fill="none" stroke="#191970" d="M83.3922,-34.9003C91.8535,-36.2391 100.685,-37.6365 109.168,-38.9788"/>
<polygon fill="#191970" stroke="#191970" points="83.7272,-31.4098 73.3031,-33.3039 82.6332,-38.3238 83.7272,-31.4098"/>
</g>
<!-- Node157 -->
<g id="node4" class="node">
<title>Node157</title>
<g id="a_node4"><a xlink:href="class_s_c_uploader.html" target="_top" xlink:title=" ">
<polygon fill="none" stroke="#000000" points="121.4653,-.5 121.4653,-18.5 191.938,-18.5 191.938,-.5 121.4653,-.5"/>
<text text-anchor="middle" x="156.7017" y="-6.5" font-family="Helvetica,sans-Serif" font-size="10.00" fill="#000000">SCUploader</text>
</a>
</g>
</g>
<!-- Node154&#45;&gt;Node157 -->
<g id="edge3" class="edge">
<title>Node154&#45;&gt;Node157</title>
<path fill="none" stroke="#191970" d="M83.5487,-20.4658C96.0285,-18.595 109.3031,-16.6051 121.0702,-14.8412"/>
<polygon fill="#191970" stroke="#191970" points="82.6737,-17.0577 73.3031,-22.0016 83.7115,-23.9804 82.6737,-17.0577"/>
</g>
<!-- Node1 -->
<g id="node3" class="node">
<title>Node1</title>
<g id="a_node3"><a xlink:href="classcx_1_1_h_t_t_p_upload_request.html" target="_top" xlink:title=" ">
<polygon fill="none" stroke="#000000" points="240.1572,-37.5 240.1572,-55.5 366.7578,-55.5 366.7578,-37.5 240.1572,-37.5"/>
<text text-anchor="middle" x="303.4575" y="-43.5" font-family="Helvetica,sans-Serif" font-size="10.00" fill="#000000">cx::HTTPUploadRequest</text>
</a>
</g>
</g>
<!-- Node0&#45;&gt;Node1 -->
<g id="edge2" class="edge">
<title>Node0&#45;&gt;Node1</title>
<path fill="none" stroke="#191970" d="M214.4254,-46.5C222.8288,-46.5 231.5195,-46.5 240.0284,-46.5"/>
<polygon fill="#191970" stroke="#191970" points="214.3491,-43.0001 204.3491,-46.5 214.349,-50.0001 214.3491,-43.0001"/>
</g>
</g>
</svg>
