<?xml version="1.0" encoding="UTF-8" standalone="no"?>
<!DOCTYPE svg PUBLIC "-//W3C//DTD SVG 1.1//EN"
 "http://www.w3.org/Graphics/SVG/1.1/DTD/svg11.dtd">
<!-- Generated by graphviz version 2.40.1 (20161225.0304)
 -->
<!-- Title: /Users/oskryp/Projects/freesee&#45;native&#45;client/libs/fcc_sdk/engine/meetingclient/include/MeetingClient/webservices/json_entities.hxx Pages: 1 -->
<svg width="504pt" height="187pt"
 viewBox="0.00 0.00 504.21 187.00" xmlns="http://www.w3.org/2000/svg" xmlns:xlink="http://www.w3.org/1999/xlink">
<g id="graph0" class="graph" transform="scale(1 1) rotate(0) translate(4 183)">
<title>/Users/oskryp/Projects/freesee&#45;native&#45;client/libs/fcc_sdk/engine/meetingclient/include/MeetingClient/webservices/json_entities.hxx</title>
<!-- Node0 -->
<g id="node1" class="node">
<title>Node0</title>
<g id="a_node1"><a xlink:title=" ">
<polygon fill="#bfbfbf" stroke="#000000" points="202.1333,-120.5 202.1333,-178.5 374.3198,-178.5 374.3198,-120.5 202.1333,-120.5"/>
<text text-anchor="start" x="210.1333" y="-166.5" font-family="Helvetica,sans-Serif" font-size="10.00" fill="#000000">/Users/oskryp/Projects</text>
<text text-anchor="start" x="210.1333" y="-156.5" font-family="Helvetica,sans-Serif" font-size="10.00" fill="#000000">/freesee&#45;native&#45;client</text>
<text text-anchor="start" x="210.1333" y="-146.5" font-family="Helvetica,sans-Serif" font-size="10.00" fill="#000000">/libs/fcc_sdk/engine/meetingclient</text>
<text text-anchor="start" x="210.1333" y="-136.5" font-family="Helvetica,sans-Serif" font-size="10.00" fill="#000000">/include/MeetingClient/webservices</text>
<text text-anchor="middle" x="288.2266" y="-126.5" font-family="Helvetica,sans-Serif" font-size="10.00" fill="#000000">/json_entities.hxx</text>
</a>
</g>
</g>
<!-- Node1 -->
<g id="node2" class="node">
<title>Node1</title>
<g id="a_node2"><a xlink:href="_common_data_types_8hxx.html" target="_top" xlink:title=" ">
<polygon fill="none" stroke="#000000" points="46.4805,-55.5 46.4805,-83.5 171.9727,-83.5 171.9727,-55.5 46.4805,-55.5"/>
<text text-anchor="start" x="54.4805" y="-71.5" font-family="Helvetica,sans-Serif" font-size="10.00" fill="#000000">MeetingClient/types</text>
<text text-anchor="middle" x="109.2266" y="-61.5" font-family="Helvetica,sans-Serif" font-size="10.00" fill="#000000">/CommonDataTypes.hxx</text>
</a>
</g>
</g>
<!-- Node0&#45;&gt;Node1 -->
<g id="edge1" class="edge">
<title>Node0&#45;&gt;Node1</title>
<path fill="none" stroke="#191970" d="M223.0971,-120.3919C198.7158,-109.4952 171.7225,-97.4311 150.1388,-87.7848"/>
<polygon fill="#191970" stroke="#191970" points="151.4961,-84.5578 140.9383,-83.6728 148.6398,-90.9486 151.4961,-84.5578"/>
</g>
<!-- Node4 -->
<g id="node5" class="node">
<title>Node4</title>
<g id="a_node5"><a xlink:href="_entities_8hxx.html" target="_top" xlink:title=" ">
<polygon fill="none" stroke="#000000" points="220.7563,-55.5 220.7563,-83.5 355.6968,-83.5 355.6968,-55.5 220.7563,-55.5"/>
<text text-anchor="start" x="228.7563" y="-71.5" font-family="Helvetica,sans-Serif" font-size="10.00" fill="#000000">MeetingClient/webservices</text>
<text text-anchor="middle" x="288.2266" y="-61.5" font-family="Helvetica,sans-Serif" font-size="10.00" fill="#000000">/Entities.hxx</text>
</a>
</g>
</g>
<!-- Node0&#45;&gt;Node4 -->
<g id="edge4" class="edge">
<title>Node0&#45;&gt;Node4</title>
<path fill="none" stroke="#191970" d="M288.2266,-120.1652C288.2266,-111.4834 288.2266,-102.0784 288.2266,-93.7556"/>
<polygon fill="#191970" stroke="#191970" points="291.7267,-93.5895 288.2266,-83.5895 284.7267,-93.5896 291.7267,-93.5895"/>
</g>
<!-- Node8 -->
<g id="node9" class="node">
<title>Node8</title>
<g id="a_node9"><a xlink:title=" ">
<polygon fill="none" stroke="#bfbfbf" points="373.4189,-60.5 373.4189,-78.5 485.0342,-78.5 485.0342,-60.5 373.4189,-60.5"/>
<text text-anchor="middle" x="429.2266" y="-66.5" font-family="Helvetica,sans-Serif" font-size="10.00" fill="#000000">rapidjson/document.h</text>
</a>
</g>
</g>
<!-- Node0&#45;&gt;Node8 -->
<g id="edge8" class="edge">
<title>Node0&#45;&gt;Node8</title>
<path fill="none" stroke="#191970" d="M339.5297,-120.3919C361.4541,-107.9525 386.0598,-93.9918 403.9465,-83.8433"/>
<polygon fill="#191970" stroke="#191970" points="406.1622,-86.6103 413.1326,-78.6313 402.7078,-80.522 406.1622,-86.6103"/>
</g>
<!-- Node2 -->
<g id="node3" class="node">
<title>Node2</title>
<g id="a_node3"><a xlink:title=" ">
<polygon fill="none" stroke="#bfbfbf" points="0,-.5 0,-18.5 40.4531,-18.5 40.4531,-.5 0,-.5"/>
<text text-anchor="middle" x="20.2266" y="-6.5" font-family="Helvetica,sans-Serif" font-size="10.00" fill="#000000">string</text>
</a>
</g>
</g>
<!-- Node1&#45;&gt;Node2 -->
<g id="edge2" class="edge">
<title>Node1&#45;&gt;Node2</title>
<path fill="none" stroke="#191970" d="M88.1348,-55.2808C74.3041,-45.9568 56.256,-33.7895 42.2427,-24.3423"/>
<polygon fill="#191970" stroke="#191970" points="43.9497,-21.272 33.7014,-18.5842 40.0367,-27.0763 43.9497,-21.272"/>
</g>
<!-- Node3 -->
<g id="node4" class="node">
<title>Node3</title>
<g id="a_node4"><a xlink:title=" ">
<polygon fill="none" stroke="#bfbfbf" points="58.4312,-.5 58.4312,-18.5 160.022,-18.5 160.022,-.5 58.4312,-.5"/>
<text text-anchor="middle" x="109.2266" y="-6.5" font-family="Helvetica,sans-Serif" font-size="10.00" fill="#000000">CommonTypes.hxx</text>
</a>
</g>
</g>
<!-- Node1&#45;&gt;Node3 -->
<g id="edge3" class="edge">
<title>Node1&#45;&gt;Node3</title>
<path fill="none" stroke="#191970" d="M109.2266,-55.2808C109.2266,-47.3776 109.2266,-37.4316 109.2266,-28.8308"/>
<polygon fill="#191970" stroke="#191970" points="112.7267,-28.5842 109.2266,-18.5842 105.7267,-28.5842 112.7267,-28.5842"/>
</g>
<!-- Node5 -->
<g id="node6" class="node">
<title>Node5</title>
<g id="a_node6"><a xlink:title=" ">
<polygon fill="none" stroke="#bfbfbf" points="178.3228,-.5 178.3228,-18.5 252.1304,-18.5 252.1304,-.5 178.3228,-.5"/>
<text text-anchor="middle" x="215.2266" y="-6.5" font-family="Helvetica,sans-Serif" font-size="10.00" fill="#000000">Printable.hxx</text>
</a>
</g>
</g>
<!-- Node4&#45;&gt;Node5 -->
<g id="edge5" class="edge">
<title>Node4&#45;&gt;Node5</title>
<path fill="none" stroke="#191970" d="M270.9266,-55.2808C259.9064,-46.2232 245.6219,-34.4825 234.2779,-25.1586"/>
<polygon fill="#191970" stroke="#191970" points="236.2268,-22.23 226.279,-18.5842 231.782,-27.6378 236.2268,-22.23"/>
</g>
<!-- Node6 -->
<g id="node7" class="node">
<title>Node6</title>
<g id="a_node7"><a xlink:title=" ">
<polygon fill="none" stroke="#bfbfbf" points="270.3623,-.5 270.3623,-18.5 368.0908,-18.5 368.0908,-.5 270.3623,-.5"/>
<text text-anchor="middle" x="319.2266" y="-6.5" font-family="Helvetica,sans-Serif" font-size="10.00" fill="#000000">boost/function.hpp</text>
</a>
</g>
</g>
<!-- Node4&#45;&gt;Node6 -->
<g id="edge6" class="edge">
<title>Node4&#45;&gt;Node6</title>
<path fill="none" stroke="#191970" d="M295.5731,-55.2808C299.84,-47.0224 305.2593,-36.5335 309.8337,-27.6796"/>
<polygon fill="#191970" stroke="#191970" points="313.0523,-29.075 314.5331,-18.5842 306.8333,-25.8619 313.0523,-29.075"/>
</g>
<!-- Node7 -->
<g id="node8" class="node">
<title>Node7</title>
<g id="a_node8"><a xlink:title=" ">
<polygon fill="none" stroke="#bfbfbf" points="386.2441,-.5 386.2441,-18.5 496.209,-18.5 496.209,-.5 386.2441,-.5"/>
<text text-anchor="middle" x="441.2266" y="-6.5" font-family="Helvetica,sans-Serif" font-size="10.00" fill="#000000">boost/shared_ptr.hpp</text>
</a>
</g>
</g>
<!-- Node4&#45;&gt;Node7 -->
<g id="edge7" class="edge">
<title>Node4&#45;&gt;Node7</title>
<path fill="none" stroke="#191970" d="M324.0983,-55.4327C349.6738,-45.4031 383.7841,-32.0265 408.5951,-22.2966"/>
<polygon fill="#191970" stroke="#191970" points="409.9104,-25.5404 417.9424,-18.6311 407.3548,-19.0236 409.9104,-25.5404"/>
</g>
</g>
</svg>
