<?xml version="1.0" encoding="UTF-8" standalone="no"?>
<!DOCTYPE svg PUBLIC "-//W3C//DTD SVG 1.1//EN"
 "http://www.w3.org/Graphics/SVG/1.1/DTD/svg11.dtd">
<!-- Generated by graphviz version 2.40.1 (20161225.0304)
 -->
<!-- Title: fs::meeting::attribute::getName Pages: 1 -->
<svg width="277pt" height="84pt"
 viewBox="0.00 0.00 276.65 84.00" xmlns="http://www.w3.org/2000/svg" xmlns:xlink="http://www.w3.org/1999/xlink">
<g id="graph0" class="graph" transform="scale(1 1) rotate(0) translate(4 80)">
<title>fs::meeting::attribute::getName</title>
<!-- Node8 -->
<g id="node1" class="node">
<title>Node8</title>
<g id="a_node1"><a xlink:title=" ">
<polygon fill="#bfbfbf" stroke="#000000" points="162.0537,-23.5 162.0537,-51.5 268.6543,-51.5 268.6543,-23.5 162.0537,-23.5"/>
<text text-anchor="start" x="170.0537" y="-39.5" font-family="Helvetica,sans-Serif" font-size="10.00" fill="#000000">fs::meeting::attribute</text>
<text text-anchor="middle" x="215.354" y="-29.5" font-family="Helvetica,sans-Serif" font-size="10.00" fill="#000000">::getName</text>
</a>
</g>
</g>
<!-- Node9 -->
<g id="node2" class="node">
<title>Node9</title>
<g id="a_node2"><a xlink:href="namespacefs_1_1meeting_1_1attribute.html#a9c8224dadd1a2137eb422339df40d676" target="_top" xlink:title=" ">
<polygon fill="none" stroke="#000000" points="9.7266,-47.5 9.7266,-75.5 116.3271,-75.5 116.3271,-47.5 9.7266,-47.5"/>
<text text-anchor="start" x="17.7266" y="-63.5" font-family="Helvetica,sans-Serif" font-size="10.00" fill="#000000">fs::meeting::attribute</text>
<text text-anchor="middle" x="63.0269" y="-53.5" font-family="Helvetica,sans-Serif" font-size="10.00" fill="#000000">::getValue</text>
</a>
</g>
</g>
<!-- Node8&#45;&gt;Node9 -->
<g id="edge1" class="edge">
<title>Node8&#45;&gt;Node9</title>
<path fill="none" stroke="#191970" d="M151.5347,-47.5551C139.8766,-49.3919 127.8221,-51.2911 116.5033,-53.0745"/>
<polygon fill="#191970" stroke="#191970" points="152.3158,-50.9753 161.6491,-45.9615 151.2262,-44.0606 152.3158,-50.9753"/>
</g>
<!-- Node10 -->
<g id="node3" class="node">
<title>Node10</title>
<g id="a_node3"><a xlink:href="classfs_1_1_meeting_client_session.html#a34a411b0ad6f90ab9b7b2b7d362321aa" target="_top" xlink:title=" ">
<polygon fill="none" stroke="#000000" points="0,-.5 0,-28.5 126.0537,-28.5 126.0537,-.5 0,-.5"/>
<text text-anchor="start" x="8" y="-16.5" font-family="Helvetica,sans-Serif" font-size="10.00" fill="#000000">fs::MeetingClientSession</text>
<text text-anchor="middle" x="63.0269" y="-6.5" font-family="Helvetica,sans-Serif" font-size="10.00" fill="#000000">::setConferenceAttribute</text>
</a>
</g>
</g>
<!-- Node8&#45;&gt;Node10 -->
<g id="edge2" class="edge">
<title>Node8&#45;&gt;Node10</title>
<path fill="none" stroke="#191970" d="M151.5368,-27.8642C143.1395,-26.5963 134.5364,-25.2973 126.1508,-24.0311"/>
<polygon fill="#191970" stroke="#191970" points="151.2387,-31.3588 161.6491,-29.3911 152.2838,-24.4372 151.2387,-31.3588"/>
</g>
</g>
</svg>
