<?xml version="1.0" encoding="UTF-8" standalone="no"?>
<!DOCTYPE svg PUBLIC "-//W3C//DTD SVG 1.1//EN"
 "http://www.w3.org/Graphics/SVG/1.1/DTD/svg11.dtd">
<!-- Generated by graphviz version 2.40.1 (20161225.0304)
 -->
<!-- Title: fs::trim Pages: 1 -->
<svg width="139pt" height="64pt"
 viewBox="0.00 0.00 139.32 64.00" xmlns="http://www.w3.org/2000/svg" xmlns:xlink="http://www.w3.org/1999/xlink">
<g id="graph0" class="graph" transform="scale(1 1) rotate(0) translate(4 60)">
<title>fs::trim</title>
<!-- Node25 -->
<g id="node1" class="node">
<title>Node25</title>
<g id="a_node1"><a xlink:title=" ">
<polygon fill="#bfbfbf" stroke="#000000" points="0,-18.5 0,-36.5 45.9951,-36.5 45.9951,-18.5 0,-18.5"/>
<text text-anchor="middle" x="22.9976" y="-24.5" font-family="Helvetica,sans-Serif" font-size="10.00" fill="#000000">fs::trim</text>
</a>
</g>
</g>
<!-- Node26 -->
<g id="node2" class="node">
<title>Node26</title>
<g id="a_node2"><a xlink:href="namespacefs.html#a5dee950e0b394ea681d608df084bf3de" target="_top" xlink:title=" ">
<polygon fill="none" stroke="#000000" points="81.9951,-37.5 81.9951,-55.5 131.3203,-55.5 131.3203,-37.5 81.9951,-37.5"/>
<text text-anchor="middle" x="106.6577" y="-43.5" font-family="Helvetica,sans-Serif" font-size="10.00" fill="#000000">fs::rtrim</text>
</a>
</g>
</g>
<!-- Node25&#45;&gt;Node26 -->
<g id="edge1" class="edge">
<title>Node25&#45;&gt;Node26</title>
<path fill="none" stroke="#191970" d="M46.3016,-32.7926C54.2247,-34.592 63.259,-36.6437 71.8816,-38.602"/>
<polygon fill="#191970" stroke="#191970" points="71.1965,-42.0355 81.7233,-40.8372 72.7468,-35.2093 71.1965,-42.0355"/>
</g>
<!-- Node27 -->
<g id="node3" class="node">
<title>Node27</title>
<g id="a_node3"><a xlink:href="namespacefs.html#a4f06348a785373f59b915caad5084986" target="_top" xlink:title=" ">
<polygon fill="none" stroke="#000000" points="82.5493,-.5 82.5493,-18.5 130.7661,-18.5 130.7661,-.5 82.5493,-.5"/>
<text text-anchor="middle" x="106.6577" y="-6.5" font-family="Helvetica,sans-Serif" font-size="10.00" fill="#000000">fs::ltrim</text>
</a>
</g>
</g>
<!-- Node25&#45;&gt;Node27 -->
<g id="edge2" class="edge">
<title>Node25&#45;&gt;Node27</title>
<path fill="none" stroke="#191970" d="M46.3016,-22.486C54.3637,-20.7514 63.5763,-18.7692 72.335,-16.8847"/>
<polygon fill="#191970" stroke="#191970" points="73.2722,-20.2633 82.3122,-14.7381 71.7997,-13.4199 73.2722,-20.2633"/>
</g>
</g>
</svg>
