<?xml version="1.0" encoding="UTF-8" standalone="no"?>
<!DOCTYPE svg PUBLIC "-//W3C//DTD SVG 1.1//EN"
 "http://www.w3.org/Graphics/SVG/1.1/DTD/svg11.dtd">
<!-- Generated by graphviz version 2.40.1 (20161225.0304)
 -->
<!-- Title: fs::meeting::attribute::create Pages: 1 -->
<svg width="257pt" height="84pt"
 viewBox="0.00 0.00 257.20 84.00" xmlns="http://www.w3.org/2000/svg" xmlns:xlink="http://www.w3.org/1999/xlink">
<g id="graph0" class="graph" transform="scale(1 1) rotate(0) translate(4 80)">
<title>fs::meeting::attribute::create</title>
<!-- Node0 -->
<g id="node1" class="node">
<title>Node0</title>
<g id="a_node1"><a xlink:title=" ">
<polygon fill="#bfbfbf" stroke="#000000" points="0,-23.5 0,-51.5 106.6006,-51.5 106.6006,-23.5 0,-23.5"/>
<text text-anchor="start" x="8" y="-39.5" font-family="Helvetica,sans-Serif" font-size="10.00" fill="#000000">fs::meeting::attribute</text>
<text text-anchor="middle" x="53.3003" y="-29.5" font-family="Helvetica,sans-Serif" font-size="10.00" fill="#000000">::create</text>
</a>
</g>
</g>
<!-- Node1 -->
<g id="node2" class="node">
<title>Node1</title>
<g id="a_node2"><a xlink:href="namespacefs_1_1meeting_1_1attribute.html#a857427c0e4239c5b7ee9d139b242e52e" target="_top" xlink:title=" ">
<polygon fill="none" stroke="#000000" points="142.6006,-47.5 142.6006,-75.5 249.2012,-75.5 249.2012,-47.5 142.6006,-47.5"/>
<text text-anchor="start" x="150.6006" y="-63.5" font-family="Helvetica,sans-Serif" font-size="10.00" fill="#000000">fs::meeting::attribute</text>
<text text-anchor="middle" x="195.9009" y="-53.5" font-family="Helvetica,sans-Serif" font-size="10.00" fill="#000000">::getId</text>
</a>
</g>
</g>
<!-- Node0&#45;&gt;Node1 -->
<g id="edge1" class="edge">
<title>Node0&#45;&gt;Node1</title>
<path fill="none" stroke="#191970" d="M106.8052,-46.505C115.212,-47.9199 123.9715,-49.3941 132.5742,-50.842"/>
<polygon fill="#191970" stroke="#191970" points="132.1281,-54.3161 142.5704,-52.5244 133.29,-47.4131 132.1281,-54.3161"/>
</g>
<!-- Node2 -->
<g id="node3" class="node">
<title>Node2</title>
<g id="a_node3"><a xlink:href="namespacefs_1_1meeting_1_1attribute.html#a65366ef93118da5bb4bf7abae7dce25d" target="_top" xlink:title=" ">
<polygon fill="none" stroke="#000000" points="142.6006,-.5 142.6006,-28.5 249.2012,-28.5 249.2012,-.5 142.6006,-.5"/>
<text text-anchor="start" x="150.6006" y="-16.5" font-family="Helvetica,sans-Serif" font-size="10.00" fill="#000000">fs::meeting::attribute</text>
<text text-anchor="middle" x="195.9009" y="-6.5" font-family="Helvetica,sans-Serif" font-size="10.00" fill="#000000">::getValue</text>
</a>
</g>
</g>
<!-- Node0&#45;&gt;Node2 -->
<g id="edge2" class="edge">
<title>Node0&#45;&gt;Node2</title>
<path fill="none" stroke="#191970" d="M106.8052,-28.8702C115.212,-27.5143 123.9715,-26.1015 132.5742,-24.7139"/>
<polygon fill="#191970" stroke="#191970" points="133.2553,-28.1494 142.5704,-23.1017 132.1406,-21.2387 133.2553,-28.1494"/>
</g>
</g>
</svg>
