<?xml version="1.0" encoding="UTF-8" standalone="no"?>
<!DOCTYPE svg PUBLIC "-//W3C//DTD SVG 1.1//EN"
 "http://www.w3.org/Graphics/SVG/1.1/DTD/svg11.dtd">
<!-- Generated by graphviz version 2.40.1 (20161225.0304)
 -->
<!-- Title: cx::web::AccessTokenUpgradeParameters Pages: 1 -->
<svg width="161pt" height="325pt"
 viewBox="0.00 0.00 160.73 325.00" xmlns="http://www.w3.org/2000/svg" xmlns:xlink="http://www.w3.org/1999/xlink">
<g id="graph0" class="graph" transform="scale(1 1) rotate(0) translate(4 321)">
<title>cx::web::AccessTokenUpgradeParameters</title>
<!-- Node0 -->
<g id="node1" class="node">
<title>Node0</title>
<g id="a_node1"><a xlink:title=" ">
<polygon fill="#bfbfbf" stroke="#000000" points="0,-.5 0,-64.5 152.7334,-64.5 152.7334,-.5 0,-.5"/>
<text text-anchor="start" x="8" y="-52.5" font-family="Helvetica,sans-Serif" font-size="10.00" fill="#000000">cx::web::AccessTokenUpgrade</text>
<text text-anchor="middle" x="76.3667" y="-42.5" font-family="Helvetica,sans-Serif" font-size="10.00" fill="#000000">Parameters</text>
<polyline fill="none" stroke="#000000" points="0,-36.5 152.7334,-36.5 "/>
<text text-anchor="middle" x="76.3667" y="-24.5" font-family="Helvetica,sans-Serif" font-size="10.00" fill="#000000"> </text>
<polyline fill="none" stroke="#000000" points="0,-18.5 152.7334,-18.5 "/>
<text text-anchor="middle" x="76.3667" y="-6.5" font-family="Helvetica,sans-Serif" font-size="10.00" fill="#000000"> </text>
</a>
</g>
</g>
<!-- Node1 -->
<g id="node2" class="node">
<title>Node1</title>
<g id="a_node2"><a xlink:href="structcx_1_1web_1_1_access_token_cache.html" target="_top" xlink:title=" ">
<polygon fill="none" stroke="#000000" points="4.7266,-101.5 4.7266,-195.5 148.0068,-195.5 148.0068,-101.5 4.7266,-101.5"/>
<text text-anchor="middle" x="76.3667" y="-183.5" font-family="Helvetica,sans-Serif" font-size="10.00" fill="#000000">cx::web::AccessTokenCache</text>
<polyline fill="none" stroke="#000000" points="4.7266,-177.5 148.0068,-177.5 "/>
<text text-anchor="start" x="12.7266" y="-165.5" font-family="Helvetica,sans-Serif" font-size="10.00" fill="#000000">+ access_token</text>
<text text-anchor="start" x="12.7266" y="-155.5" font-family="Helvetica,sans-Serif" font-size="10.00" fill="#000000">+ refresh_token</text>
<polyline fill="none" stroke="#000000" points="4.7266,-149.5 148.0068,-149.5 "/>
<text text-anchor="start" x="12.7266" y="-137.5" font-family="Helvetica,sans-Serif" font-size="10.00" fill="#000000">+ AccessTokenCache()</text>
<text text-anchor="start" x="12.7266" y="-127.5" font-family="Helvetica,sans-Serif" font-size="10.00" fill="#000000">+ AccessTokenCache()</text>
<text text-anchor="start" x="12.7266" y="-117.5" font-family="Helvetica,sans-Serif" font-size="10.00" fill="#000000">+ serialize()</text>
<text text-anchor="start" x="12.7266" y="-107.5" font-family="Helvetica,sans-Serif" font-size="10.00" fill="#000000">+ deserialize()</text>
</a>
</g>
</g>
<!-- Node1&#45;&gt;Node0 -->
<g id="edge1" class="edge">
<title>Node1&#45;&gt;Node0</title>
<path fill="none" stroke="#191970" d="M76.3667,-91.1299C76.3667,-82.0561 76.3667,-72.9618 76.3667,-64.7354"/>
<polygon fill="none" stroke="#191970" points="72.8668,-91.3183 76.3667,-101.3184 79.8668,-91.3184 72.8668,-91.3183"/>
</g>
<!-- Node2 -->
<g id="node3" class="node">
<title>Node2</title>
<g id="a_node3"><a xlink:href="structcx_1_1web_1_1_cached_parameters.html" target="_top" xlink:title=" ">
<polygon fill="none" stroke="#000000" points="5.5615,-232.5 5.5615,-316.5 147.1719,-316.5 147.1719,-232.5 5.5615,-232.5"/>
<text text-anchor="middle" x="76.3667" y="-304.5" font-family="Helvetica,sans-Serif" font-size="10.00" fill="#000000">cx::web::CachedParameters</text>
<polyline fill="none" stroke="#000000" points="5.5615,-298.5 147.1719,-298.5 "/>
<text text-anchor="middle" x="76.3667" y="-286.5" font-family="Helvetica,sans-Serif" font-size="10.00" fill="#000000"> </text>
<polyline fill="none" stroke="#000000" points="5.5615,-280.5 147.1719,-280.5 "/>
<text text-anchor="start" x="13.5615" y="-268.5" font-family="Helvetica,sans-Serif" font-size="10.00" fill="#000000">+ serialize()</text>
<text text-anchor="start" x="13.5615" y="-258.5" font-family="Helvetica,sans-Serif" font-size="10.00" fill="#000000">+ deserialize()</text>
<text text-anchor="start" x="13.5615" y="-248.5" font-family="Helvetica,sans-Serif" font-size="10.00" fill="#000000">+ operator&gt;&gt;()</text>
<text text-anchor="start" x="13.5615" y="-238.5" font-family="Helvetica,sans-Serif" font-size="10.00" fill="#000000">+ operator&lt;&lt;()</text>
</a>
</g>
</g>
<!-- Node2&#45;&gt;Node1 -->
<g id="edge2" class="edge">
<title>Node2&#45;&gt;Node1</title>
<path fill="none" stroke="#191970" d="M76.3667,-222.0873C76.3667,-213.3328 76.3667,-204.2974 76.3667,-195.6838"/>
<polygon fill="none" stroke="#191970" points="72.8668,-222.1933 76.3667,-232.1933 79.8668,-222.1933 72.8668,-222.1933"/>
</g>
</g>
</svg>
