<?xml version="1.0" encoding="UTF-8" standalone="no"?>
<!DOCTYPE svg PUBLIC "-//W3C//DTD SVG 1.1//EN"
 "http://www.w3.org/Graphics/SVG/1.1/DTD/svg11.dtd">
<!-- Generated by graphviz version 2.40.1 (20161225.0304)
 -->
<!-- Title: AudioKey::is_defined Pages: 1 -->
<svg width="425pt" height="37pt"
 viewBox="0.00 0.00 424.96 37.00" xmlns="http://www.w3.org/2000/svg" xmlns:xlink="http://www.w3.org/1999/xlink">
<g id="graph0" class="graph" transform="scale(1 1) rotate(0) translate(4 33)">
<title>AudioKey::is_defined</title>
<!-- Node0 -->
<g id="node1" class="node">
<title>Node0</title>
<g id="a_node1"><a xlink:title=" ">
<polygon fill="#bfbfbf" stroke="#000000" points="0,-5.5 0,-23.5 109.9551,-23.5 109.9551,-5.5 0,-5.5"/>
<text text-anchor="middle" x="54.9775" y="-11.5" font-family="Helvetica,sans-Serif" font-size="10.00" fill="#000000">AudioKey::is_defined</text>
</a>
</g>
</g>
<!-- Node1 -->
<g id="node2" class="node">
<title>Node1</title>
<g id="a_node2"><a xlink:href="struct_audio_key.html#a8a5bf2625d47d0a492a35846120286c5" target="_top" xlink:title=" ">
<polygon fill="none" stroke="#000000" points="145.9551,-5.5 145.9551,-23.5 250.334,-23.5 250.334,-5.5 145.9551,-5.5"/>
<text text-anchor="middle" x="198.1445" y="-11.5" font-family="Helvetica,sans-Serif" font-size="10.00" fill="#000000">AudioKey::is_empty</text>
</a>
</g>
</g>
<!-- Node0&#45;&gt;Node1 -->
<g id="edge1" class="edge">
<title>Node0&#45;&gt;Node1</title>
<path fill="none" stroke="#191970" d="M110.3296,-14.5C118.6089,-14.5 127.1939,-14.5 135.6094,-14.5"/>
<polygon fill="#191970" stroke="#191970" points="135.7584,-18.0001 145.7583,-14.5 135.7583,-11.0001 135.7584,-18.0001"/>
</g>
<!-- Node2 -->
<g id="node3" class="node">
<title>Node2</title>
<g id="a_node3"><a xlink:href="struct_strong_identity.html#afdcfef7352c19b74dba7af14ca6bde22" target="_top" xlink:title=" ">
<polygon fill="none" stroke="#000000" points="286.334,-.5 286.334,-28.5 416.958,-28.5 416.958,-.5 286.334,-.5"/>
<text text-anchor="start" x="294.334" y="-16.5" font-family="Helvetica,sans-Serif" font-size="10.00" fill="#000000">StrongIdentity&lt; AudioKey,</text>
<text text-anchor="middle" x="351.646" y="-6.5" font-family="Helvetica,sans-Serif" font-size="10.00" fill="#000000"> int &gt;::get_value</text>
</a>
</g>
</g>
<!-- Node1&#45;&gt;Node2 -->
<g id="edge2" class="edge">
<title>Node1&#45;&gt;Node2</title>
<path fill="none" stroke="#191970" d="M250.5417,-14.5C258.7818,-14.5 267.4397,-14.5 276.0776,-14.5"/>
<polygon fill="#191970" stroke="#191970" points="276.1824,-18.0001 286.1823,-14.5 276.1823,-11.0001 276.1824,-18.0001"/>
</g>
</g>
</svg>
