<?xml version="1.0" encoding="UTF-8" standalone="no"?>
<!DOCTYPE svg PUBLIC "-//W3C//DTD SVG 1.1//EN"
 "http://www.w3.org/Graphics/SVG/1.1/DTD/svg11.dtd">
<!-- Generated by graphviz version 2.40.1 (20161225.0304)
 -->
<!-- Title: AudioKey Pages: 1 -->
<svg width="157pt" height="476pt"
 viewBox="0.00 0.00 156.60 476.00" xmlns="http://www.w3.org/2000/svg" xmlns:xlink="http://www.w3.org/1999/xlink">
<g id="graph0" class="graph" transform="scale(1 1) rotate(0) translate(4 472)">
<title>AudioKey</title>
<!-- Node4 -->
<g id="node1" class="node">
<title>Node4</title>
<g id="a_node1"><a xlink:title=" ">
<polygon fill="#bfbfbf" stroke="#000000" points="35.8667,-.5 35.8667,-64.5 112.7358,-64.5 112.7358,-.5 35.8667,-.5"/>
<text text-anchor="middle" x="74.3013" y="-52.5" font-family="Helvetica,sans-Serif" font-size="10.00" fill="#000000">AudioKey</text>
<polyline fill="none" stroke="#000000" points="35.8667,-46.5 112.7358,-46.5 "/>
<text text-anchor="middle" x="74.3013" y="-34.5" font-family="Helvetica,sans-Serif" font-size="10.00" fill="#000000"> </text>
<polyline fill="none" stroke="#000000" points="35.8667,-28.5 112.7358,-28.5 "/>
<text text-anchor="start" x="43.8667" y="-16.5" font-family="Helvetica,sans-Serif" font-size="10.00" fill="#000000">+ is_empty()</text>
<text text-anchor="start" x="43.8667" y="-6.5" font-family="Helvetica,sans-Serif" font-size="10.00" fill="#000000">+ is_defined()</text>
</a>
</g>
</g>
<!-- Node5 -->
<g id="node2" class="node">
<title>Node5</title>
<g id="a_node2"><a xlink:href="struct_strong_identity.html" target="_top" xlink:title=" ">
<polygon fill="none" stroke="#000000" points="8.9893,-101.5 8.9893,-195.5 139.6133,-195.5 139.6133,-101.5 8.9893,-101.5"/>
<text text-anchor="start" x="16.9893" y="-183.5" font-family="Helvetica,sans-Serif" font-size="10.00" fill="#000000">StrongIdentity&lt; AudioKey,</text>
<text text-anchor="middle" x="74.3013" y="-173.5" font-family="Helvetica,sans-Serif" font-size="10.00" fill="#000000"> int &gt;</text>
<polyline fill="none" stroke="#000000" points="8.9893,-167.5 139.6133,-167.5 "/>
<text text-anchor="middle" x="74.3013" y="-155.5" font-family="Helvetica,sans-Serif" font-size="10.00" fill="#000000"> </text>
<polyline fill="none" stroke="#000000" points="8.9893,-149.5 139.6133,-149.5 "/>
<text text-anchor="start" x="16.9893" y="-137.5" font-family="Helvetica,sans-Serif" font-size="10.00" fill="#000000">+ get_value()</text>
<text text-anchor="start" x="16.9893" y="-127.5" font-family="Helvetica,sans-Serif" font-size="10.00" fill="#000000">+ get_value()</text>
<text text-anchor="start" x="16.9893" y="-117.5" font-family="Helvetica,sans-Serif" font-size="10.00" fill="#000000">+ is_empty()</text>
<text text-anchor="start" x="16.9893" y="-107.5" font-family="Helvetica,sans-Serif" font-size="10.00" fill="#000000">+ is_defined()</text>
</a>
</g>
</g>
<!-- Node5&#45;&gt;Node4 -->
<g id="edge1" class="edge">
<title>Node5&#45;&gt;Node4</title>
<path fill="none" stroke="#191970" d="M74.3013,-91.1299C74.3013,-82.0561 74.3013,-72.9618 74.3013,-64.7354"/>
<polygon fill="none" stroke="#191970" points="70.8014,-91.3183 74.3013,-101.3184 77.8014,-91.3184 70.8014,-91.3183"/>
</g>
<!-- Node6 -->
<g id="node3" class="node">
<title>Node6</title>
<g id="a_node3"><a xlink:href="structdetails_1_1strong__typedef.html" target="_top" xlink:title=" ">
<polygon fill="none" stroke="#000000" points="15.3052,-232.5 15.3052,-356.5 133.2974,-356.5 133.2974,-232.5 15.3052,-232.5"/>
<text text-anchor="start" x="23.3052" y="-344.5" font-family="Helvetica,sans-Serif" font-size="10.00" fill="#000000">details::strong_typedef</text>
<text text-anchor="middle" x="74.3013" y="-334.5" font-family="Helvetica,sans-Serif" font-size="10.00" fill="#000000">&lt; AudioKey, int &gt;</text>
<polyline fill="none" stroke="#000000" points="15.3052,-328.5 133.2974,-328.5 "/>
<text text-anchor="start" x="23.3052" y="-316.5" font-family="Helvetica,sans-Serif" font-size="10.00" fill="#000000">+ t</text>
<polyline fill="none" stroke="#000000" points="15.3052,-310.5 133.2974,-310.5 "/>
<text text-anchor="start" x="23.3052" y="-298.5" font-family="Helvetica,sans-Serif" font-size="10.00" fill="#000000">+ strong_typedef()</text>
<text text-anchor="start" x="23.3052" y="-288.5" font-family="Helvetica,sans-Serif" font-size="10.00" fill="#000000">+ strong_typedef()</text>
<text text-anchor="start" x="23.3052" y="-278.5" font-family="Helvetica,sans-Serif" font-size="10.00" fill="#000000">+ strong_typedef()</text>
<text text-anchor="start" x="23.3052" y="-268.5" font-family="Helvetica,sans-Serif" font-size="10.00" fill="#000000">+ operator const int &amp;()</text>
<text text-anchor="start" x="23.3052" y="-258.5" font-family="Helvetica,sans-Serif" font-size="10.00" fill="#000000">+ operator int &amp;()</text>
<text text-anchor="start" x="23.3052" y="-248.5" font-family="Helvetica,sans-Serif" font-size="10.00" fill="#000000">+ operator==()</text>
<text text-anchor="start" x="23.3052" y="-238.5" font-family="Helvetica,sans-Serif" font-size="10.00" fill="#000000">+ operator&lt;()</text>
</a>
</g>
</g>
<!-- Node6&#45;&gt;Node5 -->
<g id="edge2" class="edge">
<title>Node6&#45;&gt;Node5</title>
<path fill="none" stroke="#191970" d="M74.3013,-222.0513C74.3013,-213.0686 74.3013,-204.0747 74.3013,-195.6138"/>
<polygon fill="none" stroke="#191970" points="70.8014,-222.1593 74.3013,-232.1594 77.8014,-222.1594 70.8014,-222.1593"/>
</g>
<!-- Node7 -->
<g id="node4" class="node">
<title>Node7</title>
<g id="a_node4"><a xlink:title=" ">
<polygon fill="none" stroke="#bfbfbf" points="0,-393.5 0,-467.5 148.6025,-467.5 148.6025,-393.5 0,-393.5"/>
<text text-anchor="start" x="8" y="-455.5" font-family="Helvetica,sans-Serif" font-size="10.00" fill="#000000">boost::totally_ordered1</text>
<text text-anchor="start" x="8" y="-445.5" font-family="Helvetica,sans-Serif" font-size="10.00" fill="#000000">&lt; AudioKey , boost::totally</text>
<text text-anchor="middle" x="74.3013" y="-435.5" font-family="Helvetica,sans-Serif" font-size="10.00" fill="#000000">_ordered2&lt; AudioKey , int &gt; &gt;</text>
<polyline fill="none" stroke="#bfbfbf" points="0,-429.5 148.6025,-429.5 "/>
<text text-anchor="middle" x="74.3013" y="-417.5" font-family="Helvetica,sans-Serif" font-size="10.00" fill="#000000"> </text>
<polyline fill="none" stroke="#bfbfbf" points="0,-411.5 148.6025,-411.5 "/>
<text text-anchor="middle" x="74.3013" y="-399.5" font-family="Helvetica,sans-Serif" font-size="10.00" fill="#000000"> </text>
</a>
</g>
</g>
<!-- Node7&#45;&gt;Node6 -->
<g id="edge3" class="edge">
<title>Node7&#45;&gt;Node6</title>
<path fill="none" stroke="#191970" d="M74.3013,-383.1948C74.3013,-374.6499 74.3013,-365.623 74.3013,-356.7288"/>
<polygon fill="none" stroke="#191970" points="70.8014,-383.3374 74.3013,-393.3374 77.8014,-383.3374 70.8014,-383.3374"/>
</g>
</g>
</svg>
