<?xml version="1.0" encoding="UTF-8" standalone="no"?>
<!DOCTYPE svg PUBLIC "-//W3C//DTD SVG 1.1//EN"
 "http://www.w3.org/Graphics/SVG/1.1/DTD/svg11.dtd">
<!-- Generated by graphviz version 2.40.1 (20161225.0304)
 -->
<!-- Title: cx::web::InvitationParameters Pages: 1 -->
<svg width="155pt" height="325pt"
 viewBox="0.00 0.00 155.17 325.00" xmlns="http://www.w3.org/2000/svg" xmlns:xlink="http://www.w3.org/1999/xlink">
<g id="graph0" class="graph" transform="scale(1 1) rotate(0) translate(4 321)">
<title>cx::web::InvitationParameters</title>
<!-- Node0 -->
<g id="node1" class="node">
<title>Node0</title>
<g id="a_node1"><a xlink:title=" ">
<polygon fill="#bfbfbf" stroke="#000000" points="0,-.5 0,-64.5 147.167,-64.5 147.167,-.5 0,-.5"/>
<text text-anchor="middle" x="73.5835" y="-52.5" font-family="Helvetica,sans-Serif" font-size="10.00" fill="#000000">cx::web::InvitationParameters</text>
<polyline fill="none" stroke="#000000" points="0,-46.5 147.167,-46.5 "/>
<text text-anchor="start" x="8" y="-34.5" font-family="Helvetica,sans-Serif" font-size="10.00" fill="#000000">+ subscription_id</text>
<text text-anchor="start" x="8" y="-24.5" font-family="Helvetica,sans-Serif" font-size="10.00" fill="#000000">+ locale</text>
<polyline fill="none" stroke="#000000" points="0,-18.5 147.167,-18.5 "/>
<text text-anchor="middle" x="73.5835" y="-6.5" font-family="Helvetica,sans-Serif" font-size="10.00" fill="#000000"> </text>
</a>
</g>
</g>
<!-- Node1 -->
<g id="node2" class="node">
<title>Node1</title>
<g id="a_node2"><a xlink:href="structcx_1_1web_1_1_access_token_cache.html" target="_top" xlink:title=" ">
<polygon fill="none" stroke="#000000" points="1.9434,-101.5 1.9434,-195.5 145.2236,-195.5 145.2236,-101.5 1.9434,-101.5"/>
<text text-anchor="middle" x="73.5835" y="-183.5" font-family="Helvetica,sans-Serif" font-size="10.00" fill="#000000">cx::web::AccessTokenCache</text>
<polyline fill="none" stroke="#000000" points="1.9434,-177.5 145.2236,-177.5 "/>
<text text-anchor="start" x="9.9434" y="-165.5" font-family="Helvetica,sans-Serif" font-size="10.00" fill="#000000">+ access_token</text>
<text text-anchor="start" x="9.9434" y="-155.5" font-family="Helvetica,sans-Serif" font-size="10.00" fill="#000000">+ refresh_token</text>
<polyline fill="none" stroke="#000000" points="1.9434,-149.5 145.2236,-149.5 "/>
<text text-anchor="start" x="9.9434" y="-137.5" font-family="Helvetica,sans-Serif" font-size="10.00" fill="#000000">+ AccessTokenCache()</text>
<text text-anchor="start" x="9.9434" y="-127.5" font-family="Helvetica,sans-Serif" font-size="10.00" fill="#000000">+ AccessTokenCache()</text>
<text text-anchor="start" x="9.9434" y="-117.5" font-family="Helvetica,sans-Serif" font-size="10.00" fill="#000000">+ serialize()</text>
<text text-anchor="start" x="9.9434" y="-107.5" font-family="Helvetica,sans-Serif" font-size="10.00" fill="#000000">+ deserialize()</text>
</a>
</g>
</g>
<!-- Node1&#45;&gt;Node0 -->
<g id="edge1" class="edge">
<title>Node1&#45;&gt;Node0</title>
<path fill="none" stroke="#191970" d="M73.5835,-91.1299C73.5835,-82.0561 73.5835,-72.9618 73.5835,-64.7354"/>
<polygon fill="none" stroke="#191970" points="70.0836,-91.3183 73.5835,-101.3184 77.0836,-91.3184 70.0836,-91.3183"/>
</g>
<!-- Node2 -->
<g id="node3" class="node">
<title>Node2</title>
<g id="a_node3"><a xlink:href="structcx_1_1web_1_1_cached_parameters.html" target="_top" xlink:title=" ">
<polygon fill="none" stroke="#000000" points="2.7783,-232.5 2.7783,-316.5 144.3887,-316.5 144.3887,-232.5 2.7783,-232.5"/>
<text text-anchor="middle" x="73.5835" y="-304.5" font-family="Helvetica,sans-Serif" font-size="10.00" fill="#000000">cx::web::CachedParameters</text>
<polyline fill="none" stroke="#000000" points="2.7783,-298.5 144.3887,-298.5 "/>
<text text-anchor="middle" x="73.5835" y="-286.5" font-family="Helvetica,sans-Serif" font-size="10.00" fill="#000000"> </text>
<polyline fill="none" stroke="#000000" points="2.7783,-280.5 144.3887,-280.5 "/>
<text text-anchor="start" x="10.7783" y="-268.5" font-family="Helvetica,sans-Serif" font-size="10.00" fill="#000000">+ serialize()</text>
<text text-anchor="start" x="10.7783" y="-258.5" font-family="Helvetica,sans-Serif" font-size="10.00" fill="#000000">+ deserialize()</text>
<text text-anchor="start" x="10.7783" y="-248.5" font-family="Helvetica,sans-Serif" font-size="10.00" fill="#000000">+ operator&gt;&gt;()</text>
<text text-anchor="start" x="10.7783" y="-238.5" font-family="Helvetica,sans-Serif" font-size="10.00" fill="#000000">+ operator&lt;&lt;()</text>
</a>
</g>
</g>
<!-- Node2&#45;&gt;Node1 -->
<g id="edge2" class="edge">
<title>Node2&#45;&gt;Node1</title>
<path fill="none" stroke="#191970" d="M73.5835,-222.0873C73.5835,-213.3328 73.5835,-204.2974 73.5835,-195.6838"/>
<polygon fill="none" stroke="#191970" points="70.0836,-222.1933 73.5835,-232.1933 77.0836,-222.1933 70.0836,-222.1933"/>
</g>
</g>
</svg>
