<?xml version="1.0" encoding="UTF-8" standalone="no"?>
<!DOCTYPE svg PUBLIC "-//W3C//DTD SVG 1.1//EN"
 "http://www.w3.org/Graphics/SVG/1.1/DTD/svg11.dtd">
<!-- Generated by graphviz version 2.40.1 (20161225.0304)
 -->
<!-- Title: cx::web::AccessTokenCache Pages: 1 -->
<svg width="244pt" height="336pt"
 viewBox="0.00 0.00 243.85 336.00" xmlns="http://www.w3.org/2000/svg" xmlns:xlink="http://www.w3.org/1999/xlink">
<g id="graph0" class="graph" transform="scale(1 1) rotate(0) translate(4 332)">
<title>cx::web::AccessTokenCache</title>
<!-- Node17 -->
<g id="node1" class="node">
<title>Node17</title>
<g id="a_node1"><a xlink:title=" ">
<polygon fill="#bfbfbf" stroke="#000000" points="36.165,-.5 36.165,-84.5 179.4453,-84.5 179.4453,-.5 36.165,-.5"/>
<text text-anchor="middle" x="107.8052" y="-72.5" font-family="Helvetica,sans-Serif" font-size="10.00" fill="#000000">cx::web::AccessTokenCache</text>
<polyline fill="none" stroke="#000000" points="36.165,-66.5 179.4453,-66.5 "/>
<text text-anchor="middle" x="107.8052" y="-54.5" font-family="Helvetica,sans-Serif" font-size="10.00" fill="#000000"> </text>
<polyline fill="none" stroke="#000000" points="36.165,-48.5 179.4453,-48.5 "/>
<text text-anchor="start" x="44.165" y="-36.5" font-family="Helvetica,sans-Serif" font-size="10.00" fill="#000000">+ AccessTokenCache()</text>
<text text-anchor="start" x="44.165" y="-26.5" font-family="Helvetica,sans-Serif" font-size="10.00" fill="#000000">+ AccessTokenCache()</text>
<text text-anchor="start" x="44.165" y="-16.5" font-family="Helvetica,sans-Serif" font-size="10.00" fill="#000000">+ serialize()</text>
<text text-anchor="start" x="44.165" y="-6.5" font-family="Helvetica,sans-Serif" font-size="10.00" fill="#000000">+ deserialize()</text>
</a>
</g>
</g>
<!-- Node18 -->
<g id="node2" class="node">
<title>Node18</title>
<g id="a_node2"><a xlink:href="structcx_1_1web_1_1_cached_parameters.html" target="_top" xlink:title=" ">
<polygon fill="none" stroke="#000000" points="0,-141.5 0,-225.5 141.6104,-225.5 141.6104,-141.5 0,-141.5"/>
<text text-anchor="middle" x="70.8052" y="-213.5" font-family="Helvetica,sans-Serif" font-size="10.00" fill="#000000">cx::web::CachedParameters</text>
<polyline fill="none" stroke="#000000" points="0,-207.5 141.6104,-207.5 "/>
<text text-anchor="middle" x="70.8052" y="-195.5" font-family="Helvetica,sans-Serif" font-size="10.00" fill="#000000"> </text>
<polyline fill="none" stroke="#000000" points="0,-189.5 141.6104,-189.5 "/>
<text text-anchor="start" x="8" y="-177.5" font-family="Helvetica,sans-Serif" font-size="10.00" fill="#000000">+ serialize()</text>
<text text-anchor="start" x="8" y="-167.5" font-family="Helvetica,sans-Serif" font-size="10.00" fill="#000000">+ deserialize()</text>
<text text-anchor="start" x="8" y="-157.5" font-family="Helvetica,sans-Serif" font-size="10.00" fill="#000000">+ operator&gt;&gt;()</text>
<text text-anchor="start" x="8" y="-147.5" font-family="Helvetica,sans-Serif" font-size="10.00" fill="#000000">+ operator&lt;&lt;()</text>
</a>
</g>
</g>
<!-- Node18&#45;&gt;Node17 -->
<g id="edge1" class="edge">
<title>Node18&#45;&gt;Node17</title>
<path fill="none" stroke="#191970" d="M84.4954,-131.3292C88.52,-115.9922 92.871,-99.4114 96.7118,-84.7748"/>
<polygon fill="none" stroke="#191970" points="81.0593,-130.6344 81.9064,-141.1954 87.83,-132.4112 81.0593,-130.6344"/>
</g>
<!-- Node19 -->
<g id="node3" class="node">
<title>Node19</title>
<g id="a_node3"><a xlink:title="STL class.">
<polygon fill="none" stroke="#bfbfbf" points="159.1304,-156.5 159.1304,-210.5 218.48,-210.5 218.48,-156.5 159.1304,-156.5"/>
<text text-anchor="middle" x="188.8052" y="-198.5" font-family="Helvetica,sans-Serif" font-size="10.00" fill="#000000">std::string</text>
<polyline fill="none" stroke="#bfbfbf" points="159.1304,-192.5 218.48,-192.5 "/>
<text text-anchor="middle" x="188.8052" y="-180.5" font-family="Helvetica,sans-Serif" font-size="10.00" fill="#000000"> </text>
<polyline fill="none" stroke="#bfbfbf" points="159.1304,-174.5 218.48,-174.5 "/>
<text text-anchor="middle" x="188.8052" y="-162.5" font-family="Helvetica,sans-Serif" font-size="10.00" fill="#000000"> </text>
</a>
</g>
</g>
<!-- Node19&#45;&gt;Node17 -->
<g id="edge2" class="edge">
<title>Node19&#45;&gt;Node17</title>
<path fill="none" stroke="#404040" d="M173.1876,-156.3138C163.244,-139.0046 150.0331,-116.0079 138.0902,-95.2184"/>
<polygon fill="none" stroke="#404040" points="137.962,-94.9951 131.5048,-91.785 131.9844,-84.5898 138.4416,-87.7999 137.962,-94.9951"/>
<text text-anchor="middle" x="187.688" y="-115" font-family="Helvetica,sans-Serif" font-size="10.00" fill="#000000"> +access_token</text>
<text text-anchor="middle" x="187.688" y="-105" font-family="Helvetica,sans-Serif" font-size="10.00" fill="#000000">+refresh_token</text>
</g>
<!-- Node20 -->
<g id="node4" class="node">
<title>Node20</title>
<g id="a_node4"><a xlink:title="STL class.">
<polygon fill="none" stroke="#bfbfbf" points="141.7573,-263.5 141.7573,-327.5 235.853,-327.5 235.853,-263.5 141.7573,-263.5"/>
<text text-anchor="start" x="149.7573" y="-315.5" font-family="Helvetica,sans-Serif" font-size="10.00" fill="#000000">std::basic_string&lt;</text>
<text text-anchor="middle" x="188.8052" y="-305.5" font-family="Helvetica,sans-Serif" font-size="10.00" fill="#000000"> char &gt;</text>
<polyline fill="none" stroke="#bfbfbf" points="141.7573,-299.5 235.853,-299.5 "/>
<text text-anchor="middle" x="188.8052" y="-287.5" font-family="Helvetica,sans-Serif" font-size="10.00" fill="#000000"> </text>
<polyline fill="none" stroke="#bfbfbf" points="141.7573,-281.5 235.853,-281.5 "/>
<text text-anchor="middle" x="188.8052" y="-269.5" font-family="Helvetica,sans-Serif" font-size="10.00" fill="#000000"> </text>
</a>
</g>
</g>
<!-- Node20&#45;&gt;Node19 -->
<g id="edge3" class="edge">
<title>Node20&#45;&gt;Node19</title>
<path fill="none" stroke="#191970" d="M188.8052,-253.2927C188.8052,-239.0159 188.8052,-223.4638 188.8052,-210.6713"/>
<polygon fill="none" stroke="#191970" points="185.3053,-253.4053 188.8052,-263.4053 192.3053,-253.4053 185.3053,-253.4053"/>
</g>
</g>
</svg>
