<?xml version="1.0" encoding="UTF-8" standalone="no"?>
<!DOCTYPE svg PUBLIC "-//W3C//DTD SVG 1.1//EN"
 "http://www.w3.org/Graphics/SVG/1.1/DTD/svg11.dtd">
<!-- Generated by graphviz version 2.40.1 (20161225.0304)
 -->
<!-- Title: cx::web::string_entity::get_string Pages: 1 -->
<svg width="826pt" height="447pt"
 viewBox="0.00 0.00 825.62 446.92" xmlns="http://www.w3.org/2000/svg" xmlns:xlink="http://www.w3.org/1999/xlink">
<g id="graph0" class="graph" transform="scale(1 1) rotate(0) translate(4 442.924)">
<title>cx::web::string_entity::get_string</title>
<!-- Node12 -->
<g id="node1" class="node">
<title>Node12</title>
<g id="a_node1"><a xlink:title=" ">
<polygon fill="#bfbfbf" stroke="#000000" points="708.2441,-205.5 708.2441,-233.5 817.6182,-233.5 817.6182,-205.5 708.2441,-205.5"/>
<text text-anchor="start" x="716.2441" y="-221.5" font-family="Helvetica,sans-Serif" font-size="10.00" fill="#000000">cx::web::string_entity</text>
<text text-anchor="middle" x="762.9312" y="-211.5" font-family="Helvetica,sans-Serif" font-size="10.00" fill="#000000">::get_string</text>
</a>
</g>
</g>
<!-- Node13 -->
<g id="node2" class="node">
<title>Node13</title>
<g id="a_node2"><a xlink:href="structcx_1_1web_1_1json__entity.html#a1fbed015492bb7a0c4ec31550fc3de1d" target="_top" xlink:title=" ">
<polygon fill="none" stroke="#000000" points="568.9785,-205.5 568.9785,-233.5 672.2441,-233.5 672.2441,-205.5 568.9785,-205.5"/>
<text text-anchor="start" x="576.9785" y="-221.5" font-family="Helvetica,sans-Serif" font-size="10.00" fill="#000000">cx::web::json_entity</text>
<text text-anchor="middle" x="620.6113" y="-211.5" font-family="Helvetica,sans-Serif" font-size="10.00" fill="#000000">::get_json</text>
</a>
</g>
</g>
<!-- Node12&#45;&gt;Node13 -->
<g id="edge1" class="edge">
<title>Node12&#45;&gt;Node13</title>
<path fill="none" stroke="#191970" d="M697.7485,-219.5C689.3492,-219.5 680.838,-219.5 672.6875,-219.5"/>
<polygon fill="#191970" stroke="#191970" points="697.9066,-223.0001 707.9066,-219.5 697.9066,-216.0001 697.9066,-223.0001"/>
</g>
<!-- Node14 -->
<g id="node3" class="node">
<title>Node14</title>
<g id="a_node3"><a xlink:href="classcx_1_1web_1_1_country_code_entity.html#a6ffe3c92cfa3fd68176b29aa83c61e2e" target="_top" xlink:title=" ">
<polygon fill="none" stroke="#000000" points="216.2529,-194.5 216.2529,-222.5 355.6416,-222.5 355.6416,-194.5 216.2529,-194.5"/>
<text text-anchor="start" x="224.2529" y="-210.5" font-family="Helvetica,sans-Serif" font-size="10.00" fill="#000000">cx::web::CountryCodeEntity</text>
<text text-anchor="middle" x="285.9473" y="-200.5" font-family="Helvetica,sans-Serif" font-size="10.00" fill="#000000">::valid</text>
</a>
</g>
</g>
<!-- Node13&#45;&gt;Node14 -->
<g id="edge2" class="edge">
<title>Node13&#45;&gt;Node14</title>
<path fill="none" stroke="#191970" d="M558.6435,-217.4632C501.1385,-215.5731 415.6442,-212.763 355.7541,-210.7945"/>
<polygon fill="#191970" stroke="#191970" points="558.5776,-220.9628 568.6873,-217.7933 558.8077,-213.9666 558.5776,-220.9628"/>
</g>
<!-- Node15 -->
<g id="node4" class="node">
<title>Node15</title>
<g id="a_node4"><a xlink:href="classcx_1_1web_1_1_country_code_entity.html#a2869734b7e749da471dc8eb4ada06a0e" target="_top" xlink:title=" ">
<polygon fill="none" stroke="#000000" points="216.2529,-367.5 216.2529,-395.5 355.6416,-395.5 355.6416,-367.5 216.2529,-367.5"/>
<text text-anchor="start" x="224.2529" y="-383.5" font-family="Helvetica,sans-Serif" font-size="10.00" fill="#000000">cx::web::CountryCodeEntity</text>
<text text-anchor="middle" x="285.9473" y="-373.5" font-family="Helvetica,sans-Serif" font-size="10.00" fill="#000000">::update</text>
</a>
</g>
</g>
<!-- Node13&#45;&gt;Node15 -->
<g id="edge3" class="edge">
<title>Node13&#45;&gt;Node15</title>
<path fill="none" stroke="#191970" d="M613.6016,-243.335C602.4762,-276.4498 577.359,-335.3582 532.9785,-362.5 480.0451,-394.8725 408.3313,-396.7953 355.8084,-392.3054"/>
<polygon fill="#191970" stroke="#191970" points="617.0143,-244.1538 616.7287,-233.5628 610.3474,-242.0203 617.0143,-244.1538"/>
</g>
<!-- Node16 -->
<g id="node5" class="node">
<title>Node16</title>
<g id="a_node5"><a xlink:href="classcx_1_1web_1_1_subscription_entity.html#a5a5594f78e58387470a8453c62dab7f4" target="_top" xlink:title=" ">
<polygon fill="none" stroke="#000000" points="218.1987,-281.5 218.1987,-309.5 353.6958,-309.5 353.6958,-281.5 218.1987,-281.5"/>
<text text-anchor="start" x="226.1987" y="-297.5" font-family="Helvetica,sans-Serif" font-size="10.00" fill="#000000">cx::web::SubscriptionEntity</text>
<text text-anchor="middle" x="285.9473" y="-287.5" font-family="Helvetica,sans-Serif" font-size="10.00" fill="#000000">::valid</text>
</a>
</g>
</g>
<!-- Node13&#45;&gt;Node16 -->
<g id="edge4" class="edge">
<title>Node13&#45;&gt;Node16</title>
<path fill="none" stroke="#191970" d="M593.683,-239.7098C577.0718,-251.0638 554.826,-264.3521 532.9785,-271.5 474.5179,-290.6267 404.4434,-295.8851 353.8848,-296.7945"/>
<polygon fill="#191970" stroke="#191970" points="596.1285,-242.2689 602.2935,-233.6524 592.1008,-236.5436 596.1285,-242.2689"/>
</g>
<!-- Node17 -->
<g id="node6" class="node">
<title>Node17</title>
<g id="a_node6"><a xlink:href="classcx_1_1details_1_1_subscription_query_helper.html#a57ed35c96c2167ac90c88d869798d4c4" target="_top" xlink:title=" ">
<polygon fill="none" stroke="#000000" points="5.5615,-369.5 5.5615,-397.5 168.8516,-397.5 168.8516,-369.5 5.5615,-369.5"/>
<text text-anchor="start" x="13.5615" y="-385.5" font-family="Helvetica,sans-Serif" font-size="10.00" fill="#000000">cx::details::Subscription</text>
<text text-anchor="middle" x="87.2065" y="-375.5" font-family="Helvetica,sans-Serif" font-size="10.00" fill="#000000">QueryHelper::getFullSubscription</text>
</a>
</g>
</g>
<!-- Node13&#45;&gt;Node17 -->
<g id="edge10" class="edge">
<title>Node13&#45;&gt;Node17</title>
<path fill="none" stroke="#191970" d="M616.0903,-243.5392C607.4464,-282.0809 584.6333,-356.8755 532.9785,-391.5 405.513,-476.941 208.1326,-425.2508 125.5667,-397.5817"/>
<polygon fill="#191970" stroke="#191970" points="619.5278,-244.2002 618.1648,-233.6934 612.6782,-242.7569 619.5278,-244.2002"/>
</g>
<!-- Node18 -->
<g id="node7" class="node">
<title>Node18</title>
<g id="a_node7"><a xlink:href="classcx_1_1details_1_1_subscription_query_helper.html#a10fcdbea096ccde2ba79ccccb87cd293" target="_top" xlink:title=" ">
<polygon fill="none" stroke="#000000" points="0,-281.5 0,-309.5 174.4131,-309.5 174.4131,-281.5 0,-281.5"/>
<text text-anchor="start" x="8" y="-297.5" font-family="Helvetica,sans-Serif" font-size="10.00" fill="#000000">cx::details::Subscription</text>
<text text-anchor="middle" x="87.2065" y="-287.5" font-family="Helvetica,sans-Serif" font-size="10.00" fill="#000000">QueryHelper::getPublicSubscription</text>
</a>
</g>
</g>
<!-- Node13&#45;&gt;Node18 -->
<g id="edge11" class="edge">
<title>Node13&#45;&gt;Node18</title>
<path fill="none" stroke="#191970" d="M558.7134,-226.4022C478.2713,-235.6231 333.5291,-253.0704 210.4131,-272.5 193.6481,-275.1458 175.6615,-278.3145 158.754,-281.4418"/>
<polygon fill="#191970" stroke="#191970" points="559.1369,-229.8767 568.6753,-225.2647 558.3427,-222.9219 559.1369,-229.8767"/>
</g>
<!-- Node19 -->
<g id="node8" class="node">
<title>Node19</title>
<g id="a_node8"><a xlink:href="classcx_1_1web_1_1_subscription_entity.html#adf84275b767e526cac4518a0affa6cb9" target="_top" xlink:title=" ">
<polygon fill="none" stroke="#000000" points="397.4814,-.5 397.4814,-28.5 532.9785,-28.5 532.9785,-.5 397.4814,-.5"/>
<text text-anchor="start" x="405.4814" y="-16.5" font-family="Helvetica,sans-Serif" font-size="10.00" fill="#000000">cx::web::SubscriptionEntity</text>
<text text-anchor="middle" x="465.23" y="-6.5" font-family="Helvetica,sans-Serif" font-size="10.00" fill="#000000">::printOn</text>
</a>
</g>
</g>
<!-- Node13&#45;&gt;Node19 -->
<g id="edge7" class="edge">
<title>Node13&#45;&gt;Node19</title>
<path fill="none" stroke="#191970" d="M614.3677,-195.1526C603.6471,-157.8459 578.3851,-86.367 532.9785,-43.5 526.5593,-37.4398 518.6787,-32.5396 510.5908,-28.6145"/>
<polygon fill="#191970" stroke="#191970" points="611.0898,-196.4319 617.1228,-205.1412 617.8378,-194.5706 611.0898,-196.4319"/>
</g>
<!-- Node20 -->
<g id="node9" class="node">
<title>Node20</title>
<g id="a_node9"><a xlink:href="classcx_1_1details_1_1_subscription_query_helper.html#a090aacc3c4e2b581bd052a65d21b627c" target="_top" xlink:title=" ">
<polygon fill="none" stroke="#000000" points="225.4229,-146.5 225.4229,-174.5 346.4717,-174.5 346.4717,-146.5 225.4229,-146.5"/>
<text text-anchor="start" x="233.4229" y="-162.5" font-family="Helvetica,sans-Serif" font-size="10.00" fill="#000000">cx::details::Subscription</text>
<text text-anchor="middle" x="285.9473" y="-152.5" font-family="Helvetica,sans-Serif" font-size="10.00" fill="#000000">QueryHelper::authorise</text>
</a>
</g>
</g>
<!-- Node13&#45;&gt;Node20 -->
<g id="edge8" class="edge">
<title>Node13&#45;&gt;Node20</title>
<path fill="none" stroke="#191970" d="M558.503,-208.5505C497.9637,-197.8777 406.5007,-181.7531 346.4986,-171.175"/>
<polygon fill="#191970" stroke="#191970" points="558.2314,-212.0566 568.6873,-210.346 559.4468,-205.1629 558.2314,-212.0566"/>
</g>
<!-- Node21 -->
<g id="node10" class="node">
<title>Node21</title>
<g id="a_node10"><a xlink:href="classcx_1_1details_1_1_subscription_query_helper.html#a11b95f11ce0d7a8b6c512ff21343a0ae" target="_top" xlink:title=" ">
<polygon fill="none" stroke="#000000" points="210.4131,-96.5 210.4131,-124.5 361.4814,-124.5 361.4814,-96.5 210.4131,-96.5"/>
<text text-anchor="start" x="218.4131" y="-112.5" font-family="Helvetica,sans-Serif" font-size="10.00" fill="#000000">cx::details::Subscription</text>
<text text-anchor="middle" x="285.9473" y="-102.5" font-family="Helvetica,sans-Serif" font-size="10.00" fill="#000000">QueryHelper::getCountryCode</text>
</a>
</g>
</g>
<!-- Node13&#45;&gt;Node21 -->
<g id="edge9" class="edge">
<title>Node13&#45;&gt;Node21</title>
<path fill="none" stroke="#191970" d="M609.0276,-196.5558C594.918,-171.4305 568.4981,-132.4577 532.9785,-115.5 479.4609,-89.9497 411.7017,-90.5375 360.691,-96.4838"/>
<polygon fill="#191970" stroke="#191970" points="605.9916,-198.2998 613.8258,-205.4326 612.1496,-194.9712 605.9916,-198.2998"/>
</g>
<!-- Node22 -->
<g id="node11" class="node">
<title>Node22</title>
<g id="a_node11"><a xlink:href="classcx_1_1details_1_1_subscription_query_helper.html#af5b40ae5c6920ce53be8108dc910db58" target="_top" xlink:title=" ">
<polygon fill="none" stroke="#000000" points="215.9697,-44.5 215.9697,-72.5 355.9248,-72.5 355.9248,-44.5 215.9697,-44.5"/>
<text text-anchor="start" x="223.9697" y="-60.5" font-family="Helvetica,sans-Serif" font-size="10.00" fill="#000000">cx::details::Subscription</text>
<text text-anchor="middle" x="285.9473" y="-50.5" font-family="Helvetica,sans-Serif" font-size="10.00" fill="#000000">QueryHelper::getEquipment</text>
</a>
</g>
</g>
<!-- Node13&#45;&gt;Node22 -->
<g id="edge12" class="edge">
<title>Node13&#45;&gt;Node22</title>
<path fill="none" stroke="#191970" d="M611.8799,-195.8201C599.3971,-165.6221 573.392,-114.3474 532.9785,-89.5 479.9563,-56.9004 408.4218,-51.1668 355.978,-52.3896"/>
<polygon fill="#191970" stroke="#191970" points="608.6542,-197.1807 615.596,-205.1846 615.1606,-194.5987 608.6542,-197.1807"/>
</g>
<!-- Node23 -->
<g id="node12" class="node">
<title>Node23</title>
<g id="a_node12"><a xlink:href="structcx_1_1web_1_1json__entity.html#aa681ca07ba01ea1346649b9bb01c71af" target="_top" xlink:title=" ">
<polygon fill="none" stroke="#000000" points="413.5972,-124.5 413.5972,-152.5 516.8628,-152.5 516.8628,-124.5 413.5972,-124.5"/>
<text text-anchor="start" x="421.5972" y="-140.5" font-family="Helvetica,sans-Serif" font-size="10.00" fill="#000000">cx::web::json_entity</text>
<text text-anchor="middle" x="465.23" y="-130.5" font-family="Helvetica,sans-Serif" font-size="10.00" fill="#000000">::valid</text>
</a>
</g>
</g>
<!-- Node13&#45;&gt;Node23 -->
<g id="edge13" class="edge">
<title>Node13&#45;&gt;Node23</title>
<path fill="none" stroke="#191970" d="M590.0138,-200.0037C573.4307,-189.7816 552.4085,-177.3697 532.9785,-167.5 522.5982,-162.2272 511.0371,-157.0387 500.4463,-152.5407"/>
<polygon fill="#191970" stroke="#191970" points="588.3918,-203.1167 598.7316,-205.4273 592.0896,-197.173 588.3918,-203.1167"/>
</g>
<!-- Node24 -->
<g id="node13" class="node">
<title>Node24</title>
<g id="a_node13"><a xlink:href="structcx_1_1web_1_1data__entity.html#a6ee3f7541c9752790cf992a277d34cb7" target="_top" xlink:title=" ">
<polygon fill="none" stroke="#000000" points="413.0381,-324.5 413.0381,-352.5 517.4219,-352.5 517.4219,-324.5 413.0381,-324.5"/>
<text text-anchor="start" x="421.0381" y="-340.5" font-family="Helvetica,sans-Serif" font-size="10.00" fill="#000000">cx::web::data_entity</text>
<text text-anchor="middle" x="465.23" y="-330.5" font-family="Helvetica,sans-Serif" font-size="10.00" fill="#000000">::update</text>
</a>
</g>
</g>
<!-- Node13&#45;&gt;Node24 -->
<g id="edge19" class="edge">
<title>Node13&#45;&gt;Node24</title>
<path fill="none" stroke="#191970" d="M603.4271,-241.5875C587.0517,-261.4579 560.8245,-290.3845 532.9785,-309.5 524.5401,-315.2927 514.7597,-320.297 505.3,-324.44"/>
<polygon fill="#191970" stroke="#191970" points="606.2536,-243.6584 609.8179,-233.6811 600.8096,-239.258 606.2536,-243.6584"/>
</g>
<!-- Node16&#45;&gt;Node17 -->
<g id="edge5" class="edge">
<title>Node16&#45;&gt;Node17</title>
<path fill="none" stroke="#191970" d="M244.4364,-313.8805C207.111,-330.4077 153.0722,-354.3355 119.0584,-369.3964"/>
<polygon fill="#191970" stroke="#191970" points="246.2895,-316.8878 254.0161,-309.6387 243.4553,-310.4872 246.2895,-316.8878"/>
</g>
<!-- Node16&#45;&gt;Node18 -->
<g id="edge6" class="edge">
<title>Node16&#45;&gt;Node18</title>
<path fill="none" stroke="#191970" d="M208.0866,-295.5C197.0425,-295.5 185.626,-295.5 174.4189,-295.5"/>
<polygon fill="#191970" stroke="#191970" points="208.1079,-299.0001 218.1078,-295.5 208.1078,-292.0001 208.1079,-299.0001"/>
</g>
<!-- Node23&#45;&gt;Node14 -->
<g id="edge14" class="edge">
<title>Node23&#45;&gt;Node14</title>
<path fill="none" stroke="#191970" d="M426.5307,-156.8694C407.2002,-165.7333 383.3295,-176.2141 361.4814,-184.5 352.347,-187.9643 342.4692,-191.353 332.9631,-194.4416"/>
<polygon fill="#191970" stroke="#191970" points="428.0184,-160.0377 435.6268,-152.6646 425.0811,-153.6837 428.0184,-160.0377"/>
</g>
<!-- Node23&#45;&gt;Node16 -->
<g id="edge15" class="edge">
<title>Node23&#45;&gt;Node16</title>
<path fill="none" stroke="#191970" d="M442.5141,-159.5723C421.6547,-178.8045 389.7818,-207.8955 361.4814,-232.5 341.7647,-249.6419 318.6353,-268.797 303.2152,-281.436"/>
<polygon fill="#191970" stroke="#191970" points="444.9681,-162.0703 449.9391,-152.714 440.2184,-156.9282 444.9681,-162.0703"/>
</g>
<!-- Node23&#45;&gt;Node20 -->
<g id="edge16" class="edge">
<title>Node23&#45;&gt;Node20</title>
<path fill="none" stroke="#191970" d="M403.3588,-146.0923C384.9707,-148.3487 364.8528,-150.8174 346.5466,-153.0638"/>
<polygon fill="#191970" stroke="#191970" points="403.8748,-149.5553 413.374,-144.8633 403.0221,-142.6074 403.8748,-149.5553"/>
</g>
<!-- Node23&#45;&gt;Node21 -->
<g id="edge17" class="edge">
<title>Node23&#45;&gt;Node21</title>
<path fill="none" stroke="#191970" d="M403.3184,-128.8308C389.9047,-126.7359 375.5723,-124.4974 361.6951,-122.3301"/>
<polygon fill="#191970" stroke="#191970" points="402.9537,-132.3162 413.374,-130.4012 404.0339,-125.4 402.9537,-132.3162"/>
</g>
<!-- Node23&#45;&gt;Node22 -->
<g id="edge18" class="edge">
<title>Node23&#45;&gt;Node22</title>
<path fill="none" stroke="#191970" d="M430.1716,-119.7251C410.2781,-109.3774 384.7728,-96.6177 361.4814,-86.5 350.1932,-81.5964 337.7402,-76.7555 326.2571,-72.5135"/>
<polygon fill="#191970" stroke="#191970" points="428.6877,-122.8989 439.1699,-124.4399 431.9365,-116.6985 428.6877,-122.8989"/>
</g>
<!-- Node24&#45;&gt;Node15 -->
<g id="edge20" class="edge">
<title>Node24&#45;&gt;Node15</title>
<path fill="none" stroke="#191970" d="M403.1094,-353.3993C384.0416,-357.9726 363.134,-362.9872 344.3256,-367.4983"/>
<polygon fill="#191970" stroke="#191970" points="403.9842,-356.7888 412.892,-351.053 402.3515,-349.9819 403.9842,-356.7888"/>
</g>
<!-- Node24&#45;&gt;Node18 -->
<g id="edge21" class="edge">
<title>Node24&#45;&gt;Node18</title>
<path fill="none" stroke="#191970" d="M402.8053,-335.903C351.0867,-333.2586 275.7463,-328.2679 210.4131,-319.5 191.1905,-316.9203 170.4422,-313.2335 151.5525,-309.5212"/>
<polygon fill="#191970" stroke="#191970" points="402.6626,-339.4002 412.8241,-336.4011 403.0102,-332.4088 402.6626,-339.4002"/>
</g>
</g>
</svg>
