<?xml version="1.0" encoding="UTF-8" standalone="no"?>
<!DOCTYPE svg PUBLIC "-//W3C//DTD SVG 1.1//EN"
 "http://www.w3.org/Graphics/SVG/1.1/DTD/svg11.dtd">
<!-- Generated by graphviz version 2.40.1 (20161225.0304)
 -->
<!-- Title: cx::web::json_entity Pages: 1 -->
<!--zoomable 458 -->
<svg id="main" version="1.1" xmlns="http://www.w3.org/2000/svg" xmlns:xlink="http://www.w3.org/1999/xlink" xml:space="preserve" onload="init(evt)">
<style type="text/css"><![CDATA[
.edge:hover path { stroke: red; }
.edge:hover polygon { stroke: red; fill: red; }
]]></style>
<script type="text/javascript"><![CDATA[
var edges = document.getElementsByTagName('g');
if (edges && edges.length) {
  for (var i=0;i<edges.length;i++) {
    if (edges[i].id.substr(0,4)=='edge') {
      edges[i].setAttribute('class','edge');
    }
  }
}
]]></script>
        <defs>
                <circle id="rim" cx="0" cy="0" r="7"/>
                <circle id="rim2" cx="0" cy="0" r="3.5"/>
                <g id="zoomPlus">
                        <use xlink:href="#rim" fill="#404040">
                                <set attributeName="fill" to="#808080" begin="zoomplus.mouseover" end="zoomplus.mouseout"/>
                        </use>
                        <path d="M-4,0h8M0,-4v8" fill="none" stroke="white" stroke-width="1.5" pointer-events="none"/>
                </g>
                <g id="zoomMin">
                        <use xlink:href="#rim" fill="#404040">
                                <set attributeName="fill" to="#808080" begin="zoomminus.mouseover" end="zoomminus.mouseout"/>
                        </use>
                        <path d="M-4,0h8" fill="none" stroke="white" stroke-width="1.5" pointer-events="none"/>
                </g>
                <g id="dirArrow">
                        <path fill="none" stroke="white" stroke-width="1.5" d="M0,-3.0v7 M-2.5,-0.5L0,-3.0L2.5,-0.5"/>
                </g>
               <g id="resetDef">
                       <use xlink:href="#rim2" fill="#404040">
                               <set attributeName="fill" to="#808080" begin="reset.mouseover" end="reset.mouseout"/>
                       </use>
               </g>
        </defs>

<script type="text/javascript">
var viewWidth = 158;
var viewHeight = 458;
var sectionId = 'dynsection-1';
</script>
<script xlink:href="svgpan.js"/>
<svg id="graph" class="graph">
<g id="viewport">
<title>cx::web::json_entity</title>
<!-- Node6 -->
<g id="node1" class="node">
<title>Node6</title>
<g id="a_node1"><a xlink:title=" ">
<polygon fill="#bfbfbf" stroke="#000000" points="3.1011,-.5 3.1011,-84.5 106.3667,-84.5 106.3667,-.5 3.1011,-.5"/>
<text text-anchor="middle" x="54.7339" y="-72.5" font-family="Helvetica,sans-Serif" font-size="10.00" fill="#000000">cx::web::json_entity</text>
<polyline fill="none" stroke="#000000" points="3.1011,-66.5 106.3667,-66.5 "/>
<text text-anchor="start" x="11.1011" y="-54.5" font-family="Helvetica,sans-Serif" font-size="10.00" fill="#000000">+ json</text>
<polyline fill="none" stroke="#000000" points="3.1011,-48.5 106.3667,-48.5 "/>
<text text-anchor="start" x="11.1011" y="-36.5" font-family="Helvetica,sans-Serif" font-size="10.00" fill="#000000">+ json_entity()</text>
<text text-anchor="start" x="11.1011" y="-26.5" font-family="Helvetica,sans-Serif" font-size="10.00" fill="#000000">+ json_entity()</text>
<text text-anchor="start" x="11.1011" y="-16.5" font-family="Helvetica,sans-Serif" font-size="10.00" fill="#000000">+ valid()</text>
<text text-anchor="start" x="11.1011" y="-6.5" font-family="Helvetica,sans-Serif" font-size="10.00" fill="#000000">+ get_json()</text>
</a>
</g>
</g>
<!-- Node7 -->
<g id="node2" class="node">
<title>Node7</title>
<g id="a_node2"><a xlink:href="structcx_1_1web_1_1string__entity.html" target="_top" xlink:title=" ">
<polygon fill="none" stroke="#000000" points=".0469,-122.5 .0469,-246.5 109.4209,-246.5 109.4209,-122.5 .0469,-122.5"/>
<text text-anchor="middle" x="54.7339" y="-234.5" font-family="Helvetica,sans-Serif" font-size="10.00" fill="#000000">cx::web::string_entity</text>
<polyline fill="none" stroke="#000000" points=".0469,-228.5 109.4209,-228.5 "/>
<text text-anchor="start" x="8.0469" y="-216.5" font-family="Helvetica,sans-Serif" font-size="10.00" fill="#000000">+ error_reason</text>
<text text-anchor="start" x="8.0469" y="-206.5" font-family="Helvetica,sans-Serif" font-size="10.00" fill="#000000">+ status</text>
<polyline fill="none" stroke="#000000" points=".0469,-200.5 109.4209,-200.5 "/>
<text text-anchor="start" x="8.0469" y="-188.5" font-family="Helvetica,sans-Serif" font-size="10.00" fill="#000000">+ string_entity()</text>
<text text-anchor="start" x="8.0469" y="-178.5" font-family="Helvetica,sans-Serif" font-size="10.00" fill="#000000">+ string_entity()</text>
<text text-anchor="start" x="8.0469" y="-168.5" font-family="Helvetica,sans-Serif" font-size="10.00" fill="#000000">+ copy_from()</text>
<text text-anchor="start" x="8.0469" y="-158.5" font-family="Helvetica,sans-Serif" font-size="10.00" fill="#000000">+ valid()</text>
<text text-anchor="start" x="8.0469" y="-148.5" font-family="Helvetica,sans-Serif" font-size="10.00" fill="#000000">+ update()</text>
<text text-anchor="start" x="8.0469" y="-138.5" font-family="Helvetica,sans-Serif" font-size="10.00" fill="#000000">+ get_string()</text>
<text text-anchor="start" x="8.0469" y="-128.5" font-family="Helvetica,sans-Serif" font-size="10.00" fill="#000000">+ printOn()</text>
</a>
</g>
</g>
<!-- Node7&#45;&gt;Node6 -->
<g id="edge1" class="edge">
<title>Node7&#45;&gt;Node6</title>
<path fill="none" stroke="#191970" d="M54.7339,-112.0731C54.7339,-102.7085 54.7339,-93.3771 54.7339,-84.7307"/>
<polygon fill="none" stroke="#191970" points="51.234,-112.2167 54.7339,-122.2167 58.234,-112.2168 51.234,-112.2167"/>
</g>
<!-- Node8 -->
<g id="node3" class="node">
<title>Node8</title>
<g id="a_node3"><a xlink:title=" ">
<polygon fill="none" stroke="#bfbfbf" points="0,-293.5 0,-347.5 55.4678,-347.5 55.4678,-293.5 0,-293.5"/>
<text text-anchor="middle" x="27.7339" y="-335.5" font-family="Helvetica,sans-Serif" font-size="10.00" fill="#000000">Printable</text>
<polyline fill="none" stroke="#bfbfbf" points="0,-329.5 55.4678,-329.5 "/>
<text text-anchor="middle" x="27.7339" y="-317.5" font-family="Helvetica,sans-Serif" font-size="10.00" fill="#000000"> </text>
<polyline fill="none" stroke="#bfbfbf" points="0,-311.5 55.4678,-311.5 "/>
<text text-anchor="middle" x="27.7339" y="-299.5" font-family="Helvetica,sans-Serif" font-size="10.00" fill="#000000"> </text>
</a>
</g>
</g>
<!-- Node8&#45;&gt;Node7 -->
<g id="edge2" class="edge">
<title>Node8&#45;&gt;Node7</title>
<path fill="none" stroke="#191970" d="M35.1169,-283.3113C37.3769,-271.9276 39.927,-259.0829 42.4224,-246.5132"/>
<polygon fill="none" stroke="#191970" points="31.6472,-282.8151 33.1328,-293.3052 38.5132,-284.1782 31.6472,-282.8151"/>
</g>
<!-- Node9 -->
<g id="node4" class="node">
<title>Node9</title>
<g id="a_node4"><a xlink:title="STL class.">
<polygon fill="none" stroke="#bfbfbf" points="73.0591,-293.5 73.0591,-347.5 132.4087,-347.5 132.4087,-293.5 73.0591,-293.5"/>
<text text-anchor="middle" x="102.7339" y="-335.5" font-family="Helvetica,sans-Serif" font-size="10.00" fill="#000000">std::string</text>
<polyline fill="none" stroke="#bfbfbf" points="73.0591,-329.5 132.4087,-329.5 "/>
<text text-anchor="middle" x="102.7339" y="-317.5" font-family="Helvetica,sans-Serif" font-size="10.00" fill="#000000"> </text>
<polyline fill="none" stroke="#bfbfbf" points="73.0591,-311.5 132.4087,-311.5 "/>
<text text-anchor="middle" x="102.7339" y="-299.5" font-family="Helvetica,sans-Serif" font-size="10.00" fill="#000000"> </text>
</a>
</g>
</g>
<!-- Node9&#45;&gt;Node7 -->
<g id="edge3" class="edge">
<title>Node9&#45;&gt;Node7</title>
<path fill="none" stroke="#404040" d="M93.1357,-293.3052C89.4911,-282.9786 85.1432,-270.6597 80.7048,-258.0843"/>
<polygon fill="none" stroke="#404040" points="80.6148,-257.8291 74.8459,-253.5025 76.6209,-246.5132 82.3898,-250.8399 80.6148,-257.8291"/>
<text text-anchor="middle" x="106.4443" y="-267" font-family="Helvetica,sans-Serif" font-size="10.00" fill="#000000"> +content</text>
</g>
<!-- Node10 -->
<g id="node5" class="node">
<title>Node10</title>
<g id="a_node5"><a xlink:title="STL class.">
<polygon fill="none" stroke="#bfbfbf" points="55.686,-385.5 55.686,-449.5 149.7817,-449.5 149.7817,-385.5 55.686,-385.5"/>
<text text-anchor="start" x="63.686" y="-437.5" font-family="Helvetica,sans-Serif" font-size="10.00" fill="#000000">std::basic_string&lt;</text>
<text text-anchor="middle" x="102.7339" y="-427.5" font-family="Helvetica,sans-Serif" font-size="10.00" fill="#000000"> char &gt;</text>
<polyline fill="none" stroke="#bfbfbf" points="55.686,-421.5 149.7817,-421.5 "/>
<text text-anchor="middle" x="102.7339" y="-409.5" font-family="Helvetica,sans-Serif" font-size="10.00" fill="#000000"> </text>
<polyline fill="none" stroke="#bfbfbf" points="55.686,-403.5 149.7817,-403.5 "/>
<text text-anchor="middle" x="102.7339" y="-391.5" font-family="Helvetica,sans-Serif" font-size="10.00" fill="#000000"> </text>
</a>
</g>
</g>
<!-- Node10&#45;&gt;Node9 -->
<g id="edge4" class="edge">
<title>Node10&#45;&gt;Node9</title>
<path fill="none" stroke="#191970" d="M102.7339,-375.4397C102.7339,-366.0133 102.7339,-356.2564 102.7339,-347.6277"/>
<polygon fill="none" stroke="#191970" points="99.234,-375.4697 102.7339,-385.4697 106.234,-375.4698 99.234,-375.4697"/>
</g>
</g>
</svg>
        <g id="navigator" transform="translate(0 0)" fill="#404254">
                <rect fill="#f2f5e9" fill-opacity="0.5" stroke="#606060" stroke-width=".5" x="0" y="0" width="60" height="60"/>
                <use id="zoomplus" xlink:href="#zoomPlus" x="17" y="9" onmousedown="handleZoom(evt,'in')"/>
                <use id="zoomminus" xlink:href="#zoomMin" x="42" y="9" onmousedown="handleZoom(evt,'out')"/>
                <use id="reset" xlink:href="#resetDef" x="30" y="36" onmousedown="handleReset()"/>
                <g id="arrowUp" xlink:href="#dirArrow" transform="translate(30 24)" onmousedown="handlePan(0,-1)">
                  <use xlink:href="#rim" fill="#404040">
                        <set attributeName="fill" to="#808080" begin="arrowUp.mouseover" end="arrowUp.mouseout"/>
                  </use>
                  <path fill="none" stroke="white" stroke-width="1.5" d="M0,-3.0v7 M-2.5,-0.5L0,-3.0L2.5,-0.5"/>
                </g>
                <g id="arrowRight" xlink:href="#dirArrow" transform="rotate(90) translate(36 -43)" onmousedown="handlePan(1,0)">
                  <use xlink:href="#rim" fill="#404040">
                        <set attributeName="fill" to="#808080" begin="arrowRight.mouseover" end="arrowRight.mouseout"/>
                  </use>
                  <path fill="none" stroke="white" stroke-width="1.5" d="M0,-3.0v7 M-2.5,-0.5L0,-3.0L2.5,-0.5"/>
                </g>
                <g id="arrowDown" xlink:href="#dirArrow" transform="rotate(180) translate(-30 -48)" onmousedown="handlePan(0,1)">
                  <use xlink:href="#rim" fill="#404040">
                        <set attributeName="fill" to="#808080" begin="arrowDown.mouseover" end="arrowDown.mouseout"/>
                  </use>
                  <path fill="none" stroke="white" stroke-width="1.5" d="M0,-3.0v7 M-2.5,-0.5L0,-3.0L2.5,-0.5"/>
                </g>
                <g id="arrowLeft" xlink:href="#dirArrow" transform="rotate(270) translate(-36 17)" onmousedown="handlePan(-1,0)">
                  <use xlink:href="#rim" fill="#404040">
                        <set attributeName="fill" to="#808080" begin="arrowLeft.mouseover" end="arrowLeft.mouseout"/>
                  </use>
                  <path fill="none" stroke="white" stroke-width="1.5" d="M0,-3.0v7 M-2.5,-0.5L0,-3.0L2.5,-0.5"/>
                </g>
        </g>
        <svg viewBox="0 0 15 15" width="100%" height="30px" preserveAspectRatio="xMaxYMin meet">
         <g id="arrow_out" transform="scale(0.3 0.3)">
          <a xlink:href="structcx_1_1web_1_1json__entity__coll__graph_org.svg" target="_base">
           <rect id="button" ry="5" rx="5" y="6" x="6" height="38" width="38"
                fill="#f2f5e9" fill-opacity="0.5" stroke="#606060" stroke-width="1.0"/>
           <path id="arrow"
             d="M 11.500037,31.436501 C 11.940474,20.09759 22.043105,11.32322 32.158766,21.979434 L 37.068811,17.246167 C 37.068811,17.246167 37.088388,32 37.088388,32 L 22.160133,31.978069 C 22.160133,31.978069 26.997745,27.140456 26.997745,27.140456 C 18.528582,18.264221 13.291696,25.230495 11.500037,31.436501 z"
             style="fill:#404040;"/>
          </a>
         </g>
        </svg>
</svg>
