<?xml version="1.0" encoding="UTF-8" standalone="no"?>
<!DOCTYPE svg PUBLIC "-//W3C//DTD SVG 1.1//EN"
 "http://www.w3.org/Graphics/SVG/1.1/DTD/svg11.dtd">
<!-- Generated by graphviz version 2.40.1 (20161225.0304)
 -->
<!-- Title: cx::web::BroadcastParameters Pages: 1 -->
<!--zoomable 587 -->
<svg id="main" version="1.1" xmlns="http://www.w3.org/2000/svg" xmlns:xlink="http://www.w3.org/1999/xlink" xml:space="preserve" onload="init(evt)">
<style type="text/css"><![CDATA[
.edge:hover path { stroke: red; }
.edge:hover polygon { stroke: red; fill: red; }
]]></style>
<script type="text/javascript"><![CDATA[
var edges = document.getElementsByTagName('g');
if (edges && edges.length) {
  for (var i=0;i<edges.length;i++) {
    if (edges[i].id.substr(0,4)=='edge') {
      edges[i].setAttribute('class','edge');
    }
  }
}
]]></script>
        <defs>
                <circle id="rim" cx="0" cy="0" r="7"/>
                <circle id="rim2" cx="0" cy="0" r="3.5"/>
                <g id="zoomPlus">
                        <use xlink:href="#rim" fill="#404040">
                                <set attributeName="fill" to="#808080" begin="zoomplus.mouseover" end="zoomplus.mouseout"/>
                        </use>
                        <path d="M-4,0h8M0,-4v8" fill="none" stroke="white" stroke-width="1.5" pointer-events="none"/>
                </g>
                <g id="zoomMin">
                        <use xlink:href="#rim" fill="#404040">
                                <set attributeName="fill" to="#808080" begin="zoomminus.mouseover" end="zoomminus.mouseout"/>
                        </use>
                        <path d="M-4,0h8" fill="none" stroke="white" stroke-width="1.5" pointer-events="none"/>
                </g>
                <g id="dirArrow">
                        <path fill="none" stroke="white" stroke-width="1.5" d="M0,-3.0v7 M-2.5,-0.5L0,-3.0L2.5,-0.5"/>
                </g>
               <g id="resetDef">
                       <use xlink:href="#rim2" fill="#404040">
                               <set attributeName="fill" to="#808080" begin="reset.mouseover" end="reset.mouseout"/>
                       </use>
               </g>
        </defs>

<script type="text/javascript">
var viewWidth = 1065;
var viewHeight = 587;
var sectionId = 'dynsection-1';
</script>
<script xlink:href="svgpan.js"/>
<svg id="graph" class="graph">
<g id="viewport">
<title>cx::web::BroadcastParameters</title>
<!-- Node3 -->
<g id="node1" class="node">
<title>Node3</title>
<g id="a_node1"><a xlink:title=" ">
<polygon fill="#bfbfbf" stroke="#000000" points="444.7217,-.5 444.7217,-84.5 596.8887,-84.5 596.8887,-.5 444.7217,-.5"/>
<text text-anchor="middle" x="520.8052" y="-72.5" font-family="Helvetica,sans-Serif" font-size="10.00" fill="#000000">cx::web::BroadcastParameters</text>
<polyline fill="none" stroke="#000000" points="444.7217,-66.5 596.8887,-66.5 "/>
<text text-anchor="middle" x="520.8052" y="-54.5" font-family="Helvetica,sans-Serif" font-size="10.00" fill="#000000"> </text>
<polyline fill="none" stroke="#000000" points="444.7217,-48.5 596.8887,-48.5 "/>
<text text-anchor="start" x="452.7217" y="-36.5" font-family="Helvetica,sans-Serif" font-size="10.00" fill="#000000">+ BroadcastParameters()</text>
<text text-anchor="start" x="452.7217" y="-26.5" font-family="Helvetica,sans-Serif" font-size="10.00" fill="#000000">+ BroadcastParameters()</text>
<text text-anchor="start" x="452.7217" y="-16.5" font-family="Helvetica,sans-Serif" font-size="10.00" fill="#000000">+ BroadcastParameters()</text>
<text text-anchor="start" x="452.7217" y="-6.5" font-family="Helvetica,sans-Serif" font-size="10.00" fill="#000000">+ operator==()</text>
</a>
</g>
</g>
<!-- Node4 -->
<g id="node2" class="node">
<title>Node4</title>
<g id="a_node2"><a xlink:href="structcx_1_1web_1_1_access_token_cache.html" target="_top" xlink:title=" ">
<polygon fill="none" stroke="#000000" points="9.165,-206.5 9.165,-290.5 152.4453,-290.5 152.4453,-206.5 9.165,-206.5"/>
<text text-anchor="middle" x="80.8052" y="-278.5" font-family="Helvetica,sans-Serif" font-size="10.00" fill="#000000">cx::web::AccessTokenCache</text>
<polyline fill="none" stroke="#000000" points="9.165,-272.5 152.4453,-272.5 "/>
<text text-anchor="middle" x="80.8052" y="-260.5" font-family="Helvetica,sans-Serif" font-size="10.00" fill="#000000"> </text>
<polyline fill="none" stroke="#000000" points="9.165,-254.5 152.4453,-254.5 "/>
<text text-anchor="start" x="17.165" y="-242.5" font-family="Helvetica,sans-Serif" font-size="10.00" fill="#000000">+ AccessTokenCache()</text>
<text text-anchor="start" x="17.165" y="-232.5" font-family="Helvetica,sans-Serif" font-size="10.00" fill="#000000">+ AccessTokenCache()</text>
<text text-anchor="start" x="17.165" y="-222.5" font-family="Helvetica,sans-Serif" font-size="10.00" fill="#000000">+ serialize()</text>
<text text-anchor="start" x="17.165" y="-212.5" font-family="Helvetica,sans-Serif" font-size="10.00" fill="#000000">+ deserialize()</text>
</a>
</g>
</g>
<!-- Node4&#45;&gt;Node3 -->
<g id="edge1" class="edge">
<title>Node4&#45;&gt;Node3</title>
<path fill="none" stroke="#191970" d="M101.0612,-197.1775C116.4504,-165.0169 140.8069,-125.5259 174.8052,-103 218.0151,-74.3708 356.4156,-57.0855 444.527,-48.7029"/>
<polygon fill="none" stroke="#191970" points="97.7874,-195.9183 96.7654,-206.4638 104.1405,-198.8573 97.7874,-195.9183"/>
</g>
<!-- Node5 -->
<g id="node3" class="node">
<title>Node5</title>
<g id="a_node3"><a xlink:href="structcx_1_1web_1_1_cached_parameters.html" target="_top" xlink:title=" ">
<polygon fill="none" stroke="#000000" points="0,-392.5 0,-476.5 141.6104,-476.5 141.6104,-392.5 0,-392.5"/>
<text text-anchor="middle" x="70.8052" y="-464.5" font-family="Helvetica,sans-Serif" font-size="10.00" fill="#000000">cx::web::CachedParameters</text>
<polyline fill="none" stroke="#000000" points="0,-458.5 141.6104,-458.5 "/>
<text text-anchor="middle" x="70.8052" y="-446.5" font-family="Helvetica,sans-Serif" font-size="10.00" fill="#000000"> </text>
<polyline fill="none" stroke="#000000" points="0,-440.5 141.6104,-440.5 "/>
<text text-anchor="start" x="8" y="-428.5" font-family="Helvetica,sans-Serif" font-size="10.00" fill="#000000">+ serialize()</text>
<text text-anchor="start" x="8" y="-418.5" font-family="Helvetica,sans-Serif" font-size="10.00" fill="#000000">+ deserialize()</text>
<text text-anchor="start" x="8" y="-408.5" font-family="Helvetica,sans-Serif" font-size="10.00" fill="#000000">+ operator&gt;&gt;()</text>
<text text-anchor="start" x="8" y="-398.5" font-family="Helvetica,sans-Serif" font-size="10.00" fill="#000000">+ operator&lt;&lt;()</text>
</a>
</g>
</g>
<!-- Node5&#45;&gt;Node4 -->
<g id="edge2" class="edge">
<title>Node5&#45;&gt;Node4</title>
<path fill="none" stroke="#191970" d="M73.6301,-381.9572C75.1853,-353.0298 77.0893,-317.6157 78.545,-290.5393"/>
<polygon fill="none" stroke="#191970" points="70.1163,-382.1202 73.0743,-392.2937 77.1062,-382.4961 70.1163,-382.1202"/>
</g>
<!-- Node6 -->
<g id="node4" class="node">
<title>Node6</title>
<g id="a_node4"><a xlink:title="STL class.">
<polygon fill="none" stroke="#bfbfbf" points="159.1304,-407.5 159.1304,-461.5 218.48,-461.5 218.48,-407.5 159.1304,-407.5"/>
<text text-anchor="middle" x="188.8052" y="-449.5" font-family="Helvetica,sans-Serif" font-size="10.00" fill="#000000">std::string</text>
<polyline fill="none" stroke="#bfbfbf" points="159.1304,-443.5 218.48,-443.5 "/>
<text text-anchor="middle" x="188.8052" y="-431.5" font-family="Helvetica,sans-Serif" font-size="10.00" fill="#000000"> </text>
<polyline fill="none" stroke="#bfbfbf" points="159.1304,-425.5 218.48,-425.5 "/>
<text text-anchor="middle" x="188.8052" y="-413.5" font-family="Helvetica,sans-Serif" font-size="10.00" fill="#000000"> </text>
</a>
</g>
</g>
<!-- Node6&#45;&gt;Node3 -->
<g id="edge8" class="edge">
<title>Node6&#45;&gt;Node3</title>
<path fill="none" stroke="#404040" d="M185.9632,-407.4111C180.12,-346.2343 169.5246,-199.7018 197.4829,-161 225.7363,-121.8899 346.8928,-84.9902 432.5699,-63.0611"/>
<polygon fill="none" stroke="#404040" points="432.7765,-63.009 437.613,-57.6603 444.4104,-60.0675 439.5739,-65.4162 432.7765,-63.009"/>
<text text-anchor="middle" x="235.4663" y="-245.5" font-family="Helvetica,sans-Serif" font-size="10.00" fill="#000000"> +subscription_id</text>
</g>
<!-- Node6&#45;&gt;Node4 -->
<g id="edge3" class="edge">
<title>Node6&#45;&gt;Node4</title>
<path fill="none" stroke="#404040" d="M168.0214,-407.386C162.8369,-401.7881 156.9795,-396.2968 150.8052,-392 132.8649,-379.515 119.0098,-390.8095 105.0396,-374 88.734,-354.3806 82.1859,-327.0736 79.9199,-302.94"/>
<polygon fill="none" stroke="#404040" points="79.8998,-302.6395 75.507,-296.9208 79.0963,-290.6664 83.4891,-296.3851 79.8998,-302.6395"/>
<text text-anchor="middle" x="140.688" y="-366" font-family="Helvetica,sans-Serif" font-size="10.00" fill="#000000"> +access_token</text>
<text text-anchor="middle" x="140.688" y="-356" font-family="Helvetica,sans-Serif" font-size="10.00" fill="#000000">+refresh_token</text>
</g>
<!-- Node7 -->
<g id="node5" class="node">
<title>Node7</title>
<g id="a_node5"><a xlink:title="STL class.">
<polygon fill="none" stroke="#bfbfbf" points="141.7573,-514.5 141.7573,-578.5 235.853,-578.5 235.853,-514.5 141.7573,-514.5"/>
<text text-anchor="start" x="149.7573" y="-566.5" font-family="Helvetica,sans-Serif" font-size="10.00" fill="#000000">std::basic_string&lt;</text>
<text text-anchor="middle" x="188.8052" y="-556.5" font-family="Helvetica,sans-Serif" font-size="10.00" fill="#000000"> char &gt;</text>
<polyline fill="none" stroke="#bfbfbf" points="141.7573,-550.5 235.853,-550.5 "/>
<text text-anchor="middle" x="188.8052" y="-538.5" font-family="Helvetica,sans-Serif" font-size="10.00" fill="#000000"> </text>
<polyline fill="none" stroke="#bfbfbf" points="141.7573,-532.5 235.853,-532.5 "/>
<text text-anchor="middle" x="188.8052" y="-520.5" font-family="Helvetica,sans-Serif" font-size="10.00" fill="#000000"> </text>
</a>
</g>
</g>
<!-- Node7&#45;&gt;Node6 -->
<g id="edge4" class="edge">
<title>Node7&#45;&gt;Node6</title>
<path fill="none" stroke="#191970" d="M188.8052,-504.2927C188.8052,-490.0159 188.8052,-474.4638 188.8052,-461.6713"/>
<polygon fill="none" stroke="#191970" points="185.3053,-504.4053 188.8052,-514.4053 192.3053,-504.4053 185.3053,-504.4053"/>
</g>
<!-- Node8 -->
<g id="node6" class="node">
<title>Node8</title>
<g id="a_node6"><a xlink:href="classcx_1_1toolkit_1_1opt__value.html" target="_top" xlink:title=" ">
<polygon fill="none" stroke="#000000" points="281.6528,-161.5 281.6528,-335.5 449.9575,-335.5 449.9575,-161.5 281.6528,-161.5"/>
<text text-anchor="start" x="289.6528" y="-323.5" font-family="Helvetica,sans-Serif" font-size="10.00" fill="#000000">cx::toolkit::opt_value</text>
<text text-anchor="middle" x="365.8052" y="-313.5" font-family="Helvetica,sans-Serif" font-size="10.00" fill="#000000">&lt; BroadcastResourceOrderType &gt;</text>
<polyline fill="none" stroke="#000000" points="281.6528,-307.5 449.9575,-307.5 "/>
<text text-anchor="middle" x="365.8052" y="-295.5" font-family="Helvetica,sans-Serif" font-size="10.00" fill="#000000"> </text>
<polyline fill="none" stroke="#000000" points="281.6528,-289.5 449.9575,-289.5 "/>
<text text-anchor="start" x="289.6528" y="-277.5" font-family="Helvetica,sans-Serif" font-size="10.00" fill="#000000">+ opt_value()</text>
<text text-anchor="start" x="289.6528" y="-267.5" font-family="Helvetica,sans-Serif" font-size="10.00" fill="#000000">+ opt_value()</text>
<text text-anchor="start" x="289.6528" y="-257.5" font-family="Helvetica,sans-Serif" font-size="10.00" fill="#000000">+ opt_value()</text>
<text text-anchor="start" x="289.6528" y="-247.5" font-family="Helvetica,sans-Serif" font-size="10.00" fill="#000000">+ opt_value()</text>
<text text-anchor="start" x="289.6528" y="-237.5" font-family="Helvetica,sans-Serif" font-size="10.00" fill="#000000">+ operator=()</text>
<text text-anchor="start" x="289.6528" y="-227.5" font-family="Helvetica,sans-Serif" font-size="10.00" fill="#000000">+ operator=()</text>
<text text-anchor="start" x="289.6528" y="-217.5" font-family="Helvetica,sans-Serif" font-size="10.00" fill="#000000">+ operator==()</text>
<text text-anchor="start" x="289.6528" y="-207.5" font-family="Helvetica,sans-Serif" font-size="10.00" fill="#000000">+ set()</text>
<text text-anchor="start" x="289.6528" y="-197.5" font-family="Helvetica,sans-Serif" font-size="10.00" fill="#000000">+ get()</text>
<text text-anchor="start" x="289.6528" y="-187.5" font-family="Helvetica,sans-Serif" font-size="10.00" fill="#000000">+ get_value()</text>
<text text-anchor="start" x="289.6528" y="-177.5" font-family="Helvetica,sans-Serif" font-size="10.00" fill="#000000">+ get_default()</text>
<text text-anchor="start" x="289.6528" y="-167.5" font-family="Helvetica,sans-Serif" font-size="10.00" fill="#000000">+ is_defined()</text>
</a>
</g>
</g>
<!-- Node8&#45;&gt;Node3 -->
<g id="edge5" class="edge">
<title>Node8&#45;&gt;Node3</title>
<path fill="none" stroke="#404040" d="M431.3145,-161.436C448.4975,-138.5992 466.4864,-114.6914 481.7916,-94.3504"/>
<polygon fill="none" stroke="#404040" points="481.8592,-94.2605 482.2704,-87.0611 489.0741,-84.6716 488.6629,-91.871 481.8592,-94.2605"/>
<text text-anchor="middle" x="491.7866" y="-120" font-family="Helvetica,sans-Serif" font-size="10.00" fill="#000000"> +order</text>
</g>
<!-- Node9 -->
<g id="node7" class="node">
<title>Node9</title>
<g id="a_node7"><a xlink:href="classcx_1_1toolkit_1_1opt__value.html" target="_top" xlink:title=" ">
<polygon fill="none" stroke="#000000" points="467.5024,-161.5 467.5024,-335.5 574.1079,-335.5 574.1079,-161.5 467.5024,-161.5"/>
<text text-anchor="start" x="475.5024" y="-323.5" font-family="Helvetica,sans-Serif" font-size="10.00" fill="#000000">cx::toolkit::opt_value</text>
<text text-anchor="middle" x="520.8052" y="-313.5" font-family="Helvetica,sans-Serif" font-size="10.00" fill="#000000">&lt; String &gt;</text>
<polyline fill="none" stroke="#000000" points="467.5024,-307.5 574.1079,-307.5 "/>
<text text-anchor="middle" x="520.8052" y="-295.5" font-family="Helvetica,sans-Serif" font-size="10.00" fill="#000000"> </text>
<polyline fill="none" stroke="#000000" points="467.5024,-289.5 574.1079,-289.5 "/>
<text text-anchor="start" x="475.5024" y="-277.5" font-family="Helvetica,sans-Serif" font-size="10.00" fill="#000000">+ opt_value()</text>
<text text-anchor="start" x="475.5024" y="-267.5" font-family="Helvetica,sans-Serif" font-size="10.00" fill="#000000">+ opt_value()</text>
<text text-anchor="start" x="475.5024" y="-257.5" font-family="Helvetica,sans-Serif" font-size="10.00" fill="#000000">+ opt_value()</text>
<text text-anchor="start" x="475.5024" y="-247.5" font-family="Helvetica,sans-Serif" font-size="10.00" fill="#000000">+ opt_value()</text>
<text text-anchor="start" x="475.5024" y="-237.5" font-family="Helvetica,sans-Serif" font-size="10.00" fill="#000000">+ operator=()</text>
<text text-anchor="start" x="475.5024" y="-227.5" font-family="Helvetica,sans-Serif" font-size="10.00" fill="#000000">+ operator=()</text>
<text text-anchor="start" x="475.5024" y="-217.5" font-family="Helvetica,sans-Serif" font-size="10.00" fill="#000000">+ operator==()</text>
<text text-anchor="start" x="475.5024" y="-207.5" font-family="Helvetica,sans-Serif" font-size="10.00" fill="#000000">+ set()</text>
<text text-anchor="start" x="475.5024" y="-197.5" font-family="Helvetica,sans-Serif" font-size="10.00" fill="#000000">+ get()</text>
<text text-anchor="start" x="475.5024" y="-187.5" font-family="Helvetica,sans-Serif" font-size="10.00" fill="#000000">+ get_value()</text>
<text text-anchor="start" x="475.5024" y="-177.5" font-family="Helvetica,sans-Serif" font-size="10.00" fill="#000000">+ get_default()</text>
<text text-anchor="start" x="475.5024" y="-167.5" font-family="Helvetica,sans-Serif" font-size="10.00" fill="#000000">+ is_defined()</text>
</a>
</g>
</g>
<!-- Node9&#45;&gt;Node3 -->
<g id="edge6" class="edge">
<title>Node9&#45;&gt;Node3</title>
<path fill="none" stroke="#404040" d="M520.8052,-161.436C520.8052,-139.5335 520.8052,-116.6457 520.8052,-96.8643"/>
<polygon fill="none" stroke="#404040" points="520.8053,-96.6716 516.8052,-90.6717 520.8052,-84.6716 524.8052,-90.6716 520.8053,-96.6716"/>
<text text-anchor="middle" x="549.2939" y="-120" font-family="Helvetica,sans-Serif" font-size="10.00" fill="#000000"> +description</text>
</g>
<!-- Node10 -->
<g id="node8" class="node">
<title>Node10</title>
<g id="a_node8"><a xlink:href="classcx_1_1toolkit_1_1opt__value.html" target="_top" xlink:title=" ">
<polygon fill="none" stroke="#000000" points="592.5024,-161.5 592.5024,-335.5 699.1079,-335.5 699.1079,-161.5 592.5024,-161.5"/>
<text text-anchor="start" x="600.5024" y="-323.5" font-family="Helvetica,sans-Serif" font-size="10.00" fill="#000000">cx::toolkit::opt_value</text>
<text text-anchor="middle" x="645.8052" y="-313.5" font-family="Helvetica,sans-Serif" font-size="10.00" fill="#000000">&lt; int &gt;</text>
<polyline fill="none" stroke="#000000" points="592.5024,-307.5 699.1079,-307.5 "/>
<text text-anchor="middle" x="645.8052" y="-295.5" font-family="Helvetica,sans-Serif" font-size="10.00" fill="#000000"> </text>
<polyline fill="none" stroke="#000000" points="592.5024,-289.5 699.1079,-289.5 "/>
<text text-anchor="start" x="600.5024" y="-277.5" font-family="Helvetica,sans-Serif" font-size="10.00" fill="#000000">+ opt_value()</text>
<text text-anchor="start" x="600.5024" y="-267.5" font-family="Helvetica,sans-Serif" font-size="10.00" fill="#000000">+ opt_value()</text>
<text text-anchor="start" x="600.5024" y="-257.5" font-family="Helvetica,sans-Serif" font-size="10.00" fill="#000000">+ opt_value()</text>
<text text-anchor="start" x="600.5024" y="-247.5" font-family="Helvetica,sans-Serif" font-size="10.00" fill="#000000">+ opt_value()</text>
<text text-anchor="start" x="600.5024" y="-237.5" font-family="Helvetica,sans-Serif" font-size="10.00" fill="#000000">+ operator=()</text>
<text text-anchor="start" x="600.5024" y="-227.5" font-family="Helvetica,sans-Serif" font-size="10.00" fill="#000000">+ operator=()</text>
<text text-anchor="start" x="600.5024" y="-217.5" font-family="Helvetica,sans-Serif" font-size="10.00" fill="#000000">+ operator==()</text>
<text text-anchor="start" x="600.5024" y="-207.5" font-family="Helvetica,sans-Serif" font-size="10.00" fill="#000000">+ set()</text>
<text text-anchor="start" x="600.5024" y="-197.5" font-family="Helvetica,sans-Serif" font-size="10.00" fill="#000000">+ get()</text>
<text text-anchor="start" x="600.5024" y="-187.5" font-family="Helvetica,sans-Serif" font-size="10.00" fill="#000000">+ get_value()</text>
<text text-anchor="start" x="600.5024" y="-177.5" font-family="Helvetica,sans-Serif" font-size="10.00" fill="#000000">+ get_default()</text>
<text text-anchor="start" x="600.5024" y="-167.5" font-family="Helvetica,sans-Serif" font-size="10.00" fill="#000000">+ is_defined()</text>
</a>
</g>
</g>
<!-- Node10&#45;&gt;Node3 -->
<g id="edge7" class="edge">
<title>Node10&#45;&gt;Node3</title>
<path fill="none" stroke="#404040" d="M613.8596,-161.4047C604.8335,-141.4414 594.0719,-120.8553 581.8052,-103 579.7187,-99.963 577.467,-96.9488 575.1012,-93.9812"/>
<polygon fill="none" stroke="#404040" points="574.9834,-93.8423 568.0516,-91.8546 567.2203,-84.6915 574.1521,-86.6792 574.9834,-93.8423"/>
<text text-anchor="middle" x="631.0649" y="-135" font-family="Helvetica,sans-Serif" font-size="10.00" fill="#000000"> +start_time</text>
<text text-anchor="middle" x="631.0649" y="-125" font-family="Helvetica,sans-Serif" font-size="10.00" fill="#000000">+offset</text>
<text text-anchor="middle" x="631.0649" y="-115" font-family="Helvetica,sans-Serif" font-size="10.00" fill="#000000">+limit</text>
<text text-anchor="middle" x="631.0649" y="-105" font-family="Helvetica,sans-Serif" font-size="10.00" fill="#000000">+end_time</text>
</g>
<!-- Node11 -->
<g id="node9" class="node">
<title>Node11</title>
<g id="a_node9"><a xlink:href="classcx_1_1toolkit_1_1opt__value.html" target="_top" xlink:title=" ">
<polygon fill="none" stroke="#000000" points="716.8179,-161.5 716.8179,-335.5 896.7925,-335.5 896.7925,-161.5 716.8179,-161.5"/>
<text text-anchor="start" x="724.8179" y="-323.5" font-family="Helvetica,sans-Serif" font-size="10.00" fill="#000000">cx::toolkit::opt_value</text>
<text text-anchor="middle" x="806.8052" y="-313.5" font-family="Helvetica,sans-Serif" font-size="10.00" fill="#000000">&lt; BroadcastResourceOrderByType &gt;</text>
<polyline fill="none" stroke="#000000" points="716.8179,-307.5 896.7925,-307.5 "/>
<text text-anchor="middle" x="806.8052" y="-295.5" font-family="Helvetica,sans-Serif" font-size="10.00" fill="#000000"> </text>
<polyline fill="none" stroke="#000000" points="716.8179,-289.5 896.7925,-289.5 "/>
<text text-anchor="start" x="724.8179" y="-277.5" font-family="Helvetica,sans-Serif" font-size="10.00" fill="#000000">+ opt_value()</text>
<text text-anchor="start" x="724.8179" y="-267.5" font-family="Helvetica,sans-Serif" font-size="10.00" fill="#000000">+ opt_value()</text>
<text text-anchor="start" x="724.8179" y="-257.5" font-family="Helvetica,sans-Serif" font-size="10.00" fill="#000000">+ opt_value()</text>
<text text-anchor="start" x="724.8179" y="-247.5" font-family="Helvetica,sans-Serif" font-size="10.00" fill="#000000">+ opt_value()</text>
<text text-anchor="start" x="724.8179" y="-237.5" font-family="Helvetica,sans-Serif" font-size="10.00" fill="#000000">+ operator=()</text>
<text text-anchor="start" x="724.8179" y="-227.5" font-family="Helvetica,sans-Serif" font-size="10.00" fill="#000000">+ operator=()</text>
<text text-anchor="start" x="724.8179" y="-217.5" font-family="Helvetica,sans-Serif" font-size="10.00" fill="#000000">+ operator==()</text>
<text text-anchor="start" x="724.8179" y="-207.5" font-family="Helvetica,sans-Serif" font-size="10.00" fill="#000000">+ set()</text>
<text text-anchor="start" x="724.8179" y="-197.5" font-family="Helvetica,sans-Serif" font-size="10.00" fill="#000000">+ get()</text>
<text text-anchor="start" x="724.8179" y="-187.5" font-family="Helvetica,sans-Serif" font-size="10.00" fill="#000000">+ get_value()</text>
<text text-anchor="start" x="724.8179" y="-177.5" font-family="Helvetica,sans-Serif" font-size="10.00" fill="#000000">+ get_default()</text>
<text text-anchor="start" x="724.8179" y="-167.5" font-family="Helvetica,sans-Serif" font-size="10.00" fill="#000000">+ is_defined()</text>
</a>
</g>
</g>
<!-- Node11&#45;&gt;Node3 -->
<g id="edge9" class="edge">
<title>Node11&#45;&gt;Node3</title>
<path fill="none" stroke="#404040" d="M730.8231,-161.3583C709.8633,-140.5041 686.1503,-119.5207 661.8052,-103 645.3916,-91.8617 626.5963,-82.0842 608.1937,-73.8182"/>
<polygon fill="none" stroke="#404040" points="608.1223,-73.7872 601.0245,-75.0603 597.1193,-68.9981 604.2172,-67.725 608.1223,-73.7872"/>
<text text-anchor="middle" x="733.8481" y="-120" font-family="Helvetica,sans-Serif" font-size="10.00" fill="#000000"> +order_by</text>
</g>
<!-- Node12 -->
<g id="node10" class="node">
<title>Node12</title>
<g id="a_node10"><a xlink:href="classcx_1_1toolkit_1_1opt__value.html" target="_top" xlink:title=" ">
<polygon fill="none" stroke="#000000" points="914.4336,-161.5 914.4336,-335.5 1057.1768,-335.5 1057.1768,-161.5 914.4336,-161.5"/>
<text text-anchor="start" x="922.4336" y="-323.5" font-family="Helvetica,sans-Serif" font-size="10.00" fill="#000000">cx::toolkit::opt_value</text>
<text text-anchor="middle" x="985.8052" y="-313.5" font-family="Helvetica,sans-Serif" font-size="10.00" fill="#000000">&lt; BroadcastResourceType &gt;</text>
<polyline fill="none" stroke="#000000" points="914.4336,-307.5 1057.1768,-307.5 "/>
<text text-anchor="middle" x="985.8052" y="-295.5" font-family="Helvetica,sans-Serif" font-size="10.00" fill="#000000"> </text>
<polyline fill="none" stroke="#000000" points="914.4336,-289.5 1057.1768,-289.5 "/>
<text text-anchor="start" x="922.4336" y="-277.5" font-family="Helvetica,sans-Serif" font-size="10.00" fill="#000000">+ opt_value()</text>
<text text-anchor="start" x="922.4336" y="-267.5" font-family="Helvetica,sans-Serif" font-size="10.00" fill="#000000">+ opt_value()</text>
<text text-anchor="start" x="922.4336" y="-257.5" font-family="Helvetica,sans-Serif" font-size="10.00" fill="#000000">+ opt_value()</text>
<text text-anchor="start" x="922.4336" y="-247.5" font-family="Helvetica,sans-Serif" font-size="10.00" fill="#000000">+ opt_value()</text>
<text text-anchor="start" x="922.4336" y="-237.5" font-family="Helvetica,sans-Serif" font-size="10.00" fill="#000000">+ operator=()</text>
<text text-anchor="start" x="922.4336" y="-227.5" font-family="Helvetica,sans-Serif" font-size="10.00" fill="#000000">+ operator=()</text>
<text text-anchor="start" x="922.4336" y="-217.5" font-family="Helvetica,sans-Serif" font-size="10.00" fill="#000000">+ operator==()</text>
<text text-anchor="start" x="922.4336" y="-207.5" font-family="Helvetica,sans-Serif" font-size="10.00" fill="#000000">+ set()</text>
<text text-anchor="start" x="922.4336" y="-197.5" font-family="Helvetica,sans-Serif" font-size="10.00" fill="#000000">+ get()</text>
<text text-anchor="start" x="922.4336" y="-187.5" font-family="Helvetica,sans-Serif" font-size="10.00" fill="#000000">+ get_value()</text>
<text text-anchor="start" x="922.4336" y="-177.5" font-family="Helvetica,sans-Serif" font-size="10.00" fill="#000000">+ get_default()</text>
<text text-anchor="start" x="922.4336" y="-167.5" font-family="Helvetica,sans-Serif" font-size="10.00" fill="#000000">+ is_defined()</text>
</a>
</g>
</g>
<!-- Node12&#45;&gt;Node3 -->
<g id="edge10" class="edge">
<title>Node12&#45;&gt;Node3</title>
<path fill="none" stroke="#404040" d="M914.3342,-167.3217C911.5262,-165.1101 908.6802,-162.9946 905.8052,-161 815.7128,-98.4981 691.5609,-68.1059 608.8634,-53.9364"/>
<polygon fill="none" stroke="#404040" points="608.8099,-53.9276 602.2356,-56.8906 596.972,-51.9617 603.5462,-48.9987 608.8099,-53.9276"/>
<text text-anchor="middle" x="882.5649" y="-120" font-family="Helvetica,sans-Serif" font-size="10.00" fill="#000000"> +type</text>
</g>
</g>
</svg>
        <g id="navigator" transform="translate(0 0)" fill="#404254">
                <rect fill="#f2f5e9" fill-opacity="0.5" stroke="#606060" stroke-width=".5" x="0" y="0" width="60" height="60"/>
                <use id="zoomplus" xlink:href="#zoomPlus" x="17" y="9" onmousedown="handleZoom(evt,'in')"/>
                <use id="zoomminus" xlink:href="#zoomMin" x="42" y="9" onmousedown="handleZoom(evt,'out')"/>
                <use id="reset" xlink:href="#resetDef" x="30" y="36" onmousedown="handleReset()"/>
                <g id="arrowUp" xlink:href="#dirArrow" transform="translate(30 24)" onmousedown="handlePan(0,-1)">
                  <use xlink:href="#rim" fill="#404040">
                        <set attributeName="fill" to="#808080" begin="arrowUp.mouseover" end="arrowUp.mouseout"/>
                  </use>
                  <path fill="none" stroke="white" stroke-width="1.5" d="M0,-3.0v7 M-2.5,-0.5L0,-3.0L2.5,-0.5"/>
                </g>
                <g id="arrowRight" xlink:href="#dirArrow" transform="rotate(90) translate(36 -43)" onmousedown="handlePan(1,0)">
                  <use xlink:href="#rim" fill="#404040">
                        <set attributeName="fill" to="#808080" begin="arrowRight.mouseover" end="arrowRight.mouseout"/>
                  </use>
                  <path fill="none" stroke="white" stroke-width="1.5" d="M0,-3.0v7 M-2.5,-0.5L0,-3.0L2.5,-0.5"/>
                </g>
                <g id="arrowDown" xlink:href="#dirArrow" transform="rotate(180) translate(-30 -48)" onmousedown="handlePan(0,1)">
                  <use xlink:href="#rim" fill="#404040">
                        <set attributeName="fill" to="#808080" begin="arrowDown.mouseover" end="arrowDown.mouseout"/>
                  </use>
                  <path fill="none" stroke="white" stroke-width="1.5" d="M0,-3.0v7 M-2.5,-0.5L0,-3.0L2.5,-0.5"/>
                </g>
                <g id="arrowLeft" xlink:href="#dirArrow" transform="rotate(270) translate(-36 17)" onmousedown="handlePan(-1,0)">
                  <use xlink:href="#rim" fill="#404040">
                        <set attributeName="fill" to="#808080" begin="arrowLeft.mouseover" end="arrowLeft.mouseout"/>
                  </use>
                  <path fill="none" stroke="white" stroke-width="1.5" d="M0,-3.0v7 M-2.5,-0.5L0,-3.0L2.5,-0.5"/>
                </g>
        </g>
        <svg viewBox="0 0 15 15" width="100%" height="30px" preserveAspectRatio="xMaxYMin meet">
         <g id="arrow_out" transform="scale(0.3 0.3)">
          <a xlink:href="structcx_1_1web_1_1_broadcast_parameters__coll__graph_org.svg" target="_base">
           <rect id="button" ry="5" rx="5" y="6" x="6" height="38" width="38"
                fill="#f2f5e9" fill-opacity="0.5" stroke="#606060" stroke-width="1.0"/>
           <path id="arrow"
             d="M 11.500037,31.436501 C 11.940474,20.09759 22.043105,11.32322 32.158766,21.979434 L 37.068811,17.246167 C 37.068811,17.246167 37.088388,32 37.088388,32 L 22.160133,31.978069 C 22.160133,31.978069 26.997745,27.140456 26.997745,27.140456 C 18.528582,18.264221 13.291696,25.230495 11.500037,31.436501 z"
             style="fill:#404040;"/>
          </a>
         </g>
        </svg>
</svg>
