<?xml version="1.0" encoding="UTF-8" standalone="no"?>
<!DOCTYPE svg PUBLIC "-//W3C//DTD SVG 1.1//EN"
 "http://www.w3.org/Graphics/SVG/1.1/DTD/svg11.dtd">
<!-- Generated by graphviz version 2.40.1 (20161225.0304)
 -->
<!-- Title: cx::HTTPRequest::HTTPRequestDelegate::onRequestError Pages: 1 -->
<svg width="504pt" height="84pt"
 viewBox="0.00 0.00 503.67 84.00" xmlns="http://www.w3.org/2000/svg" xmlns:xlink="http://www.w3.org/1999/xlink">
<g id="graph0" class="graph" transform="scale(1 1) rotate(0) translate(4 80)">
<title>cx::HTTPRequest::HTTPRequestDelegate::onRequestError</title>
<!-- Node3 -->
<g id="node1" class="node">
<title>Node3</title>
<g id="a_node1"><a xlink:title=" ">
<polygon fill="#bfbfbf" stroke="#000000" points="331.8516,-23.5 331.8516,-51.5 495.6738,-51.5 495.6738,-23.5 331.8516,-23.5"/>
<text text-anchor="start" x="339.8516" y="-39.5" font-family="Helvetica,sans-Serif" font-size="10.00" fill="#000000">cx::HTTPRequest::HTTPRequest</text>
<text text-anchor="middle" x="413.7627" y="-29.5" font-family="Helvetica,sans-Serif" font-size="10.00" fill="#000000">Delegate::onRequestError</text>
</a>
</g>
</g>
<!-- Node4 -->
<g id="node2" class="node">
<title>Node4</title>
<g id="a_node2"><a xlink:href="classcx_1_1_h_t_t_p_request.html#aee8a88d17cf7c718ae315bbc3eadcb93" target="_top" xlink:title=" ">
<polygon fill="none" stroke="#000000" points="165.9258,-23.5 165.9258,-51.5 295.8516,-51.5 295.8516,-23.5 165.9258,-23.5"/>
<text text-anchor="start" x="173.9258" y="-39.5" font-family="Helvetica,sans-Serif" font-size="10.00" fill="#000000">cx::HTTPRequest::deliver</text>
<text text-anchor="middle" x="230.8887" y="-29.5" font-family="Helvetica,sans-Serif" font-size="10.00" fill="#000000">Error</text>
</a>
</g>
</g>
<!-- Node3&#45;&gt;Node4 -->
<g id="edge1" class="edge">
<title>Node3&#45;&gt;Node4</title>
<path fill="none" stroke="#191970" d="M321.5596,-37.5C312.9203,-37.5 304.2902,-37.5 295.9778,-37.5"/>
<polygon fill="#191970" stroke="#191970" points="321.687,-41.0001 331.6869,-37.5 321.6869,-34.0001 321.687,-41.0001"/>
</g>
<!-- Node5 -->
<g id="node3" class="node">
<title>Node5</title>
<g id="a_node3"><a xlink:href="classcx_1_1_h_t_t_p_request.html#aac29cb1772e2b2f2a22b22e78af6623f" target="_top" xlink:title=" ">
<polygon fill="none" stroke="#000000" points="0,-47.5 0,-75.5 129.9258,-75.5 129.9258,-47.5 0,-47.5"/>
<text text-anchor="start" x="8" y="-63.5" font-family="Helvetica,sans-Serif" font-size="10.00" fill="#000000">cx::HTTPRequest::deliver</text>
<text text-anchor="middle" x="64.9629" y="-53.5" font-family="Helvetica,sans-Serif" font-size="10.00" fill="#000000">Error</text>
</a>
</g>
</g>
<!-- Node4&#45;&gt;Node5 -->
<g id="edge2" class="edge">
<title>Node4&#45;&gt;Node5</title>
<path fill="none" stroke="#191970" d="M155.8084,-48.3598C147.2454,-49.5984 138.5693,-50.8534 130.1495,-52.0712"/>
<polygon fill="#191970" stroke="#191970" points="156.3907,-51.8121 165.7866,-46.9166 155.3886,-44.8842 156.3907,-51.8121"/>
</g>
<!-- Node6 -->
<g id="node4" class="node">
<title>Node6</title>
<g id="a_node4"><a xlink:href="classcx_1_1_h_t_t_p_upload_request.html#a3341ed2ed88b96a62dca8dd47bbee981" target="_top" xlink:title=" ">
<polygon fill="none" stroke="#000000" points="1.6626,-.5 1.6626,-28.5 128.2632,-28.5 128.2632,-.5 1.6626,-.5"/>
<text text-anchor="start" x="9.6626" y="-16.5" font-family="Helvetica,sans-Serif" font-size="10.00" fill="#000000">cx::HTTPUploadRequest</text>
<text text-anchor="middle" x="64.9629" y="-6.5" font-family="Helvetica,sans-Serif" font-size="10.00" fill="#000000">::onAllBuffersWriten</text>
</a>
</g>
</g>
<!-- Node4&#45;&gt;Node6 -->
<g id="edge3" class="edge">
<title>Node4&#45;&gt;Node6</title>
<path fill="none" stroke="#191970" d="M155.6331,-27.0684C146.5727,-25.8124 137.3887,-24.5394 128.5183,-23.3098"/>
<polygon fill="#191970" stroke="#191970" points="155.4008,-30.5695 165.7866,-28.4758 156.3619,-23.6358 155.4008,-30.5695"/>
</g>
</g>
</svg>
