<?xml version="1.0" encoding="UTF-8" standalone="no"?>
<!DOCTYPE svg PUBLIC "-//W3C//DTD SVG 1.1//EN"
 "http://www.w3.org/Graphics/SVG/1.1/DTD/svg11.dtd">
<!-- Generated by graphviz version 2.40.1 (20161225.0304)
 -->
<!-- Title: cx::web::string_entity::copy_from Pages: 1 -->
<svg width="328pt" height="225pt"
 viewBox="0.00 0.00 327.79 225.00" xmlns="http://www.w3.org/2000/svg" xmlns:xlink="http://www.w3.org/1999/xlink">
<g id="graph0" class="graph" transform="scale(1 1) rotate(0) translate(4 221)">
<title>cx::web::string_entity::copy_from</title>
<!-- Node5 -->
<g id="node1" class="node">
<title>Node5</title>
<g id="a_node1"><a xlink:title=" ">
<polygon fill="#bfbfbf" stroke="#000000" points="210.4131,-94.5 210.4131,-122.5 319.7871,-122.5 319.7871,-94.5 210.4131,-94.5"/>
<text text-anchor="start" x="218.4131" y="-110.5" font-family="Helvetica,sans-Serif" font-size="10.00" fill="#000000">cx::web::string_entity</text>
<text text-anchor="middle" x="265.1001" y="-100.5" font-family="Helvetica,sans-Serif" font-size="10.00" fill="#000000">::copy_from</text>
</a>
</g>
</g>
<!-- Node6 -->
<g id="node2" class="node">
<title>Node6</title>
<g id="a_node2"><a xlink:href="classcx_1_1details_1_1_subscription_query_helper.html#a090aacc3c4e2b581bd052a65d21b627c" target="_top" xlink:title=" ">
<polygon fill="none" stroke="#000000" points="26.6821,-188.5 26.6821,-216.5 147.731,-216.5 147.731,-188.5 26.6821,-188.5"/>
<text text-anchor="start" x="34.6821" y="-204.5" font-family="Helvetica,sans-Serif" font-size="10.00" fill="#000000">cx::details::Subscription</text>
<text text-anchor="middle" x="87.2065" y="-194.5" font-family="Helvetica,sans-Serif" font-size="10.00" fill="#000000">QueryHelper::authorise</text>
</a>
</g>
</g>
<!-- Node5&#45;&gt;Node6 -->
<g id="edge1" class="edge">
<title>Node5&#45;&gt;Node6</title>
<path fill="none" stroke="#191970" d="M243.6283,-129.4692C226.2677,-145.3363 200.5024,-166.5399 174.4131,-179.5 166.1396,-183.6099 157.0476,-187.0471 147.9539,-189.9033"/>
<polygon fill="#191970" stroke="#191970" points="246.0621,-131.9852 250.9844,-122.6032 241.2858,-126.8679 246.0621,-131.9852"/>
</g>
<!-- Node7 -->
<g id="node3" class="node">
<title>Node7</title>
<g id="a_node3"><a xlink:href="classcx_1_1details_1_1_subscription_query_helper.html#a11b95f11ce0d7a8b6c512ff21343a0ae" target="_top" xlink:title=" ">
<polygon fill="none" stroke="#000000" points="11.6724,-141.5 11.6724,-169.5 162.7407,-169.5 162.7407,-141.5 11.6724,-141.5"/>
<text text-anchor="start" x="19.6724" y="-157.5" font-family="Helvetica,sans-Serif" font-size="10.00" fill="#000000">cx::details::Subscription</text>
<text text-anchor="middle" x="87.2065" y="-147.5" font-family="Helvetica,sans-Serif" font-size="10.00" fill="#000000">QueryHelper::getCountryCode</text>
</a>
</g>
</g>
<!-- Node5&#45;&gt;Node7 -->
<g id="edge2" class="edge">
<title>Node5&#45;&gt;Node7</title>
<path fill="none" stroke="#191970" d="M201.9469,-125.2206C192.7121,-127.6635 183.317,-130.1476 174.4131,-132.5 163.5135,-135.3796 151.8467,-138.4588 140.7065,-141.3975"/>
<polygon fill="#191970" stroke="#191970" points="203.1019,-128.5355 211.874,-122.5941 201.3114,-121.7684 203.1019,-128.5355"/>
</g>
<!-- Node8 -->
<g id="node4" class="node">
<title>Node8</title>
<g id="a_node4"><a xlink:href="classcx_1_1details_1_1_subscription_query_helper.html#a57ed35c96c2167ac90c88d869798d4c4" target="_top" xlink:title=" ">
<polygon fill="none" stroke="#000000" points="5.5615,-94.5 5.5615,-122.5 168.8516,-122.5 168.8516,-94.5 5.5615,-94.5"/>
<text text-anchor="start" x="13.5615" y="-110.5" font-family="Helvetica,sans-Serif" font-size="10.00" fill="#000000">cx::details::Subscription</text>
<text text-anchor="middle" x="87.2065" y="-100.5" font-family="Helvetica,sans-Serif" font-size="10.00" fill="#000000">QueryHelper::getFullSubscription</text>
</a>
</g>
</g>
<!-- Node5&#45;&gt;Node8 -->
<g id="edge3" class="edge">
<title>Node5&#45;&gt;Node8</title>
<path fill="none" stroke="#191970" d="M199.9608,-108.5C189.8881,-108.5 179.3756,-108.5 168.9941,-108.5"/>
<polygon fill="#191970" stroke="#191970" points="200.2746,-112.0001 210.2746,-108.5 200.2746,-105.0001 200.2746,-112.0001"/>
</g>
<!-- Node9 -->
<g id="node5" class="node">
<title>Node9</title>
<g id="a_node5"><a xlink:href="classcx_1_1details_1_1_subscription_query_helper.html#a10fcdbea096ccde2ba79ccccb87cd293" target="_top" xlink:title=" ">
<polygon fill="none" stroke="#000000" points="0,-47.5 0,-75.5 174.4131,-75.5 174.4131,-47.5 0,-47.5"/>
<text text-anchor="start" x="8" y="-63.5" font-family="Helvetica,sans-Serif" font-size="10.00" fill="#000000">cx::details::Subscription</text>
<text text-anchor="middle" x="87.2065" y="-53.5" font-family="Helvetica,sans-Serif" font-size="10.00" fill="#000000">QueryHelper::getPublicSubscription</text>
</a>
</g>
</g>
<!-- Node5&#45;&gt;Node9 -->
<g id="edge4" class="edge">
<title>Node5&#45;&gt;Node9</title>
<path fill="none" stroke="#191970" d="M201.9868,-91.8253C181.7871,-86.4885 159.641,-80.6374 140.2361,-75.5106"/>
<polygon fill="#191970" stroke="#191970" points="201.1638,-95.2279 211.7262,-94.3985 202.952,-88.4601 201.1638,-95.2279"/>
</g>
<!-- Node10 -->
<g id="node6" class="node">
<title>Node10</title>
<g id="a_node6"><a xlink:href="classcx_1_1details_1_1_subscription_query_helper.html#af5b40ae5c6920ce53be8108dc910db58" target="_top" xlink:title=" ">
<polygon fill="none" stroke="#000000" points="17.229,-.5 17.229,-28.5 157.1841,-28.5 157.1841,-.5 17.229,-.5"/>
<text text-anchor="start" x="25.229" y="-16.5" font-family="Helvetica,sans-Serif" font-size="10.00" fill="#000000">cx::details::Subscription</text>
<text text-anchor="middle" x="87.2065" y="-6.5" font-family="Helvetica,sans-Serif" font-size="10.00" fill="#000000">QueryHelper::getEquipment</text>
</a>
</g>
</g>
<!-- Node5&#45;&gt;Node10 -->
<g id="edge5" class="edge">
<title>Node5&#45;&gt;Node10</title>
<path fill="none" stroke="#191970" d="M243.2253,-87.6379C225.8196,-72.0747 200.1844,-51.3635 174.4131,-38.5 166.6856,-34.6429 158.2533,-31.3354 149.7756,-28.5193"/>
<polygon fill="#191970" stroke="#191970" points="240.8681,-90.2251 250.6144,-94.3797 245.5862,-85.054 240.8681,-90.2251"/>
</g>
</g>
</svg>
