<?xml version="1.0" encoding="UTF-8" standalone="no"?>
<!DOCTYPE svg PUBLIC "-//W3C//DTD SVG 1.1//EN"
 "http://www.w3.org/Graphics/SVG/1.1/DTD/svg11.dtd">
<!-- Generated by graphviz version 2.40.1 (20161225.0304)
 -->
<!-- Title: cx::web::UpdateSubscriptionParameters Pages: 1 -->
<svg width="151pt" height="335pt"
 viewBox="0.00 0.00 151.28 335.00" xmlns="http://www.w3.org/2000/svg" xmlns:xlink="http://www.w3.org/1999/xlink">
<g id="graph0" class="graph" transform="scale(1 1) rotate(0) translate(4 331)">
<title>cx::web::UpdateSubscriptionParameters</title>
<!-- Node0 -->
<g id="node1" class="node">
<title>Node0</title>
<g id="a_node1"><a xlink:title=" ">
<polygon fill="#bfbfbf" stroke="#000000" points=".2734,-.5 .2734,-74.5 143.0068,-74.5 143.0068,-.5 .2734,-.5"/>
<text text-anchor="start" x="8.2734" y="-62.5" font-family="Helvetica,sans-Serif" font-size="10.00" fill="#000000">cx::web::UpdateSubscription</text>
<text text-anchor="middle" x="71.6401" y="-52.5" font-family="Helvetica,sans-Serif" font-size="10.00" fill="#000000">Parameters</text>
<polyline fill="none" stroke="#000000" points=".2734,-46.5 143.0068,-46.5 "/>
<text text-anchor="start" x="8.2734" y="-34.5" font-family="Helvetica,sans-Serif" font-size="10.00" fill="#000000">+ subscription_id</text>
<text text-anchor="start" x="8.2734" y="-24.5" font-family="Helvetica,sans-Serif" font-size="10.00" fill="#000000">+ body_schema</text>
<polyline fill="none" stroke="#000000" points=".2734,-18.5 143.0068,-18.5 "/>
<text text-anchor="middle" x="71.6401" y="-6.5" font-family="Helvetica,sans-Serif" font-size="10.00" fill="#000000"> </text>
</a>
</g>
</g>
<!-- Node1 -->
<g id="node2" class="node">
<title>Node1</title>
<g id="a_node2"><a xlink:href="structcx_1_1web_1_1_access_token_cache.html" target="_top" xlink:title=" ">
<polygon fill="none" stroke="#000000" points="0,-111.5 0,-205.5 143.2803,-205.5 143.2803,-111.5 0,-111.5"/>
<text text-anchor="middle" x="71.6401" y="-193.5" font-family="Helvetica,sans-Serif" font-size="10.00" fill="#000000">cx::web::AccessTokenCache</text>
<polyline fill="none" stroke="#000000" points="0,-187.5 143.2803,-187.5 "/>
<text text-anchor="start" x="8" y="-175.5" font-family="Helvetica,sans-Serif" font-size="10.00" fill="#000000">+ access_token</text>
<text text-anchor="start" x="8" y="-165.5" font-family="Helvetica,sans-Serif" font-size="10.00" fill="#000000">+ refresh_token</text>
<polyline fill="none" stroke="#000000" points="0,-159.5 143.2803,-159.5 "/>
<text text-anchor="start" x="8" y="-147.5" font-family="Helvetica,sans-Serif" font-size="10.00" fill="#000000">+ AccessTokenCache()</text>
<text text-anchor="start" x="8" y="-137.5" font-family="Helvetica,sans-Serif" font-size="10.00" fill="#000000">+ AccessTokenCache()</text>
<text text-anchor="start" x="8" y="-127.5" font-family="Helvetica,sans-Serif" font-size="10.00" fill="#000000">+ serialize()</text>
<text text-anchor="start" x="8" y="-117.5" font-family="Helvetica,sans-Serif" font-size="10.00" fill="#000000">+ deserialize()</text>
</a>
</g>
</g>
<!-- Node1&#45;&gt;Node0 -->
<g id="edge1" class="edge">
<title>Node1&#45;&gt;Node0</title>
<path fill="none" stroke="#191970" d="M71.6401,-101.2279C71.6401,-92.1684 71.6401,-83.0122 71.6401,-74.5748"/>
<polygon fill="none" stroke="#191970" points="68.1402,-101.3717 71.6401,-111.3718 75.1402,-101.3718 68.1402,-101.3717"/>
</g>
<!-- Node2 -->
<g id="node3" class="node">
<title>Node2</title>
<g id="a_node3"><a xlink:href="structcx_1_1web_1_1_cached_parameters.html" target="_top" xlink:title=" ">
<polygon fill="none" stroke="#000000" points=".835,-242.5 .835,-326.5 142.4453,-326.5 142.4453,-242.5 .835,-242.5"/>
<text text-anchor="middle" x="71.6401" y="-314.5" font-family="Helvetica,sans-Serif" font-size="10.00" fill="#000000">cx::web::CachedParameters</text>
<polyline fill="none" stroke="#000000" points=".835,-308.5 142.4453,-308.5 "/>
<text text-anchor="middle" x="71.6401" y="-296.5" font-family="Helvetica,sans-Serif" font-size="10.00" fill="#000000"> </text>
<polyline fill="none" stroke="#000000" points=".835,-290.5 142.4453,-290.5 "/>
<text text-anchor="start" x="8.835" y="-278.5" font-family="Helvetica,sans-Serif" font-size="10.00" fill="#000000">+ serialize()</text>
<text text-anchor="start" x="8.835" y="-268.5" font-family="Helvetica,sans-Serif" font-size="10.00" fill="#000000">+ deserialize()</text>
<text text-anchor="start" x="8.835" y="-258.5" font-family="Helvetica,sans-Serif" font-size="10.00" fill="#000000">+ operator&gt;&gt;()</text>
<text text-anchor="start" x="8.835" y="-248.5" font-family="Helvetica,sans-Serif" font-size="10.00" fill="#000000">+ operator&lt;&lt;()</text>
</a>
</g>
</g>
<!-- Node2&#45;&gt;Node1 -->
<g id="edge2" class="edge">
<title>Node2&#45;&gt;Node1</title>
<path fill="none" stroke="#191970" d="M71.6401,-232.0873C71.6401,-223.3328 71.6401,-214.2974 71.6401,-205.6838"/>
<polygon fill="none" stroke="#191970" points="68.1402,-232.1933 71.6401,-242.1933 75.1402,-232.1933 68.1402,-232.1933"/>
</g>
</g>
</svg>
