<?xml version="1.0" encoding="UTF-8" standalone="no"?>
<!DOCTYPE svg PUBLIC "-//W3C//DTD SVG 1.1//EN"
 "http://www.w3.org/Graphics/SVG/1.1/DTD/svg11.dtd">
<!-- Generated by graphviz version 2.40.1 (20161225.0304)
 -->
<!-- Title: ProposalParams Pages: 1 -->
<svg width="200pt" height="570pt"
 viewBox="0.00 0.00 199.95 570.00" xmlns="http://www.w3.org/2000/svg" xmlns:xlink="http://www.w3.org/1999/xlink">
<g id="graph0" class="graph" transform="scale(1 1) rotate(0) translate(4 566)">
<title>ProposalParams</title>
<!-- Node1 -->
<g id="node1" class="node">
<title>Node1</title>
<g id="a_node1"><a xlink:title=" ">
<polygon fill="#bfbfbf" stroke="#000000" points="43.3765,-.5 43.3765,-54.5 148.5757,-54.5 148.5757,-.5 43.3765,-.5"/>
<text text-anchor="middle" x="95.9761" y="-42.5" font-family="Helvetica,sans-Serif" font-size="10.00" fill="#000000">ProposalParams</text>
<polyline fill="none" stroke="#000000" points="43.3765,-36.5 148.5757,-36.5 "/>
<text text-anchor="start" x="51.3765" y="-24.5" font-family="Helvetica,sans-Serif" font-size="10.00" fill="#000000">+ mode</text>
<polyline fill="none" stroke="#000000" points="43.3765,-18.5 148.5757,-18.5 "/>
<text text-anchor="start" x="51.3765" y="-6.5" font-family="Helvetica,sans-Serif" font-size="10.00" fill="#000000">+ ProposalParams()</text>
</a>
</g>
</g>
<!-- Node2 -->
<g id="node2" class="node">
<title>Node2</title>
<g id="a_node2"><a xlink:href="struct_session_id.html" target="_top" xlink:title=" ">
<polygon fill="none" stroke="#000000" points="66.0181,-101.5 66.0181,-155.5 125.9341,-155.5 125.9341,-101.5 66.0181,-101.5"/>
<text text-anchor="middle" x="95.9761" y="-143.5" font-family="Helvetica,sans-Serif" font-size="10.00" fill="#000000">SessionId</text>
<polyline fill="none" stroke="#000000" points="66.0181,-137.5 125.9341,-137.5 "/>
<text text-anchor="middle" x="95.9761" y="-125.5" font-family="Helvetica,sans-Serif" font-size="10.00" fill="#000000"> </text>
<polyline fill="none" stroke="#000000" points="66.0181,-119.5 125.9341,-119.5 "/>
<text text-anchor="middle" x="95.9761" y="-107.5" font-family="Helvetica,sans-Serif" font-size="10.00" fill="#000000"> </text>
</a>
</g>
</g>
<!-- Node2&#45;&gt;Node1 -->
<g id="edge1" class="edge">
<title>Node2&#45;&gt;Node1</title>
<path fill="none" stroke="#404040" d="M95.9761,-101.4339C95.9761,-90.7918 95.9761,-78.3659 95.9761,-66.7716"/>
<polygon fill="none" stroke="#404040" points="95.9762,-66.6409 91.9761,-60.6409 95.9761,-54.6409 99.9761,-60.6408 95.9762,-66.6409"/>
<text text-anchor="middle" x="121.4082" y="-75" font-family="Helvetica,sans-Serif" font-size="10.00" fill="#000000"> +sessionId</text>
</g>
<!-- Node3 -->
<g id="node3" class="node">
<title>Node3</title>
<g id="a_node3"><a xlink:href="struct_strong_identity.html" target="_top" xlink:title=" ">
<polygon fill="none" stroke="#000000" points="29.4678,-193.5 29.4678,-287.5 162.4844,-287.5 162.4844,-193.5 29.4678,-193.5"/>
<text text-anchor="start" x="37.4678" y="-275.5" font-family="Helvetica,sans-Serif" font-size="10.00" fill="#000000">StrongIdentity&lt; SessionId,</text>
<text text-anchor="middle" x="95.9761" y="-265.5" font-family="Helvetica,sans-Serif" font-size="10.00" fill="#000000"> BaseIdentity &gt;</text>
<polyline fill="none" stroke="#000000" points="29.4678,-259.5 162.4844,-259.5 "/>
<text text-anchor="middle" x="95.9761" y="-247.5" font-family="Helvetica,sans-Serif" font-size="10.00" fill="#000000"> </text>
<polyline fill="none" stroke="#000000" points="29.4678,-241.5 162.4844,-241.5 "/>
<text text-anchor="start" x="37.4678" y="-229.5" font-family="Helvetica,sans-Serif" font-size="10.00" fill="#000000">+ get_value()</text>
<text text-anchor="start" x="37.4678" y="-219.5" font-family="Helvetica,sans-Serif" font-size="10.00" fill="#000000">+ get_value()</text>
<text text-anchor="start" x="37.4678" y="-209.5" font-family="Helvetica,sans-Serif" font-size="10.00" fill="#000000">+ is_empty()</text>
<text text-anchor="start" x="37.4678" y="-199.5" font-family="Helvetica,sans-Serif" font-size="10.00" fill="#000000">+ is_defined()</text>
</a>
</g>
</g>
<!-- Node3&#45;&gt;Node2 -->
<g id="edge2" class="edge">
<title>Node3&#45;&gt;Node2</title>
<path fill="none" stroke="#191970" d="M95.9761,-183.2596C95.9761,-173.57 95.9761,-163.9299 95.9761,-155.5005"/>
<polygon fill="none" stroke="#191970" points="92.4762,-183.3265 95.9761,-193.3265 99.4762,-183.3266 92.4762,-183.3265"/>
</g>
<!-- Node4 -->
<g id="node4" class="node">
<title>Node4</title>
<g id="a_node4"><a xlink:href="structdetails_1_1strong__typedef.html" target="_top" xlink:title=" ">
<polygon fill="none" stroke="#000000" points="14.7437,-325.5 14.7437,-449.5 177.2085,-449.5 177.2085,-325.5 14.7437,-325.5"/>
<text text-anchor="start" x="22.7437" y="-437.5" font-family="Helvetica,sans-Serif" font-size="10.00" fill="#000000">details::strong_typedef</text>
<text text-anchor="middle" x="95.9761" y="-427.5" font-family="Helvetica,sans-Serif" font-size="10.00" fill="#000000">&lt; SessionId, BaseIdentity &gt;</text>
<polyline fill="none" stroke="#000000" points="14.7437,-421.5 177.2085,-421.5 "/>
<text text-anchor="start" x="22.7437" y="-409.5" font-family="Helvetica,sans-Serif" font-size="10.00" fill="#000000">+ t</text>
<polyline fill="none" stroke="#000000" points="14.7437,-403.5 177.2085,-403.5 "/>
<text text-anchor="start" x="22.7437" y="-391.5" font-family="Helvetica,sans-Serif" font-size="10.00" fill="#000000">+ strong_typedef()</text>
<text text-anchor="start" x="22.7437" y="-381.5" font-family="Helvetica,sans-Serif" font-size="10.00" fill="#000000">+ strong_typedef()</text>
<text text-anchor="start" x="22.7437" y="-371.5" font-family="Helvetica,sans-Serif" font-size="10.00" fill="#000000">+ strong_typedef()</text>
<text text-anchor="start" x="22.7437" y="-361.5" font-family="Helvetica,sans-Serif" font-size="10.00" fill="#000000">+ operator const BaseIdentity &amp;()</text>
<text text-anchor="start" x="22.7437" y="-351.5" font-family="Helvetica,sans-Serif" font-size="10.00" fill="#000000">+ operator BaseIdentity &amp;()</text>
<text text-anchor="start" x="22.7437" y="-341.5" font-family="Helvetica,sans-Serif" font-size="10.00" fill="#000000">+ operator==()</text>
<text text-anchor="start" x="22.7437" y="-331.5" font-family="Helvetica,sans-Serif" font-size="10.00" fill="#000000">+ operator&lt;()</text>
</a>
</g>
</g>
<!-- Node4&#45;&gt;Node3 -->
<g id="edge3" class="edge">
<title>Node4&#45;&gt;Node3</title>
<path fill="none" stroke="#191970" d="M95.9761,-315.1162C95.9761,-305.8267 95.9761,-296.5135 95.9761,-287.7702"/>
<polygon fill="none" stroke="#191970" points="92.4762,-315.1587 95.9761,-325.1588 99.4762,-315.1588 92.4762,-315.1587"/>
</g>
<!-- Node5 -->
<g id="node5" class="node">
<title>Node5</title>
<g id="a_node5"><a xlink:title=" ">
<polygon fill="none" stroke="#bfbfbf" points="0,-487.5 0,-561.5 191.9521,-561.5 191.9521,-487.5 0,-487.5"/>
<text text-anchor="start" x="8" y="-549.5" font-family="Helvetica,sans-Serif" font-size="10.00" fill="#000000">boost::totally_ordered1</text>
<text text-anchor="start" x="8" y="-539.5" font-family="Helvetica,sans-Serif" font-size="10.00" fill="#000000">&lt; SessionId, boost::totally</text>
<text text-anchor="middle" x="95.9761" y="-529.5" font-family="Helvetica,sans-Serif" font-size="10.00" fill="#000000">_ordered2&lt; SessionId, BaseIdentity &gt; &gt;</text>
<polyline fill="none" stroke="#bfbfbf" points="0,-523.5 191.9521,-523.5 "/>
<text text-anchor="middle" x="95.9761" y="-511.5" font-family="Helvetica,sans-Serif" font-size="10.00" fill="#000000"> </text>
<polyline fill="none" stroke="#bfbfbf" points="0,-505.5 191.9521,-505.5 "/>
<text text-anchor="middle" x="95.9761" y="-493.5" font-family="Helvetica,sans-Serif" font-size="10.00" fill="#000000"> </text>
</a>
</g>
</g>
<!-- Node5&#45;&gt;Node4 -->
<g id="edge4" class="edge">
<title>Node5&#45;&gt;Node4</title>
<path fill="none" stroke="#191970" d="M95.9761,-477.2708C95.9761,-468.3774 95.9761,-458.953 95.9761,-449.6841"/>
<polygon fill="none" stroke="#191970" points="92.4762,-477.4258 95.9761,-487.4258 99.4762,-477.4259 92.4762,-477.4258"/>
</g>
</g>
</svg>
