<?xml version="1.0" encoding="UTF-8" standalone="no"?>
<!DOCTYPE svg PUBLIC "-//W3C//DTD SVG 1.1//EN"
 "http://www.w3.org/Graphics/SVG/1.1/DTD/svg11.dtd">
<!-- Generated by graphviz version 2.40.1 (20161225.0304)
 -->
<!-- Title: cx::web::CustomerServiceParameters Pages: 1 -->
<svg width="261pt" height="438pt"
 viewBox="0.00 0.00 261.13 438.00" xmlns="http://www.w3.org/2000/svg" xmlns:xlink="http://www.w3.org/1999/xlink">
<g id="graph0" class="graph" transform="scale(1 1) rotate(0) translate(4 434)">
<title>cx::web::CustomerServiceParameters</title>
<!-- Node3 -->
<g id="node1" class="node">
<title>Node3</title>
<g id="a_node1"><a xlink:title=" ">
<polygon fill="#bfbfbf" stroke="#000000" points="68.7314,-.5 68.7314,-64.5 200.8789,-64.5 200.8789,-.5 68.7314,-.5"/>
<text text-anchor="start" x="76.7314" y="-52.5" font-family="Helvetica,sans-Serif" font-size="10.00" fill="#000000">cx::web::CustomerService</text>
<text text-anchor="middle" x="134.8052" y="-42.5" font-family="Helvetica,sans-Serif" font-size="10.00" fill="#000000">Parameters</text>
<polyline fill="none" stroke="#000000" points="68.7314,-36.5 200.8789,-36.5 "/>
<text text-anchor="middle" x="134.8052" y="-24.5" font-family="Helvetica,sans-Serif" font-size="10.00" fill="#000000"> </text>
<polyline fill="none" stroke="#000000" points="68.7314,-18.5 200.8789,-18.5 "/>
<text text-anchor="middle" x="134.8052" y="-6.5" font-family="Helvetica,sans-Serif" font-size="10.00" fill="#000000"> </text>
</a>
</g>
</g>
<!-- Node4 -->
<g id="node2" class="node">
<title>Node4</title>
<g id="a_node2"><a xlink:href="structcx_1_1web_1_1_access_token_cache.html" target="_top" xlink:title=" ">
<polygon fill="none" stroke="#000000" points="9.165,-102.5 9.165,-186.5 152.4453,-186.5 152.4453,-102.5 9.165,-102.5"/>
<text text-anchor="middle" x="80.8052" y="-174.5" font-family="Helvetica,sans-Serif" font-size="10.00" fill="#000000">cx::web::AccessTokenCache</text>
<polyline fill="none" stroke="#000000" points="9.165,-168.5 152.4453,-168.5 "/>
<text text-anchor="middle" x="80.8052" y="-156.5" font-family="Helvetica,sans-Serif" font-size="10.00" fill="#000000"> </text>
<polyline fill="none" stroke="#000000" points="9.165,-150.5 152.4453,-150.5 "/>
<text text-anchor="start" x="17.165" y="-138.5" font-family="Helvetica,sans-Serif" font-size="10.00" fill="#000000">+ AccessTokenCache()</text>
<text text-anchor="start" x="17.165" y="-128.5" font-family="Helvetica,sans-Serif" font-size="10.00" fill="#000000">+ AccessTokenCache()</text>
<text text-anchor="start" x="17.165" y="-118.5" font-family="Helvetica,sans-Serif" font-size="10.00" fill="#000000">+ serialize()</text>
<text text-anchor="start" x="17.165" y="-108.5" font-family="Helvetica,sans-Serif" font-size="10.00" fill="#000000">+ deserialize()</text>
</a>
</g>
</g>
<!-- Node4&#45;&gt;Node3 -->
<g id="edge1" class="edge">
<title>Node4&#45;&gt;Node3</title>
<path fill="none" stroke="#191970" d="M105.5247,-93.23C110.2239,-83.4834 115.0159,-73.5444 119.3259,-64.6053"/>
<polygon fill="none" stroke="#191970" points="102.2568,-91.9489 101.0664,-102.4767 108.5622,-94.9891 102.2568,-91.9489"/>
</g>
<!-- Node5 -->
<g id="node3" class="node">
<title>Node5</title>
<g id="a_node3"><a xlink:href="structcx_1_1web_1_1_cached_parameters.html" target="_top" xlink:title=" ">
<polygon fill="none" stroke="#000000" points="0,-243.5 0,-327.5 141.6104,-327.5 141.6104,-243.5 0,-243.5"/>
<text text-anchor="middle" x="70.8052" y="-315.5" font-family="Helvetica,sans-Serif" font-size="10.00" fill="#000000">cx::web::CachedParameters</text>
<polyline fill="none" stroke="#000000" points="0,-309.5 141.6104,-309.5 "/>
<text text-anchor="middle" x="70.8052" y="-297.5" font-family="Helvetica,sans-Serif" font-size="10.00" fill="#000000"> </text>
<polyline fill="none" stroke="#000000" points="0,-291.5 141.6104,-291.5 "/>
<text text-anchor="start" x="8" y="-279.5" font-family="Helvetica,sans-Serif" font-size="10.00" fill="#000000">+ serialize()</text>
<text text-anchor="start" x="8" y="-269.5" font-family="Helvetica,sans-Serif" font-size="10.00" fill="#000000">+ deserialize()</text>
<text text-anchor="start" x="8" y="-259.5" font-family="Helvetica,sans-Serif" font-size="10.00" fill="#000000">+ operator&gt;&gt;()</text>
<text text-anchor="start" x="8" y="-249.5" font-family="Helvetica,sans-Serif" font-size="10.00" fill="#000000">+ operator&lt;&lt;()</text>
</a>
</g>
</g>
<!-- Node5&#45;&gt;Node4 -->
<g id="edge2" class="edge">
<title>Node5&#45;&gt;Node4</title>
<path fill="none" stroke="#191970" d="M74.5363,-232.8907C75.6154,-217.6765 76.7788,-201.272 77.807,-186.7748"/>
<polygon fill="none" stroke="#191970" points="71.0218,-232.9728 73.8055,-243.1954 78.0043,-233.468 71.0218,-232.9728"/>
</g>
<!-- Node6 -->
<g id="node4" class="node">
<title>Node6</title>
<g id="a_node4"><a xlink:title="STL class.">
<polygon fill="none" stroke="#bfbfbf" points="159.1304,-258.5 159.1304,-312.5 218.48,-312.5 218.48,-258.5 159.1304,-258.5"/>
<text text-anchor="middle" x="188.8052" y="-300.5" font-family="Helvetica,sans-Serif" font-size="10.00" fill="#000000">std::string</text>
<polyline fill="none" stroke="#bfbfbf" points="159.1304,-294.5 218.48,-294.5 "/>
<text text-anchor="middle" x="188.8052" y="-282.5" font-family="Helvetica,sans-Serif" font-size="10.00" fill="#000000"> </text>
<polyline fill="none" stroke="#bfbfbf" points="159.1304,-276.5 218.48,-276.5 "/>
<text text-anchor="middle" x="188.8052" y="-264.5" font-family="Helvetica,sans-Serif" font-size="10.00" fill="#000000"> </text>
</a>
</g>
</g>
<!-- Node6&#45;&gt;Node3 -->
<g id="edge5" class="edge">
<title>Node6&#45;&gt;Node3</title>
<path fill="none" stroke="#404040" d="M186.73,-258.376C183.5317,-222.2262 176.2003,-156.4815 161.8052,-102 159.5318,-93.3959 156.5322,-84.4007 153.3604,-75.845"/>
<polygon fill="none" stroke="#404040" points="153.3119,-75.7196 147.4158,-71.5679 148.9805,-64.5286 154.8765,-68.6803 153.3119,-75.7196"/>
<text text-anchor="middle" x="215.4663" y="-141.5" font-family="Helvetica,sans-Serif" font-size="10.00" fill="#000000"> +subscription_id</text>
</g>
<!-- Node6&#45;&gt;Node4 -->
<g id="edge3" class="edge">
<title>Node6&#45;&gt;Node4</title>
<path fill="none" stroke="#404040" d="M168.0214,-258.386C162.8369,-252.7881 156.9795,-247.2968 150.8052,-243 132.8649,-230.515 119.8458,-241.078 105.0396,-225 98.0753,-217.4376 93.1088,-207.9425 89.5679,-198.1507"/>
<polygon fill="none" stroke="#404040" points="89.5495,-198.0905 83.9663,-193.5267 86.0317,-186.6177 91.6149,-191.1815 89.5495,-198.0905"/>
<text text-anchor="middle" x="139.688" y="-217" font-family="Helvetica,sans-Serif" font-size="10.00" fill="#000000"> +access_token</text>
<text text-anchor="middle" x="139.688" y="-207" font-family="Helvetica,sans-Serif" font-size="10.00" fill="#000000">+refresh_token</text>
</g>
<!-- Node7 -->
<g id="node5" class="node">
<title>Node7</title>
<g id="a_node5"><a xlink:title="STL class.">
<polygon fill="none" stroke="#bfbfbf" points="141.7573,-365.5 141.7573,-429.5 235.853,-429.5 235.853,-365.5 141.7573,-365.5"/>
<text text-anchor="start" x="149.7573" y="-417.5" font-family="Helvetica,sans-Serif" font-size="10.00" fill="#000000">std::basic_string&lt;</text>
<text text-anchor="middle" x="188.8052" y="-407.5" font-family="Helvetica,sans-Serif" font-size="10.00" fill="#000000"> char &gt;</text>
<polyline fill="none" stroke="#bfbfbf" points="141.7573,-401.5 235.853,-401.5 "/>
<text text-anchor="middle" x="188.8052" y="-389.5" font-family="Helvetica,sans-Serif" font-size="10.00" fill="#000000"> </text>
<polyline fill="none" stroke="#bfbfbf" points="141.7573,-383.5 235.853,-383.5 "/>
<text text-anchor="middle" x="188.8052" y="-371.5" font-family="Helvetica,sans-Serif" font-size="10.00" fill="#000000"> </text>
</a>
</g>
</g>
<!-- Node7&#45;&gt;Node6 -->
<g id="edge4" class="edge">
<title>Node7&#45;&gt;Node6</title>
<path fill="none" stroke="#191970" d="M188.8052,-355.2927C188.8052,-341.0159 188.8052,-325.4638 188.8052,-312.6713"/>
<polygon fill="none" stroke="#191970" points="185.3053,-355.4053 188.8052,-365.4053 192.3053,-355.4053 185.3053,-355.4053"/>
</g>
</g>
</svg>
