<?xml version="1.0" encoding="UTF-8" standalone="no"?>
<!DOCTYPE svg PUBLIC "-//W3C//DTD SVG 1.1//EN"
 "http://www.w3.org/Graphics/SVG/1.1/DTD/svg11.dtd">
<!-- Generated by graphviz version 2.40.1 (20161225.0304)
 -->
<!-- Title: SessionId Pages: 1 -->
<svg width="200pt" height="466pt"
 viewBox="0.00 0.00 199.95 466.00" xmlns="http://www.w3.org/2000/svg" xmlns:xlink="http://www.w3.org/1999/xlink">
<g id="graph0" class="graph" transform="scale(1 1) rotate(0) translate(4 462)">
<title>SessionId</title>
<!-- Node0 -->
<g id="node1" class="node">
<title>Node0</title>
<g id="a_node1"><a xlink:title=" ">
<polygon fill="#bfbfbf" stroke="#000000" points="66.0181,-.5 66.0181,-54.5 125.9341,-54.5 125.9341,-.5 66.0181,-.5"/>
<text text-anchor="middle" x="95.9761" y="-42.5" font-family="Helvetica,sans-Serif" font-size="10.00" fill="#000000">SessionId</text>
<polyline fill="none" stroke="#000000" points="66.0181,-36.5 125.9341,-36.5 "/>
<text text-anchor="middle" x="95.9761" y="-24.5" font-family="Helvetica,sans-Serif" font-size="10.00" fill="#000000"> </text>
<polyline fill="none" stroke="#000000" points="66.0181,-18.5 125.9341,-18.5 "/>
<text text-anchor="middle" x="95.9761" y="-6.5" font-family="Helvetica,sans-Serif" font-size="10.00" fill="#000000"> </text>
</a>
</g>
</g>
<!-- Node1 -->
<g id="node2" class="node">
<title>Node1</title>
<g id="a_node2"><a xlink:href="struct_strong_identity.html" target="_top" xlink:title=" ">
<polygon fill="none" stroke="#000000" points="29.4678,-91.5 29.4678,-185.5 162.4844,-185.5 162.4844,-91.5 29.4678,-91.5"/>
<text text-anchor="start" x="37.4678" y="-173.5" font-family="Helvetica,sans-Serif" font-size="10.00" fill="#000000">StrongIdentity&lt; SessionId,</text>
<text text-anchor="middle" x="95.9761" y="-163.5" font-family="Helvetica,sans-Serif" font-size="10.00" fill="#000000"> BaseIdentity &gt;</text>
<polyline fill="none" stroke="#000000" points="29.4678,-157.5 162.4844,-157.5 "/>
<text text-anchor="middle" x="95.9761" y="-145.5" font-family="Helvetica,sans-Serif" font-size="10.00" fill="#000000"> </text>
<polyline fill="none" stroke="#000000" points="29.4678,-139.5 162.4844,-139.5 "/>
<text text-anchor="start" x="37.4678" y="-127.5" font-family="Helvetica,sans-Serif" font-size="10.00" fill="#000000">+ get_value()</text>
<text text-anchor="start" x="37.4678" y="-117.5" font-family="Helvetica,sans-Serif" font-size="10.00" fill="#000000">+ get_value()</text>
<text text-anchor="start" x="37.4678" y="-107.5" font-family="Helvetica,sans-Serif" font-size="10.00" fill="#000000">+ is_empty()</text>
<text text-anchor="start" x="37.4678" y="-97.5" font-family="Helvetica,sans-Serif" font-size="10.00" fill="#000000">+ is_defined()</text>
</a>
</g>
</g>
<!-- Node1&#45;&gt;Node0 -->
<g id="edge1" class="edge">
<title>Node1&#45;&gt;Node0</title>
<path fill="none" stroke="#191970" d="M95.9761,-81.3691C95.9761,-72.0775 95.9761,-62.8469 95.9761,-54.7203"/>
<polygon fill="none" stroke="#191970" points="92.4762,-81.426 95.9761,-91.426 99.4762,-81.426 92.4762,-81.426"/>
</g>
<!-- Node2 -->
<g id="node3" class="node">
<title>Node2</title>
<g id="a_node3"><a xlink:href="structdetails_1_1strong__typedef.html" target="_top" xlink:title=" ">
<polygon fill="none" stroke="#000000" points="14.7437,-222.5 14.7437,-346.5 177.2085,-346.5 177.2085,-222.5 14.7437,-222.5"/>
<text text-anchor="start" x="22.7437" y="-334.5" font-family="Helvetica,sans-Serif" font-size="10.00" fill="#000000">details::strong_typedef</text>
<text text-anchor="middle" x="95.9761" y="-324.5" font-family="Helvetica,sans-Serif" font-size="10.00" fill="#000000">&lt; SessionId, BaseIdentity &gt;</text>
<polyline fill="none" stroke="#000000" points="14.7437,-318.5 177.2085,-318.5 "/>
<text text-anchor="start" x="22.7437" y="-306.5" font-family="Helvetica,sans-Serif" font-size="10.00" fill="#000000">+ t</text>
<polyline fill="none" stroke="#000000" points="14.7437,-300.5 177.2085,-300.5 "/>
<text text-anchor="start" x="22.7437" y="-288.5" font-family="Helvetica,sans-Serif" font-size="10.00" fill="#000000">+ strong_typedef()</text>
<text text-anchor="start" x="22.7437" y="-278.5" font-family="Helvetica,sans-Serif" font-size="10.00" fill="#000000">+ strong_typedef()</text>
<text text-anchor="start" x="22.7437" y="-268.5" font-family="Helvetica,sans-Serif" font-size="10.00" fill="#000000">+ strong_typedef()</text>
<text text-anchor="start" x="22.7437" y="-258.5" font-family="Helvetica,sans-Serif" font-size="10.00" fill="#000000">+ operator const BaseIdentity &amp;()</text>
<text text-anchor="start" x="22.7437" y="-248.5" font-family="Helvetica,sans-Serif" font-size="10.00" fill="#000000">+ operator BaseIdentity &amp;()</text>
<text text-anchor="start" x="22.7437" y="-238.5" font-family="Helvetica,sans-Serif" font-size="10.00" fill="#000000">+ operator==()</text>
<text text-anchor="start" x="22.7437" y="-228.5" font-family="Helvetica,sans-Serif" font-size="10.00" fill="#000000">+ operator&lt;()</text>
</a>
</g>
</g>
<!-- Node2&#45;&gt;Node1 -->
<g id="edge2" class="edge">
<title>Node2&#45;&gt;Node1</title>
<path fill="none" stroke="#191970" d="M95.9761,-212.0513C95.9761,-203.0686 95.9761,-194.0747 95.9761,-185.6138"/>
<polygon fill="none" stroke="#191970" points="92.4762,-212.1593 95.9761,-222.1594 99.4762,-212.1594 92.4762,-212.1593"/>
</g>
<!-- Node3 -->
<g id="node4" class="node">
<title>Node3</title>
<g id="a_node4"><a xlink:title=" ">
<polygon fill="none" stroke="#bfbfbf" points="0,-383.5 0,-457.5 191.9521,-457.5 191.9521,-383.5 0,-383.5"/>
<text text-anchor="start" x="8" y="-445.5" font-family="Helvetica,sans-Serif" font-size="10.00" fill="#000000">boost::totally_ordered1</text>
<text text-anchor="start" x="8" y="-435.5" font-family="Helvetica,sans-Serif" font-size="10.00" fill="#000000">&lt; SessionId, boost::totally</text>
<text text-anchor="middle" x="95.9761" y="-425.5" font-family="Helvetica,sans-Serif" font-size="10.00" fill="#000000">_ordered2&lt; SessionId, BaseIdentity &gt; &gt;</text>
<polyline fill="none" stroke="#bfbfbf" points="0,-419.5 191.9521,-419.5 "/>
<text text-anchor="middle" x="95.9761" y="-407.5" font-family="Helvetica,sans-Serif" font-size="10.00" fill="#000000"> </text>
<polyline fill="none" stroke="#bfbfbf" points="0,-401.5 191.9521,-401.5 "/>
<text text-anchor="middle" x="95.9761" y="-389.5" font-family="Helvetica,sans-Serif" font-size="10.00" fill="#000000"> </text>
</a>
</g>
</g>
<!-- Node3&#45;&gt;Node2 -->
<g id="edge3" class="edge">
<title>Node3&#45;&gt;Node2</title>
<path fill="none" stroke="#191970" d="M95.9761,-373.1948C95.9761,-364.6499 95.9761,-355.623 95.9761,-346.7288"/>
<polygon fill="none" stroke="#191970" points="92.4762,-373.3374 95.9761,-383.3374 99.4762,-373.3374 92.4762,-373.3374"/>
</g>
</g>
</svg>
