<?xml version="1.0" encoding="UTF-8" standalone="no"?>
<!DOCTYPE svg PUBLIC "-//W3C//DTD SVG 1.1//EN"
 "http://www.w3.org/Graphics/SVG/1.1/DTD/svg11.dtd">
<!-- Generated by graphviz version 2.40.1 (20161225.0304)
 -->
<!-- Title: cx::web::AccessTokenUpgradeParameters Pages: 1 -->
<svg width="244pt" height="438pt"
 viewBox="0.00 0.00 243.85 438.00" xmlns="http://www.w3.org/2000/svg" xmlns:xlink="http://www.w3.org/1999/xlink">
<g id="graph0" class="graph" transform="scale(1 1) rotate(0) translate(4 434)">
<title>cx::web::AccessTokenUpgradeParameters</title>
<!-- Node3 -->
<g id="node1" class="node">
<title>Node3</title>
<g id="a_node1"><a xlink:title=" ">
<polygon fill="#bfbfbf" stroke="#000000" points="31.4385,-.5 31.4385,-64.5 184.1719,-64.5 184.1719,-.5 31.4385,-.5"/>
<text text-anchor="start" x="39.4385" y="-52.5" font-family="Helvetica,sans-Serif" font-size="10.00" fill="#000000">cx::web::AccessTokenUpgrade</text>
<text text-anchor="middle" x="107.8052" y="-42.5" font-family="Helvetica,sans-Serif" font-size="10.00" fill="#000000">Parameters</text>
<polyline fill="none" stroke="#000000" points="31.4385,-36.5 184.1719,-36.5 "/>
<text text-anchor="middle" x="107.8052" y="-24.5" font-family="Helvetica,sans-Serif" font-size="10.00" fill="#000000"> </text>
<polyline fill="none" stroke="#000000" points="31.4385,-18.5 184.1719,-18.5 "/>
<text text-anchor="middle" x="107.8052" y="-6.5" font-family="Helvetica,sans-Serif" font-size="10.00" fill="#000000"> </text>
</a>
</g>
</g>
<!-- Node4 -->
<g id="node2" class="node">
<title>Node4</title>
<g id="a_node2"><a xlink:href="structcx_1_1web_1_1_access_token_cache.html" target="_top" xlink:title=" ">
<polygon fill="none" stroke="#000000" points="36.165,-102.5 36.165,-186.5 179.4453,-186.5 179.4453,-102.5 36.165,-102.5"/>
<text text-anchor="middle" x="107.8052" y="-174.5" font-family="Helvetica,sans-Serif" font-size="10.00" fill="#000000">cx::web::AccessTokenCache</text>
<polyline fill="none" stroke="#000000" points="36.165,-168.5 179.4453,-168.5 "/>
<text text-anchor="middle" x="107.8052" y="-156.5" font-family="Helvetica,sans-Serif" font-size="10.00" fill="#000000"> </text>
<polyline fill="none" stroke="#000000" points="36.165,-150.5 179.4453,-150.5 "/>
<text text-anchor="start" x="44.165" y="-138.5" font-family="Helvetica,sans-Serif" font-size="10.00" fill="#000000">+ AccessTokenCache()</text>
<text text-anchor="start" x="44.165" y="-128.5" font-family="Helvetica,sans-Serif" font-size="10.00" fill="#000000">+ AccessTokenCache()</text>
<text text-anchor="start" x="44.165" y="-118.5" font-family="Helvetica,sans-Serif" font-size="10.00" fill="#000000">+ serialize()</text>
<text text-anchor="start" x="44.165" y="-108.5" font-family="Helvetica,sans-Serif" font-size="10.00" fill="#000000">+ deserialize()</text>
</a>
</g>
</g>
<!-- Node4&#45;&gt;Node3 -->
<g id="edge1" class="edge">
<title>Node4&#45;&gt;Node3</title>
<path fill="none" stroke="#191970" d="M107.8052,-92.3251C107.8052,-82.8696 107.8052,-73.268 107.8052,-64.6053"/>
<polygon fill="none" stroke="#191970" points="104.3053,-92.4766 107.8052,-102.4767 111.3053,-92.4767 104.3053,-92.4766"/>
</g>
<!-- Node5 -->
<g id="node3" class="node">
<title>Node5</title>
<g id="a_node3"><a xlink:href="structcx_1_1web_1_1_cached_parameters.html" target="_top" xlink:title=" ">
<polygon fill="none" stroke="#000000" points="0,-243.5 0,-327.5 141.6104,-327.5 141.6104,-243.5 0,-243.5"/>
<text text-anchor="middle" x="70.8052" y="-315.5" font-family="Helvetica,sans-Serif" font-size="10.00" fill="#000000">cx::web::CachedParameters</text>
<polyline fill="none" stroke="#000000" points="0,-309.5 141.6104,-309.5 "/>
<text text-anchor="middle" x="70.8052" y="-297.5" font-family="Helvetica,sans-Serif" font-size="10.00" fill="#000000"> </text>
<polyline fill="none" stroke="#000000" points="0,-291.5 141.6104,-291.5 "/>
<text text-anchor="start" x="8" y="-279.5" font-family="Helvetica,sans-Serif" font-size="10.00" fill="#000000">+ serialize()</text>
<text text-anchor="start" x="8" y="-269.5" font-family="Helvetica,sans-Serif" font-size="10.00" fill="#000000">+ deserialize()</text>
<text text-anchor="start" x="8" y="-259.5" font-family="Helvetica,sans-Serif" font-size="10.00" fill="#000000">+ operator&gt;&gt;()</text>
<text text-anchor="start" x="8" y="-249.5" font-family="Helvetica,sans-Serif" font-size="10.00" fill="#000000">+ operator&lt;&lt;()</text>
</a>
</g>
</g>
<!-- Node5&#45;&gt;Node4 -->
<g id="edge2" class="edge">
<title>Node5&#45;&gt;Node4</title>
<path fill="none" stroke="#191970" d="M84.4954,-233.3292C88.52,-217.9922 92.871,-201.4114 96.7118,-186.7748"/>
<polygon fill="none" stroke="#191970" points="81.0593,-232.6344 81.9064,-243.1954 87.83,-234.4112 81.0593,-232.6344"/>
</g>
<!-- Node6 -->
<g id="node4" class="node">
<title>Node6</title>
<g id="a_node4"><a xlink:title="STL class.">
<polygon fill="none" stroke="#bfbfbf" points="159.1304,-258.5 159.1304,-312.5 218.48,-312.5 218.48,-258.5 159.1304,-258.5"/>
<text text-anchor="middle" x="188.8052" y="-300.5" font-family="Helvetica,sans-Serif" font-size="10.00" fill="#000000">std::string</text>
<polyline fill="none" stroke="#bfbfbf" points="159.1304,-294.5 218.48,-294.5 "/>
<text text-anchor="middle" x="188.8052" y="-282.5" font-family="Helvetica,sans-Serif" font-size="10.00" fill="#000000"> </text>
<polyline fill="none" stroke="#bfbfbf" points="159.1304,-276.5 218.48,-276.5 "/>
<text text-anchor="middle" x="188.8052" y="-264.5" font-family="Helvetica,sans-Serif" font-size="10.00" fill="#000000"> </text>
</a>
</g>
</g>
<!-- Node6&#45;&gt;Node4 -->
<g id="edge3" class="edge">
<title>Node6&#45;&gt;Node4</title>
<path fill="none" stroke="#404040" d="M173.1876,-258.3138C163.244,-241.0046 150.0331,-218.0079 138.0902,-197.2184"/>
<polygon fill="none" stroke="#404040" points="137.962,-196.9951 131.5048,-193.785 131.9844,-186.5898 138.4416,-189.7999 137.962,-196.9951"/>
<text text-anchor="middle" x="187.688" y="-217" font-family="Helvetica,sans-Serif" font-size="10.00" fill="#000000"> +access_token</text>
<text text-anchor="middle" x="187.688" y="-207" font-family="Helvetica,sans-Serif" font-size="10.00" fill="#000000">+refresh_token</text>
</g>
<!-- Node7 -->
<g id="node5" class="node">
<title>Node7</title>
<g id="a_node5"><a xlink:title="STL class.">
<polygon fill="none" stroke="#bfbfbf" points="141.7573,-365.5 141.7573,-429.5 235.853,-429.5 235.853,-365.5 141.7573,-365.5"/>
<text text-anchor="start" x="149.7573" y="-417.5" font-family="Helvetica,sans-Serif" font-size="10.00" fill="#000000">std::basic_string&lt;</text>
<text text-anchor="middle" x="188.8052" y="-407.5" font-family="Helvetica,sans-Serif" font-size="10.00" fill="#000000"> char &gt;</text>
<polyline fill="none" stroke="#bfbfbf" points="141.7573,-401.5 235.853,-401.5 "/>
<text text-anchor="middle" x="188.8052" y="-389.5" font-family="Helvetica,sans-Serif" font-size="10.00" fill="#000000"> </text>
<polyline fill="none" stroke="#bfbfbf" points="141.7573,-383.5 235.853,-383.5 "/>
<text text-anchor="middle" x="188.8052" y="-371.5" font-family="Helvetica,sans-Serif" font-size="10.00" fill="#000000"> </text>
</a>
</g>
</g>
<!-- Node7&#45;&gt;Node6 -->
<g id="edge4" class="edge">
<title>Node7&#45;&gt;Node6</title>
<path fill="none" stroke="#191970" d="M188.8052,-355.2927C188.8052,-341.0159 188.8052,-325.4638 188.8052,-312.6713"/>
<polygon fill="none" stroke="#191970" points="185.3053,-355.4053 188.8052,-365.4053 192.3053,-355.4053 185.3053,-355.4053"/>
</g>
</g>
</svg>
