<?xml version="1.0" encoding="UTF-8" standalone="no"?>
<!DOCTYPE svg PUBLIC "-//W3C//DTD SVG 1.1//EN"
 "http://www.w3.org/Graphics/SVG/1.1/DTD/svg11.dtd">
<!-- Generated by graphviz version 2.40.1 (20161225.0304)
 -->
<!-- Title: /Users/oskryp/Projects/freesee&#45;native&#45;client/libs/fcc_sdk/engine/meetingclient/src/webservices/uri_string.cxx Pages: 1 -->
<svg width="211pt" height="177pt"
 viewBox="0.00 0.00 210.96 177.00" xmlns="http://www.w3.org/2000/svg" xmlns:xlink="http://www.w3.org/1999/xlink">
<g id="graph0" class="graph" transform="scale(1 1) rotate(0) translate(4 173)">
<title>/Users/oskryp/Projects/freesee&#45;native&#45;client/libs/fcc_sdk/engine/meetingclient/src/webservices/uri_string.cxx</title>
<!-- Node0 -->
<g id="node1" class="node">
<title>Node0</title>
<g id="a_node1"><a xlink:title=" ">
<polygon fill="#bfbfbf" stroke="#000000" points="37.9854,-120.5 37.9854,-168.5 202.9551,-168.5 202.9551,-120.5 37.9854,-120.5"/>
<text text-anchor="start" x="45.9854" y="-156.5" font-family="Helvetica,sans-Serif" font-size="10.00" fill="#000000">/Users/oskryp/Projects</text>
<text text-anchor="start" x="45.9854" y="-146.5" font-family="Helvetica,sans-Serif" font-size="10.00" fill="#000000">/freesee&#45;native&#45;client</text>
<text text-anchor="start" x="45.9854" y="-136.5" font-family="Helvetica,sans-Serif" font-size="10.00" fill="#000000">/libs/fcc_sdk/engine/meetingclient</text>
<text text-anchor="middle" x="120.4702" y="-126.5" font-family="Helvetica,sans-Serif" font-size="10.00" fill="#000000">/src/webservices/uri_string.cxx</text>
</a>
</g>
</g>
<!-- Node1 -->
<g id="node2" class="node">
<title>Node1</title>
<g id="a_node2"><a xlink:href="uri__string_8hxx.html" target="_top" xlink:title=" ">
<polygon fill="none" stroke="#000000" points="0,-55.5 0,-83.5 134.9404,-83.5 134.9404,-55.5 0,-55.5"/>
<text text-anchor="start" x="8" y="-71.5" font-family="Helvetica,sans-Serif" font-size="10.00" fill="#000000">MeetingClient/webservices</text>
<text text-anchor="middle" x="67.4702" y="-61.5" font-family="Helvetica,sans-Serif" font-size="10.00" fill="#000000">/uri_string.hxx</text>
</a>
</g>
</g>
<!-- Node0&#45;&gt;Node1 -->
<g id="edge1" class="edge">
<title>Node0&#45;&gt;Node1</title>
<path fill="none" stroke="#191970" d="M103.4089,-120.3567C96.9634,-111.2356 89.6608,-100.9018 83.3299,-91.9429"/>
<polygon fill="#191970" stroke="#191970" points="86.02,-89.685 77.3905,-83.5382 80.3033,-93.7248 86.02,-89.685"/>
</g>
<!-- Node4 -->
<g id="node5" class="node">
<title>Node4</title>
<g id="a_node5"><a xlink:title=" ">
<polygon fill="none" stroke="#bfbfbf" points="153.4063,-60.5 153.4063,-78.5 195.5342,-78.5 195.5342,-60.5 153.4063,-60.5"/>
<text text-anchor="middle" x="174.4702" y="-66.5" font-family="Helvetica,sans-Serif" font-size="10.00" fill="#000000">locale</text>
</a>
</g>
</g>
<!-- Node0&#45;&gt;Node4 -->
<g id="edge4" class="edge">
<title>Node0&#45;&gt;Node4</title>
<path fill="none" stroke="#191970" d="M137.8534,-120.3567C145.6905,-109.4719 154.771,-96.86 161.9287,-86.9188"/>
<polygon fill="#191970" stroke="#191970" points="164.868,-88.8264 167.8707,-78.666 159.1872,-84.7363 164.868,-88.8264"/>
</g>
<!-- Node2 -->
<g id="node3" class="node">
<title>Node2</title>
<g id="a_node3"><a xlink:title=" ">
<polygon fill="none" stroke="#bfbfbf" points="7.6895,-.5 7.6895,-18.5 59.251,-18.5 59.251,-.5 7.6895,-.5"/>
<text text-anchor="middle" x="33.4702" y="-6.5" font-family="Helvetica,sans-Serif" font-size="10.00" fill="#000000">sstream</text>
</a>
</g>
</g>
<!-- Node1&#45;&gt;Node2 -->
<g id="edge2" class="edge">
<title>Node1&#45;&gt;Node2</title>
<path fill="none" stroke="#191970" d="M59.4127,-55.2808C54.6826,-46.9336 48.6612,-36.3076 43.6105,-27.3946"/>
<polygon fill="#191970" stroke="#191970" points="46.5932,-25.5589 38.6179,-18.5842 40.503,-29.01 46.5932,-25.5589"/>
</g>
<!-- Node3 -->
<g id="node4" class="node">
<title>Node3</title>
<g id="a_node4"><a xlink:title=" ">
<polygon fill="none" stroke="#bfbfbf" points="76.9604,-.5 76.9604,-18.5 127.98,-18.5 127.98,-.5 76.9604,-.5"/>
<text text-anchor="middle" x="102.4702" y="-6.5" font-family="Helvetica,sans-Serif" font-size="10.00" fill="#000000">iomanip</text>
</a>
</g>
</g>
<!-- Node1&#45;&gt;Node3 -->
<g id="edge3" class="edge">
<title>Node1&#45;&gt;Node3</title>
<path fill="none" stroke="#191970" d="M75.7647,-55.2808C80.634,-46.9336 86.8324,-36.3076 92.0317,-27.3946"/>
<polygon fill="#191970" stroke="#191970" points="95.1556,-28.9856 97.1711,-18.5842 89.1091,-25.4584 95.1556,-28.9856"/>
</g>
</g>
</svg>
